<?xml version="1.0" encoding="utf-8"?>
<svg version="1.1" viewBox="0 0 264 30" xmlns="http://www.w3.org/2000/svg">
  <path d="M 21.354 21.428 L 11.749 21.428 L 9.874 23.349 L 7.762 25.439 C 7.356 25.898 7.062 26.312 6.883 26.682 C 6.742 26.966 6.681 27.251 6.694 27.535 C 6.709 27.832 6.917 28.107 7.321 28.361 C 7.725 28.614 8.38 28.759 9.285 28.798 L 9.316 29.433 L 0 29.433 L 0.199 28.798 C 1.019 28.687 1.743 28.451 2.37 28.094 C 3.204 27.599 4.386 26.582 5.916 25.038 L 26.981 4.076 L 28.016 4.076 L 28.014 24.363 C 28.021 25.423 28.03 26.064 28.041 26.287 C 28.084 27.131 28.321 27.743 28.756 28.127 C 29.192 28.511 29.894 28.734 30.867 28.796 L 30.67 29.432 L 17.186 29.432 L 17.408 28.796 C 18.739 28.697 19.502 28.611 19.697 28.538 C 20.12 28.367 20.493 28.005 20.82 27.458 C 21.144 26.91 21.313 25.961 21.322 24.606 L 21.352 21.427 Z M 21.279 19.932 L 21.487 11.84 L 13.26 19.932 L 21.28 19.932" style="fill: rgb(255, 255, 255);"/>
  <path d="M 50.461 4.651 L 53.633 21.721 L 67.594 4.651 L 78.547 4.651 L 78.301 5.287 C 76.801 5.287 75.672 5.543 74.916 6.056 C 74.162 6.57 73.546 7.583 73.07 9.099 L 68.127 24.996 C 67.809 26.01 67.662 26.763 67.688 27.257 C 67.71 27.712 67.958 28.08 68.432 28.358 C 68.906 28.635 69.818 28.786 71.166 28.812 L 70.991 29.447 L 55.449 29.447 L 55.692 28.812 C 57.363 28.812 58.583 28.556 59.355 28.042 C 60.125 27.529 60.75 26.513 61.226 24.997 L 66.231 8.896 L 49.457 29.45 L 48.492 29.45 L 44.629 8.494 L 39.498 24.997 C 39.288 25.675 39.193 26.244 39.215 26.702 C 39.246 27.319 39.535 27.814 40.081 28.191 C 40.63 28.568 41.54 28.775 42.814 28.813 L 42.616 29.448 L 32.321 29.448 L 32.497 28.813 C 33.735 28.775 34.674 28.565 35.315 28.183 C 36.444 27.491 37.233 26.429 37.685 24.996 L 43.49 6.643 C 42.819 6.082 42.222 5.716 41.7 5.544 C 41.18 5.374 40.314 5.288 39.106 5.288 L 39.348 4.652 L 50.466 4.652" style="fill: rgb(255, 255, 255);"/>
  <path d="M 81.281 5.271 L 81.502 4.635 L 96.724 4.635 L 96.457 5.271 C 95.077 5.271 94.036 5.518 93.333 6.011 C 92.629 6.502 92.041 7.531 91.567 9.099 L 86.633 24.971 C 86.275 26.105 86.106 26.863 86.124 27.245 C 86.146 27.689 86.378 28.033 86.82 28.279 C 87.387 28.599 88.438 28.773 89.972 28.798 L 89.773 29.433 L 74.346 29.433 L 74.567 28.798 C 76.116 28.798 77.236 28.559 77.933 28.086 C 78.628 27.612 79.229 26.572 79.731 24.97 L 84.665 9.098 C 84.968 8.112 85.106 7.366 85.082 6.86 C 85.058 6.406 84.825 6.047 84.385 5.789 C 83.944 5.529 82.907 5.357 81.28 5.271" style="fill: rgb(255, 255, 255);"/>
  <path d="M 142.331 21.428 L 132.728 21.428 L 130.853 23.349 L 128.741 25.439 C 128.336 25.898 128.041 26.312 127.86 26.682 C 127.722 26.966 127.658 27.251 127.673 27.535 C 127.689 27.832 127.897 28.107 128.301 28.361 C 128.704 28.614 129.357 28.759 130.265 28.798 L 130.296 29.433 L 120.98 29.433 L 121.178 28.798 C 122 28.687 122.723 28.451 123.349 28.094 C 124.182 27.599 125.366 26.582 126.897 25.038 L 147.963 4.076 L 148.998 4.076 L 148.993 24.363 C 149.002 25.423 149.011 26.064 149.022 26.287 C 149.064 27.131 149.303 27.743 149.736 28.127 C 150.171 28.511 150.875 28.734 151.846 28.796 L 151.649 29.432 L 138.165 29.432 L 138.388 28.796 C 139.717 28.697 140.482 28.611 140.678 28.538 C 141.099 28.367 141.474 28.005 141.798 27.458 C 142.125 26.91 142.292 25.961 142.303 24.606 L 142.331 21.427 Z M 142.256 19.932 L 142.467 11.84 L 134.24 19.932 L 142.256 19.932" style="fill: rgb(255, 255, 255);"/>
  <path d="M 125.265 4.313 C 125.489 4.519 125.552 5.203 125.552 5.203 L 124.071 12.011 L 123.271 12.011 C 123.035 9.716 122.951 8.065 121.708 7.055 C 120.467 6.045 119.824 5.48 117.672 5.48 C 115.455 5.48 112.653 6.159 110.497 7.395 C 108.344 8.63 105.672 10.536 104.238 13.109 C 102.806 15.685 101.939 18.391 102.08 21.227 C 102.203 23.661 103.019 25.522 104.527 26.805 C 106.036 28.089 107.761 28.73 109.703 28.73 C 110.523 28.73 111.51 28.554 112.664 28.199 L 114.697 21.652 C 115.041 20.552 115.204 19.835 115.188 19.493 C 115.164 19.041 114.905 18.661 114.408 18.35 C 113.908 18.04 113.07 17.883 111.89 17.883 L 112.083 17.174 L 125.466 17.174 L 125.295 17.883 C 124.501 17.923 123.882 18.044 123.44 18.253 C 122.999 18.46 122.657 18.766 122.418 19.17 C 122.275 19.408 122.069 20.027 121.797 21.02 L 119.503 28.396 C 116.261 29.465 112.82 30 109.18 30 C 106.37 30 103.964 29.603 101.955 28.813 C 99.946 28.02 98.25 26.766 96.871 25.049 C 95.49 23.33 94.747 21.374 94.637 19.181 C 94.405 14.503 96.83 10.645 101.912 7.612 C 105.895 5.259 110.386 4.23 115.54 3.977 C 116.029 3.977 117.29 3.858 119.048 3.858 C 120.542 3.858 122.271 3.907 124.775 4.085 C 124.775 4.085 124.99 4.058 125.263 4.315" style="fill: rgb(255, 255, 255);"/>
  <path d="M 166.605 10.572 L 166.605 22.945 C 166.605 26.359 169.302 29.131 172.626 29.131 L 185.824 29.131 C 189.147 29.131 191.844 26.36 191.844 22.945 L 191.843 19.784 L 185.87 19.784 L 185.87 20.974 C 185.87 22.509 184.775 23.632 183.282 23.632 L 175.075 23.632 C 173.583 23.632 172.49 22.509 172.49 20.974 L 172.49 13.095 C 172.49 11.559 173.583 10.436 175.075 10.436 L 182.746 10.436 C 184.239 10.436 185.334 11.559 185.334 13.095 L 185.334 13.736 L 191.307 13.736 L 191.309 10.573 C 191.309 7.158 188.611 4.386 185.288 4.386 L 172.623 4.386 C 169.3 4.386 166.603 7.157 166.603 10.573" style="fill: rgb(255, 255, 255);"/>
  <path d="M 201.391 23.655 L 201.391 9.907 L 211.961 9.907 C 213.808 9.907 215.304 11.446 215.304 13.347 L 215.304 20.221 C 215.304 22.117 213.807 23.658 211.961 23.658 L 201.391 23.658 Z M 195.505 29.154 L 214.723 29.154 C 218.288 29.154 221.28 26.077 221.28 22.418 L 221.28 11.145 C 221.28 7.485 218.288 4.408 214.723 4.408 L 195.505 4.408 L 195.505 29.154" style="fill: rgb(255, 255, 255);"/>
  <path d="M 250.087 7.301 C 247.69 7.301 245.248 8.573 245.248 11.001 L 245.248 13.248 L 245.272 13.25 L 245.272 16.498 L 264 16.498 L 264 13.018 L 250.504 13.018 C 248.766 12.573 250.671 11.151 251.555 11.047 L 259.659 11.047 C 262.056 11.047 263.998 9.075 263.998 6.648 L 263.998 4.399 C 263.998 1.971 262.056 0 259.659 0 L 250.121 0 C 247.724 0 245.245 1.42 245.245 3.851 L 245.245 6.099 L 249.961 6.099 L 249.961 5.643 C 249.961 4.553 250.75 3.752 251.827 3.752 L 257.89 3.752 C 258.927 3.752 259.697 4.495 259.752 5.526 C 259.697 6.555 258.927 7.297 257.89 7.297 L 250.084 7.299" style="fill: rgb(255, 255, 255);"/>
  <path d="M 239.449 8.26 C 241.263 8.124 242.593 7.555 242.593 5.548 L 242.593 3.299 C 242.593 0.871 240.648 0 238.254 0 L 229.782 0 C 227.388 0 224.907 1.42 224.907 3.851 L 224.907 6.099 L 229.625 6.099 L 229.625 5.643 C 229.625 4.552 230.412 3.752 231.489 3.752 L 236.483 3.752 C 237.52 3.752 238.29 3.946 238.345 4.975 C 238.29 6.006 237.52 6.746 236.483 6.746 L 232.424 6.749 L 232.424 9.802 L 237.019 9.802 C 238.056 9.802 238.825 10.544 238.88 11.575 C 238.825 12.604 238.056 12.796 237.019 12.796 L 231.489 12.796 C 230.412 12.796 229.625 11.998 229.625 10.907 L 229.625 10.449 L 224.907 10.449 L 224.907 12.699 C 224.907 15.127 227.387 16.548 229.782 16.548 L 238.79 16.548 C 241.524 16.499 243.129 15.127 243.129 12.699 L 243.129 11.001 C 243.129 8.8 241.533 8.331 239.452 8.262" style="fill: rgb(255, 255, 255);"/>
</svg>