<?xml version="1.0" encoding="utf-8"?>
<svg version="1.1" baseProfile="tiny" id="svg7148" x="0px" y="0px" viewBox="-64 344.8 482 105.2" xmlns="http://www.w3.org/2000/svg">
  <path id="path3002" d="M -11.4 344.8 C -40.5 344.8 -64 368.4 -64 397.4 C -64 426.5 -40.4 450 -11.4 450 C -5.8 450 -0.4 449.1 4.6 447.5 L 4.6 421.2 C 0.2 423.7 -4.9 425.2 -10.3 425.2 C -26.3 425.2 -39.2 412.7 -39.2 397.4 C -39.2 382.1 -26.2 369.6 -10.3 369.6 C -4.8 369.6 0.3 371.1 4.6 373.6 L 4.6 347.3 C -0.4 345.7 -5.8 344.8 -11.4 344.8 Z" style="fill: rgb(255, 255, 255);"/>
  <polygon id="polygon9367" points="5.1 377.4 5.1 377.4 44.3 377.4 26.7 395.7 5.1 395.7" style="fill: rgb(255, 255, 255);"/>
  <polygon id="polygon9369" points="5.1 417.7 5.1 417.7 44.3 417.7 26.7 399.4 5.1 399.4" style="fill: rgb(255, 255, 255);"/>
  <path id="path3067" d="M 110.6 391.1 C 115.6 391.1 119.6 389.7 122.8 387.1 C 126 384.4 127.6 380.7 127.7 375.8 C 127.6 370.9 126 367.1 122.8 364.4 C 119.6 361.7 115.6 360.4 110.6 360.4 C 105.6 360.4 101.6 361.8 98.4 364.4 C 95.2 367 93.6 370.9 93.5 375.8 C 93.6 380.7 95.2 384.5 98.4 387.1 C 101.6 389.7 105.6 391.1 110.6 391.1 Z M 110.6 384 C 108.3 383.9 106.6 383.1 105.5 381.5 C 104.4 379.9 103.9 378 104 375.7 C 104 373.4 104.5 371.5 105.5 369.9 C 106.5 368.3 108.2 367.5 110.6 367.4 C 112.9 367.5 114.6 368.3 115.7 369.9 C 116.8 371.5 117.3 373.4 117.2 375.7 C 117.2 377.9 116.7 379.9 115.7 381.5 C 114.6 383.1 112.9 383.9 110.6 384 Z" style="fill: rgb(255, 255, 255);"/>
  <path id="path3069" d="M 131.8 390.4 L 142 390.4 L 142 378 C 142 374.9 142.5 372.5 143.5 371 C 144.5 369.5 145.9 368.8 147.7 368.8 C 149.1 368.8 150.2 369.4 150.8 370.5 C 151.4 371.6 151.8 373 151.8 374.7 L 151.8 390.5 L 162 390.5 L 162 378.1 C 162 375 162.5 372.6 163.5 371.1 C 164.5 369.6 165.9 368.9 167.7 368.9 C 169.1 368.9 170.2 369.5 170.8 370.6 C 171.4 371.7 171.8 373.1 171.8 374.8 L 171.8 390.6 L 182 390.6 L 182 373.3 C 182.1 369.3 181.4 366.2 180 363.9 C 178.6 361.7 175.8 360.5 171.6 360.5 C 169.5 360.5 167.5 360.9 165.7 361.8 C 163.9 362.7 162.4 364.1 161.2 366.1 C 160.4 364.2 159.2 362.8 157.6 361.8 C 156 360.9 154.1 360.4 152 360.4 C 149.7 360.4 147.5 360.9 145.7 361.9 C 143.8 362.9 142.4 364.4 141.3 366.5 L 141.2 366.5 L 141.2 361.1 L 131.9 361.1 L 131.8 390.4 L 131.8 390.4 Z" style="fill: rgb(255, 255, 255);"/>
  <path id="path3071" d="M 187.5 390.4 L 197.7 390.4 L 197.7 378 C 197.7 374.9 198.2 372.5 199.2 371 C 200.2 369.5 201.6 368.8 203.4 368.8 C 204.8 368.8 205.9 369.4 206.5 370.5 C 207.1 371.6 207.5 373 207.5 374.7 L 207.5 390.5 L 217.7 390.5 L 217.7 378.1 C 217.7 375 218.2 372.6 219.2 371.1 C 220.2 369.6 221.6 368.9 223.4 368.9 C 224.8 368.9 225.9 369.5 226.5 370.6 C 227.1 371.7 227.5 373.1 227.5 374.8 L 227.5 390.6 L 237.7 390.6 L 237.7 373.3 C 237.8 369.3 237.1 366.2 235.7 363.9 C 234.3 361.7 231.5 360.5 227.3 360.5 C 225.2 360.5 223.2 360.9 221.4 361.8 C 219.6 362.7 218.1 364.1 216.9 366.1 C 216.1 364.2 214.9 362.8 213.3 361.8 C 211.7 360.9 209.8 360.4 207.7 360.4 C 205.4 360.4 203.2 360.9 201.4 361.9 C 199.5 362.9 198.1 364.4 197 366.5 L 196.9 366.5 L 196.9 361.1 L 187.6 361.1 L 187.5 390.4 L 187.5 390.4 Z" style="fill: rgb(255, 255, 255);"/>
  <path id="path3073" d="M 258.8 391.1 C 263.8 391.1 267.8 389.7 271 387.1 C 274.2 384.4 275.8 380.7 275.9 375.8 C 275.8 370.9 274.2 367.1 271 364.4 C 267.8 361.7 263.8 360.4 258.8 360.4 C 253.8 360.4 249.8 361.8 246.6 364.4 C 243.4 367 241.8 370.9 241.7 375.8 C 241.8 380.7 243.4 384.5 246.6 387.1 C 249.8 389.7 253.9 391.1 258.8 391.1 Z M 258.8 384 C 256.5 383.9 254.8 383.1 253.7 381.5 C 252.6 379.9 252.1 378 252.2 375.7 C 252.2 373.4 252.7 371.5 253.7 369.9 C 254.7 368.3 256.4 367.5 258.8 367.4 C 261.1 367.5 262.8 368.3 263.9 369.9 C 265 371.5 265.5 373.4 265.4 375.7 C 265.4 377.9 264.9 379.9 263.9 381.5 C 262.8 383.1 261.2 383.9 258.8 384 Z" style="fill: rgb(255, 255, 255);"/>
  <path id="path3075" d="M 311.7 348.1 L 301.5 348.1 L 301.5 364.8 L 301.4 364.8 C 300.1 363.1 298.6 362 296.9 361.3 C 295.2 360.6 293.3 360.3 291.3 360.3 C 287.2 360.5 284.1 362 282 365 C 279.9 368 278.8 371.4 278.8 375.1 C 278.8 379.6 280 383.3 282.2 386.3 C 284.5 389.3 287.8 390.9 292.2 391 C 294.6 391 296.7 390.4 298.5 389.3 C 300.3 388.2 301.6 386.8 302.3 385.1 L 302.4 385.1 L 302.4 390.4 L 311.8 390.4 L 311.7 348.1 L 311.7 348.1 Z M 289.1 375.4 C 289.1 373.4 289.6 371.7 290.7 370.3 C 291.8 368.9 293.3 368.2 295.3 368.1 C 297.2 368.1 298.7 368.9 299.8 370.3 C 300.9 371.7 301.5 373.5 301.5 375.8 C 301.5 378 300.8 379.8 299.7 381.2 C 298.6 382.6 297.1 383.3 295.3 383.3 C 293.4 383.3 291.9 382.5 290.8 381.1 C 289.7 379.7 289.1 377.8 289.1 375.4 L 289.1 375.4 Z" style="fill: rgb(255, 255, 255);"/>
  <path id="path3077" d="M 332.6 391.1 C 337.6 391.1 341.6 389.7 344.8 387.1 C 348 384.4 349.6 380.7 349.7 375.8 C 349.6 370.9 348 367.1 344.8 364.4 C 341.6 361.7 337.6 360.4 332.6 360.4 C 327.6 360.4 323.6 361.8 320.4 364.4 C 317.2 367.1 315.6 370.9 315.5 375.8 C 315.6 380.7 317.2 384.5 320.4 387.1 C 323.6 389.7 327.7 391.1 332.6 391.1 Z M 332.6 384 C 330.3 383.9 328.6 383.1 327.5 381.5 C 326.5 379.9 325.9 378 326 375.7 C 326 373.4 326.5 371.5 327.5 369.9 C 328.5 368.3 330.2 367.5 332.6 367.4 C 334.9 367.5 336.6 368.3 337.7 369.9 C 338.7 371.5 339.3 373.4 339.2 375.7 C 339.2 377.9 338.7 379.9 337.7 381.5 C 336.7 383.1 335 383.9 332.6 384 Z" style="fill: rgb(255, 255, 255);"/>
  <path id="path3079" d="M 375.4 360.7 C 374.9 360.6 374.3 360.5 373.7 360.5 C 373.1 360.4 372.5 360.4 371.9 360.4 C 369.7 360.4 367.9 361 366.6 362.1 C 365.2 363.2 364.1 364.7 363.2 366.5 L 363.1 366.5 L 363.1 361.1 L 353.8 361.1 L 353.8 390.5 L 364 390.5 L 364 378.1 C 364 375.2 364.6 372.9 365.9 371.3 C 367.2 369.7 369 368.9 371.4 368.9 C 372 368.9 372.6 368.9 373.1 368.9 C 373.7 368.9 374.2 369 374.8 369.2 L 375.4 360.7 Z" style="fill: rgb(255, 255, 255);"/>
  <path id="path3081" d="M 407.3 378.7 L 407.3 376.8 C 407.4 372.3 406.2 368.4 404 365.3 C 401.7 362.1 397.9 360.5 392.5 360.3 C 387.8 360.3 384.1 361.7 381.2 364.3 C 378.3 367 376.8 370.7 376.8 375.6 C 376.9 380.5 378.5 384.3 381.7 386.9 C 384.9 389.6 388.9 390.9 393.9 391 C 395.8 391 397.7 390.9 399.5 390.6 C 401.3 390.3 403.1 389.8 404.7 389.2 L 404.7 382 C 403.2 382.8 401.6 383.4 400.1 383.7 C 398.6 384.1 397.1 384.2 395.7 384.2 C 393.2 384.2 391.2 383.8 389.7 382.9 C 388.2 382 387.3 380.6 387 378.6 L 407.3 378.7 L 407.3 378.7 Z M 386.8 372.9 C 386.9 371.2 387.4 369.7 388.3 368.6 C 389.2 367.4 390.6 366.8 392.4 366.8 C 394.4 366.8 395.9 367.4 396.7 368.6 C 397.6 369.8 398 371.2 398 372.9 L 386.8 372.9 Z" style="fill: rgb(255, 255, 255);"/>
  <path id="path3064" d="M 71.8 390.7 C 67.4 389.5 64 387.5 61.2 384.4 C 58.4 381.3 57.1 378.5 56.3 373.5 C 54.8 363.7 59 354.7 67.1 350.8 C 71.2 348.8 76.7 347.8 82.2 347.8 C 85.6 347.8 88.6 348.4 91.4 348.9 L 90.5 357.7 C 90.5 357.7 89.8 357.5 87.8 357 C 85.9 356.5 84 356.3 82.1 356.3 C 78.3 356.3 74.6 357.3 72.2 359.2 C 66.5 363.6 66.5 375.1 72.4 379.9 C 76 382.9 82.5 383.9 88.3 382.4 L 91 381.7 L 91.8 390.6 C 90.1 391 86.5 391.7 82.1 391.7 C 76.3 391.7 74.5 391.5 71.8 390.7 Z" style="fill: rgb(255, 255, 255);"/>
  <rect id="Line" x="49" y="395.8" width="369" height="3" style="fill: rgb(255, 255, 255);"/>
  <path id="path6187" d="M 104.7 443.9 C 104.7 443.4 104.6 443 104.3 442.9 C 104 442.7 103.7 442.6 103.2 442.6 C 101.6 442.3 100.7 441.7 100.4 440.8 C 100.1 439.8 100 438.6 100 437.1 L 98.4 406.3 C 98.4 405.2 98.3 404.3 98.1 403.5 C 97.9 402.8 97.2 402.4 95.9 402.3 C 94.8 402.3 94 402.7 93.5 403.3 C 93 403.9 92.5 404.7 91.9 405.5 L 72.1 433.3 L 68.8 438 C 68.1 439 67.4 439.9 66.7 440.8 C 65.9 441.7 64.9 442.2 63.7 442.4 C 63 442.5 62.4 442.6 61.8 442.8 C 61.2 443 60.9 443.5 60.8 444.3 C 60.8 444.8 61 445.1 61.3 445.2 C 61.6 445.3 62 445.4 62.4 445.4 C 63.5 445.4 64.7 445.3 65.9 445.2 C 67.1 445.1 68.2 445 69.4 445 C 70.5 445 71.5 445.1 72.5 445.2 C 73.5 445.3 74.6 445.3 75.6 445.4 C 76.1 445.4 76.5 445.3 76.9 445.1 C 77.3 444.9 77.5 444.5 77.5 444 C 77.4 443.2 77 442.8 76.1 442.7 C 75.2 442.6 74.4 442.4 73.5 442.2 C 72.6 442 72.2 441.4 72.1 440.3 C 72.3 439.2 73 437.6 74.3 435.6 C 75.6 433.6 76.5 432.1 77.1 431.3 L 89.4 431.3 C 89.5 432.6 89.5 433.9 89.6 435.2 C 89.7 436.5 89.7 437.8 89.7 439.1 C 89.6 440.9 89.2 442 88.3 442.3 C 87.4 442.6 86.5 442.8 85.7 442.8 C 84.8 442.8 84.3 443.4 84.3 444.3 C 84.3 444.7 84.4 445 84.7 445.2 C 85 445.4 85.3 445.4 85.7 445.4 C 87.4 445.4 89.1 445.3 90.8 445.2 C 92.5 445.1 94.2 445 95.9 445 C 97 445 98.2 445.1 99.3 445.1 C 100.4 445.2 101.6 445.2 102.7 445.2 C 103.2 445.2 103.7 445.1 104 445 C 104.5 444.8 104.7 444.5 104.7 443.9 L 104.7 443.9 Z M 89.5 428.2 L 79.2 428.2 L 89 413.9 L 89.5 428.2 Z" style="fill: rgb(255, 255, 255);"/>
  <path id="path4766" d="M 194.1 404.7 C 194.1 404.3 194 404.1 193.7 403.9 C 193.5 403.7 193.2 403.6 192.8 403.6 C 192.2 403.6 191.7 403.6 191.2 403.7 C 190.7 403.7 190.1 403.8 189.6 403.9 C 188.2 404 186.9 404.1 185.5 404.2 C 184.1 404.2 182.7 404.2 181.3 404.2 C 180.3 404.2 179.3 404.1 178.2 404.1 C 177.2 404 176.2 404 175.1 404 C 174.6 404 174.2 404.1 173.8 404.4 C 173.4 404.7 173.2 405.1 173.2 405.6 C 173.4 406.5 174.1 407 175.3 406.9 C 176.5 406.8 177.2 407.4 177.4 408.5 C 177.4 408.8 177.4 409.1 177.3 409.5 C 177.2 409.8 177.1 410.1 177 410.5 L 169.2 437.5 C 168.9 438.8 168.6 439.9 168.2 440.8 C 167.8 441.7 167 442.3 165.7 442.6 C 165.1 442.7 164.4 442.8 163.6 443 C 162.8 443.2 162.3 443.7 162.3 444.4 C 162.3 444.8 162.5 445.1 162.8 445.3 C 163.1 445.5 163.5 445.6 163.9 445.6 C 165.2 445.6 166.6 445.5 167.9 445.4 C 169.3 445.3 170.6 445.2 172 445.2 C 173.5 445.2 174.9 445.3 176.4 445.4 C 177.9 445.5 179.3 445.5 180.8 445.6 C 181.4 445.6 182.1 445.6 182.9 445.5 C 183.7 445.4 184.1 445 184.2 444.2 C 184.1 443.4 183.7 443 183 442.9 C 182.3 442.8 181.5 442.7 180.8 442.5 C 180.1 442.3 179.7 441.6 179.6 440.4 C 179.6 439.9 179.7 439.4 179.8 438.9 C 179.9 438.4 180.1 437.9 180.2 437.4 L 188 410.3 C 188.3 409.2 188.6 408.4 189 407.9 C 189.4 407.4 190.2 407 191.3 406.8 C 191.9 406.7 192.5 406.6 193.2 406.3 C 193.7 405.8 194 405.4 194.1 404.7 L 194.1 404.7 Z" style="fill: rgb(255, 255, 255);"/>
  <path id="path4768" d="M 234.7 405 C 234.6 404.3 233.9 403.9 232.7 403.6 C 231.4 403.3 230.1 403.2 228.7 403.1 C 227.3 403 226.4 403 225.9 403 C 220.7 403 215.3 404.1 209.7 406.1 C 204.1 408.2 199.3 411.2 195.3 415.2 C 191.3 419.2 189.2 424.1 189.1 429.9 C 189.2 433.6 190.2 436.6 192.3 439 C 194.4 441.4 196.9 443.2 200.1 444.4 C 203.2 445.6 206.4 446.2 209.8 446.2 C 211.8 446.2 213.8 446.1 215.9 445.8 C 217.9 445.6 219.9 445.2 221.9 444.7 C 222.6 444.6 223.3 444.4 223.8 444.1 C 224.3 443.9 224.7 443.4 225 442.6 C 225.5 441.1 226 439.5 226.5 437.9 C 227 436.3 227.4 434.7 227.8 433.2 C 228.5 431 229.4 429.6 230.4 429.2 C 231.4 428.8 232.3 428.6 233.1 428.6 C 233.9 428.6 234.3 428.1 234.3 427.1 C 234.3 426.7 234.1 426.4 233.8 426.2 C 233.5 426 233.1 425.9 232.8 425.9 C 231.3 425.9 229.7 426 228.2 426.1 C 226.6 426.2 225.1 426.3 223.5 426.3 C 222 426.3 220.5 426.2 219.1 426.1 C 217.6 426 216.1 425.9 214.7 425.9 C 214.2 425.9 213.7 426 213.3 426.2 C 212.8 426.4 212.6 426.8 212.6 427.3 C 212.7 428 213.1 428.4 213.8 428.5 C 214.6 428.6 215.3 428.7 216.1 429 C 216.9 429.2 217.3 429.9 217.3 431 C 217.2 432.2 216.9 433.7 216.2 435.8 C 215.6 437.8 215 439.4 214.6 440.7 C 214.4 441.6 214 442.3 213.6 442.7 C 213.2 443.1 212.5 443.3 211.5 443.3 C 207.9 443.2 205.1 442.1 203.3 439.8 C 201.4 437.5 200.5 434.7 200.5 431.2 C 200.5 428 201.2 424.8 202.5 421.8 C 203.8 418.8 205.6 416.1 207.8 413.8 C 210 411.6 212.8 409.7 216 408.1 C 219.3 406.5 222.5 405.7 225.7 405.6 C 227.2 405.6 228.1 405.9 228.5 406.5 C 228.8 407.1 229 408.1 228.9 409.5 C 228.9 409.9 228.9 410.2 228.8 410.6 C 228.8 411 228.7 411.3 228.7 411.7 C 228.7 412.3 228.8 412.9 229 413.4 C 229.2 413.9 229.7 414.2 230.4 414.2 C 231.2 414.1 231.7 413.8 232.1 413.1 C 232.5 412.4 232.7 411.7 232.9 411.1 C 233.1 410.6 233.4 409.6 233.9 408 C 234.3 406.4 234.6 405.4 234.7 405 L 234.7 405 L 234.7 405 Z" style="fill: rgb(255, 255, 255);"/>
  <path id="path4770" d="M 270.1 443.9 C 270.1 443.4 270 443 269.7 442.9 C 269.4 442.7 269.1 442.6 268.6 442.6 C 267 442.3 266.1 441.7 265.8 440.8 C 265.5 439.8 265.4 438.6 265.4 437.1 L 263.8 406.3 C 263.8 405.2 263.7 404.3 263.5 403.5 C 263.3 402.8 262.6 402.4 261.3 402.3 C 260.2 402.3 259.4 402.7 258.9 403.3 C 258.4 403.9 257.9 404.7 257.3 405.5 L 237.5 433.3 L 234.2 438 C 233.5 439 232.8 439.9 232.1 440.8 C 231.3 441.7 230.3 442.2 229.1 442.4 C 228.4 442.5 227.8 442.6 227.2 442.8 C 226.6 443 226.3 443.5 226.2 444.3 C 226.2 444.8 226.4 445.1 226.7 445.2 C 227 445.3 227.4 445.4 227.8 445.4 C 228.9 445.4 230.1 445.3 231.3 445.2 C 232.5 445.1 233.6 445 234.8 445 C 235.9 445 236.9 445.1 237.9 445.2 C 239 445.3 240 445.3 241 445.4 C 241.5 445.4 241.9 445.3 242.3 445.1 C 242.7 444.9 242.9 444.5 242.9 444 C 242.8 443.2 242.4 442.8 241.5 442.7 C 240.6 442.6 239.8 442.4 238.9 442.2 C 238 442 237.6 441.4 237.5 440.3 C 237.7 439.2 238.4 437.6 239.7 435.6 C 241 433.6 241.9 432.1 242.5 431.3 L 254.9 431.3 C 255 432.6 255 433.9 255.1 435.2 C 255.2 436.5 255.2 437.8 255.2 439.1 C 255.1 440.9 254.7 442 253.8 442.3 C 252.9 442.6 252 442.8 251.2 442.8 C 250.3 442.8 249.8 443.4 249.8 444.3 C 249.8 444.7 249.9 445 250.2 445.2 C 250.5 445.4 250.8 445.4 251.2 445.4 C 252.9 445.4 254.6 445.3 256.3 445.2 C 258 445.1 259.7 445 261.4 445 C 262.5 445 263.7 445.1 264.8 445.1 C 265.9 445.2 267.1 445.2 268.2 445.2 C 268.7 445.2 269.2 445.1 269.5 445 C 269.9 444.8 270.1 444.5 270.1 443.9 L 270.1 443.9 Z M 254.8 428.2 L 244.5 428.2 L 254.3 413.9 L 254.8 428.2 Z" style="fill: rgb(255, 255, 255);"/>
  <path id="path4764" d="M 167.9 404.9 C 167.9 404.5 167.8 404.2 167.5 404 C 167.3 403.8 167 403.7 166.6 403.7 C 165.3 403.7 164 403.7 162.7 403.8 C 161.4 403.9 160.1 403.9 158.8 403.9 C 158.1 403.9 157.1 403.8 155.7 403.8 C 154.3 403.8 153.4 403.9 152.9 404.3 C 152.8 404.4 152.7 404.6 152.7 404.7 C 152.6 404.9 152.5 405 152.5 405.1 L 135.5 430.8 L 134.8 405.5 C 134.8 405 134.8 404.6 134.7 404.3 C 134.6 403.9 134.3 403.8 133.8 403.7 C 132.4 403.7 130.9 403.7 129.5 403.8 C 128.1 403.8 126.6 403.8 125.2 403.8 C 124.4 403.8 123.6 403.7 122.8 403.7 C 122 403.6 121.2 403.6 120.4 403.6 C 119.9 403.6 119.4 403.7 118.9 403.8 C 118.4 404 118.2 404.3 118.1 404.9 C 118.3 405.9 119.1 406.4 120.4 406.3 C 121.8 406.3 122.5 406.8 122.7 407.7 C 122.7 408.4 122.5 409.1 122.3 409.8 C 122 410.5 121.8 411.2 121.6 411.8 C 120.1 416 118.6 420.1 117.1 424.3 C 115.6 428.5 114.1 432.6 112.5 436.8 C 111.9 438.6 111.3 439.8 110.7 440.5 C 110.1 441.2 108.9 441.7 107 442 C 106.5 442.1 106 442.2 105.6 442.5 C 105.2 442.7 105 443.1 105 443.7 C 105 444.2 105.2 444.5 105.5 444.7 C 105.8 444.8 106.2 444.9 106.7 444.9 C 107.8 444.9 108.9 444.9 110 444.8 C 111.1 444.7 112.2 444.7 113.3 444.7 C 114.3 444.7 115.3 444.8 116.3 444.9 C 117.3 445 118.3 445 119.3 445.1 C 119.8 445.1 120.2 445 120.6 444.8 C 121 444.6 121.2 444.2 121.3 443.7 C 121.2 442.8 120.8 442.4 119.9 442.3 C 119 442.2 118.1 442.1 117.2 441.9 C 116.3 441.7 115.8 440.9 115.8 439.5 C 115.9 437.6 116.6 434.7 117.9 430.8 C 119.2 427 120.5 423.2 122 419.6 C 123.4 416 124.4 413.6 124.9 412.3 L 125.6 441.7 C 125.6 442.6 125.7 443.3 125.9 443.9 C 126.1 444.4 126.7 444.7 127.7 444.7 C 128.7 444.7 129.5 444.3 130.1 443.6 C 130.7 442.9 131.2 442.2 131.7 441.4 L 151.5 412.3 L 145 436.9 C 144.8 438 144.5 439 144.1 440.1 C 143.7 441.2 142.9 441.8 141.8 442.1 C 141.1 442.1 140.4 442.3 139.6 442.4 C 138.8 442.6 138.3 443.1 138.2 443.9 C 138.2 444.4 138.4 444.7 138.7 444.9 C 139 445.1 139.4 445.2 139.8 445.2 C 141.2 445.2 142.7 445.1 144.1 445 C 145.5 444.9 147 444.8 148.4 444.8 C 149.9 444.8 151.4 444.9 152.8 445 C 154.3 445.1 155.8 445.2 157.2 445.2 C 157.8 445.2 158.2 445.1 158.7 444.9 C 159.1 444.7 159.4 444.3 159.4 443.7 C 159.3 443 159 442.5 158.3 442.4 C 157.6 442.3 156.9 442.1 156.2 441.9 C 155.5 441.7 155.1 441.1 155.1 440 C 155.1 439.3 155.2 438.5 155.4 437.7 C 155.6 436.9 155.7 436.2 155.9 435.5 L 162.2 410.2 C 162.4 409.1 162.7 408.2 163.1 407.6 C 163.5 407 164.2 406.6 165.4 406.4 C 166 406.4 166.6 406.2 167.2 406 C 167.5 406.1 167.9 405.7 167.9 404.9 L 167.9 404.9 Z" style="fill: rgb(255, 255, 255);"/>
  <path d="M 286.3 414.4 L 282.4 416.9 L 282.6 405.5 L 287.4 402.4 L 296.8 402.4 L 296.8 446 L 286.2 446.1 L 286.3 414.4 L 286.3 414.4 Z M 287.5 412.3 L 287.5 445 L 295.7 445 L 295.7 403.7 L 287.8 403.7 L 283.8 406.3 L 283.7 414.8 L 287.5 412.3 Z" style="fill: rgb(255, 255, 255);"/>
  <polygon points="288.6 443.8 288.7 410.1 284.8 412.6 284.9 406.9 288.1 404.8 294.5 404.9 294.5 443.8" style="fill: rgb(255, 255, 255);"/>
  <path d="M 321.8 436.2 L 331.8 436.2 L 331.8 446.2 L 299.5 446.2 L 315.8 427.5 C 317 426.2 318.2 424.8 319.3 423.4 C 321.3 420.8 323.6 417.5 321.6 414.3 C 320.3 412.1 317 412.1 315 413.2 C 313.5 414 312.6 415.5 312.4 417.1 C 312.2 418.1 312.3 419.9 313.1 420.6 L 314.6 422 L 308.4 430.4 L 306.5 428.3 C 304.1 425.7 302.6 422.5 302.3 418.9 C 302 415.7 302.7 412.4 304.3 409.7 C 305.9 407 308.2 404.9 311.1 403.7 C 314.3 402.3 317.9 402.1 321.3 402.8 C 326 403.8 330.4 407.5 331.9 412.1 C 333.1 415.9 333 418.9 331.6 422.7 C 330.4 425.9 328.3 428.7 326.1 431.2 C 324.8 432.8 323.3 434.5 321.8 436.2 L 321.8 436.2 Z M 319.3 437.3 C 321.3 434.9 323.3 432.7 325.3 430.4 C 327.4 427.9 329.4 425.3 330.6 422.2 C 331.9 418.7 332 415.9 330.9 412.4 C 329.5 408.2 325.4 404.8 321.1 403.9 C 317.9 403.2 314.6 403.4 311.6 404.7 C 309 405.9 306.8 407.8 305.3 410.3 C 303.8 412.9 303.1 415.9 303.4 418.8 C 303.7 422.1 305.1 425.1 307.3 427.5 L 308.2 428.5 L 313 422.1 L 312.2 421.4 C 311.1 420.4 310.9 418.3 311.1 416.9 C 311.4 414.9 312.5 413.1 314.3 412.1 C 316.9 410.8 320.8 411 322.4 413.7 C 324.7 417.4 322.5 421.1 320 424.2 C 318.9 425.6 317.7 426.9 316.5 428.3 L 301.9 445.1 L 330.5 445.1 L 330.5 437.4 L 319.3 437.3 L 319.3 437.3 Z" style="fill: rgb(255, 255, 255);"/>
  <path d="M 329.5 443.8 L 304.6 443.8 L 317.5 428.9 C 321.3 424.6 327.1 418.9 323.5 413 C 321.6 409.9 317.2 409.3 313.9 411 C 309.3 413.3 309 419.9 311.5 422.2 L 308.2 426.6 C 299.5 417 307.1 402 320.8 404.9 C 324.6 405.7 328.4 408.8 329.7 412.7 C 330.8 416 330.7 418.5 329.5 421.8 C 327.5 427.2 322.2 431.8 316.9 438.5 L 329.5 438.5 L 329.5 443.8 Z" style="fill: rgb(255, 255, 255);"/>
  <path d="M 364.2 408.2 C 361.3 404 357.2 401.9 352.1 401.9 C 347 401.9 342.9 404 340 408.1 C 336.8 412.6 335.9 418.5 335.9 423.9 C 335.9 429.4 336.8 435.2 340 439.8 C 342.9 443.9 347 446.1 352.1 446.1 C 357.1 446.1 361.2 444 364.1 439.9 C 367.3 435.4 368.2 429.7 368.2 424.3 C 368.3 418.9 367.4 412.9 364.2 408.2 Z M 363.2 439.3 C 360.5 443.1 356.7 445 352.1 445 C 347.4 445 343.7 443.1 341 439.2 C 337.9 434.8 337.1 429.2 337.1 424 C 337.1 418.8 338 413.2 341 408.8 C 343.7 405 347.5 403 352.1 403 C 356.8 403 360.6 404.9 363.3 408.8 C 366.4 413.2 367.2 419 367.2 424.3 C 367.1 429.5 366.3 435 363.2 439.3 Z" style="fill: rgb(255, 255, 255);"/>
  <path d="M 362.3 409.5 C 359.9 406 356.5 404.2 352.1 404.2 C 347.8 404.2 344.4 406 341.9 409.5 C 339.4 413 338.2 417.8 338.2 424 C 338.2 430.2 339.4 435 341.9 438.5 C 344.4 442 347.8 443.8 352.1 443.8 C 356.4 443.8 359.8 442.1 362.3 438.6 C 364.8 435.1 366 430.4 366 424.3 C 366 418 364.8 413.1 362.3 409.5 Z M 358.1 434.8 C 356.8 437.1 354.8 438.2 352 438.2 C 349.2 438.2 347.5 437 346.3 434.7 C 343.5 429.5 341.8 409.5 352 409.7 C 362.2 410.1 361 429.9 358.1 434.8 Z" style="fill: rgb(255, 255, 255);"/>
  <path d="M 399 408.6 C 396.1 404.4 392 402.3 386.9 402.3 C 381.8 402.3 377.7 404.4 374.8 408.5 C 371.6 413 370.7 418.9 370.7 424.3 C 370.7 429.8 371.6 435.6 374.8 440.2 C 377.7 444.3 381.8 446.5 386.9 446.5 C 391.9 446.5 396 444.4 398.9 440.3 C 402.1 435.8 403 430.1 403 424.7 C 403.1 419.2 402.2 413.2 399 408.6 Z M 398 439.7 C 395.3 443.5 391.5 445.4 386.9 445.4 C 382.2 445.4 378.5 443.5 375.8 439.6 C 372.7 435.2 371.9 429.6 371.9 424.4 C 371.9 419.2 372.8 413.6 375.8 409.2 C 378.5 405.4 382.3 403.4 386.9 403.4 C 391.6 403.4 395.4 405.3 398.1 409.2 C 401.2 413.6 402 419.4 402 424.7 C 402 429.9 401.1 435.4 398 439.7 Z" style="fill: rgb(255, 255, 255);"/>
  <path d="M 397.2 409.9 C 394.8 406.4 391.4 404.6 387 404.6 C 382.7 404.6 379.3 406.4 376.8 409.9 C 374.3 413.4 373.1 418.2 373.1 424.4 C 373.1 430.6 374.3 435.4 376.8 438.9 C 379.3 442.4 382.7 444.2 387 444.2 C 391.3 444.2 394.7 442.5 397.2 439 C 399.7 435.5 400.9 430.8 400.9 424.7 C 400.8 418.4 399.6 413.4 397.2 409.9 Z M 392.9 435.2 C 391.6 437.5 389.6 438.6 386.8 438.6 C 384 438.6 382.3 437.4 381.1 435.1 C 378.3 429.9 376.6 409.9 386.8 410.1 C 397.1 410.5 395.8 430.2 392.9 435.2 Z" style="fill: rgb(255, 255, 255);"/>
</svg>