<?xml version="1.0" encoding="utf-8"?>
<svg viewBox="0 0 785 212.6" xmlns="http://www.w3.org/2000/svg">
  <path d="M 282.455 152.604 C 283.742 156.704 284.914 159.981 285.968 162.44 C 287.022 164.899 288.718 166.891 291.062 168.412 C 292.701 169.584 294.194 170.256 295.541 170.432 C 296.887 170.608 297.562 171.223 297.562 172.277 C 297.562 173.918 296.333 174.736 293.874 174.736 C 292.351 174.736 290.389 174.56 287.99 174.209 C 285.589 173.858 282.633 173.683 279.12 173.683 C 274.202 173.683 270.25 173.83 267.264 174.121 C 264.279 174.415 262.199 174.56 261.029 174.56 C 259.037 174.56 258.044 173.858 258.044 172.453 C 258.044 170.581 259.213 169.642 261.557 169.642 C 264.483 169.642 266.414 169.351 267.353 168.764 C 268.29 168.179 268.758 167.068 268.758 165.426 C 268.758 163.906 268.232 161.272 267.177 157.523 L 260.327 135.041 C 260.091 134.105 259.213 133.636 257.692 133.636 L 235.913 133.636 C 235.561 133.636 235.18 133.784 234.771 134.075 C 234.375 134.345 234.093 134.752 233.98 135.217 L 229.765 150.849 C 228.008 157.759 227.13 162.266 227.13 164.373 C 227.13 166.13 227.482 167.302 228.184 167.886 C 228.886 168.474 230.056 168.883 231.697 169.115 C 234.038 169.467 235.795 169.879 236.967 170.344 C 238.136 170.814 238.724 171.692 238.724 172.979 C 238.724 174.384 237.727 175.087 235.738 175.087 C 234.448 175.087 232.516 174.911 229.942 174.56 C 227.365 174.208 224.203 174.033 220.457 174.033 C 217.88 174.033 215.627 174.181 213.695 174.472 C 211.762 174.763 210.155 174.911 208.865 174.911 C 206.757 174.911 205.703 174.15 205.703 172.628 C 205.703 171.691 205.997 171.077 206.582 170.783 C 207.169 170.492 207.898 170.286 208.777 170.169 C 209.713 170.047 210.65 169.929 211.587 169.817 C 212.581 169.702 213.547 169.29 214.485 168.588 C 216.124 167.419 217.353 165.75 218.173 163.582 C 218.991 161.417 219.869 158.752 220.808 155.59 L 248.735 64.959 C 249.202 63.672 249.584 62.648 249.877 61.885 C 250.168 61.125 250.783 60.743 251.722 60.743 C 253.009 60.743 253.829 61.506 254.181 63.026 C 254.533 64.549 255.117 66.54 255.938 68.999 L 282.455 152.604 Z M 246.272 91.656 C 245.803 91.656 245.452 92.126 245.218 93.061 L 236.963 124.15 C 236.855 124.551 236.796 124.964 236.787 125.379 L 236.787 125.905 C 236.787 126.608 237.196 126.96 238.016 126.96 L 255.58 126.96 C 255.932 126.96 256.282 126.814 256.634 126.521 C 256.986 126.23 257.161 125.906 257.161 125.555 C 257.161 125.322 257.043 124.737 256.809 123.798 L 247.325 93.236 C 246.975 92.184 246.624 91.656 246.272 91.656 Z" style="fill: rgb(255, 255, 255);"/>
  <path d="M 315.827 105.884 C 315.827 106.704 316.003 107.113 316.354 107.113 C 316.705 107.113 317.171 106.822 317.759 106.234 L 319.515 104.127 C 322.559 100.614 325.662 98.067 328.825 96.486 C 331.986 94.906 335.438 94.115 339.187 94.115 C 343.051 94.115 346.74 95.053 350.252 96.926 C 353.765 98.8 356.809 101.435 359.386 104.829 C 361.96 108.227 364.01 112.382 365.533 117.3 C 367.054 122.218 367.816 127.663 367.816 133.635 C 367.816 140.195 366.932 146.166 365.17 151.551 C 363.408 156.938 360.941 161.592 357.769 165.514 C 354.596 169.439 350.839 172.483 346.492 174.648 C 342.145 176.813 337.326 177.897 332.04 177.897 C 326.519 177.897 321.405 176.549 316.707 173.858 L 316.002 174.384 L 315.829 199.325 C 315.829 201.432 316.002 203.013 316.353 204.067 C 316.704 205.121 317.582 205.939 318.988 206.526 C 320.157 207.111 321.299 207.462 322.413 207.58 C 323.524 207.695 324.46 207.813 325.223 207.932 C 325.984 208.047 326.598 208.284 327.068 208.634 C 327.535 208.986 327.77 209.689 327.77 210.742 C 327.77 212.38 326.541 213.201 324.082 213.201 C 321.738 213.201 319.258 213.025 316.637 212.674 C 314.013 212.322 311.2 212.148 308.193 212.148 C 305.186 212.148 302.514 212.323 300.182 212.674 C 297.849 213.026 295.862 213.201 294.224 213.201 C 292.116 213.201 291.062 212.263 291.062 210.39 C 291.062 208.748 291.705 207.931 292.995 207.931 C 294.282 207.931 295.805 207.579 297.561 206.877 C 299.082 206.289 300.108 205.472 300.634 204.418 C 301.161 203.364 301.425 201.665 301.425 199.324 L 301.425 119.933 C 301.425 116.772 301.013 114.664 300.196 113.61 C 299.375 112.556 298.467 111.884 297.473 111.59 C 296.477 111.299 295.569 111.123 294.75 111.063 C 293.93 111.005 293.521 110.391 293.521 109.219 C 293.521 107.814 294.427 106.79 296.244 106.145 C 298.058 105.503 300.311 104.244 303.006 102.369 C 306.402 100.028 308.86 97.978 310.383 96.222 C 311.904 94.466 313.133 93.588 314.072 93.588 C 315.241 93.588 315.828 94.817 315.828 97.276 L 315.828 105.884 L 315.827 105.884 Z M 319.708 168.917 C 322.178 171.626 325.649 172.979 330.12 172.979 C 333.531 172.979 336.649 172.156 339.473 170.509 C 342.297 168.863 344.74 166.535 346.798 163.532 C 348.857 160.53 350.443 156.94 351.563 152.761 C 352.679 148.584 353.24 144.023 353.24 139.077 C 353.24 128.601 351.033 120.48 346.62 114.712 C 342.207 108.944 336.65 106.059 329.945 106.059 C 325.003 106.059 321.443 107.503 319.266 110.387 C 317.09 113.272 316.003 117.655 316.003 123.538 L 316.003 156.381 C 316.004 162.031 317.239 166.211 319.708 168.917 Z M 395.744 105.884 C 395.744 106.704 395.92 107.113 396.271 107.113 C 396.622 107.113 397.088 106.822 397.676 106.234 L 399.432 104.127 C 402.476 100.614 405.579 98.067 408.742 96.486 C 411.903 94.906 415.355 94.115 419.104 94.115 C 422.968 94.115 426.657 95.053 430.169 96.926 C 433.682 98.8 436.726 101.435 439.303 104.829 C 441.877 108.227 443.927 112.382 445.45 117.3 C 446.971 122.218 447.733 127.663 447.733 133.635 C 447.733 140.195 446.849 146.166 445.087 151.551 C 443.325 156.938 440.858 161.592 437.686 165.514 C 434.513 169.439 430.756 172.483 426.409 174.648 C 422.062 176.813 417.243 177.897 411.957 177.897 C 406.436 177.897 401.322 176.549 396.624 173.858 L 395.919 174.384 L 395.746 199.325 C 395.746 201.432 395.919 203.013 396.27 204.067 C 396.621 205.121 397.499 205.939 398.905 206.526 C 400.074 207.111 401.216 207.462 402.33 207.58 C 403.441 207.695 404.377 207.813 405.14 207.932 C 405.901 208.047 406.515 208.284 406.985 208.634 C 407.452 208.986 407.687 209.689 407.687 210.742 C 407.687 212.38 406.458 213.201 403.999 213.201 C 401.655 213.201 399.175 213.025 396.554 212.674 C 393.93 212.322 391.117 212.148 388.11 212.148 C 385.103 212.148 382.431 212.323 380.099 212.674 C 377.766 213.026 375.779 213.201 374.141 213.201 C 372.033 213.201 370.979 212.263 370.979 210.39 C 370.979 208.748 371.622 207.931 372.912 207.931 C 374.199 207.931 375.722 207.579 377.478 206.877 C 378.999 206.289 380.025 205.472 380.551 204.418 C 381.078 203.364 381.342 201.665 381.342 199.324 L 381.342 119.933 C 381.342 116.772 380.93 114.664 380.113 113.61 C 379.292 112.556 378.384 111.884 377.39 111.59 C 376.394 111.299 375.486 111.123 374.667 111.063 C 373.847 111.005 373.438 110.391 373.438 109.219 C 373.438 107.814 374.344 106.79 376.161 106.145 C 377.975 105.503 380.228 104.244 382.923 102.369 C 386.319 100.028 388.777 97.978 390.3 96.222 C 391.821 94.466 393.05 93.588 393.989 93.588 C 395.158 93.588 395.745 94.817 395.745 97.276 L 395.745 105.884 L 395.744 105.884 Z M 399.625 168.917 C 402.095 171.626 405.566 172.979 410.037 172.979 C 413.448 172.979 416.566 172.156 419.39 170.509 C 422.214 168.863 424.657 166.535 426.715 163.532 C 428.774 160.53 430.36 156.94 431.48 152.761 C 432.596 148.584 433.157 144.023 433.157 139.077 C 433.157 128.601 430.95 120.48 426.537 114.712 C 422.124 108.944 416.567 106.059 409.862 106.059 C 404.92 106.059 401.36 107.503 399.183 110.387 C 397.007 113.272 395.92 117.655 395.92 123.538 L 395.92 156.381 C 395.921 162.031 397.156 166.211 399.625 168.917 Z M 475.484 161.211 C 475.484 165.075 476.595 167.534 478.822 168.588 C 479.758 169.057 480.693 169.32 481.632 169.378 C 482.569 169.439 483.416 169.526 484.179 169.642 C 484.94 169.76 485.554 170.024 486.024 170.432 C 486.49 170.844 486.726 171.574 486.726 172.628 C 486.726 174.269 485.554 175.087 483.213 175.087 C 481.221 175.087 478.942 174.911 476.379 174.56 C 473.816 174.208 471.088 174.033 468.195 174.033 C 465.187 174.033 462.487 174.209 460.099 174.56 C 457.708 174.912 455.694 175.087 454.056 175.087 C 451.948 175.087 450.894 174.15 450.894 172.276 C 450.894 170.637 451.479 169.817 452.651 169.817 C 453.938 169.817 455.518 169.465 457.393 168.763 C 459.032 168.178 460.028 167.388 460.378 166.392 C 460.73 165.398 460.905 164.021 460.905 162.264 L 460.905 70.93 C 460.905 69.409 460.523 68.295 459.763 67.593 C 459.002 66.892 458.105 66.354 457.128 66.012 C 456.234 65.701 455.355 65.349 454.493 64.958 C 453.73 64.606 453.351 64.08 453.351 63.377 C 453.351 62.09 454.142 61.242 455.722 60.83 C 457.303 60.421 459.145 59.807 461.249 58.986 C 465.3 57.465 468.277 56.03 470.187 54.682 C 472.097 53.337 473.34 52.662 473.919 52.662 C 474.844 52.662 475.423 52.955 475.656 53.54 C 475.889 54.127 476.008 54.945 476.008 55.999 C 476.008 57.522 475.92 59.278 475.744 61.269 C 475.568 63.261 475.48 65.484 475.48 67.943 L 475.48 161.211 L 475.484 161.211 Z M 506.047 125.028 C 505.109 125.028 504.525 125.204 504.291 125.555 C 504.055 125.906 503.939 126.669 503.939 127.838 L 503.939 132.053 C 503.939 142.944 506.25 151.55 510.877 157.873 C 515.502 164.195 521.504 167.357 528.881 167.357 C 532.157 167.357 534.998 166.83 537.4 165.776 C 539.798 164.722 541.791 163.553 543.372 162.263 C 544.953 160.976 546.183 159.804 547.06 158.75 C 547.937 157.696 548.553 157.169 548.905 157.169 C 549.841 157.169 550.309 157.815 550.309 159.102 C 550.309 160.391 549.607 162.087 548.202 164.195 C 546.797 166.303 544.777 168.383 542.142 170.43 C 539.507 172.481 536.373 174.267 532.746 175.787 C 529.115 177.308 525.017 178.07 520.451 178.07 C 515.648 178.07 511.287 177.104 507.365 175.173 C 503.441 173.24 500.076 170.46 497.265 166.829 C 494.455 163.201 492.287 158.81 490.767 153.656 C 489.244 148.505 488.484 142.709 488.484 136.267 C 488.484 129.829 489.332 124.002 491.031 118.79 C 492.726 113.581 495.097 109.16 498.144 105.529 C 501.187 101.901 504.788 99.091 508.946 97.098 C 513.101 95.108 517.64 94.112 522.558 94.112 C 526.774 94.112 530.637 94.845 534.151 96.307 C 537.664 97.773 540.649 99.733 543.108 102.192 C 545.567 104.651 547.469 107.521 548.817 110.798 C 550.162 114.077 550.837 117.59 550.837 121.336 C 550.837 122.859 550.368 123.856 549.432 124.322 C 548.494 124.791 546.973 125.024 544.866 125.024 L 506.047 125.024 L 506.047 125.028 Z M 531.427 117.651 C 534.062 116.364 535.379 113.787 535.379 109.922 C 535.379 106.997 534.177 104.302 531.778 101.843 C 529.377 99.384 526.302 98.155 522.556 98.155 C 518.455 98.155 514.885 99.736 511.842 102.897 C 508.795 106.058 506.806 110.041 505.869 114.84 L 505.343 117.651 L 505.343 118.003 C 505.343 119.057 506.045 119.584 507.45 119.584 L 518.867 119.584 C 524.603 119.584 528.792 118.941 531.427 117.651 Z" style="fill: rgb(255, 255, 255);"/>
  <path d="M 704.613 145.582 C 704.613 143.373 704.423 141.929 704.042 141.248 C 703.661 140.569 702.623 140.016 700.93 139.591 C 700.111 139.438 699.285 139.332 698.454 139.274 C 697.816 139.242 697.181 139.178 696.549 139.084 C 695.997 139.001 695.574 138.852 695.278 138.64 C 694.981 138.43 694.834 138.027 694.834 137.434 C 694.834 136.248 695.553 135.656 696.993 135.656 C 697.839 135.656 699.343 135.827 701.502 136.164 C 703.661 136.504 706.56 136.672 710.201 136.672 C 714.265 136.672 717.354 136.504 719.472 136.164 C 721.588 135.827 722.943 135.656 723.536 135.656 C 724.807 135.656 725.441 136.208 725.441 137.307 C 725.441 137.9 725.292 138.323 724.997 138.577 C 724.699 138.831 724.318 139.002 723.853 139.085 C 723.307 139.18 722.756 139.244 722.203 139.275 C 721.567 139.319 720.869 139.424 720.107 139.592 C 718.583 139.932 717.63 140.461 717.25 141.18 C 716.869 141.901 716.678 143.361 716.678 145.562 L 716.678 164.866 C 716.678 166.814 716.022 168.612 714.71 170.263 C 713.397 171.914 711.599 173.311 709.313 174.454 C 707.027 175.597 704.379 176.485 701.376 177.121 C 698.369 177.756 695.173 178.073 691.787 178.073 C 686.536 178.073 681.69 177.057 677.246 175.025 C 672.801 172.993 668.99 170.179 665.815 166.58 C 662.64 162.982 660.164 158.685 658.385 153.689 C 656.608 148.694 655.718 143.233 655.718 137.306 C 655.718 130.955 656.712 125.093 658.703 119.716 C 660.691 114.34 663.422 109.704 666.894 105.809 C 670.365 101.916 674.513 98.868 679.339 96.665 C 684.165 94.464 689.414 93.363 695.087 93.363 C 697.373 93.363 699.532 93.517 701.565 93.825 C 703.596 94.133 705.438 94.527 707.089 95.01 C 708.739 95.494 710.137 96.018 711.279 96.582 C 712.423 97.145 713.204 97.681 713.629 98.188 C 714.646 99.205 715.153 103.312 715.153 110.507 C 715.153 112.878 714.601 114.063 713.502 114.063 C 712.569 114.063 711.915 113.492 711.533 112.349 C 711.152 111.205 710.623 109.789 709.946 108.094 C 706.981 100.645 701.774 96.918 694.325 96.918 C 690.683 96.918 687.318 97.87 684.228 99.775 C 681.136 101.68 678.45 104.391 676.164 107.903 C 673.878 111.418 672.101 115.65 670.83 120.603 C 669.56 125.556 668.925 131.081 668.925 137.176 C 668.925 142.85 669.58 147.972 670.894 152.543 C 672.206 157.115 673.984 161.032 676.228 164.291 C 678.47 167.551 681.096 170.069 684.102 171.848 C 687.107 173.625 690.303 174.515 693.691 174.515 C 696.145 174.515 698.092 174.175 699.533 173.494 C 700.971 172.815 702.073 171.859 702.835 170.627 C 703.597 169.395 704.083 167.928 704.296 166.23 C 704.506 164.532 704.613 162.662 704.613 160.623 L 704.613 145.582 Z M 744.935 106.466 C 745.993 103.751 747.495 101.42 749.444 99.469 C 751.39 97.521 753.74 96.014 756.492 94.954 C 759.243 93.894 762.354 93.363 765.827 93.363 C 769.383 93.363 772.536 93.865 775.288 94.867 C 778.039 95.871 779.712 96.766 780.305 97.554 C 780.982 98.402 781.322 103.015 781.322 111.397 C 781.322 113.175 780.77 114.064 779.671 114.064 C 778.738 114.064 778.125 113.493 777.829 112.35 C 777.532 111.206 776.919 109.536 775.988 107.333 C 774.633 103.947 773.15 101.364 771.543 99.586 C 769.934 97.808 767.647 96.919 764.685 96.919 C 760.875 96.919 757.891 98.08 755.732 100.401 C 753.573 102.723 752.494 105.908 752.494 109.958 C 752.494 113.336 753.446 116.078 755.351 118.187 C 757.256 120.298 760.241 122.408 764.304 124.517 C 767.69 126.291 770.696 128.063 773.322 129.835 C 775.945 131.609 778.168 133.571 779.989 135.723 C 781.806 137.872 783.206 140.341 784.117 143.003 C 785.048 145.704 785.513 148.827 785.513 152.371 C 785.513 156.086 784.898 159.503 783.672 162.627 C 782.443 165.75 780.75 168.451 778.592 170.73 C 776.433 173.007 773.849 174.801 770.845 176.109 C 767.838 177.417 764.558 178.072 761.002 178.072 C 755.414 178.072 750.884 177.183 747.413 175.405 C 743.94 173.627 742.206 170.919 742.206 167.277 C 742.206 165.839 742.248 164.441 742.333 163.086 C 742.416 161.732 742.46 160.463 742.46 159.276 C 742.46 158.345 742.439 157.605 742.397 157.053 C 742.353 156.503 742.334 156.144 742.334 155.974 C 742.334 153.35 742.969 152.036 744.239 152.036 C 744.83 152.036 745.255 152.27 745.509 152.734 C 745.763 153.201 745.953 153.836 746.08 154.639 C 746.207 155.445 746.354 156.397 746.525 157.496 C 746.693 158.598 746.947 159.74 747.287 160.925 C 748.557 165.243 750.608 168.589 753.446 170.958 C 756.282 173.329 759.308 174.515 762.527 174.515 C 764.388 174.515 766.166 174.133 767.861 173.369 C 769.527 172.626 771.019 171.543 772.242 170.19 C 773.469 168.833 774.443 167.221 775.163 165.356 C 775.882 163.491 776.243 161.457 776.243 159.25 C 776.243 155.35 775.036 151.853 772.623 148.757 C 770.21 145.661 766.591 142.758 761.765 140.044 C 759.354 138.679 756.962 137.28 754.59 135.847 C 752.345 134.49 750.399 132.922 748.747 131.14 C 747.097 129.36 745.783 127.241 744.81 124.78 C 743.835 122.322 743.349 119.226 743.349 115.494 C 743.347 112.188 743.875 109.181 744.935 106.466 Z" style="fill: rgb(255, 255, 255);"/>
  <path d="M 605.826 161.561 C 605.826 163.436 605.853 164.958 605.914 166.128 C 605.972 167.3 606.147 168.266 606.441 169.025 C 606.715 169.766 607.204 170.409 607.846 170.87 C 608.488 171.339 609.396 171.748 610.568 172.099 C 611.623 172.451 612.616 172.625 613.554 172.625 C 614.49 172.625 615.311 172.686 616.013 172.801 C 616.715 172.919 617.27 173.183 617.682 173.592 C 618.09 174.003 618.296 174.676 618.296 175.612 C 618.296 177.254 617.067 178.071 614.608 178.071 C 613.554 178.071 611.65 177.895 608.9 177.544 C 606.147 177.193 602.489 177.018 597.922 177.018 C 593.355 177.018 589.693 177.194 586.944 177.544 C 584.191 177.896 582.289 178.071 581.235 178.071 C 578.776 178.071 577.547 177.135 577.547 175.26 C 577.547 174.443 577.75 173.855 578.162 173.504 C 578.57 173.152 579.098 172.919 579.742 172.801 C 580.467 172.678 581.202 172.619 581.938 172.625 C 582.755 172.625 583.576 172.51 584.397 172.274 C 585.801 171.922 586.883 171.513 587.646 171.045 C 588.406 170.578 588.963 169.963 589.315 169.2 C 589.666 168.44 589.869 167.444 589.929 166.215 C 589.987 164.986 590.017 163.435 590.017 161.56 L 590.017 81.118 C 590.017 78.307 589.811 76.406 589.403 75.409 C 588.991 74.416 587.91 73.626 586.153 73.038 C 584.981 72.687 583.87 72.512 582.816 72.512 C 581.878 72.512 581.029 72.454 580.269 72.336 C 579.506 72.221 578.921 72.015 578.512 71.721 C 578.101 71.431 577.898 70.816 577.898 69.877 C 577.898 68.238 578.776 67.418 580.533 67.418 C 581.469 67.418 583.343 67.654 586.153 68.12 C 588.964 68.59 592.885 68.823 597.922 68.823 C 602.955 68.823 606.879 68.59 609.69 68.12 C 612.501 67.654 614.372 67.418 615.311 67.418 C 617.067 67.418 617.945 68.238 617.945 69.877 C 617.945 70.697 617.77 71.255 617.419 71.546 C 617.067 71.839 616.541 72.045 615.838 72.16 C 615.136 72.278 614.315 72.366 613.379 72.424 C 612.441 72.485 611.447 72.63 610.394 72.862 C 608.167 73.332 606.85 74.122 606.442 75.234 C 606.03 76.348 605.827 78.307 605.827 81.118 L 605.826 161.561 Z" style="fill: rgb(255, 255, 255);"/>
  <path d="M 643.06 161.561 C 643.06 163.436 643.087 164.958 643.148 166.128 C 643.206 167.3 643.381 168.266 643.675 169.025 C 643.949 169.766 644.438 170.409 645.08 170.87 C 645.722 171.339 646.63 171.748 647.802 172.099 C 648.857 172.451 649.85 172.625 650.788 172.625 C 651.724 172.625 652.545 172.686 653.247 172.801 C 653.949 172.919 654.504 173.183 654.916 173.592 C 655.324 174.003 655.53 174.676 655.53 175.612 C 655.53 177.254 654.301 178.071 651.842 178.071 C 650.788 178.071 648.884 177.895 646.134 177.544 C 643.381 177.193 639.723 177.018 635.156 177.018 C 630.589 177.018 626.927 177.194 624.178 177.544 C 621.425 177.896 619.523 178.071 618.469 178.071 C 616.01 178.071 614.781 177.135 614.781 175.26 C 614.781 174.443 614.984 173.855 615.396 173.504 C 615.804 173.152 616.332 172.919 616.976 172.801 C 617.701 172.678 618.436 172.619 619.172 172.625 C 619.989 172.625 620.81 172.51 621.631 172.274 C 623.035 171.922 624.117 171.513 624.88 171.045 C 625.64 170.578 626.197 169.963 626.549 169.2 C 626.9 168.44 627.103 167.444 627.163 166.215 C 627.221 164.986 627.251 163.435 627.251 161.56 L 627.251 81.118 C 627.251 78.307 627.045 76.406 626.637 75.409 C 626.225 74.416 625.144 73.626 623.387 73.038 C 622.215 72.687 621.104 72.512 620.05 72.512 C 619.112 72.512 618.263 72.454 617.503 72.336 C 616.74 72.221 616.155 72.015 615.746 71.721 C 615.335 71.431 615.132 70.816 615.132 69.877 C 615.132 68.238 616.01 67.418 617.767 67.418 C 618.703 67.418 620.577 67.654 623.387 68.12 C 626.198 68.59 630.119 68.823 635.156 68.823 C 640.189 68.823 644.113 68.59 646.924 68.12 C 649.735 67.654 651.606 67.418 652.545 67.418 C 654.301 67.418 655.179 68.238 655.179 69.877 C 655.179 70.697 655.004 71.255 654.653 71.546 C 654.301 71.839 653.775 72.045 653.072 72.16 C 652.37 72.278 651.549 72.366 650.613 72.424 C 649.675 72.485 648.681 72.63 647.628 72.862 C 645.401 73.332 644.084 74.122 643.676 75.234 C 643.264 76.348 643.061 78.307 643.061 81.118 L 643.06 161.561 Z" style="fill: rgb(255, 255, 255);"/>
  <path d="M 130.604 211.457 C 116.846 211.582 113.317 202.467 94.652 202.569 C 75.987 202.674 72.09 211.616 58.333 211.487 C 43.624 211.35 32.203 197.591 23.496 184.596 L 23.498 184.596 C 23.045 183.918 22.596 183.241 22.154 182.568 C 17.023 174.73 12.707 166.388 9.273 157.672 L 9.271 157.672 C 5.715 148.629 3.281 139.547 1.912 130.757 L 155.187 130.763 C 159.932 141.506 168.713 150.633 181.078 155.323 C 180.711 156.143 180.356 156.927 180.015 157.683 L 180.016 157.683 C 175.771 167.055 173.31 171.92 167.435 180.899 C 166.628 182.135 165.809 183.363 164.978 184.583 L 164.977 184.583 C 156.322 197.314 144.703 211.324 130.604 211.457 Z M 1.912 130.756 C 0.437 121.307 0.199 112.197 1.125 103.839 L 76.284 103.837 L 0.535 103.839 C 1.394 94.587 4.63 84.039 9.308 76.68 L 10.026 76.68 C 10.039 76.66 10.053 76.639 10.066 76.619 C 20.928 59.825 38.062 49.996 54.175 49.996 C 70.582 49.996 80.896 59.028 94.458 59.028 C 107.617 59.028 115.632 49.983 134.601 49.983 C 148.933 49.983 164.128 57.82 174.951 71.371 C 172.181 72.886 169.566 74.669 167.141 76.691 L 168.034 76.691 C 159.387 84.043 153.931 93.713 152.29 103.835 L 151.698 103.835 C 150.225 112.899 151.461 122.331 155.186 130.762 Z M 87.824 51.349 C 85.581 39.088 91.343 26.465 98.321 17.954 C 106.012 8.585 119.179 1.388 130.436 0.613 C 132.334 13.433 127.097 25.971 120.212 34.851 C 112.829 44.364 100.115 51.733 87.824 51.349 Z" stroke-width="1.155" stroke-miterlimit="2.613" style="fill: rgb(255, 255, 255);"/>
</svg>