<?xml version="1.0" encoding="utf-8"?>
<svg xmlns="http://www.w3.org/2000/svg">
  <path id="Path_13" data-name="Path 13" d="M 0 38.925 L 9.318 0.001 L 14.213 19.928 L 9.573 39 L 0.001 38.927 Z" style="fill: rgb(204, 204, 204);"/>
  <path id="Path_14" data-name="Path 14" d="M 9.317 0 L 18.78 0 L 26.902 32.324 L 17.328 32.324 L 9.316 0 Z" style="fill: rgb(254, 254, 254);"/>
  <path id="Path_15" data-name="Path 15" d="M 24.508 3.839 L 29.292 22.644 L 26.9 32.322 L 22.116 13.178 L 24.508 3.837 Z" style="fill: rgb(204, 204, 204);"/>
  <path id="Path_16" data-name="Path 16" d="M 24.508 3.839 L 30.759 28.411 L 40.207 28.411 L 33.851 3.839 Z" style="fill: rgb(255, 255, 255);"/>
  <path id="Path_17" data-name="Path 17" d="M 45.536 7.677 L 40.206 28.411 L 35.385 9.805 L 36.11 7.677 Z" style="fill: rgb(204, 204, 204);"/>
  <path id="Path_28" data-name="Path 28" d="M 69.905 28.119 L 62.844 28.119 L 62.217 23.018 L 56.693 23.018 L 55.214 28.119 L 48.264 28.119 C 48.264 28.119 48.264 27.507 53.845 7.63 C 65.264 7.544 65.692 7.549 66.29 8.587 C 66.803 9.364 66.892 10.522 69.905 28.119 Z M 59.199 10.984 L 59.199 10.984 L 57.172 18.741 L 61.896 18.741 L 61.281 10.984 Z" style="fill: rgb(255, 255, 255);"/>
  <path id="Path_18" data-name="Path 18" d="M 73.774 27.397 C 72.982 26.245 72.875 25.643 76.969 11.381 C 70.077 11.438 69.451 11.381 69.451 11.381 L 70.818 7.63 L 90.864 7.63 L 89.725 11.381 L 83.574 11.381 C 83.574 11.381 83.581 11.408 79.019 28.103 C 75.026 28.089 74.418 28.333 73.773 27.397 Z" style="fill: rgb(255, 255, 255);"/>
  <path id="Path_19" data-name="Path 19" d="M 109.426 8.498 C 110.11 9.536 109.768 10.112 104.761 28.102 C 89.265 28.202 89.607 28.088 88.81 27.165 C 87.907 26.121 88.467 25.433 93.372 7.63 C 109.118 7.63 108.749 7.463 109.426 8.498 Z M 99.066 11.149 L 99.066 11.149 L 95.421 24.745 L 99.066 24.745 L 102.71 11.149 Z" style="fill: rgb(255, 255, 255);"/>
  <path id="Path_20" data-name="Path 20" d="M 109.09 28.102 C 108.697 27.772 109.602 26.685 114.558 7.63 C 139.702 7.545 138.334 7.289 139.189 8.587 C 139.678 9.328 139.61 9.766 134.832 28.102 C 126.631 28.032 127.827 28.102 127.827 28.102 L 131.928 10.458 L 129.593 10.458 L 125.036 28.102 L 117.975 28.102 L 122.758 10.458 L 120.48 10.458 L 115.696 28.102 Z" style="fill: rgb(255, 255, 255);"/>
  <path id="Path_21" data-name="Path 21" d="M 138.334 27.339 C 138.078 26.389 138.334 26.557 143.261 7.63 C 150.38 7.459 150.095 7.63 150.095 7.63 C 150.095 7.63 149.862 8.844 144.401 28.102 C 139.532 28.032 138.577 28.239 138.335 27.341 Z" style="fill: rgb(255, 255, 255);"/>
  <path id="Path_22" data-name="Path 22" d="M 148.272 28.102 L 149.354 24.25 L 160.203 24.25 C 160.203 24.25 160.346 23.48 161.712 18.294 C 151.917 18.265 151.655 18.756 150.892 17.488 C 150.544 16.909 151 16.444 153.284 7.63 C 168.541 7.687 171.281 7.63 171.281 7.63 L 170.37 10.919 L 160.118 11.005 C 160.118 11.005 159.998 10.803 158.751 14.837 C 169.002 14.808 168.572 14.891 169.088 15.413 C 169.857 16.191 169.601 16.623 166.497 28.102 C 147.246 28.203 148.272 28.102 148.272 28.102 Z" style="fill: rgb(255, 255, 255);"/>
  <path id="Path_23" data-name="Path 23" d="M 174.984 7.63 C 169.345 27.017 169.483 26.78 170.114 27.599 C 170.712 28.376 171.652 28.047 195.657 28.119 C 200.441 9.382 201.01 7.63 201.01 7.63 L 193.948 7.63 L 189.05 25.554 L 186.544 25.554 L 191.442 7.63 L 184.608 7.63 L 179.71 25.438 L 177.204 25.438 L 182.102 7.63 Z" style="fill: rgb(255, 255, 255);"/>
  <path id="Path_24" data-name="Path 24" d="M 220.944 7.63 C 223.565 26.816 223.649 27.022 224.248 27.627 C 224.76 28.146 224.788 28.117 237.945 28.117 C 242.814 8.673 238.2 27.076 243.042 7.63 L 235.98 7.63 L 231.794 25.237 L 230.284 25.237 L 228.233 7.63 C 228.233 7.63 226.496 7.545 220.942 7.63 Z" style="fill: rgb(255, 255, 255);"/>
  <path id="Path_25" data-name="Path 25" d="M 264 7.63 C 264 7.63 263.231 7.63 246.687 7.63 C 241.703 27.333 241.703 27.237 242.13 27.771 C 242.559 28.305 243.155 28.117 259.443 28.102 C 259.814 25.697 259.899 24.487 259.899 24.487 L 249.392 24.487 L 250.788 18.525 L 259.985 18.438 L 260.811 14.837 L 251.698 14.837 L 252.724 10.919 L 263.317 10.919 L 264 7.63 Z" style="fill: rgb(255, 255, 255);"/>
  <path id="Path_27" data-name="Path 27" d="M 220.715 28.119 L 213.654 28.119 L 213.027 23.018 L 207.502 23.018 L 206.022 28.119 L 199.073 28.119 C 199.073 28.119 199.073 27.507 204.655 7.63 C 216.074 7.544 216.501 7.549 217.099 8.587 C 217.613 9.364 217.701 10.522 220.715 28.119 Z M 210.008 10.984 L 210.008 10.984 L 207.983 18.741 L 212.708 18.741 L 212.093 10.984 Z" style="fill: rgb(255, 255, 255);"/>
</svg>