<?xml version="1.0" encoding="utf-8"?>
<svg version="1.1" id="casual" x="0px" y="0px" viewBox="0 0 200 40" xmlns="http://www.w3.org/2000/svg">
  <path d="M 39.901 19.105 C 39.901 18.859 39.901 18.647 39.901 18.435 C 39.901 14.54 39.901 10.651 39.901 6.756 C 39.901 6.563 39.891 6.37 39.916 6.178 C 39.983 5.599 40.412 5.142 40.981 5.035 C 41.15 5.007 41.328 5.002 41.496 5.002 C 46.201 5.002 50.9 5.002 55.605 5.002 C 55.72 5.002 55.836 4.997 55.952 5.007 C 56.67 5.065 57.157 5.546 57.225 6.269 C 57.243 6.462 57.234 6.655 57.234 6.848 C 57.234 10.704 57.234 14.555 57.234 18.411 C 57.234 18.637 57.234 18.869 57.234 19.114 C 57.456 19.192 57.629 19.255 57.813 19.317 C 60.242 20.151 61.866 22.358 61.895 24.928 C 61.919 27.164 61.914 29.401 61.895 31.632 C 61.881 33.469 60.521 34.905 58.747 34.996 C 57.012 35.083 55.513 33.806 55.277 32.023 C 55.239 31.738 55.239 31.444 55.233 31.159 C 55.229 30.697 55.233 30.239 55.233 29.791 C 54.804 29.651 42.875 29.603 41.954 29.728 C 41.94 29.863 41.911 30.013 41.911 30.157 C 41.906 30.678 41.921 31.198 41.906 31.719 C 41.858 33.507 40.484 34.919 38.73 34.996 C 37.024 35.068 35.519 33.787 35.288 32.051 C 35.255 31.786 35.245 31.512 35.245 31.246 C 35.24 29.28 35.284 27.313 35.235 25.351 C 35.153 22.151 37.25 19.867 39.65 19.221 C 39.708 19.197 39.776 19.158 39.901 19.105 Z M 48.591 20.334 C 46.143 20.334 43.694 20.32 41.251 20.339 C 38.744 20.358 36.671 22.262 36.59 24.715 C 36.512 27.024 36.551 29.343 36.58 31.651 C 36.595 32.813 37.535 33.695 38.614 33.666 C 39.722 33.637 40.547 32.764 40.571 31.579 C 40.58 31 40.566 30.422 40.576 29.844 C 40.586 28.855 41.092 28.33 42.065 28.33 C 46.403 28.326 50.736 28.326 55.074 28.33 C 56.043 28.33 56.554 28.865 56.564 29.848 C 56.568 30.466 56.54 31.083 56.578 31.699 C 56.655 33.02 57.831 33.907 59.061 33.604 C 59.967 33.382 60.56 32.581 60.564 31.526 C 60.574 29.425 60.574 27.323 60.564 25.226 C 60.555 22.32 58.56 20.339 55.644 20.334 C 53.291 20.329 50.939 20.329 48.591 20.334 Z M 47.859 12.969 C 47.859 10.728 47.859 8.559 47.859 6.37 C 45.641 6.37 43.458 6.37 41.27 6.37 C 41.27 8.593 41.27 10.776 41.27 12.969 C 43.487 12.969 45.656 12.969 47.859 12.969 Z M 41.275 14.357 C 41.154 15.34 41.198 18.565 41.328 18.955 C 43.497 18.955 45.671 18.955 47.854 18.955 C 47.854 17.404 47.854 15.895 47.854 14.357 C 45.647 14.357 43.478 14.357 41.275 14.357 Z M 55.836 18.955 C 55.962 18.127 55.918 12.762 55.793 12.376 C 53.624 12.376 51.455 12.376 49.262 12.376 C 49.262 14.584 49.262 16.753 49.262 18.955 C 51.479 18.955 53.657 18.955 55.836 18.955 Z M 55.87 6.366 C 53.633 6.366 51.469 6.366 49.271 6.366 C 49.271 7.908 49.271 9.417 49.271 10.95 C 51.488 10.95 53.667 10.95 55.87 10.95 C 55.87 9.407 55.87 7.908 55.87 6.366 Z" style="fill: rgb(204, 204, 204);"/>
  <path d="M 42.581 21.69 C 44.066 21.694 45.253 22.9 45.233 24.391 C 45.215 25.843 44.013 27.025 42.557 27.019 C 41.076 27.01 39.885 25.795 39.904 24.313 C 39.923 22.847 41.115 21.685 42.581 21.69 Z M 42.562 25.678 C 43.29 25.684 43.888 25.1 43.898 24.372 C 43.912 23.648 43.328 23.041 42.605 23.016 C 41.867 22.992 41.231 23.614 41.235 24.352 C 41.235 25.075 41.838 25.669 42.562 25.678 Z" style="fill: rgb(204, 204, 204);"/>
  <path d="M 51.919 24.357 C 51.914 22.862 53.1 21.68 54.596 21.69 C 56.057 21.7 57.234 22.881 57.243 24.338 C 57.249 25.813 56.033 27.025 54.557 27.015 C 53.1 27.005 51.923 25.819 51.919 24.357 Z M 55.903 24.328 C 55.888 23.605 55.285 23.011 54.566 23.016 C 53.848 23.021 53.245 23.624 53.24 24.343 C 53.235 25.085 53.862 25.698 54.61 25.678 C 55.338 25.66 55.917 25.051 55.903 24.328 Z" style="fill: rgb(204, 204, 204);"/>
  <path d="M 44.634 8.771 C 44.909 8.453 45.121 8.178 45.371 7.937 C 45.704 7.614 46.066 7.6 46.346 7.86 C 46.644 8.14 46.63 8.511 46.302 8.877 C 46.187 9.007 46.056 9.123 45.935 9.248 C 45.815 9.373 45.699 9.499 45.526 9.677 C 45.758 9.913 45.989 10.135 46.201 10.371 C 46.316 10.496 46.442 10.627 46.509 10.781 C 46.634 11.051 46.523 11.374 46.268 11.542 C 45.993 11.725 45.714 11.711 45.468 11.499 C 45.17 11.234 44.885 10.95 44.562 10.641 C 44.263 10.93 43.998 11.205 43.714 11.455 C 43.333 11.788 42.851 11.711 42.644 11.296 C 42.494 10.998 42.576 10.738 42.793 10.506 C 42.928 10.366 43.063 10.231 43.198 10.096 C 43.319 9.971 43.434 9.846 43.607 9.667 C 43.4 9.46 43.202 9.262 43.005 9.06 C 42.884 8.935 42.755 8.815 42.663 8.67 C 42.485 8.38 42.552 8.058 42.807 7.84 C 43.053 7.633 43.386 7.619 43.656 7.85 C 43.964 8.101 44.239 8.395 44.634 8.771 Z" style="fill: rgb(204, 204, 204);"/>
  <path d="M 52.553 17.664 C 51.464 17.659 50.567 16.762 50.563 15.673 C 50.558 14.555 51.474 13.658 52.601 13.678 C 53.696 13.697 54.578 14.603 54.568 15.688 C 54.554 16.777 53.643 17.668 52.553 17.664 Z M 53.219 15.668 C 53.219 15.312 52.915 15.008 52.559 15.008 C 52.202 15.008 51.908 15.312 51.912 15.673 C 51.912 16.03 52.221 16.339 52.568 16.333 C 52.915 16.333 53.223 16.02 53.219 15.668 Z" style="fill: rgb(204, 204, 204);"/>
  <path d="M 78.43 23.113 L 77.95 28.153 C 76.67 28.673 75.05 28.933 73.09 28.933 C 70.57 28.933 68.765 28.443 67.675 27.463 C 66.585 26.483 66.04 24.973 66.04 22.933 C 66.04 22.073 66.18 20.803 66.46 19.123 C 67.06 15.683 68.095 13.183 69.565 11.623 C 71.035 10.063 73.36 9.283 76.54 9.283 C 77.28 9.283 78.125 9.358 79.075 9.508 C 80.025 9.658 80.72 9.843 81.16 10.063 L 79.48 14.653 C 78.3 14.373 77.195 14.233 76.165 14.233 C 75.135 14.233 74.4 14.333 73.96 14.533 C 73.52 14.733 73.25 15.133 73.15 15.733 L 71.77 23.593 C 72.49 23.753 73.23 23.833 73.99 23.833 C 75.61 23.833 77.09 23.593 78.43 23.113 Z M 84.79 28.483 L 78.79 28.483 L 86.68 9.733 L 95.5 9.733 L 96.82 28.483 L 90.79 28.483 L 90.67 25.513 L 85.96 25.513 Z M 89.92 15.493 L 87.82 20.743 L 90.22 20.743 L 90.22 15.493 Z M 98.259 28.153 L 99.939 23.203 C 101.619 23.663 103.159 23.893 104.559 23.893 C 105.959 23.893 107.089 23.833 107.949 23.713 L 108.189 22.213 L 105.699 21.973 C 103.799 21.793 102.454 21.363 101.664 20.683 C 100.874 20.003 100.479 19.043 100.479 17.803 C 100.479 17.263 100.539 16.663 100.659 16.003 C 101.119 13.443 101.954 11.683 103.164 10.723 C 104.374 9.763 106.249 9.283 108.789 9.283 C 111.329 9.283 113.569 9.533 115.509 10.033 L 113.949 14.833 C 112.209 14.533 110.809 14.383 109.749 14.383 C 108.689 14.383 107.789 14.433 107.049 14.533 L 106.809 16.003 L 108.819 16.213 C 110.859 16.433 112.309 16.918 113.169 17.668 C 114.029 18.418 114.459 19.423 114.459 20.683 C 114.459 21.963 114.179 23.283 113.619 24.643 C 113.339 25.343 113.034 25.928 112.704 26.398 C 112.374 26.868 111.954 27.268 111.444 27.598 C 110.934 27.928 110.469 28.178 110.049 28.348 C 109.629 28.518 109.099 28.643 108.459 28.723 C 107.519 28.863 106.369 28.933 105.009 28.933 C 102.529 28.933 100.279 28.673 98.259 28.153 Z M 124.629 9.733 L 122.139 23.803 L 124.179 23.803 C 124.879 23.803 125.379 23.708 125.679 23.518 C 125.979 23.328 126.189 22.893 126.309 22.213 L 128.529 9.733 L 134.229 9.733 L 132.369 20.263 C 132.069 21.963 131.724 23.333 131.334 24.373 C 130.944 25.413 130.399 26.293 129.699 27.013 C 128.999 27.733 128.134 28.233 127.104 28.513 C 126.074 28.793 124.769 28.933 123.189 28.933 C 120.769 28.933 119.074 28.568 118.104 27.838 C 117.134 27.108 116.649 25.853 116.649 24.073 C 116.649 23.093 116.789 21.823 117.069 20.263 L 118.929 9.733 Z M 138.518 28.483 L 132.518 28.483 L 140.408 9.733 L 149.228 9.733 L 150.548 28.483 L 144.518 28.483 L 144.398 25.513 L 139.688 25.513 Z M 143.648 15.493 L 141.548 20.743 L 143.948 20.743 L 143.948 15.493 Z M 163.927 28.483 L 152.527 28.483 L 155.827 9.733 L 161.527 9.733 L 159.067 23.683 L 164.767 23.683 Z" style="white-space: pre; fill: rgb(255, 255, 255);"/>
</svg>