<?xml version="1.0" encoding="utf-8"?>
<svg preserveAspectRatio="none" xmlns="http://www.w3.org/2000/svg">
  <path d="M 55.56 19.51 L 57.54 25.75 L 51.27 25.75 L 49.89 20.17 L 48.66 20.17 L 47.7 25.75 L 42 25.75 L 45.3 7 L 54.3 7 C 57.72 7 59.43 8.53 59.43 11.59 C 59.43 12.85 59.24 14.05 58.86 15.19 C 58.16 17.35 57.06 18.79 55.56 19.51 Z M 51.27 11.8 L 50.13 11.8 L 49.47 15.55 L 50.79 15.55 C 51.47 15.55 51.983 15.477 52.33 15.33 C 52.683 15.177 52.923 14.747 53.05 14.04 C 53.183 13.327 53.25 12.89 53.25 12.73 C 53.25 12.33 53.097 12.073 52.79 11.96 C 52.477 11.853 51.97 11.8 51.27 11.8 Z" style="white-space: pre; fill: rgb(255, 255, 255);"/>
  <path d="M 71.11 16.22 L 70.46 19.85 L 65.71 19.85 L 65.38 21.75 L 71.21 21.75 L 70.51 25.75 L 59.93 25.75 L 62.68 10.12 L 73.13 10.12 L 71.83 14.12 L 66.71 14.12 L 66.36 16.22 L 71.11 16.22 Z M 86.43 10.12 L 85.71 14.12 L 82.26 14.12 L 80.23 25.75 L 75.48 25.75 L 77.51 14.12 L 74.08 14.12 L 74.81 10.12 L 86.43 10.12 Z M 96.98 20.55 L 98.63 25.75 L 93.41 25.75 L 92.26 21.1 L 91.23 21.1 L 90.43 25.75 L 85.68 25.75 L 88.43 10.12 L 95.93 10.12 C 98.783 10.12 100.21 11.397 100.21 13.95 C 100.21 14.997 100.05 15.997 99.73 16.95 C 99.15 18.75 98.233 19.95 96.98 20.55 Z M 93.41 14.12 L 92.46 14.12 L 91.91 17.25 L 93.01 17.25 C 93.577 17.25 94.003 17.187 94.29 17.06 C 94.583 16.933 94.783 16.577 94.89 15.99 C 95.003 15.397 95.06 15.033 95.06 14.9 C 95.06 14.567 94.93 14.353 94.67 14.26 C 94.41 14.167 93.99 14.12 93.41 14.12 Z M 106.885 15.35 L 105.735 21.85 L 107.705 21.85 C 108.352 21.85 108.835 21.77 109.155 21.61 C 109.475 21.45 109.685 21.087 109.785 20.52 L 110.935 14.02 L 108.925 14.02 C 108.298 14.02 107.825 14.1 107.505 14.26 C 107.192 14.42 106.985 14.783 106.885 15.35 Z M 109.755 9.75 C 111.875 9.75 113.385 10.163 114.285 10.99 C 115.185 11.81 115.635 13.08 115.635 14.8 C 115.635 16.513 115.362 18.31 114.815 20.19 C 114.275 22.063 113.418 23.52 112.245 24.56 C 111.072 25.607 109.355 26.13 107.095 26.13 C 104.835 26.13 103.255 25.717 102.355 24.89 C 101.455 24.063 101.005 22.793 101.005 21.08 C 101.005 20.26 101.122 19.18 101.355 17.84 C 101.588 16.493 101.898 15.333 102.285 14.36 C 102.665 13.387 103.182 12.54 103.835 11.82 C 105.082 10.44 107.055 9.75 109.755 9.75 Z" style="white-space: pre; fill: rgb(255, 255, 255);"/>
  <path d="M 47.17 43.78 L 46 46.75 L 40 46.75 L 47.89 28 L 56.71 28 L 58.03 46.75 L 52 46.75 L 51.88 43.78 L 47.17 43.78 Z M 51.43 33.76 L 51.13 33.76 L 49.03 39.01 L 51.43 39.01 L 51.43 33.76 Z" style="white-space: pre; fill: rgb(255, 255, 255);"/>
  <path d="M 70.72 42.27 L 70.32 46.47 C 69.253 46.91 67.903 47.13 66.27 47.13 C 64.17 47.13 62.667 46.72 61.76 45.9 C 60.853 45.08 60.4 43.82 60.4 42.12 C 60.4 41.407 60.517 40.35 60.75 38.95 C 61.25 36.083 62.11 34 63.33 32.7 C 64.557 31.4 66.497 30.75 69.15 30.75 C 69.763 30.75 70.467 30.813 71.26 30.94 C 72.053 31.06 72.633 31.213 73 31.4 L 71.6 35.22 C 70.613 34.987 69.69 34.87 68.83 34.87 C 67.977 34.87 67.367 34.953 67 35.12 C 66.633 35.287 66.407 35.62 66.32 36.12 L 65.17 42.67 C 65.77 42.803 66.387 42.87 67.02 42.87 C 68.373 42.87 69.607 42.67 70.72 42.27 Z M 85.55 46.75 L 80.8 46.75 L 81.74 41.22 L 78.17 41.22 L 77.22 46.75 L 72.47 46.75 L 75.22 31.12 L 79.97 31.12 L 79 36.65 L 82.57 36.65 L 83.55 31.12 L 88.3 31.12 L 85.55 46.75 Z M 93.27 46.75 L 88.52 46.75 L 91.27 31.12 L 96.02 31.12 L 93.27 46.75 Z M 107.4 37.22 L 106.75 40.85 L 102 40.85 L 101.67 42.75 L 107.5 42.75 L 106.8 46.75 L 96.22 46.75 L 98.97 31.12 L 109.42 31.12 L 108.12 35.12 L 103 35.12 L 102.65 37.22 L 107.4 37.22 Z M 116.27 41.05 L 120.05 31.12 L 125.07 31.12 L 118.65 46.75 L 111.7 46.75 L 110.77 31.12 L 116.05 31.12 L 116.05 41.05 L 116.27 41.05 Z M 135.2 37.22 L 134.55 40.85 L 129.8 40.85 L 129.47 42.75 L 135.3 42.75 L 134.6 46.75 L 124.02 46.75 L 126.77 31.12 L 137.22 31.12 L 135.92 35.12 L 130.8 35.12 L 130.45 37.22 L 135.2 37.22 Z M 143.4 39.17 L 141.77 46.75 L 136.82 46.75 L 140.47 31.12 L 146.67 31.12 L 147.12 39.07 L 147.3 39.07 L 150.55 31.12 L 156.75 31.12 L 154.89 46.75 L 149.92 46.75 L 150.97 39.17 L 150.8 39.17 L 147.67 46.75 L 144.05 46.75 L 143.52 39.17 L 143.4 39.17 Z M 168.725 37.22 L 168.075 40.85 L 163.325 40.85 L 162.995 42.75 L 168.825 42.75 L 168.125 46.75 L 157.545 46.75 L 160.295 31.12 L 170.745 31.12 L 169.445 35.12 L 164.325 35.12 L 163.975 37.22 L 168.725 37.22 Z M 183.995 46.75 L 179.525 46.75 L 176.975 41.2 C 176.908 41.08 176.875 40.917 176.875 40.71 C 176.875 40.503 176.892 40.267 176.925 40 L 176.725 40 L 175.545 46.75 L 170.795 46.75 L 173.545 31.12 L 178.025 31.12 L 180.575 36.67 C 180.622 36.79 180.645 36.953 180.645 37.16 C 180.645 37.367 180.628 37.603 180.595 37.87 L 180.795 37.87 L 181.995 31.12 L 186.745 31.12 L 183.995 46.75 Z M 200.42 31.12 L 199.7 35.12 L 196.25 35.12 L 194.22 46.75 L 189.47 46.75 L 191.5 35.12 L 188.07 35.12 L 188.8 31.12 L 200.42 31.12 Z M 199.22 46.47 L 200.62 42.35 C 202.02 42.73 203.303 42.92 204.47 42.92 C 205.637 42.92 206.58 42.87 207.3 42.77 L 207.5 41.52 L 205.42 41.32 C 203.84 41.173 202.72 40.817 202.06 40.25 C 201.4 39.683 201.07 38.883 201.07 37.85 C 201.07 37.397 201.12 36.897 201.22 36.35 C 201.607 34.217 202.303 32.75 203.31 31.95 C 204.317 31.15 205.88 30.75 208 30.75 C 210.113 30.75 211.98 30.957 213.6 31.37 L 212.3 35.37 C 210.847 35.123 209.68 35 208.8 35 C 207.913 35 207.163 35.04 206.55 35.12 L 206.35 36.35 L 208.02 36.52 C 209.72 36.707 210.93 37.113 211.65 37.74 C 212.363 38.36 212.72 39.197 212.72 40.25 C 212.72 41.317 212.487 42.417 212.02 43.55 C 211.787 44.13 211.533 44.617 211.26 45.01 C 210.987 45.403 210.637 45.737 210.21 46.01 C 209.783 46.283 209.397 46.493 209.05 46.64 C 208.697 46.78 208.253 46.883 207.72 46.95 C 206.94 47.07 205.983 47.13 204.85 47.13 C 202.777 47.13 200.9 46.91 199.22 46.47 Z" style="white-space: pre; fill: rgb(255, 255, 255);"/>
  <path d="M 33.226 15.322 L 26.967 15.322 L 26.967 12.914 C 26.967 12.113 26.322 11.469 25.522 11.469 L 9.149 11.469 C 8.348 11.469 7.705 12.113 7.705 12.914 L 7.705 15.322 L 1.444 15.322 C 0.644 15.322 0 15.965 0 16.766 L 0 20.137 C 0 22.286 1.354 24.495 3.726 26.199 C 5.622 27.565 7.927 28.432 10.347 28.708 C 12.237 31.845 14.446 33.139 14.446 33.139 L 14.446 37.472 L 11.557 37.472 C 9.432 37.472 7.705 38.719 7.705 40.843 L 7.705 41.566 C 7.705 41.963 8.029 42.288 8.427 42.288 L 26.244 42.288 C 26.641 42.288 26.967 41.963 26.967 41.566 L 26.967 40.843 C 26.967 38.719 25.239 37.472 23.114 37.472 L 20.225 37.472 L 20.225 33.139 C 20.225 33.139 22.434 31.845 24.324 28.708 C 26.75 28.432 29.055 27.565 30.945 26.199 C 33.311 24.495 34.671 22.286 34.671 20.137 L 34.671 16.766 C 34.671 15.965 34.027 15.322 33.226 15.322 Z M 5.977 23.075 C 4.509 22.015 3.852 20.835 3.852 20.137 L 3.852 19.174 L 7.716 19.174 C 7.777 21.136 8.065 22.858 8.487 24.363 C 7.578 24.05 6.729 23.616 5.977 23.075 Z M 30.819 20.137 C 30.819 21.106 29.753 22.31 28.693 23.075 C 27.942 23.616 27.086 24.05 26.178 24.363 C 26.599 22.858 26.888 21.136 26.948 19.174 L 30.819 19.174 L 30.819 20.137 Z" style="fill: rgb(255, 255, 255);"/>
</svg>