<?xml version="1.0" encoding="utf-8"?>
<svg version="1.1" viewBox="0 0 264 38" xmlns="http://www.w3.org/2000/svg" xmlns:bx="https://boxy-svg.com">
  <path id="path1922" d="M 24.469 10.837 L 40.126 10.837 L 33.271 18.068 L 24.469 18.068 L 24.469 10.837 Z" style="fill-opacity: 1; fill: rgb(255, 255, 255);" bx:origin="-1.563 -1.499"/>
  <path id="path3805" d="M 24.454 27.165 L 40.11 27.165 L 33.256 19.934 L 24.454 19.934 L 24.454 27.165 Z" style="fill-opacity: 1; fill: rgb(255, 255, 255);" bx:origin="-1.562 -2.757"/>
  <path id="path4382" d="M 24.129 0.746 L 24.129 9.856 C 22.528 8.854 20.749 8.359 18.787 8.359 C 16.916 8.359 15.179 8.833 13.58 9.79 C 11.978 10.738 10.719 12.037 9.798 13.683 C 8.878 15.32 8.417 17.085 8.417 18.959 C 8.417 20.856 8.879 22.607 9.798 24.225 C 10.719 25.839 11.983 27.12 13.592 28.066 C 15.199 29.009 16.93 29.486 18.787 29.486 C 20.731 29.486 22.512 29.007 24.127 28.056 L 24.127 37.207 C 22.393 37.736 20.612 38 18.787 38 C 15.438 38 12.311 37.146 9.415 35.436 C 6.521 33.726 4.224 31.4 2.534 28.472 C 0.844 25.544 0 22.371 0 18.96 C 0 16.433 0.489 13.998 1.469 11.659 C 2.45 9.323 3.811 7.279 5.556 5.527 C 7.297 3.777 9.297 2.42 11.545 1.454 C 13.8 0.485 16.212 0 18.787 0 C 20.567 0 22.347 0.254 24.129 0.746" style="fill-opacity: 1; fill: rgb(255, 255, 255);" bx:origin="0 0"/>
  <path id="path4340" d="M 65.805 20.363 C 65.725 22.623 65.446 23.595 64.572 24.481 C 63.299 25.79 61.667 26.135 56.413 26.135 C 52.322 26.135 50.601 25.848 49.277 24.877 C 47.977 23.965 47.554 22.506 47.554 18.937 C 47.554 15.684 47.95 14.254 49.133 13.287 C 50.402 12.231 52.154 11.919 56.665 11.919 C 61.092 11.919 63.04 12.259 64.314 13.315 C 65.387 14.17 65.746 15.23 65.825 17.767 L 60.755 17.767 C 60.585 16.229 59.601 15.712 56.665 15.712 C 53.195 15.712 52.548 16.253 52.548 19.079 C 52.548 20.851 52.83 21.535 53.734 21.908 C 54.325 22.166 55.397 22.307 56.722 22.307 C 59.655 22.307 60.502 21.908 60.728 20.364 L 65.805 20.363 L 65.805 20.363 Z" style="fill-opacity: 1; fill: rgb(255, 255, 255);" bx:origin="-2.603 -0.838"/>
  <path id="path4342" d="M 84.024 13.172 C 85.376 14.17 85.754 15.396 85.754 18.794 C 85.754 22.506 85.415 23.765 84.202 24.79 C 82.93 25.848 81.259 26.136 76.327 26.136 C 71.334 26.136 69.663 25.848 68.41 24.79 C 67.157 23.765 66.838 22.507 66.838 18.593 C 66.838 15.428 67.236 14.143 68.569 13.172 C 69.802 12.259 71.75 11.943 76.306 11.943 C 80.861 11.943 82.79 12.258 84.024 13.172 M 71.831 19.139 C 71.831 20.936 72.07 21.535 72.964 21.908 C 73.581 22.192 74.714 22.335 76.326 22.335 C 80.105 22.335 80.761 21.848 80.761 18.992 C 80.761 17.166 80.462 16.511 79.547 16.142 C 78.912 15.885 77.737 15.74 76.326 15.74 C 72.508 15.74 71.831 16.253 71.831 19.139" style="fill-opacity: 1; fill: rgb(255, 255, 255);" bx:origin="-3.534 -0.841"/>
  <path id="path4344" d="M 91.462 12.288 L 91.462 14.313 L 91.721 14.313 C 92.457 12.689 94.148 11.943 97.111 11.943 C 100.334 11.943 102.103 12.772 103.178 14.772 C 104.033 12.744 105.664 11.943 108.926 11.943 C 111.689 11.943 113.341 12.459 114.494 13.684 C 115.647 14.883 115.906 15.997 115.906 19.475 L 115.906 25.79 L 110.914 25.79 L 110.914 19.475 C 110.874 17.225 110.814 16.97 110.336 16.482 C 109.839 15.969 108.984 15.74 107.533 15.74 C 106.021 15.74 105.086 15.997 104.569 16.598 C 103.992 17.225 103.833 18.024 103.833 20.22 L 103.833 25.79 L 98.84 25.79 L 98.84 19.475 C 98.84 17.368 98.781 16.995 98.305 16.482 C 97.846 15.969 96.972 15.74 95.539 15.74 C 94.027 15.74 93.053 15.997 92.497 16.567 C 91.92 17.138 91.761 17.995 91.761 20.22 L 91.761 25.79 L 86.768 25.79 L 86.768 12.288 L 91.462 12.288 Z" style="fill-opacity: 1; fill: rgb(255, 255, 255);" bx:origin="-2.978 -0.863"/>
  <path id="path4346" d="M 121.774 12.288 L 121.774 14.313 L 122.012 14.313 C 122.748 12.689 124.438 11.943 127.402 11.943 C 130.625 11.943 132.395 12.772 133.469 14.772 C 134.325 12.744 135.955 11.943 139.236 11.943 C 142.001 11.943 143.632 12.459 144.785 13.684 C 145.938 14.883 146.198 15.997 146.198 19.475 L 146.198 25.79 L 141.206 25.79 L 141.206 19.475 C 141.186 17.225 141.125 16.97 140.649 16.482 C 140.131 15.969 139.296 15.74 137.824 15.74 C 136.333 15.74 135.398 15.997 134.86 16.598 C 134.285 17.225 134.126 18.024 134.126 20.22 L 134.126 25.79 L 129.133 25.79 L 129.133 19.475 C 129.133 17.368 129.073 16.995 128.596 16.482 C 128.138 15.969 127.263 15.74 125.831 15.74 C 124.339 15.74 123.344 15.997 122.788 16.567 C 122.211 17.138 122.052 17.995 122.052 20.22 L 122.052 25.79 L 117.061 25.79 L 117.061 12.288 L 121.774 12.288 Z" style="fill-opacity: 1; fill: rgb(255, 255, 255);" bx:origin="-4.018 -0.863"/>
  <path id="path4348" d="M 164.458 13.172 C 165.809 14.17 166.167 15.396 166.167 18.794 C 166.167 22.506 165.829 23.765 164.617 24.79 C 163.343 25.848 161.693 26.136 156.74 26.136 C 151.748 26.136 150.098 25.848 148.825 24.79 C 147.591 23.765 147.273 22.507 147.273 18.593 C 147.273 15.428 147.671 14.143 149.003 13.172 C 150.236 12.259 152.186 11.943 156.72 11.943 C 161.295 11.943 163.205 12.258 164.458 13.172 M 152.265 19.139 C 152.265 20.936 152.484 21.535 153.398 21.908 C 154.015 22.192 155.148 22.335 156.739 22.335 C 160.538 22.335 161.175 21.848 161.175 18.992 C 161.175 17.166 160.896 16.511 159.961 16.142 C 159.345 15.885 158.152 15.74 156.739 15.74 C 152.941 15.74 152.265 16.253 152.265 19.139" style="fill-opacity: 1; fill: rgb(255, 255, 255);" bx:origin="-7.795 -0.841"/>
  <path id="path4350" d="M 186.078 25.79 L 181.383 25.79 L 181.383 24.019 L 181.124 24.019 C 180.169 25.647 178.838 26.135 175.218 26.135 C 171.616 26.135 169.887 25.762 168.733 24.707 C 167.638 23.678 167.301 22.305 167.301 18.937 C 167.301 15.51 167.838 13.886 169.249 12.946 C 170.463 12.143 171.835 11.919 175.276 11.919 C 178.776 11.919 179.929 12.374 180.885 14.088 L 181.084 14.088 L 181.084 6.749 L 186.075 6.749 L 186.075 25.79 L 186.078 25.79 Z M 172.293 18.881 C 172.293 21.847 172.85 22.305 176.61 22.305 C 178.44 22.305 179.792 22.078 180.368 21.678 C 180.926 21.304 181.124 20.588 181.124 19.02 C 181.124 16.229 180.467 15.712 176.908 15.712 C 172.971 15.712 172.293 16.17 172.293 18.881" style="fill-opacity: 1; fill: rgb(255, 255, 255);" bx:origin="-8.91 -0.348"/>
  <path id="path4352" d="M 204.157 13.172 C 205.509 14.17 205.887 15.396 205.887 18.794 C 205.887 22.506 205.549 23.765 204.335 24.79 C 203.062 25.848 201.392 26.136 196.459 26.136 C 191.467 26.136 189.816 25.848 188.542 24.79 C 187.29 23.765 186.992 22.507 186.992 18.593 C 186.992 15.428 187.39 14.143 188.702 13.172 C 189.956 12.259 191.905 11.943 196.441 11.943 C 201.015 11.943 202.923 12.258 204.157 13.172 M 191.983 19.139 C 191.983 20.936 192.203 21.535 193.119 21.908 C 193.714 22.192 194.847 22.335 196.459 22.335 C 200.237 22.335 200.894 21.848 200.894 18.992 C 200.894 17.166 200.615 16.511 199.681 16.142 C 199.064 15.885 197.871 15.74 196.459 15.74 C 192.66 15.74 191.983 16.253 191.983 19.139" style="fill-opacity: 1; fill: rgb(255, 255, 255);" bx:origin="-9.897 -0.841"/>
  <path id="path4354" d="M 211.615 12.288 L 211.615 14.313 L 211.875 14.313 C 212.789 12.598 214.201 11.943 217.006 11.943 C 221.023 11.943 222.376 13.315 222.376 17.368 L 222.376 18.281 L 217.681 18.281 C 217.681 16.28 217.105 15.74 215.057 15.74 C 213.923 15.74 212.988 16.084 212.51 16.711 C 212.033 17.368 211.894 18.11 211.894 20.194 L 211.894 25.79 L 206.901 25.79 L 206.901 12.288 L 211.615 12.288 Z" style="fill-opacity: 1; fill: rgb(255, 255, 255);" bx:origin="-13.37 -0.863"/>
  <path id="path4356" d="M 241.15 21.479 C 240.773 25.22 238.943 26.135 231.802 26.135 C 227.944 26.135 226.113 25.79 224.9 24.877 C 223.587 23.879 223.21 22.532 223.21 19.079 C 223.21 15.454 223.586 14.112 225 13.116 C 226.312 12.203 227.964 11.919 232.318 11.919 C 236.814 11.919 238.405 12.203 239.618 13.199 C 240.792 14.198 241.25 15.712 241.25 18.766 C 241.25 18.937 241.25 19.563 241.23 20.133 L 228.182 20.133 C 228.182 21.506 228.342 21.96 228.819 22.335 C 229.356 22.735 230.391 22.908 232.2 22.908 C 235.382 22.908 235.978 22.679 236.178 21.48 L 241.15 21.479 L 241.15 21.479 Z M 236.238 17.368 C 236.197 16.311 236.14 16.056 235.839 15.74 C 235.382 15.253 234.369 15.055 232.4 15.055 C 229.038 15.055 228.243 15.483 228.183 17.368 L 236.238 17.368 Z" style="fill-opacity: 1; fill: rgb(255, 255, 255);" bx:origin="-12.373 -0.838"/>
  <path d="M 247.529 23.041 L 247.529 14.795 L 248.803 14.429 L 248.803 23.041 L 247.529 23.041 Z M 251.042 23.041 L 253.821 19.522 C 254.175 19.042 254.47 18.597 254.705 18.188 C 254.941 17.778 255.059 17.399 255.059 17.049 C 255.059 16.623 254.949 16.299 254.729 16.076 C 254.507 15.852 254.175 15.739 253.732 15.739 C 253.328 15.739 253 15.853 252.751 16.081 C 252.505 16.308 252.298 16.586 252.132 16.915 L 251.087 16.345 C 251.35 15.835 251.695 15.405 252.124 15.055 C 252.55 14.706 253.097 14.531 253.764 14.531 C 254.598 14.531 255.236 14.749 255.678 15.186 C 256.123 15.622 256.346 16.194 256.346 16.902 C 256.346 17.822 255.896 18.839 254.995 19.953 L 253.463 21.914 L 256.672 21.914 L 256.672 23.041 L 251.042 23.041 Z M 261.141 23.212 C 260.616 23.212 260.135 23.106 259.698 22.895 C 259.264 22.68 258.919 22.378 258.665 21.987 C 258.407 21.597 258.279 21.142 258.279 20.625 C 258.279 20.088 258.405 19.644 258.657 19.294 C 258.909 18.944 259.23 18.685 259.622 18.517 C 259.327 18.344 259.088 18.106 258.906 17.805 C 258.721 17.507 258.628 17.172 258.628 16.801 C 258.628 16.345 258.737 15.946 258.954 15.605 C 259.174 15.263 259.474 14.998 259.855 14.811 C 260.238 14.624 260.667 14.531 261.141 14.531 C 261.613 14.531 262.041 14.624 262.424 14.811 C 262.807 14.998 263.108 15.26 263.325 15.596 C 263.542 15.935 263.65 16.329 263.65 16.776 C 263.65 17.186 263.555 17.537 263.365 17.83 C 263.172 18.123 262.922 18.356 262.613 18.53 C 263.012 18.706 263.344 18.966 263.606 19.311 C 263.869 19.655 264 20.093 264 20.625 C 264 21.142 263.873 21.597 263.618 21.987 C 263.361 22.378 263.014 22.68 262.577 22.895 C 262.137 23.106 261.659 23.212 261.141 23.212 Z M 261.141 17.997 C 261.479 17.997 261.768 17.873 262.006 17.626 C 262.247 17.379 262.368 17.085 262.368 16.744 C 262.368 16.386 262.255 16.094 262.03 15.869 C 261.805 15.646 261.509 15.535 261.141 15.535 C 260.766 15.535 260.466 15.646 260.241 15.869 C 260.016 16.094 259.903 16.386 259.903 16.744 C 259.903 17.091 260.018 17.386 260.249 17.63 C 260.482 17.875 260.78 17.997 261.141 17.997 Z M 261.141 22.097 C 261.613 22.097 261.994 21.955 262.283 21.67 C 262.573 21.385 262.718 21.026 262.718 20.592 C 262.718 20.158 262.568 19.799 262.267 19.514 C 261.967 19.229 261.592 19.087 261.141 19.087 C 260.683 19.087 260.304 19.226 260.004 19.506 C 259.703 19.782 259.553 20.145 259.553 20.592 C 259.553 21.026 259.698 21.385 259.988 21.67 C 260.274 21.955 260.659 22.097 261.141 22.097 Z" style="fill: rgb(255, 255, 255); white-space: pre;"/>
</svg>