<?xml version="1.0" encoding="utf-8"?>
<svg viewBox="0 0 919 429.6" xmlns="http://www.w3.org/2000/svg">
  <path d="M 284.775 129.29 L 303.953 129.29 L 303.953 51.029 C 303.953 45.939 303.573 38.745 302.623 29.445 C 303.003 31.025 303.953 36.991 305.852 46.993 L 321.992 129.29 L 332.246 129.29 L 349.146 46.993 C 349.905 43.659 350.854 37.868 352.373 29.445 C 351.234 40.325 350.854 47.519 350.854 51.029 L 350.854 129.29 L 370.223 129.29 L 370.223 5.405 L 342.31 5.405 L 329.397 74.191 C 328.258 80.157 327.499 86.299 327.499 92.616 C 327.499 85.948 326.929 79.631 325.789 74.016 L 312.308 5.406 L 284.775 5.406 L 284.775 129.29 Z M 391.11 129.29 L 411.807 129.29 L 411.807 78.929 L 426.049 78.929 C 442.569 78.929 453.772 65.417 453.772 41.202 C 453.772 15.934 443.898 5.405 421.492 5.405 L 391.11 5.405 L 391.11 129.29 Z M 411.807 61.206 L 411.807 23.304 L 419.213 23.304 C 429.657 23.304 432.695 27.691 432.695 41.553 C 432.695 55.942 430.226 61.206 419.972 61.206 L 411.807 61.206 Z M 466.684 5.405 L 466.684 97.529 C 466.684 120.165 478.077 131.922 498.584 131.922 C 518.712 131.922 530.295 119.99 530.295 98.056 L 530.295 5.406 L 509.218 5.406 L 509.218 101.39 C 509.218 108.935 505.041 113.146 498.775 113.146 C 492.509 113.146 487.761 108.935 487.761 101.39 L 487.761 5.405 L 466.684 5.405 Z M 538.46 23.303 L 559.917 23.303 L 559.917 129.29 L 580.615 129.29 L 580.615 23.304 L 602.261 23.304 L 602.261 5.405 L 538.461 5.405 L 538.46 23.303 Z M 611.566 129.29 L 665.493 129.29 L 665.493 110.69 L 632.263 110.69 L 632.263 73.665 L 656.189 73.665 L 656.189 55.766 L 632.263 55.766 L 632.263 23.304 L 665.493 23.304 L 665.493 5.405 L 611.566 5.405 L 611.566 129.29 Z M 701.95 77.174 L 711.825 77.174 L 724.547 129.29 L 746.004 129.29 L 730.814 71.735 C 740.497 65.417 743.915 55.942 743.915 41.202 C 743.915 15.758 734.041 5.405 711.635 5.405 L 681.253 5.405 L 681.253 129.29 L 701.951 129.29 L 701.95 77.174 Z M 701.95 23.304 L 709.356 23.304 C 719.42 23.304 722.838 27.34 722.838 40.5 C 722.838 54.187 720.18 59.276 710.116 59.276 L 701.951 59.276 L 701.95 23.304 Z M 754.359 97.88 C 755.309 119.639 768.41 132.098 788.539 132.098 C 806.957 132.098 820.629 119.463 820.629 101.214 C 820.629 84.018 811.704 74.718 797.463 61.908 C 785.69 51.38 776.765 43.834 776.765 32.604 C 776.765 25.584 781.323 21.198 787.779 21.198 C 795.374 21.198 798.412 25.936 799.172 36.64 L 819.299 34.008 C 817.78 14.706 805.438 3.3 788.349 3.3 C 770.879 3.3 756.258 16.46 756.258 34.359 C 756.258 50.678 766.891 60.855 781.892 74.718 C 792.905 84.895 800.501 91.212 800.501 101.565 C 800.501 108.76 795.374 113.497 787.779 113.497 C 779.044 113.497 774.866 107.531 774.107 95.073 L 754.359 97.88 Z" fill-opacity=".994" stroke-width="3.1" fill="#fff"/>
  <path d="M 82.28 97.529 C 82.28 120.165 93.103 131.922 113.99 131.922 C 134.118 131.922 145.89 119.99 145.89 98.056 L 145.89 85.071 L 124.624 85.071 L 124.624 101.916 C 124.624 110.514 121.016 114.901 113.99 114.901 C 106.964 114.901 103.356 110.514 103.356 101.916 L 103.356 32.779 C 103.356 24.181 106.964 19.969 113.99 19.969 C 121.016 19.969 124.624 24.181 124.624 32.779 L 124.624 46.466 L 145.891 46.466 L 145.891 34.534 C 145.891 14.53 133.548 2.774 114.75 2.774 C 94.242 2.774 82.28 14.706 82.28 34.008 L 82.28 97.529 Z" fill-opacity=".994" stroke-width="3.1" fill="#fff"/>
  <path d="M 616.425 428.077 L 616.425 392.011 L 648.169 392.011 L 700.664 318.498 L 648.169 250.663 L 618.593 250.663 L 618.593 214.596 L 729.312 214.596 L 729.312 248.667 L 708.716 248.667 L 740.771 288.417 L 769.883 248.667 L 750.37 248.667 L 750.37 214.597 L 845.914 214.597 L 845.914 250.663 L 816.027 250.663 L 764.927 320.8 L 821.292 392.011 L 852.262 392.011 L 852.262 428.077 L 737.982 428.077 L 737.982 393.393 L 759.507 393.393 L 725.749 349.653 L 693.695 393.393 L 715.838 393.393 L 715.838 428.078 L 616.425 428.077 Z M 396.49 428.077 L 396.49 392.011 L 425.293 392.011 L 425.293 250.663 L 396.49 250.663 L 396.49 214.596 L 486.769 214.596 L 566.208 347.811 L 566.208 250.663 L 538.18 250.663 L 538.18 214.596 L 634.807 214.596 L 634.807 250.663 L 604.61 250.663 L 604.61 429.612 L 556.606 429.612 L 463.695 271.382 L 463.695 392.012 L 490.794 392.012 L 490.794 428.077 L 396.49 428.077 Z M 243.135 428.077 L 243.135 392.011 L 273.331 392.011 L 273.331 334.305 L 214.952 250.663 L 188.628 250.663 L 188.628 214.596 L 296.404 214.596 L 296.404 250.663 L 275.19 250.663 L 306.78 302.843 L 338.834 250.663 L 316.69 250.663 L 316.69 214.596 L 411.614 214.596 L 411.614 250.663 L 385.134 250.663 L 329.388 334.305 L 329.388 392.011 L 359.428 392.011 L 359.428 428.077 L 243.135 428.077 Z M 39.107 428.077 L 39.107 392.011 L 69.922 392.011 L 69.922 250.663 L 39.107 250.663 L 39.107 214.596 L 157.413 214.596 L 157.413 250.663 L 125.98 250.663 L 125.98 392.011 L 189.624 392.011 L 189.624 326.018 L 231.588 326.018 L 231.588 428.078 L 39.107 428.077 Z" fill-opacity=".994" fill="#fff"/>
  <path d="M 259.994 128.442 C 234.481 73.715 213.308 28.753 212.943 28.528 C 212.578 28.302 198.054 58.593 180.669 95.84 L 149.06 163.563 L 74.53 163.82 L 0 164.076 L 0 154.076 L 70.53 153.82 L 141.058 153.563 L 176.898 76.782 L 212.738 0 L 259.498 100.282 C 285.218 155.437 306.33 200.654 306.415 200.765 C 306.5 200.876 311.965 189.401 318.56 175.265 L 330.55 149.563 L 624.775 149.312 L 919 149.06 L 919 159.06 L 628.804 159.312 L 338.609 159.563 L 331.554 174.581 C 317.915 203.616 314.219 211.678 311.031 219.334 C 309.262 223.583 307.492 227.259 307.098 227.503 C 306.704 227.747 285.507 183.169 259.994 128.442 L 259.994 128.442 Z" fill="#fefefe"/>
</svg>