<?xml version="1.0" encoding="utf-8"?>
<svg version="1.1" id="Layer_1" x="0px" y="0px" viewBox="144 324 820 159" width="820" height="159" xmlns="http://www.w3.org/2000/svg">
  <path d="M 200.75 325.887 C 194.95 327.787 187.85 331.387 180.85 335.787 C 178.05 337.587 174.55 338.987 173.05 338.987 C 166.65 338.987 156.05 349.087 150.15 360.887 L 146.75 367.487 L 146.75 383.987 C 146.75 397.787 147.05 401.087 148.55 403.887 C 149.45 405.787 150.25 407.787 150.25 408.487 C 150.25 410.787 156.85 422.087 161.05 426.987 C 166.45 433.287 172.55 436.287 178.15 435.387 C 181.15 434.887 182.75 435.087 184.05 436.187 C 192.25 443.387 214.75 446.187 231.25 441.987 C 243.85 438.887 251.45 435.587 252.45 432.887 L 253.35 430.487 L 255.55 433.487 C 261.75 442.087 266.45 444.487 271.45 441.587 C 273.95 440.087 275.05 439.987 279.15 440.987 C 281.75 441.587 293.45 442.187 305.35 442.287 C 326.85 442.487 326.95 442.487 330.55 439.987 C 335.45 436.687 335.65 432.487 331.05 426.687 C 329.25 424.387 326.95 420.787 325.95 418.587 C 323.45 413.087 321.25 398.187 321.25 387.187 C 321.25 378.887 321.45 377.887 322.95 378.187 C 324.55 378.487 336.05 392.487 336.15 394.187 C 336.25 394.587 338.15 397.587 340.55 400.687 C 342.85 403.887 345.25 407.387 345.95 408.487 C 346.65 409.587 351.05 416.787 355.65 424.587 C 365.25 440.487 368.25 443.987 372.25 443.987 C 376.05 443.987 382.85 436.887 387.25 428.287 C 389.15 424.587 392.45 418.587 394.55 415.087 C 396.65 411.587 400.55 403.887 403.35 398.087 C 409.05 386.087 414.15 377.987 416.05 377.987 C 417.65 377.987 417.55 380.687 415.85 381.287 C 415.15 381.587 414.25 383.287 413.95 385.187 C 413.65 386.987 412.95 390.487 412.25 392.987 C 411.65 395.487 411.25 401.087 411.45 405.487 C 411.95 415.687 415.35 423.087 423.05 430.087 C 427.75 434.387 428.95 434.987 432.75 434.987 C 435.15 434.987 437.45 435.487 437.75 435.987 C 438.85 437.687 446.45 441.187 452.25 442.587 C 467.95 446.387 483.55 441.687 491.95 430.687 C 493.65 428.387 496.55 422.687 498.35 418.087 L 501.65 409.687 L 497.85 406.387 L 494.15 403.187 L 497.95 399.687 C 501.75 396.187 501.75 396.087 501.65 388.687 C 501.55 381.987 501.15 380.787 497.95 375.887 C 495.95 372.887 493.75 369.787 493.05 368.887 C 490.95 366.287 482.05 360.987 479.85 360.987 C 478.65 360.987 474.65 359.387 470.85 357.487 C 459.05 351.587 451.65 352.787 435.85 363.187 C 430.95 366.487 426.45 368.887 425.75 368.587 C 425.05 368.387 424.25 366.187 423.95 363.887 C 423.05 356.787 423.65 356.887 394.55 356.587 C 384.05 356.487 383.25 356.587 380.85 358.887 C 376.95 362.587 377.15 369.687 381.25 374.287 C 384.25 377.787 385.15 381.287 383.15 382.487 C 382.65 382.887 381.75 384.287 381.25 385.587 C 379.65 389.787 376.85 388.487 373.45 381.987 L 370.25 375.987 L 372.35 371.887 C 374.35 368.287 374.35 367.487 373.25 363.887 C 370.85 356.687 370.95 356.787 345.55 356.387 L 322.95 356.087 L 319.45 359.587 C 315.95 363.087 313.85 363.787 312.75 361.987 C 311.35 359.687 303.75 356.887 296.05 355.887 C 280.45 353.787 264.95 357.987 259.05 365.987 C 255.15 371.387 254.75 370.087 254.55 352.587 C 254.55 342.487 254.05 335.487 253.35 334.087 C 252.05 331.687 246.45 328.587 238.35 325.887 C 230.85 323.387 208.25 323.387 200.75 325.887 Z M 236.85 332.687 C 246.35 336.087 246.05 335.187 246.45 354.487 L 246.75 371.487 L 244.05 371.787 C 240.55 372.187 237.25 368.887 237.25 365.087 C 237.25 358.187 227.55 346.787 219.85 344.487 C 210.55 341.687 202.75 342.987 195.15 348.587 C 189.35 352.787 185.65 358.087 182.65 366.487 C 180.65 372.087 180.25 374.887 180.25 385.487 C 180.25 396.487 180.55 398.587 182.65 403.187 C 183.95 406.087 186.55 409.987 188.45 411.887 C 193.55 416.987 203.75 422.787 209.95 423.987 C 219.05 425.887 223.45 424.387 235.45 415.287 C 238.75 412.787 242.15 410.987 243.65 410.987 L 246.25 410.987 L 246.25 420.787 L 246.25 430.687 L 242.55 432.287 C 228.25 438.487 202.95 438.787 192.25 432.787 C 188.55 430.787 183.95 427.687 182.45 426.287 C 180.65 424.587 177.15 424.687 174.65 426.487 C 172.75 427.787 172.35 427.587 169.55 424.687 C 164.15 418.887 158.05 407.487 156.05 399.487 C 154.35 392.887 153.95 378.987 155.25 371.487 C 156.55 364.187 159.65 357.987 165.95 350.187 C 169.75 345.587 171.95 344.987 174.45 347.887 C 176.75 350.587 180.15 349.487 180.95 345.887 C 181.35 343.787 182.95 342.087 186.65 339.787 C 192.15 336.287 202.55 331.487 206.45 330.587 C 211.35 329.587 231.75 330.887 236.85 332.687 Z M 217.15 350.487 C 218.75 351.287 221.75 353.887 223.85 356.287 C 227.45 360.387 228.75 363.287 231.05 372.887 C 232.05 377.287 234.45 378.987 237.25 377.187 C 242.15 374.187 252.25 377.287 252.25 381.887 C 252.25 385.687 255.95 387.487 263.65 387.387 C 269.45 387.387 271.55 386.887 275.35 384.687 C 277.85 383.187 280.85 381.987 281.95 381.987 C 284.15 381.987 286.95 384.587 285.95 385.687 C 284.15 387.387 274.15 389.987 269.45 389.787 C 266.45 389.687 263.75 390.087 263.45 390.587 C 263.05 391.087 260.85 392.787 258.55 394.387 C 255.95 396.087 253.55 398.787 252.55 401.087 L 250.85 404.987 L 244.45 404.987 C 238.25 404.987 237.95 405.087 232.45 409.887 C 225.25 416.087 220.05 418.987 216.15 418.987 C 208.95 418.987 194.45 409.287 190.85 401.987 C 190.15 400.587 189.05 396.287 188.35 392.387 C 185.45 375.587 191.85 356.387 202.05 350.987 C 206.45 348.687 213.25 348.387 217.15 350.487 Z M 305.35 365.087 C 307.75 366.487 310.85 369.187 312.05 371.187 C 314.35 374.587 314.45 375.687 314.65 393.587 C 314.85 415.287 315.95 420.187 322.55 428.287 C 324.65 430.887 326.25 433.587 325.95 434.287 C 325.65 435.187 320.05 435.487 303.55 435.387 C 285.25 435.287 280.95 434.987 278.25 433.587 C 274.15 431.587 272.85 431.587 271.25 433.487 C 268.55 436.787 265.55 435.287 261.75 428.887 C 259.85 425.587 258.25 422.087 258.25 421.087 C 258.25 420.087 257.75 417.887 257.15 416.087 C 255.75 412.087 257.35 405.187 261.05 399.687 C 263.75 395.687 267.05 394.787 269.25 397.487 C 271.25 399.887 274.35 399.287 277.15 395.887 C 279.15 393.587 281.35 392.487 286.75 391.087 L 293.75 389.387 L 294.05 385.387 C 294.25 382.087 293.85 380.887 291.15 378.187 C 289.45 376.487 287.45 374.987 286.85 374.987 C 284.95 374.987 275.95 378.187 274.25 379.387 C 267.35 384.487 262.65 384.887 260.35 380.587 C 256.55 373.487 265.55 365.087 279.25 363.087 C 289.35 361.587 300.55 362.487 305.35 365.087 Z M 364.05 362.987 C 365.65 362.987 367.35 367.487 366.55 369.487 C 366.25 370.387 364.75 371.387 363.15 371.687 C 361.55 371.987 360.25 372.887 360.25 373.687 C 360.25 374.487 362.65 378.787 365.65 383.387 C 368.55 387.887 372.15 394.087 373.65 397.187 C 376.65 403.587 378.45 404.687 381.95 402.487 C 383.85 401.187 384.05 400.587 383.25 398.987 C 382.55 397.687 382.55 396.387 383.15 395.287 C 383.65 394.287 384.35 392.787 384.65 391.987 C 385.45 389.987 387.15 387.287 390.55 382.887 C 394.05 378.187 394.05 375.587 390.35 373.387 C 387.05 371.387 383.85 366.487 384.65 364.387 C 385.05 363.287 388.05 362.987 400.75 362.987 L 416.25 362.987 L 417.35 365.687 C 418.95 369.787 418.15 371.287 413.05 373.787 C 409.75 375.287 408.25 376.687 408.25 377.987 C 408.25 378.987 407.65 380.287 406.95 380.687 C 405.55 381.487 398.35 393.187 394.45 400.987 C 393.15 403.487 391.75 406.187 391.25 406.987 C 386.55 414.887 381.15 424.687 378.35 430.287 C 374.65 437.787 373.05 438.387 370.35 433.487 C 369.45 431.787 366.95 427.787 364.85 424.587 C 362.85 421.387 360.65 417.787 360.15 416.587 C 358.35 412.387 341.15 387.187 336.45 381.687 C 334.95 379.987 331.35 376.287 328.55 373.487 C 324.85 369.887 323.25 367.487 323.25 365.687 C 323.25 364.287 323.65 362.987 324.25 362.787 C 324.95 362.587 349.45 362.687 364.05 362.987 Z M 466.55 364.687 C 468.35 365.687 470.55 367.087 471.45 367.887 C 472.65 368.787 474.45 369.087 476.85 368.687 C 480.05 368.187 480.85 368.587 484.85 372.187 C 492.75 379.487 496.35 390.787 492.65 396.587 L 490.95 399.087 L 469.35 398.387 C 443.95 397.687 443.75 397.787 443.85 405.687 C 443.95 411.987 447.25 417.387 453.45 421.287 C 462.35 426.887 473.35 422.587 480.85 410.687 C 483.35 406.787 485.15 406.287 489.65 407.987 C 493.15 409.287 493.15 414.087 489.65 420.987 C 486.05 428.187 481.55 432.887 475.85 435.587 C 471.75 437.487 469.75 437.787 463.85 437.387 C 454.25 436.687 449.55 435.287 444.25 431.287 C 440.25 428.287 439.25 427.887 435.65 428.487 C 431.65 429.087 431.35 428.887 428.05 424.787 C 420.35 415.187 419.75 413.587 419.85 401.487 C 420.05 389.487 421.25 385.487 427.25 377.087 C 430.35 372.887 430.55 372.787 434.75 373.387 C 438.65 373.987 439.25 373.787 441.65 370.987 C 443.05 369.287 444.25 367.487 444.25 367.187 C 444.25 366.787 445.45 365.687 447.05 364.787 C 450.85 362.387 462.35 362.387 466.55 364.687 Z M 474.95 405.387 C 475.95 405.787 475.85 406.687 474.65 409.187 C 472.55 413.487 468.15 416.987 463.95 417.687 C 461.15 418.087 459.95 417.687 457.05 415.087 C 452.95 411.487 450.25 406.187 452.05 405.087 C 453.25 404.387 472.95 404.687 474.95 405.387 Z" id="path2" style="fill: rgb(255, 255, 255);"/>
  <path d="M 283.95 404.387 C 280.75 407.287 279.85 410.687 280.55 416.187 C 281.65 424.487 287.15 428.187 291.65 423.687 C 294.95 420.387 296.35 408.287 293.85 404.487 C 291.75 401.187 287.45 401.187 283.95 404.387 Z" id="path4" style="fill: rgb(255, 255, 255);"/>
  <path d="M 448.45 377.687 C 445.55 379.587 444.25 381.087 444.25 382.687 C 444.25 384.887 444.65 384.987 451.15 384.987 C 454.95 384.987 459.25 385.287 460.85 385.587 C 467.45 386.887 469.35 380.287 463.35 376.687 C 459.05 374.187 453.35 374.487 448.45 377.687 Z" id="path6" style="fill: rgb(255, 255, 255);"/>
  <path d="M 576.25 324.987 C 575.45 325.387 571.75 327.187 568.05 328.887 C 561.85 331.787 555.25 337.787 555.25 340.487 C 555.25 340.987 553.75 342.487 551.85 343.687 C 550.05 344.887 547.25 347.987 545.65 350.687 C 543.05 354.987 542.75 356.387 542.75 363.987 C 542.75 373.487 545.15 380.587 550.35 386.987 C 551.95 388.887 553.25 390.787 553.25 391.187 C 553.25 391.687 551.75 393.287 550.05 394.887 L 546.75 397.787 L 546.45 410.687 C 545.95 428.687 547.75 435.487 554.05 438.887 C 555.35 439.587 563.15 440.287 573.05 440.687 C 587.05 441.187 590.65 440.987 595.65 439.587 C 601.35 437.887 608.45 434.087 609.75 431.987 C 610.05 431.487 611.65 430.987 613.35 430.987 C 621.25 430.987 626.55 423.487 628.25 409.887 C 630.15 393.987 626.85 383.387 617.75 376.387 C 613.55 373.187 613.35 372.187 617.05 371.387 C 621.15 370.287 623.95 368.187 625.05 365.187 C 625.65 363.687 626.25 356.087 626.55 348.287 C 626.95 331.187 627.35 331.687 613.35 327.087 C 604.65 324.187 602.85 323.987 590.85 324.087 C 583.65 324.087 577.05 324.487 576.25 324.987 Z M 605.25 332.387 C 609.35 333.087 613.95 334.287 615.55 334.987 L 618.25 336.287 L 618.25 349.987 C 618.25 363.887 617.75 365.987 614.15 365.987 C 613.05 365.987 612.35 364.887 611.95 362.487 C 610.65 354.387 600.75 345.687 591.55 344.487 C 582.75 343.387 578.55 344.587 575.15 349.187 C 573.35 351.787 572.25 354.487 572.25 356.587 C 572.25 359.587 572.75 360.187 576.75 362.087 C 579.25 363.287 581.55 364.587 581.85 365.087 C 582.15 365.587 583.25 365.987 584.25 365.987 C 585.35 365.987 588.45 367.287 591.25 368.987 C 594.05 370.587 596.65 371.987 597.05 371.987 C 598.15 371.987 604.05 375.187 609.55 378.687 C 614.55 381.987 616.95 384.587 619.65 389.687 C 621.95 394.187 621.85 411.487 619.55 418.087 C 617.75 423.187 616.35 424.087 614.25 421.487 C 612.15 418.987 608.95 420.087 606.85 423.987 C 604.55 428.287 600.05 431.387 593.65 432.987 C 587.25 434.587 557.55 433.087 556.35 431.087 C 555.35 429.487 553.85 398.387 554.75 396.987 C 555.85 395.187 559.15 395.887 560.65 398.187 C 561.35 399.487 562.55 403.487 563.25 407.287 C 564.35 413.387 564.85 414.387 569.25 418.287 C 577.85 426.087 585.65 426.387 593.95 419.387 C 597.55 416.287 597.75 415.887 597.75 409.987 C 597.75 403.987 597.65 403.587 593.85 400.387 C 591.75 398.587 587.85 396.087 585.35 394.987 C 582.85 393.787 579.45 392.187 577.95 391.487 C 576.35 390.687 574.45 389.987 573.75 389.987 C 572.95 389.987 570.65 389.287 568.55 388.387 C 556.55 383.187 554.25 380.987 551.85 372.587 C 549.85 365.787 549.85 359.287 551.75 354.587 C 553.15 351.287 553.65 350.987 557.25 350.987 C 560.95 350.987 561.25 350.787 561.25 348.187 C 561.25 344.087 566.05 337.687 571.25 334.887 C 578.15 331.187 592.75 330.087 605.25 332.387 Z M 596.25 353.387 C 600.85 356.487 605.25 364.387 603.45 366.187 C 602.35 367.287 601.35 366.987 597.95 365.187 C 595.65 363.887 591.15 361.387 588.05 359.687 C 582.85 356.787 580.55 353.887 581.85 351.787 C 582.15 351.387 584.75 350.987 587.55 350.987 C 591.45 350.987 593.65 351.587 596.25 353.387 Z M 577.15 398.687 C 585.35 402.787 591.25 407.987 591.25 410.887 C 591.25 413.587 585.65 417.987 582.25 417.987 C 577.95 417.987 570.25 409.887 570.25 405.287 C 570.25 404.287 569.55 402.187 568.75 400.587 C 567.25 397.687 567.35 394.987 568.95 394.987 C 569.35 394.987 573.15 396.687 577.15 398.687 Z" id="path8" style="fill: rgb(255, 255, 255);"/>
  <path d="M 655.55 339.987 C 650.05 343.087 646.85 346.887 645.65 351.387 C 645.25 353.087 642.95 355.687 639.85 357.987 C 633.45 362.787 628.25 369.887 628.25 373.587 C 628.25 375.087 629.45 377.887 630.95 379.887 L 633.75 383.487 L 633.95 405.287 C 634.25 428.787 634.45 430.087 639.95 435.087 C 644.55 439.487 648.85 441.087 655.05 440.987 C 658.15 440.887 663.45 441.187 666.75 441.487 C 677.55 442.787 688.15 437.487 694.35 427.787 L 697.55 422.787 L 700.15 426.187 C 705.75 433.387 710.25 436.087 717.25 436.487 C 718.05 436.487 720.55 437.487 722.85 438.687 C 727.85 441.387 738.75 442.887 745.25 441.887 C 747.95 441.487 752.05 439.987 754.45 438.687 C 756.85 437.287 760.85 435.887 763.35 435.587 C 767.15 434.987 768.85 433.987 772.55 430.287 C 789.65 412.987 789.75 385.387 772.75 366.187 C 768.65 361.587 766.95 360.787 763.65 361.987 C 761.25 362.887 760.55 362.687 757.85 360.087 C 752.85 355.387 749.05 353.987 741.45 353.987 C 734.55 353.987 726.05 356.087 723.25 358.587 C 722.45 359.287 719.75 360.287 717.45 360.887 C 706.25 363.387 696.05 375.587 692.85 390.487 C 691.95 394.287 691.35 398.187 691.45 398.987 C 691.85 403.287 691.05 404.787 688.05 406.087 C 686.25 406.787 682.85 409.187 680.55 411.287 C 677.65 413.887 675.65 414.987 674.05 414.787 C 671.75 414.487 671.75 414.387 671.95 401.087 C 672.05 385.987 672.25 385.687 679.35 384.487 C 684.25 383.687 692.25 376.587 695.15 370.687 C 696.35 368.287 697.25 364.487 697.25 362.287 C 697.25 358.887 696.65 357.687 694.15 355.587 C 690.25 352.287 686.35 352.287 680.35 355.687 C 673.65 359.387 672.25 358.587 672.25 350.687 C 672.25 344.887 671.95 344.087 668.85 340.687 C 664.75 336.187 662.45 336.087 655.55 339.987 Z M 665.15 349.187 C 665.75 350.887 665.95 354.587 665.65 357.487 C 665.05 362.187 665.25 362.887 667.35 364.387 C 671.55 367.287 678.05 365.987 685.35 360.787 C 687.45 359.287 690.25 360.387 690.25 362.787 C 690.25 363.887 689.35 366.787 688.25 369.287 C 685.45 375.587 680.85 378.287 672.75 378.387 C 662.95 378.587 663.15 377.987 663.45 400.887 L 663.75 420.487 L 667.75 421.787 C 673.35 423.587 680.45 421.287 685.25 415.987 C 688.15 412.787 689.15 412.287 691.05 412.987 C 695.75 414.887 692.45 422.387 683.35 430.487 C 678.45 434.887 677.65 435.187 671.45 435.287 C 667.45 435.387 664.75 434.887 662.45 433.487 C 659.25 431.587 659.05 431.587 656.15 433.287 C 651.85 435.687 650.95 435.487 646.35 430.887 L 642.25 426.787 L 642.05 412.587 C 641.95 404.887 641.75 394.387 641.75 389.287 C 641.65 380.487 641.45 379.987 638.95 377.987 C 634.85 374.687 635.35 370.887 640.45 365.887 C 644.15 362.287 645.05 361.887 648.05 362.487 C 652.45 363.287 654.25 361.687 654.25 356.787 C 654.25 353.587 654.95 352.087 657.85 348.987 C 661.95 344.687 663.65 344.687 665.15 349.187 Z M 748.05 361.887 C 752.05 363.887 754.95 366.687 756.65 370.187 C 758.25 373.387 760.95 373.587 763.85 370.887 C 766.25 368.587 766.35 368.587 768.25 370.587 C 769.25 371.587 771.85 375.887 773.95 379.987 C 777.65 387.387 777.65 387.687 777.75 398.987 C 777.75 409.087 777.45 410.987 775.45 414.487 C 770.85 422.587 767.65 426.487 765.65 426.187 C 760.65 425.487 759.05 425.987 754.65 429.887 C 749.15 434.687 744.25 436.287 737.05 435.487 C 729.95 434.687 724.95 432.387 722.35 428.887 C 720.05 425.687 715.85 424.987 714.85 427.487 C 713.85 430.287 711.35 428.987 707.35 423.787 C 701.85 416.387 699.45 409.887 699.35 401.487 C 699.15 385.487 708.35 368.987 717.55 368.987 C 718.85 368.987 721.75 367.687 723.85 366.187 C 732.35 360.087 741.45 358.487 748.05 361.887 Z" id="path10" style="fill: rgb(255, 255, 255);"/>
  <path d="M 735.35 374.687 C 731.95 375.387 727.25 379.887 725.15 384.487 C 722.55 390.087 722.65 401.187 725.25 409.787 C 727.75 417.687 728.65 419.087 732.95 421.287 C 736.85 423.387 739.05 423.387 743.35 421.587 C 751.15 418.287 753.45 412.987 753.35 397.987 C 753.35 385.487 752.75 383.187 747.95 377.687 C 745.45 374.787 740.55 373.587 735.35 374.687 Z M 743.55 384.187 C 744.35 385.987 745.35 391.187 745.75 395.687 C 746.55 405.187 745.15 412.887 742.15 415.587 C 740.35 417.287 740.15 417.187 737.75 414.987 C 732.15 409.787 730.05 391.187 734.35 384.387 C 737.25 379.687 741.35 379.587 743.55 384.187 Z" id="path12" style="fill: rgb(255, 255, 255);"/>
  <path d="M 848.75 356.387 C 845.55 358.087 843.35 358.587 842.35 358.087 C 841.45 357.587 829.25 356.887 815.15 356.487 C 791.85 355.787 789.25 355.887 785.85 357.487 C 777.45 361.487 777.25 367.687 785.25 375.087 L 790.25 379.687 L 790.25 396.587 C 790.25 405.887 789.85 415.187 789.35 417.287 C 788.85 419.487 786.75 422.987 784.35 425.487 C 779.05 431.187 778.75 435.587 783.35 439.387 L 786.45 441.987 L 809.75 441.987 C 822.65 441.987 834.25 441.587 835.65 440.987 C 837.05 440.487 839.35 438.187 840.85 435.987 C 843.35 432.287 843.45 431.687 842.15 429.287 C 841.35 427.787 838.65 424.987 836.05 423.087 C 830.35 418.687 829.45 416.187 829.05 403.987 C 828.75 394.987 828.85 394.487 830.75 394.787 C 841.35 396.287 840.85 396.387 846.75 392.487 C 851.55 389.187 856.75 383.087 858.65 378.487 C 859.45 376.287 862.95 380.087 868.95 389.587 C 872.45 394.987 875.75 400.387 876.25 401.487 C 876.85 402.587 877.85 404.387 878.55 405.487 C 883.65 413.887 884.85 415.787 886.05 417.487 C 886.65 418.587 887.55 420.187 887.95 420.987 C 888.25 421.787 889.85 424.087 891.45 426.087 C 892.95 428.087 894.25 430.687 894.25 431.787 C 894.25 433.987 887.45 450.587 881.45 462.987 C 879.65 466.587 878.75 470.087 878.75 473.287 C 878.75 477.287 879.15 478.387 881.75 480.487 C 883.45 481.787 886.05 482.887 887.75 482.987 C 892.65 482.987 910.35 480.087 915.75 478.387 C 922.35 476.187 924.25 474.387 924.25 470.287 C 924.25 466.787 920.85 458.987 919.35 458.987 C 918.85 458.987 917.35 458.087 915.85 456.887 C 913.85 455.387 913.45 454.487 914.25 453.487 C 915.55 451.987 927.25 428.287 927.25 427.287 C 927.25 426.087 931.95 416.187 941.05 397.987 C 948.65 382.787 953.05 375.987 955.25 375.987 C 956.95 375.987 961.25 368.487 961.25 365.687 C 961.25 363.887 960.15 361.787 958.25 359.887 L 955.35 356.887 L 941.05 356.887 C 933.15 356.887 925.05 356.787 923.05 356.687 C 918.85 356.587 915.15 359.287 913.25 363.987 C 912.25 366.287 912.35 367.487 913.75 370.487 C 914.75 372.387 916.45 374.487 917.45 375.087 C 919.25 376.087 919.35 376.787 918.85 381.087 C 917.95 387.387 916.25 391.187 914.55 390.787 C 913.75 390.587 911.55 387.487 909.55 383.787 C 906.05 377.087 906.05 376.987 907.65 373.587 C 908.55 371.687 909.25 368.487 909.25 366.487 C 909.25 362.287 906.55 357.087 904.25 356.787 C 903.45 356.787 893.75 356.787 882.75 356.987 C 866.15 357.187 862.05 356.987 858.85 355.587 C 854.05 353.587 854.45 353.487 848.75 356.387 Z M 901.05 364.187 C 901.65 364.787 902.25 366.487 902.25 368.087 C 902.25 370.287 901.55 371.287 899.75 372.187 C 896.65 373.587 896.65 375.487 899.75 381.087 C 901.05 383.487 902.65 386.387 903.25 387.487 C 903.85 388.587 905.15 390.787 906.25 392.487 C 907.35 394.087 909.35 397.787 910.75 400.687 C 912.15 403.487 914.15 405.987 915.05 406.187 C 917.75 406.787 921.35 403.987 920.75 401.887 C 920.05 399.887 920.85 397.087 924.65 386.487 C 928.25 376.487 928.15 373.687 923.65 371.087 C 920.75 369.387 920.15 368.487 920.45 366.187 L 920.75 363.487 L 936.05 363.387 C 949.65 363.387 951.45 363.587 952.35 365.087 C 953.65 367.687 953.75 367.587 947.95 373.387 C 943.55 377.687 940.95 381.987 933.55 397.087 C 928.55 407.187 923.45 417.687 922.25 420.487 C 917.15 431.987 914.85 436.987 910.15 446.587 C 907.45 452.087 905.25 457.587 905.25 458.687 C 905.25 460.787 907.05 461.987 910.15 461.987 C 912.75 461.987 915.45 465.387 915.05 468.087 C 914.75 470.087 913.85 470.587 907.75 471.687 C 888.45 475.187 888.25 475.187 886.65 473.887 C 884.85 472.387 885.25 470.887 890.25 460.487 C 892.35 456.087 895.55 448.887 897.35 444.487 C 899.15 440.087 901.15 435.787 901.95 434.887 C 903.95 432.487 903.55 430.587 899.45 424.287 C 897.25 421.087 894.95 417.287 894.15 415.687 C 887.85 403.387 866.55 371.187 864.25 370.487 C 863.15 370.187 860.75 370.187 858.75 370.587 C 855.75 371.087 854.15 372.487 849.25 378.987 C 841.65 388.987 838.05 389.987 828.15 384.787 C 825.75 383.587 823.55 383.087 821.85 383.587 C 818.95 384.287 818.75 385.387 820.65 388.887 C 821.55 390.587 821.85 394.487 821.45 403.387 C 820.95 418.287 821.85 421.187 829.25 426.687 C 833.25 429.687 834.25 430.987 834.05 432.987 L 833.75 435.487 L 811.95 435.487 C 792.45 435.487 789.95 435.287 789.15 433.787 C 787.85 431.487 789.65 427.487 792.75 425.387 C 794.15 424.487 795.75 422.787 796.35 421.787 C 796.95 420.587 797.45 410.987 797.45 397.687 L 797.45 375.487 L 793.05 373.387 C 788.45 371.087 785.55 367.187 786.55 364.587 C 787.45 362.287 818.75 362.187 819.65 364.487 C 820.35 366.487 824.35 366.387 828.05 364.287 C 830.95 362.587 831.25 362.587 834.75 364.287 C 839.55 366.587 848.45 366.587 850.55 364.187 C 851.95 362.687 854.25 362.487 875.95 362.787 C 890.25 362.987 900.25 363.587 901.05 364.187 Z" id="path14" style="fill: rgb(255, 255, 255);"/>
</svg>