<?xml version="1.0" encoding="utf-8"?>
<svg viewBox="0 0 213.5 29" xmlns="http://www.w3.org/2000/svg">
  <path d="M 153.743 12.732 L 147.988 12.732 C 148.303 13.751 148.382 14.182 148.382 14.966 C 148.382 15.356 148.356 15.789 148.329 16.181 L 147.725 22.333 L 146.595 22.333 C 145.964 22.333 145.781 22.097 145.781 21.313 C 145.781 21.157 145.807 20.96 145.807 20.726 L 146.858 9.676 C 146.911 8.892 146.963 8.461 146.989 8.265 C 147.042 7.991 147.2 7.678 147.383 7.481 C 147.638 7.218 147.941 7.081 148.251 7.091 L 151.693 7.091 C 152.376 7.091 153.216 7.169 153.48 7.286 C 153.637 7.403 153.874 7.56 154.189 7.795 L 154.846 0.781 L 145.728 0.781 C 145.018 0.781 144.598 0.82 144.44 0.82 C 143.967 0.9 143.547 1.212 143.179 1.76 C 142.575 2.583 142.286 3.72 142.102 5.445 L 140.394 23.586 C 140.315 24.487 140.263 25.31 140.263 25.977 C 140.263 28.092 140.946 29.033 142.496 29.033 L 149.88 29.033 C 150.615 29.033 151.483 28.327 151.929 27.309 C 152.428 26.25 152.507 25.819 152.744 23.155 L 153.743 12.732 Z M 164.147 29.033 L 164.751 22.684 L 159.732 22.684 L 160.153 18.179 L 165.198 18.179 L 165.776 11.792 L 160.758 11.792 L 161.204 7.011 L 166.275 7.011 L 166.827 0.781 L 159.995 0.781 C 158.497 0.781 157.972 1.017 157.342 2.191 C 156.684 3.25 156.264 4.895 156.08 6.777 L 154.53 23.234 C 154.478 23.713 154.451 24.198 154.451 24.683 C 154.451 27.622 155.423 29.033 157.394 29.033 L 164.147 29.033 Z M 165.986 29.033 L 171.109 29.033 L 172.975 9.559 C 173.08 8.109 173.501 7.403 174.184 7.403 C 174.709 7.403 175.051 7.912 175.051 8.618 C 175.051 8.814 175.025 9.127 174.972 9.48 L 173.133 29.033 L 178.283 29.033 L 180.49 5.601 C 180.542 4.817 180.621 3.955 180.621 3.564 C 180.621 1.879 179.807 0.781 178.572 0.781 L 176.47 0.781 C 175.76 0.781 175.103 1.135 174.604 1.76 C 174.131 2.388 173.868 2.936 173.395 4.425 C 173.448 3.485 173.474 3.015 173.474 2.544 C 173.474 1.996 173.448 1.643 173.343 0.781 L 168.061 0.781 C 168.219 2.349 168.271 2.975 168.271 3.838 C 168.271 4.387 168.245 5.053 168.166 5.876 L 165.986 29.033 Z M 180.068 29.033 L 185.166 29.033 L 187.846 0.781 L 182.696 0.781 L 180.068 29.033 Z M 201.904 0.781 L 196.806 0.781 L 194.887 20.805 C 194.756 22.334 194.73 22.451 194.336 22.804 C 194.126 22.96 193.915 23.078 193.679 23.078 C 193.101 23.078 192.733 22.647 192.733 21.942 C 192.733 21.784 192.759 21.432 192.838 21.002 L 194.73 0.782 L 189.579 0.782 L 187.294 25.389 C 187.241 25.939 187.188 26.525 187.188 26.879 C 187.188 28.485 187.661 29.034 189.08 29.034 L 197.121 29.034 C 198.856 29.034 199.328 28.329 199.617 25.389 L 201.904 0.781 Z M 200.747 29.033 L 207.973 29.033 C 209.103 29.033 209.654 28.719 210.258 27.896 C 210.916 26.956 210.994 26.564 211.231 24.213 L 212.124 14.809 C 212.177 14.417 212.177 13.986 212.177 13.594 C 212.177 11.948 211.52 11.125 210.18 11.125 L 207.552 11.125 L 207.973 7.011 L 212.886 7.011 L 213.464 0.781 L 207.001 0.781 C 205.477 0.781 205.188 0.9 204.425 1.565 C 203.479 2.544 203.19 3.406 202.901 6.621 L 202.297 12.812 C 202.245 13.475 202.219 14.142 202.218 14.809 C 202.218 17.239 202.849 18.257 204.32 18.257 L 206.632 18.257 L 206.238 22.606 L 201.377 22.606 L 200.747 29.033 Z M 7.646 28.291 L 8.277 21.55 L 6.332 21.55 C 5.833 21.55 5.544 21.159 5.544 20.414 C 5.544 20.336 5.544 20.257 5.57 20.14 L 6.674 8.228 C 6.753 7.287 7.121 6.817 7.752 6.817 L 9.696 6.817 L 10.326 0.04 L 5.465 0.04 C 4.02 0.04 3.81 0.156 3.153 1.057 C 2.417 2.077 1.865 3.682 1.734 5.329 L 0.052 23.04 C 0.026 23.352 0 23.666 0 24.019 C 0 25.312 0.262 26.566 0.683 27.271 C 1.13 28.133 1.524 28.289 2.812 28.289 L 7.646 28.291 Z M 13.821 28.291 L 15.134 28.291 C 17.972 28.291 18.76 27.937 20.074 26.214 C 20.694 25.373 21.187 24.344 21.519 23.196 C 21.861 21.981 22.176 20.101 22.387 17.867 L 23.069 10.697 C 23.385 7.406 23.438 6.856 23.438 6.034 C 23.438 3.918 23.017 2.077 22.308 1.215 C 21.703 0.47 20.573 0.039 19.049 0.039 L 16.553 0.039 C 14.056 0.039 12.454 1.136 11.718 3.409 C 11.193 5.015 10.85 7.092 10.509 10.697 L 9.826 17.867 C 9.721 19.199 9.616 20.532 9.616 21.394 C 9.616 25.743 11.193 28.289 13.821 28.289 L 13.821 28.291 Z M 16.789 21.002 C 16.632 21.628 16.185 22.137 15.738 22.137 C 15.213 22.137 14.871 21.628 14.871 20.924 C 14.871 20.649 14.897 20.257 14.976 19.709 L 16.106 7.562 C 16.237 6.113 16.553 5.603 17.315 5.603 C 17.867 5.603 18.156 5.955 18.156 6.778 C 18.156 7.014 18.13 7.287 18.103 7.562 L 16.947 19.709 C 16.911 20.144 16.858 20.576 16.789 21.003 L 16.789 21.002 Z M 23.173 28.291 L 28.297 28.291 L 30.189 8.502 C 30.295 7.171 30.688 6.465 31.372 6.465 C 32.029 6.465 32.318 6.936 32.318 7.954 C 32.318 8.11 32.292 8.345 32.292 8.503 L 30.4 28.289 L 35.524 28.289 L 37.39 8.385 C 37.521 7.17 37.968 6.386 38.625 6.386 C 39.176 6.386 39.492 6.856 39.492 7.68 C 39.492 7.876 39.466 8.071 39.466 8.307 L 37.521 28.289 L 42.618 28.289 L 44.852 4.78 C 44.931 3.957 44.957 3.29 44.957 2.704 C 44.957 0.979 44.3 0 43.144 0 L 40.7 0.039 C 39.99 0.078 39.334 0.509 38.966 1.174 C 38.756 1.528 38.572 1.999 38.362 2.586 C 38.283 2.859 38.125 3.251 37.968 3.761 C 37.968 1.999 37.915 1.567 37.652 0.979 C 37.468 0.47 36.891 0.039 36.338 0.039 L 33.264 0.039 C 32.344 0.039 31.792 0.705 30.951 2.978 L 30.452 4.271 C 30.557 3.212 30.584 2.742 30.584 2.155 C 30.584 1.488 30.557 1.057 30.453 0.039 L 25.249 0.039 C 25.407 1.685 25.46 2.233 25.46 3.095 C 25.46 3.645 25.407 4.349 25.355 5.171 L 23.173 28.291 Z M 44.431 28.291 L 49.555 28.291 L 51.446 8.502 C 51.552 7.171 51.946 6.465 52.629 6.465 C 53.286 6.465 53.575 6.936 53.575 7.954 C 53.575 8.11 53.548 8.345 53.548 8.503 L 51.657 28.289 L 56.781 28.289 L 58.646 8.385 C 58.777 7.17 59.224 6.386 59.882 6.386 C 60.433 6.386 60.748 6.856 60.748 7.68 C 60.748 7.876 60.722 8.071 60.722 8.307 L 58.778 28.289 L 63.876 28.289 L 66.109 4.78 C 66.188 3.957 66.214 3.29 66.214 2.704 C 66.214 0.979 65.557 0 64.401 0 L 61.957 0.039 C 61.248 0.078 60.591 0.509 60.223 1.174 C 60.013 1.528 59.829 1.999 59.619 2.586 C 59.539 2.859 59.381 3.251 59.224 3.761 C 59.224 1.999 59.172 1.567 58.909 0.979 C 58.726 0.47 58.147 0.039 57.595 0.039 L 54.521 0.039 C 53.602 0.039 53.05 0.705 52.209 2.978 L 51.709 4.271 C 51.815 3.212 51.84 2.742 51.84 2.155 C 51.84 1.488 51.815 1.057 51.709 0.039 L 46.507 0.039 C 46.664 1.685 46.717 2.233 46.717 3.095 C 46.717 3.645 46.664 4.349 46.611 5.171 L 44.431 28.291 Z M 65.688 28.291 L 70.759 28.291 L 71.363 22.1 L 73.386 22.1 L 72.808 28.291 L 77.906 28.291 L 80.192 4.153 C 80.219 3.682 80.245 3.212 80.245 2.781 C 80.245 1.096 79.483 0.039 78.247 0.039 L 70.654 0.039 C 69.971 0.039 69.34 0.392 68.867 1.018 C 68.315 1.724 68.105 2.508 67.947 4.153 L 65.688 28.291 Z M 72.703 7.915 C 72.808 6.661 73.203 5.994 73.834 5.994 C 74.49 5.994 74.753 6.386 74.753 7.445 C 74.753 7.601 74.727 7.757 74.727 7.915 L 73.938 16.104 L 71.941 16.104 L 72.703 7.915 Z M 79.691 28.291 L 84.816 28.291 L 86.681 8.816 C 86.787 7.367 87.207 6.661 87.89 6.661 C 88.416 6.661 88.758 7.17 88.758 7.876 C 88.758 8.071 88.731 8.385 88.679 8.738 L 86.84 28.289 L 91.99 28.289 L 94.197 4.858 C 94.25 4.074 94.328 3.212 94.328 2.82 C 94.328 1.135 93.514 0.039 92.279 0.039 L 90.177 0.039 C 89.467 0.039 88.81 0.392 88.311 1.018 C 87.838 1.646 87.575 2.194 87.102 3.682 C 87.155 2.742 87.181 2.272 87.181 1.802 C 87.181 1.252 87.155 0.901 87.05 0.039 L 81.768 0.039 C 81.925 1.607 81.978 2.233 81.978 3.095 C 81.978 3.645 81.951 4.31 81.873 5.133 L 79.691 28.291 Z M 93.776 28.291 L 103.156 28.291 C 104.996 28.291 106.152 26.331 106.493 22.765 L 108.123 5.603 C 108.175 4.937 108.202 4.309 108.202 3.761 C 108.202 1.489 107.282 0.039 105.784 0.039 L 96.403 0.039 L 93.776 28.291 Z M 100.949 6.269 L 101.842 6.269 C 102.42 6.269 102.735 6.818 102.735 7.837 C 102.735 8.032 102.735 8.228 102.709 8.423 L 101.658 19.63 C 101.5 21.433 101.211 21.942 100.397 21.942 L 99.478 21.942 L 100.949 6.269 Z M 117.897 28.291 L 118.501 21.942 L 113.482 21.942 L 113.902 17.436 L 118.947 17.436 L 119.525 11.05 L 114.506 11.05 L 114.954 6.269 L 120.025 6.269 L 120.577 0.039 L 113.745 0.039 C 112.246 0.039 111.722 0.274 111.092 1.449 C 110.434 2.508 110.013 4.153 109.83 6.034 L 108.279 22.49 C 108.227 22.97 108.2 23.455 108.2 23.941 C 108.2 26.879 109.173 28.289 111.143 28.289 L 117.897 28.291 Z M 119.735 28.291 L 124.833 28.291 L 125.831 17.711 L 126.593 17.711 C 127.329 17.711 127.618 18.062 127.618 19.121 L 127.618 19.435 L 127.066 25.312 C 127.04 25.625 127.04 25.9 127.04 26.214 C 127.04 27.193 127.066 27.545 127.302 28.289 L 132.768 28.289 C 132.427 27.232 132.348 26.801 132.348 26.174 C 132.348 25.861 132.374 25.508 132.427 24.999 L 133.005 18.886 C 133.031 18.415 133.057 17.945 133.057 17.514 C 133.057 15.438 132.296 14.38 130.404 13.949 C 131.638 13.636 132.165 13.361 132.637 12.735 C 133.268 11.912 133.714 10.54 133.846 8.815 L 134.24 4.78 C 134.266 4.545 134.266 4.231 134.266 3.957 C 134.266 2.781 134.055 1.841 133.635 1.175 C 133.083 0.274 132.531 0.04 131.007 0.04 L 122.362 0.04 L 119.735 28.291 Z M 126.961 6.152 L 127.461 6.152 C 128.327 6.152 128.695 6.542 128.695 7.483 C 128.695 8.149 128.564 9.482 128.38 10.187 C 128.222 10.971 127.828 11.245 127.066 11.245 L 126.488 11.245 L 126.961 6.152 Z" style="stroke: none; fill: rgb(255, 255, 255);"/>
</svg>