<?xml version="1.0" encoding="utf-8"?>
<svg id="Ebene_1" enable-background="new 0 0 566.929 87.964" height="70.468" viewBox="0 0 343.64012 70.467654" width="343.64" version="1.1" y="0px" x="0px" xmlns="http://www.w3.org/2000/svg">
  <path id="path3999-4" d="M 273.133 70.468 L 301.309 70.468 L 343.64 0 L 315.474 0 L 273.131 70.468" style="fill: rgb(255, 255, 255);"/>
  <path id="path3912-8" stroke-linejoin="miter" d="M 110.587 19.225 L 110.587 57.623 L 133.626 57.623 C 140.793 56.448 144.892 52.433 146.451 46.104 C 146.465 40.98 146.453 35.869 146.451 30.745 C 144.892 24.416 140.793 20.401 133.626 19.226 L 110.587 19.226 Z M 119.598 26.93 L 129.812 26.93 C 133.02 27.499 136.064 28.505 137.517 33.33 L 137.492 43.569 C 136.026 48.387 132.994 49.4 129.786 49.969 L 119.572 49.969 L 119.598 26.93 Z" stroke-linecap="butt" stroke-width="1.11043465000000000px" style="fill: rgb(255, 255, 255);"/>
  <path id="path3896" stroke-linejoin="miter" d="M 11.993 57.631 L 11.993 28.202 L 0.466 28.202 L 0.463 19.245 L 36.325 19.245 L 32.481 28.202 L 23.516 28.206 L 23.516 57.631 L 11.993 57.631" stroke-linecap="butt" stroke-width="1.11043465000000000px" style="fill: rgb(255, 255, 255);"/>
  <path id="path3900" stroke-linejoin="miter" d="M 40.164 19.25 L 26.085 57.623 L 37.63 57.623 L 42.084 43.57 L 46.564 49.969 L 54.244 49.969 L 56.803 57.623 L 68.426 57.623 L 54.244 19.251 L 40.165 19.251 Z M 47.153 29.464 L 51.684 41.01 L 42.724 41.01 L 47.152 29.464 Z" stroke-linecap="butt" stroke-width="1.11043465000000000px" style="fill: rgb(255, 255, 255);"/>
  <path id="path3908" stroke-linejoin="miter" d="M 69.594 57.631 L 69.594 19.245 L 83.704 19.245 L 97.789 47.408 L 97.789 19.245 L 106.754 19.245 L 106.747 57.631 L 92.664 57.631 L 78.577 29.492 L 78.573 57.631 L 69.594 57.631" stroke-linecap="butt" stroke-width="1.11043465000000000px" style="fill: rgb(255, 255, 255);"/>
  <path id="path3991" stroke-linejoin="miter" d="M 156.681 39.74 L 141.325 19.245 L 152.842 19.245 L 161.193 32.022 L 169.504 19.245 L 182.287 19.245 L 166.883 39.676 L 166.911 57.631 L 156.691 57.631 L 156.681 39.74" stroke-linecap="butt" stroke-width="1.11043465000000000px" style="fill: rgb(255, 255, 255);"/>
  <path id="path3999-4-5" d="M 236.148 70.468 L 264.324 70.468 L 306.65 0 L 278.479 0 L 236.145 70.468" style="fill: rgb(255, 255, 255);"/>
  <path id="path3999-4-5-7" d="M 199.155 70.468 L 227.331 70.468 L 269.657 0 L 241.491 0 L 199.148 70.468" style="fill: rgb(255, 255, 255);"/>
  <text id="text4074" style="fill: rgb(255, 255, 255); font-family: &quot;Open Sans Light&quot;; font-size: 40px; white-space: pre;"/>
</svg>