<?xml version="1.0" encoding="utf-8"?>
<svg viewBox="179.918 14.622 1239.185 327.7366" width="1239.185" height="327.7366" xmlns="http://www.w3.org/2000/svg">
  <path id="path274-6" d="M 1034.313 227.497 L 1008.284 272.127 C 1008.202 272.269 1008.051 272.357 1007.887 272.359 L 987.522 272.441 C 987.16 272.447 986.931 272.057 987.111 271.744 L 1023.877 207.76 C 1023.972 207.604 1023.967 207.405 1023.863 207.254 L 987.371 154.281 C 987.164 153.973 987.383 153.558 987.754 153.556 L 1008.804 153.597 C 1008.955 153.594 1009.098 153.666 1009.187 153.789 L 1034.189 189.022 C 1034.374 189.29 1034.771 189.29 1034.955 189.022 L 1059.753 153.83 C 1059.839 153.711 1059.976 153.64 1060.122 153.638 L 1081.637 153.378 C 1082.014 153.369 1082.245 153.79 1082.034 154.103 L 1045.35 207.446 C 1045.246 207.597 1045.241 207.795 1045.337 207.952 L 1081.951 271.58 C 1082.129 271.887 1081.91 272.273 1081.555 272.277 L 1061.367 272.483 C 1061.198 272.485 1061.041 272.396 1060.956 272.25 L 1035.12 227.497 C 1034.941 227.185 1034.491 227.185 1034.313 227.497 Z M 953.246 153.474 L 970.78 153.474 C 971.03 153.474 971.232 153.675 971.232 153.925 L 971.232 271.935 C 971.232 272.185 971.03 272.387 970.78 272.387 L 953.246 272.387 C 952.996 272.387 952.794 272.185 952.794 271.935 L 952.794 153.925 C 952.794 153.675 952.996 153.474 953.246 153.474 Z M 812.271 164.744 C 812.264 165.349 812.985 165.668 813.447 165.264 C 819.903 159.483 827.17 155.001 835.249 151.819 C 835.73 151.629 836.281 151.82 836.549 152.27 L 845.384 167.411 C 846.214 168.834 845.836 169.759 844.249 170.188 C 828.246 174.442 818.686 185.794 813.994 201.304 C 812.809 205.216 812.212 210.464 812.203 217.047 C 812.175 235.302 812.18 253.553 812.216 271.799 C 812.216 272.176 811.91 272.483 811.532 272.483 L 794.504 272.359 C 794.084 272.35 793.875 272.136 793.875 271.717 L 794.011 154.336 C 794.011 153.789 794.285 153.511 794.832 153.501 L 811.587 153.46 C 812.007 153.46 812.216 153.666 812.216 154.076 L 812.271 164.744 Z M 865.996 262.498 C 858.31 255.586 854.261 246.313 853.851 234.678 C 853.833 234.14 854.083 233.807 854.603 233.679 L 871.522 229.371 C 872.078 229.234 872.347 229.453 872.329 230.027 C 871.987 238.808 875.215 248.396 883.641 252.144 C 900.505 259.653 917.78 237.276 904.595 223.421 C 896.826 215.256 884.83 209.757 875.379 203.028 C 848.024 183.578 867.145 141.493 899.794 148.454 C 912.468 151.153 919.991 159.843 922.362 174.524 C 922.781 177.113 922.002 178.782 920.023 179.53 C 915.819 181.116 911.447 182.853 906.906 184.741 C 906.215 185.027 905.458 184.522 905.47 183.784 C 905.689 155.608 873.437 165.524 882.888 184.508 C 885.665 190.103 899.342 196.435 905.237 200.388 C 910.945 204.209 915.167 207.601 917.903 210.564 C 934.822 228.961 928.093 258.586 905.142 269.186 C 891.861 275.314 876.665 272.1 865.996 262.498 Z M 774.425 209.361 C 774.425 245.657 745.001 275.081 708.705 275.081 C 672.408 275.081 642.984 245.657 642.984 209.361 C 642.984 173.064 672.408 143.64 708.705 143.64 C 745.001 143.64 774.425 173.064 774.425 209.361 Z M 717.13 163.513 C 671.283 154.924 643.189 211.891 677.232 243.705 C 696.203 261.458 729.946 258.586 745.401 237.673 C 758.204 220.348 758.919 202.412 747.549 183.866 C 740.915 173.033 729.795 165.88 717.13 163.513 Z M 976.265 128.909 C 976.265 136.78 969.884 143.161 962.013 143.161 C 954.142 143.161 947.761 136.78 947.761 128.909 C 947.761 121.038 954.142 114.657 962.013 114.657 C 969.884 114.657 976.265 121.038 976.265 128.909 Z M 516.07 243.213 C 531.389 253.033 546.694 256.056 564.68 254.428 C 581.831 252.869 596.913 246.199 609.925 234.418 C 610.525 233.873 611.439 233.867 612.045 234.404 L 624.218 245.209 C 624.63 245.568 624.611 246.217 624.177 246.564 C 623.384 247.193 622.176 248.191 620.553 249.559 C 600 266.911 576.949 275.008 551.399 273.85 C 542.126 273.431 533.226 271.648 524.7 268.502 C 495.663 257.806 471.235 232.558 464.451 201.619 C 462.03 190.554 459.759 179.899 461.77 167.959 C 462.718 162.369 463.644 157.65 464.546 153.802 C 471.645 123.479 496.675 97.396 526 87.275 C 560.713 75.279 597.725 85.114 624.574 109.856 C 624.929 110.185 624.929 110.508 624.574 110.827 L 611.908 122.385 C 611.598 122.677 611.279 122.69 610.951 122.426 C 603.501 116.636 597.643 112.592 593.375 110.294 C 547.583 85.592 492.968 112.209 481.78 162.05 C 474.64 193.823 489.234 226.02 516.07 243.213 Z M 1308.561 154.91 L 1374.036 154.746 C 1374.383 154.746 1374.665 154.464 1374.665 154.117 L 1374.733 82.529 C 1374.733 82.181 1375.015 81.899 1375.362 81.899 L 1418.474 82.009 C 1418.822 82.009 1419.103 82.29 1419.103 82.638 L 1418.98 274.247 C 1418.98 274.594 1418.699 274.876 1418.351 274.876 L 1375.335 274.698 C 1374.988 274.698 1374.706 274.417 1374.706 274.069 L 1374.747 193.973 C 1374.747 193.626 1374.465 193.344 1374.118 193.344 L 1308.383 193.385 C 1308.036 193.385 1307.754 193.667 1307.754 194.014 L 1307.754 274.247 C 1307.754 274.594 1307.473 274.876 1307.125 274.876 L 1264.246 274.753 C 1263.899 274.753 1263.617 274.471 1263.617 274.124 L 1263.672 82.734 C 1263.672 82.386 1263.953 82.105 1264.301 82.105 L 1307.152 81.94 C 1307.5 81.94 1307.782 82.222 1307.782 82.57 L 1307.932 154.281 C 1307.932 154.629 1308.214 154.91 1308.561 154.91 Z M 1190.264 120.566 L 1190.237 274.452 C 1190.237 274.686 1190.047 274.876 1189.813 274.876 L 1146.469 274.726 C 1146.234 274.726 1146.045 274.536 1146.045 274.302 L 1145.976 120.47 C 1145.976 120.236 1145.786 120.046 1145.552 120.046 L 1091.457 120.019 C 1091.223 120.019 1091.033 119.829 1091.033 119.595 L 1091.28 82.392 C 1091.28 82.158 1091.469 81.968 1091.704 81.968 L 1245.179 81.968 C 1245.414 81.968 1245.603 82.158 1245.603 82.392 L 1245.521 119.663 C 1245.521 119.897 1245.332 120.087 1245.097 120.087 L 1190.688 120.142 C 1190.454 120.142 1190.264 120.332 1190.264 120.566 Z" style="fill: rgb(255, 255, 255);"/>
  <path id="path4382" style="color: rgb(0, 0, 0); font-style: normal; font-variant: normal; font-weight: normal; font-stretch: normal; font-size: medium; line-height: normal; font-family: Sans; text-indent: 0px; text-align: start; text-decoration: none; letter-spacing: normal; word-spacing: normal; text-transform: none; writing-mode: lr-tb; direction: ltr; baseline-shift: baseline; text-anchor: start; display: inline; overflow: visible; fill-opacity: 1; stroke: none; stroke-width: 2; marker: none; fill: rgb(255, 255, 255);" d="M 325.857 340.343 C 336.994 338.336 343.29 336.177 346.923 333.12 C 350.43 330.169 350.541 329.449 347.892 326.8 C 345.283 324.191 344.451 324.277 343.074 327.3 C 342.447 328.675 341.501 329.8 340.971 329.8 C 339.882 329.8 340.29 326.697 341.713 324.155 C 343.224 321.454 341.581 317.718 333.118 304.61 C 323.391 289.546 310.861 267.803 308.579 262.03 C 306.309 256.285 306.422 249.146 308.856 244.606 C 310.288 241.935 310.491 240.809 309.606 240.45 C 308.938 240.179 310.728 239.922 313.583 239.879 C 316.438 239.836 318.982 239.462 319.236 239.05 C 319.49 238.637 319.985 228.625 320.337 216.8 C 321.053 192.725 321.452 188.8 323.187 188.8 C 323.85 188.8 333.767 194.875 345.226 202.3 C 356.685 209.725 366.43 215.8 366.882 215.8 C 367.334 215.8 375.672 203.38 385.411 188.199 C 400.069 165.353 402.884 160.385 401.755 159.359 C 401.005 158.678 391.285 152.342 380.154 145.281 C 369.024 138.219 360.119 132.239 360.367 131.991 C 360.614 131.744 370.522 137.736 382.385 145.307 C 394.247 152.878 404.239 158.786 404.589 158.436 C 405.409 157.616 407.393 158.999 383.792 143.942 C 372.462 136.714 362.45 130.8 361.542 130.8 C 357.474 130.8 361.293 128.334 381.642 117.822 C 393.604 111.642 403.777 106.226 404.248 105.786 C 404.958 105.124 376.272 49.043 373.915 46.486 C 373.502 46.038 363.37 50.898 351.399 57.285 C 339.428 63.671 330.201 67.967 329.395 68.201 C 328.247 68.535 325.835 70.418 323.519 72.483 C 322.839 73.089 322.608 73.7 321.765 74.49 C 318.031 77.993 314.411 80.388 309.608 82.875 C 303.649 85.961 300.293 87.182 293.827 89.693 C 291.577 90.566 291.328 91.033 291.116 92.915 C 290.189 101.178 289.085 131.362 288.992 153.8 L 288.921 165.764 C 288.921 165.764 291.584 166.649 292.903 167.125 C 301.118 170.091 304.496 181.701 299.711 188.8 C 291.304 201.273 272.269 195.416 272.277 180.314 C 272.28 174.105 275.215 170.018 280.116 167.379 C 281.698 166.527 282.379 166.348 284.055 165.963 L 284.31 132.883 C 284.213 120.122 284.917 106.71 285.193 94.172 C 285.24 92.035 284.951 90.65 283.476 89.544 C 281.31 87.918 277.243 85.832 277.243 85.832 C 272.761 83.339 269.869 81.393 266.964 79.101 C 264.32 77.016 261.604 74.736 259.308 71.618 C 259.003 71.203 258.8 70.036 258.598 69.629 C 257.752 67.924 256.186 65.328 255.706 65.025 C 253.983 63.94 246.392 59.946 235.392 52.855 C 220.195 43.058 215.116 40.242 214.242 41.13 C 212.919 42.476 181.909 93.609 181.598 94.957 C 181.485 95.449 190.617 101.872 201.892 109.232 C 213.167 116.592 222.523 123.257 222.684 124.044 C 222.879 124.999 215.815 129.268 201.436 136.887 C 189.589 143.164 179.906 148.75 179.918 149.3 C 179.968 151.611 208.727 205.325 210.055 205.586 C 210.854 205.744 220.649 201.131 231.822 195.336 C 242.994 189.541 252.793 184.8 253.596 184.8 C 254.858 184.8 254.959 188.191 254.337 209.656 C 253.818 227.551 253.928 234.704 254.73 235.2 C 255.343 235.579 258.04 236.149 260.724 236.466 C 265.073 236.982 265.891 237.487 268.248 241.122 C 272.049 246.985 271.946 255.068 267.963 263.488 C 265.375 268.958 249.699 293.378 237.912 310.3 C 234.625 315.02 233.838 316.94 234.223 319.3 C 234.938 323.681 235.349 325.14 236.291 326.65 C 236.969 327.737 236.734 327.786 235.08 326.901 C 233.951 326.296 232.742 324.902 232.392 323.801 C 231.562 321.186 229.388 321.254 227.496 323.955 C 225.446 326.882 226.68 328.833 232.572 331.981 C 241.301 336.644 255.448 340.072 272.932 341.759 C 285.812 343.002 315.516 342.207 325.857 340.343 Z M 324.629 213.941 C 325.2 197.991 325.095 192.382 324.213 191.65 C 322.598 190.312 322.11 195.003 321.385 218.8 C 320.851 236.34 320.946 238.147 322.329 236.777 C 323.564 235.554 324.017 231.058 324.629 213.941 Z M 405.009 98.031 C 400.931 89.953 377.776 46.39 377.291 45.883 C 373.414 41.835 385.774 67.054 402.613 97.55 C 406.952 105.408 408.933 105.806 405.009 98.031 Z M 305.501 78.095 C 310.585 75.677 315.069 72.922 317.815 70.85 C 318.648 70.221 320.001 69.761 320.7 69.474 C 323.014 68.526 324.869 67.171 325.203 66.153 C 325.884 64.081 326.186 59.55 326.395 51.3 C 326.604 43.05 326.914 32.025 327.084 26.8 L 327.392 17.3 L 321.716 16.69 C 318.595 16.354 303.7 15.752 288.616 15.351 L 261.191 14.622 L 260.55 19.961 C 260.198 22.897 259.867 31.15 259.816 38.3 C 259.765 45.45 259.144 53.931 258.989 57.194 C 258.793 61.307 258.637 63.433 259.092 64.913 C 259.45 66.077 259.952 66.534 261.034 67.464 C 261.595 67.946 262.242 67.941 262.628 68.254 C 266.199 71.147 273.512 77.117 279.736 80.393 C 287.937 84.71 292.007 84.511 305.501 78.095 Z M 253.832 61.399 C 252.078 58.75 220.504 39.8 218.982 39.812 C 218.107 39.822 221.667 42.56 226.892 45.905 C 232.117 49.25 240.442 54.602 245.392 57.798 C 253.667 63.141 256.079 64.789 253.832 61.399 Z M 330.38 50.123 C 331.884 22.269 331.9 16.8 330.473 16.8 C 328.911 16.8 328.357 22.498 327.412 48.293 C 326.913 61.902 327.003 63.086 328.383 61.116 C 329.346 59.74 330.078 55.714 330.38 50.123 Z"/>
</svg>