<?xml version="1.0" encoding="utf-8"?>
<svg version="1.1" viewBox="0 0 3840 1057" xmlns="http://www.w3.org/2000/svg">
  <path d="M 168.39999389648438 658.7000122070312 L 168.39999389648438 658.7000122070312 L 168.39999389648438 1057 L 116.0999984741211 1057 L 116.0999984741211 658.7000122070312 Z" class="st0" style="fill: rgb(255, 255, 255);"/>
  <path d="M 284.5 658.7000122070312 L 284.5 658.7000122070312 L 284.5 1057 L 232.10000610351562 1057 L 232.10000610351562 658.7000122070312 Z" class="st0" style="fill: rgb(255, 255, 255);"/>
  <path d="M 400.6000061035156 658.7000122070312 L 400.6000061035156 658.7000122070312 L 400.6000061035156 1057 L 348.20001220703125 1057 L 348.20001220703125 658.7000122070312 Z" class="st0" style="fill: rgb(255, 255, 255);"/>
  <path d="M 52.400001525878906 658.7000122070312 L 52.400001525878906 658.7000122070312 L 52.400001525878906 1057 L 0 1057 L 0 658.7000122070312 Z" class="st0" style="fill: rgb(255, 255, 255);"/>
  <path d="M 168.39999389648438 658.7000122070312 L 168.39999389648438 658.7000122070312 L 168.39999389648438 1057 L 116.0999984741211 1057 L 116.0999984741211 658.7000122070312 Z" class="st0" style="fill: rgb(255, 255, 255);"/>
  <path d="M 284.5 658.7000122070312 L 284.5 658.7000122070312 L 284.5 1057 L 232.10000610351562 1057 L 232.10000610351562 658.7000122070312 Z" class="st0" style="fill: rgb(255, 255, 255);"/>
  <path d="M 400.6000061035156 658.7000122070312 L 400.6000061035156 658.7000122070312 L 400.6000061035156 1057 L 348.20001220703125 1057 L 348.20001220703125 658.7000122070312 Z" class="st0" style="fill: rgb(255, 255, 255);"/>
  <path d="M 516.5999755859375 658.7000122070312 L 516.5999755859375 658.7000122070312 L 516.5999755859375 1057 L 464.29998779296875 1057 L 464.29998779296875 658.7000122070312 Z" class="st0" style="fill: rgb(255, 255, 255);"/>
  <path d="M 632.7000122070312 658.7000122070312 L 632.7000122070312 658.7000122070312 L 632.7000122070312 1057 L 580.2999877929688 1057 L 580.2999877929688 658.7000122070312 Z" class="st0" style="fill: rgb(255, 255, 255);"/>
  <path d="M 748.7000122070312 658.7000122070312 L 748.7000122070312 658.7000122070312 L 748.7000122070312 1057 L 696.4000244140625 1057 L 696.4000244140625 658.7000122070312 Z" class="st0" style="fill: rgb(255, 255, 255);"/>
  <path d="M 864.7999877929688 658.7000122070312 L 864.7999877929688 658.7000122070312 L 864.7999877929688 1057 L 812.5 1057 L 812.5 658.7000122070312 Z" class="st0" style="fill: rgb(255, 255, 255);"/>
  <path d="M 980.9000244140625 658.7000122070312 L 980.9000244140625 658.7000122070312 L 980.9000244140625 1057 L 928.5 1057 L 928.5 658.7000122070312 Z" class="st0" style="fill: rgb(255, 255, 255);"/>
  <path d="M 1096.9000244140625 658.7000122070312 L 1096.9000244140625 658.7000122070312 L 1096.9000244140625 1057 L 1044.5999755859375 1057 L 1044.5999755859375 658.7000122070312 Z" class="st0" style="fill: rgb(255, 255, 255);"/>
  <path d="M 1213 658.7000122070312 L 1213 658.7000122070312 L 1213 1057 L 1160.5999755859375 1057 L 1160.5999755859375 658.7000122070312 Z" class="st0" style="fill: rgb(255, 255, 255);"/>
  <path d="M 1329.0999755859375 658.7000122070312 L 1329.0999755859375 658.7000122070312 L 1329.0999755859375 1057 L 1276.699951171875 1057 L 1276.699951171875 658.7000122070312 Z" class="st0" style="fill: rgb(255, 255, 255);"/>
  <path d="M 1445.0999755859375 658.7000122070312 L 1445.0999755859375 658.7000122070312 L 1445.0999755859375 1057 L 1392.800048828125 1057 L 1392.800048828125 658.7000122070312 Z" class="st0" style="fill: rgb(255, 255, 255);"/>
  <path d="M 1561.199951171875 658.7000122070312 L 1561.199951171875 658.7000122070312 L 1561.199951171875 1057 L 1508.800048828125 1057 L 1508.800048828125 658.7000122070312 Z" class="st0" style="fill: rgb(255, 255, 255);"/>
  <path d="M 1677.300048828125 658.7000122070312 L 1677.300048828125 658.7000122070312 L 1677.300048828125 1057 L 1624.9000244140625 1057 L 1624.9000244140625 658.7000122070312 Z" class="st0" style="fill: rgb(255, 255, 255);"/>
  <path d="M 1793.300048828125 658.7000122070312 L 1793.300048828125 658.7000122070312 L 1793.300048828125 1057 L 1741 1057 L 1741 658.7000122070312 Z" class="st0" style="fill: rgb(255, 255, 255);"/>
  <path d="M 1909.4000244140625 658.7000122070312 L 1909.4000244140625 658.7000122070312 L 1909.4000244140625 1057 L 1857 1057 L 1857 658.7000122070312 Z" class="st0" style="fill: rgb(255, 255, 255);"/>
  <path class="st1" d="M881.7,265.2c-3.6-33.6-39.8-32.7-65.3-32.7c-13.9,0-42.9,0.5-54.1,10.1c-10.7,9.2-10.7,33.2-10.7,46.1 c0,12.4,0.4,29,9.8,38.3c11.2,11.1,42,12,56.3,12c9.8,0,19.2,0,29.1-1.4c19.7-2.8,31.3-8.8,34.4-30.4h80.5 c-0.9,24.4-2.2,47.9-19.7,66.4c-18.3,19.8-46.5,24-72,25.4c-19.2,0.9-38,1.4-57.2,1.4c-34.4,0-83.6,0.9-113.1-20.3 c-28.6-20.7-27.3-64.1-27.3-95.9c0-31.3-0.4-68.7,25-90.8c27.7-24,85.4-22.1,119.4-22.1s93-1.4,121.2,22.1 c7.6,6.5,12.5,12.9,16.5,22.6c6.7,16.1,7.2,31.8,7.6,49.3h-80.4V265.2z" style="fill: rgb(255, 255, 255);"/>
  <path class="st1" d="M1284.9,324.2c-1.8,21.2-7.2,40.1-23.2,54.4c-27.3,24.4-91.6,21.7-125.2,21.7c-34.9,0-96.6,3.2-125.2-21.7 c-8-6.9-13-14.3-17-24c-8.9-22.6-7.6-51.2-7.6-75.1c0-12,0-24.4,1.3-36.4c1.8-20.7,9.4-39.2,25.9-52.1 c26.8-21.2,90.8-19.8,122.5-19.8c32.2,0,95.2-1.4,122.5,19.8c7.6,6,12.5,12,17,20.7c11.6,21.2,10.3,48.4,10.3,71.9 C1286.2,297,1285.8,310.8,1284.9,324.2z M1197.3,244.4c-11.6-11.5-45.6-12-60.4-12c-14.3,0-29.1,0.5-42.9,3.2 c-27.7,5.5-28.2,27.7-28.2,52.5c0,12-0.4,28.1,8,37.3c12.1,13.4,46.9,13.4,63,13.4c15.2,0,31.3,0,46-4.1 c24.6-6.9,24.1-30,24.1-52.5C1207.1,269.8,1206.7,253.7,1197.3,244.4z" style="fill: rgb(255, 255, 255);"/>
  <path class="st1" d="M1700.2,394.7V292.8c0-47-4.9-60.4-53.6-60.4c-54.5,0-58.6,22.1-58.6,72.4v89.9h-79.1V292.8v-15.2 c0-39.6-16.5-45.2-52.3-45.2c-56.3,0-59.9,20.7-59.9,72.4v89.9h-79.1v-218h74.7v32.7h3.6c14.8-33.6,54.1-38.3,85.8-38.3 c40.2,0,75.6,6.9,96.1,45.6c16.1-40.6,53.6-45.6,91.6-45.6c30.8,0,65.3,3.7,87.6,28.1c7.6,8.3,13.4,17.1,16.5,28.1 c6.3,21.2,5.8,43.8,5.8,65.5v101.9L1700.2,394.7L1700.2,394.7z" style="fill: rgb(255, 255, 255);"/>
  <path class="st1" d="M2195.9,394.7V292.8c0-47-4.9-60.4-53.6-60.4c-54.5,0-58.6,22.1-58.6,72.4v89.9h-79.1V292.8v-15.2 c0-39.6-16.5-45.2-52.3-45.2c-56.3,0-59.9,20.7-59.9,72.4v89.9h-79.1v-218h74.7v32.7h3.6c14.8-33.6,54.1-38.3,85.8-38.3 c40.2,0,75.6,6.9,96.1,45.6c16.1-40.6,53.6-45.6,91.6-45.6c30.8,0,65.3,3.7,87.6,28.1c7.6,8.3,13.4,17.1,16.5,28.1 c6.3,21.2,5.8,43.8,5.8,65.5v101.9L2195.9,394.7L2195.9,394.7z" style="fill: rgb(255, 255, 255);"/>
  <path class="st1" d="M2602.7,324.2c-1.8,21.2-7.2,40.1-23.2,54.4c-27.3,24.4-91.6,21.7-125.2,21.7c-34.9,0-96.6,3.2-125.2-21.7 c-8-6.9-13-14.3-17-24c-8.9-22.6-7.6-51.2-7.6-75.1c0-12,0-24.4,1.3-36.4c1.8-20.7,9.4-39.2,25.9-52.1 c26.8-21.2,90.8-19.8,122.5-19.8c32.2,0,95.2-1.4,122.5,19.8c7.6,6,12.5,12,17,20.7c11.6,21.2,10.3,48.4,10.3,71.9 C2604,297,2603.6,310.8,2602.7,324.2z M2515.1,244.4c-11.6-11.5-45.6-12-60.4-12c-14.3,0-29.1,0.5-42.9,3.2 c-27.7,5.5-28.2,27.7-28.2,52.5c0,12-0.4,28.1,8,37.3c12.1,13.4,46.9,13.4,63,13.4c15.2,0,31.3,0,46-4.1 c24.6-6.9,24.1-30,24.1-52.5C2524.9,269.8,2524.4,253.7,2515.1,244.4z" style="fill: rgb(255, 255, 255);"/>
  <path class="st1" d="M2853.9,394.7v-28.6h-4c-5.4,9.2-9.4,15.2-18.3,20.7c-19.7,12.4-52.8,13.4-75.1,13.4 c-32.6,0-76.9,0.5-102.8-23c-23.2-21.2-22.8-63.1-22.8-92.6c0-34.1,0.9-75.6,31.3-96.8c26.8-18.4,64.4-16.6,95.2-16.6 c23.2,0,48.7-0.5,69.3,12c10.3,6,13.9,12,19.7,22.6h3.1V87.3h79.1v307.4H2853.9z M2845.8,252.7c-9.4-22.1-43.4-20.3-62.6-20.3 c-19.7,0-59.5-2.3-69.3,20.7c-3.6,9.2-4,21.2-4,30.9c0,12.9-0.4,32.7,8.9,42.9c10.7,12,45.2,12,59.5,12c16.1,0,35.8-0.9,51-6 c21.5-6.9,21-28.1,21-47.9C2850.3,274.9,2849.9,262.4,2845.8,252.7z" style="fill: rgb(255, 255, 255);"/>
  <path class="st1" d="M3258,324.2c-1.8,21.2-7.2,40.1-23.2,54.4c-27.3,24.4-91.6,21.7-125.2,21.7c-34.9,0-96.6,3.2-125.2-21.7 c-8-6.9-13-14.3-17-24c-8.9-22.6-7.6-51.2-7.6-75.1c0-12,0-24.4,1.3-36.4c1.8-20.7,9.4-39.2,25.9-52.1 c26.8-21.2,90.8-19.8,122.5-19.8c32.2,0,95.2-1.4,122.5,19.8c7.6,6,12.5,12,17,20.7c11.6,21.2,10.3,48.4,10.3,71.9 C3259.3,297,3258.9,310.8,3258,324.2z M3170.4,244.4c-11.6-11.5-45.6-12-60.4-12c-14.3,0-29.1,0.5-42.9,3.2 c-27.7,5.5-28.2,27.7-28.2,52.5c0,12-0.4,28.1,8,37.3c12.1,13.4,46.9,13.4,63,13.4c15.2,0,31.3,0,46-4.1 c24.6-6.9,24.1-30,24.1-52.5C3180.2,269.8,3179.8,253.7,3170.4,244.4z" style="fill: rgb(255, 255, 255);"/>
  <path class="st1" d="M3535.6,273.5h-74.2c0-32.3-10.3-41-41.6-41c-48.7,0-50.1,31.8-50.1,71.9v90.3h-79.1v-218h74.7v32.7h3.6 c18.3-33.6,47.8-38.3,82.3-38.3c24.6,0,54.1,3.2,70.6,24.4c14.8,18.9,14.3,46.1,14.3,69.1C3536,267.5,3535.6,270.7,3535.6,273.5z" style="fill: rgb(255, 255, 255);"/>
  <path class="st1" d="M3839.6,303.4H3633c0,12.4-0.4,26.7,9.8,35.5c10.7,8.8,40.7,9.2,53.6,9.2s49.2,0.5,57.7-9.2 c3.6-3.7,4.5-8.8,5.4-13.8h78.7c-1.8,20.7-5.8,36.9-21,51.2c-27.3,25.4-92.5,24-127,24c-31.3,0-83.6,0.5-109.5-20.3 c-8-6.5-13.4-13.8-17.9-23c-9.8-21.2-8.9-47.5-8.9-70.1c0-13.8,0-27.7,1.3-41c2.2-22.1,9.4-41.9,27.3-55.3 c27.7-20.7,83.2-19.4,115.8-19.4c30,0,62.6-0.9,91.6,7.8c46.9,14.3,50.1,58.5,50.1,102.3C3840,288.7,3840,296.1,3839.6,303.4z M3760.4,253.7c0-8.3-0.4-14.7-6.3-21.2c-9.4-10.6-41.6-10.6-54.5-10.6c-12.1,0-24.1,0-35.8,1.8c-22.4,3.2-30.4,12-30.8,35h127.4 L3760.4,253.7L3760.4,253.7z" style="fill: rgb(255, 255, 255);"/>
  <path class="st1" d="M2304.2,898.4c-2.2,20.3-8,40.1-23.7,53.5c-22.8,19.8-72,19.8-100.1,19.8c-34.4,0-70.2,0.5-89.9-33.6h-3.6 V1057h-79.1V748.2h74.7v29.5h4c18.3-36.4,62.1-35,97-35c41.6,0,99.2,0,115.8,48.4c6.7,19.8,6.7,46.6,6.7,67.3 C2306,871.7,2305.6,885.1,2304.2,898.4z M2219.8,818.2c-11.2-14.7-44.3-14.3-60.4-14.3c-19.7,0-58.6-2.8-68,20.3 c-4.5,10.1-4.5,24.4-4.5,35.5c0,12,0.4,25.4,7.2,35.5c10.3,15.2,47.4,15.2,63,15.2c15.2,0,32.6-0.5,47.4-4.6 c24.1-6.9,22.4-31.3,22.4-53C2226.9,840.8,2227.4,828.4,2219.8,818.2z" style="fill: rgb(255, 255, 255);"/>
  <path class="st1" d="M2348.9,966.2V658.8h79.1v307.4L2348.9,966.2L2348.9,966.2z" style="fill: rgb(255, 255, 255);"/>
  <path class="st1" d="M2686,966.2v-32.7h-4c-16.5,36.4-56.8,38.3-90.8,38.3c-42.5,0-93-6-110-53c-8-22.6-7.2-47-7.2-71v-99.6h78.7 v99.6c0,53.5,9.8,62.7,62.1,62.7c60.8,0,66.6-16.1,66.6-74.7v-87.6h78.7v218H2686z" style="fill: rgb(255, 255, 255);"/>
  <path class="st1" d="M3077.6,947.8c-24.6,25.4-101.9,24-133.7,24c-34.4,0-95.2,2.8-122.9-22.6c-15.2-13.8-18.3-32.3-18.8-52.5 h80.5c1.8,19.8,21.5,22.1,36.7,23.5c9.8,0.9,19.7,0.9,29.5,0.9c13.9,0,51.4,0.9,62.1-9.2c3.1-2.8,4.5-6.9,4.5-11.1 c0-18-24.6-17.1-36.7-17.1c-14.8,0-29.5-0.5-44.3-0.5c-15.2,0-30.4,0-45.6,0c-47.4,0-84.9-11.5-84.9-67.8 c0-34.6,13.4-57.6,46.9-65.9c30.8-7.4,67.5-6.9,98.8-6.9c33.1,0,90.8-2.3,116.7,19.8c13.9,12,15.6,30,17,47.5h-80.5 c-0.9-4.6-1.8-7.8-5.8-10.6c-8.5-6-40.2-6-50.1-6c-13,0-47.8-0.5-59,7.4c-3.1,2.8-4.9,6-4.9,10.1c0,12,9.4,13.8,18.8,14.7 c20.1,1.8,43.4,1.4,63.5,1.4l44.3,0.5c49.6,0.5,84.5,10.1,84.5,68.2C3094.1,914.1,3091,933.9,3077.6,947.8z" style="fill: rgb(255, 255, 255);"/>
  <path class="st1" d="M3145.5,1032.6h-56.8L3335,592.4h57.2L3145.5,1032.6z" style="fill: rgb(255, 255, 255);"/>
  <path class="st1" d="M129.6,284.4c0-83.1,65.6-150.8,146.2-150.8c25.9,0,50.2,7,71.3,19.2V9.7C324.4,3.4,300.5,0,275.8,0 C123.5,0,0,127.3,0,284.4s123.5,284.4,275.8,284.4c24.7,0,48.6-3.4,71.3-9.7V416c-21.1,12.2-45.4,19.2-71.3,19.2 C195.2,435.2,129.6,367.5,129.6,284.4z" style="fill: rgb(255, 255, 255);"/>
  <path d="M 347.1000061035156 274 L 477.20001220703125 274 L 587.5 160.3000030517578 L 347.1000061035156 160.3000030517578 Z" class="st1" style="fill: rgb(255, 255, 255);"/>
  <path d="M 347.1000061035156 294.79998779296875 L 347.1000061035156 408.5 L 587.5 408.5 L 477.20001220703125 294.79998779296875 Z" class="st1" style="fill: rgb(255, 255, 255);"/>
  <path class="st1" d="M3765.3,983v74h-111.7v-74h-307.9V830.8L3574.9,659h190.4v234.5h74.7V983H3765.3z M3653.6,751.5h-23.7 L3450.5,878v15.5h203.2L3653.6,751.5L3653.6,751.5z" style="fill: rgb(255, 255, 255);"/>
</svg>