<?xml version="1.0" encoding="utf-8"?>
<svg version="1.1" id="Layer_1" x="0px" y="0px" viewBox="0 0 3839 773.36" style="enable-background:new 0 0 3839 773.36;" xmlns="http://www.w3.org/2000/svg">
  <style type="text/css">
	.st0{fill:none;stroke:#000000;stroke-width:54.1005;stroke-miterlimit:10;}
	.st1{fill:none;stroke:#000000;stroke-width:55.7397;stroke-miterlimit:10;}
	.st2{fill:#FFEF00;}
	.st3{fill:url(#SVGID_1_);}
	.st4{fill:#FFFFFF;}
	.st5{fill:url(#SVGID_2_);}
	.st6{fill:url(#SVGID_3_);}
	.st7{fill:url(#SVGID_4_);}
	.st8{fill:url(#SVGID_5_);}
	.st9{fill:url(#SVGID_6_);}
	.st10{fill:url(#SVGID_7_);}
	.st11{fill:url(#SVGID_8_);}
	.st12{fill:url(#SVGID_9_);}
	.st13{fill:url(#SVGID_10_);}
	.st14{fill:url(#SVGID_11_);}
	.st15{fill:url(#SVGID_12_);}
	.st16{fill:url(#SVGID_13_);}
	.st17{fill:url(#SVGID_14_);}
	.st18{fill:url(#SVGID_15_);}
	.st19{fill:url(#SVGID_16_);}
	.st20{fill:url(#SVGID_17_);}
	.st21{fill:url(#SVGID_18_);}
	.st22{fill:url(#SVGID_19_);}
	.st23{fill:url(#SVGID_20_);}
	.st24{fill:url(#SVGID_21_);}
</style>
  <path class="st3" d="M 644.94 535.91 L 644.94 502.8 C 644.94 444.04 597.14 396.24 538.38 396.24 L 492.11 396.24 C 485.33 396.24 479.81 390.72 479.81 383.94 C 479.81 377.16 485.33 371.63 492.11 371.63 L 538.38 371.63 C 597.14 371.63 644.94 323.83 644.94 265.07 C 644.94 206.31 597.14 158.51 538.38 158.51 L 455.92 158.51 C 397.16 158.51 349.35 206.31 349.35 265.07 L 349.35 535.92 C 349.35 544.65 342.25 551.76 333.51 551.76 L 226.72 551.76 C 181.34 551.76 138.34 534.46 105.65 503.05 C 72.92 471.6 54.48 429.64 53.74 384.91 C 52.97 338.98 70.27 295.68 102.43 262.97 C 134.61 230.25 177.6 212.23 223.48 212.23 L 307.95 212.23 L 307.95 158.51 L 223.48 158.51 C 163.08 158.51 106.49 182.23 64.13 225.3 C 21.79 268.34 -0.98 325.35 0.03 385.79 C 1.02 444.94 25.31 500.33 68.43 541.77 C 111.17 582.85 167.39 605.47 226.72 605.47 L 333.51 605.47 C 371.86 605.47 403.07 574.27 403.07 535.91 L 403.07 265.06 C 403.07 235.92 426.78 212.22 455.91 212.22 L 538.37 212.22 C 567.51 212.22 591.21 235.93 591.21 265.06 C 591.21 294.19 567.5 317.9 538.37 317.9 L 492.1 317.9 C 455.69 317.9 426.07 347.52 426.07 383.93 C 426.07 420.34 455.69 449.95 492.1 449.95 L 538.37 449.95 C 567.51 449.95 591.21 473.66 591.21 502.79 L 591.21 535.9 C 591.21 574.25 622.41 605.46 660.77 605.46 L 685.41 605.46 L 685.41 551.74 L 660.77 551.74 C 652.04 551.75 644.94 544.64 644.94 535.91 Z M 1548.82 228.05 L 1548.82 539.44 C 1548.82 546.22 1543.3 551.74 1536.52 551.74 C 1529.74 551.74 1524.22 546.22 1524.22 539.44 L 1524.22 228.05 C 1524.22 189.7 1493.02 158.49 1454.66 158.49 L 1341.84 158.49 L 1341.84 212.21 L 1454.66 212.21 C 1463.39 212.21 1470.5 219.31 1470.5 228.05 L 1470.5 539.44 C 1470.5 575.85 1500.12 605.47 1536.53 605.47 C 1572.94 605.47 1602.56 575.85 1602.56 539.44 L 1602.56 228.05 C 1602.56 219.32 1609.66 212.21 1618.4 212.21 L 1735.11 212.21 L 1735.11 158.49 L 1618.4 158.49 C 1580.02 158.49 1548.82 189.7 1548.82 228.05 Z M 2873.33 605.47 L 2927.05 605.47 L 2927.05 158.49 L 2873.33 158.49 L 2873.33 605.47 Z M 1775.22 605.47 L 1828.94 605.47 L 1828.94 158.49 L 1775.22 158.49 L 1775.22 605.47 Z M 2436.79 605.47 L 2490.51 605.47 L 2490.51 158.49 L 2436.79 158.49 L 2436.79 605.47 Z M 1386.16 541.25 L 1368.27 491.28 C 1358.21 463.2 1331.42 444.33 1301.59 444.33 L 1196.85 444.33 C 1190.07 444.33 1184.55 438.81 1184.55 432.03 C 1184.55 425.25 1190.07 419.73 1196.85 419.73 L 1248.76 419.73 C 1270.24 419.73 1290.45 409.25 1302.81 391.68 C 1315.17 374.11 1318.24 351.56 1311 331.34 L 1265.66 204.69 C 1254.64 173.91 1226.39 154.02 1193.69 154.02 C 1160.99 154.02 1132.74 173.91 1121.72 204.69 L 1000.66 542.78 C 998.74 548.15 993.62 551.75 987.92 551.75 L 815.96 551.75 C 786.82 551.75 763.11 528.04 763.11 498.9 L 763.11 462.19 C 763.11 455.44 768.6 449.95 775.34 449.95 L 902.82 449.95 C 939.19 449.95 968.78 420.36 968.78 383.99 L 968.78 383.85 C 968.78 347.48 939.19 317.89 902.82 317.89 L 775.35 317.89 C 768.6 317.89 763.12 312.4 763.12 305.65 L 763.12 265.05 C 763.12 235.91 786.83 212.2 815.97 212.2 L 968.83 212.2 L 968.83 158.48 L 815.96 158.48 C 757.2 158.48 709.39 206.29 709.39 265.05 L 709.39 305.65 C 709.39 342.02 738.98 371.61 775.35 371.61 L 902.83 371.61 C 909.58 371.61 915.06 377.1 915.06 383.85 L 915.06 384 C 915.06 390.75 909.57 396.23 902.83 396.23 L 775.35 396.23 C 738.98 396.23 709.39 425.82 709.39 462.19 L 709.39 498.9 C 709.39 557.66 757.2 605.47 815.96 605.47 L 987.92 605.47 C 1016.25 605.47 1041.69 587.55 1051.24 560.89 L 1172.3 222.8 C 1177.3 208.83 1189.94 207.74 1193.69 207.74 C 1197.44 207.74 1210.08 208.83 1215.08 222.8 L 1260.42 349.44 C 1262.31 354.7 1260.27 358.78 1258.89 360.75 C 1257.51 362.71 1254.36 366.01 1248.76 366.01 L 1196.85 366.01 C 1160.44 366.01 1130.82 395.63 1130.82 432.03 C 1130.82 468.44 1160.44 498.06 1196.85 498.06 L 1301.59 498.06 C 1308.79 498.06 1315.26 502.62 1317.69 509.4 L 1335.58 559.37 C 1345.45 586.95 1371.77 605.48 1401.07 605.48 L 1438.34 605.48 L 1438.34 551.76 L 1401.07 551.76 C 1394.4 551.75 1388.41 547.53 1386.16 541.25 Z M 2447.16 0 L 2411.63 0 C 2396.54 0 2382.17 4.76 2370.08 13.78 C 2357.98 22.79 2349.3 35.2 2344.99 49.65 L 2149.97 702.5 C 2145.22 718.4 2131.16 719.64 2126.96 719.64 C 2122.76 719.64 2108.7 718.4 2103.95 702.5 L 1908.95 49.65 C 1904.63 35.19 1895.95 22.79 1883.86 13.78 C 1871.76 4.76 1857.39 0 1842.3 0 L 1806.77 0 L 1806.77 53.72 L 1842.3 53.72 C 1849.25 53.72 1855.49 58.37 1857.47 65.02 L 2052.48 717.87 C 2057.64 735.14 2067.9 749.52 2082.16 759.46 C 2095.21 768.55 2110.7 773.36 2126.96 773.36 C 2143.21 773.36 2158.71 768.55 2171.76 759.46 C 2186.02 749.53 2196.28 735.15 2201.44 717.87 L 2396.45 65.02 C 2398.44 58.36 2404.68 53.72 2411.62 53.72 L 2447.15 53.72 L 2447.15 0 L 2447.16 0 Z M 2705.22 355.12 L 2658.62 355.12 C 2619.22 355.12 2587.17 323.07 2587.17 283.67 C 2587.17 244.27 2619.22 212.22 2658.62 212.22 L 2823.93 212.22 L 2823.93 158.5 L 2658.62 158.5 C 2589.6 158.5 2533.45 214.65 2533.45 283.67 C 2533.45 352.69 2589.6 408.84 2658.62 408.84 L 2705.22 408.84 C 2744.62 408.84 2776.67 440.89 2776.67 480.29 C 2776.67 519.69 2744.62 551.74 2705.22 551.74 L 2539.34 551.74 L 2539.34 605.46 L 2705.22 605.46 C 2774.24 605.46 2830.39 549.31 2830.39 480.29 C 2830.39 411.27 2774.24 355.12 2705.22 355.12 Z M 3355.75 219.52 C 3312.26 176.03 3254.44 152.08 3192.93 152.08 C 3131.42 152.08 3073.6 176.03 3030.11 219.52 C 2986.62 263.01 2962.67 320.83 2962.67 382.34 C 2962.67 443.85 2986.62 501.67 3030.11 545.16 C 3073.6 588.65 3131.42 612.6 3192.93 612.6 C 3254.44 612.6 3312.26 588.65 3355.75 545.16 C 3399.24 501.67 3423.19 443.85 3423.19 382.34 C 3423.19 320.83 3399.24 263.01 3355.75 219.52 Z M 3192.93 557.24 C 3096.48 557.24 3018.02 478.78 3018.02 382.33 C 3018.02 285.88 3096.48 207.42 3192.93 207.42 C 3289.38 207.42 3367.84 285.88 3367.84 382.33 C 3367.84 478.78 3289.37 557.24 3192.93 557.24 Z M 3814.36 158.49 C 3776.01 158.49 3744.8 189.69 3744.8 228.05 L 3744.8 536.86 C 3744.8 545.07 3738.12 551.74 3729.92 551.74 C 3723.65 551.74 3718.02 547.77 3715.91 541.87 L 3589.68 189.3 C 3578.67 158.56 3548.53 140.99 3516.35 146.58 C 3484.18 152.16 3461.72 178.87 3461.72 211.52 L 3461.72 535.91 C 3461.72 544.64 3454.62 551.75 3445.88 551.75 L 3421.24 551.75 L 3421.24 605.47 L 3445.88 605.47 C 3484.23 605.47 3515.44 574.27 3515.44 535.91 L 3515.44 211.52 C 3515.44 202.6 3521.77 200.17 3525.54 199.51 C 3529.31 198.85 3536.09 199.01 3539.1 207.41 L 3665.34 559.99 C 3675.08 587.19 3701.04 605.47 3729.93 605.47 C 3767.76 605.47 3798.53 574.69 3798.53 536.87 L 3798.53 228.05 C 3798.53 219.32 3805.63 212.21 3814.37 212.21 L 3839 212.21 L 3839 158.49 L 3814.36 158.49 Z" style="fill: rgb(255, 255, 255);"/>
</svg>