<?xml version="1.0" encoding="utf-8"?>
<svg viewBox="0 0 200 40" xmlns="http://www.w3.org/2000/svg">
  <path d="M 39.559 24.005 L 39.079 29.045 C 37.799 29.565 36.179 29.825 34.219 29.825 C 31.699 29.825 29.892 29.335 28.799 28.355 C 27.712 27.375 27.169 25.865 27.169 23.825 C 27.169 22.965 27.309 21.695 27.589 20.015 C 28.189 16.575 29.222 14.075 30.689 12.515 C 32.162 10.955 34.489 10.175 37.669 10.175 C 38.409 10.175 39.256 10.252 40.209 10.405 C 41.156 10.552 41.849 10.735 42.289 10.955 L 40.609 15.545 C 39.429 15.265 38.326 15.125 37.299 15.125 C 36.266 15.125 35.529 15.225 35.089 15.425 C 34.649 15.625 34.379 16.025 34.279 16.625 L 32.899 24.485 C 33.619 24.645 34.359 24.725 35.119 24.725 C 36.739 24.725 38.219 24.485 39.559 24.005 Z M 49.129 16.895 L 47.749 24.695 L 50.119 24.695 C 50.899 24.695 51.479 24.602 51.859 24.415 C 52.239 24.222 52.489 23.785 52.609 23.105 L 53.989 15.305 L 51.589 15.305 C 50.829 15.305 50.259 15.398 49.879 15.585 C 49.499 15.778 49.249 16.215 49.129 16.895 Z M 52.579 10.175 C 55.119 10.175 56.929 10.672 58.009 11.665 C 59.089 12.652 59.629 14.175 59.629 16.235 C 59.629 18.295 59.302 20.452 58.649 22.705 C 58.002 24.952 56.972 26.698 55.559 27.945 C 54.152 29.198 52.092 29.825 49.379 29.825 C 46.672 29.825 44.779 29.332 43.699 28.345 C 42.619 27.352 42.079 25.825 42.079 23.765 C 42.079 22.785 42.219 21.492 42.499 19.885 C 42.779 18.272 43.149 16.882 43.609 15.715 C 44.069 14.542 44.689 13.525 45.469 12.665 C 46.969 11.005 49.339 10.175 52.579 10.175 Z M 72.798 24.575 L 71.958 29.375 L 60.558 29.375 L 63.858 10.625 L 69.558 10.625 L 67.098 24.575 L 72.798 24.575 Z M 85.578 24.575 L 84.738 29.375 L 73.338 29.375 L 76.638 10.625 L 82.338 10.625 L 79.878 24.575 L 85.578 24.575 Z M 99.528 17.945 L 98.748 22.295 L 93.048 22.295 L 92.658 24.575 L 99.648 24.575 L 98.808 29.375 L 86.118 29.375 L 89.418 10.625 L 101.958 10.625 L 100.398 15.425 L 94.248 15.425 L 93.828 17.945 L 99.528 17.945 Z M 114.918 24.005 L 114.438 29.045 C 113.158 29.565 111.538 29.825 109.578 29.825 C 107.058 29.825 105.251 29.335 104.158 28.355 C 103.071 27.375 102.528 25.865 102.528 23.825 C 102.528 22.965 102.668 21.695 102.948 20.015 C 103.548 16.575 104.581 14.075 106.048 12.515 C 107.521 10.955 109.848 10.175 113.028 10.175 C 113.768 10.175 114.614 10.252 115.568 10.405 C 116.514 10.552 117.208 10.735 117.648 10.955 L 115.968 15.545 C 114.788 15.265 113.684 15.125 112.658 15.125 C 111.624 15.125 110.888 15.225 110.448 15.425 C 110.008 15.625 109.738 16.025 109.638 16.625 L 108.258 24.485 C 108.978 24.645 109.718 24.725 110.478 24.725 C 112.098 24.725 113.578 24.485 114.918 24.005 Z M 132.918 10.625 L 132.048 15.425 L 127.908 15.425 L 125.478 29.375 L 119.778 29.375 L 122.208 15.425 L 118.098 15.425 L 118.968 10.625 L 132.918 10.625 Z M 137.477 29.375 L 131.777 29.375 L 135.077 10.625 L 140.777 10.625 L 137.477 29.375 Z M 148.487 16.895 L 147.107 24.695 L 149.477 24.695 C 150.257 24.695 150.837 24.602 151.217 24.415 C 151.597 24.222 151.847 23.785 151.967 23.105 L 153.347 15.305 L 150.947 15.305 C 150.187 15.305 149.617 15.398 149.237 15.585 C 148.857 15.778 148.607 16.215 148.487 16.895 Z M 151.937 10.175 C 154.477 10.175 156.287 10.672 157.367 11.665 C 158.447 12.652 158.987 14.175 158.987 16.235 C 158.987 18.295 158.661 20.452 158.007 22.705 C 157.361 24.952 156.331 26.698 154.917 27.945 C 153.511 29.198 151.451 29.825 148.737 29.825 C 146.031 29.825 144.137 29.332 143.057 28.345 C 141.977 27.352 141.437 25.825 141.437 23.765 C 141.437 22.785 141.577 21.492 141.857 19.885 C 142.137 18.272 142.507 16.882 142.967 15.715 C 143.427 14.542 144.047 13.525 144.827 12.665 C 146.327 11.005 148.697 10.175 151.937 10.175 Z M 175.757 29.375 L 170.387 29.375 L 167.327 22.715 C 167.247 22.575 167.207 22.378 167.207 22.125 C 167.207 21.878 167.227 21.595 167.267 21.275 L 167.027 21.275 L 165.617 29.375 L 159.917 29.375 L 163.217 10.625 L 168.587 10.625 L 171.647 17.285 C 171.707 17.425 171.737 17.622 171.737 17.875 C 171.737 18.122 171.717 18.405 171.677 18.725 L 171.917 18.725 L 173.357 10.625 L 179.057 10.625 L 175.757 29.375 Z M 179.027 29.045 L 180.707 24.095 C 182.387 24.555 183.927 24.785 185.327 24.785 C 186.727 24.785 187.857 24.725 188.717 24.605 L 188.957 23.105 L 186.467 22.865 C 184.567 22.685 183.22 22.255 182.427 21.575 C 181.64 20.895 181.247 19.935 181.247 18.695 C 181.247 18.155 181.307 17.555 181.427 16.895 C 181.887 14.335 182.72 12.575 183.927 11.615 C 185.14 10.655 187.017 10.175 189.557 10.175 C 192.097 10.175 194.337 10.425 196.277 10.925 L 194.717 15.725 C 192.977 15.425 191.577 15.275 190.517 15.275 C 189.457 15.275 188.557 15.325 187.817 15.425 L 187.577 16.895 L 189.587 17.105 C 191.627 17.325 193.077 17.812 193.937 18.565 C 194.797 19.312 195.227 20.315 195.227 21.575 C 195.227 22.855 194.947 24.175 194.387 25.535 C 194.107 26.235 193.8 26.822 193.467 27.295 C 193.14 27.762 192.72 28.158 192.207 28.485 C 191.7 28.818 191.237 29.068 190.817 29.235 C 190.397 29.408 189.867 29.535 189.227 29.615 C 188.287 29.755 187.137 29.825 185.777 29.825 C 183.297 29.825 181.047 29.565 179.027 29.045 Z" style="white-space: pre; fill: rgb(255, 255, 255);"/>
  <path d="M 8.167 16.656 C 8.167 16.04 8.665 15.544 9.279 15.544 L 13.723 15.544 C 14.338 15.544 14.834 16.04 14.834 16.656 L 14.834 19.989 C 14.834 20.604 14.338 21.1 13.723 21.1 L 9.279 21.1 C 8.665 21.1 8.167 20.604 8.167 19.989 L 8.167 16.656 Z M 13.723 22.211 C 14.95 22.211 15.945 21.214 15.945 19.989 L 15.945 18.878 L 18.167 18.878 C 18.783 18.878 19.279 19.374 19.279 19.989 L 19.279 23.322 C 19.279 23.937 18.783 24.433 18.167 24.433 L 13.723 24.433 C 13.11 24.433 12.612 23.937 12.612 23.322 L 12.612 22.211 L 13.723 22.211 Z M 4.834 15.246 C 4.171 14.864 3.723 14.145 3.723 13.322 C 3.723 12.096 4.719 11.1 5.945 11.1 C 6.768 11.1 7.488 11.546 7.869 12.211 L 19.577 12.211 C 19.959 11.546 20.678 11.1 21.501 11.1 C 22.727 11.1 23.723 12.096 23.723 13.322 C 23.723 14.145 23.275 14.864 22.612 15.246 L 22.612 24.732 C 23.275 25.114 23.723 25.832 23.723 26.656 C 23.723 27.88 22.727 28.878 21.501 28.878 C 20.678 28.878 19.959 28.43 19.577 27.767 L 7.869 27.767 C 7.488 28.43 6.768 28.878 5.945 28.878 C 4.719 28.878 3.723 27.88 3.723 26.656 C 3.723 25.832 4.171 25.114 4.834 24.732 L 4.834 15.246 Z M 7.869 14.433 C 7.675 14.769 7.394 15.052 7.056 15.246 L 7.056 24.732 C 7.394 24.926 7.675 25.208 7.869 25.544 L 19.577 25.544 C 19.773 25.208 20.054 24.926 20.39 24.732 L 20.39 15.246 C 20.054 15.052 19.773 14.769 19.577 14.433 L 7.869 14.433 Z" style="fill: rgb(255, 255, 255);"/>
</svg>