<?xml version="1.0" encoding="UTF-8" standalone="no"?><!-- Generator: Gravit.io --><svg xmlns="http://www.w3.org/2000/svg" xmlns:xlink="http://www.w3.org/1999/xlink" style="isolation:isolate" viewBox="0 0 291 90.9" width="291pt" height="90.9pt"><defs><clipPath id="_clipPath_MCPwar7nsfTNXgnFocc4wrPB5cQlA6UQ"><rect width="291" height="90.9"/></clipPath></defs><g clip-path="url(#_clipPath_MCPwar7nsfTNXgnFocc4wrPB5cQlA6UQ)"><g><path d=" M 243.274 50.421 L 277.5 50.421 L 277.5 58.83 L 266.025 58.83 L 266.025 84.426 L 254.749 84.426 L 254.749 58.83 L 243.274 58.83 L 243.274 50.421 Z " fill="rgb(255,255,255)"/><path d=" M 207.015 73.177 L 217.763 72.555 C 217.994 74.171 218.472 75.404 219.189 76.249 C 220.355 77.621 222.019 78.305 224.188 78.305 C 225.804 78.305 227.047 77.954 227.922 77.249 C 228.799 76.548 229.237 75.732 229.237 74.806 C 229.237 73.924 228.818 73.136 227.982 72.439 C 227.142 71.745 225.212 71.086 222.189 70.468 C 217.239 69.439 213.707 68.061 211.599 66.349 C 209.473 64.635 208.409 62.451 208.409 59.796 C 208.409 58.054 208.951 56.408 210.041 54.854 C 211.129 53.303 212.767 52.082 214.953 51.192 C 217.136 50.309 220.129 49.866 223.934 49.866 C 228.602 49.866 232.165 50.674 234.616 52.284 C 237.063 53.9 238.524 56.462 238.989 59.981 L 228.376 60.562 C 228.088 59.03 227.492 57.914 226.58 57.214 C 225.67 56.517 224.415 56.17 222.81 56.17 C 221.488 56.17 220.495 56.429 219.828 56.95 C 219.159 57.466 218.823 58.096 218.823 58.838 C 218.823 59.379 219.101 59.865 219.66 60.3 C 220.199 60.746 221.467 61.164 223.459 61.552 C 228.395 62.539 231.928 63.537 234.061 64.548 C 236.197 65.56 237.752 66.817 238.721 68.317 C 239.697 69.816 240.181 71.493 240.181 73.347 C 240.181 75.528 239.533 77.533 238.238 79.372 C 236.939 81.212 235.129 82.606 232.8 83.557 C 230.472 84.506 227.538 84.982 223.998 84.982 C 217.777 84.982 213.475 83.87 211.079 81.653 C 208.686 79.426 207.33 76.605 207.015 73.177 Z " fill="rgb(255,255,255)"/><path d=" M 191.837 78.8 L 179.079 78.8 L 177.239 84.426 L 165.734 84.426 L 179.402 50.421 L 191.769 50.421 L 205.464 84.426 L 193.667 84.426 L 191.837 78.8 Z  M 189.451 71.444 L 185.468 59.228 L 181.478 71.444 L 189.451 71.444 Z " fill="rgb(255,255,255)"/><path d=" M 132.596 50.421 L 162.838 50.421 L 162.838 57.656 L 143.87 57.656 L 143.87 63.096 L 161.447 63.096 L 161.447 70.021 L 143.87 70.021 L 143.87 76.699 L 163.37 76.699 L 163.37 84.426 L 132.596 84.426 L 132.596 50.421 Z " fill="rgb(255,255,255)"/><path d=" M 261.935 31.264 L 249.173 31.264 L 247.33 36.891 L 235.829 36.891 L 249.498 2.887 L 261.862 2.887 L 275.56 36.891 L 263.761 36.891 L 261.935 31.264 Z  M 259.543 23.907 L 255.562 11.691 L 251.573 23.907 L 259.543 23.907 Z " fill="rgb(255,255,255)"/><path d=" M 203.625 2.887 L 237.851 2.887 L 237.851 11.294 L 226.378 11.294 L 226.378 36.891 L 215.101 36.891 L 215.101 11.294 L 203.625 11.294 L 203.625 2.887 Z " fill="rgb(255,255,255)"/><path d=" M 192.485 31.264 L 179.725 31.264 L 177.885 36.891 L 166.381 36.891 L 180.05 2.887 L 192.417 2.887 L 206.112 36.891 L 194.314 36.891 L 192.485 31.264 Z  M 190.098 23.907 L 186.114 11.691 L 182.125 23.907 L 190.098 23.907 Z " fill="rgb(255,255,255)"/><path d=" M 132.792 2.887 L 149.504 2.887 C 152.797 2.887 155.461 3.301 157.487 4.138 C 159.516 4.974 161.193 6.175 162.513 7.734 C 163.839 9.298 164.8 11.113 165.394 13.187 C 165.99 15.258 166.29 17.456 166.29 19.772 C 166.29 23.404 165.846 26.226 164.961 28.227 C 164.074 30.229 162.845 31.912 161.273 33.263 C 159.701 34.613 158.01 35.515 156.207 35.965 C 153.739 36.581 151.506 36.891 149.504 36.891 L 132.792 36.891 L 132.792 2.887 Z  M 144.069 10.614 L 144.069 29.163 L 146.808 29.163 C 149.142 29.163 150.802 28.917 151.79 28.433 C 152.777 27.948 153.549 27.1 154.108 25.885 C 154.667 24.675 154.946 22.709 154.946 19.991 C 154.946 16.396 154.323 13.934 153.073 12.609 C 151.823 11.279 149.749 10.614 146.856 10.614 L 144.069 10.614 Z " fill="rgb(255,255,255)"/><path d=" M 20.578 0 C 20.451 0 20.326 0.016 20.2 0.016 L 13.5 0.016 L 13.5 12.058 L 18.695 12.048 C 36.183 12.048 50.357 26.223 50.357 43.712 C 50.357 61.15 36.254 75.295 18.829 75.368 L 13.5 75.375 L 13.5 87.422 L 20.763 87.422 L 20.763 87.413 C 44.816 87.314 64.286 67.789 64.286 43.712 C 64.286 19.572 44.717 0 20.578 0 Z " fill="rgb(255,255,255)"/><path d=" M 45.13 43.712 C 45.13 28.685 32.948 16.501 17.923 16.501 C 17.841 16.501 13.517 16.513 13.517 16.513 L 13.517 70.918 L 18.038 70.913 C 33.01 70.85 45.13 58.696 45.13 43.712 Z " fill="rgb(255,255,255)"/><path d=" M 82.706 45.589 C 83.674 59.697 95.365 70.854 109.703 70.913 L 114.224 70.918 L 114.224 45.589 L 82.706 45.589 Z " fill="rgb(255,255,255)"/><path d=" M 114.224 41.806 L 114.224 16.513 C 114.224 16.513 109.9 16.504 109.818 16.504 C 95.436 16.504 83.688 27.674 82.708 41.806 L 114.224 41.806 Z " fill="rgb(255,255,255)"/><path d=" M 107.163 0 C 107.291 0 107.415 0.016 107.543 0.016 L 114.241 0.016 L 114.241 12.058 L 109.046 12.048 C 91.559 12.048 77.381 26.223 77.381 43.712 C 77.381 61.15 91.487 75.295 108.912 75.368 L 114.241 75.375 L 114.241 87.422 L 106.98 87.422 L 106.98 87.413 C 82.925 87.314 63.454 67.789 63.454 43.712 C 63.454 19.572 83.024 0 107.163 0 Z " fill="rgb(255,255,255)"/></g></g></svg>