<?xml version="1.0" encoding="utf-8"?>
<svg version="1.1" id="svg53" viewBox="0 0 972.2 140" xmlns="http://www.w3.org/2000/svg">
  <path id="path0" d="M 525.579 1.875 C 487.044 10.702 456.849 44.16 467.467 66.263 C 475.243 82.449 502.366 81.886 517.299 65.23 C 532.824 47.913 531.849 19.122 515.738 19.122 C 509.997 19.122 510.002 16.395 515.745 13.978 C 529.1 8.353 573.446 7.053 578.491 12.137 C 580.257 13.917 579.393 14.882 572.554 18.771 C 557.864 27.125 533.413 53.774 527.491 67.882 C 524.546 74.898 521.913 76.135 505.338 78.289 C 501.193 78.83 495.685 82.78 495.685 85.214 C 495.685 88.444 501.867 88.919 510.926 86.386 C 518.637 84.227 519.961 85.57 516.62 92.164 C 503.368 118.316 480.839 134.181 463.057 129.88 C 448.768 126.428 447.961 119.46 461.581 117.142 C 477.406 114.447 473.274 92.455 456.942 92.455 C 428.274 92.455 424.971 126.435 452.639 136.722 C 484.659 148.624 531.771 127.004 550.002 92.038 C 555.811 80.901 556.368 80.527 572.481 76.943 C 594.04 72.152 602.38 66.409 599.694 58.207 C 596.554 48.617 602.055 39.874 613.374 36.462 C 618.171 35.018 616.727 25.961 610.615 19.142 C 605.054 12.94 605.26 12.273 613.003 11.338 C 615.549 11.033 616.865 9.836 617.191 7.525 C 617.732 3.684 609.573 2.782 599.807 5.606 C 595.862 6.745 592.87 6.389 585.708 3.919 C 573.707 -0.216 539.75 -1.372 525.579 1.875 M 94.893 6.469 C 46.412 17.069 11.371 60.606 37.749 77.464 C 59.789 91.551 89.575 76.266 92.75 49.246 C 94.62 33.351 91.074 26.431 80.431 25.198 C 71.322 24.145 71.417 22.137 80.742 18.597 C 91.259 14.606 108.906 15.94 127.396 22.125 C 152.313 30.462 168.168 29.328 176.739 18.594 C 183.282 10.404 179.388 7.058 167.141 10.348 C 161.781 11.788 157.543 11.445 139.505 8.103 C 115.763 3.706 108.711 3.446 94.893 6.469 M 903.654 8.578 C 882.303 15.455 857.428 44.781 834.844 89.7 C 830.707 97.93 829.316 99.526 826.855 98.877 C 824.662 98.299 822.164 99.968 817.4 105.199 C 810.343 112.944 807.218 112.469 812.446 104.443 C 814.24 101.686 816.378 98.352 817.195 97.036 C 818.012 95.718 820.097 92.632 821.828 90.179 C 825.449 85.05 830.454 75.274 831.94 70.428 C 832.955 67.117 832.897 67.106 814.681 67.205 C 792.673 67.324 790.671 68.096 775.557 82.323 C 763.616 93.561 763.606 93.559 762.576 80.843 C 761.762 70.794 758.554 67.013 750.833 67.013 C 742.25 67.013 742.488 64.808 753.412 43.147 C 763.854 22.438 763.932 22.102 758.346 21.774 C 744.947 20.988 738.724 25.193 731.347 40.023 C 729.49 43.756 725.249 51.524 721.924 57.287 C 700.846 93.806 691.699 110.189 690.293 113.944 C 688.922 117.601 688.354 117.942 686.374 116.286 C 684.823 114.99 683.728 114.864 683.058 115.907 C 681.861 117.77 671.847 119.831 670.513 118.488 C 670 117.967 672.278 112.134 675.576 105.519 C 685.169 86.295 685.093 72.908 675.385 70.758 C 670.456 69.667 656.958 73.448 652.821 77.08 C 649.488 80.007 647.481 78.496 646.305 72.185 C 643.734 58.373 623.777 67.261 619.827 83.977 C 619.168 86.755 619.356 87.886 620.368 87.255 C 622.509 85.921 622.313 89.957 620.13 92.157 C 619.15 93.144 618.852 93.953 619.466 93.953 C 620.083 93.953 617.481 99.832 613.69 107.017 C 606.641 120.377 601.832 132.58 603.11 133.868 C 604.335 135.103 627.854 132.55 627.854 131.183 C 627.854 130.471 630.861 123.448 634.535 115.573 C 638.211 107.699 641.218 100.736 641.218 100.102 C 641.218 97.42 660.091 78.539 661.742 79.57 C 664.594 81.345 663.898 83.702 655.327 101.302 C 642.83 126.961 644.366 132.863 663.534 132.863 C 671.852 132.863 674.358 132.194 680.362 128.355 L 687.419 123.847 L 692.218 128.976 C 702.635 140.106 732.652 135.919 745.926 121.485 C 750.059 116.99 751.121 117.397 753.427 124.367 C 756.622 134.025 770.871 136.727 778.191 129.062 L 781.454 125.645 L 784.774 129.254 C 791.536 136.606 803.296 132.865 816.824 119.056 C 821.52 114.26 825.389 110.525 825.424 110.752 C 825.457 110.977 825.625 115.303 825.795 120.362 C 826.484 140.816 839.222 141.982 857.872 123.296 C 870.597 110.55 871.399 110.467 871.399 121.89 C 871.399 141.275 886.415 140.525 905.283 120.197 C 919.291 105.108 915.39 96.491 901.163 111.098 C 894.054 118.399 892.189 118.536 892.189 111.765 C 892.189 103.428 897.171 96.66 910.222 87.262 C 949.797 58.765 982.518 14.22 969.168 7.02 C 962.091 3.201 937.31 10.47 930.914 18.236 C 928.213 21.516 926.346 19.822 926.346 14.096 C 926.346 5.037 919.682 3.416 903.654 8.578 M 917.016 17.107 C 918.642 22.024 866.132 82.004 862.295 79.615 C 858.108 77.006 893.956 28.845 907.373 19.051 C 913.44 14.622 916.021 14.101 917.016 17.107 M 962.214 18.531 C 960.748 26.608 910.666 81.994 906.932 79.668 C 904.661 78.254 914.921 60.886 927.669 44.564 C 944.246 23.345 964.049 8.419 962.214 18.531 M 593.827 20.865 C 600.027 32.54 588.382 55.085 570.013 66.965 C 557.225 75.236 556.816 72.536 567.467 50.064 C 578.666 26.428 590.073 13.793 593.827 20.865 M 235.662 27.759 C 233.545 30.83 227.601 40.748 222.453 49.804 C 190.615 105.822 191.785 103.289 191.384 117.142 C 190.868 134.936 196.459 139.899 209.826 133.507 C 216.94 130.105 219.624 126.466 220.436 119.137 C 221.042 113.664 220.849 113.015 219.196 114.944 C 218.12 116.202 215.903 117.212 214.271 117.19 C 209.104 117.121 211.537 111.035 228.35 81.979 L 244.373 54.292 L 252.711 53.845 C 262.519 53.317 266.414 44.564 256.841 44.564 C 250.531 44.564 250.448 43.581 255.971 34.083 C 262.868 22.228 262.81 22.112 250.282 22.148 C 239.544 22.18 239.507 22.196 235.662 27.759 M 123.406 32.517 C 117.67 36.043 104.245 53.714 96.605 67.804 C 90.635 78.81 89.836 79.413 72.88 85.707 C 60.433 90.326 52.627 95.23 51.93 98.87 C 51.113 103.145 56.526 101.928 70.459 94.703 C 86.157 86.563 88.142 87.467 80.894 99.445 C 67.933 120.872 48.091 131.949 29.156 128.33 C 12.017 125.054 9.925 118.468 24.946 115.068 C 40.573 111.53 38.711 96.539 22.387 94.465 C -1.102 91.48 -8.715 118.859 12.27 130.837 C 43.836 148.857 99.228 128.751 115.69 93.298 C 119.404 85.295 120.895 83.477 123.734 83.477 C 129.25 83.477 129.067 84.856 121.349 101.466 C 113.4 118.581 112.382 125.218 117.001 129.87 C 120.993 133.893 132.197 133.903 139.628 129.89 C 145.121 126.923 145.136 126.923 146.712 129.89 C 152.077 139.997 176.711 128.378 186.415 111.164 C 194.421 96.958 188.597 93.213 178.894 106.327 C 169.627 118.856 172.777 109.08 183.871 90.884 C 196.449 70.258 197.982 66.051 192.366 67.566 C 190.527 68.064 185.903 68.478 182.089 68.49 L 175.155 68.511 L 165.813 84.315 C 155.766 101.314 143.91 117.132 141.505 116.753 C 136.605 115.982 142.835 98.592 154.716 79.875 C 161.776 68.753 161.678 68.511 150.218 68.511 C 140.883 68.511 140.114 68.783 135.46 73.756 C 132.739 76.666 130.14 78.332 129.629 77.499 C 129.12 76.671 127.448 75.994 125.91 75.994 C 119.803 75.994 121.87 63.083 131.147 43.289 C 138.084 28.487 135.598 25.027 123.406 32.517 M 485.879 37.856 C 482.183 43.541 481.183 59.53 484.523 59.53 C 490.763 59.53 504.233 50.186 505.924 44.683 C 509.267 33.825 517.976 28.032 515.525 38.296 C 511.087 56.896 491.68 72.908 480.98 66.803 C 470.337 60.735 470.129 52.782 480.263 39.407 C 485.533 32.452 490.237 31.151 485.879 37.856 M 79.333 46.897 C 72.645 66.677 52.05 79.613 42.525 70.013 C 36.022 63.457 37.425 53.062 46.109 43.488 C 50.492 38.654 51.509 40.46 49.281 49.117 C 47.552 55.833 47.828 65.518 49.747 65.518 C 54.085 65.518 69.121 54.375 70.693 49.999 C 75.567 36.409 83.887 33.424 79.333 46.897 M 606.55 44.309 C 603.157 48.087 603.313 58.356 606.808 61.543 C 614.439 68.506 626.368 63.013 626.368 52.537 C 626.368 42.412 613.174 36.934 606.55 44.309 M 259.176 68.45 C 252.237 69.806 253.588 68.134 244.697 86.356 C 240.552 94.854 235.424 104.097 233.304 106.898 C 231.184 109.702 229.871 112.419 230.385 112.937 C 230.901 113.457 230.771 114.616 230.099 115.515 C 222.268 125.978 241.777 137.565 255.335 130.502 C 259.635 128.261 260.046 128.309 263.369 131.456 C 270.714 138.409 285.204 132.186 297.729 116.702 C 306.71 105.598 306.464 91.377 297.463 101.4 C 291.002 108.598 293.175 101.552 301.966 86.805 C 314.261 66.185 314.273 66.356 300.773 67.695 C 294.852 68.283 289.967 68.874 289.92 69.011 C 288.83 72.122 267.165 105.479 263.264 110.053 C 250.272 125.281 253.748 106.671 268.521 81.901 C 278.149 65.755 277.53 64.864 259.176 68.45 M 315.348 76.484 C 305.364 86.348 302.738 92.455 308.482 92.455 C 310.068 92.455 311.785 91.771 312.298 90.935 C 312.81 90.099 313.84 89.793 314.586 90.258 C 315.333 90.722 311.276 100.491 305.575 111.964 C 299.871 123.438 295.205 133.171 295.205 133.593 C 295.205 134.014 299.841 134.36 305.51 134.36 L 315.817 134.36 L 325.094 116.273 C 338.22 90.674 352.051 77.933 353.379 90.212 C 354.051 96.435 360.456 97.347 364.102 91.738 C 369.082 84.078 369.104 89.692 364.125 98.021 C 347.871 125.226 357.597 141.669 385.203 133.656 C 400.154 129.315 423.209 101.931 413.964 99.493 C 411.022 98.718 411.04 98.572 414.709 93.124 C 432.281 67.028 401.204 57.547 376.685 81.527 C 372.903 85.227 369.403 87.591 368.906 86.783 C 368.41 85.974 368.999 84.479 370.215 83.462 C 380.226 75.09 365.932 67.303 352.191 73.642 C 343.323 77.734 342.27 77.542 339.178 71.256 C 335.381 63.54 326.467 65.495 315.348 76.484 M 883.997 80.532 C 880.757 86.977 877.306 95.283 873.813 105.052 C 873.031 107.239 872.374 107.507 871.053 106.176 C 867.876 102.974 863.914 104.365 856.619 111.242 C 848.883 118.533 846.69 118.195 848.239 109.944 C 849.798 101.63 854.569 95.847 870.034 83.527 C 886.741 70.215 889.48 69.627 883.997 80.532 M 597.113 75.544 C 593.8 76.191 589.592 82.845 578.265 105.353 C 572.612 116.589 571 128.847 574.689 132.565 C 577.152 135.047 590.231 134.946 590.231 132.444 C 590.231 129.89 602.992 101.885 610.214 88.586 C 613.382 82.754 615.973 77.198 615.973 76.241 C 615.973 74.531 604.465 74.105 597.113 75.544 M 741.812 82.921 C 741.005 90.152 733.399 102.623 723.861 112.361 C 714.393 122.023 714.083 117.371 723.019 99.837 C 735.266 75.809 743.43 68.463 741.812 82.921 M 407.479 79.6 C 408.779 83.015 404.156 90.308 396.888 96.311 C 384.476 106.56 386.478 96.46 399.653 82.353 C 404.652 76.999 406.271 76.431 407.479 79.6 M 805.479 79.628 C 806.872 83.285 781.918 118.763 779.161 117.046 C 774.753 114.3 781.8 99.395 793.555 86.598 C 802.254 77.128 804.113 76.042 805.479 79.628 M 400.479 110.161 C 392.721 119.192 380.69 124.837 378.948 120.261 C 377.469 116.376 381.218 112.192 388.376 109.737 C 392.265 108.403 397.106 106.388 399.139 105.254 C 405 101.986 405.604 104.193 400.479 110.161" stroke="none" fill="#ffffff" fill-rule="evenodd" fill-opacity="1"/>
</svg>