<?xml version="1.0" encoding="utf-8"?>
<svg viewBox="8.296 308.6 777.404 41.2" width="777.404" height="41.2" xmlns="http://www.w3.org/2000/svg">
  <path fill="#ffffff" stroke="#ffffff" stroke-width="0.09375" opacity="1.00" d=" M 343.6 308.6 C 346.2 308.6 348.7 308.6 351.3 308.6 C 351.3 320.9 351.3 333.1 351.3 345.3 C 348.7 345.3 346.2 345.3 343.6 345.3 C 343.6 333.1 343.6 320.8 343.6 308.6 Z" transform="matrix(0.9999999999999999, 0, 0, 0.9999999999999999, 0, -1.7763568394002505e-15)"/>
  <path fill="#ffffff" stroke="#ffffff" stroke-width="0.09375" opacity="1.00" d=" M 431.5 308.6 C 434.1 308.6 436.6 308.6 439.2 308.6 C 439.1 310.3 439.1 312.0 439.1 313.6 C 442.3 313.7 445.5 313.7 448.7 313.6 C 448.7 315.8 448.7 318.1 448.7 320.3 C 445.5 320.3 442.3 320.2 439.1 320.3 C 439.3 325.6 438.9 331.0 439.5 336.3 C 440.2 337.0 441.0 337.8 441.7 338.5 C 444.0 338.7 446.4 338.8 448.7 338.9 C 448.7 341.0 448.7 343.2 448.7 345.4 C 445.1 345.2 441.5 345.7 437.9 345.0 C 434.2 344.2 431.5 340.8 431.5 337.0 C 431.5 327.5 431.6 318.0 431.5 308.6 Z" transform="matrix(0.9999999999999999, 0, 0, 0.9999999999999999, 0, -1.7763568394002505e-15)"/>
  <path fill="#ffffff" stroke="#ffffff" stroke-width="0.09375" opacity="1.00" d=" M 700.9 308.6 C 703.5 308.6 706.1 308.6 708.7 308.6 C 708.6 310.3 708.6 312.0 708.5 313.7 C 711.8 313.7 715.1 313.7 718.4 313.7 C 718.4 315.9 718.4 318.1 718.4 320.3 C 715.1 320.3 711.8 320.3 708.6 320.3 C 708.6 325.3 708.6 330.4 708.6 335.5 C 709.6 336.5 710.5 337.5 711.5 338.6 C 713.8 338.7 716.1 338.8 718.4 338.8 C 718.4 341.0 718.4 343.2 718.4 345.4 C 714.8 345.3 711.3 345.5 707.8 345.2 C 705.1 344.6 702.9 342.7 701.7 340.3 C 700.8 336.9 700.8 333.4 700.9 330.0 C 700.9 322.9 700.9 315.7 700.9 308.6 Z" transform="matrix(0.9999999999999999, 0, 0, 0.9999999999999999, 0, -1.7763568394002505e-15)"/>
  <path fill="#ffffff" stroke="#ffffff" stroke-width="0.09375" opacity="1.00" d=" M 8.3 321.9 C 8.2 318.4 10.8 314.9 14.3 314.1 C 15.8 313.6 17.4 313.7 19.0 313.7 C 28.5 313.7 38.0 313.7 47.5 313.7 C 47.5 315.9 47.5 318.0 47.5 320.2 C 39.3 320.2 31.2 320.2 23.0 320.2 C 21.6 320.2 20.1 320.2 18.7 320.6 C 17.5 321.5 16.6 322.6 15.6 323.6 C 15.7 327.5 15.6 331.4 15.6 335.3 C 16.5 336.3 17.4 337.4 18.2 338.4 C 22.8 339.1 27.4 338.8 32.0 338.9 C 35.1 338.8 38.4 339.2 41.3 338.0 C 41.3 336.8 41.3 334.3 41.3 333.1 C 40.0 332.6 38.5 332.1 37.0 332.2 C 31.1 332.2 25.2 332.2 19.3 332.2 C 19.3 330.4 19.3 328.7 19.3 326.9 C 27.4 327.2 35.6 326.1 43.6 327.6 C 48.1 329.5 47.7 334.9 47.5 339.1 C 47.5 341.4 45.7 343.1 44.3 344.7 C 37.6 345.8 30.8 345.1 24.0 345.3 C 20.2 345.2 16.1 345.9 12.5 344.3 C 10.0 342.9 8.2 340.0 8.3 337.0 C 8.3 332.0 8.3 327.0 8.3 321.9 Z" transform="matrix(0.9999999999999999, 0, 0, 0.9999999999999999, 0, -1.7763568394002505e-15)"/>
  <path fill="#ffffff" stroke="#ffffff" stroke-width="0.09375" opacity="1.00" d=" M 54.3 320.3 C 54.3 318.1 54.3 315.9 54.3 313.7 C 63.8 313.8 73.4 313.7 83.0 313.7 C 84.9 313.7 86.7 313.9 88.5 314.6 C 90.8 315.6 92.0 317.9 93.3 320.0 C 93.4 326.3 93.4 332.7 93.3 339.0 C 92.2 340.9 91.1 343.0 89.1 344.1 C 86.7 345.6 83.7 345.3 81.0 345.3 C 74.3 345.2 67.6 345.4 61.0 345.3 C 58.2 345.3 55.3 343.6 54.4 340.9 C 54.1 338.0 54.2 335.0 54.3 332.0 C 54.5 330.1 55.9 328.6 57.5 327.7 C 59.9 326.9 62.5 326.9 65.0 326.9 C 70.8 326.9 76.7 326.9 82.5 326.9 C 82.5 328.7 82.5 330.4 82.5 332.2 C 75.2 332.3 67.8 331.9 60.5 332.5 C 60.5 334.5 60.5 336.5 60.5 338.6 C 68.0 339.0 75.6 339.1 83.2 338.5 C 83.9 337.7 84.7 337.0 85.4 336.2 C 85.9 331.7 85.8 327.1 85.5 322.6 C 83.9 321.4 82.2 319.9 80.1 320.2 C 71.5 320.2 62.9 320.2 54.3 320.3 Z" transform="matrix(0.9999999999999999, 0, 0, 0.9999999999999999, 0, -1.7763568394002505e-15)"/>
  <path fill="#ffffff" stroke="#ffffff" stroke-width="0.09375" opacity="1.00" d=" M 98.9 329.0 C 98.9 323.9 98.7 318.8 99.2 313.7 C 108.5 314.1 117.9 312.8 127.0 314.6 C 129.7 314.3 132.3 313.5 135.0 313.7 C 139.6 313.9 144.2 313.3 148.7 314.1 C 152.0 314.5 153.8 317.4 155.3 320.0 C 155.4 328.4 155.3 336.9 155.3 345.3 C 152.8 345.3 150.3 345.3 147.7 345.3 C 147.6 337.8 148.0 330.3 147.4 322.8 C 146.7 322.0 145.9 321.3 145.2 320.5 C 141.3 320.1 137.3 320.1 133.4 320.5 C 132.5 321.8 131.2 323.1 131.1 324.9 C 130.7 331.7 131.3 338.5 130.8 345.4 C 128.3 345.3 125.8 345.3 123.3 345.3 C 123.4 338.0 123.3 330.7 123.4 323.4 C 122.0 322.2 120.9 320.4 118.9 320.3 C 114.8 320.1 110.7 320.3 106.5 320.2 C 106.6 328.6 106.5 336.9 106.6 345.3 C 104.1 345.3 101.7 345.3 99.2 345.4 C 98.7 339.9 98.9 334.5 98.9 329.0 Z" transform="matrix(0.9999999999999999, 0, 0, 0.9999999999999999, 0, -1.7763568394002505e-15)"/>
  <path fill="#ffffff" stroke="#ffffff" stroke-width="0.09375" opacity="1.00" d=" M 165.5 314.6 C 168.5 313.4 171.8 313.7 175.0 313.7 C 181.0 313.7 187.0 313.6 193.0 313.7 C 195.7 313.6 198.2 315.2 199.4 317.6 C 200.2 321.1 200.2 324.9 199.4 328.4 C 198.2 331.3 194.9 332.2 192.0 332.2 C 185.2 332.3 178.4 332.2 171.6 332.2 C 171.6 330.5 171.5 328.9 171.5 327.2 C 178.8 326.4 186.2 327.3 193.5 326.6 C 193.6 324.5 193.6 322.5 193.5 320.5 C 185.8 320.1 178.1 320.0 170.4 320.6 L 170.4 321.1 C 169.5 322.3 168.4 323.5 168.4 325.1 C 168.1 328.8 168.3 332.6 168.5 336.4 C 170.1 337.6 171.7 339.0 173.9 338.8 C 182.5 338.9 191.2 338.8 199.8 338.8 C 199.9 341.0 199.9 343.2 199.8 345.4 C 189.5 345.2 179.3 345.4 169.0 345.3 C 164.7 345.3 160.9 341.5 160.8 337.2 C 160.6 331.5 160.8 325.7 160.7 320.0 C 162.0 317.9 163.2 315.6 165.5 314.6 Z" transform="matrix(0.9999999999999999, 0, 0, 0.9999999999999999, 0, -1.7763568394002505e-15)"/>
  <path fill="#ffffff" stroke="#ffffff" stroke-width="0.09375" opacity="1.00" d=" M 215.3 320.9 C 215.6 316.7 219.8 313.5 223.9 313.7 C 231.6 313.6 239.3 313.7 247.0 313.7 C 249.0 315.0 251.5 316.4 251.6 319.0 C 251.7 323.0 251.8 327.0 251.5 331.0 C 250.7 333.7 247.9 335.8 245.1 335.6 C 239.2 335.7 233.4 335.5 227.6 335.7 C 227.6 333.9 227.6 332.1 227.6 330.4 C 233.5 330.3 239.4 330.7 245.2 330.2 C 245.7 327.0 245.4 323.7 245.4 320.5 C 238.6 320.1 231.7 319.9 225.0 320.6 C 224.2 321.7 223.4 322.7 222.6 323.8 C 222.5 331.0 222.5 338.2 222.6 345.3 C 220.2 345.3 217.7 345.3 215.3 345.4 C 215.4 337.2 215.2 329.1 215.3 320.9 Z" transform="matrix(0.9999999999999999, 0, 0, 0.9999999999999999, 0, -1.7763568394002505e-15)"/>
  <path fill="#ffffff" stroke="#ffffff" stroke-width="0.09375" opacity="1.00" d=" M 257.4 320.9 C 257.7 316.7 261.9 313.7 265.9 313.7 C 274.4 313.6 282.9 313.8 291.3 313.6 C 293.6 314.3 296.0 315.2 297.4 317.3 C 299.1 319.5 298.6 322.4 298.7 325.0 C 298.6 330.3 299.0 335.7 298.3 340.9 C 297.0 342.1 295.9 343.4 294.4 344.4 C 291.8 345.6 288.8 345.3 286.0 345.4 C 279.3 345.3 272.6 345.4 266.0 345.3 C 262.8 345.3 259.5 343.8 258.2 340.7 C 257.0 338.7 257.4 336.2 257.3 334.0 C 257.4 329.6 257.2 325.3 257.4 320.9 M 265.5 321.7 C 265.6 322.1 265.7 323.0 265.7 323.4 L 264.6 323.4 C 264.7 327.4 264.7 331.4 264.6 335.4 C 266.0 336.6 267.1 338.8 269.2 338.7 C 273.5 339.0 277.7 338.8 282.0 338.8 C 284.1 338.8 286.3 339.0 288.4 338.4 C 289.5 337.6 290.4 336.5 291.4 335.6 C 291.4 331.5 291.4 327.5 291.4 323.4 C 290.4 322.4 289.5 321.4 288.3 320.6 C 285.3 319.9 282.1 320.3 279.0 320.2 C 274.5 320.4 269.7 319.4 265.5 321.7 Z" transform="matrix(0.9999999999999999, 0, 0, 0.9999999999999999, 0, -1.7763568394002505e-15)"/>
  <path fill="#ffffff" stroke="#ffffff" stroke-width="0.09375" opacity="1.00" d=" M 308.8 314.5 C 311.2 314.0 313.6 313.6 316.0 313.7 C 323.5 313.7 330.9 313.7 338.4 313.7 C 338.4 315.9 338.4 318.1 338.3 320.3 C 330.4 320.3 322.4 320.0 314.5 320.5 C 313.5 321.8 312.3 323.1 311.8 324.7 C 311.7 327.5 311.9 330.3 311.8 333.1 C 311.5 335.4 313.3 336.9 314.5 338.6 C 322.5 339.3 330.5 338.3 338.4 339.2 C 338.4 341.3 338.4 343.3 338.3 345.3 C 330.2 345.3 322.1 345.3 314.0 345.3 C 311.0 345.4 307.5 344.4 305.9 341.7 C 303.8 338.9 304.7 335.2 304.5 332.0 C 304.7 327.6 304.0 323.2 305.1 318.9 C 305.2 318.7 305.2 318.2 305.2 317.9 C 306.4 316.8 307.6 315.6 308.8 314.5 Z" transform="matrix(0.9999999999999999, 0, 0, 0.9999999999999999, 0, -1.7763568394002505e-15)"/>
  <path fill="#ffffff" stroke="#ffffff" stroke-width="0.09375" opacity="1.00" d=" M 365.4 331.4 C 368.8 325.5 372.1 319.5 375.7 313.6 C 379.3 313.7 382.8 313.7 386.3 313.7 C 385.5 315.0 384.7 316.4 383.9 317.8 C 380.7 323.2 377.7 328.7 374.4 334.1 C 377.1 337.8 379.9 341.5 382.5 345.3 C 379.0 345.3 375.5 345.3 372.0 345.4 C 370.0 342.6 368.0 339.9 366.0 337.1 C 362.8 337.1 359.6 337.1 356.3 337.1 C 356.3 335.2 356.3 333.2 356.2 331.3 C 359.3 331.4 362.3 331.4 365.4 331.4 Z" transform="matrix(0.9999999999999999, 0, 0, 0.9999999999999999, 0, -1.7763568394002505e-15)"/>
  <path fill="#ffffff" stroke="#ffffff" stroke-width="0.09375" opacity="1.00" d=" M 386.5 320.0 C 387.3 316.2 391.1 313.6 395.0 313.7 C 402.7 313.6 410.4 313.6 418.1 313.7 C 421.3 313.6 424.7 315.6 425.3 318.9 C 425.7 322.0 425.7 325.1 424.9 328.1 C 424.9 328.3 424.8 328.8 424.7 329.1 C 422.9 330.9 420.7 332.3 418.0 332.2 C 411.1 332.3 404.1 332.2 397.2 332.3 C 397.1 330.4 397.1 328.6 397.2 326.8 C 403.1 326.8 409.1 326.9 415.0 326.8 C 416.5 326.9 418.0 326.4 419.3 325.8 C 419.3 324.7 419.4 322.5 419.4 321.4 C 417.2 319.8 414.5 320.3 412.0 320.2 C 407.4 320.3 402.7 320.1 398.1 320.4 C 396.0 320.3 395.0 322.4 393.6 323.6 C 393.7 327.5 393.6 331.4 393.6 335.3 C 394.5 336.3 395.5 337.4 396.4 338.5 C 406.0 339.2 415.8 338.6 425.5 338.8 C 425.5 341.0 425.5 343.2 425.5 345.3 C 415.3 345.3 405.1 345.4 394.9 345.3 C 392.0 345.4 389.4 343.8 387.4 341.8 C 385.9 338.4 386.4 334.6 386.3 331.0 C 386.4 327.4 386.2 323.7 386.5 320.0 Z" transform="matrix(0.9999999999999999, 0, 0, 0.9999999999999999, 0, -1.7763568394002505e-15)"/>
  <path fill="#ffffff" stroke="#ffffff" stroke-width="0.09375" opacity="1.00" d=" M 469.4 314.5 C 471.8 313.4 474.4 313.7 477.0 313.6 C 484.1 313.7 491.2 313.6 498.3 313.7 C 498.3 315.9 498.3 318.1 498.3 320.3 C 490.5 320.4 482.6 320.0 474.7 320.5 C 474.0 321.2 473.2 321.9 472.4 322.6 C 472.0 326.4 471.8 330.3 472.1 334.1 C 472.1 335.9 473.5 337.2 474.4 338.6 C 482.4 339.0 490.3 338.7 498.3 338.8 C 498.3 341.0 498.3 343.1 498.3 345.3 C 489.9 345.3 481.4 345.4 473.0 345.3 C 468.8 345.3 464.7 342.2 464.5 337.9 C 464.4 332.6 464.4 327.3 464.5 321.9 C 464.4 318.8 466.4 315.7 469.4 314.5 Z" transform="matrix(0.9999999999999999, 0, 0, 0.9999999999999999, 0, -1.7763568394002505e-15)"/>
  <path fill="#ffffff" stroke="#ffffff" stroke-width="0.09375" opacity="1.00" d=" M 503.6 318.3 C 505.1 315.1 508.7 313.5 512.0 313.7 C 519.7 313.7 527.3 313.7 535.0 313.7 C 539.6 313.3 544.2 317.2 544.3 321.9 C 544.4 327.6 544.3 333.3 544.3 339.0 C 543.1 341.0 541.9 343.4 539.6 344.4 C 537.3 345.6 534.5 345.3 532.0 345.4 C 525.0 345.3 518.0 345.4 510.9 345.3 C 507.8 345.4 505.2 343.3 503.3 341.0 C 502.1 336.1 502.7 331.0 502.6 326.0 C 502.6 323.4 502.3 320.7 503.6 318.3 M 512.8 320.5 C 512.0 321.3 511.3 322.0 510.5 322.8 C 510.1 327.3 510.1 331.8 510.5 336.2 C 511.3 337.0 512.0 337.7 512.8 338.5 C 519.9 339.0 527.0 339.0 534.1 338.5 C 534.9 337.7 535.6 336.9 536.4 336.1 C 536.8 331.6 536.7 326.9 536.4 322.3 L 535.4 322.7 L 535.5 321.5 L 534.4 321.5 L 534.6 320.6 C 527.3 320.1 520.1 320.1 512.8 320.5 Z" transform="matrix(0.9999999999999999, 0, 0, 0.9999999999999999, 0, -1.7763568394002505e-15)"/>
  <path fill="#ffffff" stroke="#ffffff" stroke-width="0.09375" opacity="1.00" d=" M 548.9 329.0 C 548.9 323.9 548.6 318.7 549.2 313.6 C 558.5 314.1 567.9 312.8 577.0 314.6 C 583.6 313.2 590.4 313.7 597.1 313.7 C 601.4 313.8 605.2 317.6 605.3 321.9 C 605.4 329.7 605.3 337.5 605.4 345.3 C 602.8 345.3 600.2 345.3 597.7 345.3 C 597.6 337.7 597.9 330.0 597.4 322.4 L 596.9 322.5 C 596.0 321.7 595.3 320.5 594.0 320.4 C 590.5 320.1 586.9 320.3 583.5 320.5 C 582.5 321.8 581.1 323.0 581.1 324.9 C 580.8 331.7 581.4 338.6 580.8 345.4 C 578.3 345.3 575.8 345.3 573.4 345.4 C 573.5 338.1 573.4 330.8 573.4 323.5 C 572.0 322.3 571.0 320.3 568.9 320.4 C 564.8 320.1 560.6 320.3 556.4 320.3 C 556.5 328.6 556.4 337.0 556.5 345.3 C 554.1 345.3 551.7 345.3 549.2 345.4 C 548.6 340.0 548.9 334.5 548.9 329.0 Z" transform="matrix(0.9999999999999999, 0, 0, 0.9999999999999999, 0, -1.7763568394002505e-15)"/>
  <path fill="#ffffff" stroke="#ffffff" stroke-width="0.09375" opacity="1.00" d=" M 610.3 321.1 C 610.5 316.8 614.8 313.5 618.9 313.7 C 627.0 313.6 635.0 313.7 643.0 313.7 C 646.5 313.4 649.9 315.5 651.4 318.6 C 652.7 322.3 652.1 326.2 652.2 330.0 C 652.2 333.5 652.6 337.0 651.4 340.4 C 650.1 343.1 647.2 345.3 644.1 345.3 C 636.6 345.4 629.1 345.3 621.6 345.3 C 621.7 343.2 621.7 341.0 621.7 338.8 C 627.8 338.7 634.0 338.9 640.1 338.7 C 641.9 338.7 643.0 337.2 644.4 336.3 C 644.5 332.2 644.8 328.1 644.4 324.1 C 643.9 322.8 643.1 321.7 642.4 320.5 C 635.6 320.1 628.8 320.2 622.0 320.4 C 620.0 320.3 619.0 322.4 617.6 323.6 C 617.8 332.3 617.5 341.1 617.8 349.8 C 615.2 349.7 612.6 349.7 610.0 349.7 C 610.2 340.1 609.7 330.6 610.3 321.1 Z" transform="matrix(0.9999999999999999, 0, 0, 0.9999999999999999, 0, -1.7763568394002505e-15)"/>
  <path fill="#ffffff" stroke="#ffffff" stroke-width="0.09375" opacity="1.00" d=" M 656.6 313.7 C 659.2 313.7 661.8 313.7 664.4 313.7 C 664.4 321.1 664.2 328.6 664.5 336.1 C 665.3 336.9 666.1 337.7 666.9 338.5 C 673.1 339.0 679.4 338.8 685.6 338.6 C 686.8 336.9 688.6 335.3 688.3 333.1 C 688.4 326.6 688.4 320.1 688.3 313.6 C 690.8 313.7 693.2 313.7 695.7 313.6 C 695.3 322.7 696.1 331.9 695.3 340.9 C 693.2 342.9 691.1 345.3 688.1 345.3 C 680.4 345.4 672.6 345.4 664.9 345.3 C 660.6 345.3 656.7 341.4 656.7 337.1 C 656.5 329.3 656.7 321.5 656.6 313.7 Z" transform="matrix(0.9999999999999999, 0, 0, 0.9999999999999999, 0, -1.7763568394002505e-15)"/>
  <path fill="#ffffff" stroke="#ffffff" stroke-width="0.09375" opacity="1.00" d=" M 727.8 314.5 C 730.2 313.9 732.6 313.6 735.0 313.6 C 742.0 313.7 749.0 313.6 756.1 313.7 C 758.6 313.6 760.5 315.4 762.3 317.0 C 762.8 320.6 763.2 324.3 762.3 327.9 C 761.4 330.5 758.7 332.2 756.0 332.2 C 748.8 332.4 741.6 332.2 734.4 332.3 C 734.4 330.4 734.4 328.6 734.4 326.8 C 739.9 326.8 745.5 326.8 751.0 326.8 C 752.8 326.8 754.7 327.0 756.2 326.0 C 756.4 324.3 756.4 322.4 756.4 320.6 C 748.9 320.0 741.3 320.3 733.8 320.5 C 733.0 321.2 732.2 322.0 731.5 322.7 C 731.1 327.2 731.1 331.8 731.5 336.3 C 732.2 337.0 733.0 337.8 733.7 338.5 C 743.4 339.0 753.1 338.7 762.7 338.7 C 762.8 340.9 762.8 343.2 762.8 345.4 C 753.2 345.3 743.6 345.4 734.0 345.4 C 731.9 345.4 729.8 345.0 727.8 344.6 C 726.1 343.0 724.2 341.4 723.7 339.0 C 723.3 336.0 723.5 333.0 723.5 330.0 C 723.6 326.0 723.1 321.8 724.3 317.9 C 725.5 316.8 726.7 315.6 727.8 314.5 Z" transform="matrix(0.9999999999999999, 0, 0, 0.9999999999999999, 0, -1.7763568394002505e-15)"/>
  <path fill="#ffffff" stroke="#ffffff" stroke-width="0.09375" opacity="1.00" d=" M 772.9 314.5 C 777.1 313.3 781.4 313.7 785.7 313.6 C 785.7 315.8 785.7 318.1 785.7 320.3 C 783.4 320.3 781.1 320.3 778.8 320.5 C 778.0 321.3 777.3 322.0 776.5 322.8 C 776.0 330.3 776.3 337.8 776.3 345.3 C 773.7 345.4 771.1 345.4 768.5 345.4 C 768.5 339.9 768.5 334.5 768.5 329.0 C 768.5 325.3 768.3 321.6 769.3 318.0 C 770.5 316.9 771.7 315.7 772.9 314.5 Z" transform="matrix(0.9999999999999999, 0, 0, 0.9999999999999999, 0, -1.7763568394002505e-15)"/>
</svg>