<?xml version="1.0" encoding="utf-8"?>
<svg version="1.1" id="Layer_1" x="0px" y="0px" enable-background="new -1 -1 568.929 116.145" xmlns="http://www.w3.org/2000/svg">
  <g transform="matrix(0.44, 0, 0, 0.44044, 0, 0)">
    <path id="path16" d="M 332.787 4.932 L 324.306 30.762 L 328.494 30.762 L 336.99 5.82 C 337.299 4.68 338.229 3.846 339.324 3.846 C 340.431 3.846 341.361 4.68 341.67 5.82 L 348.852 26.919 L 337.584 26.919 L 337.584 30.762 L 354.354 30.762 L 345.873 4.932 C 345.06 2.082 342.435 0 339.324 0 C 336.222 0 333.6 2.082 332.787 4.932 Z M 337.752 20.973 L 339.237 16.566 L 340.785 20.973 L 337.752 20.973 Z M 337.14 8.325 L 329.544 30.762 L 334.44 30.762 L 337.581 21.462 L 337.581 25.86 L 347.445 25.86 L 341.589 8.325 C 341.289 7.35 340.404 4.542 339.36 4.542 C 338.313 4.542 337.425 7.347 337.14 8.325 L 337.14 8.325 Z M 310.329 4.896 L 325.005 4.896 L 325.005 0.699 L 309.978 0.699 C 305.925 0.699 302.64 3.993 302.64 8.046 L 302.64 23.427 C 302.64 27.48 305.925 30.765 309.978 30.765 L 325.005 30.765 L 325.005 11.181 L 313.125 11.181 L 313.125 15.027 L 320.808 15.027 L 320.808 26.562 L 310.329 26.562 C 308.394 26.562 306.837 24.999 306.837 23.07 L 306.837 8.385 C 306.837 6.462 308.394 4.896 310.329 4.896 Z M 313.125 16.077 L 313.125 20.277 L 315.567 20.277 L 315.567 21.324 L 313.125 21.324 C 312.546 21.324 312.075 20.853 312.075 20.277 L 312.075 11.184 C 312.075 10.605 312.546 10.134 313.125 10.134 L 325.005 10.134 L 325.005 5.943 L 311.379 5.943 C 309.444 5.943 307.875 7.509 307.875 9.438 L 307.875 22.023 C 307.875 23.949 309.444 25.515 311.379 25.515 L 319.767 25.515 L 319.767 16.077 L 313.125 16.077 L 313.125 16.077 Z M 286.218 4.896 L 300.894 4.896 L 300.894 0.699 L 285.864 0.699 C 281.811 0.699 278.529 3.993 278.529 8.046 L 278.529 23.256 C 278.529 27.306 281.811 30.6 285.864 30.6 L 300.894 30.6 L 300.894 26.403 L 286.218 26.403 C 284.289 26.403 282.723 24.84 282.723 22.911 L 282.723 8.388 C 282.723 6.462 284.289 4.896 286.218 4.896 L 286.218 4.896 Z M 297.744 15.027 L 297.744 11.184 L 287.961 11.184 C 287.961 10.605 288.432 10.134 289.011 10.134 L 300.891 10.134 L 300.891 5.943 L 287.265 5.943 C 285.339 5.943 283.776 7.509 283.776 9.438 L 283.776 15.027 L 297.744 15.027 L 297.744 15.027 Z M 297.744 16.431 L 297.744 20.274 L 287.961 20.274 C 287.961 20.853 288.432 21.324 289.011 21.324 L 300.891 21.324 L 300.891 25.512 L 287.265 25.512 C 285.339 25.512 283.776 23.949 283.776 22.017 L 283.776 16.428 L 297.744 16.431 L 297.744 16.431 Z M 261.834 21.669 L 253.02 21.669 L 253.02 25.515 L 266.472 25.515 L 266.646 25.515 C 269.169 25.422 271.188 23.343 271.188 20.799 C 271.188 18.195 269.079 16.077 266.472 16.077 L 261.171 16.077 C 259.029 15.261 257.208 13.134 257.208 10.656 C 257.208 7.47 260.142 4.89 263.325 4.89 L 276.435 4.89 L 276.435 0.696 L 262.8 0.696 C 257.4 0.696 253.02 5.085 253.02 10.485 C 253.02 15.894 257.751 20.274 263.151 20.274 L 263.151 20.229 L 263.178 20.274 L 266.301 20.274 C 266.679 20.274 266.997 20.583 266.997 20.973 C 266.997 21.36 266.679 21.669 266.301 21.669 L 261.834 21.669 L 261.834 21.669 Z M 267.615 9.789 L 276.438 9.789 L 276.438 5.943 L 262.983 5.943 L 262.803 5.943 C 260.277 6.033 258.261 8.115 258.261 10.659 C 258.261 13.272 260.376 15.384 262.986 15.384 L 268.287 15.384 C 270.432 16.206 272.241 18.324 272.241 20.802 C 272.241 23.988 269.31 26.568 266.124 26.568 L 253.023 26.568 L 253.023 30.765 L 266.649 30.765 C 272.052 30.765 276.438 26.385 276.438 20.976 C 276.438 15.576 271.707 11.187 266.304 11.187 L 266.304 11.241 L 266.271 11.187 L 263.157 11.187 C 262.767 11.187 262.458 10.881 262.458 10.491 C 262.458 10.113 262.767 9.795 263.157 9.795 L 267.615 9.789 L 267.615 9.789 Z" style="fill-opacity: 1; fill: rgb(255, 253, 253);"/>
    <polygon id="polygon37" points="274.776 45.312 274.776 107.346 253.887 107.346 253.887 84.429 213.855 61.647 213.855 107.346 192.966 107.346 192.966 45.312 214.725 45.312 253.887 67.593 253.887 45.312" style="fill-opacity: 1; fill: rgb(255, 253, 253);"/>
    <rect id="rect58" x="479.967" y="45.012" width="21.714" height="62.43" style="fill-opacity: 1; fill: rgb(255, 253, 253);"/>
    <polygon id="polygon79" points="346.413 57.498 310.74 57.498 310.74 69.984 353.547 69.984 333.033 82.47 310.74 82.47 310.74 94.956 368.709 94.956 348.195 107.442 289.335 107.442 289.335 59.283 310.74 45.012 366.924 45.012" style="fill-opacity: 1; fill: rgb(255, 253, 253);"/>
    <polygon id="polygon100" points="156.747 57.732 121.275 57.732 121.275 70.143 163.842 70.143 143.445 82.563 121.275 82.563 121.275 94.977 178.92 94.977 158.52 107.394 99.99 107.394 99.99 59.505 121.275 45.312 177.147 45.312" style="fill-opacity: 1; fill: rgb(255, 253, 253);"/>
    <polygon id="polygon121" points="0 59.508 21.291 45.312 86.055 45.312 65.649 57.738 21.291 57.738 21.291 94.995 61.215 94.995 61.215 79.914 36.375 79.914 56.778 67.494 82.509 67.494 82.509 93.222 61.215 107.418 0 107.418" style="fill-opacity: 1; fill: rgb(255, 253, 253);"/>
    <polygon points="466.698 94.776 445.887 107.442 381.648 107.442 402.459 94.776 443.172 94.776 443.172 82.11 381.648 82.11 381.648 57.681 402.459 45.012 467.604 45.012 446.793 57.681 404.268 57.681 404.268 69.441 466.698 69.441" id="polygon170" style="fill-opacity: 1; fill: rgb(255, 253, 253);"/>
    <polygon id="polygon142" points="443.172 94.776 443.172 82.11 381.648 82.11 381.648 57.681 402.459 45.012 467.604 45.012 446.793 57.681 404.268 57.681 404.268 69.441 466.698 69.441 466.698 94.776 445.887 107.442 381.648 107.442 402.459 94.776" style="fill-opacity: 1; fill: rgb(255, 253, 253);"/>
    <polygon points="599.097 94.776 578.286 107.442 514.047 107.442 534.858 94.776 575.574 94.776 575.574 82.11 514.047 82.11 514.047 57.681 534.858 45.012 600 45.012 579.192 57.681 536.667 57.681 536.667 69.441 599.097 69.441" id="polygon202" style="fill-opacity: 1; fill: rgb(255, 253, 253);"/>
    <polygon id="polygon163" points="575.574 94.776 575.574 82.11 514.047 82.11 514.047 57.681 534.858 45.012 600 45.012 579.192 57.681 536.667 57.681 536.667 69.441 599.097 69.441 599.097 94.776 578.286 107.442 514.047 107.442 534.858 94.776" style="fill-opacity: 1; fill: rgb(255, 253, 253);"/>
  </g>
  <path d="M 83.596 61.815 L 81.132 61.815 L 81.132 59.089 L 79.284 59.089 L 79.284 61.815 L 76.82 61.815 L 76.82 54.107 L 79.284 54.107 L 79.284 56.834 L 81.132 56.834 L 81.132 54.107 L 83.596 54.107 L 83.596 61.815 Z M 86.949 60.595 L 86.663 61.815 L 84.062 61.815 L 86.06 54.107 L 89.866 54.107 L 91.864 61.815 L 89.263 61.815 L 88.982 60.595 L 86.949 60.595 Z M 88.031 56.476 L 87.895 56.476 L 87.389 58.635 L 88.524 58.635 L 88.031 56.476 Z M 97.443 59.609 L 97.628 61.679 C 97.112 61.893 96.464 62 95.683 62 C 94.903 62 94.277 61.918 93.804 61.754 C 93.332 61.589 92.96 61.33 92.687 60.978 C 92.417 60.623 92.228 60.207 92.119 59.732 C 92.014 59.253 91.961 58.665 91.961 57.966 C 91.961 57.266 92.014 56.678 92.119 56.199 C 92.228 55.718 92.417 55.299 92.687 54.944 C 93.212 54.262 94.177 53.922 95.582 53.922 C 95.896 53.922 96.264 53.953 96.686 54.015 C 97.109 54.076 97.423 54.152 97.628 54.244 L 97.258 56.129 C 96.725 56.014 96.236 55.957 95.793 55.957 C 95.351 55.957 95.043 55.998 94.869 56.08 C 94.696 56.163 94.61 56.327 94.61 56.574 L 94.61 59.807 C 94.93 59.871 95.254 59.904 95.582 59.904 C 96.28 59.904 96.901 59.805 97.443 59.609 Z M 101.003 58.458 L 100.954 58.458 L 100.954 61.815 L 98.49 61.815 L 98.49 54.107 L 100.954 54.107 L 100.954 57.252 L 101.003 57.252 C 101.02 57.005 101.061 56.809 101.126 56.662 L 102.336 54.107 L 104.994 54.107 L 103.146 57.895 L 105.055 61.815 L 102.398 61.815 L 101.126 59.053 C 101.061 58.904 101.02 58.706 101.003 58.458 Z M 105.488 61.679 L 105.831 59.644 C 106.588 59.834 107.268 59.93 107.873 59.93 C 108.477 59.93 108.964 59.905 109.333 59.855 L 109.333 59.238 L 108.225 59.137 C 107.221 59.049 106.534 58.81 106.161 58.419 C 105.786 58.028 105.598 57.45 105.598 56.684 C 105.598 55.633 105.827 54.909 106.284 54.513 C 106.739 54.119 107.512 53.922 108.603 53.922 C 109.697 53.922 110.683 54.025 111.56 54.23 L 111.252 56.204 C 110.489 56.08 109.878 56.019 109.417 56.019 C 108.956 56.019 108.566 56.039 108.247 56.08 L 108.247 56.684 L 109.135 56.772 C 110.212 56.878 110.956 57.134 111.366 57.543 C 111.777 57.948 111.982 58.513 111.982 59.238 C 111.982 59.755 111.912 60.193 111.771 60.551 C 111.63 60.909 111.464 61.181 111.274 61.365 C 111.08 61.551 110.806 61.692 110.451 61.789 C 110.099 61.889 109.79 61.948 109.523 61.969 C 109.256 61.99 108.901 62 108.458 62 C 107.39 62 106.4 61.893 105.488 61.679 Z M 116.934 58.855 L 115.025 58.855 L 115.025 57.08 L 116.934 57.08 L 116.934 55.169 L 118.708 55.169 L 118.708 57.08 L 120.63 57.08 L 120.63 58.855 L 118.708 58.855 L 118.708 60.78 L 116.934 60.78 L 116.934 58.855 Z M 130.768 61.815 L 128.304 61.815 L 128.304 59.089 L 126.456 59.089 L 126.456 61.815 L 123.992 61.815 L 123.992 54.107 L 126.456 54.107 L 126.456 56.834 L 128.304 56.834 L 128.304 54.107 L 130.768 54.107 L 130.768 61.815 Z M 131.63 57.966 C 131.63 56.562 131.892 55.538 132.417 54.891 C 132.942 54.245 133.891 53.922 135.264 53.922 C 136.637 53.922 137.586 54.245 138.111 54.891 C 138.636 55.538 138.898 56.562 138.898 57.966 C 138.898 58.665 138.842 59.253 138.731 59.732 C 138.62 60.207 138.429 60.623 138.159 60.978 C 137.889 61.33 137.515 61.589 137.037 61.754 C 136.562 61.918 135.971 62 135.264 62 C 134.557 62 133.966 61.918 133.491 61.754 C 133.012 61.589 132.638 61.33 132.369 60.978 C 132.099 60.623 131.908 60.207 131.797 59.732 C 131.685 59.253 131.63 58.665 131.63 57.966 Z M 134.278 56.684 L 134.278 59.89 L 135.299 59.89 C 135.637 59.89 135.881 59.852 136.034 59.776 C 136.187 59.697 136.263 59.518 136.263 59.238 L 136.263 56.032 L 135.229 56.032 C 134.9 56.032 134.66 56.07 134.507 56.146 C 134.354 56.226 134.278 56.405 134.278 56.684 Z M 142.176 58.08 L 142.026 61.815 L 139.452 61.815 L 139.919 54.107 L 143.135 54.107 L 144.099 58.027 L 144.182 58.027 L 145.146 54.107 L 148.358 54.107 L 148.829 61.815 L 146.255 61.815 L 146.105 58.08 L 146.017 58.08 L 145.084 61.815 L 143.197 61.815 L 142.251 58.08 L 142.176 58.08 Z M 154.679 57.115 L 154.679 58.904 L 152.215 58.904 L 152.215 59.842 L 155.234 59.842 L 155.234 61.815 L 149.751 61.815 L 149.751 54.107 L 155.172 54.107 L 154.864 56.08 L 152.215 56.08 L 152.215 57.115 L 154.679 57.115 Z M 160.703 61.815 L 156.281 61.815 L 156.281 54.107 L 160.271 54.107 C 161.011 54.107 161.539 54.251 161.855 54.539 C 162.172 54.827 162.331 55.246 162.331 55.799 C 162.331 56.347 162.229 56.772 162.027 57.071 C 161.828 57.374 161.559 57.57 161.222 57.658 L 161.222 57.732 C 162.216 57.905 162.713 58.584 162.713 59.767 C 162.713 60.383 162.549 60.88 162.221 61.255 C 161.892 61.629 161.386 61.815 160.703 61.815 Z M 159.704 58.745 L 158.745 58.745 L 158.745 60 L 159.695 60 C 160.038 60 160.21 59.792 160.21 59.375 C 160.21 58.955 160.041 58.745 159.704 58.745 Z M 159.519 55.799 L 158.745 55.799 L 158.745 56.944 L 159.51 56.944 C 159.821 56.944 159.977 56.753 159.977 56.371 C 159.977 55.989 159.824 55.799 159.519 55.799 Z M 168.96 59.251 L 170.288 61.815 L 167.578 61.815 L 166.566 59.521 L 166.038 59.521 L 166.038 61.815 L 163.574 61.815 L 163.574 54.107 L 167.455 54.107 C 169.22 54.107 170.104 55.007 170.104 56.807 C 170.104 58.04 169.722 58.855 168.96 59.251 Z M 166.606 56.08 L 166.038 56.08 L 166.038 57.622 L 166.606 57.622 C 166.902 57.622 167.117 57.592 167.252 57.53 C 167.387 57.467 167.455 57.325 167.455 57.102 L 167.455 56.601 C 167.455 56.376 167.387 56.234 167.252 56.173 C 167.117 56.111 166.902 56.08 166.606 56.08 Z M 176.078 57.115 L 176.078 58.904 L 173.614 58.904 L 173.614 59.842 L 176.633 59.842 L 176.633 61.815 L 171.15 61.815 L 171.15 54.107 L 176.571 54.107 L 176.263 56.08 L 173.614 56.08 L 173.614 57.115 L 176.078 57.115 Z M 184.011 58.41 L 184.605 54.107 L 187.179 54.107 L 185.969 61.815 L 182.757 61.815 L 182.189 58.979 L 182.04 58.979 L 181.485 61.815 L 178.269 61.815 L 177.063 54.107 L 179.637 54.107 L 180.218 58.41 L 180.293 58.41 L 181.177 54.107 L 183.065 54.107 L 183.936 58.41 L 184.011 58.41 Z" style="fill: rgb(255, 255, 255); white-space: pre;"/>
</svg>