<?xml version="1.0" encoding="UTF-8" standalone="no"?><!-- Generator: Gravit.io --><svg xmlns="http://www.w3.org/2000/svg" xmlns:xlink="http://www.w3.org/1999/xlink" style="isolation:isolate" viewBox="0 0 264 69.5" width="264pt" height="69.5pt"><defs><clipPath id="_clipPath_tsKlPQYdmNwolpcD2LTjTkPsiKHnLXvZ"><rect width="264" height="69.5"/></clipPath></defs><g clip-path="url(#_clipPath_tsKlPQYdmNwolpcD2LTjTkPsiKHnLXvZ)"><path d=" M 0 34.704 C 6.479 35.437 12.956 36.171 16.282 35.17 C 19.607 34.17 19.782 31.435 19.956 28.7 C 20.591 26.718 21.527 24.733 22.953 22.745 C 23.433 22.06 23.987 21.429 24.605 20.867 C 25.223 20.303 25.904 19.809 26.631 19.396 C 27.358 18.983 28.134 18.649 28.934 18.405 L 28.934 18.405 L 32.001 17.816 L 35.094 17.385 L 35.094 17.385 C 36.406 17.202 37.741 16.797 39.032 16.124 C 39.648 15.803 40.235 15.434 40.903 14.899 C 41.572 14.363 42.321 13.665 42.986 12.897 C 43.652 12.126 44.235 11.285 44.727 10.395 C 45.218 9.503 45.617 8.562 45.915 7.59 C 46.694 5.433 47.422 3.269 48.102 1.097 C 42.47 -0.315 35.841 -0.324 32.361 0.842 C 28.882 2.009 28.549 4.351 28.23 5.947 C 27.909 7.541 27.603 8.389 27.253 9.22 C 26.904 10.051 26.514 10.866 26.103 11.589 C 25.694 12.312 25.265 12.945 24.771 13.525 C 24.279 14.103 23.72 14.63 23.116 15.092 C 22.481 15.522 21.845 15.952 21.189 16.271 C 19.884 16.913 18.497 17.16 17.138 17.548 C 15.216 17.906 13.254 18.144 11.327 18.707 C 10.373 18.983 9.451 19.374 8.589 19.868 C 7.729 20.36 6.929 20.959 6.211 21.643 C 5.494 22.327 4.862 23.098 4.33 23.932 C 4.018 24.415 3.707 24.898 3.318 25.664 C 2.929 26.429 2.463 27.477 2 28.525 C 1.226 30.569 0.561 32.629 0 34.704 L 0 34.704 L 0 34.704 L 0 34.704 L 0 34.704 L 0 34.704 L 0 34.704 L 0 34.704 L 0 34.704 Z  M 12.12 51.446 C 18.597 52.179 25.076 52.912 28.402 51.912 C 31.728 50.911 31.902 48.178 32.076 45.441 C 32.711 43.46 33.648 41.473 35.075 39.485 C 35.553 38.802 36.107 38.171 36.726 37.608 C 37.343 37.046 38.025 36.552 38.753 36.138 C 39.481 35.723 40.255 35.391 41.056 35.147 L 41.056 35.147 L 44.122 34.558 L 47.215 34.125 L 47.215 34.125 C 48.526 33.945 49.863 33.539 51.154 32.867 C 51.768 32.546 52.355 32.177 53.023 31.641 C 53.691 31.106 54.441 30.406 55.107 29.637 C 55.773 28.867 56.356 28.025 56.847 27.135 C 57.338 26.244 57.737 25.303 58.036 24.332 C 58.814 22.175 59.543 20.01 60.222 17.839 C 54.59 16.426 47.962 16.417 44.481 17.585 C 41.001 18.751 40.668 21.094 40.348 22.688 C 40.029 24.283 39.721 25.13 39.373 25.961 C 39.024 26.792 38.634 27.607 38.223 28.33 C 37.814 29.053 37.384 29.684 36.891 30.265 C 36.399 30.843 35.841 31.37 35.236 31.833 C 34.601 32.264 33.965 32.693 33.309 33.011 C 32.005 33.655 30.617 33.9 29.258 34.289 C 27.335 34.648 25.374 34.885 23.446 35.448 C 22.491 35.725 21.57 36.114 20.709 36.608 C 19.849 37.101 19.048 37.699 18.331 38.385 C 16.714 39.905 15.651 41.886 14.789 43.683 C 13.649 46.25 12.833 48.836 12.12 51.446 L 12.12 51.446 L 12.12 51.446 L 12.12 51.446 L 12.12 51.446 L 12.12 51.446 L 12.12 51.446 L 12.12 51.446 L 12.12 51.446 Z  M 66.62 43.36 L 75.526 43.364 L 82.429 25.607 L 87.001 43.36 L 97.446 43.36 L 92.973 25.559 L 108.962 10.319 L 98.277 10.319 L 83.109 24.056 L 88 10.321 L 78.962 10.319 L 66.62 43.36 L 66.62 43.36 L 66.62 43.36 L 66.62 43.36 L 66.62 43.36 L 66.62 43.36 L 66.62 43.36 L 66.62 43.36 Z  M 125.12 20.826 C 124.637 22.624 124.154 24.423 123.568 26.189 C 122.983 27.955 122.297 29.687 121.61 31.419 C 121.109 32.607 120.42 33.817 119.531 34.931 C 118.941 35.671 118.33 36.184 117.657 36.566 C 116.885 37.004 116.078 37.243 115.29 37.342 C 114.09 37.491 112.861 37.313 111.895 36.872 C 111.367 36.628 110.827 36.259 110.392 35.788 C 109.73 35.057 109.519 34.294 109.477 33.564 C 109.437 32.735 109.535 31.909 109.744 31.107 C 110.73 27.217 112.191 23.348 114.23 19.536 C 114.507 18.984 114.865 18.47 115.288 18.017 C 115.71 17.564 116.2 17.171 116.733 16.858 C 117.83 16.231 118.935 15.952 119.868 15.885 C 121.267 15.814 122.753 15.935 123.948 16.944 C 124.308 17.255 124.608 17.635 124.828 18.058 C 125.049 18.479 125.189 18.942 125.238 19.415 C 125.288 19.887 125.247 20.367 125.12 20.826 L 125.12 20.826 L 125.12 20.826 L 125.12 20.826 L 125.12 20.826 L 125.12 20.826 L 125.12 20.826 L 125.12 20.826 L 125.12 20.826 L 125.12 20.826 Z  M 138.712 43.364 L 147.511 18.682 L 148.313 43.364 L 161.148 43.364 L 173.481 10.319 L 165.083 10.319 L 156.374 34.348 L 155.687 10.319 L 142.379 10.319 L 130.281 43.364 L 138.712 43.364 L 138.712 43.364 L 138.712 43.364 L 138.712 43.364 L 138.712 43.364 L 138.712 43.364 Z  M 188.171 18.123 L 187.725 30.144 L 180.897 30.161 L 188.171 18.123 L 188.171 18.123 L 188.171 18.123 L 188.171 18.123 L 188.171 18.123 L 188.171 18.123 Z  M 224.456 10.325 L 209.686 10.325 L 197.343 43.362 L 205.758 43.362 L 214.896 18.856 L 212.995 43.368 L 221.897 43.368 L 237.579 19.202 L 228.438 43.365 L 237.113 43.365 L 249.516 10.328 L 234.577 10.328 L 221.556 31.651 L 224.456 10.325 L 224.456 10.325 L 224.456 10.325 L 224.456 10.325 Z  M 255.32 10.325 L 242.94 43.366 L 251.5 43.366 L 264 10.325 L 255.32 10.325 L 255.32 10.325 L 255.32 10.325 Z  M 133.839 15.917 C 133.527 15.035 133.065 14.203 132.488 13.46 C 131.91 12.718 131.216 12.065 130.436 11.537 C 129.657 11.009 128.792 10.608 127.804 10.29 C 125.791 9.652 123.417 9.359 121.185 9.405 C 120.051 9.429 118.921 9.539 117.584 9.795 C 116.247 10.049 114.704 10.452 113.256 11.078 C 111.809 11.703 110.454 12.553 109.263 13.584 C 108.072 14.613 107.043 15.823 106.285 16.876 C 105.527 17.928 105.039 18.822 104.572 19.725 C 104.106 20.628 103.658 21.537 103.249 22.465 C 102.461 24.299 101.731 26.076 101.161 27.797 C 100.89 28.651 100.679 29.523 100.526 30.406 C 100.373 31.288 100.279 32.181 100.234 32.851 C 100.188 33.52 100.189 33.966 100.214 34.413 C 100.237 34.857 100.28 35.302 100.339 35.745 C 100.395 36.191 100.467 36.634 100.716 37.347 C 100.966 38.061 101.392 39.041 101.991 39.912 C 102.59 40.782 103.361 41.538 104.24 42.135 C 105.121 42.731 106.108 43.167 107.233 43.484 C 109.511 44.116 112.189 44.303 114.699 44.154 C 115.97 44.076 117.235 43.906 118.619 43.554 C 120.004 43.2 121.506 42.66 122.889 41.901 C 124.274 41.142 125.539 40.163 126.617 39.017 C 127.696 37.872 128.589 36.559 129.372 35.119 C 130.155 33.679 130.828 32.113 131.469 30.537 C 132.108 28.96 132.717 27.373 133.139 26.194 C 133.562 25.016 133.799 24.246 133.979 23.462 C 134.16 22.678 134.284 21.882 134.356 21.079 C 134.504 19.497 134.455 17.7 133.839 15.917 L 133.839 15.917 L 133.839 15.917 L 133.839 15.917 L 133.839 15.917 L 133.839 15.917 L 133.839 15.917 L 133.839 15.917 L 133.839 15.917 L 133.839 15.917 Z  M 187.328 36.798 L 187.142 43.368 L 195.786 43.368 L 196.375 10.316 L 184.75 10.316 L 163.046 43.365 L 172.02 43.365 L 176.503 36.818 L 187.328 36.798 L 187.328 36.798 L 187.328 36.798 L 187.328 36.798 L 187.328 36.798 L 187.328 36.798 Z  M 146.873 62.545 L 146.873 62.545 Q 145.573 62.545 144.514 61.927 L 144.514 61.927 L 144.514 61.927 Q 143.454 61.31 142.837 60.237 L 142.837 60.237 L 142.837 60.237 Q 142.219 59.165 142.219 57.865 L 142.219 57.865 L 142.219 57.865 Q 142.219 56.539 142.817 55.473 L 142.817 55.473 L 142.817 55.473 Q 143.415 54.407 144.455 53.802 L 144.455 53.802 L 144.455 53.802 Q 145.495 53.198 146.795 53.198 L 146.795 53.198 L 146.795 53.198 Q 147.497 53.198 148.173 53.367 L 148.173 53.367 L 148.173 53.367 Q 148.849 53.536 149.33 53.848 L 149.33 53.848 L 148.979 55.863 L 148.979 55.863 Q 148.043 55.512 147.289 55.512 L 147.289 55.512 L 147.289 55.512 Q 146.249 55.512 145.69 56.116 L 145.69 56.116 L 145.69 56.116 Q 145.131 56.721 145.131 57.852 L 145.131 57.852 L 145.131 57.852 Q 145.131 58.957 145.723 59.574 L 145.723 59.574 L 145.723 59.574 Q 146.314 60.192 147.367 60.192 L 147.367 60.192 L 147.367 60.192 Q 147.77 60.192 148.121 60.114 L 148.121 60.114 L 148.121 60.114 Q 148.472 60.036 148.979 59.828 L 148.979 59.828 L 149.343 61.882 L 149.343 61.882 Q 148.212 62.545 146.873 62.545 L 146.873 62.545 L 146.873 62.545 Z  M 157.513 62.337 L 157.513 53.393 L 160.321 53.393 L 160.321 60.361 L 163.428 60.361 L 163.428 62.337 L 157.513 62.337 L 157.513 62.337 Z  M 174.302 59.022 L 176.031 59.022 L 175.186 55.109 L 174.302 59.022 L 174.302 59.022 Z  M 190.363 62.545 L 190.363 62.545 Q 188.53 62.545 187.269 61.869 L 187.269 61.869 L 187.919 59.854 L 187.919 59.854 Q 189.258 60.335 190.311 60.335 L 190.311 60.335 L 190.311 60.335 Q 190.883 60.335 191.15 60.198 L 191.15 60.198 L 191.15 60.198 Q 191.416 60.062 191.416 59.789 L 191.416 59.789 L 191.416 59.789 Q 191.416 59.607 191.273 59.47 L 191.273 59.47 L 191.273 59.47 Q 191.13 59.334 190.701 59.165 L 190.701 59.165 L 190.701 59.165 Q 190.272 58.996 189.414 58.749 L 189.414 58.749 L 189.414 58.749 Q 188.361 58.437 187.776 57.728 L 187.776 57.728 L 187.776 57.728 Q 187.191 57.02 187.191 56.097 L 187.191 56.097 L 187.191 56.097 Q 187.191 54.667 188.134 53.932 L 188.134 53.932 L 188.134 53.932 Q 189.076 53.198 190.675 53.198 L 190.675 53.198 L 190.675 53.198 Q 191.507 53.198 192.313 53.373 L 192.313 53.373 L 192.313 53.373 Q 193.119 53.549 193.743 53.887 L 193.743 53.887 L 193.041 55.85 L 193.041 55.85 Q 192.313 55.603 191.774 55.492 L 191.774 55.492 L 191.774 55.492 Q 191.234 55.382 190.727 55.382 L 190.727 55.382 L 190.727 55.382 Q 189.869 55.382 189.869 55.85 L 189.869 55.85 L 189.869 55.85 Q 189.869 56.084 190.149 56.246 L 190.149 56.246 L 190.149 56.246 Q 190.428 56.409 191.299 56.656 L 191.299 56.656 L 191.299 56.656 Q 192.664 57.02 193.366 57.767 L 193.366 57.767 L 193.366 57.767 Q 194.068 58.515 194.068 59.555 L 194.068 59.555 L 194.068 59.555 Q 194.068 60.998 193.132 61.771 L 193.132 61.771 L 193.132 61.771 Q 192.196 62.545 190.363 62.545 L 190.363 62.545 L 190.363 62.545 Z  M 204.994 62.545 L 204.994 62.545 Q 203.161 62.545 201.9 61.869 L 201.9 61.869 L 202.55 59.854 L 202.55 59.854 Q 203.889 60.335 204.942 60.335 L 204.942 60.335 L 204.942 60.335 Q 205.514 60.335 205.781 60.198 L 205.781 60.198 L 205.781 60.198 Q 206.047 60.062 206.047 59.789 L 206.047 59.789 L 206.047 59.789 Q 206.047 59.607 205.904 59.47 L 205.904 59.47 L 205.904 59.47 Q 205.761 59.334 205.332 59.165 L 205.332 59.165 L 205.332 59.165 Q 204.903 58.996 204.045 58.749 L 204.045 58.749 L 204.045 58.749 Q 202.992 58.437 202.407 57.728 L 202.407 57.728 L 202.407 57.728 Q 201.822 57.02 201.822 56.097 L 201.822 56.097 L 201.822 56.097 Q 201.822 54.667 202.765 53.932 L 202.765 53.932 L 202.765 53.932 Q 203.707 53.198 205.306 53.198 L 205.306 53.198 L 205.306 53.198 Q 206.138 53.198 206.944 53.373 L 206.944 53.373 L 206.944 53.373 Q 207.75 53.549 208.374 53.887 L 208.374 53.887 L 207.672 55.85 L 207.672 55.85 Q 206.944 55.603 206.405 55.492 L 206.405 55.492 L 206.405 55.492 Q 205.865 55.382 205.358 55.382 L 205.358 55.382 L 205.358 55.382 Q 204.5 55.382 204.5 55.85 L 204.5 55.85 L 204.5 55.85 Q 204.5 56.084 204.78 56.246 L 204.78 56.246 L 204.78 56.246 Q 205.059 56.409 205.93 56.656 L 205.93 56.656 L 205.93 56.656 Q 207.295 57.02 207.997 57.767 L 207.997 57.767 L 207.997 57.767 Q 208.699 58.515 208.699 59.555 L 208.699 59.555 L 208.699 59.555 Q 208.699 60.998 207.763 61.771 L 207.763 61.771 L 207.763 61.771 Q 206.827 62.545 204.994 62.545 L 204.994 62.545 L 204.994 62.545 Z  M 216.921 62.337 L 216.921 53.393 L 219.924 53.393 L 219.924 62.337 L 216.921 62.337 L 216.921 62.337 Z  M 232.826 62.545 L 232.826 62.545 Q 231.526 62.545 230.467 61.927 L 230.467 61.927 L 230.467 61.927 Q 229.407 61.31 228.79 60.237 L 228.79 60.237 L 228.79 60.237 Q 228.172 59.165 228.172 57.865 L 228.172 57.865 L 228.172 57.865 Q 228.172 56.539 228.77 55.473 L 228.77 55.473 L 228.77 55.473 Q 229.368 54.407 230.408 53.802 L 230.408 53.802 L 230.408 53.802 Q 231.448 53.198 232.748 53.198 L 232.748 53.198 L 232.748 53.198 Q 233.45 53.198 234.126 53.367 L 234.126 53.367 L 234.126 53.367 Q 234.802 53.536 235.283 53.848 L 235.283 53.848 L 234.932 55.863 L 234.932 55.863 Q 233.996 55.512 233.242 55.512 L 233.242 55.512 L 233.242 55.512 Q 232.202 55.512 231.643 56.116 L 231.643 56.116 L 231.643 56.116 Q 231.084 56.721 231.084 57.852 L 231.084 57.852 L 231.084 57.852 Q 231.084 58.957 231.676 59.574 L 231.676 59.574 L 231.676 59.574 Q 232.267 60.192 233.32 60.192 L 233.32 60.192 L 233.32 60.192 Q 233.723 60.192 234.074 60.114 L 234.074 60.114 L 234.074 60.114 Q 234.425 60.036 234.932 59.828 L 234.932 59.828 L 235.296 61.882 L 235.296 61.882 Q 234.165 62.545 232.826 62.545 L 232.826 62.545 L 232.826 62.545 Z  M 246.235 62.545 L 246.235 62.545 Q 244.402 62.545 243.141 61.869 L 243.141 61.869 L 243.791 59.854 L 243.791 59.854 Q 245.13 60.335 246.183 60.335 L 246.183 60.335 L 246.183 60.335 Q 246.755 60.335 247.022 60.198 L 247.022 60.198 L 247.022 60.198 Q 247.288 60.062 247.288 59.789 L 247.288 59.789 L 247.288 59.789 Q 247.288 59.607 247.145 59.47 L 247.145 59.47 L 247.145 59.47 Q 247.002 59.334 246.573 59.165 L 246.573 59.165 L 246.573 59.165 Q 246.144 58.996 245.286 58.749 L 245.286 58.749 L 245.286 58.749 Q 244.233 58.437 243.648 57.728 L 243.648 57.728 L 243.648 57.728 Q 243.063 57.02 243.063 56.097 L 243.063 56.097 L 243.063 56.097 Q 243.063 54.667 244.006 53.932 L 244.006 53.932 L 244.006 53.932 Q 244.948 53.198 246.547 53.198 L 246.547 53.198 L 246.547 53.198 Q 247.379 53.198 248.185 53.373 L 248.185 53.373 L 248.185 53.373 Q 248.991 53.549 249.615 53.887 L 249.615 53.887 L 248.913 55.85 L 248.913 55.85 Q 248.185 55.603 247.646 55.492 L 247.646 55.492 L 247.646 55.492 Q 247.106 55.382 246.599 55.382 L 246.599 55.382 L 246.599 55.382 Q 245.741 55.382 245.741 55.85 L 245.741 55.85 L 245.741 55.85 Q 245.741 56.084 246.021 56.246 L 246.021 56.246 L 246.021 56.246 Q 246.3 56.409 247.171 56.656 L 247.171 56.656 L 247.171 56.656 Q 248.536 57.02 249.238 57.767 L 249.238 57.767 L 249.238 57.767 Q 249.94 58.515 249.94 59.555 L 249.94 59.555 L 249.94 59.555 Q 249.94 60.998 249.004 61.771 L 249.004 61.771 L 249.004 61.771 Q 248.068 62.545 246.235 62.545 L 246.235 62.545 L 246.235 62.545 Z  M 41.323 59.022 L 43.052 59.022 L 42.207 55.109 L 41.323 59.022 L 41.323 59.022 Z  M 57.462 57.124 L 57.956 57.124 L 57.956 57.124 Q 58.918 57.124 59.315 56.909 L 59.315 56.909 L 59.315 56.909 Q 59.711 56.695 59.711 56.175 L 59.711 56.175 L 59.711 56.175 Q 59.711 55.733 59.386 55.531 L 59.386 55.531 L 59.386 55.531 Q 59.061 55.33 58.359 55.33 L 58.359 55.33 L 57.462 55.33 L 57.462 57.124 L 57.462 57.124 Z  M 74.836 62.545 L 74.836 62.545 Q 73.536 62.545 72.477 61.927 L 72.477 61.927 L 72.477 61.927 Q 71.417 61.31 70.8 60.237 L 70.8 60.237 L 70.8 60.237 Q 70.182 59.165 70.182 57.865 L 70.182 57.865 L 70.182 57.865 Q 70.182 56.539 70.78 55.473 L 70.78 55.473 L 70.78 55.473 Q 71.378 54.407 72.418 53.802 L 72.418 53.802 L 72.418 53.802 Q 73.458 53.198 74.758 53.198 L 74.758 53.198 L 74.758 53.198 Q 75.46 53.198 76.136 53.367 L 76.136 53.367 L 76.136 53.367 Q 76.812 53.536 77.293 53.848 L 77.293 53.848 L 76.942 55.863 L 76.942 55.863 Q 76.006 55.512 75.252 55.512 L 75.252 55.512 L 75.252 55.512 Q 74.212 55.512 73.653 56.116 L 73.653 56.116 L 73.653 56.116 Q 73.094 56.721 73.094 57.852 L 73.094 57.852 L 73.094 57.852 Q 73.094 58.957 73.686 59.574 L 73.686 59.574 L 73.686 59.574 Q 74.277 60.192 75.33 60.192 L 75.33 60.192 L 75.33 60.192 Q 75.733 60.192 76.084 60.114 L 76.084 60.114 L 76.084 60.114 Q 76.435 60.036 76.942 59.828 L 76.942 59.828 L 77.306 61.882 L 77.306 61.882 Q 76.175 62.545 74.836 62.545 L 74.836 62.545 L 74.836 62.545 Z  M 88.271 59.022 L 90 59.022 L 89.155 55.109 L 88.271 59.022 L 88.271 59.022 Z  M 104.436 59.997 L 105.32 59.997 L 105.32 59.997 Q 106.295 59.997 106.809 59.379 L 106.809 59.379 L 106.809 59.379 Q 107.322 58.762 107.322 57.774 L 107.322 57.774 L 107.322 57.774 Q 107.322 56.838 106.822 56.285 L 106.822 56.285 L 106.822 56.285 Q 106.321 55.733 105.32 55.733 L 105.32 55.733 L 104.436 55.733 L 104.436 59.997 L 104.436 59.997 Z  M 118.495 62.337 L 118.495 53.393 L 124.774 53.393 L 124.774 55.369 L 121.654 55.369 L 121.654 56.994 L 124.501 56.994 L 124.501 58.632 L 121.654 58.632 L 121.654 60.361 L 124.774 60.361 L 124.774 62.337 L 118.495 62.337 L 118.495 62.337 Z  M 170.727 62.337 L 173.197 53.393 L 177.149 53.393 L 179.736 62.337 L 176.681 62.337 L 176.343 60.621 L 174.029 60.621 L 173.652 62.337 L 170.727 62.337 L 170.727 62.337 Z  M 37.748 62.337 L 40.218 53.393 L 44.17 53.393 L 46.757 62.337 L 43.702 62.337 L 43.364 60.621 L 41.05 60.621 L 40.673 62.337 L 37.748 62.337 L 37.748 62.337 Z  M 61.388 62.545 L 61.388 62.545 Q 58.944 62.545 58.398 60.283 L 58.398 60.283 L 58.073 58.944 L 57.462 58.944 L 57.462 62.337 L 54.615 62.337 L 54.615 53.393 L 58.554 53.393 L 58.554 53.393 Q 59.672 53.393 60.524 53.724 L 60.524 53.724 L 60.524 53.724 Q 61.375 54.056 61.843 54.654 L 61.843 54.654 L 61.843 54.654 Q 62.311 55.252 62.311 56.032 L 62.311 56.032 L 62.311 56.032 Q 62.311 56.903 61.889 57.494 L 61.889 57.494 L 61.889 57.494 Q 61.466 58.086 60.582 58.463 L 60.582 58.463 L 60.582 58.463 Q 60.673 58.957 60.79 59.36 L 60.79 59.36 L 60.79 59.36 Q 60.946 59.854 61.219 60.049 L 61.219 60.049 L 61.219 60.049 Q 61.492 60.244 62.012 60.244 L 62.012 60.244 L 62.012 60.244 Q 62.194 60.244 62.584 60.192 L 62.584 60.192 L 62.584 62.311 L 62.584 62.311 Q 61.973 62.545 61.388 62.545 L 61.388 62.545 L 61.388 62.545 Z  M 84.696 62.337 L 87.166 53.393 L 91.118 53.393 L 93.705 62.337 L 90.65 62.337 L 90.312 60.621 L 87.998 60.621 L 87.621 62.337 L 84.696 62.337 L 84.696 62.337 Z  M 101.563 62.337 L 101.563 53.393 L 105.45 53.393 L 105.45 53.393 Q 106.854 53.393 107.94 53.952 L 107.94 53.952 L 107.94 53.952 Q 109.025 54.511 109.63 55.512 L 109.63 55.512 L 109.63 55.512 Q 110.234 56.513 110.234 57.8 L 110.234 57.8 L 110.234 57.8 Q 110.234 59.152 109.643 60.179 L 109.643 60.179 L 109.643 60.179 Q 109.051 61.206 107.966 61.771 L 107.966 61.771 L 107.966 61.771 Q 106.88 62.337 105.45 62.337 L 105.45 62.337 L 101.563 62.337 L 101.563 62.337 Z " fill-rule="evenodd" fill="rgb(255,255,255)"/></g></svg>