<?xml version="1.0" encoding="utf-8"?>
<svg viewBox="0 0 570.75623 210.91376" version="1.1" id="svg2" xmlns="http://www.w3.org/2000/svg">
  <path id="path22" style="fill-opacity: 1; fill-rule: nonzero; stroke: none; fill: rgb(255, 255, 255);" d="M 48.641 173.198 L 26.851 173.198 L 26.851 134.833 L 21.586 134.833 L 21.586 178.155 L 35.199 178.155 L 48.641 178.155 L 48.641 173.198 Z M 53.993 147.216 C 53.993 155.66 53.859 163.884 54.056 172.1 C 54.138 175.521 56.385 177.77 59.601 178.824 C 65.266 180.68 70.234 179.288 74.94 174.616 C 74.701 179.219 77.165 178.176 79.374 177.954 L 79.374 147.305 L 74.075 147.305 C 74.075 152.974 74.21 158.378 74.01 163.769 C 73.926 166.025 73.496 168.419 72.579 170.461 C 71.058 173.853 67.351 175.324 63.835 174.52 C 59.934 173.63 59.445 170.74 59.474 167.405 C 59.533 160.735 59.491 154.065 59.491 147.216 L 53.993 147.216 Z M 86.214 156.678 C 88.589 156.023 91.241 156.01 91.633 155.064 C 93.766 149.903 97.931 150.838 101.822 151.259 C 104.369 151.534 105.966 153.136 105.855 156.03 C 105.746 158.83 103.78 159.241 101.663 159.634 C 97.995 160.313 94.223 160.696 90.705 161.845 C 86.485 163.223 84.695 166.51 84.935 170.876 C 85.164 175.029 87.621 177.879 91.886 179.1 C 97.085 180.589 101.456 178.659 104.256 176.661 C 107.731 177.831 110.153 178.763 112.651 179.389 C 113.149 179.513 114.356 178.556 114.494 177.935 C 114.685 177.068 114.328 175.284 113.946 175.209 C 110.644 174.563 111.444 172.064 111.418 170.001 C 111.359 165.355 111.408 160.706 111.398 156.059 C 111.385 149.995 109.31 147.433 103.634 146.438 C 95.294 144.974 88.605 147.38 86.89 152.521 C 86.576 153.461 86.555 154.499 86.214 156.678 M 94 136.481 C 104.947 136.445 113.721 127.64 113.601 116.81 C 113.48 105.916 104.694 97.368 93.696 97.445 C 82.974 97.521 74.391 106.154 74.328 116.926 C 74.264 127.766 83.068 136.518 94 136.481 M 66.534 210.913 C 30.159 211.124 0.208 181.425 0.001 144.939 C -0.205 108.205 29.205 78.455 66.069 78.109 C 102.441 77.766 132.59 107.491 132.79 143.89 C 132.993 180.916 103.553 210.698 66.534 210.913"/>
  <path id="path26" style="fill-opacity: 1; fill-rule: nonzero; stroke: none; fill: rgb(255, 255, 255);" d="M 113.585 77.883 C 113.618 67.009 122.078 58.685 133.051 58.729 C 143.86 58.773 152.403 67.4 152.323 78.195 C 152.244 88.851 143.428 97.513 132.728 97.444 C 121.943 97.376 113.553 88.803 113.585 77.883"/>
  <path id="path30" style="fill-opacity: 1; fill-rule: nonzero; stroke: none; fill: rgb(255, 255, 255);" d="M 105.488 163.076 C 106.59 171.525 102.096 176.33 94.763 174.408 C 93.129 173.979 90.841 171.955 90.794 170.599 C 90.736 168.935 92.364 166.263 93.889 165.686 C 97.556 164.301 101.589 163.886 105.488 163.076"/>
  <path id="path34" style="fill-opacity: 1; fill-rule: nonzero; stroke: none; fill: rgb(255, 255, 255);" d="M 141.646 162.996 C 142.236 152.403 147.457 146.741 157.311 146.014 C 167.343 146.508 172.805 150.926 173.696 159.27 L 162.931 159.229 C 162.314 155.25 161.27 152.621 159.803 151.345 C 158.334 150.041 156.838 150.261 155.315 152.004 C 153.805 153.746 153.009 157.321 152.926 162.729 C 152.776 169.879 153.516 173.926 155.15 174.874 C 156.783 175.806 158.43 175.69 160.09 174.524 C 161.751 173.358 162.643 170.921 162.766 167.216 L 157.146 167.195 L 157.085 162.668 L 173.635 162.668 C 172.839 171.985 169.704 177.338 164.228 178.723 C 158.753 180.109 153.75 179.725 149.221 177.57 C 144.693 175.416 142.168 170.558 141.646 162.996"/>
  <path id="path38" style="fill-opacity: 1; fill-rule: nonzero; stroke: none; fill: rgb(255, 255, 255);" d="M 190.453 158.633 C 187.873 158.743 186.535 160.739 186.439 164.623 L 186.439 170.839 C 186.644 174.654 188.01 176.651 190.535 176.83 C 193.005 176.569 194.22 175.464 194.179 173.515 L 194.179 162.668 C 194.37 160.211 193.129 158.866 190.453 158.633 M 194.055 156.45 L 203.709 156.471 L 203.709 158.18 L 203.709 161.061 L 203.709 162.996 L 203.709 166.846 L 203.709 169.749 L 203.709 173.598 L 203.709 175.533 L 203.709 179.609 L 194.034 179.609 L 194.014 178.826 C 193.259 179.416 190.96 179.643 187.117 179.505 C 183.193 179.423 180.311 178.174 178.473 175.759 C 176.634 173.33 175.83 170.695 176.064 167.855 C 176.105 165.248 176.839 162.88 178.266 160.753 C 179.694 158.626 182.425 157.054 186.459 156.039 C 190.288 155.778 192.82 156.169 194.055 157.213 L 194.055 156.45 Z"/>
  <path id="path42" style="fill-opacity: 1; fill-rule: nonzero; stroke: none; fill: rgb(255, 255, 255);" d="M 220.445 155.915 C 225.358 155.133 228.445 156.656 229.707 160.485 C 230.366 158.756 232.543 157.13 236.234 155.606 C 242.684 154.659 246.155 157.048 246.649 162.77 L 246.649 179.464 L 238.56 179.423 L 238.621 165.673 C 238.704 162.53 237.406 161.026 234.731 161.164 C 232.411 160.821 230.738 161.926 229.707 164.479 L 229.707 179.566 L 226.394 179.566 L 224.726 179.566 L 223.059 179.566 L 221.393 179.566 L 223.059 179.566 L 221.393 179.566 L 221.393 163.779 C 221.393 161.693 220.17 160.54 217.728 160.32 C 216.013 160.169 214.723 160.993 213.858 162.79 L 213.858 166.743 L 213.858 168.698 L 213.858 173.639 L 213.858 175.615 L 213.858 179.566 L 209.7 179.566 L 208.032 179.566 L 206.365 179.566 L 205.398 179.566 L 205.398 156.863 L 208.032 156.863 L 209.7 156.863 L 211.368 156.863 L 213.035 156.863 L 211.368 156.863 L 213.899 156.863 L 213.879 159.62 C 215.731 157.48 217.92 156.244 220.445 155.915"/>
  <path id="path46" style="fill-opacity: 1; fill-rule: nonzero; stroke: none; fill: rgb(255, 255, 255);" d="M 261.511 158.633 C 259.124 158.756 257.895 160.601 257.826 164.17 L 261.388 164.17 L 263.179 164.17 L 264.97 164.17 C 264.943 160.766 263.789 158.921 261.511 158.633 M 261.388 156.121 C 269.499 156.369 273.745 160.245 274.13 167.751 L 271.228 167.751 L 269.436 167.751 L 264.97 167.751 L 263.179 167.751 L 260.503 167.751 L 257.826 167.751 C 257.703 172.733 258.308 175.554 259.638 176.211 C 260.969 176.856 262.286 176.775 263.59 175.965 C 264.921 175.155 265.45 173.31 265.175 170.428 L 268.551 170.428 L 270.343 170.428 L 272.133 170.428 L 273.924 170.428 L 272.133 170.428 L 273.924 170.428 C 272.703 175.354 270.136 178.236 266.225 179.073 C 262.314 179.91 258.642 179.664 255.212 178.333 C 251.795 176.988 249.572 173.914 248.543 169.11 L 248.522 167.505 C 249.537 160.259 253.826 156.464 261.388 156.121"/>
  <path id="path50" style="fill-opacity: 1; fill-rule: nonzero; stroke: none; fill: rgb(255, 255, 255);" d="M 283.66 146.59 L 292.985 146.59 L 310.75 146.59 L 310.75 153.115 L 292.985 153.095 L 292.985 160.526 L 307.085 160.526 L 307.085 165.569 L 292.985 165.569 L 292.985 179.505 L 283.66 179.505 L 283.66 146.59 Z"/>
  <path id="path54" style="fill-opacity: 1; fill-rule: nonzero; stroke: none; fill: rgb(255, 255, 255);" d="M 327.526 156.739 C 333.907 156.204 337.091 158.55 337.078 163.779 L 329.667 163.779 C 329.723 161.419 328.26 160.286 325.283 160.383 C 323.664 160.739 322.846 161.541 322.833 162.791 L 322.833 166.743 L 322.833 168.699 L 322.833 173.639 L 322.833 175.615 L 322.833 179.568 L 317.914 179.568 L 315.938 179.568 L 313.961 179.568 L 312.809 179.568 L 312.809 156.863 L 315.938 156.863 L 317.914 156.863 L 319.889 156.863 L 321.845 156.863 L 319.889 156.863 L 322.874 156.863 L 322.854 159.62 C 323.896 158.139 325.454 157.178 327.526 156.739"/>
  <path id="path58" style="fill-opacity: 1; fill-rule: nonzero; stroke: none; fill: rgb(255, 255, 255);" d="M 353.031 158.633 C 350.451 158.743 349.114 160.739 349.018 164.623 L 349.018 170.839 C 349.222 174.654 350.589 176.651 353.114 176.83 C 355.584 176.569 356.799 175.464 356.758 173.515 L 356.758 162.668 C 356.949 160.211 355.708 158.866 353.031 158.633 M 356.634 156.45 L 366.287 156.471 L 366.287 158.18 L 366.287 161.061 L 366.287 162.996 L 366.287 166.846 L 366.287 169.749 L 366.287 173.598 L 366.287 175.533 L 366.287 179.609 L 356.613 179.609 L 356.593 178.826 C 355.838 179.416 353.539 179.643 349.696 179.505 C 345.771 179.423 342.89 178.174 341.051 175.759 C 339.213 173.33 338.409 170.695 338.643 167.855 C 338.684 165.248 339.418 162.88 340.845 160.753 C 342.273 158.626 345.004 157.054 349.038 156.039 C 352.866 155.778 355.399 156.169 356.634 157.213 L 356.634 156.45 Z"/>
  <path id="path62" style="fill-opacity: 1; fill-rule: nonzero; stroke: none; fill: rgb(255, 255, 255);" d="M 383.023 155.915 C 387.935 155.133 391.023 156.656 392.285 160.485 C 392.944 158.756 395.12 157.13 398.811 155.606 C 405.261 154.659 408.732 157.048 409.226 162.77 L 409.226 179.464 L 401.138 179.423 L 401.199 165.673 C 401.281 162.53 399.984 161.026 397.309 161.164 C 394.989 160.821 393.315 161.926 392.285 164.479 L 392.285 179.566 L 388.971 179.566 L 387.304 179.566 L 385.636 179.566 L 383.97 179.566 L 385.636 179.566 L 383.97 179.566 L 383.97 163.779 C 383.97 161.693 382.747 160.54 380.305 160.32 C 378.59 160.169 377.3 160.993 376.435 162.79 L 376.435 166.743 L 376.435 168.698 L 376.435 173.639 L 376.435 175.615 L 376.435 179.566 L 372.278 179.566 L 370.61 179.566 L 368.943 179.566 L 367.975 179.566 L 367.975 156.863 L 370.61 156.863 L 372.278 156.863 L 373.945 156.863 L 375.613 156.863 L 373.945 156.863 L 376.476 156.863 L 376.456 159.62 C 378.309 157.48 380.498 156.244 383.023 155.915"/>
  <path id="path66" style="fill-opacity: 1; fill-rule: nonzero; stroke: none; fill: rgb(255, 255, 255);" d="M 424.09 158.633 C 421.703 158.756 420.474 160.601 420.405 164.17 L 423.966 164.17 L 425.758 164.17 L 427.549 164.17 C 427.521 160.766 426.368 158.921 424.09 158.633 M 423.966 156.121 C 432.076 156.369 436.324 160.245 436.709 167.751 L 433.806 167.751 L 432.015 167.751 L 427.549 167.751 L 425.758 167.751 L 423.081 167.751 L 420.405 167.751 C 420.281 172.733 420.886 175.554 422.216 176.211 C 423.548 176.856 424.865 176.775 426.169 175.965 C 427.5 175.155 428.029 173.31 427.754 170.428 L 431.13 170.428 L 432.921 170.428 L 434.711 170.428 L 436.503 170.428 L 434.711 170.428 L 436.503 170.428 C 435.281 175.354 432.715 178.236 428.804 179.073 C 424.893 179.91 421.223 179.664 417.791 178.333 C 414.374 176.988 412.151 173.914 411.121 169.11 L 411.101 167.505 C 412.116 160.259 416.405 156.464 423.966 156.121"/>
  <path id="path70" style="fill-opacity: 1; fill-rule: nonzero; stroke: none; fill: rgb(255, 255, 255);" d="M 438.355 155.669 L 447.741 155.669 L 451.818 170.675 L 456.943 155.669 L 465.691 155.669 L 471.023 170.675 L 475.099 155.669 L 484.403 155.669 L 475.099 179.506 L 466.474 179.506 L 461.349 165.159 L 456.407 179.506 L 447.741 179.506 L 438.355 155.669 Z"/>
  <path id="path74" style="fill-opacity: 1; fill-rule: nonzero; stroke: none; fill: rgb(255, 255, 255);" d="M 499.739 158.961 C 497.008 159.044 495.607 160.828 495.54 164.314 L 495.54 171.189 C 495.731 174.593 497.159 176.383 499.821 176.561 C 502.456 176.314 503.746 174.483 503.691 171.065 L 503.691 164.396 C 503.623 160.8 502.305 158.989 499.739 158.961 M 486.215 166.989 C 486.571 162.886 487.978 160.018 490.435 158.385 C 492.891 156.751 495.841 155.99 499.286 156.1 L 500.809 156.1 C 504.569 156.293 507.506 157.29 509.62 159.095 C 511.733 160.9 512.934 163.51 513.221 166.928 C 513.318 171.168 512.137 174.243 509.681 176.15 C 507.239 178.03 504.26 179.148 500.748 179.505 L 499.162 179.505 C 494.648 179.161 491.389 177.981 489.385 175.964 C 487.395 173.975 486.338 170.983 486.215 166.989"/>
  <path id="path78" style="fill-opacity: 1; fill-rule: nonzero; stroke: none; fill: rgb(255, 255, 255);" d="M 529.834 156.739 C 536.215 156.204 539.399 158.55 539.385 163.779 L 531.975 163.779 C 532.03 161.419 530.568 160.286 527.59 160.383 C 525.971 160.739 525.154 161.541 525.14 162.791 L 525.14 166.743 L 525.14 168.699 L 525.14 173.639 L 525.14 175.615 L 525.14 179.568 L 520.221 179.568 L 518.245 179.568 L 516.269 179.568 L 515.116 179.568 L 515.116 156.863 L 518.245 156.863 L 520.221 156.863 L 522.196 156.863 L 524.153 156.863 L 522.196 156.863 L 525.181 156.863 L 525.161 159.62 C 526.204 158.139 527.761 157.178 529.834 156.739"/>
  <path id="path82" style="fill-opacity: 1; fill-rule: nonzero; stroke: none; fill: rgb(255, 255, 255);" d="M 551.015 179.568 L 546.095 179.568 L 544.119 179.568 L 542.143 179.568 L 540.99 179.568 L 540.99 156.863 L 541.031 146.673 L 551.035 146.673 L 551.015 160.568 L 559.599 149.781 L 564.786 149.781 L 558.158 158.591 L 570.756 179.629 L 559.866 179.629 L 551.859 166.805 L 551.139 167.67 L 551.015 179.568 Z"/>
  <path id="path86" style="fill-opacity: 1; fill-rule: nonzero; stroke: none; fill: rgb(255, 255, 255);" d="M 328.979 0.855 C 326.575 1.903 324.665 4.06 323.433 6.895 C 322.693 8.805 322.507 12.133 322.507 25.26 L 322.507 41.284 L 317.763 41.284 C 311.352 41.284 308.334 42.763 305.868 47.076 C 303.465 51.144 303.465 54.225 305.745 58.601 C 308.086 63.161 311.168 64.703 317.639 64.703 L 322.446 64.703 L 322.631 91.326 C 322.878 116.84 322.939 118.196 324.234 122.079 C 326.821 129.783 333.107 137.424 339.579 140.69 C 346.481 144.204 357.821 145.498 365.833 143.71 C 372.365 142.17 375.816 137.609 375.385 130.954 C 375.078 126.27 373.229 123.435 369.038 121.401 C 366.018 119.921 364.045 119.921 357.451 121.339 C 353.63 122.203 348.824 120.661 346.912 118.135 C 345.68 116.409 345.619 115.608 345.434 90.525 L 345.249 64.703 L 353.754 64.703 C 365.34 64.641 367.744 63.593 370.64 57.06 C 371.564 54.965 371.873 53.301 371.626 51.699 C 371.195 48.248 368.297 44.304 365.031 42.639 C 362.627 41.406 361.395 41.284 353.815 41.284 L 345.373 41.284 L 345.188 24.151 L 345.003 6.956 L 343.215 4.676 C 340.073 0.546 333.601 -1.179 328.979 0.855"/>
  <path id="path90" style="fill-opacity: 1; fill-rule: nonzero; stroke: none; fill: rgb(255, 255, 255);" d="M 172.443 3.011 C 169.484 4.368 168.19 5.723 166.896 8.804 C 166.095 10.776 165.971 18.665 165.971 73.145 C 165.971 131.076 166.033 135.39 167.081 137.361 C 170.901 145.004 182.056 145.681 186.74 138.595 L 188.466 135.945 L 188.466 73.7 C 188.466 39.434 188.281 10.654 188.035 9.729 C 186.864 5.723 181.564 1.84 177.25 1.84 C 175.955 1.84 173.799 2.395 172.443 3.011"/>
  <path id="path94" style="fill-opacity: 1; fill-rule: nonzero; stroke: none; fill: rgb(255, 255, 255);" d="M 420.806 41.529 C 406.324 44.919 395.909 53.054 391.101 64.825 C 387.589 73.514 387.219 77.211 387.219 107.164 C 387.219 133.91 387.219 134.65 388.513 137.3 C 391.225 142.846 398.25 145.189 403.859 142.354 C 406.755 140.874 408.543 138.471 409.344 134.896 C 409.713 133.294 410.021 121.338 410.021 105.623 C 410.021 80.54 410.083 78.938 411.315 75.363 C 412.856 70.741 415.938 67.043 419.389 65.625 C 422.901 64.208 430.42 63.776 434.858 64.701 C 439.049 65.564 442.13 67.906 444.04 71.726 C 446.629 76.965 450.141 79.493 454.703 79.493 C 458.4 79.493 461.05 78.321 463.454 75.61 C 467.829 70.618 467.583 65.688 462.653 58.415 C 455.071 47.199 444.656 41.468 431.036 40.913 C 426.784 40.789 423.21 40.974 420.806 41.529"/>
  <path id="path98" style="fill-opacity: 1; fill-rule: nonzero; stroke: none; fill: rgb(255, 255, 255);" d="M 215.583 42.33 C 212.748 43.809 211.515 45.104 210.283 47.754 C 209.235 50.034 209.111 52.375 209.111 78.136 C 209.111 101.309 209.296 106.855 210.098 110.8 C 211.885 119.489 214.966 125.283 221.375 132.123 C 225.875 136.869 230.99 140.135 237.091 142.169 C 241.466 143.586 243.069 143.771 250.403 143.833 C 257.799 143.833 259.277 143.648 263.653 142.169 C 277.396 137.608 286.579 127.686 290.585 113.08 C 291.879 108.396 291.94 106.733 292.188 80.109 C 292.434 50.219 292.31 48.986 289.414 45.596 C 283.683 38.755 273.329 40.481 269.816 48.801 C 269.015 50.774 268.891 55.149 268.891 78.506 C 268.891 104.329 268.83 106.116 267.598 109.936 C 265.07 118.256 259.092 121.893 248.863 121.276 C 241.159 120.784 237.214 118.134 234.133 111.539 C 232.9 108.889 232.839 107.534 232.53 78.814 L 232.223 48.863 L 230.559 46.398 C 227.539 41.838 220.205 39.865 215.583 42.33"/>
  <path id="path102" style="fill-opacity: 1; fill-rule: nonzero; stroke: none; fill: rgb(255, 255, 255);" d="M 536.236 65.935 C 539.749 67.414 543.015 70.68 544.988 74.501 C 549.671 83.684 549.055 104.33 543.879 112.773 C 540.55 118.196 534.264 121.401 527.115 121.401 C 516.761 121.401 510.044 115.731 507.64 104.884 C 506.285 98.845 506.655 83.13 508.256 78.569 C 510.66 71.728 514.296 67.845 520.706 65.258 C 524.711 63.655 531.676 63.963 536.236 65.935 M 518.303 42.27 C 504.374 45.351 492.665 55.581 487.858 68.831 C 485.023 76.72 484.345 80.973 484.345 92.435 C 484.284 108.213 486.564 117.395 492.85 126.886 C 498.088 134.713 505.669 140.074 515.406 142.725 C 520.953 144.265 533.34 144.265 538.825 142.786 C 550.473 139.581 559.779 132.001 564.955 121.401 C 568.406 114.19 570.132 106.98 570.625 96.996 C 572.166 69.386 559.964 48.433 539.132 42.886 C 533.71 41.406 523.418 41.099 518.303 42.27"/>
</svg>