<?xml version="1.0" encoding="utf-8"?>
<svg version="1.0" viewBox="0 0 264 60" width="264px" height="60px" xmlns="http://www.w3.org/2000/svg">
  <path d="M 6.734 9 L 13.998 9 L 23.012 36.202 L 32.158 9 L 39.316 9 L 45.892 48 L 38.733 48 L 34.545 23.368 L 26.246 48 L 19.698 48 L 11.507 23.368 L 7.239 48 L 0 48 L 6.734 9 M 51.829 9 L 59.703 9 C 63.963 9 67.029 9.396 68.902 10.192 C 70.793 10.97 72.279 12.243 73.357 14.009 C 74.453 15.76 75 17.864 75 20.32 C 75 23.042 74.285 25.304 72.853 27.108 C 71.439 28.91 69.512 30.165 67.073 30.873 C 65.642 31.279 63.035 31.483 59.252 31.483 L 59.252 48 L 51.829 48 L 51.829 9 M 59.252 24.245 L 61.612 24.245 C 63.468 24.245 64.759 24.112 65.483 23.846 C 66.207 23.582 66.773 23.149 67.179 22.547 C 67.603 21.929 67.815 21.185 67.815 20.32 C 67.815 18.818 67.233 17.722 66.065 17.033 C 65.218 16.52 63.645 16.264 61.346 16.264 L 59.252 16.264 L 59.252 24.245" style="fill: rgb(255, 255, 255);"/>
  <path d="M 84.784 12.697 L 79.469 41.756 C 79.255 43.013 79.094 43.942 79.094 44.651 C 79.094 47.274 80.812 48.694 83.872 48.694 C 85.643 48.694 88.435 47.928 92.301 46.509 L 92.301 44.378 C 90.636 44.924 89.187 45.198 87.952 45.198 C 86.717 45.198 85.751 44.105 85.751 42.412 C 85.751 41.319 86.019 40.008 86.341 38.424 L 91.924 8 L 89.562 8 L 80.382 10.075 L 80.382 11.987 L 84.784 12.697 M 118.049 21.273 L 116.063 22.583 C 113.862 21.71 111.823 21.218 109.836 21.218 C 105.058 21.218 100.602 23.677 97.918 27.827 C 95.77 31.16 94.696 34.764 94.696 38.698 C 94.696 44.979 97.596 48.639 102.427 48.639 C 105.058 48.639 107.957 47.164 110.963 44.269 C 110.963 44.378 110.963 44.488 110.963 44.542 C 110.963 47.164 112.359 48.529 114.989 48.529 C 117.03 48.529 119.714 47.874 123.096 46.618 L 123.096 44.597 C 121.807 44.979 120.627 45.198 119.552 45.198 C 118.319 45.198 117.298 44.105 117.298 42.247 C 117.298 41.537 117.459 40.227 117.781 38.424 L 119.392 29.575 C 120.197 25.041 120.895 22.256 121.217 21.273 L 118.049 21.273 M 111.447 23.895 L 113.594 27.172 L 111.07 41.647 C 109.031 43.341 107.312 44.214 105.649 44.214 C 103.018 44.214 101.568 42.084 101.568 37.932 C 101.568 29.631 105.755 23.84 110.748 23.84 C 111.017 23.84 111.232 23.895 111.447 23.895 M 131.968 21.218 L 123.701 23.13 L 123.701 24.934 L 128.371 25.369 C 128.962 26.516 129.445 27.937 129.714 29.467 L 132.934 46.782 L 134.974 46.782 C 132.076 52.408 129.392 55.357 126.975 55.575 L 123.378 52.134 C 121.445 52.517 120.264 53.937 120.264 55.795 C 120.264 57.98 122.197 60 124.775 60 C 129.176 60 133.633 55.685 138.356 47.055 C 142.49 39.517 144.638 31.651 148.825 25.97 L 151.993 24.168 L 151.993 22.693 L 147.752 21.273 L 146.087 21.273 C 142.759 29.139 140.075 35.911 137.873 41.537 L 136.048 29.631 C 135.243 24.386 134.277 21.655 131.968 21.218 M 158.549 35.803 C 159.14 35.803 159.678 35.857 160.214 35.857 C 169.18 35.857 174.119 32.525 174.119 27.336 C 174.119 23.73 171.649 21.382 167.461 21.382 C 164.241 21.382 160.805 22.693 158.067 25.041 C 154.094 28.483 152.001 33.18 152.001 38.316 C 152.001 44.815 155.543 48.694 161.503 48.694 C 164.723 48.694 168.589 47.218 172.508 44.105 L 172.616 40.774 C 169.394 43.341 166.495 44.597 164.187 44.597 C 160.59 44.597 158.443 42.084 158.443 37.442 C 158.443 36.95 158.497 36.403 158.549 35.803 M 158.979 33.508 C 160.482 27.336 163.274 24.114 166.066 24.114 C 167.677 24.114 168.696 25.206 168.696 26.898 C 168.696 30.067 164.992 33.235 158.979 33.508 M 186.565 21.273 L 177.331 23.512 L 177.331 25.369 L 181.788 26.025 L 177.493 48.202 L 184.096 48.202 L 186.19 35.53 C 186.995 30.668 188.982 27.664 193.33 25.807 L 194.78 29.958 C 194.833 29.958 194.887 29.958 194.887 29.958 C 198.054 29.958 200.094 27.937 200.094 25.315 C 200.094 22.911 198.43 21.328 196.121 21.328 C 193.599 21.328 190.377 23.73 186.941 28.592 L 188.444 21.273 L 186.565 21.273" style="fill: rgb(255, 255, 255);"/>
  <path d="M 210 27.496 C 210.002 7.895 231.254 -4.352 248.253 5.451 C 265.252 15.254 265.248 39.754 248.247 49.553 C 231.269 59.337 210.043 47.13 210 27.557" style="opacity: 1; color: black; fill-rule: nonzero; marker: none; stroke-miterlimit: 0; stroke-opacity: 1; visibility: visible; display: inline; overflow: visible; fill-opacity: 0; stroke-width: 4px; paint-order: fill; stroke-linejoin: bevel; fill: none; stroke: rgb(255, 255, 255);"/>
  <path d="M 225.054 11 L 255 28.464 L 225 45 L 225.054 11 Z" style="fill-opacity: 1; fill-rule: evenodd; stroke: none; stroke-width: 1px; stroke-linecap: butt; stroke-linejoin: miter; stroke-opacity: 1; fill: rgb(255, 255, 255);"/>
</svg>