<?xml version="1.0" encoding="utf-8"?>
<svg version="1.1" id="svg2" xmlns="http://www.w3.org/2000/svg" xmlns:bx="https://boxy-svg.com">
  <g transform="matrix(0.363481, 0, 0, 0.359892, 0, 0)">
    <path id="path2830" d="M 0 204.888 L 52.05 0 L 100.317 0 L 125.397 89.433 L 151.422 0 L 196.848 0 L 239.433 150.945 L 343.338 150.75 C 354.243 150.642 354.915 128.088 342.531 128.094 L 282.018 127.287 C 256.035 127.536 228.633 99.426 229.968 61.986 C 230.247 27.645 260.19 0.603 298.5 0.612 L 452.838 0.474 L 492.114 53.943 L 530.442 0 L 594.321 0.474 L 524.292 98.898 L 600 205.617 L 536.454 205.419 L 492.39 144.186 L 450.471 205.419 L 385.647 205.362 L 459.465 99.843 L 427.287 52.998 L 293.121 53.193 C 278.481 53.328 279.018 76.362 293.238 75.93 L 349.764 76.797 C 373.656 76.95 407.304 101.778 406.467 140.538 C 406.83 185.598 366.246 206.184 346.707 205.086 L 198.741 205.281 L 174.135 113.094 L 149.529 205.086 L 102.819 205.086 L 77.13 113.565 L 54.555 205.224 L 0 204.888 Z" style="fill: rgb(255, 255, 255);" bx:origin="0 0"/>
  </g>
  <path d="M 244.154 23.575 C 248.08 23.575 251.484 24.187 254.368 25.411 C 257.251 26.634 259.481 28.373 261.056 30.629 C 262.631 32.884 263.418 35.499 263.418 38.474 C 263.418 41.258 262.716 43.776 261.31 46.032 C 259.905 48.288 258.136 50.279 256.003 52.006 C 253.871 53.734 250.939 55.845 247.207 58.34 C 245.123 59.684 243.427 60.835 242.118 61.796 L 264 61.796 L 264 73.96 L 222.563 73.96 L 222.563 70.505 C 222.563 67.961 223.157 65.694 224.344 63.703 C 225.532 61.712 227.264 59.709 229.542 57.693 C 231.868 55.678 235.212 52.942 239.574 49.488 C 243.064 46.752 245.511 44.665 246.916 43.225 C 248.322 41.785 249.025 40.37 249.025 38.978 C 249.025 37.491 248.504 36.244 247.462 35.236 C 246.42 34.228 244.857 33.724 242.773 33.724 C 240.592 33.724 238.871 34.348 237.611 35.595 C 236.351 36.844 235.721 38.474 235.721 40.49 L 235.721 41.93 L 222.781 41.93 C 222.733 41.546 222.709 41.018 222.709 40.346 C 222.709 35.163 224.538 31.073 228.197 28.074 C 231.856 25.075 237.175 23.575 244.154 23.575 Z" style="fill: rgb(255, 255, 255); white-space: pre;"/>
</svg>