<?xml version="1.0" encoding="utf-8"?>
<svg width="556" height="150" xmlns="http://www.w3.org/2000/svg">
  <path d="M 498.64 149.663 L 498.64 107.639 L 460.246 107.639 L 460.246 88.639 L 498.641 88.639 L 498.641 46.614 L 516.846 46.614 L 516.846 88.639 L 555.241 88.639 L 555.241 107.639 L 516.846 107.639 L 516.846 149.663 Z M 0 0 L 369.544 0 L 369.544 149.662 L 0.001 149.662 Z M 342.307 20.625 L 307.567 20.62 L 289.102 46.43 L 271.253 20.697 L 182.671 20.775 C 173.428 21.167 165.535 24.483 158.903 31.131 C 149.511 40.668 146.509 55.436 151.641 67.758 C 156.379 80.068 169.088 88.437 181.88 88.831 L 208.88 88.836 C 210.534 88.836 212.112 89.146 213.38 90.252 C 214.725 91.592 215.195 93.563 214.641 95.467 C 213.219 99.723 208.398 98.777 204.933 98.943 L 154.718 98.943 L 133.164 20.846 L 107.979 20.852 L 95.663 65.698 L 83.585 20.852 L 57.918 20.852 C 56.102 27.488 28.155 128.07 28.155 128.07 L 58.55 128.07 L 70.632 86.306 L 81.686 128.158 L 109.158 128.153 L 120.765 86.467 C 120.843 86.539 132.373 128.153 132.373 128.153 L 207.696 128.153 C 220.796 128.623 232.88 122.224 239.666 110.783 C 245.038 101.777 245.75 88.831 240.928 79.354 C 235.487 68.062 223.875 60.252 211.326 59.936 L 184.243 59.936 L 182.112 59.776 C 180.695 59.383 179.427 58.121 178.879 56.781 C 178.243 55.591 178.481 53.853 179.035 52.675 C 180.618 49.115 184.487 50.073 187.643 49.823 L 255.303 49.747 L 271.253 71.937 C 271.253 71.937 233.832 126.094 232.88 128.07 L 267.935 128.07 L 289.102 97.986 L 310.1 127.997 L 345.387 127.997 L 307.175 71.937 L 342.306 20.625 Z" style="fill: rgb(255, 255, 255);"/>
  <path d="M415.276 128.151c1.805-12.72 34.506-20.501 34.506-48.284 0-26.465-18.413-33.205-34.507-33.205-16.086 0-33.231 12.19-33.231 32.18v7.526h24.15v-5.45c0-6.875 3.367-11.169 9.342-11.169 5.975 0 8.811 3.514 8.811 10.644 0 16.093-27.252 22.583-38.66 42.835-4.89 8.643-5.2 25.95-5.2 25.95h67.75v-21.027h-32.961Z" style="fill: rgb(255, 255, 255);"/>
</svg>