<?xml version="1.0" encoding="utf-8"?>
<svg version="1.1" viewBox="0 0 3839 1412.4" xmlns="http://www.w3.org/2000/svg">
  <path class="st0" d="M 3809.5 29.5 L 3809.5 1382.9 L 29.5 1382.9 L 29.5 29.5 L 3809.5 29.5 M 3839 0 L 3809.5 0 L 29.5 0 L 0 0 L 0 29.5 L 0 1382.9 L 0 1412.4 L 29.5 1412.4 L 3809.4 1412.4 L 3838.9 1412.4 L 3838.9 1382.9 L 3838.9 29.5 L 3838.9 0 L 3839 0 Z" style="fill: rgb(255, 255, 255);"/>
  <path d="M 1593.5 194.6 L 1706.537 353.78 L 1819.6 194.6 L 2011.1 194.6 L 1802.3 488.635 L 2024.4 801.4 L 1832.9 801.4 L 1706.533 623.496 L 1580.2 801.4 L 1388.6 801.4 L 1610.745 488.644 L 1512.833 350.8 L 1118.5 350.8 C 1072.4 350.8 1072.4 420 1118.5 420 L 1255.6 420 C 1509.767 420 1509.8 801.3 1255.7 801.4 L 832.4 801.4 L 757.9 528.2 L 683.3 801.4 L 542.5 801.4 L 468 528.2 L 393.4 801.4 L 231.5 801.4 L 397.1 194.6 L 538.9 194.6 L 612.9 466.3 L 687 194.6 L 828.7 194.6 L 951.598 645.2 L 1255.6 645.2 C 1301.7 645.2 1301.7 576 1255.6 576 L 1255.6 576.2 L 1118.5 576.2 L 1118.5 576 C 864.3 576 864.3 194.6 1118.5 194.6 Z" class="st0" style="fill: rgb(255, 255, 255);"/>
  <path class="st0" d="M 458.8 1164.3 L 555.2 1164.3 L 555.2 1217.8 L 366.2 1217.8 C 336.7 1217.8 312.7 1193.9 312.7 1164.3 L 312.7 1028.2 L 231.5 1028.2 L 231.5 974.7 L 312.7 974.7 L 312.7 892.5 L 438.5 892.5 L 438.5 974.7 L 555.1 974.7 L 555.1 1028.2 L 438.5 1028.2 L 438.5 1144.1 C 438.5 1155.3 447.6 1164.4 458.8 1164.3 Z" style="fill: rgb(255, 255, 255);"/>
  <path class="st0" d="M 814.3 974.7 L 814.3 1164.3 L 743.5 1164.3 L 743.5 974.7 L 617.6 974.7 L 617.6 1164.3 C 617.6 1193.9 641.6 1217.8 671.1 1217.8 L 689 1217.8 L 743.5 1217.8 L 814.3 1217.8 L 913 1217.8 L 940.1 1217.8 L 940.1 974.8 L 814.3 974.8 Z" style="fill: rgb(255, 255, 255);"/>
  <path class="st0" d="M 1261.4 974.7 L 1147.3 974.7 L 1102.2 974.7 C 1057.6 974.7 1021.4 1010.9 1021.4 1055.5 L 1021.4 1217.8 L 1147.2 1217.8 L 1147.2 1028.2 L 1261.3 1028.2 L 1261.4 974.7 L 1261.4 974.7 Z" style="fill: rgb(255, 255, 255);"/>
  <path class="st0" d="M 1437.1 974.7 L 1437.1 892.4 L 1311.3 892.4 L 1311.3 1217.7 L 1553 1217.7 C 1597.6 1217.7 1633.8 1173.1 1633.8 1106.5 L 1633.8 1085.7 C 1633.8 1019.2 1597.6 974.5 1553 974.5 L 1437.1 974.5 L 1437.1 974.7 Z M 1437.1 1164.4 L 1437.1 1028.3 L 1507.9 1028.3 L 1507.9 1164.4 L 1437.1 1164.4 Z" style="fill: rgb(255, 255, 255);"/>
  <path class="st0" d="M 1943.7 974.7 L 1914.4 974.7 L 1827.9 974.7 L 1782.8 974.7 C 1738.2 974.7 1702 1019.3 1702 1085.9 L 1702 1106.7 C 1702 1173.2 1738.2 1217.9 1782.8 1217.9 L 1798.7 1217.9 L 1914.4 1217.9 L 1943.7 1217.9 C 1988.3 1217.9 2024.5 1173.3 2024.5 1106.7 L 2024.5 1085.9 C 2024.4 1019.4 1988.3 974.7 1943.7 974.7 Z M 1898.6 1164.4 L 1827.8 1164.4 L 1827.8 1028.3 L 1898.6 1028.3 L 1898.6 1164.4 Z" style="fill: rgb(255, 255, 255);"/>
  <path class="st0" d="M 2362.1 85.6 L 2362.1 1327 L 3753.4 1327 L 3753.4 85.6 L 2362.1 85.6 Z M 3457.9 1217.8 L 3233.9 1217.8 L 3233.9 813.9 L 3093.4 813.9 L 3093.4 813.8 L 2881.6 813.8 L 2881.6 1217.8 L 2657.6 1217.8 L 2657.6 194.6 L 2881.6 194.6 L 2881.6 194.6 L 3103.4 194.6 L 3103.4 194.6 L 3177.3 194.6 L 3177.3 194.6 L 3177.3 194.6 L 3177.3 194.6 L 3401.5 374 L 3401.4 374.1 L 3401.5 374.1 L 3401.5 589.8 L 3177.5 589.8 L 3177.5 395.4 L 3177.4 395.4 L 3177.4 418.8 L 2881.6 418.8 L 2881.6 589.9 L 3177.3 589.9 L 3177.3 589.9 L 3177.3 589.9 L 3177.4 589.9 L 3177.4 589.9 L 3457.8 813.9 L 3457.9 813.9 L 3457.9 1217.8 Z" style="fill: rgb(255, 255, 255);"/>
</svg>