<?xml version="1.0" encoding="utf-8"?>
<svg viewBox="0 0 338.339 52.948" xmlns="http://www.w3.org/2000/svg">
  <path d="M 99.525 31.555 L 94.45 31.555 C 93.948 31.553 93.541 31.146 93.539 30.644 L 93.539 2.02 C 93.539 1.519 93.949 1.109 94.45 1.109 L 99.526 1.109 C 100.027 1.109 100.437 1.519 100.437 2.02 L 100.437 30.645 C 100.434 31.147 100.027 31.553 99.525 31.555 Z M 107.244 31.555 L 102.168 31.555 C 101.666 31.553 101.259 31.146 101.257 30.644 L 101.257 2.02 C 101.257 1.519 101.667 1.109 102.168 1.109 L 107.244 1.109 C 107.745 1.109 108.155 1.519 108.155 2.02 L 108.155 30.645 C 108.155 31.145 107.745 31.555 107.244 31.555 Z M 44.011 26.932 C 42.287 26.932 42.205 25.692 42.205 24.489 L 42.205 14.077 L 44.907 14.077 C 45.431 14.077 45.859 13.685 45.859 13.205 L 45.859 10.437 C 45.859 9.958 45.431 9.565 44.907 9.565 L 42.205 9.565 L 42.205 3.334 C 42.205 2.855 41.777 2.462 41.253 2.462 L 36.26 2.462 C 35.736 2.462 35.308 2.854 35.308 3.334 L 35.308 9.567 L 30.06 9.567 C 29.536 9.567 29.108 9.959 29.108 10.439 L 29.108 13.207 C 29.108 13.686 29.536 14.079 30.06 14.079 L 35.307 14.079 L 35.307 26.37 C 35.307 29.722 37.811 31.557 40.808 31.557 L 48.444 31.557 L 48.444 26.934 C 48.445 26.932 45.735 26.932 44.011 26.932 Z" style="fill: rgb(255, 255, 255);"/>
  <path d="M 60.658 8.683 C 57.876 8.683 55.397 9.799 53.617 11.84 L 53.617 1.98 C 53.617 1.501 53.189 1.108 52.665 1.108 L 47.672 1.108 C 47.148 1.108 46.72 1.5 46.72 1.98 L 46.72 30.683 C 46.72 31.162 47.148 31.555 47.672 31.555 L 52.665 31.555 C 53.189 31.555 53.617 31.163 53.617 30.683 L 53.617 18.127 C 53.617 15.844 55.67 14.077 58.164 14.077 C 60.658 14.077 62.169 15.891 62.169 17.573 L 62.169 30.685 C 62.169 31.164 62.597 31.557 63.121 31.557 L 68.114 31.557 C 68.638 31.557 69.066 31.165 69.066 30.685 L 69.066 18.445 L 69.066 16.333 C 69.066 13.222 66.201 8.683 60.658 8.683 Z" style="fill: rgb(255, 255, 255);"/>
  <path d="M 90.834 22.327 L 93.94 22.327 C 94.043 21.695 94.098 21.046 94.098 20.382 C 94.098 13.64 88.61 8.175 81.535 8.175 C 74.461 8.175 68.972 13.64 68.972 20.382 C 68.972 27.124 74.46 32.363 81.535 32.363 C 86.935 32.363 91.408 29.308 93.224 24.864 L 86.602 24.864 C 85.547 26.282 83.752 27.176 81.319 27.176 C 78.736 27.176 76.551 25.137 75.821 22.327 L 90.834 22.327 Z M 81.319 13.363 C 83.671 13.363 85.692 15.055 86.586 17.479 L 76.052 17.479 C 76.946 15.055 78.967 13.363 81.319 13.363 Z M 120.916 8.175 C 113.512 8.175 107.768 13.64 107.768 20.382 C 107.768 27.124 113.512 32.363 120.916 32.363 C 128.32 32.363 134.064 27.123 134.064 20.382 C 134.064 13.641 128.32 8.175 120.916 8.175 Z M 120.916 27.405 C 116.267 27.405 115 24.314 115 20.336 C 115 16.358 116.637 13.134 120.916 13.134 C 125.195 13.134 126.832 16.358 126.832 20.336 C 126.832 24.314 125.566 27.405 120.916 27.405 Z M 17.027 0 C 7.623 0 0 7.333 0 16.379 C 0 25.425 7.623 32.758 17.027 32.758 C 26.431 32.758 34.054 25.425 34.054 16.379 C 34.054 7.333 26.431 0 17.027 0 Z M 17.348 27.189 C 11.147 27.189 8.323 22.349 8.323 16.379 C 8.323 10.409 11.454 5.569 17.348 5.569 C 23.242 5.569 26.373 10.409 26.373 16.379 C 26.373 22.349 23.549 27.189 17.348 27.189 Z" style="fill: rgb(255, 255, 255);"/>
  <path d="M 289.989 7.142 L 284.312 7.142 C 283.976 7.141 283.703 6.868 283.702 6.532 L 283.702 3.467 C 283.702 3.132 283.976 2.857 284.312 2.857 L 289.989 2.857 C 290.324 2.857 290.599 3.131 290.599 3.467 L 290.599 6.532 C 290.599 6.867 290.324 7.142 289.989 7.142 Z M 259.713 7.142 L 254.019 7.142 C 253.687 7.141 253.418 6.872 253.417 6.54 L 253.417 3.458 C 253.417 3.127 253.688 2.856 254.019 2.856 L 259.713 2.856 C 260.044 2.856 260.315 3.127 260.315 3.458 L 260.315 6.54 C 260.314 6.872 260.045 7.141 259.713 7.142 Z M 230.915 7.142 L 225.164 7.142 C 224.848 7.141 224.592 6.885 224.591 6.569 L 224.591 3.43 C 224.591 3.115 224.849 2.857 225.164 2.857 L 230.915 2.857 C 231.23 2.857 231.488 3.115 231.488 3.43 L 231.488 6.569 C 231.487 6.885 231.231 7.141 230.915 7.142 Z M 209.429 31.95 L 204.353 31.95 C 203.851 31.948 203.444 31.541 203.442 31.039 L 203.442 2.414 C 203.442 1.913 203.852 1.503 204.353 1.503 L 209.429 1.503 C 209.93 1.503 210.34 1.913 210.34 2.414 L 210.34 31.039 C 210.34 31.54 209.93 31.95 209.429 31.95 Z M 289.688 31.95 L 284.612 31.95 C 284.11 31.948 283.703 31.541 283.701 31.039 L 283.701 9.857 C 283.701 9.356 284.111 8.946 284.612 8.946 L 289.688 8.946 C 290.189 8.946 290.599 9.356 290.599 9.857 L 290.599 31.039 C 290.599 31.54 290.189 31.95 289.688 31.95 Z M 259.404 31.95 L 254.328 31.95 C 253.826 31.948 253.419 31.541 253.417 31.039 L 253.417 9.857 C 253.417 9.356 253.827 8.946 254.328 8.946 L 259.404 8.946 C 259.905 8.946 260.315 9.356 260.315 9.857 L 260.315 31.039 C 260.315 31.54 259.905 31.95 259.404 31.95 Z M 230.578 31.95 L 225.502 31.95 C 225 31.948 224.593 31.541 224.591 31.039 L 224.591 9.857 C 224.591 9.356 225.001 8.946 225.502 8.946 L 230.578 8.946 C 231.079 8.946 231.489 9.356 231.489 9.857 L 231.489 31.039 C 231.489 31.54 231.079 31.95 230.578 31.95 Z" style="fill: rgb(255, 255, 255);"/>
  <path d="M 221.794 27.327 C 220.07 27.327 219.988 26.087 219.988 24.884 L 219.988 14.472 L 223.006 14.472 C 223.356 14.472 223.641 14.21 223.641 13.89 L 223.641 10.543 C 223.641 10.223 223.355 9.961 223.006 9.961 L 219.988 9.961 L 219.988 3.432 C 219.988 3.116 219.705 2.857 219.36 2.857 L 213.718 2.857 C 213.373 2.857 213.09 3.116 213.09 3.432 L 213.09 9.961 L 207.526 9.961 C 207.177 9.961 206.891 10.223 206.891 10.543 L 206.891 13.89 C 206.891 14.21 207.177 14.472 207.526 14.472 L 213.09 14.472 L 213.09 26.763 C 213.09 30.115 215.594 31.95 218.591 31.95 L 226.227 31.95 L 226.227 27.327 L 221.794 27.327 Z M 329.931 9.078 C 327.149 9.078 324.67 10.194 322.89 12.235 L 322.89 9.366 C 322.89 8.887 322.462 8.494 321.938 8.494 L 316.945 8.494 C 316.421 8.494 315.993 8.886 315.993 9.366 L 315.993 31.078 C 315.993 31.557 316.421 31.95 316.945 31.95 L 321.938 31.95 C 322.462 31.95 322.89 31.558 322.89 31.078 L 322.89 18.521 C 322.89 16.238 324.943 14.471 327.437 14.471 C 329.931 14.471 331.442 16.285 331.442 17.967 L 331.442 31.079 C 331.442 31.558 331.87 31.951 332.394 31.951 L 337.387 31.951 C 337.911 31.951 338.339 31.559 338.339 31.079 L 338.339 18.839 L 338.339 16.727 C 338.339 13.616 335.474 9.078 329.931 9.078 Z M 187.685 31.367 C 190.467 31.367 192.946 30.251 194.726 28.21 L 194.726 31.078 C 194.726 31.557 195.154 31.95 195.678 31.95 L 200.671 31.95 C 201.195 31.95 201.623 31.558 201.623 31.078 L 201.623 9.366 C 201.623 8.887 201.195 8.494 200.671 8.494 L 195.678 8.494 C 195.154 8.494 194.726 8.886 194.726 9.366 L 194.726 21.923 C 194.726 24.206 192.673 25.973 190.179 25.973 C 187.685 25.973 186.174 24.159 186.174 22.477 L 186.174 9.366 C 186.174 8.887 185.746 8.494 185.222 8.494 L 180.229 8.494 C 179.705 8.494 179.277 8.886 179.277 9.366 L 179.277 23.718 C 179.277 26.829 182.143 31.367 187.685 31.367 Z" style="fill: rgb(255, 255, 255);"/>
  <path d="M 303.377 8.57 C 295.973 8.57 290.229 14.035 290.229 20.777 C 290.229 27.519 295.973 32.758 303.377 32.758 C 310.781 32.758 316.525 27.518 316.525 20.777 C 316.525 14.036 310.781 8.57 303.377 8.57 Z M 303.377 27.8 C 298.728 27.8 297.46 24.709 297.46 20.731 C 297.46 16.753 299.097 13.529 303.377 13.529 C 307.657 13.529 309.294 16.753 309.294 20.731 C 309.294 24.709 308.027 27.8 303.377 27.8 Z M 253.372 8.946 L 248.379 8.946 C 247.855 8.946 247.312 9.338 247.172 9.818 L 242.696 25.112 L 237.344 9.818 C 237.176 9.339 236.611 8.946 236.087 8.946 L 231.094 8.946 C 230.57 8.946 230.279 9.338 230.447 9.818 L 235.842 25.238 C 235.889 25.415 235.94 25.597 235.995 25.786 C 237.904 32.31 242.695 31.95 242.695 31.95 C 242.695 31.95 247.486 32.31 249.395 25.786 L 254.068 9.818 C 254.209 9.338 253.896 8.946 253.372 8.946 Z M 271.592 13.682 L 286.577 13.682 L 286.577 8.946 L 270.114 8.946 C 266.095 8.946 262.806 11.957 262.806 15.637 C 262.806 19.317 266.094 22.328 270.114 22.328 L 271.798 22.328 C 273.244 22.328 274.466 23.447 274.466 24.771 C 274.466 26.095 273.244 27.214 271.797 27.214 L 258.947 27.214 L 258.947 31.95 L 273.768 31.95 C 278.081 31.95 281.609 28.719 281.609 24.771 C 281.609 20.822 278.08 17.592 273.768 17.592 L 271.592 17.592 C 270.435 17.592 269.457 16.697 269.457 15.637 C 269.457 14.577 270.435 13.682 271.592 13.682 Z M 177.036 4.341 L 177.034 4.329 C 176.955 3.633 176.627 2.956 176.048 2.425 C 175.469 1.894 174.729 1.594 173.969 1.522 L 173.956 1.52 C 173.84 1.509 173.724 1.504 173.608 1.504 L 173.606 1.504 L 173.549 1.507 C 173.456 1.508 173.362 1.513 173.269 1.52 C 173.221 1.524 173.174 1.533 173.126 1.539 C 173.061 1.547 172.995 1.555 172.93 1.567 C 172.892 1.574 172.854 1.584 172.817 1.592 C 172.742 1.608 172.667 1.624 172.594 1.645 C 172.575 1.65 172.557 1.657 172.539 1.663 C 172.039 1.812 171.568 2.064 171.172 2.426 L 168.757 4.637 L 165.714 7.423 L 162.275 10.572 L 158.836 7.423 L 155.793 4.637 L 153.378 2.426 C 152.986 2.071 152.519 1.81 152.011 1.663 L 151.956 1.645 C 151.882 1.624 151.807 1.608 151.733 1.592 C 151.695 1.584 151.658 1.574 151.62 1.567 C 151.555 1.555 151.49 1.548 151.424 1.539 C 151.376 1.533 151.329 1.525 151.281 1.52 C 151.188 1.512 151.094 1.508 151.001 1.507 L 150.944 1.504 L 150.942 1.504 C 150.826 1.504 150.71 1.51 150.594 1.52 L 150.581 1.522 C 149.82 1.594 149.081 1.894 148.502 2.425 C 147.953 2.919 147.602 3.596 147.516 4.329 L 147.514 4.341 C 147.502 4.447 147.496 4.553 147.496 4.66 L 147.496 31.08 C 147.496 31.559 147.924 31.952 148.448 31.952 L 153.441 31.952 C 153.965 31.952 154.393 31.56 154.393 31.08 L 154.393 12.297 L 161.23 18.557 C 161.827 19.085 162.723 19.085 163.32 18.557 L 170.157 12.297 L 170.157 31.08 C 170.157 31.559 170.585 31.952 171.109 31.952 L 176.102 31.952 C 176.626 31.952 177.054 31.56 177.054 31.08 L 177.054 4.661 L 177.054 4.659 C 177.054 4.553 177.048 4.446 177.036 4.341 Z" style="fill: rgb(255, 255, 255);"/>
  <path stroke-width=".25" stroke-miterlimit="10" d="M 55.92 38.823 L 282.42 38.823 L 282.42 52.823 L 55.92 52.823 Z M 82.789 43.538 L 79.599 43.538 L 79.599 41.35 L 78.597 41.35 L 78.597 43.536 L 73.977 43.536 L 73.977 44.427 L 77.968 44.427 C 77.181 45.911 75.825 47.386 73.899 48.852 L 74.628 49.615 C 76.417 48.265 77.74 46.927 78.597 45.602 L 78.597 50.289 C 78.597 50.326 79.599 50.66 79.599 50.323 L 79.599 44.428 L 82.789 44.428 Z M 91.765 43.787 L 87.351 44.461 L 87.351 41.828 L 86.293 41.828 L 86.293 44.633 L 83.638 45.034 L 83.783 46.025 L 86.293 45.635 L 86.293 48.975 C 86.291 49.26 86.403 49.534 86.605 49.735 C 86.813 49.953 87.065 50.061 87.362 50.061 L 91.754 50.061 L 91.754 49.07 L 87.663 49.07 C 87.455 49.07 87.351 48.975 87.351 48.786 L 87.351 45.491 L 90.602 45.001 C 90.139 45.708 89.603 46.364 89.004 46.96 L 89.777 47.623 C 90.49 46.925 91.214 45.968 91.948 44.751 Z M 103.239 42.752 L 96.848 42.752 L 96.848 49.343 L 97.884 49.343 L 97.884 48.842 L 102.203 48.842 L 102.203 49.343 L 103.239 49.343 Z M 97.884 47.885 L 97.884 43.721 L 102.203 43.721 L 102.203 47.885 Z M 115.086 44.578 L 115.086 43.642 L 109.642 43.642 C 109.939 42.852 110.143 42.225 110.254 41.761 L 109.308 41.488 C 108.691 43.545 107.825 45.19 106.708 46.426 L 107.543 47.038 C 108.197 46.29 108.756 45.463 109.208 44.578 L 111.941 44.578 C 111.763 46.723 110.748 48.532 108.896 50.005 L 109.72 50.662 C 111.678 49.074 112.762 47.046 112.97 44.578 Z M 113.878 41.695 L 113.171 42.046 C 113.544 42.473 113.874 42.935 114.156 43.426 L 114.874 43.098 C 114.565 42.545 114.233 42.077 113.878 41.695 Z M 115.063 41.216 L 114.378 41.589 C 114.838 42.127 115.185 42.63 115.419 43.098 L 116.104 42.73 C 115.792 42.118 115.445 41.613 115.063 41.216 Z M 126.226 45.419 L 117.849 45.419 L 117.849 46.426 L 126.226 46.426 Z M 134.579 45.741 L 133.71 46.353 C 134.264 46.878 134.776 47.446 135.241 48.051 C 133.694 48.237 132.265 48.355 130.955 48.407 C 131.886 46.384 132.662 44.292 133.276 42.151 L 132.252 41.873 C 131.569 44.392 130.738 46.589 129.758 48.463 L 128.283 48.463 L 128.551 49.538 C 131.552 49.445 134.018 49.257 135.948 48.975 C 136.168 49.284 136.373 49.603 136.56 49.933 L 137.373 49.321 C 136.768 48.215 135.836 47.022 134.579 45.741 Z M 149.236 42.685 L 145.256 42.685 C 145.29 42.112 145.318 41.539 145.339 40.965 L 144.32 40.954 C 144.311 41.531 144.289 42.109 144.253 42.685 L 140.184 42.685 L 140.184 50.868 L 141.23 50.868 L 141.23 43.632 L 144.125 43.632 C 143.895 45.45 143.045 47.016 141.576 48.33 L 142.316 49.048 C 143.5 47.876 144.309 46.662 144.743 45.408 C 145.604 46.443 146.413 47.672 147.17 49.093 L 147.983 48.442 C 147.113 46.969 146.124 45.569 145.027 44.256 C 145.078 44.05 145.117 43.842 145.144 43.632 L 148.222 43.632 L 148.222 49.549 C 148.222 49.783 148.096 49.9 147.844 49.9 C 146.905 49.9 146.328 49.893 146.113 49.878 L 146.464 50.88 C 146.927 50.908 147.392 50.919 147.856 50.913 C 148.776 50.913 149.236 50.51 149.236 49.705 Z M 159.893 48.462 C 159.771 49.375 159.622 49.832 159.448 49.832 C 159.362 49.832 159.228 49.735 159.044 49.54 C 158.86 49.345 158.705 49.101 158.579 48.808 C 159.139 47.85 159.627 46.691 160.043 45.329 L 159.141 45.067 C 158.784 46.214 158.454 47.069 158.15 47.633 C 157.919 46.801 157.786 45.787 157.749 44.588 L 160.61 44.588 L 160.61 43.753 L 157.727 43.753 C 157.716 43.538 157.716 43.322 157.727 43.107 L 156.748 43.085 C 156.733 43.307 156.733 43.531 156.748 43.753 L 151.376 43.753 L 151.376 47.004 C 151.376 48.377 151.118 49.449 150.602 50.221 L 151.365 50.939 C 152.011 49.956 152.334 48.698 152.334 47.165 L 152.334 44.588 L 156.781 44.588 C 156.87 46.306 157.106 47.709 157.488 48.796 C 157.15 49.289 156.672 49.863 156.052 50.516 L 156.87 50.995 C 157.33 50.524 157.699 50.103 157.977 49.732 C 158.523 50.53 159.033 50.929 159.508 50.929 C 159.898 50.929 160.199 50.686 160.41 50.2 C 160.621 49.714 160.734 49.291 160.749 48.931 Z M 155.411 41.6 L 154.236 41.6 L 154.236 40.927 L 153.223 40.927 L 153.223 41.6 L 150.679 41.6 L 150.679 42.491 L 153.223 42.491 L 153.223 43.198 L 154.236 43.198 L 154.236 42.491 L 155.411 42.491 Z M 156.552 45.102 L 152.8 45.102 L 152.8 50.05 L 156.379 50.05 L 156.379 49.265 L 155.377 49.265 L 155.377 48.592 L 156.357 48.592 L 156.357 46.493 L 155.377 46.493 L 155.377 45.864 L 156.552 45.864 Z M 153.725 46.493 L 153.725 45.864 L 154.476 45.864 L 154.476 46.493 Z M 153.724 47.896 L 153.724 47.178 L 155.444 47.178 L 155.444 47.896 Z M 153.725 49.265 L 153.725 48.592 L 154.476 48.592 L 154.476 49.265 Z M 160.609 41.6 L 158.138 41.6 L 158.138 40.927 L 157.097 40.927 L 157.097 41.6 L 155.889 41.6 L 155.889 42.491 L 157.097 42.491 L 157.097 42.797 L 158.138 42.797 L 158.138 42.491 L 160.609 42.491 Z M 158.946 42.558 L 158.411 43.12 C 159.142 43.444 159.545 43.629 159.619 43.677 L 160.142 43.087 C 159.741 42.879 159.342 42.702 158.946 42.558 Z M 173.391 47.038 C 174.26 46.59 175.062 46.022 175.773 45.351 L 175.055 44.711 C 174.339 45.416 173.589 45.963 172.806 46.353 C 172.598 45.793 172.257 45.253 171.782 44.733 C 172.061 44.57 172.292 44.396 172.478 44.21 L 174.816 44.21 L 174.816 43.325 L 168.376 43.325 L 168.376 44.21 L 171.143 44.21 C 169.821 44.945 168.362 45.399 166.857 45.546 L 167.314 46.414 C 168.698 46.169 169.914 45.773 170.96 45.228 C 171.198 45.484 171.328 45.627 171.35 45.657 C 169.88 46.715 168.325 47.381 166.685 47.655 L 167.119 48.485 C 168.871 48.121 170.426 47.414 171.784 46.364 C 171.885 46.553 171.965 46.753 172.023 46.959 C 170.491 48.347 168.612 49.295 166.585 49.704 L 167.03 50.561 C 169.037 50.049 170.755 49.19 172.184 47.984 C 172.191 48.144 172.195 48.316 172.195 48.502 C 172.195 49.085 172.171 49.433 172.123 49.546 C 172.078 49.656 172.008 49.754 171.92 49.833 C 171.833 49.911 171.65 49.95 171.372 49.95 C 171.149 49.95 170.776 49.941 170.253 49.922 L 170.587 50.891 C 170.891 50.903 171.138 50.908 171.327 50.908 C 172.05 50.908 172.539 50.748 172.791 50.427 C 173.043 50.106 173.169 49.509 173.169 48.637 C 173.169 48.436 173.163 48.258 173.152 48.102 C 173.787 48.919 174.763 49.697 176.08 50.435 L 176.659 49.605 C 175.185 48.852 174.096 47.996 173.391 47.038 Z M 176.286 41.773 L 172.156 41.773 C 171.997 41.465 171.826 41.168 171.644 40.882 L 170.564 41.099 C 170.73 41.309 170.875 41.535 170.998 41.773 L 166.89 41.773 L 166.89 43.838 L 167.897 43.838 L 167.897 42.674 L 175.295 42.674 L 175.295 43.838 L 176.286 43.838 Z M 187.734 41.773 L 183.698 41.773 C 183.427 41.286 183.256 40.997 183.186 40.904 L 182.101 41.133 C 182.27 41.329 182.416 41.543 182.535 41.773 L 178.672 41.773 L 178.672 46.56 C 178.672 48.055 178.39 49.321 177.826 50.356 L 178.65 50.985 C 179.332 49.812 179.674 48.372 179.674 46.665 L 179.674 42.719 L 187.734 42.719 Z M 187.874 49.776 L 184.441 49.776 C 183.428 49.776 182.645 49.585 182.092 49.203 C 182.412 48.602 182.636 47.828 182.766 46.882 L 182.766 45.947 L 181.419 45.947 C 181.872 45.475 182.277 44.958 182.627 44.405 L 182.627 43.47 L 180.122 43.47 L 180.122 44.405 L 181.48 44.405 C 180.972 45.099 180.519 45.613 180.122 45.947 L 180.122 46.882 L 181.764 46.882 C 181.727 47.48 181.6 47.991 181.385 48.418 C 181.255 48.221 181.092 47.834 180.895 47.255 L 179.982 47.561 C 180.282 48.359 180.575 48.921 180.861 49.248 C 180.512 49.608 180.067 49.916 179.525 50.172 L 180.176 50.963 C 180.765 50.629 181.225 50.289 181.556 49.944 C 182.338 50.486 183.326 50.757 184.517 50.757 L 187.573 50.757 L 187.874 49.778 Z M 187.607 48.063 L 185.775 48.063 L 185.775 46.616 L 187.211 46.616 L 187.211 45.698 L 185.775 45.698 L 185.775 44.406 C 186.309 44.317 186.909 44.176 187.573 43.983 L 187.028 43.143 C 185.885 43.489 184.533 43.704 182.97 43.789 L 183.354 44.702 C 183.729 44.676 184.2 44.635 184.768 44.579 L 184.768 45.698 L 183.287 45.698 L 183.287 46.616 L 184.768 46.616 L 184.768 48.063 L 182.914 48.063 L 182.914 48.998 L 187.607 48.998 Z M 198.268 49.755 L 198.268 41.194 L 189.83 41.194 L 189.83 46.243 C 189.825 46.997 189.737 47.748 189.568 48.483 C 189.394 49.264 189.147 49.892 188.828 50.367 L 189.73 50.951 C 190.279 50.083 190.617 48.916 190.743 47.45 L 193.504 47.45 L 193.504 50.639 L 194.472 50.639 L 194.472 47.45 L 197.278 47.45 L 197.278 49.504 C 197.276 49.597 197.238 49.686 197.172 49.752 C 197.113 49.823 197.025 49.865 196.933 49.866 L 195.659 49.877 L 195.965 50.879 C 196.24 50.898 196.505 50.907 196.761 50.907 C 197.321 50.907 197.712 50.792 197.935 50.562 C 198.158 50.332 198.269 50.063 198.269 49.755 Z M 190.843 43.838 L 190.843 42.185 L 193.504 42.185 L 193.504 43.838 Z M 190.843 46.493 L 190.843 44.784 L 193.504 44.784 L 193.504 46.493 Z M 194.472 43.838 L 194.472 42.185 L 197.278 42.185 L 197.278 43.838 Z M 194.472 46.493 L 194.472 44.784 L 197.278 44.784 L 197.278 46.493 Z M 208.984 45.23 L 208.984 44.294 L 200.651 44.294 L 200.651 45.229 L 204.458 45.229 C 204.466 46.216 204.43 46.93 204.35 47.369 C 204.27 47.809 204.056 48.23 203.707 48.63 C 203.358 49.031 202.796 49.41 202.02 49.766 L 202.705 50.54 C 203.544 50.158 204.167 49.705 204.573 49.182 C 204.979 48.659 205.237 48.098 205.347 47.498 C 205.456 46.899 205.511 46.143 205.511 45.23 Z M 207.666 42.045 L 201.999 42.045 L 201.999 43.003 L 207.666 43.003 Z M 219.187 44.713 C 218.222 46.03 217.335 46.947 216.526 47.465 C 215.717 47.982 214.787 48.354 213.737 48.581 L 213.737 41.946 L 212.702 41.946 L 212.702 49.789 C 214.309 49.588 215.653 49.174 216.735 48.547 C 217.816 47.92 218.881 46.894 219.927 45.469 Z M 230.084 49.755 L 230.084 48.772 L 225.208 48.772 C 225.149 48.772 225.083 48.74 225.011 48.675 C 224.938 48.61 224.902 48.548 224.902 48.488 L 224.902 45.821 C 226.634 45.644 228.339 45.269 229.985 44.702 L 229.462 43.839 C 228.085 44.317 226.566 44.659 224.903 44.863 L 224.903 41.946 L 223.829 41.946 L 223.829 48.648 C 223.822 48.951 223.951 49.242 224.18 49.441 C 224.414 49.651 224.689 49.755 225.004 49.755 Z M 229.451 41.934 L 228.811 42.363 C 229.2 42.826 229.547 43.324 229.847 43.849 L 230.509 43.437 C 230.238 42.903 229.886 42.402 229.451 41.934 Z M 230.431 41.272 L 229.791 41.684 C 230.2 42.149 230.553 42.661 230.843 43.209 L 231.5 42.764 C 231.163 42.163 230.806 41.665 230.431 41.272 Z M 242.174 43.642 L 236.729 43.642 C 237.026 42.852 237.231 42.225 237.342 41.761 L 236.395 41.488 C 235.78 43.545 234.912 45.19 233.796 46.426 L 234.631 47.038 C 235.311 46.252 235.866 45.432 236.296 44.578 L 239.03 44.578 C 238.85 46.723 237.837 48.532 235.985 50.005 L 236.807 50.662 C 238.768 49.074 239.85 47.046 240.059 44.578 L 242.174 44.578 Z M 240.965 41.695 L 240.258 42.046 C 240.631 42.473 240.961 42.935 241.244 43.426 L 241.961 43.098 C 241.655 42.545 241.323 42.077 240.965 41.695 Z M 242.151 41.216 L 241.467 41.589 C 241.926 42.127 242.274 42.63 242.508 43.098 L 243.192 42.73 C 242.881 42.118 242.534 41.613 242.151 41.216 Z M 253.355 45.419 L 244.978 45.419 L 244.978 46.426 L 253.355 46.426 Z M 261.645 45.741 L 260.777 46.353 C 261.33 46.879 261.842 47.447 262.308 48.051 C 260.885 48.226 259.455 48.345 258.022 48.407 C 258.953 46.383 259.729 44.292 260.343 42.151 L 259.319 41.873 C 258.637 44.392 257.804 46.589 256.825 48.463 L 255.35 48.463 L 255.617 49.538 C 258.619 49.445 261.085 49.257 263.015 48.975 C 263.17 49.183 263.374 49.502 263.627 49.933 L 264.44 49.321 C 263.835 48.215 262.904 47.022 261.645 45.741 Z" style="fill: rgb(255, 255, 255);"/>
</svg>