<?xml version="1.0" encoding="UTF-8" standalone="no"?><!-- Generator: Gravit.io --><svg xmlns="http://www.w3.org/2000/svg" xmlns:xlink="http://www.w3.org/1999/xlink" style="isolation:isolate" viewBox="0 0 264 55.804" width="264pt" height="55.804pt"><defs><clipPath id="_clipPath_QU1vd5FFCmdKNpBzslpL6k2WA9Xzp254"><rect width="264" height="55.804"/></clipPath></defs><g clip-path="url(#_clipPath_QU1vd5FFCmdKNpBzslpL6k2WA9Xzp254)"><g><path d=" M 224.73 0 C 219.591 0 215.304 4.287 215.304 9.426 L 215.304 25.893 C 215.304 31.032 219.591 35.319 224.73 35.319 L 254.574 35.319 C 259.713 35.319 264 31.032 264 25.893 L 264 9.426 C 264 4.287 259.713 0 254.574 0 L 224.73 0 Z  M 226.866 10.014 L 252.218 10.014 L 252.218 25.306 L 226.866 25.306 L 226.866 10.014 Z " fill="rgb(255,255,255)"/><path d=" M 0 0.704 L 0 35.359 L 11.562 35.359 L 11.562 10.717 L 33.389 10.717 L 33.389 35.359 L 44.73 35.359 L 44.73 10.131 C 44.73 4.992 40.442 0.704 35.303 0.704 L 0 0.704 Z " fill="rgb(255,255,255)"/><path d=" M 52.553 0.704 L 52.553 9.818 L 83.961 9.818 L 83.961 12.281 L 59.437 12.281 C 54.298 12.281 50.011 16.608 50.011 21.747 L 50.011 25.933 C 50.011 31.07 54.298 35.359 59.437 35.359 L 83.961 35.359 L 89.084 35.359 L 95.304 35.359 L 95.304 10.131 C 95.304 4.992 91.017 0.704 85.878 0.704 L 52.553 0.704 Z  M 61.822 21.512 L 83.961 21.512 L 83.961 26.441 L 61.822 26.441 L 61.822 21.512 Z " fill="rgb(255,255,255)"/><path d=" M 102.423 0.704 L 102.423 35.359 L 114.001 35.359 L 114.001 10.717 L 125.891 10.717 L 125.891 35.359 L 137.469 35.359 L 137.469 10.717 L 149.593 10.717 L 149.593 35.359 L 160.936 35.359 L 160.936 10.131 C 160.936 4.992 156.648 0.704 151.51 0.704 L 102.423 0.704 Z " fill="rgb(255,255,255)"/><path d=" M 177.09 0 C 171.951 0 167.664 4.287 167.664 9.426 L 167.664 25.893 C 167.664 31.032 171.951 35.319 177.09 35.319 L 208.773 35.319 L 208.773 25.306 L 179.447 25.306 L 179.447 10.014 L 208.773 10.014 L 208.773 0 L 177.09 0 Z " fill="rgb(255,255,255)"/><path d=" M 135.312 55.804 L 135.312 55.804 Q 133.89 55.804 132.732 55.128 L 132.732 55.128 L 132.732 55.128 Q 131.574 54.453 130.899 53.281 L 130.899 53.281 L 130.899 53.281 Q 130.223 52.108 130.223 50.687 L 130.223 50.687 L 130.223 50.687 Q 130.223 49.237 130.877 48.071 L 130.877 48.071 L 130.877 48.071 Q 131.531 46.906 132.668 46.245 L 132.668 46.245 L 132.668 46.245 Q 133.805 45.584 135.227 45.584 L 135.227 45.584 L 135.227 45.584 Q 135.994 45.584 136.733 45.769 L 136.733 45.769 L 136.733 45.769 Q 137.472 45.954 137.998 46.295 L 137.998 46.295 L 137.614 48.498 L 137.614 48.498 Q 136.591 48.114 135.767 48.114 L 135.767 48.114 L 135.767 48.114 Q 134.63 48.114 134.018 48.775 L 134.018 48.775 L 134.018 48.775 Q 133.407 49.436 133.407 50.672 L 133.407 50.672 L 133.407 50.672 Q 133.407 51.881 134.054 52.556 L 134.054 52.556 L 134.054 52.556 Q 134.701 53.231 135.852 53.231 L 135.852 53.231 L 135.852 53.231 Q 136.293 53.231 136.676 53.146 L 136.676 53.146 L 136.676 53.146 Q 137.06 53.06 137.614 52.833 L 137.614 52.833 L 138.012 55.079 L 138.012 55.079 Q 136.776 55.804 135.312 55.804 L 135.312 55.804 Z  M 146.945 55.576 L 146.945 45.797 L 150.015 45.797 L 150.015 53.416 L 153.412 53.416 L 153.412 55.576 L 146.945 55.576 Z  M 161.393 55.576 L 164.093 45.797 L 168.414 45.797 L 171.243 55.576 L 167.902 55.576 L 167.533 53.7 L 165.003 53.7 L 164.591 55.576 L 161.393 55.576 Z  M 165.301 51.952 L 167.192 51.952 L 166.268 47.673 L 165.301 51.952 Z  M 182.862 55.804 L 182.862 55.804 Q 180.857 55.804 179.479 55.064 L 179.479 55.064 L 180.189 52.861 L 180.189 52.861 Q 181.653 53.387 182.805 53.387 L 182.805 53.387 L 182.805 53.387 Q 183.43 53.387 183.721 53.238 L 183.721 53.238 L 183.721 53.238 Q 184.013 53.089 184.013 52.79 L 184.013 52.79 L 184.013 52.79 Q 184.013 52.591 183.857 52.442 L 183.857 52.442 L 183.857 52.442 Q 183.7 52.293 183.231 52.108 L 183.231 52.108 L 183.231 52.108 Q 182.762 51.923 181.824 51.653 L 181.824 51.653 L 181.824 51.653 Q 180.673 51.312 180.033 50.537 L 180.033 50.537 L 180.033 50.537 Q 179.393 49.763 179.393 48.754 L 179.393 48.754 L 179.393 48.754 Q 179.393 47.19 180.424 46.387 L 180.424 46.387 L 180.424 46.387 Q 181.454 45.584 183.203 45.584 L 183.203 45.584 L 183.203 45.584 Q 184.112 45.584 184.994 45.776 L 184.994 45.776 L 184.994 45.776 Q 185.875 45.968 186.557 46.337 L 186.557 46.337 L 185.79 48.484 L 185.79 48.484 Q 184.994 48.214 184.404 48.093 L 184.404 48.093 L 184.404 48.093 Q 183.814 47.972 183.26 47.972 L 183.26 47.972 L 183.26 47.972 Q 182.321 47.972 182.321 48.484 L 182.321 48.484 L 182.321 48.484 Q 182.321 48.739 182.627 48.917 L 182.627 48.917 L 182.627 48.917 Q 182.933 49.095 183.885 49.365 L 183.885 49.365 L 183.885 49.365 Q 185.377 49.763 186.145 50.58 L 186.145 50.58 L 186.145 50.58 Q 186.912 51.397 186.912 52.534 L 186.912 52.534 L 186.912 52.534 Q 186.912 54.112 185.889 54.958 L 185.889 54.958 L 185.889 54.958 Q 184.866 55.804 182.862 55.804 L 182.862 55.804 Z  M 198.858 55.804 L 198.858 55.804 Q 196.854 55.804 195.476 55.064 L 195.476 55.064 L 196.186 52.861 L 196.186 52.861 Q 197.65 53.387 198.801 53.387 L 198.801 53.387 L 198.801 53.387 Q 199.427 53.387 199.718 53.238 L 199.718 53.238 L 199.718 53.238 Q 200.01 53.089 200.01 52.79 L 200.01 52.79 L 200.01 52.79 Q 200.01 52.591 199.853 52.442 L 199.853 52.442 L 199.853 52.442 Q 199.697 52.293 199.228 52.108 L 199.228 52.108 L 199.228 52.108 Q 198.759 51.923 197.821 51.653 L 197.821 51.653 L 197.821 51.653 Q 196.669 51.312 196.03 50.537 L 196.03 50.537 L 196.03 50.537 Q 195.39 49.763 195.39 48.754 L 195.39 48.754 L 195.39 48.754 Q 195.39 47.19 196.421 46.387 L 196.421 46.387 L 196.421 46.387 Q 197.451 45.584 199.199 45.584 L 199.199 45.584 L 199.199 45.584 Q 200.109 45.584 200.99 45.776 L 200.99 45.776 L 200.99 45.776 Q 201.872 45.968 202.554 46.337 L 202.554 46.337 L 201.786 48.484 L 201.786 48.484 Q 200.99 48.214 200.401 48.093 L 200.401 48.093 L 200.401 48.093 Q 199.811 47.972 199.256 47.972 L 199.256 47.972 L 199.256 47.972 Q 198.318 47.972 198.318 48.484 L 198.318 48.484 L 198.318 48.484 Q 198.318 48.739 198.624 48.917 L 198.624 48.917 L 198.624 48.917 Q 198.929 49.095 199.882 49.365 L 199.882 49.365 L 199.882 49.365 Q 201.374 49.763 202.142 50.58 L 202.142 50.58 L 202.142 50.58 Q 202.909 51.397 202.909 52.534 L 202.909 52.534 L 202.909 52.534 Q 202.909 54.112 201.886 54.958 L 201.886 54.958 L 201.886 54.958 Q 200.862 55.804 198.858 55.804 L 198.858 55.804 Z  M 211.899 55.576 L 211.899 45.797 L 215.182 45.797 L 215.182 55.576 L 211.899 55.576 Z  M 229.288 55.804 L 229.288 55.804 Q 227.867 55.804 226.709 55.128 L 226.709 55.128 L 226.709 55.128 Q 225.55 54.453 224.875 53.281 L 224.875 53.281 L 224.875 53.281 Q 224.2 52.108 224.2 50.687 L 224.2 50.687 L 224.2 50.687 Q 224.2 49.237 224.854 48.071 L 224.854 48.071 L 224.854 48.071 Q 225.508 46.906 226.645 46.245 L 226.645 46.245 L 226.645 46.245 Q 227.782 45.584 229.203 45.584 L 229.203 45.584 L 229.203 45.584 Q 229.971 45.584 230.71 45.769 L 230.71 45.769 L 230.71 45.769 Q 231.449 45.954 231.975 46.295 L 231.975 46.295 L 231.591 48.498 L 231.591 48.498 Q 230.568 48.114 229.743 48.114 L 229.743 48.114 L 229.743 48.114 Q 228.606 48.114 227.995 48.775 L 227.995 48.775 L 227.995 48.775 Q 227.384 49.436 227.384 50.672 L 227.384 50.672 L 227.384 50.672 Q 227.384 51.881 228.031 52.556 L 228.031 52.556 L 228.031 52.556 Q 228.677 53.231 229.829 53.231 L 229.829 53.231 L 229.829 53.231 Q 230.269 53.231 230.653 53.146 L 230.653 53.146 L 230.653 53.146 Q 231.037 53.06 231.591 52.833 L 231.591 52.833 L 231.989 55.079 L 231.989 55.079 Q 230.752 55.804 229.288 55.804 L 229.288 55.804 Z  M 243.949 55.804 L 243.949 55.804 Q 241.945 55.804 240.566 55.064 L 240.566 55.064 L 241.277 52.861 L 241.277 52.861 Q 242.741 53.387 243.892 53.387 L 243.892 53.387 L 243.892 53.387 Q 244.518 53.387 244.809 53.238 L 244.809 53.238 L 244.809 53.238 Q 245.1 53.089 245.1 52.79 L 245.1 52.79 L 245.1 52.79 Q 245.1 52.591 244.944 52.442 L 244.944 52.442 L 244.944 52.442 Q 244.788 52.293 244.319 52.108 L 244.319 52.108 L 244.319 52.108 Q 243.85 51.923 242.912 51.653 L 242.912 51.653 L 242.912 51.653 Q 241.76 51.312 241.121 50.537 L 241.121 50.537 L 241.121 50.537 Q 240.481 49.763 240.481 48.754 L 240.481 48.754 L 240.481 48.754 Q 240.481 47.19 241.512 46.387 L 241.512 46.387 L 241.512 46.387 Q 242.542 45.584 244.29 45.584 L 244.29 45.584 L 244.29 45.584 Q 245.2 45.584 246.081 45.776 L 246.081 45.776 L 246.081 45.776 Q 246.962 45.968 247.645 46.337 L 247.645 46.337 L 246.877 48.484 L 246.877 48.484 Q 246.081 48.214 245.491 48.093 L 245.491 48.093 L 245.491 48.093 Q 244.901 47.972 244.347 47.972 L 244.347 47.972 L 244.347 47.972 Q 243.409 47.972 243.409 48.484 L 243.409 48.484 L 243.409 48.484 Q 243.409 48.739 243.715 48.917 L 243.715 48.917 L 243.715 48.917 Q 244.02 49.095 244.973 49.365 L 244.973 49.365 L 244.973 49.365 Q 246.465 49.763 247.232 50.58 L 247.232 50.58 L 247.232 50.58 Q 248 51.397 248 52.534 L 248 52.534 L 248 52.534 Q 248 54.112 246.977 54.958 L 246.977 54.958 L 246.977 54.958 Q 245.953 55.804 243.949 55.804 L 243.949 55.804 Z  M 16 55.576 L 18.701 45.797 L 23.022 45.797 L 25.85 55.576 L 22.51 55.576 L 22.14 53.7 L 19.61 53.7 L 19.198 55.576 L 16 55.576 Z  M 19.909 51.952 L 21.799 51.952 L 20.875 47.673 L 19.909 51.952 Z  M 41.847 55.804 L 41.847 55.804 Q 39.175 55.804 38.578 53.33 L 38.578 53.33 L 38.222 51.866 L 37.554 51.866 L 37.554 55.576 L 34.442 55.576 L 34.442 45.797 L 38.748 45.797 L 38.748 45.797 Q 39.971 45.797 40.902 46.16 L 40.902 46.16 L 40.902 46.16 Q 41.833 46.522 42.344 47.176 L 42.344 47.176 L 42.344 47.176 Q 42.856 47.83 42.856 48.683 L 42.856 48.683 L 42.856 48.683 Q 42.856 49.635 42.394 50.282 L 42.394 50.282 L 42.394 50.282 Q 41.932 50.928 40.966 51.34 L 40.966 51.34 L 40.966 51.34 Q 41.065 51.881 41.193 52.321 L 41.193 52.321 L 41.193 52.321 Q 41.364 52.861 41.662 53.075 L 41.662 53.075 L 41.662 53.075 Q 41.961 53.288 42.529 53.288 L 42.529 53.288 L 42.529 53.288 Q 42.728 53.288 43.155 53.231 L 43.155 53.231 L 43.155 55.548 L 43.155 55.548 Q 42.486 55.804 41.847 55.804 L 41.847 55.804 Z  M 37.554 49.876 L 38.095 49.876 L 38.095 49.876 Q 39.146 49.876 39.58 49.642 L 39.58 49.642 L 39.58 49.642 Q 40.013 49.407 40.013 48.839 L 40.013 48.839 L 40.013 48.839 Q 40.013 48.356 39.658 48.135 L 39.658 48.135 L 39.658 48.135 Q 39.303 47.915 38.535 47.915 L 38.535 47.915 L 37.554 47.915 L 37.554 49.876 Z  M 56.55 55.804 L 56.55 55.804 Q 55.129 55.804 53.97 55.128 L 53.97 55.128 L 53.97 55.128 Q 52.812 54.453 52.137 53.281 L 52.137 53.281 L 52.137 53.281 Q 51.462 52.108 51.462 50.687 L 51.462 50.687 L 51.462 50.687 Q 51.462 49.237 52.116 48.071 L 52.116 48.071 L 52.116 48.071 Q 52.769 46.906 53.907 46.245 L 53.907 46.245 L 53.907 46.245 Q 55.044 45.584 56.465 45.584 L 56.465 45.584 L 56.465 45.584 Q 57.232 45.584 57.972 45.769 L 57.972 45.769 L 57.972 45.769 Q 58.711 45.954 59.237 46.295 L 59.237 46.295 L 58.853 48.498 L 58.853 48.498 Q 57.829 48.114 57.005 48.114 L 57.005 48.114 L 57.005 48.114 Q 55.868 48.114 55.257 48.775 L 55.257 48.775 L 55.257 48.775 Q 54.646 49.436 54.646 50.672 L 54.646 50.672 L 54.646 50.672 Q 54.646 51.881 55.292 52.556 L 55.292 52.556 L 55.292 52.556 Q 55.939 53.231 57.09 53.231 L 57.09 53.231 L 57.09 53.231 Q 57.531 53.231 57.915 53.146 L 57.915 53.146 L 57.915 53.146 Q 58.299 53.06 58.853 52.833 L 58.853 52.833 L 59.251 55.079 L 59.251 55.079 Q 58.014 55.804 56.55 55.804 L 56.55 55.804 Z  M 67.331 55.576 L 70.031 45.797 L 74.352 45.797 L 77.181 55.576 L 73.84 55.576 L 73.471 53.7 L 70.941 53.7 L 70.529 55.576 L 67.331 55.576 Z  M 71.239 51.952 L 73.13 51.952 L 72.206 47.673 L 71.239 51.952 Z  M 85.772 55.576 L 85.772 45.797 L 90.022 45.797 L 90.022 45.797 Q 91.557 45.797 92.744 46.408 L 92.744 46.408 L 92.744 46.408 Q 93.931 47.02 94.592 48.114 L 94.592 48.114 L 94.592 48.114 Q 95.253 49.208 95.253 50.616 L 95.253 50.616 L 95.253 50.616 Q 95.253 52.094 94.606 53.217 L 94.606 53.217 L 94.606 53.217 Q 93.959 54.34 92.772 54.958 L 92.772 54.958 L 92.772 54.958 Q 91.586 55.576 90.022 55.576 L 90.022 55.576 L 85.772 55.576 Z  M 88.913 53.018 L 89.88 53.018 L 89.88 53.018 Q 90.946 53.018 91.507 52.343 L 91.507 52.343 L 91.507 52.343 Q 92.069 51.667 92.069 50.587 L 92.069 50.587 L 92.069 50.587 Q 92.069 49.564 91.522 48.96 L 91.522 48.96 L 91.522 48.96 Q 90.974 48.356 89.88 48.356 L 89.88 48.356 L 88.913 48.356 L 88.913 53.018 Z  M 104.285 55.576 L 104.285 45.797 L 111.15 45.797 L 111.15 47.958 L 107.739 47.958 L 107.739 49.734 L 110.851 49.734 L 110.851 51.525 L 107.739 51.525 L 107.739 53.416 L 111.15 53.416 L 111.15 55.576 L 104.285 55.576 Z " fill="rgb(255,255,255)"/></g></g></svg>