<?xml version="1.0" encoding="utf-8"?>
<svg version="1.0" xmlns="http://www.w3.org/2000/svg">
  <path d="M 0 137.325 C 0 136.95 0.564 136.53 1.269 136.342 C 3.808 135.735 3.762 135.875 3.762 123.948 L 3.762 112.769 L 2.539 111.833 C 1.833 111.272 0.987 110.851 0.658 110.851 C 0.282 110.851 0 110.664 0 110.384 C 0 110.103 2.069 109.916 5.313 109.963 L 10.579 109.963 L 16.926 117.868 L 23.273 125.818 L 23.415 119.645 C 23.555 112.769 23.132 111.506 20.687 110.992 C 17.772 110.431 19.465 109.916 24.214 109.916 C 28.963 109.916 30.655 110.477 27.975 111.132 C 25.483 111.741 25.389 112.394 25.389 125.679 C 25.389 135.735 25.295 137.98 24.731 137.98 C 24.402 137.98 20.453 133.536 15.939 128.064 C 11.425 122.591 7.381 117.728 6.959 117.165 C 6.159 116.277 6.159 116.698 6.112 125.445 C 6.112 135.548 6.206 135.875 8.98 136.436 C 9.732 136.576 10.344 136.998 10.344 137.325 C 10.344 137.84 9.262 137.98 5.172 137.98 C 1.082 137.98 0 137.84 0 137.325 Z" style="fill: rgb(255, 255, 255);"/>
  <path d="M 30.091 137.278 C 30.091 136.858 30.514 136.576 31.172 136.576 C 31.783 136.576 32.677 136.296 33.194 135.922 C 34.04 135.267 34.087 134.612 34.087 123.714 C 34.087 112.816 34.04 112.161 33.194 111.506 C 32.677 111.132 31.783 110.851 31.172 110.851 C 30.561 110.851 30.091 110.664 30.091 110.384 C 30.091 110.103 34.416 109.916 42.08 109.916 L 54.069 109.916 L 54.069 114.125 C 54.069 117.446 53.929 118.335 53.411 118.335 C 53.035 118.335 52.612 117.728 52.424 116.932 C 51.671 113.564 48.803 111.787 44.196 111.787 L 41.375 111.787 L 41.375 116.932 L 41.375 122.077 L 42.55 122.077 C 44.243 122.077 45.983 120.16 46.359 117.915 C 46.547 116.745 46.923 115.997 47.299 115.997 C 47.816 115.997 47.957 117.446 47.957 123.48 C 47.957 129.514 47.816 130.964 47.299 130.964 C 46.923 130.964 46.547 130.215 46.359 129.045 C 46.03 126.848 43.914 124.416 42.362 124.416 C 41.422 124.416 41.375 124.649 41.375 129.467 C 41.375 132.788 41.563 134.706 41.939 135.08 C 42.691 135.828 47.628 135.781 49.509 134.986 C 51.296 134.284 53.929 131.431 54.351 129.795 C 54.633 128.626 55.95 128.11 55.95 129.187 C 55.95 129.748 55.104 135.173 54.728 136.95 L 54.54 137.98 L 42.315 137.98 C 31.783 137.98 30.091 137.886 30.091 137.278 Z" style="fill: rgb(255, 255, 255);"/>
  <path d="M 68.504 137.325 C 61.169 134.612 57.596 126.801 59.994 118.803 C 60.981 115.482 65.025 111.366 68.363 110.244 C 71.325 109.214 77.155 109.214 80.07 110.197 C 82.938 111.179 86.276 114.125 87.828 117.119 C 89.473 120.299 89.614 126.287 88.062 129.608 C 86.793 132.414 84.019 135.454 81.621 136.716 C 79.177 137.98 71.278 138.354 68.504 137.325 Z M 77.39 135.22 C 78.189 134.753 79.317 133.349 79.976 132.087 C 80.963 130.028 81.104 129.187 81.104 123.714 C 81.104 118.242 81.01 117.399 79.976 115.389 C 77.296 109.963 71.278 109.963 68.551 115.435 C 67.61 117.399 67.469 118.289 67.469 123.714 C 67.469 129.187 67.563 130.028 68.598 132.04 C 70.478 135.828 74.146 137.185 77.39 135.22 Z" style="fill: rgb(255, 255, 255);"/>
  <path d="M 112.324 137.372 C 103.813 134.238 100.146 125.304 104.096 117.494 C 105.6 114.546 109.408 111.132 112.229 110.197 C 115.379 109.121 121.398 109.214 124.877 110.384 L 127.651 111.366 L 128.45 110.384 C 129.908 108.559 130.237 109.261 130.237 114.359 C 130.237 119.879 129.626 120.721 128.121 117.399 C 126.335 113.471 122.15 110.992 118.154 111.459 C 112.841 112.021 110.02 117.399 110.631 125.865 C 111.148 133.676 115.003 137.138 121.727 135.828 L 123.184 135.548 L 123.184 131.9 C 123.184 128.017 122.526 126.754 120.457 126.754 C 119.893 126.754 119.423 126.567 119.423 126.287 C 119.423 126.006 122.103 125.818 126.475 125.818 C 130.378 125.818 133.528 125.96 133.528 126.193 C 133.528 126.38 132.823 126.848 131.977 127.222 L 130.472 127.923 L 130.331 131.946 L 130.19 135.968 L 127.745 136.811 C 124.548 137.933 114.768 138.26 112.324 137.372 Z" style="fill: rgb(255, 255, 255);"/>
  <path d="M 133.998 137.278 C 133.998 136.858 134.421 136.576 135.08 136.576 C 135.691 136.576 136.584 136.296 137.101 135.922 C 137.947 135.267 137.995 134.612 137.995 123.714 C 137.995 112.816 137.947 112.161 137.101 111.506 C 136.584 111.132 135.691 110.851 135.08 110.851 C 134.468 110.851 133.998 110.664 133.998 110.384 C 133.998 110.103 138.324 109.916 145.988 109.916 L 157.977 109.916 L 157.977 114.125 C 157.977 117.446 157.836 118.335 157.318 118.335 C 156.942 118.335 156.519 117.728 156.331 116.932 C 155.579 113.564 152.711 111.787 148.103 111.787 L 145.282 111.787 L 145.282 116.932 L 145.282 122.077 L 146.458 122.077 C 148.15 122.077 149.89 120.16 150.266 117.915 C 150.454 116.745 150.83 115.997 151.206 115.997 C 151.723 115.997 151.865 117.446 151.865 123.48 C 151.865 129.514 151.723 130.964 151.206 130.964 C 150.83 130.964 150.454 130.215 150.266 129.045 C 149.937 126.848 147.821 124.416 146.27 124.416 C 145.329 124.416 145.282 124.649 145.282 129.467 C 145.282 132.788 145.47 134.706 145.846 135.08 C 146.599 135.828 151.536 135.781 153.416 134.986 C 155.203 134.284 157.836 131.431 158.259 129.795 C 158.541 128.626 159.858 128.11 159.858 129.187 C 159.858 129.748 159.011 135.173 158.635 136.95 L 158.447 137.98 L 146.223 137.98 C 135.691 137.98 133.998 137.886 133.998 137.278 Z" style="fill: rgb(255, 255, 255);"/>
  <path d="M 172.411 137.325 C 165.077 134.612 161.503 126.801 163.901 118.803 C 164.888 115.482 168.932 111.366 172.27 110.244 C 175.232 109.214 181.062 109.214 183.977 110.197 C 186.845 111.179 190.183 114.125 191.735 117.119 C 193.38 120.299 193.522 126.287 191.97 129.608 C 190.701 132.414 187.927 135.454 185.529 136.716 C 183.084 137.98 175.185 138.354 172.411 137.325 Z M 181.297 135.22 C 182.097 134.753 183.225 133.349 183.883 132.087 C 184.87 130.028 185.012 129.187 185.012 123.714 C 185.012 118.242 184.917 117.399 183.883 115.389 C 181.203 109.963 175.185 109.963 172.458 115.435 C 171.518 117.399 171.376 118.289 171.376 123.714 C 171.376 129.187 171.471 130.028 172.505 132.04 C 174.386 135.828 178.053 137.185 181.297 135.22 Z" style="fill: rgb(255, 255, 255);"/>
  <path d="M 215.102 137.045 C 211.764 135.735 209.507 133.723 207.956 130.589 C 206.827 128.345 206.639 127.362 206.639 124.182 C 206.639 118.055 209.413 113.611 214.962 110.851 C 217.406 109.636 218.346 109.449 221.45 109.449 C 223.847 109.449 225.963 109.776 227.844 110.384 L 230.618 111.366 L 231.417 110.384 C 232.875 108.559 233.204 109.261 233.204 114.359 C 233.204 118.289 233.063 119.27 232.546 119.27 C 232.17 119.27 231.746 118.663 231.558 117.96 C 231.182 116.23 228.831 113.377 226.951 112.442 C 225.117 111.459 221.544 111.459 219.757 112.394 C 216.513 114.079 214.773 117.26 214.491 122.17 C 214.115 128.438 215.949 133.302 219.24 134.846 C 222.719 136.53 227.75 135.454 230.571 132.414 C 232.311 130.589 232.734 130.589 232.734 132.32 C 232.734 133.911 230.853 135.735 227.797 137.091 C 225.164 138.307 218.346 138.26 215.102 137.045 Z" style="fill: rgb(255, 255, 255);"/>
  <path d="M 236.025 137.372 C 236.025 136.858 236.401 136.576 237.106 136.576 C 237.717 136.576 238.564 136.202 238.987 135.735 C 239.692 134.986 239.786 133.442 239.786 123.574 C 239.786 112.442 239.786 112.302 238.752 111.599 C 238.188 111.179 237.341 110.851 236.871 110.851 C 236.401 110.851 236.025 110.664 236.025 110.384 C 236.025 109.776 252.622 109.776 254.926 110.384 C 257.888 111.225 260.991 113.658 262.542 116.464 C 263.906 118.85 264 119.364 264 123.714 C 264 127.923 263.859 128.626 262.731 130.823 C 261.226 133.63 259.157 135.314 255.678 136.67 C 253.656 137.419 251.635 137.653 244.629 137.84 C 236.824 138.12 236.025 138.073 236.025 137.372 Z M 253.468 133.957 C 254.221 133.209 255.161 131.619 255.537 130.309 C 256.383 127.596 256.477 120.768 255.725 118.102 C 254.69 114.313 251.682 111.787 248.249 111.787 L 246.839 111.787 L 246.839 123.153 C 246.839 131.619 246.98 134.659 247.45 135.127 C 248.437 136.155 251.87 135.454 253.468 133.957 Z" style="fill: rgb(255, 255, 255);"/>
  <path d="M 93.328 126.287 C 92.811 125.726 92.435 124.603 92.435 123.714 C 92.435 121.516 93.752 120.207 95.961 120.207 C 98.171 120.207 99.676 121.609 99.676 123.714 C 99.676 124.556 99.253 125.631 98.736 126.193 C 97.419 127.549 94.504 127.596 93.328 126.287 Z" style="fill: rgb(255, 255, 255);"/>
  <path d="M 66.2 88.728 L 50.308 73.2 L 50.308 50 L 50.308 26.848 L 63.896 13.424 C 71.372 6.034 77.766 0 78.095 0 C 78.471 0 85.618 6.828 94.034 15.201 L 109.314 30.356 L 120.834 18.943 L 132.352 7.484 L 153.04 7.484 L 173.727 7.531 L 187.456 20.72 L 201.186 33.91 L 201.186 54.304 L 201.232 74.649 L 195.966 79.795 C 185.106 90.224 174.057 100.561 173.587 100.561 C 173.351 100.561 168.509 95.838 162.82 90.038 L 152.476 79.561 L 140.393 91.908 L 128.262 104.304 L 105.177 104.304 L 82.045 104.257 L 66.2 88.728 Z M 137.383 88.307 L 148.997 76.474 L 139.452 66.932 L 129.861 57.39 L 117.495 57.11 L 105.083 56.829 L 104.942 45.65 C 104.895 38.915 104.989 34.284 105.271 33.957 C 105.6 33.536 101.792 29.467 92.012 19.738 L 78.283 6.08 L 66.388 17.68 L 54.493 29.232 L 54.493 50 L 54.54 70.72 L 69.444 85.407 L 84.396 100.047 L 105.083 100.094 L 125.77 100.14 L 137.383 88.307 Z M 174.715 75.773 L 178.993 75.21 L 179.84 70.768 C 180.263 68.335 180.874 66.277 181.203 66.184 C 181.485 66.09 182.896 65.903 184.4 65.716 L 187.033 65.434 L 187.55 62.488 C 188.021 59.729 187.974 59.074 186.422 53.04 C 185.529 49.439 184.777 46.446 184.777 46.399 C 184.777 46.025 173.822 48.364 173.116 48.878 C 173.069 48.925 173.351 50.421 173.774 52.245 C 174.48 55.145 174.48 55.8 173.916 58.232 L 173.257 60.945 L 168.791 62.956 C 166.346 64.079 164.136 65.061 163.854 65.154 C 163.572 65.248 163.76 66.745 164.277 69.037 C 165.124 72.311 165.453 72.965 167.333 74.743 C 168.509 75.819 169.684 76.614 169.966 76.52 C 170.248 76.427 172.364 76.1 174.715 75.773 Z M 148.15 45.229 C 148.339 44.995 148.621 43.499 148.761 41.908 C 148.95 40.364 149.232 38.588 149.326 38.027 C 149.561 37.184 149.09 36.763 146.552 35.36 C 143.637 33.723 143.495 33.676 140.957 34.191 L 138.371 34.706 L 137.76 38.681 L 137.196 42.61 L 139.687 44.855 L 142.179 47.1 L 145 46.399 C 146.599 45.978 148.009 45.464 148.15 45.229 Z M 161.456 29.187 L 162.773 27.502 L 161.926 25.631 C 161.456 24.603 160.657 23.621 160.14 23.386 C 157.225 22.311 157.271 22.311 156.237 24.79 C 154.686 28.391 155.861 30.73 159.152 30.823 C 159.669 30.87 160.657 30.169 161.456 29.187 Z" style="fill: rgb(255, 255, 255);"/>
  <path d="M 92.764 87.465 C 90.084 86.904 88.956 86.296 86.652 84.05 C 84.301 81.805 83.831 80.309 85.947 81.666 C 90.649 84.705 100.428 83.583 105.835 79.327 C 108.327 77.362 108.562 77.035 110.161 72.404 C 111.101 69.785 112.088 66.745 112.324 65.716 C 112.841 63.751 114.016 61.74 114.674 61.74 C 115.379 61.74 115.709 68.569 115.192 71.796 C 114.533 76.005 113.076 79.28 110.349 82.788 C 107.34 86.576 105.318 87.512 99.253 87.746 C 96.761 87.84 93.846 87.699 92.764 87.465 Z" style="fill: rgb(255, 255, 255);"/>
  <path d="M 69.491 55.94 C 67.845 54.537 67.046 52.386 68.127 52.386 C 68.363 52.386 68.692 52.012 68.833 51.544 C 69.209 50.421 71.607 49.579 73.628 49.907 C 74.898 50.14 75.556 50.608 76.45 51.965 C 77.061 52.947 77.578 53.883 77.578 54.022 C 77.578 54.117 76.779 54.958 75.838 55.893 C 73.487 57.998 71.842 58.045 69.491 55.94 Z" style="fill: rgb(255, 255, 255);"/>
  <path d="M 87.216 45.369 C 86.558 44.341 85.665 42.798 85.289 41.955 C 84.536 40.412 84.583 40.364 86.37 37.746 C 87.404 36.202 88.392 35.22 88.768 35.314 C 89.144 35.454 90.32 35.547 91.448 35.547 C 93.47 35.547 93.517 35.594 95.632 38.775 L 97.842 42.002 L 96.056 44.621 L 94.269 47.24 L 91.354 47.24 C 88.439 47.24 88.392 47.24 87.216 45.369 Z" style="fill: rgb(255, 255, 255);"/>
</svg>