<?xml version="1.0" encoding="utf-8"?>
<svg version="1.1" xmlns="http://www.w3.org/2000/svg">
  <path d="M 14.629 41.347 L 13.655 41.347 C 12.258 41.347 11.019 40.92 9.934 40.064 C 8.852 39.208 8.309 37.562 8.309 35.118 L 8.309 9.418 L 36.207 44.124 L 38.016 44.127 L 38.016 8.729 C 38.016 6.716 38.184 6.133 38.517 5.304 C 38.849 4.477 39.314 3.879 39.908 3.512 C 40.503 3.144 41.671 2.847 43.406 2.617 L 43.406 0.814 L 29.567 0.814 L 29.567 2.617 C 31.849 2.574 33.477 3.16 34.444 4.377 C 35.149 5.278 35.503 6.171 35.503 8.731 L 35.503 27.267 L 13.786 0.814 L 0.572 0.814 L 0.572 2.243 C 1.827 2.285 1.873 2.704 2.542 3.06 L 6.08 6.614 L 6.078 35.115 C 6.078 37.372 5.631 38.966 4.74 39.905 C 3.849 40.842 2.267 41.323 0 41.343 L 0 43.066 L 14.622 43.066 L 14.622 41.343 L 14.629 41.347 Z" id="path19" style="fill: rgb(255, 255, 255);"/>
  <path d="M 83.823 29.845 L 81.81 29.845 C 80.761 33.611 79.031 36.414 76.627 38.249 C 74.224 40.083 71.026 41.002 67.041 41.002 L 64.767 41.002 C 63.548 41.002 62.668 40.834 62.121 40.503 C 61.577 40.168 61.203 39.739 61.003 39.216 C 60.805 38.694 60.705 37.265 60.705 34.928 L 60.705 22.963 C 62.752 22.963 65.153 23.23 66.23 23.763 C 67.306 24.295 68.251 25.338 69.064 26.884 C 69.878 28.432 70.41 30.142 70.664 32.568 L 72.394 32.568 L 72.394 10.547 L 70.664 10.547 C 70.326 13.854 69.543 16.076 68.32 17.771 C 67.096 19.468 65.12 20.314 62.399 20.314 L 60.702 20.314 L 60.702 5.545 C 60.688 2.977 62.985 3.273 62.985 3.273 L 65.66 3.273 C 68.903 3.273 71.111 3.462 72.289 3.839 C 74.309 4.466 75.871 5.45 76.977 6.785 C 78.081 8.124 78.937 10.329 79.548 13.4 L 80.997 13.4 L 80.997 0.811 L 44.946 0.811 L 44.946 2.546 L 46.082 2.546 C 47.468 2.546 48.56 2.838 49.357 3.42 C 49.924 3.818 50.313 4.384 50.52 5.113 C 50.626 5.553 50.68 6.731 50.68 8.652 L 50.68 35.264 C 50.68 37.393 50.564 38.708 50.333 39.208 C 50.039 39.918 49.618 40.42 49.075 40.712 C 48.318 41.151 47.322 41.37 46.082 41.37 L 44.946 41.37 L 44.946 43.372 L 81.608 43.372 L 83.812 29.84 L 83.823 29.845 Z" id="path17" style="fill: rgb(255, 255, 255);"/>
  <path d="M 105.475 44.752 C 112.947 44.752 118.734 42.008 122.833 36.52 C 125.924 32.384 127.472 27.598 127.472 22.15 C 127.472 15.779 125.397 10.473 121.253 6.229 C 117.106 1.988 111.716 -0.005 105.079 0.249 C 98.935 -0.003 93.757 1.996 89.554 6.248 C 85.341 10.498 83.241 15.812 83.241 22.183 C 83.241 27.858 84.857 32.765 88.095 36.901 C 92.188 42.132 97.984 44.752 105.482 44.752 M 96.685 8.308 C 98.67 4.302 101.567 2.3 105.377 2.3 C 107.447 2.3 109.274 2.88 110.861 4.041 C 112.448 5.2 113.754 7.188 114.778 10.002 C 115.801 12.82 116.314 17.061 116.314 22.735 C 116.314 27.5 115.813 31.366 114.808 34.33 C 113.806 37.292 112.404 39.45 110.601 40.801 C 109.187 41.855 107.426 42.382 105.314 42.382 C 102.18 42.382 99.745 41.16 98 38.714 C 95.502 35.213 94.252 29.805 94.252 22.486 C 94.252 16.324 95.061 11.601 96.678 8.312" id="path15" style="fill: rgb(255, 255, 255);"/>
  <path d="M 139.377 22.498 C 139.377 25.327 137.079 27.618 134.247 27.618 C 131.412 27.618 129.115 25.326 129.115 22.498 C 129.115 19.669 131.413 17.379 134.247 17.379 C 137.081 17.379 139.377 19.672 139.377 22.498 Z" id="path21" style="fill: rgb(255, 255, 255);"/>
  <path d="M 164.758 27.05 L 165.803 27.05 C 166.781 27.05 168.449 27.251 169.136 27.653 C 169.824 28.051 170.277 28.501 170.496 28.996 C 170.715 29.491 170.826 30.584 170.826 32.272 L 170.826 38.903 C 170.826 40.902 168.707 41.923 167.688 42.144 C 166.662 42.363 165.667 42.475 164.698 42.475 C 161.899 42.475 159.486 41.749 157.451 40.296 C 155.416 38.842 153.944 36.567 153.029 33.469 C 152.118 30.373 151.663 26.776 151.663 22.663 C 151.663 19.274 152.079 15.967 152.914 12.746 C 153.748 9.522 155.169 7.013 157.175 5.211 C 159.184 3.411 161.697 2.509 164.717 2.509 C 167.878 2.509 169.727 3.308 172.052 5.72 C 174.431 8.187 176.714 10.987 178.046 15.102 L 179.992 15.102 L 179.992 -0.002 L 178.883 -0.002 C 178.486 1.208 178.049 2.03 177.573 2.464 C 177.094 2.9 176.578 3.116 176.022 3.116 C 175.665 3.116 174.504 2.721 172.547 1.937 C 170.592 1.148 169.175 0.671 168.301 0.503 C 166.693 0.167 165.441 -0.002 163.437 -0.002 C 156.956 -0.002 151.58 2.219 147.305 6.664 C 143.032 11.11 140.896 16.553 140.896 22.996 C 140.896 26.597 141.591 29.851 142.982 32.757 C 144.075 35.011 145.589 37.035 147.527 38.837 C 149.465 40.637 151.705 42.091 154.235 43.198 C 156.771 44.302 159.955 44.855 163.79 44.855 C 166.794 44.855 169.686 44.547 172.481 43.928 C 175.274 43.306 177.959 42.388 180.55 41.171 L 180.55 32.263 C 180.55 30.701 180.638 29.72 180.817 29.321 C 181.134 28.561 181.584 28.018 182.17 27.689 C 182.754 27.36 184.353 27.146 185.841 27.039 L 185.841 25.581 L 164.751 25.581 L 164.751 27.039 L 164.758 27.05 Z" id="path9" style="fill: rgb(255, 255, 255);"/>
  <path d="M 213.234 38.589 C 210.83 40.424 207.632 41.342 203.643 41.342 L 201.369 41.342 C 200.149 41.342 199.269 41.177 198.723 40.842 C 198.18 40.507 197.803 40.08 197.605 39.557 C 197.406 39.036 197.306 37.606 197.306 35.269 L 197.306 23.304 C 199.356 23.304 201.754 23.57 202.832 24.104 C 203.907 24.637 204.852 25.678 205.663 27.226 C 206.478 28.773 207.012 30.482 207.265 32.908 L 208.993 32.908 L 208.993 10.887 L 207.265 10.887 C 206.925 14.198 206.146 16.417 204.92 18.112 C 203.697 19.808 201.721 20.656 198.998 20.656 L 197.303 20.656 L 197.303 5.885 C 197.291 3.317 199.584 3.616 199.584 3.616 L 202.263 3.616 C 205.502 3.616 207.709 3.804 208.887 4.18 C 210.906 4.807 212.469 5.79 213.573 7.128 C 214.679 8.465 215.534 10.669 216.145 13.743 L 217.594 13.743 L 217.594 1.165 L 181.543 1.165 L 181.543 2.888 L 182.68 2.888 C 184.064 2.888 185.158 3.18 185.952 3.763 C 186.521 4.161 186.911 4.726 187.12 5.457 C 187.225 5.893 187.278 7.074 187.278 8.995 L 187.278 35.605 C 187.278 37.735 187.162 39.051 186.931 39.553 C 186.637 40.263 186.215 40.765 185.672 41.057 C 184.914 41.496 183.917 41.715 182.681 41.715 L 181.543 41.715 L 181.543 43.717 L 218.204 43.717 L 220.408 30.186 L 218.395 30.186 C 217.346 33.951 215.619 36.754 213.216 38.589" id="path11" style="fill: rgb(255, 255, 255);"/>
  <path d="M 241.601 0.498 C 235.456 0.243 230.279 2.243 226.075 6.496 C 221.862 10.745 219.761 16.061 219.761 22.431 C 219.761 28.107 221.379 33.011 224.616 37.148 C 228.711 42.378 234.506 44.998 242.003 44.998 C 249.475 44.998 255.265 42.257 259.361 36.768 C 262.453 32.638 264 27.843 264 22.399 C 264 16.028 261.925 10.72 257.781 6.478 C 253.634 2.234 248.244 0.24 241.608 0.498 M 251.409 34.554 C 250.404 37.517 249.003 39.674 247.199 41.02 C 245.787 42.077 244.025 42.604 241.913 42.604 C 238.78 42.604 236.346 41.379 234.601 38.935 C 232.103 35.434 230.852 30.025 230.852 22.706 C 230.852 16.545 231.66 11.822 233.278 8.533 C 235.265 4.528 238.162 2.523 241.97 2.523 C 244.039 2.523 245.867 3.105 247.455 4.264 C 249.041 5.424 250.348 7.412 251.371 10.228 C 252.396 13.045 252.908 17.286 252.908 22.963 C 252.908 27.728 252.406 31.594 251.402 34.559" id="path13" style="fill: rgb(255, 255, 255);"/>
</svg>