<?xml version="1.0" encoding="utf-8"?>
<svg version="1.1" id="Ebene_1" x="0px" y="0px" enable-background="new 0 0 340.154 126.123" viewBox="0 0 264 84" xmlns="http://www.w3.org/2000/svg">
  <path d="M 231.43 65.049 L 32.563 65.049 C 14.609 65.049 0 50.458 0 32.524 C 0 14.59 14.61 0 32.563 0 L 231.428 0 C 249.384 0 263.991 14.59 263.991 32.524 C 263.989 50.458 249.385 65.049 231.43 65.049 Z M 32.563 7.694 C 18.856 7.694 7.703 18.833 7.703 32.526 C 7.703 46.217 18.855 57.358 32.563 57.358 L 231.428 57.358 C 245.133 57.358 256.288 46.218 256.288 32.526 C 256.288 18.834 245.135 7.694 231.428 7.694 L 32.563 7.694 Z" id="path5" style="fill-opacity: 1; fill: rgb(255, 255, 255);"/>
  <path d="M 58.104 47.608 L 58.104 17.587 L 49.064 17.587 L 49.064 38.577 L 35.733 17.587 L 26.017 17.587 L 26.017 47.608 L 35.056 47.608 L 35.056 25.939 L 49.064 47.608 L 58.104 47.608 Z" id="path7" style="fill-opacity: 1; fill: rgb(255, 255, 255);"/>
  <path d="M 72.792 47.608 L 72.792 27.293 L 63.754 27.293 L 63.754 47.608 L 72.792 47.608 Z" id="path9" style="fill-opacity: 1; fill: rgb(255, 255, 255);"/>
  <path d="M 72.792 23.003 L 72.792 17.587 L 63.754 17.587 L 63.754 23.003 L 72.792 23.003 Z" id="path11" style="fill-opacity: 1; fill: rgb(255, 255, 255);"/>
  <path id="_x33_162" d="M 104.427 47.608 L 104.427 33.611 C 104.427 30.677 98.777 26.615 95.841 26.615 L 93.128 26.615 C 91.095 26.615 88.835 28.421 86.801 29.324 L 86.801 27.293 L 77.762 27.293 L 77.762 47.608 L 86.801 47.608 L 86.801 33.611 C 86.801 32.257 89.964 30.677 91.321 30.677 C 92.677 30.677 95.162 32.257 95.162 33.611 L 95.162 47.607 L 104.427 47.607 L 104.427 47.608 Z" style="fill-opacity: 1; fill: rgb(255, 255, 255);"/>
  <path id="_x33_162_1_" d="M 180.055 48.307 L 180.055 34.312 C 180.055 31.377 174.408 27.315 171.465 27.315 L 168.756 27.315 C 166.721 27.315 164.461 29.121 162.426 30.024 L 162.426 27.993 L 153.389 27.993 L 153.389 48.308 L 162.426 48.308 L 162.426 34.312 C 162.426 32.958 165.591 31.377 166.947 31.377 C 168.302 31.377 170.786 32.958 170.786 34.312 L 170.786 48.307 L 180.055 48.307 Z" style="fill-opacity: 1; fill: rgb(255, 255, 255);"/>
  <path d="M 119.115 47.608 L 119.115 27.293 L 123.861 27.293 L 123.861 24.584 L 119.115 24.584 L 119.115 20.296 L 109.853 20.296 L 109.853 24.584 L 105.106 24.584 L 105.106 27.293 L 109.853 27.293 L 109.853 47.608 L 119.115 47.608 Z" id="path15" style="fill-opacity: 1; fill: rgb(255, 255, 255);"/>
  <path d="M 136.514 26.616 C 129.284 26.616 123.183 31.581 123.183 37.675 C 123.183 43.997 129.284 48.962 136.514 48.962 C 142.842 48.962 148.039 45.35 149.395 40.61 L 140.132 40.61 L 140.132 43.319 C 140.132 45.576 138.552 46.256 136.518 46.256 C 134.485 46.256 133.128 45.577 133.128 43.319 L 133.128 37.676 L 149.851 37.676 C 149.849 31.582 143.973 26.616 136.514 26.616 Z M 136.514 28.647 C 138.549 28.647 140.13 30.002 140.13 32.259 L 140.13 34.289 L 133.125 34.289 L 133.125 32.259 C 133.125 30.002 134.482 28.647 136.514 28.647 Z" id="path17" style="fill-opacity: 1; fill: rgb(255, 255, 255);"/>
  <path d="M 225.551 26.616 C 218.092 26.616 212.217 31.581 212.217 37.675 C 212.217 43.997 218.09 48.962 225.551 48.962 C 232.778 48.962 238.881 43.997 238.881 37.675 C 238.878 31.582 232.778 26.616 225.551 26.616 Z M 225.551 28.647 C 227.581 28.647 228.939 30.002 228.939 32.259 L 228.939 43.318 C 228.939 45.575 227.581 46.253 225.551 46.253 C 223.292 46.253 221.933 45.575 221.933 43.318 L 221.933 32.259 C 221.931 30.002 223.289 28.647 225.551 28.647 Z" id="path19" style="fill-opacity: 1; fill: rgb(255, 255, 255);"/>
  <path d="M 199.561 17.587 L 199.561 28.647 C 199.561 28.647 196.848 26.616 193.232 26.616 C 187.583 26.616 182.838 31.581 182.838 36.998 C 182.838 42.643 187.585 48.286 193.232 48.286 C 196.848 48.286 199.561 46.931 199.561 46.931 L 199.561 47.607 L 208.6 47.607 L 208.6 17.587 L 199.561 17.587 Z M 196.171 30.002 C 198.204 30.002 199.561 31.582 199.561 33.612 L 199.561 41.964 C 199.561 43.997 198.204 44.673 196.171 44.673 C 193.913 44.673 192.555 43.998 192.555 41.964 L 192.555 33.612 C 192.555 31.582 193.913 30.002 196.171 30.002 Z" id="path21" style="fill-opacity: 1; fill: rgb(255, 255, 255);"/>
  <path id="_x32_399" d="M 26.693 83.873 L 26.693 76.577 C 26.693 75.194 25.309 73.81 23.924 73.81 L 13.347 73.81 L 13.347 83.873 L 16.621 83.873 L 16.621 77.082 C 16.621 76.579 16.998 76.076 17.502 76.076 L 22.538 76.076 C 23.042 76.076 23.546 76.579 23.546 77.082 L 23.546 83.873 L 26.693 83.873 Z" style="fill-opacity: 1; fill: rgb(255, 255, 255);"/>
  <path id="_x32_399_1_" d="M 114.069 83.873 L 114.069 76.577 C 114.069 75.194 112.684 73.81 111.3 73.81 L 100.723 73.81 L 100.723 83.873 L 103.995 83.873 L 103.995 77.082 C 103.995 76.579 104.374 76.076 104.878 76.076 L 109.914 76.076 C 110.418 76.076 110.92 76.579 110.92 77.082 L 110.92 83.873 L 114.069 83.873 Z" style="fill-opacity: 1; fill: rgb(255, 255, 255);"/>
  <path id="_x32_399_2_" d="M 161.895 83.873 L 161.895 76.577 C 161.895 75.194 160.511 73.81 159.125 73.81 L 148.548 73.81 L 148.548 83.873 L 151.821 83.873 L 151.821 77.082 C 151.821 76.579 152.198 76.076 152.704 76.076 L 157.739 76.076 C 158.243 76.076 158.746 76.579 158.746 77.082 L 158.746 83.873 L 161.895 83.873 Z" style="fill-opacity: 1; fill: rgb(255, 255, 255);"/>
  <path id="_x33_177" d="M 133.344 83.873 L 133.344 76.577 C 133.344 75.194 131.959 73.81 130.573 73.81 L 116.345 73.81 L 116.345 83.873 L 119.619 83.873 L 119.619 77.082 C 119.619 76.579 119.995 76.076 120.499 76.076 L 122.388 76.076 C 122.767 76.076 123.27 76.579 123.27 77.082 L 123.27 83.873 L 126.545 83.873 L 126.545 77.082 C 126.545 76.579 126.921 76.076 127.425 76.076 L 129.314 76.076 C 129.692 76.076 130.196 76.579 130.196 77.082 L 130.196 83.873 L 133.344 83.873 Z" style="fill-opacity: 1; fill: rgb(255, 255, 255);"/>
  <path id="_x33_181" d="M 11.081 83.873 L 2.77 83.873 C 1.386 83.873 0 82.993 0 81.61 L 0 73.687 L 11.081 73.687 L 11.081 76.077 L 3.651 76.077 C 3.274 76.077 2.77 76.455 2.77 76.958 C 2.77 77.462 3.274 77.839 3.651 77.839 L 10.577 77.839 L 10.577 79.85 L 3.651 79.85 C 3.274 79.85 2.77 80.354 2.77 80.732 C 2.77 81.235 3.274 81.737 3.651 81.737 L 11.081 81.737 L 11.081 83.873 Z" style="fill-opacity: 1; fill: rgb(255, 255, 255);"/>
  <path id="_x33_181_1_" d="M 52.01 84 L 43.699 84 C 42.314 84 40.928 83.12 40.928 81.737 L 40.928 73.812 L 52.01 73.812 L 52.01 76.202 L 44.579 76.202 C 44.203 76.202 43.699 76.58 43.699 77.084 C 43.699 77.588 44.203 77.965 44.579 77.965 L 51.505 77.965 L 51.505 79.976 L 44.579 79.976 C 44.203 79.976 43.699 80.48 43.699 80.858 C 43.699 81.362 44.203 81.863 44.579 81.863 L 52.01 81.863 L 52.01 84 Z" style="fill-opacity: 1; fill: rgb(255, 255, 255);"/>
  <path id="_x33_181_2_" d="M 146.743 83.873 L 138.431 83.873 C 137.047 83.873 135.66 82.993 135.66 81.61 L 135.66 73.687 L 146.742 73.687 L 146.742 76.077 L 139.313 76.077 C 138.935 76.077 138.43 76.455 138.43 76.958 C 138.43 77.462 138.934 77.839 139.313 77.839 L 146.236 77.839 L 146.236 79.85 L 139.313 79.85 C 138.935 79.85 138.43 80.354 138.43 80.732 C 138.43 81.235 138.934 81.737 139.313 81.737 L 146.742 81.737 L 146.742 83.875 L 146.743 83.875 L 146.743 83.873 Z" style="fill-opacity: 1; fill: rgb(255, 255, 255);"/>
  <path id="_x32_391" d="M 28.079 73.811 L 28.079 76.076 L 31.353 76.076 C 32.234 76.076 32.234 76.076 32.234 77.082 L 32.234 83.873 L 35.382 83.873 L 35.382 77.082 C 35.382 76.076 35.382 76.076 36.389 76.076 L 39.537 76.076 L 39.537 73.811 L 28.079 73.811 Z" style="fill-opacity: 1; fill: rgb(255, 255, 255);"/>
  <path id="_x32_391_1_" d="M 68.089 73.811 L 68.089 76.076 L 71.362 76.076 C 72.243 76.076 72.243 76.076 72.243 77.082 L 72.243 83.873 L 75.39 83.873 L 75.39 77.082 C 75.39 76.076 75.39 76.076 76.399 76.076 L 79.547 76.076 L 79.547 73.811 L 68.089 73.811 Z" style="fill-opacity: 1; fill: rgb(255, 255, 255);"/>
  <path id="_x32_391_2_" d="M 163.74 73.811 L 163.74 76.076 L 167.014 76.076 C 167.896 76.076 167.896 76.076 167.896 77.082 L 167.896 83.873 L 171.043 83.873 L 171.043 77.082 C 171.043 76.076 171.043 76.076 172.05 76.076 L 175.197 76.076 L 175.197 73.811 L 163.74 73.811 Z" style="fill-opacity: 1; fill: rgb(255, 255, 255);"/>
  <path d="M 54.269 73.811 L 54.269 83.875 L 57.543 83.875 L 57.543 82.115 C 57.543 81.612 57.921 81.107 58.424 81.107 L 62.579 81.107 C 63.084 81.107 63.461 81.611 63.461 82.115 L 63.461 83.875 L 66.231 83.875 L 66.231 81.107 C 66.231 80.731 65.854 80.228 65.854 79.724 C 65.854 79.348 66.736 78.468 66.736 77.462 L 66.736 76.581 C 66.736 75.699 65.351 73.812 64.469 73.812 L 54.269 73.811 Z M 58.424 76.076 L 62.579 76.076 C 63.084 76.076 63.46 76.579 63.46 77.082 L 63.46 77.962 C 63.46 78.465 63.083 78.843 62.579 78.843 L 58.424 78.843 C 57.921 78.843 57.543 78.466 57.543 77.962 L 57.543 77.082 C 57.544 76.58 57.921 76.076 58.424 76.076 Z" id="path37" style="fill-opacity: 1; fill: rgb(255, 255, 255);"/>
  <path d="M 83.23 73.811 C 82.348 73.811 80.964 75.698 80.964 76.58 L 80.964 83.875 L 84.237 83.875 L 84.237 81.107 L 90.154 81.107 L 90.154 83.875 L 93.427 83.875 L 93.427 76.58 C 93.427 75.698 92.043 73.811 91.035 73.811 L 83.23 73.811 Z M 85.118 76.076 L 89.273 76.076 C 89.65 76.076 90.154 76.579 90.154 77.082 L 90.154 78.843 L 84.237 78.843 L 84.237 77.082 C 84.237 76.58 84.615 76.076 85.118 76.076 Z" id="path39" style="fill-opacity: 1; fill: rgb(255, 255, 255);"/>
  <path d="M 98.842 83.873 L 98.842 73.81 L 95.696 73.81 L 95.696 83.874 L 98.842 83.874 L 98.842 83.873 Z" id="path41" style="fill-opacity: 1; fill: rgb(255, 255, 255);"/>
  <path id="_x33_177_1_" d="M 264 83.86 L 264 76.565 C 264 75.182 262.615 73.797 261.228 73.797 L 247.001 73.797 L 247.001 83.86 L 250.274 83.86 L 250.274 77.069 C 250.274 76.565 250.651 76.062 251.155 76.062 L 253.043 76.062 C 253.422 76.062 253.926 76.565 253.926 77.069 L 253.926 83.859 L 257.198 83.859 L 257.198 77.069 C 257.198 76.565 257.575 76.062 258.079 76.062 L 259.968 76.062 C 260.346 76.062 260.851 76.565 260.851 77.069 L 260.851 83.859 L 263.999 83.859 L 264 83.86 Z" style="fill-opacity: 1; fill: rgb(255, 255, 255);"/>
  <path id="_x33_181_3_" d="M 244.747 83.86 L 236.436 83.86 C 235.051 83.86 233.666 82.979 233.666 81.598 L 233.666 73.673 L 244.746 73.673 L 244.746 76.063 L 237.318 76.063 C 236.94 76.063 236.436 76.44 236.436 76.944 C 236.436 77.447 236.94 77.824 237.318 77.824 L 244.242 77.824 L 244.242 79.836 L 237.318 79.836 C 236.94 79.836 236.436 80.34 236.436 80.717 C 236.436 81.221 236.94 81.723 237.318 81.723 L 244.746 81.723 L 244.747 83.86 Z" style="fill-opacity: 1; fill: rgb(255, 255, 255);"/>
  <path id="_x32_391_3_" d="M 220.816 73.797 L 220.816 76.06 L 224.089 76.06 C 224.971 76.06 224.971 76.06 224.971 77.067 L 224.971 83.857 L 228.118 83.857 L 228.118 77.067 C 228.118 76.06 228.118 76.06 229.127 76.06 L 232.273 76.06 L 232.273 73.797 L 220.816 73.797 Z" style="fill-opacity: 1; fill: rgb(255, 255, 255);"/>
  <path id="_x33_187" d="M 183.523 73.85 C 182.641 73.85 180.752 75.234 180.752 76.113 L 180.752 77.498 C 180.752 78.378 182.641 79.761 183.523 79.761 L 189.063 79.761 C 189.567 79.761 190.07 80.265 190.07 80.642 C 190.07 81.145 189.566 81.647 189.063 81.647 L 180.752 81.647 L 180.752 83.91 L 190.07 83.91 C 190.952 83.91 192.714 82.527 192.714 81.647 L 192.714 80.264 C 192.714 79.257 190.952 77.873 190.07 77.873 L 184.53 77.873 C 184.026 77.873 183.523 77.496 183.523 76.992 C 183.523 76.489 184.026 76.111 184.53 76.111 L 192.714 76.111 L 192.714 73.849 L 183.523 73.849 L 183.523 73.85 Z" style="fill-opacity: 1; fill: rgb(255, 255, 255);"/>
  <path id="_x33_187_1_" d="M 210.196 73.85 C 209.314 73.85 207.425 75.234 207.425 76.113 L 207.425 77.498 C 207.425 78.378 209.314 79.761 210.196 79.761 L 215.736 79.761 C 216.239 79.761 216.743 80.265 216.743 80.642 C 216.743 81.145 216.239 81.647 215.736 81.647 L 207.425 81.647 L 207.425 83.91 L 216.743 83.91 C 217.624 83.91 219.387 82.527 219.387 81.647 L 219.387 80.264 C 219.387 79.257 217.624 77.873 216.743 77.873 L 211.202 77.873 C 210.698 77.873 210.195 77.496 210.195 76.992 C 210.195 76.489 210.699 76.111 211.202 76.111 L 219.387 76.111 L 219.387 73.849 L 210.196 73.849 L 210.196 73.85 Z" style="fill-opacity: 1; fill: rgb(255, 255, 255);"/>
  <path d="M 193.722 73.85 L 193.722 78.38 C 193.722 79.26 195.106 80.643 195.988 80.643 L 198.253 80.643 L 198.253 83.912 L 201.527 83.912 L 201.527 80.643 L 203.794 80.643 C 204.674 80.643 206.06 79.26 206.06 78.38 L 206.06 73.85 L 202.912 73.85 L 202.912 77.499 C 202.912 77.875 202.408 78.38 201.905 78.38 L 197.876 78.38 C 197.372 78.38 196.868 77.876 196.868 77.499 L 196.868 73.85 L 193.722 73.85 Z" id="path48" style="fill-opacity: 1; fill: rgb(255, 255, 255);"/>
</svg>