<?xml version="1.0" encoding="utf-8"?>
<svg version="1.1" id="Ebene_1" x="0px" y="0px" enable-background="new 0 0 340.154 126.123" xmlns="http://www.w3.org/2000/svg">
  <g transform="matrix(0.44, 0, 0, 0.440513, 0, 0)">
    <path fill="#FF0000" d="M 525.977 147.667 L 74.006 147.667 C 33.203 147.667 0 114.544 0 73.832 C 0 33.12 33.205 0 74.006 0 L 525.972 0 C 566.781 0 599.979 33.121 599.979 73.833 C 599.976 114.544 566.784 147.667 525.977 147.667 Z M 74.006 17.466 C 42.854 17.466 17.506 42.753 17.506 73.837 C 17.506 104.916 42.852 130.207 74.006 130.207 L 525.972 130.207 C 557.12 130.207 582.473 104.918 582.473 73.837 C 582.473 42.754 557.124 17.466 525.972 17.466 L 74.006 17.466 Z" id="path5" style="fill: rgb(255, 255, 255); fill-opacity: 1;"/>
    <path fill="#FF0000" d="M 132.054 108.073 L 132.054 39.923 L 111.51 39.923 L 111.51 87.574 L 81.211 39.923 L 59.129 39.923 L 59.129 108.073 L 79.672 108.073 L 79.672 58.884 L 111.508 108.073 L 132.054 108.073 Z" id="path7" style="fill: rgb(255, 255, 255); fill-opacity: 1;"/>
    <path fill="#FF0000" d="M 165.436 108.073 L 165.436 61.957 L 144.896 61.957 L 144.896 108.073 L 165.436 108.073 Z" id="path9" style="fill: rgb(255, 255, 255); fill-opacity: 1;"/>
    <path fill="#FF0000" d="M 165.436 52.219 L 165.436 39.923 L 144.896 39.923 L 144.896 52.219 L 165.436 52.219 Z" id="path11" style="fill: rgb(255, 255, 255); fill-opacity: 1;"/>
    <path id="_x33_162" fill="#FF0000" d="M 237.333 108.073 L 237.333 76.3 C 237.333 69.64 224.494 60.418 217.82 60.418 L 211.654 60.418 C 207.035 60.418 201.897 64.517 197.275 66.567 L 197.275 61.957 L 176.732 61.957 L 176.732 108.073 L 197.275 108.073 L 197.275 76.3 C 197.275 73.226 204.463 69.64 207.548 69.64 C 210.629 69.64 216.277 73.226 216.277 76.3 L 216.277 108.071 L 237.333 108.071 Z" style="fill: rgb(255, 255, 255); fill-opacity: 1;"/>
    <path id="_x33_162_1_" fill="#FF0000" d="M 409.215 109.66 L 409.215 77.891 C 409.215 71.228 396.382 62.008 389.694 62.008 L 383.536 62.008 C 378.911 62.008 373.775 66.108 369.149 68.156 L 369.149 63.546 L 348.611 63.546 L 348.611 109.662 L 369.149 109.662 L 369.149 77.891 C 369.149 74.818 376.343 71.228 379.425 71.228 C 382.504 71.228 388.151 74.818 388.151 77.891 L 388.151 109.66 L 409.215 109.66 Z" style="fill: rgb(255, 255, 255); fill-opacity: 1;"/>
    <path fill="#FF0000" d="M 270.717 108.073 L 270.717 61.957 L 281.502 61.957 L 281.502 55.808 L 270.717 55.808 L 270.717 46.073 L 249.665 46.073 L 249.665 55.808 L 238.878 55.808 L 238.878 61.957 L 249.665 61.957 L 249.665 108.073 L 270.717 108.073 Z" id="path15" style="fill: rgb(255, 255, 255); fill-opacity: 1;"/>
    <path fill="#FF0000" d="M 310.26 60.42 C 293.827 60.42 279.962 71.691 279.962 85.526 C 279.962 99.876 293.827 111.147 310.26 111.147 C 324.641 111.147 336.453 102.948 339.535 92.188 L 318.482 92.188 L 318.482 98.337 C 318.482 103.462 314.891 105.004 310.268 105.004 C 305.647 105.004 302.563 103.464 302.563 98.337 L 302.563 85.528 L 340.571 85.528 C 340.565 71.694 327.212 60.42 310.26 60.42 Z M 310.26 65.03 C 314.883 65.03 318.478 68.107 318.478 73.23 L 318.478 77.839 L 302.557 77.839 L 302.557 73.23 C 302.557 68.107 305.64 65.03 310.26 65.03 Z" id="path17" style="fill: rgb(255, 255, 255); fill-opacity: 1;"/>
    <path fill="#FF0000" d="M 512.616 60.42 C 495.664 60.42 482.311 71.691 482.311 85.526 C 482.311 99.876 495.659 111.147 512.616 111.147 C 529.04 111.147 542.912 99.876 542.912 85.526 C 542.904 71.694 529.04 60.42 512.616 60.42 Z M 512.616 65.03 C 517.229 65.03 520.317 68.107 520.317 73.23 L 520.317 98.336 C 520.317 103.459 517.229 104.999 512.616 104.999 C 507.481 104.999 504.393 103.459 504.393 98.336 L 504.393 73.23 C 504.389 68.107 507.475 65.03 512.616 65.03 Z" id="path19" style="fill: rgb(255, 255, 255); fill-opacity: 1;"/>
    <path fill="#FF0000" d="M 453.548 39.923 L 453.548 65.03 C 453.548 65.03 447.381 60.42 439.163 60.42 C 426.326 60.42 415.542 71.691 415.542 83.989 C 415.542 96.802 426.329 109.613 439.163 109.613 C 447.381 109.613 453.548 106.538 453.548 106.538 L 453.548 108.071 L 474.092 108.071 L 474.092 39.923 L 453.548 39.923 Z M 445.843 68.107 C 450.463 68.107 453.548 71.694 453.548 76.303 L 453.548 95.262 C 453.548 99.876 450.463 101.412 445.843 101.412 C 440.711 101.412 437.626 99.878 437.626 95.262 L 437.626 76.303 C 437.626 71.694 440.711 68.107 445.843 68.107 Z" id="path21" style="fill: rgb(255, 255, 255); fill-opacity: 1;"/>
    <path id="_x32_399" d="M 60.667 190.398 L 60.667 173.837 C 60.667 170.697 57.52 167.554 54.372 167.554 L 30.334 167.554 L 30.334 190.398 L 37.776 190.398 L 37.776 174.983 C 37.776 173.84 38.632 172.698 39.778 172.698 L 51.223 172.698 C 52.369 172.698 53.514 173.841 53.514 174.983 L 53.514 190.398 L 60.667 190.398 Z" style="fill:#ffffff;fill-opacity:1"/>
    <path id="_x32_399_1_" d="M 259.247 190.398 L 259.247 173.837 C 259.247 170.697 256.1 167.554 252.954 167.554 L 228.915 167.554 L 228.915 190.398 L 236.353 190.398 L 236.353 174.983 C 236.353 173.84 237.214 172.698 238.358 172.698 L 249.805 172.698 C 250.951 172.698 252.091 173.841 252.091 174.983 L 252.091 190.398 L 259.247 190.398 Z" style="fill:#ffffff;fill-opacity:1"/>
    <path id="_x32_399_2_" d="M 367.944 190.398 L 367.944 173.837 C 367.944 170.697 364.798 167.554 361.648 167.554 L 337.61 167.554 L 337.61 190.398 L 345.048 190.398 L 345.048 174.983 C 345.048 173.84 345.905 172.698 347.054 172.698 L 358.498 172.698 C 359.644 172.698 360.787 173.841 360.787 174.983 L 360.787 190.398 L 367.944 190.398 Z" style="fill:#ffffff;fill-opacity:1"/>
    <path id="_x33_177" d="M 303.054 190.398 L 303.054 173.837 C 303.054 170.697 299.907 167.554 296.757 167.554 L 264.42 167.554 L 264.42 190.398 L 271.861 190.398 L 271.861 174.983 C 271.861 173.84 272.717 172.698 273.861 172.698 L 278.155 172.698 C 279.015 172.698 280.159 173.841 280.159 174.983 L 280.159 190.398 L 287.602 190.398 L 287.602 174.983 C 287.602 173.84 288.457 172.698 289.603 172.698 L 293.896 172.698 C 294.754 172.698 295.899 173.841 295.899 174.983 L 295.899 190.398 L 303.054 190.398 Z" style="fill:#ffffff;fill-opacity:1"/>
    <path id="_x33_181" d="M 25.184 190.398 L 6.296 190.398 C 3.15 190.398 0 188.401 0 185.262 L 0 167.276 L 25.183 167.276 L 25.183 172.701 L 8.298 172.701 C 7.441 172.701 6.295 173.558 6.295 174.701 C 6.295 175.844 7.441 176.7 8.298 176.7 L 24.038 176.7 L 24.038 181.267 L 8.298 181.267 C 7.441 181.267 6.295 182.41 6.295 183.268 C 6.295 184.411 7.441 185.55 8.298 185.55 L 25.183 185.55 L 25.184 190.398 L 25.184 190.398 Z" style="fill:#ffffff;fill-opacity:1"/>
    <path id="_x33_181_1_" d="M 118.204 190.687 L 99.316 190.687 C 96.169 190.687 93.019 188.688 93.019 185.55 L 93.019 167.56 L 118.204 167.56 L 118.204 172.985 L 101.317 172.985 C 100.461 172.985 99.316 173.843 99.316 174.988 C 99.316 176.132 100.461 176.986 101.317 176.986 L 117.056 176.986 L 117.056 181.552 L 101.317 181.552 C 100.461 181.552 99.316 182.695 99.316 183.554 C 99.316 184.698 100.461 185.836 101.317 185.836 L 118.204 185.836 L 118.204 190.687 L 118.204 190.687 Z" style="fill:#ffffff;fill-opacity:1"/>
    <path id="_x33_181_2_" d="M 333.506 190.398 L 314.617 190.398 C 311.47 190.398 308.318 188.401 308.318 185.262 L 308.318 167.276 L 333.504 167.276 L 333.504 172.701 L 316.62 172.701 C 315.762 172.701 314.613 173.558 314.613 174.701 C 314.613 175.844 315.759 176.7 316.62 176.7 L 332.355 176.7 L 332.355 181.267 L 316.62 181.267 C 315.762 181.267 314.613 182.41 314.613 183.268 C 314.613 184.411 315.759 185.55 316.62 185.55 L 333.504 185.55 L 333.504 190.402 L 333.506 190.402 L 333.506 190.398 Z" style="fill:#ffffff;fill-opacity:1"/>
    <path id="_x32_391" d="M 63.816 167.558 L 63.816 172.698 L 71.256 172.698 C 73.26 172.698 73.26 172.698 73.26 174.983 L 73.26 190.398 L 80.413 190.398 L 80.413 174.983 C 80.413 172.698 80.413 172.698 82.702 172.698 L 89.856 172.698 L 89.856 167.558 L 63.816 167.558 Z" style="fill:#ffffff;fill-opacity:1"/>
    <path id="_x32_391_1_" d="M 154.747 167.558 L 154.747 172.698 L 162.186 172.698 C 164.188 172.698 164.188 172.698 164.188 174.983 L 164.188 190.398 L 171.342 190.398 L 171.342 174.983 C 171.342 172.698 171.342 172.698 173.633 172.698 L 180.788 172.698 L 180.788 167.558 L 154.747 167.558 Z" style="fill:#ffffff;fill-opacity:1"/>
    <path id="_x32_391_2_" d="M 372.137 167.558 L 372.137 172.698 L 379.577 172.698 C 381.582 172.698 381.582 172.698 381.582 174.983 L 381.582 190.398 L 388.734 190.398 L 388.734 174.983 C 388.734 172.698 388.734 172.698 391.023 172.698 L 398.176 172.698 L 398.176 167.558 L 372.137 167.558 Z" style="fill:#ffffff;fill-opacity:1"/>
    <path d="M 123.339 167.558 L 123.339 190.402 L 130.78 190.402 L 130.78 186.407 C 130.78 185.265 131.638 184.119 132.782 184.119 L 142.226 184.119 C 143.373 184.119 144.229 185.263 144.229 186.407 L 144.229 190.402 L 150.526 190.402 L 150.526 184.119 C 150.526 183.267 149.669 182.123 149.669 180.981 C 149.669 180.127 151.672 178.128 151.672 175.845 L 151.672 173.844 C 151.672 171.843 148.524 167.56 146.521 167.56 L 123.339 167.558 L 123.339 167.558 Z M 132.782 172.698 L 142.226 172.698 C 143.373 172.698 144.228 173.841 144.228 174.983 L 144.228 176.98 C 144.228 178.123 143.371 178.981 142.226 178.981 L 132.782 178.981 C 131.638 178.981 130.78 178.125 130.78 176.98 L 130.78 174.983 C 130.781 173.843 131.638 172.698 132.782 172.698 Z" id="path37" style="fill:#ffffff;fill-opacity:1"/>
    <path d="M 189.159 167.558 C 187.155 167.558 184.009 171.841 184.009 173.843 L 184.009 190.402 L 191.447 190.402 L 191.447 184.119 L 204.896 184.119 L 204.896 190.402 L 212.335 190.402 L 212.335 173.843 C 212.335 171.841 209.188 167.558 206.898 167.558 L 189.159 167.558 Z M 193.451 172.698 L 202.893 172.698 C 203.749 172.698 204.896 173.841 204.896 174.983 L 204.896 178.98 L 191.447 178.98 L 191.447 174.983 C 191.447 173.843 192.306 172.698 193.451 172.698 Z" id="path39" style="fill:#ffffff;fill-opacity:1"/>
    <path d="M 224.642 190.398 L 224.642 167.555 L 217.49 167.555 L 217.49 190.4 L 224.642 190.4 Z" id="path41" style="fill:#ffffff;fill-opacity:1"/>
    <path id="_x33_177_1_" d="M 600 190.369 L 600 173.809 C 600 170.669 596.852 167.526 593.701 167.526 L 561.366 167.526 L 561.366 190.369 L 568.804 190.369 L 568.804 174.953 C 568.804 173.809 569.661 172.667 570.806 172.667 L 575.098 172.667 C 575.958 172.667 577.105 173.809 577.105 174.953 L 577.105 190.367 L 584.542 190.367 L 584.542 174.953 C 584.542 173.809 585.398 172.667 586.543 172.667 L 590.837 172.667 C 591.695 172.667 592.844 173.809 592.844 174.953 L 592.844 190.367 L 599.997 190.367 L 600 190.369 L 600 190.369 Z" style="fill:#ffffff;fill-opacity:1"/>
    <path id="_x33_181_3_" d="M 556.243 190.369 L 537.354 190.369 C 534.207 190.369 531.06 188.369 531.06 185.233 L 531.06 167.244 L 556.241 167.244 L 556.241 172.67 L 539.358 172.67 C 538.501 172.67 537.354 173.525 537.354 174.668 C 537.354 175.811 538.5 176.667 539.358 176.667 L 555.096 176.667 L 555.096 181.235 L 539.358 181.235 C 538.501 181.235 537.354 182.379 537.354 183.235 C 537.354 184.379 538.5 185.518 539.358 185.518 L 556.241 185.518 L 556.243 190.369 L 556.243 190.369 Z" style="fill:#ffffff;fill-opacity:1"/>
    <path id="_x32_391_3_" d="M 501.855 167.526 L 501.855 172.663 L 509.294 172.663 C 511.297 172.663 511.297 172.663 511.297 174.948 L 511.297 190.363 L 518.45 190.363 L 518.45 174.948 C 518.45 172.663 518.45 172.663 520.744 172.663 L 527.894 172.663 L 527.894 167.526 L 501.855 167.526 Z" style="fill:#ffffff;fill-opacity:1"/>
    <path id="_x33_187" d="M 417.098 167.646 C 415.094 167.646 410.801 170.787 410.801 172.783 L 410.801 175.926 C 410.801 177.924 415.094 181.064 417.098 181.064 L 429.689 181.064 C 430.834 181.064 431.978 182.207 431.978 183.063 C 431.978 184.205 430.832 185.345 429.689 185.345 L 410.801 185.345 L 410.801 190.483 L 431.978 190.483 C 433.981 190.483 437.987 187.343 437.987 185.345 L 437.987 182.205 C 437.987 179.92 433.981 176.778 431.978 176.778 L 419.387 176.778 C 418.241 176.778 417.098 175.923 417.098 174.778 C 417.098 173.636 418.242 172.778 419.387 172.778 L 437.987 172.778 L 437.987 167.643 L 417.098 167.643 L 417.098 167.646 Z" style="fill:#ffffff;fill-opacity:1"/>
    <path id="_x33_187_1_" d="M 477.718 167.646 C 475.713 167.646 471.42 170.787 471.42 172.783 L 471.42 175.926 C 471.42 177.924 475.713 181.064 477.718 181.064 L 490.309 181.064 C 491.453 181.064 492.598 182.207 492.598 183.063 C 492.598 184.205 491.452 185.345 490.309 185.345 L 471.42 185.345 L 471.42 190.483 L 492.597 190.483 C 494.601 190.483 498.607 187.343 498.607 185.345 L 498.607 182.205 C 498.607 179.92 494.601 176.778 492.597 176.778 L 480.005 176.778 C 478.86 176.778 477.717 175.923 477.717 174.778 C 477.717 173.636 478.862 172.778 480.005 172.778 L 498.607 172.778 L 498.607 167.643 L 477.718 167.643 L 477.718 167.646 L 477.718 167.646 Z" style="fill:#ffffff;fill-opacity:1"/>
    <path d="M 440.277 167.646 L 440.277 177.928 C 440.277 179.926 443.423 183.066 445.428 183.066 L 450.576 183.066 L 450.576 190.487 L 458.017 190.487 L 458.017 183.066 L 463.168 183.066 C 465.169 183.066 468.318 179.926 468.318 177.928 L 468.318 167.646 L 461.163 167.646 L 461.163 175.929 C 461.163 176.783 460.019 177.928 458.874 177.928 L 449.718 177.928 C 448.572 177.928 447.428 176.784 447.428 175.929 L 447.428 167.646 L 440.277 167.646 Z" id="path48" style="fill:#ffffff;fill-opacity:1"/>
  </g>
</svg>