<?xml version="1.0" encoding="utf-8"?>
<svg version="1.1" id="Ebene_1" x="0px" y="0px" enable-background="new 0 0 340.154 126.123" xmlns="http://www.w3.org/2000/svg">
  <g transform="matrix(0.44, 0, 0, 0.440336, 0, 0)">
    <path fill="#FF0000" d="M 489.881 124.271 L 110.379 124.271 C 76.118 124.271 48.239 96.396 48.239 62.134 C 48.239 27.872 76.12 0 110.379 0 L 489.877 0 C 524.143 0 552.018 27.873 552.018 62.136 C 552.016 96.396 524.145 124.271 489.881 124.271 Z M 110.379 14.699 C 84.222 14.699 62.938 35.979 62.938 62.139 C 62.938 88.294 84.22 109.578 110.379 109.578 L 489.877 109.578 C 516.031 109.578 537.319 88.296 537.319 62.139 C 537.319 35.98 516.034 14.699 489.877 14.699 L 110.379 14.699 Z" id="path5" style="fill:#ffffff;fill-opacity:1"/>
    <path fill="#FF0000" d="M 159.119 90.951 L 159.119 33.597 L 141.87 33.597 L 141.87 73.7 L 116.429 33.597 L 97.887 33.597 L 97.887 90.951 L 115.136 90.951 L 115.136 49.554 L 141.868 90.951 L 159.119 90.951 Z" id="path7" style="fill:#ffffff;fill-opacity:1"/>
    <path fill="#FF0000" d="M 187.149 90.951 L 187.149 52.141 L 169.902 52.141 L 169.902 90.951 L 187.149 90.951 Z" id="path9" style="fill:#ffffff;fill-opacity:1"/>
    <path fill="#FF0000" d="M 187.149 43.946 L 187.149 33.597 L 169.902 33.597 L 169.902 43.946 L 187.149 43.946 Z" id="path11" style="fill:#ffffff;fill-opacity:1"/>
    <path id="_x33_162" fill="#FF0000" d="M 247.519 90.951 L 247.519 64.212 C 247.519 58.606 236.738 50.845 231.134 50.845 L 225.957 50.845 C 222.078 50.845 217.764 54.295 213.883 56.02 L 213.883 52.141 L 196.634 52.141 L 196.634 90.951 L 213.883 90.951 L 213.883 64.212 C 213.883 61.624 219.919 58.606 222.509 58.606 C 225.096 58.606 229.838 61.624 229.838 64.212 L 229.838 90.949 L 247.519 90.949 Z" style="fill:#ffffff;fill-opacity:1"/>
    <path id="_x33_162_1_" fill="#FF0000" d="M 391.841 92.286 L 391.841 65.55 C 391.841 59.943 381.065 52.184 375.45 52.184 L 370.279 52.184 C 366.396 52.184 362.083 55.634 358.199 57.357 L 358.199 53.478 L 340.954 53.478 L 340.954 92.288 L 358.199 92.288 L 358.199 65.55 C 358.199 62.965 364.239 59.943 366.827 59.943 C 369.413 59.943 374.154 62.965 374.154 65.55 L 374.154 92.286 L 391.841 92.286 Z" style="fill:#ffffff;fill-opacity:1"/>
    <path fill="#FF0000" d="M 275.549 90.951 L 275.549 52.141 L 284.605 52.141 L 284.605 46.966 L 275.549 46.966 L 275.549 38.773 L 257.873 38.773 L 257.873 46.966 L 248.816 46.966 L 248.816 52.141 L 257.873 52.141 L 257.873 90.951 L 275.549 90.951 Z" id="path15" style="fill:#ffffff;fill-opacity:1"/>
    <path fill="#FF0000" d="M 308.752 50.847 C 294.954 50.847 283.312 60.333 283.312 71.976 C 283.312 84.052 294.954 93.537 308.752 93.537 C 320.827 93.537 330.746 86.638 333.333 77.582 L 315.656 77.582 L 315.656 82.757 C 315.656 87.07 312.641 88.367 308.759 88.367 C 304.878 88.367 302.289 87.072 302.289 82.757 L 302.289 71.978 L 334.203 71.978 C 334.198 60.335 322.986 50.847 308.752 50.847 Z M 308.752 54.727 C 312.634 54.727 315.652 57.315 315.652 61.628 L 315.652 65.506 L 302.285 65.506 L 302.285 61.628 C 302.285 57.315 304.873 54.727 308.752 54.727 Z" id="path17" style="fill:#ffffff;fill-opacity:1"/>
    <path fill="#FF0000" d="M 478.662 50.847 C 464.429 50.847 453.216 60.333 453.216 71.976 C 453.216 84.052 464.424 93.537 478.662 93.537 C 492.454 93.537 504.101 84.052 504.101 71.976 C 504.094 60.335 492.454 50.847 478.662 50.847 Z M 478.662 54.727 C 482.536 54.727 485.129 57.315 485.129 61.628 L 485.129 82.756 C 485.129 87.067 482.536 88.363 478.662 88.363 C 474.351 88.363 471.758 87.068 471.758 82.756 L 471.758 61.628 C 471.755 57.315 474.346 54.727 478.662 54.727 Z" id="path19" style="fill:#ffffff;fill-opacity:1"/>
    <path fill="#FF0000" d="M 429.066 33.597 L 429.066 54.727 C 429.066 54.727 423.887 50.847 416.987 50.847 C 406.208 50.847 397.154 60.333 397.154 70.683 C 397.154 81.465 406.211 92.246 416.987 92.246 C 423.887 92.246 429.066 89.658 429.066 89.658 L 429.066 90.949 L 446.316 90.949 L 446.316 33.597 L 429.066 33.597 Z M 422.596 57.315 C 426.475 57.315 429.066 60.335 429.066 64.215 L 429.066 80.17 C 429.066 84.052 426.475 85.345 422.596 85.345 C 418.287 85.345 415.696 84.054 415.696 80.17 L 415.696 64.215 C 415.696 60.335 418.287 57.315 422.596 57.315 Z" id="path21" style="fill:#ffffff;fill-opacity:1"/>
    <path id="_x32_399" d="M 91.418 175.035 L 91.418 150.022 C 91.418 145.281 86.675 140.534 81.932 140.534 L 45.71 140.534 L 45.71 175.035 L 56.923 175.035 L 56.923 151.753 C 56.923 150.026 58.214 148.301 59.941 148.301 L 77.187 148.301 C 78.914 148.301 80.639 150.028 80.639 151.753 L 80.639 175.035 L 91.418 175.035 Z" style="fill:#ffffff;fill-opacity:1"/>
    <path id="_x32_399_1_" d="M 390.652 175.035 L 390.652 150.022 C 390.652 145.281 385.91 140.534 381.169 140.534 L 344.945 140.534 L 344.945 175.035 L 356.153 175.035 L 356.153 151.753 C 356.153 150.026 357.451 148.301 359.175 148.301 L 376.424 148.301 C 378.151 148.301 379.869 150.028 379.869 151.753 L 379.869 175.035 L 390.652 175.035 Z" style="fill:#ffffff;fill-opacity:1"/>
    <path id="_x32_399_2_" d="M 554.445 175.035 L 554.445 150.022 C 554.445 145.281 549.704 140.534 544.957 140.534 L 508.735 140.534 L 508.735 175.035 L 519.943 175.035 L 519.943 151.753 C 519.943 150.026 521.234 148.301 522.966 148.301 L 540.21 148.301 C 541.937 148.301 543.659 150.028 543.659 151.753 L 543.659 175.035 L 554.445 175.035 Z" style="fill:#ffffff;fill-opacity:1"/>
    <path id="_x33_177" d="M 456.663 175.035 L 456.663 150.022 C 456.663 145.281 451.921 140.534 447.175 140.534 L 398.447 140.534 L 398.447 175.035 L 409.66 175.035 L 409.66 151.753 C 409.66 150.026 410.949 148.301 412.674 148.301 L 419.144 148.301 C 420.439 148.301 422.164 150.028 422.164 151.753 L 422.164 175.035 L 433.379 175.035 L 433.379 151.753 C 433.379 150.026 434.668 148.301 436.394 148.301 L 442.864 148.301 C 444.157 148.301 445.882 150.028 445.882 151.753 L 445.882 175.035 L 456.663 175.035 Z" style="fill:#ffffff;fill-opacity:1"/>
    <path id="_x33_181" d="M 37.949 175.035 L 9.488 175.035 C 4.747 175.035 0 172.018 0 167.277 L 0 140.113 L 37.947 140.113 L 37.947 148.306 L 12.504 148.306 C 11.213 148.306 9.486 149.601 9.486 151.326 C 9.486 153.053 11.213 154.346 12.504 154.346 L 36.222 154.346 L 36.222 161.244 L 12.504 161.244 C 11.213 161.244 9.486 162.971 9.486 164.264 C 9.486 165.991 11.213 167.713 12.504 167.713 L 37.947 167.713 L 37.949 175.035 L 37.949 175.035 Z" style="fill:#ffffff;fill-opacity:1"/>
    <path id="_x33_181_1_" d="M 178.118 175.47 L 149.656 175.47 C 144.914 175.47 140.167 172.452 140.167 167.713 L 140.167 140.543 L 178.118 140.543 L 178.118 148.737 L 152.672 148.737 C 151.382 148.737 149.656 150.031 149.656 151.76 C 149.656 153.489 151.382 154.778 152.672 154.778 L 176.389 154.778 L 176.389 161.675 L 152.672 161.675 C 151.382 161.675 149.656 163.402 149.656 164.698 C 149.656 166.425 151.382 168.145 152.672 168.145 L 178.118 168.145 L 178.118 175.47 L 178.118 175.47 Z" style="fill:#ffffff;fill-opacity:1"/>
    <path id="_x33_181_2_" d="M 502.551 175.035 L 474.087 175.035 C 469.345 175.035 464.595 172.017 464.595 167.277 L 464.595 140.113 L 502.547 140.113 L 502.547 148.306 L 477.105 148.306 C 475.813 148.306 474.081 149.601 474.081 151.326 C 474.081 153.053 475.808 154.346 477.105 154.346 L 500.817 154.346 L 500.817 161.244 L 477.105 161.244 C 475.813 161.244 474.081 162.971 474.081 164.264 C 474.081 165.991 475.808 167.713 477.105 167.713 L 502.547 167.713 L 502.547 175.04 L 502.551 175.04 L 502.551 175.035 Z" style="fill:#ffffff;fill-opacity:1"/>
    <path id="_x32_391" d="M 96.163 140.54 L 96.163 148.301 L 107.373 148.301 C 110.393 148.301 110.393 148.301 110.393 151.753 L 110.393 175.035 L 121.172 175.035 L 121.172 151.753 C 121.172 148.301 121.172 148.301 124.622 148.301 L 135.401 148.301 L 135.401 140.54 L 96.163 140.54 Z" style="fill:#ffffff;fill-opacity:1"/>
    <path id="_x32_391_1_" d="M 233.184 140.54 L 233.184 148.301 L 244.394 148.301 C 247.41 148.301 247.41 148.301 247.41 151.753 L 247.41 175.035 L 258.191 175.035 L 258.191 151.753 C 258.191 148.301 258.191 148.301 261.643 148.301 L 272.424 148.301 L 272.424 140.54 L 233.184 140.54 Z" style="fill:#ffffff;fill-opacity:1"/>
    <path id="_x32_391_2_" d="M 560.763 140.54 L 560.763 148.301 L 571.973 148.301 C 574.995 148.301 574.995 148.301 574.995 151.753 L 574.995 175.035 L 585.772 175.035 L 585.772 151.753 C 585.772 148.301 585.772 148.301 589.221 148.301 L 600 148.301 L 600 140.54 L 560.763 140.54 Z" style="fill:#ffffff;fill-opacity:1"/>
    <path d="M 185.856 140.54 L 185.856 175.04 L 197.068 175.04 L 197.068 169.007 C 197.068 167.281 198.361 165.552 200.086 165.552 L 214.317 165.552 C 216.044 165.552 217.335 167.279 217.335 169.007 L 217.335 175.04 L 226.823 175.04 L 226.823 165.552 C 226.823 164.263 225.532 162.537 225.532 160.811 C 225.532 159.521 228.55 156.503 228.55 153.055 L 228.55 150.033 C 228.55 147.011 223.807 140.543 220.789 140.543 L 185.856 140.54 L 185.856 140.54 Z M 200.086 148.301 L 214.317 148.301 C 216.044 148.301 217.333 150.028 217.333 151.753 L 217.333 154.769 C 217.333 156.496 216.042 157.791 214.317 157.791 L 200.086 157.791 C 198.361 157.791 197.068 156.498 197.068 154.769 L 197.068 151.753 C 197.07 150.031 198.361 148.301 200.086 148.301 Z" id="path37" style="fill:#ffffff;fill-opacity:1"/>
    <path d="M 285.038 140.54 C 282.018 140.54 277.278 147.008 277.278 150.031 L 277.278 175.04 L 288.486 175.04 L 288.486 165.552 L 308.752 165.552 L 308.752 175.04 L 319.961 175.04 L 319.961 150.031 C 319.961 147.008 315.22 140.54 311.768 140.54 L 285.038 140.54 Z M 291.506 148.301 L 305.734 148.301 C 307.023 148.301 308.752 150.028 308.752 151.753 L 308.752 157.789 L 288.486 157.789 L 288.486 151.753 C 288.486 150.031 289.781 148.301 291.506 148.301 Z" id="path39" style="fill:#ffffff;fill-opacity:1"/>
    <path d="M 338.507 175.035 L 338.507 140.536 L 327.73 140.536 L 327.73 175.037 L 338.507 175.037 Z" id="path41" style="fill:#ffffff;fill-opacity:1"/>
    <path id="_x33_177_1_" d="M 442.495 222.29 L 442.495 197.278 C 442.495 192.536 437.752 187.79 433.003 187.79 L 384.279 187.79 L 384.279 222.29 L 395.487 222.29 L 395.487 199.005 C 395.487 197.278 396.778 195.553 398.503 195.553 L 404.971 195.553 C 406.266 195.553 407.995 197.279 407.995 199.005 L 407.995 222.286 L 419.202 222.286 L 419.202 199.005 C 419.202 197.278 420.492 195.553 422.217 195.553 L 428.687 195.553 C 429.98 195.553 431.712 197.279 431.712 199.005 L 431.712 222.286 L 442.491 222.286 L 442.495 222.29 L 442.495 222.29 Z" style="fill:#ffffff;fill-opacity:1"/>
    <path id="_x33_181_3_" d="M 376.558 222.29 L 348.096 222.29 C 343.354 222.29 338.611 219.268 338.611 214.532 L 338.611 187.363 L 376.555 187.363 L 376.555 195.558 L 351.115 195.558 C 349.824 195.558 348.096 196.851 348.096 198.576 C 348.096 200.303 349.823 201.596 351.115 201.596 L 374.83 201.596 L 374.83 208.494 L 351.115 208.494 C 349.824 208.494 348.096 210.221 348.096 211.516 C 348.096 213.243 349.823 214.963 351.115 214.963 L 376.555 214.963 L 376.558 222.29 L 376.558 222.29 Z" style="fill:#ffffff;fill-opacity:1"/>
    <path id="_x32_391_3_" d="M 294.603 187.79 L 294.603 195.547 L 305.813 195.547 C 308.831 195.547 308.831 195.547 308.831 198.999 L 308.831 222.281 L 319.61 222.281 L 319.61 198.999 C 319.61 195.547 319.61 195.547 323.066 195.547 L 333.841 195.547 L 333.841 187.79 L 294.603 187.79 Z" style="fill:#ffffff;fill-opacity:1"/>
    <path id="_x33_187" d="M 166.885 187.971 C 163.866 187.971 157.397 192.716 157.397 195.729 L 157.397 200.476 C 157.397 203.495 163.866 208.237 166.885 208.237 L 185.858 208.237 C 187.583 208.237 189.308 209.964 189.308 211.255 C 189.308 212.978 187.581 214.702 185.858 214.702 L 157.397 214.702 L 157.397 222.461 L 189.307 222.461 C 192.326 222.461 198.362 217.72 198.362 214.702 L 198.362 209.96 C 198.362 206.508 192.326 201.765 189.307 201.765 L 170.334 201.765 C 168.607 201.765 166.885 200.472 166.885 198.743 C 166.885 197.018 168.609 195.722 170.334 195.722 L 198.362 195.722 L 198.362 187.966 L 166.885 187.966 L 166.885 187.971 Z" style="fill:#ffffff;fill-opacity:1"/>
    <path id="_x33_187_1_" d="M 258.231 187.971 C 255.21 187.971 248.742 192.716 248.742 195.729 L 248.742 200.476 C 248.742 203.495 255.21 208.237 258.231 208.237 L 277.204 208.237 C 278.929 208.237 280.654 209.964 280.654 211.255 C 280.654 212.978 278.927 214.702 277.204 214.702 L 248.742 214.702 L 248.742 222.461 L 280.652 222.461 C 283.672 222.461 289.708 217.72 289.708 214.702 L 289.708 209.96 C 289.708 206.508 283.672 201.765 280.652 201.765 L 261.678 201.765 C 259.953 201.765 258.23 200.472 258.23 198.743 C 258.23 197.018 259.955 195.722 261.678 195.722 L 289.708 195.722 L 289.708 187.966 L 258.231 187.966 L 258.231 187.971 L 258.231 187.971 Z" style="fill:#ffffff;fill-opacity:1"/>
    <path d="M 201.813 187.971 L 201.813 203.501 C 201.813 206.517 206.554 211.26 209.574 211.26 L 217.332 211.26 L 217.332 222.468 L 228.545 222.468 L 228.545 211.26 L 236.306 211.26 C 239.322 211.26 244.067 206.517 244.067 203.501 L 244.067 187.971 L 233.286 187.971 L 233.286 200.481 C 233.286 201.772 231.561 203.501 229.836 203.501 L 216.039 203.501 C 214.312 203.501 212.588 201.774 212.588 200.481 L 212.588 187.971 L 201.813 187.971 Z" id="path48" style="fill:#ffffff;fill-opacity:1"/>
  </g>
  <path d="M 83.908 113.815 L 81.444 113.815 L 81.444 111.09 L 79.596 111.09 L 79.596 113.815 L 77.132 113.815 L 77.132 106.109 L 79.596 106.109 L 79.596 108.835 L 81.444 108.835 L 81.444 106.109 L 83.908 106.109 L 83.908 113.815 Z M 87.261 112.595 L 86.975 113.815 L 84.374 113.815 L 86.372 106.109 L 90.178 106.109 L 92.176 113.815 L 89.575 113.815 L 89.294 112.595 L 87.261 112.595 Z M 88.343 108.478 L 88.207 108.478 L 87.701 110.635 L 88.836 110.635 L 88.343 108.478 Z M 97.755 111.609 L 97.94 113.679 C 97.424 113.893 96.776 114 95.995 114 C 95.215 114 94.589 113.918 94.116 113.754 C 93.644 113.589 93.272 113.33 92.999 112.978 C 92.729 112.623 92.54 112.208 92.431 111.732 C 92.326 111.254 92.273 110.665 92.273 109.967 C 92.273 109.267 92.326 108.679 92.431 108.201 C 92.54 107.719 92.729 107.301 92.999 106.946 C 93.524 106.264 94.489 105.924 95.894 105.924 C 96.208 105.924 96.576 105.955 96.998 106.017 C 97.421 106.078 97.735 106.154 97.94 106.246 L 97.57 108.131 C 97.037 108.015 96.548 107.958 96.105 107.958 C 95.663 107.958 95.355 107.999 95.181 108.081 C 95.008 108.165 94.922 108.329 94.922 108.575 L 94.922 111.807 C 95.242 111.871 95.566 111.904 95.894 111.904 C 96.592 111.904 97.213 111.805 97.755 111.609 Z M 101.315 110.459 L 101.266 110.459 L 101.266 113.815 L 98.802 113.815 L 98.802 106.109 L 101.266 106.109 L 101.266 109.253 L 101.315 109.253 C 101.332 109.006 101.373 108.81 101.438 108.663 L 102.648 106.109 L 105.306 106.109 L 103.458 109.896 L 105.367 113.815 L 102.71 113.815 L 101.438 111.054 C 101.373 110.905 101.332 110.706 101.315 110.459 Z M 105.8 113.679 L 106.143 111.644 C 106.9 111.834 107.58 111.93 108.185 111.93 C 108.789 111.93 109.276 111.905 109.645 111.855 L 109.645 111.239 L 108.537 111.138 C 107.533 111.05 106.846 110.811 106.473 110.42 C 106.098 110.029 105.91 109.452 105.91 108.685 C 105.91 107.634 106.139 106.911 106.596 106.514 C 107.051 106.121 107.824 105.924 108.915 105.924 C 110.009 105.924 110.995 106.027 111.872 106.232 L 111.564 108.206 C 110.801 108.081 110.19 108.02 109.729 108.02 C 109.268 108.02 108.878 108.04 108.559 108.081 L 108.559 108.685 L 109.447 108.773 C 110.524 108.879 111.268 109.135 111.678 109.544 C 112.089 109.949 112.294 110.513 112.294 111.239 C 112.294 111.755 112.224 112.194 112.083 112.551 C 111.942 112.909 111.776 113.181 111.586 113.366 C 111.392 113.551 111.118 113.692 110.763 113.789 C 110.411 113.889 110.102 113.948 109.835 113.969 C 109.567 113.99 109.213 114 108.77 114 C 107.702 114 106.712 113.893 105.8 113.679 Z M 117.246 110.856 L 115.337 110.856 L 115.337 109.081 L 117.246 109.081 L 117.246 107.171 L 119.02 107.171 L 119.02 109.081 L 120.942 109.081 L 120.942 110.856 L 119.02 110.856 L 119.02 112.78 L 117.246 112.78 L 117.246 110.856 Z M 131.08 113.815 L 128.616 113.815 L 128.616 111.09 L 126.768 111.09 L 126.768 113.815 L 124.304 113.815 L 124.304 106.109 L 126.768 106.109 L 126.768 108.835 L 128.616 108.835 L 128.616 106.109 L 131.08 106.109 L 131.08 113.815 Z M 131.941 109.967 C 131.941 108.563 132.204 107.539 132.729 106.893 C 133.254 106.247 134.203 105.924 135.576 105.924 C 136.949 105.924 137.898 106.247 138.423 106.893 C 138.948 107.539 139.21 108.563 139.21 109.967 C 139.21 110.665 139.154 111.254 139.043 111.732 C 138.932 112.208 138.741 112.623 138.471 112.978 C 138.201 113.33 137.827 113.589 137.349 113.754 C 136.874 113.918 136.283 114 135.576 114 C 134.869 114 134.278 113.918 133.803 113.754 C 133.324 113.589 132.95 113.33 132.681 112.978 C 132.411 112.623 132.22 112.208 132.109 111.732 C 131.997 111.254 131.941 110.665 131.941 109.967 Z M 134.59 108.685 L 134.59 111.89 L 135.611 111.89 C 135.949 111.89 136.193 111.852 136.346 111.776 C 136.499 111.697 136.575 111.518 136.575 111.239 L 136.575 108.033 L 135.541 108.033 C 135.212 108.033 134.972 108.071 134.819 108.148 C 134.666 108.228 134.59 108.407 134.59 108.685 Z M 142.488 110.081 L 142.338 113.815 L 139.764 113.815 L 140.231 106.109 L 143.447 106.109 L 144.411 110.028 L 144.494 110.028 L 145.458 106.109 L 148.67 106.109 L 149.141 113.815 L 146.567 113.815 L 146.417 110.081 L 146.329 110.081 L 145.396 113.815 L 143.509 113.815 L 142.563 110.081 L 142.488 110.081 Z M 154.991 109.116 L 154.991 110.905 L 152.527 110.905 L 152.527 111.842 L 155.546 111.842 L 155.546 113.815 L 150.063 113.815 L 150.063 106.109 L 155.484 106.109 L 155.176 108.081 L 152.527 108.081 L 152.527 109.116 L 154.991 109.116 Z M 161.014 113.815 L 156.592 113.815 L 156.592 106.109 L 160.583 106.109 C 161.322 106.109 161.85 106.253 162.167 106.54 C 162.484 106.829 162.642 107.248 162.642 107.8 C 162.642 108.349 162.541 108.773 162.339 109.072 C 162.14 109.375 161.871 109.571 161.534 109.659 L 161.534 109.733 C 162.528 109.906 163.025 110.584 163.025 111.767 C 163.025 112.384 162.861 112.88 162.532 113.255 C 162.204 113.629 161.698 113.815 161.014 113.815 Z M 160.016 110.746 L 159.056 110.746 L 159.056 112 L 160.007 112 C 160.35 112 160.522 111.792 160.522 111.376 C 160.522 110.956 160.353 110.746 160.016 110.746 Z M 159.831 107.8 L 159.056 107.8 L 159.056 108.945 L 159.822 108.945 C 160.133 108.945 160.288 108.754 160.288 108.373 C 160.288 107.99 160.136 107.8 159.831 107.8 Z M 169.272 111.252 L 170.6 113.815 L 167.89 113.815 L 166.878 111.521 L 166.35 111.521 L 166.35 113.815 L 163.886 113.815 L 163.886 106.109 L 167.767 106.109 C 169.532 106.109 170.416 107.009 170.416 108.808 C 170.416 110.041 170.034 110.856 169.272 111.252 Z M 166.918 108.081 L 166.35 108.081 L 166.35 109.623 L 166.918 109.623 C 167.214 109.623 167.429 109.593 167.564 109.531 C 167.699 109.469 167.767 109.326 167.767 109.103 L 167.767 108.602 C 167.767 108.378 167.699 108.236 167.564 108.175 C 167.429 108.113 167.214 108.081 166.918 108.081 Z M 176.39 109.116 L 176.39 110.905 L 173.926 110.905 L 173.926 111.842 L 176.945 111.842 L 176.945 113.815 L 171.462 113.815 L 171.462 106.109 L 176.883 106.109 L 176.575 108.081 L 173.926 108.081 L 173.926 109.116 L 176.39 109.116 Z M 184.323 110.411 L 184.917 106.109 L 187.491 106.109 L 186.281 113.815 L 183.069 113.815 L 182.501 110.98 L 182.352 110.98 L 181.797 113.815 L 178.581 113.815 L 177.375 106.109 L 179.949 106.109 L 180.53 110.411 L 180.605 110.411 L 181.489 106.109 L 183.377 106.109 L 184.248 110.411 L 184.323 110.411 Z" style="fill: rgb(255, 255, 255); white-space: pre;"/>
</svg>