<?xml version="1.0" encoding="UTF-8" standalone="no"?><!-- Generator: Gravit.io --><svg xmlns="http://www.w3.org/2000/svg" xmlns:xlink="http://www.w3.org/1999/xlink" style="isolation:isolate" viewBox="0 0 264 79.226" width="264pt" height="79.226pt"><defs><clipPath id="_clipPath_Gdlw9WDiAFZ2kSVET8piKoTc2Ar7aa3M"><rect width="264" height="79.226"/></clipPath></defs><g clip-path="url(#_clipPath_Gdlw9WDiAFZ2kSVET8piKoTc2Ar7aa3M)"><g><path d=" M 26.189 17.157 L 35.728 17.157 L 48.925 38.508 L 48.918 17.157 L 58.384 17.157 L 58.384 47.775 L 48.931 47.775 L 35.665 26.424 L 35.665 47.775 L 26.185 47.775 L 26.189 17.157 Z " fill="rgb(255,255,255)"/><path d=" M 109.843 20.306 L 119.056 20.306 L 119.056 24.425 L 124.042 24.425 L 124.042 27.455 L 119.056 27.455 L 119.063 47.775 L 109.843 47.775 L 109.846 27.455 L 104.84 27.455 L 104.84 24.433 L 109.85 24.429 L 109.843 20.306 Z " fill="rgb(255,255,255)"/><path d=" M 63.653 27.413 L 72.859 27.417 L 72.859 47.775 L 63.653 47.775 L 63.653 27.413 Z " fill="rgb(255,255,255)"/><path d=" M 63.632 17.151 L 72.859 17.151 L 72.859 23.409 L 63.632 23.409 L 63.632 17.151 Z " fill="rgb(255,255,255)"/><path d=" M 228.695 37.433 C 228.695 37.433 228.693 40.511 228.693 41.745 C 228.693 44.991 226.775 46.331 224.931 46.331 C 223.083 46.331 221.158 44.991 221.158 41.745 C 221.158 40.511 221.162 37.355 221.162 37.355 C 221.162 37.355 221.169 34.344 221.169 33.11 C 221.169 29.877 223.097 28.549 224.931 28.549 C 226.768 28.549 228.693 29.877 228.693 33.11 C 228.693 34.344 228.689 36.626 228.699 37.443 L 228.695 37.433 L 228.695 37.433 Z  M 224.997 26.024 C 217.565 26.024 211.542 31.143 211.542 37.456 C 211.542 43.771 217.568 48.89 224.997 48.89 C 232.43 48.89 238.453 43.771 238.453 37.456 C 238.453 31.143 232.43 26.024 224.997 26.024 L 224.997 26.024 Z " fill="rgb(255,255,255)"/><path d=" M 199.457 17.157 L 208.544 17.157 L 208.544 47.775 L 199.443 47.775 C 199.443 47.775 199.439 46.786 199.439 46.597 C 195.916 48.81 191.94 48.806 188.845 47.362 C 188.013 46.975 182.548 44.353 182.548 37.268 C 182.548 31.893 187.617 26.024 194.254 26.606 C 196.439 26.799 197.991 27.595 199.464 28.422 C 199.457 23.71 199.457 17.157 199.457 17.157 L 199.457 17.157 Z  M 199.523 37.492 C 199.523 37.492 199.523 34.941 199.523 33.853 C 199.523 30.705 197.349 29.902 195.92 29.902 C 194.453 29.902 192.308 30.705 192.308 33.853 C 192.308 34.898 192.312 37.482 192.312 37.482 C 192.312 37.482 192.308 40.02 192.308 41.104 C 192.308 44.248 194.453 45.072 195.916 45.072 C 197.349 45.072 199.527 44.248 199.527 41.104 C 199.527 39.795 199.523 37.492 199.523 37.492 L 199.523 37.492 Z " fill="rgb(255,255,255)"/><path d=" M 94.413 26.473 C 97.856 26.375 104.84 28.63 104.791 36.69 C 104.784 38.119 104.787 47.768 104.787 47.768 L 95.641 47.768 C 95.641 47.768 95.641 35.669 95.641 34.397 C 95.641 32.623 93.943 30.649 91.434 30.649 C 88.927 30.649 87.062 32.623 87.062 34.397 C 87.062 35.267 87.073 47.768 87.073 47.768 L 77.933 47.768 L 77.929 27.409 L 87.075 27.402 C 87.075 27.402 87.065 29.039 87.075 29.544 C 88.836 27.865 91.37 26.561 94.413 26.473 L 94.413 26.473 Z " fill="rgb(255,255,255)"/><path d=" M 169.236 26.473 C 172.679 26.375 179.663 28.63 179.614 36.69 C 179.606 38.119 179.61 47.768 179.61 47.768 L 170.464 47.768 C 170.464 47.768 170.464 35.669 170.464 34.397 C 170.464 32.623 168.766 30.649 166.255 30.649 C 163.749 30.649 161.884 32.623 161.884 34.397 C 161.884 35.267 161.894 47.768 161.894 47.768 L 152.754 47.768 L 152.762 27.409 L 161.898 27.402 C 161.898 27.402 161.888 29.039 161.898 29.544 C 163.658 27.865 166.196 26.561 169.236 26.473 L 169.236 26.473 Z " fill="rgb(255,255,255)"/><path d=" M 132.617 34.512 C 132.603 32.728 132.642 31.536 133.228 30.519 C 133.946 29.263 135.267 28.668 136.467 28.661 L 136.463 28.661 C 137.662 28.668 138.984 29.263 139.702 30.519 C 140.288 31.539 140.312 32.731 140.299 34.515 L 132.617 34.512 L 132.617 34.512 Z  M 140.267 40.651 C 140.267 40.651 140.274 40.742 140.274 41.885 C 140.274 45.609 137.824 46.435 136.463 46.435 C 135.103 46.435 132.61 45.609 132.61 41.885 C 132.61 40.77 132.617 37.681 132.617 37.681 C 132.617 37.681 149.961 37.689 149.961 37.678 C 149.961 31.363 143.864 26.133 136.376 26.133 C 128.886 26.133 122.818 31.251 122.818 37.566 C 122.818 43.88 128.886 48.995 136.376 48.995 C 142.588 48.995 147.836 45.45 149.439 40.644 L 140.267 40.651 L 140.267 40.651 Z " fill="rgb(255,255,255)"/><path d=" M 34.53 65.038 C 13.831 65.031 0 50.362 0 32.576 L 0 32.576 C 0 14.792 13.863 -0.045 34.498 0 L 229.502 0 C 250.137 -0.045 264 14.792 264 32.576 L 264 32.576 C 264 50.362 250.169 65.031 229.47 65.038 L 34.53 65.038 L 34.53 65.038 Z  M 34.592 8.001 C 18.205 8.032 8.147 18.984 8.147 32.535 L 8.147 32.535 C 8.147 46.081 18.143 57.124 34.592 57.065 L 229.408 57.065 C 245.857 57.122 255.856 46.081 255.856 32.535 L 255.856 32.535 C 255.856 18.988 245.797 8.036 229.411 8.005 L 34.592 8.001 L 34.592 8.001 Z " fill="rgb(255,255,255)"/><path d=" M 135.386 79.226 L 135.386 79.226 Q 134.086 79.226 133.026 78.609 L 133.026 78.609 L 133.026 78.609 Q 131.967 77.991 131.349 76.919 L 131.349 76.919 L 131.349 76.919 Q 130.732 75.846 130.732 74.546 L 130.732 74.546 L 130.732 74.546 Q 130.732 73.22 131.33 72.154 L 131.33 72.154 L 131.33 72.154 Q 131.928 71.088 132.968 70.484 L 132.968 70.484 L 132.968 70.484 Q 134.008 69.879 135.308 69.879 L 135.308 69.879 L 135.308 69.879 Q 136.01 69.879 136.686 70.048 L 136.686 70.048 L 136.686 70.048 Q 137.362 70.217 137.843 70.529 L 137.843 70.529 L 137.492 72.544 L 137.492 72.544 Q 136.556 72.193 135.802 72.193 L 135.802 72.193 L 135.802 72.193 Q 134.762 72.193 134.203 72.798 L 134.203 72.798 L 134.203 72.798 Q 133.644 73.402 133.644 74.533 L 133.644 74.533 L 133.644 74.533 Q 133.644 75.638 134.235 76.256 L 134.235 76.256 L 134.235 76.256 Q 134.827 76.873 135.88 76.873 L 135.88 76.873 L 135.88 76.873 Q 136.283 76.873 136.634 76.795 L 136.634 76.795 L 136.634 76.795 Q 136.985 76.717 137.492 76.509 L 137.492 76.509 L 137.856 78.563 L 137.856 78.563 Q 136.725 79.226 135.386 79.226 L 135.386 79.226 Z  M 146.026 79.018 L 146.026 70.074 L 148.834 70.074 L 148.834 77.042 L 151.941 77.042 L 151.941 79.018 L 146.026 79.018 Z  M 159.24 79.018 L 161.71 70.074 L 165.662 70.074 L 168.249 79.018 L 165.194 79.018 L 164.856 77.302 L 162.542 77.302 L 162.165 79.018 L 159.24 79.018 Z  M 162.815 75.703 L 164.544 75.703 L 163.699 71.79 L 162.815 75.703 Z  M 178.876 79.226 L 178.876 79.226 Q 177.043 79.226 175.782 78.55 L 175.782 78.55 L 176.432 76.535 L 176.432 76.535 Q 177.771 77.016 178.824 77.016 L 178.824 77.016 L 178.824 77.016 Q 179.396 77.016 179.662 76.88 L 179.662 76.88 L 179.662 76.88 Q 179.929 76.743 179.929 76.47 L 179.929 76.47 L 179.929 76.47 Q 179.929 76.288 179.786 76.152 L 179.786 76.152 L 179.786 76.152 Q 179.643 76.015 179.214 75.846 L 179.214 75.846 L 179.214 75.846 Q 178.785 75.677 177.927 75.43 L 177.927 75.43 L 177.927 75.43 Q 176.874 75.118 176.289 74.41 L 176.289 74.41 L 176.289 74.41 Q 175.704 73.701 175.704 72.778 L 175.704 72.778 L 175.704 72.778 Q 175.704 71.348 176.646 70.614 L 176.646 70.614 L 176.646 70.614 Q 177.589 69.879 179.188 69.879 L 179.188 69.879 L 179.188 69.879 Q 180.02 69.879 180.826 70.055 L 180.826 70.055 L 180.826 70.055 Q 181.632 70.23 182.256 70.568 L 182.256 70.568 L 181.554 72.531 L 181.554 72.531 Q 180.826 72.284 180.286 72.174 L 180.286 72.174 L 180.286 72.174 Q 179.747 72.063 179.24 72.063 L 179.24 72.063 L 179.24 72.063 Q 178.382 72.063 178.382 72.531 L 178.382 72.531 L 178.382 72.531 Q 178.382 72.765 178.661 72.928 L 178.661 72.928 L 178.661 72.928 Q 178.941 73.09 179.812 73.337 L 179.812 73.337 L 179.812 73.337 Q 181.177 73.701 181.879 74.449 L 181.879 74.449 L 181.879 74.449 Q 182.581 75.196 182.581 76.236 L 182.581 76.236 L 182.581 76.236 Q 182.581 77.679 181.645 78.453 L 181.645 78.453 L 181.645 78.453 Q 180.709 79.226 178.876 79.226 L 178.876 79.226 Z  M 193.507 79.226 L 193.507 79.226 Q 191.674 79.226 190.413 78.55 L 190.413 78.55 L 191.063 76.535 L 191.063 76.535 Q 192.402 77.016 193.455 77.016 L 193.455 77.016 L 193.455 77.016 Q 194.027 77.016 194.293 76.88 L 194.293 76.88 L 194.293 76.88 Q 194.56 76.743 194.56 76.47 L 194.56 76.47 L 194.56 76.47 Q 194.56 76.288 194.417 76.152 L 194.417 76.152 L 194.417 76.152 Q 194.274 76.015 193.845 75.846 L 193.845 75.846 L 193.845 75.846 Q 193.416 75.677 192.558 75.43 L 192.558 75.43 L 192.558 75.43 Q 191.505 75.118 190.92 74.41 L 190.92 74.41 L 190.92 74.41 Q 190.335 73.701 190.335 72.778 L 190.335 72.778 L 190.335 72.778 Q 190.335 71.348 191.277 70.614 L 191.277 70.614 L 191.277 70.614 Q 192.22 69.879 193.819 69.879 L 193.819 69.879 L 193.819 69.879 Q 194.651 69.879 195.457 70.055 L 195.457 70.055 L 195.457 70.055 Q 196.263 70.23 196.887 70.568 L 196.887 70.568 L 196.185 72.531 L 196.185 72.531 Q 195.457 72.284 194.917 72.174 L 194.917 72.174 L 194.917 72.174 Q 194.378 72.063 193.871 72.063 L 193.871 72.063 L 193.871 72.063 Q 193.013 72.063 193.013 72.531 L 193.013 72.531 L 193.013 72.531 Q 193.013 72.765 193.292 72.928 L 193.292 72.928 L 193.292 72.928 Q 193.572 73.09 194.443 73.337 L 194.443 73.337 L 194.443 73.337 Q 195.808 73.701 196.51 74.449 L 196.51 74.449 L 196.51 74.449 Q 197.212 75.196 197.212 76.236 L 197.212 76.236 L 197.212 76.236 Q 197.212 77.679 196.276 78.453 L 196.276 78.453 L 196.276 78.453 Q 195.34 79.226 193.507 79.226 L 193.507 79.226 Z  M 205.434 79.018 L 205.434 70.074 L 208.437 70.074 L 208.437 79.018 L 205.434 79.018 Z  M 221.339 79.226 L 221.339 79.226 Q 220.039 79.226 218.979 78.609 L 218.979 78.609 L 218.979 78.609 Q 217.92 77.991 217.302 76.919 L 217.302 76.919 L 217.302 76.919 Q 216.685 75.846 216.685 74.546 L 216.685 74.546 L 216.685 74.546 Q 216.685 73.22 217.283 72.154 L 217.283 72.154 L 217.283 72.154 Q 217.881 71.088 218.921 70.484 L 218.921 70.484 L 218.921 70.484 Q 219.961 69.879 221.261 69.879 L 221.261 69.879 L 221.261 69.879 Q 221.963 69.879 222.639 70.048 L 222.639 70.048 L 222.639 70.048 Q 223.315 70.217 223.796 70.529 L 223.796 70.529 L 223.445 72.544 L 223.445 72.544 Q 222.509 72.193 221.755 72.193 L 221.755 72.193 L 221.755 72.193 Q 220.715 72.193 220.156 72.798 L 220.156 72.798 L 220.156 72.798 Q 219.597 73.402 219.597 74.533 L 219.597 74.533 L 219.597 74.533 Q 219.597 75.638 220.188 76.256 L 220.188 76.256 L 220.188 76.256 Q 220.78 76.873 221.833 76.873 L 221.833 76.873 L 221.833 76.873 Q 222.236 76.873 222.587 76.795 L 222.587 76.795 L 222.587 76.795 Q 222.938 76.717 223.445 76.509 L 223.445 76.509 L 223.809 78.563 L 223.809 78.563 Q 222.678 79.226 221.339 79.226 L 221.339 79.226 Z  M 234.748 79.226 L 234.748 79.226 Q 232.915 79.226 231.654 78.55 L 231.654 78.55 L 232.304 76.535 L 232.304 76.535 Q 233.643 77.016 234.696 77.016 L 234.696 77.016 L 234.696 77.016 Q 235.268 77.016 235.534 76.88 L 235.534 76.88 L 235.534 76.88 Q 235.801 76.743 235.801 76.47 L 235.801 76.47 L 235.801 76.47 Q 235.801 76.288 235.658 76.152 L 235.658 76.152 L 235.658 76.152 Q 235.515 76.015 235.086 75.846 L 235.086 75.846 L 235.086 75.846 Q 234.657 75.677 233.799 75.43 L 233.799 75.43 L 233.799 75.43 Q 232.746 75.118 232.161 74.41 L 232.161 74.41 L 232.161 74.41 Q 231.576 73.701 231.576 72.778 L 231.576 72.778 L 231.576 72.778 Q 231.576 71.348 232.518 70.614 L 232.518 70.614 L 232.518 70.614 Q 233.461 69.879 235.06 69.879 L 235.06 69.879 L 235.06 69.879 Q 235.892 69.879 236.698 70.055 L 236.698 70.055 L 236.698 70.055 Q 237.504 70.23 238.128 70.568 L 238.128 70.568 L 237.426 72.531 L 237.426 72.531 Q 236.698 72.284 236.158 72.174 L 236.158 72.174 L 236.158 72.174 Q 235.619 72.063 235.112 72.063 L 235.112 72.063 L 235.112 72.063 Q 234.254 72.063 234.254 72.531 L 234.254 72.531 L 234.254 72.531 Q 234.254 72.765 234.533 72.928 L 234.533 72.928 L 234.533 72.928 Q 234.813 73.09 235.684 73.337 L 235.684 73.337 L 235.684 73.337 Q 237.049 73.701 237.751 74.449 L 237.751 74.449 L 237.751 74.449 Q 238.453 75.196 238.453 76.236 L 238.453 76.236 L 238.453 76.236 Q 238.453 77.679 237.517 78.453 L 237.517 78.453 L 237.517 78.453 Q 236.581 79.226 234.748 79.226 L 234.748 79.226 Z  M 26.261 79.018 L 28.731 70.074 L 32.683 70.074 L 35.27 79.018 L 32.215 79.018 L 31.877 77.302 L 29.563 77.302 L 29.186 79.018 L 26.261 79.018 Z  M 29.836 75.703 L 31.565 75.703 L 30.72 71.79 L 29.836 75.703 Z  M 49.901 79.226 L 49.901 79.226 Q 47.457 79.226 46.911 76.964 L 46.911 76.964 L 46.586 75.625 L 45.975 75.625 L 45.975 79.018 L 43.128 79.018 L 43.128 70.074 L 47.067 70.074 L 47.067 70.074 Q 48.185 70.074 49.036 70.406 L 49.036 70.406 L 49.036 70.406 Q 49.888 70.737 50.356 71.335 L 50.356 71.335 L 50.356 71.335 Q 50.824 71.933 50.824 72.713 L 50.824 72.713 L 50.824 72.713 Q 50.824 73.584 50.401 74.176 L 50.401 74.176 L 50.401 74.176 Q 49.979 74.767 49.095 75.144 L 49.095 75.144 L 49.095 75.144 Q 49.186 75.638 49.303 76.041 L 49.303 76.041 L 49.303 76.041 Q 49.459 76.535 49.732 76.73 L 49.732 76.73 L 49.732 76.73 Q 50.005 76.925 50.525 76.925 L 50.525 76.925 L 50.525 76.925 Q 50.707 76.925 51.097 76.873 L 51.097 76.873 L 51.097 78.992 L 51.097 78.992 Q 50.486 79.226 49.901 79.226 L 49.901 79.226 Z  M 45.975 73.805 L 46.469 73.805 L 46.469 73.805 Q 47.431 73.805 47.827 73.591 L 47.827 73.591 L 47.827 73.591 Q 48.224 73.376 48.224 72.856 L 48.224 72.856 L 48.224 72.856 Q 48.224 72.414 47.899 72.213 L 47.899 72.213 L 47.899 72.213 Q 47.574 72.011 46.872 72.011 L 46.872 72.011 L 45.975 72.011 L 45.975 73.805 Z  M 63.349 79.226 L 63.349 79.226 Q 62.049 79.226 60.989 78.609 L 60.989 78.609 L 60.989 78.609 Q 59.93 77.991 59.312 76.919 L 59.312 76.919 L 59.312 76.919 Q 58.695 75.846 58.695 74.546 L 58.695 74.546 L 58.695 74.546 Q 58.695 73.22 59.293 72.154 L 59.293 72.154 L 59.293 72.154 Q 59.891 71.088 60.931 70.484 L 60.931 70.484 L 60.931 70.484 Q 61.971 69.879 63.271 69.879 L 63.271 69.879 L 63.271 69.879 Q 63.973 69.879 64.649 70.048 L 64.649 70.048 L 64.649 70.048 Q 65.325 70.217 65.806 70.529 L 65.806 70.529 L 65.455 72.544 L 65.455 72.544 Q 64.519 72.193 63.765 72.193 L 63.765 72.193 L 63.765 72.193 Q 62.725 72.193 62.166 72.798 L 62.166 72.798 L 62.166 72.798 Q 61.607 73.402 61.607 74.533 L 61.607 74.533 L 61.607 74.533 Q 61.607 75.638 62.198 76.256 L 62.198 76.256 L 62.198 76.256 Q 62.79 76.873 63.843 76.873 L 63.843 76.873 L 63.843 76.873 Q 64.246 76.873 64.597 76.795 L 64.597 76.795 L 64.597 76.795 Q 64.948 76.717 65.455 76.509 L 65.455 76.509 L 65.819 78.563 L 65.819 78.563 Q 64.688 79.226 63.349 79.226 L 63.349 79.226 Z  M 73.209 79.018 L 75.679 70.074 L 79.631 70.074 L 82.218 79.018 L 79.163 79.018 L 78.825 77.302 L 76.511 77.302 L 76.134 79.018 L 73.209 79.018 Z  M 76.784 75.703 L 78.513 75.703 L 77.668 71.79 L 76.784 75.703 Z  M 90.076 79.018 L 90.076 70.074 L 93.963 70.074 L 93.963 70.074 Q 95.367 70.074 96.452 70.633 L 96.452 70.633 L 96.452 70.633 Q 97.538 71.192 98.142 72.193 L 98.142 72.193 L 98.142 72.193 Q 98.747 73.194 98.747 74.481 L 98.747 74.481 L 98.747 74.481 Q 98.747 75.833 98.155 76.86 L 98.155 76.86 L 98.155 76.86 Q 97.564 77.887 96.478 78.453 L 96.478 78.453 L 96.478 78.453 Q 95.393 79.018 93.963 79.018 L 93.963 79.018 L 90.076 79.018 Z  M 92.949 76.678 L 93.833 76.678 L 93.833 76.678 Q 94.808 76.678 95.321 76.061 L 95.321 76.061 L 95.321 76.061 Q 95.835 75.443 95.835 74.455 L 95.835 74.455 L 95.835 74.455 Q 95.835 73.519 95.334 72.967 L 95.334 72.967 L 95.334 72.967 Q 94.834 72.414 93.833 72.414 L 93.833 72.414 L 92.949 72.414 L 92.949 76.678 Z  M 107.008 79.018 L 107.008 70.074 L 113.287 70.074 L 113.287 72.05 L 110.167 72.05 L 110.167 73.675 L 113.014 73.675 L 113.014 75.313 L 110.167 75.313 L 110.167 77.042 L 113.287 77.042 L 113.287 79.018 L 107.008 79.018 Z " fill="rgb(255,255,255)"/></g></g></svg>