<?xml version="1.0" encoding="utf-8"?>
<svg viewBox="0 0 210 42" xmlns="http://www.w3.org/2000/svg">
  <g transform="matrix(1, 0, 0, 1, 1.971496, -45.055363)">
    <path d="M 0 66.055 C 0 56.817 10.001 51.044 18 55.663 C 21.713 57.807 24 61.768 24 66.055 C 24 75.292 14 81.067 6 76.448 C 2.287 74.304 0 70.342 0 66.055 Z M 8.827 60.951 C 8.471 61.148 8.25 61.527 8.25 61.93 L 8.25 70.18 C 8.25 70.588 8.471 70.963 8.827 71.16 C 9.184 71.356 9.614 71.353 9.966 71.137 L 16.716 67.011 C 17.048 66.805 17.255 66.445 17.255 66.051 C 17.255 65.656 17.048 65.296 16.716 65.09 L 9.966 60.964 C 9.619 60.753 9.184 60.745 8.827 60.942 L 8.827 60.951 Z" style="fill: rgb(255, 255, 255); transform-box: fill-box; transform-origin: 50% 50%;"/>
    <path d="M 42.47 75.43 L 39.41 68.77 C 39.33 68.63 39.29 68.435 39.29 68.185 C 39.29 67.935 39.31 67.65 39.35 67.33 L 39.11 67.33 L 37.7 75.43 L 32 75.43 L 35.3 56.68 L 40.67 56.68 L 43.73 63.34 C 43.79 63.48 43.82 63.675 43.82 63.925 C 43.82 64.175 43.8 64.46 43.76 64.78 L 44 64.78 L 45.44 56.68 L 51.14 56.68 L 47.84 75.43 L 42.47 75.43 Z M 59.118 62.95 L 57.738 70.75 L 60.108 70.75 C 60.888 70.75 61.468 70.655 61.848 70.465 C 62.228 70.275 62.478 69.84 62.598 69.16 L 63.978 61.36 L 61.578 61.36 C 60.818 61.36 60.248 61.455 59.868 61.645 C 59.488 61.835 59.238 62.27 59.118 62.95 Z M 62.568 56.23 C 65.108 56.23 66.918 56.725 67.998 57.715 C 69.078 58.705 69.618 60.23 69.618 62.29 C 69.618 64.35 69.293 66.505 68.643 68.755 C 67.993 71.005 66.963 72.755 65.553 74.005 C 64.143 75.255 62.083 75.88 59.373 75.88 C 56.663 75.88 54.768 75.385 53.688 74.395 C 52.608 73.405 52.068 71.88 52.068 69.82 C 52.068 68.84 52.208 67.545 52.488 65.935 C 52.768 64.325 53.138 62.935 53.598 61.765 C 54.058 60.595 54.678 59.58 55.458 58.72 C 56.958 57.06 59.328 56.23 62.568 56.23 Z M 89.539 56.68 L 95.509 56.68 L 89.419 75.43 L 81.859 75.43 L 81.859 68.53 L 81.529 68.53 L 79.039 75.43 L 72.109 75.43 L 72.109 56.68 L 78.079 56.68 L 77.539 67.15 L 77.719 67.15 L 81.619 56.68 L 86.149 56.68 L 86.149 67.15 L 86.329 67.15 L 89.539 56.68 Z M 110.749 70.9 L 107.029 70.9 L 106.249 75.43 L 100.549 75.43 L 103.849 56.68 L 112.849 56.68 C 116.249 56.68 117.949 58.26 117.949 61.42 C 117.949 62.92 117.739 64.275 117.319 65.485 C 116.899 66.695 116.434 67.655 115.924 68.365 C 115.414 69.075 114.714 69.675 113.824 70.165 C 112.934 70.655 111.909 70.9 110.749 70.9 Z M 108.679 61.48 L 107.869 66.1 L 109.189 66.1 C 109.869 66.1 110.384 66.025 110.734 65.875 C 111.084 65.725 111.309 65.38 111.409 64.84 C 111.669 63.36 111.799 62.55 111.799 62.41 C 111.799 62.03 111.649 61.78 111.349 61.66 C 111.049 61.54 110.599 61.48 109.999 61.48 L 108.679 61.48 Z M 129.139 75.43 L 117.739 75.43 L 121.039 56.68 L 126.739 56.68 L 124.279 70.63 L 129.979 70.63 L 129.139 75.43 Z M 133.279 75.43 L 127.279 75.43 L 135.169 56.68 L 143.989 56.68 L 145.309 75.43 L 139.279 75.43 L 139.159 72.46 L 134.449 72.46 L 133.279 75.43 Z M 138.409 62.44 L 136.309 67.69 L 138.709 67.69 L 138.709 62.44 L 138.409 62.44 Z M 152.898 56.68 L 153.288 63.28 L 153.498 63.28 L 156.258 56.68 L 162.558 56.68 L 154.998 70.33 L 154.128 75.43 L 148.428 75.43 L 149.298 70.33 L 146.598 56.68 L 152.898 56.68 Z M 160.128 75.43 L 163.428 56.68 L 169.128 56.68 L 165.828 75.43 L 160.128 75.43 Z M 179.838 75.43 L 176.778 68.77 C 176.698 68.63 176.658 68.435 176.658 68.185 C 176.658 67.935 176.678 67.65 176.718 67.33 L 176.478 67.33 L 175.068 75.43 L 169.368 75.43 L 172.668 56.68 L 178.038 56.68 L 181.098 63.34 C 181.158 63.48 181.188 63.675 181.188 63.925 C 181.188 64.175 181.168 64.46 181.128 64.78 L 181.368 64.78 L 182.808 56.68 L 188.508 56.68 L 185.208 75.43 L 179.838 75.43 Z M 199.217 69.91 L 199.367 69.1 L 197.927 69.1 L 198.737 64.51 L 205.607 64.51 L 203.837 74.53 C 201.397 75.43 198.947 75.88 196.487 75.88 C 194.027 75.88 192.252 75.39 191.162 74.41 C 190.072 73.43 189.527 71.92 189.527 69.88 C 189.527 69.02 189.667 67.75 189.947 66.07 C 190.547 62.59 191.607 60.08 193.127 58.54 C 194.647 57 197.167 56.23 200.687 56.23 C 201.427 56.23 202.372 56.31 203.522 56.47 C 204.672 56.63 205.517 56.81 206.057 57.01 L 204.407 61.6 C 202.907 61.32 201.532 61.18 200.282 61.18 C 199.032 61.18 198.137 61.28 197.597 61.48 C 197.057 61.68 196.737 62.08 196.637 62.68 L 195.167 71.17 L 197.057 71.17 C 197.737 71.17 198.242 71.095 198.572 70.945 C 198.902 70.795 199.117 70.45 199.217 69.91 Z" style="white-space: pre; fill: rgb(255, 255, 255); transform-box: fill-box; transform-origin: 50% 50%;"/>
  </g>
</svg>