<?xml version="1.0" encoding="utf-8"?>
<svg xmlns="http://www.w3.org/2000/svg">
  <path d="M 135.301 20.157 L 135.301 20.157 L 130.278 20.157 L 129.224 26.381 L 121.528 26.381 L 125.984 0.619 L 138.136 0.619 L 138.136 0.619 C 142.728 0.619 145.023 2.789 145.023 7.131 L 145.023 7.131 L 145.023 7.131 C 145.023 9.193 144.739 11.052 144.172 12.709 L 144.172 12.709 L 144.172 12.709 C 143.605 14.376 142.98 15.701 142.295 16.681 L 142.295 16.681 L 142.295 16.681 C 141.603 17.652 140.652 18.477 139.446 19.154 L 139.446 19.154 L 139.446 19.154 C 138.249 19.823 136.867 20.157 135.301 20.157 Z M 134.288 7.213 L 132.506 7.213 L 131.412 13.562 L 133.194 13.562 L 133.194 13.562 C 134.113 13.562 134.805 13.461 135.274 13.259 L 135.274 13.259 L 135.274 13.259 C 135.75 13.049 136.057 12.572 136.192 11.83 L 136.192 11.83 L 136.192 11.83 C 136.543 9.797 136.719 8.684 136.719 8.492 L 136.719 8.492 L 136.719 8.492 C 136.719 7.97 136.516 7.626 136.111 7.461 L 136.111 7.461 L 136.111 7.461 C 135.706 7.296 135.098 7.213 134.288 7.213 L 134.288 7.213 Z M 161.267 19.785 L 160.133 26.381 L 144.739 26.381 L 149.195 0.619 L 156.892 0.619 L 153.57 19.785 L 161.267 19.785 Z M 167.303 22.3 L 165.723 26.381 L 157.621 26.381 L 168.275 0.619 L 180.185 0.619 L 181.967 26.381 L 173.825 26.381 L 173.663 22.3 L 167.303 22.3 Z M 173.055 8.532 L 172.65 8.532 L 169.815 15.747 L 173.055 15.747 L 173.055 8.532 Z M 183.709 0.619 L 192.216 0.619 L 192.743 9.687 L 193.026 9.687 L 196.753 0.619 L 205.26 0.619 L 195.052 19.373 L 193.877 26.381 L 186.18 26.381 L 187.355 19.373 L 183.709 0.619 Z M 209.676 26.381 L 201.979 26.381 L 206.435 0.619 L 214.132 0.619 L 209.676 26.381 Z M 235.845 26.381 L 228.595 26.381 L 224.463 17.23 L 224.463 17.23 C 224.355 17.038 224.3 16.767 224.3 16.419 L 224.3 16.419 L 224.3 16.419 C 224.3 16.081 224.328 15.692 224.381 15.251 L 224.381 15.251 L 224.058 15.251 L 222.153 26.381 L 214.456 26.381 L 218.912 0.619 L 226.164 0.619 L 230.295 9.77 L 230.295 9.77 C 230.376 9.962 230.417 10.233 230.417 10.58 L 230.417 10.58 L 230.417 10.58 C 230.417 10.919 230.391 11.308 230.335 11.748 L 230.335 11.748 L 230.661 11.748 L 232.605 0.619 L 240.302 0.619 L 235.845 26.381 Z M 254.763 18.796 L 254.763 18.796 L 254.966 17.683 L 253.022 17.683 L 254.114 11.377 L 263.391 11.377 L 261.002 25.145 L 261.002 25.145 C 257.708 26.381 254.399 27 251.076 27 L 251.076 27 L 251.076 27 C 247.756 27 245.355 26.326 243.879 24.98 L 243.879 24.98 L 243.879 24.98 C 242.413 23.633 241.679 21.558 241.679 18.756 L 241.679 18.756 L 241.679 18.756 C 241.679 17.573 241.868 15.829 242.247 13.52 L 242.247 13.52 L 242.247 13.52 C 243.055 8.739 244.487 5.29 246.539 3.174 L 246.539 3.174 L 246.539 3.174 C 248.593 1.058 251.996 0 256.748 0 L 256.748 0 L 256.748 0 C 257.748 0 259.02 0.11 260.569 0.33 L 260.569 0.33 L 260.569 0.33 C 262.126 0.549 263.269 0.797 264 1.071 L 264 1.071 L 261.771 7.378 L 261.771 7.378 C 259.745 6.994 257.886 6.801 256.195 6.801 L 256.195 6.801 L 256.195 6.801 C 254.51 6.801 253.306 6.939 252.575 7.213 L 252.575 7.213 L 252.575 7.213 C 251.847 7.488 251.414 8.038 251.28 8.862 L 251.28 8.862 L 249.295 20.528 L 251.847 20.528 L 251.847 20.528 C 252.764 20.528 253.445 20.428 253.885 20.226 L 253.885 20.226 L 253.885 20.226 C 254.336 20.015 254.629 19.538 254.763 18.796 Z" style="white-space: pre; fill: rgb(255, 255, 255);"/>
  <path d="M 52.577 26.381 L 45.326 26.381 L 41.194 17.23 L 41.194 17.23 C 41.086 17.038 41.032 16.767 41.032 16.419 L 41.032 16.419 L 41.032 16.419 C 41.032 16.081 41.059 15.692 41.113 15.251 L 41.113 15.251 L 40.789 15.251 L 38.885 26.381 L 31.188 26.381 L 35.644 0.619 L 42.895 0.619 L 47.027 9.77 L 47.027 9.77 C 47.108 9.962 47.149 10.233 47.149 10.58 L 47.149 10.58 L 47.149 10.58 C 47.149 10.919 47.122 11.308 47.068 11.748 L 47.068 11.748 L 47.392 11.748 L 49.336 0.619 L 57.033 0.619 L 52.577 26.381 Z M 67.808 9.233 L 67.808 9.233 L 65.945 19.95 L 69.145 19.95 L 69.145 19.95 C 70.198 19.95 70.982 19.823 71.495 19.566 L 71.495 19.566 L 71.495 19.566 C 72.008 19.301 72.345 18.701 72.507 17.766 L 72.507 17.766 L 74.371 7.049 L 71.13 7.049 L 71.13 7.049 C 70.104 7.049 69.334 7.177 68.821 7.433 L 68.821 7.433 L 68.821 7.433 C 68.308 7.699 67.97 8.299 67.808 9.233 Z M 72.467 0 L 72.467 0 L 72.467 0 C 75.897 0 78.341 0.683 79.799 2.047 L 79.799 2.047 L 79.799 2.047 C 81.257 3.404 81.987 5.496 81.987 8.327 L 81.987 8.327 L 81.987 8.327 C 81.987 11.157 81.545 14.121 80.663 17.216 L 80.663 17.216 L 80.663 17.216 C 79.79 20.303 78.399 22.703 76.491 24.416 L 76.491 24.416 L 76.491 24.416 C 74.591 26.138 71.809 27 68.146 27 L 68.146 27 L 68.146 27 C 64.491 27 61.935 26.322 60.476 24.966 L 60.476 24.966 L 60.476 24.966 C 59.018 23.601 58.289 21.503 58.289 18.673 L 58.289 18.673 L 58.289 18.673 C 58.289 17.326 58.478 15.549 58.856 13.341 L 58.856 13.341 L 58.856 13.341 C 59.234 11.125 59.734 9.216 60.355 7.612 L 60.355 7.612 L 60.355 7.612 C 60.976 6.001 61.813 4.603 62.866 3.421 L 62.866 3.421 L 62.866 3.421 C 64.892 1.141 68.092 0 72.467 0 Z M 104.55 15.004 L 108.885 0.619 L 116.946 0.619 L 108.723 26.381 L 98.514 26.381 L 98.514 16.901 L 98.069 16.901 L 94.707 26.381 L 85.349 26.381 L 85.349 0.619 L 93.41 0.619 L 92.681 15.004 L 92.924 15.004 L 98.19 0.619 L 104.307 0.619 L 104.307 15.004 L 104.55 15.004 Z" style="white-space: pre; fill: rgb(255, 255, 255);"/>
  <path d="M 16.162 11.881 L 11.114 8.148 C 10.929 8.01 10.684 7.991 10.481 8.097 C 10.276 8.203 10.148 8.416 10.148 8.648 L 10.148 16.112 C 10.148 16.345 10.276 16.559 10.481 16.665 C 10.568 16.708 10.662 16.73 10.758 16.73 C 10.882 16.73 11.008 16.689 11.114 16.611 L 16.162 12.88 C 16.321 12.76 16.413 12.576 16.413 12.382 C 16.414 12.182 16.32 11.998 16.162 11.881 Z" style="fill: rgb(255, 255, 255);"/>
  <path d="M 12.153 0 C 5.439 0 0 5.535 0 12.366 C 0 19.195 5.439 24.728 12.153 24.728 C 18.865 24.728 24.306 19.195 24.306 12.366 C 24.307 5.535 18.865 0 12.153 0 Z M 12.153 22.666 C 6.562 22.666 2.03 18.056 2.03 12.366 C 2.03 6.679 6.562 2.064 12.153 2.064 C 17.743 2.064 22.275 6.679 22.275 12.366 C 22.276 18.056 17.743 22.666 12.153 22.666 Z" style="fill: rgb(255, 255, 255);"/>
</svg>