<?xml version="1.0" encoding="utf-8"?>
<svg version="1.1" baseProfile="tiny" id="Calque_1" x="0px" y="0px" xmlns="http://www.w3.org/2000/svg">
  <path id="XMLID_733_" d="M 196.434 3.818 C 199.398 4.209 198.588 1.029 200.059 0.008 C 200.42 0.008 200.781 0.008 201.142 0.008 C 201.77 0.089 202.628 -0.312 202.767 0.786 C 202.723 1.858 202.782 2.946 202.613 3.998 C 202.238 6.362 203.185 7.333 205.535 7.013 C 205.535 7.013 205.503 6.937 205.503 6.937 C 205.762 8.037 204.732 9.805 207.036 9.84 C 209.334 9.874 208.482 8.18 208.612 7.023 C 209.054 1.123 209.054 1.123 214.793 1.044 C 214.758 5.964 214.706 10.884 214.691 15.804 C 214.673 21.941 214.686 21.941 208.678 22.169 C 208.678 22.169 208.679 22.204 208.679 22.204 C 208.699 21.133 208.602 20.047 208.76 18.998 C 209.141 16.492 208.246 15.292 205.622 15.629 C 205.283 14.605 206.138 12.802 203.964 12.967 C 201.844 13.126 202.79 14.811 202.666 15.875 C 202.523 17.115 202.544 18.388 202.653 19.634 C 202.813 21.464 202.184 22.243 200.24 22.13 C 198.185 22.009 196.113 22.175 194.048 22.217 C 193.84 22.225 193.632 22.232 193.425 22.24 C 193.425 22.24 193.489 22.234 193.489 22.234 C 193.515 17.883 193.525 13.529 193.582 9.178 C 193.593 8.446 193.246 7.199 194.313 7.191 C 197.019 7.176 196.187 5.215 196.434 3.818 Z" style="fill: rgb(255, 255, 255);"/>
  <path id="XMLID_720_" d="M 11.792 159.263 C 10.655 156.163 4.277 157.112 3.705 156.778 C -0.606 154.258 -0.805 154.404 1.324 150.38 C 1.824 149.937 11.462 140.843 11.526 139.839 C 12.062 131.353 14.109 109.317 12.114 106.439 C 11.681 105.815 10.784 103.773 10.291 103.499 C 9.282 102.935 8.239 102.416 7.166 101.986 C 3.757 100.626 2.241 96.188 6.259 93.887 C 7.889 92.953 9.455 91.909 11.039 90.898 C 11.862 90.374 13.225 89.93 13.371 89.244 C 14.064 86.005 15.116 63.186 15.721 61.606 C 16.91 58.494 17.656 55.056 20.187 52.53 C 22.098 50.624 23.893 48.597 25.676 46.572 C 26.26 45.91 26.802 45.111 26.329 44.12 C 25.854 43.128 24.928 43.107 24.012 43.1 C 20.799 43.078 17.802 44.072 14.801 45.048 C 11.725 46.047 8.656 47.076 5.37 47.122 C 2.623 47.162 2.217 46.36 2.683 43.671 C 3.111 41.187 8.637 35.299 10.526 34.55 C 14.908 32.812 30.528 28.057 32.856 28.102 C 34.268 27.28 49.097 27.672 55.561 29.537 C 60.744 31.032 84.709 42.821 83.345 46.611 C 80.999 53.133 81.685 59 76.235 63.305 C 71.743 66.853 67.107 70.192 62.242 73.431 C 59.96 74.951 38.455 87.954 33.7 91.424 C 32.926 91.989 32.347 92.707 32.218 93.702 C 32.214 93.977 32.208 94.252 32.203 94.526 C 31.602 96.244 32.875 97.371 34.013 97.599 C 38.58 98.509 69.061 110.331 69.464 112.673 C 74.937 123.494 63.338 138.501 60.672 139.745 C 54.625 142.569 33.148 153.789 26.383 154.525 C 23.525 154.036 21.456 154.811 20.693 157.898 C 20.504 158.666 20.111 159.426 19.655 160.076 C 18.572 161.618 16.952 162.11 15.153 161.98 C 13.442 161.855 12.333 160.736 11.792 159.263 Z M 31.264 108.986 C 29.169 107.865 25.618 115 25.747 115.729 C 25.727 115.972 24.938 121.845 24.781 123.081 C 24.735 124.907 23.977 136.397 23.06 140.248 C 22.731 141.632 23.428 142.243 24.933 141.8 C 27.153 141.148 29.382 140.475 31.651 140.043 C 33.215 139.745 44.851 135.065 49.16 133.171 C 49.657 132.953 58.733 127.465 59.19 125.275 C 59.661 123.015 60.022 121.36 58.484 120.373 C 53.859 117.402 48.845 115.233 43.686 113.354 C 39.558 111.852 35.17 111.075 31.264 108.986 Z M 32.553 80.815 C 34.883 83.164 58.178 66.585 60.403 64.182 C 61.983 62.476 68.877 52.788 66.587 48.729 C 63.741 43.685 44.11 39.973 39.225 42.851 C 38.354 43.364 37.673 44.07 37.287 44.995 C 36.7 46.398 36.17 47.834 35.681 49.263 C 33.565 55.451 30.38 74.285 30.959 77.432 C 31.216 78.827 30.971 79.22 32.553 80.815 Z" style="fill: rgb(255, 255, 255);"/>
  <path id="XMLID_719_" d="M 223.649 62.69 C 219.118 73.313 256.784 129.81 258.061 128.307 C 258.867 127.36 261.324 132.123 262.047 133.464 C 263.074 135.368 261.75 135.204 260.438 136.659 C 256.973 140.498 221.34 156.719 218.1 157.972 C 213.265 159.841 200.512 155.712 199.945 154.543 C 198.621 151.81 211.644 142.929 214.144 140.788 C 217.141 138.221 222.341 136.615 227.061 134.901 C 229.241 134.11 230.956 133.405 232.994 134.664 C 233.203 134.802 233.157 135.485 232.988 135.676 C 231.292 137.579 228.141 138.169 226.781 140.054 C 226.343 140.659 225.492 141.156 226.26 142.295 C 226.905 143.248 227.93 142.495 228.619 141.981 C 230.898 140.278 232.796 139.113 234.863 136.926 C 235.832 135.588 235.933 134.374 237.136 133.096 C 237.136 133.096 238.661 130.537 238.663 130.537 C 243.096 124.536 212.384 88.575 207.883 85.418 C 206.079 84.152 205.899 81.481 205.388 79.26 C 203.248 69.967 206.708 62.006 211.622 54.632 C 216.905 46.703 224.653 41.392 232.71 36.517 C 234.881 35.204 245.371 30.055 247.296 29.097 C 250.034 27.74 252.768 26.346 255.73 25.567 C 260.827 24.223 262.227 26.801 263.955 31.756 C 265.26 35.498 237.893 61 234.528 58.301 C 232.862 54.719 233.084 53.692 236.203 50.951 C 237.344 49.949 238.548 49.02 239.707 48.037 C 240.243 47.583 240.363 46.985 240.099 46.341 C 239.937 45.945 239.57 45.883 239.213 46.026 C 234.602 47.881 224.32 61.118 223.649 62.69 Z" style="fill: rgb(255, 255, 255);"/>
  <path id="XMLID_716_" d="M 113.157 59.295 C 113.806 59.192 119.809 58.88 121.489 58.789 C 122.327 58.575 124.414 59.466 124.632 60.101 C 125.181 61.442 125.521 62.797 125.367 64.286 C 125.005 67.81 119.536 67.24 118.932 67.295 C 114.719 67.681 110.487 67.95 106.308 68.576 C 102.339 69.172 98.187 70.221 96.896 74.599 C 95.766 78.437 94.727 90.681 94.841 91.863 C 95.057 94.097 110.915 92.124 116.34 90.104 C 116.709 89.967 120.752 88.893 122.254 88.268 C 123.441 87.775 124.33 87.13 125.854 85.836 L 125.831 85.861 C 127.596 85.5 128.433 86.774 129.625 88.612 C 129.93 86.861 131.954 83.981 128.343 83.685 C 127.661 83.629 127.616 82.79 127.695 82.125 C 128.047 79.177 127.761 76.088 129.638 73.48 C 130.436 73.352 135.382 68.587 135.603 67.572 C 136.796 62.093 147.283 39.875 146.888 38.265 C 146.105 35.08 146.201 34.768 149.411 33.742 C 149.993 33.556 155.53 28.437 157.821 26.246 C 159.535 25.294 161.264 24.051 162.787 26.52 C 162.774 27.019 161.622 30.827 161.439 31.188 C 160.068 34.349 164.904 37.017 165.772 37.649 C 166.625 38.27 167.895 38.461 168.157 39.673 C 168.99 43.505 168.571 66.243 170.618 67.689 C 172.422 68.963 172.114 70.351 170.739 71.393 C 169.344 72.448 166.492 101.534 165.131 102.547 C 164.308 103.16 163.574 103.91 162.517 103.537 C 161.462 103.163 161.544 102.119 161.587 101.23 C 161.64 100.162 161.663 85.719 162.553 79.587 C 162.782 78.011 162.811 76.001 161.663 74.965 C 160.112 73.562 138.541 80.253 137.679 83.228 C 137.015 85.517 131.168 104.244 130.266 105.799 C 129.447 107.217 128.066 107.309 126.713 106.97 C 125.372 106.635 125.325 105.388 125.463 104.32 C 125.694 102.548 127.936 94.678 128.084 91.85 C 125.407 94.432 122.628 96.424 120.046 96.909 C 120.046 96.909 97.999 103.243 93.408 101.663 C 91.594 101.038 87.371 96.191 87.409 94.624 C 87.583 87.367 88.049 80.113 89.255 72.97 C 90.188 67.442 89.98 62.617 91.383 56.318 C 91.868 54.14 92.456 51.96 92.883 49.758 C 93.649 45.791 94.898 42.16 97.411 38.792 C 99.7 35.722 103.045 33.125 105.624 31.523 C 108.898 29.488 118.488 27.252 119.659 27.178 C 122.856 26.978 128.064 25.819 130.274 30.652 C 130.324 30.759 129.872 34.726 129.228 36.645 C 128.677 38.287 127.332 38.957 125.794 37.978 C 121.501 35.24 116.989 36.13 112.423 36.855 C 108.339 37.504 105.046 39.03 104.034 43.475 C 103.735 44.782 103.598 46.128 103.26 47.424 C 102.036 52.118 100.742 56.795 99.506 61.488 C 99.235 62.513 98.849 63.662 99.819 64.503 C 100.639 65.215 101.378 64.546 101.927 63.973 C 104.993 60.766 109.036 59.955 113.157 59.295 Z M 152.523 47.946 C 150.381 53.022 142.709 70.005 142.874 70.741 C 143.021 71.393 143.654 71.421 144.189 71.376 C 149.237 70.955 161.587 69.203 161.747 67.509 C 162.187 62.853 161.314 58.334 160.937 53.701 C 160.76 51.539 157.521 46.947 157.227 46.678 C 155.543 45.137 153.577 45.449 152.523 47.946 Z" style="fill: rgb(255, 255, 255);"/>
  <path id="XMLID_715_" d="M 192.478 99.69 C 191.656 100.951 186.243 102.31 186.426 100.472 C 186.683 97.868 185.58 95.401 185.931 92.834 C 185.466 91.102 185.905 89.358 185.946 87.622 C 186.066 82.456 185.824 77.286 186.546 72.128 C 187.218 67.322 188.797 49.013 189.299 46.313 C 189.744 43.917 189.981 41.466 190.087 39.031 C 190.164 37.233 189.056 36.373 187.265 36.819 C 184.646 37.469 181.929 37.956 179.493 39.044 C 177.726 39.834 175.881 39.797 174.128 40.388 C 172.504 40.935 173.432 36.085 173.577 34.71 C 174.264 28.197 207.615 26.992 208.721 28.378 C 210.242 30.283 209.439 33.112 209.166 35.448 C 208.963 37.18 199.259 35.389 196.896 35.884 C 195.577 36.16 197.125 43.698 196.411 47.407 C 194.786 55.835 195.317 63.004 193.809 71.454 C 193.087 75.497 192.984 81.134 192.584 85.215 C 192.112 90.022 191.89 94.861 192.478 99.69 Z" style="fill: rgb(255, 255, 255);"/>
  <path id="XMLID_711_" d="M 66.851 1.079 C 67.224 1.009 67.596 0.942 67.967 0.872 C 71.382 0.877 74.796 0.883 78.211 0.89 C 78.496 1.08 79.032 1.27 79.032 1.458 C 79.03 4.095 80.687 4.102 82.589 3.763 L 82.544 3.753 C 82.511 7.789 82.48 11.824 82.445 15.858 C 82.432 17.41 82.92 19.261 80.232 19.034 C 79.414 18.965 79.304 19.782 79.36 20.424 C 79.498 22.014 78.529 22.106 77.319 22.103 C 72.912 22.088 68.506 22.128 64.098 22.146 L 64.111 22.187 C 64.1 20.709 64.965 18.786 62.201 18.784 C 61.368 18.784 61.383 17.969 61.382 17.345 C 61.374 14.392 61.375 11.439 61.383 8.487 C 61.385 7.84 61.467 7.294 62.29 7.103 C 64.065 6.691 63.956 5.252 63.928 3.899 C 65.394 3.367 67.375 3.807 66.851 1.079 Z M 73.718 18.837 C 74.198 18.662 76.622 18.548 76.581 17.339 C 76.465 13.884 76.429 10.426 76.363 6.968 C 76.894 4.549 76.063 3.789 73.471 3.72 C 70.599 3.644 69.922 4.605 70.131 7.229 C 70.35 9.99 70.179 12.781 70.18 15.559 C 70.184 19.105 70.184 19.105 73.718 18.837 Z" style="fill: rgb(255, 255, 255);"/>
  <path id="XMLID_710_" d="M 155.06 0.93 C 159.368 1.411 163.824 0.82 168.138 0.955 C 169.148 0.986 170.404 0.61 170.431 2.369 C 170.457 4.138 169.211 3.812 168.184 3.822 C 165.752 3.847 163.306 4.004 160.895 3.781 C 158.452 3.554 158.271 4.82 158.376 6.666 C 158.472 8.337 157.964 10.346 160.832 9.85 C 161.096 9.804 165.698 9.951 167.736 10.095 C 167.736 10.095 167.627 10.113 167.627 10.115 C 167.915 12.507 166.796 13.254 164.516 12.968 C 163.109 12.792 161.658 12.927 160.227 12.944 C 159.618 12.95 158.681 12.814 158.599 13.501 C 158.408 15.079 157.963 16.864 158.589 18.26 C 159.028 19.239 160.585 18.718 161.663 18.837 C 164.622 19.162 167.615 18.873 170.592 18.893 L 170.539 18.875 C 171.088 21.273 170.351 22.265 167.681 22.151 C 162.914 21.948 158.133 22.054 153.359 22.12 C 152.055 22.138 149.32 22.29 149.351 22.091 C 149.324 16.976 149.151 12.084 149.123 6.971 L 149.11 6.996 C 150.593 7.294 151.63 7.12 152.055 6.335 C 152.372 5.749 152.405 4.859 152.416 3.771 L 152.37 3.803 C 153.138 3.462 154.062 3.81 154.928 3.129 C 155.011 2.434 154.957 1.955 155.06 0.93 Z" style="fill: rgb(255, 255, 255);"/>
  <path id="XMLID_598_" d="M 105.311 7.049 C 107.137 7.199 108.574 7.09 108.655 4.583 C 108.691 3.477 111.828 1.143 112.372 0.89 C 115.778 0.885 119.185 0.88 122.592 0.875 C 123.196 2.737 122.998 4.122 126.441 3.826 C 126.604 5.31 126.43 6.339 126.462 7.592 C 126.493 8.826 126.54 9.995 124.735 9.868 C 123.902 9.81 123.333 10.264 123.355 11.152 C 123.384 12.343 122.997 13.045 121.665 12.962 C 121.082 12.926 120.462 13.187 120.503 13.81 C 120.683 16.547 118.895 16.08 117.274 15.835 C 115.075 15.503 114.03 16.294 114.419 18.592 C 114.881 21.314 113.953 22.118 110.994 22.146 C 109.17 22.163 107.223 22.15 105.334 22.175 C 105.326 17.131 105.317 12.089 105.311 7.049 Z M 114.418 8.35 C 114.421 8.35 114.424 8.35 114.428 8.35 C 114.428 9.422 114.431 10.493 114.426 11.565 C 114.423 12.378 114.665 12.947 115.628 12.959 C 116.505 12.968 117.329 12.893 117.296 11.762 C 117.251 10.254 118.029 9.943 119.402 9.668 C 121.349 9.277 120.24 7.472 120.395 6.309 C 120.507 5.471 120.897 4.313 119.493 3.865 C 116.135 2.793 114.419 4.018 114.418 7.548 C 114.418 7.815 114.418 8.083 114.418 8.35 Z" style="fill: rgb(255, 255, 255);"/>
  <path id="XMLID_552_" fill="#FBFBFB" d="M 137.776 134.015 C 138.138 134.33 140.622 138.183 141.799 139.385 C 142.279 140.048 142.868 141.805 143.626 140.098 C 145.139 136.693 146.782 133.285 147.48 129.563 C 148.767 126.37 150.052 123.173 151.34 119.98 C 151.884 119.544 155.5 117.44 156.666 119.549 C 157.238 120.911 157.81 122.275 158.382 123.637 C 160.032 129.317 162.149 134.814 164.79 140.108 C 165.087 141.07 166.237 142.52 164.83 142.872 C 163.374 143.235 161.345 144.008 160.038 142.291 C 159.39 141.44 159.087 140.329 158.627 139.335 C 158.535 137.832 157.832 137.14 156.232 137.251 C 154.552 137.37 152.858 137.269 151.168 137.284 C 150.481 137.291 149.424 137.313 149.36 138.384 C 149.36 138.384 148.012 141.205 147.976 142.568 C 144.399 142.548 140.822 142.528 137.243 142.509 C 135.559 139.834 133.864 137.166 132.196 134.482 C 131.616 133.55 130.944 133.567 129.762 133.423 C 128.278 133.201 128.786 134.352 128.768 134.983 C 128.69 137.534 128.702 140.091 128.679 142.644 C 127.029 143.399 125.367 143.286 123.699 142.704 C 123.732 135.511 123.761 128.317 123.805 121.125 C 123.812 120.169 123.53 119.124 124.453 118.373 C 124.894 118.327 125.336 118.284 125.778 118.237 C 128.656 118.234 131.534 118.232 134.412 118.229 C 135.706 118.403 137.051 118.416 138.094 119.388 C 140.446 121.033 141.46 123.251 141.035 126.114 C 140.753 128.02 135.362 131.916 137.776 134.015 Z M 156.08 132.23 C 156.124 131.034 155.167 126.657 154.112 126.453 C 152.981 126.234 152.248 130.267 151.884 131.323 C 150.917 133.881 156.013 134.056 156.08 132.23 Z M 128.727 126.046 C 129.252 127.675 127.598 129.592 130.777 129.484 C 134.118 129.372 135.922 128.146 135.846 125.646 C 135.78 123.475 134.27 122.653 131.158 122.415 C 127.995 122.178 128.985 124.293 128.727 126.046 Z"/>
  <path id="XMLID_549_" fill="#FBFBFB" d="M 77.09 119.274 C 82.389 116.352 89.665 117.632 92.368 121.964 C 95.554 127.745 95.218 133.518 92.335 139.287 C 89.517 142.78 85.682 143.433 81.416 143.307 C 80.613 143.182 76.564 141.658 76.103 140.92 C 75.884 141.01 74.22 138.94 73.932 138.577 C 71.881 135.99 72.293 133.032 72.333 129.958 C 72.355 128.302 74.155 120.454 77.09 119.274 Z M 86.937 137.212 L 87.476 136.678 C 89.351 135.059 89.19 129.762 89.095 128.809 C 88.275 120.594 80.965 121.275 78.86 124.653 C 77.147 127.403 77.151 133.772 79.045 136.444 C 80.86 139.007 84.247 139.336 86.937 137.212 Z"/>
  <path id="XMLID_548_" fill="#FBFBFB" d="M 183.719 123.051 C 181.927 123.006 180.136 122.965 178.342 122.917 C 175.567 122.845 173.195 123.618 172.103 126.401 C 170.79 129.751 170.473 133.064 173.084 136.079 C 174.957 138.243 177.228 138.927 179.968 138.191 C 183.022 137.469 181.736 135.602 181.105 133.908 L 181.118 133.923 C 180.108 132.723 178.651 133.181 177.398 133.007 C 176.257 132.849 175.865 132.404 175.898 131.296 C 175.931 130.212 176.483 129.946 177.436 129.956 C 179.681 129.983 181.927 129.979 184.173 129.956 C 185.115 129.946 185.742 130.189 185.695 131.289 C 185.556 134.672 186.063 138.077 185.344 141.44 L 185.333 141.369 C 184.171 142.524 183.47 142.511 182.671 142.545 L 182.691 142.535 C 179.592 143.248 176.282 142.494 173.163 142.86 C 170.114 141.299 167.61 139.55 166.493 136.109 C 165.431 130.992 165.484 126.04 168.667 121.552 C 168.865 120.778 176.29 118.195 179.418 118.13 C 184.322 118.03 184.283 118.957 183.719 123.051 Z"/>
  <path id="XMLID_547_" fill="#FBFBFB" d="M 204.328 128.67 C 204.329 129.834 204.331 131 204.331 132.164 C 201.773 132.786 199.166 132.502 196.596 132.412 C 193.911 132.317 194.682 134.114 194.629 135.463 C 194.576 136.83 194.183 138.307 196.607 138.237 C 199.531 138.153 202.495 137.796 205.406 138.493 C 205.407 139.794 205.409 141.098 205.409 142.4 C 200.204 142.451 195 142.5 189.795 142.55 C 189.619 134.482 189.543 126.414 189.835 118.347 C 194.845 118.335 199.856 118.323 204.868 118.312 C 205.757 122.598 205.622 122.779 201.504 122.781 C 199.721 122.782 197.936 122.759 196.154 122.794 C 195.506 122.807 194.608 122.567 194.674 123.744 C 194.677 124.814 194.68 125.884 194.684 126.953 C 194.549 128.658 195.848 128.118 196.699 128.204 C 199.238 128.46 201.834 127.717 204.328 128.67 Z"/>
  <path id="XMLID_546_" fill="#FBFBFB" d="M 103.137 143.004 C 101.516 143.007 99.87 143.44 98.297 142.697 C 98.306 134.628 98.312 126.56 98.321 118.494 C 103.499 118.452 108.678 118.413 113.859 118.372 C 114.024 122.785 114.024 122.785 109.582 122.785 C 108.772 122.785 107.963 122.785 107.154 122.785 C 102.801 122.785 102.855 122.782 103.109 127.047 C 103.178 128.214 103.534 128.635 104.679 128.61 C 106.926 128.563 109.179 128.677 111.423 128.579 C 113.333 128.495 113.021 129.755 113.076 130.899 C 113.132 132.103 113.035 133.006 111.408 132.899 C 109.618 132.78 107.803 132.993 106.016 132.841 C 103.963 132.667 103.095 133.254 103.246 135.485 C 103.415 137.975 103.191 140.494 103.137 143.004 Z"/>
</svg>