<?xml version="1.0" encoding="utf-8"?>
<svg version="1.1" xmlns="http://www.w3.org/2000/svg" xmlns:xlink="http://www.w3.org/1999/xlink">
  <path style="fill-opacity: 1; stroke: none; stroke-opacity: 1; fill: rgb(255, 255, 255);" id="path5729" d="M 213.457 3.58 C 213.462 3.601 213.496 3.66 213.547 3.738 C 213.494 3.602 213.449 3.546 213.457 3.58 Z M 212.694 4.316 C 212.683 4.307 212.623 4.442 212.587 4.597 C 212.664 4.425 212.701 4.323 212.694 4.316 Z M 213.778 5.345 C 213.264 5.375 212.82 5.44 212.491 5.515 C 212.465 5.88 212.439 6.32 212.414 6.842 C 212.315 8.883 212.227 12.121 212.136 16.886 C 212.037 22.056 211.96 25.95 211.834 28.875 C 211.707 31.8 211.642 33.589 211.097 35.46 C 210.825 36.395 210.508 37.859 208.451 38.893 C 207.421 39.409 206.095 39.455 205.212 39.221 C 204.329 38.986 203.789 38.618 203.373 38.302 C 201.708 37.037 201.203 35.989 200.191 34.602 C 197.432 30.817 195.114 26.382 190.545 16.429 C 189.475 14.097 188.619 12.323 187.975 11.067 L 188.078 12.004 C 188.261 12.405 188.417 12.786 188.618 13.293 C 189.133 14.587 189.848 16.469 190.724 18.677 C 192.476 23.094 194.88 28.807 197.188 32.916 C 199.103 36.324 201.603 40.526 203.729 43.963 C 204.792 45.682 205.764 47.213 206.51 48.344 C 206.778 48.749 207.058 49.125 207.303 49.447 C 207.373 49.444 207.42 49.444 207.497 49.439 C 208.342 49.377 209.588 49.156 210.55 48.903 C 210.596 48.891 210.63 48.879 210.675 48.867 C 210.908 47.668 211.206 45.889 211.535 43.671 C 213.599 29.743 214.356 19.456 214.037 10.401 C 213.958 8.161 213.871 6.5 213.778 5.345 Z M 215.516 5.375 C 215.634 5.396 215.711 5.383 215.754 5.394 C 215.863 5.423 215.795 5.402 215.668 5.387 C 215.633 5.382 215.56 5.379 215.516 5.375 Z M 211.918 5.709 C 211.882 5.732 211.882 5.737 211.918 5.709 Z M 211.847 48.434 C 211.833 48.438 211.787 48.468 211.703 48.533 C 211.8 48.489 211.872 48.426 211.847 48.434 Z M 210.458 49.86 C 210.362 50.055 210.394 50.137 210.384 50.195 C 210.385 50.19 210.385 50.19 210.387 50.184 C 210.401 50.131 210.438 49.944 210.458 49.86 Z" xlink:href="#path5719"/>
  <path style="font-style: normal; font-variant-ligatures: normal; font-variant-caps: normal; font-weight: bold; font-stretch: normal; font-size: 205.444px; line-height: 125%; font-family: &quot;Comic Sans MS&quot;; text-align: start; writing-mode: lr-tb; text-anchor: start; display: inline; fill-opacity: 1; stroke: none; fill: rgb(255, 255, 255);" d="M 7.068 10.429 C 2.471 10.855 -1.313 12.425 0.435 18.008 C 1.674 27.974 1.642 39.379 0.222 49.476 C -0.668 53.908 11.191 53.208 11.776 51.199 C 11.559 47.783 10.705 45.798 13.355 43.852 C 15.871 42.758 16.831 43.916 17.92 44.843 C 20.014 47.623 18.683 49.483 20.261 51.499 C 21.143 52.907 29.687 53.431 31.568 51.793 C 33.675 49.958 32.433 47.1 31.213 44.988 C 29.57 41.85 26.021 39.313 25.947 36.547 C 26.433 32.517 32.051 31.705 32.322 25.338 C 31.952 16.074 27.279 14.248 20.917 12.059 C 16.904 10.725 11.661 10.574 7.068 10.429 Z M 14.961 21.545 C 18.354 21.602 19.111 24.592 19.091 26.067 C 19.214 27.645 18.831 31.444 15.088 31.463 C 11.701 31.258 11.1 27.64 11.121 26.101 C 11.198 24.479 11.843 21.65 14.961 21.545 Z" id="path4525"/>
  <path style="font-style: normal; font-variant-ligatures: normal; font-variant-caps: normal; font-weight: bold; font-stretch: normal; font-size: 176.147px; line-height: 125%; font-family: &quot;Comic Sans MS&quot;; text-align: start; writing-mode: lr-tb; text-anchor: start; display: inline; fill-opacity: 1; stroke: none; fill: rgb(255, 255, 255);" id="path4701" d="M 48.063 25.057 C 47.223 25.033 46.334 25.047 45.406 25.088 C 36.175 25.28 32.301 32.012 31.802 40.639 C 32.202 46.74 34.409 49.701 38.431 52.202 C 40.308 53.111 41.845 53.611 43.349 53.744 C 45.277 53.914 47.15 53.472 49.611 52.511 C 55.692 50.158 60.293 46.701 55.71 42.18 C 53.683 41.26 51.207 42.724 45.273 44.504 C 43.653 44.998 42.392 43.379 44.866 42.674 C 53.787 40.224 57.505 39.244 57.666 33.074 C 57.56 27.115 53.944 25.222 48.063 25.057 Z M 45.843 31.326 C 47.185 31.255 48.428 31.749 48.827 33.003 C 50.364 36.912 42.562 39.586 41.71 35.448 C 41.085 33.13 43.607 31.446 45.843 31.326 Z"/>
  <path style="font-style: normal; font-variant-ligatures: normal; font-variant-caps: normal; font-weight: bold; font-stretch: normal; font-size: 182.188px; line-height: 125%; font-family: &quot;Comic Sans MS&quot;; text-align: start; writing-mode: lr-tb; text-anchor: start; display: inline; fill-opacity: 1; stroke: none; fill: rgb(255, 255, 255);" id="path4705" d="M 71.004 25.992 C 65.987 26.27 59.433 28.372 59.396 34.266 C 59.904 41.464 70.78 42.747 71.31 44.504 C 71.147 47.466 62.943 40.851 61.087 42.489 C 57.762 45.825 59.005 48.449 61.616 50.383 C 63.351 51.667 65.685 52.645 67.674 53.322 C 72.027 54.474 76.11 53.238 78.56 52.017 C 81.295 50.94 82.278 47.356 82.164 44.36 C 80.906 38.439 71.791 37.112 70.984 34.913 C 71.085 31.425 79.141 39.136 81.278 36.722 C 85.288 29.358 80.12 27.883 75.21 26.25 C 74.177 26.009 72.676 25.9 71.004 25.992 Z"/>
  <path style="font-style: normal; font-variant-ligatures: normal; font-variant-caps: normal; font-weight: bold; font-stretch: normal; font-size: 179.688px; line-height: 125%; font-family: &quot;Comic Sans MS&quot;; text-align: start; writing-mode: lr-tb; text-anchor: start; display: inline; fill-opacity: 1; stroke: none; fill: rgb(255, 255, 255);" id="path4707" d="M 89.903 16.444 C 86.443 16.59 84.687 18.389 84.588 21.171 C 85.05 24.378 86.713 25.694 89.903 25.879 C 93.019 25.649 94.277 24.59 94.78 21.171 C 94.481 18.473 92.843 16.629 89.903 16.444 Z M 88.986 27.452 C 86.432 27.583 83.904 28.971 84.262 31.213 C 85.13 36.639 85.101 43.796 83.946 49.972 C 82.607 55.191 95.208 54.894 93.578 49.972 C 92.189 44.367 92.564 38.127 93.894 31.213 C 94.12 28.444 91.541 27.321 88.986 27.452 Z"/>
  <path style="font-style: normal; font-variant-ligatures: normal; font-variant-caps: normal; font-weight: bold; font-stretch: normal; font-size: 167.257px; line-height: 125%; font-family: &quot;Comic Sans MS&quot;; text-align: start; writing-mode: lr-tb; text-anchor: start; display: inline; fill-opacity: 1; stroke: none; fill: rgb(255, 255, 255);" id="path4709" d="M 117.038 12.292 C 115.888 12.221 114.69 12.541 113.729 13.319 C 112.901 14.126 112.066 14.276 113.129 19.168 C 113.257 22.83 113.646 24.468 108.251 24.296 C 99.336 24.511 95.228 31.822 94.77 39.981 C 94.876 47.822 100.107 53.139 107.701 53.703 C 110.358 54.031 111.688 53.355 113.607 51.976 C 114.381 52.647 115.495 53.651 116.488 53.651 C 119.645 53.544 121.142 51.92 120.959 48.985 C 117.302 40.464 125.43 17.684 120.053 13.607 C 119.292 12.821 118.189 12.362 117.038 12.292 Z M 107.661 33.937 C 113.066 33.769 112.509 43.426 107.783 43.702 C 102.8 43.8 102.578 34.088 107.661 33.937 Z"/>
  <path style="font-style: normal; font-variant-ligatures: normal; font-variant-caps: normal; font-weight: bold; font-stretch: normal; font-size: 166.083px; line-height: 125%; font-family: &quot;Comic Sans MS&quot;; text-align: start; writing-mode: lr-tb; text-anchor: start; display: inline; fill-opacity: 1; stroke: none; fill: rgb(255, 255, 255);" d="M 123.123 26.689 C 122.143 36.417 120.089 51.574 133.164 52.55 C 134.855 52.55 136.513 51.713 138.127 51.218 C 139.026 52.067 139.191 52.954 141.75 52.789 C 147.136 52.91 146.316 48.88 146.224 45.081 C 144.823 39.538 145.34 32.278 146.013 26.086 C 145.762 22.788 137.655 22.404 136.136 25.592 C 135.095 28.931 137.504 40.683 134.546 41.427 C 131.844 40.615 134.617 27.71 134.026 25.728 C 133.714 22.267 124.4 22.384 123.123 26.689 Z" id="path4518"/>
  <path style="font-style: normal; font-variant-ligatures: normal; font-variant-caps: normal; font-weight: bold; font-stretch: normal; font-size: 162.064px; line-height: 125%; font-family: &quot;Comic Sans MS&quot;; text-align: start; writing-mode: lr-tb; text-anchor: start; display: inline; fill-opacity: 1; stroke: none; fill: rgb(255, 255, 255);" id="path4711" d="M 161.037 24.399 C 157.326 24.399 153.979 25.95 151.313 28.901 C 148.64 31.841 147.229 35.596 147.229 39.765 C 147.316 48.014 150.259 52.669 158.572 53.538 C 160.494 53.484 162.276 52.637 163.969 51.791 C 164.854 52.785 165.82 53.657 167.187 53.785 C 169.813 53.679 171.327 51.563 171.524 49.078 C 170.726 45.405 170.116 42.213 169.915 38.378 C 169.826 35.853 170.018 33.339 170.16 31.008 C 169.872 26.498 164.792 24.877 161.037 24.399 Z M 159.224 34.081 C 164.434 34.382 164.052 43.902 159.275 43.804 C 154.485 43.723 154.67 34.298 159.224 34.081 Z"/>
  <path style="font-style: normal; font-variant-ligatures: normal; font-variant-caps: normal; font-weight: bold; font-stretch: normal; font-size: 168px; line-height: 125%; font-family: &quot;Comic Sans MS&quot;; text-align: start; writing-mode: lr-tb; text-anchor: start; display: inline; fill-opacity: 1; stroke: none; stroke-opacity: 1; fill: rgb(255, 255, 255);" id="path4713" d="M 177.206 13.555 C 174.622 13.475 171.987 14.439 171.85 16.639 C 172.96 29.248 173.06 40.161 172.37 47.701 L 172.38 50.701 C 173.137 54.86 182.122 54.64 182.471 51.031 C 181.864 45.124 181.085 29.309 182.277 16.742 C 182.327 14.764 179.791 13.637 177.206 13.555 Z"/>
  <path style="display: inline; fill-opacity: 1; stroke: none; stroke-opacity: 1; fill: rgb(255, 255, 255);" d="M 227.444 48.47 C 226.282 43.608 221.444 15.626 220.899 11.275 C 220.024 7.405 224.367 5.258 227.13 6.615 C 229.248 7.739 232.528 11.758 238.285 20.283 C 241.229 24.642 242.004 25.407 242.558 24.501 C 242.69 24.287 243.315 21.241 243.949 17.733 C 245.248 10.535 246.548 6.029 247.991 3.722 C 249.347 1.554 252.374 0.402 254.146 1.495 C 254.832 1.918 256.081 3.385 257.926 13.071 C 261.46 31.617 264.864 42.401 263.802 46.045 C 263.127 48.363 257.249 48.685 256.075 47.484 C 254.073 45.433 254.551 44.494 253.799 37.863 C 253.17 32.323 251.893 25.618 251.227 24.354 C 250.187 22.381 249.215 26.048 248.021 36.44 C 247.665 39.539 247.229 41.728 246.899 42.06 C 246.137 42.829 243.289 43.155 242.573 42.555 C 242.254 42.288 240.392 39.158 238.435 35.598 C 234.534 28.503 233.334 26.808 232.677 27.459 C 232.146 27.985 232.751 33.086 233.821 37.103 C 236.183 45.964 237.756 48.001 237.419 50.085 C 237.089 52.123 236.787 52.811 233.195 53.92 C 229.677 54.508 228.321 51.781 227.444 48.47 Z" id="path5747"/>
  <path style="display: inline; fill-opacity: 1; stroke: none; stroke-opacity: 1; fill: rgb(255, 255, 255);" d="M 203.731 50.96 C 199.815 45.481 198.212 41.852 194.264 34.805 C 189.052 25.502 183.312 10.613 183.312 7.675 C 183.312 5.828 184.42 5.101 187.232 5.101 C 190.868 5.101 190.395 4.443 197.096 18.803 C 202.004 29.322 203.386 31.851 205.552 34.278 C 206.69 35.553 207.075 35.783 207.358 35.352 C 207.813 34.661 208.161 28.632 208.538 14.908 C 208.809 5.001 208.901 3.987 209.662 2.495 C 210.573 0.71 211.93 0 214.435 0 C 215.571 0 216.098 0.244 216.759 1.079 C 217.607 2.15 217.612 2.245 217.384 13.143 C 217.258 19.185 217.225 27.489 216.968 31.272 C 216.271 41.53 217.195 43.544 214.952 50.543 C 212.273 54.054 205.886 54.818 203.731 50.96 Z" id="path5745"/>
</svg>