<?xml version="1.0" encoding="utf-8"?>
<svg version="1.1" xmlns="http://www.w3.org/2000/svg">
  <path d="M 34.926 100.122 C 32.076 99.948 29.22 99.58 26.404 99.083 C 14.949 97.058 9.621 94.349 6.424 93.092 C 4.896 92.49 3.403 91.922 1.742 92.532 C 1.554 92.601 1.33 92.597 1.123 92.601 C 0.069 92.612 -0.257 92.203 0.203 91.258 C 0.748 90.134 1.39 89.052 2.035 87.98 C 3.784 85.075 5.556 82.182 7.321 79.285 C 7.402 79.149 7.495 79.024 7.574 78.887 C 7.935 78.283 8.329 77.725 9.153 77.842 C 9.928 77.949 10.097 78.59 10.258 79.195 C 10.613 80.518 11.418 81.503 12.476 82.322 C 14.982 84.265 17.811 85.572 20.78 86.608 C 24.629 87.954 28.591 88.797 32.617 89.429 C 37.382 90.179 42.172 90.275 46.957 89.997 C 51.013 89.761 55.007 89.027 58.832 87.529 C 61.159 86.618 62.922 85.012 64.338 83.045 C 66.211 80.438 65.445 76.855 62.888 74.818 C 59.418 72.049 55.381 70.954 51.105 70.219 C 47.26 69.56 43.422 69.631 39.573 69.681 C 37.765 69.704 33.446 69.875 31.791 71.413 C 31.183 71.953 30.697 71.993 30.408 71.732 C 30.117 71.468 30.105 71.051 30.102 70.689 C 30.07 66.924 30.067 63.159 30.091 59.398 C 30.1 58.166 30.674 57.794 31.626 58.463 C 32.83 59.306 34.167 59.676 35.563 59.857 C 37.88 60.155 45.445 59.891 46.991 59.69 C 51.123 59.148 50.761 59.213 53.173 58.566 C 55.754 57.874 58.217 56.058 59.503 54.558 C 59.522 54.533 59.544 54.509 59.564 54.485 C 61.356 52.323 60.754 49.833 59.088 48.052 C 57.486 46.339 55.475 45.246 53.235 44.584 C 49.562 43.5 45.8 42.905 41.986 43.085 C 35.075 43.41 28.302 44.469 22.055 47.686 C 20.625 48.426 19.283 49.351 17.963 50.281 C 16.836 51.073 16.268 52.233 16.236 53.631 C 16.22 54.358 16.335 55.187 15.473 55.504 C 14.604 55.824 14.156 55.068 13.658 54.564 C 10.478 51.327 7.31 48.075 4.139 44.828 C 3.955 44.641 3.752 44.464 3.618 44.243 C 3.234 43.622 3.47 43.107 4.205 43.021 C 5.026 42.927 5.907 43.057 6.67 42.808 C 7.798 42.439 8.853 41.838 9.926 41.311 C 12.78 39.91 15.559 38.331 18.49 37.122 C 23.131 35.209 28.018 34.181 33.009 33.561 C 37.784 32.965 46.212 32.72 52.31 33.622 C 56.384 34.24 60.424 35.059 64.207 36.748 C 67.544 38.238 70.802 39.902 73.293 42.712 C 75.093 44.742 76.303 47.013 76.708 49.767 C 77.096 52.406 76.664 54.819 75.536 57.186 C 74.762 58.817 73.601 59.871 72.005 60.831 C 68.876 62.712 67.022 63.18 66.626 63.422 C 65.995 63.808 65.968 64.319 66.61 64.687 C 67.188 65.018 67.852 65.214 68.497 65.415 C 72.264 66.593 75.5 68.663 78.195 71.504 C 80.168 73.575 81.334 76.06 81.726 78.995 C 82.128 81.999 81.424 84.657 80.125 87.27 C 79.118 89.303 77.444 90.732 75.685 92.03 C 72.123 94.657 68.161 96.432 63.909 97.693 C 60.747 98.63 57.541 99.265 54.294 99.696 C 43.195 100.911 37.525 100.28 34.926 100.122 Z M 164.33 100.633 C 163.081 99.315 159.722 99.196 159.2 99.196 C 135.677 99.196 112.153 99.194 88.629 99.196 C 86.236 99.196 85.806 99.489 86.101 96.454 C 86.58 91.486 88.402 86.869 92.003 83.302 C 92.693 82.6 92.924 82.363 94.5 80.931 C 101.178 74.868 114.485 70.008 114.485 70.008 C 114.485 70.008 125.62 65.888 131.873 63.422 C 134.681 62.316 137.424 61.039 139.926 59.304 C 148.995 52.143 144.286 45.034 132.327 43.377 C 123.953 42.178 116.322 44.225 109.268 48.732 C 108.346 49.321 107.569 49.909 106.68 50.548 C 105.104 51.884 103.751 53.441 103.456 55.164 C 103.298 56.092 103.45 56.733 103.468 56.884 C 103.529 57.367 103.675 58.132 103.319 58.48 C 102.889 58.901 101.997 58.479 101.601 58.104 C 97.965 54.662 94.325 51.228 90.686 47.793 C 90.458 47.577 90.039 47.116 90.039 47.116 C 90.039 47.116 89.64 46.655 89.627 46.337 C 89.611 45.982 89.959 45.648 90.377 45.517 C 92.36 45.15 93.275 45.034 94.464 44.16 C 97.668 41.818 101.012 39.721 104.588 37.976 C 109.364 35.641 114.389 34.253 119.651 33.542 C 123.697 32.998 135.581 31.143 149.463 37.325 C 153.123 38.934 156.263 41.212 158.631 44.426 C 160.033 46.327 165.311 56.757 154.553 65.084 C 150.706 68.175 146.116 70.086 141.476 71.709 C 137.505 73.099 134.592 74.14 128.095 76.023 C 123.161 77.49 119.62 78.641 113.975 81.326 C 109.485 83.458 106.536 86.053 106.536 86.053 C 106.536 86.053 105.066 87.188 105.352 88.077 C 105.596 88.849 106.825 88.772 107.547 88.773 C 124.916 88.784 142.285 88.78 159.655 88.781 C 161.453 88.781 163.195 88.655 164.566 87.242 C 164.768 87.035 165.294 86.925 165.534 87.044 C 165.762 87.156 165.921 87.632 165.924 87.946 C 165.951 92.023 165.952 96.187 165.929 100.263 C 165.925 100.659 165.795 100.801 165.6 100.916 C 165.303 101.088 164.672 100.998 164.33 100.633 Z M 187.828 33.579 C 191.529 33.579 195.234 33.579 198.937 33.582 C 199.304 33.582 199.672 33.554 200.032 33.596 C 200.86 33.695 200.986 34.045 200.467 34.719 C 199.541 35.928 199.549 36.059 200.603 37.176 C 200.64 37.213 200.678 37.249 200.713 37.285 C 205.882 42.523 211.051 47.761 216.219 52.998 C 216.477 53.259 216.719 53.543 217.015 53.752 C 217.533 54.125 218.089 54.132 218.599 53.723 C 218.884 53.495 219.134 53.225 219.391 52.963 C 224.496 47.807 229.599 42.652 234.703 37.493 C 234.886 37.306 235.078 37.127 235.242 36.924 C 235.923 36.077 235.906 35.779 235.271 34.87 C 234.699 34.098 234.699 33.623 235.865 33.595 C 236.121 33.588 236.384 33.582 236.645 33.582 C 244.158 33.582 251.671 33.579 259.18 33.584 C 259.647 33.584 260.125 33.578 260.577 33.677 C 260.769 33.72 261.001 34.008 261.034 34.215 C 261.066 34.417 260.924 34.772 260.756 34.856 C 260.249 35.112 259.706 35.331 259.151 35.451 C 257.048 35.913 255.335 36.953 253.815 38.504 C 247.276 45.178 240.67 51.787 234.099 58.432 C 232.452 60.1 230.83 61.802 229.215 63.505 C 228.192 64.58 228.19 65.091 229.226 66.15 C 231.046 68.012 232.916 69.82 234.727 71.69 C 236.069 73.072 237.317 74.548 238.669 75.92 C 242.264 79.562 245.903 83.159 249.503 86.795 C 251.926 89.242 254.327 91.711 256.71 94.197 C 258.08 95.633 259.678 96.631 261.605 97.127 C 262.306 97.303 262.994 97.572 263.655 97.867 C 263.836 97.949 264.024 98.288 263.997 98.48 C 263.968 98.677 263.711 98.929 263.503 98.995 C 263.166 99.103 262.786 99.104 262.425 99.104 C 254.756 99.11 247.089 99.108 239.42 99.104 C 239.108 99.104 238.785 99.111 238.491 99.029 C 238.002 98.887 237.817 98.594 238.119 98.087 C 238.372 97.661 238.773 97.176 238.729 96.757 C 238.678 96.314 238.223 95.88 237.869 95.516 C 231.919 89.436 225.96 83.366 220.003 77.293 C 219.783 77.07 219.562 76.846 219.337 76.63 C 218.022 75.354 217.539 75.338 216.222 76.653 C 212.413 80.448 208.6 84.243 204.825 88.074 C 202.374 90.563 199.985 93.114 197.572 95.644 C 196.664 96.596 196.665 96.656 197.354 97.921 C 197.748 98.641 197.6 98.958 196.777 99.078 C 196.421 99.13 196.05 99.108 195.685 99.108 C 188.278 99.11 180.87 99.119 173.462 99.097 C 172.799 99.094 171.683 99.274 171.627 98.462 C 171.509 97.614 172.532 97.572 173.132 97.43 C 175.83 96.798 177.891 95.258 179.798 93.298 C 185.878 87.049 192.061 80.902 198.178 74.694 C 200.08 72.764 201.895 70.755 203.775 68.805 C 204.497 68.052 205.3 67.383 206.041 66.649 C 207.587 65.11 207.592 64.701 206.104 63.196 C 201.595 58.626 197.074 54.068 192.568 49.493 C 188.904 45.78 185.225 42.077 181.61 38.315 C 180.216 36.869 178.581 35.965 176.656 35.516 C 176.302 35.433 175.953 35.322 175.604 35.215 C 175.109 35.062 174.496 34.944 174.565 34.267 C 174.633 33.579 175.237 33.579 175.775 33.582 C 176.087 33.582 176.401 33.579 176.714 33.579 C 180.418 33.579 184.124 33.579 187.828 33.579 Z" id="path23" style="fill-opacity: 1; fill: rgb(255, 255, 255);"/>
  <g transform="matrix(1.25917, 0, 0, 1.272552, -23.625809, 0)">
    <path d="M 109.385 12.379 C 109.385 13.367 110.19 14.15 111.156 14.14 L 118.389 14.14 L 118.389 11.937 L 111.596 11.937 L 111.596 11.32 L 116.949 11.32 L 116.949 9.128 L 109.396 9.128 L 109.385 12.379 L 109.385 12.379 Z" id="path11" style="fill-rule: evenodd; fill: rgb(255, 255, 255);"/>
    <path d="M 109.396 5.118 C 109.396 4.207 110.18 3.362 111.156 3.366 L 118.389 3.366 L 118.389 5.558 L 111.596 5.558 L 111.596 6.175 L 116.949 6.175 L 116.949 8.397 L 109.385 8.397 L 109.396 5.118 L 109.396 5.118 Z" id="path13" style="fill-rule: evenodd; fill: rgb(255, 255, 255);"/>
    <path d="M 110.898 0.411 C 108.443 0.411 106.452 2.402 106.452 4.856 L 106.452 12.637 C 106.452 15.092 108.443 17.082 110.898 17.082 L 118.391 17.082 L 118.391 14.891 L 111.084 14.891 C 109.795 14.891 108.652 13.669 108.652 12.381 L 108.652 5.11 C 108.652 3.821 109.795 2.63 111.084 2.63 L 118.391 2.63 L 118.391 0.408 L 110.898 0.408 L 110.898 0.411 Z" id="path29" style="fill-rule: evenodd; fill: rgb(255, 255, 255);"/>
    <path d="M 125.084 11.997 L 125.084 5.558 L 132.229 5.558 L 132.229 3.366 L 124.683 3.366 C 123.707 3.362 122.923 4.207 122.923 5.118 L 122.914 12.379 C 122.914 13.367 123.717 14.15 124.683 14.14 L 129.286 14.14 L 129.274 9.089 L 125.811 9.089 L 125.811 11.261 L 127.091 11.261 L 127.091 11.996 L 125.084 11.996 L 125.084 11.997 Z" id="path31" style="fill-rule: evenodd; fill: rgb(255, 255, 255);"/>
    <path d="M 104.333 0.39 L 97.155 0.39 C 94.131 0.39 91.678 2.842 91.678 5.866 C 91.678 8.891 94.131 11.284 97.155 11.258 L 99.342 11.258 L 99.342 11.997 L 91.726 11.997 L 91.726 14.141 L 99.094 14.141 C 100.479 14.141 101.603 13.017 101.603 11.634 C 101.603 10.249 100.479 9.145 99.094 9.145 L 97.185 9.137 C 95.388 9.137 93.931 7.68 93.931 5.884 C 93.931 4.087 95.387 2.63 97.185 2.63 L 104.338 2.63 L 104.333 0.39 L 104.333 0.39 Z" id="path33" style="fill-rule: evenodd; fill: rgb(255, 255, 255);"/>
    <path d="M 104.333 5.499 L 96.872 5.499 L 96.872 6.234 L 99.11 6.238 C 102.136 6.238 104.587 8.631 104.587 11.655 C 104.587 14.68 102.136 17.079 99.11 17.079 L 91.726 17.064 L 91.726 14.885 L 99.094 14.885 C 100.891 14.885 102.348 13.429 102.348 11.632 C 102.348 9.836 100.891 8.398 99.094 8.398 L 97.185 8.391 C 95.8 8.391 94.676 7.267 94.676 5.882 C 94.676 4.497 95.8 3.374 97.185 3.374 L 104.338 3.374 L 104.333 5.499 L 104.333 5.499 Z" id="path35" style="fill-rule: evenodd; fill: rgb(255, 255, 255);"/>
    <path d="M 140.576 2.991 C 140.487 2.782 140.456 2.732 140.216 2.732 C 139.975 2.732 139.917 2.857 139.825 3.066 L 135.275 17.082 L 137.669 17.085 L 140.243 9.315 L 141.09 11.939 L 139.391 11.939 L 139.391 14.15 L 144.226 14.15 L 140.576 2.991 L 140.576 2.991 Z" id="path37" style="fill-rule: evenodd; fill: rgb(255, 255, 255);"/>
    <path d="M 124.425 17.084 C 121.97 17.084 119.978 15.093 119.978 12.639 L 119.978 4.858 C 119.978 2.403 121.97 0.413 124.425 0.413 L 132.229 0.413 L 132.229 2.635 L 124.613 2.635 C 123.322 2.635 122.179 3.826 122.179 5.115 L 122.179 12.385 C 122.179 13.674 123.321 14.895 124.613 14.895 L 130.008 14.895 L 130.008 8.359 L 125.813 8.359 L 125.813 6.177 L 132.238 6.177 L 132.238 16.572 L 136.815 2.409 C 137.307 1.006 138.643 0 140.216 0 C 141.82 0 143.182 1.05 143.645 2.502 L 148.398 17.085 L 139.391 17.085 L 139.391 14.894 L 145.242 14.894 L 141.275 2.731 C 141.043 2.062 140.629 1.983 140.216 1.983 C 139.784 1.983 139.385 2.16 139.16 2.771 L 134.503 17.085 L 124.425 17.085 L 124.425 17.084 Z" id="path39" style="fill-rule: evenodd; fill: rgb(255, 255, 255);"/>
  </g>
</svg>