<?xml version="1.0" encoding="UTF-8" standalone="no"?><!-- Generator: Gravit.io --><svg xmlns="http://www.w3.org/2000/svg" xmlns:xlink="http://www.w3.org/1999/xlink" style="isolation:isolate" viewBox="0 0 306.2 98.684" width="306.2pt" height="98.684pt"><defs><clipPath id="_clipPath_fe9ALpEkVrtP3Nw5nEj6myiOY5GTGy4j"><rect width="306.2" height="98.684"/></clipPath></defs><g clip-path="url(#_clipPath_fe9ALpEkVrtP3Nw5nEj6myiOY5GTGy4j)"><g><path d=" M 21.009 79.879 L 55.92 79.844 C 70.203 79.844 81.779 68.304 81.779 54.084 C 81.779 39.838 70.203 28.297 55.92 28.297 L 46.852 28.346 C 46.138 28.346 45.559 27.761 45.559 27.039 C 45.559 26.318 46.138 25.732 46.852 25.732 L 81.701 25.738 L 81.715 14.806 L 46.846 14.806 C 40.103 14.806 34.619 20.282 34.619 27.012 C 34.619 33.746 40.103 39.201 46.846 39.201 L 55.955 39.321 C 64.138 39.321 70.761 45.921 70.761 54.064 C 70.761 62.213 64.14 68.827 55.955 68.827 L 21.022 68.827 L 21.009 79.879 Z " fill="rgb(255,255,255)"/><path d=" M 21.022 66.26 L 55.955 66.26 C 62.718 66.26 68.188 60.806 68.188 54.063 C 68.188 47.328 62.718 41.879 55.955 41.879 L 46.846 41.781 C 38.675 41.781 32.047 35.173 32.047 27.01 C 32.047 18.87 38.675 12.261 46.846 12.261 L 81.715 12.254 L 81.701 1.279 L 46.852 1.279 C 32.584 1.279 20.994 12.806 20.994 27.039 C 20.994 41.273 32.584 52.805 46.852 52.805 L 55.87 52.82 C 56.556 52.82 57.136 53.379 57.136 54.084 C 57.136 54.778 56.556 55.335 55.87 55.335 L 21.009 55.364 L 21.022 66.26 Z " fill="rgb(255,255,255)"/><path d=" M 108.846 68.897 C 102.789 68.897 97.827 64.07 97.827 57.907 L 97.827 23.031 C 97.827 17.102 102.789 12.225 108.846 12.225 L 146.11 12.232 L 146.11 1.279 L 108.846 1.279 C 96.718 1.279 86.895 11.067 86.895 23.152 L 86.895 57.907 C 86.895 69.994 96.718 79.796 108.846 79.796 L 145.954 79.811 L 145.948 68.884 L 108.846 68.897 Z " fill="rgb(255,255,255)"/><path d=" M 100.499 23.152 C 100.499 18.531 104.217 14.784 108.846 14.784 L 146.11 14.784 L 146.11 25.753 L 114.005 25.753 C 111.432 25.753 111.397 28.304 111.397 28.304 L 138.181 28.304 L 138.181 39.222 L 100.486 39.222 L 100.499 23.152 Z " fill="rgb(255,255,255)"/><path d=" M 108.846 66.241 C 104.23 66.241 100.485 62.517 100.485 57.907 L 100.485 41.822 L 138.181 41.822 L 138.181 52.763 L 111.395 52.763 C 111.431 55.335 114.003 55.348 114.003 55.348 L 145.953 55.348 L 145.946 66.226 L 108.846 66.241 Z " fill="rgb(255,255,255)"/><path d=" M 172.224 68.869 C 166.189 68.869 161.256 63.951 161.256 57.907 L 161.256 23.15 C 161.256 17.101 166.153 12.225 172.196 12.225 L 208.289 12.225 L 208.289 1.279 L 172.111 1.279 C 159.991 1.279 150.167 11.067 150.167 23.152 L 150.167 57.907 C 150.167 69.994 160.075 79.796 172.196 79.796 L 208.289 79.811 L 208.289 28.304 L 177.27 28.304 L 177.27 39.222 L 197.326 39.222 L 197.326 68.869 L 172.224 68.869 Z " fill="rgb(255,255,255)"/><path d=" M 163.828 57.907 C 163.828 62.538 167.574 66.304 172.196 66.304 L 194.74 66.304 L 194.74 41.809 L 177.298 41.809 L 177.298 52.763 L 183.771 52.763 L 183.791 55.335 L 177.347 55.335 C 175.94 55.335 174.789 54.17 174.789 52.763 L 174.731 28.297 C 174.731 28.297 174.723 25.753 177.318 25.689 L 208.3 25.689 L 208.286 14.777 L 172.193 14.784 C 167.572 14.784 163.826 18.531 163.826 23.152 L 163.826 57.907" fill="rgb(255,255,255)"/><path d=" M 242.203 14.621 C 242.689 13.23 244.011 12.226 245.573 12.226 C 247.137 12.226 248.471 13.23 248.944 14.621 L 266.465 66.381 L 240.81 66.381 L 240.838 54.204 L 249.412 54.204 L 245.552 42.735 L 232.979 79.801 L 220.047 79.801 L 242.203 14.621 Z " fill="rgb(255,255,255)"/><path d=" M 269.998 68.869 L 240.853 68.869 L 240.853 79.801 L 285.206 79.801 L 262.139 11.554 C 260.118 4.897 253.454 0 245.566 0 C 237.665 0 231.023 4.876 228.986 11.528 L 205.707 79.803 L 217.319 79.803 L 239.92 13.435 C 240.838 11.237 243.002 9.689 245.546 9.689 C 248.076 9.689 250.252 11.237 251.178 13.421 L 269.998 68.869 Z " fill="rgb(255,255,255)"/><path d=" M 156.556 98.684 L 156.556 98.684 Q 155.073 98.684 153.864 97.979 L 153.864 97.979 L 153.864 97.979 Q 152.655 97.275 151.95 96.051 L 151.95 96.051 L 151.95 96.051 Q 151.246 94.827 151.246 93.344 L 151.246 93.344 L 151.246 93.344 Q 151.246 91.831 151.928 90.615 L 151.928 90.615 L 151.928 90.615 Q 152.611 89.399 153.797 88.709 L 153.797 88.709 L 153.797 88.709 Q 154.984 88.019 156.467 88.019 L 156.467 88.019 L 156.467 88.019 Q 157.268 88.019 158.039 88.212 L 158.039 88.212 L 158.039 88.212 Q 158.811 88.405 159.359 88.761 L 159.359 88.761 L 158.959 91.06 L 158.959 91.06 Q 157.891 90.659 157.031 90.659 L 157.031 90.659 L 157.031 90.659 Q 155.844 90.659 155.206 91.349 L 155.206 91.349 L 155.206 91.349 Q 154.568 92.039 154.568 93.329 L 154.568 93.329 L 154.568 93.329 Q 154.568 94.59 155.243 95.295 L 155.243 95.295 L 155.243 95.295 Q 155.918 95.999 157.12 95.999 L 157.12 95.999 L 157.12 95.999 Q 157.579 95.999 157.98 95.91 L 157.98 95.91 L 157.98 95.91 Q 158.38 95.821 158.959 95.584 L 158.959 95.584 L 159.374 97.927 L 159.374 97.927 Q 158.084 98.684 156.556 98.684 L 156.556 98.684 Z  M 168.696 98.446 L 168.696 88.242 L 171.9 88.242 L 171.9 96.192 L 175.445 96.192 L 175.445 98.446 L 168.696 98.446 Z  M 183.773 98.446 L 186.591 88.242 L 191.1 88.242 L 194.052 98.446 L 190.566 98.446 L 190.18 96.489 L 187.54 96.489 L 187.11 98.446 L 183.773 98.446 Z  M 187.852 94.664 L 189.825 94.664 L 188.86 90.2 L 187.852 94.664 Z  M 206.177 98.684 L 206.177 98.684 Q 204.086 98.684 202.647 97.912 L 202.647 97.912 L 203.388 95.613 L 203.388 95.613 Q 204.916 96.162 206.118 96.162 L 206.118 96.162 L 206.118 96.162 Q 206.77 96.162 207.074 96.006 L 207.074 96.006 L 207.074 96.006 Q 207.378 95.851 207.378 95.539 L 207.378 95.539 L 207.378 95.539 Q 207.378 95.332 207.215 95.176 L 207.215 95.176 L 207.215 95.176 Q 207.052 95.02 206.563 94.827 L 206.563 94.827 L 206.563 94.827 Q 206.073 94.634 205.094 94.353 L 205.094 94.353 L 205.094 94.353 Q 203.893 93.997 203.225 93.188 L 203.225 93.188 L 203.225 93.188 Q 202.558 92.38 202.558 91.327 L 202.558 91.327 L 202.558 91.327 Q 202.558 89.695 203.633 88.857 L 203.633 88.857 L 203.633 88.857 Q 204.708 88.019 206.533 88.019 L 206.533 88.019 L 206.533 88.019 Q 207.482 88.019 208.402 88.219 L 208.402 88.219 L 208.402 88.219 Q 209.321 88.42 210.033 88.805 L 210.033 88.805 L 209.232 91.045 L 209.232 91.045 Q 208.402 90.763 207.786 90.637 L 207.786 90.637 L 207.786 90.637 Q 207.171 90.511 206.592 90.511 L 206.592 90.511 L 206.592 90.511 Q 205.613 90.511 205.613 91.045 L 205.613 91.045 L 205.613 91.045 Q 205.613 91.312 205.932 91.497 L 205.932 91.497 L 205.932 91.497 Q 206.251 91.683 207.245 91.965 L 207.245 91.965 L 207.245 91.965 Q 208.802 92.38 209.603 93.233 L 209.603 93.233 L 209.603 93.233 Q 210.404 94.086 210.404 95.272 L 210.404 95.272 L 210.404 95.272 Q 210.404 96.919 209.336 97.801 L 209.336 97.801 L 209.336 97.801 Q 208.268 98.684 206.177 98.684 L 206.177 98.684 Z  M 222.871 98.684 L 222.871 98.684 Q 220.779 98.684 219.34 97.912 L 219.34 97.912 L 220.082 95.613 L 220.082 95.613 Q 221.61 96.162 222.811 96.162 L 222.811 96.162 L 222.811 96.162 Q 223.464 96.162 223.768 96.006 L 223.768 96.006 L 223.768 96.006 Q 224.072 95.851 224.072 95.539 L 224.072 95.539 L 224.072 95.539 Q 224.072 95.332 223.909 95.176 L 223.909 95.176 L 223.909 95.176 Q 223.746 95.02 223.256 94.827 L 223.256 94.827 L 223.256 94.827 Q 222.767 94.634 221.788 94.353 L 221.788 94.353 L 221.788 94.353 Q 220.586 93.997 219.919 93.188 L 219.919 93.188 L 219.919 93.188 Q 219.251 92.38 219.251 91.327 L 219.251 91.327 L 219.251 91.327 Q 219.251 89.695 220.327 88.857 L 220.327 88.857 L 220.327 88.857 Q 221.402 88.019 223.226 88.019 L 223.226 88.019 L 223.226 88.019 Q 224.176 88.019 225.095 88.219 L 225.095 88.219 L 225.095 88.219 Q 226.015 88.42 226.727 88.805 L 226.727 88.805 L 225.926 91.045 L 225.926 91.045 Q 225.095 90.763 224.48 90.637 L 224.48 90.637 L 224.48 90.637 Q 223.864 90.511 223.286 90.511 L 223.286 90.511 L 223.286 90.511 Q 222.307 90.511 222.307 91.045 L 222.307 91.045 L 222.307 91.045 Q 222.307 91.312 222.626 91.497 L 222.626 91.497 L 222.626 91.497 Q 222.945 91.683 223.938 91.965 L 223.938 91.965 L 223.938 91.965 Q 225.496 92.38 226.297 93.233 L 226.297 93.233 L 226.297 93.233 Q 227.098 94.086 227.098 95.272 L 227.098 95.272 L 227.098 95.272 Q 227.098 96.919 226.03 97.801 L 226.03 97.801 L 226.03 97.801 Q 224.962 98.684 222.871 98.684 L 222.871 98.684 Z  M 236.479 98.446 L 236.479 88.242 L 239.905 88.242 L 239.905 98.446 L 236.479 98.446 Z  M 254.626 98.684 L 254.626 98.684 Q 253.143 98.684 251.934 97.979 L 251.934 97.979 L 251.934 97.979 Q 250.725 97.275 250.021 96.051 L 250.021 96.051 L 250.021 96.051 Q 249.316 94.827 249.316 93.344 L 249.316 93.344 L 249.316 93.344 Q 249.316 91.831 249.998 90.615 L 249.998 90.615 L 249.998 90.615 Q 250.681 89.399 251.867 88.709 L 251.867 88.709 L 251.867 88.709 Q 253.054 88.019 254.537 88.019 L 254.537 88.019 L 254.537 88.019 Q 255.338 88.019 256.109 88.212 L 256.109 88.212 L 256.109 88.212 Q 256.881 88.405 257.429 88.761 L 257.429 88.761 L 257.029 91.06 L 257.029 91.06 Q 255.961 90.659 255.101 90.659 L 255.101 90.659 L 255.101 90.659 Q 253.914 90.659 253.276 91.349 L 253.276 91.349 L 253.276 91.349 Q 252.638 92.039 252.638 93.329 L 252.638 93.329 L 252.638 93.329 Q 252.638 94.59 253.313 95.295 L 253.313 95.295 L 253.313 95.295 Q 253.988 95.999 255.19 95.999 L 255.19 95.999 L 255.19 95.999 Q 255.65 95.999 256.05 95.91 L 256.05 95.91 L 256.05 95.91 Q 256.45 95.821 257.029 95.584 L 257.029 95.584 L 257.444 97.927 L 257.444 97.927 Q 256.154 98.684 254.626 98.684 L 254.626 98.684 Z  M 269.925 98.684 L 269.925 98.684 Q 267.834 98.684 266.395 97.912 L 266.395 97.912 L 267.137 95.613 L 267.137 95.613 Q 268.665 96.162 269.866 96.162 L 269.866 96.162 L 269.866 96.162 Q 270.519 96.162 270.823 96.006 L 270.823 96.006 L 270.823 96.006 Q 271.127 95.851 271.127 95.539 L 271.127 95.539 L 271.127 95.539 Q 271.127 95.332 270.964 95.176 L 270.964 95.176 L 270.964 95.176 Q 270.801 95.02 270.311 94.827 L 270.311 94.827 L 270.311 94.827 Q 269.822 94.634 268.843 94.353 L 268.843 94.353 L 268.843 94.353 Q 267.641 93.997 266.974 93.188 L 266.974 93.188 L 266.974 93.188 Q 266.306 92.38 266.306 91.327 L 266.306 91.327 L 266.306 91.327 Q 266.306 89.695 267.382 88.857 L 267.382 88.857 L 267.382 88.857 Q 268.457 88.019 270.281 88.019 L 270.281 88.019 L 270.281 88.019 Q 271.231 88.019 272.15 88.219 L 272.15 88.219 L 272.15 88.219 Q 273.07 88.42 273.782 88.805 L 273.782 88.805 L 272.981 91.045 L 272.981 91.045 Q 272.15 90.763 271.535 90.637 L 271.535 90.637 L 271.535 90.637 Q 270.919 90.511 270.341 90.511 L 270.341 90.511 L 270.341 90.511 Q 269.362 90.511 269.362 91.045 L 269.362 91.045 L 269.362 91.045 Q 269.362 91.312 269.681 91.497 L 269.681 91.497 L 269.681 91.497 Q 270 91.683 270.993 91.965 L 270.993 91.965 L 270.993 91.965 Q 272.551 92.38 273.352 93.233 L 273.352 93.233 L 273.352 93.233 Q 274.153 94.086 274.153 95.272 L 274.153 95.272 L 274.153 95.272 Q 274.153 96.919 273.085 97.801 L 273.085 97.801 L 273.085 97.801 Q 272.017 98.684 269.925 98.684 L 269.925 98.684 Z  M 32.047 98.446 L 34.866 88.242 L 39.375 88.242 L 42.326 98.446 L 38.841 98.446 L 38.455 96.489 L 35.815 96.489 L 35.385 98.446 L 32.047 98.446 Z  M 36.126 94.664 L 38.099 94.664 L 37.135 90.2 L 36.126 94.664 Z  M 59.02 98.684 L 59.02 98.684 Q 56.231 98.684 55.608 96.103 L 55.608 96.103 L 55.238 94.575 L 54.54 94.575 L 54.54 98.446 L 51.292 98.446 L 51.292 88.242 L 55.786 88.242 L 55.786 88.242 Q 57.062 88.242 58.034 88.62 L 58.034 88.62 L 58.034 88.62 Q 59.005 88.998 59.539 89.68 L 59.539 89.68 L 59.539 89.68 Q 60.073 90.363 60.073 91.253 L 60.073 91.253 L 60.073 91.253 Q 60.073 92.246 59.591 92.921 L 59.591 92.921 L 59.591 92.921 Q 59.109 93.596 58.1 94.026 L 58.1 94.026 L 58.1 94.026 Q 58.204 94.59 58.338 95.05 L 58.338 95.05 L 58.338 95.05 Q 58.516 95.613 58.827 95.836 L 58.827 95.836 L 58.827 95.836 Q 59.139 96.058 59.732 96.058 L 59.732 96.058 L 59.732 96.058 Q 59.94 96.058 60.385 95.999 L 60.385 95.999 L 60.385 98.417 L 60.385 98.417 Q 59.687 98.684 59.02 98.684 L 59.02 98.684 Z  M 54.54 92.499 L 55.104 92.499 L 55.104 92.499 Q 56.202 92.499 56.654 92.254 L 56.654 92.254 L 56.654 92.254 Q 57.107 92.009 57.107 91.416 L 57.107 91.416 L 57.107 91.416 Q 57.107 90.911 56.736 90.682 L 56.736 90.682 L 56.736 90.682 Q 56.365 90.452 55.564 90.452 L 55.564 90.452 L 54.54 90.452 L 54.54 92.499 Z  M 74.364 98.684 L 74.364 98.684 Q 72.88 98.684 71.672 97.979 L 71.672 97.979 L 71.672 97.979 Q 70.463 97.275 69.758 96.051 L 69.758 96.051 L 69.758 96.051 Q 69.054 94.827 69.054 93.344 L 69.054 93.344 L 69.054 93.344 Q 69.054 91.831 69.736 90.615 L 69.736 90.615 L 69.736 90.615 Q 70.418 89.399 71.605 88.709 L 71.605 88.709 L 71.605 88.709 Q 72.791 88.019 74.275 88.019 L 74.275 88.019 L 74.275 88.019 Q 75.076 88.019 75.847 88.212 L 75.847 88.212 L 75.847 88.212 Q 76.618 88.405 77.167 88.761 L 77.167 88.761 L 76.767 91.06 L 76.767 91.06 Q 75.699 90.659 74.838 90.659 L 74.838 90.659 L 74.838 90.659 Q 73.652 90.659 73.014 91.349 L 73.014 91.349 L 73.014 91.349 Q 72.376 92.039 72.376 93.329 L 72.376 93.329 L 72.376 93.329 Q 72.376 94.59 73.051 95.295 L 73.051 95.295 L 73.051 95.295 Q 73.726 95.999 74.927 95.999 L 74.927 95.999 L 74.927 95.999 Q 75.387 95.999 75.788 95.91 L 75.788 95.91 L 75.788 95.91 Q 76.188 95.821 76.767 95.584 L 76.767 95.584 L 77.182 97.927 L 77.182 97.927 Q 75.891 98.684 74.364 98.684 L 74.364 98.684 Z  M 85.614 98.446 L 88.432 88.242 L 92.941 88.242 L 95.893 98.446 L 92.407 98.446 L 92.021 96.489 L 89.381 96.489 L 88.951 98.446 L 85.614 98.446 Z  M 89.693 94.664 L 91.665 94.664 L 90.701 90.2 L 89.693 94.664 Z  M 104.859 98.446 L 104.859 88.242 L 109.293 88.242 L 109.293 88.242 Q 110.895 88.242 112.134 88.879 L 112.134 88.879 L 112.134 88.879 Q 113.372 89.517 114.062 90.659 L 114.062 90.659 L 114.062 90.659 Q 114.752 91.801 114.752 93.27 L 114.752 93.27 L 114.752 93.27 Q 114.752 94.812 114.077 95.984 L 114.077 95.984 L 114.077 95.984 Q 113.402 97.156 112.164 97.801 L 112.164 97.801 L 112.164 97.801 Q 110.925 98.446 109.293 98.446 L 109.293 98.446 L 104.859 98.446 Z  M 108.137 95.777 L 109.145 95.777 L 109.145 95.777 Q 110.258 95.777 110.843 95.072 L 110.843 95.072 L 110.843 95.072 Q 111.429 94.367 111.429 93.24 L 111.429 93.24 L 111.429 93.24 Q 111.429 92.172 110.858 91.542 L 110.858 91.542 L 110.858 91.542 Q 110.287 90.911 109.145 90.911 L 109.145 90.911 L 108.137 90.911 L 108.137 95.777 Z  M 124.177 98.446 L 124.177 88.242 L 131.342 88.242 L 131.342 90.496 L 127.782 90.496 L 127.782 92.35 L 131.03 92.35 L 131.03 94.219 L 127.782 94.219 L 127.782 96.192 L 131.342 96.192 L 131.342 98.446 L 124.177 98.446 Z " fill="rgb(255,255,255)"/></g></g></svg>