<?xml version="1.0" encoding="UTF-8" standalone="no"?><!-- Generator: Gravit.io --><svg xmlns="http://www.w3.org/2000/svg" xmlns:xlink="http://www.w3.org/1999/xlink" style="isolation:isolate" viewBox="0 0 338 85.7" width="338pt" height="85.7pt"><defs><clipPath id="_clipPath_1ZMSbjUNCJX0MQ6oOf0I0oMrU0UaVMIa"><rect width="338" height="85.7"/></clipPath></defs><g clip-path="url(#_clipPath_1ZMSbjUNCJX0MQ6oOf0I0oMrU0UaVMIa)"><g><path d=" M 37.172 19.644 C 37.172 30.501 44.409 39.29 53.371 39.29 L 98.346 39.29 C 99.381 39.29 100.414 40.323 100.414 41.701 C 100.414 43.08 99.552 44.114 98.346 44.114 L 37 44.114 L 37 61.519 L 105.583 61.519 C 114.545 61.519 121.781 52.558 121.781 41.703 C 121.781 30.846 114.545 21.886 105.583 21.886 L 60.78 21.886 C 59.746 21.886 58.713 20.851 58.713 19.473 C 58.713 18.095 59.573 17.06 60.78 17.06 L 121.609 17.06 L 121.609 0 L 53.373 0 C 44.413 0 37.176 8.789 37.176 19.644 L 37.172 19.644 Z " fill="rgb(255,255,255)"/><path d=" M 126.608 0 L 126.608 61.175 L 148.149 61.175 L 148.149 22.746 L 189.162 61.175 L 211.565 61.175 L 211.565 0 L 190.024 0 L 190.024 38.256 L 149.01 0 L 126.608 0 Z " fill="rgb(255,255,255)"/><path d=" M 238.102 26.883 L 238.102 0 L 216.216 0 L 216.216 61.175 L 238.102 61.175 L 238.102 34.121 L 272.91 61.175 L 301 61.175 L 261.366 30.674 L 301 0 L 272.91 0 L 238.102 26.883 Z " fill="rgb(255,255,255)"/><path d=" M 172.769 82.458 L 172.769 82.458 Q 171.151 82.458 169.833 81.69 L 169.833 81.69 L 169.833 81.69 Q 168.515 80.921 167.747 79.587 L 167.747 79.587 L 167.747 79.587 Q 166.978 78.253 166.978 76.635 L 166.978 76.635 L 166.978 76.635 Q 166.978 74.986 167.722 73.659 L 167.722 73.659 L 167.722 73.659 Q 168.466 72.333 169.76 71.581 L 169.76 71.581 L 169.76 71.581 Q 171.054 70.829 172.672 70.829 L 172.672 70.829 L 172.672 70.829 Q 173.545 70.829 174.386 71.039 L 174.386 71.039 L 174.386 71.039 Q 175.227 71.249 175.825 71.638 L 175.825 71.638 L 175.389 74.145 L 175.389 74.145 Q 174.224 73.708 173.286 73.708 L 173.286 73.708 L 173.286 73.708 Q 171.992 73.708 171.297 74.46 L 171.297 74.46 L 171.297 74.46 Q 170.601 75.212 170.601 76.619 L 170.601 76.619 L 170.601 76.619 Q 170.601 77.994 171.337 78.762 L 171.337 78.762 L 171.337 78.762 Q 172.073 79.531 173.383 79.531 L 173.383 79.531 L 173.383 79.531 Q 173.885 79.531 174.321 79.433 L 174.321 79.433 L 174.321 79.433 Q 174.758 79.336 175.389 79.078 L 175.389 79.078 L 175.842 81.633 L 175.842 81.633 Q 174.434 82.458 172.769 82.458 L 172.769 82.458 Z  M 186.006 82.199 L 186.006 71.071 L 189.5 71.071 L 189.5 79.741 L 193.366 79.741 L 193.366 82.199 L 186.006 82.199 Z  M 202.447 82.199 L 205.52 71.071 L 210.437 71.071 L 213.655 82.199 L 209.854 82.199 L 209.434 80.064 L 206.555 80.064 L 206.086 82.199 L 202.447 82.199 Z  M 206.895 78.075 L 209.046 78.075 L 207.994 73.206 L 206.895 78.075 Z  M 226.877 82.458 L 226.877 82.458 Q 224.596 82.458 223.028 81.617 L 223.028 81.617 L 223.836 79.11 L 223.836 79.11 Q 225.502 79.708 226.812 79.708 L 226.812 79.708 L 226.812 79.708 Q 227.524 79.708 227.855 79.539 L 227.855 79.539 L 227.855 79.539 Q 228.187 79.369 228.187 79.029 L 228.187 79.029 L 228.187 79.029 Q 228.187 78.803 228.009 78.633 L 228.009 78.633 L 228.009 78.633 Q 227.831 78.463 227.297 78.253 L 227.297 78.253 L 227.297 78.253 Q 226.764 78.043 225.696 77.735 L 225.696 77.735 L 225.696 77.735 Q 224.386 77.347 223.658 76.466 L 223.658 76.466 L 223.658 76.466 Q 222.93 75.584 222.93 74.436 L 222.93 74.436 L 222.93 74.436 Q 222.93 72.657 224.103 71.743 L 224.103 71.743 L 224.103 71.743 Q 225.276 70.829 227.265 70.829 L 227.265 70.829 L 227.265 70.829 Q 228.3 70.829 229.303 71.047 L 229.303 71.047 L 229.303 71.047 Q 230.306 71.266 231.082 71.686 L 231.082 71.686 L 230.209 74.128 L 230.209 74.128 Q 229.303 73.821 228.632 73.684 L 228.632 73.684 L 228.632 73.684 Q 227.961 73.546 227.33 73.546 L 227.33 73.546 L 227.33 73.546 Q 226.262 73.546 226.262 74.128 L 226.262 74.128 L 226.262 74.128 Q 226.262 74.42 226.61 74.622 L 226.61 74.622 L 226.61 74.622 Q 226.958 74.824 228.041 75.131 L 228.041 75.131 L 228.041 75.131 Q 229.74 75.584 230.613 76.514 L 230.613 76.514 L 230.613 76.514 Q 231.487 77.444 231.487 78.738 L 231.487 78.738 L 231.487 78.738 Q 231.487 80.533 230.322 81.496 L 230.322 81.496 L 230.322 81.496 Q 229.157 82.458 226.877 82.458 L 226.877 82.458 Z  M 245.08 82.458 L 245.08 82.458 Q 242.8 82.458 241.231 81.617 L 241.231 81.617 L 242.039 79.11 L 242.039 79.11 Q 243.705 79.708 245.015 79.708 L 245.015 79.708 L 245.015 79.708 Q 245.727 79.708 246.059 79.539 L 246.059 79.539 L 246.059 79.539 Q 246.39 79.369 246.39 79.029 L 246.39 79.029 L 246.39 79.029 Q 246.39 78.803 246.212 78.633 L 246.212 78.633 L 246.212 78.633 Q 246.034 78.463 245.501 78.253 L 245.501 78.253 L 245.501 78.253 Q 244.967 78.043 243.899 77.735 L 243.899 77.735 L 243.899 77.735 Q 242.589 77.347 241.862 76.466 L 241.862 76.466 L 241.862 76.466 Q 241.134 75.584 241.134 74.436 L 241.134 74.436 L 241.134 74.436 Q 241.134 72.657 242.306 71.743 L 242.306 71.743 L 242.306 71.743 Q 243.479 70.829 245.468 70.829 L 245.468 70.829 L 245.468 70.829 Q 246.504 70.829 247.506 71.047 L 247.506 71.047 L 247.506 71.047 Q 248.509 71.266 249.285 71.686 L 249.285 71.686 L 248.412 74.128 L 248.412 74.128 Q 247.506 73.821 246.835 73.684 L 246.835 73.684 L 246.835 73.684 Q 246.164 73.546 245.533 73.546 L 245.533 73.546 L 245.533 73.546 Q 244.466 73.546 244.466 74.128 L 244.466 74.128 L 244.466 74.128 Q 244.466 74.42 244.813 74.622 L 244.813 74.622 L 244.813 74.622 Q 245.161 74.824 246.245 75.131 L 246.245 75.131 L 246.245 75.131 Q 247.943 75.584 248.816 76.514 L 248.816 76.514 L 248.816 76.514 Q 249.69 77.444 249.69 78.738 L 249.69 78.738 L 249.69 78.738 Q 249.69 80.533 248.525 81.496 L 248.525 81.496 L 248.525 81.496 Q 247.361 82.458 245.08 82.458 L 245.08 82.458 Z  M 259.919 82.199 L 259.919 71.071 L 263.655 71.071 L 263.655 82.199 L 259.919 82.199 Z  M 279.708 82.458 L 279.708 82.458 Q 278.09 82.458 276.772 81.69 L 276.772 81.69 L 276.772 81.69 Q 275.454 80.921 274.686 79.587 L 274.686 79.587 L 274.686 79.587 Q 273.917 78.253 273.917 76.635 L 273.917 76.635 L 273.917 76.635 Q 273.917 74.986 274.661 73.659 L 274.661 73.659 L 274.661 73.659 Q 275.405 72.333 276.699 71.581 L 276.699 71.581 L 276.699 71.581 Q 277.993 70.829 279.611 70.829 L 279.611 70.829 L 279.611 70.829 Q 280.484 70.829 281.325 71.039 L 281.325 71.039 L 281.325 71.039 Q 282.166 71.249 282.764 71.638 L 282.764 71.638 L 282.328 74.145 L 282.328 74.145 Q 281.163 73.708 280.225 73.708 L 280.225 73.708 L 280.225 73.708 Q 278.931 73.708 278.236 74.46 L 278.236 74.46 L 278.236 74.46 Q 277.54 75.212 277.54 76.619 L 277.54 76.619 L 277.54 76.619 Q 277.54 77.994 278.276 78.762 L 278.276 78.762 L 278.276 78.762 Q 279.012 79.531 280.322 79.531 L 280.322 79.531 L 280.322 79.531 Q 280.824 79.531 281.26 79.433 L 281.26 79.433 L 281.26 79.433 Q 281.697 79.336 282.328 79.078 L 282.328 79.078 L 282.781 81.633 L 282.781 81.633 Q 281.373 82.458 279.708 82.458 L 279.708 82.458 Z  M 296.39 82.458 L 296.39 82.458 Q 294.11 82.458 292.541 81.617 L 292.541 81.617 L 293.35 79.11 L 293.35 79.11 Q 295.016 79.708 296.326 79.708 L 296.326 79.708 L 296.326 79.708 Q 297.037 79.708 297.369 79.539 L 297.369 79.539 L 297.369 79.539 Q 297.701 79.369 297.701 79.029 L 297.701 79.029 L 297.701 79.029 Q 297.701 78.803 297.523 78.633 L 297.523 78.633 L 297.523 78.633 Q 297.345 78.463 296.811 78.253 L 296.811 78.253 L 296.811 78.253 Q 296.277 78.043 295.21 77.735 L 295.21 77.735 L 295.21 77.735 Q 293.9 77.347 293.172 76.466 L 293.172 76.466 L 293.172 76.466 Q 292.444 75.584 292.444 74.436 L 292.444 74.436 L 292.444 74.436 Q 292.444 72.657 293.617 71.743 L 293.617 71.743 L 293.617 71.743 Q 294.789 70.829 296.779 70.829 L 296.779 70.829 L 296.779 70.829 Q 297.814 70.829 298.817 71.047 L 298.817 71.047 L 298.817 71.047 Q 299.819 71.266 300.596 71.686 L 300.596 71.686 L 299.722 74.128 L 299.722 74.128 Q 298.817 73.821 298.145 73.684 L 298.145 73.684 L 298.145 73.684 Q 297.474 73.546 296.843 73.546 L 296.843 73.546 L 296.843 73.546 Q 295.776 73.546 295.776 74.128 L 295.776 74.128 L 295.776 74.128 Q 295.776 74.42 296.124 74.622 L 296.124 74.622 L 296.124 74.622 Q 296.471 74.824 297.555 75.131 L 297.555 75.131 L 297.555 75.131 Q 299.253 75.584 300.127 76.514 L 300.127 76.514 L 300.127 76.514 Q 301 77.444 301 78.738 L 301 78.738 L 301 78.738 Q 301 80.533 299.836 81.496 L 299.836 81.496 L 299.836 81.496 Q 298.671 82.458 296.39 82.458 L 296.39 82.458 Z  M 37 82.199 L 40.073 71.071 L 44.99 71.071 L 48.209 82.199 L 44.408 82.199 L 43.987 80.064 L 41.108 80.064 L 40.639 82.199 L 37 82.199 Z  M 41.448 78.075 L 43.599 78.075 L 42.548 73.206 L 41.448 78.075 Z  M 66.412 82.458 L 66.412 82.458 Q 63.371 82.458 62.692 79.644 L 62.692 79.644 L 62.287 77.978 L 61.527 77.978 L 61.527 82.199 L 57.985 82.199 L 57.985 71.071 L 62.886 71.071 L 62.886 71.071 Q 64.277 71.071 65.336 71.484 L 65.336 71.484 L 65.336 71.484 Q 66.396 71.896 66.978 72.64 L 66.978 72.64 L 66.978 72.64 Q 67.56 73.384 67.56 74.355 L 67.56 74.355 L 67.56 74.355 Q 67.56 75.438 67.035 76.174 L 67.035 76.174 L 67.035 76.174 Q 66.509 76.91 65.409 77.379 L 65.409 77.379 L 65.409 77.379 Q 65.522 77.994 65.668 78.495 L 65.668 78.495 L 65.668 78.495 Q 65.862 79.11 66.202 79.353 L 66.202 79.353 L 66.202 79.353 Q 66.541 79.595 67.188 79.595 L 67.188 79.595 L 67.188 79.595 Q 67.415 79.595 67.9 79.531 L 67.9 79.531 L 67.9 82.167 L 67.9 82.167 Q 67.14 82.458 66.412 82.458 L 66.412 82.458 Z  M 61.527 75.713 L 62.142 75.713 L 62.142 75.713 Q 63.339 75.713 63.832 75.447 L 63.832 75.447 L 63.832 75.447 Q 64.325 75.18 64.325 74.533 L 64.325 74.533 L 64.325 74.533 Q 64.325 73.983 63.921 73.732 L 63.921 73.732 L 63.921 73.732 Q 63.517 73.481 62.643 73.481 L 62.643 73.481 L 61.527 73.481 L 61.527 75.713 Z  M 83.143 82.458 L 83.143 82.458 Q 81.526 82.458 80.208 81.69 L 80.208 81.69 L 80.208 81.69 Q 78.889 80.921 78.121 79.587 L 78.121 79.587 L 78.121 79.587 Q 77.353 78.253 77.353 76.635 L 77.353 76.635 L 77.353 76.635 Q 77.353 74.986 78.097 73.659 L 78.097 73.659 L 78.097 73.659 Q 78.841 72.333 80.135 71.581 L 80.135 71.581 L 80.135 71.581 Q 81.429 70.829 83.046 70.829 L 83.046 70.829 L 83.046 70.829 Q 83.92 70.829 84.761 71.039 L 84.761 71.039 L 84.761 71.039 Q 85.602 71.249 86.2 71.638 L 86.2 71.638 L 85.763 74.145 L 85.763 74.145 Q 84.599 73.708 83.661 73.708 L 83.661 73.708 L 83.661 73.708 Q 82.367 73.708 81.671 74.46 L 81.671 74.46 L 81.671 74.46 Q 80.976 75.212 80.976 76.619 L 80.976 76.619 L 80.976 76.619 Q 80.976 77.994 81.712 78.762 L 81.712 78.762 L 81.712 78.762 Q 82.448 79.531 83.758 79.531 L 83.758 79.531 L 83.758 79.531 Q 84.259 79.531 84.696 79.433 L 84.696 79.433 L 84.696 79.433 Q 85.133 79.336 85.763 79.078 L 85.763 79.078 L 86.216 81.633 L 86.216 81.633 Q 84.809 82.458 83.143 82.458 L 83.143 82.458 Z  M 95.411 82.199 L 98.484 71.071 L 103.401 71.071 L 106.619 82.199 L 102.818 82.199 L 102.398 80.064 L 99.519 80.064 L 99.05 82.199 L 95.411 82.199 Z  M 99.858 78.075 L 102.01 78.075 L 100.958 73.206 L 99.858 78.075 Z  M 116.396 82.199 L 116.396 71.071 L 121.232 71.071 L 121.232 71.071 Q 122.979 71.071 124.329 71.767 L 124.329 71.767 L 124.329 71.767 Q 125.68 72.462 126.432 73.708 L 126.432 73.708 L 126.432 73.708 Q 127.184 74.953 127.184 76.554 L 127.184 76.554 L 127.184 76.554 Q 127.184 78.237 126.448 79.514 L 126.448 79.514 L 126.448 79.514 Q 125.712 80.792 124.362 81.496 L 124.362 81.496 L 124.362 81.496 Q 123.011 82.199 121.232 82.199 L 121.232 82.199 L 116.396 82.199 Z  M 119.97 79.288 L 121.07 79.288 L 121.07 79.288 Q 122.283 79.288 122.922 78.52 L 122.922 78.52 L 122.922 78.52 Q 123.561 77.751 123.561 76.522 L 123.561 76.522 L 123.561 76.522 Q 123.561 75.358 122.938 74.67 L 122.938 74.67 L 122.938 74.67 Q 122.316 73.983 121.07 73.983 L 121.07 73.983 L 119.97 73.983 L 119.97 79.288 Z  M 137.462 82.199 L 137.462 71.071 L 145.274 71.071 L 145.274 73.53 L 141.392 73.53 L 141.392 75.552 L 144.934 75.552 L 144.934 77.59 L 141.392 77.59 L 141.392 79.741 L 145.274 79.741 L 145.274 82.199 L 137.462 82.199 Z " fill="rgb(255,255,255)"/></g></g></svg>