<?xml version="1.0" encoding="utf-8"?>
<svg viewBox="0 0 282.731 50.071" xmlns="http://www.w3.org/2000/svg">
  <path d="M251.383 46.161H32.002l3.232 3.877 212.61.033 3.539-3.91z" style="fill: rgb(255, 255, 255);"/>
  <path d="M256.491 40.037l-114.837.022L26.9 40.037l3.749 4.497L141.6 44.51l111.144.024 3.749-4.497h-.002z" style="fill: rgb(255, 255, 255);"/>
  <path d="M261.565 33.952H21.821l3.717 4.458 116.113-.018 116.196.018 3.718-4.458z" style="fill: rgb(255, 255, 255);"/>
  <path d="M 35.656 22.216 C 35.656 22.216 32.327 16.661 32.309 16.678 C 29.661 12.788 26.981 11.078 22.465 11.078 L 11.884 11.078 L 8.186 6.118 L 25.412 6.118 L 22.445 0.534 C 22.445 0.534 9.978 0.334 4.011 0.534 C 0.528 0.55 -0.725 3.934 0.403 6.073 C 0.358 6.116 5.629 13.286 5.629 13.286 C 7.939 15.814 9.56 16.521 14.946 16.665 L 25.225 16.66 L 28.829 22.243 L 12.066 22.243 L 17.677 28.973 C 17.677 28.973 32.138 28.973 32.19 28.911 C 36.493 28.899 36.61 23.791 35.659 22.216 L 35.656 22.216 Z M 26.325 0.534 L 42.485 28.911 L 49.023 28.911 L 42.484 16.66 C 42.484 16.66 47.959 16.74 50.709 16.559 C 55.472 16.659 57.215 15.276 55.823 11.112 L 53.593 6.11 C 51.503 1.939 50.599 0.835 44.315 0.533 L 26.325 0.533 Z M 36.961 6.117 L 46.311 6.117 L 48.508 11.079 L 39.243 11.079 L 36.961 6.117 Z M 84.153 28.912 L 82.156 22.297 C 82.156 22.297 74.344 22.174 70.406 22.244 C 69.824 20.886 68.165 16.661 68.165 16.661 L 79.924 16.661 L 78.39 11.134 L 66.187 11.134 L 63.932 6.116 L 76.559 6.116 L 75.044 0.483 L 61.255 0.533 C 57.834 0.533 55.84 4.028 56.483 6.153 L 63.53 22.327 C 65.735 26.531 67.824 28.267 71.847 28.765 C 76.352 29.314 84.153 28.912 84.153 28.912 Z M 93.267 0.534 C 93.267 0.534 87.821 0.46 84.272 0.606 C 80.825 0.666 78.496 3.235 79.048 6.158 C 79.035 6.116 83.701 22.243 83.687 22.173 C 85.148 25.743 88.128 28.911 92.26 28.86 L 99.598 28.91 L 98.355 22.243 L 90.587 22.243 L 85.844 6.116 L 94.35 6.116 L 93.267 0.534 Z M 95.766 6.116 L 101.122 6.116 L 105.689 28.911 L 111.164 28.911 L 107.457 6.116 L 111.638 6.116 L 110.929 0.565 L 94.682 0.534 L 95.766 6.116 Z M 132.628 16.66 C 135.17 16.66 138.149 13.71 138.108 11.353 C 137.98 9.623 137.991 7.772 137.799 6.103 C 137.249 2.52 133.445 0.597 130.589 0.533 C 124.747 0.66 112.996 0.533 112.996 0.533 L 116.694 28.911 L 122.805 28.911 L 120.439 6.117 L 131.04 6.117 L 131.097 11.079 L 128.419 11.079 C 124.617 11.079 124.281 13.898 125.935 16.609 C 128.795 21.043 134.905 28.969 134.905 28.969 L 142.423 28.973 C 142.424 28.973 136.845 22.243 132.628 16.661 Z" style="fill: rgb(255, 255, 255);"/>
  <path d="M 142.494 0.009 L 141.264 28.919 L 147.502 28.976 L 147.48 22.243 L 156.05 22.243 L 155.751 28.986 L 161.431 28.976 C 161.431 28.976 163.558 18.103 163.517 11.141 C 163.684 5 159.188 0.533 152.918 0.078 C 149.472 -0.036 142.494 0.008 142.494 0.008 Z M 156.76 11.079 L 156.865 16.067 L 148.138 16.015 L 147.958 6.118 C 154.189 6.116 156.567 7.472 156.76 11.078 Z M 174.658 28.428 C 178.193 27.602 180.41 24.864 182.793 19.838 C 188.819 7.138 191.846 0.534 191.846 0.534 L 185.085 0.534 L 175.67 20.423 C 174.816 21.833 173.322 22.363 171.756 22.243 C 172.962 14.638 175.647 0.533 175.647 0.533 L 168.963 0.533 C 168.963 0.533 164.486 27.517 164.486 28.973 C 164.486 29.013 171.804 29.096 174.658 28.429 Z M 201.626 0.534 L 193.932 0.564 L 185.724 28.973 L 192.97 28.933 L 201.626 0.533 Z M 205.561 0.565 L 196.569 28.973 L 211.662 28.973 C 216.128 28.973 221.491 22.147 221.491 22.147 L 229.268 5.987 C 231.035 1.983 228.242 0.534 223.898 0.612 C 217.644 0.532 205.559 0.565 205.559 0.565 L 205.561 0.565 Z M 221.309 6.115 L 215.027 22.243 C 215.027 22.243 209.122 22.179 206.168 22.243 L 211.226 6.116 L 221.309 6.116 Z M 244.187 22.243 L 231.888 22.243 L 234.579 16.66 L 247.846 16.66 L 250.538 11.077 L 237.454 11.077 L 240.076 6.115 L 254.122 6.127 L 256.963 0.533 C 256.963 0.533 247.033 0.327 241.308 0.708 C 236.752 1.13 233.586 3.566 232.472 6.168 L 224.97 22.288 C 222.89 26.588 225.639 28.775 228.038 28.848 C 232.457 28.988 240.858 28.933 240.858 28.933 L 244.187 22.243 Z M 266.987 0.674 C 262.138 0.9 259.5 2.79 257.058 6.029 C 253.833 10.319 246.984 22.328 246.984 22.328 C 244.13 27.841 248.18 28.738 251.384 28.878 C 251.539 28.973 259.337 28.973 259.446 28.906 C 263.053 28.828 263.811 28.542 265.535 27.526 C 266.433 26.996 268.353 24.923 270.601 22.222 L 282.286 6.144 C 283.892 3.944 280.854 0.534 277.8 0.627 C 277.801 0.627 267.158 0.534 266.987 0.674 Z M 264.604 6.116 L 275.204 6.116 L 263.794 22.243 L 254.045 22.243 L 264.604 6.116 Z" style="fill: rgb(255, 255, 255);"/>
</svg>