<?xml version="1.0" encoding="UTF-8" ?>
<!DOCTYPE svg PUBLIC "-//W3C//DTD SVG 1.1//EN" "http://www.w3.org/Graphics/SVG/1.1/DTD/svg11.dtd">
<svg width="639pt" height="224pt" viewBox="0 0 639 224" version="1.1" xmlns="http://www.w3.org/2000/svg">
<path fill="#ffffff" stroke="#ffffff" stroke-width="0.09375" opacity="1.00" d=" M 354.3 0.0 L 356.0 0.0 C 358.0 5.1 360.2 10.1 361.8 15.3 C 362.4 17.3 363.0 19.4 362.7 21.6 C 361.2 23.8 358.9 25.2 356.7 26.8 C 350.6 30.8 344.3 35.0 340.0 41.1 C 338.1 43.9 336.6 47.6 337.8 51.0 C 338.7 53.3 341.3 54.1 343.4 54.6 C 351.3 56.1 359.5 55.0 367.3 56.8 C 371.1 57.7 374.8 59.7 377.0 63.0 C 379.0 65.9 379.4 69.5 379.4 73.0 C 379.4 81.4 377.3 90.2 371.9 96.9 C 366.1 104.5 357.7 109.5 349.0 113.1 C 343.0 105.8 337.7 97.8 332.8 89.7 C 343.3 89.7 354.3 87.3 362.6 80.6 C 365.9 78.0 366.8 73.7 367.9 69.8 C 363.0 68.6 358.0 67.9 353.0 67.8 C 346.4 67.6 339.6 67.4 333.7 64.3 C 329.3 62.0 325.9 57.7 325.1 52.8 C 323.9 45.7 326.1 38.6 329.2 32.3 C 335.2 19.9 343.9 8.9 354.3 0.0 Z" />
<path fill="#ffffff" stroke="#ffffff" stroke-width="0.09375" opacity="1.00" d=" M 505.7 13.8 C 512.4 10.8 519.0 7.7 526.0 5.6 C 528.3 11.3 530.0 17.3 530.2 23.5 C 521.4 25.8 512.6 27.9 503.9 30.4 C 504.5 35.0 505.5 39.5 506.8 44.0 C 513.4 41.5 519.9 38.8 526.7 37.0 C 527.9 40.4 529.2 43.9 530.5 47.3 C 523.8 50.8 516.7 53.3 509.9 56.4 C 510.6 60.6 511.6 64.8 512.8 68.9 C 523.1 64.2 533.3 59.3 543.6 54.6 C 543.8 43.3 544.0 31.9 544.1 20.6 C 551.1 21.2 558.6 21.3 564.6 25.5 C 570.0 24.5 575.5 23.2 581.0 23.6 C 590.2 24.1 599.3 28.9 604.2 36.8 C 608.0 42.7 607.7 50.5 604.8 56.7 C 603.0 60.5 600.0 63.4 597.2 66.3 C 599.4 70.7 601.8 75.1 603.1 79.8 C 604.7 85.5 604.4 91.5 604.2 97.4 C 598.8 96.1 593.4 94.6 588.1 92.9 C 589.5 86.2 591.0 77.8 585.5 72.4 C 581.7 71.2 577.7 71.7 573.9 70.9 C 568.4 69.9 563.4 67.1 558.3 65.0 C 557.3 72.5 556.4 80.0 555.0 87.4 C 551.1 87.0 547.2 86.5 543.4 85.9 C 543.4 80.9 543.4 75.9 543.2 71.0 C 529.8 75.9 516.6 81.6 503.2 86.7 C 501.3 78.5 499.3 70.3 496.9 62.1 C 494.0 65.8 491.0 69.6 486.7 71.8 C 480.4 74.9 473.1 76.4 466.1 74.9 C 460.8 73.7 456.1 71.0 451.1 68.8 C 450.1 75.4 449.2 82.1 448.4 88.7 C 444.7 88.5 440.9 88.3 437.1 88.1 C 437.6 72.7 437.7 57.3 437.6 42.0 C 437.4 36.0 437.4 30.1 437.6 24.2 C 443.4 25.2 449.1 26.1 454.8 27.0 C 455.4 27.9 456.0 28.8 456.6 29.7 C 462.8 28.1 469.3 26.4 475.8 27.3 C 480.9 27.9 485.4 30.4 489.9 32.7 C 489.3 29.2 488.7 25.6 488.1 22.1 C 493.9 19.1 499.8 16.3 505.7 13.8 M 561.5 39.4 C 561.0 43.5 560.5 47.7 560.1 51.8 C 567.4 57.2 577.0 60.0 586.0 58.0 C 589.8 57.1 594.0 54.9 594.9 50.8 C 596.3 44.7 591.4 39.1 585.9 37.1 C 577.9 34.2 569.2 36.3 561.5 39.4 M 454.1 43.2 C 453.5 47.1 452.6 50.9 452.9 54.8 C 453.8 56.3 455.3 57.3 456.8 58.2 C 463.8 62.3 472.5 63.7 480.4 61.4 C 484.1 60.1 487.8 57.1 488.0 52.9 C 488.4 46.8 482.9 42.2 477.6 40.4 C 469.7 38.2 461.4 40.2 454.1 43.2 Z" />
<path fill="#ffffff" stroke="#ffffff" stroke-width="0.09375" opacity="1.00" d=" M 415.2 32.9 C 419.3 31.3 423.5 29.9 427.8 28.8 C 431.3 40.7 433.8 52.8 436.4 64.9 C 438.1 72.3 436.7 80.8 431.6 86.6 C 426.8 91.6 419.8 94.0 413.0 94.4 C 405.1 95.0 397.7 91.1 392.0 86.0 C 386.9 81.4 385.6 74.4 383.8 68.2 C 380.8 56.8 377.1 45.6 374.7 34.1 C 379.0 33.1 383.4 32.1 387.9 31.3 C 390.5 42.9 393.0 54.6 395.7 66.2 C 396.6 70.0 397.5 73.9 400.1 76.9 C 403.4 80.8 408.8 83.2 413.9 82.2 C 418.1 81.4 422.3 79.0 424.0 75.1 C 425.5 71.6 424.5 67.7 423.8 64.2 C 421.3 53.7 418.4 43.2 415.2 32.9 Z" />
<path fill="#ffffff" stroke="#ffffff" stroke-width="0.09375" opacity="1.00" d=" M 119.5 98.5 C 133.6 93.7 149.2 92.2 163.6 96.4 C 170.4 98.3 176.6 102.4 181.0 108.0 C 189.7 118.6 192.7 132.6 193.2 146.0 C 194.0 169.4 187.5 192.1 181.4 214.5 C 173.2 214.8 165.1 215.0 157.0 214.7 C 158.5 210.0 160.1 205.3 161.6 200.6 C 163.8 193.7 165.2 186.6 166.7 179.6 C 168.6 170.2 169.9 160.5 168.1 151.0 C 167.3 146.9 165.7 142.3 161.8 140.2 C 156.5 137.2 150.0 138.2 144.7 140.7 C 136.8 144.6 130.1 150.7 124.2 157.3 C 119.0 163.1 114.0 169.1 109.6 175.6 C 101.2 188.1 93.5 201.2 86.6 214.6 C 57.7 215.0 28.8 214.1 0.0 215.2 L 0.0 214.5 C 1.9 211.3 4.1 208.2 6.1 205.1 C 24.8 175.7 46.9 148.1 73.4 125.4 C 87.2 114.1 102.5 104.2 119.5 98.5 Z" />
<path fill="#ffffff" stroke="#ffffff" stroke-width="0.09375" opacity="1.00" d=" M 191.4 97.7 C 201.7 92.4 214.4 93.2 224.6 98.4 C 229.4 100.9 232.9 104.9 236.7 108.6 C 230.0 111.6 223.6 115.2 218.0 120.0 C 214.5 123.0 211.5 126.5 208.4 129.9 C 206.9 123.4 205.6 116.6 202.1 110.9 C 199.0 106.1 195.0 102.0 191.4 97.7 Z" />
<path fill="#ffffff" stroke="#ffffff" stroke-width="0.09375" opacity="1.00" d=" M 395.4 113.7 C 411.5 111.9 427.6 115.1 442.9 120.0 C 443.7 117.7 444.5 115.5 445.2 113.3 C 459.2 113.4 473.1 113.0 487.0 113.3 C 481.3 131.1 477.1 149.2 472.1 167.2 C 470.1 174.8 467.8 182.3 466.4 190.0 C 468.2 190.6 470.0 191.1 471.7 191.7 C 470.4 196.1 469.3 200.6 468.0 205.1 C 467.3 207.1 466.6 209.5 464.6 210.6 C 457.1 215.0 447.7 216.1 439.3 213.7 C 433.9 212.2 429.9 208.1 426.4 204.0 C 420.3 207.4 414.5 211.7 407.7 213.6 C 395.6 217.6 382.3 217.3 370.2 213.7 C 364.2 211.9 358.1 209.7 352.9 206.1 C 343.4 199.4 336.9 188.6 335.8 177.0 C 335.1 169.8 335.5 162.2 338.7 155.6 C 340.7 151.5 343.3 147.7 345.9 144.0 C 351.0 136.7 357.8 131.0 365.1 126.1 C 374.3 120.2 384.5 115.1 395.4 113.7 M 391.1 155.1 C 387.0 161.1 385.0 168.7 385.8 176.0 C 386.2 180.1 388.2 184.0 391.5 186.5 C 394.8 189.0 399.0 189.3 403.0 189.4 C 410.2 189.5 417.8 188.0 423.9 183.9 C 426.5 182.1 427.0 178.7 427.9 175.8 C 430.5 164.5 434.1 153.4 436.5 142.0 C 433.1 140.5 429.7 138.8 426.0 138.4 C 412.4 136.6 398.6 144.0 391.1 155.1 Z" />
<path fill="#ffffff" stroke="#ffffff" stroke-width="0.09375" opacity="1.00" d=" M 506.2 113.3 C 520.4 113.2 534.6 113.3 548.7 113.3 C 548.2 115.6 547.8 117.9 547.3 120.1 C 556.6 119.1 565.7 116.8 575.0 116.7 C 587.9 116.2 601.6 116.3 612.9 123.1 C 620.7 127.9 625.5 136.5 627.7 145.2 C 630.1 156.4 627.9 168.0 624.7 178.8 C 620.8 191.7 613.8 203.3 606.7 214.6 C 594.7 214.5 582.6 214.9 570.6 214.9 C 576.6 202.3 583.9 190.1 587.4 176.4 C 589.5 168.3 590.7 159.6 588.7 151.4 C 587.8 147.8 586.3 144.0 583.2 141.8 C 578.8 138.7 573.2 138.3 567.9 138.2 C 559.9 138.2 551.9 140.3 544.5 143.4 C 542.9 144.1 541.2 144.7 540.0 146.0 C 539.0 147.5 538.5 149.3 538.0 151.1 C 532.4 172.3 526.1 193.4 520.6 214.6 C 506.7 214.6 492.8 214.7 478.9 214.9 C 481.2 206.2 483.5 197.5 485.7 188.8 C 492.7 163.7 499.5 138.5 506.2 113.3 Z" />
<path fill="#ffffff" stroke="#ffffff" stroke-width="0.09375" opacity="1.00" d=" M 253.4 117.5 C 266.2 114.0 279.8 112.2 292.9 115.0 C 309.4 118.5 324.9 125.7 338.8 135.2 C 335.7 138.2 333.1 141.8 329.4 144.1 C 326.5 144.6 323.7 143.6 320.9 143.1 C 307.3 140.1 292.5 140.5 279.9 146.8 C 272.7 150.2 265.1 155.4 263.6 163.8 C 261.8 171.8 266.2 179.8 272.1 184.9 C 274.5 187.2 277.8 188.4 281.1 188.8 C 290.8 190.0 300.6 188.7 310.0 186.0 C 314.9 184.6 319.7 183.2 324.7 182.0 C 325.8 187.6 326.8 193.3 327.8 198.9 C 316.8 204.1 305.4 208.4 293.6 211.6 C 278.1 215.8 261.3 215.9 245.8 211.2 C 237.4 208.6 229.0 205.4 221.9 200.1 C 214.2 194.3 208.5 185.8 206.9 176.2 C 205.0 165.3 207.3 153.6 213.4 144.4 C 223.1 131.1 237.8 122.3 253.4 117.5 Z" />
<path fill="#ffffff" stroke="#ffffff" stroke-width="0.09375" opacity="1.00" d=" M 117.6 185.6 C 128.1 183.1 139.2 183.4 149.8 185.2 C 153.4 185.7 156.6 187.7 159.4 189.8 C 156.0 191.8 152.3 193.6 148.3 194.2 C 138.5 195.9 128.5 195.5 118.7 194.4 C 115.3 193.9 111.7 193.3 109.3 190.7 C 109.3 190.3 109.2 189.6 109.2 189.3 C 111.5 187.1 114.6 186.3 117.6 185.6 Z" />
</svg>
