<?xml version="1.0" encoding="utf-8"?>
<svg version="1.0" preserveAspectRatio="xMidYMid meet" viewBox="0 0 264 74" xmlns="http://www.w3.org/2000/svg">
  <g transform="matrix(0.245281, 0, 0, 0.246616, -47.369041, -16.523285)">
    <path d="M 257.348 67.994 C 227.464 73.337 203.421 95.454 195.842 124.53 C 193.108 135.029 192.922 141.18 193.232 222.629 C 193.419 297.43 193.481 299.17 194.723 304.947 C 201.619 336.073 223.737 358.253 255.173 365.584 C 259.274 366.516 264.492 366.702 298.103 366.888 C 332.894 367.137 336.498 367.075 337.43 366.143 C 338.362 365.211 338.424 353.22 338.424 217.286 C 338.424 116.515 338.237 69.05 337.802 68.18 C 337.181 67.062 336.125 67 299.718 67.062 C 270.146 67.124 261.262 67.311 257.348 67.994 Z M 313.573 217.1 L 313.573 342.969 L 288.287 342.659 C 264.989 342.41 262.504 342.286 257.845 341.106 C 237.84 335.949 222.991 320.541 218.829 300.474 C 217.462 294.199 217.462 139.627 218.767 133.476 C 222.494 116.018 234.609 101.543 250.949 95.019 C 259.149 91.727 262.939 91.354 289.53 91.292 L 313.573 91.23 L 313.573 217.1 Z" style="fill: rgb(255, 255, 255);"/>
    <path d="M 262.691 129.189 C 258.777 129.935 252.812 132.917 249.644 135.713 C 243.12 141.366 239.89 149.381 240.387 158.824 C 240.635 163.732 240.946 165.037 242.934 169.013 C 245.854 175.039 250.265 179.45 256.291 182.432 C 260.454 184.483 261.51 184.731 266.915 184.918 C 271.823 185.104 273.563 184.918 276.856 183.799 C 290.337 179.264 298.476 166.155 296.177 152.736 C 293.506 136.769 278.347 126.083 262.691 129.189 Z" style="fill: rgb(255, 255, 255);"/>
    <path d="M 368.68 67.435 C 368.431 67.621 368.245 134.967 368.245 217.1 C 368.245 352.599 368.307 366.329 369.239 366.702 C 370.916 367.323 419.127 367.075 425.091 366.454 C 450.315 363.596 472.557 348.25 484.671 325.45 C 486.225 322.53 488.275 317.621 489.331 314.577 C 493.245 302.897 493.121 306.004 493.121 216.727 C 493.121 145.467 492.996 134.843 492.127 130.308 C 485.976 97.939 461.312 73.523 428.881 67.932 C 424.532 67.186 417.822 67 396.202 67 C 381.292 67 368.866 67.186 368.68 67.435 Z M 435.032 202.748 C 444.724 205.295 452.676 212.688 455.906 222.132 C 457.957 227.972 457.895 236.545 455.844 241.888 C 452.055 251.704 444.599 258.601 435.032 261.148 C 419.5 265.186 402.974 255.805 398.439 240.397 C 397.072 235.676 397.134 227.723 398.687 222.877 C 403.347 207.656 419.5 198.71 435.032 202.748 Z" style="fill: rgb(255, 255, 255);"/>
  </g>
  <g transform="matrix(0.245281, 0, 0, 0.246616, -47.369041, -17.198753)">
    <path d="M 1228.236 115.588 C 1212.736 120.688 1203.536 135.588 1206.136 151.788 C 1207.736 162.188 1213.736 170.388 1222.936 175.088 C 1235.436 181.288 1248.736 179.688 1258.736 170.688 C 1266.236 163.888 1269.436 156.788 1269.436 146.688 C 1269.436 137.188 1266.636 130.088 1260.336 123.788 C 1252.436 115.888 1238.236 112.288 1228.236 115.588 Z M 1245.936 130.188 C 1251.936 133.288 1255.236 138.288 1255.736 145.088 C 1256.336 153.988 1252.536 160.388 1244.636 163.688 C 1231.236 169.288 1216.036 156.388 1219.836 142.488 C 1221.436 136.288 1224.136 132.788 1229.136 130.288 C 1234.536 127.688 1240.836 127.588 1245.936 130.188 Z" style="fill: rgb(255, 255, 255);"/>
    <path d="M 557.936 146.688 L 557.936 177.288 L 564.236 176.988 L 570.436 176.688 L 570.936 157.388 L 571.436 138.088 L 585.936 157.588 L 600.436 177.188 L 606.436 176.988 L 612.436 176.688 L 612.436 146.688 L 612.436 116.688 L 606.236 116.388 L 599.936 116.088 L 599.936 135.788 L 599.936 155.588 L 585.236 135.888 L 570.436 116.188 L 564.236 116.188 L 557.936 116.188 L 557.936 146.688 Z" style="fill: rgb(255, 255, 255);"/>
    <path d="M 657.936 146.688 L 657.936 177.188 L 664.436 177.188 L 670.936 177.188 L 670.936 146.688 L 670.936 116.188 L 664.436 116.188 L 657.936 116.188 L 657.936 146.688 Z" style="fill: rgb(255, 255, 255);"/>
    <path d="M 716.436 117.488 C 716.136 118.188 716.036 131.788 716.136 147.688 L 716.436 176.688 L 722.736 176.988 L 728.936 177.288 L 728.936 157.088 L 728.936 136.788 L 743.936 156.988 L 758.936 177.188 L 764.936 177.188 L 770.936 177.188 L 770.936 146.688 L 770.936 116.188 L 764.436 116.188 L 757.936 116.188 L 757.736 135.388 L 757.436 154.588 L 743.036 135.388 L 728.736 116.188 L 722.836 116.188 C 718.936 116.188 716.736 116.588 716.436 117.488 Z" style="fill: rgb(255, 255, 255);"/>
    <path d="M 813.636 116.888 C 813.236 117.188 812.936 120.188 812.936 123.388 L 812.936 129.188 L 822.936 129.188 L 832.936 129.188 L 832.936 153.188 L 832.936 177.188 L 839.436 177.188 L 845.936 177.188 L 845.936 153.188 L 845.936 129.188 L 855.436 129.188 L 864.936 129.188 L 864.936 122.688 L 864.936 116.188 L 839.636 116.188 C 825.636 116.188 813.936 116.488 813.636 116.888 Z" style="fill: rgb(255, 255, 255);"/>
    <path d="M 908.936 146.688 L 908.936 177.188 L 932.436 177.188 L 955.936 177.188 L 955.936 171.188 L 955.936 165.188 L 938.436 165.188 L 920.936 165.188 L 920.936 158.188 L 920.936 151.188 L 936.936 151.188 L 952.936 151.188 L 952.936 145.688 L 952.936 140.188 L 936.936 140.188 L 920.936 140.188 L 920.936 134.188 L 920.936 128.188 L 938.236 127.988 L 955.436 127.688 L 955.736 121.888 L 956.036 116.188 L 932.436 116.188 L 908.936 116.188 L 908.936 146.688 Z" style="fill: rgb(255, 255, 255);"/>
    <path d="M 1005.436 117.488 C 1005.136 118.188 1005.036 131.788 1005.136 147.688 L 1005.436 176.688 L 1011.736 176.988 L 1017.936 177.288 L 1017.936 156.988 L 1017.936 136.788 L 1032.936 156.988 L 1047.936 177.188 L 1053.936 177.188 L 1059.936 177.188 L 1059.936 146.688 L 1059.936 116.188 L 1053.436 116.188 L 1046.936 116.188 L 1046.736 135.388 L 1046.436 154.588 L 1032.036 135.388 L 1017.736 116.188 L 1011.836 116.188 C 1007.936 116.188 1005.736 116.588 1005.436 117.488 Z" style="fill: rgb(255, 255, 255);"/>
    <path d="M 1110.936 146.588 L 1110.936 177.188 L 1124.236 177.188 C 1139.636 177.188 1146.936 175.688 1153.536 171.088 C 1173.036 157.688 1170.036 128.988 1148.136 118.888 C 1144.036 116.988 1141.236 116.688 1127.236 116.388 L 1110.936 115.988 L 1110.936 146.588 Z M 1143.636 131.088 C 1152.036 134.988 1155.636 145.688 1151.436 154.588 C 1148.236 161.188 1141.736 164.188 1130.336 164.188 L 1122.936 164.188 L 1122.936 146.688 L 1122.936 129.188 L 1131.236 129.188 C 1137.136 129.188 1140.636 129.788 1143.636 131.088 Z" style="fill: rgb(255, 255, 255);"/>
    <path d="M 1080.736 204.288 C 1066.836 206.088 1054.436 212.588 1044.236 223.488 C 1021.936 247.488 1022.636 283.988 1045.936 307.188 C 1054.536 315.888 1062.336 320.388 1073.536 323.188 C 1091.936 327.888 1110.536 324.188 1125.736 312.688 C 1131.636 308.288 1139.336 299.688 1138.736 298.188 C 1138.536 297.788 1134.436 294.088 1129.536 289.788 L 1120.736 282.088 L 1118.036 285.588 C 1105.136 302.488 1079.036 304.288 1063.936 289.188 C 1061.736 286.988 1058.736 282.888 1057.236 279.988 C 1054.736 275.188 1054.436 273.688 1054.436 264.688 C 1054.436 256.088 1054.736 253.988 1056.936 249.688 C 1064.336 234.388 1082.636 226.088 1098.536 230.688 C 1105.936 232.788 1112.936 237.188 1117.336 242.488 L 1120.736 246.588 L 1125.136 242.988 C 1127.536 241.088 1131.736 237.388 1134.436 234.988 L 1139.436 230.488 L 1135.536 225.688 C 1122.536 209.888 1101.536 201.688 1080.736 204.288 Z" style="fill: rgb(255, 255, 255);"/>
    <path d="M 586.136 208.188 C 562.336 214.488 550.036 230.388 555.336 248.388 C 559.136 261.688 571.736 268.188 605.236 274.188 C 627.736 278.188 634.336 281.488 634.336 288.588 C 634.336 293.488 631.436 297.088 625.136 299.988 C 619.736 302.488 618.536 302.688 604.936 302.688 C 588.836 302.688 582.536 301.388 570.636 295.988 C 566.936 294.288 563.736 293.088 563.536 293.288 C 562.336 294.788 552.836 312.488 553.136 312.688 C 554.136 313.788 570.136 319.588 576.736 321.388 C 587.736 324.288 611.236 324.988 623.236 322.788 C 645.636 318.588 656.736 308.288 657.736 290.988 C 658.536 276.688 654.536 269.288 642.236 262.888 C 633.436 258.288 625.836 256.088 606.436 252.188 C 589.536 248.888 584.736 247.288 581.236 243.988 C 578.136 241.088 578.136 235.888 581.336 232.688 C 588.536 225.488 614.336 225.188 634.336 232.188 C 637.636 233.288 640.636 233.888 641.036 233.488 C 641.736 232.688 648.936 215.788 648.936 214.788 C 648.936 213.888 633.636 209.388 625.036 207.788 C 613.436 205.588 595.436 205.788 586.136 208.188 Z" style="fill: rgb(255, 255, 255);"/>
    <path d="M 671.336 208.888 C 671.636 209.888 678.636 234.788 686.936 264.188 C 695.236 293.588 702.236 318.488 702.536 319.388 C 703.036 320.988 704.636 321.188 716.936 321.188 L 730.836 321.188 L 731.936 317.388 C 741.836 281.588 751.836 247.988 752.336 249.188 C 752.636 249.988 757.336 266.388 762.736 285.688 L 772.536 320.688 L 786.536 320.988 L 800.536 321.288 L 816.436 265.488 C 825.136 234.788 832.436 209.088 832.736 208.388 C 833.036 207.488 830.236 207.188 820.536 207.188 L 808.036 207.188 L 806.636 211.888 C 805.836 214.588 801.036 232.588 795.936 251.888 C 790.736 271.288 786.336 287.188 785.936 287.188 C 785.636 287.188 780.936 271.988 775.536 253.388 C 770.136 234.888 764.836 216.888 763.736 213.388 L 761.836 207.088 L 751.636 207.388 L 741.436 207.688 L 729.736 247.688 C 723.336 269.688 718.036 287.888 717.936 288.188 C 717.836 288.488 713.336 272.288 708.036 252.188 C 702.636 232.088 697.636 213.788 697.036 211.388 L 695.836 207.188 L 683.336 207.188 C 671.836 207.188 670.836 207.288 671.336 208.888 Z" style="fill: rgb(255, 255, 255);"/>
    <path d="M 860.936 264.188 L 860.936 321.188 L 873.936 321.188 L 886.936 321.188 L 886.736 264.388 L 886.436 207.688 L 873.736 207.388 L 860.936 207.088 L 860.936 264.188 Z" style="fill: rgb(255, 255, 255);"/>
    <path d="M 913.936 219.688 L 913.936 232.188 L 931.936 232.188 L 949.936 232.188 L 949.936 276.688 L 949.936 321.188 L 962.436 321.188 L 974.936 321.188 L 974.936 276.688 L 974.936 232.188 L 992.736 231.988 L 1010.436 231.688 L 1010.436 219.688 L 1010.436 207.688 L 962.236 207.388 L 913.936 207.188 L 913.936 219.688 Z" style="fill: rgb(255, 255, 255);"/>
    <path d="M 1164.936 264.188 L 1164.936 321.188 L 1176.936 321.188 L 1188.936 321.188 L 1188.936 298.688 L 1188.936 276.188 L 1215.436 276.188 L 1241.936 276.188 L 1241.936 298.688 L 1241.936 321.188 L 1253.936 321.188 L 1265.936 321.188 L 1265.736 264.388 L 1265.436 207.688 L 1253.736 207.388 L 1241.936 207.088 L 1241.936 229.688 L 1241.936 252.188 L 1215.436 252.188 L 1188.936 252.188 L 1188.936 229.688 L 1188.936 207.188 L 1176.936 207.188 L 1164.936 207.188 L 1164.936 264.188 Z" style="fill: rgb(255, 255, 255);"/>
  </g>
</svg>