<?xml version="1.0" encoding="utf-8"?>
<svg version="1.1" xmlns="http://www.w3.org/2000/svg">
  <g transform="matrix(0.44, 0, 0, 0.442055, 0, 0)">
    <path fill="none" d="M 553.266 93.69 L 575.262 93.69 L 575.262 52.449 L 553.266 52.449 L 553.266 93.69 Z M 542.268 16.713 C 511.902 16.713 487.284 41.328 487.284 71.694 C 487.284 102.063 511.905 126.681 542.268 126.681 C 572.637 126.681 597.252 102.06 597.252 71.694 C 597.255 41.328 572.637 16.713 542.268 16.713 Z M 539.523 57.951 L 534.021 57.951 L 534.021 55.2 L 531.273 52.449 L 509.28 52.449 L 509.28 93.69 L 531.273 93.69 L 534.021 90.939 L 534.021 88.191 L 539.523 88.191 L 539.523 93.69 L 534.021 99.186 L 506.529 99.186 L 503.781 96.438 L 503.781 49.701 L 506.529 46.953 L 534.021 46.953 L 539.523 52.449 L 539.523 57.951 Z M 580.758 93.69 L 575.262 99.186 L 545.019 99.186 L 545.019 93.69 L 547.767 93.69 L 547.767 52.449 L 545.019 52.449 L 545.019 46.953 L 575.262 46.953 L 580.758 52.449 L 580.758 93.69 Z"/>
    <path d="M 552.841 34.611 C 526.794 34.611 505.682 55.728 505.682 81.776 C 505.682 107.826 526.797 128.943 552.841 128.943 C 578.886 128.943 600 107.826 600 81.776 C 600 55.728 578.886 34.611 552.841 34.611 Z M 550.482 69.987 L 545.765 69.987 L 545.765 67.627 L 543.408 65.27 L 524.543 65.27 L 524.543 100.641 L 543.408 100.641 L 545.765 98.284 L 545.765 95.927 L 550.482 95.927 L 550.482 100.641 L 545.765 105.361 L 522.186 105.361 L 519.829 103.001 L 519.829 62.91 L 522.186 60.553 L 545.765 60.553 L 550.482 65.27 L 550.482 69.987 Z M 585.851 100.641 L 581.137 105.361 L 555.198 105.361 L 555.198 100.641 L 557.558 100.641 L 557.558 65.27 L 555.198 65.27 L 555.198 60.551 L 581.137 60.551 L 585.851 65.27 L 585.851 100.641 Z M 562.274 100.641 L 581.137 100.641 L 581.137 65.27 L 562.274 65.27 L 562.274 100.641 Z" style="fill: rgb(255, 255, 255);"/>
    <polygon points="0 0 29.718 0 29.718 8.749 21.021 8.749 21.021 127.503 10.509 127.503 10.509 8.749 0 8.749" id="polygon5" style="fill:#ffffff;fill-opacity:1"/>
    <path d="M 56.64 118.811 L 68.241 118.811 L 68.241 35.61 L 78.387 35.61 L 78.387 118.811 C 78.387 124.199 73.497 128.01 68.481 128.01 L 56.64 128.01 C 51.342 128.01 46.614 123.697 46.614 118.703 L 46.614 35.61 L 56.64 35.61 L 56.64 118.811 Z" id="path7" style="fill:#ffffff;fill-opacity:1"/>
    <path d="M 274.824 55.932 L 290.319 55.932 L 290.319 128.094 L 268.482 128.094 C 263.814 128.094 258.063 124.517 258.063 119.093 L 258.063 10.013 C 258.063 5.43 262.863 0.55 268.254 0.55 L 280.17 0.55 C 285.456 0.55 290.25 5.388 290.25 9.908 L 290.25 35.748 L 279.807 35.748 L 279.807 10.268 L 267.939 10.268 L 267.939 119.175 L 280.08 119.175 L 280.08 64.765 L 274.824 64.765 L 274.824 55.932 Z" id="path9" style="fill:#ffffff;fill-opacity:1"/>
    <path d="M 424.662 83.808 L 424.662 127.545 L 414.879 127.545 L 414.879 43.777 C 414.879 39.992 418.641 35.868 423.396 35.868 L 439.524 35.868 L 439.524 43.942 L 424.662 43.942 L 424.662 74.894 L 436.899 74.894 L 436.899 83.847 L 424.662 83.808 Z" id="path11" style="fill:#ffffff;fill-opacity:1"/>
    <path d="M 459.366 35.892 L 469.635 35.892 L 469.635 69.257 L 475.434 75.089 L 481.11 69.42 L 481.11 35.892 L 491.256 35.892 L 491.256 67.637 C 491.256 71.511 481.233 81.725 481.233 81.725 C 481.233 81.725 491.379 91.932 491.379 96.068 L 491.379 127.731 L 481.833 127.731 L 481.833 94.765 L 475.674 88.532 L 469.512 94.684 L 469.512 127.731 L 459.366 127.731 L 459.366 96.143 C 459.366 92.259 470.112 81.644 470.112 81.644 C 470.112 81.644 459.366 71.547 459.366 67.478 L 459.366 35.892 Z" id="path13" style="fill:#ffffff;fill-opacity:1"/>
    <path d="M 122.361 84.015 C 125.802 84.015 130.38 79.897 130.38 74.387 L 130.38 44.278 C 130.38 39.947 125.442 35.913 119.823 35.913 L 98.985 35.913 L 98.985 127.914 L 108.591 127.914 L 108.591 84.69 L 112.215 84.69 L 122.904 127.752 L 132.327 127.752 L 122.361 84.015 Z M 120.459 75.017 L 108.951 75.017 L 108.951 44.827 L 120.459 44.827 L 120.459 75.017 Z" id="path15" style="fill:#ffffff;fill-opacity:1"/>
    <path d="M 334.917 83.775 C 338.361 83.775 342.942 79.651 342.942 74.144 L 342.942 44.035 C 342.942 39.704 337.998 35.664 332.385 35.664 L 311.547 35.664 L 311.547 127.674 L 321.144 127.674 L 321.144 84.444 L 324.771 84.444 L 335.466 127.503 L 344.886 127.503 L 334.917 83.775 Z M 332.877 74.675 L 321.378 74.675 L 321.378 44.485 L 332.877 44.485 L 332.877 74.675 Z" id="path17" style="fill:#ffffff;fill-opacity:1"/>
    <path d="M 181.728 86.182 C 181.686 82.058 177.384 79.453 177.384 79.453 C 177.384 79.453 181.728 76.638 181.728 72.724 L 181.728 44.638 C 181.728 39.338 177.063 35.889 172.308 35.889 L 150.381 35.889 L 150.381 127.731 L 172.308 127.731 C 176.748 127.731 181.728 124.958 181.728 118.985 C 181.728 118.985 181.779 90.299 181.728 86.182 Z M 171.855 118.733 L 160.35 118.733 L 160.35 84.501 L 171.855 84.501 L 171.855 118.733 Z M 171.855 74.996 L 160.35 74.996 L 160.35 44.806 L 171.855 44.806 L 171.855 74.996 Z" id="path19" style="fill:#ffffff;fill-opacity:1"/>
    <path d="M 223.725 35.211 L 217.926 35.211 L 212.307 35.211 C 206.553 35.211 202.365 40.13 202.365 43.873 L 202.365 118.463 C 202.365 123.283 207.732 127.656 212.262 127.656 L 224.676 127.656 C 229.524 127.656 234.369 122.65 234.369 118.655 L 234.369 43.621 C 234.369 40.259 229.794 35.211 223.725 35.211 Z M 224.085 118.175 L 212.97 118.175 L 212.97 44.296 L 224.085 44.296 L 224.085 118.175 Z" id="path21" style="fill:#ffffff;fill-opacity:1"/>
    <path d="M 384.909 35.868 L 372.231 35.868 C 366.519 35.868 363.168 40.577 363.168 44.278 L 363.168 127.545 L 372.771 127.545 L 372.771 83.808 L 384.909 83.808 L 384.909 127.545 L 394.515 127.545 L 394.515 44.782 C 394.512 39.29 390.714 35.868 384.909 35.868 Z M 384.633 74.726 L 373.134 74.726 L 373.134 45.121 L 384.633 45.121 L 384.633 74.726 Z" id="path23" style="fill:#ffffff;fill-opacity:1"/>
  </g>
</svg>