<?xml version="1.0" encoding="utf-8"?>
<svg version="1.1" viewBox="0 0 3839 1168.2" xmlns="http://www.w3.org/2000/svg">
  <path class="st0" d="M 196.3 800.7 L 235.7 800.7 L 235.7 924.5 L 236.5 924.5 C 255 894.3 286.4 881.5 322.2 881.5 C 378.9 881.5 419.9 913.3 419.9 976.4 L 419.9 1091 L 380.5 1091 L 380.5 978.4 C 380.5 933.4 353.6 908.8 315.7 908.8 C 278.3 908.8 235.7 931.7 235.7 995.7 L 235.7 1091 L 196.3 1091 L 196.3 800.7 L 196.3 800.7 Z" style="fill: rgb(255, 255, 255);"/>
  <path class="st0" d="M 605.6 1098.6 C 523.5 1098.6 479.4 1059.2 479.4 990 C 479.4 924.4 521.2 881.4 605.6 881.4 C 687.7 881.4 731.8 920.8 731.8 990 C 731.8 1059.2 687.7 1098.6 605.6 1098.6 Z M 521.1 990.1 C 521.1 1036 550.5 1071.4 605.6 1071.4 C 660.7 1071.4 690.1 1036 690.1 990.1 C 690.1 944.2 660.7 908.8 605.6 908.8 C 550.5 908.8 521.1 944.2 521.1 990.1 Z" style="fill: rgb(255, 255, 255);"/>
  <path class="st0" d="M 791.3 935 C 791.3 919.7 790.5 905.2 789.7 889.1 L 826.7 889.1 C 827.5 899.2 828.3 910.8 828.3 924.9 L 829.1 924.9 C 852 893.9 881 881.5 914 881.5 C 947.8 881.5 975.9 898 987.6 932.2 C 1002.1 904.4 1033.5 881.5 1070.9 881.5 C 1128.4 881.5 1163.8 909.7 1163.8 975.2 L 1163.8 1091 L 1124.4 1091 L 1124.4 990 C 1124.4 940.9 1110.3 908.7 1067.3 908.7 C 1032.7 908.7 997.3 932.4 997.3 998.8 L 997.3 1090.9 L 957.9 1090.9 L 957.9 987.6 C 957.9 933.3 939.4 908.8 903.2 908.8 C 868.6 908.8 830.8 933.7 830.8 993.3 L 830.8 1091 L 791.4 1091 L 791.3 935 L 791.3 935 Z" style="fill: rgb(255, 255, 255);"/>
  <path class="st0" d="M 1448.8 1000.5 L 1259.8 1000.5 C 1263.8 1041.9 1290.4 1071.3 1334.6 1071.3 C 1363.2 1071.3 1393.3 1059.2 1402.2 1030.3 L 1444 1030.3 C 1436 1084.2 1381.3 1098.7 1336.6 1098.7 C 1262.6 1098.7 1220.3 1058.1 1220.3 994.1 C 1220.3 920.5 1264.5 881.5 1337.8 881.5 C 1409.4 881.5 1448.8 920.1 1448.8 988.5 L 1448.8 1000.5 L 1448.8 1000.5 Z M 1406.9 973.2 C 1406.1 926.5 1371.5 908.8 1336.9 908.8 C 1296.3 908.8 1267.3 928.5 1261.3 973.2 L 1406.9 973.2 Z" style="fill: rgb(255, 255, 255);"/>
  <path class="st0" d="M 1862.5 1025.9 C 1858.5 1077 1806.2 1098.7 1754.7 1098.7 C 1679.5 1098.7 1639.7 1055.7 1639.7 990.5 C 1639.7 922.5 1685.6 881.5 1758.4 881.5 C 1807.1 881.5 1854.1 900.8 1861 953.5 L 1819.2 953.5 C 1815.6 924.1 1791.8 908.9 1758.8 908.9 C 1716.2 908.9 1681.6 936.7 1681.6 990.6 C 1681.6 1033.6 1706.9 1071.5 1756.8 1071.5 C 1793.8 1071.5 1818.7 1054.2 1820.8 1026 L 1862.5 1025.9 L 1862.5 1025.9 Z" style="fill: rgb(255, 255, 255);"/>
  <path class="st0" d="M 2033.7 1098.6 C 1951.6 1098.6 1907.5 1059.2 1907.5 990 C 1907.5 924.4 1949.3 881.4 2033.7 881.4 C 2115.8 881.4 2159.9 920.8 2159.9 990 C 2159.9 1059.2 2115.8 1098.6 2033.7 1098.6 Z M 1949.3 990.1 C 1949.3 1036 1978.7 1071.4 2033.8 1071.4 C 2088.9 1071.4 2118.3 1036 2118.3 990.1 C 2118.3 944.2 2088.9 908.8 2033.8 908.8 C 1978.7 908.8 1949.3 944.2 1949.3 990.1 Z" style="fill: rgb(255, 255, 255);"/>
  <path class="st0" d="M 2219.5 935 C 2219.5 919.7 2218.7 905.2 2217.9 889.1 L 2254.9 889.1 C 2255.7 899.2 2256.5 910.8 2256.5 924.9 L 2257.3 924.9 C 2280.2 893.9 2309.2 881.5 2342.2 881.5 C 2376 881.5 2404.1 898 2415.8 932.2 C 2430.3 904.4 2461.7 881.5 2499.1 881.5 C 2556.6 881.5 2592 909.7 2592 975.2 L 2592 1091 L 2552.6 1091 L 2552.6 990 C 2552.6 940.9 2538.5 908.7 2495.5 908.7 C 2460.9 908.7 2425.5 932.4 2425.5 998.8 L 2425.5 1090.9 L 2386 1090.9 L 2386 987.6 C 2386 933.3 2367.5 908.8 2331.3 908.8 C 2296.7 908.8 2258.9 933.7 2258.9 993.3 L 2258.9 1091 L 2219.5 1091 L 2219.5 935 L 2219.5 935 Z" style="fill: rgb(255, 255, 255);"/>
  <path class="st0" d="M 2663.4 935 C 2663.4 919.7 2662.6 905.2 2661.8 889.1 L 2701.2 889.1 C 2702 896.7 2702.8 906 2702.8 917.7 C 2723.3 894.4 2755.5 881.5 2791.3 881.5 C 2851.6 881.5 2903.9 924.5 2903.9 990.1 C 2903.9 1055.7 2851.6 1098.7 2791.3 1098.7 C 2759.1 1098.7 2727.7 1091.1 2702.8 1064.5 L 2702.8 1168.3 L 2663.4 1168.3 L 2663.4 935 Z M 2782.3 1071.2 C 2829.4 1071.2 2861.9 1041 2861.9 989.9 C 2861.9 938.8 2829.3 908.6 2782.3 908.6 C 2735.6 908.6 2702.7 938.8 2702.7 989.9 C 2702.8 1041.1 2735.7 1071.2 2782.3 1071.2 Z" style="fill: rgb(255, 255, 255);"/>
  <path class="st0" d="M 3186.9 1045.2 C 3186.9 1060.5 3187.7 1075 3188.5 1091.1 L 3151.5 1091.1 C 3150.7 1081 3149.9 1069.4 3149.9 1055.3 L 3149.1 1055.3 C 3126.2 1086.3 3097.2 1098.7 3061 1098.7 C 3004.3 1098.7 2963.2 1066.9 2963.2 1003.8 L 2963.2 889.1 L 3002.6 889.1 L 3002.6 1001.7 C 3002.6 1046.7 3029.5 1071.3 3067.4 1071.3 C 3104.8 1071.3 3147.5 1048.4 3147.5 984.4 L 3147.5 889.1 L 3186.9 889.1 L 3186.9 1045.2 L 3186.9 1045.2 Z" style="fill: rgb(255, 255, 255);"/>
  <path class="st0" d="M 3288.1 852.1 L 3327.5 835.6 L 3327.5 889.1 L 3387 889.1 L 3387 916.5 L 3327.5 916.5 L 3327.5 1032.7 C 3327.5 1054.4 3333.5 1066.1 3358.1 1066.1 C 3365.3 1066.1 3377 1065.3 3388.3 1063.7 L 3388.3 1091.1 C 3375.4 1092.7 3362.6 1093.5 3350.5 1093.5 C 3310.7 1093.5 3288.1 1080.6 3288.1 1035.6 L 3288.1 916.5 L 3235.4 916.5 L 3235.4 889.1 L 3288.1 889.1 L 3288.1 852.1 Z" style="fill: rgb(255, 255, 255);"/>
  <path class="st0" d="M 3650.5 1000.5 L 3461.5 1000.5 C 3465.5 1041.9 3492.1 1071.3 3536.3 1071.3 C 3564.9 1071.3 3595 1059.2 3603.9 1030.3 L 3645.7 1030.3 C 3637.7 1084.2 3583 1098.7 3538.3 1098.7 C 3464.3 1098.7 3422 1058.1 3422 994.1 C 3422 920.5 3466.2 881.5 3539.5 881.5 C 3611.1 881.5 3650.5 920.1 3650.5 988.5 L 3650.5 1000.5 L 3650.5 1000.5 Z M 3608.6 973.2 C 3607.8 926.5 3573.2 908.8 3538.6 908.8 C 3498 908.8 3469 928.5 3463 973.2 L 3608.6 973.2 Z" style="fill: rgb(255, 255, 255);"/>
  <path class="st0" d="M 3707.2 935 C 3707.2 919.7 3706.4 905.2 3705.6 889.1 L 3742.6 889.1 C 3743.4 901.2 3744.2 915.7 3744.2 929.3 L 3745 929.3 C 3763.1 896.7 3780.8 886.3 3825.8 886.3 L 3839.1 886.3 L 3839.1 921.7 C 3833.1 919.7 3827.4 919.3 3820.2 919.3 C 3772.7 919.3 3746.6 952.7 3746.6 993.3 L 3746.6 1091 L 3707.2 1091 L 3707.2 935 L 3707.2 935 Z" style="fill: rgb(255, 255, 255);"/>
  <rect x="628.7" y="6.1" class="st0" width="198.9" height="688.6" style="fill: rgb(255, 255, 255);"/>
  <polygon class="st0" points="591.4 6.1 0 6.1 0 189.1 196.3 189.1 196.3 694.7 395.2 694.7 395.2 189.1 591.4 189.1" style="fill: rgb(255, 255, 255);"/>
  <path class="st0" d="M 1996.4 0 C 1841.4 0 1715.8 86.5 1715.8 243.2 C 1715.8 416.7 1843.8 479.1 1965.3 479.1 C 2003.2 479.1 2057.2 459.1 2092.7 431.6 C 2109.9 598.7 1921.6 608 1903.6 509.2 L 1730.1 509.2 C 1759 664.8 1895 707.8 2001.3 707.5 C 2142.3 707.1 2276.9 594.8 2276.9 322.5 C 2276.9 96.5 2151.4 0 1996.4 0 Z M 1989.7 343.3 C 1931.3 343.3 1883.9 296 1883.9 237.5 C 1883.9 179 1931.2 131.7 1989.7 131.7 C 2048.2 131.7 2095.5 179.1 2095.5 237.5 C 2095.5 296 2048.1 343.3 1989.7 343.3 Z" style="fill: rgb(255, 255, 255);"/>
  <path class="st0" d="M 1383.8 0 C 1228.8 0 1103.2 86.5 1103.2 243.2 C 1103.2 416.7 1231.2 479.1 1352.7 479.1 C 1390.6 479.1 1444.6 459.1 1480.1 431.6 C 1497.3 598.7 1309 608 1291 509.2 L 1117.4 509.2 C 1146.3 664.8 1282.3 707.8 1388.6 707.5 C 1529.6 707.1 1664.2 594.8 1664.2 322.5 C 1664.2 96.5 1538.7 0 1383.8 0 Z M 1377 343.3 C 1318.6 343.3 1271.2 296 1271.2 237.5 C 1271.2 179 1318.5 131.7 1377 131.7 C 1435.5 131.7 1482.8 179.1 1482.8 237.5 C 1482.9 296 1435.5 343.3 1377 343.3 Z" style="fill: rgb(255, 255, 255);"/>
  <rect x="886.3" y="263.6" class="st0" width="158.2" height="130.3" style="fill: rgb(255, 255, 255);"/>
  <path class="st0" d="M 3051.2 707.4 L 2851.8 707.4 C 2841.7 707.4 2833.6 699.2 2833.6 689.2 L 2833.6 554.6 L 2555.4 554.6 C 2545.3 554.6 2537.2 546.4 2537.2 536.4 L 2537.2 385.7 C 2537.2 381.3 2538.8 377.1 2541.7 373.8 L 2860.7 6.3 C 2864.2 2.3 2869.2 0 2874.5 0 L 3051.3 0 C 3061.4 0 3069.5 8.2 3069.5 18.2 L 3069.5 376 L 3119.6 376 C 3129.7 376 3137.8 384.2 3137.8 394.2 L 3137.8 536.3 C 3137.8 546.4 3129.6 554.5 3119.6 554.5 L 3069.5 554.5 L 3069.5 689.1 C 3069.4 699.2 3061.2 707.4 3051.2 707.4 Z M 2869.9 671 L 3032.9 671 L 3032.9 536.4 C 3032.9 526.3 3041.1 518.2 3051.1 518.2 L 3101.2 518.2 L 3101.2 412.5 L 3051.1 412.5 C 3041 412.5 3032.9 404.3 3032.9 394.3 L 3032.9 36.4 L 2882.6 36.4 L 2573.5 392.5 L 2573.5 518.1 L 2851.7 518.1 C 2861.8 518.1 2869.9 526.3 2869.9 536.3 L 2869.9 671 Z" style="fill: rgb(255, 255, 255);"/>
  <path class="st0" d="M 2851.7 412.5 L 2664 412.5 C 2656.9 412.5 2650.4 408.3 2647.4 401.8 C 2644.4 395.3 2645.5 387.7 2650.2 382.3 L 2838 166.1 C 2843 160.4 2851 158.3 2858.1 161 C 2865.2 163.7 2869.9 170.5 2869.9 178.1 L 2869.9 394.3 C 2869.9 404.3 2861.8 412.5 2851.7 412.5 Z M 2704 376.1 L 2833.5 376.1 L 2833.5 226.9 L 2704 376.1 Z" style="fill: rgb(255, 255, 255);"/>
  <path class="st0" d="M 3820.8 707.4 L 3682.7 707.4 C 3674.9 707.4 3668 702.4 3665.5 695.1 L 3617.3 554.6 L 3402.7 554.6 L 3354.6 695.1 C 3352.1 702.5 3345.2 707.4 3337.4 707.4 L 3199 707.4 C 3193.1 707.4 3187.6 704.6 3184.2 699.8 C 3180.8 695 3179.9 688.9 3181.8 683.3 L 3411.8 12.3 C 3414.3 4.9 3421.2 0 3429 0 L 3590.9 0 C 3598.7 0 3605.6 5 3608.1 12.3 L 3838 683.3 C 3839.9 688.9 3839 695 3835.6 699.8 C 3832.2 704.6 3826.7 707.4 3820.8 707.4 Z M 3695.7 671 L 3795.3 671 L 3577.9 36.4 L 3442 36.4 L 3224.5 671 L 3324.2 671 L 3372.3 530.5 C 3374.8 523.1 3381.7 518.2 3389.5 518.2 L 3630.2 518.2 C 3638 518.2 3644.9 523.2 3647.4 530.5 L 3695.7 671 Z M 3591.8 442.5 L 3428 442.5 C 3422.1 442.5 3416.6 439.7 3413.2 434.9 C 3409.8 430.1 3408.9 424 3410.8 418.4 L 3492.8 179.3 C 3495.3 171.9 3502.3 167 3510 167 L 3510 167 C 3517.8 167 3524.7 172 3527.2 179.3 L 3609.1 418.4 C 3611 424 3610.1 430.1 3606.7 434.9 C 3603.2 439.7 3597.7 442.5 3591.8 442.5 Z M 3453.5 406.1 L 3566.3 406.1 L 3509.9 241.5 L 3453.5 406.1 Z" style="fill: rgb(255, 255, 255);"/>
  <polygon class="st0" points="2553.4 36.4 2240.5 707.4 2292.5 707.4 2605.3 36.4" style="fill: rgb(255, 255, 255);"/>
</svg>