<svg xmlns="http://www.w3.org/2000/svg" version="1.1" viewBox="-0.05 0.25 1200.09 488.24">
<path fill="#ffffff" stroke="#ffffff" stroke-width="0.09375" opacity="1.00" d=" M 477.1 189.5 C 513.6 126.4 550.4 63.3 587.2 0.3 C 623.0 61.4 658.1 123.1 693.7 184.4 C 694.6 186.0 695.4 187.8 696.1 189.5 C 686.5 189.6 676.9 189.5 667.3 189.6 C 640.3 144.5 614.3 98.7 587.2 53.6 C 560.5 98.9 534.6 144.5 507.7 189.6 C 497.5 189.5 487.3 189.5 477.1 189.5 Z"/>
<path fill="#ffffff" stroke="#ffffff" stroke-width="0.09375" opacity="1.00" d=" M 0.0 204.8 C 52.4 204.8 104.7 204.7 157.1 204.9 C 157.1 214.8 157.3 224.7 156.9 234.6 C 137.4 234.7 117.8 234.1 98.3 234.8 C 98.4 268.3 98.4 301.8 98.3 335.3 C 85.0 335.3 71.7 335.7 58.4 335.1 C 58.5 301.6 58.5 268.1 58.4 234.6 C 38.9 234.4 19.5 234.5 0.0 234.5 L 0.0 204.8 Z"/>
<path fill="#ffffff" stroke="#ffffff" stroke-width="0.09375" opacity="1.00" d=" M 166.6 204.8 C 202.7 204.8 238.9 204.8 275.0 204.8 C 284.9 204.8 295.4 207.2 302.8 214.1 C 308.5 219.4 310.8 227.4 310.7 235.0 C 310.5 243.9 310.9 252.8 310.5 261.6 C 307.8 278.8 291.1 291.1 273.9 290.3 C 292.7 305.3 311.7 320.0 330.3 335.2 C 315.5 335.6 300.8 335.3 286.0 335.4 C 283.6 335.4 280.8 335.9 278.9 334.0 C 261.0 320.0 243.1 305.9 225.1 291.9 C 224.3 291.1 222.8 290.4 223.0 289.0 C 222.9 279.7 223.0 270.3 223.0 261.0 C 238.0 260.9 253.1 261.0 268.1 260.9 C 270.9 261.1 273.8 258.9 273.7 255.9 C 273.9 249.7 273.9 243.4 273.8 237.2 C 271.8 234.5 268.0 234.8 265.0 234.5 C 245.0 234.5 225.0 234.4 204.9 234.6 C 204.9 268.2 204.9 301.7 204.9 335.3 C 192.1 335.5 179.4 335.4 166.6 335.4 C 166.5 291.8 166.5 248.3 166.6 204.8 Z"/>
<path fill="#ffffff" stroke="#ffffff" stroke-width="0.09375" opacity="1.00" d=" M 334.3 205.0 C 347.6 204.6 360.9 204.9 374.2 204.8 C 374.3 248.3 374.2 291.8 374.2 335.3 C 360.9 335.3 347.6 335.7 334.3 335.2 C 334.4 291.8 334.3 248.4 334.3 205.0 Z"/>
<path fill="#ffffff" stroke="#ffffff" stroke-width="0.09375" opacity="1.00" d=" M 397.3 205.0 C 438.5 204.6 479.7 204.9 520.9 204.8 C 520.9 214.8 521.0 224.7 520.8 234.6 C 493.2 234.5 465.5 234.5 437.8 234.6 C 437.8 241.5 437.8 248.4 437.8 255.3 C 461.2 255.4 484.5 255.4 507.9 255.3 C 508.1 265.2 508.0 275.0 507.9 284.8 C 484.6 284.9 461.2 284.8 437.8 284.9 C 437.7 301.7 437.8 318.5 437.8 335.3 C 424.3 335.4 410.8 335.7 397.3 335.1 C 397.4 291.7 397.4 248.4 397.3 205.0 Z"/>
<path fill="#ffffff" stroke="#ffffff" stroke-width="0.09375" opacity="1.00" d=" M 560.4 205.9 C 586.5 203.5 612.8 205.4 639.0 204.8 C 653.7 204.7 670.2 203.7 682.3 213.7 C 688.3 218.6 691.3 226.4 691.2 234.0 C 691.3 257.7 691.2 281.4 691.3 305.0 C 691.3 314.6 685.9 323.9 677.9 328.9 C 670.5 333.7 661.6 335.3 653.0 335.4 C 624.0 335.5 595.0 335.3 566.0 335.5 C 556.6 335.2 546.6 333.0 539.4 326.6 C 533.9 321.7 531.5 314.2 531.6 307.0 C 531.6 282.7 531.5 258.3 531.7 234.0 C 532.6 219.0 546.2 207.8 560.4 205.9 M 572.8 234.6 C 572.8 258.7 572.8 282.8 572.8 306.9 C 599.2 307.0 625.5 307.0 651.9 306.9 C 651.9 282.8 651.9 258.7 651.9 234.6 C 625.5 234.4 599.2 234.5 572.8 234.6 Z"/>
<path fill="#ffffff" stroke="#ffffff" stroke-width="0.09375" opacity="1.00" d=" M 706.0 204.8 C 742.3 204.8 778.7 204.8 815.0 204.8 C 826.3 204.9 839.1 208.3 845.7 218.2 C 852.9 229.5 849.2 243.5 850.2 256.0 C 851.1 275.6 832.3 291.5 813.2 290.3 C 832.1 305.1 851.2 319.8 869.6 335.2 C 854.7 335.6 839.9 335.3 825.0 335.4 C 822.9 335.3 820.4 335.8 818.7 334.3 C 800.4 319.9 782.1 305.6 763.8 291.2 C 762.2 290.4 762.5 288.5 762.4 287.0 C 762.5 278.4 762.5 269.7 762.4 261.1 C 777.6 260.7 792.9 261.1 808.1 260.9 C 810.7 260.9 813.3 258.7 813.2 256.0 C 813.4 249.7 813.4 243.3 813.3 237.0 C 810.9 234.5 807.2 234.7 804.0 234.5 C 784.2 234.5 764.4 234.6 744.7 234.5 C 744.0 268.1 744.7 301.7 744.3 335.3 C 731.6 335.4 718.8 335.4 706.0 335.3 C 706.0 291.8 706.0 248.3 706.0 204.8 Z"/>
<path fill="#ffffff" stroke="#ffffff" stroke-width="0.09375" opacity="1.00" d=" M 876.6 212.5 C 884.4 206.5 894.5 204.9 904.0 204.8 C 931.0 204.8 958.0 204.8 985.0 204.8 C 995.8 204.7 1007.7 209.1 1013.0 219.1 C 1018.6 230.3 1015.8 243.3 1016.4 255.3 C 1003.9 255.3 991.4 255.4 978.9 255.3 C 978.8 248.4 978.8 241.5 978.8 234.7 C 954.2 234.4 929.5 234.5 904.8 234.6 C 904.8 258.7 904.8 282.8 904.9 306.9 C 929.5 306.9 954.2 307.0 978.8 306.9 C 978.9 299.6 978.7 292.2 978.9 284.9 C 991.4 284.8 1003.9 284.8 1016.4 284.9 C 1016.2 295.2 1016.9 305.5 1016.3 315.8 C 1014.4 328.6 1000.8 335.0 989.0 335.2 C 960.6 335.7 932.3 335.2 904.0 335.5 C 893.9 335.9 883.1 334.5 875.0 328.0 C 868.8 323.0 866.1 314.8 866.2 307.0 C 866.2 282.7 866.2 258.4 866.2 234.0 C 866.1 225.7 870.0 217.5 876.6 212.5 Z"/>
<path fill="#ffffff" stroke="#ffffff" stroke-width="0.09375" opacity="1.00" d=" M 1027.9 204.8 C 1071.2 204.8 1114.5 204.7 1157.8 204.9 C 1157.7 214.8 1157.9 224.7 1157.7 234.6 C 1128.3 234.5 1099.0 234.5 1069.6 234.6 C 1069.5 241.5 1069.5 248.4 1069.6 255.3 C 1090.4 255.4 1111.2 255.4 1131.9 255.3 C 1132.3 265.2 1132.1 275.0 1132.0 284.8 C 1111.2 284.9 1090.4 284.8 1069.6 284.9 C 1069.5 292.2 1069.5 299.6 1069.6 307.0 C 1099.0 307.0 1128.4 306.9 1157.8 307.1 C 1157.8 316.4 1157.8 325.8 1157.8 335.2 C 1114.5 335.6 1071.2 335.4 1027.9 335.3 C 1027.8 291.8 1027.8 248.3 1027.9 204.8 Z"/>
<path fill="#ffffff" stroke="#ffffff" stroke-width="0.09375" opacity="1.00" d=" M 1164.2 205.0 C 1169.0 204.6 1173.8 204.8 1178.6 204.8 C 1178.6 205.5 1178.6 206.8 1178.5 207.4 C 1176.7 207.5 1174.9 207.5 1173.1 207.5 C 1172.8 212.3 1173.0 217.2 1172.9 222.0 C 1172.2 222.0 1171.0 221.9 1170.3 221.8 C 1170.4 217.1 1170.4 212.3 1170.3 207.5 C 1168.3 207.5 1166.3 207.5 1164.3 207.4 C 1164.3 206.8 1164.2 205.6 1164.2 205.0 Z"/>
<path fill="#ffffff" stroke="#ffffff" stroke-width="0.09375" opacity="1.00" d=" M 1181.2 204.8 C 1181.9 204.8 1183.3 204.8 1184.0 204.8 C 1186.2 207.4 1188.4 210.1 1190.7 212.7 C 1193.4 209.4 1196.1 205.8 1200.0 203.9 L 1200.0 222.9 C 1196.1 220.9 1197.6 216.3 1197.6 212.8 C 1195.2 215.8 1192.9 218.9 1190.5 221.8 C 1188.4 218.9 1186.3 215.9 1184.2 212.9 C 1184.1 215.9 1184.1 218.9 1184.0 222.0 C 1183.3 222.0 1181.9 221.9 1181.2 221.9 C 1181.1 216.2 1181.1 210.5 1181.2 204.8 Z"/>
<path fill="#ffffff" stroke="#ffffff" stroke-width="0.09375" opacity="1.00" d=" M 33.1 352.0 C 35.6 352.0 38.2 351.6 40.6 352.3 C 46.5 358.5 51.9 365.2 57.7 371.5 C 58.8 372.9 60.8 372.4 62.3 372.8 C 62.9 365.8 62.3 358.9 62.6 351.9 C 65.0 351.9 67.3 352.0 69.7 352.1 C 69.6 363.0 69.8 373.9 69.6 384.8 C 67.2 386.0 63.0 386.3 61.1 383.8 C 54.2 375.5 47.5 367.0 40.4 359.0 C 40.4 367.8 40.5 376.6 40.4 385.4 C 37.9 385.5 35.5 385.5 33.0 385.4 C 33.0 374.3 33.0 363.1 33.1 352.0 Z"/>
<path fill="#ffffff" stroke="#ffffff" stroke-width="0.09375" opacity="1.00" d=" M 92.9 357.9 C 92.9 355.4 94.0 352.0 97.0 352.0 C 105.7 351.9 114.4 351.8 123.1 352.0 C 126.7 352.0 128.8 355.8 128.6 359.1 C 128.7 367.9 128.7 376.7 128.6 385.5 C 126.5 385.5 124.4 385.5 122.3 385.5 C 122.3 381.2 122.3 376.9 122.3 372.6 C 114.3 372.5 106.3 372.5 98.4 372.6 C 98.4 376.8 98.4 381.1 98.3 385.4 C 96.5 385.4 94.7 385.4 92.8 385.4 C 92.8 376.3 92.7 367.1 92.9 357.9 M 98.4 359.0 C 98.4 361.6 98.4 364.2 98.3 366.9 C 106.3 367.0 114.3 366.9 122.2 366.9 C 122.3 364.2 122.3 361.5 122.3 358.8 C 114.3 358.9 106.3 358.6 98.4 359.0 Z"/>
<path fill="#ffffff" stroke="#ffffff" stroke-width="0.09375" opacity="1.00" d=" M 152.0 352.0 C 156.9 351.9 161.8 351.8 166.7 352.1 C 169.2 361.3 171.6 370.6 174.5 379.7 C 177.0 371.8 179.8 364.0 182.3 356.2 C 183.5 348.6 193.3 353.0 198.6 352.1 C 198.3 363.3 198.9 374.4 198.3 385.6 C 196.2 385.5 194.1 385.4 192.0 385.4 C 191.9 376.5 192.0 367.7 191.9 358.8 C 190.7 358.8 189.4 358.8 188.1 358.9 C 185.0 367.7 181.9 376.5 178.8 385.4 C 176.2 385.5 173.5 385.5 170.8 385.4 C 167.5 376.6 164.6 367.5 161.0 358.8 C 159.7 358.8 158.4 358.8 157.1 358.8 C 157.0 367.7 157.2 376.6 157.1 385.4 C 155.4 385.4 153.7 385.4 152.0 385.4 C 152.0 374.3 152.0 363.1 152.0 352.0 Z"/>
<path fill="#ffffff" stroke="#ffffff" stroke-width="0.09375" opacity="1.00" d=" M 217.4 359.2 C 217.4 354.8 221.9 351.9 225.9 352.0 C 234.7 351.8 243.6 352.0 252.4 352.0 C 252.5 354.2 252.4 356.5 252.3 358.8 C 243.8 358.8 235.3 358.7 226.8 358.8 C 226.8 365.8 226.7 372.8 226.8 379.9 C 235.4 379.9 243.9 379.8 252.4 379.9 C 252.4 381.7 252.4 383.6 252.4 385.4 C 242.6 385.5 232.8 385.6 223.0 385.4 C 220.2 385.5 217.5 383.5 217.5 380.6 C 217.2 373.5 217.4 366.3 217.4 359.2 Z"/>
<path fill="#ffffff" stroke="#ffffff" stroke-width="0.09375" opacity="1.00" d=" M 277.4 352.6 C 284.1 351.1 291.1 352.3 298.0 351.9 C 302.6 351.6 309.0 352.2 310.4 357.6 C 311.0 365.0 310.6 372.4 310.6 379.8 C 311.0 383.5 307.4 385.8 304.1 385.6 C 296.4 385.4 288.7 385.7 281.0 385.3 C 277.5 385.3 273.6 382.9 273.8 379.0 C 273.8 372.3 273.8 365.7 273.8 359.0 C 273.8 356.4 274.8 353.6 277.4 352.6 M 282.4 359.0 C 282.5 366.0 282.5 372.9 282.4 379.8 C 288.7 380.0 295.0 379.9 301.2 379.9 C 301.4 372.9 301.3 365.8 301.2 358.8 C 295.0 358.9 288.7 358.6 282.4 359.0 Z"/>
<path fill="#ffffff" stroke="#ffffff" stroke-width="0.09375" opacity="1.00" d=" M 401.0 357.9 C 400.9 354.7 403.7 351.9 406.9 352.0 C 416.0 351.9 425.1 351.9 434.2 352.0 C 434.2 354.2 434.2 356.5 434.2 358.8 C 425.7 358.9 417.3 358.7 408.8 358.8 C 408.8 361.5 408.8 364.2 408.8 366.9 C 417.8 367.2 426.8 366.4 435.7 367.3 C 439.0 370.6 437.5 375.9 437.7 380.1 C 438.0 383.3 435.0 385.6 432.0 385.5 C 421.6 385.4 411.3 385.5 400.9 385.4 C 400.9 383.6 400.9 381.7 400.9 379.9 C 410.2 379.8 419.4 380.0 428.7 379.8 C 428.6 377.4 428.6 375.0 428.6 372.5 C 420.9 372.1 412.9 373.4 405.2 371.8 C 399.5 369.7 401.0 362.7 401.0 357.9 Z"/>
<path fill="#ffffff" stroke="#ffffff" stroke-width="0.09375" opacity="1.00" d=" M 462.1 356.9 C 461.9 352.8 466.9 352.0 469.9 352.0 C 479.5 352.0 489.0 351.8 498.6 352.1 C 498.6 354.3 498.6 356.5 498.6 358.7 C 489.3 358.9 480.1 358.7 470.9 358.9 C 470.8 361.5 470.8 364.2 470.9 366.9 C 477.7 367.0 484.5 366.9 491.4 367.0 C 491.4 368.7 491.5 370.5 491.5 372.3 C 484.7 372.9 477.7 372.3 470.8 372.6 C 470.8 375.0 470.8 377.4 470.9 379.8 C 480.1 379.9 489.3 379.8 498.5 379.9 C 498.5 381.7 498.5 383.6 498.5 385.4 C 488.3 385.5 478.2 385.4 468.0 385.5 C 465.2 385.7 462.3 383.7 462.3 380.7 C 462.0 372.8 462.3 364.8 462.1 356.9 Z"/>
<path fill="#ffffff" stroke="#ffffff" stroke-width="0.09375" opacity="1.00" d=" M 523.5 358.2 C 523.5 354.4 527.3 351.8 530.9 352.0 C 540.9 351.9 550.9 351.9 560.9 352.0 C 560.8 354.3 560.8 356.5 560.8 358.8 C 551.1 358.9 541.4 358.7 531.7 358.8 C 531.6 365.8 531.5 372.9 531.7 379.9 C 538.6 379.9 545.5 379.9 552.4 379.9 C 552.4 377.4 552.5 375.0 552.4 372.6 C 548.4 372.5 544.3 372.5 540.3 372.6 C 540.3 370.7 540.2 368.9 540.2 367.1 C 547.1 366.8 553.9 366.9 560.8 367.0 C 560.3 373.0 563.3 382.1 555.8 384.8 C 547.8 386.3 539.5 385.0 531.4 385.6 C 528.3 385.9 524.0 385.2 523.7 381.4 C 523.3 373.7 523.5 365.9 523.5 358.2 Z"/>
<path fill="#ffffff" stroke="#ffffff" stroke-width="0.09375" opacity="1.00" d=" M 587.3 358.3 C 587.3 355.6 588.5 351.7 591.9 352.0 C 600.3 351.9 608.7 351.9 617.1 352.0 C 620.4 351.8 623.0 354.8 623.0 357.9 C 623.3 367.1 623.1 376.3 623.1 385.4 C 621.0 385.4 618.9 385.4 616.8 385.4 C 616.8 381.1 616.8 376.8 616.7 372.4 C 608.8 372.5 601.0 372.5 593.1 372.4 C 592.8 376.8 592.9 381.2 592.8 385.5 C 591.0 385.5 589.2 385.5 587.3 385.5 C 587.2 376.4 587.2 367.4 587.3 358.3 M 592.9 358.8 C 592.9 361.5 592.9 364.2 592.9 366.8 C 600.9 366.9 608.8 366.9 616.8 366.8 C 616.8 364.2 616.8 361.5 616.8 358.9 C 608.8 358.7 600.9 358.8 592.9 358.8 Z"/>
<path fill="#ffffff" stroke="#ffffff" stroke-width="0.09375" opacity="1.00" d=" M 706.0 351.9 C 709.1 352.2 713.2 350.8 715.2 353.9 C 720.6 360.2 726.0 366.4 731.5 372.6 C 732.9 372.5 734.2 372.4 735.5 372.3 C 735.5 365.6 735.5 358.8 735.4 352.1 C 737.8 352.0 740.2 351.9 742.7 352.1 C 742.4 363.2 743.0 374.4 742.3 385.6 C 739.6 385.2 736.0 386.5 734.2 383.8 C 727.2 375.6 720.5 367.1 713.4 359.0 C 713.4 367.8 713.4 376.6 713.3 385.4 C 710.9 385.5 708.4 385.5 706.0 385.4 C 706.0 374.3 706.0 363.1 706.0 351.9 Z"/>
<path fill="#ffffff" stroke="#ffffff" stroke-width="0.09375" opacity="1.00" d=" M 768.0 351.9 C 770.9 351.9 773.8 351.9 776.7 352.1 C 776.7 363.1 776.6 374.1 776.8 385.2 C 773.9 385.6 770.9 385.5 768.0 385.4 C 768.0 374.2 768.0 363.1 768.0 351.9 Z"/>
<path fill="#ffffff" stroke="#ffffff" stroke-width="0.09375" opacity="1.00" d=" M 802.9 352.0 C 805.7 352.3 809.5 350.8 811.6 353.4 C 816.9 359.5 822.1 365.6 827.5 371.6 C 828.7 373.1 830.7 372.4 832.3 372.6 C 832.4 365.7 832.3 358.9 832.3 352.1 C 834.7 352.0 837.0 351.9 839.4 351.9 C 839.5 363.1 839.5 374.3 839.4 385.4 C 836.7 385.1 832.9 386.6 831.0 383.9 C 824.1 375.6 817.3 367.1 810.2 358.9 C 810.2 367.8 810.3 376.6 810.2 385.4 C 807.8 385.5 805.3 385.5 802.9 385.4 C 802.9 374.3 802.8 363.1 802.9 352.0 Z"/>
<path fill="#ffffff" stroke="#ffffff" stroke-width="0.09375" opacity="1.00" d=" M 860.8 352.2 C 872.7 351.7 884.6 351.8 896.5 352.1 C 896.4 354.3 896.4 356.5 896.5 358.7 C 892.1 358.8 887.8 358.7 883.4 359.0 C 883.5 367.8 883.5 376.6 883.4 385.4 C 880.2 385.5 877.0 385.5 873.8 385.4 C 873.7 376.6 873.9 367.7 873.8 358.9 C 869.5 358.8 865.1 358.8 860.8 358.7 C 860.8 356.5 860.8 354.3 860.8 352.2 Z"/>
<path fill="#ffffff" stroke="#ffffff" stroke-width="0.09375" opacity="1.00" d=" M 918.8 352.0 C 928.9 351.9 939.0 351.9 949.0 352.0 C 949.0 354.2 949.0 356.5 949.0 358.8 C 941.8 358.9 934.6 358.5 927.4 359.0 C 927.4 361.6 927.4 364.2 927.4 366.8 C 934.6 367.0 941.8 366.8 949.1 367.0 C 949.0 368.8 948.9 370.7 948.9 372.6 C 941.7 372.5 934.6 372.4 927.5 372.6 C 927.4 375.0 927.4 377.5 927.5 379.9 C 934.7 379.9 941.8 379.8 949.0 379.9 C 949.0 381.7 949.0 383.6 949.0 385.4 C 939.0 385.5 928.9 385.5 918.8 385.4 C 918.8 374.3 918.8 363.1 918.8 352.0 Z"/>
<path fill="#ffffff" stroke="#ffffff" stroke-width="0.09375" opacity="1.00" d=" M 971.4 352.1 C 973.9 351.9 976.4 351.9 978.8 352.0 C 984.9 358.8 990.8 365.8 997.0 372.6 C 998.3 372.5 999.6 372.5 1000.9 372.4 C 1000.9 365.6 1000.9 358.8 1001.0 352.0 C 1003.3 351.9 1005.6 351.9 1008.0 352.0 C 1008.1 363.1 1008.0 374.3 1008.0 385.4 C 1005.7 385.5 1003.3 385.5 1001.0 385.5 C 993.5 376.7 986.4 367.7 978.8 358.9 C 978.7 367.7 978.8 376.5 978.8 385.3 C 976.4 385.4 974.1 385.5 971.7 385.6 C 971.0 374.4 971.7 363.2 971.4 352.1 Z"/>
<path fill="#ffffff" stroke="#ffffff" stroke-width="0.09375" opacity="1.00" d=" M 1033.4 352.1 C 1043.0 351.8 1052.5 352.0 1062.1 352.0 C 1066.1 351.6 1069.4 355.3 1069.5 359.2 C 1069.6 366.3 1069.6 373.5 1069.4 380.6 C 1069.5 383.1 1067.6 385.5 1065.0 385.5 C 1054.6 385.5 1044.2 385.4 1033.7 385.5 C 1033.1 374.4 1033.7 363.2 1033.4 352.1 M 1040.3 359.0 C 1040.3 365.9 1040.3 372.9 1040.3 379.8 C 1047.7 379.9 1055.0 379.8 1062.3 379.9 C 1062.5 372.9 1062.5 365.8 1062.4 358.8 C 1055.0 358.9 1047.7 358.6 1040.3 359.0 Z"/>
<path fill="#ffffff" stroke="#ffffff" stroke-width="0.09375" opacity="1.00" d=" M 1097.4 352.5 C 1105.2 351.2 1113.2 352.3 1121.1 352.0 C 1125.4 351.6 1130.6 354.3 1130.5 359.2 C 1130.4 366.8 1131.0 374.5 1130.2 382.1 C 1127.7 387.5 1120.7 385.0 1116.0 385.5 C 1109.2 384.7 1100.9 387.5 1095.1 382.9 C 1092.3 378.2 1094.3 372.2 1093.7 367.0 C 1094.2 362.2 1091.9 355.1 1097.4 352.5 M 1102.4 359.0 C 1102.4 365.9 1102.4 372.9 1102.4 379.8 C 1108.6 379.9 1114.9 379.9 1121.1 379.9 C 1121.3 372.8 1121.2 365.8 1121.2 358.8 C 1114.9 358.8 1108.6 358.6 1102.4 359.0 Z"/>
<path fill="#ffffff" stroke="#ffffff" stroke-width="0.09375" opacity="1.00" d=" M 354.3 364.1 C 357.7 362.9 361.5 366.5 360.3 370.0 C 359.6 373.3 355.1 374.6 352.6 372.4 C 349.6 370.2 350.7 365.0 354.3 364.1 Z"/>
<path fill="#ffffff" stroke="#ffffff" stroke-width="0.09375" opacity="1.00" d=" M 660.3 365.1 C 663.5 363.4 667.6 366.4 667.1 370.0 C 666.9 373.5 662.4 375.5 659.6 373.5 C 656.4 371.6 656.9 366.4 660.3 365.1 Z"/>
<path fill="#ffffff" stroke="#ffffff" stroke-width="0.09375" opacity="1.00" d=" M 355.5 399.5 C 365.2 399.6 375.0 399.2 384.7 399.7 C 373.7 420.5 361.8 441.0 351.1 462.0 C 508.6 461.9 666.1 462.0 823.5 461.9 C 812.3 440.9 800.0 420.5 788.9 399.5 C 799.0 399.5 809.2 399.3 819.3 399.6 C 835.8 429.3 852.9 458.6 869.3 488.3 C 681.0 488.5 492.6 488.5 304.3 488.3 C 321.1 458.6 338.3 429.0 355.5 399.5 Z"/>
</svg>