<?xml version="1.0" encoding="utf-8"?>
<svg xmlns="http://www.w3.org/2000/svg">
  <path d="M 0 56.708 L 7.677 20.478 L 18.953 20.596 L 13.154 47.136 L 28.673 47.046 L 34.141 20.559 L 43.995 20.616 L 41.555 30.982 L 110.469 0 L 70.105 53.845 L 96.629 41.241 L 101.296 20.674 L 137.473 21.003 L 135.098 30.201 L 108.59 29.811 L 107.544 34.198 L 126.254 34.309 L 124.063 43.358 L 105.143 43.087 L 104.654 46.976 L 131.643 47.136 L 129.707 56.917 L 93.112 56.547 L 94.687 48.623 L 25.417 80.96 L 57.248 34.767 L 39.387 42.788 L 36.545 57.186 L 0 56.708 Z" style="fill: rgb(255, 255, 255);"/>
  <path d="M 225.418 24.805 L 226.456 20.51 L 237.627 20.568 L 243.183 30.403 L 253.473 20.451 L 264 20.589 L 263.747 24.427 L 247.963 38.431 L 256.568 52.341 L 256.705 56.685 L 245.361 56.779 L 239.607 46.9 L 229.405 56.672 L 218.349 56.795 L 218.886 53.153 L 234.313 38.643 L 225.418 24.805 Z" style="fill: rgb(255, 255, 255);"/>
  <path d="M 189.057 46.85 L 192.468 30.463 L 208.633 30.453 L 205.419 47.102 Z M 212.304 57.149 L 220.643 20.786 L 184.369 20.779 L 176.435 57.061 Z" style="fill: rgb(255, 255, 255);"/>
  <path d="M 150.131 33.614 L 150.668 30.279 L 167.602 30.327 L 166.989 33.763 Z M 147.709 46.876 L 148.246 43.542 L 165.179 43.589 L 164.566 47.026 Z M 165.411 56.314 L 172.194 51.213 L 173.763 43.25 L 169.227 37.588 L 176.275 33.055 L 178.136 24.785 L 173.576 20.655 L 143.24 20.598 L 135.464 56.328 Z" style="fill: rgb(255, 255, 255);"/>
</svg>