<?xml version="1.0" encoding="utf-8"?>
<svg viewBox="0 0 400 107.1" version="1.1" xmlns="http://www.w3.org/2000/svg">
  <path fill="#ffffff" stroke="#ffffff" stroke-width="0.09375" opacity="1.00" d="M 91.9 0.454 C 96.2 0.454 100.6 0.454 104.9 0.454 C 109.8 9.354 114.6 18.354 119.5 27.254 C 124.6 18.354 129.8 9.454 134.9 0.454 C 143 0.454 151.1 0.454 159.3 0.454 C 159.2 12.954 159.2 25.454 159.3 37.954 C 155.3 37.954 151.3 37.954 147.3 37.954 C 147.3 25.654 147.3 13.254 147.3 0.954 C 140.5 13.254 133.7 25.654 126.8 37.954 C 122 37.954 117.2 37.954 112.5 37.954 C 105.6 25.454 98.8 12.954 91.9 0.454 Z"/>
  <path fill="#ffffff" stroke="#ffffff" stroke-width="0.09375" opacity="1.00" d="M 161.2 0.454 C 173.1 0.554 185.1 0.454 197 0.554 C 201.6 0.654 206.8 1.454 209.9 5.154 C 213 9.054 212.1 14.354 212.3 19.054 C 212.1 23.854 213.1 29.154 210.4 33.454 C 207.9 37.154 203.1 37.854 199 37.954 C 186.4 37.954 173.8 37.854 161.2 37.954 C 161.2 25.454 161.2 12.954 161.2 0.454 M 173 9.754 C 173 16.054 173 22.354 173 28.754 C 179.7 28.754 186.4 28.754 193 28.754 C 195.1 28.654 197.5 28.654 199 26.954 C 200.4 25.354 200.2 23.054 200.3 21.054 C 200.3 18.454 200.5 15.754 199.9 13.154 C 198.6 10.754 195.6 9.854 193 9.854 C 186.4 9.654 179.7 9.854 173 9.754 Z"/>
  <path fill="#ffffff" stroke="#ffffff" stroke-width="0.09375" opacity="1.00" d="M 213.6 0.454 C 227.4 0.454 241.2 0.454 255 0.454 C 255 3.554 255 6.654 255 9.654 C 245.2 9.654 235.4 9.654 225.6 9.654 C 225.6 11.554 225.6 13.354 225.6 15.254 C 234.8 15.254 244 15.254 253.3 15.254 C 253.3 17.854 253.2 20.454 253.2 23.154 C 244 23.154 234.8 23.154 225.6 23.154 C 225.6 25.054 225.6 26.954 225.6 28.854 C 235.5 28.754 245.5 28.854 255.5 28.754 C 255.5 31.854 255.5 34.854 255.5 37.954 C 241.5 37.954 227.6 37.954 213.6 37.954 C 213.7 25.454 213.7 12.954 213.6 0.454 Z"/>
  <path fill="#ffffff" stroke="#ffffff" stroke-width="0.09375" opacity="1.00" d="M 265.4 0.554 C 273.9 -0.446 282.5 0.254 291 0.054 C 295.8 0.254 301.6 0.054 305.2 3.854 C 308.6 7.754 308 13.254 308 18.054 C 307.9 23.154 308.8 28.554 306.2 33.254 C 304.1 36.754 299.8 37.854 296 38.154 C 288.7 38.554 281.3 38.354 274 38.354 C 269.8 38.154 265.3 38.454 261.3 36.654 C 258.6 35.454 256.6 32.854 256.1 29.954 C 255.2 25.754 255.7 21.354 255.5 17.054 C 255.6 13.154 255.3 8.854 257.3 5.354 C 258.9 2.454 262.2 1.054 265.4 0.554 M 273.5 9.654 C 271.3 9.854 268.9 10.854 268.2 13.154 C 267.5 15.654 267.7 18.454 267.7 21.054 C 267.7 23.254 267.7 25.954 269.7 27.354 C 272.8 29.254 276.5 28.854 280 29.054 C 284 28.954 288.1 29.254 292 28.254 C 294.1 27.954 295.5 26.054 295.8 24.054 C 296.1 21.054 296.1 17.954 295.9 14.954 C 295.7 13.254 295 11.454 293.5 10.654 C 290.8 9.454 287.8 9.554 285 9.454 C 281.2 9.454 277.3 9.254 273.5 9.654 Z"/>
  <path fill="#ffffff" stroke="#ffffff" stroke-width="0.09375" opacity="1.00" d="M 2.7 44.854 C 4.5 42.654 7.3 41.654 10 41.254 C 14.9 40.354 20 40.654 25 40.654 C 29.7 40.654 34.4 40.454 39 41.154 C 41.7 41.654 44.3 43.054 45.5 45.454 C 47 48.254 46.8 51.454 47 54.554 C 43.3 54.554 39.6 54.554 35.9 54.554 C 35.2 53.254 35 51.354 33.4 50.654 C 31.1 49.754 28.5 50.054 26 49.954 C 22.2 50.054 18.3 49.654 14.6 50.654 C 12.6 51.054 11.8 53.254 11.7 55.154 C 11.3 58.354 11.3 61.754 11.8 64.954 C 12 66.454 12.8 68.054 14.4 68.654 C 17.4 69.754 20.8 69.454 24 69.554 C 27.2 69.454 30.5 69.754 33.6 68.654 C 35.5 67.954 35.4 65.654 36 64.054 C 39.8 64.054 43.6 64.054 47.4 64.054 C 47.2 67.754 47.6 72.054 45 75.154 C 42.6 77.954 38.6 78.554 35.1 78.754 C 28.4 79.054 21.7 78.954 15 78.854 C 11 78.754 6.5 78.454 3.5 75.554 C 1.4 73.654 0.6 70.854 0 68.254 L 0 52.254 C 0.5 49.654 0.9 46.854 2.7 44.854 Z"/>
  <path fill="#ffffff" stroke="#ffffff" stroke-width="0.09375" opacity="1.00" d="M 57.3 41.454 C 62.8 40.254 68.4 40.754 74 40.654 C 79.9 40.754 85.9 40.254 91.7 41.454 C 94.9 42.154 97.5 44.554 98.5 47.654 C 99.6 51.354 99.3 55.254 99.4 59.054 C 99.3 62.754 99.6 66.454 98.9 70.154 C 98.4 73.254 96.4 76.254 93.4 77.454 C 89.8 78.954 85.8 78.754 82 78.854 C 75.3 78.954 68.6 79.054 61.9 78.754 C 58.2 78.554 54 77.654 51.6 74.354 C 49.2 70.854 49.6 66.154 49.5 62.054 C 49.6 57.354 49.1 52.654 50.3 48.054 C 51.2 44.754 54 42.154 57.3 41.454 M 65.3 50.454 C 63.3 50.754 61.7 52.254 61.4 54.254 C 60.8 58.054 60.7 61.954 61.5 65.654 C 62.1 68.254 64.8 69.154 67.1 69.254 C 71.7 69.654 76.3 69.554 80.9 69.354 C 83.3 69.254 86.4 68.754 87.3 66.154 C 88.1 63.854 88 61.454 88 59.054 C 87.9 56.554 88.1 53.754 86.3 51.754 C 83.9 49.954 80.8 50.154 78 50.054 C 73.8 50.154 69.5 49.654 65.3 50.454 Z"/>
  <path fill="#ffffff" stroke="#ffffff" stroke-width="0.09375" opacity="1.00" d="M 102.6 41.054 C 108.5 41.054 114.4 41.054 120.3 41.054 C 124.9 48.854 129.6 56.554 134.2 64.354 C 139 56.554 143.7 48.754 148.4 41.054 C 154.2 41.054 160.1 41.054 165.9 41.054 C 165.9 53.554 165.9 65.954 165.9 78.454 C 162 78.454 158.1 78.454 154.2 78.454 C 154.3 69.554 154.3 60.754 154.2 51.954 C 148.9 60.754 143.5 69.654 138.1 78.454 C 135.5 78.454 132.8 78.454 130.2 78.454 C 124.9 69.554 119.6 60.754 114.2 51.954 C 114.3 60.754 114.2 69.554 114.3 78.354 C 110.4 78.454 106.5 78.454 102.6 78.454 C 102.5 65.954 102.6 53.554 102.6 41.054 Z"/>
  <path fill="#ffffff" stroke="#ffffff" stroke-width="0.09375" opacity="1.00" d="M 168.7 41.054 C 179.1 41.054 189.6 41.054 200 41.054 C 203.5 41.154 207.5 41.354 210.3 43.754 C 213 45.954 213.7 49.654 213.9 53.054 C 214.1 56.854 214 60.854 212.4 64.454 C 210.9 67.554 207.3 69.054 204 69.054 C 196 69.154 188.1 69.054 180.1 69.154 C 180 72.254 180 75.354 180 78.454 C 176.3 78.454 172.5 78.454 168.7 78.354 C 168.7 65.954 168.7 53.454 168.7 41.054 M 180 50.454 C 180 53.554 180 56.654 180 59.754 C 184 59.854 188 59.754 192 59.854 C 195.2 59.754 198.5 60.054 201.6 59.154 C 202.3 56.654 203.1 53.754 201.5 51.454 C 200.3 50.254 198.6 50.454 197 50.454 C 191.4 50.454 185.7 50.454 180 50.454 Z"/>
  <path fill="#ffffff" stroke="#ffffff" stroke-width="0.09375" opacity="1.00" d="M 215 41.054 C 218.8 41.054 222.7 41.054 226.6 41.054 C 226.6 48.354 226.5 55.754 226.6 63.054 C 226.6 65.154 226.9 67.854 229.2 68.754 C 232.3 69.754 235.7 69.454 239 69.554 C 242 69.454 245.1 69.754 248 68.854 C 250.4 68.054 250.9 65.354 250.9 63.154 C 251 55.754 250.9 48.354 250.9 41.054 C 254.8 41.054 258.7 41.054 262.6 41.054 C 262.6 49.754 262.7 58.454 262.6 67.054 C 262.6 70.554 261.6 74.554 258.5 76.454 C 255.1 78.554 250.9 78.754 247 78.854 C 241.7 78.954 236.3 78.954 231 78.854 C 227.1 78.754 223 78.454 219.4 76.654 C 216.3 75.054 215 71.354 215 68.054 C 214.8 59.054 214.9 50.054 215 41.054 Z"/>
  <path fill="#ffffff" stroke="#ffffff" stroke-width="0.09375" opacity="1.00" d="M 265.4 41.054 C 279.4 41.054 293.5 41.054 307.6 41.054 C 307.6 44.054 307.6 47.154 307.6 50.154 C 302.4 50.254 297.2 50.254 292.1 50.254 C 292.1 59.654 292.1 69.054 292.1 78.454 C 288.3 78.454 284.6 78.454 280.8 78.454 C 280.8 69.054 280.8 59.654 280.8 50.254 C 275.7 50.254 270.5 50.254 265.4 50.154 C 265.4 47.154 265.4 44.054 265.4 41.054 Z"/>
  <path fill="#ffffff" stroke="#ffffff" stroke-width="0.09375" opacity="1.00" d="M 310.3 41.054 C 324 41.054 337.6 41.054 351.3 41.054 C 351.3 44.154 351.2 47.154 351.2 50.254 C 341.3 50.254 331.5 50.254 321.6 50.254 C 321.6 52.054 321.6 53.954 321.6 55.854 C 330.9 55.754 340.2 55.854 349.6 55.754 C 349.6 58.454 349.6 61.054 349.6 63.654 C 340.2 63.654 330.9 63.654 321.6 63.654 C 321.6 65.554 321.6 67.454 321.6 69.354 C 331.6 69.354 341.6 69.354 351.7 69.354 C 351.7 72.354 351.7 75.454 351.7 78.454 C 337.9 78.454 324.1 78.454 310.3 78.454 C 310.3 65.954 310.3 53.554 310.3 41.054 Z"/>
  <path fill="#ffffff" stroke="#ffffff" stroke-width="0.09375" opacity="1.00" d="M 354 41.054 C 364 41.054 374 41.054 384 41.054 C 388.1 41.154 392.4 41.054 396 43.154 C 398.6 44.554 399.4 47.654 400 50.354 L 400 55.954 C 399.8 59.454 397.8 62.654 394.3 63.654 C 396.4 64.654 398.7 65.654 399.3 68.154 C 400.1 71.454 399.7 74.954 399.7 78.454 C 396 78.454 392.2 78.454 388.5 78.454 C 388.4 75.654 388.7 72.854 387.9 70.154 C 386.6 68.854 384.7 69.054 383 68.954 C 377.2 68.854 371.3 68.954 365.4 68.954 C 365.4 72.154 365.4 75.254 365.4 78.454 C 361.6 78.454 357.8 78.454 354 78.454 C 354 65.954 354 53.554 354 41.054 M 365.4 50.454 C 365.4 53.454 365.4 56.454 365.5 59.554 C 371 59.454 376.5 59.454 382 59.554 C 383.9 59.454 385.9 59.754 387.5 58.554 C 389 56.354 388.5 53.554 387.8 51.154 C 386.2 50.754 384.6 50.354 383 50.454 C 377.2 50.454 371.3 50.454 365.4 50.454 Z"/>
  <path fill="#ffffff" stroke="#ffffff" stroke-width="0.09375" opacity="1.00" d="M 113.1 83.054 C 114.2 83.054 115.3 83.054 116.4 83.054 C 120.2 89.954 124 96.954 127.8 103.954 C 131.6 97.054 135.2 89.954 139 83.054 C 139.8 83.054 141.5 83.054 142.3 83.054 C 138.3 91.054 134.2 99.054 130.2 107.054 C 128.6 107.054 127.1 107.054 125.5 107.054 C 121.4 99.054 117.2 91.054 113.1 83.054 Z"/>
  <path fill="#ffffff" stroke="#ffffff" stroke-width="0.09375" opacity="1.00" d="M 143.2 84.154 C 147.2 82.554 151.7 83.154 156 82.954 C 159.5 83.154 163.4 82.554 166.5 84.554 C 168.5 86.054 168 88.854 168.3 90.954 C 167.6 91.054 166.1 91.054 165.4 91.054 C 165.1 89.554 164.8 88.054 164.4 86.654 C 157.9 85.554 151.2 85.454 144.8 86.754 C 143.3 92.154 143.5 97.954 144.7 103.354 C 149.4 104.454 154.2 104.054 159 104.054 C 161.1 104.054 163.1 103.754 165.1 102.954 C 165.1 101.554 165.3 100.154 165.4 98.754 C 166.2 98.754 167.8 98.754 168.6 98.754 C 168.3 100.754 168.5 102.854 167.7 104.654 C 166.2 106.754 163.4 106.854 161 106.954 C 156.3 107.054 151.6 107.154 146.9 106.754 C 144.7 106.654 142.2 105.954 141.4 103.754 C 140.2 100.054 140.5 95.954 140.5 92.054 C 140.7 89.354 140.7 85.954 143.2 84.154 Z"/>
  <path fill="#ffffff" stroke="#ffffff" stroke-width="0.09375" opacity="1.00" d="M 175.7 98.254 C 181.8 93.154 187.9 88.054 194 83.054 C 195.5 83.054 197.1 83.054 198.6 83.054 C 198.6 88.354 198.6 93.754 198.6 99.154 C 199.5 99.154 201.1 99.154 201.9 99.154 C 202 99.854 202 101.254 202 101.954 C 201.1 101.954 199.5 102.054 198.6 102.054 C 198.6 103.654 198.6 105.354 198.6 107.054 C 197.9 107.054 196.4 107.054 195.7 107.054 C 195.7 105.354 195.7 103.654 195.7 102.054 C 189 101.954 182.4 101.954 175.7 102.054 C 175.7 101.054 175.7 99.154 175.7 98.254 M 179.5 99.154 C 184.9 99.154 190.3 99.154 195.7 99.154 C 195.7 94.654 195.7 90.254 195.7 85.854 C 190.3 90.254 184.8 94.654 179.5 99.154 Z"/>
  <path fill="#ffffff" stroke="#ffffff" stroke-width="0.09375" opacity="1.00" d="M 207.3 83.554 C 211.8 82.654 216.5 83.054 221 83.054 C 223.4 83.254 226.2 83.154 228.1 84.954 C 230.1 87.154 229.7 90.354 229.9 93.054 C 229.8 96.654 230.1 100.554 228.8 104.054 C 227.6 106.554 224.5 106.754 222.1 106.954 C 217.3 107.054 212.4 107.354 207.7 106.554 C 205.4 106.254 203.5 104.354 203.2 102.054 C 202.6 97.454 202.7 92.654 203.3 88.054 C 203.5 85.854 205.1 83.854 207.3 83.554 M 206.8 86.854 C 205.7 92.254 205.5 97.854 206.9 103.154 C 211.8 104.654 217 104.254 222.1 104.054 C 223.8 103.954 226.2 103.354 226.3 101.254 C 227.1 96.554 226.9 91.654 226 86.954 C 224.1 86.254 222 85.854 220 85.854 C 215.6 85.854 211 85.454 206.8 86.854 Z"/>
  <path fill="#ffffff" stroke="#ffffff" stroke-width="0.09375" opacity="1.00" d="M 235.4 83.554 C 240.5 82.554 245.9 83.054 251.1 83.154 C 253.7 83.154 256.8 84.254 257.7 87.054 C 258.5 90.954 258.2 95.054 258.1 99.054 C 257.9 101.354 257.8 104.354 255.6 105.754 C 253.3 106.954 250.6 106.854 248 107.054 C 243.9 107.054 239.8 107.354 235.8 106.454 C 233.4 106.054 231.7 104.054 231.5 101.654 C 231 97.154 231 92.654 231.6 88.154 C 231.7 86.054 233.3 84.054 235.4 83.554 M 234.4 91.954 C 234.4 95.554 233.8 99.454 235.3 102.854 C 238.1 104.654 241.8 104.054 245 104.154 C 248 103.954 251.3 104.554 254 103.054 C 255.9 97.954 255.2 92.054 254.3 86.854 C 248.7 85.354 242.8 85.654 237.1 86.254 C 234.3 86.554 234.6 89.954 234.4 91.954 Z"/>
  <path fill="#ffffff" stroke="#ffffff" stroke-width="0.09375" opacity="1.00" d="M 264.3 83.554 C 268.8 82.654 273.5 83.054 278 83.054 C 280.4 83.254 283.2 83.154 285.1 84.954 C 286.9 86.854 286.7 89.654 286.9 92.054 C 286.8 96.054 287.2 100.154 285.8 104.054 C 284.6 106.554 281.5 106.754 279.1 106.954 C 274.3 107.054 269.4 107.354 264.7 106.554 C 262.4 106.254 260.5 104.354 260.2 102.054 C 259.6 97.454 259.6 92.654 260.3 88.054 C 260.5 85.854 262.1 83.854 264.3 83.554 M 263.8 86.854 C 262.7 92.254 262.5 97.854 263.9 103.154 C 268.8 104.654 274 104.254 279.1 104.054 C 280.8 103.954 283.2 103.354 283.3 101.254 C 284.1 96.554 283.9 91.654 283 86.954 C 281.1 86.254 279 85.854 277 85.854 C 272.6 85.854 268 85.454 263.8 86.854 Z"/>
</svg>