<?xml version="1.0" encoding="utf-8"?>
<svg viewBox="0 0 339.6 67.1" version="1.1" id="svg30602" xmlns="http://www.w3.org/2000/svg">
  <path d="M 71.048 11.008 L 33.046 65.531 L 0 11.008 L 19.337 0 L 35.525 30.836 L 50.394 0 L 71.048 11.008 Z" style="fill-opacity: 1; fill-rule: nonzero; stroke-width: 1.54833; stroke-linecap: butt; stroke-linejoin: miter; stroke-miterlimit: 3.864; stroke-dasharray: none; stroke-opacity: 1; fill: rgb(255, 255, 255);" id="path14927"/>
  <path d="M 209.84 62.227 L 198.444 67.018 L 191.977 42.4 L 179.893 62.371 L 162.777 41.574 L 156.233 67.018 L 142.097 62.227 L 156.659 7.537 L 177.609 34.965 L 198.753 7.537 L 209.84 62.227 Z" style="fill-opacity: 1; fill-rule: nonzero; stroke-width: 1.54833; stroke-linecap: butt; stroke-linejoin: miter; stroke-miterlimit: 3.864; stroke-dasharray: none; stroke-opacity: 1; fill: rgb(255, 255, 255);" id="path14929"/>
  <path d="M 220.476 7.537 L 238.755 7.537 L 238.755 67.018 L 220.476 67.018 L 220.476 7.537 Z" style="fill-opacity: 1; fill-rule: nonzero; stroke-width: 1.54833; stroke-linecap: butt; stroke-linejoin: miter; stroke-miterlimit: 3.864; stroke-dasharray: none; stroke-opacity: 1; fill: rgb(255, 255, 255);" id="path14931"/>
  <path d="M 289.546 67.018 L 253.105 67.018 L 253.105 7.537 L 270.149 7.537 L 270.149 56.833 L 289.546 56.833 L 289.546 67.018 Z" style="fill-opacity: 1; fill-rule: nonzero; stroke-width: 1.54833; stroke-linecap: butt; stroke-linejoin: miter; stroke-miterlimit: 3.864; stroke-dasharray: none; stroke-opacity: 1; fill: rgb(255, 255, 255);" id="path14933"/>
  <path d="M 339.602 67.018 L 299.063 67.018 L 299.063 7.537 L 338.286 7.537 L 338.286 17.8 L 317.219 17.8 L 317.219 33.677 L 339.137 33.677 L 339.137 40.259 L 317.219 40.259 L 317.219 56.833 L 339.602 56.833 L 339.602 67.018 Z" style="fill-opacity: 1; fill-rule: nonzero; stroke-width: 1.54833; stroke-linecap: butt; stroke-linejoin: miter; stroke-miterlimit: 3.864; stroke-dasharray: none; stroke-opacity: 1; fill: rgb(255, 255, 255);" id="path14935"/>
  <path d="M 127.795 11.077 C 122.56 8.902 115.552 7.983 109.999 8.664 C 98.968 10.019 91.904 18.301 93.277 29.477 C 94.585 40.142 100.789 41.753 110.089 43.207 C 113.264 43.707 119.06 44.404 119.553 48.421 C 120.028 52.293 116.655 54.412 113.295 54.825 C 108.4 55.426 103.849 53.389 99.884 50.687 L 95.165 62.982 C 101.275 66.236 108.355 67.74 115.295 66.887 C 120.847 66.206 126.43 63.963 130.291 59.782 C 134.216 55.519 134.841 49.732 134.168 44.254 C 133.074 35.341 126.681 32.197 118.733 30.875 L 114.946 30.227 C 112.364 29.728 108.34 28.963 107.945 25.748 C 107.569 22.681 110.886 20.715 113.516 20.393 C 117.023 19.962 120.562 21.01 123.461 22.879 L 127.795 11.077 Z" style="fill-opacity: 1; fill-rule: nonzero; stroke-width: 1.54833; stroke-linecap: butt; stroke-linejoin: miter; stroke-miterlimit: 3.864; stroke-dasharray: none; stroke-opacity: 1; fill: rgb(255, 255, 255);" id="path14937"/>
  <path d="M 58.384 49.885 C 54.561 49.885 51.502 52.944 51.502 56.767 C 51.502 60.531 54.561 63.647 58.384 63.647 C 62.207 63.647 65.265 60.531 65.265 56.767 C 65.265 52.944 62.207 49.885 58.384 49.885 Z" style="fill-opacity: 1; fill-rule: nonzero; stroke-width: 1.54833; stroke-linecap: butt; stroke-linejoin: miter; stroke-miterlimit: 3.864; stroke-dasharray: none; stroke-opacity: 1; fill: rgb(255, 255, 255);" id="path14939"/>
</svg>