<?xml version="1.0" encoding="UTF-8" ?>
<!DOCTYPE svg PUBLIC "-//W3C//DTD SVG 1.1//EN" "http://www.w3.org/Graphics/SVG/1.1/DTD/svg11.dtd">
<svg width="1875pt" height="828pt" viewBox="0 0 1875 828" version="1.1" xmlns="http://www.w3.org/2000/svg">
<path fill="#ffffff" stroke="#ffffff" stroke-width="0.09375" opacity="1.00" d=" M 81.7 29.3 C 82.0 29.0 82.5 28.5 82.8 28.2 C 90.2 28.2 97.6 28.2 105.0 28.2 C 106.9 27.9 108.0 29.6 108.9 31.0 C 110.7 34.5 112.7 38.1 112.7 42.1 C 112.9 42.5 113.2 43.3 113.4 43.6 C 111.3 45.8 109.2 48.1 106.6 49.7 C 105.3 50.4 104.5 51.7 103.8 53.1 C 108.5 51.8 113.1 49.9 116.8 46.8 C 117.7 43.5 116.8 39.7 118.5 36.5 C 123.1 33.9 127.9 31.6 131.9 28.3 C 139.3 28.1 146.7 28.1 154.1 28.3 C 152.6 30.8 151.0 33.2 150.1 36.0 C 155.6 37.6 161.3 37.9 167.0 37.3 C 171.3 36.2 175.5 34.5 179.3 32.2 C 182.5 30.2 186.1 28.5 190.0 28.2 C 301.3 28.2 412.7 28.2 524.0 28.2 C 526.5 28.1 528.7 29.3 531.0 30.0 C 534.8 28.6 539.0 29.3 542.9 29.2 C 542.7 30.7 542.4 32.2 542.0 33.7 C 545.9 33.1 549.0 30.7 551.9 28.3 C 576.0 28.1 600.0 28.3 624.1 28.2 C 624.4 31.0 625.1 33.9 626.6 36.4 C 628.3 38.4 630.2 40.1 632.1 41.9 C 634.1 44.0 637.2 45.2 638.6 47.9 C 637.7 51.3 636.3 54.6 634.5 57.6 C 617.5 82.9 600.6 108.4 583.7 133.7 C 582.6 135.3 581.1 136.5 579.7 137.7 C 577.5 136.0 575.3 133.2 572.2 134.3 C 569.3 135.9 566.3 137.7 564.3 140.3 C 564.5 142.6 565.6 144.7 565.4 147.0 C 565.8 151.0 561.5 153.7 558.0 153.9 C 556.4 153.8 556.2 155.6 555.5 156.6 C 553.1 161.1 548.7 163.8 544.8 166.8 C 547.2 167.5 549.7 168.2 552.2 168.9 C 552.2 169.8 552.2 171.6 552.2 172.4 C 549.7 172.9 547.4 171.5 544.9 171.5 C 544.7 174.0 543.9 176.3 543.7 178.8 C 545.9 179.7 548.5 180.5 549.5 182.9 C 549.7 185.0 548.3 186.7 547.3 188.3 C 528.7 216.1 510.2 243.9 491.7 271.7 C 490.5 273.5 489.4 275.3 487.8 276.8 C 486.4 278.1 484.5 278.7 483.1 279.9 C 481.3 285.4 479.7 291.2 475.5 295.5 C 470.6 299.9 469.2 306.9 464.4 311.4 C 462.1 314.2 458.8 315.9 455.9 317.9 C 455.3 320.4 455.9 323.0 455.5 325.6 C 454.2 329.2 451.6 332.1 449.4 335.2 C 444.2 344.0 438.1 352.1 432.6 360.7 C 375.9 445.9 319.0 531.1 262.3 616.3 C 260.0 619.4 258.5 623.3 255.0 625.3 C 251.8 627.1 249.1 629.7 246.0 631.7 C 243.6 631.6 241.6 628.5 241.6 626.1 C 240.4 627.9 239.3 630.4 237.0 630.9 C 234.9 629.4 233.1 627.5 230.8 626.3 C 228.9 626.2 228.8 628.9 227.9 630.1 C 230.0 630.8 232.2 631.4 234.3 632.0 C 234.4 634.6 234.4 637.2 234.3 639.8 C 232.7 640.5 231.5 641.6 230.7 643.0 C 234.7 643.5 239.0 642.4 242.8 644.2 C 240.6 649.1 237.5 653.3 234.8 657.8 C 232.2 661.5 229.3 665.0 227.6 669.3 C 231.7 669.4 235.9 669.3 240.0 669.4 C 299.7 669.4 359.3 669.3 419.0 669.4 C 420.2 669.3 421.3 669.2 422.5 668.9 C 422.6 666.8 422.9 664.7 423.7 662.7 C 425.6 657.7 427.6 652.7 428.6 647.4 C 429.9 642.3 432.9 637.9 434.8 633.0 C 437.5 626.1 441.6 619.9 444.8 613.2 C 446.1 610.9 447.3 608.6 447.8 606.1 C 448.3 603.5 450.3 601.6 451.5 599.3 C 452.6 597.1 452.4 594.5 452.4 592.0 C 445.3 592.0 438.1 592.1 431.0 592.1 C 427.0 592.2 423.1 591.0 419.6 589.4 C 417.5 587.8 415.8 585.8 414.6 583.5 C 412.9 579.9 412.7 575.8 410.7 572.3 C 409.4 570.0 408.2 567.5 405.5 566.5 C 408.9 562.8 413.5 566.9 417.4 566.7 C 419.4 564.9 420.7 562.6 421.4 560.0 C 422.9 560.2 424.5 560.3 425.6 561.4 C 432.9 567.1 439.0 574.5 447.6 578.6 C 450.9 580.3 455.5 579.8 457.6 576.5 C 461.8 572.2 460.3 565.6 462.8 560.6 C 462.9 559.9 463.0 558.6 463.1 558.0 C 464.4 556.8 465.6 554.8 467.6 555.4 C 470.7 557.0 473.5 559.4 477.0 560.0 C 479.9 560.0 482.0 557.3 482.6 554.7 C 483.6 550.8 484.5 546.9 485.8 543.1 C 487.1 534.0 490.4 525.0 489.0 515.7 C 488.9 509.3 486.8 503.3 486.2 497.0 C 485.9 494.1 485.5 491.1 484.4 488.3 C 484.1 488.1 483.5 487.6 483.2 487.4 C 481.5 489.0 479.7 490.6 478.7 492.7 C 476.8 496.6 477.0 501.0 477.5 505.1 C 478.3 509.1 477.9 513.3 477.9 517.4 C 474.8 516.4 472.5 513.8 470.7 511.2 C 468.7 507.1 466.9 502.6 466.5 498.0 C 466.2 496.2 465.5 494.4 464.9 492.6 C 463.4 492.8 462.0 492.9 460.6 493.6 C 456.1 495.5 451.3 496.8 446.8 498.6 C 443.5 499.3 439.7 499.5 437.0 497.2 C 434.1 495.6 434.2 492.0 433.6 489.2 C 432.5 484.2 433.7 479.1 434.3 474.1 C 434.9 471.1 435.4 467.7 438.1 465.7 C 438.0 465.3 437.7 464.5 437.6 464.1 C 435.3 462.1 432.1 461.2 429.7 459.3 C 425.3 456.0 420.0 453.8 416.1 449.9 C 413.2 447.2 409.0 444.9 408.9 440.4 C 416.7 437.8 424.7 434.9 433.0 435.3 C 441.1 434.9 449.2 436.5 457.0 438.6 C 459.8 437.9 462.8 437.0 464.3 434.3 C 465.6 430.0 465.2 425.4 466.1 421.0 C 466.8 417.3 466.2 413.4 467.8 410.0 C 470.7 402.3 473.6 394.5 478.0 387.5 C 481.9 389.2 485.1 392.4 486.7 396.4 C 489.8 401.2 492.2 406.4 493.5 412.0 C 494.9 417.1 492.5 423.2 496.2 427.7 C 498.4 428.2 500.8 428.1 503.0 428.0 C 505.5 427.2 507.5 425.4 509.9 424.4 C 515.9 422.2 521.8 419.4 528.0 417.9 C 534.3 416.5 540.5 415.0 546.9 414.2 C 546.6 419.8 545.2 425.5 542.5 430.5 C 537.9 437.6 530.6 442.1 523.9 447.1 C 522.2 447.5 520.0 447.7 519.0 449.5 C 522.4 453.0 526.1 456.2 530.3 458.7 C 533.3 460.5 535.9 463.0 538.4 465.6 C 541.6 468.3 542.7 473.0 542.3 477.1 C 536.2 474.7 532.3 468.8 526.0 466.8 C 523.8 465.7 521.2 467.8 520.7 470.0 C 521.3 474.1 523.6 477.8 524.2 482.0 C 525.3 485.5 523.6 489.6 520.6 491.6 C 516.7 494.5 511.5 494.0 506.9 493.7 C 503.3 492.8 499.9 490.9 496.4 489.6 C 494.9 488.7 493.2 488.2 491.5 488.2 C 491.2 492.8 492.5 497.4 492.4 502.0 C 494.4 514.8 495.1 528.2 492.1 541.0 C 495.1 540.7 497.5 538.6 499.5 536.5 C 501.9 534.1 504.3 531.6 505.8 528.5 C 507.6 525.2 511.5 524.3 514.8 523.1 C 510.6 528.2 506.6 533.7 503.7 539.7 C 501.6 542.9 498.8 545.6 496.8 548.8 C 494.3 553.2 491.0 557.2 489.5 562.1 C 489.9 563.4 490.7 564.0 491.9 564.2 C 495.9 564.4 499.8 563.9 503.7 564.4 C 504.9 565.9 504.5 568.1 504.3 569.9 C 502.0 573.0 497.5 573.2 495.0 576.1 C 495.1 576.4 495.2 577.2 495.3 577.5 C 499.2 579.6 503.6 579.9 507.9 579.1 C 512.4 578.3 517.1 578.2 521.5 579.8 C 520.5 582.5 517.3 582.5 515.0 583.2 C 510.7 582.7 506.2 581.6 502.0 583.3 C 502.9 584.7 503.8 586.1 505.5 586.5 C 508.0 586.7 510.6 586.5 513.1 587.3 C 510.3 589.8 506.6 590.8 503.0 590.6 C 497.8 590.9 493.0 588.8 488.0 587.9 C 484.8 587.4 481.6 586.8 478.4 586.5 C 479.4 590.4 482.7 592.8 486.4 593.9 C 489.7 594.6 492.8 592.5 496.0 593.1 C 498.3 593.6 500.6 595.5 500.4 598.0 C 500.1 599.6 499.4 601.2 498.8 602.7 C 495.3 602.7 491.5 603.4 488.2 601.7 C 484.4 600.0 480.4 599.1 476.3 598.1 C 474.9 604.2 472.2 611.5 465.6 613.5 C 461.7 615.0 457.6 611.7 453.8 613.7 C 450.5 615.8 448.2 619.3 447.0 623.0 C 446.3 625.1 444.6 626.8 443.8 628.9 C 442.2 633.4 439.7 637.5 438.1 641.9 C 435.3 646.8 434.2 652.3 432.6 657.6 C 431.3 661.4 430.2 665.3 430.3 669.4 C 457.6 669.4 484.8 669.3 512.1 669.4 C 515.6 666.8 518.9 664.0 521.9 660.9 C 525.5 658.7 528.0 655.1 531.4 652.6 C 535.0 650.1 537.5 646.5 541.2 644.1 C 544.7 640.6 548.8 637.8 552.2 634.2 C 556.2 631.6 559.1 627.7 563.0 625.1 C 566.3 621.9 569.6 618.5 574.0 616.9 C 574.8 616.9 576.4 616.9 577.2 616.9 C 576.7 618.6 575.5 620.2 575.7 622.0 C 576.4 624.9 577.0 627.9 578.6 630.4 C 581.9 632.9 586.1 631.3 589.1 629.1 C 591.1 627.5 593.5 626.2 594.9 623.9 C 595.9 622.3 597.2 620.9 598.5 619.6 C 600.3 619.7 602.1 619.7 603.9 619.7 C 603.9 616.3 600.8 614.1 599.5 611.2 C 597.2 612.0 594.8 612.6 592.6 613.6 C 589.1 615.7 591.1 620.4 590.7 623.7 C 588.8 622.5 586.9 621.4 585.1 620.1 C 585.6 618.0 587.3 616.2 586.8 614.0 C 586.0 611.7 584.7 609.7 583.3 607.8 C 585.4 605.7 587.5 603.3 590.0 601.7 C 593.3 599.4 595.4 595.9 598.7 593.7 C 600.5 592.5 602.0 591.0 603.5 589.5 C 605.3 587.6 607.7 586.4 609.5 584.5 C 611.2 582.7 612.9 580.7 615.0 579.3 C 617.7 577.6 619.6 574.9 622.3 573.2 C 625.2 570.9 627.6 567.8 630.8 565.8 C 634.0 562.2 638.3 559.9 641.3 556.2 C 641.2 529.1 641.3 502.1 641.2 475.0 C 641.1 470.0 643.5 465.4 646.8 461.7 C 646.8 458.2 646.8 454.7 646.8 451.2 C 646.4 450.9 645.6 450.2 645.1 449.8 C 645.0 447.0 645.0 443.9 646.6 441.5 C 648.1 439.7 649.9 438.2 651.6 436.5 C 651.6 431.5 651.6 426.4 651.6 421.4 C 648.2 418.6 645.9 414.2 641.3 413.3 C 641.1 360.2 641.3 307.1 641.2 254.0 C 641.0 251.9 642.0 249.9 643.5 248.5 C 645.1 247.1 646.1 245.2 647.5 243.6 C 649.9 241.5 653.2 241.8 656.2 241.8 C 654.6 239.2 652.7 236.9 651.0 234.4 C 649.2 234.4 647.3 234.4 645.5 234.5 C 643.4 230.6 641.9 226.4 641.3 222.0 C 641.1 216.3 641.3 210.6 641.2 204.9 C 638.3 202.1 635.6 199.1 632.7 196.3 C 626.1 191.6 621.2 185.1 615.1 179.9 C 612.7 178.2 610.5 176.1 608.5 173.9 C 610.0 172.3 611.7 170.9 612.9 169.1 C 614.5 165.2 614.0 160.8 615.3 156.9 C 620.6 155.6 625.5 153.2 630.7 151.5 C 633.3 150.5 636.2 150.9 639.0 150.8 C 656.7 150.8 674.3 150.9 692.0 150.8 C 694.8 150.8 697.7 151.4 700.1 152.9 C 700.8 154.9 699.5 157.0 699.2 159.0 C 698.6 162.2 696.6 164.9 695.1 167.7 C 699.3 166.4 703.8 163.9 708.1 165.9 C 710.9 163.6 714.0 161.7 717.5 160.5 C 718.2 159.0 718.7 157.4 719.3 155.9 C 718.1 154.4 716.8 152.9 715.9 151.2 C 719.9 150.6 723.9 150.9 728.0 150.9 C 762.7 150.8 797.3 150.9 832.0 150.8 C 833.6 150.9 835.3 150.6 836.9 151.2 C 838.5 152.5 839.9 154.1 841.4 155.7 C 842.2 155.6 843.8 155.6 844.6 155.5 C 844.9 158.3 843.4 160.7 842.7 163.2 C 846.7 162.1 850.1 159.7 853.6 157.7 C 853.4 156.2 853.2 154.7 853.1 153.2 C 855.3 152.3 857.4 150.7 860.0 150.8 C 900.7 150.9 941.4 150.7 982.1 150.9 C 985.6 153.2 989.7 154.9 994.0 154.7 C 998.2 154.3 1002.2 152.7 1006.0 151.0 C 1007.7 150.7 1009.3 150.9 1011.0 150.8 C 1043.4 150.9 1075.8 150.7 1108.2 150.9 C 1108.4 154.3 1106.7 157.6 1107.2 161.0 C 1107.0 162.6 1109.1 162.8 1110.0 163.6 C 1109.8 165.0 1108.5 165.7 1107.4 166.5 C 1100.5 172.3 1092.9 177.2 1085.9 182.9 C 1083.4 185.0 1080.1 185.3 1077.2 186.6 C 1077.4 183.9 1077.5 181.0 1075.2 179.2 C 1077.8 177.8 1080.5 176.6 1082.9 174.8 C 1079.5 173.0 1075.7 173.4 1072.0 173.4 C 1071.5 172.9 1070.4 171.8 1069.9 171.2 C 1066.9 174.1 1063.4 176.8 1059.2 177.5 C 1059.9 179.3 1060.8 181.2 1059.9 183.1 C 1058.7 185.9 1060.4 189.3 1058.4 191.8 C 1060.0 191.6 1061.6 191.0 1063.1 190.2 C 1065.0 191.3 1066.9 192.4 1068.8 193.6 C 1068.7 193.9 1068.6 194.3 1068.6 194.6 C 1065.1 198.5 1061.1 202.1 1056.6 204.9 C 1056.7 207.9 1056.4 210.9 1055.4 213.7 C 1054.5 216.4 1054.8 219.2 1054.6 222.0 C 1054.2 224.1 1053.0 225.9 1052.7 228.0 C 1053.1 230.2 1055.8 231.6 1055.2 234.0 C 1055.3 241.7 1054.8 249.3 1055.2 257.0 C 1055.2 276.7 1054.8 296.3 1055.2 316.0 C 1054.8 324.6 1055.2 333.3 1055.0 341.9 C 1053.1 343.2 1050.3 343.6 1049.2 345.7 C 1051.4 347.2 1053.6 348.8 1055.4 350.8 C 1055.0 354.2 1055.3 357.6 1055.3 361.0 C 1055.2 388.3 1055.3 415.7 1055.2 443.0 C 1055.9 448.6 1056.4 454.4 1055.4 460.1 C 1055.3 467.7 1054.8 475.3 1055.2 483.0 C 1055.5 494.2 1054.9 505.5 1055.4 516.7 C 1056.1 515.3 1055.6 513.5 1055.8 512.0 C 1055.7 502.0 1055.9 492.0 1055.6 482.0 C 1054.2 476.7 1056.0 471.4 1055.8 466.0 C 1055.8 458.7 1056.1 451.3 1055.8 444.0 C 1055.7 415.3 1055.8 386.7 1055.7 358.0 C 1055.8 355.7 1055.7 353.4 1056.1 351.1 C 1056.9 354.3 1056.5 357.7 1056.6 361.0 C 1056.6 420.2 1056.6 479.4 1056.6 538.6 C 1055.0 540.4 1052.6 541.7 1052.0 544.0 C 1052.8 545.1 1053.8 546.1 1054.6 547.2 C 1055.2 550.8 1053.8 554.3 1052.7 557.6 C 1051.5 558.1 1050.4 558.6 1049.3 559.1 C 1048.8 561.7 1048.2 564.2 1047.4 566.8 C 1048.4 568.7 1049.4 570.7 1050.3 572.6 C 1052.6 572.7 1054.8 573.5 1057.1 573.8 C 1058.8 573.5 1060.2 572.4 1061.8 571.7 C 1063.9 570.6 1066.3 570.3 1068.6 569.5 C 1069.8 568.5 1070.9 567.3 1072.1 566.2 C 1074.8 567.4 1077.9 567.6 1080.8 566.7 C 1084.1 565.7 1087.6 566.6 1091.0 566.1 C 1092.3 564.3 1092.8 562.0 1093.7 560.0 C 1100.0 544.8 1105.8 529.3 1112.2 514.1 C 1120.1 492.6 1129.4 471.5 1137.4 450.0 C 1140.3 442.5 1143.5 435.1 1146.4 427.6 C 1147.2 425.5 1147.8 423.1 1149.3 421.4 C 1150.5 421.1 1151.7 420.8 1152.9 420.7 C 1155.5 418.0 1158.8 415.6 1160.0 411.9 C 1161.5 407.6 1165.2 404.0 1164.4 399.1 C 1166.7 399.4 1168.3 401.7 1169.3 403.7 C 1170.7 407.3 1171.9 411.1 1171.8 415.0 C 1171.8 419.8 1172.3 424.9 1170.4 429.5 C 1168.8 430.3 1167.0 430.9 1165.3 431.6 C 1165.5 435.4 1164.8 439.3 1166.1 443.0 C 1167.1 446.2 1167.8 449.6 1166.9 452.9 C 1166.0 455.9 1166.1 459.0 1166.3 462.0 C 1166.5 465.1 1167.9 468.0 1167.9 471.2 C 1164.8 472.9 1161.6 474.7 1158.8 477.0 C 1162.6 476.9 1166.6 477.8 1169.3 480.7 C 1170.9 483.1 1171.9 486.0 1171.8 489.0 C 1171.8 510.7 1171.8 532.3 1171.8 554.0 C 1172.2 557.7 1168.9 560.2 1167.3 563.2 C 1166.8 565.9 1168.1 568.6 1168.6 571.2 C 1169.3 574.6 1170.6 577.7 1171.6 581.0 C 1172.2 587.7 1171.5 594.4 1172.0 601.2 C 1176.9 598.6 1180.4 593.7 1185.8 591.9 C 1186.4 593.3 1186.8 594.8 1187.2 596.4 C 1189.6 595.1 1192.2 593.9 1195.0 594.3 C 1198.9 593.9 1202.7 594.9 1206.5 596.0 C 1205.0 593.9 1203.1 592.2 1201.2 590.5 C 1202.6 587.9 1204.9 585.4 1204.8 582.2 C 1202.3 581.8 1201.5 585.4 1199.0 584.9 C 1197.5 584.9 1196.3 584.0 1195.0 583.6 C 1200.0 580.4 1204.7 576.9 1209.3 573.3 C 1211.2 571.9 1213.3 570.7 1214.7 568.8 C 1215.0 567.6 1215.2 566.3 1215.1 565.0 C 1215.1 520.0 1215.2 475.0 1215.1 430.0 C 1214.9 425.8 1217.4 422.3 1218.6 418.5 C 1217.4 417.8 1216.2 417.0 1215.1 416.1 C 1215.2 368.4 1215.1 320.7 1215.1 273.0 C 1215.1 271.5 1215.8 270.2 1216.3 268.9 C 1218.3 271.2 1219.3 274.2 1221.1 276.8 C 1222.8 274.5 1222.8 271.6 1223.9 269.1 C 1225.3 266.8 1222.8 265.1 1221.7 263.4 C 1219.8 263.3 1217.8 263.7 1215.9 263.1 C 1214.7 262.1 1215.3 260.3 1215.1 259.0 C 1215.1 243.7 1215.1 228.4 1215.1 213.1 C 1219.0 211.6 1223.1 211.7 1227.1 211.8 C 1227.2 209.9 1227.2 208.0 1227.1 206.0 C 1224.7 206.5 1222.5 207.1 1220.2 207.7 C 1218.0 204.4 1215.5 201.4 1213.7 197.8 C 1211.3 197.5 1209.3 198.8 1207.3 199.8 C 1203.0 196.0 1198.2 192.8 1193.7 189.3 C 1190.5 187.0 1187.5 184.4 1184.1 182.4 C 1184.5 180.4 1185.2 178.1 1183.6 176.3 C 1183.0 174.6 1181.3 175.7 1180.1 175.9 C 1174.9 175.0 1170.2 172.3 1166.5 168.7 C 1166.1 166.9 1165.7 165.1 1165.3 163.3 C 1167.3 161.6 1170.4 161.3 1171.8 158.9 C 1172.0 156.2 1170.6 153.7 1170.9 151.0 C 1203.9 150.7 1237.0 150.9 1270.0 150.8 C 1271.7 150.8 1273.3 150.8 1275.0 151.0 C 1276.6 151.3 1277.1 153.0 1277.6 154.3 C 1278.0 157.1 1277.7 159.9 1277.7 162.7 C 1275.5 166.0 1272.6 168.7 1270.0 171.6 C 1271.5 171.6 1273.0 171.6 1274.6 171.6 C 1277.2 168.9 1279.6 165.9 1283.2 164.8 C 1283.4 162.0 1283.5 158.8 1285.6 156.7 C 1287.1 155.1 1288.5 153.6 1290.2 152.3 C 1294.2 150.4 1298.9 150.5 1303.2 151.4 C 1306.5 152.1 1310.0 151.7 1313.3 151.8 C 1315.2 153.3 1317.8 152.5 1320.0 152.9 C 1325.6 154.1 1331.3 154.8 1337.0 156.0 C 1347.4 157.8 1357.6 160.9 1367.6 164.5 C 1370.6 165.8 1373.7 166.7 1376.5 168.5 C 1378.3 171.4 1379.4 174.7 1381.4 177.5 C 1383.8 180.9 1386.8 184.0 1388.1 188.1 C 1386.6 187.9 1385.1 187.0 1383.7 187.9 C 1384.4 190.2 1386.6 192.1 1388.9 192.7 C 1391.7 192.5 1394.3 192.0 1397.0 191.4 C 1399.9 191.1 1402.9 191.3 1405.8 191.2 C 1406.8 189.5 1407.8 187.9 1408.9 186.3 C 1413.9 189.0 1417.8 193.2 1422.4 196.6 C 1427.4 201.6 1432.4 206.6 1437.4 211.6 C 1439.2 214.1 1441.2 216.5 1443.4 218.6 C 1451.9 229.7 1459.9 241.4 1465.8 254.2 C 1467.2 257.1 1468.9 259.9 1469.7 263.1 C 1470.4 268.3 1469.3 273.7 1470.2 278.9 C 1472.2 281.6 1474.8 283.8 1478.0 285.0 C 1484.4 303.8 1488.2 323.4 1490.6 343.0 C 1490.7 345.0 1490.4 347.0 1491.0 348.9 C 1492.0 352.2 1491.4 355.6 1491.5 359.0 C 1491.4 361.1 1492.6 362.9 1492.5 365.0 C 1492.5 378.7 1492.5 392.3 1492.5 406.0 C 1492.8 410.7 1491.2 415.2 1491.5 420.0 C 1489.7 424.6 1489.1 429.7 1487.3 434.3 C 1486.0 435.0 1484.2 435.0 1483.3 436.2 C 1483.1 438.6 1483.1 441.0 1482.6 443.4 C 1484.5 443.4 1486.5 443.2 1488.2 443.9 C 1486.2 444.2 1484.2 444.2 1482.3 444.4 C 1484.1 445.1 1486.1 444.6 1488.0 444.7 C 1487.7 451.9 1485.7 458.9 1484.7 466.0 C 1478.0 495.5 1466.6 524.2 1448.6 548.6 C 1444.0 554.9 1439.3 561.2 1433.5 566.5 C 1430.4 569.7 1427.2 572.9 1424.1 576.1 C 1416.6 582.2 1409.3 588.5 1401.0 593.4 L 1400.0 593.3 C 1397.4 589.5 1394.6 585.7 1392.4 581.7 C 1391.9 578.7 1392.7 575.6 1391.6 572.7 C 1390.8 575.5 1389.9 578.2 1388.9 580.9 C 1388.3 582.5 1388.1 584.4 1388.9 586.0 C 1390.3 589.2 1391.8 592.5 1391.2 596.0 C 1390.5 598.2 1389.2 600.1 1387.4 601.5 C 1385.6 602.5 1383.6 601.3 1381.9 600.7 C 1378.8 603.4 1375.7 606.4 1372.0 608.1 C 1355.9 614.4 1339.1 618.8 1322.1 621.1 C 1319.5 621.8 1316.7 621.6 1314.0 621.7 C 1311.0 622.0 1308.5 620.1 1306.0 618.8 C 1303.7 617.3 1300.8 616.0 1299.7 613.2 C 1298.9 611.6 1299.6 609.8 1299.7 608.2 C 1298.1 608.4 1296.4 608.4 1294.9 609.1 C 1293.8 608.9 1292.6 608.2 1291.5 608.6 C 1288.7 609.6 1285.9 610.4 1283.1 611.0 C 1278.7 607.5 1273.1 606.4 1267.8 605.0 C 1269.2 608.7 1271.2 612.1 1272.9 615.7 C 1271.6 617.0 1270.3 618.3 1269.1 619.7 C 1275.7 619.9 1282.4 619.4 1289.0 619.9 C 1290.7 620.6 1294.1 620.5 1294.0 623.0 C 1292.5 623.7 1290.8 623.4 1289.3 623.5 C 1241.5 623.4 1193.8 623.4 1146.0 623.4 C 1143.7 623.4 1141.3 622.1 1140.2 620.1 C 1140.5 615.7 1138.6 611.5 1139.2 607.1 C 1140.6 605.2 1142.5 603.7 1144.0 602.0 C 1139.6 602.2 1137.4 607.5 1133.2 607.8 C 1131.3 604.3 1131.5 600.2 1130.5 596.5 C 1127.2 593.7 1124.8 590.1 1122.3 586.6 C 1122.0 586.4 1121.4 586.1 1121.1 585.9 C 1122.1 589.2 1123.2 592.6 1124.4 595.8 C 1125.8 598.2 1128.6 599.6 1129.6 602.4 C 1129.8 604.6 1129.0 606.9 1130.0 609.0 C 1131.2 611.6 1133.0 613.9 1134.7 616.2 C 1129.0 617.7 1124.8 622.5 1119.0 623.4 C 1085.3 623.4 1051.6 623.5 1017.9 623.4 C 1014.4 620.3 1009.4 620.5 1005.0 620.7 C 1005.8 618.6 1007.0 616.9 1008.7 615.6 C 1006.6 613.7 1005.3 611.3 1004.4 608.6 C 1001.5 612.0 999.5 616.2 996.4 619.3 C 993.5 621.1 990.6 623.6 987.0 623.4 C 950.0 623.4 913.0 623.5 876.0 623.4 C 871.3 622.6 867.0 619.4 862.0 619.7 C 859.1 619.9 856.4 618.7 853.5 618.6 C 851.7 615.8 849.8 612.9 848.9 609.7 C 847.5 610.9 847.3 612.8 846.5 614.4 C 845.5 617.0 843.4 618.7 841.6 620.6 C 837.2 620.5 832.5 620.3 829.0 623.4 C 826.7 623.4 824.3 623.6 822.0 623.3 C 820.1 622.6 818.5 621.6 816.8 620.6 C 811.6 624.3 804.9 621.4 799.1 622.9 C 796.8 623.6 794.4 623.5 792.0 623.4 C 738.4 623.4 684.9 623.5 631.4 623.4 C 629.1 630.6 626.5 637.8 624.2 645.0 C 619.5 660.1 614.1 675.0 609.2 690.0 C 606.7 697.8 604.2 705.7 601.4 713.4 C 598.9 716.7 594.4 716.2 590.9 717.2 C 591.5 715.7 592.1 714.2 592.7 712.8 C 590.2 711.5 587.4 710.8 584.8 709.7 C 581.3 712.0 578.7 715.4 576.6 719.0 C 575.8 721.7 578.7 723.2 579.8 725.3 C 577.6 725.9 575.0 725.0 573.1 726.2 C 575.2 728.6 577.4 731.2 580.3 732.7 C 585.8 731.4 590.3 726.6 596.1 726.7 C 596.6 728.5 595.7 730.3 595.2 732.0 C 593.8 736.0 592.4 739.9 591.6 744.0 C 591.5 745.2 590.4 746.5 589.0 746.2 C 580.3 746.3 571.6 746.3 562.9 746.2 C 561.7 744.9 560.4 743.6 559.1 742.4 C 556.4 744.0 553.1 743.3 550.0 743.5 C 545.1 743.8 540.5 741.6 536.1 739.8 C 533.6 741.1 530.8 741.6 528.0 741.9 C 525.2 742.6 524.1 746.4 521.0 746.3 C 500.3 746.2 479.6 746.4 458.9 746.1 C 458.2 742.4 454.9 740.6 451.8 739.2 C 446.7 740.8 441.3 741.6 436.3 743.5 C 431.7 745.4 426.6 743.4 422.0 745.2 C 417.8 746.8 413.3 746.2 409.0 746.3 C 354.7 746.3 300.3 746.2 246.0 746.3 C 240.5 746.6 235.3 744.6 230.3 742.5 C 227.4 741.3 224.0 741.1 221.1 742.4 C 219.8 741.8 218.5 741.5 217.1 741.6 C 215.9 744.4 213.1 746.4 210.0 746.3 C 191.0 746.3 172.0 746.2 153.0 746.3 C 151.0 746.2 149.0 746.4 147.1 745.9 C 147.4 744.7 148.0 743.6 148.9 742.8 C 146.9 741.1 144.3 740.6 142.0 739.6 C 141.1 740.0 140.2 740.4 139.4 740.8 C 136.5 738.0 133.8 734.9 130.8 732.3 C 127.6 732.0 125.1 734.5 122.0 734.2 C 118.3 734.1 114.3 736.2 111.2 733.1 C 111.4 734.4 111.8 735.6 112.5 736.7 C 110.3 739.9 107.4 743.8 103.0 743.5 C 100.3 743.7 97.7 742.5 95.0 742.4 C 95.7 744.0 95.3 746.7 93.0 746.2 C 87.3 746.3 81.7 746.2 76.0 746.3 C 72.5 746.4 69.2 744.9 65.6 745.2 C 66.1 740.4 66.5 735.4 68.4 730.9 C 68.1 730.4 67.3 729.5 66.9 729.1 C 65.6 733.4 65.8 738.3 62.7 741.8 C 61.2 744.6 58.1 745.2 55.3 745.6 C 50.9 746.7 46.4 746.1 42.0 746.3 C 34.6 746.2 27.2 746.4 19.8 746.1 C 19.1 744.6 20.5 743.3 21.2 742.1 C 22.8 739.9 24.1 737.4 25.8 735.2 C 27.7 735.6 29.6 735.9 31.6 735.9 C 33.1 732.7 34.9 729.5 35.6 726.0 C 36.6 722.6 36.8 718.8 38.7 715.7 C 62.8 679.8 86.7 643.7 110.8 607.8 C 117.0 598.1 123.7 588.7 129.9 579.0 C 133.9 573.1 137.7 567.1 142.0 561.3 C 145.2 562.9 148.3 565.4 152.1 565.4 C 152.5 565.1 153.1 564.6 153.5 564.3 C 152.6 558.8 152.1 553.3 151.1 547.9 C 151.6 545.8 153.3 544.3 154.3 542.5 C 159.7 534.2 165.3 526.0 170.8 517.8 C 178.5 505.8 186.8 494.3 194.2 482.2 C 199.7 474.1 204.9 465.9 210.3 457.9 C 212.8 454.0 216.0 450.4 220.0 448.0 C 221.7 446.8 223.7 445.8 224.7 443.9 C 225.6 438.4 227.2 432.9 230.3 428.2 C 233.7 422.5 237.7 417.0 241.3 411.4 C 243.1 408.5 245.8 406.5 248.0 404.0 C 251.1 399.5 255.6 396.0 257.4 390.6 C 259.0 385.9 261.5 381.2 266.2 379.2 C 266.2 377.4 266.2 375.7 266.3 374.0 C 309.7 308.8 353.2 243.7 396.6 178.6 C 401.7 170.5 407.5 162.8 412.9 155.0 C 417.5 150.3 421.3 144.9 425.6 140.0 C 425.7 138.2 425.6 136.4 425.6 134.6 C 429.2 130.1 432.2 125.1 435.2 120.2 C 438.8 114.5 443.0 109.2 446.1 103.2 C 441.7 103.1 437.3 103.4 433.0 103.1 C 429.9 102.4 427.0 101.2 424.4 99.6 C 424.0 98.5 423.5 97.4 423.2 96.3 C 418.8 98.8 414.0 100.6 409.3 102.5 C 406.6 103.6 403.7 103.1 401.0 103.2 C 348.7 103.2 296.3 103.2 244.0 103.2 C 240.4 102.9 237.1 101.0 233.5 100.6 C 227.7 102.6 221.4 101.7 215.7 99.5 C 211.5 100.5 207.5 102.8 203.0 102.3 C 195.9 104.0 188.5 102.7 181.3 103.3 C 178.9 104.5 177.0 106.4 174.9 107.9 C 170.5 111.9 165.3 114.9 160.8 118.8 C 157.6 121.4 154.4 123.8 151.0 126.0 C 149.9 126.9 148.6 126.7 147.3 126.9 C 147.0 123.1 148.1 118.7 145.2 115.5 C 141.2 116.3 137.4 117.8 133.3 118.3 C 134.8 122.3 134.8 127.4 131.5 130.5 C 129.4 133.9 126.2 136.4 123.8 139.7 C 125.4 140.2 127.0 140.6 128.6 141.0 C 127.5 143.6 125.2 145.3 123.2 147.2 C 116.3 152.9 108.7 157.9 101.8 163.7 C 89.2 173.2 76.5 182.4 64.1 192.1 C 47.3 204.7 30.7 217.3 14.0 230.0 C 10.6 232.3 7.6 235.2 3.8 237.1 C 9.5 220.6 16.2 204.6 22.0 188.2 C 25.1 188.9 28.0 187.4 31.0 187.4 C 34.1 187.3 36.7 185.3 39.2 183.8 C 37.6 180.3 33.8 179.2 31.1 176.9 C 29.9 175.5 29.1 173.8 28.5 172.0 C 29.1 169.6 30.0 167.3 30.8 165.0 C 36.5 150.6 41.2 135.8 47.5 121.6 C 49.0 118.0 52.0 115.3 54.2 112.2 C 57.1 108.0 59.9 103.8 61.5 98.9 C 61.0 96.7 59.5 94.8 58.1 93.0 C 61.4 83.6 65.3 74.5 68.4 65.0 C 72.7 53.8 77.1 42.5 81.3 31.3 C 81.4 30.6 81.6 30.0 81.7 29.3 M 531.5 92.6 C 526.9 98.6 522.0 104.4 517.4 110.4 C 514.5 114.1 509.2 114.6 506.3 118.4 C 506.3 120.3 506.2 122.2 506.2 124.1 C 497.4 135.0 488.6 145.9 479.9 157.0 C 477.9 159.2 475.7 161.4 473.4 163.4 C 470.0 165.9 465.4 167.9 464.4 172.6 C 459.6 183.0 451.6 191.6 444.5 200.6 C 438.6 208.3 432.2 215.7 426.3 223.5 C 420.6 230.1 415.2 236.9 409.9 243.9 C 405.1 249.2 400.8 254.8 396.4 260.4 C 394.3 262.8 390.8 263.3 388.9 265.9 C 387.4 267.5 387.4 269.8 386.7 271.7 C 384.8 274.2 382.2 276.0 380.5 278.6 C 378.9 281.1 377.5 283.6 375.9 286.1 C 373.6 289.7 374.5 294.2 373.1 298.2 C 375.4 296.6 377.0 294.1 379.6 293.0 C 379.9 303.4 379.5 313.7 379.8 324.1 C 386.1 321.7 391.7 317.9 397.9 315.3 C 402.6 312.9 407.3 310.6 412.0 308.1 C 417.4 304.5 419.2 297.8 422.6 292.5 C 425.5 288.2 426.9 283.2 430.1 279.1 C 432.8 277.2 436.2 277.6 439.3 277.4 C 440.2 276.6 441.0 275.7 441.8 274.9 C 440.0 271.8 438.4 268.6 438.2 265.0 C 440.7 258.8 444.3 253.2 447.4 247.2 C 450.0 243.4 451.6 239.0 454.2 235.2 C 456.3 231.9 457.5 228.1 460.0 225.0 C 461.2 223.8 463.0 223.3 464.4 222.4 C 465.6 219.4 466.5 216.2 469.0 214.0 C 472.0 210.3 477.0 208.4 479.1 204.0 C 477.9 200.7 476.4 197.1 477.5 193.4 C 479.5 189.0 481.9 184.7 484.5 180.6 C 489.3 171.3 494.4 162.0 499.7 153.0 C 503.5 145.1 507.9 137.6 512.1 129.9 C 516.6 122.4 520.4 114.5 524.9 107.0 C 527.2 101.8 530.8 97.3 532.9 92.1 C 532.5 92.2 531.8 92.5 531.5 92.6 M 894.4 165.0 C 894.3 169.7 894.5 174.4 894.3 179.1 C 894.1 180.5 892.6 180.9 891.6 181.5 C 888.4 182.4 885.1 181.4 881.9 181.1 C 885.7 183.4 889.6 186.2 894.3 185.8 C 894.4 231.5 894.3 277.3 894.4 323.0 C 894.3 324.7 894.6 326.4 894.1 328.0 C 891.1 330.3 887.8 332.0 884.5 333.6 C 882.4 332.7 880.0 332.2 878.4 330.6 C 875.8 328.1 875.2 324.4 873.6 321.2 C 869.9 313.7 865.9 306.3 862.4 298.7 C 860.4 293.0 857.2 287.8 854.6 282.4 C 853.4 280.4 855.1 278.1 854.4 276.1 C 853.9 272.5 852.2 269.4 850.9 266.0 C 850.1 264.1 850.5 261.9 850.0 259.9 C 847.8 257.4 844.4 256.3 842.1 253.9 C 838.5 250.8 837.1 246.2 835.3 242.0 C 833.4 238.1 831.5 234.2 829.6 230.3 C 827.5 226.3 826.5 221.9 824.9 217.7 C 827.0 216.4 829.3 215.3 831.6 214.4 C 831.6 212.2 831.6 209.9 831.6 207.6 C 830.4 206.8 829.2 206.0 828.0 205.3 C 825.9 205.3 824.0 206.8 822.0 206.0 C 819.0 205.3 816.4 203.5 814.0 201.5 C 809.6 201.7 805.4 203.5 801.0 203.5 C 781.8 203.4 762.6 203.5 743.4 203.4 C 743.5 210.3 743.4 217.1 743.5 224.0 C 743.6 227.4 742.6 230.7 741.6 234.0 C 741.0 236.4 738.5 237.5 736.7 239.0 C 739.0 245.2 743.1 251.1 743.5 258.0 C 743.4 288.0 743.4 318.0 743.4 348.0 C 743.4 350.2 743.2 352.5 743.1 354.7 C 752.4 354.8 761.7 354.8 771.0 354.8 C 774.3 354.7 777.6 355.1 780.9 354.5 C 771.3 354.0 761.6 354.3 752.0 354.2 C 749.4 354.1 746.7 354.8 744.3 353.7 C 744.4 353.6 744.6 353.3 744.8 353.2 C 756.5 353.7 768.3 353.4 780.1 353.4 C 782.3 352.2 783.8 350.1 785.2 348.1 C 788.9 343.5 792.4 338.8 796.3 334.5 C 805.4 322.5 815.6 311.3 824.5 299.1 C 827.0 298.8 829.5 299.9 831.1 301.9 C 833.2 304.5 835.0 307.4 837.2 310.0 C 837.2 327.5 837.3 345.0 837.1 362.6 C 833.8 362.5 831.9 365.7 831.4 368.6 C 830.9 370.8 832.0 372.9 832.8 374.9 C 834.3 375.1 835.8 375.2 837.4 375.3 C 837.1 380.0 837.2 384.7 837.3 389.3 C 836.6 390.3 835.9 391.3 835.4 392.4 C 834.5 396.1 837.5 399.3 837.2 403.0 C 837.2 423.3 837.2 443.7 837.2 464.0 C 837.5 465.5 836.4 466.7 835.0 466.9 C 830.9 468.3 826.6 469.3 822.4 468.6 C 818.1 462.0 813.2 455.9 808.5 449.6 C 805.0 444.4 801.1 439.5 797.4 434.4 C 793.9 429.5 792.6 423.2 788.0 419.0 C 785.8 416.2 783.8 413.2 780.8 411.2 C 778.1 409.7 776.3 407.1 773.9 405.3 C 769.1 402.1 766.1 396.7 760.8 394.3 C 757.7 395.2 755.0 397.2 752.1 398.6 C 753.4 399.4 757.4 400.1 755.2 402.2 C 750.5 404.9 744.6 406.8 742.5 412.3 C 742.7 412.7 743.2 413.5 743.4 413.9 C 743.5 419.6 743.5 425.3 743.4 431.1 C 740.8 436.0 738.0 441.0 733.3 444.4 C 734.1 445.9 733.7 448.8 736.0 448.8 C 736.6 448.6 737.7 448.2 738.3 448.0 C 741.0 454.7 743.9 461.7 743.4 469.0 C 743.4 501.3 743.5 533.6 743.4 566.0 C 750.9 566.7 758.5 566.0 766.0 566.3 C 771.1 567.2 776.1 568.0 780.9 569.8 C 784.5 568.6 788.5 569.8 792.0 568.0 C 799.4 565.3 807.4 566.6 815.1 566.2 C 816.9 564.3 818.1 561.9 820.2 560.2 C 821.8 558.7 824.1 558.2 825.7 556.7 C 826.0 554.3 825.5 551.8 826.4 549.5 C 828.9 544.7 832.6 540.7 835.4 536.0 C 835.5 533.2 832.0 534.8 830.3 534.5 C 831.8 529.9 834.2 525.6 835.9 521.0 C 843.0 506.8 848.6 492.0 855.5 477.8 C 860.8 466.2 865.5 454.3 871.2 442.9 C 872.4 439.7 873.8 436.6 876.1 434.1 C 878.4 432.5 880.6 430.6 882.6 428.7 C 883.6 429.5 884.7 430.1 886.0 430.4 C 885.9 427.2 885.2 424.0 884.7 420.8 C 883.5 421.1 882.2 421.4 881.0 421.7 C 881.4 418.9 883.1 416.6 884.0 414.0 C 884.6 412.4 885.2 410.9 886.5 409.7 C 887.4 412.8 889.0 415.7 888.7 419.0 C 888.2 423.8 892.3 427.0 894.3 430.9 C 894.5 456.6 894.3 482.3 894.4 508.0 C 894.5 512.6 892.4 517.0 888.8 519.9 C 888.8 520.5 888.7 521.9 888.6 522.6 C 885.9 525.6 884.9 529.6 883.0 533.1 C 879.5 533.1 876.0 531.3 872.3 531.4 C 872.3 531.6 872.3 532.1 872.3 532.4 C 873.9 532.8 875.5 533.3 877.1 533.7 C 878.2 535.9 879.3 538.1 880.5 540.3 C 876.5 543.2 871.2 541.7 867.1 539.9 C 867.3 541.9 867.9 543.8 868.4 545.7 C 871.2 545.3 873.9 545.9 876.7 546.6 C 877.9 545.9 878.8 544.8 879.9 543.8 C 881.2 544.2 883.0 545.4 884.2 544.2 C 886.6 542.4 887.3 539.4 889.2 537.2 C 892.1 536.5 893.0 540.0 894.3 541.9 C 894.4 564.3 894.4 586.7 894.3 609.1 C 899.6 606.3 904.1 602.2 908.9 598.7 C 912.7 595.5 917.2 593.1 921.3 590.2 C 923.4 588.4 925.5 586.5 928.0 585.1 C 930.3 583.7 933.1 583.5 935.6 582.6 C 938.1 580.7 939.1 577.4 941.6 575.5 C 943.7 573.7 945.7 571.6 947.7 569.7 C 947.8 525.8 947.8 481.9 947.8 438.0 C 947.9 434.9 947.3 431.7 948.5 428.8 C 949.7 425.4 950.6 421.7 953.0 419.0 C 953.7 417.8 955.0 418.5 956.0 418.7 C 955.8 417.4 954.9 415.9 955.6 414.6 C 956.8 413.1 958.5 411.9 959.3 410.1 C 957.6 409.5 955.9 408.5 954.0 408.7 C 951.9 409.0 949.9 409.8 947.9 410.5 C 947.6 342.3 947.9 274.1 947.7 205.9 C 945.4 202.5 940.9 200.6 940.3 196.0 C 941.2 193.7 941.2 190.9 943.0 189.0 C 944.4 188.1 946.1 187.7 947.4 186.6 C 948.5 184.4 948.9 181.9 948.7 179.5 C 946.8 178.2 946.8 175.9 946.5 173.9 C 945.8 180.3 943.0 186.7 938.1 191.0 C 935.4 191.6 932.6 191.2 929.9 191.3 C 925.5 187.9 920.7 185.1 916.6 181.5 C 909.2 175.9 901.9 170.2 894.4 165.0 M 1315.6 206.9 C 1315.0 218.3 1315.5 229.8 1315.3 241.3 C 1313.6 245.3 1312.2 250.0 1307.8 251.9 C 1307.6 254.9 1307.8 258.0 1308.6 261.0 C 1309.3 269.3 1312.3 277.8 1309.7 286.0 C 1309.7 287.7 1310.5 289.3 1310.6 291.0 C 1311.2 296.6 1314.0 301.6 1315.3 307.0 C 1314.4 310.0 1314.1 313.0 1314.4 316.1 C 1314.1 316.5 1313.6 317.3 1313.3 317.7 C 1315.0 319.5 1313.6 322.4 1315.2 324.0 C 1315.5 372.1 1315.2 420.3 1315.4 468.4 C 1314.4 469.3 1313.5 470.1 1312.5 471.0 C 1312.5 475.9 1312.5 480.9 1312.5 485.9 C 1311.0 485.1 1309.4 484.4 1307.9 483.5 C 1307.8 486.0 1307.6 488.5 1307.8 491.0 C 1308.4 495.4 1311.0 499.2 1313.2 503.0 C 1313.7 504.0 1314.5 504.8 1315.3 505.7 C 1315.4 526.2 1315.2 546.8 1315.4 567.3 C 1324.3 564.1 1332.8 559.3 1339.8 552.8 C 1345.3 549.0 1349.1 543.5 1353.4 538.6 C 1357.0 534.1 1359.9 529.0 1363.3 524.3 C 1377.2 500.0 1385.6 472.7 1388.9 445.0 C 1389.6 441.2 1390.2 437.4 1390.6 433.5 C 1391.5 430.3 1391.2 426.6 1392.9 423.7 C 1396.2 424.5 1399.4 426.0 1402.8 426.8 C 1400.5 423.6 1397.0 421.4 1395.3 417.8 C 1394.4 415.9 1393.1 414.2 1393.2 412.0 C 1393.2 399.0 1393.2 386.0 1393.2 373.0 C 1393.4 370.3 1392.1 367.7 1392.2 365.0 C 1392.0 360.8 1392.8 356.5 1391.6 352.5 C 1390.7 349.1 1391.8 345.5 1390.7 342.2 C 1388.5 324.7 1386.1 306.9 1380.4 290.0 C 1379.1 284.3 1376.4 279.0 1374.6 273.4 C 1372.2 266.7 1368.7 260.6 1365.6 254.3 C 1363.8 250.4 1361.0 247.0 1358.8 243.3 C 1356.1 239.3 1353.5 235.3 1350.1 232.0 C 1346.2 226.2 1340.5 222.1 1335.3 217.7 C 1332.2 215.5 1328.8 213.6 1325.6 211.5 C 1322.5 209.5 1318.8 208.6 1315.6 206.9 M 326.7 368.8 C 321.1 371.2 315.6 373.6 309.8 375.6 C 308.7 376.2 306.5 376.1 306.6 377.9 C 308.1 381.4 307.0 385.3 307.9 389.0 C 308.8 392.3 308.1 395.8 308.9 399.2 C 309.6 401.8 309.1 404.5 309.8 407.1 C 310.7 409.8 310.0 412.6 310.7 415.3 C 311.1 416.8 311.2 418.4 311.4 419.9 C 325.2 414.3 339.3 409.0 353.1 403.2 C 354.7 402.5 356.6 402.3 357.9 401.0 C 356.4 390.3 354.4 379.7 353.2 369.0 C 352.3 365.7 353.0 362.0 351.2 358.9 C 343.2 362.7 335.0 365.9 326.7 368.8 M 275.3 448.3 C 273.4 449.8 271.5 451.1 269.6 452.6 C 268.8 454.8 268.8 457.3 267.1 459.1 C 264.5 462.1 260.5 462.8 257.0 463.9 C 250.9 468.3 246.9 475.0 243.4 481.5 C 240.0 486.6 237.9 492.4 234.6 497.5 C 232.8 500.9 230.1 503.8 228.3 507.3 C 225.8 512.1 222.7 516.5 219.9 521.1 C 218.5 528.5 213.2 534.3 210.4 541.3 C 209.2 545.3 205.4 547.9 201.8 549.8 C 198.7 552.3 200.2 556.7 199.1 560.0 C 198.5 565.2 194.8 569.1 192.6 573.7 C 186.2 585.5 179.6 597.2 173.1 609.0 C 167.9 619.1 161.8 628.7 156.8 638.9 C 150.2 650.6 143.4 662.3 137.3 674.2 C 135.4 677.4 133.2 680.4 132.3 684.0 C 134.2 683.4 135.3 681.7 136.3 680.2 C 150.6 663.1 164.2 645.5 178.4 628.3 C 186.5 618.2 194.4 607.9 202.9 597.9 C 208.3 590.7 214.4 584.0 219.8 576.8 C 222.0 574.4 224.3 571.9 226.1 569.1 C 228.9 569.1 231.7 569.4 234.1 570.9 C 234.2 571.7 234.3 573.2 234.4 574.0 C 234.8 573.7 235.6 573.2 236.0 572.9 C 234.8 569.8 233.2 566.9 231.4 564.0 C 232.5 560.9 234.6 558.2 236.8 555.8 C 246.4 543.7 256.0 531.6 265.8 519.7 C 272.9 511.1 279.5 502.2 286.7 493.7 C 286.9 489.8 286.7 485.9 286.8 482.0 C 286.8 479.5 288.2 477.3 288.8 475.0 C 288.6 473.1 286.4 471.9 286.8 470.0 C 287.2 467.2 288.8 464.7 289.6 462.0 C 289.8 458.5 289.7 455.1 289.5 451.7 C 287.3 452.6 285.3 453.9 283.0 454.7 C 281.2 454.8 279.4 454.7 277.6 454.6 C 277.2 452.5 276.7 450.4 276.4 448.2 C 276.1 448.3 275.5 448.3 275.3 448.3 M 436.2 483.1 C 436.0 484.4 435.8 485.7 435.9 487.0 C 438.0 488.3 440.0 486.7 442.0 485.9 C 443.7 483.1 444.2 479.8 445.0 476.7 C 441.6 478.1 438.3 480.0 436.2 483.1 Z" />
<path fill="#ffffff" stroke="#ffffff" stroke-width="0.09375" opacity="1.00" d=" M 1539.3 156.0 C 1539.8 154.0 1541.0 151.9 1542.9 151.0 C 1545.9 150.7 1549.0 150.9 1552.0 150.8 C 1589.3 150.8 1626.7 150.9 1664.0 150.8 C 1665.4 151.0 1667.1 150.5 1668.2 151.8 C 1669.7 153.6 1671.0 155.6 1672.6 157.3 C 1670.8 160.6 1671.4 164.6 1672.3 168.0 C 1673.0 171.3 1672.3 174.7 1671.5 177.9 C 1674.2 178.5 1677.0 179.1 1679.3 180.7 C 1681.1 182.1 1681.7 184.5 1682.4 186.6 C 1683.7 191.4 1684.8 196.2 1686.0 200.9 C 1688.6 209.3 1689.9 217.9 1692.7 226.2 C 1694.3 232.1 1695.6 238.1 1697.2 244.0 C 1699.9 252.6 1701.7 261.4 1703.9 270.1 C 1706.1 276.9 1707.3 283.9 1709.5 290.6 C 1711.5 298.0 1713.1 305.6 1715.4 313.0 C 1717.3 320.1 1718.7 327.3 1720.6 334.3 C 1722.9 341.4 1724.3 348.7 1726.3 355.8 C 1728.6 362.8 1730.1 370.0 1731.9 377.0 C 1734.4 385.6 1736.0 394.5 1738.8 403.0 C 1740.7 408.7 1739.5 415.1 1736.0 420.0 C 1734.7 422.0 1732.9 425.0 1730.1 424.0 C 1727.5 423.3 1724.4 424.2 1723.0 426.5 C 1725.6 426.6 1728.4 426.7 1731.1 426.5 C 1733.2 425.5 1734.8 423.8 1737.0 422.9 C 1738.7 422.7 1740.4 422.7 1742.2 422.7 C 1743.1 423.7 1744.4 424.6 1744.8 426.0 C 1746.3 431.2 1747.3 436.4 1748.6 441.6 C 1751.1 449.6 1752.8 457.9 1755.0 466.0 C 1756.4 470.4 1755.7 475.2 1755.8 479.8 C 1753.2 481.0 1749.4 481.2 1748.0 484.1 C 1750.4 486.8 1754.6 488.7 1754.3 492.9 C 1755.9 494.6 1757.5 496.4 1759.6 497.4 C 1760.8 498.1 1762.5 498.4 1763.4 499.6 C 1765.1 503.1 1765.5 506.9 1766.6 510.5 C 1769.3 518.7 1770.7 527.3 1773.4 535.5 C 1774.7 540.8 1776.0 546.1 1777.3 551.4 C 1778.9 557.7 1780.0 564.2 1783.1 570.0 C 1784.4 571.9 1783.0 574.0 1782.9 576.0 C 1782.8 578.7 1782.7 581.4 1783.4 584.0 C 1783.8 586.0 1784.7 588.1 1783.9 590.1 C 1782.4 592.6 1779.3 593.5 1777.6 595.9 C 1781.9 597.5 1786.2 599.3 1790.1 601.9 C 1791.1 603.4 1791.6 605.3 1793.2 606.4 C 1792.9 601.1 1794.5 596.0 1796.7 591.3 C 1801.3 592.0 1805.5 594.1 1810.0 595.1 C 1812.2 595.5 1814.4 596.0 1816.6 596.5 C 1820.6 600.6 1825.6 603.9 1831.1 605.7 C 1833.4 607.2 1832.6 610.4 1832.8 612.8 C 1831.4 614.0 1830.0 615.3 1828.8 616.8 C 1827.3 618.8 1826.6 621.3 1825.0 623.3 C 1822.3 623.6 1819.7 623.4 1817.0 623.4 C 1767.3 623.4 1717.7 623.4 1668.0 623.4 C 1665.0 623.4 1662.0 623.6 1659.0 623.2 L 1659.2 622.2 C 1663.2 620.9 1666.8 618.5 1671.0 617.8 C 1672.4 617.7 1674.0 616.6 1673.9 615.1 C 1670.4 612.2 1666.1 610.4 1663.0 607.0 C 1661.2 605.2 1659.6 602.9 1657.1 602.3 C 1654.2 601.4 1651.3 600.8 1648.5 600.1 C 1647.7 601.4 1646.7 602.7 1646.1 604.1 C 1647.8 606.2 1650.7 607.1 1651.8 609.7 C 1651.5 610.1 1650.9 611.0 1650.5 611.4 C 1647.1 611.2 1643.7 611.2 1640.3 611.4 C 1638.6 609.5 1638.3 606.9 1637.3 604.7 C 1636.9 603.5 1636.0 602.5 1636.2 601.2 C 1645.3 594.0 1654.3 586.7 1663.1 579.1 C 1664.3 578.1 1665.9 577.5 1666.7 576.2 C 1667.1 571.9 1666.2 567.6 1667.4 563.5 C 1668.1 560.6 1667.4 557.4 1668.5 554.6 C 1669.6 551.4 1665.5 550.0 1663.6 548.4 C 1662.7 544.1 1661.0 540.0 1658.8 536.2 C 1656.6 532.4 1656.1 528.1 1655.0 524.0 C 1654.4 520.4 1653.0 516.7 1654.0 513.0 C 1654.4 511.5 1654.6 509.9 1654.8 508.3 C 1653.6 507.4 1652.4 506.5 1651.1 505.8 C 1648.5 498.0 1647.5 489.9 1645.3 482.0 C 1644.3 479.1 1644.6 475.9 1642.9 473.4 C 1619.3 473.5 1595.7 473.4 1572.2 473.4 C 1569.2 482.4 1567.4 491.9 1564.7 501.0 C 1562.9 508.4 1560.5 515.6 1558.8 523.0 C 1557.5 522.1 1556.5 520.7 1555.0 520.2 C 1553.1 520.6 1551.7 522.1 1550.1 523.1 C 1550.5 525.5 1551.7 527.7 1552.5 530.0 C 1553.3 535.7 1549.6 540.6 1548.7 546.0 C 1549.3 548.5 1550.2 551.0 1549.4 553.5 C 1547.8 559.6 1547.5 566.0 1545.6 572.0 C 1545.4 573.2 1544.7 574.5 1545.4 575.6 C 1553.6 582.1 1561.5 588.9 1569.6 595.5 C 1572.1 597.2 1573.9 599.9 1576.6 601.4 C 1577.6 604.2 1577.9 607.1 1578.7 610.0 C 1579.1 611.7 1580.0 613.4 1579.3 615.2 C 1578.4 617.8 1578.8 620.6 1578.8 623.2 C 1574.9 623.6 1570.9 623.4 1567.0 623.4 C 1547.3 623.4 1527.7 623.4 1508.0 623.4 C 1502.2 623.8 1496.6 622.0 1490.9 621.0 C 1486.9 620.6 1483.9 617.6 1480.8 615.3 C 1478.0 614.0 1474.2 614.5 1472.7 611.3 C 1474.6 607.5 1475.6 602.9 1473.6 599.0 C 1469.6 600.2 1465.9 602.8 1464.3 606.8 L 1464.6 607.5 C 1466.6 607.7 1468.1 605.5 1470.1 605.5 C 1471.2 606.7 1471.1 608.6 1471.7 610.2 C 1472.6 614.6 1474.2 618.9 1475.1 623.4 C 1461.4 623.6 1447.7 623.3 1434.0 623.5 C 1429.3 624.0 1424.8 620.3 1423.2 616.0 C 1423.4 613.0 1424.4 610.0 1424.3 606.8 C 1428.3 603.7 1432.7 600.9 1436.5 597.5 C 1442.0 593.1 1448.1 589.2 1453.4 584.6 C 1460.3 579.3 1467.2 574.3 1474.1 569.1 C 1475.2 568.0 1475.5 566.4 1475.9 565.0 C 1481.4 544.3 1488.0 523.8 1493.5 503.0 C 1499.8 482.4 1505.5 461.7 1511.3 441.0 C 1513.5 434.0 1514.8 426.4 1519.6 420.6 C 1520.9 420.1 1522.2 420.0 1523.5 419.5 C 1526.0 417.4 1526.3 413.9 1527.0 411.0 C 1527.4 407.3 1527.3 403.6 1526.9 399.9 C 1525.4 400.8 1524.0 402.0 1522.5 402.9 C 1527.3 385.2 1532.7 367.7 1537.6 350.0 C 1542.8 331.5 1548.5 313.0 1553.5 294.4 C 1554.7 289.5 1556.6 284.8 1557.8 279.9 C 1559.9 273.2 1561.4 266.4 1563.9 259.9 C 1565.7 259.2 1567.5 258.6 1569.4 258.3 C 1569.4 260.0 1569.4 261.6 1569.5 263.3 C 1572.0 263.4 1574.4 264.2 1577.0 264.4 C 1579.9 264.7 1582.4 266.3 1585.1 267.2 C 1584.0 265.1 1582.3 263.3 1581.5 261.0 C 1582.0 259.9 1582.5 258.9 1583.2 257.8 C 1579.9 257.8 1576.6 257.7 1573.4 257.8 C 1572.8 253.4 1571.2 249.0 1568.2 245.7 C 1568.3 244.1 1568.3 242.4 1568.8 240.9 C 1572.6 228.9 1575.7 216.6 1579.6 204.6 C 1574.4 200.0 1568.7 196.1 1563.5 191.5 C 1561.5 189.4 1559.0 188.0 1556.7 186.2 C 1551.9 182.4 1547.2 178.4 1542.3 174.7 C 1541.4 174.0 1540.0 173.3 1540.3 172.0 C 1540.3 169.0 1541.7 166.1 1541.3 163.0 C 1541.6 160.4 1539.9 158.3 1539.3 156.0 M 1610.3 330.9 C 1608.5 336.9 1607.0 343.0 1605.1 349.0 C 1602.5 360.1 1598.9 370.9 1596.5 382.0 C 1594.6 388.2 1593.2 394.5 1591.5 400.7 C 1590.1 405.2 1589.0 409.7 1588.0 414.2 C 1596.8 414.6 1605.8 414.2 1614.7 414.4 C 1616.7 415.7 1617.7 418.1 1619.0 420.0 C 1618.3 421.1 1617.0 421.6 1616.1 422.5 C 1619.6 424.1 1623.2 425.6 1627.0 426.6 C 1630.5 426.9 1633.6 424.7 1637.0 424.7 C 1639.4 425.0 1641.7 425.8 1644.1 426.0 C 1642.9 421.2 1640.8 416.7 1639.1 412.1 C 1638.7 411.1 1637.9 409.2 1636.7 410.5 C 1634.7 413.1 1632.6 415.6 1630.5 418.1 C 1629.1 413.4 1628.1 408.6 1627.4 403.7 C 1623.2 385.1 1618.9 366.5 1614.4 348.0 C 1612.9 342.3 1612.6 336.3 1610.3 330.9 Z" />
<path fill="#ffffff" stroke="#ffffff" stroke-width="0.09375" opacity="1.00" d=" M 1055.3 244.0 C 1056.2 240.5 1055.4 236.9 1056.3 233.5 C 1056.8 236.9 1056.5 240.5 1056.6 244.0 C 1056.6 277.0 1056.5 310.0 1056.6 343.0 C 1054.6 342.7 1055.2 340.4 1055.1 339.0 C 1055.5 331.0 1054.4 322.9 1055.8 315.0 C 1056.0 312.6 1055.5 310.3 1055.2 308.0 C 1055.0 303.0 1054.9 298.0 1055.6 293.0 C 1054.7 287.4 1055.2 281.7 1055.2 276.0 C 1055.0 273.0 1056.3 270.1 1055.5 267.1 C 1054.6 264.1 1056.3 261.1 1055.8 258.0 C 1054.9 253.4 1054.8 248.7 1055.3 244.0 Z" />
<path fill="#ffffff" stroke="#ffffff" stroke-width="0.09375" opacity="1.00" d=" M 1170.3 446.2 C 1168.8 442.5 1166.5 437.4 1169.5 434.0 C 1170.4 435.9 1171.9 437.8 1171.8 440.0 C 1171.7 442.1 1172.6 444.9 1170.3 446.2 Z" />
<path fill="#ffffff" stroke="#ffffff" stroke-width="0.09375" opacity="1.00" d=" M 551.6 501.6 C 557.4 497.8 564.8 497.6 571.5 498.2 C 574.9 499.6 579.0 499.6 581.9 502.1 C 583.0 503.2 583.8 504.6 584.5 506.0 C 584.0 507.3 583.4 508.6 582.7 509.9 C 581.5 515.1 583.1 520.3 582.5 525.5 C 581.4 527.9 579.6 530.0 577.3 531.3 C 573.7 533.5 570.0 535.6 565.9 536.4 C 563.3 536.6 560.6 536.6 558.0 536.4 C 552.7 535.4 548.5 531.3 546.3 526.5 C 544.6 524.0 543.4 521.0 540.6 519.5 C 537.3 516.9 532.9 517.6 529.1 516.7 C 529.2 516.5 529.6 516.0 529.7 515.8 C 534.1 513.6 539.0 512.0 542.9 508.9 C 545.7 506.3 549.2 504.6 551.6 501.6 Z" />
<path fill="#ffffff" stroke="#ffffff" stroke-width="0.09375" opacity="1.00" d=" M 1688.2 641.4 C 1695.2 640.0 1702.8 642.0 1708.0 647.0 C 1716.1 654.1 1717.4 667.3 1711.2 676.1 C 1707.1 682.0 1700.3 686.1 1693.0 686.0 C 1683.6 686.4 1674.8 680.0 1671.5 671.3 C 1669.2 664.7 1669.9 656.8 1674.0 651.0 C 1677.3 646.2 1682.4 642.4 1688.2 641.4 Z" />
<path fill="#ffffff" stroke="#ffffff" stroke-width="0.09375" opacity="1.00" d=" M 1217.1 653.0 C 1231.1 649.4 1245.1 645.8 1259.0 642.0 C 1257.0 683.9 1254.0 725.7 1252.3 767.6 C 1259.0 772.3 1266.1 776.4 1272.9 780.9 C 1264.1 789.3 1255.6 798.2 1248.1 807.9 C 1236.8 806.0 1225.6 799.5 1220.2 789.1 C 1214.5 778.7 1214.3 766.5 1214.8 755.0 C 1216.2 721.0 1216.6 687.0 1217.1 653.0 Z" />
<path fill="#ffffff" stroke="#ffffff" stroke-width="0.09375" opacity="1.00" d=" M 1139.1 695.8 C 1140.4 694.6 1142.3 695.1 1144.0 695.0 C 1154.0 695.5 1164.1 695.8 1173.9 697.6 C 1186.3 699.9 1197.2 709.6 1200.4 721.8 C 1201.2 725.6 1202.3 729.7 1201.5 733.4 C 1189.4 735.6 1177.4 738.7 1165.9 743.1 C 1164.9 739.7 1163.8 736.2 1161.7 733.4 C 1159.2 729.9 1155.3 727.6 1151.1 726.6 C 1150.3 736.4 1149.2 746.2 1149.0 756.0 C 1148.8 760.2 1150.2 764.7 1153.5 767.5 C 1157.5 771.1 1162.7 772.9 1167.8 774.4 C 1173.7 776.0 1180.2 777.0 1185.9 774.2 C 1190.9 772.0 1194.3 767.7 1198.0 763.9 C 1197.3 767.4 1195.7 770.7 1194.3 773.9 C 1190.7 781.8 1185.9 789.5 1179.0 795.0 C 1172.2 800.2 1163.5 802.3 1155.1 802.8 C 1145.9 803.4 1136.4 802.8 1128.1 798.7 C 1121.1 795.2 1115.1 789.3 1112.4 781.8 C 1109.4 773.6 1108.8 764.7 1109.0 756.0 C 1108.9 744.3 1109.5 732.6 1110.0 721.0 C 1109.8 719.5 1111.1 718.7 1111.9 717.9 C 1120.5 710.0 1129.6 702.6 1139.1 695.8 Z" />
<path fill="#ffffff" stroke="#ffffff" stroke-width="0.09375" opacity="1.00" d=" M 1771.1 695.8 C 1772.4 694.6 1774.3 695.1 1776.0 695.0 C 1786.0 695.5 1796.1 695.8 1805.9 697.6 C 1817.3 699.7 1827.3 707.9 1831.4 718.8 C 1832.9 723.4 1834.4 728.6 1833.4 733.4 C 1821.3 735.6 1809.4 738.7 1797.9 743.1 C 1796.8 739.5 1795.7 735.8 1793.3 732.8 C 1790.7 729.6 1787.0 727.5 1783.1 726.6 C 1782.3 736.4 1781.2 746.2 1781.0 756.0 C 1780.8 759.8 1781.9 763.7 1784.5 766.5 C 1788.4 770.6 1793.9 772.5 1799.1 774.2 C 1805.1 775.9 1812.0 777.1 1817.9 774.2 C 1822.8 772.0 1826.3 767.7 1830.0 763.9 C 1829.3 767.4 1827.7 770.7 1826.3 773.9 C 1822.7 781.8 1817.9 789.5 1811.0 795.0 C 1804.2 800.2 1795.5 802.3 1787.1 802.8 C 1778.0 803.4 1768.4 802.8 1760.1 798.7 C 1753.1 795.2 1747.1 789.3 1744.4 781.8 C 1741.4 773.6 1740.8 764.7 1741.0 756.0 C 1740.9 744.3 1741.5 732.6 1742.0 720.9 C 1741.8 719.5 1743.1 718.7 1743.9 717.9 C 1752.5 710.0 1761.6 702.6 1771.1 695.8 Z" />
<path fill="#ffffff" stroke="#ffffff" stroke-width="0.09375" opacity="1.00" d=" M 1441.0 697.0 C 1443.0 695.5 1445.7 696.2 1448.0 696.3 C 1467.4 697.9 1486.8 698.7 1506.2 698.8 C 1503.6 708.8 1500.1 718.5 1499.0 728.8 C 1491.0 725.8 1482.5 724.4 1474.1 723.1 C 1464.0 721.7 1453.9 720.4 1443.8 719.8 C 1446.1 727.1 1453.0 732.0 1460.1 734.1 C 1472.4 738.2 1485.4 736.4 1498.1 737.5 C 1502.2 737.8 1506.5 738.2 1510.1 740.2 C 1514.5 742.6 1517.4 747.2 1518.1 752.0 C 1519.6 761.7 1517.2 771.7 1512.3 780.1 C 1509.2 785.3 1505.5 790.3 1500.2 793.3 C 1482.3 803.1 1461.1 805.6 1441.1 803.1 C 1430.5 801.8 1420.0 798.6 1410.8 793.1 C 1412.6 786.9 1415.1 781.0 1417.4 775.1 C 1427.5 779.1 1438.1 781.9 1448.9 782.8 C 1456.6 783.3 1464.6 784.0 1472.1 781.8 C 1476.3 780.6 1480.2 778.6 1483.9 776.5 C 1479.6 772.7 1473.7 771.1 1468.0 771.0 C 1461.7 771.1 1455.4 771.6 1449.0 771.2 C 1438.3 770.5 1427.2 769.0 1418.0 763.0 C 1410.7 758.3 1407.3 749.4 1407.3 741.0 C 1406.8 731.4 1409.8 721.5 1416.5 714.5 C 1423.4 707.2 1432.2 702.0 1441.0 697.0 Z" />
<path fill="#ffffff" stroke="#ffffff" stroke-width="0.09375" opacity="1.00" d=" M 1565.6 698.6 C 1567.9 697.4 1570.3 695.5 1573.1 696.1 C 1593.2 697.8 1613.4 698.7 1633.7 698.8 C 1631.2 708.7 1627.3 718.4 1626.7 728.8 C 1618.0 725.7 1608.9 724.2 1599.9 722.9 C 1590.4 721.6 1580.9 720.4 1571.3 719.8 C 1573.5 726.9 1580.1 731.7 1586.9 733.9 C 1601.2 738.8 1616.5 735.7 1631.1 738.1 C 1635.0 738.7 1638.9 740.4 1641.6 743.4 C 1644.8 746.7 1645.8 751.5 1646.0 756.0 C 1646.5 767.7 1641.8 779.3 1634.1 788.0 C 1631.1 791.5 1627.2 793.9 1623.1 795.7 C 1605.6 803.6 1585.8 805.6 1566.9 802.9 C 1556.9 801.4 1546.9 798.4 1538.3 792.9 C 1540.3 786.9 1542.5 780.9 1545.1 775.0 C 1556.7 780.1 1569.4 782.6 1582.0 783.2 C 1587.7 783.5 1593.6 783.4 1599.1 781.9 C 1603.4 780.8 1607.4 778.7 1611.3 776.6 C 1609.4 774.3 1606.5 773.4 1603.8 772.4 C 1596.5 769.8 1588.6 771.7 1581.0 771.4 C 1569.2 771.0 1556.8 769.8 1546.4 763.6 C 1540.2 760.0 1536.3 753.2 1535.3 746.1 C 1533.7 735.6 1535.7 724.0 1542.8 715.8 C 1549.1 708.5 1557.4 703.5 1565.6 698.6 Z" />
<path fill="#ffffff" stroke="#ffffff" stroke-width="0.09375" opacity="1.00" d=" M 1301.2 714.2 C 1307.5 708.0 1314.1 702.0 1321.2 696.6 C 1335.1 699.2 1349.1 701.7 1362.9 704.7 C 1372.7 706.6 1382.0 713.4 1385.3 723.1 C 1389.3 734.2 1388.5 746.3 1388.4 758.0 C 1388.3 771.3 1387.2 784.7 1389.1 797.9 C 1375.1 800.6 1361.4 804.7 1347.7 808.4 C 1349.3 793.3 1349.7 778.1 1349.7 763.0 C 1338.0 777.4 1324.9 790.6 1312.0 804.0 C 1311.1 805.0 1310.2 806.0 1309.1 806.9 C 1301.6 805.3 1294.3 802.7 1287.2 799.8 C 1285.6 788.2 1283.7 776.7 1283.3 765.0 C 1282.6 754.2 1283.3 742.9 1287.7 732.9 C 1290.8 725.7 1295.9 719.7 1301.2 714.2 M 1320.8 726.0 C 1321.4 742.0 1322.6 757.9 1323.4 773.9 C 1332.0 764.5 1339.3 753.9 1345.9 743.0 C 1346.5 741.8 1347.5 740.7 1347.7 739.4 C 1341.3 731.1 1330.6 728.2 1320.8 726.0 Z" />
<path fill="#ffffff" stroke="#ffffff" stroke-width="0.09375" opacity="1.00" d=" M 1664.1 714.6 C 1682.1 711.1 1699.3 704.2 1716.0 696.6 C 1716.0 702.7 1716.0 708.8 1716.0 715.0 C 1715.1 743.1 1717.1 771.3 1718.6 799.4 C 1704.1 802.0 1689.6 804.2 1675.0 806.0 C 1677.4 780.7 1676.6 755.1 1676.2 729.7 C 1669.8 731.8 1663.1 731.8 1656.6 730.8 C 1657.3 725.8 1658.5 720.8 1659.7 715.8 C 1661.0 714.9 1662.6 715.0 1664.1 714.6 Z" />
</svg>
