<?xml version="1.0" encoding="utf-8"?>
<svg id="Warstwa_1" data-name="Warstwa 1" viewBox="0 0 264 112" xmlns="http://www.w3.org/2000/svg">
  <title>aae</title>
  <path d="M 263.975 72.984 C 263.42 74.041 262.853 75.099 262.317 76.169 C 259.521 81.765 256.736 87.37 253.962 92.981 C 253.804 93.434 253.357 93.718 252.883 93.668 C 223.516 93.668 194.149 93.668 164.782 93.668 C 164.267 93.724 163.777 93.432 163.579 92.951 C 153.849 74.95 144.107 56.956 134.352 38.968 C 134.248 38.771 134.13 38.573 133.964 38.282 L 127.477 52.008 C 129.512 52.008 131.448 52.008 133.384 52.008 C 133.747 51.953 134.099 52.155 134.235 52.497 C 137.524 59.14 140.812 65.777 144.101 72.408 C 144.15 72.507 144.193 72.613 144.292 72.835 L 143.453 72.835 C 134.932 72.835 126.41 72.835 117.889 72.835 C 117.395 72.774 116.924 73.06 116.748 73.528 C 113.573 79.998 110.336 86.469 107.172 92.988 C 106.988 93.478 106.494 93.777 105.976 93.712 C 98.121 93.687 90.263 93.687 82.403 93.712 C 81.9 93.785 81.42 93.477 81.275 92.988 C 78.087 86.536 74.868 80.104 71.687 73.645 C 71.505 73.083 70.952 72.728 70.367 72.798 C 61.889 72.828 53.41 72.798 44.938 72.798 L 44.124 72.798 C 44.184 72.621 44.254 72.447 44.334 72.279 C 47.623 65.68 50.911 59.082 54.2 52.484 C 54.329 52.146 54.675 51.942 55.032 51.996 C 56.752 51.996 58.473 51.996 60.187 51.996 L 60.927 51.996 L 54.453 38.288 C 54.261 38.61 54.107 38.851 53.972 39.105 L 24.775 93.049 C 24.59 93.39 24.442 93.668 23.924 93.668 C 16.114 93.643 8.304 93.643 0.493 93.668 C 0.382 93.668 0.271 93.668 0 93.668 L 54.422 0.048 L 94.224 72.012 L 133.995 0.03 L 176.356 72.848 C 179.932 65.882 183.465 58.992 187.029 52.039 L 170.942 52.039 C 170.986 51.881 171.04 51.727 171.102 51.575 C 174.391 44.977 177.679 38.379 180.968 31.781 C 181.082 31.408 181.437 31.165 181.825 31.194 C 202.144 31.194 222.463 31.194 242.783 31.194 C 242.918 31.194 243.054 31.194 243.301 31.194 C 243.19 31.434 243.103 31.632 243.005 31.812 C 239.757 38.352 236.51 44.894 233.262 51.439 C 233.114 51.821 232.723 52.049 232.319 51.989 C 225.4 51.989 218.482 51.989 211.564 51.989 C 211.178 51.937 210.802 52.139 210.633 52.49 C 206.896 59.113 203.145 65.728 199.38 72.334 L 199.182 72.693 C 199.417 72.693 199.589 72.736 199.756 72.736 L 202.641 72.736 L 263.531 72.785 C 263.686 72.785 263.846 72.816 264 72.828 Z" fill="white"/>
  <path d="M 263.975 0.204 C 263.063 1.997 262.126 3.791 261.231 5.597 C 258.79 10.492 256.356 15.393 253.931 20.3 C 253.789 20.714 253.377 20.972 252.944 20.919 C 232.736 20.919 212.532 20.919 192.332 20.919 L 191.573 20.919 C 191.709 20.628 191.795 20.425 191.894 20.226 C 195.121 13.743 198.34 7.259 201.55 0.772 C 201.722 0.306 202.193 0.02 202.685 0.085 C 223.111 0.085 243.541 0.085 263.975 0.085 Z" fill="white"/>
  <path d="M 186.221 108.644 C 187.399 105.688 188.527 102.879 189.625 100.058 C 189.727 99.58 190.177 99.26 190.661 99.322 C 192.387 99.365 192.387 99.322 192.387 101.091 L 192.387 110.926 C 192.387 111.848 192.387 111.848 191.487 111.848 C 191.372 111.842 191.257 111.842 191.142 111.848 C 190.464 111.94 190.272 111.619 190.291 110.969 C 190.359 108.767 190.377 106.565 190.414 104.369 C 190.431 104.111 190.399 103.851 190.322 103.603 L 188.657 107.679 C 188.164 108.916 187.621 110.11 187.196 111.353 C 186.986 111.971 186.579 111.829 186.172 111.848 C 185.765 111.866 185.414 111.897 185.204 111.353 C 184.285 108.978 183.311 106.627 182.355 104.264 C 182.297 104.099 182.195 103.954 182.059 103.844 C 182.059 104.58 182.059 105.309 182.059 106.046 C 182.059 107.747 182.059 109.441 182.09 111.143 C 182.09 111.68 181.911 111.86 181.375 111.86 C 179.994 111.86 179.994 111.86 179.994 110.475 L 179.994 100.299 C 179.994 99.384 180.037 99.34 180.906 99.34 C 182.472 99.34 182.472 99.34 183.052 100.794 L 185.901 107.895 C 185.981 108.099 186.098 108.304 186.221 108.644 Z" fill="white"/>
  <path d="M 16.174 103.504 L 16.174 107.215 C 16.174 108.52 16.174 109.832 16.174 111.143 C 16.174 111.687 15.989 111.854 15.452 111.854 C 14.077 111.854 14.077 111.854 14.077 110.463 L 14.077 100.293 C 14.077 99.384 14.126 99.409 14.99 99.322 C 15.697 99.211 16.391 99.588 16.685 100.243 C 18.264 102.755 19.898 105.229 21.618 107.852 C 21.618 107.524 21.674 107.339 21.674 107.153 C 21.674 104.834 21.674 102.513 21.674 100.194 C 21.674 99.526 21.914 99.266 22.562 99.334 C 22.767 99.352 22.973 99.352 23.178 99.334 C 23.635 99.334 23.844 99.532 23.844 99.996 C 23.844 103.736 23.844 107.479 23.844 111.223 C 23.844 111.637 23.665 111.842 23.228 111.842 C 22.375 112.026 21.506 111.605 21.119 110.821 C 19.596 108.31 17.943 105.873 16.34 103.398 Z" fill="white"/>
  <path d="M 81.799 106.596 L 84.265 111.037 C 84.598 111.656 84.481 111.786 83.784 111.873 C 82.867 112.108 81.933 111.555 81.694 110.635 C 81.208 109.53 80.641 108.46 79.999 107.438 C 79.847 107.212 79.607 107.062 79.339 107.023 C 78.722 106.968 78.069 107.023 77.359 107.023 C 77.359 108.396 77.329 109.695 77.359 111 C 77.359 111.662 77.181 111.947 76.509 111.854 C 76.304 111.833 76.097 111.833 75.892 111.854 C 75.466 111.854 75.275 111.68 75.275 111.235 C 75.275 107.468 75.275 103.701 75.275 99.928 C 75.275 99.724 75.59 99.346 75.756 99.352 C 77.512 99.309 79.268 99.372 81.016 99.538 C 82.567 99.693 83.779 100.947 83.883 102.507 C 84.203 104.042 83.478 105.606 82.101 106.349 C 81.995 106.425 81.895 106.508 81.799 106.596 Z M 77.347 101.251 C 77.347 102.489 77.347 103.67 77.347 104.858 C 77.347 104.975 77.551 105.198 77.655 105.192 C 78.589 105.216 79.523 105.169 80.449 105.049 C 81.328 104.823 81.913 103.99 81.83 103.083 C 81.841 102.172 81.175 101.395 80.276 101.271 C 79.339 101.19 78.377 101.258 77.347 101.258 Z" fill="white"/>
  <path d="M 111.069 106.596 L 113.493 111 C 113.875 111.7 113.77 111.799 112.962 111.885 C 112.1 112.092 111.229 111.582 110.983 110.728 C 110.47 109.608 109.892 108.519 109.25 107.468 C 109.095 107.248 108.857 107.103 108.591 107.067 C 107.974 107.011 107.32 107.067 106.617 107.067 C 106.617 108.446 106.617 109.751 106.617 111.049 C 106.617 111.731 106.408 111.984 105.748 111.891 C 105.543 111.876 105.337 111.876 105.131 111.891 C 104.694 111.891 104.515 111.706 104.515 111.272 C 104.515 107.524 104.515 103.775 104.515 100.034 C 104.515 99.811 104.798 99.415 104.94 99.415 C 106.72 99.372 108.501 99.433 110.274 99.6 C 111.822 99.755 113.031 101.012 113.129 102.57 C 113.451 104.108 112.719 105.674 111.334 106.411 C 111.297 106.417 111.223 106.479 111.069 106.596 Z M 106.624 101.277 C 106.624 102.513 106.624 103.652 106.624 104.821 C 106.676 105.01 106.824 105.158 107.012 105.211 C 107.854 105.229 108.697 105.192 109.534 105.1 C 110.446 104.96 111.117 104.169 111.106 103.244 C 111.176 102.307 110.52 101.471 109.596 101.32 C 108.606 101.251 107.614 101.234 106.624 101.271 Z" fill="white"/>
  <path d="M 260.233 106.64 L 262.656 111.043 C 262.995 111.662 262.878 111.792 262.175 111.879 C 261.259 112.114 260.327 111.56 260.091 110.642 C 259.6 109.538 259.034 108.469 258.395 107.444 C 258.242 107.219 258.003 107.07 257.735 107.03 C 257.119 106.974 256.465 107.03 255.756 107.03 C 255.756 108.396 255.725 109.701 255.756 111.006 C 255.756 111.662 255.577 111.953 254.899 111.86 C 254.694 111.839 254.487 111.839 254.282 111.86 C 253.857 111.86 253.666 111.687 253.666 111.242 C 253.666 107.475 253.666 103.707 253.666 99.94 C 253.666 99.737 253.98 99.352 254.147 99.359 C 255.904 99.315 257.662 99.378 259.412 99.545 C 260.963 99.699 262.176 100.955 262.28 102.513 C 262.598 104.048 261.873 105.611 260.498 106.355 C 260.418 106.405 260.35 106.466 260.276 106.522 C 260.259 106.56 260.245 106.599 260.233 106.64 Z M 255.774 101.245 C 255.774 102.482 255.774 103.652 255.774 104.821 C 255.774 104.957 255.99 105.205 256.101 105.198 C 257.014 105.223 257.927 105.18 258.833 105.069 C 259.742 104.855 260.35 103.996 260.251 103.064 C 260.246 102.102 259.495 101.311 258.537 101.258 C 257.624 101.208 256.755 101.245 255.774 101.245 Z" fill="white"/>
  <path d="M 58.781 106.368 L 53.287 106.368 L 53.287 108.347 C 53.287 109.287 53.287 110.234 53.287 111.174 C 53.287 111.656 53.164 111.885 52.627 111.873 C 51.104 111.873 51.191 112.002 51.197 110.481 C 51.197 107.054 51.197 103.633 51.197 100.206 C 51.197 99.545 51.419 99.266 52.072 99.334 C 52.255 99.352 52.439 99.352 52.621 99.334 C 53.121 99.291 53.312 99.501 53.306 100.015 C 53.306 101.326 53.306 102.631 53.306 103.943 C 53.306 104.258 53.306 104.561 53.743 104.561 C 55.39 104.561 57.036 104.561 58.763 104.561 C 58.763 104.283 58.8 104.041 58.8 103.801 C 58.8 102.564 58.8 101.326 58.8 100.089 C 58.8 99.6 58.985 99.39 59.484 99.372 C 60.958 99.328 60.958 99.315 60.958 100.806 C 60.958 104.209 60.958 107.611 60.958 111.012 C 60.958 111.848 60.896 111.903 60.051 111.91 C 59.916 111.91 59.78 111.91 59.644 111.91 C 59.028 111.977 58.775 111.718 58.793 111.087 C 58.793 109.775 58.793 108.464 58.793 107.153 Z" fill="white"/>
  <path d="M 140.685 105.613 C 140.685 103.795 140.685 101.982 140.685 100.163 C 140.685 99.545 140.925 99.297 141.536 99.334 C 143.014 99.328 144.492 99.426 145.957 99.625 C 148.152 100.083 149.509 101.914 149.786 104.172 C 149.974 105.465 149.907 106.783 149.589 108.05 C 148.953 110.308 146.896 111.865 144.557 111.86 C 143.503 111.86 142.448 111.86 141.4 111.86 C 140.845 111.86 140.685 111.631 140.691 111.112 C 140.697 109.287 140.685 107.45 140.685 105.613 Z M 142.825 101.283 L 142.825 110.072 C 143.398 110.072 143.928 110.11 144.446 110.072 C 146.044 110.077 147.404 108.906 147.64 107.32 C 147.921 106.067 147.883 104.763 147.529 103.529 C 147.275 102.377 146.346 101.497 145.186 101.308 C 144.401 101.229 143.612 101.212 142.825 101.258 Z" fill="white"/>
  <path d="M 26.785 105.637 C 26.793 104.325 27.081 103.03 27.63 101.839 C 28.49 100.08 30.332 99.024 32.279 99.174 C 34.295 99.228 36.042 100.587 36.596 102.533 C 37.277 104.538 37.277 106.713 36.596 108.718 C 35.88 110.828 34.185 112.133 31.509 111.99 C 29.4 111.791 27.658 110.253 27.192 108.179 C 27.014 107.34 26.878 106.491 26.785 105.637 Z M 28.796 105.588 C 28.972 106.554 29.201 107.51 29.48 108.452 C 29.823 109.548 30.873 110.262 32.014 110.178 C 33.186 110.135 34.055 109.819 34.585 108.23 C 34.809 107.535 34.931 106.812 34.949 106.083 C 35.058 104.941 34.894 103.789 34.468 102.724 C 34.103 101.781 33.207 101.152 32.199 101.128 C 31.069 100.961 29.972 101.593 29.548 102.656 C 29.232 103.615 28.981 104.595 28.796 105.588 Z" fill="white"/>
  <path d="M 240.31 106.021 C 240.359 103.775 240.6 102.05 241.913 100.689 C 244.368 98.079 248.703 98.976 249.929 102.347 C 250.701 104.42 250.716 106.702 249.972 108.786 C 249.189 111.069 247.413 112.139 244.854 112.002 C 242.774 111.786 241.065 110.259 240.612 108.21 C 240.465 107.488 240.365 106.757 240.31 106.021 Z M 242.369 105.309 C 242.437 106.126 242.468 106.72 242.542 107.314 C 242.646 108.835 243.839 110.053 245.354 110.184 C 246.729 110.271 247.82 109.33 248.184 107.654 C 248.505 106.227 248.492 104.746 248.147 103.324 C 247.926 102.11 246.908 101.204 245.681 101.128 C 244.158 101.091 243.214 101.747 242.758 103.188 C 242.585 103.887 242.455 104.595 242.369 105.309 Z" fill="white"/>
  <path d="M 204.874 104.123 C 204.874 105.359 204.874 106.553 204.874 107.771 C 204.874 110.326 203.135 111.817 200.823 111.977 C 199.963 112.036 199.1 111.927 198.282 111.656 C 196.432 111.037 195.723 109.485 195.692 107.623 C 195.655 105.1 195.692 102.57 195.692 100.046 C 195.692 99.557 195.883 99.346 196.383 99.328 C 197.857 99.285 197.857 99.272 197.857 100.769 C 197.857 103.089 197.9 105.409 197.857 107.722 C 197.707 109.131 198.879 110.325 200.286 110.197 C 201.902 110.197 202.802 109.33 202.808 107.722 C 202.808 105.174 202.808 102.625 202.808 100.077 C 202.808 99.495 203.005 99.272 203.566 99.334 C 203.726 99.352 203.888 99.352 204.047 99.334 C 204.695 99.254 204.941 99.514 204.917 100.194 C 204.843 101.499 204.874 102.81 204.874 104.123 Z" fill="white"/>
  <path d="M 66.513 106.349 L 66.513 110.06 C 66.741 110.06 66.945 110.097 67.13 110.097 L 71.409 110.097 C 72.501 110.097 72.797 110.481 72.488 111.551 C 72.389 111.735 72.203 111.856 71.995 111.873 C 69.664 111.873 67.327 111.873 64.99 111.873 C 64.485 111.873 64.374 111.576 64.374 111.155 C 64.374 109.299 64.374 107.444 64.374 105.588 L 64.374 100.287 C 64.374 99.409 64.423 99.365 65.323 99.365 L 71.489 99.365 C 72.359 99.365 72.322 99.365 72.371 100.331 C 72.371 100.948 72.272 101.296 71.52 101.271 C 70.077 101.214 68.634 101.271 67.204 101.271 L 66.476 101.271 C 66.476 102.304 66.476 103.262 66.476 104.221 C 66.476 104.351 66.846 104.555 67.05 104.561 C 68.351 104.592 69.658 104.604 70.965 104.561 C 71.674 104.561 71.662 104.945 71.65 105.44 C 71.637 105.934 71.699 106.411 70.947 106.399 C 69.516 106.325 68.055 106.349 66.513 106.349 Z" fill="white"/>
  <path d="M 155.039 106.349 L 155.039 110.06 L 160.003 110.06 C 160.758 109.94 161.359 110.685 161.085 111.401 C 161.06 111.467 161.028 111.529 160.99 111.588 C 160.875 111.747 160.692 111.84 160.496 111.842 C 158.16 111.842 155.829 111.842 153.492 111.842 C 153.085 111.842 152.918 111.643 152.918 111.223 C 152.918 107.458 152.918 103.691 152.918 99.922 C 152.87 99.562 153.176 99.255 153.535 99.303 L 160.318 99.303 C 160.712 99.303 160.934 99.452 160.897 99.872 C 160.879 100.079 160.879 100.285 160.897 100.491 C 160.959 101.042 160.712 101.214 160.182 101.202 C 158.721 101.202 157.253 101.202 155.786 101.202 L 154.984 101.202 C 154.984 102.224 154.984 103.164 154.984 104.097 C 154.984 104.512 155.237 104.512 155.533 104.512 C 156.766 104.512 158.049 104.543 159.306 104.512 C 160.003 104.512 160.237 104.709 160.194 105.409 C 160.139 106.317 160.194 106.343 159.263 106.343 Z" fill="white"/>
  <path d="M 171.225 101.227 C 171.225 102.254 171.225 103.195 171.225 104.129 C 171.225 104.549 171.491 104.537 171.78 104.537 C 173.088 104.537 174.389 104.537 175.696 104.537 C 176.349 104.537 176.467 104.809 176.436 105.365 C 176.405 105.922 176.516 106.392 175.708 106.374 C 174.247 106.337 172.785 106.374 171.275 106.374 L 171.275 110.085 C 172.995 110.085 174.685 110.085 176.368 110.085 C 176.645 110.085 177.139 110.153 177.163 110.264 C 177.228 110.734 177.228 111.211 177.163 111.68 C 177.163 111.755 176.867 111.86 176.707 111.86 C 174.37 111.86 172.033 111.86 169.696 111.86 C 169.289 111.86 169.129 111.656 169.129 111.242 C 169.129 107.472 169.129 103.705 169.129 99.94 C 169.075 99.579 169.385 99.268 169.746 99.322 L 176.528 99.322 C 176.929 99.322 177.145 99.477 177.102 99.897 C 177.083 100.103 177.083 100.31 177.102 100.516 C 177.163 101.073 176.898 101.227 176.38 101.221 C 174.722 101.214 173.032 101.227 171.225 101.227 Z" fill="white"/>
  <path d="M 6.222 108.767 C 5.469 108.767 4.501 108.476 4.026 108.841 C 3.552 109.207 3.41 110.246 3.095 110.982 C 2.972 111.285 2.849 111.774 2.645 111.817 C 2.107 111.91 1.556 111.91 1.017 111.817 C 0.892 111.571 0.861 111.286 0.931 111.019 C 1.788 108.693 2.688 106.38 3.576 104.066 C 4.1 102.687 4.655 101.314 5.136 99.922 C 5.222 99.502 5.641 99.239 6.055 99.346 C 6.536 99.397 7.054 99.167 7.325 99.903 C 8.719 103.658 10.168 107.388 11.598 111.124 C 11.777 111.6 11.685 111.885 11.124 111.879 L 11.056 111.879 C 9.712 111.922 9.724 111.922 9.249 110.672 C 9.009 110.054 8.904 109.17 8.435 108.855 C 7.967 108.539 7.116 108.749 6.431 108.73 L 6.222 108.73 Z M 6.222 102.359 L 4.594 106.874 L 7.856 106.874 Z" fill="white"/>
  <path d="M 100.945 111.866 C 100.328 112.04 100.001 111.737 99.81 111.019 C 99.619 110.301 99.446 109.232 98.91 108.873 C 98.373 108.513 97.325 108.736 96.505 108.718 C 95.934 108.687 95.362 108.687 94.791 108.718 C 94.553 108.768 94.35 108.923 94.236 109.138 C 93.926 109.848 93.658 110.575 93.434 111.316 C 93.372 111.682 93.021 111.925 92.657 111.854 C 91.147 111.854 90.937 112.077 91.615 110.32 C 92.96 106.844 94.285 103.357 95.592 99.86 C 95.671 99.465 96.067 99.218 96.456 99.322 C 96.924 99.39 97.467 99.075 97.751 99.842 C 99.119 103.553 100.544 107.264 101.95 110.945 C 102.252 111.731 102.172 111.842 101.333 111.848 Z M 98.306 106.874 L 96.69 102.365 C 96.11 103.967 95.592 105.397 95.062 106.874 Z" fill="white"/>
  <path d="M 128.525 111.866 L 128.069 111.866 C 127.348 111.866 127.243 111.712 127.496 111.057 C 128.511 108.38 129.539 105.7 130.579 103.015 C 130.973 101.97 131.405 100.942 131.763 99.885 C 131.829 99.483 132.228 99.226 132.62 99.334 C 133.082 99.409 133.631 99.075 133.915 99.842 C 135.32 103.615 136.776 107.364 138.231 111.124 C 138.416 111.613 138.286 111.842 137.744 111.866 C 136.356 111.922 136.362 111.928 135.894 110.629 C 135.653 110.011 135.542 109.151 135.074 108.817 C 134.605 108.483 133.797 108.712 133.138 108.699 C 132.478 108.687 131.763 108.699 131.078 108.699 C 130.752 108.632 130.437 108.857 130.394 109.189 C 130.233 109.807 129.919 110.326 129.777 110.92 C 129.549 111.68 129.216 112.071 128.525 111.866 Z M 134.457 106.874 L 132.817 102.359 L 131.195 106.874 Z" fill="white"/>
  <path d="M 218.741 111.866 L 218.124 111.866 C 217.508 111.866 217.409 111.7 217.631 111.106 C 218.198 109.59 218.766 108.081 219.345 106.571 C 220.184 104.363 221.06 102.161 221.867 99.94 C 221.956 99.499 222.392 99.219 222.829 99.322 C 223.322 99.352 223.816 99.192 224.062 99.909 C 225.444 103.621 226.88 107.333 228.298 111.075 C 228.508 111.631 228.385 111.829 227.811 111.854 C 226.436 111.916 226.442 111.916 225.962 110.617 C 225.727 109.998 225.647 109.138 225.197 108.848 C 224.747 108.558 223.877 108.724 223.193 108.706 L 221.75 108.706 C 220.64 108.706 220.64 108.706 220.276 109.714 C 220.108 110.118 219.964 110.531 219.845 110.951 C 219.728 111.643 219.444 112.102 218.741 111.866 Z M 222.99 102.359 C 222.41 103.967 221.892 105.397 221.362 106.874 L 224.624 106.874 C 224.087 105.397 223.563 103.955 222.99 102.359 Z" fill="white"/>
  <path d="M 123.512 103.732 C 123.42 103.392 123.327 103.113 123.26 102.786 C 123.085 101.772 122.207 101.033 121.182 101.036 C 120.23 100.888 119.277 101.291 118.715 102.075 C 117.821 103.355 117.858 104.84 117.926 106.299 C 117.952 107.004 118.077 107.702 118.296 108.372 C 118.821 110.009 120.71 110.753 122.205 109.912 C 122.864 109.561 123.292 108.89 123.334 108.142 C 123.408 107.648 123.611 107.524 124.049 107.567 L 124.252 107.567 C 125.701 107.567 125.708 107.567 125.282 108.959 C 124.751 110.691 123.201 111.908 121.397 112.009 C 117.944 112.281 116.218 109.912 115.922 107.419 C 115.607 105.653 115.76 103.837 116.366 102.149 C 117.043 100.325 118.798 99.131 120.738 99.174 C 122.631 99.118 124.172 99.792 125.054 101.648 C 125.228 102.044 125.355 102.459 125.43 102.885 C 125.597 103.677 125.535 103.726 124.709 103.732 Z" fill="white"/>
  <path d="M 44.895 101.227 C 44.895 104.549 44.895 107.765 44.895 110.976 C 44.895 111.266 44.766 111.786 44.655 111.799 C 44.093 111.846 43.528 111.825 42.971 111.737 C 42.903 111.737 42.848 111.334 42.848 111.118 C 42.848 108.103 42.848 105.094 42.848 102.087 L 42.848 101.227 L 39.864 101.227 C 39.013 101.227 38.97 101.171 38.97 100.25 C 38.97 99.328 39.025 99.34 39.864 99.34 L 47.836 99.34 C 48.687 99.34 48.73 99.39 48.73 100.318 C 48.73 101.245 48.669 101.227 47.836 101.227 Z" fill="white"/>
  <path d="M 232.639 101.227 C 231.554 101.227 230.574 101.196 229.593 101.227 C 228.866 101.227 228.773 100.874 228.779 100.28 C 228.786 99.687 228.829 99.309 229.569 99.315 C 232.294 99.34 235.019 99.34 237.745 99.315 C 238.466 99.315 238.565 99.662 238.559 100.262 C 238.553 100.862 238.516 101.251 237.77 101.227 C 236.771 101.184 235.772 101.227 234.687 101.227 L 234.687 102.038 C 234.687 105.049 234.687 108.062 234.687 111.069 C 234.687 111.643 234.569 111.897 233.928 111.879 C 232.417 111.829 232.621 112.015 232.615 110.543 C 232.615 107.716 232.615 104.889 232.615 102.062 Z" fill="white"/>
  <path d="M 210.146 110.072 C 211.847 110.072 213.451 110.103 215.078 110.072 C 215.788 110.072 215.929 110.351 215.923 110.976 C 215.917 111.6 215.775 111.903 215.078 111.891 C 213.019 111.854 210.96 111.891 208.912 111.891 C 208.333 111.891 208.092 111.731 208.092 111.112 C 208.092 107.462 208.092 103.813 208.092 100.163 C 208.092 99.545 208.302 99.34 208.894 99.346 C 210.398 99.346 210.183 99.303 210.189 100.646 C 210.189 103.516 210.189 106.386 210.189 109.256 Z" fill="white"/>
</svg>