<?xml version="1.0" encoding="utf-8"?>
<svg version="1.1" id="svg14" viewBox="0 0 264 61" xmlns="http://www.w3.org/2000/svg">
  <path style="opacity:1;fill:#ffffff;fill-opacity:1;fill-rule:evenodd;stroke:none;stroke-width:11.27770996;stroke-linecap:butt;stroke-linejoin:miter;stroke-miterlimit:4;stroke-dasharray:none;stroke-opacity:1" id="path3440" d="M 62.019 0 C 60.774 1.993 38.363 37.187 28.59 52.53 L 43 52.53 C 45.004 49.374 45.574 48.46 47.43 45.538 L 62.108 45.426 C 62.109 47.791 62.108 50.163 62.108 52.53 L 75.69 52.53 C 75.695 35.022 75.677 17.507 75.645 0 Z M 94.239 0 L 83.231 17.279 L 83.141 17.39 L 83.074 17.502 C 76.51 27.51 76.896 25.836 83.186 36.125 L 83.275 36.283 L 83.365 36.439 L 93.993 52.53 L 108.581 52.53 L 93.724 30.03 C 93.715 30.014 93.711 30.001 93.702 29.985 C 92.467 27.84 91.87 26.62 93.613 23.598 L 108.649 0 L 94.239 0 Z M 114.175 0 L 103.167 17.279 L 103.077 17.39 L 103.01 17.502 C 96.447 27.51 96.832 25.836 103.122 36.125 L 103.211 36.283 L 103.301 36.439 L 113.929 52.53 L 128.495 52.53 L 113.661 30.03 C 113.651 30.014 113.648 30.001 113.638 29.985 C 112.404 27.84 111.806 26.62 113.549 23.598 L 128.585 0 L 114.175 0 Z M 130.532 0 L 130.532 52.53 L 143.621 52.53 L 143.621 0 Z M 189.289 0 L 189.289 9.815 L 202.401 9.815 L 202.401 0 Z M 166.31 11.72 C 155.087 11.72 145.859 20.964 145.859 32.203 C 145.859 42.624 153.794 51.315 163.893 52.53 L 168.704 52.53 C 170.829 52.271 172.863 51.691 174.745 50.826 L 174.745 52.53 L 186.76 52.53 L 186.76 12.079 L 174.745 12.079 L 174.745 13.581 C 172.166 12.395 169.313 11.72 166.31 11.72 Z M 189.289 12.437 L 189.289 52.53 L 202.401 52.53 L 202.401 12.437 Z M 205.466 12.528 L 205.466 52.53 L 217.638 52.53 L 217.638 29.783 C 217.638 26.798 219.848 24.584 222.829 24.584 C 225.81 24.584 228.02 26.798 228.02 29.783 L 228.02 52.53 L 241.154 52.53 L 241.154 29.896 C 241.154 26.909 243.365 24.695 246.346 24.695 C 249.326 24.696 251.537 26.909 251.537 29.896 L 251.537 52.53 L 263.709 52.53 L 263.709 29.896 C 263.709 20.367 259.887 12.774 246.212 13.042 C 241.924 13.042 239.149 14.949 236.478 17.569 C 233.805 14.579 229.452 12.798 222.695 12.93 C 221.146 12.93 219.617 13.15 218.153 13.558 L 218.153 12.528 Z M 62.064 22.455 C 62.067 24.7 62.083 24.58 62.086 27.609 C 62.088 29.126 62.084 30.289 62.086 31.801 L 56.112 31.845 C 58.975 27.336 59.209 26.954 62.064 22.455 Z M 166.31 23.911 C 170.946 23.911 174.588 27.56 174.588 32.203 C 174.588 36.847 170.946 40.495 166.31 40.495 C 161.673 40.495 158.031 36.847 158.031 32.203 C 158.031 27.56 161.673 23.911 166.31 23.911 Z"/>
  <path style="opacity:1;fill:#ffffff;fill-opacity:1;fill-rule:evenodd;stroke:none;stroke-width:0.66339463px;stroke-linecap:butt;stroke-linejoin:miter;stroke-opacity:1" id="path3526" d="M 56.483 1.386 L 0 61 L 264 61 L 264 55.96 L 16.992 55.96 Z"/>
  <path style="opacity:1;fill:#ffffff;fill-opacity:1;fill-rule:evenodd;stroke:none;stroke-width:0.66339463px;stroke-linecap:butt;stroke-linejoin:miter;stroke-opacity:1" id="path3528" d="M 13.775 61 L 264 61 L 264 55.96 L 16.992 55.96 Z"/>
</svg>