<?xml version="1.0" encoding="utf-8"?>
<svg id="Warstwa_1" data-name="Warstwa 1" viewBox="0 0 264 74" xmlns="http://www.w3.org/2000/svg">
  <title>amcoe</title>
  <path d="M 39.22 1.394 L 34.18 2.259 L 61.678 68.815 C 62.538 67.522 64.011 66.329 63.938 65.236 C 63.361 55.82 62.337 46.429 61.806 37.003 C 61.708 32.803 61.934 28.601 62.483 24.435 C 62.547 23.807 63.992 22.869 64.825 22.842 C 74.887 22.459 85.023 22.195 95.122 21.995 C 95.999 22.081 96.816 22.474 97.428 23.106 C 100.776 26.338 104.572 26.485 107.792 23.387 C 112.366 18.971 122.557 20.811 124.944 26.694 C 125.466 27.987 124.468 29.827 124.459 31.412 C 124.414 42.896 124.368 54.38 124.514 65.865 C 124.514 67.194 125.703 68.506 126.536 70.246 C 124.221 71.065 121.77 72.267 119.218 72.769 C 114.369 73.679 110.93 70.619 110.893 65.637 C 110.82 57.186 110.893 48.724 110.701 40.273 C 110.511 38.147 110.169 36.038 109.676 33.962 C 108.881 33.87 108.149 33.716 107.417 33.698 C 100.456 33.56 100.373 33.752 100.309 40.656 C 100.227 49.053 99.888 57.449 99.852 65.846 C 99.852 67.35 100.767 68.843 101.389 70.692 C 98.964 70.993 96.485 71.348 93.997 71.603 C 89.268 72.095 87.96 70.901 87.941 66.138 C 87.941 58.67 87.987 51.202 87.85 43.743 C 87.795 41.065 87.923 38.024 86.688 35.865 C 85.828 34.353 82.855 33.56 80.742 33.388 C 79.544 33.288 77.211 34.981 77.083 36.065 C 76.443 41.412 76.305 46.822 76.168 52.213 C 76.022 56.885 76.168 61.566 76.004 66.248 C 76.13 69.435 73.333 71.963 70.158 71.529 C 63.197 70.619 56.537 70.255 50.033 73.515 C 49.521 73.77 47.865 72.75 47.417 71.948 C 45.848 69.231 44.487 66.4 43.346 63.479 C 42.267 60.628 41.709 57.586 40.766 54.681 C 39.824 51.776 38.306 49.499 34.656 49.216 C 31.719 48.98 28.874 47.54 25.956 47.441 C 17.668 47.158 15.436 49.262 13.744 57.313 C 13.058 59.927 11.995 62.426 10.588 64.735 C 9.325 67.04 10.194 69.007 12.939 69.381 C 13.856 69.499 14.667 70.034 15.134 70.828 C 11.475 71.193 7.816 71.812 4.157 71.867 C 0.269 71.93 -0.801 69.317 0.69 65.71 C 2.895 60.4 4.349 54.781 6.59 49.481 C 8.42 45 10.926 40.764 13.049 36.393 C 13.366 35.446 13.617 34.478 13.799 33.497 C 15.345 28.707 16.689 23.824 18.565 19.162 C 20.129 15.273 21.867 11.785 20.394 7.277 C 18.684 1.958 20.193 0.237 25.737 0.064 C 30.201 -0.082 34.683 0.064 39.156 0.064 Z M 20.833 37.686 C 24.941 38.252 28.152 38.871 31.39 38.989 C 32.195 38.989 33.915 37.213 33.759 36.603 C 32.433 31.265 30.777 26.011 29.185 20.728 L 26.88 20.774 Z" fill="white"/>
  <path d="M 217.126 50.401 C 217.501 57.586 213.202 61.485 207.548 64.654 C 205.627 65.728 204.31 67.832 202.444 69.061 C 195.126 73.889 180.023 71.274 174.635 64.326 C 173.819 63.38 173.254 62.247 172.988 61.029 C 172.421 56.867 172.394 52.623 171.625 48.506 C 170.418 42.003 173.592 37.058 177.352 32.659 C 182.328 26.83 189.107 23.67 196.699 22.35 C 196.974 22.295 197.285 21.931 197.486 21.995 C 202.353 23.615 207.356 24.945 212.031 27.021 C 216.907 29.18 217.776 33.816 217.748 38.652 C 217.748 39.954 217.867 41.247 217.931 42.55 L 219.23 42.795 C 219.651 40.546 220.145 38.315 220.456 36.047 C 221.051 31.081 224.889 27.115 229.851 26.338 C 231.598 26.066 233.729 25.427 234.8 24.162 C 238.459 19.981 243.142 21.11 247.607 21.047 C 253.187 20.965 257.303 24.691 260.477 28.114 C 263.048 30.846 264.018 35.965 264.045 40.027 C 264.045 43.388 260.724 45.491 256.91 45.61 C 256.447 45.627 256.011 45.831 255.702 46.174 C 250.726 53.142 243.097 49.635 235.339 51.402 C 238.541 53.952 240.892 57.14 243.838 57.832 C 247.57 58.743 251.769 57.423 255.775 57.322 C 258.245 57.258 262.298 56.857 262.892 58.014 C 264.265 60.655 263.999 63.67 259.709 65.209 C 256.562 66.338 254.129 69.416 251.375 71.584 C 246.445 75.527 240.764 73.487 235.385 73.351 C 233.327 73.296 231.232 72.076 229.274 71.138 C 220.593 67.003 218.754 58.952 217.126 50.401 Z M 194.083 60.418 C 199.379 61.912 200.907 58.488 201.758 53.798 C 202.993 46.967 203.514 40.783 197.001 35.774 C 193.708 33.242 190.543 34.39 187.405 34.636 C 186.692 34.69 185.932 38.443 185.786 40.537 C 185.411 44.309 185.429 48.108 185.841 51.876 C 186.088 53.697 187.762 55.519 189.18 56.967 C 190.598 58.415 192.427 59.325 194.083 60.455 Z M 236.254 38.661 L 248.146 38.661 L 243.234 32.932 L 236.007 35.273 Z" fill="white"/>
  <path d="M 170.372 56.903 C 172.284 65.328 152.918 74.653 141.456 70.564 C 138.19 69.39 135.391 66.922 132.829 65.346 C 132.39 62.03 131.915 58.87 131.558 55.71 C 130.451 46.275 129.125 36.83 137.422 29.408 C 143.477 23.989 161.526 22.759 167.765 27.641 C 168.204 27.987 168.067 29.462 167.765 30.227 C 165.844 35.692 160.337 36.184 155.964 38.006 C 155.113 38.36 153.293 36.184 151.811 35.273 C 149.698 34.071 146.762 31.63 145.499 32.267 C 143.67 33.178 142.096 36.375 141.968 38.643 C 141.881 43.117 142.262 47.589 143.102 51.985 C 143.258 52.996 145.005 53.807 146.103 54.58 C 146.414 54.808 147.246 54.526 147.402 54.762 C 152.762 62.914 159.797 58.615 166.42 57.331 C 167.454 57.131 168.46 56.812 169.494 56.611 C 169.777 56.593 170.088 56.812 170.372 56.903 Z" fill="white"/>
</svg>