<?xml version="1.0" encoding="utf-8"?>
<svg xmlns="http://www.w3.org/2000/svg">
  <path id="path7" d="M 8.578 42.983 L 9.217 34.526 L 12.712 34.526 L 13.416 42.983 L 22.04 42.983 L 16.634 0.209 L 5.489 0.209 L 0 42.983 L 8.578 42.983 M 12.206 27.469 L 9.721 27.469 L 10.982 10.848 L 12.206 27.469 M 36.115 0.209 L 24.098 0.209 L 24.098 42.983 L 32.318 42.983 L 32.318 18.623 L 35.717 42.983 L 41.056 42.983 L 44.322 18.756 L 44.322 42.983 L 52.541 42.983 L 52.541 0.209 L 40.507 0.209 L 38.273 19.103 L 36.115 0.209 M 54.036 5.415 C 54.031 8.362 53.997 11.308 54.021 14.258 C 54.036 14.74 54.065 15.221 54.093 15.567 C 54.156 16.297 54.213 16.52 54.335 16.994 C 54.459 17.463 54.67 18.048 55.001 18.566 C 55.157 18.813 55.332 19.048 55.592 19.333 C 55.853 19.617 56.198 19.951 56.562 20.263 C 57.313 20.914 58.13 21.415 58.951 21.85 C 60.744 22.842 62.526 23.823 64.332 24.83 C 64.574 24.983 64.83 25.112 65.086 25.361 C 65.706 25.958 65.704 26.652 65.695 27.315 L 65.729 28.239 L 65.743 34.032 C 65.748 34.454 65.707 34.872 65.504 35.321 C 65.435 35.451 65.339 35.572 65.225 35.671 C 64.86 35.975 64.401 36.054 63.948 35.873 C 63.808 35.815 63.679 35.73 63.571 35.625 C 63.113 35.185 63.166 34.559 63.1 34.022 L 63.091 25.305 L 54.004 25.305 L 54.013 35.064 C 54.021 36.263 54.028 37.398 54.288 38.572 C 54.427 39.177 54.649 39.806 54.986 40.368 C 55.323 40.932 55.774 41.429 56.302 41.818 C 56.83 42.205 57.435 42.485 57.914 42.65 C 58.392 42.815 58.744 42.869 59.096 42.911 C 59.448 42.954 59.8 43 60.153 43 L 69.385 42.999 C 69.804 42.999 70.223 43.018 70.738 42.876 C 71.254 42.733 71.866 42.482 72.395 42.146 C 72.924 41.809 73.37 41.388 73.678 40.936 C 73.985 40.484 74.155 40.001 74.3 39.568 C 74.446 39.133 74.567 38.744 74.656 38.227 C 74.745 37.71 74.802 37.064 74.834 36.417 C 74.865 35.77 74.85 35.123 74.85 34.474 L 74.85 27.618 C 74.85 27.49 74.85 27.361 74.846 27.071 C 74.843 26.78 74.837 26.331 74.818 25.817 C 74.797 25.301 74.763 24.723 74.731 24.349 C 74.7 23.974 74.672 23.806 74.637 23.638 C 74.603 23.47 74.561 23.305 74.514 23.14 C 74.467 22.975 74.415 22.811 74.283 22.527 C 74.152 22.244 73.942 21.84 73.688 21.465 C 73.435 21.09 73.139 20.744 72.808 20.435 C 72.477 20.126 72.112 19.856 71.705 19.577 C 70.863 19.005 69.925 18.42 69.019 17.916 L 65.162 15.809 C 64.929 15.681 64.7 15.548 64.479 15.403 C 64.258 15.257 64.044 15.101 63.915 15.003 C 63.684 14.826 63.683 14.803 63.586 14.699 C 63.548 14.656 63.511 14.611 63.447 14.506 C 63.302 14.275 63.126 13.867 63.094 13.522 C 63.071 13.337 63.091 13.151 63.091 12.963 C 63.093 11.617 63.084 10.228 63.097 8.924 C 63.089 8.622 63.096 8.275 63.209 7.951 C 63.261 7.792 63.328 7.638 63.413 7.509 C 63.851 6.923 64.374 6.836 64.952 7.08 C 65.083 7.148 65.204 7.247 65.307 7.362 C 65.409 7.478 65.493 7.608 65.553 7.749 C 65.613 7.89 65.649 8.041 65.673 8.249 C 65.721 8.679 65.726 9.27 65.722 9.79 L 65.722 14.877 L 74.849 14.877 C 74.839 12.25 74.881 9.626 74.819 6.997 C 74.794 6.389 74.75 5.78 74.713 5.38 C 74.676 4.979 74.645 4.786 74.607 4.594 C 74.567 4.403 74.521 4.213 74.467 4.024 C 74.413 3.837 74.353 3.65 74.209 3.33 C 74.067 3.01 73.841 2.557 73.546 2.153 C 73.251 1.749 72.886 1.395 72.474 1.108 C 72.063 0.821 71.606 0.602 71.214 0.461 C 70.442 0.195 69.854 0.15 69.184 0.064 C 68.855 0.03 68.525 -0.003 68.195 0 L 60.295 0.063 C 59.389 0.093 58.491 0.205 57.546 0.471 C 57.259 0.559 56.988 0.67 56.731 0.806 C 56.214 1.089 55.784 1.398 55.337 1.948 C 55.113 2.227 54.875 2.584 54.68 2.962 C 54.279 3.737 54.042 4.581 54.023 5.415 M 76.347 0.209 L 76.347 7.109 L 80.899 7.109 L 80.899 42.983 L 90.025 42.983 L 90.025 7.109 L 94.543 7.109 L 94.543 0.209 L 76.344 0.209 M 106.706 0.209 L 96.989 0.209 L 96.989 42.983 L 106.102 42.983 L 106.102 25.933 C 106.699 25.956 107.295 25.883 107.901 26.07 C 108.028 26.115 108.148 26.185 108.251 26.274 C 108.672 26.635 108.64 27.097 108.704 27.534 C 108.783 28.411 108.721 29.293 108.743 30.172 L 108.743 42.983 L 117.855 42.983 L 117.847 29.611 C 117.832 28.293 117.743 26.987 117.456 25.668 C 117.376 25.371 117.269 25.073 117.136 24.78 C 116.934 24.312 116.662 23.874 116.329 23.486 C 115.997 23.1 115.606 22.764 115.174 22.495 C 114.741 22.226 114.267 22.024 113.774 21.896 C 114.012 21.837 114.247 21.762 114.481 21.671 C 114.95 21.493 115.39 21.237 115.779 20.92 C 116.167 20.601 116.503 20.22 116.769 19.793 C 117.034 19.367 117.231 18.897 117.35 18.409 C 117.447 18.06 117.529 17.708 117.595 17.354 C 117.808 15.913 117.885 14.468 117.856 13.02 L 117.856 8.541 C 117.884 7.657 117.843 6.768 117.729 5.883 C 117.675 5.442 117.602 5.003 117.524 4.638 C 117.446 4.275 117.363 3.985 117.255 3.705 C 117.146 3.423 117.014 3.152 116.861 2.893 C 116.706 2.636 116.53 2.39 116.335 2.162 C 116.029 1.835 115.685 1.546 115.31 1.301 C 114.532 0.796 113.66 0.514 112.799 0.44 C 110.773 0.204 108.738 0.27 106.708 0.209 M 106.102 7.164 C 106.533 7.168 106.96 7.172 107.391 7.175 C 107.597 7.193 107.808 7.245 108.012 7.337 C 108.605 7.729 108.635 8.225 108.689 8.705 C 108.728 9.243 108.725 9.785 108.744 10.326 C 108.736 12.199 108.768 14.072 108.722 15.946 C 108.717 16.28 108.689 16.614 108.64 16.947 C 108.624 17.103 108.578 17.256 108.505 17.395 C 108.433 17.534 108.332 17.657 108.212 17.758 C 107.937 18.007 107.57 18.02 107.239 18.059 C 106.861 18.095 106.481 18.099 106.102 18.072 L 106.102 7.164 M 128.319 42.983 L 128.958 34.526 L 132.453 34.526 L 133.156 42.983 L 141.781 42.983 L 136.371 0.209 L 125.227 0.209 L 119.739 42.983 L 128.317 42.983 M 131.944 27.469 L 129.459 27.469 L 130.719 10.848 L 131.943 27.469 M 163.478 2.849 C 163.166 2.346 162.762 1.899 162.293 1.542 C 161.822 1.183 161.288 0.915 160.89 0.754 C 160.491 0.594 160.231 0.544 159.97 0.498 C 159.709 0.452 159.449 0.411 159.187 0.381 C 158.925 0.351 158.662 0.332 158.038 0.304 C 157.414 0.275 156.43 0.214 155.444 0.213 L 143.626 0.209 L 143.626 42.983 L 158.11 42.959 C 158.47 42.958 158.823 42.855 159.177 42.792 C 159.924 42.658 160.582 42.516 161.283 42.197 C 161.652 42.031 162.05 41.81 162.411 41.536 C 162.771 41.264 163.096 40.939 163.402 40.438 C 163.709 39.936 163.997 39.259 164.209 38.432 C 164.42 37.604 164.582 36.625 164.58 35.646 L 164.516 6.452 C 164.514 5.784 164.347 5.126 164.178 4.517 C 164.015 3.908 163.796 3.351 163.484 2.849 M 153.318 7.202 C 153.512 7.202 153.707 7.186 153.895 7.209 C 154.084 7.233 154.264 7.276 154.413 7.323 C 154.562 7.37 154.678 7.42 154.783 7.491 C 154.887 7.561 154.979 7.65 155.052 7.753 C 155.368 8.227 155.329 8.902 155.357 9.501 L 155.357 34.135 C 155.357 34.316 155.356 34.498 155.33 34.675 C 155.303 34.851 155.261 35.023 155.204 35.173 C 155.147 35.321 155.077 35.448 154.984 35.556 C 154.892 35.665 154.777 35.754 154.651 35.825 C 154.525 35.897 154.393 35.983 154.248 35.983 L 152.756 35.983 L 152.756 7.202 L 153.314 7.202" style="fill: rgb(255, 255, 255);"/>
  <path id="path11" d="M 200.121 38.57 L 190.157 38.57 C 188.964 38.533 188.041 38.483 187.414 38.425 C 186.897 38.375 186.513 38.201 186.219 37.875 C 185.946 37.599 185.783 37.156 185.732 36.559 C 185.673 35.857 185.625 34.788 185.587 33.394 L 185.587 9.383 C 185.587 8.217 185.625 7.287 185.701 6.618 C 185.767 6.034 185.97 5.595 186.337 5.259 C 186.658 4.936 187.022 4.756 187.451 4.708 C 187.962 4.651 188.887 4.621 190.201 4.621 L 200.121 4.621 L 200.121 11.559 L 204.761 11.559 L 204.761 0.209 L 189.036 0.209 C 187.882 0.209 186.718 0.281 185.577 0.421 C 184.362 0.571 183.271 1.078 182.321 1.945 C 181.342 2.925 180.771 4.113 180.622 5.479 C 180.483 6.748 180.413 8.3 180.413 10.094 L 180.413 34.106 C 180.413 35.706 180.484 37.062 180.624 38.138 C 180.774 39.303 181.286 40.331 182.144 41.189 C 183.001 42.048 184.054 42.571 185.274 42.741 C 186.413 42.903 187.878 42.984 189.629 42.984 L 204.822 42.984 L 204.822 31.633 L 200.121 31.633 L 200.121 38.57 Z" style="fill: rgb(255, 255, 255);"/>
  <path id="path13" d="M 235.712 7.604 C 235.712 6.768 235.682 5.958 235.622 5.196 C 235.559 4.395 235.374 3.672 235.074 3.047 C 234.767 2.41 234.303 1.855 233.695 1.398 C 233.09 0.945 232.251 0.608 231.176 0.392 C 230.891 0.352 230.626 0.322 230.38 0.3 C 230.139 0.281 229.83 0.26 229.45 0.239 C 229.06 0.22 228.556 0.21 227.946 0.21 L 208.7 0.21 L 208.7 4.622 L 212.724 4.622 L 212.724 38.571 L 208.7 38.571 L 208.7 42.983 L 221.982 42.983 L 221.982 38.571 L 217.898 38.571 L 217.898 23.536 L 227.527 23.536 C 228.365 23.536 229.186 23.516 229.967 23.475 C 230.788 23.435 231.549 23.309 232.231 23.101 C 232.946 22.883 233.583 22.508 234.125 21.984 C 234.668 21.461 235.095 20.741 235.396 19.833 C 235.563 19.287 235.668 18.673 235.711 18.007 C 235.75 17.363 235.75 16.51 235.712 15.489 L 235.712 7.604 Z M 230.715 9.283 L 230.715 14.639 C 230.715 15.655 230.686 16.492 230.628 17.128 C 230.578 17.692 230.431 18.131 230.193 18.434 C 229.968 18.723 229.581 18.927 229.042 19.042 C 228.429 19.174 227.519 19.241 226.34 19.241 L 217.898 19.241 L 217.898 4.622 L 226.104 4.622 C 227.259 4.622 228.171 4.66 228.819 4.739 C 229.384 4.806 229.802 4.965 230.061 5.21 C 230.316 5.454 230.488 5.875 230.571 6.461 C 230.664 7.132 230.711 8.082 230.711 9.283 Z" style="fill: rgb(255, 255, 255);"/>
  <path id="path15" d="M 259.298 31.633 L 259.298 38.571 L 249.333 38.571 C 248.142 38.533 247.219 38.484 246.591 38.425 C 246.076 38.376 245.69 38.202 245.398 37.876 C 245.124 37.6 244.96 37.157 244.91 36.559 C 244.852 35.859 244.802 34.791 244.765 33.394 L 244.765 9.383 C 244.765 8.217 244.802 7.287 244.878 6.618 C 244.946 6.034 245.148 5.594 245.516 5.259 C 245.836 4.936 246.201 4.756 246.628 4.708 C 247.139 4.651 248.065 4.621 249.378 4.621 L 259.298 4.621 L 259.298 11.559 L 263.941 11.559 L 263.941 0.209 L 248.215 0.209 C 247.06 0.209 245.897 0.281 244.757 0.421 C 243.54 0.571 242.449 1.078 241.5 1.945 C 240.521 2.925 239.95 4.113 239.801 5.478 C 239.661 6.746 239.591 8.299 239.591 10.094 L 239.591 34.106 C 239.591 35.707 239.661 37.063 239.802 38.138 C 239.953 39.303 240.464 40.33 241.322 41.189 C 242.18 42.048 243.233 42.571 244.452 42.741 C 245.591 42.903 247.056 42.984 248.807 42.984 L 264 42.984 L 264 31.633 L 259.297 31.633 Z" style="fill: rgb(255, 255, 255);"/>
</svg>