<?xml version="1.0" encoding="utf-8"?>
<svg version="1.1" viewBox="0 0 3840 584.4" xmlns="http://www.w3.org/2000/svg">
  <path class="st3" d="M 3840 236.8 L 3840 0 L 3276.1 0 L 3276.1 584.4 L 3840 584.4 L 3840 520 L 3491.1 520 L 3491.1 388.9 L 3613.6 388.9 L 3613.6 368 L 3491.1 368 L 3491.1 236.8 L 3840 236.8 Z M 3331.1 55.1 L 3331.1 245.4 C 3331.1 251.1 3326.5 255.8 3320.7 255.8 C 3314.9 255.8 3310.3 251.2 3310.3 245.4 L 3310.3 44.7 C 3310.3 39 3314.9 34.3 3320.7 34.3 L 3585.1 34.3 C 3590.8 34.3 3595.5 38.9 3595.5 44.7 C 3595.5 50.4 3590.9 55.1 3585.1 55.1 L 3331.1 55.1 Z" style="fill: rgb(255, 255, 255);"/>
  <path class="st3" d="M 1843.4 140.7 C 1820.4 102.9 1789.1 70.6 1751.6 46.5 C 1704.6 16.1 1649.9 0 1593.5 0 C 1432.4 0 1301.3 131.1 1301.3 292.2 C 1301.3 453.3 1432.4 584.4 1593.5 584.4 C 1649.8 584.4 1704.5 568.3 1751.6 538 C 1789.1 513.8 1820.4 481.6 1843.4 443.8 L 1523.9 292.3 L 1843.4 140.7 Z M 1573.4 365.1 C 1575.8 359.9 1582 357.7 1587.2 360.2 L 1779.2 451.3 C 1782.2 452.7 1784.3 455.5 1784.9 458.7 C 1785.5 461.9 1784.6 465.3 1782.3 467.7 C 1767.6 483.5 1751 497.4 1733 509.1 C 1731.3 510.2 1729.3 510.8 1727.4 510.8 C 1724 510.8 1720.7 509.1 1718.7 506.1 C 1715.6 501.3 1717 494.9 1721.8 491.8 C 1734.4 483.7 1746.3 474.3 1757.2 463.9 L 1578.3 379.1 C 1573.1 376.5 1570.9 370.3 1573.4 365.1 Z" style="fill: rgb(255, 255, 255);"/>
  <path class="st3" d="M 300.3 32.6 L 0 584.4 L 600.6 584.4 L 300.3 32.6 Z M 300.3 409.1 C 283 409.1 269 395.1 269 377.8 C 269 360.5 283 346.5 300.3 346.5 C 317.6 346.5 331.6 360.5 331.6 377.8 C 331.6 395.1 317.6 409.1 300.3 409.1 Z M 525.4 550 L 393.2 550 C 387.5 550 382.8 545.4 382.8 539.6 C 382.8 533.9 387.4 529.2 393.2 529.2 L 508 529.2 L 446.3 416 C 443.6 411 445.4 404.7 450.4 402 C 455.4 399.3 461.7 401.1 464.4 406.1 L 534.4 534.7 C 536.1 537.9 536.1 541.8 534.2 544.9 C 532.4 548.1 529 550 525.4 550 Z" style="fill: rgb(255, 255, 255);"/>
  <path class="st3" d="M 2165.7 32.6 L 1865.4 584.4 L 2466 584.4 L 2165.7 32.6 Z M 2165.7 409.1 C 2148.4 409.1 2134.4 395.1 2134.4 377.8 C 2134.4 360.5 2148.4 346.5 2165.7 346.5 C 2183 346.5 2197 360.5 2197 377.8 C 2197 395.1 2183 409.1 2165.7 409.1 Z M 2390.7 550 L 2258.5 550 C 2252.8 550 2248.1 545.4 2248.1 539.6 C 2248.1 533.9 2252.7 529.2 2258.5 529.2 L 2373.3 529.2 L 2311.7 416 C 2309 411 2310.8 404.7 2315.8 402 C 2320.8 399.3 2327.1 401.1 2329.8 406.1 L 2399.8 534.7 C 2401.5 537.9 2401.5 541.8 2399.6 544.9 C 2397.8 548.1 2394.4 550 2390.7 550 Z" style="fill: rgb(255, 255, 255);"/>
  <path class="st3" d="M 2892.2 0 L 2561.8 0 L 2561.8 584.4 L 2892.2 584.4 C 3053.3 584.4 3184.4 453.3 3184.4 292.2 C 3184.4 131.1 3053.3 0 2892.2 0 Z M 2889.5 405.9 C 2872.2 405.9 2858.2 391.9 2858.2 374.6 C 2858.2 357.3 2872.2 343.3 2889.5 343.3 C 2906.8 343.3 2920.8 357.3 2920.8 374.6 C 2920.8 391.9 2906.8 405.9 2889.5 405.9 Z M 3078.8 469.9 C 3035.3 515.6 2976.9 543.7 2914.4 549.1 C 2914.1 549.1 2913.8 549.1 2913.5 549.1 C 2908.2 549.1 2903.7 545 2903.2 539.6 C 2902.7 533.9 2906.9 528.9 2912.6 528.4 C 3032 518.2 3125.1 420.1 3129.1 300.3 C 3129.3 294.6 3134 290.1 3139.8 290.3 C 3145.5 290.5 3150 295.3 3149.8 301 C 3147.7 364.1 3122.5 424.1 3078.8 469.9 Z" style="fill: rgb(255, 255, 255);"/>
  <path class="st3" d="M 1022.7 367.6 C 1027.5 356.8 1038.2 349.9 1050 349.9 L 1057.7 349.9 C 1154.2 349.9 1232.6 271.4 1232.6 175 C 1232.6 78.5 1154.1 0.1 1057.7 0.1 L 696.4 0.1 L 696.4 584.5 L 1195.2 584.5 L 1027.9 399.8 C 1020 391 1017.9 378.4 1022.7 367.6 Z M 1057.7 294.8 C 1117.1 294.8 1168.2 250.5 1176.4 191.7 C 1177.2 186 1182.4 182.1 1188.1 182.9 C 1193.8 183.7 1197.7 188.9 1196.9 194.6 C 1192.2 227.8 1175.7 258.4 1150.3 280.7 C 1124.7 303.2 1091.8 315.6 1057.7 315.6 C 1052 315.6 1047.3 311 1047.3 305.2 C 1047.3 299.4 1052 294.8 1057.7 294.8 Z M 976.3 147 C 993.6 147 1007.6 161 1007.6 178.3 C 1007.6 195.6 993.6 209.6 976.3 209.6 C 959 209.6 945 195.6 945 178.3 C 945 161 959 147 976.3 147 Z M 1103.8 543.9 C 1102.1 547.6 1098.4 550.1 1094.3 550.1 L 962.3 550.1 C 956.6 550.1 951.9 545.5 951.9 539.7 C 951.9 534 956.5 529.3 962.3 529.3 L 1071 529.3 L 987.1 436.7 C 981.3 430.4 976.6 423.2 973 415.4 C 970.6 410.2 972.9 404.1 978 401.7 C 983.2 399.3 989.3 401.6 991.7 406.7 C 994.4 412.6 998 418 1002.4 422.8 L 1102 532.7 C 1104.7 535.7 1105.4 540.1 1103.8 543.9 Z" style="fill: rgb(255, 255, 255);"/>
</svg>