<?xml version="1.0" encoding="utf-8"?>
<svg version="1.1" id="svg29" viewBox="0 0 264 75" xmlns="http://www.w3.org/2000/svg">
  <title id="title14">mainlogo</title>
  <path d="M 88.456 73.585 L 103.174 73.585 L 103.174 14.555 L 114.062 14.555 L 114.062 1.415 L 77.568 1.415 L 77.568 14.555 L 88.456 14.555 Z" style="font-style:normal;font-variant:normal;font-weight:bold;font-stretch:condensed;font-size:356.62936401px;line-height:125%;font-family:Folio;-inkscape-font-specification:'Folio Bold Condensed';letter-spacing:0px;word-spacing:0px;fill:#ffffff;fill-opacity:1;stroke:none;stroke-width:0.35707989px;stroke-linecap:butt;stroke-linejoin:miter;stroke-opacity:1" id="path4198"/>
  <path d="M 157.539 73.585 L 157.539 60.445 L 142.014 60.445 L 142.014 1.415 L 127.295 1.415 L 127.295 73.585 Z" style="font-style:normal;font-variant:normal;font-weight:bold;font-stretch:condensed;font-size:356.62936401px;line-height:125%;font-family:Folio;-inkscape-font-specification:'Folio Bold Condensed';letter-spacing:0px;word-spacing:0px;fill:#ffffff;fill-opacity:1;stroke:none;stroke-width:0.35707989px;stroke-linecap:butt;stroke-linejoin:miter;stroke-opacity:1" id="path4200"/>
  <path d="M 209.811 1.415 L 195.092 1.415 L 195.092 55.795 C 195.092 60.849 193.883 61.86 190.858 61.86 C 187.834 61.86 186.624 60.849 186.624 55.795 L 186.624 1.415 L 171.905 1.415 L 171.905 58.019 C 171.905 71.563 177.954 75 190.858 75 C 203.762 75 209.811 71.563 209.811 58.019 Z" style="font-style:normal;font-variant:normal;font-weight:bold;font-stretch:condensed;font-size:356.62936401px;line-height:125%;font-family:Folio;-inkscape-font-specification:'Folio Bold Condensed';letter-spacing:0px;word-spacing:0px;fill:#ffffff;fill-opacity:1;stroke:none;stroke-width:0.35707989px;stroke-linecap:butt;stroke-linejoin:miter;stroke-opacity:1" id="path4202"/>
  <path d="M 263.597 23.147 L 263.597 17.487 C 263.597 4.65 257.548 0 245.047 0 C 230.933 0 226.094 5.458 226.094 18.396 C 226.094 42.453 249.181 40.937 249.281 55.896 C 249.281 60.142 248.072 61.86 245.047 61.86 C 242.124 61.86 240.813 60.04 240.813 55.896 L 240.813 50.842 L 226.094 50.842 L 226.094 57.615 C 226.094 70.957 231.538 75 244.946 75 C 259.363 75 264 70.35 264 55.29 C 264 31.739 240.813 31.739 240.813 19.104 C 240.813 14.858 242.023 13.14 245.047 13.14 C 247.971 13.14 249.281 14.96 249.281 19.104 L 249.281 23.147 Z" style="font-style:normal;font-variant:normal;font-weight:bold;font-stretch:condensed;font-size:356.62936401px;line-height:125%;font-family:Folio;-inkscape-font-specification:'Folio Bold Condensed';letter-spacing:0px;word-spacing:0px;fill:#ffffff;fill-opacity:1;stroke:none;stroke-width:0.35707989px;stroke-linecap:butt;stroke-linejoin:miter;stroke-opacity:1" id="path4204"/>
  <path id="path3395" d="M 0 73.125 L 17.045 73.125 L 48.835 24.026 L 48.835 73.125 L 63.309 73.125 L 63.309 1.647 L 46.4 1.647 Z" style="fill:#ffffff;fill-opacity:1;fill-rule:evenodd;stroke:none;stroke-width:0.67664403px;stroke-linecap:butt;stroke-linejoin:miter;stroke-opacity:1"/>
</svg>