<?xml version="1.0" encoding="utf-8"?>
<svg version="1.1" id="Warstwa_1" x="0px" y="0px" viewBox="0 0 200 40" xmlns="http://www.w3.org/2000/svg">
  <path d="M 28.247 20.343 C 28.466 19.901 28.654 19.529 28.837 19.148 C 29.05 18.706 29.36 18.36 29.879 18.584 C 30.347 18.787 30.469 19.184 30.286 19.702 C 29.991 20.536 29.767 21.4 29.488 22.244 C 29.274 22.885 28.847 23.058 28.206 22.829 C 26.915 22.366 25.629 21.894 24.327 21.451 C 24.144 21.39 23.844 21.421 23.697 21.533 C 23.183 21.924 22.71 22.366 22.111 22.885 C 22.777 23.088 23.356 23.271 23.936 23.439 C 24.246 23.531 24.561 23.612 24.876 23.683 C 25.476 23.82 25.837 24.181 26.086 24.751 C 26.788 26.342 27.545 27.903 28.257 29.489 C 28.405 29.82 28.588 29.957 28.944 29.931 C 29.371 29.901 29.798 29.916 30.225 29.911 C 30.652 29.906 30.937 30.099 31.008 30.521 C 31.084 30.969 30.886 31.294 30.428 31.365 C 29.569 31.502 28.71 31.645 27.845 31.706 C 27.601 31.721 27.276 31.508 27.088 31.304 C 25.959 30.109 24.831 28.91 23.758 27.664 C 23.377 27.222 22.995 27.217 22.477 27.252 C 21.211 27.344 19.935 27.359 18.664 27.374 C 18.15 27.379 17.992 27.115 18.084 26.581 C 18.414 24.664 18.679 22.737 19.004 20.821 C 19.055 20.516 19.233 20.165 19.462 19.972 C 20.484 19.138 21.551 18.365 22.594 17.557 C 23 17.242 23.382 17.231 23.814 17.511 C 25.085 18.34 26.366 19.158 27.647 19.977 C 27.815 20.089 27.988 20.185 28.247 20.343 Z" style="fill: rgb(221, 221, 221);"/>
  <path d="M 15.262 17.704 C 15.796 18.411 16.345 19.113 16.859 19.834 C 16.965 19.982 17.042 20.277 16.965 20.404 C 16.066 21.894 15.13 23.358 14.205 24.832 C 14.184 24.863 14.134 24.868 13.981 24.939 C 13.371 24.212 12.705 23.485 12.12 22.697 C 11.261 21.538 10.59 20.272 10.27 18.843 C 10.204 18.548 10.173 18.248 10.138 17.948 C 10.066 17.333 10.412 17.053 10.966 16.962 C 12.898 16.642 14.352 15.579 15.491 14.044 C 15.639 13.845 15.649 13.51 15.633 13.245 C 15.557 11.827 15.45 10.409 15.354 8.99 C 15.344 8.827 15.303 8.665 15.323 8.507 C 15.374 8.075 15.608 7.77 16.05 7.734 C 16.508 7.694 16.767 8.004 16.843 8.416 C 17.123 9.992 17.281 11.593 17.667 13.139 C 17.977 14.384 17.672 15.269 16.737 16.077 C 16.208 16.545 15.781 17.13 15.262 17.704 Z" style="fill: rgb(221, 221, 221);"/>
  <path d="M 10.661 15.615 C 9.207 15.62 7.748 14.583 7.377 13.281 C 7.057 12.173 7.509 11.314 8.602 10.942 C 10.3 10.368 12.624 11.934 12.761 13.673 C 12.837 14.715 11.947 15.737 10.661 15.615 Z" style="fill: rgb(221, 221, 221);"/>
  <path d="M 14.022 12.371 C 11.292 8.299 8.561 4.226 5.811 0.129 C 6.96 -0.115 7.067 -0.075 7.662 0.805 C 9.695 3.83 11.714 6.87 13.773 9.875 C 14.312 10.658 13.981 11.507 14.23 12.3 C 14.159 12.325 14.088 12.346 14.022 12.371 Z" style="fill: rgb(221, 221, 221);"/>
  <path d="M 22.827 39.988 C 22.446 39.988 22.182 40.023 21.933 39.973 C 21.795 39.947 21.602 39.805 21.572 39.683 C 20.895 36.978 20.235 34.268 19.569 31.563 C 19.36 30.725 19.147 29.891 18.928 29.011 C 19.141 28.981 19.274 28.965 19.411 28.945 C 19.889 28.884 20.138 28.991 20.265 29.565 C 20.926 32.458 21.658 35.341 22.37 38.224 C 22.512 38.778 22.66 39.337 22.827 39.988 Z" style="fill: rgb(221, 221, 221);"/>
  <path d="M 17.281 22.946 C 17.077 24.303 16.899 25.483 16.701 26.81 C 16.198 26.515 15.796 26.306 15.425 26.047 C 15.333 25.981 15.278 25.712 15.333 25.61 C 15.806 24.812 16.299 24.029 16.803 23.246 C 16.874 23.154 17.016 23.114 17.281 22.946 Z" style="fill: rgb(221, 221, 221);"/>
  <path d="M 38.8 29.15 L 32.8 29.15 L 40.69 10.4 L 49.51 10.4 L 50.83 29.15 L 44.8 29.15 L 44.68 26.18 L 39.97 26.18 Z M 43.93 16.16 L 41.83 21.41 L 44.23 21.41 L 44.23 16.16 Z M 52.81 29.15 L 56.11 10.4 L 64.09 10.4 C 66.67 10.4 68.505 10.855 69.595 11.765 C 70.685 12.675 71.23 14.15 71.23 16.19 C 71.23 17.23 71.11 18.43 70.87 19.79 C 70.27 23.15 69.245 25.55 67.795 26.99 C 66.345 28.43 64.01 29.15 60.79 29.15 Z M 63.31 15.2 L 60.94 15.2 L 59.35 24.35 L 61.72 24.35 C 62.5 24.35 63.08 24.255 63.46 24.065 C 63.84 23.875 64.09 23.44 64.21 22.76 L 65.26 16.79 C 65.28 16.67 65.29 16.51 65.29 16.31 C 65.29 15.85 65.13 15.55 64.81 15.41 C 64.49 15.27 63.99 15.2 63.31 15.2 Z M 84.85 10.4 L 90.88 10.4 L 83.17 29.15 L 74.83 29.15 L 73.72 10.4 L 80.05 10.4 L 80.05 22.31 L 80.32 22.31 Z M 102.249 22.07 L 96.549 22.07 L 96.159 24.35 L 103.149 24.35 L 102.309 29.15 L 89.619 29.15 L 92.919 10.4 L 105.459 10.4 L 103.899 15.2 L 97.749 15.2 L 97.329 17.72 L 103.029 17.72 Z M 115.989 29.15 L 112.929 22.49 C 112.849 22.35 112.809 22.155 112.809 21.905 C 112.809 21.655 112.829 21.37 112.869 21.05 L 112.629 21.05 L 111.219 29.15 L 105.519 29.15 L 108.819 10.4 L 114.189 10.4 L 117.249 17.06 C 117.309 17.2 117.339 17.395 117.339 17.645 C 117.339 17.895 117.319 18.18 117.279 18.5 L 117.519 18.5 L 118.959 10.4 L 124.659 10.4 L 121.359 29.15 Z M 140.199 15.2 L 136.059 15.2 L 133.629 29.15 L 127.929 29.15 L 130.359 15.2 L 126.249 15.2 L 127.119 10.4 L 141.069 10.4 Z M 148.749 10.4 L 146.259 24.47 L 148.299 24.47 C 148.999 24.47 149.499 24.375 149.799 24.185 C 150.099 23.995 150.309 23.56 150.429 22.88 L 152.649 10.4 L 158.349 10.4 L 156.489 20.93 C 156.189 22.63 155.844 24 155.454 25.04 C 155.064 26.08 154.519 26.96 153.819 27.68 C 153.119 28.4 152.254 28.9 151.224 29.18 C 150.194 29.46 148.889 29.6 147.309 29.6 C 144.889 29.6 143.194 29.235 142.224 28.505 C 141.254 27.775 140.769 26.52 140.769 24.74 C 140.769 23.76 140.909 22.49 141.189 20.93 L 143.049 10.4 Z M 173.919 29.15 L 167.649 29.15 L 166.269 23.57 L 165.039 23.57 L 164.079 29.15 L 158.379 29.15 L 161.679 10.4 L 170.679 10.4 C 174.099 10.4 175.809 11.93 175.809 14.99 C 175.809 16.25 175.619 17.45 175.239 18.59 C 174.539 20.75 173.439 22.19 171.939 22.91 Z M 166.509 15.2 L 165.849 18.95 L 167.169 18.95 C 167.849 18.95 168.364 18.875 168.714 18.725 C 169.064 18.575 169.304 18.145 169.434 17.435 C 169.564 16.725 169.629 16.29 169.629 16.13 C 169.629 15.73 169.474 15.475 169.164 15.365 C 168.854 15.255 168.349 15.2 167.649 15.2 Z M 188.979 22.07 L 183.279 22.07 L 182.889 24.35 L 189.879 24.35 L 189.039 29.15 L 176.349 29.15 L 179.649 10.4 L 192.189 10.4 L 190.629 15.2 L 184.479 15.2 L 184.059 17.72 L 189.759 17.72 Z" style="white-space: pre; fill: rgb(255, 255, 255);"/>
</svg>