<?xml version="1.0" encoding="utf-8"?>
<svg xmlns="http://www.w3.org/2000/svg">
  <path d="M 7.17 16.23 L 6 19.2 L 0 19.2 L 7.89 0.45 L 16.71 0.45 L 18.03 19.2 L 12 19.2 L 11.88 16.23 L 7.17 16.23 Z M 11.43 6.21 L 11.13 6.21 L 9.03 11.46 L 11.43 11.46 L 11.43 6.21 Z M 32.25 14.4 L 31.41 19.2 L 20.01 19.2 L 23.31 0.45 L 29.01 0.45 L 26.55 14.4 L 32.25 14.4 Z M 45.03 14.4 L 44.19 19.2 L 32.79 19.2 L 36.09 0.45 L 41.79 0.45 L 39.33 14.4 L 45.03 14.4 Z M 61.77 13.68 L 61.77 13.68 L 61.92 12.87 L 60.48 12.87 L 61.29 8.28 L 68.16 8.28 L 66.39 18.3 L 66.39 18.3 C 63.95 19.2 61.5 19.65 59.04 19.65 L 59.04 19.65 L 59.04 19.65 C 56.58 19.65 54.803 19.16 53.71 18.18 L 53.71 18.18 L 53.71 18.18 C 52.623 17.2 52.08 15.69 52.08 13.65 L 52.08 13.65 L 52.08 13.65 C 52.08 12.79 52.22 11.52 52.5 9.84 L 52.5 9.84 L 52.5 9.84 C 53.1 6.36 54.16 3.85 55.68 2.31 L 55.68 2.31 L 55.68 2.31 C 57.2 0.77 59.72 0 63.24 0 L 63.24 0 L 63.24 0 C 63.98 0 64.923 0.08 66.07 0.24 L 66.07 0.24 L 66.07 0.24 C 67.223 0.4 68.07 0.58 68.61 0.78 L 68.61 0.78 L 66.96 5.37 L 66.96 5.37 C 65.46 5.09 64.083 4.95 62.83 4.95 L 62.83 4.95 L 62.83 4.95 C 61.583 4.95 60.69 5.05 60.15 5.25 L 60.15 5.25 L 60.15 5.25 C 59.61 5.45 59.29 5.85 59.19 6.45 L 59.19 6.45 L 57.72 14.94 L 59.61 14.94 L 59.61 14.94 C 60.29 14.94 60.793 14.867 61.12 14.72 L 61.12 14.72 L 61.12 14.72 C 61.453 14.567 61.67 14.22 61.77 13.68 Z M 74.58 16.23 L 73.41 19.2 L 67.41 19.2 L 75.3 0.45 L 84.12 0.45 L 85.44 19.2 L 79.41 19.2 L 79.29 16.23 L 74.58 16.23 Z M 78.84 6.21 L 78.54 6.21 L 76.44 11.46 L 78.84 11.46 L 78.84 6.21 Z M 94.77 10.11 L 92.82 19.2 L 86.88 19.2 L 91.26 0.45 L 98.7 0.45 L 99.24 9.99 L 99.45 9.99 L 103.35 0.45 L 110.79 0.45 L 108.57 19.2 L 102.6 19.2 L 103.86 10.11 L 103.65 10.11 L 99.9 19.2 L 95.55 19.2 L 94.92 10.11 L 94.77 10.11 Z M 125.16 7.77 L 124.38 12.12 L 118.68 12.12 L 118.29 14.4 L 125.28 14.4 L 124.44 19.2 L 111.75 19.2 L 115.05 0.45 L 127.59 0.45 L 126.03 5.25 L 119.88 5.25 L 119.46 7.77 L 125.16 7.77 Z M 127.11 18.87 L 127.11 18.87 L 128.79 13.92 L 128.79 13.92 C 130.47 14.38 132.01 14.61 133.41 14.61 L 133.41 14.61 L 133.41 14.61 C 134.81 14.61 135.94 14.55 136.8 14.43 L 136.8 14.43 L 137.04 12.93 L 134.55 12.69 L 134.55 12.69 C 132.65 12.51 131.303 12.08 130.51 11.4 L 130.51 11.4 L 130.51 11.4 C 129.723 10.72 129.33 9.76 129.33 8.52 L 129.33 8.52 L 129.33 8.52 C 129.33 7.98 129.39 7.38 129.51 6.72 L 129.51 6.72 L 129.51 6.72 C 129.97 4.16 130.803 2.4 132.01 1.44 L 132.01 1.44 L 132.01 1.44 C 133.223 0.48 135.1 0 137.64 0 L 137.64 0 L 137.64 0 C 140.18 0 142.42 0.25 144.36 0.75 L 144.36 0.75 L 142.8 5.55 L 142.8 5.55 C 141.06 5.25 139.66 5.1 138.6 5.1 L 138.6 5.1 L 138.6 5.1 C 137.54 5.1 136.64 5.15 135.9 5.25 L 135.9 5.25 L 135.66 6.72 L 137.67 6.93 L 137.67 6.93 C 139.71 7.15 141.16 7.637 142.02 8.39 L 142.02 8.39 L 142.02 8.39 C 142.88 9.137 143.31 10.14 143.31 11.4 L 143.31 11.4 L 143.31 11.4 C 143.31 12.68 143.03 14 142.47 15.36 L 142.47 15.36 L 142.47 15.36 C 142.19 16.06 141.883 16.647 141.55 17.12 L 141.55 17.12 L 141.55 17.12 C 141.223 17.587 140.803 17.983 140.29 18.31 L 140.29 18.31 L 140.29 18.31 C 139.783 18.643 139.32 18.893 138.9 19.06 L 138.9 19.06 L 138.9 19.06 C 138.48 19.233 137.95 19.36 137.31 19.44 L 137.31 19.44 L 137.31 19.44 C 136.37 19.58 135.22 19.65 133.86 19.65 L 133.86 19.65 L 133.86 19.65 C 131.38 19.65 129.13 19.39 127.11 18.87 Z" style="white-space: pre; fill: rgb(255, 255, 255);"/>
</svg>