<?xml version="1.0" encoding="utf-8"?>
<svg viewBox="0 0 200 40" xmlns="http://www.w3.org/2000/svg">
  <path d="M 55.196 18.45 L 54.396 22.909 L 49.595 22.909 L 48.41 29.851 L 42.779 29.851 L 46.039 11.149 L 57.596 11.149 L 56.026 15.937 L 50.81 15.937 L 50.395 18.45 L 55.196 18.45 Z M 61.182 26.888 L 60.027 29.851 L 54.099 29.851 L 61.893 11.149 L 70.606 11.149 L 71.91 29.851 L 65.954 29.851 L 65.835 26.888 L 61.182 26.888 Z M 65.391 16.894 L 65.094 16.894 L 63.019 22.131 L 65.391 22.131 L 65.391 16.894 Z M 81.334 23.028 L 85.809 11.149 L 91.765 11.149 L 84.149 29.851 L 75.911 29.851 L 74.814 11.149 L 81.067 11.149 L 81.067 23.028 L 81.334 23.028 Z M 97.9 17.403 L 97.9 17.403 L 96.536 25.183 L 98.878 25.183 L 98.878 25.183 C 99.648 25.183 100.221 25.091 100.597 24.904 L 100.597 24.904 L 100.597 24.904 C 100.972 24.711 101.219 24.276 101.337 23.598 L 101.337 23.598 L 102.701 15.817 L 100.33 15.817 L 100.33 15.817 C 99.579 15.817 99.016 15.91 98.64 16.096 L 98.64 16.096 L 98.64 16.096 C 98.265 16.289 98.018 16.724 97.9 17.403 Z M 101.308 10.7 L 101.308 10.7 L 101.308 10.7 C 103.817 10.7 105.605 11.196 106.672 12.186 L 106.672 12.186 L 106.672 12.186 C 107.738 13.17 108.272 14.69 108.272 16.745 L 108.272 16.745 L 108.272 16.745 C 108.272 18.799 107.949 20.951 107.304 23.198 L 107.304 23.198 L 107.304 23.198 C 106.665 25.44 105.647 27.181 104.252 28.425 L 104.252 28.425 L 104.252 28.425 C 102.862 29.675 100.827 30.3 98.147 30.3 L 98.147 30.3 L 98.147 30.3 C 95.473 30.3 93.603 29.809 92.536 28.824 L 92.536 28.824 L 92.536 28.824 C 91.469 27.833 90.936 26.31 90.936 24.256 L 90.936 24.256 L 90.936 24.256 C 90.936 23.278 91.074 21.989 91.35 20.385 L 91.35 20.385 L 91.35 20.385 C 91.627 18.777 91.992 17.39 92.447 16.226 L 92.447 16.226 L 92.447 16.226 C 92.901 15.055 93.514 14.042 94.284 13.184 L 94.284 13.184 L 94.284 13.184 C 95.766 11.528 98.107 10.7 101.308 10.7 Z M 122.586 23.627 L 124.541 29.851 L 118.348 29.851 L 116.985 24.286 L 115.769 24.286 L 114.821 29.851 L 109.191 29.851 L 112.451 11.149 L 121.341 11.149 L 121.341 11.149 C 124.719 11.149 126.408 12.675 126.408 15.728 L 126.408 15.728 L 126.408 15.728 C 126.408 16.984 126.221 18.181 125.845 19.318 L 125.845 19.318 L 125.845 19.318 C 125.154 21.473 124.067 22.909 122.586 23.627 L 122.586 23.627 Z M 118.348 15.937 L 117.222 15.937 L 116.57 19.677 L 117.873 19.677 L 117.873 19.677 C 118.546 19.677 119.052 19.604 119.395 19.458 L 119.395 19.458 L 119.395 19.458 C 119.743 19.305 119.981 18.876 120.106 18.171 L 120.106 18.171 L 120.106 18.171 C 120.238 17.46 120.304 17.024 120.304 16.864 L 120.304 16.864 L 120.304 16.864 C 120.304 16.465 120.152 16.209 119.85 16.096 L 119.85 16.096 L 119.85 16.096 C 119.54 15.99 119.039 15.937 118.348 15.937 L 118.348 15.937 Z M 132.335 29.851 L 126.705 29.851 L 129.965 11.149 L 135.595 11.149 L 132.335 29.851 Z M 151.539 11.149 L 150.68 15.937 L 146.59 15.937 L 144.189 29.851 L 138.559 29.851 L 140.959 15.937 L 136.899 15.937 L 137.759 11.149 L 151.539 11.149 Z M 163.897 18.45 L 163.126 22.789 L 157.495 22.789 L 157.11 25.063 L 164.015 25.063 L 163.185 29.851 L 150.65 29.851 L 153.91 11.149 L 166.297 11.149 L 164.756 15.937 L 158.681 15.937 L 158.266 18.45 L 163.897 18.45 Z M 165.823 29.522 L 165.823 29.522 L 167.483 24.585 L 167.483 24.585 C 169.142 25.043 170.663 25.272 172.046 25.272 L 172.046 25.272 L 172.046 25.272 C 173.429 25.272 174.546 25.213 175.395 25.094 L 175.395 25.094 L 175.632 23.598 L 173.173 23.358 L 173.173 23.358 C 171.296 23.178 169.965 22.749 169.182 22.071 L 169.182 22.071 L 169.182 22.071 C 168.404 21.393 168.016 20.436 168.016 19.198 L 168.016 19.198 L 168.016 19.198 C 168.016 18.659 168.075 18.061 168.194 17.403 L 168.194 17.403 L 168.194 17.403 C 168.648 14.849 169.471 13.094 170.663 12.136 L 170.663 12.136 L 170.663 12.136 C 171.862 11.179 173.716 10.7 176.225 10.7 L 176.225 10.7 L 176.225 10.7 C 178.734 10.7 180.946 10.95 182.863 11.448 L 182.863 11.448 L 181.322 16.236 L 181.322 16.236 C 179.603 15.937 178.22 15.787 177.173 15.787 L 177.173 15.787 L 177.173 15.787 C 176.126 15.787 175.237 15.837 174.506 15.937 L 174.506 15.937 L 174.269 17.403 L 176.255 17.613 L 176.255 17.613 C 178.269 17.832 179.702 18.318 180.551 19.068 L 180.551 19.068 L 180.551 19.068 C 181.401 19.814 181.826 20.814 181.826 22.071 L 181.826 22.071 L 181.826 22.071 C 181.826 23.348 181.549 24.664 180.996 26.021 L 180.996 26.021 L 180.996 26.021 C 180.719 26.719 180.416 27.305 180.087 27.777 L 180.087 27.777 L 180.087 27.777 C 179.764 28.242 179.349 28.638 178.842 28.964 L 178.842 28.964 L 178.842 28.964 C 178.342 29.296 177.884 29.545 177.469 29.711 L 177.469 29.711 L 177.469 29.711 C 177.054 29.884 176.531 30.011 175.899 30.091 L 175.899 30.091 L 175.899 30.091 C 174.97 30.23 173.834 30.3 172.491 30.3 L 172.491 30.3 L 172.491 30.3 C 170.041 30.3 167.818 30.04 165.823 29.522 Z" style="white-space: pre; fill: rgb(255, 255, 255);"/>
  <path d="M 27.521 9.7 C 27.305 9.7 27.089 9.869 26.926 10.206 L 24.709 14.739 C 24.38 15.414 23.507 16.051 22.772 16.159 L 17.82 16.886 C 17.083 16.994 16.917 17.512 17.45 18.036 L 21.035 21.564 C 21.568 22.09 21.901 23.124 21.775 23.863 L 20.927 28.848 C 20.835 29.384 21.039 29.7 21.41 29.7 C 21.58 29.693 21.747 29.645 21.896 29.559 L 26.327 27.204 C 26.658 27.03 27.09 26.945 27.522 26.945 C 27.957 26.945 28.393 27.031 28.719 27.204 L 33.152 29.559 C 33.33 29.654 33.498 29.7 33.637 29.7 C 34.009 29.7 34.211 29.384 34.121 28.848 L 33.272 23.863 C 33.148 23.124 33.481 22.089 34.011 21.564 L 37.598 18.036 C 38.13 17.512 37.965 16.994 37.227 16.886 L 32.273 16.161 C 31.538 16.052 30.666 15.415 30.337 14.74 L 28.122 10.206 C 27.955 9.869 27.741 9.7 27.521 9.7 Z" style="fill: rgb(204, 204, 204);"/>
</svg>