<?xml version="1.0" encoding="utf-8"?>
<svg version="1.1" id="Warstwa_1" x="0px" y="0px" viewBox="0 0 200 40" xmlns="http://www.w3.org/2000/svg">
  <path d="M 77.764 39.575 L 71.824 39.575 L 76.204 20.825 L 83.644 20.825 L 84.184 30.365 L 84.394 30.365 L 88.294 20.825 L 95.734 20.825 L 93.514 39.575 L 87.544 39.575 L 88.804 30.485 L 88.594 30.485 L 84.844 39.575 L 80.494 39.575 L 79.864 30.485 L 79.714 30.485 Z M 105.274 20.825 L 102.784 34.895 L 104.824 34.895 C 105.524 34.895 106.024 34.8 106.324 34.61 C 106.624 34.42 106.834 33.985 106.954 33.305 L 109.174 20.825 L 114.874 20.825 L 113.014 31.355 C 112.714 33.055 112.369 34.425 111.979 35.465 C 111.589 36.505 111.044 37.385 110.344 38.105 C 109.644 38.825 108.779 39.325 107.749 39.605 C 106.719 39.885 105.414 40.025 103.834 40.025 C 101.414 40.025 99.719 39.66 98.749 38.93 C 97.779 38.2 97.294 36.945 97.294 35.165 C 97.294 34.185 97.434 32.915 97.714 31.355 L 99.574 20.825 Z M 114.363 39.245 L 116.043 34.295 C 117.723 34.755 119.263 34.985 120.663 34.985 C 122.063 34.985 123.193 34.925 124.053 34.805 L 124.293 33.305 L 121.803 33.065 C 119.903 32.885 118.558 32.455 117.768 31.775 C 116.978 31.095 116.583 30.135 116.583 28.895 C 116.583 28.355 116.643 27.755 116.763 27.095 C 117.223 24.535 118.058 22.775 119.268 21.815 C 120.478 20.855 122.353 20.375 124.893 20.375 C 127.433 20.375 129.673 20.625 131.613 21.125 L 130.053 25.925 C 128.313 25.625 126.913 25.475 125.853 25.475 C 124.793 25.475 123.893 25.525 123.153 25.625 L 122.913 27.095 L 124.923 27.305 C 126.963 27.525 128.413 28.01 129.273 28.76 C 130.133 29.51 130.563 30.515 130.563 31.775 C 130.563 33.055 130.283 34.375 129.723 35.735 C 129.443 36.435 129.138 37.02 128.808 37.49 C 128.478 37.96 128.058 38.36 127.548 38.69 C 127.038 39.02 126.573 39.27 126.153 39.44 C 125.733 39.61 125.203 39.735 124.563 39.815 C 123.623 39.955 122.473 40.025 121.113 40.025 C 118.633 40.025 116.383 39.765 114.363 39.245 Z M 131.913 39.575 L 135.213 20.825 L 140.913 20.825 L 137.613 39.575 Z M 154.053 34.205 L 153.573 39.245 C 152.293 39.765 150.673 40.025 148.713 40.025 C 146.193 40.025 144.388 39.535 143.298 38.555 C 142.208 37.575 141.663 36.065 141.663 34.025 C 141.663 33.165 141.803 31.895 142.083 30.215 C 142.683 26.775 143.718 24.275 145.188 22.715 C 146.658 21.155 148.983 20.375 152.163 20.375 C 152.903 20.375 153.748 20.45 154.698 20.6 C 155.648 20.75 156.343 20.935 156.783 21.155 L 155.103 25.745 C 153.923 25.465 152.818 25.325 151.788 25.325 C 150.758 25.325 150.023 25.425 149.583 25.625 C 149.143 25.825 148.873 26.225 148.773 26.825 L 147.393 34.685 C 148.113 34.845 148.853 34.925 149.613 34.925 C 151.233 34.925 152.713 34.685 154.053 34.205 Z" style="white-space: pre; fill: rgb(255, 255, 255);"/>
  <path d="M 67.982 21.028 L 56.733 24.351 C 56.264 24.497 55.946 24.932 55.946 25.423 L 55.946 34.613 C 55.577 34.524 55.2 34.478 54.821 34.475 C 52.957 34.475 51.445 35.483 51.445 36.726 C 51.445 37.968 52.957 38.976 54.821 38.976 C 56.684 38.976 58.195 37.968 58.195 36.726 L 58.195 28.51 L 67.195 25.873 L 67.195 32.364 C 66.827 32.274 66.45 32.228 66.07 32.225 C 64.207 32.225 62.695 33.233 62.695 34.475 C 62.695 35.718 64.207 36.726 66.07 36.726 C 67.934 36.726 69.446 35.718 69.446 34.475 L 69.446 22.101 C 69.445 21.34 68.707 20.8 67.982 21.028 Z" style="fill: rgb(204, 204, 204);"/>
  <path d="M 133.066 11.915 L 133.816 7.595 L 138.256 7.595 L 139.096 2.945 L 143.176 2.945 L 142.336 7.595 L 146.806 7.595 L 146.056 11.915 L 141.586 11.915 L 140.746 16.595 L 136.666 16.595 L 137.506 11.915 Z" style="white-space: pre; fill: rgb(204, 204, 204);"/>
  <path d="M 43.217 19.175 L 46.517 0.425 L 54.497 0.425 C 57.077 0.425 58.912 0.88 60.002 1.79 C 61.092 2.7 61.637 4.175 61.637 6.215 C 61.637 7.255 61.517 8.455 61.277 9.815 C 60.677 13.175 59.652 15.575 58.202 17.015 C 56.752 18.455 54.417 19.175 51.197 19.175 Z M 53.717 5.225 L 51.347 5.225 L 49.757 14.375 L 52.127 14.375 C 52.907 14.375 53.487 14.28 53.867 14.09 C 54.247 13.9 54.497 13.465 54.617 12.785 L 55.667 6.815 C 55.687 6.695 55.697 6.535 55.697 6.335 C 55.697 5.875 55.537 5.575 55.217 5.435 C 54.897 5.295 54.397 5.225 53.717 5.225 Z M 66.827 19.175 L 60.827 19.175 L 68.717 0.425 L 77.537 0.425 L 78.857 19.175 L 72.827 19.175 L 72.707 16.205 L 67.997 16.205 Z M 71.957 6.185 L 69.857 11.435 L 72.257 11.435 L 72.257 6.185 Z M 91.307 19.175 L 88.247 12.515 C 88.167 12.375 88.127 12.18 88.127 11.93 C 88.127 11.68 88.147 11.395 88.187 11.075 L 87.947 11.075 L 86.537 19.175 L 80.837 19.175 L 84.137 0.425 L 89.507 0.425 L 92.567 7.085 C 92.627 7.225 92.657 7.42 92.657 7.67 C 92.657 7.92 92.637 8.205 92.597 8.525 L 92.837 8.525 L 94.277 0.425 L 99.977 0.425 L 96.677 19.175 Z M 113.386 13.805 L 112.906 18.845 C 111.626 19.365 110.006 19.625 108.046 19.625 C 105.526 19.625 103.721 19.135 102.631 18.155 C 101.541 17.175 100.996 15.665 100.996 13.625 C 100.996 12.765 101.136 11.495 101.416 9.815 C 102.016 6.375 103.051 3.875 104.521 2.315 C 105.991 0.755 108.316 -0.025 111.496 -0.025 C 112.236 -0.025 113.081 0.05 114.031 0.2 C 114.981 0.35 115.676 0.535 116.116 0.755 L 114.436 5.345 C 113.256 5.065 112.151 4.925 111.121 4.925 C 110.091 4.925 109.356 5.025 108.916 5.225 C 108.476 5.425 108.206 5.825 108.106 6.425 L 106.726 14.285 C 107.446 14.445 108.186 14.525 108.946 14.525 C 110.566 14.525 112.046 14.285 113.386 13.805 Z M 128.116 12.095 L 122.416 12.095 L 122.026 14.375 L 129.016 14.375 L 128.176 19.175 L 115.486 19.175 L 118.786 0.425 L 131.326 0.425 L 129.766 5.225 L 123.616 5.225 L 123.196 7.745 L 128.896 7.745 Z" style="white-space: pre; fill: rgb(255, 255, 255);"/>
</svg>