<?xml version="1.0" encoding="utf-8"?>
<svg id="svg3383" version="1.1" viewBox="0 0 264 37" xmlns="http://www.w3.org/2000/svg">
  <path d="M 230.772 18.551 C 230.772 10.451 237.382 3.857 245.487 3.857 C 253.602 3.857 260.217 10.451 260.217 18.551 C 260.217 26.632 253.602 33.226 245.487 33.226 C 237.382 33.226 230.772 26.632 230.772 18.551 Z M 226.979 18.551 C 226.979 28.714 235.285 37 245.487 37 C 255.684 37 264 28.714 264 18.551 C 264 8.359 255.684 0.078 245.487 0.078 C 235.285 0.078 226.979 8.359 226.979 18.551" style="fill:#fff;fill-opacity:1;fill-rule:nonzero;stroke:none" id="path3105"/>
  <path d="M 224.789 1.232 L 203.64 1.232 L 203.64 5.001 C 203.64 5.001 209.76 5.001 212.318 5.001 C 212.318 8.359 212.318 37 212.318 37 L 216.111 37 L 216.111 5.001 L 224.789 5.001 L 224.789 1.232" style="fill:#fff;fill-opacity:1;fill-rule:nonzero;stroke:none" id="path3109"/>
  <path d="M 158.716 33.226 C 158.716 31.721 158.716 26.123 158.716 20.189 L 169.893 20.189 L 169.893 16.41 L 158.716 16.41 C 158.716 11.331 158.716 6.311 158.716 5.001 C 161.484 5.001 169.893 5.001 169.893 5.001 L 169.893 1.232 L 154.947 1.232 L 154.947 37 L 171.588 37 L 171.588 33.226 C 171.588 33.226 161.597 33.226 158.716 33.226" style="fill:#fff;fill-opacity:1;fill-rule:nonzero;stroke:none" id="path3113"/>
  <path d="M 136.621 3.989 C 140.531 3.989 143.721 7.166 143.721 11.072 C 143.721 14.983 140.531 18.165 136.621 18.165 C 132.696 18.165 129.501 14.983 129.501 11.072 C 129.501 7.166 132.696 3.989 136.621 3.989 Z M 125.738 12.578 L 125.738 36.976 L 129.501 36.976 L 129.501 19.553 L 143.461 36.976 L 148.283 37 L 136.224 21.9 C 136.332 21.9 136.493 21.924 136.621 21.924 C 142.619 21.924 147.494 17.06 147.494 11.072 C 147.494 5.084 142.619 0.23 136.621 0.23 C 130.613 0.23 125.738 5.084 125.738 11.072 L 125.738 12.578" style="fill:#fff;fill-opacity:1;fill-rule:nonzero;stroke:none" id="path3117"/>
  <path d="M 106.495 21.328 C 101.624 21.328 97.714 17.417 97.714 12.578 C 97.714 7.802 101.624 3.857 106.495 3.857 C 111.292 3.857 115.222 7.802 115.222 12.578 C 115.222 17.417 111.292 21.328 106.495 21.328 Z M 93.911 14.108 L 93.911 37 L 97.714 37 L 97.714 21.538 C 99.948 23.753 103.06 25.102 106.495 25.102 C 113.375 25.102 119.01 19.51 119.01 12.578 C 119.01 5.71 113.375 0.078 106.495 0.078 C 99.532 0.078 93.911 5.71 93.911 12.578 L 93.911 14.108" style="fill:#fff;fill-opacity:1;fill-rule:nonzero;stroke:none" id="path3121"/>
  <path d="M 3.749 18.781 L 10.085 18.806 C 14.054 18.806 17.268 22.032 17.268 25.982 C 17.268 30 14.054 33.226 10.085 33.226 L 3.724 33.226 L 3.749 18.781 Z M 3.749 9.435 C 3.768 7.953 4.444 6.477 5.518 5.446 C 6.591 4.439 7.992 3.896 9.477 3.916 C 10.942 3.94 12.339 4.536 13.377 5.602 C 14.387 6.673 14.941 8.051 14.926 9.537 C 14.872 12.421 12.388 14.846 9.418 14.949 L 3.749 14.949 L 3.749 9.435 Z M 10.085 37 C 16.161 37 21.129 32.024 21.129 25.957 C 21.129 21.88 18.861 18.317 15.548 16.41 C 17.474 14.743 18.728 12.314 18.748 9.591 C 18.802 7.122 17.866 4.742 16.121 2.953 C 14.377 1.159 12.045 0.142 9.536 0.078 C 7.046 0.034 4.665 0.978 2.862 2.713 C 1.068 4.453 0.044 6.775 0.02 9.283 L 0 37 L 10.085 37" style="fill:#fff;fill-opacity:1;fill-rule:nonzero;stroke:none" id="path3125"/>
  <path d="M 179.12 9.733 C 179.12 13.311 180.737 17.896 188.464 19.407 C 193.712 20.424 196.226 21.665 196.226 25.943 C 196.226 29.971 192.914 33.256 188.876 33.256 C 185.808 33.256 183.05 31.33 181.972 28.465 L 178.473 29.746 C 180.07 34.082 184.235 37 188.876 37 C 195.006 37 199.945 32.024 199.945 25.943 C 199.945 17.833 192.948 16.464 189.18 15.731 C 183.53 14.607 182.888 11.766 182.888 9.733 C 182.888 6.414 185.568 3.735 188.876 3.735 C 191.787 3.735 193.747 6.717 194.271 7.665 L 197.53 5.822 C 196.741 4.439 193.786 0 188.876 0 C 183.476 0 179.12 4.361 179.12 9.733" style="fill:#fff;fill-opacity:1;fill-rule:nonzero;stroke:none" id="path3129"/>
  <path d="M 32.248 19.456 L 32.248 13.101 C 32.248 4.126 39.304 3.857 40.093 3.857 C 40.911 3.857 47.977 4.126 47.977 13.101 L 47.977 19.456 L 32.248 19.456 Z M 40.093 0.078 C 36.08 0.078 28.45 2.801 28.45 13.101 L 28.45 37 L 32.248 37 L 32.248 23.23 L 47.977 23.23 L 47.977 37 L 51.76 37 L 51.76 13.101 C 51.76 2.801 44.14 0.078 40.093 0.078" style="fill:#fff;fill-opacity:1;fill-rule:nonzero;stroke:none" id="path3133"/>
  <path d="M 60.512 13.101 L 60.512 37 L 64.28 37 L 64.28 13.101 C 64.28 4.126 72.12 3.857 73.037 3.857 C 73.933 3.857 81.774 4.126 81.774 13.101 L 81.774 37 L 85.547 37 L 85.547 13.101 C 85.547 2.801 77.349 0.078 73.037 0.078 C 68.69 0.078 60.512 2.801 60.512 13.101" style="fill:#fff;fill-opacity:1;fill-rule:nonzero;stroke:none" id="path3137"/>
</svg>