<?xml version="1.0" encoding="utf-8"?>
<svg version="1.1" viewBox="0 0 3839 508.2" xmlns="http://www.w3.org/2000/svg">
  <circle class="st0" cx="17.2" cy="24.7" r="17.2" style="fill: rgb(255, 255, 255);"/>
  <circle class="st0" cx="17.2" cy="75.6" r="17.2" style="fill: rgb(255, 255, 255);"/>
  <circle class="st0" cx="17.2" cy="126.5" r="17.2" style="fill: rgb(255, 255, 255);"/>
  <circle class="st0" cx="17.2" cy="177.4" r="17.2" style="fill: rgb(255, 255, 255);"/>
  <circle class="st0" cx="17.2" cy="228.3" r="17.2" style="fill: rgb(255, 255, 255);"/>
  <circle class="st0" cx="40.2" cy="50.2" r="17.2" style="fill: rgb(255, 255, 255);"/>
  <circle class="st0" cx="40.2" cy="152" r="17.2" style="fill: rgb(255, 255, 255);"/>
  <circle class="st0" cx="40.2" cy="202.8" r="17.2" style="fill: rgb(255, 255, 255);"/>
  <circle class="st0" cx="40.2" cy="253.7" r="17.2" style="fill: rgb(255, 255, 255);"/>
  <circle class="st0" cx="40.2" cy="457.3" r="17.2" style="fill: rgb(255, 255, 255);"/>
  <circle class="st0" cx="63.2" cy="24.7" r="17.2" style="fill: rgb(255, 255, 255);"/>
  <circle class="st0" cx="63.2" cy="177.4" r="17.2" style="fill: rgb(255, 255, 255);"/>
  <circle class="st0" cx="63.2" cy="228.3" r="17.2" style="fill: rgb(255, 255, 255);"/>
  <circle class="st0" cx="63.2" cy="279.2" r="17.2" style="fill: rgb(255, 255, 255);"/>
  <circle class="st0" cx="86.2" cy="101.1" r="17.2" style="fill: rgb(255, 255, 255);"/>
  <circle class="st0" cx="86.2" cy="202.8" r="17.2" style="fill: rgb(255, 255, 255);"/>
  <circle class="st0" cx="86.2" cy="253.7" r="17.2" style="fill: rgb(255, 255, 255);"/>
  <circle class="st0" cx="86.2" cy="304.6" r="17.2" style="fill: rgb(255, 255, 255);"/>
  <circle class="st0" cx="86.2" cy="457.3" r="17.2" style="fill: rgb(255, 255, 255);"/>
  <circle class="st0" cx="109.2" cy="24.7" r="17.2" style="fill: rgb(255, 255, 255);"/>
  <circle class="st0" cx="109.2" cy="75.6" r="17.2" style="fill: rgb(255, 255, 255);"/>
  <circle class="st0" cx="109.2" cy="126.5" r="17.2" style="fill: rgb(255, 255, 255);"/>
  <circle class="st0" cx="109.2" cy="228.3" r="17.2" style="fill: rgb(255, 255, 255);"/>
  <circle class="st0" cx="109.2" cy="279.2" r="17.2" style="fill: rgb(255, 255, 255);"/>
  <circle class="st0" cx="109.2" cy="330.1" r="17.2" style="fill: rgb(255, 255, 255);"/>
  <circle class="st0" cx="132.2" cy="101.1" r="17.2" style="fill: rgb(255, 255, 255);"/>
  <circle class="st0" cx="132.2" cy="202.8" r="17.2" style="fill: rgb(255, 255, 255);"/>
  <circle class="st0" cx="132.2" cy="253.7" r="17.2" style="fill: rgb(255, 255, 255);"/>
  <circle class="st0" cx="132.2" cy="304.6" r="17.2" style="fill: rgb(255, 255, 255);"/>
  <circle class="st0" cx="132.2" cy="355.5" r="17.2" style="fill: rgb(255, 255, 255);"/>
  <circle class="st0" cx="132.2" cy="457.3" r="17.2" style="fill: rgb(255, 255, 255);"/>
  <circle class="st0" cx="155.2" cy="24.7" r="17.2" style="fill: rgb(255, 255, 255);"/>
  <circle class="st0" cx="155.2" cy="228.3" r="17.2" style="fill: rgb(255, 255, 255);"/>
  <circle class="st0" cx="155.2" cy="279.2" r="17.2" style="fill: rgb(255, 255, 255);"/>
  <circle class="st0" cx="155.2" cy="330.1" r="17.2" style="fill: rgb(255, 255, 255);"/>
  <circle class="st0" cx="155.2" cy="381" r="17.2" style="fill: rgb(255, 255, 255);"/>
  <circle class="st0" cx="155.2" cy="431.9" r="17.2" style="fill: rgb(255, 255, 255);"/>
  <circle class="st0" cx="178.2" cy="50.2" r="17.2" style="fill: rgb(255, 255, 255);"/>
  <circle class="st0" cx="178.2" cy="152" r="17.2" style="fill: rgb(255, 255, 255);"/>
  <circle class="st0" cx="178.2" cy="202.8" r="17.2" style="fill: rgb(255, 255, 255);"/>
  <circle class="st0" cx="178.2" cy="253.7" r="17.2" style="fill: rgb(255, 255, 255);"/>
  <circle class="st0" cx="178.2" cy="304.6" r="17.2" style="fill: rgb(255, 255, 255);"/>
  <circle class="st0" cx="178.2" cy="355.5" r="17.2" style="fill: rgb(255, 255, 255);"/>
  <circle class="st0" cx="178.2" cy="406.4" r="17.2" style="fill: rgb(255, 255, 255);"/>
  <circle class="st0" cx="178.2" cy="457.3" r="17.2" style="fill: rgb(255, 255, 255);"/>
  <circle class="st0" cx="201.2" cy="24.7" r="17.2" style="fill: rgb(255, 255, 255);"/>
  <circle class="st0" cx="201.2" cy="75.6" r="17.2" style="fill: rgb(255, 255, 255);"/>
  <circle class="st0" cx="201.2" cy="177.4" r="17.2" style="fill: rgb(255, 255, 255);"/>
  <circle class="st0" cx="201.2" cy="228.3" r="17.2" style="fill: rgb(255, 255, 255);"/>
  <circle class="st0" cx="201.2" cy="279.2" r="17.2" style="fill: rgb(255, 255, 255);"/>
  <circle class="st0" cx="201.2" cy="330.1" r="17.2" style="fill: rgb(255, 255, 255);"/>
  <circle class="st0" cx="201.2" cy="381" r="17.2" style="fill: rgb(255, 255, 255);"/>
  <circle class="st0" cx="224.2" cy="50.2" r="17.2" style="fill: rgb(255, 255, 255);"/>
  <circle class="st0" cx="224.2" cy="152" r="17.2" style="fill: rgb(255, 255, 255);"/>
  <circle class="st0" cx="224.2" cy="202.8" r="17.2" style="fill: rgb(255, 255, 255);"/>
  <circle class="st0" cx="224.2" cy="253.7" r="17.2" style="fill: rgb(255, 255, 255);"/>
  <circle class="st0" cx="224.2" cy="304.6" r="17.2" style="fill: rgb(255, 255, 255);"/>
  <circle class="st0" cx="224.2" cy="355.5" r="17.2" style="fill: rgb(255, 255, 255);"/>
  <circle class="st0" cx="224.2" cy="457.3" r="17.2" style="fill: rgb(255, 255, 255);"/>
  <circle class="st0" cx="247.2" cy="24.7" r="17.2" style="fill: rgb(255, 255, 255);"/>
  <circle class="st0" cx="247.2" cy="330.1" r="17.2" style="fill: rgb(255, 255, 255);"/>
  <circle class="st0" cx="247.2" cy="381" r="17.2" style="fill: rgb(255, 255, 255);"/>
  <circle class="st0" cx="247.2" cy="431.9" r="17.2" style="fill: rgb(255, 255, 255);"/>
  <circle class="st0" cx="270.2" cy="101.1" r="17.2" style="fill: rgb(255, 255, 255);"/>
  <circle class="st0" cx="270.2" cy="202.8" r="17.2" style="fill: rgb(255, 255, 255);"/>
  <circle class="st0" cx="270.2" cy="355.5" r="17.2" style="fill: rgb(255, 255, 255);"/>
  <circle class="st0" cx="270.2" cy="406.4" r="17.2" style="fill: rgb(255, 255, 255);"/>
  <circle class="st0" cx="270.2" cy="457.3" r="17.2" style="fill: rgb(255, 255, 255);"/>
  <circle class="st0" cx="293.2" cy="24.7" r="17.2" style="fill: rgb(255, 255, 255);"/>
  <circle class="st0" cx="293.2" cy="75.6" r="17.2" style="fill: rgb(255, 255, 255);"/>
  <circle class="st0" cx="293.2" cy="126.5" r="17.2" style="fill: rgb(255, 255, 255);"/>
  <circle class="st0" cx="293.2" cy="381" r="17.2" style="fill: rgb(255, 255, 255);"/>
  <circle class="st0" cx="316.2" cy="101.1" r="17.2" style="fill: rgb(255, 255, 255);"/>
  <circle class="st0" cx="316.2" cy="202.8" r="17.2" style="fill: rgb(255, 255, 255);"/>
  <circle class="st0" cx="316.2" cy="406.4" r="17.2" style="fill: rgb(255, 255, 255);"/>
  <circle class="st0" cx="339.2" cy="24.7" r="17.2" style="fill: rgb(255, 255, 255);"/>
  <circle class="st0" cx="339.2" cy="177.4" r="17.2" style="fill: rgb(255, 255, 255);"/>
  <circle class="st0" cx="339.2" cy="431.9" r="17.2" style="fill: rgb(255, 255, 255);"/>
  <circle class="st0" cx="362.3" cy="50.2" r="17.2" style="fill: rgb(255, 255, 255);"/>
  <circle class="st0" cx="362.3" cy="152" r="17.2" style="fill: rgb(255, 255, 255);"/>
  <circle class="st0" cx="362.3" cy="457.3" r="17.2" style="fill: rgb(255, 255, 255);"/>
  <circle class="st0" cx="385.3" cy="24.7" r="17.2" style="fill: rgb(255, 255, 255);"/>
  <circle class="st0" cx="385.3" cy="75.6" r="17.2" style="fill: rgb(255, 255, 255);"/>
  <circle class="st0" cx="385.3" cy="126.5" r="17.2" style="fill: rgb(255, 255, 255);"/>
  <circle class="st0" cx="385.3" cy="177.4" r="17.2" style="fill: rgb(255, 255, 255);"/>
  <circle class="st0" cx="385.3" cy="228.3" r="17.2" style="fill: rgb(255, 255, 255);"/>
  <circle class="st0" cx="385.3" cy="279.2" r="17.2" style="fill: rgb(255, 255, 255);"/>
  <circle class="st0" cx="385.3" cy="330.1" r="17.2" style="fill: rgb(255, 255, 255);"/>
  <circle class="st0" cx="385.3" cy="381" r="17.2" style="fill: rgb(255, 255, 255);"/>
  <circle class="st0" cx="385.3" cy="431.9" r="17.2" style="fill: rgb(255, 255, 255);"/>
  <circle class="st0" cx="385.3" cy="482.8" r="17.2" style="fill: rgb(255, 255, 255);"/>
  <path class="st0" d="M 829.6 20.3 C 846.8 28.8 860.1 39.4 869.5 52.3 C 878.9 65.2 885.1 78.8 888.1 93.2 C 891.1 107.6 892.6 120.8 892.6 132.7 C 892.6 147.4 890.4 160.9 886.1 173.3 C 881.7 185.7 875.4 196.7 867.2 206.3 C 858.9 215.9 849.1 223.8 837.6 230 C 826.1 236.2 813.5 240.2 799.8 242 C 833.3 244.3 859.2 256.4 877.5 278.4 C 895.8 300.4 905 329.3 905 365 C 905 380.1 902.4 395.7 897.1 411.8 C 891.8 427.8 883.2 442.4 871.3 455.5 C 859.4 468.6 844 479.2 825.2 487.5 C 806.4 495.8 783.3 499.9 755.7 499.9 L 513.6 499.9 L 513.6 454.5 L 583.1 454.5 L 583.1 52.9 L 514.3 52.9 L 514.3 7.6 L 761.9 7.6 C 789.8 7.6 812.4 11.8 829.6 20.3 Z M 779.8 217 C 793.1 211.3 803.6 203.9 811.4 195 C 819.2 186.1 824.6 176.1 827.6 165.1 C 830.6 154.1 832.1 143.3 832.1 132.8 C 832.1 122.7 831 112.9 828.7 103.2 C 826.4 93.6 821.9 85.1 815.3 77.8 C 808.7 70.5 799.6 64.5 788.1 59.9 C 776.6 55.3 761.7 53 743.4 53 L 642.9 53 L 642.9 225.6 L 729.5 225.6 C 749.7 225.5 766.5 222.7 779.8 217 Z M 789.4 443.9 C 803.6 436.8 814.7 428.3 822.8 418.5 C 830.8 408.6 836.2 398.7 839 388.6 C 841.8 378.5 843.1 370.3 843.1 363.8 C 843.1 350.5 841.6 338.1 838.6 326.7 C 835.6 315.2 830.7 305.4 823.8 297.1 C 816.9 288.8 807.9 282.3 796.6 277.5 C 785.4 272.7 771.5 270.3 755 270.3 L 642.9 270.3 L 642.9 454.6 L 733.7 454.6 C 756.6 454.5 775.2 451 789.4 443.9 Z" style="fill: rgb(255, 255, 255);"/>
  <path class="st0" d="M 1288.3 20.3 C 1305.5 28.8 1318.8 39.4 1328.2 52.3 C 1337.6 65.1 1343.8 78.8 1346.8 93.2 C 1349.8 107.6 1351.3 120.8 1351.3 132.7 C 1351.3 147.4 1349.1 160.9 1344.8 173.3 C 1340.4 185.7 1334.1 196.7 1325.9 206.3 C 1317.6 215.9 1307.8 223.8 1296.3 230 C 1284.8 236.2 1272.2 240.2 1258.5 242 C 1292 244.3 1317.9 256.4 1336.2 278.4 C 1354.5 300.4 1363.7 329.3 1363.7 365 C 1363.7 380.1 1361.1 395.7 1355.8 411.8 C 1350.5 427.8 1341.9 442.4 1330 455.5 C 1318.1 468.6 1302.7 479.2 1283.9 487.5 C 1265.1 495.8 1242 499.9 1214.4 499.9 L 972.4 499.9 L 972.4 454.5 L 1041.9 454.5 L 1041.9 52.9 L 973 52.9 L 973 7.6 L 1220.6 7.6 C 1248.5 7.6 1271.1 11.8 1288.3 20.3 Z M 1238.4 217 C 1251.7 211.3 1262.2 203.9 1270 195 C 1277.8 186.1 1283.2 176.1 1286.2 165.1 C 1289.2 154.1 1290.7 143.3 1290.7 132.8 C 1290.7 122.7 1289.6 112.9 1287.3 103.2 C 1285 93.6 1280.5 85.1 1273.9 77.8 C 1267.3 70.5 1258.2 64.5 1246.7 59.9 C 1235.2 55.3 1220.3 53 1202 53 L 1101.6 53 L 1101.6 225.6 L 1188.2 225.6 C 1208.4 225.5 1225.1 222.7 1238.4 217 Z M 1248 443.9 C 1262.2 436.8 1273.3 428.3 1281.4 418.5 C 1289.4 408.6 1294.8 398.7 1297.6 388.6 C 1300.4 378.5 1301.7 370.3 1301.7 363.8 C 1301.7 350.5 1300.2 338.1 1297.2 326.7 C 1294.2 315.2 1289.3 305.4 1282.4 297.1 C 1275.5 288.8 1266.5 282.3 1255.2 277.5 C 1244 272.7 1230.1 270.3 1213.6 270.3 L 1101.5 270.3 L 1101.5 454.6 L 1192.3 454.6 C 1215.2 454.5 1233.8 451 1248 443.9 Z" style="fill: rgb(255, 255, 255);"/>
  <path class="st0" d="M 1864.8 7.6 L 1864.8 182.3 L 1811.2 182.3 C 1808.9 142.4 1796.8 110.1 1774.8 85.3 C 1752.8 60.5 1720.9 48.2 1679.2 48.2 C 1626.5 48.2 1586.5 65.6 1559.2 100.5 C 1531.9 135.4 1518.3 184.6 1518.3 248.3 C 1518.3 316.1 1531.6 368.2 1558.2 404.4 C 1584.8 440.6 1623.8 458.7 1675.1 458.7 C 1714.1 458.7 1744.7 447.4 1766.9 424.7 C 1789.1 402 1801.4 371.9 1803.7 334.3 L 1867 334.3 C 1865.6 362.3 1860.1 387 1850.5 408.6 C 1840.9 430.1 1827.7 448.4 1811 463.3 C 1794.3 478.2 1774.3 489.4 1751.2 497 C 1728 504.6 1702.5 508.3 1674.5 508.3 C 1632.8 508.3 1597.7 501 1569.3 486.3 C 1540.9 471.6 1518 452.3 1500.5 428.2 C 1483.1 404.1 1470.6 377 1463 346.7 C 1455.4 316.4 1451.7 285.5 1451.7 253.9 C 1451.7 220.4 1456.1 188.3 1464.8 157.6 C 1473.5 126.9 1486.8 99.8 1504.7 76.5 C 1522.6 53.1 1545.4 34.6 1573.1 20.8 C 1600.7 6.9 1633.8 0 1672.3 0 C 1708.1 0 1738.1 6.9 1762.4 20.6 C 1786.7 34.3 1804.3 53.8 1815.3 79 L 1815.3 7.6 L 1864.8 7.6 Z" style="fill: rgb(255, 255, 255);"/>
  <path class="st0" d="M 2339.3 428.4 L 2470.6 7.6 L 2643.9 7.6 L 2643.9 53 L 2573.8 53 L 2573.8 454.6 L 2643.9 454.6 L 2643.9 500 L 2452.7 500 L 2452.7 454.6 L 2516 454.6 L 2516 52.9 L 2511.2 52.9 L 2364.7 499.9 L 2311.1 499.9 L 2164.6 52.9 L 2159.8 52.9 L 2159.8 454.5 L 2223.8 454.5 L 2223.8 499.9 L 2036.8 499.9 L 2036.8 454.5 L 2107.6 454.5 L 2107.6 52.9 L 2036.8 52.9 L 2036.8 7.6 L 2212.1 7.6 L 2339.3 428.4 Z" style="fill: rgb(255, 255, 255);"/>
  <path class="st0" d="M 2802.1 456.6 L 2857.8 456.6 L 2857.8 499.9 L 2688.6 499.9 L 2688.6 456.6 L 2746.4 456.6 L 2746.4 181.5 L 2689.3 181.5 L 2689.3 141 L 2802.1 141 L 2802.1 456.6 Z M 2806.2 65.3 L 2742.2 65.3 L 2742.2 7.6 L 2806.2 7.6 L 2806.2 65.3 Z" style="fill: rgb(255, 255, 255);"/>
  <path class="st0" d="M 3193.3 141 L 3193.3 273 L 3150 273 L 3150 266.8 C 3149.5 255.3 3147.1 244.2 3142.8 233.4 C 3138.4 222.6 3132.4 212.9 3124.6 204.2 C 3116.8 195.5 3107.6 188.5 3097.1 183.2 C 3086.6 177.9 3074.9 175.3 3062 175.3 C 3042.7 175.3 3026.4 179.5 3012.8 188 C 2999.3 196.5 2988.3 207.4 2979.8 220.7 C 2971.3 234 2965.1 249.1 2961.2 266.1 C 2957.3 283.1 2955.4 300 2955.4 317 C 2955.4 334.4 2957.6 351.6 2961.9 368.6 C 2966.2 385.6 2972.8 400.8 2981.5 414.3 C 2990.2 427.8 3001.2 438.8 3014.5 447.3 C 3027.8 455.8 3043.4 460 3061.3 460 C 3081.5 460 3099 453.6 3113.9 440.7 C 3128.8 427.9 3138.8 409.8 3143.8 386.4 L 3145.2 378.1 L 3197.5 378.1 L 3196.8 390.5 C 3194.5 408.4 3189.4 424.4 3181.3 438.6 C 3173.3 452.8 3163 464.7 3150.4 474.4 C 3137.8 484 3123.4 491.5 3107.1 496.7 C 3090.8 502 3073.7 504.6 3055.9 504.6 C 3030.2 504.6 3007.4 499.9 2987.5 490.5 C 2967.6 481.1 2950.7 468.2 2937 451.6 C 2923.2 435.1 2912.7 415.8 2905.4 393.8 C 2898.1 371.8 2894.4 348.4 2894.4 323.7 C 2894.4 291.6 2898.6 263.4 2907.1 239.1 C 2915.6 214.8 2926.8 194.6 2940.8 178.6 C 2954.8 162.6 2971.1 150.4 2989.6 142.2 C 3008.2 133.9 3027.5 129.8 3047.7 129.8 C 3071.1 129.8 3091 134.2 3107.5 142.9 C 3124 151.6 3138.2 165.8 3150.1 185.5 L 3150.1 141 L 3193.3 141 Z" style="fill: rgb(255, 255, 255);"/>
  <path class="st0" d="M 3457.7 184.3 C 3453.8 183.8 3450 183.6 3446.4 183.6 C 3379.9 183.6 3346.7 227.8 3346.7 316.3 L 3346.7 456.6 L 3414.8 456.6 L 3414.8 499.9 L 3233.9 499.9 L 3233.9 456.6 L 3291 456.6 L 3291 181.5 L 3233.9 181.5 L 3233.9 141 L 3346.7 141 L 3346.7 212.5 C 3352.2 196.9 3357.9 184.2 3363.9 174.3 C 3369.9 164.4 3376.7 156.6 3384.5 150.9 C 3392.3 145.2 3401.1 141.2 3411 138.9 C 3420.9 136.6 3432.7 135.2 3446.4 134.8 L 3469.8 134.8 L 3469.8 186.4 C 3465.6 185.4 3461.6 184.7 3457.7 184.3 Z" style="fill: rgb(255, 255, 255);"/>
  <path class="st0" d="M 3793.6 453.8 C 3763.3 487.7 3723.2 504.7 3673.3 504.7 C 3617.4 504.7 3575.2 485.7 3546.8 447.6 C 3519.3 410 3505.5 366 3505.5 315.6 C 3505.5 286.7 3509.6 260.8 3517.9 237.9 C 3526.2 215 3537.7 195.5 3552.6 179.5 C 3567.5 163.5 3585.4 151.2 3606.2 142.7 C 3627.1 134.2 3650.3 130 3676 130 C 3702.6 130 3726.1 134.7 3746.5 144.1 C 3766.9 153.5 3784 166.7 3797.7 183.6 C 3811.5 200.6 3821.8 220.5 3828.6 243.4 C 3835.5 266.3 3838.9 291.3 3838.9 318.4 C 3839 374.3 3823.9 419.5 3793.6 453.8 Z M 3710.8 453.8 C 3723.4 447.8 3735 438.9 3745.5 427 C 3756.5 415.1 3764.8 399.5 3770.3 380.2 C 3775.8 360.9 3778.6 338.9 3778.6 314.2 C 3778.6 268.8 3769.4 233.9 3751.1 209.3 C 3732.8 184.8 3706.4 172.5 3672 172.5 C 3655.5 172.5 3640.6 175.8 3627.3 182.5 C 3614 189.1 3602.8 198.5 3593.6 210.7 C 3584.4 222.8 3577.3 237.5 3572.3 254.7 C 3567.3 271.9 3564.7 290.8 3564.7 311.4 C 3564.7 342.6 3567.8 367 3574 384.6 C 3580.2 402.2 3588.6 416.8 3599.1 428.3 C 3620.2 451.2 3644.7 462.7 3672.7 462.7 C 3685.4 462.8 3698.1 459.8 3710.8 453.8 Z" style="fill: rgb(255, 255, 255);"/>
</svg>