<?xml version="1.0" encoding="utf-8"?>
<svg version="1.1" id="build" x="0px" y="0px" viewBox="0 0 264 109" xmlns="http://www.w3.org/2000/svg">
  <path d="M 42.323 0.016 C 42.323 0.708 42.323 1.409 42.323 2.311 C 44.44 2.311 46.58 2.311 48.658 2.311 C 49.148 4.53 49.148 4.53 51.187 4.981 C 51.234 5.44 51.289 5.907 51.359 6.569 C 51.74 6.569 52.106 6.569 52.479 6.569 C 52.775 6.569 53.071 6.569 53.343 6.569 C 53.865 7.09 53.717 9.012 52.97 10.647 C 53.725 10.95 54.472 11.254 55.343 11.604 C 55.343 13.519 55.343 15.581 55.343 17.768 C 54.861 17.846 54.316 17.932 53.67 18.033 C 53.67 19.317 53.67 20.585 53.67 21.955 C 52.907 21.955 52.246 21.955 51.421 21.955 C 51.327 22.788 51.242 23.527 51.148 24.368 C 49.693 24.368 48.222 24.368 46.51 24.368 C 46.65 26.049 45.95 27.683 47.226 29.209 C 48.526 29.209 49.786 29.209 51.133 29.209 C 51.117 30.89 51.756 31.886 53.616 31.653 C 53.616 33.03 53.616 34.299 53.616 35.668 C 54.184 35.668 54.651 35.668 55.001 35.668 C 55.188 35.847 55.328 35.91 55.328 35.98 C 55.336 38.828 55.336 41.685 55.336 44.642 C 54.861 44.642 54.394 44.642 53.709 44.642 C 53.709 46.074 53.709 47.413 53.709 48.821 C 52.837 48.868 52.168 48.907 51.382 48.954 C 51.382 49.615 51.382 50.285 51.382 51.125 C 50.549 51.218 49.818 51.296 48.977 51.39 C 48.977 51.841 48.977 52.308 48.977 52.993 C 46.751 52.993 44.619 52.993 42.393 52.993 C 42.346 53.865 42.315 54.534 42.276 55.328 C 28.236 55.328 14.188 55.328 0.07 55.328 C 0.07 51.849 0.07 48.401 0.07 44.837 C 1.323 44.837 2.592 44.837 4.063 44.837 C 4.102 43.988 4.172 43.233 4.172 42.486 C 4.179 33.046 4.164 23.613 4.195 14.172 C 4.195 13.347 3.782 12.367 4.747 11.674 C 3.557 9.869 1.65 11.254 0 10.468 C 0 7.106 0 3.557 0 0.008 C 14.11 0.016 28.22 0.016 42.323 0.016 Z M 38.143 42.229 C 39.723 42.229 40.984 42.229 42.268 42.229 C 42.268 40.665 42.268 39.21 42.268 37.536 C 41.474 37.536 40.743 37.536 40.027 37.536 C 39.957 36.859 39.902 36.392 39.848 35.902 C 39.256 35.801 38.712 35.715 38.081 35.614 C 38.081 34.844 38.081 34.174 38.081 33.536 C 37.101 33.31 35.956 32.68 35.412 33.015 C 34.415 33.622 33.497 33.365 32.579 33.373 C 26.944 33.419 21.309 33.396 15.628 33.396 C 15.628 38.034 15.628 42.533 15.628 47.047 C 22.165 47.047 28.586 47.047 35.24 47.047 C 35.505 46.292 35.785 45.521 36.097 44.642 C 36.719 44.642 37.388 44.642 38.159 44.642 C 38.143 43.872 38.143 43.21 38.143 42.229 Z M 17.978 24.352 C 23.247 24.352 28.267 24.352 33.279 24.352 C 33.373 23.52 33.45 22.78 33.552 21.924 C 34.003 22.095 34.268 22.181 34.509 22.305 C 34.75 22.43 34.976 22.593 35.318 22.811 C 36.579 21.161 38.494 22.726 40.035 21.714 C 40.035 21.317 40.035 20.85 40.035 20.173 C 41.661 20.173 43.194 20.173 44.603 20.173 C 44.603 18.507 44.603 17.044 44.603 15.495 C 43.039 15.495 41.576 15.495 39.918 15.495 C 39.918 14.663 39.918 13.923 39.918 13.091 C 38.447 13.091 37.186 13.091 36.042 13.091 C 35.707 12.211 35.404 11.441 35.17 10.826 C 28.469 10.826 22.056 10.826 15.573 10.826 C 15.573 14.546 15.573 18.181 15.573 22.095 C 16.258 22.344 17.021 22.625 17.823 22.92 C 17.861 23.333 17.916 23.8 17.978 24.352 Z" fill="white"/>
  <path d="M 247.991 0.016 C 248.03 0.879 247.672 1.891 249.298 2.374 C 250.014 2.374 251.197 2.374 252.59 2.374 C 252.769 3.658 252.886 5.183 254.956 4.716 C 255.065 5.323 255.159 5.868 255.275 6.514 C 255.937 6.553 256.606 6.584 257.478 6.631 C 257.478 7.355 257.478 8.094 257.478 8.896 C 258.35 8.935 259.019 8.966 259.898 9.005 C 259.898 10.359 259.898 11.705 259.898 13.036 C 260.575 13.106 261.042 13.161 261.611 13.223 C 261.611 16.095 261.611 18.943 261.611 21.963 C 262.443 22.025 263.183 22.088 264 22.15 C 264 25.854 264 29.505 264 33.357 C 263.299 33.357 262.56 33.357 261.72 33.357 C 261.72 36.416 261.72 39.264 261.72 42.229 C 261.159 42.229 260.692 42.229 260.007 42.229 C 260.007 43.661 260.007 44.992 260.007 46.424 C 259.128 46.424 258.466 46.424 257.634 46.424 C 257.571 47.257 257.509 47.996 257.447 48.829 C 256.723 48.868 256.054 48.907 255.174 48.954 C 255.174 49.678 255.174 50.417 255.174 51.257 C 254.303 51.257 253.633 51.257 252.863 51.257 C 252.863 51.826 252.863 52.293 252.863 52.915 C 251.516 52.915 250.263 52.915 248.917 52.915 C 248.606 53.328 248.31 53.709 247.936 54.207 C 248.084 54.495 248.286 54.884 248.536 55.351 C 235.904 55.351 223.327 55.351 210.493 55.351 C 210.353 51.942 210.478 48.432 210.415 44.813 C 211.785 44.813 213.054 44.813 214.213 44.813 C 214.595 44.432 214.883 44.144 215.202 43.825 C 215.202 33.544 215.202 23.232 215.21 12.912 C 215.21 12.102 215.272 11.316 214.213 10.748 C 213.163 10.748 211.902 10.748 210.439 10.748 C 210.439 7.098 210.439 3.557 210.439 0.008 C 222.953 0.016 235.468 0.016 247.991 0.016 Z M 246.1 15.527 C 246.1 14.538 246.1 13.877 246.1 13.114 C 244.738 13.114 243.477 13.114 242.309 13.114 C 241.975 12.227 241.687 11.456 241.422 10.74 C 236.815 10.74 232.456 10.748 228.098 10.732 C 227.289 10.732 226.51 10.694 226.074 11.503 C 226.074 22.586 226.074 33.637 226.074 44.65 C 231.437 44.65 236.659 44.65 241.998 44.65 C 242.037 43.848 242.068 43.101 242.107 42.268 C 243.57 42.268 244.839 42.268 246.224 42.268 C 245.866 40.307 247.119 39.926 248.536 39.747 C 248.59 39.249 248.637 38.782 248.691 38.237 C 249.485 38.182 250.224 38.128 250.909 38.081 C 250.909 31.878 250.909 25.854 250.909 19.76 C 250.1 19.698 249.36 19.644 248.528 19.589 C 248.528 18.157 248.528 16.896 248.528 15.534 C 247.749 15.527 247.08 15.527 246.1 15.527 Z" fill="white"/>
  <path d="M 120.415 0.016 C 120.415 3.487 120.415 6.966 120.415 10.655 C 119.092 10.655 117.754 10.655 116.329 10.655 C 116.329 22.056 116.329 33.248 116.329 44.603 C 115.504 44.673 114.765 44.735 113.917 44.813 C 113.917 46.121 113.917 47.382 113.917 48.744 C 112.329 48.806 111.185 49.296 111.457 51.211 C 110.889 51.211 110.422 51.211 109.846 51.211 C 109.737 51.841 109.652 52.386 109.543 53.032 C 108.274 53.032 107.006 53.032 105.55 53.032 C 105.262 53.732 104.99 54.409 104.616 55.312 C 96.826 55.312 88.739 55.312 80.544 55.312 C 80.544 54.674 80.544 54.013 80.544 53.133 C 79.112 53.133 77.773 53.133 76.411 53.133 C 76.341 52.464 76.287 51.989 76.225 51.405 C 75.579 51.405 74.909 51.405 74.069 51.405 C 73.975 50.573 73.898 49.841 73.804 49 C 73.15 49 72.481 49 71.609 49 C 71.609 47.576 71.609 46.23 71.609 44.977 C 70.707 44.697 70.014 44.479 69.166 44.222 C 69.166 32.999 69.166 21.932 69.166 10.764 C 67.702 10.764 66.442 10.764 64.971 10.764 C 64.971 7.113 64.971 3.572 64.971 0.023 C 71.532 0.023 78.085 0.023 84.646 0.023 C 84.646 3.564 84.646 7.113 84.646 10.865 C 83.12 10.865 81.789 10.865 80.474 10.865 C 80.474 12.266 80.474 13.456 80.474 14.647 C 80.474 15.939 80.474 17.223 80.474 18.515 C 80.474 19.706 80.474 20.897 80.474 22.088 C 80.474 23.278 80.474 24.469 80.474 25.66 C 80.474 26.952 80.474 28.236 80.474 29.528 C 80.474 30.719 80.474 31.909 80.474 33.1 C 80.474 34.392 80.832 35.824 80.373 36.922 C 79.953 37.925 80.474 38.891 79.976 39.754 C 81.782 39.98 81.782 39.98 82.708 41.015 C 82.568 41.155 82.427 41.295 82.116 41.607 C 83.035 42.004 83.852 42.354 84.786 42.766 C 84.786 44.175 84.786 45.63 84.786 47.117 C 90.265 47.117 95.612 47.109 100.966 47.125 C 101.775 47.125 102.562 47.187 103.231 45.926 C 103.231 45 103.231 43.669 103.231 42.237 C 104.103 42.237 104.772 42.237 105.535 42.237 C 105.535 40.867 105.535 39.607 105.535 38.307 C 106.173 38.213 106.718 38.128 107.239 38.05 C 107.239 29.722 107.239 21.519 107.239 13.262 C 106.64 13.168 106.095 13.083 105.784 13.036 C 105.449 12.141 105.192 11.456 104.889 10.639 C 103.394 10.639 102.063 10.639 100.748 10.639 C 100.748 6.958 100.748 3.487 100.748 0.016 C 107.301 0.016 113.862 0.016 120.415 0.016 Z" fill="white"/>
  <path d="M 178.841 0.016 C 178.841 3.487 178.841 6.966 178.841 10.647 C 177.518 10.647 176.187 10.647 175.261 10.647 C 174 11.324 174.062 12.11 174.062 12.919 C 174.078 16.694 174.07 20.461 174.07 24.236 C 174.07 30.781 174.07 37.326 174.07 43.825 C 174.397 44.152 174.677 44.432 174.957 44.712 C 179.915 44.712 184.88 44.712 190.056 44.712 C 190.056 43.194 190.056 41.669 190.056 40.042 C 193.714 40.042 197.161 40.042 200.695 40.042 C 200.889 40.237 201.169 40.517 201.411 40.758 C 201.411 45.638 201.411 50.471 201.411 55.375 C 187.355 55.375 173.385 55.375 159.29 55.375 C 159.29 51.88 159.29 48.362 159.29 44.735 C 160.598 44.735 161.859 44.735 163.228 44.735 C 163.228 33.373 163.228 22.111 163.228 10.74 C 161.898 10.74 160.629 10.74 159.166 10.74 C 159.166 7.09 159.166 3.549 159.166 0 C 165.727 0.016 172.28 0.016 178.841 0.016 Z" fill="white"/>
  <path d="M 149.632 0.016 C 149.632 3.487 149.632 6.958 149.632 10.639 C 148.317 10.639 146.986 10.639 145.554 10.639 C 145.554 22.103 145.554 33.357 145.554 44.712 C 146.9 44.712 148.169 44.712 149.531 44.712 C 149.531 48.253 149.531 51.701 149.531 55.266 C 149.577 55.227 149.507 55.304 149.43 55.351 C 149.352 55.398 149.258 55.445 149.173 55.445 C 142.837 55.452 136.502 55.445 130.066 55.445 C 130.066 51.911 130.066 48.463 130.066 44.813 C 131.288 44.813 132.619 44.813 134.043 44.813 C 134.043 33.419 134.043 22.243 134.043 10.849 C 132.821 10.849 131.49 10.849 129.965 10.849 C 129.965 7.098 129.965 3.549 129.965 0.008 C 136.518 0.016 143.071 0.016 149.632 0.016 Z" fill="white"/>
  <path d="M 183.713 109.045 C 179.759 109.045 176.117 109.045 172.373 109.045 C 172.373 92.234 172.373 75.477 172.373 58.573 C 176 58.573 179.72 58.573 183.549 58.573 C 183.58 59.017 183.612 59.484 183.658 60.169 C 184.382 60.169 185.114 60.169 185.985 60.169 C 185.09 61.593 185.511 62.916 185.355 64.387 C 186.118 64.667 186.802 64.924 187.659 65.243 C 187.659 65.5 187.659 65.959 187.659 66.621 C 188.491 66.706 189.223 66.784 190.063 66.877 C 190.063 68.317 190.063 69.788 190.063 71.407 C 190.896 71.485 191.636 71.555 192.484 71.633 C 192.484 72.333 192.484 73.003 192.484 73.773 C 193.114 73.874 193.659 73.96 194.305 74.061 C 194.305 75.345 194.305 76.606 194.305 77.984 C 195.076 77.984 195.737 77.984 196.554 77.984 C 196.648 78.816 196.733 79.556 196.827 80.396 C 197.488 80.396 198.158 80.396 198.959 80.396 C 198.959 81.743 198.959 83.003 198.959 84.498 C 199.73 84.832 200.477 85.151 201.38 85.548 C 201.38 85.813 201.38 86.28 201.38 86.949 C 202.212 86.988 202.952 87.027 203.792 87.066 C 203.792 77.517 203.792 68.115 203.792 58.573 C 207.411 58.573 210.929 58.573 214.517 58.573 C 214.517 75.345 214.517 92.101 214.517 108.982 C 211.03 108.982 207.512 108.982 203.917 108.982 C 203.886 108.282 203.847 107.613 203.808 106.834 C 203.123 106.834 202.461 106.834 201.574 106.834 C 201.574 105.402 201.574 104.071 201.574 102.632 C 200.695 102.632 200.033 102.632 199.193 102.632 C 199.13 101.799 199.076 101.052 199.014 100.25 C 198.484 100.196 198.01 100.149 197.418 100.094 C 197.418 98.857 197.418 97.596 197.418 96.141 C 196.585 96.055 195.854 95.977 195.013 95.892 C 195.013 95.238 195.013 94.569 195.013 93.744 C 194.181 93.666 193.441 93.596 192.593 93.51 C 192.593 92.024 192.593 90.553 192.593 88.887 C 191.752 88.887 191.013 88.887 190.266 88.887 C 190.188 88.21 190.133 87.743 190.079 87.307 C 189.301 87.027 188.53 86.747 187.721 86.451 C 187.721 84.957 187.721 83.696 187.721 82.365 C 187.153 82.311 186.686 82.272 186.001 82.202 C 186.001 81.486 186.001 80.746 186.001 79.953 C 185.121 79.953 184.46 79.953 183.689 79.953 C 183.713 89.588 183.713 99.192 183.713 109.045 Z" fill="white"/>
  <path d="M 62.488 71.563 C 63.469 71.563 64.138 71.563 64.908 71.563 C 64.908 72.333 64.908 73.003 64.908 73.773 C 65.539 73.874 66.084 73.968 66.73 74.069 C 66.73 75.345 66.73 76.614 66.73 77.991 C 67.492 77.991 68.162 77.991 68.994 77.991 C 69.088 78.824 69.173 79.556 69.267 80.396 C 69.921 80.396 70.59 80.396 71.399 80.396 C 71.399 81.743 71.399 82.996 71.399 84.35 C 72.084 84.786 72.699 85.183 73.329 85.587 C 73.329 85.953 73.329 86.342 73.329 86.895 C 74.256 86.895 75.189 86.895 76.225 86.895 C 76.225 77.532 76.225 68.13 76.225 58.581 C 79.836 58.581 83.354 58.581 86.957 58.581 C 86.957 75.314 86.957 92.07 86.957 108.967 C 83.517 108.967 79.999 108.967 76.38 108.967 C 76.575 107.255 75.633 106.562 73.921 106.616 C 73.921 105.262 73.921 104.001 73.921 102.639 C 73.15 102.639 72.489 102.639 71.648 102.639 C 71.586 101.807 71.524 101.067 71.462 100.234 C 70.738 100.196 70.068 100.157 69.275 100.11 C 69.275 98.865 69.275 97.604 69.275 96.187 C 67.889 95.97 66.325 95.884 66.862 93.775 C 66.208 93.666 65.663 93.58 65.017 93.479 C 65.017 92.203 65.017 90.934 65.017 89.479 C 64.317 89.198 63.632 88.918 62.714 88.545 C 62.675 88.311 62.574 87.766 62.457 87.12 C 61.795 87.082 61.126 87.05 60.254 87.004 C 60.254 85.494 60.254 83.953 60.254 82.412 C 59.577 82.334 59.11 82.28 58.643 82.225 C 58.044 79.633 57.476 79.353 55.46 80.762 C 55.46 90.101 55.46 99.503 55.46 109.013 C 51.919 109.013 48.479 109.013 45.008 109.013 C 44.549 106.492 44.377 70.224 44.798 58.558 C 48.238 58.558 51.685 58.558 55.273 58.558 C 55.351 58.97 55.452 59.507 55.577 60.153 C 56.223 60.153 56.892 60.153 57.764 60.153 C 57.764 61.78 57.764 63.321 57.764 64.932 C 58.635 64.978 59.305 65.017 60.091 65.064 C 60.169 65.593 60.254 66.138 60.355 66.784 C 61.064 66.784 61.725 66.784 62.496 66.784 C 62.488 68.325 62.488 69.788 62.488 71.563 Z" fill="white"/>
  <path d="M 131.56 106.718 C 130.26 106.718 129.062 106.718 127.708 106.718 C 127.638 107.441 127.56 108.189 127.474 109.013 C 120.228 109.013 113.014 109.013 105.768 109.013 C 105.519 108.313 105.239 107.535 104.951 106.733 C 103.48 106.733 102.219 106.733 100.849 106.733 C 100.849 106.165 100.849 105.698 100.849 105.075 C 100.017 104.998 99.277 104.92 98.429 104.834 C 98.429 104.141 98.429 103.472 98.429 102.6 C 97.588 102.6 96.849 102.6 96.008 102.6 C 96.008 101.13 96.008 99.869 96.008 98.491 C 95.44 98.491 94.973 98.491 94.646 98.491 C 94.086 98.016 93.923 78.715 94.265 69.275 C 94.724 69.275 95.191 69.275 95.868 69.275 C 95.868 67.843 95.868 66.512 95.868 65.072 C 96.74 65.072 97.409 65.072 98.25 65.072 C 98.312 64.239 98.359 63.492 98.421 62.675 C 99.16 62.636 99.83 62.597 100.709 62.55 C 100.709 61.811 100.709 61.079 100.709 60.239 C 102.375 60.239 103.838 60.239 105.402 60.239 C 105.402 59.671 105.402 59.204 105.402 58.589 C 112.796 58.589 120.088 58.589 127.521 58.589 C 127.544 59.017 127.56 59.484 127.599 60.231 C 128.245 60.231 128.899 60.231 129.56 60.231 C 130.237 60.231 130.906 60.231 131.661 60.231 C 131.708 61.04 131.747 61.71 131.786 62.496 C 132.447 62.496 133.117 62.496 133.957 62.496 C 134.043 63.329 134.129 64.06 134.214 64.901 C 134.868 64.901 135.537 64.901 136.098 64.901 C 136.269 65.072 136.401 65.142 136.401 65.22 C 136.417 66.481 136.409 67.741 136.409 69.111 C 137.281 69.111 137.95 69.111 138.744 69.111 C 138.744 70.543 138.744 71.874 138.744 73.29 C 138.051 73.329 137.382 73.361 136.603 73.407 C 136.603 74.084 136.603 74.754 136.603 75.283 C 136.424 75.485 136.362 75.625 136.3 75.625 C 134.245 75.633 132.191 75.633 130.027 75.633 C 130.027 74.972 130.027 74.31 130.027 73.477 C 129.194 73.407 128.455 73.345 127.622 73.275 C 127.583 72.761 127.544 72.294 127.498 71.734 C 126.027 71.664 124.875 71.181 125.147 69.282 C 120.61 69.282 116.166 69.282 111.481 69.282 C 111.613 69.749 111.737 70.224 111.909 70.847 C 111.776 70.956 111.473 71.189 110.951 71.602 C 109.979 71.602 108.71 71.602 107.348 71.602 C 107.348 72.964 107.348 74.224 107.348 75.703 C 106.507 75.703 105.768 75.703 104.966 75.703 C 104.966 81.143 104.966 86.381 104.966 91.821 C 105.69 91.821 106.43 91.821 107.27 91.821 C 107.27 93.292 107.27 94.553 107.27 95.923 C 108.632 95.923 109.893 95.923 111.123 95.923 C 111.457 96.794 111.745 97.565 112.041 98.343 C 115.068 98.343 117.917 98.343 120.882 98.343 C 120.882 97.682 120.882 97.02 120.882 96.141 C 122.314 96.141 123.645 96.141 125.069 96.141 C 125.069 93.674 125.069 91.417 125.069 88.957 C 123.038 88.957 120.906 88.957 118.68 88.957 C 118.633 88.288 118.602 87.821 118.547 87.136 C 117.824 87.136 117.092 87.136 116.283 87.136 C 116.283 84.871 116.283 82.817 116.283 80.645 C 116.952 80.645 117.613 80.645 118.438 80.645 C 118.532 79.812 118.617 79.073 118.711 78.24 C 121.357 78.24 124.011 78.24 126.953 78.24 C 127.186 78.847 127.474 79.61 127.817 80.505 C 128.976 80.505 130.237 80.505 131.591 80.505 C 131.584 82.163 132.191 83.19 133.934 82.972 C 134.378 85.042 134.378 85.042 136.409 85.338 C 136.409 86.63 136.409 87.969 136.409 89.401 C 137.281 89.448 137.95 89.479 138.744 89.518 C 138.744 92.148 138.744 94.802 138.744 97.783 C 138.222 98.001 137.467 98.312 136.572 98.686 C 136.572 99.768 136.572 101.036 136.572 102.468 C 135.74 102.53 135 102.593 134.167 102.655 C 134.129 103.379 134.09 104.048 134.035 104.928 C 133.311 104.928 132.572 104.928 131.872 104.928 C 131.763 105.651 131.661 106.196 131.56 106.718 Z" fill="white"/>
  <path d="M 259.852 98.374 C 259.852 102.032 259.852 105.472 259.852 109.013 C 247.212 109.013 234.628 109.013 221.903 109.013 C 221.903 92.273 221.903 75.446 221.903 58.527 C 234.456 58.527 247.041 58.527 259.766 58.527 C 259.766 61.756 259.766 65.08 259.766 68.38 C 259.245 69.422 258.28 69.158 257.416 69.158 C 250.964 69.166 244.504 69.166 238.052 69.166 C 236.27 69.166 234.495 69.166 232.604 69.166 C 232.604 72.154 232.604 75.073 232.604 78.1 C 238.504 78.1 244.333 78.1 250.271 78.1 C 250.271 81.649 250.271 85.097 250.271 88.654 C 250.31 88.615 250.248 88.7 250.162 88.755 C 250.084 88.802 249.991 88.84 249.905 88.84 C 244.364 88.848 238.815 88.84 233.024 88.84 C 232.838 89.494 232.534 90.101 232.511 90.716 C 232.448 92.989 232.487 95.269 232.487 97.433 C 233.032 98.297 233.725 98.406 234.581 98.398 C 239.344 98.359 244.115 98.374 248.878 98.374 C 252.458 98.374 256.038 98.374 259.852 98.374 Z" fill="white"/>
  <path d="M 37.497 58.534 C 37.497 62.083 37.497 65.531 37.497 69.08 C 28.625 69.08 19.815 69.08 10.865 69.08 C 10.865 72.1 10.865 75.026 10.865 78.054 C 16.71 78.054 22.539 78.054 28.493 78.054 C 28.493 81.673 28.493 85.19 28.493 88.817 C 22.804 88.817 17.169 88.817 11.285 88.817 C 11.09 89.455 10.764 90.062 10.748 90.677 C 10.686 93.152 10.725 95.635 10.725 98.32 C 19.644 98.32 28.524 98.32 37.482 98.32 C 37.482 101.978 37.482 105.426 37.482 108.99 C 25.029 108.99 12.569 108.99 0.054 108.99 C 0.054 92.164 0.054 75.4 0.054 58.542 C 12.476 58.534 24.866 58.534 37.497 58.534 Z" fill="white"/>
  <path d="M 150.122 69.142 C 148.558 69.142 147.095 69.142 145.546 69.142 C 145.546 65.593 145.546 62.146 145.546 58.558 C 152.192 58.558 158.886 58.558 165.657 58.558 C 165.657 62.029 165.657 65.477 165.657 69.041 C 164.209 69.041 162.746 69.041 161.298 69.041 C 160.824 71.555 160.683 89.961 161.065 98.281 C 162.512 98.281 163.983 98.281 165.587 98.281 C 165.587 101.9 165.587 105.418 165.587 109.021 C 158.963 109.021 152.332 109.021 145.585 109.021 C 145.585 105.527 145.585 102.009 145.585 98.39 C 147.095 98.39 148.558 98.39 150.122 98.39 C 150.122 88.677 150.122 79.073 150.122 69.142 Z" fill="white"/>
</svg>