<?xml version="1.0" encoding="UTF-8" standalone="no"?><!-- Generator: Gravit.io --><svg xmlns="http://www.w3.org/2000/svg" xmlns:xlink="http://www.w3.org/1999/xlink" style="isolation:isolate" viewBox="0 0 264 62.277" width="264pt" height="62.277pt"><defs><clipPath id="_clipPath_vGlCLmtgvsft8D6tKvQY0UlL75x8EKE5"><rect x="0" y="0" width="264" height="62.277"/></clipPath></defs><g clip-path="url(#_clipPath_vGlCLmtgvsft8D6tKvQY0UlL75x8EKE5)"><path d=" M 37.626 7.706 L 30.76 14.875 C 30.76 14.875 30.396 15.058 30.092 15.058 C 29.788 15.058 29.36 14.753 29.36 14.753 L 28.511 14.031 C 28.511 14.031 28.266 13.971 28.266 13.727 C 28.266 13.488 28.936 12.878 28.936 11.729 C 28.936 10.578 28.694 5.797 21.278 5.797 C 13.863 5.797 10.579 12.697 10.579 18.387 C 10.579 24.077 14.103 34.486 25.657 34.486 C 32.375 34.486 33.798 30.73 33.798 30.73 L 36.108 30.73 L 36.108 40.538 L 23.465 40.538 C 8.391 40.538 0 28.793 0 20.321 C 0 7.33 11.347 0.121 21.642 0.121 C 31.611 0.122 37.626 7.706 37.626 7.706 L 37.626 7.706 L 37.626 7.706 L 37.626 7.706 L 37.626 7.706 L 37.626 7.706 L 37.626 7.706 Z  M 58.599 20.929 L 66.625 20.929 L 62.492 9.431 L 58.599 20.929 L 58.599 20.929 L 58.599 20.929 L 58.599 20.929 L 58.599 20.929 L 58.599 20.929 L 58.599 20.929 L 58.599 20.929 Z  M 102.609 7.129 L 102.609 23.954 C 102.609 23.954 114.036 19.235 114.036 12.577 C 114.036 4.346 102.609 7.129 102.609 7.129 L 102.609 7.129 L 102.609 7.129 L 102.609 7.129 L 102.609 7.129 L 102.609 7.129 L 102.609 7.129 Z  M 166.376 7.775 L 159.508 14.944 C 159.508 14.944 159.142 15.126 158.837 15.126 C 158.536 15.126 158.111 14.823 158.111 14.823 L 157.257 14.094 C 157.257 14.094 157.015 14.037 157.015 13.797 C 157.015 13.553 157.681 12.945 157.681 11.799 C 157.681 10.647 157.441 5.866 150.023 5.866 C 142.606 5.866 139.324 12.764 139.324 18.455 C 139.324 24.14 142.85 34.553 154.403 34.553 C 161.122 34.553 162.546 30.799 162.546 30.799 L 164.858 30.799 L 164.858 40.604 L 152.21 40.604 C 137.138 40.604 128.746 28.863 128.746 20.39 C 128.746 7.401 140.09 0.189 150.387 0.189 C 160.357 0.189 166.376 7.775 166.376 7.775 L 166.376 7.775 L 166.376 7.775 L 166.376 7.775 L 166.376 7.775 Z  M 179.322 20.808 C 179.322 32.429 185.279 35.334 190.996 35.334 C 196.706 35.334 202.788 31.703 202.788 20.808 C 202.788 9.916 195.979 6.282 190.996 6.282 C 186.011 6.282 179.322 9.185 179.322 20.808 L 179.322 20.808 L 179.322 20.808 L 179.322 20.808 L 179.322 20.808 Z  M 219.441 1.224 L 233.911 1.224 L 239.138 17.299 L 244.728 1.2 L 259.862 1.2 L 259.862 3.557 C 259.862 3.557 258.856 3.982 258.409 4.528 C 257.861 5.194 257.861 5.677 257.982 6.648 C 258.103 7.614 261.992 33.882 262.115 34.851 C 262.239 35.82 262.358 36.365 262.6 37.031 C 262.841 37.691 264 38.239 264 38.239 L 264 40.68 L 249.469 40.68 L 249.469 38.058 C 249.469 38.058 250.747 37.878 251.175 37.27 C 251.6 36.663 251.78 36.299 251.66 35.334 C 251.537 34.365 248.075 12.336 248.075 12.336 L 241.753 31.823 L 234.093 31.823 L 227.83 13.542 L 224.67 35.09 C 224.67 35.09 224.547 36.384 225.035 37.089 C 225.703 38.058 226.923 38.058 226.923 38.058 L 226.923 40.659 L 214.335 40.659 L 214.335 37.878 C 214.335 37.878 215.337 37.724 216.066 36.876 C 216.794 36.031 216.918 34.938 216.918 34.938 L 221.509 6.524 C 221.509 6.524 221.786 5.463 221.479 4.981 C 221.159 4.471 219.441 4.043 219.441 4.043 L 219.441 1.224 L 219.441 1.224 L 219.441 1.224 Z  M 58.906 1.2 L 69.299 1.2 L 81.945 34.124 C 82.306 35.029 82.914 35.881 83.522 36.605 C 84.127 37.331 85.587 37.818 85.587 37.818 L 85.587 40.659 L 70.334 40.659 L 70.334 37.754 C 70.334 37.754 71.305 37.878 71.793 37.03 C 72.278 36.181 72.278 35.516 71.915 34.671 C 71.55 33.821 68.991 27.104 68.991 27.104 L 56.533 27.104 C 56.533 27.104 53.982 33.882 53.735 34.486 C 53.491 35.092 53.491 36.062 53.735 36.665 C 54.14 37.672 55.561 37.819 55.561 37.819 L 55.561 40.66 L 43.34 40.66 L 43.34 37.819 C 43.34 37.819 44.453 37.438 45.285 36.606 C 46.197 35.698 46.5 34.728 46.5 34.728 L 58.906 1.2 L 58.906 1.2 L 58.906 1.2 L 58.906 1.2 L 58.906 1.2 L 58.906 1.2 L 58.906 1.2 L 58.906 1.2 Z  M 90.451 1.2 C 90.451 1.2 102.73 1.2 109.904 1.2 C 117.077 1.2 124.248 3.739 124.248 11.969 C 124.248 20.202 119.02 23.108 114.524 25.166 C 109.331 27.541 102.489 29.405 102.489 29.405 L 102.489 35.697 C 102.489 35.697 102.55 36.122 103.155 36.842 C 103.766 37.57 104.434 37.753 104.434 37.753 L 104.434 40.657 L 90.331 40.657 L 90.331 37.817 C 90.331 37.817 91.18 37.632 91.792 37.028 C 92.397 36.423 92.521 35.697 92.521 35.697 L 92.521 7.25 C 92.521 7.25 92.577 6.039 92.095 5.558 C 91.608 5.069 90.452 4.405 90.452 4.405 L 90.452 1.2 L 90.451 1.2 L 90.451 1.2 L 90.451 1.2 L 90.451 1.2 L 90.451 1.2 L 90.451 1.2 L 90.451 1.2 Z  M 190.996 41.795 C 177.863 41.795 168.425 32.247 168.425 20.629 C 168.425 9.004 178.107 0 190.996 0 C 203.879 0 213.562 9.004 213.562 20.629 C 213.562 32.245 204.123 41.795 190.996 41.795 L 190.996 41.795 L 190.996 41.795 L 190.996 41.795 L 190.996 41.795 Z  M 133.873 62.277 L 133.873 62.277 Q 132.573 62.277 131.514 61.659 L 131.514 61.659 L 131.514 61.659 Q 130.454 61.042 129.837 59.969 L 129.837 59.969 L 129.837 59.969 Q 129.219 58.897 129.219 57.597 L 129.219 57.597 L 129.219 57.597 Q 129.219 56.271 129.817 55.205 L 129.817 55.205 L 129.817 55.205 Q 130.415 54.139 131.455 53.534 L 131.455 53.534 L 131.455 53.534 Q 132.495 52.93 133.795 52.93 L 133.795 52.93 L 133.795 52.93 Q 134.497 52.93 135.173 53.099 L 135.173 53.099 L 135.173 53.099 Q 135.849 53.268 136.33 53.58 L 136.33 53.58 L 135.979 55.595 L 135.979 55.595 Q 135.043 55.244 134.289 55.244 L 134.289 55.244 L 134.289 55.244 Q 133.249 55.244 132.69 55.848 L 132.69 55.848 L 132.69 55.848 Q 132.131 56.453 132.131 57.584 L 132.131 57.584 L 132.131 57.584 Q 132.131 58.689 132.723 59.306 L 132.723 59.306 L 132.723 59.306 Q 133.314 59.924 134.367 59.924 L 134.367 59.924 L 134.367 59.924 Q 134.77 59.924 135.121 59.846 L 135.121 59.846 L 135.121 59.846 Q 135.472 59.768 135.979 59.56 L 135.979 59.56 L 136.343 61.614 L 136.343 61.614 Q 135.212 62.277 133.873 62.277 L 133.873 62.277 L 133.873 62.277 L 133.873 62.277 Z  M 144.513 62.069 L 144.513 53.125 L 147.321 53.125 L 147.321 60.093 L 150.428 60.093 L 150.428 62.069 L 144.513 62.069 L 144.513 62.069 L 144.513 62.069 Z  M 161.302 58.754 L 163.031 58.754 L 162.186 54.841 L 161.302 58.754 L 161.302 58.754 L 161.302 58.754 Z  M 177.363 62.277 L 177.363 62.277 Q 175.53 62.277 174.269 61.601 L 174.269 61.601 L 174.919 59.586 L 174.919 59.586 Q 176.258 60.067 177.311 60.067 L 177.311 60.067 L 177.311 60.067 Q 177.883 60.067 178.15 59.93 L 178.15 59.93 L 178.15 59.93 Q 178.416 59.794 178.416 59.521 L 178.416 59.521 L 178.416 59.521 Q 178.416 59.338 178.273 59.202 L 178.273 59.202 L 178.273 59.202 Q 178.13 59.066 177.701 58.897 L 177.701 58.897 L 177.701 58.897 Q 177.272 58.728 176.414 58.481 L 176.414 58.481 L 176.414 58.481 Q 175.361 58.169 174.776 57.46 L 174.776 57.46 L 174.776 57.46 Q 174.191 56.752 174.191 55.829 L 174.191 55.829 L 174.191 55.829 Q 174.191 54.399 175.134 53.664 L 175.134 53.664 L 175.134 53.664 Q 176.076 52.93 177.675 52.93 L 177.675 52.93 L 177.675 52.93 Q 178.507 52.93 179.313 53.105 L 179.313 53.105 L 179.313 53.105 Q 180.119 53.281 180.743 53.619 L 180.743 53.619 L 180.041 55.582 L 180.041 55.582 Q 179.313 55.335 178.774 55.224 L 178.774 55.224 L 178.774 55.224 Q 178.234 55.114 177.727 55.114 L 177.727 55.114 L 177.727 55.114 Q 176.869 55.114 176.869 55.582 L 176.869 55.582 L 176.869 55.582 Q 176.869 55.816 177.149 55.978 L 177.149 55.978 L 177.149 55.978 Q 177.428 56.141 178.299 56.388 L 178.299 56.388 L 178.299 56.388 Q 179.664 56.752 180.366 57.499 L 180.366 57.499 L 180.366 57.499 Q 181.068 58.247 181.068 59.287 L 181.068 59.287 L 181.068 59.287 Q 181.068 60.73 180.132 61.503 L 180.132 61.503 L 180.132 61.503 Q 179.196 62.277 177.363 62.277 L 177.363 62.277 L 177.363 62.277 L 177.363 62.277 Z  M 191.994 62.277 L 191.994 62.277 Q 190.161 62.277 188.9 61.601 L 188.9 61.601 L 189.55 59.586 L 189.55 59.586 Q 190.889 60.067 191.942 60.067 L 191.942 60.067 L 191.942 60.067 Q 192.514 60.067 192.781 59.93 L 192.781 59.93 L 192.781 59.93 Q 193.047 59.794 193.047 59.521 L 193.047 59.521 L 193.047 59.521 Q 193.047 59.338 192.904 59.202 L 192.904 59.202 L 192.904 59.202 Q 192.761 59.066 192.332 58.897 L 192.332 58.897 L 192.332 58.897 Q 191.903 58.728 191.045 58.481 L 191.045 58.481 L 191.045 58.481 Q 189.992 58.169 189.407 57.46 L 189.407 57.46 L 189.407 57.46 Q 188.822 56.752 188.822 55.829 L 188.822 55.829 L 188.822 55.829 Q 188.822 54.399 189.765 53.664 L 189.765 53.664 L 189.765 53.664 Q 190.707 52.93 192.306 52.93 L 192.306 52.93 L 192.306 52.93 Q 193.138 52.93 193.944 53.105 L 193.944 53.105 L 193.944 53.105 Q 194.75 53.281 195.374 53.619 L 195.374 53.619 L 194.672 55.582 L 194.672 55.582 Q 193.944 55.335 193.405 55.224 L 193.405 55.224 L 193.405 55.224 Q 192.865 55.114 192.358 55.114 L 192.358 55.114 L 192.358 55.114 Q 191.5 55.114 191.5 55.582 L 191.5 55.582 L 191.5 55.582 Q 191.5 55.816 191.78 55.978 L 191.78 55.978 L 191.78 55.978 Q 192.059 56.141 192.93 56.388 L 192.93 56.388 L 192.93 56.388 Q 194.295 56.752 194.997 57.499 L 194.997 57.499 L 194.997 57.499 Q 195.699 58.247 195.699 59.287 L 195.699 59.287 L 195.699 59.287 Q 195.699 60.73 194.763 61.503 L 194.763 61.503 L 194.763 61.503 Q 193.827 62.277 191.994 62.277 L 191.994 62.277 L 191.994 62.277 L 191.994 62.277 Z  M 203.921 62.069 L 203.921 53.125 L 206.924 53.125 L 206.924 62.069 L 203.921 62.069 L 203.921 62.069 L 203.921 62.069 Z  M 219.826 62.277 L 219.826 62.277 Q 218.526 62.277 217.467 61.659 L 217.467 61.659 L 217.467 61.659 Q 216.407 61.042 215.79 59.969 L 215.79 59.969 L 215.79 59.969 Q 215.172 58.897 215.172 57.597 L 215.172 57.597 L 215.172 57.597 Q 215.172 56.271 215.77 55.205 L 215.77 55.205 L 215.77 55.205 Q 216.368 54.139 217.408 53.534 L 217.408 53.534 L 217.408 53.534 Q 218.448 52.93 219.748 52.93 L 219.748 52.93 L 219.748 52.93 Q 220.45 52.93 221.126 53.099 L 221.126 53.099 L 221.126 53.099 Q 221.802 53.268 222.283 53.58 L 222.283 53.58 L 221.932 55.595 L 221.932 55.595 Q 220.996 55.244 220.242 55.244 L 220.242 55.244 L 220.242 55.244 Q 219.202 55.244 218.643 55.848 L 218.643 55.848 L 218.643 55.848 Q 218.084 56.453 218.084 57.584 L 218.084 57.584 L 218.084 57.584 Q 218.084 58.689 218.676 59.306 L 218.676 59.306 L 218.676 59.306 Q 219.267 59.924 220.32 59.924 L 220.32 59.924 L 220.32 59.924 Q 220.723 59.924 221.074 59.846 L 221.074 59.846 L 221.074 59.846 Q 221.425 59.768 221.932 59.56 L 221.932 59.56 L 222.296 61.614 L 222.296 61.614 Q 221.165 62.277 219.826 62.277 L 219.826 62.277 L 219.826 62.277 L 219.826 62.277 Z  M 233.235 62.277 L 233.235 62.277 Q 231.402 62.277 230.141 61.601 L 230.141 61.601 L 230.791 59.586 L 230.791 59.586 Q 232.13 60.067 233.183 60.067 L 233.183 60.067 L 233.183 60.067 Q 233.755 60.067 234.022 59.93 L 234.022 59.93 L 234.022 59.93 Q 234.288 59.794 234.288 59.521 L 234.288 59.521 L 234.288 59.521 Q 234.288 59.338 234.145 59.202 L 234.145 59.202 L 234.145 59.202 Q 234.002 59.066 233.573 58.897 L 233.573 58.897 L 233.573 58.897 Q 233.144 58.728 232.286 58.481 L 232.286 58.481 L 232.286 58.481 Q 231.233 58.169 230.648 57.46 L 230.648 57.46 L 230.648 57.46 Q 230.063 56.752 230.063 55.829 L 230.063 55.829 L 230.063 55.829 Q 230.063 54.399 231.006 53.664 L 231.006 53.664 L 231.006 53.664 Q 231.948 52.93 233.547 52.93 L 233.547 52.93 L 233.547 52.93 Q 234.379 52.93 235.185 53.105 L 235.185 53.105 L 235.185 53.105 Q 235.991 53.281 236.615 53.619 L 236.615 53.619 L 235.913 55.582 L 235.913 55.582 Q 235.185 55.335 234.646 55.224 L 234.646 55.224 L 234.646 55.224 Q 234.106 55.114 233.599 55.114 L 233.599 55.114 L 233.599 55.114 Q 232.741 55.114 232.741 55.582 L 232.741 55.582 L 232.741 55.582 Q 232.741 55.816 233.021 55.978 L 233.021 55.978 L 233.021 55.978 Q 233.3 56.141 234.171 56.388 L 234.171 56.388 L 234.171 56.388 Q 235.536 56.752 236.238 57.499 L 236.238 57.499 L 236.238 57.499 Q 236.94 58.247 236.94 59.287 L 236.94 59.287 L 236.94 59.287 Q 236.94 60.73 236.004 61.503 L 236.004 61.503 L 236.004 61.503 Q 235.068 62.277 233.235 62.277 L 233.235 62.277 L 233.235 62.277 L 233.235 62.277 Z  M 28.323 58.754 L 30.052 58.754 L 29.207 54.841 L 28.323 58.754 L 28.323 58.754 L 28.323 58.754 Z  M 44.462 56.856 L 44.956 56.856 L 44.956 56.856 Q 45.918 56.856 46.315 56.641 L 46.315 56.641 L 46.315 56.641 Q 46.711 56.427 46.711 55.907 L 46.711 55.907 L 46.711 55.907 Q 46.711 55.465 46.386 55.263 L 46.386 55.263 L 46.386 55.263 Q 46.061 55.062 45.359 55.062 L 45.359 55.062 L 44.462 55.062 L 44.462 56.856 L 44.462 56.856 L 44.462 56.856 Z  M 61.836 62.277 L 61.836 62.277 Q 60.536 62.277 59.477 61.659 L 59.477 61.659 L 59.477 61.659 Q 58.417 61.042 57.8 59.969 L 57.8 59.969 L 57.8 59.969 Q 57.182 58.897 57.182 57.597 L 57.182 57.597 L 57.182 57.597 Q 57.182 56.271 57.78 55.205 L 57.78 55.205 L 57.78 55.205 Q 58.378 54.139 59.418 53.534 L 59.418 53.534 L 59.418 53.534 Q 60.458 52.93 61.758 52.93 L 61.758 52.93 L 61.758 52.93 Q 62.46 52.93 63.136 53.099 L 63.136 53.099 L 63.136 53.099 Q 63.812 53.268 64.293 53.58 L 64.293 53.58 L 63.942 55.595 L 63.942 55.595 Q 63.006 55.244 62.252 55.244 L 62.252 55.244 L 62.252 55.244 Q 61.212 55.244 60.653 55.848 L 60.653 55.848 L 60.653 55.848 Q 60.094 56.453 60.094 57.584 L 60.094 57.584 L 60.094 57.584 Q 60.094 58.689 60.686 59.306 L 60.686 59.306 L 60.686 59.306 Q 61.277 59.924 62.33 59.924 L 62.33 59.924 L 62.33 59.924 Q 62.733 59.924 63.084 59.846 L 63.084 59.846 L 63.084 59.846 Q 63.435 59.768 63.942 59.56 L 63.942 59.56 L 64.306 61.614 L 64.306 61.614 Q 63.175 62.277 61.836 62.277 L 61.836 62.277 L 61.836 62.277 L 61.836 62.277 Z  M 75.271 58.754 L 77 58.754 L 76.155 54.841 L 75.271 58.754 L 75.271 58.754 L 75.271 58.754 Z  M 91.436 59.729 L 92.32 59.729 L 92.32 59.729 Q 93.295 59.729 93.809 59.111 L 93.809 59.111 L 93.809 59.111 Q 94.322 58.494 94.322 57.506 L 94.322 57.506 L 94.322 57.506 Q 94.322 56.57 93.822 56.017 L 93.822 56.017 L 93.822 56.017 Q 93.321 55.465 92.32 55.465 L 92.32 55.465 L 91.436 55.465 L 91.436 59.729 L 91.436 59.729 L 91.436 59.729 Z  M 105.495 62.069 L 105.495 53.125 L 111.774 53.125 L 111.774 55.101 L 108.654 55.101 L 108.654 56.726 L 111.501 56.726 L 111.501 58.364 L 108.654 58.364 L 108.654 60.093 L 111.774 60.093 L 111.774 62.069 L 105.495 62.069 L 105.495 62.069 L 105.495 62.069 Z  M 157.727 62.069 L 160.197 53.125 L 164.149 53.125 L 166.736 62.069 L 163.681 62.069 L 163.343 60.353 L 161.029 60.353 L 160.652 62.069 L 157.727 62.069 L 157.727 62.069 L 157.727 62.069 Z  M 24.748 62.069 L 27.218 53.125 L 31.17 53.125 L 33.757 62.069 L 30.702 62.069 L 30.364 60.353 L 28.05 60.353 L 27.673 62.069 L 24.748 62.069 L 24.748 62.069 L 24.748 62.069 Z  M 48.388 62.277 L 48.388 62.277 Q 45.944 62.277 45.398 60.015 L 45.398 60.015 L 45.073 58.676 L 44.462 58.676 L 44.462 62.069 L 41.615 62.069 L 41.615 53.125 L 45.554 53.125 L 45.554 53.125 Q 46.672 53.125 47.524 53.456 L 47.524 53.456 L 47.524 53.456 Q 48.375 53.788 48.843 54.386 L 48.843 54.386 L 48.843 54.386 Q 49.311 54.984 49.311 55.764 L 49.311 55.764 L 49.311 55.764 Q 49.311 56.635 48.889 57.226 L 48.889 57.226 L 48.889 57.226 Q 48.466 57.817 47.582 58.195 L 47.582 58.195 L 47.582 58.195 Q 47.673 58.689 47.79 59.092 L 47.79 59.092 L 47.79 59.092 Q 47.946 59.585 48.219 59.781 L 48.219 59.781 L 48.219 59.781 Q 48.492 59.976 49.012 59.976 L 49.012 59.976 L 49.012 59.976 Q 49.194 59.976 49.584 59.924 L 49.584 59.924 L 49.584 62.043 L 49.584 62.043 Q 48.973 62.277 48.388 62.277 L 48.388 62.277 L 48.388 62.277 L 48.388 62.277 Z  M 71.696 62.069 L 74.166 53.125 L 78.118 53.125 L 80.705 62.069 L 77.65 62.069 L 77.312 60.353 L 74.998 60.353 L 74.621 62.069 L 71.696 62.069 L 71.696 62.069 L 71.696 62.069 Z  M 88.563 62.069 L 88.563 53.125 L 92.45 53.125 L 92.45 53.125 Q 93.854 53.125 94.94 53.684 L 94.94 53.684 L 94.94 53.684 Q 96.025 54.243 96.63 55.244 L 96.63 55.244 L 96.63 55.244 Q 97.234 56.245 97.234 57.532 L 97.234 57.532 L 97.234 57.532 Q 97.234 58.884 96.643 59.911 L 96.643 59.911 L 96.643 59.911 Q 96.051 60.938 94.966 61.503 L 94.966 61.503 L 94.966 61.503 Q 93.88 62.069 92.45 62.069 L 92.45 62.069 L 88.563 62.069 L 88.563 62.069 L 88.563 62.069 Z " fill-rule="evenodd" fill="rgb(255,255,255)"/></g></svg>