<?xml version="1.0" encoding="utf-8"?>
<svg version="1.1" viewBox="0 0 3840 519.3" xmlns="http://www.w3.org/2000/svg">
  <rect x="1677.1" y="6.8" class="st1" width="162.3" height="484.1" style="fill: rgb(255, 255, 255);"/>
  <rect x="3677.7" y="174.2" class="st1" width="162.3" height="316.7" style="fill: rgb(255, 255, 255);"/>
  <rect x="3677.7" y="6.8" class="st1" width="162.3" height="96.8" style="fill: rgb(255, 255, 255);"/>
  <path class="st1" d="M 810.6 196.3 C 701.4 196.3 612.9 224.7 612.9 259.6 C 612.9 294.5 701.4 323 810.6 323 C 919.8 323 1008.3 294.6 1008.3 259.7 C 1008.3 224.7 919.8 196.3 810.6 196.3 Z M 810.6 308.6 C 724.9 308.6 655.4 286.7 655.4 259.6 C 655.4 232.5 724.9 210.6 810.6 210.6 C 896.3 210.6 965.8 232.5 965.8 259.6 C 965.8 286.7 896.3 308.6 810.6 308.6 Z" style="fill: rgb(255, 255, 255);"/>
  <path class="st1" d="M 1415.8 321.8 C 1332.9 402.3 1093.3 460.5 810.6 460.5 C 459.1 460.5 174.2 370.6 174.2 259.7 C 174.2 148.8 459.1 58.8 810.6 58.8 C 1093.4 58.8 1332.9 117 1415.8 197.5 L 1597.8 197.5 C 1510.9 84.1 1191.4 0 810.6 0 C 362.9 0 0 116.2 0 259.6 C 0 403 362.9 519.3 810.6 519.3 C 1191.4 519.3 1510.9 435.2 1597.8 321.8 L 1415.8 321.8 L 1415.8 321.8 Z" style="fill: rgb(255, 255, 255);"/>
  <path class="st1" d="M 2231.5 6.8 L 2231.5 6.8 L 1818.8 6.8 L 1818.8 61.6 L 2231.5 61.6 C 2583 61.6 2867.9 145.4 2867.9 248.8 C 2867.9 352.2 2583 436.1 2231.5 436.1 L 1818.8 436.1 L 1818.8 490.9 L 2231.5 490.9 L 2231.5 490.9 C 2679.2 490.9 3042.1 382.5 3042.1 248.8 C 3042.1 115.1 2679.2 6.8 2231.5 6.8 Z" style="fill: rgb(255, 255, 255);"/>
  <polygon class="st1" points="3131.9 180.2 3131.9 317.5 3539.6 248.8" style="fill: rgb(255, 255, 255);"/>
</svg>