<?xml version="1.0" encoding="utf-8"?>
<svg version="1.1" xmlns="http://www.w3.org/2000/svg">
  <g transform="matrix(0.454372, 0, 0, 0.452397, -4.428763, -4.672811)">
    <path d="M 162.021 139.149 C 162.021 140.118 161.85 141.069 161.511 141.999 C 161.172 142.92 160.689 143.694 160.059 144.324 C 159.195 145.176 158.232 145.821 157.167 146.259 C 156.111 146.694 154.791 146.913 153.213 146.913 L 149.739 146.913 L 149.739 153.96 L 144.159 153.96 L 144.159 132.318 L 153.345 132.318 C 154.719 132.318 155.877 132.441 156.816 132.681 C 157.767 132.915 158.607 133.266 159.33 133.743 C 160.203 134.313 160.866 135.048 161.322 135.939 C 161.79 136.83 162.021 137.901 162.021 139.149 Z M 156.249 139.281 C 156.249 138.672 156.084 138.147 155.757 137.712 C 155.427 137.265 155.043 136.956 154.608 136.779 C 154.026 136.548 153.459 136.422 152.907 136.401 C 152.355 136.374 151.62 136.359 150.699 136.359 L 149.739 136.359 L 149.739 142.842 L 151.338 142.842 C 152.286 142.842 153.066 142.782 153.678 142.668 C 154.296 142.551 154.815 142.317 155.232 141.969 C 155.592 141.66 155.847 141.291 156.003 140.865 C 156.168 140.43 156.249 139.902 156.249 139.281 Z" style="font-style:normal;font-variant:normal;font-weight:bold;font-stretch:normal;font-size:medium;line-height:125%;font-family:sans-serif;-inkscape-font-specification:'sans-serif Bold';letter-spacing:7.03102636px;word-spacing:0px;fill:#ffffff;fill-opacity:1;stroke:none;stroke-width:1px;stroke-linecap:butt;stroke-linejoin:miter;stroke-opacity:1" id="path4793"/>
    <path d="M 187.125 153.96 L 171.513 153.96 L 171.513 132.318 L 177.093 132.318 L 177.093 149.775 L 187.125 149.775 L 187.125 153.96 Z" style="font-style:normal;font-variant:normal;font-weight:bold;font-stretch:normal;font-size:medium;line-height:125%;font-family:sans-serif;-inkscape-font-specification:'sans-serif Bold';letter-spacing:7.03102636px;word-spacing:0px;fill:#ffffff;fill-opacity:1;stroke:none;stroke-width:1px;stroke-linecap:butt;stroke-linejoin:miter;stroke-opacity:1" id="path4795"/>
    <path d="M 216.777 153.96 L 211.005 153.96 L 209.16 149.589 L 198.18 149.589 L 196.227 153.96 L 190.602 153.96 L 200.478 132.318 L 206.904 132.318 Z M 207.489 145.617 L 203.619 137.859 L 199.779 145.617 Z" style="font-style:normal;font-variant:normal;font-weight:bold;font-stretch:normal;font-size:medium;line-height:125%;font-family:sans-serif;-inkscape-font-specification:'sans-serif Bold';letter-spacing:7.03102636px;word-spacing:0px;fill:#ffffff;fill-opacity:1;stroke:none;stroke-width:1px;stroke-linecap:butt;stroke-linejoin:miter;stroke-opacity:1" id="path4797"/>
    <path d="M 244.104 132.318 L 235.773 145.59 L 235.773 153.96 L 230.193 153.96 L 230.193 145.851 L 221.658 132.318 L 227.997 132.318 L 233.097 140.691 L 237.969 132.318 Z" style="font-style:normal;font-variant:normal;font-weight:bold;font-stretch:normal;font-size:medium;line-height:125%;font-family:sans-serif;-inkscape-font-specification:'sans-serif Bold';letter-spacing:7.03102636px;word-spacing:0px;fill:#ffffff;fill-opacity:1;stroke:none;stroke-width:1px;stroke-linecap:butt;stroke-linejoin:miter;stroke-opacity:1" id="path4799"/>
    <path d="M 283.764 146.766 C 283.764 148.899 282.858 150.633 281.046 151.971 C 279.246 153.297 276.792 153.96 273.69 153.96 C 271.896 153.96 270.333 153.807 268.995 153.495 C 267.669 153.177 266.421 152.775 265.26 152.289 L 267.051 148.11 C 267.753 148.509 268.953 148.95 269.739 149.223 C 271.173 149.718 272.547 149.964 273.864 149.964 C 274.206 149.964 274.65 149.934 275.202 149.877 C 275.757 149.817 276.207 149.724 276.555 149.589 C 276.981 149.412 277.329 149.193 277.602 148.932 C 277.881 148.671 278.022 148.281 278.022 147.771 C 278.022 147.297 277.818 146.889 277.413 146.55 C 277.014 146.202 276.429 145.932 275.655 145.749 C 274.839 145.557 273.975 145.377 273.066 145.209 C 272.166 145.038 271.317 144.819 270.522 144.558 C 268.701 143.967 267.387 143.166 266.583 142.161 C 265.788 141.141 265.392 139.881 265.392 138.378 C 265.392 136.365 266.292 134.721 268.095 133.452 C 269.907 132.171 272.235 131.535 275.07 131.535 C 276.495 131.535 277.902 131.673 279.288 131.955 C 280.683 132.225 281.889 132.57 282.906 132.987 L 280.554 136.854 C 280.101 136.629 279.618 136.416 279.099 136.23 C 277.836 135.753 276.549 135.516 275.232 135.516 C 274.764 135.516 274.299 135.549 273.837 135.618 C 273.381 135.675 272.94 135.792 272.514 135.966 C 272.136 136.113 271.812 136.335 271.539 136.635 C 271.269 136.926 271.131 137.259 271.131 137.637 C 271.131 138.207 271.35 138.651 271.785 138.96 C 272.223 139.26 273.048 139.539 274.257 139.788 C 275.052 139.953 275.814 140.115 276.54 140.268 C 277.278 140.424 278.067 140.637 278.907 140.907 C 280.566 141.45 281.787 142.194 282.573 143.13 C 283.365 144.063 283.764 145.275 283.764 146.766 Z" style="font-style:normal;font-variant:normal;font-weight:bold;font-stretch:normal;font-size:medium;line-height:125%;font-family:sans-serif;-inkscape-font-specification:'sans-serif Bold';letter-spacing:7.03102636px;word-spacing:0px;fill:#ffffff;fill-opacity:1;stroke:none;stroke-width:1px;stroke-linecap:butt;stroke-linejoin:miter;stroke-opacity:1" id="path4801"/>
    <path d="M 362.685 136.503 L 355.929 136.503 L 355.929 153.96 L 350.346 153.96 L 350.346 136.503 L 343.587 136.503 L 343.587 132.318 L 362.685 132.318 L 362.685 136.503 Z" style="font-style:normal;font-variant:normal;font-weight:bold;font-stretch:normal;font-size:medium;line-height:125%;font-family:sans-serif;-inkscape-font-specification:'sans-serif Bold';letter-spacing:7.03102636px;word-spacing:0px;fill:#ffffff;fill-opacity:1;stroke:none;stroke-width:1px;stroke-linecap:butt;stroke-linejoin:miter;stroke-opacity:1" id="path4803"/>
    <path d="M 386.415 153.96 L 369.768 153.96 L 369.768 132.318 L 386.415 132.318 L 386.415 136.503 L 375.321 136.503 L 375.321 140.241 L 385.689 140.241 L 385.689 144.426 L 375.321 144.426 L 375.321 149.775 L 386.415 149.775 Z" style="font-style:normal;font-variant:normal;font-weight:bold;font-stretch:normal;font-size:medium;line-height:125%;font-family:sans-serif;-inkscape-font-specification:'sans-serif Bold';letter-spacing:7.03102636px;word-spacing:0px;fill:#ffffff;fill-opacity:1;stroke:none;stroke-width:1px;stroke-linecap:butt;stroke-linejoin:miter;stroke-opacity:1" id="path4805"/>
    <path d="M 423.642 153.96 L 417.792 153.96 L 417.294 143.529 L 411.252 153.957 L 407.4 153.957 L 401.361 143.529 L 400.863 153.96 L 395.304 153.96 L 396.099 132.318 L 401.538 132.318 L 409.479 147.273 L 417.408 132.318 L 422.847 132.318 Z" style="font-style:normal;font-variant:normal;font-weight:bold;font-stretch:normal;font-size:medium;line-height:125%;font-family:sans-serif;-inkscape-font-specification:'sans-serif Bold';letter-spacing:7.03102636px;word-spacing:0px;fill:#ffffff;fill-opacity:1;stroke:none;stroke-width:1px;stroke-linecap:butt;stroke-linejoin:miter;stroke-opacity:1" id="path4807"/>
    <path id="path4809" style="font-style:normal;font-variant:normal;font-weight:bold;font-stretch:normal;font-size:medium;line-height:125%;font-family:sans-serif;-inkscape-font-specification:'sans-serif Bold';letter-spacing:7.03102636px;word-spacing:0px;fill:#ffffff;fill-opacity:1;stroke:none;stroke-width:1px;stroke-linecap:butt;stroke-linejoin:miter;stroke-opacity:1" d="M 312.588 132.318 L 304.26 145.59 L 304.26 153.96 L 298.674 153.96 L 298.674 145.851 L 290.145 132.318 L 296.484 132.318 L 301.584 140.691 L 306.453 132.318 Z"/>
    <path id="path4811" style="font-style:normal;font-variant:normal;font-weight:bold;font-stretch:normal;font-size:medium;line-height:125%;font-family:sans-serif;-inkscape-font-specification:'sans-serif Bold';letter-spacing:7.03102636px;word-spacing:0px;fill:#ffffff;fill-opacity:1;stroke:none;stroke-width:1px;stroke-linecap:butt;stroke-linejoin:miter;stroke-opacity:1" d="M 336.369 146.766 C 336.369 148.899 335.463 150.633 333.648 151.971 C 331.848 153.297 329.394 153.96 326.295 153.96 C 324.504 153.96 322.938 153.807 321.6 153.495 C 320.271 153.177 319.029 152.775 317.865 152.289 L 319.659 148.11 C 320.361 148.509 321.558 148.95 322.341 149.223 C 323.775 149.718 325.152 149.964 326.469 149.964 C 326.808 149.964 327.255 149.934 327.807 149.877 C 328.359 149.817 328.809 149.724 329.16 149.589 C 329.583 149.412 329.934 149.193 330.204 148.932 C 330.486 148.671 330.627 148.281 330.627 147.771 C 330.627 147.297 330.423 146.889 330.015 146.55 C 329.619 146.202 329.031 145.932 328.257 145.749 C 327.444 145.557 326.58 145.377 325.671 145.209 C 324.768 145.038 323.922 144.819 323.127 144.558 C 321.306 143.967 319.992 143.166 319.188 142.161 C 318.393 141.141 317.994 139.881 317.994 138.378 C 317.994 136.365 318.897 134.721 320.7 133.452 C 322.512 132.171 324.837 131.535 327.675 131.535 C 329.1 131.535 330.507 131.673 331.89 131.955 C 333.285 132.225 334.494 132.57 335.511 132.987 L 333.159 136.854 C 332.706 136.629 332.22 136.416 331.704 136.23 C 330.441 135.753 329.154 135.516 327.834 135.516 C 327.372 135.516 326.907 135.549 326.442 135.618 C 325.986 135.675 325.542 135.792 325.119 135.966 C 324.741 136.113 324.414 136.335 324.144 136.635 C 323.871 136.926 323.736 137.259 323.736 137.637 C 323.736 138.207 323.955 138.651 324.39 138.96 C 324.828 139.26 325.65 139.539 326.862 139.788 C 327.657 139.953 328.419 140.115 329.142 140.268 C 329.88 140.424 330.669 140.637 331.515 140.907 C 333.171 141.45 334.392 142.194 335.175 143.13 C 335.973 144.063 336.369 145.275 336.369 146.766 Z"/>
    <path style="color: rgb(0, 0, 0); clip-rule: nonzero; display: inline; overflow: visible; visibility: visible; opacity: 1; isolation: auto; mix-blend-mode: normal; color-interpolation: sRGB; color-interpolation-filters: linearRGB; fill-opacity: 1; fill-rule: evenodd; stroke: none; stroke-width: 1px; stroke-linecap: butt; stroke-linejoin: miter; stroke-miterlimit: 4; stroke-dasharray: none; stroke-dashoffset: 0; stroke-opacity: 1; color-rendering: auto; image-rendering: auto; shape-rendering: auto; text-rendering: auto; fill: rgb(255, 255, 255);" d="M 442.626 132.372 L 442.626 133.524 L 442.656 133.524 C 442.752 133.524 447.06 133.602 447.06 135.411 L 447.06 150.972 C 447.06 152.016 445.095 152.856 442.656 152.856 L 442.626 152.856 L 442.626 154.008 L 448.455 154.008 L 450.015 154.008 L 455.841 154.008 L 455.841 152.856 L 455.814 152.856 C 453.372 152.856 451.407 152.016 451.407 150.972 L 451.407 135.411 C 451.407 133.602 455.718 133.524 455.814 133.524 L 455.841 133.524 L 455.841 132.372 L 450.015 132.372 L 448.455 132.372 L 442.626 132.372 Z" id="path4783"/>
    <path style="clip-rule: evenodd; fill-opacity: 1; fill-rule: evenodd; fill: rgb(255, 255, 255);" d="M 92.556 27.363 L 77.445 43.209 C 77.445 43.209 76.644 43.614 75.975 43.614 C 75.306 43.614 74.364 42.939 74.364 42.939 L 72.495 41.343 C 72.495 41.343 71.955 41.211 71.955 40.671 C 71.955 40.143 73.431 38.796 73.431 36.255 C 73.431 33.711 72.897 23.142 56.577 23.142 C 40.257 23.142 33.03 38.394 33.03 50.973 C 33.03 63.549 40.785 86.559 66.213 86.559 C 81 86.559 84.132 78.255 84.132 78.255 L 89.214 78.255 L 89.214 99.936 L 61.389 99.936 C 28.215 99.936 9.747 73.974 9.747 55.248 C 9.747 26.532 34.719 10.596 57.378 10.596 C 79.317 10.599 92.556 27.363 92.556 27.363 L 92.556 27.363 Z" id="path4817"/>
    <path style="clip-rule: evenodd; fill-opacity: 1; fill-rule: evenodd; fill: rgb(255, 255, 255);" d="M 139.389 12.981 L 162.264 12.981 L 190.095 85.758 C 190.89 87.759 192.228 89.643 193.566 91.242 C 194.898 92.847 198.111 93.924 198.111 93.924 L 198.111 100.203 L 164.541 100.203 L 164.541 93.783 C 164.541 93.783 166.677 94.056 167.751 92.181 C 168.819 90.306 168.819 88.836 168.021 86.967 C 167.217 85.089 161.586 70.242 161.586 70.242 L 134.166 70.242 C 134.166 70.242 128.553 85.224 128.01 86.559 C 127.473 87.897 127.473 90.042 128.01 91.374 C 128.901 93.6 132.027 93.927 132.027 93.927 L 132.027 100.206 L 105.132 100.206 L 105.132 93.927 C 105.132 93.927 107.58 93.084 109.413 91.245 C 111.42 89.238 112.086 87.093 112.086 87.093 L 139.389 12.981 L 139.389 12.981 Z M 138.714 56.592 L 156.378 56.592 L 147.282 31.176 L 138.714 56.592 L 138.714 56.592 Z" id="path4819"/>
    <path style="clip-rule: evenodd; fill-opacity: 1; fill-rule: evenodd; fill: rgb(255, 255, 255);" d="M 208.815 12.981 C 208.815 12.981 235.839 12.981 251.628 12.981 C 267.414 12.981 283.197 18.594 283.197 36.786 C 283.197 54.984 271.692 61.407 261.795 65.958 C 250.368 71.208 235.308 75.327 235.308 75.327 L 235.308 89.235 C 235.308 89.235 235.443 90.174 236.775 91.767 C 238.119 93.375 239.589 93.78 239.589 93.78 L 239.589 100.2 L 208.551 100.2 L 208.551 93.921 C 208.551 93.921 210.42 93.513 211.767 92.178 C 213.099 90.84 213.372 89.235 213.372 89.235 L 213.372 26.355 C 213.372 26.355 213.495 23.679 212.433 22.614 C 211.362 21.534 208.818 20.067 208.818 20.067 L 208.818 12.981 L 208.815 12.981 L 208.815 12.981 Z M 235.572 26.088 L 235.572 63.279 C 235.572 63.279 260.721 52.848 260.721 38.13 C 260.721 19.935 235.572 26.088 235.572 26.088 L 235.572 26.088 Z" id="path4821"/>
    <path style="clip-rule: evenodd; fill-opacity: 1; fill-rule: evenodd; fill: rgb(255, 255, 255);" d="M 375.915 27.516 L 360.798 43.362 C 360.798 43.362 359.994 43.764 359.322 43.764 C 358.659 43.764 357.723 43.095 357.723 43.095 L 355.845 41.484 C 355.845 41.484 355.311 41.358 355.311 40.827 C 355.311 40.287 356.778 38.943 356.778 36.411 C 356.778 33.864 356.25 23.295 339.924 23.295 C 323.601 23.295 316.377 38.544 316.377 51.123 C 316.377 63.69 324.138 86.706 349.563 86.706 C 364.35 86.706 367.485 78.408 367.485 78.408 L 372.573 78.408 L 372.573 100.083 L 344.736 100.083 C 311.565 100.083 293.097 74.13 293.097 55.401 C 293.097 26.688 318.063 10.746 340.725 10.746 C 362.667 10.746 375.915 27.516 375.915 27.516 L 375.915 27.516 Z" id="path4823"/>
    <path style="clip-rule: evenodd; fill-opacity: 1; fill-rule: evenodd; fill: rgb(255, 255, 255);" d="M 430.098 102.714 C 401.196 102.714 380.424 81.609 380.424 55.929 C 380.424 30.231 401.733 10.329 430.098 10.329 C 458.451 10.329 479.763 30.231 479.763 55.929 C 479.763 81.606 458.988 102.714 430.098 102.714 L 430.098 102.714 Z M 404.406 56.325 C 404.406 82.011 417.516 88.434 430.098 88.434 C 442.665 88.434 456.051 80.406 456.051 56.325 C 456.051 32.247 441.066 24.216 430.098 24.216 C 419.127 24.216 404.406 30.633 404.406 56.325 L 404.406 56.325 Z" id="path4825"/>
    <path style="clip-rule: evenodd; fill-opacity: 1; fill-rule: evenodd; fill: rgb(255, 255, 255);" d="M 492.702 13.035 L 524.547 13.035 L 536.052 48.567 L 548.355 12.981 L 581.661 12.981 L 581.661 18.192 C 581.661 18.192 579.447 19.131 578.463 20.337 C 577.257 21.81 577.257 22.878 577.524 25.023 C 577.791 27.159 586.35 85.224 586.62 87.366 C 586.893 89.508 587.154 90.711 587.688 92.184 C 588.219 93.642 590.769 94.854 590.769 94.854 L 590.769 100.251 L 558.789 100.251 L 558.789 94.455 C 558.789 94.455 561.6 94.056 562.542 92.712 C 563.478 91.371 563.874 90.567 563.61 88.434 C 563.34 86.292 555.72 37.596 555.72 37.596 L 541.806 80.673 L 524.949 80.673 L 511.164 40.263 L 504.21 87.894 C 504.21 87.894 503.94 90.753 505.014 92.313 C 506.484 94.455 509.169 94.455 509.169 94.455 L 509.169 100.203 L 481.464 100.203 L 481.464 94.056 C 481.464 94.056 483.669 93.717 485.274 91.842 C 486.876 89.973 487.149 87.558 487.149 87.558 L 497.253 24.75 C 497.253 24.75 497.862 22.404 497.187 21.339 C 496.482 20.211 492.702 19.266 492.702 19.266 L 492.702 13.035 L 492.702 13.035 Z" id="path4827"/>
  </g>
</svg>