<?xml version="1.0" encoding="utf-8"?>
<svg version="1.1" xmlns="http://www.w3.org/2000/svg">
  <g transform="matrix(0.44, 0, 0, 0.438085, 0, 0)">
    <path d="M 144.2 133.028 C 144.2 134.029 144.023 135.011 143.673 135.971 C 143.323 136.923 142.824 137.725 142.174 138.372 C 141.285 139.252 140.287 139.918 139.187 140.371 C 138.097 140.82 136.737 141.046 135.101 141.046 L 131.517 141.046 L 131.517 148.323 L 125.754 148.323 L 125.754 125.974 L 135.24 125.974 C 136.659 125.974 137.858 126.098 138.825 126.349 C 139.807 126.588 140.674 126.953 141.424 127.446 C 142.325 128.037 143.007 128.793 143.478 129.71 C 143.961 130.63 144.2 131.74 144.2 133.028 Z M 138.242 133.165 C 138.242 132.536 138.069 131.994 137.731 131.544 C 137.39 131.083 136.994 130.761 136.545 130.581 C 135.944 130.339 135.358 130.212 134.785 130.191 C 134.221 130.163 133.459 130.147 132.508 130.147 L 131.517 130.147 L 131.517 136.842 L 133.168 136.842 C 134.15 136.842 134.952 136.78 135.584 136.662 C 136.222 136.541 136.758 136.303 137.192 135.94 C 137.561 135.621 137.824 135.24 137.988 134.8 C 138.156 134.348 138.242 133.803 138.242 133.165 Z" style="font-style:normal;font-variant:normal;font-weight:bold;font-stretch:normal;font-size:medium;line-height:125%;font-family:sans-serif;-inkscape-font-specification:'sans-serif Bold';letter-spacing:7.03102636px;word-spacing:0px;fill:#ffffff;fill-opacity:1;stroke:none;stroke-width:1px;stroke-linecap:butt;stroke-linejoin:miter;stroke-opacity:1" id="path4793"/>
    <path d="M 170.124 148.323 L 154.002 148.323 L 154.002 125.974 L 159.764 125.974 L 159.764 144.001 L 170.124 144.001 L 170.124 148.323 Z" style="font-style:normal;font-variant:normal;font-weight:bold;font-stretch:normal;font-size:medium;line-height:125%;font-family:sans-serif;-inkscape-font-specification:'sans-serif Bold';letter-spacing:7.03102636px;word-spacing:0px;fill:#ffffff;fill-opacity:1;stroke:none;stroke-width:1px;stroke-linecap:butt;stroke-linejoin:miter;stroke-opacity:1" id="path4795"/>
    <path d="M 206.962 148.323 L 201.002 148.323 L 199.093 143.806 L 187.758 143.806 L 185.741 148.323 L 179.932 148.323 L 190.128 125.974 L 196.767 125.974 Z M 197.371 139.708 L 193.371 131.696 L 189.406 139.708 Z" style="font-style:normal;font-variant:normal;font-weight:bold;font-stretch:normal;font-size:medium;line-height:125%;font-family:sans-serif;-inkscape-font-specification:'sans-serif Bold';letter-spacing:7.03102636px;word-spacing:0px;fill:#ffffff;fill-opacity:1;stroke:none;stroke-width:1px;stroke-linecap:butt;stroke-linejoin:miter;stroke-opacity:1" id="path4797"/>
    <path d="M 228.964 125.974 L 220.361 139.68 L 220.361 148.323 L 214.596 148.323 L 214.596 139.949 L 205.785 125.974 L 212.331 125.974 L 217.601 134.618 L 222.626 125.974 Z" style="font-style:normal;font-variant:normal;font-weight:bold;font-stretch:normal;font-size:medium;line-height:125%;font-family:sans-serif;-inkscape-font-specification:'sans-serif Bold';letter-spacing:7.03102636px;word-spacing:0px;fill:#ffffff;fill-opacity:1;stroke:none;stroke-width:1px;stroke-linecap:butt;stroke-linejoin:miter;stroke-opacity:1" id="path4799"/>
    <path d="M 269.92 140.897 C 269.92 143.094 268.981 144.888 267.113 146.269 C 265.251 147.639 262.72 148.323 259.52 148.323 C 257.664 148.323 256.05 148.165 254.672 147.843 C 253.299 147.512 252.01 147.099 250.811 146.598 L 252.661 142.279 C 253.386 142.694 254.625 143.15 255.437 143.431 C 256.914 143.943 258.336 144.197 259.696 144.197 C 260.05 144.197 260.505 144.166 261.078 144.107 C 261.648 144.045 262.116 143.949 262.475 143.806 C 262.915 143.627 263.275 143.4 263.557 143.128 C 263.848 142.861 263.99 142.459 263.99 141.932 C 263.99 141.443 263.78 141.021 263.361 140.671 C 262.949 140.312 262.345 140.033 261.546 139.844 C 260.703 139.646 259.814 139.457 258.872 139.286 C 257.943 139.107 257.066 138.884 256.245 138.614 C 254.365 138.001 253.008 137.18 252.178 136.139 C 251.36 135.085 250.948 133.787 250.948 132.232 C 250.948 130.153 251.877 128.459 253.739 127.145 C 255.61 125.822 258.014 125.166 260.942 125.166 C 262.413 125.166 263.866 125.311 265.298 125.596 C 266.738 125.878 267.987 126.234 269.034 126.665 L 266.605 130.658 C 266.137 130.423 265.635 130.206 265.099 130.011 C 263.801 129.521 262.469 129.277 261.109 129.277 C 260.626 129.277 260.146 129.311 259.669 129.382 C 259.198 129.441 258.742 129.565 258.302 129.741 C 257.912 129.893 257.577 130.122 257.296 130.432 C 257.017 130.733 256.874 131.077 256.874 131.467 C 256.874 132.059 257.1 132.514 257.55 132.833 C 258.002 133.146 258.854 133.431 260.102 133.691 C 260.923 133.859 261.707 134.023 262.46 134.184 C 263.222 134.345 264.037 134.565 264.904 134.844 C 266.617 135.405 267.881 136.173 268.687 137.143 C 269.508 138.103 269.92 139.351 269.92 140.897 Z" style="font-style:normal;font-variant:normal;font-weight:bold;font-stretch:normal;font-size:medium;line-height:125%;font-family:sans-serif;-inkscape-font-specification:'sans-serif Bold';letter-spacing:7.03102636px;word-spacing:0px;fill:#ffffff;fill-opacity:1;stroke:none;stroke-width:1px;stroke-linecap:butt;stroke-linejoin:miter;stroke-opacity:1" id="path4801"/>
    <path d="M 351.422 130.296 L 344.442 130.296 L 344.442 148.323 L 338.68 148.323 L 338.68 130.296 L 331.697 130.296 L 331.697 125.974 L 351.422 125.974 L 351.422 130.296 Z" style="font-style:normal;font-variant:normal;font-weight:bold;font-stretch:normal;font-size:medium;line-height:125%;font-family:sans-serif;-inkscape-font-specification:'sans-serif Bold';letter-spacing:7.03102636px;word-spacing:0px;fill:#ffffff;fill-opacity:1;stroke:none;stroke-width:1px;stroke-linecap:butt;stroke-linejoin:miter;stroke-opacity:1" id="path4803"/>
    <path d="M 375.924 148.323 L 358.734 148.323 L 358.734 125.974 L 375.924 125.974 L 375.924 130.296 L 364.468 130.296 L 364.468 134.153 L 375.175 134.153 L 375.175 138.475 L 364.468 138.475 L 364.468 144.001 L 375.924 144.001 Z" style="font-style:normal;font-variant:normal;font-weight:bold;font-stretch:normal;font-size:medium;line-height:125%;font-family:sans-serif;-inkscape-font-specification:'sans-serif Bold';letter-spacing:7.03102636px;word-spacing:0px;fill:#ffffff;fill-opacity:1;stroke:none;stroke-width:1px;stroke-linecap:butt;stroke-linejoin:miter;stroke-opacity:1" id="path4805"/>
    <path d="M 414.368 148.323 L 408.326 148.323 L 407.812 137.551 L 401.576 148.32 L 397.598 148.32 L 391.356 137.551 L 390.844 148.323 L 385.104 148.323 L 385.922 125.974 L 391.541 125.974 L 399.742 141.421 L 407.93 125.974 L 413.547 125.974 Z" style="font-style:normal;font-variant:normal;font-weight:bold;font-stretch:normal;font-size:medium;line-height:125%;font-family:sans-serif;-inkscape-font-specification:'sans-serif Bold';letter-spacing:7.03102636px;word-spacing:0px;fill:#ffffff;fill-opacity:1;stroke:none;stroke-width:1px;stroke-linecap:butt;stroke-linejoin:miter;stroke-opacity:1" id="path4807"/>
    <path id="path4809" style="font-style:normal;font-variant:normal;font-weight:bold;font-stretch:normal;font-size:medium;line-height:125%;font-family:sans-serif;-inkscape-font-specification:'sans-serif Bold';letter-spacing:7.03102636px;word-spacing:0px;fill:#ffffff;fill-opacity:1;stroke:none;stroke-width:1px;stroke-linecap:butt;stroke-linejoin:miter;stroke-opacity:1" d="M 299.686 125.974 L 291.085 139.68 L 291.085 148.323 L 285.317 148.323 L 285.317 139.949 L 276.509 125.974 L 283.055 125.974 L 288.322 134.618 L 293.353 125.974 Z"/>
    <path id="path4811" style="font-style:normal;font-variant:normal;font-weight:bold;font-stretch:normal;font-size:medium;line-height:125%;font-family:sans-serif;-inkscape-font-specification:'sans-serif Bold';letter-spacing:7.03102636px;word-spacing:0px;fill:#ffffff;fill-opacity:1;stroke:none;stroke-width:1px;stroke-linecap:butt;stroke-linejoin:miter;stroke-opacity:1" d="M 324.24 140.897 C 324.24 143.094 323.305 144.888 321.437 146.269 C 319.575 147.639 317.041 148.323 313.84 148.323 C 311.991 148.323 310.374 148.165 308.992 147.843 C 307.62 147.512 306.334 147.099 305.135 146.598 L 306.984 142.279 C 307.709 142.694 308.949 143.15 309.757 143.431 C 311.238 143.943 312.66 144.197 314.023 144.197 C 314.373 144.197 314.832 144.166 315.402 144.107 C 315.972 144.045 316.436 143.949 316.799 143.806 C 317.239 143.627 317.598 143.4 317.88 143.128 C 318.171 142.861 318.314 142.459 318.314 141.932 C 318.314 141.443 318.103 141.021 317.682 140.671 C 317.273 140.312 316.666 140.033 315.866 139.844 C 315.027 139.646 314.138 139.457 313.196 139.286 C 312.263 139.107 311.39 138.884 310.566 138.614 C 308.688 138.001 307.331 137.18 306.501 136.139 C 305.68 135.085 305.268 133.787 305.268 132.232 C 305.268 130.153 306.201 128.459 308.063 127.145 C 309.934 125.822 312.335 125.166 315.265 125.166 C 316.737 125.166 318.19 125.311 319.618 125.596 C 321.062 125.878 322.307 126.234 323.354 126.665 L 320.929 130.658 C 320.461 130.423 319.959 130.206 319.426 130.011 C 318.125 129.521 316.793 129.277 315.43 129.277 C 314.949 129.277 314.469 129.311 313.992 129.382 C 313.521 129.441 313.066 129.565 312.626 129.741 C 312.236 129.893 311.898 130.122 311.619 130.432 C 311.337 130.733 311.198 131.077 311.198 131.467 C 311.198 132.059 311.424 132.514 311.873 132.833 C 312.325 133.146 313.174 133.431 314.423 133.691 C 315.247 133.859 316.034 134.023 316.783 134.184 C 317.542 134.345 318.36 134.565 319.228 134.844 C 320.941 135.405 322.202 136.173 323.01 137.143 C 323.831 138.103 324.24 139.351 324.24 140.897 Z"/>
    <path style="color: rgb(0, 0, 0); clip-rule: nonzero; display: inline; overflow: visible; visibility: visible; opacity: 1; isolation: auto; mix-blend-mode: normal; color-interpolation: sRGB; color-interpolation-filters: linearRGB; fill-opacity: 1; fill-rule: evenodd; stroke: none; stroke-width: 1px; stroke-linecap: butt; stroke-linejoin: miter; stroke-miterlimit: 4; stroke-dasharray: none; stroke-dashoffset: 0; stroke-opacity: 1; color-rendering: auto; image-rendering: auto; shape-rendering: auto; text-rendering: auto; fill: rgb(255, 255, 255);" d="M 433.972 126.03 L 433.972 127.22 L 434.003 127.22 C 434.102 127.22 438.551 127.3 438.551 129.171 L 438.551 145.238 C 438.551 146.316 436.521 147.183 434.003 147.183 L 433.972 147.183 L 433.972 148.373 L 439.991 148.373 L 441.602 148.373 L 447.622 148.373 L 447.622 147.183 L 447.591 147.183 C 445.069 147.183 443.04 146.316 443.04 145.238 L 443.04 129.171 C 443.04 127.3 447.491 127.22 447.591 127.22 L 447.622 127.22 L 447.622 126.03 L 441.602 126.03 L 439.991 126.03 L 433.972 126.03 Z" id="path4783"/>
    <path style="clip-rule: evenodd; fill-opacity: 1; fill-rule: evenodd; fill: rgb(255, 255, 255);" d="M 85.511 17.59 L 69.906 33.951 C 69.906 33.951 69.079 34.372 68.388 34.372 C 67.695 34.372 66.725 33.675 66.725 33.675 L 64.792 32.027 C 64.792 32.027 64.237 31.894 64.237 31.333 C 64.237 30.788 65.761 29.397 65.761 26.773 C 65.761 24.146 65.21 13.232 48.354 13.232 C 31.504 13.232 24.041 28.982 24.041 41.972 C 24.041 54.959 32.049 78.72 58.308 78.72 C 73.578 78.72 76.809 70.145 76.809 70.145 L 82.06 70.145 L 82.06 92.531 L 53.326 92.531 C 19.068 92.531 0 65.724 0 46.386 C 0 16.729 25.782 0.276 49.184 0.276 C 71.84 0.279 85.511 17.59 85.511 17.59 L 85.511 17.59 Z" id="path4817"/>
    <path style="clip-rule: evenodd; fill-opacity: 1; fill-rule: evenodd; fill: rgb(255, 255, 255);" d="M 133.874 2.739 L 157.496 2.739 L 186.233 77.896 C 187.058 79.96 188.442 81.905 189.821 83.553 C 191.197 85.214 194.514 86.326 194.514 86.326 L 194.514 92.81 L 159.848 92.81 L 159.848 86.18 C 159.848 86.18 162.054 86.465 163.163 84.523 C 164.266 82.59 164.266 81.072 163.441 79.142 C 162.611 77.202 156.796 61.87 156.796 61.87 L 128.48 61.87 C 128.48 61.87 122.684 77.342 122.123 78.723 C 121.572 80.102 121.572 82.317 122.123 83.693 C 123.043 85.991 126.272 86.329 126.272 86.329 L 126.272 92.813 L 98.498 92.813 L 98.498 86.329 C 98.498 86.329 101.023 85.458 102.919 83.556 C 104.991 81.487 105.679 79.275 105.679 79.275 L 133.874 2.739 L 133.874 2.739 Z M 133.177 47.774 L 151.418 47.774 L 142.025 21.525 L 133.177 47.774 L 133.177 47.774 Z" id="path4819"/>
    <path style="clip-rule: evenodd; fill-opacity: 1; fill-rule: evenodd; fill: rgb(255, 255, 255);" d="M 205.568 2.739 C 205.568 2.739 233.475 2.739 249.78 2.739 C 266.081 2.739 282.377 8.535 282.377 27.321 C 282.377 46.111 270.499 52.75 260.279 57.449 C 248.476 62.868 232.927 67.118 232.927 67.118 L 232.927 81.484 C 232.927 81.484 233.066 82.453 234.445 84.098 C 235.826 85.759 237.347 86.177 237.347 86.177 L 237.347 92.807 L 205.296 92.807 L 205.296 86.326 C 205.296 86.326 207.226 85.905 208.617 84.523 C 209.989 83.141 210.271 81.484 210.271 81.484 L 210.271 16.55 C 210.271 16.55 210.398 13.783 209.304 12.686 C 208.201 11.571 205.571 10.056 205.571 10.056 L 205.571 2.739 L 205.568 2.739 L 205.568 2.739 Z M 233.199 16.274 L 233.199 54.677 C 233.199 54.677 259.173 43.908 259.173 28.709 C 259.173 9.92 233.199 16.274 233.199 16.274 L 233.199 16.274 Z" id="path4821"/>
    <path style="clip-rule: evenodd; fill-opacity: 1; fill-rule: evenodd; fill: rgb(255, 255, 255);" d="M 378.124 17.748 L 362.516 34.112 C 362.516 34.112 361.686 34.527 360.992 34.527 C 360.307 34.527 359.341 33.833 359.341 33.833 L 357.401 32.173 C 357.401 32.173 356.85 32.046 356.85 31.494 C 356.85 30.937 358.365 29.546 358.365 26.934 C 358.365 24.307 357.82 13.39 340.96 13.39 C 324.101 13.39 316.644 29.134 316.644 42.124 C 316.644 55.104 324.659 78.875 350.914 78.875 C 366.184 78.875 369.422 70.306 369.422 70.306 L 374.673 70.306 L 374.673 92.683 L 345.929 92.683 C 311.675 92.683 292.604 65.888 292.604 46.541 C 292.604 16.893 318.385 0.431 341.787 0.431 C 364.446 0.431 378.124 17.748 378.124 17.748 L 378.124 17.748 Z" id="path4823"/>
    <path style="clip-rule: evenodd; fill-opacity: 1; fill-rule: evenodd; fill: rgb(255, 255, 255);" d="M 434.08 95.403 C 404.234 95.403 382.783 73.609 382.783 47.09 C 382.783 20.552 404.788 0 434.08 0 C 463.359 0 485.368 20.552 485.368 47.09 C 485.368 73.606 463.914 95.403 434.08 95.403 L 434.08 95.403 Z M 407.549 47.499 C 407.549 74.027 421.087 80.653 434.08 80.653 C 447.058 80.653 460.881 72.366 460.881 47.499 C 460.881 22.634 445.406 14.341 434.08 14.341 C 422.751 14.341 407.549 20.964 407.549 47.499 L 407.549 47.499 Z" id="path4825"/>
    <path style="clip-rule: evenodd; fill-opacity: 1; fill-rule: evenodd; fill: rgb(255, 255, 255);" d="M 498.726 2.794 L 531.615 2.794 L 543.495 39.487 L 556.2 2.739 L 590.598 2.739 L 590.598 8.123 C 590.598 8.123 588.308 9.09 587.292 10.335 C 586.05 11.856 586.05 12.956 586.322 15.177 C 586.598 17.38 595.437 77.342 595.715 79.554 C 595.997 81.766 596.267 83.008 596.818 84.529 C 597.37 86.035 600 87.286 600 87.286 L 600 92.86 L 566.975 92.86 L 566.975 86.874 C 566.975 86.874 569.875 86.462 570.851 85.074 C 571.817 83.69 572.226 82.862 571.954 80.653 C 571.675 78.445 563.806 28.158 563.806 28.158 L 549.437 72.642 L 532.03 72.642 L 517.794 30.912 L 510.613 80.099 C 510.613 80.099 510.334 83.051 511.444 84.662 C 512.962 86.874 515.734 86.874 515.734 86.874 L 515.734 92.81 L 487.124 92.81 L 487.124 86.465 C 487.124 86.465 489.404 86.115 491.059 84.173 C 492.713 82.246 492.995 79.752 492.995 79.752 L 503.429 14.892 C 503.429 14.892 504.055 12.466 503.361 11.37 C 502.633 10.205 498.729 9.226 498.729 9.226 L 498.729 2.794 L 498.726 2.794 Z" id="path4827"/>
    <path style="color: rgb(0, 0, 0); clip-rule: nonzero; display: inline; overflow: visible; visibility: visible; opacity: 1; isolation: auto; mix-blend-mode: normal; color-interpolation: sRGB; color-interpolation-filters: linearRGB; fill-opacity: 1; fill-rule: evenodd; stroke: none; stroke-width: 1px; stroke-linecap: butt; stroke-linejoin: miter; stroke-miterlimit: 4; stroke-dasharray: none; stroke-dashoffset: 0; stroke-opacity: 1; color-rendering: auto; image-rendering: auto; shape-rendering: auto; text-rendering: auto; fill: rgb(255, 255, 255);" d="M 447.631 126.03 L 447.631 127.22 L 447.662 127.22 C 447.761 127.22 452.21 127.3 452.21 129.171 L 452.21 145.238 C 452.21 146.316 450.18 147.183 447.662 147.183 L 447.631 147.183 L 447.631 148.373 L 453.647 148.373 L 455.258 148.373 L 461.278 148.373 L 461.278 147.183 L 461.247 147.183 C 458.728 147.183 456.699 146.316 456.699 145.238 L 456.699 129.171 C 456.699 127.3 461.147 127.22 461.247 127.22 L 461.278 127.22 L 461.278 126.03 L 455.258 126.03 L 453.647 126.03 L 447.631 126.03 Z" id="path-1"/>
    <path style="color: rgb(0, 0, 0); clip-rule: nonzero; display: inline; overflow: visible; visibility: visible; opacity: 1; isolation: auto; mix-blend-mode: normal; color-interpolation: sRGB; color-interpolation-filters: linearRGB; fill-opacity: 1; fill-rule: evenodd; stroke: none; stroke-width: 1px; stroke-linecap: butt; stroke-linejoin: miter; stroke-miterlimit: 4; stroke-dasharray: none; stroke-dashoffset: 0; stroke-opacity: 1; color-rendering: auto; image-rendering: auto; shape-rendering: auto; text-rendering: auto; fill: rgb(255, 255, 255);" d="M 461.287 126.03 L 461.287 127.22 L 461.318 127.22 C 461.417 127.22 465.866 127.3 465.866 129.171 L 465.866 145.238 C 465.866 146.316 463.84 147.183 461.318 147.183 L 461.287 147.183 L 461.287 148.373 L 467.306 148.373 L 468.917 148.373 L 474.934 148.373 L 474.934 147.183 L 474.906 147.183 C 472.384 147.183 470.355 146.316 470.355 145.238 L 470.355 129.171 C 470.355 127.3 474.803 127.22 474.906 127.22 L 474.934 127.22 L 474.934 126.03 L 468.917 126.03 L 467.306 126.03 L 461.287 126.03 Z" id="path-2"/>
  </g>
</svg>