<?xml version="1.0" encoding="utf-8"?>
<svg version="1.1" viewBox="0 0 3839 1042.4" xmlns="http://www.w3.org/2000/svg">
  <path class="st97" d="M 3396.4 555.9 C 3398.9 535.6 3402.3 516 3406.5 497.2 C 3464.2 504.4 3521.9 512 3579.5 520.1 C 3596.2 522.4 3601.4 538.7 3589.3 547.1 C 3621.3 529 3653.6 506.7 3684 481.9 C 3596.5 469 3508.9 457 3421.2 446 C 3454.5 352.4 3519.2 291.1 3630.5 306.7 C 3759.9 325.3 3740.9 430.4 3740.9 430.3 C 3786.2 384.5 3822.5 334.9 3838.9 289.7 C 3838.9 289.7 3824.2 302.2 3810.7 300.1 C 3685.1 280.5 3559.4 262.9 3433.4 247.2 C 3417 245.2 3400.7 243.2 3384.3 241.2 C 3368.2 239.3 3352.2 237.4 3336.1 235.5 C 3335.9 237.4 3335.6 239.4 3335.4 241.3 C 3341.1 242 3346.6 243.3 3351.6 245.3 C 3368.9 252 3373 273.2 3359.5 284.9 C 3330.5 310.1 3283.1 372.7 3272.3 469 C 3233.2 833.2 3453.3 988.5 3664.8 1036.5 C 3437.2 960.4 3370.5 768.7 3396.4 555.9 Z" style="fill: rgb(255, 255, 255);"/>
  <path class="st97" d="M 2523.8 168.3 C 2506.5 167.5 2489.2 166.6 2471.9 165.9 C 2471.8 167.9 2471.7 169.8 2471.6 171.8 C 2500.3 173.1 2522.7 192 2521.6 214 C 2519.1 265 2516.6 316 2514.1 367.1 C 2437.9 363.4 2361.8 360.4 2285.5 358.1 C 2287 307 2288.6 256 2290.1 204.9 C 2290.7 182.9 2314.5 165.8 2343.2 166.8 C 2343.3 164.8 2343.3 162.9 2343.4 160.9 C 2326.1 160.3 2308.8 159.8 2291.4 159.2 C 2251.2 158 2211 157 2170.9 156.2 C 2153.6 155.9 2136.2 155.5 2118.9 155.3 C 2118.9 157.3 2118.8 159.2 2118.8 161.2 C 2147.5 161.6 2170.4 179.9 2170 201.9 C 2170 201.9 2170 201.9 2170 201.9 C 2165.6 421.4 2161.2 640.9 2156.8 860.4 C 2156.8 860.4 2156.8 860.4 2156.8 860.4 C 2156.3 882.4 2134.1 899.7 2107.2 899.3 C 2107.2 901.3 2107.1 903.2 2107.1 905.2 C 2123.4 905.5 2139.6 905.7 2155.9 906.1 C 2193.6 906.9 2231.3 907.8 2269 908.9 C 2285.3 909.4 2301.5 909.9 2317.8 910.5 C 2317.9 908.5 2317.9 906.6 2318 904.6 C 2291.1 903.7 2269.8 885.2 2270.4 863.3 C 2274.9 712.5 2279.4 561.6 2283.9 410.8 C 2359.8 413.1 2435.6 416.1 2511.5 419.8 C 2504.1 570.5 2496.7 721.3 2489.3 872 C 2489.3 872 2489.3 872 2489.3 872 C 2488.2 894 2465.5 910.7 2438.6 909.5 C 2438.5 911.5 2438.4 913.4 2438.3 915.4 C 2454.6 916.1 2470.8 916.9 2487.1 917.7 C 2524.8 919.5 2562.5 921.6 2600.1 923.8 C 2616.3 924.8 2632.6 925.7 2648.8 926.8 C 2648.9 924.8 2649 922.9 2649.2 920.9 C 2622.3 919.2 2601.5 900.1 2602.8 878.2 C 2615.7 659 2628.6 439.9 2641.5 220.7 C 2641.5 220.7 2641.5 220.7 2641.5 220.7 C 2642.8 198.8 2667 182.3 2695.7 184.1 C 2695.8 182.1 2695.9 180.2 2696.1 178.2 C 2678.8 177.1 2661.5 176.1 2644.2 175 C 2604.1 172.4 2563.9 170.2 2523.8 168.3 Z" style="fill: rgb(255, 255, 255);"/>
  <path class="st97" d="M 3276.3 228.5 C 3259.1 226.6 3241.8 224.7 3224.5 222.9 C 3209.3 221.3 3194.1 219.7 3178.9 218.1 C 3161.6 216.3 3144.4 214.6 3127.1 212.9 C 3126.9 214.8 3126.7 216.8 3126.5 218.7 C 3155.1 221.5 3176.4 241.6 3174.2 263.5 C 3174.2 263.5 3174.2 263.5 3174.2 263.5 C 3174.2 263.5 3174.2 263.5 3174.2 263.5 C 3167.3 330.7 3160.3 398 3153.4 465.2 C 3110.1 344 3007.6 231.6 2818.6 170.3 C 2818.3 170.1 2703.8 279.8 2704.1 280 C 2721.6 279.8 2736.1 282.1 2747.7 286.8 C 2764.7 293.2 2768.5 302.9 2767.6 316.4 C 2754.3 506.2 2741.1 696.1 2727.8 885.9 C 2727.8 885.9 2727.8 885.9 2727.8 885.9 L 2727.8 885.9 C 2726.3 907.8 2703.2 924.1 2676.3 922.3 C 2676.2 924.3 2676 926.2 2675.9 928.2 C 2692.1 929.3 2708.4 930.4 2724.6 931.5 C 2738.9 932.5 2753.2 933.5 2767.5 934.6 C 2783.7 935.8 2800 937 2816.2 938.3 C 2816.4 936.4 2816.5 934.4 2816.7 932.5 C 2789.8 930.4 2769.3 911 2770.9 889.1 C 2770.9 889.1 2770.9 889.1 2770.9 889.1 C 2785.1 696.5 2799.3 503.8 2813.4 311.2 C 2895.1 316.7 3017.5 409.9 3078.4 540.8 C 3140.2 671.8 3140.7 840.4 2998.2 998.1 C 3088.1 944.4 3155.9 860.5 3177 664.6 C 3177 664.6 3177 664.6 3177 664.6 C 3191.1 532.5 3205.2 400.5 3219.4 268.4 C 3221.7 246.6 3246.8 231.3 3275.4 234.5 C 3275.9 232.4 3276.1 230.4 3276.3 228.5 Z" style="fill: rgb(255, 255, 255);"/>
  <path class="st97" d="M 1878.2 143 C 1822.8 143.2 1757 158.9 1696.5 179 C 1592.9 213.3 1504.8 260.4 1504.8 260.4 C 1505.9 262.2 1506.9 264 1508 265.7 C 1545.1 249.6 1562.1 262.6 1562.5 275.5 C 1568.4 471.3 1574.3 667.2 1580.2 863 C 1580.2 863 1580.2 863 1580.2 863 C 1580.8 885 1559.5 903.4 1532.6 904.3 C 1532.7 906.3 1532.7 908.2 1532.8 910.2 C 1549.1 909.6 1565.3 909.1 1581.6 908.6 C 1619.3 907.5 1657 906.5 1694.7 905.8 C 1711 905.5 1727.2 905.2 1743.5 904.9 C 1743.5 902.9 1743.4 901 1743.4 899 C 1743.4 899 1743.4 899 1743.4 899 C 1716.5 899.4 1694.3 882.1 1693.8 860.1 C 1693.8 860.1 1693.8 860.1 1693.8 860.1 C 1690.3 685.5 1686.7 510.9 1683.2 336.3 C 1683 291.5 1697.8 255.1 1723.2 227.3 C 1748.6 199.6 1785.7 185.4 1834.1 185 C 1907.8 184.5 1957.2 255.9 1957.1 255.9 C 1929.5 295.6 1902.2 335.4 1875.1 375.2 C 1825 405.2 1775.4 435.6 1726 466.2 C 1803.2 441.5 1881 417.5 1959.1 394.3 C 1958.6 394 2109.6 260.8 2117.2 253.4 C 2117.6 253.8 2036.8 142.5 1878.2 143 Z" style="fill: rgb(255, 255, 255);"/>
  <path class="st97" d="M 1311.1 169.1 C 1204.3 174.5 1097.5 181.3 990.7 189.5 C 990.8 191.4 991 193.4 991.1 195.4 C 1007.5 194.1 1022.5 198.9 1032.7 207.2 C 1043.1 215.8 1043.5 231 1034.1 240.7 C 949.2 324.5 797.5 819 1173.3 998.7 C 971.8 787.9 995.3 242.3 1313.3 215 C 1315.8 264.1 1318.2 313.1 1320.7 362.2 C 1320.8 364.1 1320.9 366 1321 367.9 C 1263.8 370.8 1206.7 374.1 1149.6 377.8 L 1149.6 377.8 C 1136 402.6 1125.1 429.7 1116.7 458.2 C 1116.7 458.2 1127.3 432 1165.8 429.5 C 1218.4 426.1 1271 423.1 1323.7 420.5 C 1331.3 571.2 1338.9 721.9 1346.5 872.7 C 1346.5 872.7 1346.5 872.7 1346.5 872.7 C 1347.6 894.7 1326.6 913.5 1299.7 915 C 1299.8 917 1299.9 918.9 1300 920.9 C 1316.2 920 1332.5 919.2 1348.7 918.3 C 1386.4 916.4 1424.1 914.7 1461.8 913.2 C 1478.1 912.5 1494.3 911.9 1510.6 911.3 C 1510.5 909.3 1510.5 907.4 1510.4 905.4 C 1483.5 906.4 1460.9 889.5 1460 867.5 L 1460 867.5 C 1453.9 716.7 1447.8 565.9 1441.7 415.1 C 1441 397.6 1440.3 380 1439.6 362.5 C 1437.5 311.5 1435.5 260.4 1433.4 209.4 C 1433.4 209.4 1433.4 209.4 1433.4 209.4 C 1432.5 187.5 1455 168.7 1483.7 167.6 C 1483.6 165.6 1483.6 163.7 1483.5 161.7 C 1441.8 163.2 1400.1 164.9 1358.3 166.9 C 1342.6 167.6 1326.8 168.3 1311.1 169.1 Z" style="fill: rgb(255, 255, 255);"/>
  <path class="st97" d="M 880.4 97.8 C 834.8 57.5 627.9 -19.6 427.8 4.6 C 224.3 28.5 35.3 153.9 0 204.9 C 0.3 206.8 0.6 208.8 0.9 210.7 C 0.9 210.7 0.9 210.7 0.9 210.7 C 38.2 204.8 72 223.1 76.4 251.3 C 114 497.4 151.6 743.6 189.1 989.7 C 193.4 1018.1 181.3 1029.3 146.4 1034.8 C 146.8 1037.3 147.2 1039.8 147.6 1042.4 C 240.5 1027.8 333.4 1014.4 426.5 1002.1 C 426.5 1002.1 470.9 977.1 541.3 936.5 C 796.5 789.5 906.3 494.2 893.3 319.5 C 888.8 262.5 868.4 199.9 836.4 121.1 C 847.7 111.7 863.3 105.2 880.9 103.7 C 880.8 101.7 880.6 99.8 880.4 97.8 Z M 726.6 392.5 C 724.2 551.1 621.4 780.3 366.9 932.7 C 346.8 944.7 330.6 927 327.6 906 C 309.6 776.9 244.2 308.1 244.2 308.1 C 233.5 232.1 236.5 97.6 435.6 72.8 C 692.5 42.7 728.3 281.1 726.6 392.5 Z" style="fill: rgb(255, 255, 255);"/>
</svg>