<?xml version="1.0" encoding="utf-8"?>
<svg version="1.0" xmlns="http://www.w3.org/2000/svg">
  <path d="M 160.799 110.094 C 157.883 109.033 154.171 107.641 152.58 106.912 L 149.664 105.653 L 154.171 102.008 L 158.745 98.296 L 163.716 100.218 C 169.747 102.604 171.272 102.339 173.128 98.76 C 176.574 91.999 173.393 85.636 164.312 81.063 L 160.468 79.14 L 165.505 73.241 C 168.223 69.993 170.477 67.077 170.477 66.812 C 170.477 66.547 167.03 66.282 162.788 66.282 C 154.039 66.282 154.37 66.613 158.214 60.648 L 160.534 57.002 L 171.802 57.002 L 183.07 57.002 L 177.436 64.094 C 174.321 68.005 171.802 71.385 171.802 71.584 C 171.802 71.783 173.128 72.645 174.785 73.506 C 181.479 77.086 183.534 81.46 182.142 89.414 C 180.485 98.561 176.773 105.786 171.67 109.564 C 168.289 112.016 166.698 112.149 160.799 110.094 Z" style="fill: rgb(255, 255, 255);"/>
  <path d="M 196.857 110.226 C 194.471 107.575 188.571 98.76 187.776 96.572 C 187.378 95.512 187.047 91.336 187.047 87.16 C 187.047 79.803 187.113 79.604 189.234 76.489 C 193.211 70.524 194.603 68.933 195.597 68.933 C 196.194 68.933 198.447 70.126 200.568 71.584 C 202.756 72.976 204.744 74.037 205.076 73.838 C 205.341 73.639 205.606 71.783 205.606 69.662 C 205.606 66.215 205.341 65.553 203.22 63.034 L 200.767 60.184 L 204.545 56.406 L 208.323 52.561 L 211.969 56.339 L 215.548 60.118 L 215.548 80.93 L 215.548 101.742 L 211.505 106.912 L 207.528 112.016 L 203.021 112.016 C 198.978 112.016 198.381 111.817 196.857 110.226 Z M 202.822 101.345 C 204.346 99.754 204.81 97.302 205.407 88.354 C 205.805 81.063 205.407 79.538 202.689 79.538 C 200.303 79.538 196.592 82.587 195.001 85.835 C 193.808 88.354 193.609 89.745 193.808 93.59 C 194.073 97.964 194.205 98.362 196.525 100.483 C 199.309 103.068 201.032 103.333 202.822 101.345 Z" style="fill: rgb(255, 255, 255);"/>
  <path d="M 90.74 53.224 C 90.475 53.025 90.276 45.27 90.276 35.991 L 90.276 19.222 L 88.287 19.222 C 86.763 19.222 86.299 18.957 86.299 17.896 C 86.299 16.902 86.763 16.57 88.221 16.57 C 90.011 16.57 90.143 16.372 90.475 13.19 C 90.74 11.334 91.336 9.147 91.8 8.351 C 92.861 6.827 102.273 2.651 104.725 2.651 C 107.376 2.651 110.69 4.507 111.751 6.562 C 112.347 7.622 112.811 8.815 112.811 9.147 C 112.811 9.412 111.42 10.34 109.763 11.135 L 106.78 12.594 L 104.791 11.202 C 102.074 9.279 100.881 9.942 100.881 13.256 C 100.881 15.775 101.013 15.908 102.869 15.908 C 104.659 15.908 104.858 16.106 104.858 17.896 C 104.858 19.752 104.725 19.885 102.206 19.885 L 99.555 19.885 L 99.555 35.527 C 99.555 45.005 99.29 51.633 98.892 52.429 C 98.296 53.423 97.434 53.688 94.65 53.688 C 92.728 53.688 90.939 53.489 90.74 53.224 Z" style="fill: rgb(255, 255, 255);"/>
  <path d="M 188.24 46.729 C 186.848 45.801 185.125 43.812 184.329 42.354 C 183.07 39.902 183.004 38.709 183.203 28.435 L 183.401 17.233 L 181.612 17.233 C 180.021 17.233 179.756 16.968 179.756 15.245 C 179.756 13.588 180.021 13.256 181.413 13.256 C 182.871 13.256 183.07 12.991 183.07 11.003 C 183.07 9.081 183.534 8.418 186.716 6.032 L 190.361 3.248 L 190.361 8.285 L 190.361 13.256 L 193.344 13.256 C 196.326 13.256 196.326 13.256 196.326 15.576 C 196.326 17.896 196.326 17.896 193.344 17.896 L 190.361 17.896 L 190.361 27.573 L 190.361 37.25 L 192.416 39.172 C 193.543 40.233 194.736 41.095 195.067 41.095 C 196.26 41.095 195.531 42.818 193.145 45.602 L 190.692 48.452 L 188.24 46.729 Z" style="fill: rgb(255, 255, 255);"/>
  <path d="M 10.274 46.463 C 8.086 45.072 4.64 40.564 3.712 37.781 C 3.447 36.853 3.248 31.55 3.38 25.982 C 3.513 16.106 3.513 15.775 1.79 12.726 L 0 9.611 L 3.778 6.164 L 7.622 2.718 L 10.075 5.833 C 13.72 10.406 14.184 12.792 13.256 22.204 C 12.859 26.579 12.726 31.219 12.925 32.544 C 13.588 35.726 15.709 37.913 17.896 37.648 L 19.686 37.449 L 19.752 26.579 C 19.818 16.57 19.686 15.51 18.36 12.925 L 16.836 10.207 L 20.547 6.297 L 24.259 2.452 L 27.441 5.899 C 29.23 7.888 30.755 10.207 30.954 11.467 C 31.219 12.66 30.887 16.504 30.357 20.017 C 28.833 29.363 28.965 31.948 30.954 33.804 L 32.544 35.328 L 33.87 33.737 C 34.599 32.876 35.858 30.821 36.654 29.23 C 37.913 26.712 38.046 25.585 37.781 20.547 C 37.515 16.173 37.051 14.118 36.057 12.461 L 34.665 10.207 L 36.853 6.628 C 38.046 4.64 39.438 2.916 40.034 2.784 C 41.36 2.519 44.873 8.02 45.933 12.063 C 46.662 14.648 46.596 16.173 45.734 21.144 C 44.674 26.977 41.294 35.66 39.504 37.184 C 37.781 38.642 38.51 39.239 41.36 38.775 L 44.077 38.311 L 42.221 41.492 C 41.227 43.282 40.167 45.005 39.835 45.337 C 39.57 45.668 36.521 46.331 33.141 46.795 C 26.712 47.657 25.717 47.458 22.933 44.939 C 21.542 43.746 21.475 43.746 18.294 45.337 C 13.521 47.723 12.594 47.855 10.274 46.463 Z" style="fill: rgb(255, 255, 255);"/>
  <path d="M 202.689 46.331 C 198.315 42.884 196.393 33.737 198.58 26.38 C 199.442 23.397 200.303 22.072 203.087 19.553 C 207.395 15.709 209.782 14.449 211.836 14.98 C 214.156 15.51 216.874 18.691 217.271 21.276 C 217.537 23.464 217.271 23.795 210.975 29.164 C 204.81 34.4 204.346 34.997 204.346 37.317 L 204.28 39.769 L 211.24 39.769 C 215.217 39.769 218.199 40.034 218.199 40.432 C 218.199 40.763 217.868 42.553 217.47 44.409 L 216.741 47.723 L 210.643 47.723 C 205.341 47.723 204.214 47.524 202.689 46.331 Z M 208.257 27.706 C 209.715 26.513 210.908 25.121 210.908 24.657 C 210.908 23.596 207.926 22.469 206.534 23 C 204.678 23.663 203.286 29.827 205.009 29.827 C 205.407 29.827 206.865 28.833 208.257 27.706 Z" style="fill: rgb(255, 255, 255);"/>
  <path d="M 108.304 45.734 C 105.653 44.144 104.46 41.426 103.863 36.057 C 102.869 27.706 106.515 19.089 112.215 16.106 C 116.855 13.72 118.578 13.787 120.765 16.57 C 124.146 20.746 124.079 22.006 119.904 25.85 C 117.915 27.639 115.198 30.026 113.872 31.02 C 111.685 32.677 111.486 33.075 111.685 35.792 L 111.817 38.775 L 117.981 38.974 C 121.296 39.04 124.079 39.371 124.079 39.703 C 124.079 39.968 123.615 41.757 123.085 43.613 L 122.025 47.06 L 116.258 47.06 C 111.618 47.06 110.028 46.795 108.304 45.734 Z M 114.469 26.844 C 117.053 24.657 117.053 24.591 115.86 23.265 C 113.541 20.68 112.082 21.807 111.154 26.712 C 110.889 28.037 110.956 29.164 111.221 29.164 C 111.552 29.098 113.01 28.103 114.469 26.844 Z" style="fill: rgb(255, 255, 255);"/>
  <path d="M 129.117 43.68 C 126.134 40.366 126.134 40.299 127.062 38.443 C 128.388 35.858 128.388 25.518 127.062 22.337 L 126.134 20.017 L 128.785 17.631 C 131.635 15.046 132.895 15.112 134.883 17.896 C 135.745 19.155 135.877 19.089 139.258 16.57 C 143.235 13.588 144.627 13.323 147.344 15.311 C 150.658 17.697 151.255 19.619 151.255 28.7 C 151.255 36.786 151.321 36.985 152.912 38.046 C 154.503 39.106 154.503 39.239 153.575 41.028 C 153.044 42.089 151.454 43.878 150.128 45.072 L 147.609 47.126 L 144.163 43.282 C 140.782 39.57 140.716 39.371 141.975 38.51 C 143.168 37.714 143.301 36.853 143.301 31.418 C 143.301 24.524 142.837 23.53 138.993 22.801 C 135.215 22.138 134.684 23.066 134.684 30.357 C 134.684 36.322 134.817 36.853 136.408 38.51 L 138.131 40.366 L 135.347 43.68 C 133.756 45.536 132.431 47.06 132.298 47.06 C 132.232 47.06 130.774 45.536 129.117 43.68 Z" style="fill: rgb(255, 255, 255);"/>
  <path d="M 156.16 46.397 C 153.906 45.469 153.906 44.939 156.226 42.089 L 158.48 39.504 L 161.661 40.432 C 167.759 42.155 171.802 40.83 171.802 37.118 C 171.802 34.665 170.742 34.135 164.18 33.207 C 158.745 32.412 156.425 30.887 155.629 27.639 C 154.702 23.994 156.16 20.083 159.54 16.769 C 162.987 13.455 166.566 12.527 172.2 13.389 C 178.099 14.317 178.298 14.582 174.851 17.763 L 171.868 20.481 L 169.085 19.553 C 164.975 18.095 163.318 18.227 162.788 20.15 C 161.992 23.464 162.589 24.06 168.157 25.651 C 175.381 27.706 176.641 29.098 176.972 35.129 L 177.237 39.769 L 174.652 42.354 C 172.929 44.077 170.874 45.27 168.488 46 C 164.71 47.126 158.48 47.325 156.16 46.397 Z" style="fill: rgb(255, 255, 255);"/>
  <path d="M 238.747 43.746 L 235.897 40.366 L 236.957 38.046 C 238.548 34.732 238.415 26.38 236.758 22.735 L 235.499 19.885 L 238.415 17.565 C 241 15.444 241.464 15.245 242.657 16.04 C 243.453 16.504 244.049 17.034 244.049 17.233 C 244.049 17.432 244.314 17.962 244.646 18.493 C 245.11 19.222 245.839 18.957 248.159 17.034 C 249.816 15.709 252.069 14.383 253.196 14.184 C 255.052 13.787 255.649 14.118 257.968 16.438 L 260.62 19.089 L 260.62 27.573 C 260.62 35.792 260.686 36.124 262.343 37.847 L 264 39.57 L 262.741 41.691 C 261.282 44.144 257.239 47.325 256.643 46.596 C 256.378 46.265 254.919 44.674 253.329 42.884 L 250.479 39.703 L 251.87 38.245 C 253.13 36.919 253.329 35.925 253.329 31.683 C 253.329 28.899 253.13 26.115 252.931 25.518 C 252.401 24.193 249.219 22.536 247.098 22.536 C 244.712 22.536 244.049 24.325 244.049 30.49 C 244.049 35.262 244.248 36.124 245.773 38.112 L 247.496 40.432 L 245.441 42.951 C 241.862 47.458 241.862 47.458 238.747 43.746 Z" style="fill: rgb(255, 255, 255);"/>
  <path d="M 53.489 45.469 C 50.639 44.276 47.325 40.233 46.795 37.383 C 45.668 31.351 47.988 22.933 52.164 17.962 C 54.351 15.444 59.852 12.594 62.636 12.594 C 65.884 12.594 68.999 14.516 70.921 17.83 C 72.512 20.547 72.711 21.475 72.645 26.844 C 72.578 35.726 69.463 42.818 64.36 45.403 C 62.04 46.596 56.141 46.662 53.489 45.469 Z M 63.63 36.985 C 64.824 35.792 64.558 29.827 63.166 26.778 C 61.775 23.795 58.858 21.078 57.466 21.608 C 56.406 22.072 55.146 25.386 55.146 27.772 C 55.213 30.357 57.4 34.732 59.455 36.322 C 61.509 37.979 62.504 38.112 63.63 36.985 Z" style="fill: rgb(255, 255, 255);"/>
  <path d="M 76.489 43.481 L 73.772 40.498 L 74.898 38.311 C 75.76 36.654 76.091 33.936 76.224 26.645 C 76.555 15.179 76.224 13.256 73.639 10.274 L 71.584 8.02 L 75.097 3.977 C 77.086 1.79 78.743 0 78.875 0 C 79.008 0 79.869 1.723 80.864 3.844 C 82.653 7.556 82.653 7.755 82.653 21.873 C 82.653 34.665 82.786 36.322 83.913 37.913 L 85.106 39.769 L 82.653 43.083 C 81.328 44.873 80.002 46.397 79.671 46.397 C 79.405 46.397 77.947 45.072 76.489 43.481 Z" style="fill: rgb(255, 255, 255);"/>
  <path d="M 224.165 43.415 L 221.248 40.432 L 222.375 38.112 C 223.237 36.256 223.502 33.87 223.502 27.573 L 223.502 19.354 L 226.087 17.3 L 228.606 15.311 L 229.401 16.968 C 229.799 17.962 230.13 22.204 230.13 27.308 C 230.13 34.997 230.263 36.256 231.522 38.245 L 232.98 40.564 L 230.064 43.481 L 227.081 46.397 L 224.165 43.415 Z" style="fill: rgb(255, 255, 255);"/>
  <path d="M 225.358 8.948 L 222.176 6.827 L 223.833 6.098 C 225.225 5.435 225.954 5.568 228.473 7.158 C 230.13 8.153 231.456 9.147 231.456 9.346 C 231.456 9.545 230.793 10.009 229.931 10.406 C 228.738 11.003 227.943 10.738 225.358 8.948 Z" style="fill: rgb(255, 255, 255);"/>
</svg>