<?xml version="1.0" encoding="utf-8"?>
<svg version="1.1" x="0px" y="0px" viewBox="0 0 3839 773.64" xmlns="http://www.w3.org/2000/svg">
  <rect x="52.43" y="7.29" class="st1" width="95.89" height="665.04" style="fill: rgb(255, 255, 255);"/>
  <rect x="1005.14" y="7.29" class="st1" width="95.89" height="665.04" style="fill: rgb(255, 255, 255);"/>
  <rect x="14.01" y="576.16" transform="matrix(0, 1, -1, 0, 686.34613, 576.159729)" class="st1" width="82.16" height="110.19" style="fill: rgb(255, 255, 255);"/>
  <rect x="14.01" y="-6.72" transform="matrix(0, 1, -1, 0, 103.462303, -6.7241)" class="st1" width="82.16" height="110.19" style="fill: rgb(255, 255, 255);"/>
  <rect x="263.15" y="483.92" class="st1" width="80.16" height="157.59" style="fill: rgb(255, 255, 255);"/>
  <rect x="213.29" y="542.3" transform="matrix(0, 1, -1, 0, 885.620789, 376.88501)" class="st1" width="82.16" height="177.9" style="fill: rgb(255, 255, 255);"/>
  <rect x="848.19" y="38.11" class="st1" width="80.16" height="145.53" style="fill: rgb(255, 255, 255);"/>
  <rect x="848.19" y="7.29" class="st1" width="139.84" height="82.16" style="fill: rgb(255, 255, 255);"/>
  <rect x="1177.8" y="38.11" class="st1" width="80.16" height="145.53" style="fill: rgb(255, 255, 255);"/>
  <rect x="1118.13" y="7.29" class="st1" width="139.84" height="82.16" style="fill: rgb(255, 255, 255);"/>
  <rect x="263.15" y="38.11" class="st1" width="80.16" height="122.54" style="fill: rgb(255, 255, 255);"/>
  <rect x="213.29" y="-40.58" transform="matrix(0, -1, 1, 0, 205.998795, 302.737)" class="st1" width="82.16" height="177.9" style="fill: rgb(255, 255, 255);"/>
  <rect x="188.12" y="262.57" transform="matrix(0, -1, 1, 0, -97.148697, 555.557617)" class="st1" width="82.16" height="127.57" style="fill: rgb(255, 255, 255);"/>
  <rect x="1071.44" y="576.16" transform="matrix(0, 1, -1, 0, 1743.770874, -481.265015)" class="st1" width="82.16" height="110.19" style="fill: rgb(255, 255, 255);"/>
  <rect x="952.56" y="576.16" transform="matrix(0, 1, -1, 0, 1624.892944, -362.387085)" class="st1" width="82.16" height="110.19" style="fill: rgb(255, 255, 255);"/>
  <rect x="2948.68" y="7.29" class="st1" width="95.89" height="665.04" style="fill: rgb(255, 255, 255);"/>
  <rect x="2896.1" y="576.16" transform="matrix(0, 1, -1, 0, 3568.434814, -2305.928955)" class="st1" width="82.16" height="110.19" style="fill: rgb(255, 255, 255);"/>
  <rect x="3014.98" y="576.16" transform="matrix(0, 1, -1, 0, 3687.312744, -2424.806885)" class="st1" width="82.16" height="110.19" style="fill: rgb(255, 255, 255);"/>
  <rect x="3000.97" y="7.29" class="st1" width="110.19" height="82.16" style="fill: rgb(255, 255, 255);"/>
  <rect x="2882.09" y="7.29" class="st1" width="110.19" height="82.16" style="fill: rgb(255, 255, 255);"/>
  <rect x="1712.98" y="7.29" class="st1" width="95.89" height="665.04" style="fill: rgb(255, 255, 255);"/>
  <rect x="1674.57" y="576.16" transform="matrix(0, 1, -1, 0, 2346.898682, -1084.392944)" class="st1" width="82.16" height="110.19" style="fill: rgb(255, 255, 255);"/>
  <rect x="1954.94" y="576.16" transform="matrix(0, 1, -1, 0, 2627.27124, -1364.765381)" class="st1" width="82.16" height="110.19" style="fill: rgb(255, 255, 255);"/>
  <rect x="1674.57" y="-6.72" transform="matrix(0, 1, -1, 0, 1764.015015, -1667.276733)" class="st1" width="82.16" height="110.19" style="fill: rgb(255, 255, 255);"/>
  <rect x="2210.45" y="605.04" transform="matrix(0, 1, -1, 0, 2882.783936, -1620.278198)" class="st1" width="82.16" height="52.43" style="fill: rgb(255, 255, 255);"/>
  <rect x="1335.41" y="7.29" class="st1" width="95.89" height="665.04" style="fill: rgb(255, 255, 255);"/>
  <rect x="1297" y="576.16" transform="matrix(0, 1, -1, 0, 1969.330566, -706.824585)" class="st1" width="82.16" height="110.19" style="fill: rgb(255, 255, 255);"/>
  <rect x="1297" y="-6.72" transform="matrix(0, 1, -1, 0, 1386.446655, -1289.708496)" class="st1" width="82.16" height="110.19" style="fill: rgb(255, 255, 255);"/>
  <rect x="1546.14" y="483.92" class="st1" width="80.16" height="157.59" style="fill: rgb(255, 255, 255);"/>
  <rect x="1496.27" y="542.3" transform="matrix(0, 1, -1, 0, 2168.605225, -906.099426)" class="st1" width="82.16" height="177.9" style="fill: rgb(255, 255, 255);"/>
  <rect x="1546.14" y="38.11" class="st1" width="80.16" height="122.54" style="fill: rgb(255, 255, 255);"/>
  <rect x="3378.49" class="st1" width="80.16" height="159.68" style="fill: rgb(255, 255, 255);"/>
  <rect x="3141.78" y="470.87" class="st1" width="80.16" height="189.03" style="fill: rgb(255, 255, 255);"/>
  <rect x="1496.27" y="-40.58" transform="matrix(0, -1, 1, 0, 1488.983154, 1585.721436)" class="st1" width="82.16" height="177.9" style="fill: rgb(255, 255, 255);"/>
  <rect x="1471.11" y="262.57" transform="matrix(0, -1, 1, 0, 1185.835815, 1838.541992)" class="st1" width="82.16" height="127.57" style="fill: rgb(255, 255, 255);"/>
  <rect x="3548.11" y="7.29" class="st1" width="95.89" height="665.04" style="fill: rgb(255, 255, 255);"/>
  <rect x="3509.7" y="576.16" transform="matrix(0, 1, -1, 0, 4182.030273, -2919.52417)" class="st1" width="82.16" height="110.19" style="fill: rgb(255, 255, 255);"/>
  <rect x="3509.7" y="-6.72" transform="matrix(0, 1, -1, 0, 3599.14624, -3502.407959)" class="st1" width="82.16" height="110.19" style="fill: rgb(255, 255, 255);"/>
  <rect x="3758.84" y="483.92" class="st1" width="80.16" height="157.59" style="fill: rgb(255, 255, 255);"/>
  <rect x="3708.97" y="542.3" transform="matrix(0, 1, -1, 0, 4381.304687, -3118.798828)" class="st1" width="82.16" height="177.9" style="fill: rgb(255, 255, 255);"/>
  <rect x="3758.84" y="38.11" class="st1" width="80.16" height="122.54" style="fill: rgb(255, 255, 255);"/>
  <rect x="3708.97" y="-40.58" transform="matrix(0, -1, 1, 0, 3701.682617, 3798.420898)" class="st1" width="82.16" height="177.9" style="fill: rgb(255, 255, 255);"/>
  <rect x="3683.81" y="262.57" transform="matrix(0, -1, 1, 0, 3398.535156, 4051.241455)" class="st1" width="82.16" height="127.57" style="fill: rgb(255, 255, 255);"/>
  <polygon class="st1" points="1939.71 182.43 2035.6 182.43 2035.6 87.33 1955.56 7.29 1825.97 7.29 1825.97 89.45 1904.66 89.45 1939.71 124.5" style="fill: rgb(255, 255, 255);"/>
  <polygon class="st1" points="1939.71 152.15 2035.6 152.15 2035.6 279.59 1955.56 359.62 1825.97 359.62 1825.97 277.46 1904.66 277.46 1939.71 242.41" style="fill: rgb(255, 255, 255);"/>
  <rect x="2129.43" y="7.29" class="st1" width="95.89" height="665.04" style="fill: rgb(255, 255, 255);"/>
  <rect x="2091.01" y="576.16" transform="matrix(0, 1, -1, 0, 2763.345459, -1500.839478)" class="st1" width="82.16" height="110.19" style="fill: rgb(255, 255, 255);"/>
  <rect x="2091.01" y="-6.72" transform="matrix(0, 1, -1, 0, 2180.461426, -2083.723389)" class="st1" width="82.16" height="110.19" style="fill: rgb(255, 255, 255);"/>
  <polygon class="st1" points="2356.16 182.43 2452.04 182.43 2452.04 87.33 2372.01 7.29 2242.42 7.29 2242.42 89.45 2321.1 89.45 2356.16 124.5" style="fill: rgb(255, 255, 255);"/>
  <polygon class="st1" points="2356.16 152.15 2452.04 152.15 2452.04 279.59 2372.01 359.62 2242.42 359.62 2242.42 277.46 2321.1 277.46 2356.16 242.41" style="fill: rgb(255, 255, 255);"/>
  <polygon class="st1" points="1952.41 376.73 1852.49 376.73 1939.2 672.33 2039.13 672.33" style="fill: rgb(255, 255, 255);"/>
  <rect x="2524.22" y="7.29" class="st1" width="95.89" height="665.04" style="fill: rgb(255, 255, 255);"/>
  <rect x="2485.8" y="576.16" transform="matrix(0, 1, -1, 0, 3158.133057, -1895.627197)" class="st1" width="82.16" height="110.19" style="fill: rgb(255, 255, 255);"/>
  <rect x="2766.17" y="576.16" transform="matrix(0, 1, -1, 0, 3438.505371, -2175.999512)" class="st1" width="82.16" height="110.19" style="fill: rgb(255, 255, 255);"/>
  <rect x="2485.8" y="-6.72" transform="matrix(0, 1, -1, 0, 2575.249268, -2478.510986)" class="st1" width="82.16" height="110.19" style="fill: rgb(255, 255, 255);"/>
  <polygon class="st1" points="2750.94 182.43 2846.83 182.43 2846.83 87.33 2766.8 7.29 2637.21 7.29 2637.21 89.45 2715.89 89.45 2750.94 124.5" style="fill: rgb(255, 255, 255);"/>
  <polygon class="st1" points="2750.94 152.15 2846.83 152.15 2846.83 279.59 2766.8 359.62 2637.21 359.62 2637.21 277.46 2715.89 277.46 2750.94 242.41" style="fill: rgb(255, 255, 255);"/>
  <polygon class="st1" points="3234.84 187.29 3138.96 187.29 3138.96 282.39 3218.99 362.43 3348.58 362.43 3348.58 280.27 3269.9 280.27 3234.84 245.22" style="fill: rgb(255, 255, 255);"/>
  <polygon class="st1" points="3234.84 207.48 3138.96 207.48 3138.96 80.04 3218.99 0 3361.39 0 3361.39 82.16 3269.9 82.16 3234.84 117.21" style="fill: rgb(255, 255, 255);"/>
  <polygon class="st1" points="3365.59 499.81 3461.48 499.81 3461.48 360.3 3381.44 280.27 3251.85 280.27 3251.85 362.43 3330.54 362.43 3365.59 397.48" style="fill: rgb(255, 255, 255);"/>
  <polygon class="st1" points="3365.59 484.76 3461.48 484.76 3461.48 579.87 3381.44 659.9 3239.05 659.9 3239.05 577.74 3330.54 577.74 3365.59 542.69" style="fill: rgb(255, 255, 255);"/>
  <polygon class="st1" points="2763.65 376.73 2663.72 376.73 2750.43 672.33 2850.36 672.33" style="fill: rgb(255, 255, 255);"/>
  <polygon class="st1" points="767.76 541.15 767.76 89.45 820.19 89.45 820.19 7.29 767.76 7.29 697.66 7.29 671.87 7.29 671.87 330.12" style="fill: rgb(255, 255, 255);"/>
  <polygon class="st1" points="438.4 130.79 438.4 590.17 385.97 590.17 385.97 672.33 438.4 672.33 508.49 672.33 534.29 672.33 534.29 341.81" style="fill: rgb(255, 255, 255);"/>
  <polygon class="st1" points="771.25 590.17 769.51 586.34 524.25 46.59 506.39 7.29 382.43 7.29 382.43 89.45 438.38 89.45 438.4 89.44 438.4 89.45 438.4 89.45 438.4 89.45 534.29 300.47 534.29 300.47 703.26 672.33 820.79 672.33 820.79 590.17" style="fill: rgb(255, 255, 255);"/>
  <rect y="691.48" class="st1" width="608.05" height="82.16" style="fill: rgb(255, 255, 255);"/>
  <rect x="646.19" y="691.48" class="st1" width="608.05" height="82.16" style="fill: rgb(255, 255, 255);"/>
  <rect x="1292.38" y="691.48" class="st1" width="608.05" height="82.16" style="fill: rgb(255, 255, 255);"/>
  <rect x="1938.57" y="691.48" class="st1" width="608.05" height="82.16" style="fill: rgb(255, 255, 255);"/>
  <rect x="2584.76" y="691.48" class="st1" width="608.05" height="82.16" style="fill: rgb(255, 255, 255);"/>
  <rect x="3230.95" y="691.48" class="st1" width="608.05" height="82.16" style="fill: rgb(255, 255, 255);"/>
</svg>