<?xml version="1.0" encoding="utf-8"?>
<svg version="1.1" viewBox="0 0 3839 513.2" xmlns="http://www.w3.org/2000/svg">
  <path class="st89" d="M 485.8 0 L 0 0 L 0 65.4 L 395.2 204.4 L 620.5 204.4 L 620.5 134.6 C 620.5 60.3 560.2 0 485.8 0 Z M 377.1 216.2 L 206.9 156.3 L 206.9 400.7 L 131.2 427.8 L 131.2 513.2 L 432 513.2 L 432 369.6 L 377.1 369.6 L 377.1 216.2 Z M 395.2 351.5 L 620.5 351.5 L 620.5 222.5 L 395.2 222.5 L 395.2 351.5 Z" style="fill: rgb(255, 255, 255);"/>
  <path class="st89" d="M 824.1 180.8 L 824.1 233.8 L 942.9 233.8 L 942.9 283.6 L 824.1 283.6 L 824.1 380 L 769.3 380 L 769.3 131 L 958.9 131 L 958.9 180.8 L 824.1 180.8 Z" style="fill: rgb(255, 255, 255);"/>
  <path class="st89" d="M 996.3 380 L 996.3 131 L 1051.1 131 L 1051.1 380 L 996.3 380 Z" style="fill: rgb(255, 255, 255);"/>
  <path class="st89" d="M 1279 380 L 1158.4 221.7 L 1158.4 380 L 1104.3 380 L 1104.3 131 L 1154.8 131 L 1271.5 284.3 L 1271.5 131 L 1325.6 131 L 1325.6 380 L 1279 380 Z" style="fill: rgb(255, 255, 255);"/>
  <path class="st89" d="M 1561.8 380 L 1539 324.2 L 1433.7 324.2 L 1411 380 L 1355.2 380 L 1461.9 129.2 L 1512.4 129.2 L 1619.1 380 L 1561.8 380 Z M 1486.4 195.1 L 1453.3 275.8 L 1519.5 275.8 L 1486.4 195.1 Z" style="fill: rgb(255, 255, 255);"/>
  <path class="st89" d="M 1648.6 380 L 1648.6 131 L 1703.4 131 L 1703.4 330.2 L 1827.5 330.2 L 1827.5 380 L 1648.6 380 Z" style="fill: rgb(255, 255, 255);"/>
  <path class="st89" d="M 2076.2 380 L 1957.8 380 L 1957.8 131 L 2073.4 131 C 2124.3 131 2155.6 156.3 2155.6 195.4 L 2155.6 196.1 C 2155.6 224.2 2140.7 239.9 2122.9 249.8 C 2151.7 260.8 2169.5 277.5 2169.5 311 L 2169.5 311.7 C 2169.3 357.3 2132.4 380 2076.2 380 Z M 2101.1 204.7 C 2101.1 188.3 2088.3 179.1 2065.2 179.1 L 2011.1 179.1 L 2011.1 231.7 L 2061.6 231.7 C 2085.8 231.7 2101.1 223.9 2101.1 205.4 L 2101.1 204.7 Z M 2114.9 304.3 C 2114.9 287.6 2102.5 277.3 2074.3 277.3 L 2011 277.3 L 2011 332 L 2076.1 332 C 2100.3 332 2114.9 323.5 2114.9 305 L 2114.9 304.3 Z" style="fill: rgb(255, 255, 255);"/>
  <path class="st89" d="M 2309.5 383.9 C 2242.6 383.9 2201.7 346.6 2201.7 273.3 L 2201.7 131 L 2256.5 131 L 2256.5 271.9 C 2256.5 312.4 2276.8 333.4 2310.2 333.4 C 2343.6 333.4 2363.9 313.1 2363.9 273.6 L 2363.9 131 L 2418.7 131 L 2418.7 271.5 C 2418.7 347 2376.4 383.9 2309.5 383.9 Z" style="fill: rgb(255, 255, 255);"/>
  <path class="st89" d="M 2616.8 380 L 2563.4 300.3 L 2520.4 300.3 L 2520.4 380 L 2465.6 380 L 2465.6 131 L 2579.4 131 C 2638.1 131 2673.3 161.9 2673.3 213.2 L 2673.3 213.9 C 2673.3 254.1 2651.6 279.3 2619.9 291.1 L 2680.7 380 L 2616.8 380 Z M 2617.9 216.1 C 2617.9 192.6 2601.5 180.5 2574.9 180.5 L 2520.5 180.5 L 2520.5 252 L 2576 252 C 2602.7 252 2618 237.8 2618 216.8 L 2618 216.1 Z" style="fill: rgb(255, 255, 255);"/>
  <path class="st89" d="M 2888.6 380 L 2768 221.7 L 2768 380 L 2713.9 380 L 2713.9 131 L 2764.4 131 L 2881.1 284.3 L 2881.1 131 L 2935.2 131 L 2935.2 380 L 2888.6 380 Z" style="fill: rgb(255, 255, 255);"/>
  <path class="st89" d="M 3258.5 380 L 3137.9 221.7 L 3137.9 380 L 3083.8 380 L 3083.8 131 L 3134.3 131 L 3251 284.4 L 3251 131 L 3305.1 131 L 3305.1 380 L 3258.5 380 Z" style="fill: rgb(255, 255, 255);"/>
  <path class="st89" d="M 3356 380 L 3356 131 L 3543.8 131 L 3543.8 179.7 L 3410.4 179.7 L 3410.4 230.2 L 3527.8 230.2 L 3527.8 279 L 3410.4 279 L 3410.4 331.3 L 3545.6 331.3 L 3545.6 380 L 3356 380 Z" style="fill: rgb(255, 255, 255);"/>
  <path class="st89" d="M 3706.3 384.3 C 3629.5 384.3 3574.3 327 3574.3 256.2 L 3574.3 255.5 C 3574.3 184.7 3630.1 126.7 3707 126.7 C 3783.8 126.7 3839 184 3839 254.8 L 3839 255.5 C 3839 326.3 3783.2 384.3 3706.3 384.3 Z M 3781.7 255.5 C 3781.7 212.8 3750.4 177.2 3706.3 177.2 C 3662.2 177.2 3631.6 212.1 3631.6 254.7 L 3631.6 255.4 C 3631.6 298.1 3662.9 333.7 3707 333.7 C 3751.1 333.7 3781.7 298.8 3781.7 256.2 L 3781.7 255.5 Z" style="fill: rgb(255, 255, 255);"/>
</svg>