<?xml version="1.0" encoding="utf-8"?>
<svg id="svg2" version="1.1" viewBox="0 0 264 73" xmlns="http://www.w3.org/2000/svg">
  <g transform="matrix(0.880001, 0, 0, 0.875297, 0.000039, -0.000067)">
    <path id="path5256" d="M 144.397 67.576 C 143.915 66.113 142.639 64.719 142.639 64.719 C 142.639 64.719 140.724 62.233 136.96 61.383 C 133.737 60.709 131.206 62.13 131.206 62.13 C 131.206 62.13 128.907 63.051 127.179 64.956 C 124.427 67.604 123.635 71.471 123.635 71.471 C 123.635 71.471 122.58 74.837 124.251 77.504 L 126.066 79.7 C 128.629 81.838 131.367 82.055 131.367 82.055 C 131.367 82.055 133.577 82.554 136.156 81.882 C 138.41 81.426 140.05 80.313 140.05 80.313 C 140.05 80.313 143.783 78.249 144.808 74.034 L 144.397 67.576 Z M 138.582 74.588 C 138.582 74.588 137.09 77.195 133.811 76.886 C 129.96 76.492 129.507 73.11 129.507 73.11 C 129.507 73.11 128.979 70.621 131.351 68.453 C 133.753 66.435 136.257 66.741 136.257 66.741 C 136.257 66.741 137.939 66.901 138.805 69.684 C 139.917 73.227 138.582 74.588 138.582 74.588" style="fill-opacity: 1; fill: rgb(255, 255, 255);"/>
    <path id="path5262" d="M 156.841 74.632 C 155.609 74.361 153.634 74.866 153.634 74.866 C 153.634 74.866 150.883 75.876 150.458 75.861 C 150.296 75.628 149.947 71.132 150.047 69.332 C 150.107 66.155 149.841 63.563 149.841 63.563 C 149.841 63.563 149.71 60.502 148.07 58.688 C 146.138 56.74 144.79 57.576 144.015 58.042 C 142.155 59.713 143.02 61.746 143.02 61.746 L 143.986 64.486 C 143.986 64.486 144.454 65.657 144.397 67.574 L 144.806 74.032 C 144.806 74.896 145.509 80.709 145.509 80.709 C 145.509 80.709 145.581 82.598 147.397 82.934 C 149.258 83.242 151.087 82.318 151.863 81.951 C 152.639 81.587 153.664 81.265 153.664 81.265 C 153.664 81.265 154.513 81.074 155.362 81.002 C 157.354 80.81 158.07 80.461 158.07 80.461 C 158.07 80.461 158.84 80.344 159.36 79.61 C 159.878 78.877 160.504 75.439 156.841 74.632" style="fill-opacity: 1; fill: rgb(255, 255, 255);"/>
    <path id="path5264" d="M 124.251 77.501 C 122.941 77.11 121.441 77.371 121.441 77.371 C 121.441 77.371 117.194 77.78 114.983 77.312 C 111.558 76.712 111.672 73.022 111.672 73.022 C 111.672 73.022 111.558 70.575 113.621 67.267 C 116.169 63.182 118.981 62.45 118.981 62.45 C 118.981 62.45 119.681 62.187 120.341 62.538 C 120.751 64.908 123.048 64.893 123.048 64.893 C 123.048 64.893 126.36 65.115 126.196 61.103 C 125.816 57.808 122.64 57.356 121.307 57.047 C 117.312 56.329 114.717 58.468 114.717 58.468 C 114.717 58.468 112.039 59.916 108.833 64.967 C 106.649 68.1 106.386 70.562 106.386 70.562 C 106.386 70.562 106.124 71.146 106.225 73.754 C 106.168 75.788 106.93 77.267 106.93 77.267 C 106.93 77.267 108.086 80.769 111.747 82.203 C 113.972 83.125 117.222 83.111 117.222 83.111 C 117.222 83.111 120.37 83.066 122.785 82.935 C 124.104 83.037 124.733 82.348 124.733 82.348 C 124.733 82.348 126.21 81.382 126.065 79.698 C 126.065 79.698 125.779 77.959 124.251 77.501" style="fill-opacity: 1; fill: rgb(255, 255, 255);"/>
    <path id="path5258" d="M 177.442 66.799 C 174.882 62.613 170.371 61.983 170.371 61.983 C 170.371 61.983 168.936 61.498 165.862 61.907 C 160.094 63.007 158.087 67.443 158.087 67.443 C 158.087 67.443 156.022 70.693 156.842 74.632 L 159.363 79.61 C 161.222 81.353 161.983 81.353 162.099 81.457 C 164.56 82.569 167.414 81.925 167.414 81.925 C 167.414 81.925 171.018 81.573 174.312 79.01 C 176.946 77.078 178.089 74.238 178.089 74.238 L 178.438 70.426 L 177.442 66.799 L 177.442 66.799 Z M 170.431 75.348 C 166.288 77.839 163.679 75.115 163.679 75.115 C 163.679 75.115 162.523 74.353 162.273 72.04 C 162.096 69.361 164.764 67.97 164.764 67.97 C 164.764 67.97 166.169 67.105 167.926 67.238 C 169.682 67.369 170.237 67.253 171.66 68.308 C 173.005 69.522 172.917 70.414 172.917 70.414 C 172.917 70.414 173.401 73.432 170.431 75.348" style="fill-opacity: 1; fill: rgb(255, 255, 255);"/>
    <path id="path5260" d="M 178.087 74.238 C 178.087 74.238 178.175 76.58 177.809 77.152 C 177.311 78.22 177.385 79.258 177.385 79.258 C 177.385 79.258 177.046 82.422 180.71 82.947 C 183.225 82.934 183.533 80.839 183.577 79.946 C 183.722 79.244 183.665 75.979 183.665 75.979 L 186.931 78.643 C 186.931 78.643 189.302 80.634 190.695 81.79 C 192.144 82.932 192.509 83.138 192.509 83.138 C 192.509 83.138 192.817 83.503 193.929 83.371 C 194.824 83.387 195.644 82.58 195.644 82.58 C 195.644 82.58 196.681 81.821 196.945 80.487 C 197.266 78.906 196.037 78.13 196.037 78.13 C 196.037 78.13 191.5 74.469 188.426 71.951 C 190.488 70.823 191.484 70.049 191.484 70.049 C 191.484 70.049 194.356 68.145 194.969 65.231 C 195.82 62.023 193.403 60.765 193.403 60.765 C 193.403 60.765 191.894 59.682 190.622 59.11 C 187.414 57.544 184.428 57.865 184.428 57.865 C 184.428 57.865 180.182 57.573 177.416 60.986 C 176.141 62.639 176.933 64.807 176.933 64.807 C 176.933 64.807 177.09 65.154 177.445 66.797 C 178.154 70.106 178.087 74.238 178.087 74.238 L 178.087 74.238 Z M 183.651 67.736 L 183.373 63.915 C 183.373 63.915 186.052 63.856 187.165 64.047 C 189.362 64.382 189.243 64.999 189.243 64.999 C 189.243 64.999 189.17 65.775 187.502 66.536 C 185.688 67.414 183.651 67.736 183.651 67.736" style="fill-opacity: 1; fill: rgb(255, 255, 255);"/>
    <path d="M 286.97198486328125 0.484000027179718 L 300 0.484000027179718 L 281.63299560546875 29.05699920654297 L 278.65399169921875 51.347999572753906 L 266.8800048828125 51.347999572753906 L 270.33099365234375 25.913000106811523 L 258.5570068359375 0.484000027179718 L 271.2720031738281 0.484000027179718 L 277.5539855957031 14.928999900817871 Z" id="_43443024" style="fill: rgb(255, 255, 255);"/>
    <path d="M 149.7729949951172 31.253000259399414 L 165.30999755859375 31.253000259399414 L 166.88099670410156 19.951000213623047 L 151.49899291992188 19.951000213623047 L 152.60000610351562 11.78600025177002 L 170.49099731445312 11.78600025177002 L 172.2209930419922 0.484000027179718 L 142.55099487304688 0.484000027179718 L 135.48699951171875 51.347999572753906 L 164.9980010986328 51.347999572753906 L 166.5679931640625 40.04100036621094 L 148.67300415039062 40.04100036621094 Z" id="_43441624" style="fill: rgb(255, 255, 255);"/>
    <path id="_43775888" d="M 59.352 26.227 L 63.277 15.71 L 64.534 26.227 L 59.353 26.227 Z M 55.114 36.274 L 65.787 36.274 L 67.673 51.344 L 86.98 51.344 L 95.929 23.715 L 100.325 51.344 L 110.53 51.344 L 121.832 22.146 L 123.716 51.344 L 135.017 51.344 L 131.878 0.482 L 118.377 0.482 L 107.858 27.325 L 103.776 0.482 L 91.689 0.482 L 77.874 42.239 L 72.694 0.482 L 57.624 0.482 L 40.826 42.708 L 43.024 26.227 L 22.614 26.227 L 21.2 36.272 L 30.149 36.272 L 29.52 39.726 C 27.951 40.667 24.341 40.825 22.928 40.825 C 21.516 40.825 10.998 39.884 11.468 28.58 C 11.936 17.279 27.005 6.761 44.901 12.569 L 46.629 1.737 C 34.698 -2.343 3.363 -0.059 0.161 27.952 C -1.721 44.436 13.35 52.285 23.395 52.13 C 29.203 52.444 35.798 50.246 38.151 48.989 L 37.367 51.344 L 49.298 51.344 L 55.106 36.274 Z" style="fill: rgb(255, 255, 255);"/>
    <path id="_44102912" d="M 245.841 0.014 C 237.678 -0.301 225.904 4.409 221.98 23.404 C 218.056 42.397 228.572 50.09 238.306 51.347 C 248.039 52.602 261.697 46.48 264.207 28.271 C 266.722 10.06 257.768 0.485 245.841 0.014 Z M 244.588 10.846 C 247.884 10.846 254.947 13.044 253.22 26.228 C 251.494 39.415 243.331 40.985 240.349 40.672 C 237.364 40.356 231.243 38.317 232.97 26.228 C 234.7 14.143 241.135 10.688 244.591 10.846 Z" style="fill: rgb(255, 255, 255);"/>
    <path id="_44104296" d="M 196.234 19.951 L 202.828 19.951 C 207.693 19.951 208.636 16.811 208.791 15.556 C 208.948 14.3 207.536 11.788 205.026 11.788 L 197.334 11.788 L 196.238 19.951 Z M 193.408 40.044 L 202.357 40.044 C 207.222 40.044 208.321 36.277 208.478 35.02 C 208.635 33.765 207.222 31.253 204.711 31.253 L 194.665 31.253 L 193.41 40.044 Z M 180.226 51.347 L 187.291 0.485 L 208.953 0.485 C 214.135 0.485 221.669 6.452 220.728 14.456 C 219.786 22.463 217.274 22.935 215.547 24.19 C 218.217 26.543 220.884 30.31 219.786 37.375 C 218.686 44.441 212.878 51.347 202.676 51.347 L 180.227 51.347 Z" style="fill: rgb(255, 255, 255);"/>
  </g>
</svg>