<?xml version="1.0" encoding="UTF-8" standalone="no"?><!-- Generator: Gravit.io --><svg xmlns="http://www.w3.org/2000/svg" xmlns:xlink="http://www.w3.org/1999/xlink" style="isolation:isolate" viewBox="0 0 289 128" width="289pt" height="128pt"><defs><clipPath id="_clipPath_SMBtqcNlaJrSyjsVVn3KCLL6YEr2tBov"><rect width="289" height="128"/></clipPath></defs><g clip-path="url(#_clipPath_SMBtqcNlaJrSyjsVVn3KCLL6YEr2tBov)"><path d=" M 269 60 L 269 30 L 178.945 30 L 179 60 L 179 60 L 179 90 L 205 90 L 205 60 L 205 60 L 209 60 L 209 60 L 209 60 L 209 60 L 209 60 L 209 90 L 236 90 L 236 60 L 240 60 L 240 90 L 269 90 L 269 60 L 269 60 L 269 60 L 269 60 Z  M 77.99 30 L 51 30 L 51 30 L 51 30 L 51 30 L 51 30 L 51 30 L 51 30 L 51 30 L 51 30 L 51 30 L 51 30 L 51 90 L 79 90 L 79 58 L 111 58 L 111 30 L 79 30 L 77.99 30 L 77.99 30 L 77.99 30 L 77.99 30 L 77.99 30 Z  M 175 52 L 175 69 L 135 69 L 135 69 L 135 73 L 135 73 L 174.5 73 L 174.5 90 L 135 90 L 135 90 L 114 90 L 114 30 L 135 30 L 135 30 L 135 30 L 175 30 L 175 48 L 135 48 L 135 52 L 153 52 L 153 48 L 175 48 L 175 52 L 175 52 L 175 52 L 175 52 L 175 52 L 175 52 L 175 52 L 175 52 L 175 52 L 175 52 L 175 52 Z  M 22.898 3 L 44.415 3 L 44.415 23 L 22.898 23 L 22.898 3 L 22.898 3 L 22.898 3 L 22.898 3 Z  M 22.898 33 L 44.415 33 L 44.415 87 L 22.898 87 L 22.898 33 L 22.898 33 L 22.898 33 Z  M 20 0 L 47 0 L 47 26 L 20 26 L 20 0 L 20 0 L 20 0 L 20 0 Z  M 20 30 L 47 30 L 47 90 L 20 90 L 20 30 L 20 30 L 20 30 Z  M 148.054 107.968 L 148.054 107.968 Q 146.529 107.968 145.286 107.244 L 145.286 107.244 L 145.286 107.244 Q 144.042 106.519 143.318 105.261 L 143.318 105.261 L 143.318 105.261 Q 142.593 104.002 142.593 102.477 L 142.593 102.477 L 142.593 102.477 Q 142.593 100.921 143.295 99.67 L 143.295 99.67 L 143.295 99.67 Q 143.997 98.419 145.217 97.709 L 145.217 97.709 L 145.217 97.709 Q 146.437 97 147.963 97 L 147.963 97 L 147.963 97 Q 148.787 97 149.58 97.198 L 149.58 97.198 L 149.58 97.198 Q 150.373 97.397 150.938 97.763 L 150.938 97.763 L 150.526 100.127 L 150.526 100.127 Q 149.427 99.715 148.543 99.715 L 148.543 99.715 L 148.543 99.715 Q 147.322 99.715 146.666 100.425 L 146.666 100.425 L 146.666 100.425 Q 146.01 101.134 146.01 102.461 L 146.01 102.461 L 146.01 102.461 Q 146.01 103.758 146.704 104.483 L 146.704 104.483 L 146.704 104.483 Q 147.398 105.207 148.634 105.207 L 148.634 105.207 L 148.634 105.207 Q 149.107 105.207 149.519 105.116 L 149.519 105.116 L 149.519 105.116 Q 149.931 105.024 150.526 104.78 L 150.526 104.78 L 150.953 107.19 L 150.953 107.19 Q 149.626 107.968 148.054 107.968 L 148.054 107.968 L 148.054 107.968 Z  M 160.54 107.724 L 160.54 97.229 L 163.835 97.229 L 163.835 105.406 L 167.481 105.406 L 167.481 107.724 L 160.54 107.724 L 160.54 107.724 Z  M 180.241 103.834 L 182.27 103.834 L 181.279 99.242 L 180.241 103.834 L 180.241 103.834 Z  M 199.088 107.968 L 199.088 107.968 Q 196.937 107.968 195.458 107.175 L 195.458 107.175 L 196.22 104.811 L 196.22 104.811 Q 197.792 105.375 199.027 105.375 L 199.027 105.375 L 199.027 105.375 Q 199.699 105.375 200.011 105.215 L 200.011 105.215 L 200.011 105.215 Q 200.324 105.055 200.324 104.734 L 200.324 104.734 L 200.324 104.734 Q 200.324 104.521 200.156 104.361 L 200.156 104.361 L 200.156 104.361 Q 199.988 104.2 199.485 104.002 L 199.485 104.002 L 199.485 104.002 Q 198.982 103.804 197.975 103.514 L 197.975 103.514 L 197.975 103.514 Q 196.739 103.148 196.053 102.316 L 196.053 102.316 L 196.053 102.316 Q 195.366 101.485 195.366 100.402 L 195.366 100.402 L 195.366 100.402 Q 195.366 98.724 196.472 97.862 L 196.472 97.862 L 196.472 97.862 Q 197.578 97 199.455 97 L 199.455 97 L 199.455 97 Q 200.431 97 201.377 97.206 L 201.377 97.206 L 201.377 97.206 Q 202.323 97.412 203.055 97.809 L 203.055 97.809 L 202.231 100.112 L 202.231 100.112 Q 201.377 99.822 200.744 99.693 L 200.744 99.693 L 200.744 99.693 Q 200.111 99.563 199.516 99.563 L 199.516 99.563 L 199.516 99.563 Q 198.509 99.563 198.509 100.112 L 198.509 100.112 L 198.509 100.112 Q 198.509 100.387 198.837 100.577 L 198.837 100.577 L 198.837 100.577 Q 199.165 100.768 200.187 101.058 L 200.187 101.058 L 200.187 101.058 Q 201.789 101.485 202.612 102.362 L 202.612 102.362 L 202.612 102.362 Q 203.436 103.239 203.436 104.46 L 203.436 104.46 L 203.436 104.46 Q 203.436 106.153 202.338 107.061 L 202.338 107.061 L 202.338 107.061 Q 201.239 107.968 199.088 107.968 L 199.088 107.968 L 199.088 107.968 Z  M 216.257 107.968 L 216.257 107.968 Q 214.106 107.968 212.627 107.175 L 212.627 107.175 L 213.389 104.811 L 213.389 104.811 Q 214.961 105.375 216.196 105.375 L 216.196 105.375 L 216.196 105.375 Q 216.868 105.375 217.18 105.215 L 217.18 105.215 L 217.18 105.215 Q 217.493 105.055 217.493 104.734 L 217.493 104.734 L 217.493 104.734 Q 217.493 104.521 217.325 104.361 L 217.325 104.361 L 217.325 104.361 Q 217.157 104.2 216.654 104.002 L 216.654 104.002 L 216.654 104.002 Q 216.151 103.804 215.144 103.514 L 215.144 103.514 L 215.144 103.514 Q 213.908 103.148 213.222 102.316 L 213.222 102.316 L 213.222 102.316 Q 212.535 101.485 212.535 100.402 L 212.535 100.402 L 212.535 100.402 Q 212.535 98.724 213.641 97.862 L 213.641 97.862 L 213.641 97.862 Q 214.747 97 216.624 97 L 216.624 97 L 216.624 97 Q 217.6 97 218.546 97.206 L 218.546 97.206 L 218.546 97.206 Q 219.491 97.412 220.224 97.809 L 220.224 97.809 L 219.4 100.112 L 219.4 100.112 Q 218.546 99.822 217.913 99.693 L 217.913 99.693 L 217.913 99.693 Q 217.28 99.563 216.685 99.563 L 216.685 99.563 L 216.685 99.563 Q 215.678 99.563 215.678 100.112 L 215.678 100.112 L 215.678 100.112 Q 215.678 100.387 216.006 100.577 L 216.006 100.577 L 216.006 100.577 Q 216.334 100.768 217.356 101.058 L 217.356 101.058 L 217.356 101.058 Q 218.958 101.485 219.781 102.362 L 219.781 102.362 L 219.781 102.362 Q 220.605 103.239 220.605 104.46 L 220.605 104.46 L 220.605 104.46 Q 220.605 106.153 219.507 107.061 L 219.507 107.061 L 219.507 107.061 Q 218.408 107.968 216.257 107.968 L 216.257 107.968 L 216.257 107.968 Z  M 230.253 107.724 L 230.253 97.229 L 233.777 97.229 L 233.777 107.724 L 230.253 107.724 L 230.253 107.724 Z  M 248.917 107.968 L 248.917 107.968 Q 247.392 107.968 246.149 107.244 L 246.149 107.244 L 246.149 107.244 Q 244.905 106.519 244.181 105.261 L 244.181 105.261 L 244.181 105.261 Q 243.456 104.002 243.456 102.477 L 243.456 102.477 L 243.456 102.477 Q 243.456 100.921 244.158 99.67 L 244.158 99.67 L 244.158 99.67 Q 244.859 98.419 246.08 97.709 L 246.08 97.709 L 246.08 97.709 Q 247.3 97 248.826 97 L 248.826 97 L 248.826 97 Q 249.65 97 250.443 97.198 L 250.443 97.198 L 250.443 97.198 Q 251.236 97.397 251.801 97.763 L 251.801 97.763 L 251.389 100.127 L 251.389 100.127 Q 250.29 99.715 249.405 99.715 L 249.405 99.715 L 249.405 99.715 Q 248.185 99.715 247.529 100.425 L 247.529 100.425 L 247.529 100.425 Q 246.873 101.134 246.873 102.461 L 246.873 102.461 L 246.873 102.461 Q 246.873 103.758 247.567 104.483 L 247.567 104.483 L 247.567 104.483 Q 248.261 105.207 249.497 105.207 L 249.497 105.207 L 249.497 105.207 Q 249.97 105.207 250.382 105.116 L 250.382 105.116 L 250.382 105.116 Q 250.794 105.024 251.389 104.78 L 251.389 104.78 L 251.816 107.19 L 251.816 107.19 Q 250.489 107.968 248.917 107.968 L 248.917 107.968 L 248.917 107.968 Z  M 264.652 107.968 L 264.652 107.968 Q 262.501 107.968 261.022 107.175 L 261.022 107.175 L 261.784 104.811 L 261.784 104.811 Q 263.356 105.375 264.591 105.375 L 264.591 105.375 L 264.591 105.375 Q 265.263 105.375 265.575 105.215 L 265.575 105.215 L 265.575 105.215 Q 265.888 105.055 265.888 104.734 L 265.888 104.734 L 265.888 104.734 Q 265.888 104.521 265.72 104.361 L 265.72 104.361 L 265.72 104.361 Q 265.552 104.2 265.049 104.002 L 265.049 104.002 L 265.049 104.002 Q 264.546 103.804 263.539 103.514 L 263.539 103.514 L 263.539 103.514 Q 262.303 103.148 261.617 102.316 L 261.617 102.316 L 261.617 102.316 Q 260.93 101.485 260.93 100.402 L 260.93 100.402 L 260.93 100.402 Q 260.93 98.724 262.036 97.862 L 262.036 97.862 L 262.036 97.862 Q 263.142 97 265.018 97 L 265.018 97 L 265.018 97 Q 265.995 97 266.941 97.206 L 266.941 97.206 L 266.941 97.206 Q 267.886 97.412 268.619 97.809 L 268.619 97.809 L 267.795 100.112 L 267.795 100.112 Q 266.941 99.822 266.307 99.693 L 266.307 99.693 L 266.307 99.693 Q 265.674 99.563 265.079 99.563 L 265.079 99.563 L 265.079 99.563 Q 264.073 99.563 264.073 100.112 L 264.073 100.112 L 264.073 100.112 Q 264.073 100.387 264.401 100.577 L 264.401 100.577 L 264.401 100.577 Q 264.729 100.768 265.751 101.058 L 265.751 101.058 L 265.751 101.058 Q 267.352 101.485 268.176 102.362 L 268.176 102.362 L 268.176 102.362 Q 269 103.239 269 104.46 L 269 104.46 L 269 104.46 Q 269 106.153 267.902 107.061 L 267.902 107.061 L 267.902 107.061 Q 266.803 107.968 264.652 107.968 L 264.652 107.968 L 264.652 107.968 Z  M 24.195 103.834 L 26.224 103.834 L 25.232 99.242 L 24.195 103.834 L 24.195 103.834 Z  M 43.134 101.607 L 43.713 101.607 L 43.713 101.607 Q 44.842 101.607 45.308 101.355 L 45.308 101.355 L 45.308 101.355 Q 45.773 101.104 45.773 100.493 L 45.773 100.493 L 45.773 100.493 Q 45.773 99.975 45.391 99.738 L 45.391 99.738 L 45.391 99.738 Q 45.01 99.502 44.186 99.502 L 44.186 99.502 L 43.134 99.502 L 43.134 101.607 L 43.134 101.607 Z  M 63.521 107.968 L 63.521 107.968 Q 61.996 107.968 60.753 107.244 L 60.753 107.244 L 60.753 107.244 Q 59.509 106.519 58.785 105.261 L 58.785 105.261 L 58.785 105.261 Q 58.06 104.002 58.06 102.477 L 58.06 102.477 L 58.06 102.477 Q 58.06 100.921 58.762 99.67 L 58.762 99.67 L 58.762 99.67 Q 59.464 98.419 60.684 97.709 L 60.684 97.709 L 60.684 97.709 Q 61.904 97 63.43 97 L 63.43 97 L 63.43 97 Q 64.254 97 65.047 97.198 L 65.047 97.198 L 65.047 97.198 Q 65.84 97.397 66.405 97.763 L 66.405 97.763 L 65.993 100.127 L 65.993 100.127 Q 64.894 99.715 64.01 99.715 L 64.01 99.715 L 64.01 99.715 Q 62.789 99.715 62.133 100.425 L 62.133 100.425 L 62.133 100.425 Q 61.477 101.134 61.477 102.461 L 61.477 102.461 L 61.477 102.461 Q 61.477 103.758 62.171 104.483 L 62.171 104.483 L 62.171 104.483 Q 62.866 105.207 64.101 105.207 L 64.101 105.207 L 64.101 105.207 Q 64.574 105.207 64.986 105.116 L 64.986 105.116 L 64.986 105.116 Q 65.398 105.024 65.993 104.78 L 65.993 104.78 L 66.42 107.19 L 66.42 107.19 Q 65.093 107.968 63.521 107.968 L 63.521 107.968 L 63.521 107.968 Z  M 79.287 103.834 L 81.316 103.834 L 80.324 99.242 L 79.287 103.834 L 79.287 103.834 Z  M 98.256 104.978 L 99.293 104.978 L 99.293 104.978 Q 100.438 104.978 101.04 104.254 L 101.04 104.254 L 101.04 104.254 Q 101.643 103.529 101.643 102.37 L 101.643 102.37 L 101.643 102.37 Q 101.643 101.271 101.055 100.623 L 101.055 100.623 L 101.055 100.623 Q 100.468 99.975 99.293 99.975 L 99.293 99.975 L 98.256 99.975 L 98.256 104.978 L 98.256 104.978 Z  M 114.754 107.724 L 114.754 97.229 L 122.122 97.229 L 122.122 99.548 L 118.461 99.548 L 118.461 101.454 L 121.802 101.454 L 121.802 103.377 L 118.461 103.377 L 118.461 105.406 L 122.122 105.406 L 122.122 107.724 L 114.754 107.724 L 114.754 107.724 Z  M 176.046 107.724 L 178.945 97.229 L 183.582 97.229 L 186.618 107.724 L 183.033 107.724 L 182.636 105.711 L 179.921 105.711 L 179.479 107.724 L 176.046 107.724 L 176.046 107.724 Z  M 20 107.724 L 22.898 97.229 L 27.536 97.229 L 30.572 107.724 L 26.987 107.724 L 26.59 105.711 L 23.875 105.711 L 23.432 107.724 L 20 107.724 L 20 107.724 Z  M 47.741 107.968 L 47.741 107.968 Q 44.873 107.968 44.232 105.314 L 44.232 105.314 L 43.851 103.743 L 43.134 103.743 L 43.134 107.724 L 39.793 107.724 L 39.793 97.229 L 44.415 97.229 L 44.415 97.229 Q 45.727 97.229 46.726 97.618 L 46.726 97.618 L 46.726 97.618 Q 47.725 98.007 48.275 98.709 L 48.275 98.709 L 48.275 98.709 Q 48.824 99.41 48.824 100.326 L 48.824 100.326 L 48.824 100.326 Q 48.824 101.348 48.328 102.042 L 48.328 102.042 L 48.328 102.042 Q 47.832 102.736 46.795 103.178 L 46.795 103.178 L 46.795 103.178 Q 46.902 103.758 47.039 104.231 L 47.039 104.231 L 47.039 104.231 Q 47.222 104.811 47.542 105.039 L 47.542 105.039 L 47.542 105.039 Q 47.863 105.268 48.473 105.268 L 48.473 105.268 L 48.473 105.268 Q 48.687 105.268 49.144 105.207 L 49.144 105.207 L 49.144 107.694 L 49.144 107.694 Q 48.427 107.968 47.741 107.968 L 47.741 107.968 L 47.741 107.968 Z  M 75.092 107.724 L 77.99 97.229 L 82.628 97.229 L 85.664 107.724 L 82.079 107.724 L 81.682 105.711 L 78.967 105.711 L 78.524 107.724 L 75.092 107.724 L 75.092 107.724 Z  M 94.885 107.724 L 94.885 97.229 L 99.446 97.229 L 99.446 97.229 Q 101.094 97.229 102.367 97.885 L 102.367 97.885 L 102.367 97.885 Q 103.641 98.541 104.35 99.715 L 104.35 99.715 L 104.35 99.715 Q 105.06 100.89 105.06 102.4 L 105.06 102.4 L 105.06 102.4 Q 105.06 103.987 104.366 105.192 L 104.366 105.192 L 104.366 105.192 Q 103.672 106.397 102.398 107.061 L 102.398 107.061 L 102.398 107.061 Q 101.124 107.724 99.446 107.724 L 99.446 107.724 L 94.885 107.724 L 94.885 107.724 Z " fill-rule="evenodd" fill="rgb(255,255,255)"/></g></svg>