<?xml version="1.0" encoding="utf-8"?>
<svg fill="#fff" fill-rule="evenodd" stroke="#000" stroke-linecap="round" stroke-linejoin="round" xmlns="http://www.w3.org/2000/svg">
  <symbol id="A" overflow="visible">
    <path d="M 119.932 114.687 L 120.677 113.854 C 121.852 112.54 122.842 111.238 123.68 109.914 C 124.496 108.604 125.105 107.209 125.531 105.667 C 125.964 104.127 126.172 102.376 126.172 100.348 C 126.172 97.588 126.172 70.131 126.172 67.853 C 126.172 65.575 126.172 63.224 126.172 60.802 L 126.172 60.302 L 132.773 60.302 C 132.773 62.724 132.773 65.575 132.773 67.853 C 132.773 70.131 132.773 72.647 132.773 75.407 C 132.773 77.962 132.773 91.391 132.773 93.801 C 132.773 96.224 132.773 98.575 132.773 100.85 C 132.773 102.539 132.619 104.104 132.322 105.475 C 132.007 106.827 131.578 108.086 131.055 109.191 C 130.531 110.28 129.912 111.285 129.239 112.154 C 128.555 113.013 127.841 113.814 127.113 114.541 L 126.967 114.687 Z M 128.455 111.534 C 129.096 110.71 129.654 109.802 130.153 108.76 C 130.654 107.707 131.046 106.555 131.347 105.252 C 131.634 103.94 131.773 102.491 131.773 100.85 C 131.773 98.575 131.773 96.224 131.773 93.801 C 131.773 91.391 131.773 77.962 131.773 75.407 C 131.773 72.647 131.773 70.131 131.773 67.853 C 131.773 65.575 131.773 63.548 131.773 61.302 L 127.172 61.302 C 127.172 63.548 127.172 65.575 127.172 67.853 C 127.172 70.131 127.172 97.588 127.172 100.348 C 127.172 102.436 126.942 104.321 126.495 105.935 C 126.045 107.543 125.378 109.069 124.528 110.444 C 123.666 111.803 123.043 112.613 122.143 113.687 L 126.552 113.687 C 127.207 113.023 127.79 112.37 128.455 111.534 Z M 140.512 105.008 L 140.512 100.535 L 140.684 100.385 C 141.926 99.309 143.18 98.211 144.44 97.102 C 145.7 96.007 146.959 94.926 148.22 93.858 C 151.183 91.3 153.697 88.908 155.781 86.67 C 157.872 84.458 159.451 82.348 160.559 80.293 C 161.666 78.26 162.191 76.299 162.191 74.289 C 162.191 71.721 161.552 69.901 160.153 68.658 C 158.802 67.37 156.782 66.775 153.927 66.775 C 152.967 66.775 151.995 66.866 150.978 67.054 C 149.958 67.223 148.939 67.486 147.891 67.845 C 146.854 68.191 145.818 68.622 144.77 69.155 C 143.715 69.672 142.69 70.269 141.666 70.961 L 140.98 71.425 L 140.28 65.08 L 140.572 64.919 C 141.508 64.403 142.546 63.906 143.657 63.449 C 144.754 63.004 145.928 62.606 147.143 62.268 C 148.37 61.942 149.637 61.675 150.91 61.467 C 152.186 61.275 153.491 61.178 154.783 61.178 C 157.657 61.178 160.171 61.698 162.208 62.695 C 164.243 63.699 165.853 65.181 166.926 67.037 C 167.975 68.914 168.528 71.173 168.528 73.699 C 168.528 76.062 167.97 78.476 166.9 80.829 C 165.812 83.155 164.185 85.565 162.057 87.997 C 159.946 90.407 157.338 92.939 154.25 95.562 L 149.705 99.41 C 153.866 99.41 159.942 99.41 161.858 99.41 C 164.197 99.41 166.535 99.41 168.863 99.41 L 169.363 99.41 L 169.363 105.008 Z M 168.363 100.41 C 166.2 100.41 164.197 100.41 161.858 100.41 C 159.942 100.41 150.97 100.41 146.977 100.41 L 153.604 94.799 C 156.667 92.199 159.222 89.719 161.305 87.339 C 163.395 84.955 164.944 82.664 165.993 80.408 C 167.03 78.152 167.528 75.95 167.528 73.699 C 167.528 71.289 167.054 69.278 166.056 67.53 C 165.079 65.795 163.685 64.516 161.769 63.593 C 159.854 62.637 157.557 62.178 154.783 62.178 C 153.528 62.178 152.3 62.268 151.062 62.455 C 149.813 62.659 148.604 62.914 147.403 63.233 C 146.216 63.563 145.103 63.94 144.034 64.375 C 142.95 64.82 142.176 65.192 141.348 65.636 L 141.794 69.683 C 142.627 69.154 143.241 68.793 144.326 68.259 C 145.408 67.71 146.502 67.256 147.573 66.897 C 148.657 66.527 149.749 66.246 150.81 66.068 C 151.869 65.875 152.921 65.775 153.927 65.775 C 156.928 65.775 159.287 66.525 160.832 67.923 C 162.362 69.364 163.191 71.549 163.191 74.289 C 163.191 76.429 162.588 78.628 161.439 80.769 C 160.291 82.886 158.637 85.099 156.51 87.355 C 154.404 89.614 151.854 92.041 148.872 94.616 C 147.613 95.682 146.355 96.763 145.097 97.855 C 143.836 98.965 142.698 99.961 141.512 100.991 L 141.512 104.008 L 168.363 104.008 Z M 175.692 105.008 L 175.757 104.45 C 176.035 102.084 176.321 99.736 176.615 97.413 C 176.923 95.109 177.237 92.598 177.56 89.885 L 179.383 75.476 C 179.703 72.806 180.011 70.311 180.303 67.989 C 180.583 65.682 180.89 63.262 181.227 60.736 L 181.285 60.302 L 187.661 60.302 L 187.788 60.614 C 189.046 63.706 190.276 66.701 191.479 69.591 C 192.664 72.496 193.842 75.377 195.013 78.239 L 201.71 94.613 L 208.342 78.262 C 209.514 75.357 210.684 72.475 211.858 69.612 C 213.029 66.751 214.236 63.753 215.48 60.618 L 215.606 60.302 L 221.988 60.302 L 222.042 60.741 C 222.349 63.221 222.641 65.624 222.919 67.946 C 223.198 70.251 223.506 72.756 223.843 75.456 L 225.645 90.017 C 225.965 92.672 226.273 95.142 226.566 97.419 C 226.843 99.697 227.128 102.037 227.423 104.447 L 227.492 105.008 L 221.17 105.008 L 221.116 104.57 C 220.633 100.686 220.179 96.999 219.754 93.511 C 219.329 90.009 218.926 86.744 218.547 83.722 L 217.104 71.817 L 211.952 84.853 C 210.602 88.27 209.249 91.685 207.889 95.102 C 206.539 98.532 205.281 101.73 204.109 104.692 L 203.984 105.008 L 199.53 105.008 L 199.403 104.695 C 198.655 102.84 197.834 100.798 196.942 98.564 C 196.034 96.332 195.104 94.054 194.153 91.735 C 193.202 89.398 192.27 87.135 191.364 84.945 L 186.037 71.797 L 184.592 83.704 C 184.209 86.739 183.814 90.01 183.406 93.512 C 182.98 96.998 182.534 100.685 182.065 104.568 L 182.012 105.008 Z M 182.414 93.392 C 182.822 89.888 183.217 86.618 183.6 83.58 L 185.234 70.11 L 186.432 70.11 L 192.29 84.568 C 193.197 86.758 194.127 89.019 195.079 91.358 C 196.03 93.677 196.96 95.955 197.869 98.188 C 198.761 100.422 199.491 102.237 200.205 104.008 L 203.304 104.008 C 204.44 101.136 205.609 98.165 206.959 94.735 C 208.319 91.318 209.672 87.902 211.022 84.485 L 216.703 70.11 L 217.904 70.11 L 219.539 83.601 C 219.918 86.623 220.321 89.887 220.746 93.391 C 221.171 96.877 221.591 100.286 222.054 104.008 L 226.362 104.008 C 226.091 101.795 225.851 99.819 225.574 97.541 C 225.281 95.263 224.973 92.794 224.653 90.138 L 222.851 75.579 C 222.514 72.878 222.206 70.372 221.927 68.066 C 221.649 65.745 221.391 63.626 221.104 61.302 L 216.284 61.302 C 215.083 64.326 213.955 67.127 212.784 69.991 C 211.61 72.852 210.441 75.733 209.27 78.636 L 202.394 95.588 L 202.268 95.9 L 201.156 95.9 L 194.087 78.617 C 192.916 75.755 191.739 72.876 190.554 69.97 C 189.351 67.079 188.203 64.285 186.989 61.302 L 182.161 61.302 C 181.847 63.669 181.575 65.807 181.295 68.11 C 181.003 70.432 180.695 72.927 180.375 75.596 L 178.552 90.009 C 178.229 92.724 177.915 95.235 177.607 97.543 C 177.313 99.864 177.073 101.834 176.816 104.008 L 181.126 104.008 C 181.575 100.286 181.987 96.879 182.414 93.392 Z M 236.197 105.008 C 236.197 102.57 236.197 99.728 236.197 97.479 C 236.197 95.231 236.197 92.767 236.197 90.077 C 236.197 87.363 236.197 70.168 236.197 67.874 C 236.197 65.582 236.197 63.224 236.197 60.802 L 236.197 60.302 L 264.435 60.302 L 264.435 66.053 C 262.385 66.053 259.687 66.053 257.345 66.053 C 254.999 66.053 252.227 66.053 249.02 66.053 L 242.644 66.053 C 242.644 66.943 242.644 67.658 242.644 68.684 C 242.644 70.962 242.644 73.457 242.644 76.173 C 242.644 76.825 242.644 77.983 242.644 79.549 C 246.777 79.549 254.95 79.549 256.774 79.549 C 258.823 79.549 260.799 79.549 262.704 79.549 L 263.204 79.549 L 263.204 85.169 C 261.198 85.169 258.678 85.169 256.641 85.169 C 254.605 85.169 252.204 85.169 249.437 85.169 L 242.644 85.169 C 242.644 90.11 242.644 95.357 242.644 96.647 C 242.644 97.667 242.644 98.375 242.644 99.257 C 247.43 99.257 255.232 99.257 257.125 99.257 C 259.511 99.257 261.803 99.257 263.999 99.257 L 264.499 99.257 L 264.499 105.008 Z M 263.499 100.257 C 261.456 100.257 259.511 100.257 257.125 100.257 C 255.232 100.257 246.361 100.257 241.644 100.257 C 241.644 99.204 241.644 97.667 241.644 96.647 C 241.644 95.357 241.644 89.247 241.644 84.169 C 244.411 84.169 254.605 84.169 256.641 84.169 C 258.678 84.169 260.362 84.169 262.204 84.169 L 262.204 80.549 C 260.454 80.549 258.823 80.549 256.774 80.549 C 254.95 80.549 245.57 80.549 241.644 80.549 C 241.644 78.744 241.644 76.825 241.644 76.173 C 241.644 73.457 241.644 70.962 241.644 68.684 C 241.644 67.658 241.644 66.114 241.644 65.053 C 244.851 65.053 254.999 65.053 257.345 65.053 C 259.687 65.053 261.529 65.053 263.435 65.053 L 263.435 61.302 L 237.197 61.302 C 237.197 63.549 237.197 65.582 237.197 67.874 C 237.197 70.168 237.197 87.363 237.197 90.077 C 237.197 92.767 237.197 95.231 237.197 97.479 C 237.197 99.728 237.197 101.749 237.197 104.008 L 263.499 104.008 Z" style="fill: none;" transform="matrix(1, 0, 0, 1, -10.458015, -47.091073)"/>
  </symbol>
  <path d="M 25.517 81.95 C 25.517 81.95 21.406 84.427 28.379 85.134 C 36.786 86.194 41.254 86.019 50.554 84.251 C 52.423 85.384 54.399 86.331 56.456 87.083 C 35.532 95.932 9.061 86.551 25.516 81.951 Z M 22.836 70.463 C 22.836 70.463 18.363 73.828 25.339 74.535 C 34.462 75.418 41.611 75.593 53.953 73.123 C 55.154 74.328 56.625 75.235 58.244 75.776 C 33.03 83.211 4.773 76.483 22.834 70.466 Z M 72.192 90.643 C 72.192 90.643 75.233 93.122 68.794 95.069 C 56.812 98.609 18.541 99.67 7.813 95.069 C 4.056 93.479 11.212 91.175 13.536 90.821 C 15.862 90.292 17.113 90.292 17.113 90.292 C 13.001 87.459 -10.25 96.133 5.286 98.61 C 48.028 105.514 83.259 95.602 72.171 90.644 Z M 27.484 58.406 C 27.484 58.406 7.993 63.01 20.511 64.601 C 25.874 65.308 36.428 65.132 46.261 64.424 C 54.308 63.717 62.355 62.3 62.355 62.3 C 62.355 62.3 59.494 63.537 57.526 64.778 C 37.675 69.91 -0.418 67.61 10.49 62.3 C 19.79 57.875 27.478 58.406 27.478 58.406 Z M 62.362 77.699 C 82.391 67.432 73.072 57.521 66.654 58.76 C 65.049 59.114 64.33 59.467 64.33 59.467 C 64.33 59.467 64.865 58.406 66.115 58.054 C 78.834 53.628 88.83 71.303 62.002 78.232 C 62.002 78.232 62.18 78.055 62.359 77.702 Z M 29.454 105.663 C 48.768 106.901 78.274 104.958 78.99 95.929 C 78.99 95.929 77.561 99.47 63.074 102.123 C 46.62 105.133 26.255 104.779 14.252 102.831 C 14.252 102.831 16.755 104.954 29.452 105.662 Z" style="fill: rgb(255, 255, 255); stroke: none;"/>
  <path d="M 50.222 0 C 50.222 0 61.31 11.153 39.667 27.965 C 22.321 41.589 35.732 49.381 39.667 58.23 C 29.473 49.206 22.142 41.24 27.17 33.805 C 34.463 22.835 54.67 17.522 50.222 0 Z M 44.497 50.797 C 49.684 56.638 43.07 61.95 43.07 61.95 C 43.07 61.95 56.3 55.222 50.224 46.904 C 44.679 38.938 40.388 35.044 63.612 21.773 C 63.612 21.773 26.951 30.8 44.476 50.799 Z" style="fill: rgb(255, 255, 255); stroke: none;"/>
  <path d="M 92.348 98.321 L 92.348 92.925 C 95.087 92.925 97.043 92.751 98.205 92.398 C 99.352 92.027 100.148 91.278 100.599 90.144 C 101.049 88.998 101.274 87.094 101.274 84.447 L 101.274 38.815 L 107.272 38.815 L 107.328 85.307 C 107.328 89.257 106.765 92.169 105.64 94.04 C 104.512 95.894 102.957 97.069 100.966 97.569 C 98.957 98.07 96.086 98.321 92.348 98.321 Z M 119.16 92.704 L 119.16 87.642 L 134.393 71.849 C 136.796 69.346 138.674 67.335 140.025 65.817 C 141.357 64.277 142.505 62.57 143.461 60.698 C 144.399 58.827 144.869 56.91 144.869 54.943 C 144.869 51.682 143.976 49.353 142.194 47.964 C 140.407 46.592 137.52 45.905 133.52 45.905 C 130.198 45.905 126.385 46.352 122.089 47.241 L 120.032 47.629 L 119.556 42.652 C 124.49 41.243 129.644 40.54 135.013 40.54 C 140.42 40.54 144.454 41.651 147.121 43.876 C 149.768 46.121 151.092 49.605 151.092 54.331 C 151.092 57.853 150.304 60.969 148.726 63.675 C 147.149 66.364 144.314 69.654 140.222 73.546 L 126.341 87.477 L 152.444 87.477 L 152.444 92.704 L 119.16 92.704 Z M 206.448 38.815 L 217.401 38.815 L 217.401 92.704 L 211.318 92.704 L 211.318 45.211 L 210.221 45.211 L 194.366 90.758 L 187.609 90.758 L 171.757 45.211 L 170.659 45.211 L 170.659 92.704 L 164.575 92.704 L 164.575 38.815 L 175.531 38.815 L 190.988 84.447 L 206.448 38.815 Z M 264 44.126 L 236.885 44.126 L 236.885 62.729 L 259.268 62.729 L 259.268 67.958 L 236.885 67.958 L 236.885 87.421 L 264 87.421 L 264 92.704 L 230.8 92.704 L 230.8 38.815 L 264 38.815 L 264 44.126 Z" style="stroke: none; white-space: pre;"/>
</svg>