<?xml version="1.0" encoding="utf-8"?>
<svg version="1.1" viewBox="0 0 3839.5 1097.1" xmlns="http://www.w3.org/2000/svg">
  <polygon class="st1" points="3608.8 268.3 3839.5 37.6 3211 37.6 3211 37.6 3204.2 37.6 2683.3 558.5 2683.3 0 2335.1 348.2 2335.1 0 1748.2 586.9 1748.3 0 1189.8 558.5 1189.8 0 841.6 348.2 841.6 0 0 841.6 348.2 841.6 662.6 527.3 662.6 875.5 943.6 594.5 943.6 804.7 651.2 1097.1 999.4 1097.1 1502 594.6 1502 841.6 1599.1 841.6 1599.1 841.6 1841.8 841.6 2156.1 527.3 2156.1 875.5 2437.1 594.5 2437.1 804.7 2400.3 841.6 3260.3 841.6 3490.9 610.9 2979.2 610.9 3035.2 554.9 3178.8 554.9 3409.5 324.3 3265.8 324.3 3321.8 268.3" style="fill: rgb(255, 255, 255);"/>
</svg>