<?xml version="1.0" encoding="utf-8"?>
<svg id="svg2" version="1.1" xmlns="http://www.w3.org/2000/svg">
  <path style="fill-opacity: 1; stroke: rgb(0, 0, 0); stroke-width: 0.781966px; stroke-linecap: butt; stroke-linejoin: miter; stroke-opacity: 0; display: inline; fill: rgb(255, 255, 255);" d="M 85.169 0 L 85.169 102.761 L 15.949 102.761 Z" id="path3038"/>
  <rect style="fill-opacity: 1; stroke: rgb(0, 0, 0); stroke-width: 5.22119; stroke-linecap: round; stroke-linejoin: miter; stroke-miterlimit: 4; stroke-opacity: 0; stroke-dasharray: none; stroke-dashoffset: 0; display: inline; fill: rgb(255, 255, 255);" id="rect3834" width="33.437" height="101.59" x="158.491" y="2.049"/>
  <path style="fill-opacity: 1; stroke: rgb(0, 0, 0); stroke-width: 5.15489; stroke-linecap: round; stroke-linejoin: miter; stroke-miterlimit: 4; stroke-opacity: 0; stroke-dasharray: none; stroke-dashoffset: 0; display: inline; fill: rgb(255, 255, 255);" d="M 199.127 2.097 C 198.769 2.087 198.371 2.078 197.922 2.071 L 197.717 36.874 C 197.744 36.875 197.772 36.874 197.798 36.874 L 197.798 36.766 C 198.367 36.69 198.94 36.653 199.524 36.639 L 206.544 2.532 C 203.805 2.2 201.225 2.164 199.127 2.097 Z M 212.001 3.064 L 202.144 36.793 C 203.022 36.914 203.883 37.105 204.71 37.361 L 220.901 5.292 C 218.041 4.29 215.07 3.535 212.001 3.064 Z M 226.313 7.555 L 206.951 38.236 C 207.598 38.549 208.225 38.908 208.821 39.3 L 233.695 11.983 C 231.374 10.304 228.906 8.824 226.313 7.555 Z M 238.348 15.799 L 210.52 40.59 C 211.185 41.166 211.808 41.798 212.372 42.474 L 245.115 23.446 C 243.122 20.672 240.849 18.109 238.348 15.799 Z M 247.654 27.35 L 213.583 44.116 C 213.973 44.724 214.322 45.357 214.631 46.019 L 252.036 37.036 C 250.912 33.632 249.438 30.39 247.654 27.35 Z M 253.436 42.195 L 215.317 47.759 C 215.708 48.933 215.971 50.171 216.085 51.448 L 254.557 51.448 C 254.466 48.281 254.082 45.188 253.436 42.195 Z M 216.085 54.496 C 215.296 62.752 208.361 69.205 199.931 69.205 C 199.205 69.205 198.499 69.153 197.798 69.06 L 197.798 68.357 C 197.772 68.357 197.744 68.356 197.717 68.357 L 197.717 103.498 C 200.604 103.477 202.094 103.357 204.34 103.357 C 231.563 103.357 253.728 81.625 254.557 54.496 Z" id="path3838"/>
  <path style="fill-opacity: 1; stroke: rgb(0, 0, 0); stroke-width: 0.781966px; stroke-linecap: butt; stroke-linejoin: miter; stroke-opacity: 0; display: inline; fill: rgb(255, 255, 255);" d="M 143.096 0 L 143.096 102.761 L 73.875 102.761 Z" id="path3038-4"/>
  <path style="font-size:69.46884918px;font-style:normal;font-weight:normal;fill:#ffffff;fill-opacity:1;stroke:none;display:inline;font-family:NiseMegaDrive" d="M 0 135.231 L 13.092 113.525 C 13.715 112.285 14.339 111.664 14.962 111.664 L 24.314 111.664 L 24.314 114.548 L 24.937 113.525 C 25.56 112.285 26.184 111.664 26.807 111.664 L 38.029 111.664 L 38.029 135.231 L 30.547 135.231 L 30.547 116.626 L 19.326 135.231 L 11.845 135.231 L 23.067 116.626 L 19.326 116.626 C 18.91 116.626 18.495 116.832 18.079 117.247 L 7.481 135.231 L 0 135.231 Z M 48.004 125.928 L 48.004 130.27 L 65.459 130.27 L 65.459 135.231 L 40.522 135.231 L 40.522 119.727 C 40.522 119.313 40.626 118.9 40.834 118.486 L 44.263 112.285 C 44.471 111.871 44.886 111.664 45.51 111.664 L 65.459 111.664 L 65.459 116.626 L 50.497 116.626 C 50.081 116.626 49.769 116.832 49.562 117.247 L 48.004 120.968 L 65.459 120.968 L 62.965 125.928 L 48.004 125.928 Z M 75.434 130.27 L 87.902 130.27 L 87.902 125.928 L 82.914 125.928 L 85.408 120.968 L 95.383 120.968 L 95.383 133.992 C 95.383 134.818 94.967 135.231 94.136 135.231 L 69.2 135.231 C 68.368 135.231 67.953 134.818 67.953 133.992 L 67.953 119.727 C 67.953 119.313 68.057 118.9 68.264 118.486 L 71.693 112.285 C 71.901 111.871 72.316 111.664 72.94 111.664 L 94.136 111.664 L 94.136 116.626 L 77.927 116.626 C 77.512 116.626 77.2 116.832 76.992 117.247 L 75.434 120.968 L 75.434 130.27 Z M 129.048 135.231 L 120.32 135.231 L 116.891 130.27 L 107.851 130.27 L 105.358 125.774 L 105.358 135.231 L 97.877 135.231 L 97.877 111.664 L 112.215 111.664 C 112.839 111.664 113.462 112.285 114.086 113.525 L 129.048 135.231 Z M 113.431 125.309 L 107.851 117.247 C 107.436 116.832 107.02 116.626 106.605 116.626 L 105.358 116.626 L 105.358 125.309 L 113.431 125.309 Z" id="text8337-2"/>
  <path style="font-size:72.2677002px;font-style:normal;font-weight:normal;fill:#ffffff;fill-opacity:1;stroke:none;display:inline;font-family:NiseMegaDrive" d="M 142.48 130.555 L 151.53 130.555 C 151.961 130.555 152.284 130.361 152.499 129.973 L 155.246 124.082 L 155.408 123.434 L 155.246 122.787 L 152.499 116.961 C 152.284 116.53 151.961 116.313 151.53 116.313 L 142.48 116.313 L 142.48 130.555 Z M 134.724 111.135 L 156.378 111.135 C 157.024 111.135 157.563 111.567 157.994 112.43 L 163.003 122.787 L 163.165 123.434 L 163.003 124.082 L 157.994 134.439 C 157.563 135.302 157.024 135.734 156.378 135.734 L 134.724 135.734 L 134.724 111.135 Z M 165.75 111.135 L 186.434 111.135 C 187.081 111.135 187.619 111.567 188.05 112.43 L 191.444 119.55 L 191.605 120.198 L 191.444 120.845 L 186.434 126.671 L 191.605 135.734 L 183.849 135.734 L 176.415 123.434 L 180.294 123.434 C 180.725 123.434 181.048 123.326 181.263 123.111 L 183.849 120.198 L 182.556 116.961 C 182.34 116.53 182.017 116.313 181.586 116.313 L 173.507 116.313 L 173.507 135.734 L 165.75 135.734 L 165.75 111.135 Z M 201.947 135.734 L 194.191 135.734 L 194.191 111.135 L 201.947 111.135 L 201.947 135.734 Z M 212.289 119.227 L 220.046 130.555 L 227.803 119.227 L 227.803 111.135 L 235.559 111.135 L 235.559 120.198 C 235.559 121.061 235.451 121.708 235.236 122.14 L 226.51 135.734 L 213.583 135.734 L 204.857 122.14 C 204.64 121.708 204.533 121.061 204.533 120.198 L 204.533 111.135 L 212.289 111.135 L 212.289 119.227 Z M 245.901 126.024 L 245.901 130.555 L 264 130.555 L 264 135.734 L 238.145 135.734 L 238.145 119.55 C 238.145 119.119 238.253 118.687 238.468 118.256 L 242.023 111.783 C 242.238 111.351 242.67 111.135 243.316 111.135 L 264 111.135 L 264 116.313 L 248.487 116.313 C 248.056 116.313 247.733 116.53 247.518 116.961 L 245.901 120.845 L 264 120.845 L 261.415 126.024 L 245.901 126.024 Z" id="text8339-0"/>
  <path d="M 55.625 158 L 57.422 155.309 L 67.193 155.309 L 69.496 151.637 L 67.193 148.75 C 66.884 148.339 66.435 148.133 65.846 148.133 L 61.915 148.133 L 63.712 145.443 L 69.102 145.443 C 69.702 145.443 70.207 145.705 70.619 146.228 L 71.883 147.826 L 73.595 145.051 C 74.195 144.117 75.093 143.65 76.291 143.65 L 79.885 143.65 L 74.887 151.651 L 79.885 158 L 74.494 158 L 72.514 155.477 L 71.461 157.159 C 71.087 157.719 70.6 158 70.001 158 Z" id="path3065" style="fill: rgb(204, 204, 204);"/>
  <path d="M 83.479 149.031 L 83.479 146.341 L 88.983 146.341 L 89.713 145.107 C 90.349 144.136 91.267 143.65 92.465 143.65 L 96.059 143.65 L 94.374 146.341 L 98.754 146.341 C 99.353 146.341 99.877 146.658 100.327 147.293 L 103.752 152.057 C 104.015 152.431 104.052 152.824 103.865 153.235 L 101.225 157.047 C 100.776 157.683 100.252 158 99.653 158 L 92.465 158 L 92.465 155.309 L 96.059 155.309 C 96.657 155.309 97.145 155.084 97.519 154.636 L 98.474 153.01 C 98.661 152.749 98.661 152.487 98.474 152.226 L 96.676 149.648 C 96.349 149.236 95.843 149.031 95.16 149.031 L 92.69 149.031 L 87.073 158 L 81.682 158 L 87.298 149.031 Z M 98.754 143.65 L 102.348 143.65 L 106.111 148.919 L 104.595 151.722 Z M 103.416 143.65 L 109.537 143.65 L 106.673 148.133 Z" id="path3067" style="fill: rgb(204, 204, 204);"/>
  <path d="M 118.522 158 L 118.522 143.65 L 123.913 143.65 L 123.913 147.237 L 132.898 147.237 C 133.498 147.237 134.003 147.555 134.415 148.19 L 137.391 152.618 L 132 152.618 L 130.877 150.824 C 130.428 150.226 129.903 149.927 129.305 149.927 L 123.913 149.927 L 123.913 158 Z M 129.305 146.341 L 127.508 143.65 L 131.102 143.65 L 132.898 146.341 Z M 133.797 146.341 L 132 143.65 L 135.594 143.65 L 137.391 146.341 Z" id="path3069" style="fill: rgb(204, 204, 204);"/>
  <path d="M 139.188 146.341 L 139.188 143.65 L 158.058 143.65 L 158.058 146.341 Z M 139.188 149.927 L 139.188 147.237 L 158.058 147.237 L 158.058 149.927 C 158.058 150.526 157.927 151.105 157.665 151.666 L 154.913 157.159 C 154.613 157.719 154.164 158 153.565 158 L 141.884 158 L 141.884 155.309 L 149.072 155.309 C 149.671 155.309 150.139 155.011 150.476 154.412 L 152.667 149.927 Z" id="path3071" style="fill: rgb(204, 204, 204);"/>
  <path d="M 159.855 149.031 L 159.855 146.341 L 172.828 146.341 C 173.464 146.341 173.95 146.041 174.288 145.443 L 175.13 143.65 L 180.521 143.65 L 178.724 147.237 C 178.125 148.433 177.227 149.031 176.029 149.031 L 172.434 149.031 L 172.434 158 L 167.043 158 L 167.043 149.031 Z" id="path3073" style="fill: rgb(204, 204, 204);"/>
  <path d="M 199.84 155.084 L 198.155 157.103 C 197.78 157.701 197.294 158 196.695 158 L 182.318 158 L 182.318 155.309 L 192.202 155.309 C 192.68 155.309 193.11 155.011 193.494 154.412 L 193.999 153.557 L 193.999 146.341 L 182.318 146.341 L 182.318 143.65 L 200.289 143.65 L 200.289 153.515 C 200.289 154.113 200.139 154.636 199.84 155.084 Z M 202.086 149.031 L 204.782 143.65 L 208.376 143.65 L 205.68 149.031 Z M 201.187 149.031 L 201.187 143.65 L 203.883 143.65 Z" id="path3075" style="fill: rgb(204, 204, 204);"/>
</svg>