<svg id="Warstwa_1" data-name="Warstwa 1" xmlns="http://www.w3.org/2000/svg" viewBox="0 0 429.98 88.76"><title>megaduck</title><path d="M43.68,196.16c.91.11,1.83.16,2.72.34,2.3.44,3.45,1.72,3.49,4.31,0,3.23-.08,6.47-.28,9.7a98.58,98.58,0,0,0,0,16.39,128.52,128.52,0,0,1,.51,13.17c0,7.87-.15,15.75-.26,23.62a27.18,27.18,0,0,1-.24,3,3.53,3.53,0,0,1-3.44,3.09,3.26,3.26,0,0,1-3.6-2.65,83.26,83.26,0,0,1-1-8.32c-.8-12.2-1.48-24.41-2.28-36.61-.23-3.62-.69-7.24-1.13-10.84-.13-1-.19-2.35-1.59-2.51s-1.85,1-2.26,2c-1.7,3.92-3.4,7.84-4.91,11.84-4,10.56-8,21.13-11.76,31.78a25.24,25.24,0,0,1-7.53,11.17c-3.06,2.59-5.87,1.86-7.24-1.95-.53-1.48-.48-3.15-.85-4.69q-2.59-10.71-5.29-21.39c-.76-3-1.62-6-2.51-9A11.47,11.47,0,0,0-7,225.9c-.23-.36-.81-.51-1.22-.76a3.8,3.8,0,0,0-.57,1.21c-.3,3.67-.62,7.33-.79,11-.36,7.54-.62,15.09-.95,22.64-.06,1.35-.22,2.7-.41,4.05a2.29,2.29,0,0,1-2.69,2.21c-2.46-.07-5.83-2.63-6.2-5.06a89.5,89.5,0,0,1-.93-9.65c-.3-7.11-.61-14.22-.61-21.33a159.66,159.66,0,0,1,1.7-25.09,8.08,8.08,0,0,1,5.7-6.84,24.63,24.63,0,0,1,10-1.15,2.45,2.45,0,0,1,2.26,2.15c.55,2.33,1,4.69,1.47,7A209,209,0,0,0,9.1,238.86a25.71,25.71,0,0,0,1.13,2.37,5.8,5.8,0,0,0,.65.78,21.4,21.4,0,0,0,1.43-2.52c2.93-7.34,5.94-14.64,7.64-22.42a42.52,42.52,0,0,1,7-15.52c2.35-3.34,5.39-5.22,9.58-5.12,2,0,4-.17,6-.27Z" transform="translate(21.42 -196.16)" fill="white"/><path d="M262.09,236.86c-.33,3.62-.56,7.24-1,10.84a10.14,10.14,0,0,1-4.09,6.81,44.56,44.56,0,0,1-12.31,6.85c-9.82,3.64-19.36,7.91-28.77,12.5-2.18,1.07-4.49,1.88-6.76,2.75a7,7,0,0,1-2,.41c-1.73.11-2.5-.57-2.43-2.3.11-2.87.19-5.76.57-8.61,1.55-11.6,3.21-23.19,4.85-34.77a17.38,17.38,0,0,0-.59-8.16,15.39,15.39,0,0,1-.07-9.56c1-3.38,4.55-4.22,6.76-1.47,3.43,4.28,5.72,9.1,5.14,14.78-.9,8.78-1.94,17.54-2.88,26.32a26.84,26.84,0,0,0-.12,4.3,1.63,1.63,0,0,0,2.09,1.71,11.45,11.45,0,0,0,2.78-.7A106.34,106.34,0,0,0,244.63,247c4.4-3,5.64-7.32,5.33-12.33-.05-.92-.11-1.83-.14-2.75a13.74,13.74,0,0,0-2.6-8.09c-2.05-2.7-4.14-5.38-6.33-8a11.84,11.84,0,0,0-5.62-3.52,104.49,104.49,0,0,0-19.09-4,45.55,45.55,0,0,1-5.4-1,4.62,4.62,0,0,1-2-1.17,11.58,11.58,0,0,1-3.28-7.41c-.13-1.83.36-2.45,2.16-2.31a83.15,83.15,0,0,1,10,1.21c8.72,1.78,17.41,3.7,26.09,5.69,8.93,2,14,8,16.2,16.62C261.31,225.5,261.56,231.17,262.09,236.86Z" transform="translate(21.42 -196.16)" fill="white"/><path d="M136.22,241c-.37,8.14-.72,16.28-1.12,24.42-.09,1.8-.3,3.59-.51,5.37-.47,3.89-2.8,6.53-5.92,8.59a32.85,32.85,0,0,1-12.62,4.6,68.13,68.13,0,0,1-20.9.22,10.59,10.59,0,0,1-2.85-.83,2.9,2.9,0,0,1-1.85-3.06c.09-1.34,1-1.92,2.12-2.32a19.27,19.27,0,0,1,8.05-.86c4.27.26,8.53.67,12.76-.35,5.09-1.23,8.62-4.06,9.63-9.45a.35.35,0,0,1,0-.11c.59-3.05-.2-4-3.3-3.93a87.28,87.28,0,0,1-9.57,0,42.23,42.23,0,0,1-8.5-1.88C94,259,90,251.05,91.56,243.15a24.24,24.24,0,0,1,7.92-13.38A38.09,38.09,0,0,1,117,220.32a7.93,7.93,0,0,1,2.38-.12,2,2,0,0,1,1.71,3.18,5,5,0,0,1-1.24,1.6c-2.66,2.1-5.33,4.19-8.08,6.18a32.52,32.52,0,0,0-7.69,7,10.3,10.3,0,0,0-1.8,8.52c.92,4.33,4.33,6.78,9.35,6.67a27.76,27.76,0,0,0,9.43-2.07c3.13-1.19,3.74-3.95,4-6.82.32-3.78.45-7.58.76-11.36.39-4.79,1-9.54,3.07-14a15.55,15.55,0,0,1,2.06-3.35A5.48,5.48,0,0,1,136,214c1,.09,1.15.85,1.13,1.65-.07,3.24-.11,6.48-.24,9.71-.2,5.23-.46,10.46-.69,15.69Z" transform="translate(21.42 -196.16)" fill="white"/><path d="M172.42,217.3a39.1,39.1,0,0,1,1.83-4,18.68,18.68,0,0,1,2.82-3.82c1.82-1.78,4.19-1,4.54,1.46a82.3,82.3,0,0,1,.75,9.54c.2,8.2.17,16.39.42,24.58.16,5,.64,10,1.06,14.94.12,1.42.57,2.81.82,4.22a3.07,3.07,0,0,1-1.43,3.2,2.88,2.88,0,0,1-3.39.08,11.37,11.37,0,0,1-2.71-2.31c-1.29-1.62-2.38-3.4-3.53-5.12-.25-.36-.42-.77-.66-1.14-1.12-1.77-1.26-1.8-2.83-.38-.82.75-1.56,1.6-2.37,2.37A14.37,14.37,0,0,1,146.21,259c-3.33-4.5-5-9.69-6-15.12-.83-4.43-1.25-8.92,0-13.31a20,20,0,0,1,2.85-6,49,49,0,0,1,6.17-7.31c4.71-4.47,10.32-5.07,16.28-2.94C167.81,215.19,170,216.28,172.42,217.3Zm-23.2,24.22a35.24,35.24,0,0,0,1.37,6.15,27.47,27.47,0,0,0,3.66,6.39c1.48,2,3.24,1.93,5,.11a24.09,24.09,0,0,0,1.92-2.45c5.89-8.14,8.56-17.59,11-27.13.36-1.42.26-1.65-1.22-1.74-3.95-.23-7.9-.33-11.85-.47a3.22,3.22,0,0,0-3.06,1.68,30.08,30.08,0,0,1-2.19,2.86C150.71,230.84,149.39,235.36,149.22,241.52Z" transform="translate(21.42 -196.16)" fill="white"/><path d="M359,219.13a13.09,13.09,0,0,1,2.17-7.58,7.2,7.2,0,0,1,1.91-1.94c1.43-1,2.73-.44,2.93,1.25.47,3.92.74,7.87,1.2,11.79.38,3.25.93,6.48,1.41,9.71a2.7,2.7,0,0,0,.12.47c1,3.17,1.75,3.69,4.94,2.83,4.09-1.11,8.11-2.45,12.18-3.6a14.48,14.48,0,0,1,16.35,7.34c1.23,2.5,1.21,4.92-.68,7.16-.75.89-1.39,1.86-2.14,2.74a1.27,1.27,0,0,0,.13,2c1.92,1.75,3.86,3.49,5.7,5.32a19.91,19.91,0,0,1,2.81,3.41c1.05,1.67.51,2.78-1.37,3.33a8.51,8.51,0,0,1-5.76-.39c-3.86-1.62-7.64-3.43-11.49-5.08-4.59-2-9.17-3.93-13.82-5.72-3.06-1.18-4.34-.4-5,2.83-.33,1.64-.25,3.35-.56,5a9,9,0,0,1-1.22,3.32,3.62,3.62,0,0,1-2.23,1.34c-2.17.35-3.21-.52-3.44-2.72-.52-5.13-1-10.26-1.46-15.39-.85-8.59-1.73-17.17-2.59-25.76C359,220.18,359,219.54,359,219.13ZM386.42,246a8.67,8.67,0,0,0,6.07-2.35c1.12-1,1.13-1.23-.06-2.19-2.53-2-8.44-2.06-11.48.08a2.77,2.77,0,0,0-1.19,2c0,.54.94,1.3,1.59,1.48C383.23,245.5,385.17,245.77,386.42,246Z" transform="translate(21.42 -196.16)" fill="white"/><path d="M53.21,238.25c.22-1.76.52-4.86,1-7.91a7.33,7.33,0,0,1,3.3-4.81q3.87-2.73,7.65-5.59a11.31,11.31,0,0,1,7.7-2.45c1.79.1,3.59.11,5.37.29a3.75,3.75,0,0,1,2,.8c4.08,3.6,5.64,7.4,4.34,12a20.29,20.29,0,0,1-2.21,5.28,8.76,8.76,0,0,1-3.28,3c-3.4,1.76-6.94,3.25-10.42,4.84l-.55.23c-4.48,2-4.74,2.12-4.25,7.59.19,2,1.53,3.28,3.16,4.27a44,44,0,0,0,13.4,5.65c4.91,1.1,9.88,1.93,14.81,2.91,1.21.24,2.4.58,3.59.91a1.92,1.92,0,0,1,1.44,2.19c0,2.08-1.07,3.52-3.16,3.65-4.14.25-8.29.33-12.44.32-6.6,0-12.49-2.77-18.5-5-1.91-.71-3.74-1.62-5.64-2.36a7.87,7.87,0,0,1-4.6-5,44.24,44.24,0,0,1-2.13-11.15C53.55,245.12,53.46,242.36,53.21,238.25ZM71.3,227.72l-.06-.13a33.84,33.84,0,0,0-4.14,1,5.08,5.08,0,0,0-3.38,5.25c.09,1,.6,1.38,1.48,1.29a34.6,34.6,0,0,0,3.79-.55,8.15,8.15,0,0,0,5.65-4.43c.6-1.14.28-1.83-1-2.14A20.77,20.77,0,0,0,71.3,227.72Z" transform="translate(21.42 -196.16)" fill="white"/><path d="M273.84,232.43c.35,5.07.49,10.15,1.9,15.08.18.65.44,1.28.65,1.92,2.91,9,15.26,8.78,19.68,3.79a13.7,13.7,0,0,0,2.94-7.33c.83-5.29,1.46-10.6,2.19-15.9.13-.91.32-1.81.5-2.71a2.61,2.61,0,0,1,2.09-2.2,2.87,2.87,0,0,1,2.91.92,6.34,6.34,0,0,1,1.82,5.71,36.71,36.71,0,0,0,.8,14.27c.73,2.86,1.39,5.74,2.05,8.61q.78,3.39,1.49,6.79a6,6,0,0,1-1.6,5.73c-1.36,1.39-2.69,1.55-4.09.23a18,18,0,0,1-2.58-3.12c-1.11-1.71-2.18-2.37-4.2-1.94a57.37,57.37,0,0,0-5.63,1.6c-3.25,1.06-6.5,2-10,1.67-8-.67-15.44-7.16-16.9-15.06A141.87,141.87,0,0,1,265.71,222c.06-3,2.19-4.22,4.89-2.87a5.22,5.22,0,0,1,3.22,4.69C273.9,226.68,273.84,229.55,273.84,232.43Z" transform="translate(21.42 -196.16)" fill="white"/><path d="M313.76,236.28c-.66-7.83,2.35-14.41,7.07-20.32a15.68,15.68,0,0,1,14-6.16,24.94,24.94,0,0,1,16.41,7.2,4.16,4.16,0,0,1,1.2,2.13c.22,1.41-1.14,2.42-2.91,2.1a52.5,52.5,0,0,1-5.3-1.42c-1.68-.51-3.32-1.14-5-1.6-4.23-1.16-7.62.25-10.59,3.33a22.26,22.26,0,0,0-6.39,16.5c.07,6.41,3,11.43,7.18,15.84,2.55,2.71,6.1,3.15,9.6,2.61,4.33-.68,8.6-1.71,12.9-2.58.78-.15,1.58-.27,2.36-.38a3,3,0,0,1,2.82,1.24,1.36,1.36,0,0,1,.07,2,16.72,16.72,0,0,1-2.42,2.48c-6.67,4.84-14.19,7-22.29,5.56-9.78-1.79-15.32-8.44-17.7-17.75-.88-3.48-.93-7.18-1.37-10.78Z" transform="translate(21.42 -196.16)" fill="white"/></svg>