<?xml version="1.0" encoding="utf-8"?>
<svg version="1.0" width="297px" height="184px" preserveAspectRatio="xMidYMid meet" xmlns="http://www.w3.org/2000/svg">
  <path d="M 60.848 161.921 C 60.136 159.881 62.628 138.412 65.566 121.201 C 66.723 114.281 66.723 112.861 65.655 109.578 C 64.142 105.409 64.854 98.755 66.902 97.513 C 70.195 95.383 72.688 97.336 75.804 104.256 C 77.496 108.07 77.674 109.578 77.139 116.764 C 76.872 121.289 75.982 129.096 75.181 134.064 C 73.578 144.71 73.846 145.952 77.496 145.243 C 81.057 144.444 90.938 139.565 98.239 134.774 C 105.182 130.249 106.429 127.587 105.806 118.361 C 105.539 113.659 105.004 112.328 101.265 107.095 C 98.595 103.457 95.746 100.53 93.698 99.464 C 90.226 97.69 80.255 95.383 72.243 94.497 C 69.572 94.23 66.634 93.521 65.744 93.077 C 63.697 92.012 61.471 87.665 61.471 84.738 C 61.471 82.786 61.827 82.52 64.498 82.52 C 69.75 82.52 99.04 88.641 103.669 90.771 C 112.572 94.763 116.578 102.569 117.468 117.563 C 118.18 128.475 117.557 134.774 115.509 137.879 C 113.106 141.427 105.628 145.864 96.636 148.969 C 92.185 150.565 83.371 154.38 76.961 157.485 C 65.032 163.43 61.827 164.228 60.848 161.921 Z" style="fill: rgb(255, 255, 255);"/>
  <path d="M 162.604 152.961 C 161.803 152.252 160.734 150.831 160.289 149.856 C 159.043 147.726 156.55 147.726 150.674 149.945 C 148.093 150.92 144.354 151.718 142.217 151.718 C 134.205 151.63 126.549 145.864 124.234 138.145 C 122.364 131.935 120.762 107.538 122.097 105.852 C 123.522 104.167 126.192 104.433 128.24 106.473 C 129.843 108.07 130.021 109.401 130.021 117.829 C 130.021 132.113 132.335 139.387 137.588 141.605 C 144.087 144.266 151.12 142.226 153.612 136.992 C 154.414 135.307 155.482 130.249 156.016 125.725 C 157.529 112.062 157.529 111.974 159.577 111.264 C 161.001 110.821 161.981 111.264 163.138 112.772 C 164.562 114.458 164.741 115.7 164.206 120.313 C 163.761 125.015 164.117 127.943 166.61 137.879 C 169.37 149.324 169.459 149.856 168.034 152.073 C 166.254 154.735 164.562 155.001 162.604 152.961 Z" style="fill: rgb(255, 255, 255);"/>
  <path d="M 187.62 150.831 C 182.457 149.501 179.43 147.638 175.958 143.646 C 171.417 138.323 169.637 132.467 169.637 122.886 C 169.637 115.966 169.993 114.192 172.13 109.578 C 177.827 97.424 185.483 93.61 197.324 97.158 C 201.953 98.489 208.363 103.19 208.363 105.143 C 208.363 107.804 205.514 108.07 200.262 105.941 C 191.003 102.215 187.175 103.369 181.477 111.53 C 179.163 114.99 178.628 116.675 178.272 121.91 C 177.916 127.676 178.183 128.653 180.854 133.886 C 185.751 143.113 190.113 144.444 203.823 140.984 C 210.589 139.299 211.39 139.21 212.636 140.54 C 213.883 141.783 213.883 142.138 211.924 144.178 C 206.939 149.412 195.187 152.606 187.62 150.831 Z" style="fill: rgb(255, 255, 255);"/>
  <path d="M 219.491 149.856 C 219.135 149.412 218.512 144.089 218.067 138.145 C 216.909 123.063 215.752 111.087 215.04 106.917 C 214.061 101.062 218.245 93.61 221.45 95.65 C 221.984 96.004 222.607 100.441 222.874 105.586 C 223.408 115.788 224.655 121.378 226.702 122.176 C 227.414 122.442 231.866 121.378 236.584 119.781 C 244.24 117.297 245.665 117.03 248.602 118.007 C 253.41 119.426 258.039 123.684 258.751 127.41 C 259.197 129.806 258.84 130.87 256.971 133.177 C 255.725 134.685 254.656 136.193 254.656 136.46 C 254.656 136.814 256.882 139.033 259.642 141.427 C 265.517 146.573 265.962 149.324 260.888 149.767 C 258.573 149.945 255.368 148.88 248.87 145.686 C 243.973 143.291 237.385 140.363 234.269 139.21 C 228.75 137.258 228.572 137.258 227.414 138.855 C 226.702 139.742 226.168 141.783 226.168 143.379 C 226.168 148.081 224.744 150.831 222.251 150.831 C 221.005 150.831 219.758 150.388 219.491 149.856 Z M 247.623 130.427 C 249.76 128.653 249.76 128.653 248.068 127.321 C 244.418 124.483 234.358 126.7 235.605 129.983 C 236.139 131.136 238.365 131.758 243.172 132.113 C 244.507 132.113 246.466 131.403 247.623 130.427 Z" style="fill: rgb(255, 255, 255);"/>
  <path d="M 117.557 88.109 C 113.907 87.665 112.215 86.424 112.215 84.294 C 112.215 81.632 116.756 80.479 124.679 81.1 C 136.608 82.164 143.374 78.793 144.799 71.252 C 145.511 67.349 144.621 66.728 139.012 67.26 C 131.712 67.97 122.721 65.93 118.892 62.825 C 110.435 55.816 111.236 43.307 120.762 34.081 C 128.24 26.806 141.594 21.483 143.018 25.209 C 143.82 27.25 141.594 29.556 133.938 34.702 C 126.905 39.403 123.789 43.484 123.789 47.832 C 123.789 55.55 129.575 58.833 138.834 56.348 C 146.401 54.396 146.757 53.598 147.292 41.267 C 147.737 30.355 149.606 22.99 152.9 19.353 C 154.325 17.757 158.064 17.224 158.776 18.377 C 159.043 18.821 158.865 25.918 158.42 34.169 C 158.064 42.508 157.529 55.195 157.173 62.47 C 156.817 72.939 156.372 76.31 155.126 78.438 C 150.496 86.335 135.451 90.238 117.557 88.109 Z" style="fill: rgb(255, 255, 255);"/>
  <path d="M 100.642 74.535 C 95.835 73.382 83.104 68.503 80.611 66.906 C 77.674 65.043 75.982 58.833 75.359 47.921 C 74.736 36.919 75.715 32.04 78.92 29.733 C 80.255 28.757 83.371 26.45 85.864 24.677 C 89.87 21.66 90.938 21.305 95.746 21.305 C 100.286 21.305 101.532 21.66 103.046 23.346 C 107.319 27.959 107.853 31.863 105.093 37.896 C 103.313 41.799 103.224 41.976 90.671 47.387 C 85.775 49.428 85.508 49.783 85.508 52.711 C 85.508 57.59 86.22 58.478 92.897 61.849 C 97.348 64.066 101.978 65.487 108.565 66.639 C 122.364 69.035 122.008 68.946 122.008 71.43 C 122.008 72.673 121.296 74.003 120.317 74.535 C 118.269 75.6 105.182 75.6 100.642 74.535 Z M 95.123 35.943 C 97.882 32.749 97.17 31.508 92.808 31.596 C 88.446 31.685 85.508 33.903 85.508 37.096 C 85.508 39.137 85.686 39.226 89.247 38.782 C 91.918 38.428 93.698 37.541 95.123 35.943 Z" style="fill: rgb(255, 255, 255);"/>
  <path d="M 64.943 72.229 C 64.142 71.252 63.519 66.285 62.984 55.55 C 62.539 47.21 61.738 34.169 61.204 26.628 C 60.314 14.74 59.958 12.878 58.533 12.611 C 57.465 12.344 56.486 13.498 55.15 16.604 C 51.678 24.765 40.372 54.574 39.215 58.921 C 37.79 63.978 31.736 70.986 28.71 70.986 C 26.306 70.986 24.08 67.792 24.08 64.333 C 24.08 62.913 22.834 57.058 21.321 51.469 C 19.807 45.88 18.027 39.226 17.403 36.742 C 15.979 30.887 14.377 27.959 13.219 29.112 C 12.774 29.556 12.151 38.428 11.884 48.896 C 11.617 59.808 11.083 68.325 10.548 69.035 C 9.124 70.72 6.631 70.277 3.961 68.059 C 1.557 65.93 1.557 65.841 0.756 50.049 C -0.313 30.621 1.112 7.732 3.515 4.981 C 5.652 2.498 10.103 0.9 15.089 0.9 C 19.985 0.9 19.807 0.634 21.41 9.329 C 23.546 21.483 31.024 45.702 32.627 45.702 C 32.983 45.702 34.051 43.928 34.852 41.71 C 35.654 39.492 37.256 35.589 38.235 32.927 C 39.304 30.355 40.728 25.386 41.529 22.015 C 42.954 14.829 47.049 6.667 50.877 3.03 C 53.37 0.634 54.171 0.457 61.471 0.191 C 72.243 -0.164 72.51 0.191 71.353 14.917 C 70.908 20.773 70.908 27.338 71.353 29.467 C 72.243 33.992 72.243 67.792 71.353 70.986 C 70.641 73.737 66.813 74.446 64.943 72.229 Z" style="fill: rgb(255, 255, 255);"/>
  <path d="M 199.282 69.479 C 198.036 68.059 196.345 65.664 195.543 64.155 C 194.742 62.559 193.763 61.227 193.407 61.227 C 193.051 61.227 191.448 62.559 189.935 64.244 C 184.86 69.567 176.492 70.188 170.616 65.575 C 163.494 59.986 159.043 42.065 162.426 32.661 C 163.939 28.58 170.349 20.773 173.732 18.998 C 178.718 16.426 183.703 16.426 189.223 18.998 L 194.208 21.217 L 195.454 18.289 C 196.879 14.917 199.104 12.433 200.618 12.433 C 203.912 12.522 204.09 13.498 204.268 36.919 C 204.446 52.622 204.891 61.316 205.692 64.51 C 206.672 68.236 206.672 69.39 205.781 70.454 C 204.001 72.495 201.864 72.14 199.282 69.479 Z M 183.169 55.195 C 184.682 52.888 186.819 49.34 187.798 47.299 C 189.579 43.75 194.119 29.289 194.119 27.161 C 194.119 26.184 179.608 25.652 178.718 26.628 C 178.539 26.895 176.937 28.935 175.156 31.242 C 169.993 38.162 169.637 48.541 174.355 55.816 C 177.56 60.695 179.608 60.606 183.169 55.195 Z" style="fill: rgb(255, 255, 255);"/>
</svg>