<?xml version="1.0" encoding="utf-8"?>
<svg version="1.1" id="Layer_1" xmlns="http://www.w3.org/2000/svg">
  <g transform="matrix(1.043478, 0, 0, 1.050986, 0, -0.539155)">
    <path id="rect7344" d="M 197.898 23.513 L 200.55 27.496 L 207.797 27.496 L 205.146 23.513 L 197.898 23.513 Z" style="fill-opacity: 1; fill: rgb(255, 255, 255);"/>
    <path id="rect7344" d="M 229.687 28.71 L 229.687 35.635 C 229.775 37.797 231.755 39.523 234.172 39.523 L 253 39.523 L 253 35.881 L 237.673 35.881 C 236.871 35.881 236.216 35.225 236.216 34.421 L 236.216 33.511 L 251.848 33.511 L 251.848 30.172 L 237.673 30.172 C 236.871 30.172 236.216 29.516 236.216 28.713 L 229.687 28.71 Z" style="fill-opacity: 1; fill: rgb(255, 255, 255);"/>
    <path id="rect7344" d="M 201.343 28.71 L 208.532 39.524 L 209.27 39.524 L 215.779 39.524 L 216.517 39.524 L 223.707 28.71 L 216.458 28.71 L 212.522 34.629 L 208.586 28.71 L 201.343 28.71 Z" style="fill-opacity: 1; fill: rgb(255, 255, 255);"/>
    <path id="rect7344" d="M 189.062 28.71 L 189.062 39.524 L 195.592 39.524 L 195.592 28.71 L 189.062 28.71 Z" style="fill-opacity: 1; fill: rgb(255, 255, 255);"/>
    <path id="rect7344" d="M 178.635 28.71 L 178.635 30.76 C 178.635 30.773 178.638 30.785 178.635 30.798 C 178.618 31.435 178.102 31.935 177.463 31.935 L 176.026 31.935 L 166.527 31.935 L 166.527 36.185 L 175.648 36.185 L 178.959 39.523 L 186.774 39.523 L 182.27 34.989 C 183.976 34.296 185.186 32.622 185.186 30.663 L 185.186 28.709 L 184.751 28.709 L 178.635 28.71 Z" style="fill-opacity: 1; fill: rgb(255, 255, 255);"/>
    <path id="rect7344" d="M 158.541 28.71 L 158.541 39.524 L 165.07 39.524 L 165.07 28.71 L 158.541 28.71 Z" style="fill-opacity: 1; fill: rgb(255, 255, 255);"/>
    <path id="rect7344" d="M 147.7 28.71 L 147.7 34.706 C 147.7 35.362 147.181 35.882 146.525 35.882 L 134.434 35.882 L 134.434 39.524 L 150.14 39.524 L 150.14 39.505 C 152.434 39.331 154.247 37.6 154.247 35.484 L 154.247 28.71 L 147.7 28.71 Z" style="fill-opacity: 1; fill: rgb(255, 255, 255);"/>
    <path id="rect7344" d="M 126.997 28.71 L 126.997 39.524 L 133.525 39.524 L 133.525 28.71 L 126.997 28.71 Z" style="fill-opacity: 1; fill: rgb(255, 255, 255);"/>
    <path id="rect7344" d="M 116.124 28.71 L 116.124 31.936 L 104.26 31.936 L 104.26 36.187 L 116.124 36.187 L 116.124 39.524 L 122.672 39.524 L 122.672 28.71 L 116.124 28.71 Z" style="fill-opacity: 1; fill: rgb(255, 255, 255);"/>
    <path id="rect7344" d="M 96.578 28.71 L 96.578 39.524 L 103.107 39.524 L 103.107 28.71 L 96.578 28.71 Z" style="fill-opacity: 1; fill: rgb(255, 255, 255);"/>
    <path id="rect7344" d="M 65.754 28.71 L 65.754 35.749 L 65.773 35.749 C 65.914 37.732 67.642 39.321 69.821 39.504 L 69.821 39.523 L 88.951 39.523 L 88.951 39.504 C 91.382 39.345 93.303 37.334 93.303 34.855 C 93.303 32.274 91.225 30.171 88.649 30.171 C 88.623 30.171 88.598 30.17 88.573 30.171 L 77.39 30.171 L 77.39 33.508 L 85.469 33.508 C 86.123 33.508 86.643 34.048 86.643 34.704 C 86.643 35.361 86.123 35.88 85.469 35.88 L 73.473 35.88 C 72.819 35.88 72.299 35.36 72.299 34.704 L 72.299 28.71 L 65.754 28.71 Z" style="fill-opacity: 1; fill: rgb(255, 255, 255);"/>
    <path id="rect7344" d="M 39.112 28.71 L 39.112 35.635 C 39.199 37.797 41.179 39.523 43.597 39.523 L 62.424 39.523 L 62.424 35.881 L 47.098 35.881 C 46.294 35.881 45.66 35.225 45.66 34.421 L 45.66 33.511 L 61.29 33.511 L 61.29 30.172 L 47.098 30.172 C 46.294 30.172 45.66 29.516 45.66 28.713 L 45.053 28.713 L 39.112 28.71 Z" style="fill-opacity: 1; fill: rgb(255, 255, 255);"/>
    <path id="rect7344" d="M 28.818 28.71 L 28.818 39.524 L 35.365 39.524 L 35.365 28.71 L 28.818 28.71 Z" style="fill-opacity: 1; fill: rgb(255, 255, 255);"/>
    <path id="rect7344" d="M 14.4 28.71 L 14.4 39.524 L 20.889 39.524 L 20.889 28.71 L 14.4 28.71 Z" style="fill-opacity: 1; fill: rgb(255, 255, 255);"/>
    <path id="rect7344" d="M 0 28.71 L 0 39.524 L 6.472 39.524 L 6.472 28.71 L 0 28.71 Z" style="fill-opacity: 1; fill: rgb(255, 255, 255);"/>
    <path id="rect7344" d="M 229.687 23.855 L 229.687 27.498 L 252.999 27.498 L 252.999 23.855 L 229.687 23.855 Z" style="fill-opacity: 1; fill: rgb(255, 255, 255);"/>
    <path id="rect7344" d="M 189.062 23.855 L 189.062 27.498 L 195.592 27.498 L 195.592 23.855 L 189.062 23.855 Z" style="fill-opacity: 1; fill: rgb(255, 255, 255);"/>
    <path id="rect7344" d="M 161.55 23.855 L 161.55 23.873 C 159.866 24.023 158.541 25.583 158.541 27.498 L 161.55 27.498 L 165.07 27.498 L 177.085 27.498 L 178.636 27.498 L 183.953 27.498 L 185.184 27.498 C 185.184 25.5 183.737 23.877 181.948 23.855 L 161.55 23.855 Z" style="fill-opacity: 1; fill: rgb(255, 255, 255);"/>
    <path id="rect7344" d="M 126.997 23.855 L 126.997 27.498 L 151.009 27.498 L 154.244 27.498 C 154.244 25.501 152.796 23.879 151.009 23.855 L 126.997 23.855 Z" style="fill-opacity: 1; fill: rgb(255, 255, 255);"/>
    <path id="rect7344" d="M 99.813 23.855 C 98.025 23.877 96.578 25.5 96.578 27.498 L 99.813 27.498 L 103.107 27.498 L 119.303 27.498 L 122.672 27.498 C 122.672 25.486 121.204 23.855 119.398 23.855 C 119.365 23.855 119.336 23.853 119.304 23.855 L 99.813 23.855 Z" style="fill-opacity: 1; fill: rgb(255, 255, 255);"/>
    <path id="rect7344" d="M 69.008 23.855 C 67.21 23.867 65.754 25.493 65.754 27.498 L 69.008 27.498 L 72.302 27.498 L 93.304 27.498 L 93.304 23.855 L 69.027 23.855 L 69.008 23.855 Z" style="fill-opacity: 1; fill: rgb(255, 255, 255);"/>
    <path id="rect7344" d="M 39.112 23.855 L 39.112 27.498 L 62.423 27.498 L 62.423 23.855 L 39.112 23.855 Z" style="fill-opacity: 1; fill: rgb(255, 255, 255);"/>
    <path id="rect7344" d="M 0 23.855 L 0 27.498 L 32.205 27.498 L 35.422 27.498 C 35.422 25.508 33.986 23.889 32.205 23.855 L 0 23.855 Z" style="fill-opacity: 1; fill: rgb(255, 255, 255);"/>
    <path id="rect7344" d="M 219.905 23.513 L 217.254 27.496 L 224.501 27.496 L 227.152 23.513 L 219.905 23.513 Z" style="fill-opacity: 1; fill: rgb(255, 255, 255);"/>
  </g>
  <g transform="matrix(1.030232, 0, 0, 1.045757, 6.767743, 0)">
    <path d="M 109.385 12.379 C 109.385 13.367 110.19 14.15 111.156 14.14 L 118.389 14.14 L 118.389 11.937 L 111.596 11.937 L 111.596 11.32 L 116.949 11.32 L 116.949 9.128 L 109.396 9.128 L 109.385 12.379 L 109.385 12.379 Z" id="path11" style="fill-rule: evenodd; fill: rgb(255, 255, 255);"/>
    <path d="M 109.396 5.118 C 109.396 4.207 110.18 3.362 111.156 3.366 L 118.389 3.366 L 118.389 5.558 L 111.596 5.558 L 111.596 6.175 L 116.949 6.175 L 116.949 8.397 L 109.385 8.397 L 109.396 5.118 L 109.396 5.118 Z" id="path13" style="fill-rule: evenodd; fill: rgb(255, 255, 255);"/>
    <path d="M 110.898 0.411 C 108.443 0.411 106.452 2.402 106.452 4.856 L 106.452 12.637 C 106.452 15.092 108.443 17.082 110.898 17.082 L 118.391 17.082 L 118.391 14.891 L 111.084 14.891 C 109.795 14.891 108.652 13.669 108.652 12.381 L 108.652 5.11 C 108.652 3.821 109.795 2.63 111.084 2.63 L 118.391 2.63 L 118.391 0.408 L 110.898 0.408 L 110.898 0.411 Z" id="path29" style="fill-rule: evenodd; fill: rgb(255, 255, 255);"/>
    <path d="M 125.084 11.997 L 125.084 5.558 L 132.229 5.558 L 132.229 3.366 L 124.683 3.366 C 123.707 3.362 122.923 4.207 122.923 5.118 L 122.914 12.379 C 122.914 13.367 123.717 14.15 124.683 14.14 L 129.286 14.14 L 129.274 9.089 L 125.811 9.089 L 125.811 11.261 L 127.091 11.261 L 127.091 11.996 L 125.084 11.996 L 125.084 11.997 Z" id="path31" style="fill-rule: evenodd; fill: rgb(255, 255, 255);"/>
    <path d="M 104.333 0.39 L 97.155 0.39 C 94.131 0.39 91.678 2.842 91.678 5.866 C 91.678 8.891 94.131 11.284 97.155 11.258 L 99.342 11.258 L 99.342 11.997 L 91.726 11.997 L 91.726 14.141 L 99.094 14.141 C 100.479 14.141 101.603 13.017 101.603 11.634 C 101.603 10.249 100.479 9.145 99.094 9.145 L 97.185 9.137 C 95.388 9.137 93.931 7.68 93.931 5.884 C 93.931 4.087 95.387 2.63 97.185 2.63 L 104.338 2.63 L 104.333 0.39 L 104.333 0.39 Z" id="path33" style="fill-rule: evenodd; fill: rgb(255, 255, 255);"/>
    <path d="M 104.333 5.499 L 96.872 5.499 L 96.872 6.234 L 99.11 6.238 C 102.136 6.238 104.587 8.631 104.587 11.655 C 104.587 14.68 102.136 17.079 99.11 17.079 L 91.726 17.064 L 91.726 14.885 L 99.094 14.885 C 100.891 14.885 102.348 13.429 102.348 11.632 C 102.348 9.836 100.891 8.398 99.094 8.398 L 97.185 8.391 C 95.8 8.391 94.676 7.267 94.676 5.882 C 94.676 4.497 95.8 3.374 97.185 3.374 L 104.338 3.374 L 104.333 5.499 L 104.333 5.499 Z" id="path35" style="fill-rule: evenodd; fill: rgb(255, 255, 255);"/>
    <path d="M 140.576 2.991 C 140.487 2.782 140.456 2.732 140.216 2.732 C 139.975 2.732 139.917 2.857 139.825 3.066 L 135.275 17.082 L 137.669 17.085 L 140.243 9.315 L 141.09 11.939 L 139.391 11.939 L 139.391 14.15 L 144.226 14.15 L 140.576 2.991 L 140.576 2.991 Z" id="path37" style="fill-rule: evenodd; fill: rgb(255, 255, 255);"/>
    <path d="M 124.425 17.084 C 121.97 17.084 119.978 15.093 119.978 12.639 L 119.978 4.858 C 119.978 2.403 121.97 0.413 124.425 0.413 L 132.229 0.413 L 132.229 2.635 L 124.613 2.635 C 123.322 2.635 122.179 3.826 122.179 5.115 L 122.179 12.385 C 122.179 13.674 123.321 14.895 124.613 14.895 L 130.008 14.895 L 130.008 8.359 L 125.813 8.359 L 125.813 6.177 L 132.238 6.177 L 132.238 16.572 L 136.815 2.409 C 137.307 1.006 138.643 0 140.216 0 C 141.82 0 143.182 1.05 143.645 2.502 L 148.398 17.085 L 139.391 17.085 L 139.391 14.894 L 145.242 14.894 L 141.275 2.731 C 141.043 2.062 140.629 1.983 140.216 1.983 C 139.784 1.983 139.385 2.16 139.16 2.771 L 134.503 17.085 L 124.425 17.085 L 124.425 17.084 Z" id="path39" style="fill-rule: evenodd; fill: rgb(255, 255, 255);"/>
  </g>
</svg>