<?xml version="1.0" encoding="utf-8"?>
<svg version="1.2" xmlns="http://www.w3.org/2000/svg">
  <path style="fill:#ffffff;fill-opacity:1;fill-rule:nonzero;stroke:none" d="M 64.901 1.005 C 65.472 0.056 66.362 0.056 66.362 0.056 L 92.906 0.056 L 92.906 5.941 L 71.823 5.941 L 70.679 7.523 L 70.679 11.51 L 92.906 11.51 L 88.715 17.837 L 70.679 17.837 L 70.679 23.532 L 92.906 23.532 L 92.906 29.353 L 59.44 29.353 C 59.44 23.026 59.44 15.686 59.44 9.358 Z" id="path4170"/>
  <path style="fill:#ffffff;fill-opacity:1;fill-rule:nonzero;stroke:none" d="M 154.632 0.056 C 155.331 0.056 155.331 0.121 155.839 0.689 C 162.507 9.801 169.682 19.926 176.54 29.481 C 172.857 29.543 170.507 29.417 166.824 29.481 L 162.443 23.532 L 149.933 23.532 L 145.932 18.217 L 145.932 29.481 L 136.47 29.481 C 136.152 29.481 135.835 29.164 135.835 28.848 L 135.898 0.056 M 145.932 17.837 L 158.062 17.837 L 149.361 5.941 L 145.996 5.941 Z" id="path4172"/>
  <path style="fill:#ffffff;fill-opacity:1;fill-rule:nonzero;stroke:none" d="M 103.638 0.056 L 130.056 0.056 L 130.056 5.941 L 108.909 5.941 C 107.956 5.941 107.702 5.941 107.512 6.258 L 106.623 7.333 L 106.495 21.951 C 106.495 23.405 106.623 23.532 107.385 23.532 L 121.864 23.532 L 121.864 17.837 L 114.752 17.837 L 119.007 11.51 L 131.898 11.51 L 131.898 29.606 C 122.435 29.543 107.893 29.606 98.431 29.543 C 97.796 29.543 96.272 28.911 96.272 27.266 L 96.208 9.358 L 101.86 0.942 C 102.432 -0.007 103.638 0.056 103.638 0.056 Z" id="path4174"/>
  <path style="fill-opacity: 1; fill-rule: nonzero; stroke: none; fill: rgb(255, 255, 255);" d="M 232.995 2.524 C 239.155 1.068 245.696 0.309 251.856 1.891 C 256.619 3.03 261 6.32 262.715 10.94 C 265.383 18.09 263.477 25.937 260.81 32.771 C 256.429 43.274 249.634 52.703 241.823 60.929 C 241.949 50.299 241.823 39.731 241.886 29.101 C 241.823 27.266 242.013 25.431 241.632 23.658 C 240.933 19.609 236.996 16.508 232.932 16.508 C 222.834 16.445 212.801 16.508 202.704 16.508 C 212.039 10.371 222.136 5.245 232.995 2.524 Z" id="path4176"/>
  <path style="fill-opacity: 1; fill-rule: nonzero; stroke: none; fill: rgb(255, 255, 255);" d="M 178.889 36.503 C 185.939 29.164 193.687 22.456 202.195 16.888 C 202.26 33.214 202.195 49.603 202.26 65.991 C 202.386 66.118 202.577 66.434 202.704 66.561 C 212.928 66.561 223.089 66.561 233.249 66.561 C 234.266 66.561 235.282 66.372 236.298 66.181 C 234.075 68.712 231.471 70.801 228.931 72.951 C 217.5 82.317 204.546 90.226 190.321 94.402 C 181.811 96.744 172.095 98.263 164.03 93.897 C 163.269 93.327 161.11 92.441 162.443 91.365 C 174.127 80.419 187.081 69.725 198.894 58.904 L 198.894 55.424 C 184.923 65.232 170.444 76.495 157.553 85.481 L 156.346 85.988 L 157.046 85.102 C 169.745 73.205 183.018 62.005 195.718 50.109 L 198.894 47.388 L 198.894 44.54 C 184.732 54.349 169.618 65.864 156.792 74.534 C 157.807 72.825 159.395 71.559 160.919 70.231 C 173.301 58.967 186.384 48.021 198.894 36.821 L 198.894 34.163 C 186.257 42.451 172.984 52.957 161.681 60.676 C 162.253 59.347 162.951 58.02 164.156 57.133 C 175.778 47.134 187.527 37.011 198.894 26.759 L 198.894 24.228 C 193.622 27.203 189.495 31.379 184.478 34.733 C 181.112 36.883 178.319 39.921 174.635 41.504 C 175.842 39.668 177.429 38.15 178.889 36.503 Z" id="path4178"/>
  <path style="fill-opacity: 1; fill-rule: nonzero; stroke: none; fill: rgb(255, 255, 255);" d="M 215.786 29.417 C 215.786 28.594 215.849 27.773 216.04 27.012 C 219.66 26.95 223.343 27.012 226.963 26.95 C 227.217 27.645 227.407 28.341 227.407 29.101 C 227.344 37.516 227.407 45.996 227.407 54.475 C 227.471 55.108 227.026 55.677 226.709 56.184 C 223.534 56.058 220.295 56.184 217.119 56.12 C 216.358 56.12 215.658 55.614 215.786 54.791 C 215.723 46.311 215.786 37.896 215.786 29.417 Z" id="path4180"/>
  <path style="fill-opacity: 1; fill-rule: nonzero; stroke: none; fill: rgb(255, 255, 255);" d="M 135.137 37.896 C 141.423 35.745 148.028 34.227 154.696 34.416 C 159.204 34.542 163.84 35.681 167.459 38.592 C 155.585 49.92 142.82 60.993 130.754 72.257 L 130.754 75.103 C 142.948 66.497 156.22 56.69 166.824 48.907 C 168.602 47.641 170.317 46.312 172.222 45.236 C 171.27 46.881 169.682 47.895 168.348 49.16 C 157.046 59.6 145.551 69.851 134.184 80.229 C 132.977 81.367 131.834 82.443 130.754 83.772 L 130.754 85.418 C 144.598 75.863 158.697 65.864 172.602 56.437 C 171.713 57.511 170.634 58.461 169.618 59.412 C 156.855 71.054 143.518 82.38 130.754 94.088 L 130.754 96.618 C 141.804 88.708 153.806 80.039 163.459 73.141 C 164.919 72.129 166.316 71.054 167.903 70.231 C 167.522 70.801 167.141 71.371 166.697 71.877 C 154.696 82.887 142.757 93.518 130.754 104.527 L 130.754 106.426 C 139.264 100.921 147.901 93.833 155.521 88.708 C 153.87 91.049 151.838 93.074 149.87 95.226 C 138.375 107.059 124.912 117.183 109.734 123.954 C 101.415 127.561 92.397 130.345 83.189 129.965 C 78.173 129.776 72.775 128.256 69.347 124.397 C 65.79 120.473 64.964 114.779 65.599 109.653 C 66.488 102.312 69.537 95.415 73.22 89.087 C 77.348 82.064 82.364 75.483 88.143 69.662 C 87.826 79.976 88.08 90.353 88.016 100.667 C 88.016 103.957 87.699 107.627 89.731 110.539 C 91.255 112.627 93.668 114.272 96.399 114.272 C 106.56 114.272 116.72 114.272 126.881 114.272 C 126.881 108.008 126.945 101.807 126.881 95.605 C 122.816 95.415 118.625 95.162 114.624 95.732 C 114.561 98.263 114.752 100.795 114.561 103.325 C 113.417 104.148 111.83 103.578 110.56 103.768 C 107.702 103.578 104.782 104.148 102.05 103.388 C 102.114 93.959 102.05 84.595 102.05 75.166 C 105.925 74.28 110.052 75.04 113.989 74.787 C 114.18 74.977 114.433 75.166 114.624 75.419 C 114.624 77.761 114.624 80.102 114.624 82.507 C 118.435 83.076 122.435 82.633 126.309 82.76 C 126.436 82.634 126.754 82.38 126.881 82.254 C 126.881 76.369 126.881 70.484 126.881 64.599 C 119.133 64.094 111.259 64.536 103.448 64.41 C 99.955 64.283 96.399 64.41 92.969 64.98 C 93.985 63.841 95.065 62.701 96.272 61.688 C 107.639 51.564 120.721 43.021 135.137 37.896 Z" id="path4182"/>
  <path style="fill:#ffffff;fill-opacity:1;fill-rule:nonzero;stroke:none" d="M 17.971 2.524 C 19.052 1.005 20.639 -0.007 22.671 0.056 C 26.544 -0.07 30.418 0.056 34.355 0.056 C 34.292 1.259 34.292 2.018 34.228 3.22 C 35.816 1.574 37.531 -0.07 40.135 0.056 C 45.533 -0.07 50.867 0.056 56.264 0.056 C 56.264 9.991 56.264 19.546 56.264 29.543 C 52.645 29.543 48.961 29.543 45.342 29.543 C 45.342 22.393 45.342 15.242 45.342 8.093 C 43.31 7.903 42.293 9.737 41.404 11.13 C 37.404 17.268 33.276 23.279 29.529 29.543 C 25.656 29.607 21.845 29.607 18.036 29.543 C 22.608 22.141 27.561 14.99 32.259 7.712 C 29.847 7.839 26.735 7.081 24.957 9.042 C 20.448 15.812 16.003 22.71 11.495 29.543 C 7.684 29.543 3.81 29.543 0 29.543 C 5.969 20.496 12.002 11.51 17.971 2.524 Z" id="path4184"/>
</svg>