<?xml version="1.0" encoding="utf-8"?>
<svg xmlns="http://www.w3.org/2000/svg">
  <path d="M 49.042 54.248 L 49.042 1.298 L 40.294 1.298 L 40.439 35.348 L 0 1.732 L 0.142 54.827 L 7.744 54.827 L 7.744 20.488 L 49.042 54.248 Z M 54.635 55.113 L 61.375 43.571 L 55.208 43.571 L 55.208 35.493 L 65.39 35.493 L 83.888 1.732 L 113.43 55.113 L 102.961 55.113 L 96.939 43.571 L 70.697 43.571 L 64.388 55.113 L 54.635 55.113 Z M 74.281 35.348 L 93.21 35.348 L 83.746 17.89 L 74.281 35.348 Z M 188.286 55.113 L 179.683 55.113 L 179.683 1.874 L 208.936 36.069 L 238.475 1.155 L 238.475 55.113 L 229.296 55.113 L 229.155 26.114 L 208.792 50.787 L 188.286 26.258 L 188.286 55.113 Z M 255.11 55.113 L 255.253 0.577 L 264 0.577 L 263.857 55.113 L 255.11 55.113 Z" style="fill: rgb(255, 255, 255);"/>
  <path d="M 113.143 29.001 C 113.143 12.985 126.049 0 141.969 0 C 157.885 0 170.791 12.985 170.791 29.001 C 170.791 45.014 157.885 58 141.969 58 C 126.049 58 113.143 45.014 113.143 29.001 Z M 141.969 49.343 C 153.154 49.343 162.185 40.253 162.185 29.001 C 162.185 17.892 153.153 8.801 141.969 8.801 C 130.926 8.801 121.89 17.892 121.89 29.001 C 121.89 40.253 130.924 49.343 141.969 49.343 Z" style="fill: rgb(255, 255, 255);"/>
</svg>