<svg id="Warstwa_1" data-name="Warstwa 1" xmlns="http://www.w3.org/2000/svg" viewBox="0 0 239.14 75.6"><title>neogeomvs</title><path d="M219.12,212.24c2.58.93,3.27,3.06,3.5,5.48.06.68.07,1.36.07,2V273H205.62V242.35l-.37-.11c-.35.55-.73,1.09-1.05,1.65-4.23,7.48-8.44,15-12.71,22.42a32.43,32.43,0,0,1-2.89,4.25,6.5,6.5,0,0,1-5.36,2.48c-3.12,0-6.24,0-9.36,0s-4.67-1.48-5.15-4.44a19,19,0,0,1-.23-3.1c0-7.2,0-14.4,0-21.6V242.6l-.25-.11c-.26.4-.55.78-.79,1.19Q159,257.83,150.54,272a1.86,1.86,0,0,1-1.88,1.06c-5.64,0-11.28,0-16.92,0h-1.36c.28-.51.45-.85.65-1.18q16.18-27.33,32.38-54.67a10.73,10.73,0,0,1,5.31-4.94h13.2A5,5,0,0,1,185.5,217c0,.52,0,1,0,1.56,0,7.48,0,15,0,22.44a15.93,15.93,0,0,0,.17,1.68l.39.11c.36-.54.77-1.05,1.09-1.61q6.52-11.59,13-23.2c1.36-2.43,2.9-4.71,5.71-5.7Z" transform="translate(-130.38 -212.24)" fill="white"/><path d="M334.56,212.24a43.69,43.69,0,0,1,4.2,1.67,10.14,10.14,0,0,1,4.11,4.1c1.75,3,3.49,6.1,5.23,9.15.75,1.32.54,1.72-1,1.72-4.84,0-9.68,0-14.52,0a2.83,2.83,0,0,1-2.61-1.34,2.85,2.85,0,0,0-2-.9c-4.27-.08-8.55,0-12.83,0h-11c-1.92,0-2.67.77-2.68,2.7q0,1.32,0,2.64a1.77,1.77,0,0,0,1.63,1.9A11,11,0,0,0,305,234c13,0,25.92.11,38.88,0a15.37,15.37,0,0,1,13.7,7.38c3.77,5.69,7.31,11.55,10.74,17.46a9.63,9.63,0,0,1-8,14.24c-4.56.12-9.12,0-13.68,0q-19.86,0-39.72,0a24.79,24.79,0,0,1-11.49-2.45,18.67,18.67,0,0,1-8.91-9.36c-.72-1.64-1.44-3.29-2.13-5-.62-1.51,0-2.48,1.59-2.5,4.56-.05,9.12-.05,13.68,0a2,2,0,0,1,1.55,1,3.38,3.38,0,0,0,3,2.2,11.75,11.75,0,0,0,1.68.1h39.59c2.11,0,2.45-.46,1.6-2.43-.63-1.47-1.43-2.86-2.17-4.27a2.65,2.65,0,0,0-2.65-1.45q-21.48,0-43,0a21.21,21.21,0,0,1-5.33-.6,13.77,13.77,0,0,1-10-12.78c-.08-3.48-.07-7,0-10.44a13.88,13.88,0,0,1,10.65-12.66,4.21,4.21,0,0,0,.65-.23Z" transform="translate(-130.38 -212.24)" fill="white"/><path d="M284.88,212.24c1.06.71.74,1.64.39,2.55q-2.72,7.11-5.44,14.21-7.44,19.53-14.87,39.05a16.29,16.29,0,0,1-1.28,2.7A4.46,4.46,0,0,1,259.8,273c-3.56,0-7.12.06-10.68,0-2.49-.05-3.92-1.61-4.76-3.77-1.16-3-2.23-6-3.32-9q-8.17-22.38-16.34-44.77c-.17-.45-.32-.91-.46-1.37a1.48,1.48,0,0,1,.64-1.86H241a14.54,14.54,0,0,1,1.83,2.81c3.61,10,7.14,20.08,10.7,30.13.21.6.52,1.17.78,1.76l.4,0c.31-.66.67-1.31.93-2,3.82-10.08,7.61-20.17,11.47-30.23a12.48,12.48,0,0,1,1.73-2.46Z" transform="translate(-130.38 -212.24)" fill="white"/><path d="M148.08,287.84c0-3.24,0-6.47,0-9.71a.91.91,0,0,1,.12-.29c.35,0,.74,0,1.13,0,4.35,0,8.71,0,13.07,0,2.25,0,3.18.94,3.19,3.22s0,4.55,0,6.83h-1.92c0-2.19-.07-4.38-.09-6.57,0-1.06-.46-1.65-1.59-1.6-.84,0-1.68,0-2.51,0-1.12,0-1.6.5-1.58,1.6,0,2.19,0,4.38,0,6.57H156a11.58,11.58,0,0,1-.18-1.28c0-1.8,0-3.6,0-5.4,0-1-.43-1.5-1.44-1.49h-2.76c-1,0-1.45.51-1.43,1.49s0,2.08,0,3.12c0,1.19-.12,2.37-.18,3.56Z" transform="translate(-130.38 -212.24)" fill="white"/><path d="M343.2,287.84v-10c.42,0,.77-.06,1.12-.06,4.39,0,8.79,0,13.19,0,2.15,0,3.16,1,3.17,3.14,0,1.92,0,3.84,0,5.75a6.68,6.68,0,0,1-.19,1.16H358.8c-.07-1.5-.2-3-.2-4.51,0-4,.24-3.67-3.72-3.66-1.68,0-1.93.27-2,1.95,0,2.07-.08,4.15-.12,6.22h-1.92c0-2.19,0-4.38,0-6.58,0-1.08-.48-1.63-1.59-1.59-.76,0-1.52,0-2.27,0-1.46,0-1.83.37-1.85,1.83q0,3.18,0,6.34Z" transform="translate(-130.38 -212.24)" fill="white"/><path d="M245.52,287.84a3.36,3.36,0,0,1-1.9-3.52c.08-2.11,0-4.23,0-6.47.5,0,.92-.06,1.34-.06,3.24,0,6.47,0,9.71,0,.69,0,1.13.07,1.13,1s-.42,1-1.12.95c-2.36,0-4.71,0-7.07,0-1.66,0-1.92.3-1.83,2.19h2.43c1.84,0,3.68,0,5.51,0,.8,0,.9.38.91,1s-.26.9-.92.89c-2.24,0-4.47,0-6.71,0h-1.16c-.24,1.85,0,2.2,1.77,2.2h6.71c1.59,0,1.74.23,1.26,1.87Z" transform="translate(-130.38 -212.24)" fill="white"/><path d="M331.44,287.84a3.39,3.39,0,0,1-1.9-3.53c.08-2.11,0-4.22,0-6.52h1.83c3.08,0,6.16,0,9.23,0,.7,0,1.13.08,1.13,1s-.44,1-1.13.95c-2.36,0-4.71,0-7.07,0-1.65,0-1.92.31-1.83,2.19h3.16c1.6,0,3.2,0,4.8,0,.8,0,.88.39.9,1s-.28.89-.93.89c-2.24,0-4.48,0-6.71,0h-1.16c-.23,1.85.06,2.2,1.78,2.2h6.71c1.59,0,1.75.25,1.25,1.87Z" transform="translate(-130.38 -212.24)" fill="white"/><path d="M303.36,287.84c-.23-1.88-.23-1.88,1.62-1.88h7.07c.75,0,1.37-.08,1.4-1s-.56-1.18-1.4-1.17c-2.07,0-4.15,0-6.23,0-1.9,0-2.7-.85-2.72-2.82,0-2.24.73-3.14,2.64-3.15,3.06,0,6.13,0,9.29,0v1.88h-5.37c-1,0-2.08,0-3.12,0-.8,0-1.3.22-1.3,1.14s.59,1.08,1.35,1.07h6c1.66,0,2.56.45,2.86,1.62s.39,3.39-1.07,4.09c-.09,0-.14.16-.21.25Z" transform="translate(-130.38 -212.24)" fill="white"/><path d="M276,287.84c-.18-1.88-.18-1.88,1.65-1.88h7.07c.74,0,1.36-.07,1.38-1s-.55-1.18-1.39-1.17c-2,0-4,0-6,0-2.19,0-3-.76-3-2.95s.75-3,3-3c2.51,0,5,0,7.54,0,1.62,0,1.65,0,1.32,1.88h-5.92c-.84,0-1.68,0-2.52,0s-1.3.24-1.29,1.15.5,1.07,1.25,1.06h6c1.76,0,2.62.47,3,1.62a3.63,3.63,0,0,1-1.21,4.15c-.06,0-.08.13-.12.19Z" transform="translate(-130.38 -212.24)" fill="white"/><path d="M258.72,287.84a3.45,3.45,0,0,1-1.64-3.43c.08-1.31,0-2.63,0-4a2.5,2.5,0,0,1,2.72-2.67q3.59,0,7.17,0a2.48,2.48,0,0,1,2.76,2.73c0,1.36-.07,2.72,0,4.07a3.13,3.13,0,0,1-1.71,3.25ZM263.4,286c.92,0,1.84,0,2.76,0a1.35,1.35,0,0,0,1.6-1.48c0-1.12,0-2.24,0-3.35a1.33,1.33,0,0,0-1.51-1.46h-5.63a1.29,1.29,0,0,0-1.45,1.49c0,1.12,0,2.24,0,3.36s.5,1.45,1.48,1.44Z" transform="translate(-130.38 -212.24)" fill="white"/><path d="M229.92,287.84c0-2.7-.13-5.4,0-8.09a2.17,2.17,0,0,1,2.36-1.95q3.7-.06,7.41,0a2.41,2.41,0,0,1,2.5,2.49c0,1.67,0,3.35,0,5a2.87,2.87,0,0,1-1.69,2.53h-7.92c0-2.11-.23-1.87,1.81-1.88h4.32a1.27,1.27,0,0,0,1.46-1.36q.06-1.8,0-3.6a1.24,1.24,0,0,0-1.38-1.32h-5.52a1.3,1.3,0,0,0-1.44,1.5c0,1.12,0,2.24,0,3.36s-.14,2.21-.21,3.31Z" transform="translate(-130.38 -212.24)" fill="white"/><path d="M169,287.84a3.61,3.61,0,0,1-1.72-3.63c.11-1.71,0-3.43,0-5.15,0-.7-.08-1.29,1-1.31s1.08.62,1.08,1.37c0,1.72,0,3.44,0,5.15,0,1.38.33,1.69,1.72,1.7,1.63,0,3.27,0,4.91,0a1.39,1.39,0,0,0,1.6-1.6c0-1.88,0-3.75,0-5.63,0-.84.35-1,1.08-1s1,.24,1,1c0,2.11,0,4.23,0,6.35a3.15,3.15,0,0,1-1.76,2.75Z" transform="translate(-130.38 -212.24)" fill="white"/><path d="M294.72,287.84l-.34-3c-.78,0-1.6,0-2.42,0a2.59,2.59,0,0,1-2.81-2.85c0-1.12,0-2.24,0-3.35,0-.86.47-.84,1.08-.85s1,.13.95.85c0,1,0,1.92,0,2.88a1.34,1.34,0,0,0,1.5,1.48c1.95,0,3.91,0,5.87,0A1.31,1.31,0,0,0,300,281.5c0-1,0-1.92,0-2.88,0-.75.37-.85,1-.84s1.14,0,1.12.82c0,1.24.05,2.48,0,3.71a2.54,2.54,0,0,1-2.56,2.5c-.9.06-1.81,0-2.86,0v3Z" transform="translate(-130.38 -212.24)" fill="white"/><path d="M217.44,287.84q-2.74-4.69-5.47-9.4c-.07-.12,0-.3,0-.45,1.55-.42,1.94-.27,2.66,1,1.24,2.22,2.47,4.45,3.83,6.9l2.34-4.18c.49-.88,1-1.73,1.43-2.63a2,2,0,0,1,2.76-1.16,4.22,4.22,0,0,1-.24.85q-2.29,4.08-4.61,8.14a7.85,7.85,0,0,1-.74.92Z" transform="translate(-130.38 -212.24)" fill="white"/><path d="M195.84,287.84c-.07-.62-.2-1.24-.21-1.86,0-2,0-4.06,0-6.28-1.44,0-2.82,0-4.19,0-.67,0-1.05-.11-1.05-.9s.26-1,1-1c3.31,0,6.63,0,9.94,0,1.64,0,1.64,0,1.39,1.84h-5v8.21Z" transform="translate(-130.38 -212.24)" fill="white"/><path d="M321.6,287.84c-.06-1.35-.15-2.69-.18-4s0-2.63,0-4.07h-4.9c-.55-1.73-.4-1.94,1.2-1.94h9.59c1.51,0,1.65.22,1.18,1.88h-5v8.17Z" transform="translate(-130.38 -212.24)" fill="white"/><path d="M183.12,287.84a3.22,3.22,0,0,1-1.93-3.38c.08-1.87,0-3.75,0-5.63,0-.76.21-1.06,1-1.07s1.13.26,1.11,1.11c0,1.79,0,3.59,0,5.39,0,1.41.29,1.7,1.69,1.71h8v1.87Z" transform="translate(-130.38 -212.24)" fill="white"/><path d="M204.24,287.84c-.06-1.22-.16-2.45-.18-3.67,0-1.75,0-3.5,0-5.25,0-.78.17-1.16,1.06-1.16s1.08.32,1.07,1.13c0,3,0,6,0,8.95Z" transform="translate(-130.38 -212.24)" fill="white"/><path d="M226.08,287.84q-.06-4.66-.11-9.34c0-.91.68-.66,1.2-.72.73-.07.86.33.86,1,0,3,0,6.07,0,9.11Z" transform="translate(-130.38 -212.24)" fill="white"/></svg>