<?xml version="1.0" encoding="utf-8"?>
<svg version="1.1" viewBox="0 0 3839 945" xmlns="http://www.w3.org/2000/svg">
  <path class="st1" d="M 711.9 560.3 L 520.1 249.4 L 381 249.4 L 381 694.3 L 518.9 694.3 L 518.9 383.5 L 711.9 694.3 L 849.8 694.3 L 849.8 249.4 L 711.9 249.4 L 711.9 560.3 Z M 1802.3 398.6 L 1802.3 354.7 L 1729.6 354.7 L 1729.6 294.5 L 1595.5 294.5 L 1595.5 354.7 L 1522.8 354.7 L 1522.8 398.6 L 1595.5 398.6 L 1595.5 694.4 L 1729.6 694.4 L 1729.6 398.6 L 1802.3 398.6 Z M 926.2 694.4 L 1060.3 694.4 L 1060.3 398.6 L 926.2 398.6 L 926.2 694.4 Z M 926.2 339.7 L 1060.3 339.7 L 1060.3 248.2 L 926.2 248.2 L 926.2 339.7 Z M 3270 378.5 C 3162.2 378.5 3074.5 452.4 3074.5 545.2 C 3074.5 636.7 3162.2 711.9 3270 711.9 C 3377.8 711.9 3465.5 638 3465.5 545.2 C 3465.5 452.4 3380.3 378.5 3270 378.5 Z M 3323.9 606.6 C 3323.9 654.2 3296.3 673 3268.8 673 C 3242.5 673 3213.7 652.9 3213.7 606.6 C 3213.7 589.1 3213.7 542.7 3213.7 542.7 C 3213.7 542.7 3213.7 498.8 3213.7 481.3 C 3213.7 434.9 3241.3 414.9 3268.8 414.9 C 3295.1 414.9 3323.9 433.7 3323.9 481.3 C 3323.9 498.8 3323.9 532.7 3323.9 544 C 3323.9 545.2 3323.9 589.1 3323.9 606.6 Z M 2900.2 413.6 C 2878.9 401.1 2856.3 389.8 2825 387.3 C 2728.5 378.5 2654.5 463.8 2654.5 542.7 C 2654.5 645.5 2733.5 684.3 2746 689.3 C 2791.1 710.6 2848.8 710.6 2900.2 678 C 2900.2 680.5 2900.2 695.5 2900.2 695.5 L 3031.8 695.5 L 3031.8 250.7 L 2900.2 250.7 C 2900.2 249.4 2900.2 344.7 2900.2 413.6 Z M 2900.2 545.2 C 2900.2 545.2 2900.2 579 2900.2 597.8 C 2900.2 642.9 2868.9 655.5 2847.6 655.5 C 2826.3 655.5 2795 643 2795 597.8 C 2795 581.5 2795 545.2 2795 545.2 C 2795 545.2 2795 507.6 2795 492.6 C 2795 446.2 2826.3 434.9 2847.6 434.9 C 2868.9 434.9 2900.2 446.2 2900.2 492.6 C 2900.2 507.6 2900.2 545.2 2900.2 545.2 Z M 1373.7 384.8 C 1329.8 386.1 1292.2 404.9 1267.2 429.9 C 1267.2 422.4 1267.2 398.6 1267.2 398.6 L 1134.3 398.6 L 1134.3 694.4 L 1267.2 694.4 C 1267.2 694.4 1267.2 512.7 1267.2 500.1 C 1267.2 473.8 1294.8 446.2 1331.1 446.2 C 1367.4 446.2 1392.5 475 1392.5 500.1 C 1392.5 518.9 1392.5 694.4 1392.5 694.4 L 1525.4 694.4 C 1525.4 694.4 1525.4 554 1525.4 534 C 1525.3 416.1 1423.8 383.5 1373.7 384.8 Z M 2461.6 384.8 C 2417.7 386.1 2380.1 404.9 2355.1 429.9 C 2355.1 422.4 2355.1 398.6 2355.1 398.6 L 2222.2 398.6 L 2222.2 694.4 L 2355 694.4 C 2355 694.4 2355 512.7 2355 500.1 C 2355 473.8 2382.6 446.2 2418.9 446.2 C 2455.2 446.2 2480.3 475 2480.3 500.1 C 2480.3 518.9 2480.3 694.4 2480.3 694.4 L 2613.2 694.4 C 2613.2 694.4 2613.2 554 2613.2 534 C 2612 416.1 2510.5 383.5 2461.6 384.8 Z M 2179.6 547.7 C 2179.6 456.2 2090.6 379.8 1981.6 379.8 C 1872.6 379.8 1784.8 453.7 1784.8 546.5 C 1784.8 638 1872.5 713.2 1981.6 713.2 C 2071.8 713.2 2148.3 661.8 2172.1 591.6 L 2039.2 591.6 C 2039.2 591.6 2039.2 592.9 2039.2 609.1 C 2039.2 663 2004.1 675.5 1984.1 675.5 C 1964 675.5 1927.7 663 1927.7 609.1 C 1927.7 592.8 1927.7 547.7 1927.7 547.7 L 2179.6 547.7 Z M 1937.7 443.7 C 1947.7 424.9 1967.8 417.4 1985.3 416.1 C 2002.8 416.1 2021.6 424.9 2032.9 443.7 C 2041.7 458.7 2041.7 476.3 2041.7 501.4 L 1930.2 501.4 C 1927.6 475 1927.6 458.7 1937.7 443.7 Z M 3336.4 0 L 501.3 0 C 201.8 -1.2 0 215.6 0 473.8 C 0 732 200.5 945 502.6 945 L 3336.4 945 C 3637.2 945 3839 732 3839 473.8 C 3837.7 214.3 3636 -1.2 3336.4 0 Z M 3335.2 829.7 L 502.6 829.7 C 263.2 831 117.8 670.5 117.8 472.5 C 117.8 274.5 264.4 116.5 502.6 115.3 L 3335.2 115.3 C 3573.3 115.3 3720 274.5 3720 472.5 C 3720 670.5 3573.3 829.7 3335.2 829.7 Z M 3336.4 0 L 501.3 0 C 201.8 -1.2 0 215.6 0 473.8 C 0 732 200.5 945 502.6 945 L 3336.4 945 C 3637.2 945 3839 732 3839 473.8 C 3837.7 214.3 3636 -1.2 3336.4 0 Z M 3335.2 829.7 L 502.6 829.7 C 263.2 831 117.8 670.5 117.8 472.5 C 117.8 274.5 264.4 116.5 502.6 115.3 L 3335.2 115.3 C 3573.3 115.3 3720 274.5 3720 472.5 C 3720 670.5 3573.3 829.7 3335.2 829.7 Z M 3336.4 0 L 501.3 0 C 201.8 -1.2 0 215.6 0 473.8 C 0 732 200.5 945 502.6 945 L 3336.4 945 C 3637.2 945 3839 732 3839 473.8 C 3837.7 214.3 3636 -1.2 3336.4 0 Z M 3335.2 829.7 L 502.6 829.7 C 263.2 831 117.8 670.5 117.8 472.5 C 117.8 274.5 264.4 116.5 502.6 115.3 L 3335.2 115.3 C 3573.3 115.3 3720 274.5 3720 472.5 C 3720 670.5 3573.3 829.7 3335.2 829.7 Z" style="fill: rgb(255, 255, 255);"/>
</svg>