<?xml version="1.0" encoding="utf-8"?>
<svg version="1.0" xmlns="http://www.w3.org/2000/svg">
  <path d="M 0.326 59.672 C 0.139 59.531 0 48.478 0 35.129 C 0 13.723 0.093 10.819 0.745 10.164 C 1.35 9.508 3.446 9.415 16.296 9.415 C 29.194 9.415 31.242 9.508 31.848 10.164 C 32.499 10.819 32.593 13.583 32.499 35.316 L 32.36 59.765 L 16.482 59.905 C 7.776 59.953 0.512 59.859 0.326 59.672 Z M 20.394 55.175 C 20.72 54.8 20.952 50.725 21.046 44.449 C 21.185 32.927 21.325 32.505 25.05 30.726 L 27.005 29.836 L 27.005 23.231 C 27.005 13.911 27.797 14.566 16.436 14.566 C 8.567 14.566 7.17 14.661 6.425 15.363 C 5.634 16.065 5.587 17.33 5.587 35.222 L 5.587 54.331 L 6.611 55.035 C 8.008 56.018 19.602 56.112 20.394 55.175 Z" style="fill: rgb(255, 255, 255);"/>
  <path d="M 37.249 59.11 C 36.969 58.5 36.783 50.023 36.783 34.754 C 36.783 11.896 36.83 11.242 37.714 10.351 C 38.599 9.461 39.251 9.415 50.425 9.415 C 63.649 9.415 64.347 9.602 67.606 12.974 C 70.679 16.206 70.773 16.908 70.773 35.362 C 70.773 51.663 70.773 51.802 69.655 54.192 C 69.05 55.456 67.653 57.33 66.582 58.267 L 64.533 60 L 51.17 60 C 38.366 60 37.714 59.953 37.249 59.11 Z M 62.578 54.8 C 65.138 52.786 65.185 52.506 65.185 35.175 C 65.185 13.817 65.558 14.566 55.64 14.566 C 51.496 14.566 49.354 14.754 48.982 15.129 C 48.563 15.55 48.423 20.562 48.423 34.894 C 48.423 52.084 48.517 54.144 49.215 54.941 C 49.867 55.691 50.751 55.784 55.64 55.784 C 60.715 55.784 61.461 55.691 62.578 54.8 Z" style="fill: rgb(255, 255, 255);"/>
  <path d="M 84.089 59.25 C 83.949 58.828 83.809 54.285 83.809 49.086 L 83.809 39.672 L 79.386 35.41 L 74.963 31.147 L 74.963 21.03 C 74.963 10.117 75.103 9.415 77.477 9.415 C 79.479 9.415 79.619 10.07 79.619 18.689 C 79.619 23.7 79.805 27.213 80.131 27.822 C 80.783 29.18 83.903 31.99 86.976 34.098 L 89.397 35.785 L 91.865 34.098 C 93.168 33.207 95.264 31.475 96.521 30.351 L 98.709 28.243 L 98.709 19.625 C 98.709 11.85 98.802 10.866 99.547 10.21 C 100.618 9.228 102.154 9.18 103.086 10.164 C 103.737 10.773 103.831 12.459 103.831 21.077 L 103.831 31.334 L 99.873 34.941 C 97.685 36.955 95.59 39.157 95.217 39.906 C 94.658 40.936 94.519 43.278 94.519 50.632 L 94.519 60 L 89.443 60 C 85.253 60 84.322 59.859 84.089 59.25 Z" style="fill: rgb(255, 255, 255);"/>
  <path d="M 108.301 59.25 C 108.161 58.828 108.021 55.691 108.021 52.271 C 108.021 44.496 107.975 44.543 113.376 44.543 C 118.544 44.543 118.73 44.777 118.73 50.164 C 118.73 55.643 118.87 55.784 124.504 55.784 C 127.204 55.784 128.974 55.597 129.346 55.222 C 129.719 54.848 129.905 52.224 129.905 46.556 C 129.905 39.063 129.858 38.454 129.02 37.986 C 128.462 37.704 124.597 37.517 119.662 37.517 C 110.535 37.517 108.859 37.143 108.301 35.082 C 108.161 34.473 108.021 28.946 108.021 22.764 C 108.021 13.302 108.161 11.335 108.766 10.445 C 109.465 9.415 109.558 9.415 122.408 9.415 C 133.909 9.415 135.446 9.508 136.004 10.21 C 136.47 10.726 136.703 12.834 136.796 17.424 C 136.935 23.419 136.889 23.935 136.004 24.824 C 134.654 26.182 132.978 26.088 131.814 24.59 C 131.022 23.559 130.836 22.669 130.836 19.532 C 130.836 17.142 130.603 15.456 130.277 15.129 C 129.905 14.754 127.391 14.566 122.129 14.566 L 114.539 14.566 L 114.027 15.878 C 113.748 16.627 113.608 19.86 113.702 23.84 C 113.841 29.836 113.934 30.632 114.726 31.241 C 115.471 31.756 117.659 31.897 124.83 31.897 C 129.905 31.897 134.375 32.038 134.794 32.177 C 136.656 32.927 136.889 34.613 136.889 46.51 C 136.889 52.786 136.749 58.36 136.609 58.969 L 136.33 60 L 122.455 60 C 110.256 60 108.533 59.905 108.301 59.25 Z" style="fill: rgb(255, 255, 255);"/>
  <path d="M 141.359 59.25 C 141.219 58.828 141.079 55.691 141.079 52.271 C 141.079 44.496 141.033 44.543 146.434 44.543 C 151.463 44.543 151.789 44.918 151.789 50.725 C 151.789 55.691 151.881 55.784 157.748 55.784 C 163.522 55.784 163.429 55.971 163.429 46.745 C 163.429 36.861 164.174 37.517 152.952 37.517 C 143.966 37.517 142.057 37.189 141.359 35.41 C 141.219 34.988 141.079 29.32 141.079 22.81 C 141.079 11.944 141.126 10.914 141.918 10.21 C 142.663 9.508 144.338 9.415 155.606 9.415 C 167.433 9.415 168.457 9.461 169.155 10.258 C 169.807 10.96 169.947 12.224 169.947 17.705 C 169.947 23.466 169.854 24.355 169.109 25.012 C 167.945 26.088 166.082 25.995 165.011 24.824 C 164.313 24.028 164.08 22.904 163.894 19.297 L 163.662 14.801 L 155.746 14.661 C 148.715 14.566 147.784 14.613 147.272 15.363 C 146.853 15.925 146.667 18.267 146.667 23.091 C 146.667 32.553 145.829 31.897 158.027 31.897 L 167.479 31.897 L 168.736 33.115 L 169.947 34.379 L 169.947 46.464 C 169.947 53.067 169.807 58.828 169.668 59.25 C 169.435 59.905 167.712 60 155.513 60 C 143.314 60 141.592 59.905 141.359 59.25 Z" style="fill: rgb(255, 255, 255);"/>
  <path d="M 174.417 59.25 C 174.277 58.828 174.137 47.821 174.137 34.754 C 174.137 12.319 174.184 10.914 174.976 10.21 C 175.721 9.508 177.35 9.415 188.246 9.415 C 200.025 9.415 200.677 9.461 201.143 10.304 C 201.795 11.522 201.748 13.77 201.05 14.473 C 200.631 14.894 197.791 15.035 191.179 15.035 C 186.01 15.035 181.587 15.222 181.308 15.41 C 180.051 16.253 179.725 18.033 179.725 24.168 C 179.725 30.304 179.771 30.585 180.889 31.662 C 182.006 32.833 182.053 32.833 191.272 32.833 C 201.143 32.833 201.608 32.927 201.608 35.175 C 201.608 37.33 200.957 37.517 194.159 37.517 C 185.312 37.517 185.778 37.002 185.778 46.604 C 185.778 56.253 185.405 55.784 192.948 55.784 C 196.859 55.784 198.768 55.971 199.746 56.486 C 201.096 57.189 201.888 58.688 201.376 59.531 C 201.19 59.812 196.254 60 187.873 60 C 176.279 60 174.65 59.905 174.417 59.25 Z" style="fill: rgb(255, 255, 255);"/>
  <path d="M 214.646 50.538 C 214.646 39.485 214.738 39.813 209.757 35.362 C 208.08 33.864 206.358 32.038 205.985 31.334 C 205.473 30.351 205.333 27.915 205.333 20.515 C 205.333 11.85 205.426 10.914 206.171 10.21 C 207.289 9.18 208.732 9.228 209.664 10.258 C 210.362 11.007 210.455 12.365 210.455 19.579 L 210.455 28.056 L 213.668 31.054 C 215.437 32.646 217.625 34.379 218.51 34.894 L 220.186 35.785 L 223.352 33.396 C 225.075 32.084 227.17 30.351 227.915 29.555 L 229.312 28.102 L 229.452 19.344 C 229.545 13.911 229.778 10.398 230.104 9.977 C 230.383 9.649 231.268 9.415 232.059 9.508 L 233.503 9.649 L 233.642 20.655 L 233.735 31.662 L 229.545 35.69 L 225.354 39.718 L 225.354 49.133 C 225.354 54.285 225.215 58.828 225.075 59.25 C 224.842 59.859 223.911 60 219.721 60 L 214.646 60 L 214.646 50.538 Z" style="fill: rgb(255, 255, 255);"/>
  <path d="M 240.254 25.855 C 240.254 21.873 240.487 18.267 240.813 17.33 C 242.209 13.115 245.003 11.335 250.171 11.288 C 251.941 11.288 253.291 11.101 253.291 10.819 C 253.291 10.538 250.823 10.351 246.773 10.351 L 240.254 10.351 L 240.254 8.009 L 240.254 5.668 L 247.657 5.668 C 254.362 5.668 255.153 5.761 256.224 6.604 C 257.901 7.962 258.646 10.398 257.947 12.459 C 257.109 14.988 255.526 15.971 252.267 15.971 C 246.539 15.971 244.91 17.798 244.91 24.402 L 244.91 28.15 L 254.455 28.15 L 264 28.15 L 264 30.491 L 264 32.833 L 252.127 32.833 L 240.254 32.833 L 240.254 25.855 Z" style="fill: rgb(255, 255, 255);"/>
  <path d="M 245.376 25.012 C 245.422 21.405 246.121 18.641 247.238 17.752 C 247.983 17.142 249.101 16.908 251.056 16.908 C 254.455 16.908 256.69 15.925 257.947 13.864 C 259.763 10.914 258.599 6.978 255.433 5.48 C 254.222 4.918 252.313 4.731 247.052 4.731 L 240.254 4.731 L 240.254 2.342 L 240.254 0 L 248.542 0.14 C 256.736 0.281 256.876 0.281 258.785 1.592 C 259.856 2.295 261.299 3.747 261.998 4.825 C 263.162 6.558 263.302 7.166 263.302 10.819 C 263.302 14.473 263.162 15.082 261.998 16.814 C 260.089 19.766 257.528 21.264 254.082 21.498 C 248.402 21.873 250.311 22.529 257.155 22.529 L 264 22.529 L 264 24.871 L 264 27.213 L 254.688 27.213 L 245.376 27.213 L 245.376 25.012 Z" style="fill: rgb(255, 255, 255);"/>
</svg>