<?xml version="1.0" encoding="utf-8"?>
<!DOCTYPE svg PUBLIC "-//W3C//DTD SVG 20010904//EN" "http://www.w3.org/TR/2001/REC-SVG-20010904/DTD/svg10.dtd">
<svg version="1.0" xmlns="http://www.w3.org/2000/svg" width="800px" height="80px" viewBox="0 0 800 80" preserveAspectRatio="xMidYMid meet">
 <g fill="#ffffff">
  <path d="M767 78.8 c-0.6 -0.7 -7.6 -11.2 -15.5 -23.3 l-14.4 -22 14.4 -0.3 14.5 -0.3 0 -6.9 0 -7 -25.5 0 -25.5 0 0 30 0 30 -15.5 0 -15.5 0 0 -39.5 0 -39.6 49.3 0.3 c54 0.3 51.9 0.1 57.8 6.5 4.9 5.2 5.9 8.5 5.9 18.8 0 5.9 -0.5 10.8 -1.4 12.8 -2 4.7 -6.8 8.7 -12.6 10.6 l-5.1 1.7 10.2 13.4 c5.7 7.4 10.7 13.7 11.1 13.8 0.5 0.2 0.6 0.8 0.2 1.3 -0.9 1.5 -31.1 1.1 -32.4 -0.3z"/>
  <path d="M129.4 77.5 c-0.3 -0.6 -0.3 -14.1 -0.2 -30 l0.3 -29 39.1 0 39 0 4.2 2.7 c5.6 3.8 7.6 7.8 7.7 15.8 0 8.2 -2.3 13.6 -7.2 17 -3.6 2.5 -3.7 2.5 -31 2.8 l-27.4 0.3 0.2 10.5 0.2 10.5 -12.3 0.2 c-7.5 0.1 -12.4 -0.2 -12.6 -0.8z m64.6 -39.5 l0 -5 -19.4 0 -19.4 0 -0.4 4.3 c-0.3 2.3 -0.3 4.5 -0.1 5 0.2 0.4 9.2 0.7 19.9 0.7 l19.4 0 0 -5z"/>
  <path d="M326.4 78.1 c-0.2 -0.2 -0.4 -13.9 -0.4 -30.3 l0 -29.8 37.5 0 c40.8 0 41.5 0.1 46.7 5.6 1.5 1.6 3.1 4.9 3.7 7.4 1 4.2 1.6 46.2 0.7 47.1 -0.2 0.2 -5.4 0.3 -11.5 0.1 l-11.1 -0.3 -0.2 -22.2 -0.3 -22.2 -19.5 -0.3 c-10.7 -0.1 -20.5 0 -21.7 0.3 -2.3 0.5 -2.3 0.6 -2.3 22.5 l0 21.9 -10.6 0.3 c-5.8 0.2 -10.8 0.1 -11 -0.1z"/>
  <path d="M427.4 77.5 c-0.3 -0.6 -0.3 -11.4 -0.2 -24 l0.3 -23 43 -0.2 43 -0.2 0.9 -4 c1.7 -7.6 4.7 -7.1 -43.9 -7.1 l-43.5 0 0 -9.5 0 -9.5 49.4 0 c35.1 0 50.3 0.3 52.7 1.2 5.2 1.8 8.5 4.6 11.3 9.8 3.4 6.3 3.7 17.7 0.6 22.8 l-2 3.3 2 3.9 c2.6 5 2.8 18.8 0.4 24.6 -1.7 4.1 -5.6 8.8 -8.9 10.7 -2.7 1.6 -104.6 2.7 -105.1 1.2z m84.1 -24.5 l0 -6.5 -30.5 0 -30.5 0 -0.3 5.4 c-0.2 2.9 -0.1 6 0.2 6.7 0.5 1.2 5.8 1.4 30.8 1.2 l30.3 -0.3 0 -6.5z"/>
  <path d="M9.8 75.4 c-2.1 -1.3 -5 -4.3 -6.5 -6.6 l-2.8 -4.1 -0.3 -24 c-0.3 -23.9 -0.3 -24 2.2 -29.1 2.7 -5.4 7 -9 12.7 -10.6 4.7 -1.4 82.3 -1.3 87.2 0.1 2.1 0.5 5.3 2.4 7.3 4.1 6.5 5.7 6.8 7.1 7.2 29.7 0.2 11.3 0.1 22.8 -0.3 25.7 -0.7 6.1 -4 10.9 -10 14.8 l-3.9 2.6 -44.6 -0.1 -44.5 0 -3.7 -2.5z m76.7 -36.1 l0 -19.8 -28 0 -28 0 -0.3 19 c-0.1 10.4 -0.1 19.4 0.1 20 0.3 0.7 9.9 0.9 28.3 0.8 l27.9 -0.2 0 -19.8z"/>
  <path d="M232.4 73.5 c-2.6 -2.6 -4.5 -5.8 -4.9 -7.7 -0.4 -1.9 -0.5 -10.8 -0.3 -19.9 0.3 -16.4 0.3 -16.6 3.1 -20.2 1.6 -2.1 4.6 -4.6 6.7 -5.7 3.7 -1.9 6 -2 41.5 -2 l37.5 0 0 7.5 0 7.5 -32.7 0.2 -32.8 0.3 0 4 0 4 30.8 0.3 30.8 0.2 -0.3 6.3 -0.3 6.2 -30.5 0.2 -30.5 0.2 -0.3 4 -0.3 4.1 32.8 0.2 32.8 0.3 0.3 7.3 0.3 7.2 -39.7 0 -39.7 0 -4.3 -4.5z"/>
  <path d="M564.8 74.7 c-2.4 -1.8 -5.3 -5.2 -6.5 -7.7 -2.2 -4.2 -2.3 -5.6 -2.3 -27.5 0 -22.9 0 -23.2 2.6 -28.3 1.9 -3.9 3.8 -5.9 7.2 -8 l4.7 -2.7 41.2 -0.3 c28.7 -0.2 42.6 0.1 45.5 0.9 5.7 1.5 12.2 8 13.8 13.8 0.8 3 1.1 11.8 0.8 27 -0.3 21.6 -0.4 22.8 -2.6 26.3 -1.3 2 -4.2 5.1 -6.4 6.8 l-4.2 3 -44.7 0 -44.7 0 -4.4 -3.3z m77 -35.2 l-0.3 -19.5 -27.8 -0.3 -27.7 -0.2 0 19.8 0 19.7 28 0 28 0 -0.2 -19.5z"/>
 </g>
</svg>