<svg id="Warstwa_1" data-name="Warstwa 1" xmlns="http://www.w3.org/2000/svg" viewBox="0 0 420.71 60.56"><title>pce-cd</title><path d="M234.54,193.85c7.82,0,15.65,0,23.47,0a15.31,15.31,0,0,1,6.74,1.54,21.66,21.66,0,0,1,5.37,3.62,15.29,15.29,0,0,1,2.57,3,9,9,0,0,1,1.48,5c0,1.39,0,2.78,0,4.16a11.09,11.09,0,0,1-.82,4.22,21.75,21.75,0,0,1-1.48,3c-.17.28-.34.57-.53.84a.92.92,0,0,0,0,1.09c.21.33.4.66.6,1a20.57,20.57,0,0,1,1.42,3,12,12,0,0,1,.78,4.23c0,2.83,0,5.66,0,8.49,0,.17,0,.34,0,.5a2.74,2.74,0,0,1-1.48,2.6,7.8,7.8,0,0,1-2.32.89,13.57,13.57,0,0,1-5.95.06,8.16,8.16,0,0,1-2-.71,2.92,2.92,0,0,1-1.73-2.8c0-2.27,0-4.55,0-6.82,0-.5,0-1,0-1.5a6.14,6.14,0,0,0-1.05-2.95,4,4,0,0,0-3.48-1.93h-31c-.61,0-1.23,0-1.83,0a3.13,3.13,0,0,0-3,3c0,.44,0,.89,0,1.33q0,4.08,0,8.16c0,.39,0,.77,0,1.16a2.34,2.34,0,0,1-.87,1.73,5.53,5.53,0,0,1-1.9,1,13.5,13.5,0,0,1-6.25.47,8.4,8.4,0,0,1-2.09-.51,5.27,5.27,0,0,1-1.58-.9,2.38,2.38,0,0,1-.85-1.75c0-.39,0-.77,0-1.16V197.52c0-.38,0-.77,0-1.16a4.5,4.5,0,0,1,.19-1,2.06,2.06,0,0,1,1.67-1.45,3.74,3.74,0,0,1,.82-.08h25.14Zm5.21,18.82h17.62a1.67,1.67,0,0,0,1.64-1.18,5.55,5.55,0,0,0-.16-4.36,1.21,1.21,0,0,0-.18-.28,1.43,1.43,0,0,0-1.11-.64l-1.49,0H222.32a1.69,1.69,0,0,0-1.49.9,5.18,5.18,0,0,0,.08,4.78,1.55,1.55,0,0,0,1.22.76c.5,0,1,0,1.49,0Z" transform="translate(-40.43 -181.3)" fill="white"/><path d="M395,194.47h20.3a21.11,21.11,0,0,1,4.63.41,16.74,16.74,0,0,1,6.09,2.57,12.65,12.65,0,0,1,3.55,3.7,7.59,7.59,0,0,1,1.24,4.24c0,1.17,0,2.33,0,3.5v27.45c0,.56,0,1.11,0,1.67a2.86,2.86,0,0,1-1,2.18,5.39,5.39,0,0,1-2,1.1,10.32,10.32,0,0,1-4.93.36,8.78,8.78,0,0,1-2.08-.57,5.59,5.59,0,0,1-1.42-.87,3.13,3.13,0,0,1-1.11-2.33c0-.5,0-1,0-1.5V212.09c0-.5,0-1,0-1.5a4.09,4.09,0,0,0-4.11-4.13h-7a12.29,12.29,0,0,0-1.49.06,3.58,3.58,0,0,0-3,2.32,5.4,5.4,0,0,0-.42,1.94q0,.91,0,1.83v25.46a2.72,2.72,0,0,1-1.19,2.26,6,6,0,0,1-2.27,1,12.42,12.42,0,0,1-6.57-.22,5.53,5.53,0,0,1-1.64-.79,2.7,2.7,0,0,1-1.28-2.38c0-.5,0-1,0-1.5v-25q0-.91,0-1.83a4.25,4.25,0,0,0-.37-1.61,2.37,2.37,0,0,0-2-1.54,11.14,11.14,0,0,0-1.16,0h-7.32c-.33,0-.67,0-1,0a3.76,3.76,0,0,0-3.43,2.7,6,6,0,0,0-.32,1.79c0,.56,0,1.11,0,1.67v24.29c0,.5,0,1,0,1.5a2.29,2.29,0,0,1-.71,1.63,4.78,4.78,0,0,1-1.52,1,8.41,8.41,0,0,1-2.24.63,12.88,12.88,0,0,1-5.28-.23,6.1,6.1,0,0,1-2-.91,2.81,2.81,0,0,1-1.18-2.11c0-.33,0-.66,0-1V208.16a14,14,0,0,1,2.3-7.87,12.09,12.09,0,0,1,10.29-5.77c3.05-.08,6.1,0,9.16,0H395Z" transform="translate(-40.43 -181.3)" fill="white"/><path d="M316.79,194.75c5.6,0,11.2.05,16.8,0a18.52,18.52,0,0,1,9,2.19,22.22,22.22,0,0,1,10.42,11,22.83,22.83,0,0,1,1.73,10.89,26,26,0,0,1-1.21,6.53,21.81,21.81,0,0,1-13.9,14.2,12.92,12.92,0,0,1-4.4.75h-3.5c-10.48,0-21,0-31.44,0a21.07,21.07,0,0,1-13.38-4.68,20.18,20.18,0,0,1-6.9-10.36,23.73,23.73,0,0,1-1.06-6.37c0-1.33,0-2.67,0-4A21,21,0,0,1,280.8,207,20.78,20.78,0,0,1,293,195.9a19,19,0,0,1,6.68-1.16c5.38,0,10.75,0,16.13,0Zm.57,33.62h15a7.28,7.28,0,0,0,5.46-2.43,10.07,10.07,0,0,0,2.1-3.55,16.45,16.45,0,0,0,.87-5.73,10.67,10.67,0,0,0-.41-2.62,10.84,10.84,0,0,0-5.72-6.79,6,6,0,0,0-3-.72H303.47c-.33,0-.67,0-1,0-.49.05-1,.1-1.48.2a10.74,10.74,0,0,0-4.71,2.34,9.66,9.66,0,0,0-3.66,8,11.63,11.63,0,0,0,4.74,9.29,8.55,8.55,0,0,0,5.86,2c.33,0,.66,0,1,0Z" transform="translate(-40.43 -181.3)" fill="white"/><path d="M140.17,240.15H119.69c-.66,0-1.33,0-2,0a5.6,5.6,0,0,1-1.29-.28,1.82,1.82,0,0,1-1.27-1.43,15.58,15.58,0,0,1-.25-1.8,11.42,11.42,0,0,1,0-1.17V200a10.87,10.87,0,0,1,.18-2.48,3.16,3.16,0,0,1,2.84-2.64,13.78,13.78,0,0,1,1.82-.1h40.95a20.93,20.93,0,0,1,9.11,2.29,18.85,18.85,0,0,1,9.54,10.84,24.93,24.93,0,0,1,1.39,7,40.08,40.08,0,0,1,0,5.48,25.36,25.36,0,0,1-1.89,8.06,19.38,19.38,0,0,1-18,11.73Q150.49,240.14,140.17,240.15Zm5.18-11.35h5.49c2.77,0,5.55,0,8.32,0a5.52,5.52,0,0,0,3.14-.92,12.09,12.09,0,0,0,1.45-1.11,10.53,10.53,0,0,0,1.91-2.3,14,14,0,0,0,2.05-10,9.44,9.44,0,0,0-2-4.51,9.07,9.07,0,0,0-7.39-3.49q-12.9,0-25.8,0c-.39,0-.78,0-1.17,0a3.73,3.73,0,0,0-3.61,3.66c0,.38,0,.77,0,1.16v13.81a11.73,11.73,0,0,0,.06,1.33,2.27,2.27,0,0,0,1.81,2.12,8.18,8.18,0,0,0,2.31.24Z" transform="translate(-40.43 -181.3)" fill="white"/><path d="M80.6,195.23h24a2,2,0,0,1,1.57.8,4.23,4.23,0,0,1,.77,1.47,10.68,10.68,0,0,1,.08,6.38,4,4,0,0,1-.75,1.48,2,2,0,0,1-1.57.79H63.56c-.5,0-1,0-1.5,0a6.12,6.12,0,0,0-2.88.69,9.72,9.72,0,0,0-2.45,1.71A12.41,12.41,0,0,0,52.87,217,10.19,10.19,0,0,0,54,222.29a14.56,14.56,0,0,0,5.48,5.9,8.75,8.75,0,0,0,4.73,1.32q19.47,0,38.94,0l1.66,0a1.51,1.51,0,0,1,1.15.58,4.15,4.15,0,0,1,.77,1.47,12.59,12.59,0,0,1,.52,4.27,8.41,8.41,0,0,1-.49,2.94,6.19,6.19,0,0,1-.61,1.17,1.63,1.63,0,0,1-1.25.73c-.5,0-1,0-1.5,0H57.81a6.84,6.84,0,0,1-2.75-.57,13.52,13.52,0,0,1-2.49-1.33,28,28,0,0,1-11-14.22,20.38,20.38,0,0,1-1.12-6.19,23.93,23.93,0,0,1,4.84-15.57,21.75,21.75,0,0,1,5.83-5.4,15.33,15.33,0,0,1,3.27-1.62,9,9,0,0,1,3.25-.58c1.06,0,2.11,0,3.17,0Z" transform="translate(-40.43 -181.3)" fill="white"/><path d="M449.27,206.81h-9.64a11.75,11.75,0,0,1-1.33,0,1.81,1.81,0,0,1-1.72-1.73c0-2.27,0-4.54,0-6.81a3.21,3.21,0,0,1,.48-1.58,6.25,6.25,0,0,1,1.72-2,3.63,3.63,0,0,1,2.16-.76c3.49,0,7-.44,10.46-.4h.17a2.59,2.59,0,0,0,2.64-1.88,4.37,4.37,0,0,0-.17-3.4,3.86,3.86,0,0,0-.7-.92,1.59,1.59,0,0,0-1-.49c-.5,0-1-.06-1.49-.06-3.39,0-6.77,0-10.15,0-.44,0-.89,0-1.33,0a1.22,1.22,0,0,1-1.06-.7,4.2,4.2,0,0,1-.11-3.84,1.29,1.29,0,0,1,1-.75,4.87,4.87,0,0,1,.66,0c3.83,0,7.65-.06,11.48-.07a9.87,9.87,0,0,1,4.78,1.21,8.7,8.7,0,0,1,4.27,4.68,7.45,7.45,0,0,1-.91,7.42,10.12,10.12,0,0,1-7,4.3,17.14,17.14,0,0,1-2.15.16c-1.5,0-3,0-4.49,0-.45,0-.89,0-1.33,0a1.4,1.4,0,0,0-1.26.94,2,2,0,0,0,.14,1.91,1.14,1.14,0,0,0,.93.62c.5,0,1,0,1.49,0,4.22,0,8.43,0,12.64,0,.5,0,1,0,1.5,0a1.07,1.07,0,0,1,1.11,1,5.78,5.78,0,0,1,0,2,3,3,0,0,1-.07.32,1,1,0,0,1-.92.81c-.44,0-.88,0-1.33,0Z" transform="translate(-40.43 -181.3)" fill="white"/><path d="M194.06,211.8a6.93,6.93,0,0,1,3.19.72,6.85,6.85,0,0,1,1.66,1.1,5.37,5.37,0,0,1,0,8.08,6.9,6.9,0,0,1-3.37,1.7,7.93,7.93,0,0,1-4.26-.29,6.58,6.58,0,0,1-2.51-1.57,5.26,5.26,0,0,1,0-7.71A7.11,7.11,0,0,1,194.06,211.8Z" transform="translate(-40.43 -181.3)" fill="white"/></svg>