<?xml version="1.0" encoding="utf-8"?>
<svg version="1.1" id="svg2" viewBox="0 0 264 54" xmlns="http://www.w3.org/2000/svg">
  <path id="path2998" d="M 79.665 13.816 L 79.665 27.56 L 79.665 41.304 L 82.089 41.304 L 84.512 41.304 L 84.512 29.035 L 84.512 16.766 L 87.487 16.766 C 89.633 16.766 90.602 16.824 90.966 16.975 C 91.686 17.274 92.426 18.183 92.73 19.135 C 92.889 19.635 93.02 20.718 93.067 21.92 C 93.163 24.383 92.876 25.912 92.119 26.904 C 91.329 27.941 90.847 28.104 88.616 28.104 L 86.701 28.104 L 86.701 29.594 L 86.701 31.088 L 89.71 31.03 L 92.72 30.971 L 93.785 30.472 C 95.731 29.56 97.143 27.695 97.713 25.293 C 98.032 23.952 98.026 20.953 97.703 19.513 C 97.392 18.129 96.745 16.736 96.017 15.893 C 95.714 15.539 95.124 15.034 94.713 14.771 C 93.303 13.872 92.759 13.816 85.884 13.816 L 79.665 13.816 Z M 101.084 13.816 L 101.084 27.56 L 101.084 41.304 L 103.508 41.304 L 105.932 41.304 L 105.932 27.56 L 105.932 13.816 L 103.508 13.816 L 101.084 13.816 Z M 161.865 13.816 C 159.695 13.816 157.461 13.892 156.901 13.981 C 155.641 14.18 154.168 14.843 153.335 15.592 C 152.495 16.345 151.778 17.477 151.391 18.667 C 151.149 19.407 151.074 20.082 151.063 21.503 C 151.05 23.463 151.217 24.297 151.894 25.617 C 152.335 26.476 153.511 27.716 154.318 28.18 C 155.254 28.719 156.454 29.005 158.514 29.17 C 160.082 29.296 160.448 29.374 160.958 29.709 C 161.359 29.972 161.711 30.403 162.008 31.004 C 162.427 31.851 162.451 32.026 162.448 33.848 C 162.447 35.664 162.42 35.843 162.017 36.605 C 161.745 37.122 161.351 37.576 160.938 37.848 L 160.288 38.276 L 156.17 38.324 L 152.055 38.367 L 152.055 39.838 L 152.055 41.304 L 156.735 41.304 C 159.583 41.304 161.744 41.234 162.247 41.129 C 164.163 40.728 165.757 39.495 166.531 37.814 C 167.183 36.399 167.413 34.944 167.328 32.761 C 167.239 30.46 166.895 29.207 165.969 27.832 C 164.82 26.124 163.535 25.537 160.269 25.24 C 159.06 25.13 157.822 24.936 157.517 24.809 C 156.845 24.525 156.216 23.813 155.94 23.022 C 155.665 22.243 155.669 19.983 155.949 19.03 C 156.224 18.086 157.059 17.219 157.938 16.956 C 158.363 16.829 159.79 16.768 162.193 16.768 L 165.814 16.768 L 165.814 15.292 L 165.814 13.816 L 161.865 13.816 Z M 217.565 13.816 L 217.565 15.835 L 217.565 17.854 L 219.989 17.854 L 222.413 17.854 L 222.413 15.835 L 222.413 13.816 L 219.989 13.816 L 217.565 13.816 Z M 170.958 16.921 L 171.009 26.822 C 171.051 36.567 171.057 36.736 171.394 37.621 C 171.582 38.114 171.984 38.853 172.287 39.265 C 172.909 40.106 173.718 40.695 174.74 41.05 C 175.233 41.222 176.068 41.289 177.657 41.294 L 179.885 41.304 L 179.885 39.829 L 179.885 38.354 L 178.43 38.354 C 177.044 38.354 176.951 38.335 176.558 37.927 C 176.313 37.673 176.074 37.179 175.978 36.722 C 175.871 36.229 175.827 33.662 175.855 29.655 L 175.899 23.367 L 178.518 23.322 L 181.136 23.279 L 181.136 21.81 L 181.136 20.338 L 178.478 20.338 L 175.821 20.338 L 175.821 18.629 L 175.821 16.921 L 173.393 16.921 L 170.958 16.921 Z M 204.431 16.921 L 204.431 26.7 C 204.431 36.158 204.443 36.514 204.755 37.455 C 205.125 38.576 205.879 39.687 206.7 40.308 C 207.012 40.545 207.632 40.866 208.077 41.016 C 208.697 41.229 209.39 41.294 211.037 41.298 L 213.187 41.304 L 213.187 39.828 L 213.187 38.353 L 211.799 38.353 C 210.64 38.353 210.346 38.303 210.007 38.037 C 209.782 37.862 209.528 37.461 209.439 37.145 C 209.34 36.79 209.278 33.998 209.278 29.927 L 209.278 23.288 L 211.941 23.288 L 214.604 23.288 L 214.56 21.852 L 214.515 20.415 L 211.896 20.372 L 209.279 20.327 L 209.279 18.624 L 209.279 16.921 L 206.855 16.921 L 204.431 16.921 Z M 200.157 20.298 L 194.982 20.382 C 189.418 20.466 188.842 20.534 187.208 21.357 C 185.382 22.277 184.108 24.063 183.531 26.511 C 183.289 27.533 183.247 28.412 183.247 32.295 C 183.247 36.706 183.26 36.911 183.604 37.756 C 184.297 39.457 185.328 40.507 186.813 41.016 C 187.469 41.242 188.151 41.293 190.399 41.297 L 193.176 41.302 L 193.176 39.826 L 193.176 38.352 L 191.232 38.352 C 189.39 38.352 189.265 38.329 188.828 37.963 C 188.537 37.722 188.302 37.318 188.192 36.886 C 187.975 36.029 187.964 29.273 188.178 27.636 C 188.48 25.311 189.009 24.223 190.108 23.637 C 190.487 23.437 191.139 23.364 192.98 23.317 L 195.365 23.254 L 195.365 32.281 L 195.365 41.304 L 197.868 41.304 L 200.368 41.304 L 200.368 35.503 C 200.368 32.315 200.318 27.588 200.262 25.002 L 200.157 20.298 Z M 126.726 20.304 L 121.528 20.381 C 115.878 20.468 115.066 20.57 113.524 21.391 C 111.732 22.344 110.454 24.227 109.913 26.705 C 109.57 28.279 109.41 34.726 109.674 36.284 C 109.904 37.645 110.545 39.014 111.311 39.788 C 111.875 40.358 112.81 40.921 113.592 41.157 C 113.807 41.222 115.267 41.28 116.836 41.288 L 119.689 41.302 L 119.689 39.826 L 119.689 38.353 L 117.691 38.353 C 115.437 38.353 115.141 38.247 114.716 37.285 C 114.526 36.856 114.452 36.014 114.403 33.743 C 114.333 30.515 114.559 27.013 114.911 25.851 C 115.227 24.807 115.816 24.005 116.508 23.668 C 117.014 23.421 117.479 23.373 119.454 23.371 L 121.799 23.366 L 121.838 32.335 L 121.878 41.302 L 124.302 41.302 L 126.726 41.302 L 126.726 30.801 L 126.726 20.304 Z M 131.945 20.338 C 130.537 20.338 129.386 20.356 129.389 20.377 C 129.391 20.398 130.999 25.086 132.96 30.797 L 136.528 41.182 L 134.519 46.326 C 133.415 49.159 132.511 51.495 132.511 51.519 C 132.511 51.543 133.47 51.543 134.642 51.519 L 136.772 51.476 L 143 35.945 C 146.428 27.404 149.235 20.398 149.235 20.377 C 149.237 20.356 148.225 20.338 146.983 20.338 C 145.345 20.338 144.691 20.392 144.604 20.533 C 144.538 20.639 143.34 23.658 141.946 27.244 C 140.553 30.83 139.349 33.783 139.269 33.811 C 139.187 33.837 138.08 30.817 136.812 27.098 L 134.506 20.338 L 131.945 20.338 Z M 217.565 20.338 L 217.565 30.821 L 217.565 41.302 L 219.989 41.302 L 222.413 41.302 L 222.413 30.821 L 222.413 20.338 L 219.989 20.338 L 217.565 20.338 Z M 246.881 20.415 L 246.835 30.859 L 246.842 30.859 L 246.797 41.302 L 249.304 41.302 L 251.805 41.302 L 251.805 32.281 L 251.805 23.254 L 254.188 23.317 C 256.721 23.383 257.143 23.488 257.854 24.244 C 258.412 24.837 258.81 25.916 258.987 27.32 C 259.08 28.055 259.154 31.431 259.154 34.969 L 259.154 41.302 L 261.578 41.302 L 264 41.302 L 263.995 35.129 C 263.995 28.583 263.879 27.029 263.243 25.254 C 262.379 22.84 260.789 21.408 258.201 20.711 C 257.345 20.481 256.432 20.44 252.039 20.43 L 246.881 20.415 Z M 234.627 20.46 C 233.26 20.46 231.897 20.63 230.919 20.964 C 229.616 21.409 228.798 21.93 227.976 22.837 C 227.086 23.821 226.442 25.154 226.063 26.782 C 225.83 27.781 225.776 28.619 225.789 31.053 C 225.802 33.614 225.854 34.268 226.131 35.28 C 226.603 36.998 227.218 38.155 228.154 39.096 C 229.075 40.02 230.437 40.731 231.971 41.075 C 232.661 41.23 233.617 41.279 235.078 41.241 C 237.598 41.174 238.796 40.853 240.266 39.853 C 241.498 39.016 242.431 37.696 242.96 36.033 C 243.714 33.66 243.847 29.747 243.267 26.861 C 242.986 25.459 242.3 23.938 241.537 23.012 C 240.819 22.142 239.644 21.379 238.387 20.964 C 237.369 20.63 235.993 20.46 234.627 20.46 Z M 234.685 23.351 C 235.395 23.351 236.107 23.488 236.664 23.769 C 237.392 24.135 237.85 24.774 238.246 25.981 C 238.507 26.771 238.571 27.49 238.634 30.102 C 238.713 33.513 238.556 35.12 238.022 36.333 C 237.647 37.189 237.039 37.854 236.371 38.138 C 236.085 38.259 235.334 38.352 234.637 38.352 C 233.648 38.352 233.269 38.282 232.717 37.993 C 232.283 37.765 231.864 37.374 231.593 36.94 C 230.886 35.806 230.654 34.321 230.645 30.975 C 230.637 27.79 230.802 26.509 231.394 25.214 C 231.593 24.775 231.997 24.238 232.297 24.01 C 232.866 23.58 233.774 23.351 234.685 23.351 Z" style="fill-opacity: 1; fill: rgb(255, 255, 255);"/>
  <path id="path7" d="M 38.608 11.23 L 38.561 53.999 L 27.024 50.273 L 27.024 0 L 41.751 3.868 C 51.177 6.384 56.945 11.276 56.851 19.848 C 56.757 29.819 52.114 33.825 43.064 31.217 L 43.064 11.555 C 43.062 9.179 38.608 9.04 38.608 11.23 Z" style="fill-opacity: 1; fill: rgb(255, 255, 255);"/>
  <path id="path11" d="M 65.481 44.635 L 54.6 41.28 L 57.603 40.256 C 63.653 38.345 61.119 36.295 54.834 37.459 L 48.832 39.464 L 38.561 36.295 L 39.499 35.968 C 45.221 34.011 51.083 32.707 57.039 33.127 C 65.341 33.732 70.734 35.549 71.484 38.904 C 71.953 40.906 70.077 43.051 65.668 44.588 L 65.481 44.635 Z M 27.024 29.819 L 27.024 32.755 L 22.475 31.357 L 27.024 29.819 Z M 48.738 50.505 L 38.561 47.291 L 38.561 46.732 L 54.599 41.28 L 65.481 44.635 L 48.738 50.505 Z M 27.024 40.208 L 27.024 43.656 L 21.725 41.978 L 27.024 40.208 Z M 38.559 36.296 L 48.831 39.464 L 38.559 42.958 L 38.559 36.296 Z M 15.626 40.069 L 5.731 36.947 C 5.825 36.947 5.919 36.901 5.965 36.901 L 22.473 31.357 L 27.023 32.755 L 27.023 36.015 L 15.626 40.069 Z M 21.723 41.978 L 27.023 43.656 L 27.023 46.871 C 22.755 48.362 18.064 48.828 12.906 47.99 C 7.372 47.105 0.197 46.359 0.009 43.237 C -0.18 40.162 2.683 37.972 5.73 36.947 L 15.626 40.069 L 13 40.999 C 9.764 42.166 12.765 45.007 16.284 43.796 L 21.723 41.978 Z M 38.653 54 L 38.559 53.768 L 38.559 47.292 L 48.737 50.506 L 38.653 54 Z" style="fill-opacity: 1; fill: rgb(255, 255, 255);"/>
</svg>