<?xml version="1.0" encoding="utf-8"?>
<svg version="1.1" id="Layer_1" xmlns="http://www.w3.org/2000/svg">
  <path d="M 0 12.056 L 0 6.889 C 0 2.296 2.285 0 6.857 0 L 37.714 0 L 37.714 6.889 L 6.857 6.889 L 6.857 12.056 L 30.857 12.056 C 35.429 12.056 37.714 14.352 37.714 18.945 L 37.714 24.111 C 37.714 28.704 35.429 31 30.857 31 L 0 31 L 0 24.111 L 30.857 24.111 L 30.857 18.945 L 6.857 18.945 C 2.285 18.945 0 16.649 0 12.056 Z" style="fill: rgb(255, 255, 255);"/>
  <path d="M 41.143 24.111 L 41.143 6.889 C 41.143 2.296 43.428 0 48 0 L 77.143 0 L 77.143 6.889 L 48 6.889 L 48 24.111 L 77.143 24.111 L 77.143 31 L 48 31 C 43.428 31 41.143 28.704 41.143 24.111 Z" style="fill: rgb(255, 255, 255);"/>
  <path d="M 80.571 18.945 L 80.571 12.056 L 92.572 12.056 L 92.572 18.945 L 80.571 18.945 Z" style="fill: rgb(255, 255, 255);"/>
  <path d="M 135.428 24.111 C 135.428 28.704 133.142 31 128.572 31 L 96 31 L 96 24.111 L 128.572 24.111 L 128.572 17.222 L 111.428 17.222 L 120 6.889 L 96 6.889 L 96 0 L 133.714 0 L 125.143 10.333 L 128.572 10.333 C 133.143 10.333 135.428 12.63 135.428 17.222 L 135.428 24.111 Z" style="fill: rgb(255, 255, 255);"/>
  <path d="M 178.285 24.111 C 178.285 28.704 176 31 171.428 31 L 145.714 31 C 141.142 31 138.857 28.704 138.857 24.111 L 138.857 6.889 C 138.857 2.296 141.142 0 145.714 0 L 171.428 0 C 176 0 178.285 2.296 178.285 6.889 L 178.285 24.111 Z M 171.428 24.111 L 171.428 6.889 L 145.714 6.889 L 145.714 24.111 L 171.428 24.111 Z" style="fill: rgb(255, 255, 255);"/>
  <path d="M 221.143 24.111 C 221.143 28.704 218.857 31 214.286 31 L 188.572 31 C 184 31 181.715 28.704 181.715 24.111 L 181.715 6.889 C 181.715 2.296 184 0 188.572 0 L 214.286 0 C 218.857 0 221.143 2.296 221.143 6.889 L 221.143 24.111 Z M 214.286 24.111 L 214.286 6.889 L 188.572 6.889 L 188.572 24.111 L 214.286 24.111 Z" style="fill: rgb(255, 255, 255);"/>
  <path d="M 264 24.111 C 264 28.704 261.715 31 257.143 31 L 231.429 31 C 226.857 31 224.572 28.704 224.572 24.111 L 224.572 6.889 C 224.572 2.296 226.857 0 231.429 0 L 257.143 0 C 261.715 0 264 2.296 264 6.889 L 264 24.111 Z M 257.143 24.111 L 257.143 6.889 L 231.429 6.889 L 231.429 24.111 L 257.143 24.111 Z" style="fill: rgb(255, 255, 255);"/>
</svg>