<?xml version="1.0" encoding="utf-8"?>
<svg version="1.1" x="0px" y="0px" viewBox="0 0 3839 370.28" xmlns="http://www.w3.org/2000/svg">
  <path class="st8" d="M 1575.1 358.78 C 1567.1 358.78 1563.83 357.19 1560.93 355.16 L 1576.97 284.01 C 1604.79 279.78 1616.3 260.69 1622.14 210.11 C 1636.78 83.37 1721.29 76.05 1730.88 75.63 C 1731.99 75.58 1733.01 75.56 1733.99 75.56 C 1736.95 75.56 1739.51 75.79 1743.26 76.42 C 1743.26 76.42 1726.26 151.84 1726.26 151.84 C 1698.74 155.64 1692.55 179.24 1681.32 247.59 C 1664.42 349.82 1592.57 358.09 1578.34 358.71 C 1577.19 358.75 1576.1 358.78 1575.1 358.78 Z" style="fill: rgb(255, 255, 255);"/>
  <path class="st8" d="M 3027.46 358.78 C 3019.46 358.78 3016.19 357.19 3013.29 355.16 L 3029.33 284.01 C 3057.15 279.78 3068.66 260.69 3074.5 210.11 C 3089.14 83.37 3173.65 76.05 3183.24 75.63 C 3184.35 75.58 3185.37 75.56 3186.35 75.56 C 3189.31 75.56 3191.87 75.79 3195.62 76.42 C 3195.62 76.42 3178.62 151.84 3178.62 151.84 C 3151.1 155.64 3144.91 179.24 3133.68 247.59 C 3116.78 349.82 3044.93 358.09 3030.7 358.71 C 3029.55 358.75 3028.46 358.78 3027.46 358.78 Z" style="fill: rgb(255, 255, 255);"/>
  <path class="st8" d="M 1458.02 358.78 C 1450.02 358.78 1446.75 357.19 1443.85 355.16 L 1459.89 284.01 C 1487.71 279.78 1499.22 260.69 1505.06 210.11 C 1519.7 83.37 1604.21 76.05 1613.8 75.63 C 1614.91 75.58 1615.93 75.56 1616.91 75.56 C 1619.87 75.56 1622.43 75.79 1626.18 76.42 C 1626.18 76.42 1609.18 151.84 1609.18 151.84 C 1581.66 155.64 1575.47 179.24 1564.24 247.59 C 1547.34 349.82 1475.49 358.09 1461.26 358.71 C 1460.11 358.75 1459.02 358.78 1458.02 358.78 Z" style="fill: rgb(255, 255, 255);"/>
  <rect x="2702.5" class="st8" width="72.69" height="358.78" style="fill: rgb(255, 255, 255);"/>
  <path class="st8" d="M 3439.98 75.56 C 3359.91 75.56 3292.71 133.74 3285.71 213.81 C 3278.71 293.88 3337.93 358.78 3418 358.78 C 3498.07 358.78 3576.19 296.47 3575.66 213.81 C 3575.13 133.43 3520.05 75.56 3439.98 75.56 Z M 3491.04 266.48 C 3472.01 285.63 3444.71 297.06 3418 297.06 C 3396.89 297.06 3378.03 289.16 3364.89 274.82 C 3351.61 260.33 3345.33 240.57 3347.2 219.19 C 3351.29 172.49 3391.18 137.28 3439.99 137.28 C 3485.3 137.28 3513.64 166.76 3513.95 214.21 C 3514.09 238.21 3501.57 255.88 3491.04 266.48 Z" style="fill: rgb(255, 255, 255);"/>
  <path class="st8" d="M 1418.73 358.19 L 1354.95 358.19 L 1386.3 219.22 C 1386.44 217.39 1386.51 215.52 1386.5 213.61 C 1386.19 166.16 1357.85 136.68 1312.54 136.68 C 1263.73 136.68 1223.84 171.89 1219.75 218.59 C 1217.88 239.97 1224.16 259.73 1237.44 274.22 C 1250.58 288.56 1269.44 296.46 1290.55 296.46 C 1309.24 296.46 1328.22 290.86 1344.46 280.94 L 1328.05 353.7 L 1327.65 353.77 C 1327.65 353.77 1303.06 358.17 1290.55 358.17 C 1210.48 358.17 1151.26 293.26 1158.26 213.2 C 1165.26 133.13 1232.46 74.95 1312.53 74.95 C 1392.6 74.95 1447.68 132.83 1448.2 213.2 C 1448.25 220.76 1447.64 228.16 1446.43 235.35 L 1418.73 358.19 Z" style="fill: rgb(255, 255, 255);"/>
  <path class="st8" d="M 2122.89 144.8 L 2171 144.8 L 2183.92 87.51 L 2135.82 87.51 L 2155.55 0 L 2088.65 0 L 2029.88 260.66 C 2029.88 260.66 2028.56 266.6 2028.1 268.57 C 2017.41 314.19 2029.3 358.78 2088.57 358.78 C 2088.57 358.78 2095.76 358.78 2097.05 358.78 L 2129.26 301.49 L 2101.21 301.49 C 2089.35 301.49 2090.24 289.5 2093.08 277.04 C 2100.18 245.99 2122.89 144.8 2122.89 144.8 Z" style="fill: rgb(255, 255, 255);"/>
  <path class="st8" d="M 2269.15 144.8 L 2317.26 144.8 L 2330.18 87.51 L 2282.08 87.51 L 2301.8 0 L 2234.9 0 L 2176.13 260.66 C 2176.13 260.66 2174.81 266.6 2174.35 268.57 C 2163.66 314.19 2175.55 358.78 2234.82 358.78 C 2234.82 358.78 2242.01 358.78 2243.3 358.78 L 2275.51 301.49 L 2247.46 301.49 C 2235.6 301.49 2236.49 289.5 2239.33 277.04 C 2246.43 245.99 2269.15 144.8 2269.15 144.8 Z" style="fill: rgb(255, 255, 255);"/>
  <path class="st8" d="M 1137.06 358.41 C 1089.59 353.89 1047.26 333.64 1019.36 301.73 C 991.15 269.46 978.82 227.85 983.71 181.39 C 999.49 31.3 1130.71 0.75 1238.61 1.68 L 1224.77 63.44 C 1077.82 65.87 1050.92 132.37 1045.09 187.84 C 1037.48 260.24 1093.36 295.06 1150.8 297.51 L 1137.06 358.41 Z" style="fill: rgb(255, 255, 255);"/>
  <path class="st8" d="M 2981.7 87.51 L 2920.53 358.78 L 2987.47 358.78 C 2999.18 306.86 3028.64 176.08 3048.59 87.51 L 2981.7 87.51 L 2981.7 87.51 Z" style="fill: rgb(255, 255, 255);"/>
  <path class="st8" d="M 3298.78 57.29 C 3306.33 23.79 3311.69 0 3311.69 0 L 3244.82 0 L 3231.89 57.29 L 3298.78 57.29 Z" style="fill: rgb(255, 255, 255);"/>
  <path class="st8" d="M 3225.08 87.51 L 3163.92 358.78 L 3230.86 358.78 C 3242.57 306.86 3272.03 176.08 3291.97 87.51 L 3225.08 87.51 L 3225.08 87.51 Z" style="fill: rgb(255, 255, 255);"/>
  <path class="st8" d="M 3633.88 87.51 L 3572.71 358.78 L 3639.65 358.78 C 3651.36 306.86 3680.82 176.08 3700.77 87.51 L 3633.88 87.51 L 3633.88 87.51 Z" style="fill: rgb(255, 255, 255);"/>
  <path class="st8" d="M 3692.3 87.51 L 3679.37 144.8 L 3754.7 144.8 C 3763.93 144.8 3770.77 153.36 3768.74 162.36 L 3724.45 358.77 L 3791.39 358.77 C 3800.42 318.74 3820.05 231.63 3837.66 153.45 C 3845.28 119.64 3819.56 87.5 3784.9 87.5 L 3692.3 87.5 L 3692.3 87.51 Z" style="fill: rgb(255, 255, 255);"/>
  <path class="st8" d="M 3026.06 0 L 3001.43 0 L 2974.39 0 C 2953.04 0 2933.19 10.95 2921.79 29 L 2713.63 358.78 L 2799.59 358.78 L 2989.88 57.3 L 3055.38 57.3 C 3062.94 23.79 3068.3 0 3068.3 0 L 3026.06 0 Z" style="fill: rgb(255, 255, 255);"/>
  <path class="st8" d="M 2406 282.43 L 2605.77 184.64 C 2593.73 119.8 2542.82 75.55 2472.82 75.55 C 2392.75 75.55 2325.55 133.73 2318.55 213.8 C 2311.54 293.87 2370.77 358.77 2450.84 358.77 C 2463.8 358.77 2476.71 357.14 2489.24 354.05 C 2490.62 353.71 2491.98 353.35 2493.35 352.98 L 2510.28 277.91 C 2492.92 290.08 2471.7 297.05 2450.84 297.05 C 2433.82 297.06 2418.27 291.93 2406 282.43 Z M 2380.02 219.18 C 2384.11 172.48 2424 137.27 2472.81 137.27 C 2497.56 137.27 2517.25 146.07 2530.07 161.79 L 2380.16 235.17 C 2379.6 229.99 2379.55 224.64 2380.02 219.18 Z" style="fill: rgb(255, 255, 255);"/>
  <path class="st8" d="M 1823.92 282.43 L 2023.69 184.64 C 2011.65 119.8 1960.74 75.55 1890.74 75.55 C 1810.67 75.55 1743.47 133.73 1736.47 213.8 C 1729.46 293.87 1788.69 358.77 1868.76 358.77 C 1881.72 358.77 1894.63 357.14 1907.16 354.05 C 1908.53 353.71 1909.9 353.35 1911.27 352.98 L 1928.2 277.91 C 1910.84 290.08 1889.62 297.05 1868.76 297.05 C 1851.75 297.06 1836.2 291.93 1823.92 282.43 Z M 1797.95 219.18 C 1802.04 172.48 1841.93 137.27 1890.74 137.27 C 1915.49 137.27 1935.18 146.07 1948 161.79 L 1798.09 235.17 C 1797.52 229.99 1797.47 224.64 1797.95 219.18 Z" style="fill: rgb(255, 255, 255);"/>
  <path class="st8" d="M 909.17 151.03 L 900.62 151.03 L 904.2 135.15 L 907.71 119.59 L 891.76 119.59 L 867.27 119.59 C 861.15 119.59 855.8 120.03 851.16 120.73 L 851.42 119.59 L 835.47 119.59 L 799.56 119.59 L 789.36 119.59 L 787.11 129.54 L 780.1 160.64 L 776.75 175.48 C 775.63 173.66 774.41 171.88 773.05 170.18 C 771 167.61 768.72 165.29 766.28 163.2 C 764.99 154.37 761.4 145.94 755.64 138.74 C 745.91 126.57 731.39 119.59 715.8 119.59 L 660.25 119.59 C 629.03 119.59 602.43 140.86 595.56 171.32 L 594.62 175.48 C 593.5 173.65 592.28 171.88 590.92 170.18 C 588.87 167.61 586.59 165.29 584.15 163.2 C 582.86 154.37 579.27 145.93 573.51 138.74 C 563.78 126.57 549.26 119.59 533.67 119.59 L 519.13 119.59 L 512.6 119.59 L 503.5 119.59 C 497.38 119.59 492.03 120.03 487.38 120.73 L 487.64 119.59 L 471.69 119.59 L 435.78 119.59 L 425.58 119.59 L 423.34 129.54 L 421.56 137.45 L 418.5 151.04 L 417.28 151.04 L 408.73 151.04 L 412.31 135.16 L 415.82 119.6 L 399.87 119.6 L 363.96 119.6 L 353.76 119.6 L 351.52 129.55 L 329.27 228.26 C 328.28 232.65 324.44 235.72 319.94 235.72 L 309.89 235.72 L 325.47 166.6 L 328.98 151.04 L 313.03 151.04 L 304.48 151.04 L 308.06 135.16 L 311.57 119.6 L 295.62 119.6 L 259.71 119.6 L 249.51 119.6 L 247.5 128.51 C 246.39 126.7 245.17 124.94 243.83 123.25 C 241.77 120.67 239.48 118.33 237.02 116.23 C 235.74 107.42 232.15 99 226.42 91.81 C 216.69 79.61 202.15 72.61 186.55 72.61 L 89.8 72.61 C 58.58 72.61 31.98 93.88 25.11 124.33 L 21.36 140.95 C 17.72 157.1 21.56 173.79 31.9 186.72 C 33.82 189.13 35.92 191.34 38.17 193.35 C 39.68 202.3 43.45 210.83 49.31 218.16 C 49.77 218.73 50.23 219.28 50.71 219.83 L 49.67 219.83 L 13.77 219.83 L 3.62 219.83 L 1.35 229.73 L 1.28 230.05 C -2.16 245.3 1.46 261 11.19 273.17 C 13.24 275.74 15.52 278.06 17.96 280.15 C 19.25 288.98 22.84 297.42 28.6 304.61 C 38.33 316.78 52.86 323.76 68.44 323.76 L 165.21 323.76 C 196.36 323.76 222.95 302.55 229.87 272.18 L 230.85 267.89 C 231.96 269.71 233.19 271.47 234.54 273.16 C 236.59 275.73 238.87 278.05 241.31 280.14 C 242.6 288.97 246.19 297.41 251.95 304.6 C 261.68 316.77 276.2 323.75 291.79 323.75 L 316.39 323.75 C 322.51 323.75 327.86 323.31 332.51 322.61 L 332.25 323.75 L 348.2 323.75 L 384.11 323.75 L 394.31 323.75 L 396.55 313.8 L 397.86 307.98 L 399.08 307.98 L 407.63 307.98 L 407.58 308.19 L 404.07 323.75 L 404.05 323.86 L 400.54 339.42 L 416.49 339.42 L 452.39 339.42 L 462.58 339.42 L 464.83 329.48 L 468.35 313.93 C 473.84 315.26 480.76 316.14 489.46 316.14 L 524.65 316.14 C 554.72 316.14 580.49 296.41 588.49 267.74 C 589.63 269.61 590.87 271.42 592.26 273.16 C 594.31 275.73 596.59 278.05 599.03 280.14 C 600.32 288.97 603.91 297.4 609.67 304.6 C 619.4 316.77 633.92 323.75 649.51 323.75 L 705.06 323.75 C 728.74 323.75 749.75 311.51 761.52 292.31 L 766.39 292.31 L 774.94 292.31 L 771.36 308.19 L 767.85 323.75 L 783.8 323.75 L 819.71 323.75 L 829.91 323.75 L 832.15 313.8 L 835 301.15 L 850.39 232.91 L 851.2 229.33 L 854.41 215.1 C 855.4 210.71 859.24 207.64 863.74 207.64 L 902.19 207.64 L 912.39 207.64 L 914.63 197.69 L 921.64 166.59 L 925.15 151.03 L 909.17 151.03 L 909.17 151.03 Z M 223.85 132.11 L 223.8 132.34 L 188.29 132.34 L 188.36 132.01 C 190.16 124.04 184.09 116.45 175.92 116.45 L 93.71 116.45 C 83.28 116.45 74.24 123.68 71.94 133.86 L 69.8 143.35 C 67.5 153.53 75.24 163.2 85.68 163.2 L 104.6 163.2 L 176.24 163.2 C 176.93 163.2 177.61 163.22 178.28 163.27 C 178.48 163.28 178.67 163.31 178.87 163.32 C 179.35 163.36 179.83 163.4 180.3 163.46 C 180.51 163.49 180.72 163.52 180.93 163.55 C 181.39 163.62 181.84 163.69 182.29 163.77 C 182.49 163.81 182.68 163.85 182.88 163.89 C 183.34 163.99 183.8 164.09 184.26 164.2 C 184.43 164.24 184.6 164.29 184.77 164.34 C 185.25 164.47 185.73 164.61 186.2 164.76 C 186.34 164.8 186.48 164.85 186.62 164.9 C 187.12 165.07 187.62 165.25 188.11 165.44 C 188.21 165.48 188.31 165.52 188.41 165.56 C 188.95 165.78 189.47 166.01 189.99 166.25 C 190.05 166.28 190.1 166.3 190.16 166.33 C 190.74 166.6 191.3 166.89 191.86 167.2 C 191.86 167.2 191.86 167.2 191.86 167.2 C 204.09 173.91 211.34 188.19 207.97 202.99 L 200.01 237.91 C 194.46 262.28 172.78 279.57 147.79 279.57 L 51.02 279.57 C 37.17 279.57 25.34 272.31 18.64 261.69 C 18.64 261.69 18.64 261.69 18.64 261.69 C 18.6 261.63 18.57 261.58 18.54 261.52 C 18.07 260.76 17.63 259.98 17.21 259.19 C 17.07 258.93 16.93 258.68 16.8 258.41 C 16.64 258.1 16.5 257.78 16.35 257.46 C 16.22 257.18 16.09 256.91 15.97 256.63 C 15.83 256.31 15.7 256 15.57 255.68 C 15.45 255.39 15.34 255.1 15.22 254.8 C 15.1 254.48 14.98 254.17 14.87 253.85 C 14.76 253.54 14.66 253.23 14.56 252.92 C 14.46 252.61 14.36 252.29 14.27 251.98 C 14.17 251.65 14.09 251.31 14 250.98 C 13.92 250.68 13.84 250.38 13.77 250.08 C 13.67 249.68 13.59 249.27 13.51 248.86 C 13.46 248.62 13.4 248.38 13.36 248.14 C 13.24 247.5 13.15 246.86 13.06 246.22 C 13.03 245.97 13.01 245.71 12.98 245.46 C 12.93 245.04 12.89 244.62 12.86 244.2 C 12.84 243.92 12.83 243.64 12.81 243.36 C 12.79 242.96 12.77 242.56 12.76 242.15 C 12.75 241.86 12.75 241.57 12.76 241.28 C 12.76 240.88 12.77 240.47 12.78 240.06 C 12.79 239.77 12.8 239.48 12.82 239.2 C 12.84 238.78 12.88 238.36 12.92 237.93 C 12.95 237.66 12.97 237.38 13 237.11 C 13.05 236.64 13.12 236.18 13.19 235.71 C 13.22 235.48 13.25 235.25 13.29 235.02 C 13.41 234.32 13.54 233.62 13.7 232.91 L 13.77 232.59 L 49.67 232.59 L 49.6 232.92 C 47.8 240.89 53.87 248.48 62.04 248.48 L 144.25 248.48 C 144.68 248.48 145.1 248.46 145.52 248.44 C 145.63 248.43 145.74 248.43 145.85 248.42 C 146.23 248.39 146.61 248.36 146.99 248.31 C 147.03 248.31 147.07 248.3 147.1 248.3 C 147.51 248.25 147.92 248.18 148.33 248.1 C 148.43 248.08 148.52 248.06 148.62 248.04 C 148.98 247.97 149.34 247.89 149.7 247.8 C 149.75 247.79 149.8 247.78 149.85 247.76 C 150.25 247.66 150.65 247.54 151.05 247.41 C 151.12 247.39 151.2 247.36 151.27 247.34 C 151.63 247.22 151.98 247.1 152.33 246.96 C 152.38 246.94 152.42 246.93 152.47 246.91 C 152.86 246.75 153.25 246.59 153.64 246.41 C 153.68 246.39 153.73 246.37 153.77 246.35 C 154.13 246.18 154.48 246 154.83 245.82 C 154.87 245.8 154.9 245.78 154.94 245.76 C 155.32 245.55 155.7 245.33 156.07 245.1 C 156.07 245.1 156.08 245.1 156.08 245.09 C 156.45 244.86 156.81 244.62 157.16 244.37 C 157.18 244.35 157.2 244.34 157.23 244.32 C 157.95 243.81 158.64 243.25 159.29 242.65 C 159.3 242.64 159.31 242.63 159.32 242.62 C 159.98 242.02 160.61 241.37 161.19 240.69 C 161.19 240.69 161.19 240.68 161.2 240.68 C 161.79 239.99 162.34 239.27 162.84 238.51 C 164.32 236.29 165.42 233.78 166.03 231.06 L 169.84 214.17 C 172.13 203.99 164.4 194.32 153.96 194.32 L 74.23 194.32 C 58.74 194.32 45.59 185.93 38.47 173.81 C 38.47 173.81 38.47 173.81 38.47 173.81 C 38.17 173.29 37.87 172.76 37.59 172.23 C 37.56 172.18 37.54 172.13 37.51 172.09 C 37.23 171.56 36.97 171.03 36.71 170.49 C 36.7 170.47 36.69 170.45 36.68 170.43 C 35.67 168.27 34.84 166.02 34.2 163.69 C 34.15 163.52 34.1 163.35 34.06 163.17 C 33.94 162.72 33.84 162.27 33.74 161.82 C 33.69 161.58 33.64 161.34 33.59 161.1 C 33.5 160.68 33.42 160.25 33.35 159.82 C 33.3 159.54 33.26 159.25 33.22 158.97 C 33.16 158.57 33.1 158.17 33.05 157.76 C 33.01 157.38 32.98 157.01 32.94 156.63 C 32.89 156.1 32.85 155.56 32.83 155.02 C 32.81 154.55 32.78 154.08 32.78 153.61 C 32.78 153.31 32.78 153 32.78 152.7 C 32.78 152.26 32.79 151.83 32.8 151.39 C 32.81 151.09 32.83 150.78 32.85 150.47 C 32.88 150.02 32.91 149.57 32.95 149.11 C 32.98 148.82 33 148.53 33.04 148.24 C 33.1 147.74 33.17 147.24 33.24 146.74 C 33.28 146.49 33.31 146.25 33.35 146 C 33.48 145.25 33.62 144.51 33.79 143.76 L 37.54 127.14 C 43.05 102.71 64.75 85.36 89.79 85.36 L 186.54 85.36 C 187.23 85.36 187.9 85.38 188.58 85.42 C 188.73 85.43 188.87 85.43 189.02 85.44 C 189.68 85.48 190.33 85.54 190.97 85.61 C 191.08 85.62 191.19 85.64 191.29 85.65 C 191.87 85.72 192.45 85.81 193.03 85.9 C 193.15 85.92 193.26 85.94 193.38 85.96 C 194.01 86.07 194.63 86.2 195.24 86.34 C 195.38 86.37 195.52 86.41 195.66 86.44 C 196.25 86.58 196.84 86.74 197.42 86.91 C 197.46 86.92 197.51 86.93 197.55 86.95 C 198.15 87.13 198.75 87.33 199.33 87.54 C 199.48 87.59 199.63 87.64 199.77 87.7 C 200.34 87.91 200.91 88.13 201.47 88.37 C 201.58 88.42 201.69 88.47 201.8 88.51 C 202.28 88.72 202.76 88.94 203.23 89.17 C 203.36 89.24 203.5 89.3 203.63 89.37 C 204.16 89.63 204.67 89.91 205.18 90.19 C 205.33 90.27 205.47 90.36 205.62 90.44 C 206.07 90.7 206.51 90.96 206.94 91.24 C 207.03 91.3 207.13 91.36 207.23 91.42 C 207.71 91.73 208.19 92.06 208.66 92.39 C 208.82 92.5 208.97 92.61 209.13 92.73 C 209.58 93.06 210.03 93.4 210.47 93.76 C 210.6 93.86 210.72 93.97 210.84 94.07 C 211.19 94.36 211.53 94.65 211.87 94.95 C 212.02 95.08 212.17 95.21 212.32 95.35 C 212.72 95.72 213.11 96.09 213.5 96.47 C 213.65 96.62 213.8 96.77 213.95 96.93 C 214.25 97.24 214.54 97.55 214.83 97.86 C 214.97 98.01 215.11 98.16 215.24 98.31 C 215.58 98.7 215.91 99.09 216.23 99.49 C 216.38 99.67 216.52 99.85 216.67 100.04 C 216.97 100.42 217.26 100.81 217.55 101.21 C 217.69 101.41 217.83 101.61 217.97 101.81 C 218.2 102.14 218.42 102.46 218.63 102.8 C 218.76 103 218.89 103.2 219.02 103.4 C 219.3 103.84 219.56 104.29 219.82 104.74 C 219.94 104.95 220.05 105.16 220.16 105.36 C 220.34 105.7 220.52 106.04 220.7 106.38 C 224.55 113.98 225.93 122.96 223.85 132.11 Z M 395.66 151.03 L 380.23 219.46 L 373.69 248.46 L 366.68 279.56 L 330.77 279.56 L 332.52 271.8 C 332.52 271.8 323.39 279.56 298.96 279.56 L 274.36 279.56 C 259.7 279.56 247.31 271.43 240.86 259.78 C 240.8 259.66 240.74 259.54 240.67 259.43 C 240.38 258.9 240.11 258.36 239.84 257.82 C 239.76 257.66 239.69 257.5 239.62 257.34 C 239.38 256.82 239.15 256.31 238.94 255.78 C 238.87 255.61 238.8 255.43 238.73 255.26 C 238.52 254.73 238.33 254.21 238.14 253.67 C 238.08 253.5 238.02 253.32 237.97 253.15 C 237.79 252.6 237.62 252.04 237.47 251.48 C 237.43 251.32 237.38 251.16 237.34 251 C 237.18 250.41 237.05 249.81 236.92 249.21 C 236.89 249.08 236.86 248.94 236.83 248.81 C 236.7 248.16 236.59 247.51 236.49 246.85 C 236.48 246.76 236.46 246.67 236.45 246.58 C 236.35 245.83 236.26 245.08 236.2 244.32 C 236.2 244.32 236.2 244.32 236.2 244.31 C 235.91 240.6 236.16 236.76 237.03 232.9 L 238.88 224.68 C 238.88 224.68 238.88 224.68 238.88 224.68 L 249.73 176.54 L 259.69 132.35 L 295.6 132.35 L 272.93 232.91 C 271.13 240.88 277.2 248.47 285.37 248.47 L 306.99 248.47 L 319.91 248.47 C 330.34 248.47 339.39 241.24 341.68 231.06 L 363.93 132.35 L 399.84 132.35 L 395.66 151.03 Z M 570.99 179.02 L 559.46 230.18 C 553.95 254.61 532.25 271.96 507.21 271.96 L 472.02 271.96 C 447.52 271.96 441.97 264.2 441.97 264.2 L 439.54 274.95 L 438.5 279.58 L 434.96 295.25 L 410.49 295.25 L 400.72 295.25 L 399.06 295.25 L 402.6 279.58 L 402.59 279.58 L 408.01 255.54 L 428.77 163.47 L 431.57 151.05 L 434 140.27 L 435.78 132.36 L 471.69 132.36 L 469.94 140.12 C 469.94 140.12 479.07 132.36 503.5 132.36 L 512.6 132.36 L 519.13 132.36 L 533.67 132.36 C 534.35 132.36 535.03 132.38 535.71 132.42 C 535.86 132.43 536 132.43 536.15 132.44 C 536.81 132.48 537.46 132.54 538.1 132.61 C 538.21 132.62 538.31 132.64 538.42 132.65 C 539 132.72 539.58 132.81 540.15 132.9 C 540.27 132.92 540.39 132.94 540.5 132.96 C 541.13 133.07 541.74 133.2 542.36 133.34 C 542.5 133.37 542.64 133.41 542.78 133.44 C 543.36 133.58 543.94 133.73 544.51 133.9 C 544.56 133.91 544.61 133.93 544.66 133.94 C 545.26 134.12 545.85 134.32 546.43 134.52 C 546.58 134.57 546.73 134.63 546.88 134.68 C 547.45 134.89 548.01 135.11 548.57 135.34 C 548.68 135.39 548.79 135.44 548.9 135.49 C 549.38 135.7 549.85 135.91 550.31 136.14 C 550.45 136.21 550.59 136.28 550.74 136.35 C 551.26 136.61 551.77 136.88 552.28 137.17 C 552.43 137.26 552.59 137.34 552.74 137.43 C 553.17 137.68 553.59 137.93 554.01 138.19 C 554.12 138.26 554.24 138.33 554.35 138.4 C 554.83 138.71 555.29 139.03 555.75 139.36 C 555.92 139.48 556.08 139.6 556.24 139.72 C 556.69 140.05 557.13 140.38 557.56 140.73 C 557.69 140.84 557.82 140.95 557.95 141.06 C 558.28 141.34 558.61 141.62 558.94 141.91 C 559.1 142.05 559.27 142.2 559.42 142.34 C 559.81 142.7 560.2 143.06 560.57 143.44 C 560.73 143.6 560.89 143.76 561.05 143.93 C 561.32 144.21 561.59 144.5 561.86 144.79 C 562.02 144.96 562.17 145.13 562.32 145.3 C 562.65 145.68 562.97 146.06 563.29 146.45 C 563.45 146.65 563.61 146.84 563.76 147.04 C 564.02 147.37 564.27 147.7 564.51 148.03 C 564.7 148.29 564.88 148.55 565.06 148.81 C 565.27 149.11 565.48 149.42 565.68 149.73 C 565.82 149.95 565.97 150.17 566.1 150.39 C 566.37 150.82 566.62 151.25 566.87 151.68 C 567 151.9 567.12 152.13 567.24 152.36 C 567.41 152.66 567.57 152.97 567.73 153.28 C 567.84 153.5 567.96 153.73 568.07 153.95 C 568.07 153.95 568.07 153.95 568.07 153.95 C 571.74 161.4 573 170.12 570.99 179.02 Z M 753.13 179.02 L 751.52 186.14 C 746.67 207.66 727.55 222.95 705.48 222.95 L 632.96 222.95 L 630.71 232.89 C 628.9 240.87 634.97 248.46 643.15 248.46 L 685.28 248.46 C 694.8 248.46 703.05 241.86 705.15 232.57 L 741.06 232.57 L 739.89 237.78 C 734.38 262.21 712.68 279.56 687.64 279.56 L 632.09 279.56 C 617.43 279.56 605.03 271.42 598.59 259.77 C 598.52 259.63 598.45 259.5 598.37 259.36 C 598.09 258.84 597.82 258.32 597.57 257.8 C 597.48 257.61 597.4 257.42 597.31 257.23 C 597.09 256.74 596.87 256.25 596.67 255.76 C 596.58 255.54 596.5 255.33 596.41 255.11 C 596.22 254.63 596.04 254.15 595.88 253.66 C 595.8 253.43 595.73 253.2 595.65 252.97 C 595.49 252.48 595.35 251.98 595.21 251.49 C 595.15 251.26 595.08 251.03 595.02 250.8 C 594.89 250.28 594.77 249.76 594.66 249.24 C 594.61 249.02 594.56 248.81 594.52 248.59 C 594.41 248.01 594.31 247.43 594.23 246.85 C 594.21 246.68 594.18 246.52 594.15 246.35 C 593.58 242.01 593.74 237.48 594.77 232.9 L 602.08 200.47 C 602.08 200.47 602.08 200.47 602.08 200.47 L 608.02 174.14 C 613.53 149.71 635.23 132.36 660.27 132.36 L 715.82 132.36 C 716.5 132.36 717.18 132.38 717.86 132.42 C 718.01 132.43 718.15 132.43 718.3 132.44 C 718.95 132.48 719.6 132.54 720.25 132.61 C 720.36 132.62 720.46 132.64 720.57 132.65 C 721.15 132.72 721.73 132.81 722.3 132.9 C 722.42 132.92 722.54 132.94 722.66 132.96 C 723.28 133.07 723.9 133.2 724.51 133.34 C 724.65 133.37 724.8 133.41 724.94 133.44 C 725.52 133.58 726.1 133.73 726.67 133.9 C 726.72 133.92 726.78 133.93 726.83 133.94 C 727.43 134.12 728.02 134.32 728.6 134.52 C 728.75 134.57 728.91 134.63 729.06 134.68 C 729.63 134.89 730.19 135.11 730.74 135.34 C 730.85 135.39 730.97 135.44 731.08 135.49 C 731.55 135.7 732.02 135.91 732.48 136.14 C 732.62 136.21 732.77 136.28 732.91 136.35 C 733.43 136.61 733.94 136.88 734.44 137.16 C 734.6 137.25 734.75 137.34 734.91 137.43 C 735.33 137.67 735.75 137.93 736.16 138.19 C 736.28 138.26 736.39 138.33 736.51 138.41 C 736.98 138.72 737.45 139.03 737.9 139.36 C 738.07 139.48 738.24 139.6 738.41 139.73 C 738.85 140.06 739.29 140.39 739.72 140.73 C 739.86 140.84 739.99 140.96 740.13 141.07 C 740.46 141.34 740.78 141.62 741.1 141.9 C 741.27 142.05 741.43 142.19 741.6 142.34 C 741.99 142.7 742.37 143.06 742.74 143.43 C 742.91 143.59 743.07 143.76 743.23 143.93 C 743.5 144.21 743.76 144.49 744.02 144.77 C 744.19 144.95 744.36 145.14 744.52 145.32 C 744.84 145.68 745.15 146.05 745.46 146.43 C 745.62 146.63 745.78 146.83 745.94 147.03 C 746.19 147.35 746.43 147.67 746.67 148 C 746.87 148.27 747.06 148.54 747.25 148.81 C 747.45 149.1 747.66 149.4 747.85 149.7 C 748 149.92 748.14 150.15 748.28 150.37 C 748.54 150.79 748.8 151.22 749.05 151.65 C 749.18 151.88 749.31 152.11 749.43 152.34 C 749.59 152.64 749.75 152.94 749.9 153.24 C 753.79 160.86 755.2 169.85 753.13 179.02 Z M 887.55 151.03 L 884.75 163.45 L 846.3 163.45 C 835.87 163.45 826.83 170.68 824.53 180.86 L 821.32 195.09 L 820.51 198.68 L 805.12 266.92 L 802.27 279.57 L 777.8 279.57 L 767.56 279.57 L 766.38 279.57 L 784.21 200.47 C 784.21 200.47 784.21 200.47 784.21 200.47 L 792.56 163.45 L 799.57 132.35 L 799.58 132.35 L 835.49 132.35 L 833.74 140.11 C 833.74 140.11 842.87 132.35 867.29 132.35 L 891.78 132.35 L 887.55 151.03 Z" style="fill: rgb(255, 255, 255);"/>
  <path class="st8" d="M 503.3 240.85 C 513.73 240.85 522.78 233.62 525.07 223.44 L 528.63 207.64 L 535.09 179 C 536.89 171.03 530.83 163.44 522.65 163.44 L 515.79 163.44 L 511.19 163.44 L 482.52 163.44 C 472.09 163.44 463.05 170.67 460.75 180.85 L 459.03 188.49 L 450.73 225.29 C 448.93 233.26 455 240.85 463.17 240.85 L 484.78 240.85 L 503.3 240.85 L 503.3 240.85 Z M 488.89 222.74 L 490.61 215.1 C 491.6 210.71 495.44 207.64 499.94 207.64 L 515.56 207.64 L 512.63 220.64 C 511.64 225.03 507.8 228.1 503.3 228.1 L 487.68 228.1 L 488.89 222.74 Z" style="fill: rgb(255, 255, 255);"/>
  <path class="st8" d="M 717.26 178.84 C 719.04 170.95 713.04 163.45 704.96 163.45 L 664.27 163.45 C 653.84 163.45 644.81 170.67 642.5 180.84 L 640.01 191.85 L 700.99 191.85 C 708.79 191.85 715.55 186.45 717.26 178.84 Z" style="fill: rgb(255, 255, 255);"/>
</svg>