<svg id="Warstwa_1" data-name="Warstwa 1" xmlns="http://www.w3.org/2000/svg" viewBox="0 0 640 238"><title>seta</title><path d="M47,132H177l6.14,1.91c19.25,6,31.37,24.35,28.63,43.25-3.06,21.1-18.2,34-40.05,34H108.28c6.72,3.39,12.45,5.67,17.54,8.95,25.36,16.35,39.48,40,39.5,69.93,0,34.23-26.87,67.23-59.82,76.9-4.12,1.2-8.33,2.07-12.5,3.1H-34c-3.25-1.15-6.62-2.06-9.74-3.51-12.88-6-21.58-15.6-25.26-29.49V320c.2-.26.52-.5.58-.79,3.92-21.65,21.48-30.8,39.14-30.34,16.82.44,33.67.09,50.5.09H32.29c-8.39-4.9-16.64-8.89-24-14.15C-33.26,245-37.07,170,22.52,139.91,30.09,136.1,38.81,134.58,47,132Z" transform="translate(69 -132)" fill="white"/><path d="M293,132H461a6.64,6.64,0,0,0,1.33.67c24.7,6.21,36.35,24.53,31.44,49.47-3.67,18.68-19.52,30.8-40.42,30.85-11.79,0-23.58,0-36,0,0,2.35,0,4.3,0,6.26,0,36.46-.13,72.92.07,109.38.07,13.55-4.89,24.48-16,32.05-5.64,3.86-12.28,6.25-18.47,9.31H373a6.1,6.1,0,0,0-1.28-.73c-20.73-5.75-33.67-22.65-33.67-44q0-53.25,0-106.48V213h-5.45c-11.5,0-23,.3-34.49-.09-17.37-.6-29.13-10.06-35.6-25.5-6.41-15.28-3.86-29.6,7.57-42.12C276.37,138.38,284.13,134.31,293,132Z" transform="translate(69 -132)" fill="white"/><path d="M303,370H207a6.37,6.37,0,0,0-1.27-.76c-16.48-5.53-24.63-16.74-24.63-34,0-25.5.48-51-.17-76.49-.46-17.93,16.6-31.48,30-31.48,29.49,0,59-.26,88.49.1,13.43.17,24.3,13.43,22.74,26.46-1.23,10.34-12.53,20.72-23,21-3.27.09-6.54,0-10.89,0,9,6,15.16,12.68,15,23.05-.11,10.14-6.63,16.66-15.06,23.21h10.94c10.52,0,17.24,6,21.09,14.92s3.1,17.84-4.43,24.82C312,364.41,307.31,367,303,370Z" transform="translate(69 -132)" fill="white"/><path d="M467,370H456a5.79,5.79,0,0,0-1.24-.77C440.76,364.84,433,354.5,433,340c0-13.65.05-27.3,0-40.95-.1-21.31,7.66-39.09,23.22-53.72,36.45-34.26,98.23-17.4,112,30.69,1,3.63,1.87,7.32,2.8,11v62c-2.59,4.35-4.37,9.61-8,12.8-4.16,3.69-9.93,5.55-15,8.2H538c-12.3-3.27-19.8-11-22-23.65a24.21,24.21,0,0,0-.68-2.59H490.9c-2.12,5.19-3.7,10.11-6.06,14.62C481.15,365.46,473.82,367.45,467,370Zm35.24-59c1.67,0,3.34.09,5,0,10.65-.63,13.34-4,11.66-14.64A17.64,17.64,0,0,0,502.56,282c-8-.24-16.06,5.39-17.23,13.07-1.89,12.41.06,14.59,11.42,15.89A45.69,45.69,0,0,0,502.24,311Z" transform="translate(69 -132)" fill="white"/></svg>