<?xml version="1.0" encoding="utf-8"?>
<svg version="1.1" id="Layer_1" x="0px" y="0px" viewBox="0 0 3839 1686" style="enable-background:new 0 0 3839 1686;" xmlns="http://www.w3.org/2000/svg">
  <style type="text/css">
	.st0{fill:#FFFFFF;}
	.st1{fill:#FFE850;}
	.st2{fill:#0057A6;}
</style>
  <path class="st0" d="M 1340.4 331.6 L 1132.1 331.6 L 1132.1 396.6 L 1340.4 396.6 C 1380.4 396.6 1413.7 363.3 1413.7 323.3 C 1413.7 283.3 1380.4 250 1340.4 250 L 1287.1 250 C 1238.8 250 1198.8 210 1198.8 161.7 C 1198.8 113.4 1238.8 73.4 1287.1 73.4 L 1493.7 73.4 L 1493.7 8.4 L 1285.4 8.4 C 1200.4 8.4 1132.1 76.7 1132.1 161.7 C 1132.1 246.7 1200.4 315 1285.4 315 L 1338.7 315 C 1343.7 315 1347 318.3 1347 323.3 C 1347.1 328.3 1343.7 331.6 1340.4 331.6 Z"/>
  <path class="st0" d="M 1285.4 155 L 1493.7 155 L 1493.7 88.3 L 1285.4 88.3 C 1245.4 88.3 1212.1 121.6 1212.1 161.6 C 1212.1 201.6 1245.4 234.9 1285.4 234.9 L 1338.7 234.9 C 1387 234.9 1427 274.9 1427 323.2 C 1427 371.5 1387 411.5 1338.7 411.5 L 1132.1 411.5 L 1132.1 476.5 L 1340.4 476.5 C 1425.4 476.5 1493.7 408.2 1493.7 323.2 C 1493.7 238.2 1425.4 170 1340.4 170 L 1287.1 170 C 1282.1 170 1278.8 166.7 1278.8 161.7 C 1278.8 158.3 1282.1 155 1285.4 155 Z"/>
  <path class="st0" d="M 2033.7 88.3 C 2005.4 88.3 1983.7 110 1983.7 138.3 L 1983.7 346.6 C 1983.7 374.9 2005.4 396.6 2033.7 396.6 L 2168.7 396.6 L 2168.7 250 L 2065.4 250 L 2065.4 315 L 2103.7 315 L 2103.7 330 L 2065.4 330 C 2057.1 330 2050.4 323.3 2050.4 315 L 2050.4 168.3 C 2050.4 160 2057.1 153.3 2065.4 153.3 L 2250.4 153.3 L 2250.4 88.3 L 2033.7 88.3 L 2033.7 88.3 Z"/>
  <path class="st0" d="M 2443.6 396.6 L 2595.2 396.6 L 2491.9 90 C 2488.6 81.7 2481.9 75 2471.9 75 C 2463.6 75 2455.2 81.7 2451.9 88.3 L 2318.6 476.6 L 2395.3 476.6 L 2442 338.3 L 2442 396.6 L 2443.6 396.6 Z M 2470.3 256.6 L 2492 323.3 L 2447 323.3 L 2470.3 256.6 Z"/>
  <path class="st0" d="M 2571.9 76.7 C 2558.6 33.3 2518.6 0 2470.3 0 C 2422 0 2382 31.7 2370.3 75 L 2248.6 431.6 L 2248.6 170 L 2065.3 170 L 2065.3 235 L 2185.3 235 L 2185.3 411.6 L 2035.3 411.6 C 1998.6 411.6 1970.3 381.6 1970.3 346.6 L 1970.3 138.3 C 1970.3 101.6 2000.3 73.3 2035.3 73.3 L 2250.3 73.3 L 2250.3 8.3 L 2033.7 8.3 C 1962 8.3 1903.7 66.6 1903.7 138.3 L 1903.7 346.6 C 1903.7 418.3 1962 476.6 2033.7 476.6 L 2302 476.6 L 2437 85 C 2442 70 2455.3 60 2472 60 C 2488.7 60 2502 70 2507 85 L 2617 411.6 L 2443.7 411.6 L 2443.7 476.6 L 2707 476.6 L 2571.9 76.7 Z"/>
  <path class="st0" d="M 1655.4 411.6 C 1618.7 411.6 1590.4 381.6 1590.4 346.6 L 1590.4 138.3 C 1590.4 101.6 1620.4 73.3 1655.4 73.3 L 1878.7 73.3 L 1878.7 8.3 L 1655.4 8.3 C 1583.7 8.3 1525.4 66.6 1525.4 138.3 L 1525.4 346.6 C 1525.4 418.3 1583.7 476.6 1655.4 476.6 L 1878.7 476.6 L 1878.7 411.6 L 1655.4 411.6 Z"/>
  <path class="st0" d="M 1670.4 316.6 L 1832 316.6 L 1832 251.6 L 1605.4 251.6 L 1605.4 348.3 C 1605.4 376.6 1627.1 398.3 1655.4 398.3 L 1878.7 398.3 L 1878.7 333.3 L 1685.4 333.3 C 1677 331.6 1670.4 325 1670.4 316.6 Z"/>
  <path class="st0" d="M 1832 170 L 1670.4 170 C 1670.4 161.7 1677.1 155 1685.4 155 L 1877 155 L 1877 88.3 L 1655.4 88.3 C 1627.1 88.3 1605.4 110 1605.4 138.3 L 1605.4 235 L 1832 235 C 1832 235 1832 170 1832 170 Z"/>
  <polygon class="st0" points="2573.6 1236.5 2574.5 1236.5 2573.6 1235.2"/>
  <path class="st0" d="M 3107.2 600.4 L 2890.8 882.4 L 2674.4 600.4 L 2271 600.4 C 2180.2 600.4 2106.3 674.3 2106.3 765.1 L 2106.3 786.7 L 2018.2 786.7 C 2010.5 736.8 1985.7 690.9 1947.7 656.8 C 1907.2 620.4 1855 600.4 1800.6 600.4 L 982.3 600.4 L 424 600.4 C 349 600.4 280.1 617.1 219 650.1 C 157.1 683.4 105.9 733.2 70.8 794 C 3.7 910.2 1.4 1059.3 63.8 1177.8 L 0 1177.8 L 0 1686 L 751.5 1686 C 902.4 1686 999.7 1625.6 1055.4 1573.7 L 1160.3 1573.7 L 1160.3 1686 L 1668.5 1686 L 1668.5 1629.1 C 1668.5 1598.6 1693.4 1573.7 1723.9 1573.7 L 2519.7 1573.7 C 2550.2 1573.7 2575.1 1598.6 2575.1 1629.1 L 2575.1 1685.3 L 3006.4 1685.3 L 3839 600.3 L 3107.2 600.3 L 3107.2 600.4 Z M 2960.8 1592.9 L 2667.6 1592.9 L 2667.6 1546.6 C 2667.6 1510.5 2638.4 1481.3 2602.3 1481.3 L 1641.4 1481.3 C 1605.3 1481.3 1576.1 1510.5 1576.1 1546.6 L 1576.1 1593.5 L 1252.8 1593.5 L 1252.8 1481.2 L 1016.2 1481.2 C 1011.6 1486.6 1006.8 1491.8 1001.8 1496.9 C 958.4 1540.9 879.8 1593.4 751.6 1593.4 L 92.5 1593.4 L 92.5 1270.1 L 301.1 1270.1 C 237.2 1246.3 185 1203.1 150.9 1144 C 97.6 1051.7 97.6 932.4 150.9 840.1 C 205 746.5 304.5 692.7 424 692.7 L 982.3 692.7 L 1800.7 692.7 C 1871.2 692.7 1928.4 749.9 1928.4 820.4 L 1928.4 879.1 L 2198.9 879.1 L 2198.9 765 C 2198.9 725.1 2231.3 692.7 2271.2 692.7 L 2629 692.7 L 2891 1034.1 L 3153 692.7 L 3651.7 692.7 L 2960.8 1592.9 Z"/>
  <rect x="1759.5" y="1095.6" class="st0" width="702.5" height="158.2"/>
  <path class="st0" d="M 1845.8 820.5 C 1845.8 795.6 1825.6 775.4 1800.7 775.4 L 982.3 775.4 L 982.3 820.5 C 982.3 795.6 962.1 775.4 937.2 775.4 L 424 775.4 C 116.3 775.4 116.3 1208.9 424 1208.9 L 751.6 1208.9 C 847.5 1208.9 847.5 1352.7 751.6 1352.7 L 175 1352.7 L 175 1511 L 751.5 1511 C 1091.7 1511 1091.7 1050.8 751.5 1050.8 L 424 1050.8 C 341.6 1054.9 333.1 924.9 424 920.8 C 424 920.8 424 920.8 424 920.8 L 982.3 920.8 L 1335.3 920.8 L 1335.3 1511 L 1493.5 1511 L 1493.5 920.8 L 1845.8 920.8 L 1845.8 820.5 Z"/>
  <polygon class="st0" points="3234.5 775.4 2890.8 1223.3 2547.1 775.4 2297.5 775.4 2861.5 1510.4 2920.1 1510.4 3484.1 775.4"/>
</svg>