<?xml version="1.0" encoding="utf-8"?>
<svg version="1.1" viewBox="0 0 3839 872.9" xmlns="http://www.w3.org/2000/svg">
  <path class="st1" d="M 3839 0 L 3368.5 0 L 3332.5 30.5 L 3331.3 0 L 2977 0 L 2985 222.6 C 2980.3 214.1 2974.4 205.5 2967 197.1 C 2952.4 180.6 2934.1 167.6 2912.6 158.5 C 2888.2 148.2 2859.5 143 2827.4 143 C 2770.6 143 2714 158.9 2662.2 189.3 C 2621.2 148 2563.2 143 2537.6 143 C 2529.9 143 2522.2 143.3 2514.8 143.8 C 2502.6 144.6 2490.2 146.2 2477.8 148.6 L 2259.2 148.6 L 2328.5 26.3 L 1796.8 26.3 L 1782.6 51.4 C 1777.8 48 1772.8 44.8 1767.6 41.8 L 1767.1 41.5 C 1735.2 23.5 1695.5 14.4 1648.9 14.4 C 1617.7 14.4 1586.8 18.4 1557 26.3 L 1136.8 26.3 L 1119.8 26.4 L 907.3 26.4 L 907.4 26.3 L 338.7 26.3 L 163 336.8 L 243.6 336.8 L 0 766.8 L 353.2 766.8 L 370.2 766.7 L 781.5 766.7 L 781.5 766.8 L 1151.4 766.8 L 1176.5 722.5 C 1187.3 733.3 1199.8 742.8 1213.8 750.7 L 1214.3 751 C 1246.7 769 1285.2 777.8 1331.9 777.8 C 1372.9 777.8 1413.4 770.9 1452.2 757.2 L 1454.3 756.4 C 1458.5 754.8 1462.7 753.1 1466.9 751.4 L 1458.1 766.9 L 1625.2 766.9 L 1610.6 792.7 L 1716.1 842.5 C 1737.7 853.5 1762.1 861.6 1788.9 866.3 C 1812.1 870.7 1837.7 873 1863.1 873 C 1883.2 873 1902.9 871.7 1922 869.2 L 2241.4 869.2 L 2299.9 765.9 C 2335.1 762.5 2386.7 754 2440.2 721.9 C 2441.4 721.2 2442.6 720.4 2443.9 719.7 C 2450.4 726.3 2457.5 732.3 2465.2 737.7 C 2495.8 759.3 2534.5 770.2 2580 770.2 C 2598.3 770.2 2616.3 768.9 2633.6 766.3 L 2934.2 766.3 L 3002.5 708.4 L 3004.6 766.3 L 3359 766.3 L 3346.4 417.2 L 3839 0 Z M 3032.6 737.3 L 3029.4 647.7 L 2923.6 737.3 L 2631.5 737.3 C 2614.9 739.9 2597.8 741.2 2580 741.2 C 2540.5 741.2 2507.5 732 2481.8 714 C 2468.8 704.9 2458 693.8 2449.6 681 C 2441.8 686.7 2433.7 692 2425.3 697.1 C 2375.3 727.1 2326.4 734.5 2294.1 737.4 C 2290.2 737.7 2286.3 738 2282.4 738.1 C 2265.4 768.1 2224.5 840.3 2224.5 840.3 L 1926.1 840.3 L 1926.6 839.4 C 1906.2 842.5 1885 844.1 1863.1 844.1 C 1839.4 844.1 1815.6 842 1794.1 837.9 C 1770 833.6 1748.1 826.4 1728.9 816.6 L 1651.2 779.9 L 1674.9 738 L 1507.8 738 L 1545.7 671 C 1543.8 672.6 1541.8 674.1 1539.8 675.7 C 1511.6 697.9 1479.3 716 1443.9 729.4 L 1442.4 730 C 1406.7 742.6 1369.4 749 1331.7 749 C 1290 749 1256.2 741.4 1228.1 725.9 L 1227.7 725.7 C 1203.2 711.9 1184.6 692.6 1173.1 669.6 L 1134.3 738.1 L 830.9 738.1 L 830.9 738 L 750.7 738 L 595.6 738 L 353.2 738 L 353.2 738.1 L 49.7 738.1 L 293.3 308.1 L 212.7 308.1 L 355.6 55.3 L 851.6 55.3 L 851.5 55.4 L 982.1 55.4 L 1037.8 55.4 L 1136.7 55.4 L 1136.7 55.3 L 1560.8 55.3 C 1589.4 47.4 1618.8 43.4 1648.9 43.4 C 1690.4 43.4 1725.4 51.3 1752.9 66.7 L 1753.3 66.9 C 1767.6 75.1 1779.9 85.3 1789.9 97.2 L 1813.7 55.2 L 2278.8 55.2 L 2209.5 177.5 L 2451.2 177.5 L 2451.1 177.6 L 2480 177.6 C 2492.4 175.1 2504.7 173.4 2516.8 172.6 C 2523.6 172.1 2530.6 171.9 2537.6 171.9 C 2563.6 171.9 2624 177.6 2655.9 227.5 C 2708.9 191 2767.7 171.9 2827.4 171.9 C 2949.5 171.9 2970.7 254.1 2974.3 279.9 C 2978.7 310.8 2973.2 345.4 2957.1 386.2 L 3018.1 334.5 L 3007.1 28.8 L 3303.4 28.8 L 3305.6 91 L 3379.1 28.8 L 3760 28.8 L 3317 404 L 3329 737.1 L 3032.6 737.1 Z" style="fill: rgb(255, 255, 255);"/>
  <path class="st1" d="M 2194.3 249.8 L 2032.1 535.7 C 2025.7 546.9 2017.2 556.7 2007 564.5 L 2007 564.5 C 2002.8 551.6 1997.2 534.2 1994.3 529 L 2153.7 249.7 L 2021 249.7 L 1860.3 534 L 1899.3 646.1 L 1974.8 646.1 C 1965.1 661 1955.3 671.8 1944.1 679 C 1931.6 687.1 1916.1 691.2 1896.6 691.2 C 1884 691.2 1871.2 690.1 1860.3 688.4 C 1847.7 686.6 1833.7 683.5 1821.1 679.5 L 1795.9 670.7 L 1752.4 747.6 L 1761 751.7 C 1773.7 758.4 1789.1 763.5 1807.1 766.7 C 1825.4 770.2 1844.9 771.7 1863.1 771.7 C 1916.2 771.7 1963.8 760.7 2004.2 738.6 C 2047.6 715.8 2080.9 682 2106.3 638.8 L 2327.1 249.8 L 2194.3 249.8" style="fill: rgb(255, 255, 255);"/>
  <path class="st1" d="M 2597.8 271.6 C 2589.5 253.4 2568.5 244.2 2537.6 244.2 C 2532.2 244.2 2526.8 244.4 2521.6 244.7 C 2505 245.8 2488.5 249.1 2472.5 254 L 2451.1 260.6 L 2457.2 249.9 L 2343.5 249.9 L 2050 768 L 2182.4 768 C 2182.4 768 2242.3 662.3 2242.8 661.4 C 2255.4 666.2 2274 666.6 2287.7 665.4 C 2321 662.4 2354.7 655.2 2388.3 635.1 C 2421.7 615.1 2449.9 588.2 2472.1 554.9 C 2484.8 536.4 2495.9 518.9 2505.7 502.8 L 2537.8 448 C 2549 428.5 2558.8 409.3 2568.6 390.9 C 2578.4 371.9 2585.2 357.1 2589.6 345.9 C 2603.4 314.3 2604.8 289.4 2597.8 271.6 Z M 2428.7 396.2 L 2400.7 449 L 2362.9 512.8 L 2337.6 554 C 2336.1 556.4 2332.8 561.6 2329.5 566.8 C 2323.6 576 2313.4 581.6 2302.4 581.6 L 2287.8 581.6 L 2425.7 338.2 L 2439.4 338.2 C 2447.1 338.2 2452.3 346.1 2449.2 353.2 C 2443.2 366.8 2434.4 386.2 2428.7 396.2 Z" style="fill: rgb(255, 255, 255);"/>
  <path class="st1" d="M 929.1 127.6 L 702.8 665.5 L 563.1 665.5 L 610.6 568.5 L 560.2 568.5 L 497.3 665.5 L 356.2 665.5 L 730.7 127.6 L 929.1 127.6 M 660.8 473.2 C 688.8 412.3 723.7 336.8 768.5 247 C 695.8 350.2 644.2 425.6 613.3 473.2 L 660.8 473.2 Z" style="fill: rgb(255, 255, 255);"/>
  <polygon class="st1" points="1162.6 127.6 857.9 665.5 719.5 665.5 1024.2 127.6" style="fill: rgb(255, 255, 255);"/>
  <polygon class="st1" points="713.3 127.5 638.1 235.5 554.7 235.5 311.1 665.6 173.7 665.6 417.3 235.5 336.6 235.5 397.7 127.5" style="fill: rgb(255, 255, 255);"/>
  <polygon class="st1" points="2154.8 127.5 2093.6 235.5 2012.7 235.5 1769.1 665.6 1631.7 665.6 1875.3 235.5 1794.7 235.5 1855.8 127.5" style="fill: rgb(255, 255, 255);"/>
  <path class="st1" d="M 1746.8 171.9 C 1744.1 153.3 1734.2 139.2 1717.5 129.6 C 1700.7 120.1 1677 115.6 1649 115.6 C 1619.7 115.6 1590.3 120.5 1562.3 130.5 C 1534.5 140.6 1507.8 154.8 1484.1 173.5 C 1460.4 192.1 1440.8 212.7 1426.8 235.2 C 1411.4 257.7 1387.6 296 1356.9 349.9 L 1305.2 442.2 C 1274.5 497.5 1253.6 536.3 1243.8 558.4 C 1232.6 580.5 1229.7 601.2 1232.6 620 C 1235.3 638.9 1246.5 652.9 1263.3 662.4 C 1280.1 671.7 1302.5 676.4 1331.8 676.4 C 1361.1 676.4 1390.5 671.4 1418.5 661.5 C 1445 651.5 1471.6 637.3 1495.3 618.5 C 1519 600 1538.6 579.4 1554 557.1 C 1569.4 534.4 1591.8 496.2 1622.4 442.1 L 1674.3 349.8 C 1706.4 294.6 1727.3 255.8 1737.1 233.4 C 1746.8 211.4 1751.1 190.9 1746.8 171.9 Z M 1609 224.5 L 1412.3 570.3 C 1404.5 583.9 1387.4 588.6 1374 580.7 C 1369.7 578.1 1368.2 572.5 1370.7 568.1 L 1567.4 222.3 C 1575.2 208.7 1592.3 204 1605.7 211.9 C 1610.1 214.4 1611.5 220 1609 224.5 Z" style="fill: rgb(255, 255, 255);"/>
  <polygon class="st1" points="1478 127.5 1416.8 235.5 1335.9 235.5 1092.3 665.6 954.9 665.6 1198.5 235.5 1117.8 235.5 1178.9 127.5" style="fill: rgb(255, 255, 255);"/>
  <polygon class="st1" points="3405.6 101.2 3084.8 372.8 2739.8 665.1 2897.1 665.1 3086.6 504.6 3237 377.3 3562.9 101.2" style="fill: rgb(255, 255, 255);"/>
  <polygon class="st1" points="3254 665.1 3233.7 101.2 3082 101.2 3102.3 665.1" style="fill: rgb(255, 255, 255);"/>
  <path class="st1" d="M 2902.8 290.1 C 2898.7 259.8 2873.6 244.2 2827.4 244.2 C 2775.7 244.2 2725.3 263.1 2679.2 300.2 C 2633.1 335.7 2591.2 388.2 2552 456.3 C 2513 524.8 2496.2 577.4 2500.4 612.8 C 2504.5 650.1 2531.1 668.8 2580 668.8 C 2621.9 668.8 2659.7 659.6 2691.8 641.4 C 2724 622.4 2751.9 593.3 2774.3 555.1 C 2774.3 555.1 2780 545.4 2781.9 542.2 C 2782.7 540.9 2785 537 2785 537 L 2682.4 537 L 2679.8 541.6 L 2669.1 560.1 C 2664.3 568.9 2659.8 572.5 2658.5 573.9 C 2656.8 575.8 2654.6 577.1 2652.2 577.8 L 2650.4 578.3 C 2645 579.8 2639.3 577.8 2636 573.2 C 2633.2 569.3 2632.6 564.3 2634.3 559.8 C 2639.3 547.3 2651 523 2677.8 476.4 L 2828.7 476.4 L 2860.9 418.6 C 2893.1 362.4 2907 319.2 2902.8 290.1 Z M 2783.5 349.3 C 2779.9 357.6 2773.6 370.9 2761.7 392.3 L 2725.4 392.3 C 2739.3 369.4 2746.8 357.8 2751.5 351.2 L 2751.5 351.2 C 2768.7 325.7 2790.4 332.1 2783.5 349.3 Z" style="fill: rgb(255, 255, 255);"/>
</svg>