<?xml version="1.0" encoding="UTF-8" standalone="no"?><!-- Generator: Gravit.io --><svg xmlns="http://www.w3.org/2000/svg" xmlns:xlink="http://www.w3.org/1999/xlink" style="isolation:isolate" viewBox="0 0 264 109" width="264pt" height="109pt"><defs><clipPath id="_clipPath_Ws3x6Jh4FRaI0HsNO4NG1mpwTjrXIyLM"><rect width="264" height="109"/></clipPath></defs><g clip-path="url(#_clipPath_Ws3x6Jh4FRaI0HsNO4NG1mpwTjrXIyLM)"><g><g><path d=" M 174.068 84.771 L 174.068 83.544 L 175.232 83.544 L 176.416 83.544 L 176.987 83.248 C 177.304 83.079 177.791 82.698 178.087 82.381 L 178.616 81.81 L 178.679 77.39 L 178.743 72.969 L 179.8 72.969 L 180.836 72.969 L 180.836 77.58 L 180.836 82.191 L 180.16 83.333 L 179.462 84.475 L 178.552 85.131 L 177.622 85.765 L 175.845 85.871 L 174.068 85.977 L 174.068 84.771 L 174.068 84.771 Z " fill="rgb(255,255,255)"/><path d=" M 187.33 85.871 L 184.178 85.765 L 183.586 85.109 L 182.994 84.433 L 182.846 83.354 L 182.698 82.275 L 182.846 81.387 C 182.93 80.879 183.142 80.203 183.311 79.885 L 183.607 79.272 L 184.326 78.976 L 185.045 78.68 L 186.759 78.68 L 188.451 78.68 L 188.451 77.432 C 188.451 76.734 188.387 76.036 188.324 75.846 L 188.197 75.507 L 185.468 75.507 L 182.74 75.507 L 182.74 74.238 L 182.74 72.969 L 185.595 72.969 L 188.472 72.969 L 189.212 73.286 L 189.952 73.582 L 190.27 74.344 L 190.566 75.084 L 190.523 80.541 L 190.46 85.977 L 187.33 85.871 L 187.33 85.871 Z  M 188.451 82.381 L 188.451 81.197 L 186.822 81.26 L 185.172 81.324 L 185.109 82.127 L 185.045 82.931 L 185.299 83.248 L 185.532 83.544 L 186.991 83.544 L 188.451 83.544 L 188.451 82.381 L 188.451 82.381 Z " fill="rgb(255,255,255)"/><path d=" M 206.302 85.871 L 203.087 85.765 L 202.643 85.363 L 202.22 84.983 L 201.966 84.242 L 201.733 83.502 L 201.818 81.958 L 201.881 80.393 L 202.325 79.801 C 202.579 79.483 203.002 79.082 203.277 78.955 L 203.785 78.68 L 205.54 78.68 L 207.296 78.68 L 207.232 77.157 L 207.169 75.613 L 204.483 75.549 L 201.775 75.486 L 201.775 74.238 L 201.775 72.969 L 204.715 72.969 L 207.634 72.969 L 208.353 73.456 L 209.072 73.942 L 209.347 74.746 L 209.601 75.571 L 209.559 80.774 L 209.495 85.977 L 206.302 85.871 L 206.302 85.871 Z  M 207.275 82.381 L 207.275 81.218 L 205.836 81.218 L 204.398 81.218 L 204.144 81.472 L 203.89 81.725 L 203.89 82.233 C 203.89 82.508 203.996 82.91 204.102 83.142 L 204.335 83.544 L 205.794 83.544 L 207.275 83.544 L 207.275 82.381 L 207.275 82.381 Z " fill="rgb(255,255,255)"/><path d=" M 105.964 80.689 L 105.964 75.507 L 103.426 75.507 L 100.888 75.507 L 100.888 74.238 L 100.888 72.969 L 104.483 72.969 L 108.079 72.969 L 108.079 79.42 L 108.079 85.871 L 107.021 85.871 L 105.964 85.871 L 105.964 80.689 Z " fill="rgb(255,255,255)"/><path d=" M 110.532 85.427 C 110.236 85.194 109.834 84.708 109.665 84.39 L 109.348 83.777 L 109.348 78.362 L 109.348 72.969 L 113.155 72.969 L 116.962 72.969 L 116.962 74.238 L 116.962 75.507 L 114.213 75.507 L 111.463 75.507 L 111.463 76.882 L 111.463 78.257 L 114.107 78.257 L 116.751 78.257 L 116.751 79.526 L 116.751 80.795 L 114.107 80.795 L 111.463 80.795 L 111.463 81.704 L 111.463 82.614 L 111.738 82.994 L 112.013 83.354 L 114.487 83.396 L 116.962 83.439 L 116.962 84.665 L 116.962 85.871 L 114.022 85.871 L 111.103 85.871 L 110.532 85.427 Z " fill="rgb(255,255,255)"/><path d=" M 121.023 85.659 C 120.748 85.532 120.198 85.194 119.796 84.877 L 119.035 84.306 L 118.421 83.248 L 117.808 82.17 L 117.808 79.462 L 117.808 76.755 L 118.21 75.972 L 118.612 75.19 L 119.437 74.407 L 120.24 73.625 L 121.023 73.286 L 121.806 72.969 L 124.047 72.969 L 126.268 72.969 L 126.268 74.238 L 126.268 75.507 L 124.111 75.507 L 121.932 75.507 L 121.256 75.93 L 120.579 76.332 L 120.24 76.967 L 119.923 77.601 L 119.923 79.653 L 119.923 81.683 L 120.727 82.487 L 121.509 83.269 L 123.688 83.417 L 125.845 83.565 L 126.057 83.439 L 126.268 83.312 L 126.268 84.581 L 126.268 85.871 L 123.899 85.85 L 121.509 85.85 L 121.023 85.659 L 121.023 85.659 Z " fill="rgb(255,255,255)"/><path d=" M 127.537 79.42 L 127.537 72.969 L 128.595 72.969 L 129.652 72.969 L 129.652 75.613 L 129.652 78.257 L 132.402 78.257 L 135.151 78.257 L 135.151 75.613 L 135.151 72.969 L 136.315 72.969 L 137.478 72.969 L 137.478 79.42 L 137.478 85.871 L 136.315 85.871 L 135.151 85.871 L 135.151 83.333 L 135.151 80.795 L 132.402 80.795 L 129.652 80.795 L 129.652 83.333 L 129.652 85.871 L 128.595 85.871 L 127.537 85.871 L 127.537 79.42 Z " fill="rgb(255,255,255)"/><path d=" M 138.536 79.42 L 138.536 72.969 L 141.243 72.969 L 143.95 72.969 L 145.05 73.519 L 146.15 74.069 L 146.805 74.894 L 147.461 75.74 L 147.757 76.713 L 148.053 77.686 L 148.053 81.789 L 148.053 85.871 L 146.89 85.871 L 145.727 85.871 L 145.727 81.514 L 145.727 77.157 L 144.902 76.332 L 144.077 75.507 L 142.364 75.507 L 140.651 75.507 L 140.651 80.689 L 140.651 85.871 L 139.593 85.871 L 138.536 85.871 L 138.536 79.42 L 138.536 79.42 Z " fill="rgb(255,255,255)"/><path d=" M 152.178 85.532 C 151.839 85.342 151.226 84.898 150.824 84.517 L 150.126 83.862 L 149.618 82.804 L 149.111 81.747 L 149.111 79.399 L 149.111 77.072 L 149.64 76.015 L 150.168 74.957 L 150.739 74.407 C 151.078 74.111 151.712 73.667 152.178 73.413 L 153.024 72.969 L 154.61 72.969 L 156.196 72.969 L 157.042 73.371 L 157.888 73.773 L 158.586 74.471 L 159.305 75.169 L 159.728 76.015 L 160.172 76.882 L 160.278 78.68 L 160.363 80.478 L 160.13 81.683 L 159.876 82.889 L 159.263 83.735 L 158.628 84.602 L 157.74 85.173 L 156.873 85.765 L 154.843 85.829 L 152.812 85.871 L 152.178 85.532 L 152.178 85.532 Z  M 157.169 82.508 L 157.994 81.683 L 157.994 79.483 L 157.994 77.263 L 157.55 76.692 C 157.317 76.395 156.831 75.994 156.513 75.824 L 155.9 75.507 L 154.525 75.507 L 153.129 75.507 L 152.283 76.269 L 151.437 77.03 L 151.437 79.441 L 151.437 81.831 L 152.178 82.593 L 152.939 83.333 L 154.652 83.333 L 156.344 83.333 L 157.169 82.508 L 157.169 82.508 Z " fill="rgb(255,255,255)"/><path d=" M 161.378 84.665 L 161.378 83.439 L 163.07 83.439 L 164.741 83.439 L 165.376 83.291 L 165.989 83.121 L 166.116 82.783 L 166.243 82.445 L 165.841 81.895 C 165.608 81.577 164.635 80.541 163.641 79.589 L 161.843 77.834 L 161.59 77.072 L 161.336 76.311 L 161.442 75.444 L 161.568 74.598 L 161.97 74.048 C 162.182 73.752 162.605 73.371 162.88 73.244 L 163.387 72.969 L 166.095 72.969 L 168.781 72.969 L 168.781 74.238 L 168.781 75.507 L 166.708 75.507 L 164.635 75.507 L 164.381 75.761 L 164.128 76.015 L 164.128 76.459 L 164.128 76.903 L 166.158 78.891 L 168.189 80.901 L 168.485 81.472 L 168.781 82.043 L 168.781 82.91 L 168.781 83.798 L 168.442 84.517 L 168.083 85.258 L 167.491 85.554 L 166.898 85.871 L 164.128 85.871 L 161.378 85.871 L 161.378 84.665 L 161.378 84.665 Z " fill="rgb(255,255,255)"/><path d=" M 192.469 79.42 L 192.469 72.969 L 195.219 72.969 L 197.99 72.969 L 198.73 73.286 L 199.47 73.582 L 199.766 74.323 L 200.083 75.063 L 200.083 76.67 L 200.083 78.278 L 199.787 78.87 C 199.618 79.187 199.322 79.589 199.11 79.758 L 198.751 80.055 L 196.72 80.16 L 194.69 80.266 L 194.69 83.079 L 194.69 85.871 L 193.59 85.871 L 192.469 85.871 L 192.469 79.42 L 192.469 79.42 Z  M 197.715 77.58 L 197.968 77.326 L 197.968 76.692 C 197.968 76.332 197.884 75.909 197.778 75.761 L 197.609 75.486 L 196.149 75.549 L 194.69 75.613 L 194.627 76.438 C 194.584 76.882 194.605 77.368 194.669 77.538 L 194.775 77.834 L 196.128 77.834 L 197.461 77.834 L 197.715 77.58 L 197.715 77.58 Z " fill="rgb(255,255,255)"/><path d=" M 211.505 79.42 L 211.505 72.969 L 214.233 72.969 L 216.961 72.969 L 218.082 73.561 L 219.225 74.154 L 219.901 75.042 L 220.578 75.951 L 220.811 76.734 L 221.022 77.516 L 221.022 81.704 L 221.022 85.871 L 219.859 85.871 L 218.696 85.871 L 218.696 81.514 L 218.696 77.157 L 217.871 76.311 L 217.025 75.486 L 215.417 75.549 L 213.81 75.613 L 213.831 80.752 L 213.852 85.871 L 212.668 85.871 L 211.505 85.871 L 211.505 79.42 L 211.505 79.42 Z " fill="rgb(255,255,255)"/><path d=" M 227.473 85.511 C 227.135 85.342 226.479 84.835 226.014 84.412 L 225.21 83.65 L 224.808 82.804 L 224.406 81.958 L 224.406 79.462 L 224.406 76.967 L 224.703 76.269 L 224.999 75.549 L 225.781 74.703 L 226.543 73.836 L 227.452 73.413 L 228.34 72.969 L 230.604 72.969 L 232.867 72.969 L 232.867 74.238 L 232.867 75.507 L 230.709 75.507 L 228.531 75.507 L 227.917 75.909 C 227.6 76.121 227.135 76.586 226.923 76.903 L 226.521 77.516 L 226.521 79.42 L 226.521 81.324 L 226.945 82 C 227.156 82.381 227.558 82.825 227.833 82.994 L 228.319 83.312 L 230.582 83.375 L 232.867 83.439 L 232.867 84.665 L 232.867 85.871 L 230.498 85.871 L 228.108 85.85 L 227.473 85.511 L 227.473 85.511 Z " fill="rgb(255,255,255)"/><path d=" M 236.631 85.258 L 235.68 84.644 L 235.13 83.925 C 234.812 83.523 234.432 82.846 234.241 82.423 L 233.924 81.662 L 233.924 79.483 L 233.945 77.305 L 234.22 76.522 L 234.495 75.761 L 235.172 74.915 L 235.828 74.069 L 236.928 73.519 L 238.027 72.969 L 239.529 72.969 L 241.031 72.969 L 242.131 73.519 L 243.252 74.069 L 243.971 75.021 L 244.69 75.951 L 244.944 77.072 L 245.197 78.193 L 245.092 80.203 L 245.007 82.191 L 244.436 83.164 L 243.865 84.137 L 243.188 84.708 C 242.807 85.046 242.194 85.427 241.813 85.596 L 241.136 85.871 L 239.36 85.871 L 237.604 85.871 L 236.631 85.258 L 236.631 85.258 Z  M 241.982 82.508 L 242.807 81.683 L 242.807 79.42 L 242.807 77.157 L 241.982 76.332 L 241.158 75.507 L 239.529 75.507 L 237.9 75.507 L 237.076 76.332 L 236.251 77.157 L 236.251 79.314 L 236.251 81.472 L 236.589 82.043 L 236.928 82.635 L 237.499 82.973 L 238.048 83.312 L 239.614 83.333 L 241.158 83.333 L 241.982 82.508 L 241.982 82.508 Z " fill="rgb(255,255,255)"/><path d=" M 246.614 79.42 L 246.614 72.969 L 249.364 72.969 L 252.135 72.969 L 252.854 73.265 L 253.573 73.561 L 253.869 74.175 L 254.186 74.767 L 254.207 80.329 L 254.229 85.871 L 253.171 85.871 L 252.114 85.871 L 252.114 83.46 L 252.114 81.049 L 251.987 80.71 L 251.86 80.372 L 250.4 80.372 L 248.941 80.372 L 248.941 83.121 L 248.941 85.871 L 247.778 85.871 L 246.614 85.871 L 246.614 79.42 L 246.614 79.42 Z  M 251.86 77.58 L 252.114 77.326 L 252.114 76.755 C 252.114 76.438 252.05 76.036 251.987 75.846 L 251.86 75.507 L 250.4 75.507 L 248.941 75.507 L 248.941 76.67 L 248.941 77.834 L 250.273 77.834 L 251.606 77.834 L 251.86 77.58 Z " fill="rgb(255,255,255)"/><path d=" M 255.921 79.42 L 255.921 72.969 L 258.67 72.969 L 261.441 72.969 L 262.16 73.265 L 262.879 73.561 L 263.218 74.238 L 263.577 74.936 L 263.493 76.924 L 263.429 78.934 L 262.731 79.547 L 262.054 80.16 L 260.151 80.16 L 258.247 80.16 L 258.247 83.016 L 258.247 85.871 L 257.084 85.871 L 255.921 85.871 L 255.921 79.42 L 255.921 79.42 Z  M 261.166 77.58 L 261.42 77.326 L 261.42 76.755 C 261.42 76.438 261.356 76.036 261.293 75.846 L 261.166 75.507 L 259.707 75.507 L 258.247 75.507 L 258.247 76.67 L 258.247 77.834 L 259.58 77.834 L 260.912 77.834 L 261.166 77.58 Z " fill="rgb(255,255,255)"/><path d=" M 261.843 84.771 L 261.843 83.65 L 262.9 83.65 L 263.958 83.65 L 263.958 84.771 L 263.958 85.871 L 262.9 85.871 L 261.843 85.871 L 261.843 84.771 Z " fill="rgb(255,255,255)"/><path d=" M 151.86 71.235 L 151.86 70.431 L 154.61 70.431 L 157.359 70.431 L 157.359 71.235 L 157.359 72.017 L 154.61 72.017 L 151.86 72.017 L 151.86 71.235 Z " fill="rgb(255,255,255)"/><path d=" M 106.387 53.468 L 106.387 40.397 L 100.147 40.397 L 93.908 40.397 L 93.908 37.119 L 93.908 33.841 L 103.109 33.841 L 112.309 33.841 L 112.309 50.19 L 112.309 66.518 L 109.348 66.518 L 106.387 66.518 L 106.387 53.468 Z " fill="rgb(255,255,255)"/><path d=" M 127.114 66.412 L 119.817 66.307 L 118.696 65.693 L 117.575 65.059 L 116.814 64.234 L 116.074 63.388 L 115.503 62.204 L 114.953 61.019 L 114.889 47.44 L 114.826 33.841 L 124.682 33.841 L 134.517 33.841 L 134.517 37.119 L 134.517 40.397 L 127.643 40.397 L 120.769 40.397 L 120.769 43.676 L 120.769 46.954 L 127.22 46.954 L 133.671 46.954 L 133.671 50.232 L 133.671 53.511 L 127.199 53.511 L 120.727 53.511 L 120.811 56.281 L 120.875 59.052 L 121.361 59.433 L 121.827 59.814 L 123.159 59.962 L 124.47 60.088 L 129.504 60.025 L 134.517 59.962 L 134.517 63.303 C 134.517 65.122 134.496 66.603 134.475 66.582 C 134.432 66.561 131.133 66.476 127.114 66.412 L 127.114 66.412 Z " fill="rgb(255,255,255)"/><path d=" M 151.543 66.412 L 145.409 66.307 L 144.035 65.651 L 142.66 64.995 L 141.391 64.022 L 140.122 63.071 L 139.191 61.971 C 138.684 61.379 137.943 60.342 137.563 59.687 L 136.822 58.481 L 136.421 57.127 L 135.997 55.795 L 135.997 50.042 L 135.997 44.31 L 136.505 42.893 L 137.013 41.476 L 137.986 40.017 L 138.959 38.536 L 140.333 37.246 L 141.729 35.956 L 142.829 35.321 L 143.929 34.687 L 145.283 34.264 L 146.615 33.841 L 152.199 33.841 L 157.782 33.841 L 157.782 37.119 L 157.782 40.376 L 152.241 40.44 L 146.678 40.503 L 145.663 41.011 L 144.648 41.54 L 143.591 42.66 L 142.533 43.781 L 142.237 44.522 L 141.92 45.241 L 141.92 50.275 L 141.92 55.308 L 142.533 56.387 L 143.146 57.466 L 143.929 58.121 C 144.331 58.502 145.177 59.052 145.79 59.391 L 146.89 59.962 L 152.326 59.962 L 157.782 59.962 L 157.782 63.303 C 157.782 65.122 157.761 66.603 157.74 66.582 C 157.698 66.561 154.927 66.476 151.543 66.412 L 151.543 66.412 Z " fill="rgb(255,255,255)"/><path d=" M 160.321 50.19 L 160.321 33.841 L 163.282 33.841 L 166.243 33.841 L 166.243 40.397 L 166.243 46.954 L 172.905 46.954 L 179.567 46.954 L 179.567 40.397 L 179.567 33.841 L 182.529 33.841 L 185.49 33.841 L 185.49 50.19 L 185.49 66.518 L 182.529 66.518 L 179.567 66.518 L 179.567 60.025 L 179.567 53.511 L 172.905 53.511 L 166.243 53.511 L 166.243 60.025 L 166.243 66.518 L 163.282 66.518 L 160.321 66.518 L 160.321 50.19 Z " fill="rgb(255,255,255)"/><path d=" M 187.816 50.169 L 187.816 33.82 L 194.965 33.883 L 202.093 33.946 L 203.235 34.412 C 203.869 34.666 204.906 35.237 205.561 35.66 L 206.746 36.442 L 207.951 37.648 L 209.136 38.853 L 210.003 40.165 C 210.468 40.905 211.082 42.026 211.335 42.703 L 211.822 43.887 L 211.885 55.203 L 211.949 66.518 L 208.967 66.518 L 206.006 66.518 L 206.006 55.922 L 206.006 45.347 L 205.477 44.268 L 204.927 43.189 L 204.017 42.343 C 203.51 41.857 202.664 41.265 202.156 40.99 L 201.247 40.503 L 197.503 40.44 L 193.738 40.355 L 193.738 53.447 L 193.738 66.518 L 190.777 66.518 L 187.816 66.518 L 187.816 50.169 L 187.816 50.169 Z " fill="rgb(255,255,255)"/><path d=" M 227.558 66.412 L 223.857 66.307 L 222.27 65.524 L 220.705 64.742 L 219.584 63.79 C 218.061 62.478 216.687 60.85 215.841 59.327 L 215.143 58.058 L 214.804 56.916 L 214.466 55.753 L 214.466 50.254 L 214.466 44.733 L 214.762 43.655 L 215.037 42.576 L 215.819 41.117 L 216.581 39.657 L 217.85 38.24 L 219.14 36.823 L 220.726 35.765 L 222.313 34.708 L 223.687 34.264 L 225.083 33.841 L 228.404 33.841 L 231.703 33.841 L 232.782 34.137 L 233.882 34.433 L 235.214 35.131 L 236.568 35.829 L 238.493 37.754 L 240.417 39.678 L 241.348 41.54 L 242.279 43.422 L 242.342 49.704 L 242.405 55.985 L 241.961 57.339 L 241.496 58.693 L 240.735 59.962 L 239.973 61.231 L 238.366 62.817 L 236.779 64.403 L 235.278 65.186 L 233.776 65.989 L 232.528 66.243 L 231.28 66.518 L 227.558 66.412 L 227.558 66.412 Z  M 232.444 59.496 L 233.395 59.073 L 234.495 58.079 L 235.574 57.106 L 236.018 56.197 L 236.462 55.287 L 236.462 50.148 L 236.462 45.029 L 236.018 44.162 L 235.574 43.316 L 234.643 42.407 L 233.713 41.497 L 232.719 40.99 L 231.703 40.503 L 228.7 40.44 L 225.675 40.376 L 224.533 40.884 L 223.37 41.413 L 222.397 42.322 L 221.403 43.232 L 220.895 44.247 L 220.388 45.241 L 220.388 50.169 L 220.388 55.097 L 220.811 55.985 L 221.213 56.874 L 222.143 57.825 L 223.095 58.777 L 224.026 59.242 C 224.512 59.496 225.274 59.792 225.675 59.877 L 226.416 60.046 L 228.954 59.983 L 231.492 59.94 L 232.444 59.496 L 232.444 59.496 Z " fill="rgb(255,255,255)"/><path d=" M 245.134 63.24 L 245.134 59.962 L 249.385 60.025 L 253.658 60.088 L 254.779 59.856 L 255.899 59.623 L 256.449 58.989 L 256.978 58.333 L 256.978 57.677 L 256.978 57.022 L 251.712 51.734 L 246.424 46.425 L 245.832 45.156 L 245.24 43.887 L 245.24 41.455 L 245.24 39.023 L 245.853 37.775 L 246.466 36.506 L 247.334 35.639 L 248.201 34.793 L 249.047 34.37 L 249.893 33.946 L 256.936 33.883 L 263.958 33.82 L 263.958 37.098 L 263.958 40.376 L 258.839 40.44 L 253.7 40.503 L 253.15 40.884 L 252.6 41.243 L 252.367 41.793 C 252.219 42.089 252.114 42.534 252.114 42.787 L 252.114 43.253 L 257.084 48.223 L 262.075 53.193 L 262.689 54.145 L 263.281 55.097 L 263.641 56.345 L 264 57.593 L 263.916 59.412 L 263.831 61.231 L 263.239 62.542 L 262.625 63.874 L 261.61 64.826 C 261.039 65.355 260.32 65.905 260.003 66.053 L 259.41 66.307 L 252.262 66.412 L 245.134 66.518 L 245.134 63.24 L 245.134 63.24 Z " fill="rgb(255,255,255)"/><path d=" M 221.445 29.674 L 221.445 27.601 L 228.319 27.601 L 235.193 27.601 L 235.193 29.674 L 235.193 31.726 L 228.319 31.726 L 221.445 31.726 L 221.445 29.674 Z " fill="rgb(255,255,255)"/></g><g><path d=" M 14.996 93.316 L 14.277 92.681 L 14.277 90.905 L 14.277 89.149 L 15.736 84.877 L 17.195 80.583 L 18.189 81.324 C 18.76 81.747 19.818 82.339 20.558 82.677 L 21.891 83.291 L 23.498 83.629 L 25.084 83.989 L 27.876 83.925 L 30.647 83.862 L 30.393 84.115 C 30.245 84.263 27.771 86.273 24.852 88.62 L 19.564 92.872 L 18.634 93.316 L 17.703 93.76 L 16.709 93.866 L 15.715 93.95 L 14.996 93.316 L 14.996 93.316 Z " fill="rgb(255,255,255)"/><path d=" M 71.298 93.379 L 70.156 92.851 L 65.609 89.213 L 61.061 85.575 L 61.654 85.131 C 61.971 84.898 62.711 84.348 63.261 83.925 L 64.276 83.121 L 65.355 81.704 L 66.455 80.266 L 67.258 78.574 C 68.126 76.797 69.374 73.223 69.374 72.525 L 69.374 72.123 L 69.543 72.123 L 69.691 72.123 L 72.61 80.858 L 75.507 89.572 L 75.507 90.799 L 75.507 92.047 L 75.19 92.745 L 74.851 93.422 L 74.323 93.675 L 73.794 93.908 L 73.117 93.908 L 72.44 93.908 L 71.298 93.379 L 71.298 93.379 Z " fill="rgb(255,255,255)"/><path d=" M 38.917 85.3 L 38.177 84.919 L 37.986 84.137 L 37.796 83.375 L 38.05 82.741 L 38.303 82.127 L 40.101 81.429 L 41.878 80.731 L 44.289 79.378 L 46.7 78.003 L 49.006 76.29 L 51.29 74.577 L 53.638 72.229 L 55.985 69.902 L 56.958 68.549 L 57.952 67.216 L 57.952 66.159 L 57.952 65.101 L 57.127 64.276 L 56.303 63.451 L 55.287 63.451 L 54.251 63.451 L 53.68 63.832 C 53.384 64.022 52.644 64.784 52.072 65.482 C 49.767 68.295 46.552 71.15 43.295 73.265 L 41.455 74.471 L 39.488 75.401 C 37.225 76.48 34.941 77.263 32.614 77.728 L 30.985 78.088 L 28.553 78.193 L 26.121 78.32 L 24.915 78.066 L 23.71 77.813 L 22.441 77.178 L 21.172 76.544 L 20.304 75.571 L 19.458 74.598 L 19.458 74.217 C 19.458 74.005 19.945 72.483 20.516 70.833 L 21.573 67.808 L 20.537 66.899 C 19.945 66.391 18.591 64.953 17.534 63.705 L 15.567 61.442 L 14.129 59.242 L 12.69 57.022 L 12.69 56.197 L 12.69 55.372 L 13.304 54.759 L 13.917 54.145 L 14.657 54.145 C 15.08 54.145 15.567 54.209 15.757 54.272 L 16.096 54.42 L 17.428 56.451 L 18.739 58.481 L 20.558 60.596 L 22.398 62.711 L 24.429 64.509 C 26.967 66.751 29.738 68.76 31.451 69.606 L 32.762 70.262 L 33.502 70.135 L 34.221 69.987 L 34.771 69.564 C 35.089 69.331 35.469 68.845 35.639 68.528 L 35.956 67.914 L 35.956 67.364 C 35.956 67.068 35.829 66.497 35.66 66.095 L 35.364 65.376 L 33.27 64.044 C 32.128 63.282 30.33 61.971 29.272 61.083 L 27.369 59.496 L 25.698 57.677 C 24.788 56.683 23.498 55.097 22.843 54.166 L 21.616 52.474 L 20.537 50.359 L 19.458 48.265 L 18.824 46.298 L 18.168 44.331 L 17.851 42.428 L 17.513 40.503 L 17.618 38.79 L 17.724 37.056 L 18.211 35.956 L 18.718 34.835 L 20.156 34.814 L 21.573 34.793 L 22.61 32.424 C 24.344 28.447 27.453 23.498 28.786 22.546 L 29.272 22.208 L 29.886 22.208 L 30.478 22.208 L 31.07 22.525 L 31.662 22.821 L 31.937 23.456 L 32.191 24.112 L 32.043 24.683 L 31.895 25.275 L 31.091 26.332 C 29.632 28.257 28.299 30.478 27.073 33.079 L 25.846 35.639 L 25.084 37.88 L 24.344 40.144 L 23.9 42.322 L 23.456 44.522 L 23.583 45.199 L 23.71 45.875 L 24.281 46.489 L 24.873 47.123 L 25.656 47.335 L 26.438 47.546 L 27.157 47.356 L 27.876 47.166 L 28.532 46.425 L 29.166 45.685 L 29.293 44.902 C 30.182 39.615 32.995 33.333 36.485 28.87 L 37.796 27.178 L 39.298 25.761 C 41.053 24.112 42.47 23.033 44.522 21.827 L 46.002 20.96 L 47.271 20.516 C 47.948 20.283 49.006 20.029 49.598 19.966 L 50.677 19.839 L 51.882 20.072 L 53.067 20.326 L 53.616 22.166 C 53.913 23.181 54.251 24.238 54.336 24.535 L 54.505 25.063 L 56.387 25.211 C 58.629 25.402 62.267 26.079 64.234 26.671 L 65.672 27.094 L 66.264 27.728 L 66.835 28.342 L 66.835 28.976 L 66.835 29.59 L 66.603 30.118 L 66.349 30.647 L 65.672 30.964 L 64.974 31.303 L 62.161 30.584 L 59.327 29.864 L 57.424 29.632 L 55.52 29.399 L 52.305 29.399 L 49.09 29.399 L 47.44 29.611 L 45.791 29.843 L 44.902 30.161 L 43.993 30.499 L 43.57 31.112 L 43.126 31.726 L 42.999 32.445 L 42.893 33.143 L 43.253 33.925 L 43.612 34.687 L 44.247 35.131 L 44.86 35.575 L 45.643 35.596 C 46.066 35.596 47.694 35.512 49.217 35.385 L 52.03 35.173 L 54.78 35.342 L 57.529 35.533 L 59.687 35.956 C 63.79 36.802 67.512 38.303 70.685 40.376 L 72.313 41.455 L 73.963 43.02 L 75.613 44.585 L 76.29 45.706 C 76.649 46.341 76.988 47.039 77.03 47.25 L 77.093 47.652 L 74.873 49.069 L 72.652 50.486 L 72.694 50.782 C 72.715 50.951 73.011 52.178 73.35 53.511 L 73.984 55.943 L 74.323 58.544 L 74.661 61.167 L 74.661 63.261 L 74.661 65.376 L 74.344 65.989 L 74.027 66.603 L 73.625 66.835 L 73.202 67.047 L 72.44 67.047 L 71.658 67.047 L 71.044 66.434 L 70.431 65.82 L 70.431 63.79 L 70.431 61.781 L 70.114 59.285 L 69.775 56.789 L 69.247 54.674 C 68.951 53.511 68.422 51.713 68.083 50.655 L 67.428 48.752 L 66.201 46.193 L 64.953 43.612 L 64.403 43.168 L 63.832 42.745 L 63.113 42.597 L 62.394 42.47 L 61.823 42.597 L 61.273 42.745 L 60.575 43.443 L 59.898 44.12 L 59.75 44.902 L 59.602 45.664 L 60.765 48.181 L 61.95 50.719 L 62.69 52.94 L 63.43 55.16 L 63.874 57.275 L 64.297 59.412 L 64.509 61.929 L 64.72 64.445 L 64.509 66.751 L 64.297 69.056 L 63.79 71.171 L 63.261 73.286 L 62.605 74.873 C 62.246 75.74 61.675 76.882 61.315 77.432 L 60.681 78.426 L 59.75 79.293 C 58.714 80.266 57.529 80.901 56.451 81.112 L 55.71 81.26 L 54.441 80.245 C 53.764 79.695 53.088 79.166 52.961 79.06 L 52.707 78.87 L 50.74 80.266 C 47.187 82.783 42.28 85.279 40.334 85.575 L 39.657 85.681 L 38.917 85.3 L 38.917 85.3 Z " fill="rgb(255,255,255)"/><path d=" M 7.656 44.543 L 2.327 41.117 L 1.459 40.27 L 0.592 39.446 L 0.296 38.769 L 0 38.092 L 0 37.5 L 0 36.886 L 0.338 36.421 L 0.656 35.956 L 1.544 35.469 L 2.432 35.004 L 7.466 34.898 L 12.479 34.793 L 12.373 35.089 C 12.31 35.258 12.162 35.829 12.035 36.358 L 11.823 37.331 L 11.823 39.551 L 11.823 41.793 L 12.246 43.887 C 12.479 45.05 12.817 46.446 12.986 47.017 L 13.282 48.012 L 13.156 47.99 C 13.071 47.99 10.596 46.425 7.656 44.543 L 7.656 44.543 Z " fill="rgb(255,255,255)"/><path d=" M 81.45 43.147 C 79.991 40.609 77.559 38.177 74.217 35.892 L 72.61 34.793 L 75.698 34.835 C 77.39 34.877 80.689 34.919 83.016 34.941 L 87.246 35.004 L 88.134 35.469 L 89.022 35.956 L 89.34 36.421 L 89.678 36.886 L 89.678 37.669 L 89.678 38.43 L 89.022 39.424 L 88.346 40.419 L 85.681 42.174 C 84.221 43.147 82.825 44.035 82.593 44.141 L 82.17 44.374 L 81.45 43.147 L 81.45 43.147 Z " fill="rgb(255,255,255)"/><path d=" M 36.654 20.178 C 36.738 19.966 37.838 16.159 39.128 11.739 L 41.455 3.701 L 42.153 2.327 L 42.83 0.952 L 43.549 0.486 L 44.268 0 L 44.966 0 L 45.643 0 L 46.298 0.55 L 46.954 1.1 L 47.462 1.988 L 47.99 2.855 L 49.661 8.524 L 51.332 14.171 L 50.042 14.171 L 48.752 14.171 L 47.377 14.488 C 45.706 14.869 44.078 15.503 42.512 16.37 C 41.011 17.174 37.923 19.268 37.14 20.008 L 36.548 20.579 L 36.654 20.178 L 36.654 20.178 Z " fill="rgb(255,255,255)"/></g></g></g></svg>