<?xml version="1.0" encoding="utf-8"?>
<svg xmlns="http://www.w3.org/2000/svg">
  <path d="M 57.033 52.623 L 57.033 45.794 L 50.826 43.519 C 50.285 41.431 49.563 39.467 48.49 37.654 L 48.553 37.646 L 51.503 31.503 L 46.682 26.677 L 40.536 29.602 L 40.53 29.61 C 38.716 28.538 36.748 27.86 34.661 27.319 L 32.382 21.06 L 25.54 21.06 L 23.263 27.319 C 21.17 27.86 19.201 28.613 17.389 29.684 L 17.376 29.636 L 11.225 26.692 L 6.389 31.512 L 9.319 37.65 L 9.327 37.658 C 8.253 39.467 7.19 41.435 6.65 43.523 L 0 45.794 L 0 52.623 L 6.65 54.899 C 7.19 56.984 8.14 58.954 9.211 60.762 L 9.259 60.77 L 6.363 66.913 L 11.212 71.743 L 17.374 68.82 L 17.385 68.813 C 19.197 69.881 21.17 70.882 23.258 71.42 L 25.54 78 L 32.382 78 L 34.661 71.42 C 36.752 70.882 38.721 69.966 40.532 68.894 L 40.545 68.864 L 46.698 71.762 L 51.531 66.924 L 48.603 60.775 L 48.596 60.766 C 49.669 58.954 50.285 56.984 50.826 54.899 L 57.033 52.623 Z M 28.96 60.59 C 22.665 60.59 17.557 55.495 17.557 49.21 C 17.557 42.926 22.665 37.828 28.96 37.828 C 35.26 37.828 40.363 42.926 40.363 49.21 C 40.363 55.495 35.26 60.59 28.96 60.59 Z" style="fill: rgb(255, 255, 255);"/>
  <path d="M 78.898 11.363 L 77.402 7.759 L 73.53 7.95 C 72.788 6.965 71.929 6.108 70.967 5.387 L 70.969 5.379 L 71.174 1.497 L 67.563 0 L 64.955 2.888 L 64.955 2.895 C 63.763 2.728 62.538 2.714 61.32 2.888 L 58.711 0 L 55.099 1.493 L 55.301 5.374 C 54.319 6.114 53.461 6.984 52.735 7.946 L 52.733 7.944 L 48.842 7.744 L 47.35 11.346 L 50.237 13.947 L 50.246 13.951 C 50.108 15.067 50.049 16.371 50.222 17.59 L 47.308 20.201 L 48.805 23.807 L 52.713 23.596 C 53.454 24.581 54.334 25.433 55.296 26.154 L 55.296 26.162 L 55.099 30.042 L 59.059 31.536 L 62.012 28.648 L 62.012 28.641 C 62.777 28.782 64.083 28.817 65.301 28.648 L 67.738 31.536 L 71.261 30.042 L 71.017 26.162 C 72.003 25.423 72.841 24.55 73.563 23.59 L 73.558 23.592 L 77.441 23.792 L 78.935 20.185 L 76.042 17.586 L 76.032 17.581 C 76.203 16.39 76.194 15.176 76.025 13.96 L 78.898 11.363 Z M 65.629 21.778 C 62.307 23.147 58.499 21.574 57.121 18.254 C 55.742 14.937 57.322 11.135 60.645 9.76 C 63.971 8.386 67.78 9.96 69.158 13.279 C 70.532 16.601 68.952 20.402 65.629 21.778 Z" style="fill: rgb(255, 255, 255);"/>
  <path d="M 118.51 23.214 L 116.603 33.675 L 107.53 33.675 L 102.205 64.076 L 89.714 64.076 L 95.039 33.675 L 86.032 33.675 L 87.939 23.214 L 118.51 23.214 Z M 132.908 36.878 L 129.884 53.877 L 135.077 53.877 C 136.787 53.877 138.058 53.674 138.891 53.267 C 139.723 52.846 140.271 51.893 140.534 50.412 L 143.558 33.413 L 138.299 33.413 C 136.633 33.413 135.384 33.616 134.551 34.024 C 133.719 34.444 133.171 35.396 132.908 36.878 Z M 140.468 22.233 C 146.035 22.233 150.001 23.316 152.368 25.48 C 154.735 27.631 155.918 30.95 155.918 35.44 C 155.918 39.929 155.202 44.63 153.771 49.54 C 152.353 54.437 150.096 58.242 146.999 60.959 C 143.916 63.69 139.401 65.057 133.456 65.057 C 127.523 65.057 123.375 63.983 121.008 61.831 C 118.641 59.668 117.458 56.339 117.458 51.85 C 117.458 49.714 117.765 46.896 118.378 43.394 C 118.992 39.879 119.803 36.849 120.811 34.307 C 121.819 31.75 123.178 29.534 124.887 27.66 C 128.174 24.042 133.368 22.233 140.468 22.233 Z M 174.327 36.878 L 171.303 53.877 L 176.496 53.877 C 178.206 53.877 179.477 53.674 180.31 53.267 C 181.142 52.846 181.69 51.893 181.953 50.412 L 184.977 33.413 L 179.718 33.413 C 178.052 33.413 176.803 33.616 175.97 34.024 C 175.138 34.444 174.59 35.396 174.327 36.878 Z M 181.887 22.233 C 187.454 22.233 191.42 23.316 193.787 25.48 C 196.154 27.631 197.337 30.95 197.337 35.44 C 197.337 39.929 196.621 44.63 195.19 49.54 C 193.772 54.437 191.515 58.242 188.418 60.959 C 185.335 63.69 180.82 65.057 174.875 65.057 C 168.942 65.057 164.794 63.983 162.427 61.831 C 160.06 59.668 158.877 56.339 158.877 51.85 C 158.877 49.714 159.184 46.896 159.797 43.394 C 160.411 39.879 161.222 36.849 162.23 34.307 C 163.238 31.75 164.597 29.534 166.306 27.66 C 169.593 24.042 174.787 22.233 181.887 22.233 Z M 226.197 53.615 L 224.356 64.076 L 199.373 64.076 L 206.605 23.214 L 219.097 23.214 L 213.706 53.615 L 226.197 53.615 Z M 226.197 63.357 L 229.879 52.57 C 233.56 53.572 236.935 54.073 240.003 54.073 C 243.071 54.073 245.548 53.942 247.432 53.681 L 247.958 50.412 L 242.502 49.888 C 238.338 49.496 235.386 48.56 233.648 47.077 C 231.923 45.595 231.062 43.504 231.062 40.8 C 231.062 39.624 231.194 38.317 231.457 36.878 C 232.465 31.299 234.29 27.463 236.935 25.372 C 239.593 23.279 243.707 22.233 249.273 22.233 C 254.84 22.233 259.749 22.778 264 23.867 L 260.581 34.328 C 256.768 33.675 253.7 33.347 251.377 33.347 C 249.054 33.347 247.082 33.456 245.46 33.675 L 244.934 36.878 L 249.339 37.336 C 253.81 37.815 256.987 38.876 258.872 40.517 C 260.757 42.145 261.699 44.331 261.699 47.077 C 261.699 49.866 261.085 52.743 259.858 55.708 C 259.244 57.233 258.572 58.512 257.842 59.543 C 257.125 60.561 256.205 61.424 255.081 62.136 C 253.97 62.862 252.955 63.407 252.035 63.771 C 251.114 64.148 249.953 64.424 248.55 64.599 C 246.49 64.904 243.97 65.057 240.989 65.057 C 235.555 65.057 230.624 64.49 226.197 63.357 Z" style="fill: rgb(255, 255, 255); white-space: pre;"/>
</svg>