<svg id="Warstwa_1" data-name="Warstwa 1" xmlns="http://www.w3.org/2000/svg" viewBox="0 0 692.61 499.86"><title>vsc</title><path d="M46.38,123.65h6.81c35.5,0,71,.08,106.5-.1,4.14,0,6.09,1.43,7.95,5q33.08,63.3,66.47,126.45c.3.57.71,1.09,1.43,2.17l87-172H265l-.43-1.37L406-5l86.33,83.54-.74,1.36c-1.54.09-3.09.26-4.63.26-14.67,0-29.34.1-44-.05-3.09,0-4.7,1-6.11,3.76q-71,140.94-142.2,281.81c-2.18,4.31-4.52,8.54-6.49,12.94-1.12,2.5-2.63,3.35-5.35,3.34q-53.25-.12-106.49,0c-3,0-4.35-1.21-5.61-3.74Q109.83,255.67,48.86,133.16C47.6,130.63,47.37,127.58,46.38,123.65ZM364,62.11,217.85,355.05h5.78c13.16,0,26.34-.34,39.48.16,5.63.22,8.09-2,10.41-6.69,18.09-36.73,36.42-73.33,54.71-110Q371.07,152.8,413.85,67c1.9-3.82,4-5.41,8.31-5.16,6.32.38,12.68.1,20.33.1L400,17l-61.13,44,.53,1.18ZM188.31,349.64a15.34,15.34,0,0,0,1.47-1.95c9.37-18.77,18.8-37.5,27.95-56.38a8.77,8.77,0,0,0-.21-6.76c-22.53-45.13-45.27-90.16-67.86-135.26-1.49-3-3.35-3.91-6.61-3.89-17.83.16-35.66.07-53.5.09-1.42,0-2.85.22-4.74.37Z" transform="translate(106.6 5.01)" fill="white"/><path d="M428.67,431.62h-17V494H390V431.54c-6.1,0-11.69-.11-17.26.11-.95,0-2,1.42-2.72,2.41-3.64,5.26-3.72,5.3-8.64,1.06-2-1.74-3.95-3.59-6.05-5.23-3.15-2.45-6.9-2.09-8.7.93-2,3.4-1.45,6.58,2.11,8.51,5.71,3.08,11.6,5.83,17.4,8.74a24.48,24.48,0,0,1,12.7,26.45c-2.44,11.2-11.84,19.33-22.88,19.57-6.49.14-13,.3-19.49,0-13.13-.7-21.25-12.93-16.23-24.28a16.88,16.88,0,0,1,3.76-5.2c2.55-2.44,5.15-3.24,8,.15a50.55,50.55,0,0,0,9.28,9,11.36,11.36,0,0,0,8,1.76c1.73-.38,4.15-3.69,3.95-5.43A11,11,0,0,0,349,463c-3.79-2.62-8.31-4.15-12.48-6.24-13.06-6.59-15.21-9.65-17.11-25.13-3.69,6.84-6.49,13-10.14,18.57-5.41,8.27-7.86,17-6.91,26.88.53,5.42.1,10.93.1,16.75H280.7c0-8.43.26-16.71-.12-25a26.68,26.68,0,0,0-2.66-10.32c-4.66-9.38-9.79-18.54-14.76-27.78-.69-1.29-1.54-2.49-2.6-4.19-2.18,3.35-4.16,6.2-5.91,9.19-1.61,2.75-3.42,2.82-5.66.9-2.52-2.17-5-4.42-7.57-6.52-3.36-2.72-6.92-2.39-9.12.71s-1.29,6.65,2.59,8.72c5.58,3,11.35,5.61,17,8.47,10.07,5.12,15,16.08,12.37,27.39a23.87,23.87,0,0,1-23,18.66c-6.5.1-13,.34-19.49-.11-14-1-21.67-15.06-14.68-26.37,3.67-5.94,7.07-6.38,12-1.54,2.73,2.69,5.38,5.46,8.2,8.06,3.41,3.15,7.91,2.91,10.54-.39a6.91,6.91,0,0,0-2.42-10.62c-5.57-3-11.35-5.57-17.06-8.29-9-4.31-13.69-13.2-12.27-23.49,1.29-9.35,9-17.7,18.5-18.27,8.88-.53,17.85.64,26.78.83,2,0,4.07-1.24,6.13-1.29,6.66-.18,13.34-.3,20,.08a7.6,7.6,0,0,1,5.19,3.27c2.2,3.69,3.54,7.88,5.51,11.73.66,1.29,2.11,2.9,3.28,3s2.63-1.54,3.33-2.78a43.3,43.3,0,0,0,4.19-9c1.6-5.51,5-6.85,10.4-6.42,6.27.5,12.62.12,19.44.12-.31,1.68-.54,2.95-.74,4.06,14.67-6.07,29.11-5.73,42.89-.66,1.57-1.18,3-3.16,4.42-3.18,17.64-.21,35.29-.13,53.31-.13Z" transform="translate(106.6 5.01)" fill="white"/><path d="M553.63,449.13c-3.86,13.06-7.67,26.13-11.65,39.15-.64,2.07-1.78,5.32-3.14,5.57a38.58,38.58,0,0,1-11.89-.14c-.86-.11-1.58-2.66-2.05-4.19-4.12-13.69-8.16-27.39-13.21-41.18-1.56,7.56-3.13,15.11-4.66,22.68-1.35,6.69-2.54,13.41-4.07,20.06-.28,1.19-1.86,2.92-2.9,3-6.46.27-12.93.13-20.14.13,1.38-7,2.64-13.43,3.92-19.87,3.78-18.94,7.62-37.86,11.29-56.82.71-3.67,2.17-5.33,6.21-5a121.3,121.3,0,0,0,15.49,0c3.51-.18,5.34.86,6.45,4.42,2.29,7.29,5.11,14.43,7.75,21.61.55,1.5,1.28,2.94,2.37,5.43,3.61-9.84,6.94-18.52,9.93-27.31,1-3,2.39-4.29,5.66-4.15,5.82.24,11.67-.12,17.48.21,1.47.08,3.85,1.61,4.11,2.83,5.28,25.26,10.31,50.56,15.38,75.85a15.49,15.49,0,0,1,0,2.4H563.81c-3-14.86-6-29.81-9.07-44.76Z" transform="translate(106.6 5.01)" fill="white"/><path d="M-106.6,412.58c7.66,0,13.32-.34,18.89.2,1.66.16,3.67,2.48,4.52,4.29,6.3,13.35,12.36,26.83,18.88,41.12,4.15-9,8-17.28,11.76-25.54,2.57-5.6,5-11.25,7.71-16.77.64-1.31,2.13-3.11,3.26-3.13,11.61-.23,23.23-.14,35.18-.14v81.14H-28V439.23l-1-.21q-6.54,14.14-13.06,28.3c-3.61,7.86-7.31,15.68-10.71,23.62-1.11,2.59-2.73,2.92-5.26,3.39-11.92,2.21-17.9-2.65-22.14-14-6.26-16.78-14.94-32.64-22-49.15C-104.48,425.76-105,419.57-106.6,412.58Z" transform="translate(106.6 5.01)" fill="white"/><path d="M158.45,494.2H155c-20.45,0-30.94-7.7-36.19-27.66-4-15.24-1.79-29.75,8-42.55,5.78-7.58,13.51-11.6,23.23-11.44,4.65.07,9.32.23,14,0,15-.85,25.15,6.34,31.14,19.53,7.64,16.81,6.69,33.37-3.44,48.93-5.8,8.91-14.11,13.9-25.2,13.24C163.78,494.06,161.11,494.2,158.45,494.2Zm.1-18.77c11.56-.07,20.81-9.69,20.88-21.7s-9.44-22-21.13-22S137.2,441.87,137.41,454,147,475.49,158.55,475.43Z" transform="translate(106.6 5.01)" fill="white"/><path d="M.84,494.2V413.09c14.4,0,28.59-1,42.55.34C54,414.48,60.79,422.7,65,432.34c7.34,17,6.47,33.48-3.85,49-5.68,8.54-13.7,13.2-24.42,12.93C24.91,494,13.11,494.2.84,494.2Zm21.6-19.47c9.6,2.19,16.29-.13,20.74-7,5.5-8.52,5.18-21.33-.73-29.23-4.76-6.36-11.43-8.34-20-5.87Z" transform="translate(106.6 5.01)" fill="white"/><path d="M117.84,412.94v18.6H94.23V443.9H114V459H94.28v16.33h23.45V494H72.33V412.94Z" transform="translate(106.6 5.01)" fill="white"/><path d="M433.16,493.92v-81h45.56v18.66H455V443.9h19.86V459H454.94v16.36H478.6v18.61Z" transform="translate(106.6 5.01)" fill="white"/></svg>