<svg id="Warstwa_1" data-name="Warstwa 1" xmlns="http://www.w3.org/2000/svg" viewBox="0 0 428.11 181.1"><title>aae</title><path d="M454.3,282.66c-.9,1.71-1.82,3.42-2.69,5.15q-6.8,13.57-13.55,27.18a1.67,1.67,0,0,1-1.75,1.11q-71.44,0-142.88,0a1.89,1.89,0,0,1-1.95-1.16q-23.67-43.65-47.4-87.27c-.17-.32-.36-.64-.63-1.11l-10.52,22.19c3.3,0,6.44,0,9.58,0a1.28,1.28,0,0,1,1.38.79q8,16.11,16,32.19c.08.16.15.33.31.69h-1.36q-20.73,0-41.46,0a1.75,1.75,0,0,0-1.85,1.12C210.38,294,205.13,304.46,200,315a1.83,1.83,0,0,1-1.94,1.17q-19.11-.06-38.23,0A1.66,1.66,0,0,1,158,315c-5.17-10.43-10.39-20.83-15.55-31.27a2,2,0,0,0-2.14-1.37c-13.75.05-27.5,0-41.24,0H97.75a8.07,8.07,0,0,1,.34-.84q8-16,16-32a1.25,1.25,0,0,1,1.35-.79c2.79,0,5.58,0,8.36,0H125l-10.5-22.16c-.31.52-.56.91-.78,1.32L66.37,315.1c-.3.55-.54,1-1.38,1q-19-.06-38,0c-.18,0-.36,0-.8,0l88.26-151.35L179,281.09l64.5-116.37L312.2,282.44c5.8-11.26,11.53-22.4,17.31-33.64H303.42a7,7,0,0,1,.26-.75q8-16,16-32a1.35,1.35,0,0,1,1.39-.95q49.43,0,98.86,0c.22,0,.44,0,.84,0-.18.39-.32.71-.48,1q-7.9,15.86-15.8,31.73a1.42,1.42,0,0,1-1.53.89c-11.22,0-22.44,0-33.66,0a1.46,1.46,0,0,0-1.51.81q-9.09,16.06-18.25,32.08l-.32.58c.38,0,.66.07.93.07l4.68,0,98.75.08c.25,0,.51.05.76.07Z" transform="translate(-26.19 -164.69)" fill="white"/><path d="M454.3,165c-1.48,2.9-3,5.8-4.45,8.72q-5.94,11.87-11.84,23.77a1.5,1.5,0,0,1-1.6,1q-49.16,0-98.3,0h-1.23c.22-.47.36-.8.52-1.12q7.85-15.72,15.66-31.45a1.72,1.72,0,0,1,1.84-1.11q49.69,0,99.4,0Z" transform="translate(-26.19 -164.69)" fill="white"/><path d="M328.2,340.31c1.91-4.78,3.74-9.32,5.52-13.88a1.52,1.52,0,0,1,1.68-1.19c2.8.07,2.8,0,2.8,2.86V344c0,1.49,0,1.49-1.46,1.49a5.23,5.23,0,0,0-.56,0c-1.1.15-1.41-.37-1.38-1.42.11-3.56.14-7.12.2-10.67a3.4,3.4,0,0,0-.15-1.24l-2.7,6.59c-.8,2-1.68,3.93-2.37,5.94-.34,1-1,.77-1.66.8s-1.23.08-1.57-.8c-1.49-3.84-3.07-7.64-4.62-11.46a1.53,1.53,0,0,0-.48-.68c0,1.19,0,2.37,0,3.56,0,2.75,0,5.49.05,8.24,0,.87-.29,1.16-1.16,1.16-2.24,0-2.24,0-2.24-2.24V326.82c0-1.48.07-1.55,1.48-1.55,2.54,0,2.54,0,3.48,2.35l4.62,11.48C327.81,339.43,328,339.76,328.2,340.31Z" transform="translate(-26.19 -164.69)" fill="white"/><path d="M52.42,332V338c0,2.11,0,4.23,0,6.35,0,.88-.3,1.15-1.17,1.15-2.23,0-2.23,0-2.23-2.25V326.81c0-1.47.08-1.43,1.48-1.57a2.58,2.58,0,0,1,2.75,1.49c2.56,4.06,5.21,8.06,8,12.3,0-.53.09-.83.09-1.13,0-3.75,0-7.5,0-11.25,0-1.08.39-1.5,1.44-1.39a5.57,5.57,0,0,0,1,0c.74,0,1.08.32,1.08,1.07q0,9.07,0,18.15c0,.67-.29,1-1,1a3.09,3.09,0,0,1-3.42-1.65c-2.47-4.06-5.15-8-7.75-12Z" transform="translate(-26.19 -164.69)" fill="white"/><path d="M158.85,337l4,7.18c.54,1,.35,1.21-.78,1.35a2.79,2.79,0,0,1-3.39-2,40,40,0,0,0-2.75-5.17,1.56,1.56,0,0,0-1.07-.67c-1-.09-2.06,0-3.21,0,0,2.22-.05,4.32,0,6.43,0,1.07-.29,1.53-1.38,1.38a4.86,4.86,0,0,0-1,0c-.69,0-1-.28-1-1,0-6.09,0-12.18,0-18.28,0-.33.51-.94.78-.93a71.24,71.24,0,0,1,8.53.3,5.17,5.17,0,0,1,4.65,4.8,5.72,5.72,0,0,1-2.89,6.21A5.12,5.12,0,0,0,158.85,337Zm-7.22-8.64c0,2,0,3.91,0,5.83,0,.19.33.55.5.54a29.7,29.7,0,0,0,4.53-.23,3,3,0,0,0,2.24-3.18,2.92,2.92,0,0,0-2.52-2.93C154.86,328.26,153.3,328.37,151.63,328.37Z" transform="translate(-26.19 -164.69)" fill="white"/><path d="M206.32,337l3.93,7.12c.62,1.13.45,1.29-.86,1.43a2.69,2.69,0,0,1-3.21-1.87,50.32,50.32,0,0,0-2.81-5.27,1.57,1.57,0,0,0-1.07-.65c-1-.09-2.06,0-3.2,0,0,2.23,0,4.34,0,6.44,0,1.1-.34,1.51-1.41,1.36a6.68,6.68,0,0,0-1,0c-.71,0-1-.3-1-1,0-6.06,0-12.12,0-18.17,0-.36.46-1,.69-1a73.25,73.25,0,0,1,8.65.3,5.15,5.15,0,0,1,4.63,4.8,5.7,5.7,0,0,1-2.91,6.21C206.69,336.71,206.57,336.81,206.32,337Zm-7.21-8.6c0,2,0,3.84,0,5.73a.91.91,0,0,0,.63.63,31,31,0,0,0,4.09-.18,3,3,0,0,0,2.55-3,2.93,2.93,0,0,0-2.45-3.11A45.92,45.92,0,0,0,199.11,328.39Z" transform="translate(-26.19 -164.69)" fill="white"/><path d="M448.23,337.07l3.93,7.12c.55,1,.36,1.21-.78,1.35a2.78,2.78,0,0,1-3.38-2,42,42,0,0,0-2.75-5.17,1.58,1.58,0,0,0-1.07-.67c-1-.09-2.06,0-3.21,0,0,2.21-.05,4.32,0,6.43,0,1.06-.29,1.53-1.39,1.38a4.76,4.76,0,0,0-1,0c-.69,0-1-.28-1-1,0-6.09,0-12.18,0-18.27,0-.33.51-.95.78-.94a71.48,71.48,0,0,1,8.54.3,5.17,5.17,0,0,1,4.65,4.8,5.73,5.73,0,0,1-2.89,6.21c-.13.08-.24.18-.36.27A1.69,1.69,0,0,0,448.23,337.07ZM441,328.35c0,2,0,3.89,0,5.78,0,.22.35.62.53.61a29.68,29.68,0,0,0,4.43-.21,3,3,0,0,0,2.3-3.24,2.94,2.94,0,0,0-2.78-2.92C444,328.29,442.59,328.35,441,328.35Z" transform="translate(-26.19 -164.69)" fill="white"/><path d="M121.52,336.63h-8.91v3.2c0,1.52,0,3.05,0,4.57,0,.78-.2,1.15-1.07,1.13-2.47,0-2.33.21-2.32-2.25,0-5.54,0-11.07,0-16.61,0-1.07.36-1.52,1.42-1.41a4.41,4.41,0,0,0,.89,0c.81-.07,1.12.27,1.11,1.1,0,2.12,0,4.23,0,6.35,0,.51,0,1,.71,1,2.67,0,5.34,0,8.14,0,0-.45.06-.84.06-1.23,0-2,0-4,0-6,0-.79.3-1.13,1.11-1.16,2.39-.07,2.39-.09,2.39,2.32,0,5.5,0,11,0,16.5,0,1.35-.1,1.44-1.47,1.45-.22,0-.44,0-.66,0-1,.11-1.41-.31-1.38-1.33,0-2.12,0-4.24,0-6.36Z" transform="translate(-26.19 -164.69)" fill="white"/><path d="M254.35,335.41c0-2.94,0-5.87,0-8.81,0-1,.39-1.4,1.38-1.34a51.61,51.61,0,0,1,7.17.47c3.56.74,5.76,3.7,6.21,7.35a16.12,16.12,0,0,1-.32,6.27,8.46,8.46,0,0,1-8.16,6.16c-1.71,0-3.42,0-5.12,0-.9,0-1.16-.37-1.15-1.21C254.37,341.35,254.35,338.38,254.35,335.41Zm3.47-7v14.21c.93,0,1.79.06,2.63,0a5.22,5.22,0,0,0,5.18-4.45,12.36,12.36,0,0,0-.18-6.13,4.66,4.66,0,0,0-3.8-3.59A24.39,24.39,0,0,0,257.82,328.37Z" transform="translate(-26.19 -164.69)" fill="white"/><path d="M69.63,335.45A14.83,14.83,0,0,1,71,329.31,7.74,7.74,0,0,1,78.54,325a7.49,7.49,0,0,1,7,5.43,15.5,15.5,0,0,1,0,10c-1.16,3.41-3.91,5.52-8.25,5.29a7.94,7.94,0,0,1-7-6.16A40.93,40.93,0,0,1,69.63,335.45Zm3.26-.08A44.42,44.42,0,0,0,74,340a4,4,0,0,0,4.11,2.79c1.9-.07,3.31-.58,4.17-3.15a12.31,12.31,0,0,0,.59-3.47,11.62,11.62,0,0,0-.78-5.43,4.05,4.05,0,0,0-3.68-2.58,4,4,0,0,0-4.3,2.47A36.51,36.51,0,0,0,72.89,335.37Z" transform="translate(-26.19 -164.69)" fill="white"/><path d="M415.92,336.07c.08-3.63.47-6.42,2.6-8.62a7.8,7.8,0,0,1,13,2.68,15.15,15.15,0,0,1,.07,10.41c-1.27,3.69-4.15,5.42-8.3,5.2a7.88,7.88,0,0,1-6.88-6.13A28.26,28.26,0,0,1,415.92,336.07Zm3.34-1.15c.11,1.32.16,2.28.28,3.24a5,5,0,0,0,4.56,4.64c2.23.14,4-1.38,4.59-4.09a15.32,15.32,0,0,0-.06-7,4.34,4.34,0,0,0-4-3.55c-2.47-.06-4,1-4.74,3.33A28,28,0,0,0,419.26,334.92Z" transform="translate(-26.19 -164.69)" fill="white"/><path d="M358.45,333c0,2,0,3.93,0,5.9,0,4.13-2.82,6.54-6.57,6.8a10.83,10.83,0,0,1-4.12-.52c-3-1-4.15-3.51-4.2-6.52-.06-4.08,0-8.17,0-12.25,0-.79.31-1.13,1.12-1.16,2.39-.07,2.39-.09,2.39,2.33,0,3.75.07,7.5,0,11.24a3.63,3.63,0,0,0,3.94,4c2.62,0,4.08-1.4,4.09-4,0-4.12,0-8.24,0-12.36,0-.94.32-1.3,1.23-1.2a3.39,3.39,0,0,0,.78,0c1.05-.13,1.45.29,1.41,1.39C358.4,328.76,358.45,330.88,358.45,333Z" transform="translate(-26.19 -164.69)" fill="white"/><path d="M134.06,336.6v6c.37,0,.7.06,1,.06H142c1.77,0,2.25.62,1.75,2.35a1,1,0,0,1-.8.52c-3.78,0-7.57,0-11.36,0-.82,0-1-.48-1-1.16,0-3,0-6,0-9v-8.57c0-1.42.08-1.49,1.54-1.49h10c1.41,0,1.35,0,1.43,1.56,0,1-.16,1.56-1.38,1.52-2.34-.09-4.68,0-7,0H134c0,1.67,0,3.22,0,4.77,0,.21.6.54.93.55,2.11.05,4.23.07,6.35,0,1.15,0,1.13.62,1.11,1.42s.08,1.57-1.14,1.55C138.93,336.56,136.56,336.6,134.06,336.6Z" transform="translate(-26.19 -164.69)" fill="white"/><path d="M277.63,336.6v6h8.05a1.61,1.61,0,0,1,1.6,2.47,1,1,0,0,1-.8.41c-3.79,0-7.57,0-11.36,0-.66,0-.93-.32-.93-1q0-9.13,0-18.27a.89.89,0,0,1,1-1h11c.64,0,1,.24.94.92a5.57,5.57,0,0,0,0,1c.1.89-.3,1.17-1.16,1.15-2.37,0-4.75,0-7.13,0h-1.3c0,1.65,0,3.17,0,4.68,0,.67.41.67.89.67,2,0,4.08.05,6.12,0,1.13,0,1.51.32,1.44,1.45-.09,1.47,0,1.51-1.51,1.51Z" transform="translate(-26.19 -164.69)" fill="white"/><path d="M303.88,328.32c0,1.66,0,3.18,0,4.69,0,.68.43.66.9.66,2.12,0,4.23,0,6.35,0,1.06,0,1.25.44,1.2,1.34s.13,1.66-1.18,1.63c-2.37-.06-4.74,0-7.19,0v6c2.79,0,5.53,0,8.26,0,.45,0,1.25.11,1.29.29a8.36,8.36,0,0,1,0,2.29c0,.12-.48.29-.74.29-3.79,0-7.58,0-11.37,0-.66,0-.92-.33-.92-1q0-9.14,0-18.27a.88.88,0,0,1,1-1h11c.65,0,1,.25.93.93a5.57,5.57,0,0,0,0,1c.1.9-.33,1.15-1.17,1.14C309.55,328.3,306.81,328.32,303.88,328.32Z" transform="translate(-26.19 -164.69)" fill="white"/><path d="M36.28,340.51c-1.22,0-2.79-.47-3.56.12s-1,2.27-1.51,3.46c-.2.49-.4,1.28-.73,1.35a7.8,7.8,0,0,1-2.64,0,1.82,1.82,0,0,1-.14-1.29c1.39-3.76,2.85-7.5,4.29-11.24.85-2.23,1.75-4.45,2.53-6.7a1.21,1.21,0,0,1,1.49-.93c.78.08,1.62-.29,2.06.9,2.26,6.07,4.61,12.1,6.93,18.14.29.77.14,1.23-.77,1.22h-.11c-2.18.07-2.16.07-2.93-1.95-.39-1-.56-2.43-1.32-2.94s-2.14-.17-3.25-.2h-.34Zm0-10.36-2.64,7.3h5.29Z" transform="translate(-26.19 -164.69)" fill="white"/><path d="M189.9,345.52c-1,.28-1.53-.21-1.84-1.37s-.59-2.89-1.46-3.47-2.57-.22-3.9-.25a25.76,25.76,0,0,0-2.78,0,1.33,1.33,0,0,0-.9.68,31.6,31.6,0,0,0-1.3,3.52,1.07,1.07,0,0,1-1.26.87c-2.45,0-2.79.36-1.69-2.48q3.27-8.43,6.45-16.91a1.13,1.13,0,0,1,1.4-.87c.76.11,1.64-.4,2.1.84,2.22,6,4.53,12,6.81,17.95.49,1.27.36,1.45-1,1.46Zm-4.28-8.07L183,330.16c-.94,2.59-1.78,4.9-2.64,7.29Z" transform="translate(-26.19 -164.69)" fill="white"/><path d="M234.63,345.52h-.74c-1.17,0-1.34-.25-.93-1.31q2.47-6.49,5-13c.64-1.69,1.34-3.35,1.92-5.06a1.11,1.11,0,0,1,1.39-.89c.75.12,1.64-.42,2.1.82,2.28,6.1,4.64,12.16,7,18.24.3.79.09,1.16-.79,1.2-2.25.09-2.24.1-3-2-.39-1-.57-2.39-1.33-2.93s-2.07-.17-3.14-.19-2.23,0-3.34,0a.93.93,0,0,0-1.11.79c-.26,1-.77,1.84-1,2.8C236.29,345.22,235.75,345.85,234.63,345.52Zm9.62-8.07-2.66-7.3-2.63,7.3Z" transform="translate(-26.19 -164.69)" fill="white"/><path d="M380.94,345.52h-1c-1,0-1.16-.27-.8-1.23.92-2.45,1.84-4.89,2.78-7.33,1.36-3.57,2.78-7.13,4.09-10.72a1.29,1.29,0,0,1,1.56-1c.8.05,1.6-.21,2,.95,2.24,6,4.57,12,6.87,18.05.34.9.14,1.22-.79,1.26-2.23.1-2.22.1-3-2-.38-1-.51-2.39-1.24-2.86s-2.14-.2-3.25-.23h-2.34c-1.8,0-1.8,0-2.39,1.63a17.92,17.92,0,0,0-.7,2C382.54,345.16,382.08,345.9,380.94,345.52Zm6.89-15.37c-.94,2.6-1.78,4.91-2.64,7.3h5.29C389.61,335.06,388.76,332.73,387.83,330.15Z" transform="translate(-26.19 -164.69)" fill="white"/><path d="M226.5,332.37c-.15-.55-.3-1-.41-1.53a3.41,3.41,0,0,0-3.37-2.83,4.15,4.15,0,0,0-4,1.68c-1.45,2.07-1.39,4.47-1.28,6.83a12.22,12.22,0,0,0,.6,3.35,4.4,4.4,0,0,0,6.34,2.49,3.46,3.46,0,0,0,1.83-2.86c.12-.8.45-1,1.16-.93h.33c2.35,0,2.36,0,1.67,2.25a7,7,0,0,1-6.3,4.93c-5.6.44-8.4-3.39-8.88-7.42a16.55,16.55,0,0,1,.72-8.52A7.39,7.39,0,0,1,222,325c3.07-.09,5.57,1,7,4a8.73,8.73,0,0,1,.61,2c.27,1.28.17,1.36-1.17,1.37Z" transform="translate(-26.19 -164.69)" fill="white"/><path d="M99,328.32c0,5.37,0,10.57,0,15.76,0,.47-.21,1.31-.39,1.33a11.37,11.37,0,0,1-2.73-.1c-.11,0-.2-.65-.2-1q0-7.31,0-14.6v-1.39H90.84c-1.38,0-1.45-.09-1.45-1.58s.09-1.47,1.45-1.47h12.93c1.38,0,1.45.08,1.45,1.58s-.1,1.47-1.45,1.47Z" transform="translate(-26.19 -164.69)" fill="white"/><path d="M403.48,328.32c-1.76,0-3.35-.05-4.94,0-1.18,0-1.33-.57-1.32-1.53s.08-1.57,1.28-1.56q6.63.06,13.26,0c1.17,0,1.33.56,1.32,1.53s-.07,1.6-1.28,1.56c-1.62-.07-3.24,0-5,0v1.31c0,4.87,0,9.74,0,14.6,0,.93-.19,1.34-1.23,1.31-2.45-.08-2.12.22-2.13-2.16,0-4.57,0-9.14,0-13.71Z" transform="translate(-26.19 -164.69)" fill="white"/><path d="M367,342.62c2.76,0,5.36.05,8,0,1.15,0,1.38.45,1.37,1.46s-.24,1.5-1.37,1.48c-3.34-.06-6.68,0-10,0-.94,0-1.33-.26-1.33-1.26q0-8.85,0-17.7c0-1,.34-1.33,1.3-1.32,2.44,0,2.09-.07,2.1,2.1,0,4.64,0,9.28,0,13.92Z" transform="translate(-26.19 -164.69)" fill="white"/></svg>