<?xml version="1.0" encoding="UTF-8" standalone="no"?>
<svg
   xmlns:dc="http://purl.org/dc/elements/1.1/"
   xmlns:cc="http://creativecommons.org/ns#"
   xmlns:rdf="http://www.w3.org/1999/02/22-rdf-syntax-ns#"
   xmlns:svg="http://www.w3.org/2000/svg"
   xmlns="http://www.w3.org/2000/svg"
   xmlns:xlink="http://www.w3.org/1999/xlink"
   xmlns:sodipodi="http://sodipodi.sourceforge.net/DTD/sodipodi-0.dtd"
   xmlns:inkscape="http://www.inkscape.org/namespaces/inkscape"
   version="1.1"
   id="svg14"
   sodipodi:docname="Acclaim.svg"
   inkscape:version="0.92.5 (2060ec1f9f, 2020-04-08)">
  <metadata
     id="metadata20">
    <rdf:RDF>
      <cc:Work
         rdf:about="">
        <dc:format>image/svg+xml</dc:format>
        <dc:type
           rdf:resource="http://purl.org/dc/dcmitype/StillImage" />
        <dc:title />
      </cc:Work>
    </rdf:RDF>
  </metadata>
  <defs
     id="defs18">
    <linearGradient
       x1="287.04117"
       y1="350.87671"
       x2="348.69205"
       y2="275.90128"
       id="linearGradient3545"
       xlink:href="#linearGradient3539"
       gradientUnits="userSpaceOnUse"
       gradientTransform="matrix(1.3389552,0,0,1.3389552,-359.0584,-334.50266)" />
    <linearGradient
       id="linearGradient3539">
      <stop
         id="stop3541"
         style="stop-color:#bf0000;stop-opacity:1"
         offset="0" />
      <stop
         id="stop3547"
         style="stop-color:#bf0000;stop-opacity:1"
         offset="0.3747088" />
      <stop
         id="stop3543"
         style="stop-color:#fbe40a;stop-opacity:1"
         offset="1" />
    </linearGradient>
    <linearGradient
       x1="289.83875"
       y1="355.51709"
       x2="639.31293"
       y2="355.51709"
       id="linearGradient3555"
       xlink:href="#linearGradient3549"
       gradientUnits="userSpaceOnUse"
       gradientTransform="matrix(1.3389552,0,0,1.3389552,-359.0584,-334.50266)" />
    <linearGradient
       id="linearGradient3549">
      <stop
         id="stop3551"
         style="stop-color:#bf0000;stop-opacity:1"
         offset="0" />
      <stop
         id="stop3557"
         style="stop-color:#fff20c;stop-opacity:1"
         offset="0.24505855" />
      <stop
         id="stop3559"
         style="stop-color:#0ce500;stop-opacity:1"
         offset="0.44498077" />
      <stop
         id="stop3561"
         style="stop-color:#31e1fd;stop-opacity:1"
         offset="0.64282119" />
      <stop
         id="stop3553"
         style="stop-color:#0019bf;stop-opacity:1"
         offset="1" />
    </linearGradient>
  </defs>
  <sodipodi:namedview
     pagecolor="#ffffff"
     bordercolor="#666666"
     borderopacity="1"
     objecttolerance="10"
     gridtolerance="10"
     guidetolerance="10"
     inkscape:pageopacity="0"
     inkscape:pageshadow="2"
     inkscape:window-width="1366"
     inkscape:window-height="743"
     id="namedview16"
     showgrid="false"
     inkscape:pagecheckerboard="true"
     inkscape:zoom="1.1590481"
     inkscape:cx="387.0137"
     inkscape:cy="20.00279"
     inkscape:window-x="0"
     inkscape:window-y="0"
     inkscape:window-maximized="1"
     inkscape:current-layer="svg14" />
  <path
     d="m 10.585005,197.95261 c 1.575541,0 3.107856,-0.36975 4.596934,-1.10913 1.489084,-0.73944 2.713974,-1.73238 3.674671,-2.97882 v 0 l -2.737989,-2.97883 c -0.710916,0.90843 -1.527511,1.6056 -2.44978,2.09153 -0.922268,0.48588 -1.911787,0.72885 -2.968551,0.72885 -0.9414847,0 -1.8109167,-0.18483 -2.6082955,-0.55457 -0.7973803,-0.36972 -1.4890809,-0.87148 -2.0751081,-1.50526 -0.5860262,-0.63379 -1.0471596,-1.38906 -1.3834048,-2.2658 -0.3362419,-0.87675 -0.5043633,-1.82216 -0.5043633,-2.83623 0,-1.03518 0.1633121,-1.99115 0.4899541,-2.8679 0.3266379,-0.87675 0.7781655,-1.63731 1.3545841,-2.28165 0.5764163,-0.64435 1.2633153,-1.15138 2.0606984,-1.5211 0.7973784,-0.36975 1.6475944,-0.55455 2.5506511,-0.55455 1.075981,0 2.094322,0.25878 3.055018,0.77638 0.960697,0.51762 1.796504,1.26231 2.50742,2.23411 v 0 l 2.82445,-3.0739 c -0.941485,-1.26756 -2.171178,-2.27635 -3.689079,-3.02633 -1.517901,-0.75001 -3.08384,-1.12499 -4.697809,-1.12499 -1.4986897,0 -2.9061138,0.29584 -4.2222672,0.88733 -1.3161557,0.59151 -2.4545832,1.39432 -3.4152794,2.40838 -0.9606966,1.01408 -1.7196486,2.22356 -2.27685304,3.62846 -0.5572029,1.40491 -0.8358046,2.91015 -0.8358046,4.51576 0,1.60559 0.2737843,3.1056 0.8213925,4.49994 0.54759814,1.39433 1.30174624,2.59853 2.26244374,3.61261 0.9606978,1.01406 2.0991235,1.81688 3.4152801,2.4084 1.3161566,0.59154 2.7331872,0.88731 4.2510869,0.88731 z m 54.615655,0.0316 c 1.498682,0 2.901306,-0.29574 4.207853,-0.8873 1.306551,-0.59154 2.435357,-1.39961 3.386457,-2.42426 0.951086,-1.02462 1.705238,-2.23939 2.26245,-3.64429 0.557213,-1.4049 0.835794,-2.89962 0.835794,-4.48408 0,-1.58449 -0.278567,-3.07918 -0.835794,-4.48408 -0.557212,-1.40491 -1.311364,-2.61968 -2.26245,-3.6443 -0.9511,-1.02463 -2.079906,-1.83272 -3.386457,-2.42426 -1.306547,-0.59154 -2.709171,-0.8873 -4.207853,-0.8873 -1.479481,0 -2.872492,0.29574 -4.179039,0.8873 -1.306557,0.59154 -2.435362,1.39963 -3.386462,2.42426 -0.951086,1.02462 -1.705233,2.23939 -2.262437,3.6443 -0.557204,1.4049 -0.835808,2.89958 -0.835808,4.48407 0,1.58447 0.278614,3.07918 0.835808,4.48408 0.557204,1.4049 1.311351,2.61967 2.262437,3.6443 0.9511,1.02464 2.079905,1.83271 3.386462,2.42425 1.306547,0.59155 2.699558,0.88731 4.179039,0.88731 z m 0,-4.21471 c -0.903048,0 -1.743669,-0.18483 -2.521826,-0.55457 -0.778171,-0.36974 -1.450653,-0.87673 -2.017474,-1.52109 -0.566806,-0.64437 -1.013536,-1.4102 -1.340169,-2.29751 -0.326652,-0.88733 -0.489987,-1.838 -0.489987,-2.85206 0,-1.03518 0.163349,-1.99116 0.489987,-2.8679 0.326606,-0.87675 0.773363,-1.6373 1.340169,-2.28165 0.566821,-0.64437 1.239303,-1.1514 2.017474,-1.52111 0.778157,-0.36975 1.618778,-0.55457 2.521826,-0.55457 0.903052,0 1.748468,0.18482 2.536242,0.55457 0.787765,0.36974 1.465064,0.87674 2.03188,1.52111 0.566798,0.64435 1.013527,1.4049 1.340179,2.28165 0.326606,0.87674 0.489982,1.83272 0.489982,2.8679 0,1.01406 -0.163349,1.96473 -0.489982,2.85206 -0.326652,0.88731 -0.773381,1.65314 -1.340179,2.29751 -0.566816,0.64436 -1.244115,1.15138 -2.03188,1.52109 -0.787774,0.36974 -1.63319,0.55456 -2.536242,0.55456 z m 63.3484,3.86634 v -4.0564 h -11.0384 V 175.453 h -4.17906 v 22.18269 z m 52.68464,0 v -4.05646 h -11.03842 v -18.12644 h -4.17902 v 22.18269 z m 53.08814,0 v -3.99307 h -11.4419 v -5.26047 h 7.46463 v -3.86613 h -7.46463 v -5.07033 h 11.32663 v -3.99289 h -15.50565 v 22.18271 z m 46.34406,0.31685 c 1.57555,0 3.10786,-0.36974 4.59693,-1.10913 1.48909,-0.73942 2.71398,-1.73236 3.67469,-2.97882 v 0 l -2.73799,-2.97882 c -0.71091,0.90844 -1.52751,1.6056 -2.4498,2.09151 -0.92227,0.48588 -1.91178,0.72885 -2.96855,0.72885 -0.94147,0 -1.81092,-0.18483 -2.60828,-0.55455 -0.79739,-0.36975 -1.48909,-0.87149 -2.07511,-1.50527 -0.58603,-0.63378 -1.04718,-1.38905 -1.38339,-2.2658 -0.33632,-0.87674 -0.50441,-1.82217 -0.50441,-2.83622 0,-1.03519 0.16334,-1.99116 0.48998,-2.8679 0.3266,-0.87676 0.77814,-1.6373 1.35457,-2.28165 0.57643,-0.64437 1.26331,-1.1514 2.0607,-1.52111 0.79737,-0.36975 1.6476,-0.55457 2.55065,-0.55457 1.07599,0 2.09432,0.25879 3.05501,0.77641 0.9607,0.51762 1.79652,1.26228 2.50744,2.23409 v 0 l 2.82443,-3.07387 c -0.94145,-1.26759 -2.17117,-2.27638 -3.68908,-3.02637 -1.51789,-0.74998 -3.08383,-1.12496 -4.6978,-1.12496 -1.49869,0 -2.90611,0.29578 -4.22226,0.88729 -1.31615,0.59155 -2.45459,1.39435 -3.41529,2.40842 -0.96069,1.01407 -1.71963,2.22354 -2.27684,3.62845 -0.55722,1.4049 -0.83582,2.91015 -0.83582,4.51577 0,1.60559 0.2738,3.10558 0.82139,4.49992 0.54762,1.39434 1.30175,2.59855 2.26246,3.61261 0.96067,1.01407 2.09911,1.81688 3.41527,2.4084 1.31617,0.59153 2.73318,0.88731 4.25109,0.88731 z m 55.27854,-0.31685 V 179.5094 h 6.77291 v -4.05626 h -17.75369 v 4.05626 h 6.80175 v 18.12643 z m 47.87156,0 v -22.18263 h -4.17903 v 22.18269 z m 48.13095,0.34859 c 1.49868,0 2.90131,-0.29574 4.20785,-0.8873 1.30655,-0.59154 2.43538,-1.39962 3.38646,-2.42426 0.9511,-1.02462 1.70523,-2.23939 2.26245,-3.64429 0.5572,-1.4049 0.8358,-2.89962 0.8358,-4.48409 0,-1.58448 -0.27861,-3.07917 -0.8358,-4.48406 -0.55722,-1.40491 -1.31135,-2.61968 -2.26245,-3.64431 -0.95108,-1.02463 -2.07991,-1.83271 -3.38646,-2.42425 -1.30654,-0.59154 -2.70917,-0.8873 -4.20785,-0.8873 -1.47948,0 -2.87248,0.29574 -4.17905,0.8873 -1.30653,0.59154 -2.43538,1.39962 -3.38644,2.42425 -0.9511,1.02463 -1.70525,2.2394 -2.26244,3.64431 -0.55722,1.40489 -0.83582,2.89958 -0.83582,4.48407 0,1.58447 0.27861,3.07918 0.83582,4.48408 0.55719,1.4049 1.31134,2.61967 2.26244,3.64429 0.95106,1.02465 2.07991,1.83272 3.38644,2.42426 1.30657,0.59155 2.69957,0.8873 4.17905,0.8873 z m 0,-4.21472 c -0.90304,0 -1.74368,-0.18482 -2.52182,-0.55456 -0.77818,-0.36975 -1.45066,-0.87673 -2.01748,-1.52108 -0.56681,-0.64437 -1.01352,-1.41019 -1.34019,-2.2975 -0.3266,-0.88734 -0.48993,-1.83801 -0.48993,-2.85207 0,-1.03519 0.16331,-1.99116 0.48993,-2.8679 0.32666,-0.87676 0.77338,-1.6373 1.34019,-2.28165 0.56682,-0.64437 1.2393,-1.15141 2.01748,-1.52111 0.77814,-0.36975 1.61878,-0.55457 2.52182,-0.55457 0.90304,0 1.74847,0.18483 2.53624,0.55457 0.78779,0.36974 1.46508,0.87674 2.03188,1.52111 0.5668,0.64435 1.01353,1.40489 1.34016,2.28165 0.32665,0.87674 0.48999,1.83271 0.48999,2.8679 0,1.01406 -0.16335,1.96473 -0.48999,2.85207 -0.32665,0.88731 -0.77336,1.65313 -1.34016,2.2975 -0.5668,0.64435 -1.24409,1.15138 -2.03188,1.52108 -0.78777,0.36974 -1.6332,0.55456 -2.53624,0.55456 z m 52.07941,3.86613 v -14.83073 l 10.28905,14.83073 h 3.68911 v -22.1827 h -3.91964 v 14.35539 l -10.02971,-14.35539 h -3.97725 v 22.1827 z"
     id="COLLECTION"
     inkscape:connector-curvature="0"
     style="fill:#ffffff;fill-rule:nonzero;stroke:none;stroke-width:1.29145062" />
  <path
     inkscape:connector-curvature="0"
     style="opacity:1;fill:#ffffff;fill-opacity:1;fill-rule:evenodd;stroke:none;stroke-width:11.27770996;stroke-linecap:butt;stroke-linejoin:miter;stroke-miterlimit:4;stroke-dasharray:none;stroke-opacity:1"
     id="path3440"
     d="M 119.24152,32.32924 C 116.91313,36.049766 75.005404,101.762 56.729041,130.4077 h 26.946475 c 3.747816,-5.89187 4.814001,-7.59689 8.284784,-13.05481 l 27.44859,-0.20922 c 9.8e-4,4.41727 -6.7e-4,8.84675 0,13.26403 h 25.39831 c 0.0104,-32.688478 -0.0244,-65.39006 -0.0837,-98.078464 z m 60.25298,0 -20.58643,32.260448 -0.16735,0.209218 -0.12555,0.209217 c -12.27369,18.685053 -11.55327,15.560545 0.20922,34.770991 l 0.16736,0.292896 0.16736,0.29289 19.87511,30.04281 h 27.28121 L 178.53212,88.397987 c -0.0172,-0.02986 -0.0249,-0.05408 -0.0421,-0.08367 -2.30862,-4.003682 -3.42543,-6.281954 -0.16736,-11.925071 l 28.11806,-44.060001 h -26.94646 z m 37.28153,0 -20.58642,32.260448 -0.16736,0.209218 -0.12555,0.209217 c -12.27369,18.685053 -11.55327,15.560545 0.20922,34.770991 l 0.16736,0.292896 0.16736,0.29289 19.87512,30.04281 h 27.23937 L 215.81365,88.397987 c -0.0172,-0.02986 -0.0249,-0.05408 -0.0421,-0.08367 -2.30861,-4.003682 -3.42542,-6.281954 -0.16735,-11.925071 l 28.11823,-44.059997 h -26.94647 z m 30.58677,0 v 98.07846 h 24.47777 V 32.32924 Z m 109.87801,0 v 18.326947 h 24.51962 V 32.32924 Z m -42.97209,21.883544 c -20.98616,0 -38.24392,17.257755 -38.24392,38.243904 0,19.455922 14.83979,35.684462 33.72494,37.951012 h 8.9961 c 3.97436,-0.4808 7.77861,-1.56555 11.29744,-3.18002 v 3.18002 h 22.46934 V 54.882261 h -22.46934 v 2.803441 c -4.82308,-2.21285 -10.15804,-3.472918 -15.77456,-3.472918 z m 42.97209,1.338958 V 130.4077 h 24.51962 V 55.551742 Z m 30.25202,0.167355 v 74.688593 h 22.76224 V 87.937705 c 0,-5.574775 4.13264,-9.707419 9.70742,-9.707419 5.57478,0 9.70743,4.132644 9.70743,9.707419 v 42.469985 h 24.56146 V 88.146918 c -3e-5,-5.574766 4.13262,-9.707423 9.7074,-9.707423 5.57478,1.3e-5 9.70745,4.132643 9.70745,9.707423 v 42.260772 h 22.76222 V 88.146918 c 0,-17.791312 -7.1467,-31.967557 -32.7207,-31.465449 -8.01617,0 -13.20615,3.559136 -18.20142,8.452157 -4.99931,-5.584849 -13.13817,-8.909475 -25.7749,-8.661369 -2.89654,0 -5.75575,0.409474 -8.49399,1.171589 V 55.719097 Z M 119.3252,74.25526 c 0.007,4.192792 0.0362,3.967781 0.0421,9.623736 0.003,2.831609 -0.003,5.002925 0,7.824523 l -11.1719,0.08367 c 5.35362,-8.420125 5.79047,-9.132441 11.13006,-17.531942 z m 194.94352,2.71975 c 8.67036,0 15.48167,6.811303 15.48167,15.481664 0,8.670376 -6.81131,15.481676 -15.48167,15.481676 -8.67036,0 -15.48167,-6.8113 -15.48167,-15.481676 0,-8.670361 6.81131,-15.481664 15.48167,-15.481664 z" />
  <path
     inkscape:connector-curvature="0"
     style="opacity:1;fill:#ffffff;fill-opacity:1;fill-rule:evenodd;stroke:none;stroke-width:0.66339463px;stroke-linecap:butt;stroke-linejoin:miter;stroke-opacity:1"
     id="path3526"
     d="M 108.88976,34.916821 3.2641338,146.22315 H 496.95301 v -9.40866 H 35.04058 Z" />
  <path
     inkscape:connector-curvature="0"
     style="opacity:1;fill:#ffffff;fill-opacity:1;fill-rule:evenodd;stroke:none;stroke-width:0.66339463px;stroke-linecap:butt;stroke-linejoin:miter;stroke-opacity:1"
     id="path3528"
     d="M 29.022686,146.22315 H 496.95301 v -9.40866 H 35.04058 Z" />
</svg>
