<?xml version="1.0" encoding="utf-8"?>
<svg version="1.1" viewBox="0 0 3839 468.7" xmlns="http://www.w3.org/2000/svg">
  <path class="st2" d="M 2089.8 180.4 C 2089.8 154.4 2081.3 127.6 2062.2 109.4 C 2041.1 88.7 2010.7 84.2 1982.3 84.2 L 1889.4 84.2 L 1889.4 384.5 L 1933.2 384.5 L 1933.2 245.3 L 1934 245.3 L 2033 384.5 L 2087.8 384.5 L 2003.8 272.5 C 2013.5 272.5 2024.1 270.1 2033 266.8 C 2071.9 253 2089.8 221 2089.8 180.4 Z M 1963.2 239.2 L 1933.2 239.2 L 1933.2 124.4 L 1979.5 124.4 C 2014.4 124.4 2046 142.3 2046 180.4 C 2046 228.3 2002.1 239.2 1963.2 239.2 Z" style="fill: rgb(255, 255, 255);"/>
  <path class="st2" d="M 223.6 384.5 L 277.2 384.5 L 337.7 296 L 440 296 L 440 384.5 L 483.8 384.5 L 483.8 84.2 L 429.8 84.2 L 223.6 384.5 Z M 439.9 141 L 439.9 255.8 L 365.2 255.8 L 439.1 141 L 439.9 141 Z" style="fill: rgb(255, 255, 255);"/>
  <polygon class="st2" points="2109.4 384.5 2254.7 384.5 2254.7 344.3 2153.3 344.3 2153.3 253 2254.7 253 2254.7 212.9 2153.3 212.9 2153.3 124.4 2254.7 124.4 2254.7 84.2 2109.4 84.2" style="fill: rgb(255, 255, 255);"/>
  <path class="st2" d="M 1814.9 286.3 C 1814.9 322 1795.4 350 1758.1 350 C 1720.8 350 1701.3 322 1701.3 286.3 L 1701.3 84.2 L 1657.5 84.2 L 1657.5 287.5 C 1657.5 316.7 1665.6 344.7 1687.9 364.6 C 1707 381.6 1732.5 390.2 1758.1 390.2 C 1783.7 390.2 1809.2 381.7 1828.3 364.6 C 1850.6 344.7 1858.7 316.7 1858.7 287.5 L 1858.7 84.2 L 1814.9 84.2 L 1814.9 286.3 Z" style="fill: rgb(255, 255, 255);"/>
  <polygon class="st2" points="1473.6 124.4 1531.2 124.4 1531.2 384.5 1575.1 384.5 1575.1 124.4 1632.7 124.4 1632.7 84.2 1473.6 84.2" style="fill: rgb(255, 255, 255);"/>
  <polygon class="st2" points="1019.5 84.2 999.6 84.2 838.9 321.6 838.1 321.6 838.1 84.2 794.3 84.2 794.3 384.5 845.4 384.5 1019.5 134.9 1019.5 384.5 1164.8 384.5 1164.8 344.3 1063.3 344.3 1063.3 253 1164.8 253 1164.8 212.9 1063.3 212.9 1063.3 124.4 1164.8 124.4 1164.8 84.2 1054.8 84.2" style="fill: rgb(255, 255, 255);"/>
  <path class="st2" d="M 615.4 84.2 L 518 84.2 L 518 384.5 L 613.8 384.5 C 658.8 384.5 698.2 373.5 731.1 341.1 C 756.3 315.9 768.8 270.1 768.8 235.2 C 768.8 201.5 757.4 166.6 738 139.4 C 709.2 98.8 663.7 84.2 615.4 84.2 Z M 614.2 344.3 L 561.9 344.3 L 561.9 124.4 L 615 124.4 C 661.3 124.4 698.2 145.9 716 189.3 C 721.7 203.9 724.9 219.7 724.9 235.2 C 725 304.6 682.4 344.3 614.2 344.3 Z" style="fill: rgb(255, 255, 255);"/>
  <rect x="2642.9" y="84.2" class="st2" width="43.8" height="300.3" style="fill: rgb(255, 255, 255);"/>
  <polygon class="st2" points="1397.7 312.7 1396.8 312.7 1250.8 84.2 1202.9 84.2 1202.9 384.5 1246.7 384.5 1246.7 152.4 1247.5 152.4 1396 384.5 1441.5 384.5 1441.5 84.2 1397.7 84.2" style="fill: rgb(255, 255, 255);"/>
  <polygon class="st2" points="2510.2 328.9 2424.6 84.2 2376.9 84.2 2486.5 384.5 2533.8 384.5 2632.8 84.2 2587.6 84.2" style="fill: rgb(255, 255, 255);"/>
  <path class="st2" d="M 3599.3 136.5 L 3599.3 124.4 L 3599.3 35.5 L 3458.1 35.5 L 3458.1 106 L 3458.1 138.6 L 3452.5 138.6 L 3435.8 112.5 L 3386.6 35.5 L 3263.3 35.5 L 3263.3 48.7 L 3263.3 70.1 L 3245 59.1 C 3213.2 40 3176.2 29.9 3138 29.9 C 3100.2 29.9 3063.3 40.3 3031.1 60 L 3012.7 71.3 L 3012.7 49.6 L 3012.7 35.5 L 2871.5 35.5 L 2871.5 45.3 L 2855.1 39.1 C 2839 33 2821.7 29.9 2803.7 29.9 C 2785.7 29.9 2768.4 33.2 2752.1 39.7 L 2735.5 46.4 L 2735.5 35.5 L 2552 35.5 L 2519.4 138.6 L 2495.3 138.6 L 2459.2 35.5 L 2060.8 35.5 L 2060.8 49.4 L 2045 44.4 C 2026.7 38.5 2005.6 35.6 1982.3 35.6 L 1349 35.6 L 1349 106 L 1349 138.6 L 1343.4 138.6 L 1326.7 112.5 L 1277.5 35.5 L 976 35.5 L 903.8 138.6 L 886.8 138.6 L 886.8 35.5 L 745.6 35.5 L 745.6 53.7 L 745.6 75.2 L 727.2 64 C 696.2 45.1 658.6 35.5 615.4 35.5 L 404.1 35.5 L 338.4 131.2 L 334.8 136.4 L 328.4 136.4 L 200.8 136.4 L 56.6 346.4 L 167.6 346.4 L 190.6 346.4 L 177.6 365.3 L 131.1 433.1 L 302.9 433.1 L 359.8 349.9 L 363.4 344.6 L 369.8 344.6 L 379.2 344.6 L 391.3 344.6 L 391.3 356.7 L 391.3 433.1 L 613.9 433.1 C 658.2 433.1 695.4 423.9 727.4 404.9 L 745.6 394.1 L 745.6 415.3 L 745.6 433.1 L 870.8 433.1 L 932.8 344.3 L 970.8 344.3 L 970.8 433.1 L 1295.4 433.1 L 1295.4 344.3 L 1312.5 344.3 L 1369.3 433.1 L 1623.7 433.1 L 1623.7 398.3 L 1623.7 366.7 L 1644.8 390.2 C 1648.1 393.9 1651.7 397.5 1655.4 400.8 C 1682.8 425.3 1719.3 438.8 1758.1 438.8 C 1781 438.8 1803 434.1 1823.5 424.9 L 1840.6 417.2 L 1840.6 433.2 L 1981.8 433.2 L 1981.8 396.6 L 2003.8 427.5 L 2007.8 433.2 L 2303.4 433.2 L 2303.4 356.5 L 2303.4 344.4 L 2315.5 344.4 L 2411.5 344.4 L 2420 344.4 L 2422.9 352.3 L 2452.4 433.2 L 2569 433.2 L 2570.7 428.2 L 2594.3 356.7 L 2594.3 432 L 2594.3 433.3 L 2735.5 433.3 L 2735.5 423.6 L 2751.8 429.7 C 2768.1 435.8 2785.6 438.9 2803.6 438.9 C 2821.6 438.9 2838.9 435.9 2855.1 430 L 2871.3 424.1 L 2871.3 433.3 L 3012.5 433.3 L 3012.5 419.2 L 3012.5 397.6 L 3030.9 408.9 C 3063 428.6 3100 439 3137.8 439 C 3175.6 439 3212.6 428.6 3244.7 409 L 3263.1 397.8 L 3263.1 419.4 L 3263.1 433.4 L 3404.3 433.4 L 3404.3 344.6 L 3421.4 344.6 L 3478.2 433.4 L 3599 433.4 L 3599 358.8 L 3599 346.7 L 3611.1 346.7 L 3637.9 346.7 L 3782.1 136.7 L 3611.2 136.7 L 3599.3 136.7 Z M 3631.3 329.4 L 3584.4 329.4 L 3584.4 418.2 L 3486.7 418.2 L 3429.9 329.4 L 3389.7 329.4 L 3389.7 418.2 L 3278.3 418.2 L 3278.3 362.3 C 3243.5 400.1 3193.5 423.8 3138.1 423.8 C 3082.6 423.8 3032.6 399.9 2997.9 362 L 2997.9 418.1 L 2886.5 418.1 L 2886.5 395.3 C 2864.8 413.3 2836.3 423.8 2803.8 423.8 C 2771.1 423.8 2742.4 413 2720.7 394.4 L 2720.7 418.1 L 2609.3 418.1 L 2609.3 329.3 L 2587.6 329.3 L 2558.3 418.1 L 2462.9 418.1 L 2430.5 329.3 L 2288.6 329.3 L 2288.6 418.1 L 2155.4 418.1 L 2075.7 418.1 L 2015.6 418.1 L 1967 349.7 L 1967 418.1 L 1855.6 418.1 L 1855.6 384.9 C 1854 386.5 1852.5 388.1 1850.8 389.6 C 1826.2 411.6 1793.3 423.7 1758.1 423.7 C 1723 423.7 1690 411.6 1665.4 389.5 C 1647.7 373.7 1635.4 353.2 1628.9 329.1 L 1608.8 329.1 L 1608.8 417.9 L 1497.4 417.9 L 1497.4 329.1 L 1475.2 329.1 L 1475.2 417.9 L 1377.5 417.9 L 1320.7 329.1 L 1280.5 329.1 L 1280.5 417.9 L 1198.6 417.9 L 1169.1 417.9 L 985.7 417.9 L 985.7 329.1 L 925 329.1 L 863 417.9 L 760.5 417.9 L 760.5 359 C 758.7 361.1 756.9 363.1 754.9 365 C 718.5 400.9 672.4 418.3 613.7 418.3 L 517.4 418.3 L 484.1 418.3 L 406 418.3 L 406 329.8 L 355.3 329.8 L 295 418.3 L 159.5 418.3 L 192.4 370.4 L 220.5 329.5 L 86.5 329.5 L 207.2 153.6 L 341.2 153.6 L 412 50.4 L 484.3 50.4 L 517.6 50.4 L 615.5 50.4 C 678.2 50.4 728.1 72.1 760.6 113.2 L 760.6 50.4 L 872 50.4 L 872 153.5 L 912 153.5 L 981.8 50.4 L 1119.6 50.4 L 1169.2 50.4 L 1198.7 50.4 L 1269.4 50.4 L 1335.3 153.5 L 1364 153.5 L 1364 50.4 L 1440 50.4 L 1475.4 50.4 L 1623.8 50.4 L 1666.6 50.4 L 1735.2 50.4 L 1735.2 153.5 L 1781.3 153.5 L 1781.3 50.4 L 1855.7 50.4 L 1892.7 50.4 L 1982.4 50.4 C 2022.1 50.4 2052.8 59 2075.8 76.5 L 2075.8 50.4 L 2288.7 50.4 L 2288.7 153.5 L 2366.4 153.5 L 2328.8 50.4 L 2448.8 50.4 L 2484.9 153.5 L 2530.5 153.5 L 2563.1 50.4 L 2609.4 50.4 L 2679.8 50.4 L 2720.8 50.4 L 2720.8 77.7 C 2742 57.2 2771.2 44.8 2803.9 44.8 C 2836.9 44.8 2865.6 56.1 2886.6 75.1 L 2886.6 50.4 L 2998 50.4 L 2998 106.5 C 3032.8 68.5 3082.8 44.7 3138.2 44.7 C 3194.3 44.7 3243.9 67.9 3278.4 105.4 L 3278.4 50.4 L 3378.6 50.4 L 3444.5 153.5 L 3473.2 153.5 L 3473.2 50.4 L 3584.6 50.4 L 3584.6 153.5 L 3752 153.5 L 3631.3 329.4 Z" style="fill: rgb(255, 255, 255);"/>
  <polygon class="st2" points="3506.8 312.7 3506 312.7 3359.9 84.2 3312 84.2 3312 384.5 3355.8 384.5 3355.8 152.4 3356.6 152.4 3505.1 384.5 3550.6 384.5 3550.6 84.2 3506.8 84.2" style="fill: rgb(255, 255, 255);"/>
  <path class="st2" d="M 2763.5 159.7 C 2763.5 137.8 2781.8 118.7 2803.7 118.7 C 2829.7 118.7 2845.9 136.1 2845.9 162.1 L 2889.7 162.1 C 2889.7 111.4 2853.6 78.5 2803.7 78.5 C 2757.8 78.5 2719.7 113.4 2719.7 160.1 C 2719.7 218.5 2757 232.3 2803.7 250.2 C 2828.9 259.9 2852 267.2 2852 299.3 C 2852 328.5 2833.7 350 2803.7 350 C 2772 350 2755 324.8 2755 295.6 L 2711.2 295.6 C 2711.2 350 2748.9 390.1 2803.7 390.1 C 2857.3 390.1 2895.8 353.2 2895.8 299.2 C 2895.8 185.3 2763.5 223.4 2763.5 159.7 Z" style="fill: rgb(255, 255, 255);"/>
  <path class="st2" d="M 3138 14.9 C 3177.2 14.9 3215.2 24.9 3248.4 43.8 L 3248.4 35.6 L 3248.4 20.6 L 3263.3 20.6 L 3386.6 20.6 L 3394.8 20.6 L 3399.2 27.5 L 3443.2 96.3 L 3443.2 35.5 L 3443.2 20.6 L 3458.1 20.6 L 3599.3 20.6 L 3614.2 20.6 L 3614.2 35.5 L 3614.2 121.5 L 3782.3 121.5 L 3810.7 121.5 L 3794.6 144.9 L 3650.4 354.9 L 3645.9 361.4 L 3638 361.4 L 3614.1 361.4 L 3614.1 433.2 L 3614.1 448.1 L 3599.2 448.1 L 3478.4 448.1 L 3470.2 448.1 L 3465.8 441.2 L 3419.4 368.6 L 3419.4 433.1 L 3419.4 448 L 3404.5 448 L 3263.3 448 L 3248.4 448 L 3248.4 433.1 L 3248.4 424.1 C 3214.9 443.5 3176.9 453.7 3138 453.7 C 3099.1 453.7 3061.1 443.4 3027.6 424 L 3027.6 433.1 L 3027.6 448 L 3012.7 448 L 2871.5 448 L 2856.6 448 L 2856.6 445.2 C 2839.8 450.8 2822.1 453.7 2803.8 453.7 C 2785.3 453.7 2767.4 450.7 2750.5 444.9 L 2750.5 448 L 2735.6 448 L 2594.4 448 L 2580 448 L 2569 448 L 2452.4 448 L 2442 448 L 2438.4 438.2 L 2409.6 359.2 L 2318.5 359.2 L 2318.5 433.1 L 2318.5 448 L 2303.6 448 L 1840.8 448 L 1825.9 448 L 1825.9 440.2 C 1804.6 449.2 1781.9 453.7 1758.4 453.7 C 1715.9 453.7 1675.9 438.9 1645.8 411.9 C 1643.5 409.8 1641.2 407.7 1639 405.4 L 1639 433 L 1639 447.9 L 1624.1 447.9 L 1369.7 447.9 L 1361.5 447.9 L 1357.1 441 L 1310.7 368.4 L 1310.7 432.9 L 1310.7 447.8 L 1295.8 447.8 L 970.8 447.8 L 955.9 447.8 L 955.9 432.9 L 955.9 359 L 940.6 359 L 883.1 441.4 L 878.6 447.8 L 870.8 447.8 L 745.6 447.8 L 730.7 447.8 L 730.7 432.9 L 730.7 420.1 C 697.3 438.8 659 447.9 613.9 447.9 L 391.2 447.9 L 376.3 447.9 L 376.3 433 L 376.3 359.5 L 371.3 359.5 L 315.3 441.5 L 310.9 448 L 303 448 L 131.1 448 L 102.7 448 L 118.8 424.6 L 162.3 361.3 L 56.7 361.3 L 28.3 361.3 L 44.4 337.9 L 188.6 127.9 L 193 121.4 L 200.9 121.4 L 327 121.4 L 391.9 26.9 L 396.4 20.4 L 404.3 20.4 L 615.6 20.4 C 659.6 20.4 698.3 29.9 730.8 48.5 L 730.8 35.5 L 730.8 20.6 L 745.7 20.6 L 886.9 20.6 L 901.8 20.6 L 901.8 35.5 L 901.8 115.5 L 963.8 26.9 L 968.3 20.5 L 976.1 20.5 L 1277.5 20.5 L 1285.7 20.5 L 1290.1 27.4 L 1334.1 96.2 L 1334.1 35.5 L 1334.1 20.6 L 1349 20.6 L 1982.3 20.6 C 2005.6 20.6 2027 23.4 2045.8 29 L 2045.8 20.6 L 2060.7 20.6 L 2459.1 20.6 L 2469.7 20.6 L 2473.2 30.6 L 2505.8 123.7 L 2508.4 123.7 L 2537.7 31 L 2541 20.6 L 2551.9 20.6 L 2735.4 20.6 L 2750.3 20.6 L 2750.3 24.3 C 2767.2 18.1 2785.1 14.9 2803.6 14.9 C 2822 14.9 2839.7 17.9 2856.4 23.7 L 2856.4 20.6 L 2871.3 20.6 L 3012.5 20.6 L 3027.4 20.6 L 3027.4 35.5 L 3027.4 44.6 C 3061.1 25.2 3099.1 14.9 3138 14.9 M 3138 0 C 3105 0 3072.5 7 3042.5 20.3 L 3042.5 5.7 L 3027.6 5.7 L 3012.7 5.7 L 2871.5 5.7 L 2856.6 5.7 L 2848.5 5.7 C 2834 1.9 2819 0 2803.7 0 C 2788.7 0 2774.1 1.9 2759.9 5.7 L 2750.4 5.7 L 2735.5 5.7 L 2552 5.7 L 2541 5.7 L 2530.1 5.7 L 2526.8 16.1 L 2523.5 26.5 L 2506.4 80.4 L 2487.2 25.6 L 2483.7 15.6 L 2480.2 5.6 L 2469.6 5.6 L 2459 5.6 L 2060.6 5.6 L 2045.7 5.6 L 2030.8 5.6 L 2030.8 10 C 2015.7 7.1 1999.4 5.6 1982.2 5.6 L 1348.9 5.6 L 1334 5.6 L 1319.1 5.6 L 1319.1 20.5 L 1319.1 35.4 L 1319.1 45.2 L 1302.5 19.3 L 1298.1 12.4 L 1293.7 5.5 L 1285.5 5.5 L 1277.3 5.5 L 976 5.5 L 968.2 5.5 L 960.4 5.5 L 956 12 L 951.5 18.4 L 916.6 68.3 L 916.6 35.5 L 916.6 20.6 L 916.6 5.7 L 901.7 5.7 L 886.8 5.7 L 745.6 5.7 L 730.7 5.7 L 715.8 5.7 L 715.8 20.6 L 715.8 24.7 C 686.1 12.1 652.4 5.7 615.5 5.7 L 404.1 5.7 L 396.2 5.7 L 388.4 5.7 L 384 12.2 L 379.5 18.7 L 319.1 106.7 L 200.8 106.7 L 193 106.7 L 185.2 106.7 L 180.8 113.2 L 176.4 119.7 L 32.2 329.7 L 16 353 L 0 376.4 L 28.3 376.4 L 56.7 376.4 L 134 376.4 L 106.6 416.4 L 90.5 439.8 L 74.5 463.1 L 102.8 463.1 L 131.2 463.1 L 303 463.1 L 310.9 463.1 L 318.8 463.1 L 323.2 456.6 L 327.6 450.1 L 361.4 400.6 L 361.4 433.3 L 361.4 448.2 L 361.4 463.1 L 376.3 463.1 L 391.2 463.1 L 613.8 463.1 C 652 463.1 685.6 456.9 715.8 444.2 L 715.8 448.2 L 715.8 463.1 L 730.7 463.1 L 745.6 463.1 L 870.8 463.1 L 878.6 463.1 L 886.4 463.1 L 890.8 456.7 L 895.3 450.3 L 941 384.8 L 941 433.2 L 941 448.1 L 941 463 L 955.9 463 L 970.8 463 L 1295.4 463 L 1310.3 463 L 1325.2 463 L 1325.2 448.1 L 1325.2 433.2 L 1325.2 419.6 L 1344.2 449.3 L 1348.6 456.2 L 1353 463.1 L 1361.2 463.1 L 1369.4 463.1 L 1623.8 463.1 L 1638.7 463.1 L 1653.6 463.1 L 1653.6 448.2 L 1653.6 437.3 C 1683.6 457.7 1720 468.8 1758.1 468.8 C 1776.2 468.8 1793.8 466.3 1810.7 461.4 L 1810.7 463.1 L 1825.6 463.1 L 1840.5 463.1 L 2303.3 463.1 L 2318.2 463.1 L 2333.1 463.1 L 2333.1 448.2 L 2333.1 433.3 L 2333.1 374.3 L 2398.9 374.3 L 2424.2 443.5 L 2427.8 453.3 L 2431.4 463.1 L 2441.8 463.1 L 2452.2 463.1 L 2569 463.1 L 2579.8 463.1 L 2594.2 463.1 L 2735.4 463.1 L 2750.3 463.1 L 2758.4 463.1 C 2772.9 466.9 2788.1 468.8 2803.5 468.8 C 2819.1 468.8 2834.3 466.9 2849 463.1 L 2856.4 463.1 L 2871.3 463.1 L 3012.5 463.1 L 3027.4 463.1 L 3042.3 463.1 L 3042.3 448.5 C 3072.2 461.8 3104.8 468.8 3137.8 468.8 C 3170.8 468.8 3203.3 461.9 3233.3 448.6 L 3233.3 463.1 L 3248.2 463.1 L 3263.1 463.1 L 3404.3 463.1 L 3419.2 463.1 L 3434.1 463.1 L 3434.1 448.2 L 3434.1 433.3 L 3434.1 419.7 L 3453.1 449.4 L 3457.5 456.3 L 3461.9 463.2 L 3470.1 463.2 L 3478.3 463.2 L 3599.1 463.2 L 3614 463.2 L 3628.9 463.2 L 3628.9 448.3 L 3628.9 433.4 L 3628.9 376.5 L 3637.9 376.5 L 3645.8 376.5 L 3653.6 376.5 L 3658 370 L 3662.5 363.5 L 3806.7 153.5 L 3823 130 L 3839 106.7 L 3810.7 106.7 L 3782.3 106.7 L 3629.1 106.7 L 3629.1 35.5 L 3629.1 20.6 L 3629.1 5.7 L 3614.2 5.7 L 3599.3 5.7 L 3458.1 5.7 L 3443.2 5.7 L 3428.3 5.7 L 3428.3 20.6 L 3428.3 35.5 L 3428.3 45.3 L 3411.7 19.4 L 3407.3 12.5 L 3402.9 5.6 L 3394.7 5.6 L 3386.5 5.6 L 3263.2 5.6 L 3248.3 5.6 L 3233.4 5.6 L 3233.4 19.6 C 3203.7 6.7 3171.2 0 3138 0 L 3138 0 Z" style="fill: rgb(255, 255, 255);"/>
  <rect x="2920.2" y="84.2" class="st2" width="43.8" height="300.3" style="fill: rgb(255, 255, 255);"/>
  <path class="st2" d="M 3138 78.5 C 3051.6 78.5 2981.8 147.5 2981.8 234.3 C 2981.8 320.3 3052 390.1 3138 390.1 C 3223.6 390.1 3294.2 320.7 3294.2 235.1 C 3294.2 147.9 3225.6 78.5 3138 78.5 Z M 3242.7 275.8 C 3225.7 321.7 3187.5 350.1 3138 350.1 C 3091.7 350.1 3054.8 325.3 3036.1 283.1 C 3029.6 267.7 3025.5 251 3025.5 234.4 C 3025.5 217.8 3029.6 201.5 3036.1 186.5 C 3054.4 143.9 3091.3 118.7 3138 118.7 C 3203.3 118.7 3250.4 171.9 3250.4 235.6 C 3250.4 249.4 3247.5 263.2 3242.7 275.8 Z" style="fill: rgb(255, 255, 255);"/>
</svg>