<svg id="Warstwa_1" data-name="Warstwa 1" xmlns="http://www.w3.org/2000/svg" viewBox="0 0 398.62 192.27"><title>alg</title><path d="M197.28,173.12V309.84H153.7V283.16l-.25-.06c-.25.43-.52.84-.77,1.28q-6.81,12.24-13.61,24.51a1.71,1.71,0,0,1-1.75,1.05c-8.36,0-16.71,0-25.07,0h-1.66l19.77,15.74c-1.67,2.9-3.31,5.76-5,8.62q-8.7,15-17.39,30.09c-.32.55-.56,1-1.4,1-11.88,0-23.76,0-35.64,0-.15,0-.3,0-.62-.06.83-1.29,1.6-2.48,2.38-3.66l65.47-99.13q25.83-39.12,51.65-78.24,3.41-5.15,6.79-10.31a6.52,6.52,0,0,0,.41-.84Z" transform="translate(-70.34 -173.12)" fill="white"/><path d="M250,306.76H237.49V272.12l-.3,0q-2.94,17.29-5.88,34.64h-5.63q-3.08-17.46-6.13-34.87l-.23,0v34.82H206.94V243.16h16.72q2.57,14.15,5.14,28.31l.27,0,5.38-28.33H250Z" transform="translate(-70.34 -173.12)" fill="white"/><path d="M432.52,268V243.16h11.91v63.58h-11q-4.21-15-8.42-30.07l-.17,0v30H412.94V243.16h12.81q3.25,12.41,6.54,24.9Z" transform="translate(-70.34 -173.12)" fill="white"/><path d="M297.32,281.64v25.07H283.46V243.2a4.63,4.63,0,0,1,.81-.11c6.43,0,12.87,0,19.3.15a35.57,35.57,0,0,1,6.14.92,5.45,5.45,0,0,1,4.43,4.38,26.07,26.07,0,0,1,.84,5.66c0,4.91-.14,9.82-.33,14.73a5.41,5.41,0,0,1-4.11,5.28c-1.32.43-2.6,1-4.05,1.52,1.29.41,2.41.81,3.57,1.12,3.19.85,4.64,3,4.82,6.2.11,2,.18,4,.19,6,0,5.43,0,10.87,0,16.31v1.37H301.72V285.37C301.71,282,300.92,281.34,297.32,281.64Zm.1-12.13c3.14.79,4.3-.07,4.3-3.13,0-3.52,0-7,0-10.55s-.76-4-4.13-3.56c0,0-.06,0-.16.1Z" transform="translate(-70.34 -173.12)" fill="white"/><path d="M373.4,264.8H359.32v-1.29c0-2.6,0-5.2,0-7.8a2.33,2.33,0,0,0-3.31-2.37,1.93,1.93,0,0,0-1,1.15,9,9,0,0,0-.22,2.38q0,18,0,36a11.42,11.42,0,0,0,.1,1.55c.25,2.07,1.79,2.92,3.56,1.83a2.54,2.54,0,0,0,.86-1.89c.08-4.4,0-8.8,0-13.2v-1.41h13.86c0,.38.06.77.06,1.15,0,5,0,9.92-.07,14.88a36.05,36.05,0,0,1-.68,5.46,6.87,6.87,0,0,1-4.63,5.36c-3.69,1.49-7.56,1.63-11.44,1.49a32.09,32.09,0,0,1-9.64-1.74,6.32,6.32,0,0,1-4.48-5.13,38.7,38.7,0,0,1-.71-6.42q-.09-19.92,0-39.84a41.31,41.31,0,0,1,.84-6.88,5.54,5.54,0,0,1,4-4.39,35.22,35.22,0,0,1,13.7-1.75,40.08,40.08,0,0,1,5.57.75c4.24.84,6.92,3.29,7.19,7.76C373.15,255.18,373.23,259.93,373.4,264.8Z" transform="translate(-70.34 -173.12)" fill="white"/><path d="M396.64,295.57c-2.22,0-4.33,0-6.44,0-.24,0-.61.62-.65,1-.35,3.22-.64,6.44-.95,9.66a4.14,4.14,0,0,1-.09.5H375.26c3.49-21.21,7-42.35,10.48-63.58h16.77c2.48,21.15,4.95,42.29,7.44,63.54h-11.9C397.59,303.09,397.13,299.42,396.64,295.57ZM394,261.23l-.26,0c-.67,7.51-1.34,15-2,22.59H396C395.32,276.22,394.67,268.72,394,261.23Z" transform="translate(-70.34 -173.12)" fill="white"/><path d="M255.94,306.71V243.17h21.89v9.27h-8.1v15.07h7.49V277h-7.49v20.55h8.1v9.13Z" transform="translate(-70.34 -173.12)" fill="white"/><path d="M197.22,330.77v25h-34l-8.39-25Z" transform="translate(-70.34 -173.12)" fill="white"/><path d="M322.05,243.13h13.62v63.6H322.05Z" transform="translate(-70.34 -173.12)" fill="white"/><path d="M153.65,326.75c1.48-.05,2.77-.12,4.06-.14.79,0,1.59.07,2.39.07l43.92,0,23.27,0,23.52.08,45,.12,25.44,0,23.27.08,47,.12,23.4,0,23,.08,30,.12h.91l.08,1.1a3.34,3.34,0,0,1-.52.09l-7.32.05-44,.08-47.75.12-21.6,0-25.19.08-34.55.12-35.52,0-23.39.08-46.91.12-23.28,0a24.87,24.87,0,0,0-2.87.1c-1.24.16-1.89-.3-2.06-1.51C153.93,327.72,153.84,327.46,153.65,326.75Z" transform="translate(-70.34 -173.12)" fill="white"/><path d="M468.91,323.4v1.28l-310.85.8-.08-.3c2.54-.75,4.68-2.53,7.53-2.51q21.36.07,42.72.09l46.91.12,23.39,0,23.4.08,46.91.12,23.4,0,23.51.08q19.44.06,38.87.12l31.44,0Z" transform="translate(-70.34 -173.12)" fill="white"/><path d="M167.37,321.44c2.74-1.23,5.25-2.76,8.49-2.74,19.83.15,39.67.11,59.51.14l23.63.08,37.67.12,32.76,0,23.39.08,47,.12,23.4,0,23.51.08,21,.08h1.14l.05,1.18c-.41,0-.76.06-1.11.06l-35.28,0-24.83.08q-18.54.06-37.07.12l-33,0-23.39.08-46.79.12-23.27,0-23.4.08-46.79.12Z" transform="translate(-70.34 -173.12)" fill="white"/><path d="M176.72,317.21c1.83-.78,3.65-1.58,5.49-2.32a3.07,3.07,0,0,1,1.18-.13l32.87.08c9.44,0,18.88.1,28.32.12l41.76,0,23.39.08,46.92.12,23.15,0,23.64.08,37.55.12,26.64,0h1.26l.06,1.11a1.16,1.16,0,0,1-.37.14,7.86,7.86,0,0,1-.84,0l-25.44.08-61.2.08-23.51.08-40.92.12-29.27,0-23.52.08-42.11.12-28.08,0-15.72.08H176.8Z" transform="translate(-70.34 -173.12)" fill="white"/><path d="M185.87,313.31a30.63,30.63,0,0,1,5.49-2.28,31.15,31.15,0,0,1,6-.18c.4,0,.8,0,1.2,0l44.39,0c8,0,15.92.06,23.88.08l46.67.12,23.75,0,23.28.08,47.15.12,23,0,23.76.08,13.31.08h1.14l.06,1.1a1.29,1.29,0,0,1-.39.12c-.31,0-.64,0-1,0l-43.79,0-23.75.08L362,313l-32.15,0-23.39.08-46.79.12-23.4,0-23.76.08-26.15.12-.47,0Z" transform="translate(-70.34 -173.12)" fill="white"/><path d="M398.21,358.24H396V340.45l-.24-.05-3.17,5.71c-2.1,3.81-4.22,7.61-6.29,11.44a1.41,1.41,0,0,1-1.4.84,1.39,1.39,0,0,1-1.39-.85q-4.33-7.94-8.72-15.85a3.16,3.16,0,0,0-.92-1.11V358.2h-2.27V337.33a23.7,23.7,0,0,1,3,.05c.34,0,.69.58.9,1q4.37,7.85,8.7,15.72c.18.34.39.67.68,1.16.71-1.27,1.35-2.4,2-3.54,2.4-4.34,4.82-8.65,7.15-13,.54-1,1.12-1.55,2.3-1.36a11.17,11.17,0,0,0,1.84,0Z" transform="translate(-70.34 -173.12)" fill="white"/><path d="M333.87,350.21v-2.27h10.65c0,2.4.15,4.76,0,7.08-.16,1.8-1.61,2.67-3.25,3.11a8.07,8.07,0,0,1-2,.22c-3.24,0-6.48.07-9.72,0a9,9,0,0,1-3.23-.71,3.41,3.41,0,0,1-2.13-3.33c0-4.32,0-8.64,0-13,0-2.27,1.86-3.92,4.55-4,3.76-.09,7.53-.1,11.28,0,3.4.09,4.88,2.07,4.57,6h-2.25c0-.41,0-.83,0-1.24a2.14,2.14,0,0,0-2.15-2.37q-5.76-.09-11.52,0A2.16,2.16,0,0,0,326.4,342q0,5.82,0,11.64a2.14,2.14,0,0,0,2.16,2.36q5.76.11,11.52,0c1.46,0,2.19-.95,2.2-2.44,0-1.07,0-2.14,0-3.34Z" transform="translate(-70.34 -173.12)" fill="white"/><path d="M421.92,351.71h2.28c0,.64,0,1.25,0,1.87a2.16,2.16,0,0,0,2.23,2.42c3.28.06,6.56.07,9.84,0,1.52,0,2.27-.93,2.32-2.48,0-.47,0-.95,0-1.43,0-2.13-.83-3-3-3-3,0-6,.07-9,0a7.66,7.66,0,0,1-3.13-1,3.14,3.14,0,0,1-1.6-3c0-1,0-2,0-3,0-2.86,1.5-4.59,4.4-4.7,3.36-.13,6.72-.14,10.08,0s4.75,2.16,4.35,5.95h-2.09L438.6,342a2.21,2.21,0,0,0-2.31-2.38q-4.91-.07-9.83,0A2.13,2.13,0,0,0,424.2,342c0,.68,0,1.36,0,2,0,1.93.81,2.74,2.78,2.76,2.84,0,5.67,0,8.51,0a8.53,8.53,0,0,1,2.8.47,3.63,3.63,0,0,1,2.56,3.78c0,.92,0,1.84,0,2.76a4,4,0,0,1-3.38,4.27,10.57,10.57,0,0,1-2,.21c-2.72,0-5.44,0-8.16,0a9.26,9.26,0,0,1-2.81-.48,3.69,3.69,0,0,1-2.55-3.78Z" transform="translate(-70.34 -173.12)" fill="white"/><path d="M248,351.75h2.3v1.84A2.14,2.14,0,0,0,252.5,356q4.92.11,9.83,0a2.23,2.23,0,0,0,2.35-2.47c0-.48,0-1,0-1.44,0-2.17-.84-3-3.06-3h-9a4.8,4.8,0,0,1-4-1.86c-1.05-1.34-1-6.74,0-8.07a5,5,0,0,1,4-1.82c3.16,0,6.32-.06,9.47,0,3.56.07,5.23,2.28,4.6,6h-2c0-.28-.08-.51-.09-.74-.06-2.22-.78-2.94-3-2.95H253c-1.91,0-2.68.8-2.69,2.69v1.8c0,1.86.8,2.69,2.68,2.7,2.88,0,5.76,0,8.64,0a8.71,8.71,0,0,1,2.91.53,3.59,3.59,0,0,1,2.41,3.63c0,1,0,1.92,0,2.88a3.93,3.93,0,0,1-3.54,4.24,30.74,30.74,0,0,1-4.3.21c-2,0-4,0-6,0a5.23,5.23,0,0,1-4.52-2C247.59,354.92,248,353.34,248,351.75Z" transform="translate(-70.34 -173.12)" fill="white"/><path d="M306.46,349.12a10.6,10.6,0,0,1,1.84,1.3,3.48,3.48,0,0,1,1,1.85c.13,2,0,4,0,6h-2.18c0-1.44.1-2.91,0-4.35a6.55,6.55,0,0,0-.82-2.67,2.37,2.37,0,0,0-1.65-1c-3.9-.08-7.81,0-11.81,0v8h-2.15V337.43a3.45,3.45,0,0,1,.56-.1c4.43,0,8.87-.05,13.3,0,3,0,4.69,1.79,4.69,4.8,0,.8-.06,1.6,0,2.39A4.07,4.07,0,0,1,306.46,349.12Zm-13.6-1.25c4,0,7.91,0,11.81,0a2.63,2.63,0,0,0,2.29-2.54c.07-.91,0-1.83,0-2.75,0-2.3-.78-3.08-3.09-3.08-3.36,0-6.71,0-10.06.09a9.56,9.56,0,0,0-1,.09Z" transform="translate(-70.34 -173.12)" fill="white"/><path d="M270.92,337.38H287v2.23H273.16v6.95h13.38v2.27H273.16V356H287v2.29H270.92Z" transform="translate(-70.34 -173.12)" fill="white"/><path d="M420.14,356v2.27H404V337.41h16.11v2.2h-13.9v7h13.46v2.23H406.23V356Z" transform="translate(-70.34 -173.12)" fill="white"/><path d="M245.62,358.23c-2.32.33-2.48.39-3.19-1.63s-1.92-2.88-4.22-2.7c-3.09.25-6.22.08-9.34.05a1.26,1.26,0,0,0-1.44.92,16.23,16.23,0,0,1-.85,1.85c-.88,1.87-.87,1.87-3.21,1.49.85-1.83,1.67-3.63,2.51-5.42,2.25-4.8,4.55-9.58,6.74-14.41.44-1,1.06-1.06,2-1.09a1.65,1.65,0,0,1,1.81,1.1c2.87,6.23,5.8,12.43,8.71,18.65C245.28,357.42,245.44,357.82,245.62,358.23ZM229,351.59h11l-5.52-11.74C232.58,343.93,230.8,347.73,229,351.59Z" transform="translate(-70.34 -173.12)" fill="white"/><path d="M369.37,358.36a12.5,12.5,0,0,0-1.4,0,1.19,1.19,0,0,1-1.52-1c-.7-2.91-2.5-3.83-5.47-3.5a71.12,71.12,0,0,1-8.39.05c-.73,0-1.2.16-1.45.9a17.08,17.08,0,0,1-.75,1.63c-.93,2-.93,2-3.32,1.8.23-.53.44-1,.67-1.53,2.88-6.14,5.8-12.27,8.62-18.44.44-1,1-1,1.87-1s1.36,0,1.79.94c2.91,6.35,5.9,12.66,8.87,19C369,357.55,369.17,357.88,369.37,358.36Zm-16.69-6.75h11.05c-1.86-3.94-3.65-7.76-5.53-11.77Z" transform="translate(-70.34 -173.12)" fill="white"/><path d="M209.92,356h12.74v2.25H207.74V337.41h2.18Z" transform="translate(-70.34 -173.12)" fill="white"/></svg>