<?xml version="1.0" encoding="utf-8"?>
<svg id="Warstwa_1" data-name="Warstwa 1" viewBox="0 0 264 127" xmlns="http://www.w3.org/2000/svg">
  <title>alg</title>
  <path d="M 84.056 0 L 84.056 90.308 L 55.195 90.308 L 55.195 72.685 L 55.03 72.645 C 54.864 72.929 54.685 73.2 54.52 73.49 C 51.513 78.88 48.509 84.277 45.506 89.68 C 45.316 90.141 44.845 90.423 44.347 90.373 C 38.811 90.373 33.281 90.373 27.745 90.373 L 26.645 90.373 L 39.738 100.77 C 38.632 102.686 37.546 104.575 36.427 106.465 C 32.586 113.069 28.747 119.695 24.91 126.34 C 24.698 126.703 24.54 127 23.983 127 C 16.116 127 8.248 127 0.381 127 C 0.281 127 0.182 127 -0.03 126.96 C 0.52 126.108 1.03 125.322 1.546 124.543 L 44.904 59.065 C 56.308 41.838 67.71 24.611 79.109 7.385 C 80.615 5.117 82.113 2.847 83.606 0.575 C 83.709 0.396 83.8 0.211 83.877 0.02 Z" fill="white"/>
  <path d="M 118.97 88.273 L 110.685 88.273 L 110.685 65.393 L 110.487 65.393 C 109.189 73.006 107.891 80.633 106.593 88.273 L 102.864 88.273 C 101.504 80.585 100.151 72.907 98.804 65.241 L 98.652 65.241 L 98.652 88.24 L 90.453 88.24 L 90.453 46.263 L 101.526 46.263 C 102.661 52.494 103.796 58.728 104.93 64.963 L 105.109 64.963 L 108.672 46.25 L 118.97 46.25 Z" fill="white"/>
  <path d="M 239.844 62.671 L 239.844 46.263 L 247.732 46.263 L 247.732 88.26 L 240.447 88.26 C 238.588 81.655 236.729 75.034 234.871 68.398 L 234.758 68.398 L 234.758 88.214 L 226.877 88.214 L 226.877 46.263 L 235.361 46.263 C 236.796 51.728 238.239 57.211 239.692 62.711 Z" fill="white"/>
  <path d="M 150.308 71.681 L 150.308 88.24 L 141.129 88.24 L 141.129 46.29 C 141.305 46.25 141.485 46.226 141.665 46.218 C 145.924 46.218 150.189 46.218 154.447 46.316 C 155.817 46.4 157.178 46.604 158.513 46.924 C 160.002 47.181 161.172 48.335 161.447 49.817 C 161.769 51.039 161.956 52.293 162.003 53.555 C 162.003 56.799 161.91 60.043 161.785 63.285 C 161.793 64.935 160.668 66.377 159.063 66.773 C 158.189 67.057 157.341 67.433 156.381 67.777 C 157.235 68.048 157.977 68.312 158.745 68.516 C 160.857 69.078 161.818 70.498 161.937 72.612 C 162.01 73.933 162.056 75.254 162.063 76.575 C 162.063 80.162 162.063 83.756 162.063 87.348 L 162.063 88.253 L 153.222 88.253 L 153.222 74.145 C 153.215 71.919 152.692 71.483 150.308 71.681 Z M 150.374 63.668 C 152.453 64.191 153.222 63.622 153.222 61.601 C 153.222 59.276 153.222 56.978 153.222 54.633 C 153.222 52.288 152.718 51.99 150.487 52.281 C 150.487 52.281 150.447 52.281 150.381 52.347 Z" fill="white"/>
  <path d="M 200.692 60.557 L 191.367 60.557 L 191.367 59.705 C 191.367 57.988 191.367 56.27 191.367 54.553 C 191.501 53.376 190.308 52.495 189.218 52.968 C 189.204 52.975 189.19 52.981 189.175 52.988 C 188.859 53.14 188.62 53.414 188.513 53.747 C 188.395 54.263 188.346 54.791 188.367 55.32 C 188.367 63.246 188.367 71.173 188.367 79.099 C 188.366 79.441 188.388 79.783 188.434 80.122 C 188.599 81.49 189.619 82.051 190.791 81.331 C 191.151 81.015 191.358 80.561 191.361 80.082 C 191.414 77.176 191.361 74.27 191.361 71.364 L 191.361 70.432 L 200.54 70.432 C 200.54 70.684 200.579 70.941 200.579 71.191 C 200.579 74.495 200.579 77.744 200.533 81.021 C 200.475 82.233 200.325 83.439 200.083 84.627 C 199.796 86.282 198.617 87.645 197.016 88.167 C 194.573 89.152 192.01 89.244 189.44 89.152 C 187.266 89.097 185.113 88.709 183.056 88.003 C 181.489 87.547 180.331 86.223 180.089 84.613 C 179.814 83.216 179.657 81.798 179.619 80.374 C 179.579 71.601 179.579 62.829 179.619 54.058 C 179.676 52.53 179.863 51.01 180.175 49.513 C 180.42 48.117 181.453 46.987 182.824 46.614 C 185.742 45.635 188.826 45.242 191.897 45.458 C 193.137 45.536 194.369 45.702 195.586 45.953 C 198.394 46.508 200.169 48.127 200.347 51.079 C 200.526 54.203 200.579 57.341 200.692 60.557 Z" fill="white"/>
  <path d="M 216.083 80.882 C 214.612 80.882 213.215 80.882 211.818 80.882 C 211.659 80.882 211.414 81.291 211.387 81.542 C 211.155 83.669 210.963 85.796 210.758 87.923 C 210.745 88.035 210.725 88.144 210.698 88.253 L 201.924 88.253 C 204.235 74.244 206.559 60.28 208.864 46.256 L 219.97 46.256 C 221.612 60.227 223.248 74.191 224.897 88.227 L 217.016 88.227 C 216.712 85.849 216.407 83.425 216.083 80.882 Z M 214.334 58.199 L 214.162 58.199 C 213.718 63.159 213.275 68.107 212.838 73.12 L 215.659 73.12 C 215.208 68.101 214.778 63.146 214.334 58.199 Z" fill="white"/>
  <path d="M 122.904 88.24 L 122.904 46.27 L 137.4 46.27 L 137.4 52.393 L 132.036 52.393 L 132.036 62.348 L 136.996 62.348 L 136.996 68.616 L 132.036 68.616 L 132.036 82.19 L 137.4 82.19 L 137.4 88.22 Z" fill="white"/>
  <path d="M 84.016 104.133 L 84.016 120.646 L 61.5 120.646 L 55.943 104.133 Z" fill="white"/>
  <path d="M 166.685 46.243 L 175.705 46.243 L 175.705 88.253 L 166.685 88.253 Z" fill="white"/>
  <path d="M 55.162 101.478 C 56.142 101.445 56.996 101.398 57.851 101.385 C 58.374 101.385 58.904 101.431 59.434 101.431 L 88.52 101.431 L 103.93 101.431 L 119.506 101.484 L 149.308 101.563 L 166.155 101.563 L 181.566 101.616 L 212.692 101.695 L 228.189 101.695 L 243.42 101.748 L 263.288 101.828 L 263.89 101.828 L 263.943 102.554 C 263.83 102.583 263.715 102.603 263.599 102.614 L 258.751 102.646 L 229.612 102.699 L 197.99 102.778 L 183.685 102.778 L 167.003 102.831 L 144.122 102.911 L 120.599 102.911 L 105.109 102.964 L 74.043 103.042 L 58.626 103.042 C 57.991 103.028 57.357 103.05 56.725 103.108 C 55.904 103.214 55.473 102.911 55.361 102.111 C 55.347 102.118 55.288 101.946 55.162 101.478 Z" fill="white"/>
  <path d="M 263.943 99.264 L 263.943 100.11 L 58.083 100.639 L 58.03 100.44 C 59.712 99.945 61.129 98.769 63.016 98.783 C 72.447 98.813 81.877 98.832 91.308 98.841 L 122.374 98.921 L 137.864 98.921 L 153.361 98.974 L 184.427 99.053 L 199.924 99.053 L 215.493 99.106 C 224.076 99.133 232.657 99.159 241.235 99.185 L 262.056 99.185 Z" fill="white"/>
  <path d="M 64.248 97.97 C 66.063 97.158 67.725 96.146 69.871 96.16 C 83.003 96.259 96.142 96.232 109.281 96.252 L 124.93 96.305 L 149.877 96.385 L 171.573 96.385 L 187.063 96.438 L 218.189 96.516 L 233.685 96.516 L 249.255 96.569 L 263.162 96.622 L 263.917 96.622 L 263.95 97.402 C 263.679 97.402 263.447 97.441 263.215 97.441 L 239.851 97.441 L 223.407 97.494 C 215.222 97.521 207.038 97.547 198.857 97.574 L 177.003 97.574 L 161.513 97.627 L 130.526 97.705 L 115.116 97.705 L 99.619 97.758 L 68.632 97.838 Z" fill="white"/>
  <path d="M 70.44 95.176 C 71.652 94.66 72.857 94.132 74.076 93.643 C 74.328 93.564 74.594 93.535 74.857 93.557 L 96.626 93.61 C 102.877 93.61 109.129 93.677 115.381 93.69 L 143.036 93.69 L 158.526 93.743 L 189.599 93.821 L 204.93 93.821 L 220.586 93.874 L 245.453 93.954 L 263.096 93.954 L 263.93 93.954 L 263.97 94.687 C 263.894 94.731 263.811 94.763 263.725 94.779 C 263.54 94.789 263.354 94.789 263.169 94.779 L 246.321 94.832 L 205.791 94.885 L 190.222 94.938 L 163.122 95.017 L 143.738 95.017 L 128.162 95.07 L 100.275 95.149 L 81.679 95.149 L 71.268 95.202 L 70.493 95.202 Z" fill="white"/>
  <path d="M 76.5 92.6 C 77.66 91.981 78.878 91.477 80.136 91.094 C 81.453 90.927 82.784 90.887 84.109 90.975 C 84.374 90.975 84.639 90.975 84.904 90.975 L 114.301 90.975 C 119.599 90.975 124.844 91.015 130.116 91.028 L 161.023 91.107 L 176.751 91.107 L 192.169 91.159 L 223.394 91.239 L 238.626 91.239 L 254.361 91.292 L 263.175 91.345 L 263.93 91.345 L 263.97 92.071 C 263.889 92.111 263.801 92.138 263.712 92.151 C 263.506 92.151 263.288 92.151 263.049 92.151 L 234.049 92.151 L 218.321 92.204 L 193.142 92.395 L 171.851 92.395 L 156.361 92.448 L 125.374 92.527 L 109.877 92.527 L 94.142 92.58 L 76.824 92.66 L 76.513 92.66 Z" fill="white"/>
  <path d="M 217.122 122.277 L 215.659 122.277 L 215.659 110.527 L 215.5 110.493 L 213.4 114.265 C 212.01 116.782 210.606 119.292 209.235 121.822 C 209.076 122.185 208.704 122.407 208.308 122.376 C 207.912 122.407 207.54 122.181 207.387 121.815 C 205.475 118.319 203.551 114.829 201.612 111.346 C 201.469 111.058 201.26 110.806 201.003 110.613 L 201.003 122.251 L 199.5 122.251 L 199.5 108.465 C 200.162 108.434 200.826 108.445 201.487 108.498 C 201.712 108.498 201.943 108.882 202.083 109.16 C 204.012 112.615 205.932 116.077 207.844 119.542 C 207.963 119.767 208.102 119.985 208.294 120.309 C 208.765 119.47 209.189 118.724 209.619 117.971 C 211.208 115.104 212.811 112.257 214.354 109.384 C 214.712 108.724 215.096 108.36 215.877 108.485 C 216.283 108.519 216.69 108.519 217.096 108.485 Z" fill="white"/>
  <path d="M 174.513 116.973 L 174.513 115.474 L 181.566 115.474 C 181.566 117.059 181.665 118.618 181.566 120.151 C 181.46 121.34 180.5 121.914 179.414 122.205 C 178.98 122.308 178.535 122.357 178.089 122.35 C 175.943 122.35 173.798 122.396 171.652 122.35 C 170.916 122.327 170.191 122.168 169.513 121.881 C 168.621 121.522 168.055 120.64 168.102 119.681 C 168.102 116.828 168.102 113.975 168.102 111.094 C 168.102 109.595 169.334 108.505 171.116 108.452 C 173.606 108.393 176.102 108.387 178.586 108.452 C 180.838 108.512 181.818 109.82 181.612 112.416 L 180.122 112.416 C 180.122 112.145 180.122 111.867 180.122 111.596 C 180.214 110.754 179.547 110.022 178.698 110.031 C 176.155 109.991 173.612 109.991 171.069 110.031 C 170.213 109.985 169.509 110.696 169.566 111.55 C 169.566 114.114 169.566 116.676 169.566 119.239 C 169.479 120.081 170.148 120.81 170.996 120.798 C 173.54 120.846 176.083 120.846 178.626 120.798 C 179.592 120.798 180.076 120.17 180.083 119.186 C 180.083 118.479 180.083 117.772 180.083 116.98 Z" fill="white"/>
  <path d="M 232.824 117.965 L 234.334 117.965 C 234.334 118.386 234.334 118.789 234.334 119.199 C 234.227 120.072 234.93 120.833 235.811 120.798 C 237.983 120.837 240.155 120.844 242.328 120.798 C 243.334 120.798 243.831 120.184 243.864 119.159 C 243.864 118.849 243.864 118.532 243.864 118.215 C 243.864 116.809 243.314 116.233 241.877 116.233 C 239.891 116.233 237.904 116.28 235.917 116.233 C 235.186 116.165 234.479 115.94 233.844 115.573 C 233.132 115.177 232.718 114.402 232.785 113.591 C 232.785 112.931 232.785 112.27 232.785 111.61 C 232.785 109.721 233.778 108.578 235.698 108.505 C 237.924 108.419 240.149 108.412 242.374 108.505 C 244.599 108.598 245.52 109.932 245.255 112.435 L 243.871 112.435 L 243.871 111.55 C 243.939 110.674 243.221 109.935 242.341 109.978 C 240.173 109.947 238.003 109.947 235.831 109.978 C 234.948 109.919 234.228 110.675 234.334 111.55 C 234.334 111.999 234.334 112.449 234.334 112.872 C 234.334 114.147 234.871 114.681 236.175 114.694 C 238.056 114.694 239.93 114.694 241.811 114.694 C 242.442 114.694 243.069 114.799 243.665 115.005 C 244.75 115.334 245.457 116.375 245.361 117.502 C 245.361 118.109 245.361 118.717 245.361 119.325 C 245.47 120.704 244.494 121.935 243.122 122.146 C 242.686 122.233 242.243 122.279 241.798 122.284 C 239.996 122.284 238.195 122.284 236.394 122.284 C 235.761 122.274 235.133 122.168 234.533 121.967 C 233.46 121.623 232.762 120.591 232.844 119.47 Z" fill="white"/>
  <path d="M 117.645 117.99 L 119.169 117.99 L 119.169 119.206 C 119.058 120.071 119.751 120.829 120.626 120.798 C 122.798 120.846 124.968 120.846 127.136 120.798 C 128.049 120.852 128.792 120.073 128.692 119.166 C 128.692 118.849 128.692 118.506 128.692 118.215 C 128.692 116.782 128.136 116.233 126.665 116.233 L 120.705 116.233 C 119.675 116.277 118.687 115.819 118.056 115.005 C 117.361 114.12 117.394 110.553 118.056 109.674 C 118.706 108.887 119.683 108.443 120.705 108.472 C 122.798 108.472 124.891 108.432 126.977 108.472 C 129.334 108.518 130.44 109.978 130.023 112.435 L 128.698 112.435 C 128.698 112.25 128.645 112.099 128.639 111.946 C 128.599 110.48 128.122 110.004 126.652 109.998 L 120.957 109.998 C 119.692 109.998 119.182 110.527 119.175 111.775 L 119.175 112.964 C 119.175 114.192 119.705 114.741 120.95 114.747 C 122.857 114.747 124.765 114.747 126.672 114.747 C 127.33 114.754 127.981 114.872 128.599 115.097 C 129.612 115.446 130.266 116.429 130.195 117.495 C 130.195 118.156 130.195 118.763 130.195 119.398 C 130.314 120.814 129.269 122.062 127.851 122.199 C 126.906 122.31 125.954 122.357 125.003 122.337 C 123.679 122.337 122.354 122.337 121.03 122.337 C 119.873 122.424 118.749 121.928 118.036 121.016 C 117.374 120.084 117.645 119.041 117.645 117.99 Z" fill="white"/>
  <path d="M 156.361 116.253 C 156.796 116.495 157.205 116.784 157.579 117.112 C 157.921 117.442 158.152 117.868 158.242 118.334 C 158.328 119.655 158.242 120.976 158.242 122.297 L 156.798 122.297 C 156.798 121.346 156.864 120.375 156.798 119.424 C 156.746 118.803 156.561 118.202 156.255 117.66 C 156.001 117.295 155.604 117.055 155.162 117 C 152.579 116.947 149.99 117 147.341 117 L 147.341 122.284 L 145.917 122.284 L 145.917 108.532 C 146.039 108.499 146.163 108.477 146.288 108.465 C 149.222 108.465 152.162 108.432 155.096 108.465 C 157.083 108.465 158.202 109.648 158.202 111.636 C 158.202 112.165 158.162 112.693 158.202 113.215 C 158.441 114.545 157.653 115.846 156.361 116.253 Z M 147.354 115.427 C 150.003 115.427 152.592 115.427 155.175 115.427 C 156.026 115.317 156.67 114.605 156.692 113.75 C 156.738 113.149 156.692 112.541 156.692 111.933 C 156.692 110.414 156.175 109.899 154.645 109.899 C 152.42 109.899 150.202 109.899 147.983 109.958 C 147.762 109.966 147.541 109.986 147.321 110.018 Z" fill="white"/>
  <path d="M 132.824 108.498 L 143.473 108.498 L 143.473 109.971 L 134.308 109.971 L 134.308 114.562 L 143.169 114.562 L 143.169 116.062 L 134.308 116.062 L 134.308 120.798 L 143.473 120.798 L 143.473 122.31 L 132.824 122.31 Z" fill="white"/>
  <path d="M 231.645 120.798 L 231.645 122.297 L 220.957 122.297 L 220.957 108.518 L 231.626 108.518 L 231.626 109.971 L 222.42 109.971 L 222.42 114.595 L 231.334 114.595 L 231.334 116.068 L 222.434 116.068 L 222.434 120.798 Z" fill="white"/>
  <path d="M 116.069 122.27 C 114.533 122.489 114.427 122.529 113.957 121.194 C 113.487 119.86 112.685 119.292 111.162 119.411 C 109.116 119.575 107.043 119.464 104.977 119.444 C 104.549 119.368 104.134 119.632 104.023 120.051 C 103.861 120.47 103.673 120.878 103.46 121.273 C 102.877 122.509 102.884 122.509 101.334 122.257 C 101.897 121.049 102.44 119.86 102.996 118.678 C 104.487 115.507 106.01 112.349 107.46 109.16 C 107.751 108.498 108.162 108.459 108.785 108.439 C 109.308 108.36 109.813 108.666 109.983 109.165 C 111.884 113.281 113.824 117.376 115.751 121.484 C 115.844 121.736 115.95 122 116.069 122.27 Z M 105.063 117.885 L 112.347 117.885 L 108.692 110.13 C 107.434 112.825 106.255 115.335 105.063 117.885 Z" fill="white"/>
  <path d="M 198.023 122.356 C 197.714 122.339 197.405 122.339 197.096 122.356 C 196.628 122.495 196.147 122.18 196.089 121.696 C 195.626 119.774 194.434 119.166 192.467 119.384 C 190.617 119.505 188.762 119.516 186.91 119.417 C 186.427 119.417 186.116 119.522 185.95 120.011 C 185.804 120.379 185.638 120.738 185.453 121.088 C 184.838 122.409 184.838 122.409 183.255 122.277 C 183.407 121.927 183.546 121.617 183.698 121.267 C 185.606 117.212 187.54 113.162 189.407 109.087 C 189.698 108.426 190.069 108.426 190.645 108.426 C 191.222 108.426 191.546 108.426 191.831 109.047 C 193.758 113.241 195.738 117.409 197.705 121.597 C 197.778 121.822 197.891 122.04 198.023 122.356 Z M 186.97 117.898 L 194.288 117.898 C 193.056 115.296 191.871 112.772 190.626 110.124 Z" fill="white"/>
  <path d="M 92.427 120.798 L 100.864 120.798 L 100.864 122.284 L 90.983 122.284 L 90.983 108.518 L 92.427 108.518 Z" fill="white"/>
</svg>