<?xml version="1.0" encoding="utf-8"?>
<!-- Made by Szalik  -->
<svg version="1.1" id="Warstwa_1" xmlns="http://www.w3.org/2000/svg" xmlns:xlink="http://www.w3.org/1999/xlink" x="0px" y="0px" xml:space="preserve">
<g>
	<g>
		<path d="M339.2,169.6c8.98,1.05,18.07,1.56,26.93,3.26c18.06,3.48,34.46,10.79,48.88,22.51c37.56,30.52,32.84,92.75-8.01,117.81
			c-16.76,10.29-35.08,15.61-54.42,17c-14.73,1.05-29.57,0.93-44.36,0.95c-41.33,0.07-82.66-0.11-123.99-0.02
			c-3.85,0.01-4.88-1.04-4.9-4.87c-0.12-33.86-0.46-67.73-0.73-101.59c-0.01-1.43,0-2.86,0-4.52c25.15,0,49.87,0,74.98,0
			c0,24.66,0,49.13,0,74.03c1.63,0.1,2.9,0.25,4.17,0.25c18,0.01,36,0.11,54-0.02c14.45-0.11,28.02-3.51,39.96-11.99
			c26.11-18.54,23.66-54.16-4.76-68.84c-12.72-6.57-26.53-8.85-40.65-8.92c-40.53-0.2-81.06-0.12-121.59-0.16c-1.72,0-3.43,0-6.29,0
			c0-11.85,0-23.37,0-34.89C232,169.6,285.6,169.6,339.2,169.6z" fill="white"/>
		<path d="M171.2,169.6c0.12,1.32,0.34,2.63,0.34,3.95c0.02,50.91,0.02,101.82,0.02,152.73c0,1.43,0,2.85,0,4.59
			c-25.4,0-50.26,0-75.84,0c1.06-30.38,2.13-60.73,3.21-91.75c-1.86,1.02-3.12,1.66-4.33,2.39
			c-48.28,29.06-96.54,58.17-144.89,87.12c-2.44,1.46-5.66,2.27-8.53,2.29c-21.86,0.19-43.71,0.1-65.57,0.1c-1.43,0-2.87,0-4.3,0
			c-0.13-0.27-0.26-0.53-0.39-0.8c1.11-0.74,2.19-1.52,3.33-2.22c84.73-51.97,169.47-103.93,254.2-155.9
			c1.23-0.76,2.38-1.67,3.56-2.5C145.07,169.6,158.13,169.6,171.2,169.6z" fill="white"/>
		<path d="M533.6,169.6c0,29.32,0,58.63,0,88.83c1.8-1.23,3.06-2.04,4.28-2.93c37.48-27.35,74.97-54.67,112.39-82.1
			c2.83-2.07,5.58-3.09,9.13-3.06c18.8,0.16,37.6,0.07,56.4,0.07c1.45,0,2.9,0,5.7,0c-1.91,1.55-2.89,2.43-3.96,3.2
			c-59.58,42.73-119.14,85.5-178.83,128.08c-3.95,2.82-5.56,5.66-5.25,10.43c0.41,6.22,0.1,12.48,0.1,19.08
			c-26.49,0-52.63,0-78.99,0c-0.09-1.15-0.24-2.19-0.24-3.22c-0.01-52.4,0-104.8,0-157.19c0-0.4,0.05-0.8,0.07-1.2
			C480.8,169.6,507.2,169.6,533.6,169.6z" fill="white"/>
		<path d="M730.4,332c-29.18,0-58.36,0.03-87.55-0.09c-1.75-0.01-3.99-0.78-5.16-2.01c-16.09-16.88-32.03-33.91-48-50.9
			c-0.45-0.47-0.82-1.02-1.51-1.9c16.69-12.35,33.24-24.61,50.18-37.15c1.15,1.09,2.3,2.11,3.39,3.2
			c28.34,28.39,56.67,56.79,85.02,85.17c1.08,1.08,2.41,1.92,3.63,2.88C730.4,331.47,730.4,331.73,730.4,332z" fill="white"/>
		<path d="M-226.88,328.84c4.9-2.94,9.8-5.89,14.71-8.83c80.81-48.44,161.61-96.91,242.48-145.24c2.67-1.6,6.16-2.54,9.29-2.57
			c19.59-0.23,39.19-0.12,58.78-0.12c1.26,0,2.52,0,3.79,0c0.07,0.25,0.14,0.5,0.21,0.75c-1.04,0.7-2.06,1.45-3.13,2.11
			C15.7,226.08-67.84,277.22-151.41,328.3c-1.62,0.99-3.66,1.81-5.51,1.82c-22.39,0.04-44.79-0.08-67.18-0.17
			c-0.87,0-1.74-0.18-2.61-0.28C-226.77,329.39-226.82,329.11-226.88,328.84z" fill="white"/>
	</g>
</g>
</svg>
