<?xml version="1.0" encoding="utf-8"?>
<svg viewBox="0 0 264 61" xmlns="http://www.w3.org/2000/svg">
  <path id="SVGID_1_" d="M 120.859 29.422 L 122.547 31.944 C 122.416 31.748 122.2 31.622 121.983 31.622 C 121.754 31.622 121.526 31.762 121.399 32.111 L 119.711 29.589 C 119.838 29.241 120.066 29.1 120.295 29.1 C 120.511 29.1 120.726 29.227 120.86 29.422 Z" style="fill: rgb(255, 255, 255);"/>
  <path id="SVGID_3_" d="M 148.989 28.578 L 150.678 31.099 C 150.596 30.977 150.476 30.914 150.349 30.914 C 150.18 30.914 150.003 31.026 149.888 31.257 L 148.201 28.736 C 148.315 28.506 148.494 28.393 148.662 28.393 C 148.791 28.392 148.911 28.456 148.992 28.578 Z" style="fill: rgb(255, 255, 255);"/>
  <path id="path33" d="M 150.443 19.581 L 164.703 19.67 C 164.975 19.67 166.932 19.986 164.487 20.621 C 162.533 21.127 160.933 20.936 160.294 23.466 L 152.598 54.191 C 151.959 56.935 154.106 59.302 156.882 60.043 C 157.51 60.196 157.549 60.859 156.807 60.899 L 147.437 60.555 L 136.053 60.938 C 135.226 60.938 135.194 60.084 136.093 59.927 C 138.755 59.657 141.107 57.476 141.618 55.686 L 149.102 29.005 C 149.103 28.602 148.894 28.392 148.665 28.392 C 148.497 28.392 148.318 28.505 148.203 28.734 L 127.132 59.146 C 126.548 60.082 125.63 60.702 124.817 60.702 C 123.94 60.702 123.185 59.979 123.106 58.145 L 120.985 29.793 C 120.962 29.4 120.63 29.101 120.297 29.101 C 120.069 29.101 119.84 29.243 119.713 29.591 L 112.486 52.083 C 111.894 53.792 111.852 55.463 112.556 56.673 C 113.256 57.914 115.057 59.433 117.168 59.861 C 117.988 60.057 117.946 60.872 117.166 60.912 L 109.595 60.597 L 103.236 60.834 C 102.489 60.794 102.57 60.058 103.238 59.938 C 105.428 59.472 107.939 57.255 109.077 54.102 L 118.44 24.176 C 118.833 23.045 118.212 21.684 117.075 21.414 L 114.179 20.829 C 113.67 20.79 113.597 20.053 114.18 20.053 L 130.797 19.918 L 132.463 45.971 L 133.682 44.496 L 149.54 21.1 C 149.721 20.778 150.195 20.041 150.434 19.575 Z" style="fill: rgb(255, 255, 255);"/>
  <path id="path43" d="M 171.947 19.473 L 191.09 19.631 C 191.99 19.631 192.412 21.216 190.612 21.374 C 188.688 21.542 186.676 22.904 186.203 24.534 L 177.235 55.365 C 176.802 57.002 177.997 59.735 181.086 59.966 C 181.595 60.083 181.594 60.859 181.124 60.859 L 169.819 60.428 L 158.961 60.754 C 158.371 60.754 158.532 59.979 159.034 59.9 C 160.523 59.63 164.849 57.96 165.675 55.316 L 175.674 24.536 C 176.3 22.321 174.231 21.23 171.884 20.685 C 171.382 20.609 171.487 19.518 171.951 19.479 Z" style="fill: rgb(255, 255, 255);"/>
  <path id="path53" d="M 222.041 17.556 C 224.005 17.556 225.932 17.717 227.784 18.061 C 228.961 18.297 230.403 18.832 230.051 19.844 L 227.225 27.007 C 227.002 27.737 226.63 28.179 226.254 28.179 C 225.73 28.179 225.198 27.326 225.033 25.208 C 224.94 24.049 225.127 19.877 223.528 19.787 C 223.121 19.765 222.717 19.756 222.311 19.756 C 219.746 19.756 217.198 20.177 214.93 20.895 C 206.286 23.639 200.805 28.329 197.191 36.336 C 193.658 44.04 195.402 52.367 197.898 55.207 C 199.599 57.142 203.574 58.478 206.63 58.478 C 208.424 58.478 209.9 58.016 210.411 56.944 C 212.065 52.991 212.867 48.145 212.712 45.929 C 212.718 43.242 211.659 43.033 209.645 42.662 C 208.234 42.513 207.782 41.603 210.418 41.603 C 210.558 41.603 210.707 41.605 210.866 41.612 C 211.713 41.606 212.536 41.604 213.348 41.604 C 215.204 41.604 216.984 41.614 218.753 41.622 C 220.415 41.631 222.066 41.639 223.763 41.639 C 225.317 41.639 226.909 41.631 228.582 41.61 C 229.05 41.84 229.01 42.037 228.54 42.269 C 225.682 42.696 224.544 43.241 224.27 44.293 C 223.166 48.028 222.174 52.114 220.385 55.944 C 219.748 57.316 216.747 58.621 215.769 58.896 C 212.729 59.972 207.676 60.829 202.864 60.829 C 199.002 60.829 195.295 60.277 192.907 58.839 C 183.955 53.397 182.345 43.077 186 36.273 C 191.421 26.152 207.753 17.557 222.043 17.557 Z" style="fill: rgb(255, 255, 255);"/>
  <polygon id="polygon79" points="13.63 28.259 25.058 28.259 46.552 60.169 35.228 60.169" style="fill: rgb(255, 255, 255);"/>
  <polygon id="polygon104" points="75.712 0 87.036 0 46.67 60.169 35.871 60.169" style="fill: rgb(255, 255, 255);"/>
  <polygon id="polygon123" points="0 28.259 11.429 28.259 32.922 60.169 21.598 60.169" style="fill: rgb(255, 255, 255);"/>
  <polygon id="polygon148" points="62.082 0 73.406 0 33.04 60.169 22.241 60.169" style="fill: rgb(255, 255, 255);"/>
  <path id="path152" d="M 73.822 46.182 L 68.252 54.037 C 66.601 56.607 69.725 59.29 73.169 59.916 C 73.485 60.159 73.431 60.944 72.971 60.944 C 72.921 60.944 72.866 60.935 72.806 60.915 C 72.737 60.885 71.438 60.346 68.484 60.072 C 67.694 59.997 66.272 59.757 64.539 59.757 C 63.943 59.757 63.309 59.786 62.651 59.858 L 56.42 60.73 C 55.831 60.691 55.832 59.993 56.421 59.836 C 59.432 59.448 63.04 57.227 65.157 54.235 L 90.502 19.073 C 90.92 18.469 91.815 18.118 92.686 18.118 C 93.776 18.118 94.826 18.669 94.846 19.967 L 95.682 55.168 C 95.953 58.121 97.941 59.369 100.447 60.066 C 100.797 60.302 100.644 60.769 100.406 60.849 C 100.243 60.845 97.152 60.799 93.459 60.252 C 92.594 60.125 91.919 60.052 91.093 60.052 C 90.379 60.052 89.552 60.107 88.394 60.229 C 86.945 60.382 87.63 60.404 81.763 60.663 C 81.54 60.673 81.323 60.615 81.276 60.24 C 81.328 59.807 81.984 59.598 82.194 59.543 C 84.538 58.897 85.694 57.727 86.209 54.858 C 86.764 51.703 86.615 49.021 86.541 46.26 M 82.947 44.13 C 84.238 44.13 85.452 44.137 86.357 44.156 L 86.021 29.503 C 85.958 29.313 85.872 29.215 85.773 29.215 C 85.693 29.215 85.602 29.284 85.512 29.424 C 82.375 33.855 78.054 39.287 74.956 43.684 C 74.758 44.032 74.955 44.151 75.425 44.151 C 75.5 44.158 75.754 44.159 76.142 44.159 C 76.808 44.159 77.867 44.152 79.08 44.147 C 80.295 44.138 81.664 44.13 82.95 44.13" style="fill: rgb(255, 255, 255);"/>
  <path id="path156" d="M 263.796 60.126 C 264.147 60.355 263.986 60.823 263.755 60.903 C 263.593 60.9 260.502 60.852 256.808 60.313 C 255.931 60.184 255.251 60.109 254.415 60.109 C 253.708 60.109 252.889 60.163 251.744 60.283 C 250.289 60.435 250.979 60.457 245.105 60.716 C 244.886 60.726 244.673 60.67 244.625 60.294 C 244.677 59.862 245.334 59.658 245.537 59.596 C 247.885 58.955 249.042 57.781 249.558 54.912 C 250.112 51.764 249.959 49.081 249.885 46.315 L 237.166 46.242 L 231.594 54.098 C 229.949 56.664 233.072 59.344 236.517 59.969 C 236.833 60.217 236.775 61 236.315 61 C 236.263 61 236.208 60.99 236.146 60.97 C 236.077 60.942 234.779 60.407 231.831 60.127 C 231.041 60.053 229.618 59.812 227.886 59.812 C 227.289 59.812 226.656 59.84 225.999 59.913 L 219.763 60.786 C 219.179 60.746 219.179 60.048 219.765 59.891 C 222.781 59.503 226.383 57.287 228.505 54.29 L 253.851 19.135 C 254.269 18.529 255.163 18.178 256.033 18.178 C 257.125 18.178 258.176 18.731 258.196 20.029 L 259.03 55.224 C 259.303 58.184 261.298 59.43 263.805 60.13 Z M 246.277 44.189 C 247.571 44.189 248.791 44.196 249.698 44.215 L 249.369 29.555 C 249.304 29.364 249.217 29.267 249.12 29.267 C 249.038 29.267 248.95 29.336 248.862 29.476 C 245.719 33.913 241.402 39.344 238.3 43.736 C 238.106 44.084 238.299 44.202 238.768 44.202 C 238.86 44.211 239.22 44.213 239.762 44.213 C 240.421 44.213 241.351 44.207 242.401 44.202 C 243.611 44.196 244.979 44.189 246.276 44.189" style="fill: rgb(255, 255, 255);"/>
</svg>