<?xml version="1.0" encoding="utf-8"?>
<svg version="1.1" viewBox="0 0 3840 670.5" xmlns="http://www.w3.org/2000/svg">
  <path class="st1" d="M 2588.6 565.7 L 2588.6 104.7 C 2588.6 37.5 2623.2 1.9 2686.6 1.9 L 2964.2 1.9 L 2964.2 170.9 L 2894.1 170.9 L 2894.1 68.3 L 2703.9 68.3 C 2675.1 68.3 2663.6 86.5 2663.6 123 L 2663.6 547.5 C 2663.6 584 2675.1 602.2 2703.9 602.2 L 2894.1 602.2 L 2894.1 492.8 L 2964.2 492.8 L 2964.2 668.6 L 2686.6 668.6 C 2623.2 668.5 2588.6 633 2588.6 565.7 Z" style="fill: rgb(255, 255, 255);"/>
  <path class="st1" d="M 3003.5 602.2 L 3062.1 602.2 L 3062.1 68.2 L 3003.5 68.2 L 3003.5 2 L 3321.4 2 C 3384.8 2 3419.4 37.5 3419.4 104.8 L 3419.4 257.5 C 3419.4 324.7 3384.8 360.3 3321.4 360.3 L 3137 360.3 L 3137 602.3 L 3197.5 602.3 L 3197.5 668.6 L 3003.5 668.6 L 3003.5 602.2 Z M 3304.1 294 C 3332.9 294 3344.4 275.8 3344.4 239.3 L 3344.4 123 C 3344.4 86.5 3332.9 68.3 3304.1 68.3 L 3137 68.3 L 3137 294 L 3304.1 294 Z" style="fill: rgb(255, 255, 255);"/>
  <path class="st1" d="M 3464.5 565.7 L 3464.5 104.7 C 3464.5 37.5 3499.1 1.9 3562.5 1.9 L 3840 1.9 L 3840 170.9 L 3769.9 170.9 L 3769.9 68.3 L 3579.7 68.3 C 3550.9 68.3 3539.4 86.5 3539.4 123 L 3539.4 547.5 C 3539.4 584 3550.9 602.2 3579.7 602.2 L 3769.9 602.2 L 3769.9 492.8 L 3840 492.8 L 3840 668.6 L 3562.4 668.6 C 3499.1 668.5 3464.5 633 3464.5 565.7 Z" style="fill: rgb(255, 255, 255);"/>
  <path class="st1" d="M 338.7 668.5 L 206.2 668.5 L 195.2 537 L 141.4 537 L 131.4 668.5 L 0 668.5 L 83.7 4 L 256 4 L 338.7 668.5 Z M 168.4 169.4 L 149.5 427.4 L 187.4 427.4 L 168.4 169.4 Z" style="fill: rgb(255, 255, 255);"/>
  <path class="st1" d="M 785 668.5 L 658.5 668.5 L 658.5 291.9 L 608.7 668.5 L 527 668.5 L 474.2 289.9 L 474.2 668.5 L 347.7 668.5 L 347.7 4 L 533 4 L 565.9 297.9 L 600.7 4 L 785 4 L 785 668.5 Z" style="fill: rgb(255, 255, 255);"/>
  <path class="st1" d="M 992.2 232.1 L 992.2 153.4 C 992.2 132.5 991.2 125.5 989.2 120.5 C 985.2 113.5 979.2 108.5 972.3 108.5 C 965.3 108.5 957.4 113.5 954.4 120.5 C 952.4 126.5 951.4 131.5 951.4 153.4 L 951.4 202.2 C 951.4 224.1 957.4 232.1 983.3 246 L 1043 279 C 1121.7 322.8 1132.7 340.8 1132.7 430.4 L 1132.7 537 C 1132.7 594.8 1128.7 613.7 1112.8 634.6 C 1090.9 664.5 1067 670.5 963.4 670.5 C 880.7 670.5 857.8 665.5 835.9 640.6 C 822.9 626.7 817 610.7 814 585.8 C 812 572.8 812 557.9 812 513.1 L 812 393.5 L 951.5 393.5 L 951.5 505.1 L 951.5 522 C 951.5 548.9 957.5 559.9 972.4 559.9 C 985.4 559.9 992.3 548.9 992.3 530 L 992.3 513.1 L 992.3 439.4 L 991.3 425.5 C 990.3 400.6 987.3 395.6 963.4 382.7 C 954.4 377.7 947.5 374.7 946.5 373.7 L 887.7 340.8 C 822.9 303.9 812 283 812 200.3 L 812 122.6 C 812 67.8 818 43.9 838.9 25 C 860.7 5 886.6 0 983.2 0 C 1067.9 0 1090.8 6 1111.7 33.9 C 1128.6 55.8 1132.6 76.7 1132.6 138.5 L 1132.6 232.2 L 992.2 232.2 Z" style="fill: rgb(255, 255, 255);"/>
  <path class="st1" d="M 1352.6 668.5 L 1212.1 668.5 L 1212.1 111.6 L 1141.4 111.6 L 1141.4 4 L 1421.4 4 L 1421.4 111.6 L 1352.7 111.6 L 1352.7 668.5 Z" style="fill: rgb(255, 255, 255);"/>
  <path class="st1" d="M 1579.5 4 L 1629.3 5 C 1726.9 7 1750.8 32.9 1750.8 133.5 L 1750.8 203.2 C 1750.8 295.9 1736.9 327.7 1688 340.7 C 1711.9 348.7 1725.9 359.6 1735.8 377.6 C 1748.8 400.5 1750.7 418.4 1750.7 496.2 L 1750.7 668.6 L 1611.2 668.6 L 1611.2 469.3 C 1611.2 403.5 1611.2 404.5 1576.3 403.5 C 1574.3 403.5 1573.3 403.5 1570.3 403.5 L 1570.3 668.5 L 1430 668.5 L 1430 4 L 1579.5 4 Z M 1580.4 281.9 C 1607.3 281.9 1611.3 275.9 1611.3 233.1 L 1611.3 161.4 L 1610.3 143.5 C 1610.3 119.6 1604.3 112.6 1585.4 112.6 L 1576.4 112.6 L 1570.4 112.6 L 1570.4 282 C 1575.5 281.9 1578.5 281.9 1580.4 281.9 Z" style="fill: rgb(255, 255, 255);"/>
  <path class="st1" d="M 2093.5 668.5 L 1961 668.5 L 1950 537 L 1896.2 537 L 1886.2 668.5 L 1754.7 668.5 L 1838.4 4 L 2010.8 4 L 2093.5 668.5 Z M 1923.1 169.4 L 1904.2 427.4 L 1942.1 427.4 L 1923.1 169.4 Z" style="fill: rgb(255, 255, 255);"/>
  <path class="st1" d="M 2238.9 4 C 2359.5 4 2376.4 7 2399.3 33.9 C 2420.2 57.8 2425.2 83.7 2425.2 175.4 L 2425.2 503.2 C 2425.2 584.9 2422.2 606.8 2406.3 630.7 C 2387.4 658.6 2359.5 667.6 2290.7 667.6 L 2220 668.6 L 2102.4 668.6 L 2102.4 4 L 2238.9 4 Z M 2255.8 559.9 C 2277.7 559.9 2282.7 552.9 2282.7 525 C 2282.7 521 2282.7 518 2282.7 511.1 C 2282.7 500.1 2282.7 488.2 2282.7 478.2 L 2282.7 166.4 L 2282.7 149.5 C 2282.7 119.6 2277.7 112.6 2255.8 112.6 C 2252.8 112.6 2247.8 113.6 2242.8 113.6 L 2242.8 559.9 C 2247.9 559.9 2252.8 559.9 2255.8 559.9 Z" style="fill: rgb(255, 255, 255);"/>
</svg>