<?xml version="1.0" encoding="utf-8"?>
<svg version="1.1" xmlns="http://www.w3.org/2000/svg">
  <g transform="matrix(0.44, 0, 0, 0.442118, 0, 0.000093)">
    <path d="M 342.957 61.194 C 343.156 62.788 342.889 64.215 342.16 65.474 C 341.296 66.936 340.07 67.664 338.476 67.664 C 336.485 67.664 334.958 66.605 333.895 64.479 C 333.696 63.218 333.795 61.991 334.194 60.795 C 334.724 59.336 335.621 58.44 336.882 58.107 C 337.281 58.041 337.679 58.007 338.076 58.007 C 340.134 58.009 341.762 59.072 342.957 61.194 Z M 378.598 91.459 L 358.187 91.857 L 358.187 90.563 L 375.212 90.065 C 374.48 87.675 372.856 84.19 370.332 79.612 C 367.677 74.768 365.953 71.15 365.156 68.762 L 366.35 68.065 Z M 391.939 99.123 L 366.354 49.846 C 356.131 30.201 347.437 13.973 340.27 1.164 L 283.723 99.422 Z" style="fill: rgb(255, 255, 255);"/>
    <path d="M 283.724 71.748 C 283.724 73.474 282.629 75.366 280.438 77.422 C 278.712 79.014 276.721 80.374 274.465 81.504 L 273.569 80.807 C 274.963 79.679 276.356 78.517 277.751 77.323 C 279.476 75.864 280.637 74.403 281.235 72.943 C 278.115 71.417 273.833 69.625 268.393 67.567 C 261.823 65.046 257.476 63.32 255.352 62.392 L 255.352 60.796 Z M 257.839 50.441 C 274.695 40.286 287.339 32.655 295.767 27.543 C 292.647 20.908 287.837 15.233 281.333 10.519 C 275.094 6.009 268.391 3.188 261.224 2.059 C 258.569 1.662 255.914 1.462 253.259 1.462 C 243.967 1.462 235.39 3.9 227.525 8.779 C 219.66 13.657 213.57 20.343 209.257 28.839 C 206.203 34.748 204.677 41.648 204.677 49.546 C 204.677 57.977 206.37 65.374 209.754 71.746 C 214.068 79.843 220.074 86.264 227.774 91.009 C 235.473 95.754 243.768 98.127 252.662 98.127 C 262.484 98.193 271.728 95.273 280.388 89.368 C 289.049 83.46 295.005 75.862 298.257 66.569 C 285.914 62.257 272.441 56.882 257.839 50.441 Z" style="fill: rgb(255, 255, 255);"/>
    <path d="M 54.356 58.007 C 53.957 58.007 53.559 58.041 53.161 58.107 C 51.899 58.44 51.004 59.336 50.473 60.795 C 50.076 61.991 49.976 63.218 50.175 64.479 C 51.236 66.605 52.763 67.664 54.754 67.664 C 56.347 67.664 57.574 66.936 58.438 65.474 C 59.168 64.215 59.434 62.788 59.234 61.194 C 58.039 59.072 56.413 58.009 54.356 58.007 Z M 0 99.422 L 56.548 1.164 C 63.716 13.973 72.409 30.201 82.633 49.846 L 108.217 99.123 Z M 82.629 68.065 L 81.434 68.762 C 82.23 71.15 83.956 74.768 86.611 79.612 C 89.132 84.19 90.757 87.675 91.488 90.065 L 74.465 90.563 L 74.465 91.857 L 94.875 91.459 Z" style="fill: rgb(255, 255, 255);"/>
    <path d="M 185.349 90.978 C 180.509 91.044 173.379 90.843 163.962 90.376 L 163.962 89.472 C 165.82 89.204 168.607 89.102 172.325 89.172 C 176.041 89.238 178.828 89.103 180.687 88.772 L 163.962 71.648 L 166.051 71.651 Z M 193.529 34.416 C 193.33 37.668 192.135 40.837 189.946 43.922 C 187.755 47.009 185.101 49.248 181.982 50.642 L 173.023 54.625 L 173.023 52.433 C 184.969 48.585 191.373 42.577 192.236 34.415 L 193.529 34.415 Z M 162.669 30.533 C 162.801 30.997 162.868 31.496 162.868 32.026 C 162.868 33.486 162.402 34.697 161.475 35.659 C 160.545 36.621 159.384 37.102 157.991 37.102 C 155.999 37.102 154.439 36.043 153.311 33.918 C 152.847 30.931 153.71 28.808 155.9 27.547 C 156.498 27.282 157.095 27.148 157.692 27.148 C 160.212 27.148 161.872 28.277 162.669 30.533 Z M 169.633 63.489 C 172.95 62.627 176.271 61.731 179.59 60.8 C 183.373 59.606 186.459 58.08 188.85 56.221 C 197.744 49.319 202.191 41.254 202.191 32.028 C 202.191 31.098 202.156 30.202 202.092 29.339 C 198.97 16.795 191.77 8.367 180.488 4.052 C 172.59 0.999 160.877 -0.329 145.347 0.069 C 125.635 0.666 113.921 0.734 110.205 0.268 L 110.205 98.924 C 123.016 99.057 138.715 98.99 157.303 98.721 C 172.837 98.517 188.371 98.28 203.904 98.01 Z" style="fill: rgb(255, 255, 255);"/>
    <path d="M 484.421 72.343 C 480.172 79.512 474.53 84.457 467.495 87.177 C 463.578 88.703 460.69 89.732 458.836 90.263 C 455.584 91.193 452.529 91.689 449.677 91.758 L 449.178 90.563 C 464.773 87.841 475.594 82.166 481.633 73.54 C 485.748 67.633 488.404 60.135 489.598 51.041 L 491.39 51.041 C 491.39 51.041 491.39 51.04 491.39 51.04 L 491.39 51.041 C 490.393 59.139 488.069 66.24 484.421 72.343 Z M 453.061 60.796 C 453.194 61.262 453.261 61.758 453.261 62.291 C 453.261 63.485 452.878 64.564 452.116 65.526 C 451.353 66.488 450.375 67.036 449.18 67.167 C 446.391 66.639 444.666 65.609 444.003 64.083 C 443.936 63.618 443.904 63.187 443.904 62.789 C 443.904 60.465 444.964 58.773 447.089 57.71 C 447.487 57.645 447.886 57.612 448.284 57.612 C 450.274 57.612 451.867 58.673 453.061 60.796 Z M 498.853 49.647 C 498.853 37.461 495.47 27.559 488.699 19.942 C 483.39 12.257 476.221 6.893 467.196 3.845 C 460.162 1.462 451.101 0.269 440.018 0.269 C 436.436 0.269 430.993 0.368 423.693 0.568 C 416.391 0.766 410.982 0.866 407.464 0.866 C 402.354 0.866 397.81 0.666 393.828 0.268 L 393.529 99.521 C 397.644 98.99 402.423 98.725 407.864 98.725 C 411.381 98.725 416.758 98.858 423.992 99.123 C 431.226 99.387 436.601 99.521 440.119 99.521 C 453.062 99.521 463.349 97.998 470.981 94.952 C 481.001 90.911 488.503 83.791 493.48 73.59 C 497.063 66.306 498.854 58.325 498.853 49.647 Z" style="fill: rgb(255, 255, 255);"/>
    <path d="M 551.916 9.725 L 512.792 10.023 L 512.494 42.478 L 511.101 42.478 L 511.101 7.934 C 520.259 7.803 533.863 7.969 551.917 8.432 L 551.917 9.725 Z M 599.702 0.268 L 503.434 0.268 L 503.434 99.424 L 599.702 99.424 L 599.702 80.31 L 545.844 79.912 L 545.844 70.155 L 565.057 69.259 L 565.057 56.816 L 545.844 56.816 C 545.246 55.342 544.948 53.535 544.948 51.391 C 544.948 49.249 545.246 47.372 545.844 45.764 L 600 45.764 Z" style="fill: rgb(255, 255, 255);"/>
  </g>
</svg>