<?xml version="1.0" encoding="utf-8"?>
<svg viewBox="0 0 264 44" xmlns="http://www.w3.org/2000/svg">
  <path d="M 235.827 0 L 239.309 2.222 L 239.309 7.938 L 245.957 15.241 L 249.122 17.782 L 258.302 8.573 L 258.302 2.222 L 260.518 0 L 263.367 0.952 L 264 2.222 L 264 9.843 L 257.985 16.511 L 253.871 20.004 L 251.338 23.179 L 251.338 41.595 L 249.755 43.184 C 247.751 43.501 246.59 42.972 246.273 41.595 L 246.273 22.544 L 233.612 9.843 L 233.612 2.222 L 235.827 0 Z" style="fill: rgb(255, 255, 255);"/>
  <path d="M 41.468 0.635 L 60.461 0.635 L 69.007 8.573 L 69.007 23.179 L 62.36 30.483 L 60.777 31.435 L 69.007 40.325 L 69.007 42.23 C 68.69 43.607 67.53 44.136 65.525 43.819 L 63.943 42.865 L 52.863 31.118 L 44.317 31.435 L 44.317 42.23 L 42.734 43.819 C 40.835 44.242 39.674 43.924 39.252 42.865 L 39.252 2.222 L 40.202 1.27 L 41.468 0.635 Z M 44.482 6.251 L 44.156 25.838 L 59.127 26.165 L 64.009 21.268 L 64.009 11.148 L 59.127 6.251 L 44.482 6.251 Z" style="fill: rgb(255, 255, 255);"/>
  <path d="M 80.086 0.635 L 99.712 0.635 L 107.626 7.938 L 108.259 9.208 L 108.259 35.245 L 100.979 43.184 L 99.712 43.819 L 80.086 43.819 L 78.504 42.865 L 77.871 41.595 L 77.871 2.222 L 80.086 0.635 Z M 83.21 5.598 L 82.884 38.569 L 97.855 38.896 L 102.411 33.999 L 102.411 10.495 L 97.855 5.598 L 83.21 5.598 Z" style="fill: rgb(255, 255, 255);"/>
  <path d="M 118.705 0.635 C 120.71 0.317 121.871 0.847 122.187 2.222 L 122.187 33.975 L 126.302 38.103 L 137.065 38.103 L 141.813 33.34 L 141.813 2.222 L 143.396 0.635 C 145.401 0.317 146.561 0.847 146.878 2.222 L 146.878 35.881 L 139.597 43.184 L 138.331 43.819 L 125.669 43.819 L 117.122 35.881 L 116.489 2.857 L 117.439 1.27 L 118.705 0.635 Z" style="fill: rgb(255, 255, 255);"/>
  <path d="M 157.324 0.635 L 178.216 0.635 L 185.496 7.938 L 186.129 9.208 L 186.129 16.193 L 181.065 21.909 L 186.129 27.624 L 186.129 35.245 L 178.849 43.184 L 157.324 43.184 L 156.374 42.23 L 155.741 40.96 L 155.741 2.857 L 157.324 0.635 Z M 160.991 5.598 L 160.666 18.656 L 176.287 18.983 L 181.169 14.412 L 181.169 11.148 L 175.636 5.598 L 160.991 5.598 Z M 161.642 24.859 L 161.317 37.916 L 176.287 38.243 L 181.169 33.346 L 181.169 29.429 L 176.287 24.859 L 161.642 24.859 Z" style="fill: rgb(255, 255, 255);"/>
  <path d="M 202.273 0.635 L 217.468 0.635 L 224.748 7.938 L 225.381 9.208 L 225.381 34.61 L 217.468 43.184 L 202.273 43.184 L 194.993 35.881 L 194.993 7.938 L 202.273 0.635 Z M 204.926 5.598 L 200.045 10.495 L 200.045 33.346 L 204.926 38.243 L 215.015 38.243 L 219.572 33.346 L 219.572 10.495 L 215.015 5.598 L 204.926 5.598 Z" style="fill: rgb(255, 255, 255);"/>
  <path d="M 13.612 1.27 L 16.144 1.27 L 29.755 14.923 L 30.388 16.193 L 30.388 41.595 L 28.806 43.819 C 26.484 44.242 25.113 43.712 24.691 42.23 L 24.374 25.402 L 5.065 25.72 L 5.065 42.865 L 4.115 43.819 C 1.794 44.242 0.422 43.712 0 42.23 L 0 14.923 L 13.612 1.27 Z M 14.866 7.557 L 5.103 17.35 L 5.428 19.636 L 24.63 19.309 L 24.63 17.35 L 14.866 7.557 Z" style="fill: rgb(255, 255, 255);"/>
</svg>