<?xml version="1.0" encoding="utf-8"?>
<svg style="isolation:isolate" viewBox="0 0 264 61" xmlns="http://www.w3.org/2000/svg">
  <path d="M 21.543 35.713 C 27.807 26.27 27.665 6.169 27.665 1.217 L 32.278 1.217 C 32.259 3.123 33.283 22.285 30.036 34.352 C 26.787 46.419 14.66 59.956 0 59.956 L 0 51.394 C 4.311 51.394 15.283 45.156 21.543 35.713 Z M 33.56 1.217 L 41.825 1.217 L 41.825 60.078 L 33.56 60.078 L 33.56 1.217 Z M 53.839 35.713 C 47.576 26.27 47.717 6.169 47.717 1.217 L 43.104 1.217 C 43.124 3.123 42.099 22.285 45.347 34.352 C 48.595 46.419 60.722 59.956 75.383 59.956 L 75.383 51.394 C 71.072 51.394 60.099 45.156 53.839 35.713 Z M 254.504 1.551 L 264 1.551 L 264 60.998 L 254.504 60.998 L 254.504 1.551 Z M 104.474 13.006 L 111.005 37.743 L 98.091 37.743 L 104.474 13.006 Z M 123.028 1.328 L 123.028 9.309 L 137.771 9.309 L 137.771 61 L 147.27 61 L 147.27 9.309 L 162.064 9.309 L 162.064 1.328 L 123.028 1.328 Z M 234.736 39.415 C 234.459 38.944 234.291 38.376 234.291 37.746 C 234.291 37.177 234.436 36.662 234.66 36.219 C 235.012 35.667 235.642 35.354 236.063 35.088 C 241.007 32.095 244.518 25.802 244.518 18.513 C 244.518 8.739 238.341 0.73 230.681 0.112 C 229.726 -0.013 227.574 0 227.574 0 L 216.764 0 L 216.77 0 C 213.021 0 209.972 4.043 209.972 9.024 L 209.987 9.038 L 209.987 60.993 L 219.216 60.993 L 219.216 12.747 L 219.213 12.747 C 219.213 11.236 220.136 10.002 221.273 10.002 L 227.501 10.002 C 228.066 10.002 229.756 10.044 230.091 10.107 L 230.091 10.113 C 232.845 10.412 235.082 13.017 235.731 16.463 C 235.767 16.604 235.792 16.744 235.81 16.886 C 235.81 16.899 235.81 16.913 235.81 16.918 C 235.847 17.129 235.864 17.329 235.883 17.533 C 235.917 17.854 235.923 18.181 235.923 18.512 C 235.923 21.685 234.605 24.462 232.656 25.903 C 232.261 26.215 231.852 26.486 231.42 26.719 C 231.114 26.903 230.76 27.074 230.387 27.24 C 227.898 28.406 226.83 29.097 225.79 30.424 C 224.625 32.045 223.888 34.234 223.867 36.653 C 223.85 38.927 224.445 41.004 225.459 42.614 L 237.184 61 L 248.166 61 L 234.736 39.414 L 234.736 39.415 Z M 104.574 0.047 C 101.583 0.047 99.031 1.892 98.044 4.531 L 98.044 4.58 L 81.122 61 L 91.264 61 L 95.174 45.675 L 114.023 45.675 L 118.129 61 L 128.519 61 L 111.153 4.531 L 111.105 4.531 C 110.105 1.905 107.565 0.047 104.574 0.047 Z M 181.221 13.006 L 187.75 37.743 L 174.839 37.743 L 181.221 13.006 Z M 181.318 0.047 C 178.328 0.047 175.775 1.892 174.788 4.531 L 174.788 4.58 L 157.867 61 L 168.01 61 L 171.918 45.675 L 190.767 45.675 L 194.876 61 L 205.264 61 L 187.9 4.531 L 187.849 4.531 C 186.852 1.905 184.311 0.047 181.318 0.047 Z" fill-rule="evenodd" fill="rgb(255,255,255)"/>
</svg>