<?xml version="1.0" encoding="UTF-8" standalone="no"?><!-- Generator: Gravit.io --><svg xmlns="http://www.w3.org/2000/svg" xmlns:xlink="http://www.w3.org/1999/xlink" style="isolation:isolate" viewBox="0 0 271.4 67.471" width="271.4pt" height="67.471pt"><defs><clipPath id="_clipPath_Y7hrMf6TKMWHS30HgHPzu7J2uppEWGV6"><rect width="271.4" height="67.471"/></clipPath></defs><g clip-path="url(#_clipPath_Y7hrMf6TKMWHS30HgHPzu7J2uppEWGV6)"><path d=" M 138.284 67.471 L 138.284 67.471 Q 137.132 67.471 136.192 66.924 L 136.192 66.924 L 136.192 66.924 Q 135.252 66.376 134.705 65.425 L 134.705 65.425 L 134.705 65.425 Q 134.157 64.474 134.157 63.321 L 134.157 63.321 L 134.157 63.321 Q 134.157 62.145 134.687 61.199 L 134.687 61.199 L 134.687 61.199 Q 135.218 60.254 136.14 59.718 L 136.14 59.718 L 136.14 59.718 Q 137.062 59.182 138.215 59.182 L 138.215 59.182 L 138.215 59.182 Q 138.838 59.182 139.437 59.331 L 139.437 59.331 L 139.437 59.331 Q 140.037 59.481 140.464 59.758 L 140.464 59.758 L 140.152 61.545 L 140.152 61.545 Q 139.322 61.234 138.653 61.234 L 138.653 61.234 L 138.653 61.234 Q 137.731 61.234 137.235 61.77 L 137.235 61.77 L 137.235 61.77 Q 136.74 62.306 136.74 63.309 L 136.74 63.309 L 136.74 63.309 Q 136.74 64.289 137.264 64.837 L 137.264 64.837 L 137.264 64.837 Q 137.789 65.385 138.723 65.385 L 138.723 65.385 L 138.723 65.385 Q 139.08 65.385 139.391 65.315 L 139.391 65.315 L 139.391 65.315 Q 139.703 65.246 140.152 65.062 L 140.152 65.062 L 140.475 66.883 L 140.475 66.883 Q 139.472 67.471 138.284 67.471 L 138.284 67.471 L 138.284 67.471 L 138.284 67.471 L 138.284 67.471 L 138.284 67.471 L 138.284 67.471 L 138.284 67.471 L 138.284 67.471 L 138.284 67.471 Z  M 147.721 67.287 L 147.721 59.355 L 150.211 59.355 L 150.211 65.534 L 152.967 65.534 L 152.967 67.287 L 147.721 67.287 L 147.721 67.287 L 147.721 67.287 L 147.721 67.287 L 147.721 67.287 L 147.721 67.287 L 147.721 67.287 L 147.721 67.287 L 147.721 67.287 Z  M 162.611 64.347 L 164.145 64.347 L 163.395 60.876 L 162.611 64.347 L 162.611 64.347 L 162.611 64.347 L 162.611 64.347 L 162.611 64.347 L 162.611 64.347 L 162.611 64.347 L 162.611 64.347 L 162.611 64.347 Z  M 176.856 67.471 L 176.856 67.471 Q 175.23 67.471 174.111 66.872 L 174.111 66.872 L 174.688 65.085 L 174.688 65.085 Q 175.876 65.511 176.809 65.511 L 176.809 65.511 L 176.809 65.511 Q 177.317 65.511 177.553 65.39 L 177.553 65.39 L 177.553 65.39 Q 177.789 65.269 177.789 65.027 L 177.789 65.027 L 177.789 65.027 Q 177.789 64.866 177.663 64.745 L 177.663 64.745 L 177.663 64.745 Q 177.536 64.624 177.155 64.474 L 177.155 64.474 L 177.155 64.474 Q 176.775 64.324 176.014 64.105 L 176.014 64.105 L 176.014 64.105 Q 175.08 63.828 174.561 63.2 L 174.561 63.2 L 174.561 63.2 Q 174.042 62.571 174.042 61.753 L 174.042 61.753 L 174.042 61.753 Q 174.042 60.484 174.878 59.833 L 174.878 59.833 L 174.878 59.833 Q 175.714 59.182 177.132 59.182 L 177.132 59.182 L 177.132 59.182 Q 177.87 59.182 178.585 59.337 L 178.585 59.337 L 178.585 59.337 Q 179.3 59.493 179.853 59.793 L 179.853 59.793 L 179.231 61.534 L 179.231 61.534 Q 178.585 61.315 178.107 61.217 L 178.107 61.217 L 178.107 61.217 Q 177.628 61.119 177.178 61.119 L 177.178 61.119 L 177.178 61.119 Q 176.417 61.119 176.417 61.534 L 176.417 61.534 L 176.417 61.534 Q 176.417 61.741 176.665 61.885 L 176.665 61.885 L 176.665 61.885 Q 176.913 62.029 177.686 62.248 L 177.686 62.248 L 177.686 62.248 Q 178.896 62.571 179.519 63.234 L 179.519 63.234 L 179.519 63.234 Q 180.142 63.897 180.142 64.82 L 180.142 64.82 L 180.142 64.82 Q 180.142 66.099 179.311 66.785 L 179.311 66.785 L 179.311 66.785 Q 178.481 67.471 176.856 67.471 L 176.856 67.471 L 176.856 67.471 L 176.856 67.471 L 176.856 67.471 L 176.856 67.471 L 176.856 67.471 L 176.856 67.471 L 176.856 67.471 L 176.856 67.471 Z  M 189.832 67.471 L 189.832 67.471 Q 188.206 67.471 187.088 66.872 L 187.088 66.872 L 187.664 65.085 L 187.664 65.085 Q 188.852 65.511 189.786 65.511 L 189.786 65.511 L 189.786 65.511 Q 190.293 65.511 190.529 65.39 L 190.529 65.39 L 190.529 65.39 Q 190.766 65.269 190.766 65.027 L 190.766 65.027 L 190.766 65.027 Q 190.766 64.866 190.639 64.745 L 190.639 64.745 L 190.639 64.745 Q 190.512 64.624 190.131 64.474 L 190.131 64.474 L 190.131 64.474 Q 189.751 64.324 188.99 64.105 L 188.99 64.105 L 188.99 64.105 Q 188.056 63.828 187.537 63.2 L 187.537 63.2 L 187.537 63.2 Q 187.018 62.571 187.018 61.753 L 187.018 61.753 L 187.018 61.753 Q 187.018 60.484 187.854 59.833 L 187.854 59.833 L 187.854 59.833 Q 188.69 59.182 190.108 59.182 L 190.108 59.182 L 190.108 59.182 Q 190.846 59.182 191.561 59.337 L 191.561 59.337 L 191.561 59.337 Q 192.276 59.493 192.829 59.793 L 192.829 59.793 L 192.207 61.534 L 192.207 61.534 Q 191.561 61.315 191.083 61.217 L 191.083 61.217 L 191.083 61.217 Q 190.604 61.119 190.155 61.119 L 190.155 61.119 L 190.155 61.119 Q 189.394 61.119 189.394 61.534 L 189.394 61.534 L 189.394 61.534 Q 189.394 61.741 189.641 61.885 L 189.641 61.885 L 189.641 61.885 Q 189.889 62.029 190.662 62.248 L 190.662 62.248 L 190.662 62.248 Q 191.872 62.571 192.495 63.234 L 192.495 63.234 L 192.495 63.234 Q 193.118 63.897 193.118 64.82 L 193.118 64.82 L 193.118 64.82 Q 193.118 66.099 192.288 66.785 L 192.288 66.785 L 192.288 66.785 Q 191.457 67.471 189.832 67.471 L 189.832 67.471 L 189.832 67.471 L 189.832 67.471 L 189.832 67.471 L 189.832 67.471 L 189.832 67.471 L 189.832 67.471 L 189.832 67.471 L 189.832 67.471 Z  M 200.41 67.287 L 200.41 59.355 L 203.073 59.355 L 203.073 67.287 L 200.41 67.287 L 200.41 67.287 L 200.41 67.287 L 200.41 67.287 L 200.41 67.287 L 200.41 67.287 L 200.41 67.287 L 200.41 67.287 L 200.41 67.287 Z  M 214.516 67.471 L 214.516 67.471 Q 213.363 67.471 212.423 66.924 L 212.423 66.924 L 212.423 66.924 Q 211.483 66.376 210.936 65.425 L 210.936 65.425 L 210.936 65.425 Q 210.388 64.474 210.388 63.321 L 210.388 63.321 L 210.388 63.321 Q 210.388 62.145 210.919 61.199 L 210.919 61.199 L 210.919 61.199 Q 211.449 60.254 212.371 59.718 L 212.371 59.718 L 212.371 59.718 Q 213.294 59.182 214.447 59.182 L 214.447 59.182 L 214.447 59.182 Q 215.069 59.182 215.669 59.331 L 215.669 59.331 L 215.669 59.331 Q 216.268 59.481 216.695 59.758 L 216.695 59.758 L 216.384 61.545 L 216.384 61.545 Q 215.553 61.234 214.885 61.234 L 214.885 61.234 L 214.885 61.234 Q 213.962 61.234 213.467 61.77 L 213.467 61.77 L 213.467 61.77 Q 212.971 62.306 212.971 63.309 L 212.971 63.309 L 212.971 63.309 Q 212.971 64.289 213.495 64.837 L 213.495 64.837 L 213.495 64.837 Q 214.02 65.385 214.954 65.385 L 214.954 65.385 L 214.954 65.385 Q 215.311 65.385 215.623 65.315 L 215.623 65.315 L 215.623 65.315 Q 215.934 65.246 216.384 65.062 L 216.384 65.062 L 216.706 66.883 L 216.706 66.883 Q 215.703 67.471 214.516 67.471 L 214.516 67.471 L 214.516 67.471 L 214.516 67.471 L 214.516 67.471 L 214.516 67.471 L 214.516 67.471 L 214.516 67.471 L 214.516 67.471 L 214.516 67.471 Z  M 226.408 67.471 L 226.408 67.471 Q 224.782 67.471 223.664 66.872 L 223.664 66.872 L 224.241 65.085 L 224.241 65.085 Q 225.428 65.511 226.362 65.511 L 226.362 65.511 L 226.362 65.511 Q 226.869 65.511 227.106 65.39 L 227.106 65.39 L 227.106 65.39 Q 227.342 65.269 227.342 65.027 L 227.342 65.027 L 227.342 65.027 Q 227.342 64.866 227.215 64.745 L 227.215 64.745 L 227.215 64.745 Q 227.088 64.624 226.708 64.474 L 226.708 64.474 L 226.708 64.474 Q 226.327 64.324 225.566 64.105 L 225.566 64.105 L 225.566 64.105 Q 224.633 63.828 224.114 63.2 L 224.114 63.2 L 224.114 63.2 Q 223.595 62.571 223.595 61.753 L 223.595 61.753 L 223.595 61.753 Q 223.595 60.484 224.431 59.833 L 224.431 59.833 L 224.431 59.833 Q 225.267 59.182 226.685 59.182 L 226.685 59.182 L 226.685 59.182 Q 227.423 59.182 228.138 59.337 L 228.138 59.337 L 228.138 59.337 Q 228.852 59.493 229.406 59.793 L 229.406 59.793 L 228.783 61.534 L 228.783 61.534 Q 228.138 61.315 227.659 61.217 L 227.659 61.217 L 227.659 61.217 Q 227.181 61.119 226.731 61.119 L 226.731 61.119 L 226.731 61.119 Q 225.97 61.119 225.97 61.534 L 225.97 61.534 L 225.97 61.534 Q 225.97 61.741 226.218 61.885 L 226.218 61.885 L 226.218 61.885 Q 226.466 62.029 227.238 62.248 L 227.238 62.248 L 227.238 62.248 Q 228.449 62.571 229.071 63.234 L 229.071 63.234 L 229.071 63.234 Q 229.694 63.897 229.694 64.82 L 229.694 64.82 L 229.694 64.82 Q 229.694 66.099 228.864 66.785 L 228.864 66.785 L 228.864 66.785 Q 228.034 67.471 226.408 67.471 L 226.408 67.471 L 226.408 67.471 L 226.408 67.471 L 226.408 67.471 L 226.408 67.471 L 226.408 67.471 L 226.408 67.471 L 226.408 67.471 L 226.408 67.471 Z  M 44.673 64.347 L 46.206 64.347 L 45.457 60.876 L 44.673 64.347 L 44.673 64.347 L 44.673 64.347 L 44.673 64.347 L 44.673 64.347 L 44.673 64.347 L 44.673 64.347 L 44.673 64.347 L 44.673 64.347 Z  M 58.986 62.664 L 59.424 62.664 L 59.424 62.664 Q 60.278 62.664 60.629 62.473 L 60.629 62.473 L 60.629 62.473 Q 60.981 62.283 60.981 61.822 L 60.981 61.822 L 60.981 61.822 Q 60.981 61.43 60.693 61.251 L 60.693 61.251 L 60.693 61.251 Q 60.404 61.072 59.782 61.072 L 59.782 61.072 L 58.986 61.072 L 58.986 62.664 L 58.986 62.664 L 58.986 62.664 L 58.986 62.664 L 58.986 62.664 L 58.986 62.664 L 58.986 62.664 L 58.986 62.664 L 58.986 62.664 Z  M 74.395 67.471 L 74.395 67.471 Q 73.242 67.471 72.303 66.924 L 72.303 66.924 L 72.303 66.924 Q 71.363 66.376 70.815 65.425 L 70.815 65.425 L 70.815 65.425 Q 70.268 64.474 70.268 63.321 L 70.268 63.321 L 70.268 63.321 Q 70.268 62.145 70.798 61.199 L 70.798 61.199 L 70.798 61.199 Q 71.328 60.254 72.251 59.718 L 72.251 59.718 L 72.251 59.718 Q 73.173 59.182 74.326 59.182 L 74.326 59.182 L 74.326 59.182 Q 74.949 59.182 75.548 59.331 L 75.548 59.331 L 75.548 59.331 Q 76.148 59.481 76.574 59.758 L 76.574 59.758 L 76.263 61.545 L 76.263 61.545 Q 75.433 61.234 74.764 61.234 L 74.764 61.234 L 74.764 61.234 Q 73.842 61.234 73.346 61.77 L 73.346 61.77 L 73.346 61.77 Q 72.85 62.306 72.85 63.309 L 72.85 63.309 L 72.85 63.309 Q 72.85 64.289 73.375 64.837 L 73.375 64.837 L 73.375 64.837 Q 73.899 65.385 74.833 65.385 L 74.833 65.385 L 74.833 65.385 Q 75.191 65.385 75.502 65.315 L 75.502 65.315 L 75.502 65.315 Q 75.813 65.246 76.263 65.062 L 76.263 65.062 L 76.586 66.883 L 76.586 66.883 Q 75.583 67.471 74.395 67.471 L 74.395 67.471 L 74.395 67.471 L 74.395 67.471 L 74.395 67.471 L 74.395 67.471 L 74.395 67.471 L 74.395 67.471 L 74.395 67.471 L 74.395 67.471 Z  M 86.311 64.347 L 87.844 64.347 L 87.095 60.876 L 86.311 64.347 L 86.311 64.347 L 86.311 64.347 L 86.311 64.347 L 86.311 64.347 L 86.311 64.347 L 86.311 64.347 L 86.311 64.347 L 86.311 64.347 Z  M 100.647 65.212 L 101.431 65.212 L 101.431 65.212 Q 102.296 65.212 102.751 64.664 L 102.751 64.664 L 102.751 64.664 Q 103.207 64.116 103.207 63.24 L 103.207 63.24 L 103.207 63.24 Q 103.207 62.41 102.763 61.92 L 102.763 61.92 L 102.763 61.92 Q 102.319 61.43 101.431 61.43 L 101.431 61.43 L 100.647 61.43 L 100.647 65.212 L 100.647 65.212 L 100.647 65.212 L 100.647 65.212 L 100.647 65.212 L 100.647 65.212 L 100.647 65.212 L 100.647 65.212 L 100.647 65.212 Z  M 113.116 67.287 L 113.116 59.355 L 118.685 59.355 L 118.685 61.107 L 115.918 61.107 L 115.918 62.548 L 118.443 62.548 L 118.443 64.001 L 115.918 64.001 L 115.918 65.534 L 118.685 65.534 L 118.685 67.287 L 113.116 67.287 L 113.116 67.287 L 113.116 67.287 L 113.116 67.287 L 113.116 67.287 L 113.116 67.287 L 113.116 67.287 L 113.116 67.287 L 113.116 67.287 Z  M 43.487 29.936 C 48.716 22.02 48.598 5.171 48.598 1.02 L 52.449 1.02 C 52.433 2.618 53.288 18.68 50.577 28.795 C 47.865 38.91 37.741 50.257 25.502 50.257 L 25.502 43.08 C 29.101 43.08 38.261 37.851 43.487 29.936 L 43.487 29.936 L 43.487 29.936 L 43.487 29.936 L 43.487 29.936 L 43.487 29.936 L 43.487 29.936 L 43.487 29.936 Z  M 53.519 1.02 L 60.419 1.02 L 60.419 50.359 L 53.519 50.359 L 53.519 1.02 L 53.519 1.02 L 53.519 1.02 L 53.519 1.02 L 53.519 1.02 L 53.519 1.02 L 53.519 1.02 Z  M 70.449 29.936 C 65.22 22.02 65.338 5.171 65.338 1.02 L 61.487 1.02 C 61.503 2.618 60.648 18.68 63.359 28.795 C 66.071 38.91 76.195 50.257 88.434 50.257 L 88.434 43.08 C 84.835 43.08 75.675 37.851 70.449 29.936 L 70.449 29.936 L 70.449 29.936 L 70.449 29.936 L 70.449 29.936 L 70.449 29.936 Z  M 237.97 1.3 L 245.898 1.3 L 245.898 51.13 L 237.97 51.13 L 237.97 1.3 L 237.97 1.3 L 237.97 1.3 L 237.97 1.3 L 237.97 1.3 Z  M 112.72 10.902 L 118.173 31.637 L 107.392 31.637 L 112.72 10.902 L 112.72 10.902 L 112.72 10.902 L 112.72 10.902 L 112.72 10.902 Z  M 128.21 1.113 L 128.21 7.803 L 140.518 7.803 L 140.518 51.132 L 148.448 51.132 L 148.448 7.803 L 160.798 7.803 L 160.798 1.113 L 128.21 1.113 L 128.21 1.113 L 128.21 1.113 Z  M 221.467 33.039 C 221.236 32.644 221.096 32.168 221.096 31.64 C 221.096 31.163 221.217 30.731 221.404 30.36 C 221.698 29.897 222.224 29.635 222.575 29.412 C 226.703 26.903 229.634 21.628 229.634 15.518 C 229.634 7.325 224.477 0.612 218.082 0.094 C 217.285 -0.011 215.488 0 215.488 0 L 206.464 0 L 206.469 0 C 203.339 0 200.794 3.389 200.794 7.564 L 200.806 7.576 L 200.806 51.126 L 208.511 51.126 L 208.511 10.685 L 208.508 10.685 C 208.508 9.418 209.279 8.384 210.228 8.384 L 215.427 8.384 C 215.899 8.384 217.31 8.419 217.59 8.472 L 217.59 8.477 C 219.889 8.728 221.756 10.911 222.298 13.8 C 222.328 13.918 222.349 14.035 222.364 14.154 C 222.364 14.165 222.364 14.177 222.364 14.181 C 222.395 14.358 222.409 14.526 222.425 14.697 C 222.453 14.966 222.458 15.24 222.458 15.517 C 222.458 18.177 221.358 20.505 219.731 21.713 C 219.401 21.974 219.06 22.201 218.699 22.397 C 218.444 22.551 218.148 22.694 217.837 22.833 C 215.759 23.811 214.867 24.39 213.999 25.502 C 213.026 26.861 212.411 28.696 212.394 30.724 C 212.379 32.63 212.876 34.371 213.723 35.72 L 223.511 51.132 L 232.679 51.132 L 221.467 33.038 L 221.467 33.039 L 221.467 33.039 Z  M 159.44 67.287 L 161.631 59.355 L 165.136 59.355 L 167.431 67.287 L 164.721 67.287 L 164.421 65.765 L 162.369 65.765 L 162.035 67.287 L 159.44 67.287 L 159.44 67.287 L 159.44 67.287 L 159.44 67.287 L 159.44 67.287 L 159.44 67.287 L 159.44 67.287 L 159.44 67.287 L 159.44 67.287 Z  M 41.502 67.287 L 43.693 59.355 L 47.198 59.355 L 49.492 67.287 L 46.783 67.287 L 46.483 65.765 L 44.431 65.765 L 44.096 67.287 L 41.502 67.287 L 41.502 67.287 L 41.502 67.287 L 41.502 67.287 L 41.502 67.287 L 41.502 67.287 L 41.502 67.287 L 41.502 67.287 L 41.502 67.287 Z  M 62.468 67.471 L 62.468 67.471 Q 60.301 67.471 59.816 65.465 L 59.816 65.465 L 59.528 64.278 L 58.986 64.278 L 58.986 67.287 L 56.461 67.287 L 56.461 59.355 L 59.955 59.355 L 59.955 59.355 Q 60.946 59.355 61.702 59.649 L 61.702 59.649 L 61.702 59.649 Q 62.457 59.943 62.872 60.473 L 62.872 60.473 L 62.872 60.473 Q 63.287 61.003 63.287 61.695 L 63.287 61.695 L 63.287 61.695 Q 63.287 62.468 62.912 62.992 L 62.912 62.992 L 62.912 62.992 Q 62.537 63.517 61.753 63.851 L 61.753 63.851 L 61.753 63.851 Q 61.834 64.289 61.938 64.647 L 61.938 64.647 L 61.938 64.647 Q 62.076 65.085 62.318 65.258 L 62.318 65.258 L 62.318 65.258 Q 62.561 65.431 63.022 65.431 L 63.022 65.431 L 63.022 65.431 Q 63.183 65.431 63.529 65.385 L 63.529 65.385 L 63.529 67.264 L 63.529 67.264 Q 62.987 67.471 62.468 67.471 L 62.468 67.471 L 62.468 67.471 L 62.468 67.471 L 62.468 67.471 L 62.468 67.471 L 62.468 67.471 L 62.468 67.471 L 62.468 67.471 L 62.468 67.471 Z  M 83.14 67.287 L 85.331 59.355 L 88.836 59.355 L 91.13 67.287 L 88.421 67.287 L 88.121 65.765 L 86.069 65.765 L 85.734 67.287 L 83.14 67.287 L 83.14 67.287 L 83.14 67.287 L 83.14 67.287 L 83.14 67.287 L 83.14 67.287 L 83.14 67.287 L 83.14 67.287 L 83.14 67.287 Z  M 98.099 67.287 L 98.099 59.355 L 101.547 59.355 L 101.547 59.355 Q 102.792 59.355 103.755 59.85 L 103.755 59.85 L 103.755 59.85 Q 104.717 60.346 105.253 61.234 L 105.253 61.234 L 105.253 61.234 Q 105.79 62.122 105.79 63.263 L 105.79 63.263 L 105.79 63.263 Q 105.79 64.462 105.265 65.373 L 105.265 65.373 L 105.265 65.373 Q 104.74 66.284 103.778 66.785 L 103.778 66.785 L 103.778 66.785 Q 102.815 67.287 101.547 67.287 L 101.547 67.287 L 98.099 67.287 L 98.099 67.287 L 98.099 67.287 L 98.099 67.287 L 98.099 67.287 L 98.099 67.287 L 98.099 67.287 L 98.099 67.287 L 98.099 67.287 Z  M 112.804 0.039 C 110.307 0.039 108.176 1.586 107.352 3.798 L 107.352 3.839 L 93.225 51.132 L 101.692 51.132 L 104.956 38.286 L 120.692 38.286 L 124.12 51.132 L 132.794 51.132 L 118.296 3.798 L 118.256 3.798 C 117.421 1.597 115.301 0.039 112.804 0.039 L 112.804 0.039 L 112.804 0.039 L 112.804 0.039 L 112.804 0.039 Z  M 176.791 10.902 L 182.242 31.637 L 171.463 31.637 L 176.791 10.902 L 176.791 10.902 Z  M 176.872 0.039 C 174.376 0.039 172.245 1.586 171.421 3.798 L 171.421 3.839 L 157.295 51.132 L 165.762 51.132 L 169.025 38.286 L 184.761 38.286 L 188.191 51.132 L 196.863 51.132 L 182.367 3.798 L 182.325 3.798 C 181.492 1.597 179.371 0.039 176.872 0.039 L 176.872 0.039 Z " fill-rule="evenodd" fill="rgb(255,255,255)"/></g></svg>