<?xml version="1.0" encoding="utf-8"?>
<svg version="1.1" viewBox="0 0 3840 634.1" xmlns="http://www.w3.org/2000/svg">
  <path class="st7" d="M 2929 405.1 L 2940.4 414 C 2980.2 444.8 3028.1 470 3079.3 470 C 3101.2 470 3136.1 461.1 3136.1 433.4 C 3136.1 405.8 3106.9 403.4 3086.6 399.3 L 3041.9 391.2 C 2955 375.8 2882 324.6 2882 228.8 C 2882 83.5 3014.4 2.3 3147.5 2.3 C 3217.3 2.3 3281.5 19.3 3341.6 55.9 L 3281.5 212.6 C 3243.3 186.6 3200.3 166.3 3152.4 166.3 C 3132.9 166.3 3104.5 173.6 3104.5 198.8 C 3104.5 221.5 3132.1 224.8 3149.1 228.8 L 3199.5 240.2 C 3293.7 261.3 3361.9 311.7 3361.9 415.6 C 3361.9 561.8 3228.7 634 3096.4 634 C 3019.2 634 2929.9 612.9 2860.9 578 L 2929 405.1 Z" style="fill: rgb(255, 255, 255);"/>
  <path class="st7" d="M 3372.3 12 L 3840 12 L 3840 183.8 L 3717.4 184.1 L 3717.4 624.3 L 3494.9 624.3 L 3494.9 184.1 L 3372.3 183.8 L 3372.3 12 L 3372.3 12 Z" style="fill: rgb(255, 255, 255);"/>
  <path class="st7" d="M 281.3 1.4 C 297.3 1.3 313.3 1.4 329.2 1.4 C 329.3 39 329.2 76.5 329.2 114.1 C 329.4 145.5 328.5 176.8 327.2 208.1 C 325.1 253.3 322.2 298.7 314.7 343.4 C 309.6 374.2 298.9 404 285.7 432.2 C 264.1 477.7 230.2 516.2 192.1 548.6 C 158 578.6 117.3 600.5 74.5 615.3 C 50.3 623.5 25.4 630 0 633.5 C 0 602 0 570.5 0 539 C 30.6 534.4 59.9 523.6 87.2 509.2 C 119.6 492.1 148.7 469.1 173.2 441.9 C 198.5 413.9 218.7 381.4 234 347 C 252 307.4 261.7 264.6 268.3 221.8 C 276.5 167.4 280 112.3 281.2 57.3 C 281.4 38.7 281.3 20 281.3 1.4 Z" style="fill: rgb(255, 255, 255);"/>
  <path class="st7" d="M 348.6 1.4 C 378 1.2 407.4 1.4 436.8 1.3 C 436.8 212 436.8 422.7 436.8 633.5 C 407.5 633.6 378.1 633.4 348.8 633.6 C 348.4 566.4 348.7 499.2 348.6 432 C 348.6 288.5 348.7 145 348.6 1.4 Z" style="fill: rgb(255, 255, 255);"/>
  <path class="st7" d="M 456.4 1.4 C 472.3 1.4 488.2 1.4 504.1 1.4 C 503.6 65.6 505.8 130 513.4 193.9 C 519.7 243.5 528.5 293.4 548.3 339.6 C 567 384.3 594 425.8 629.2 459.3 C 662.8 491.3 703.5 515.9 747.7 530.1 C 760 534 772.7 537.1 785.5 539 C 785.5 570.5 785.5 602 785.5 633.5 C 760.3 630.1 735.6 623.6 711.5 615.4 C 682.9 605.4 655.2 592.5 629.7 576 C 611.1 564 594.2 549.8 578 534.8 C 551.3 510.1 527.3 482.1 509.3 450.4 C 495.3 425.7 485 399 477 371.7 C 469.6 344.3 466.5 316 463.6 287.9 C 458.1 227.1 456 166 456.4 104.9 C 456.4 70.4 456.4 35.9 456.4 1.4 Z" style="fill: rgb(255, 255, 255);"/>
  <path class="st7" d="M 1075.4 27.5 C 1100 -4 1150.9 -9.4 1181.1 17 C 1193.4 27.4 1202.1 41.7 1206.5 57.2 C 1262.4 249.4 1318.5 441.5 1374.2 633.7 C 1341.2 633.7 1308.3 633.6 1275.3 633.7 C 1259.8 580.7 1244.6 527.6 1229.2 474.6 C 1165.5 474.5 1101.7 474.6 1038 474.5 C 1022.4 527.5 1007 580.6 991.7 633.7 C 958.9 633.6 926.1 633.7 893.3 633.6 C 946.4 450.3 999.6 267 1052.9 83.7 C 1059.2 64.6 1061.6 43.1 1075.4 27.5 M 1133.6 145.2 C 1110.2 224.8 1087.3 304.6 1064.1 384.2 C 1110.4 384.4 1156.7 384.3 1203 384.3 C 1179.9 304.7 1156.8 224.9 1133.6 145.2 Z" style="fill: rgb(255, 255, 255);"/>
  <path class="st7" d="M 1769.8 31.6 C 1787 6.7 1820.2 -5.4 1849.4 2.3 C 1876.2 8.5 1896.6 31.5 1903.7 57.5 C 1959.5 249.5 2015.5 441.5 2071.3 633.5 C 2038.3 633.8 2005.3 633.5 1972.3 633.6 C 1956.9 580.6 1941.8 527.5 1926.3 474.4 C 1862.7 474.4 1799.1 474.3 1735.4 474.5 C 1720.2 527.6 1704.5 580.5 1689.3 633.6 C 1656.5 633.6 1623.8 633.6 1591.1 633.6 C 1644.1 449.3 1697.8 265.1 1751.3 80.9 C 1756.9 64.3 1759 46 1769.8 31.6 M 1761.8 384.4 C 1807.9 384.5 1854 384.4 1900.2 384.4 C 1877.2 304.5 1853.9 224.7 1831 144.9 C 1808 224.7 1784.7 304.5 1761.8 384.4 Z" style="fill: rgb(255, 255, 255);"/>
  <path class="st7" d="M 1300.4 1.3 C 1419.7 1.3 1538.9 1.3 1658.1 1.3 C 1658.1 33.5 1658.1 65.6 1658.1 97.8 C 1614.2 97.8 1570.3 97.7 1526.4 97.8 C 1526.4 276.4 1526.4 455 1526.4 633.6 C 1495 633.6 1463.5 633.6 1432.1 633.6 C 1432.1 455 1432.1 276.4 1432.1 97.8 C 1388.2 97.7 1344.3 97.8 1300.4 97.8 C 1300.4 65.6 1300.4 33.5 1300.4 1.3 Z" style="fill: rgb(255, 255, 255);"/>
  <path class="st7" d="M 2176.2 5.3 C 2185.3 2.2 2194.9 1.1 2204.5 1.3 C 2242.1 1.4 2279.7 1.3 2317.3 1.4 C 2380.6 2.6 2441 41.9 2468.4 98.8 C 2487.4 135.8 2489.3 178.8 2484.5 219.4 C 2481.2 261.9 2463.4 304.4 2430.7 332.6 C 2413.5 348 2392 357.3 2373.5 371 C 2363.4 378.7 2362.8 393.7 2368.1 404.5 C 2418 481.5 2469.9 557.4 2520.8 633.7 C 2483.5 633.8 2446.3 633.6 2409 633.8 C 2360.2 560.5 2312 486.9 2263.4 413.5 C 2249.1 392.6 2245.2 365 2253.8 341.1 C 2260.5 322.8 2276.5 309.5 2294.2 302.5 C 2328.2 289.5 2361.7 269.2 2380.5 237.1 C 2394.8 213 2394.1 183.3 2387.6 156.9 C 2380.1 122.7 2346.7 95.8 2311.5 96.9 C 2287.1 97.1 2262.8 96.8 2238.5 97 C 2227.5 96.7 2217.1 106.3 2217.3 117.5 C 2217.2 289.5 2217.4 461.5 2217.2 633.6 C 2185.5 633.5 2153.9 633.6 2122.2 633.6 C 2122.1 448.4 2122.3 263.2 2122.1 78 C 2122.3 45.7 2145.4 15.1 2176.2 5.3 Z" style="fill: rgb(255, 255, 255);"/>
  <path class="st7" d="M 2570.6 1.3 C 2603.9 1.3 2637.2 1.3 2670.6 1.3 C 2670.6 212.1 2670.7 422.9 2670.5 633.6 C 2637.2 633.5 2603.9 633.6 2570.6 633.6 C 2570.6 422.9 2570.6 212.1 2570.6 1.3 Z" style="fill: rgb(255, 255, 255);"/>
</svg>