<?xml version="1.0" encoding="utf-8"?>
<svg version="1.1" viewBox="0 0 264 92" xmlns="http://www.w3.org/2000/svg">
  <path id="path5" d="M 41.307 41.739 C 42.567 37.969 43.695 34.155 44.871 30.356 C 45.162 29.419 45.434 28.478 45.714 27.538 C 45.75 27.334 46.785 23.707 47.179 22.076 C 47.651 20.124 48.158 18.166 48.394 16.179 C 48.539 14.948 49.079 14.313 50.14 13.986 C 50.758 13.795 51.1 13.478 51.741 13.431 C 52.267 13.393 52.633 13.26 52.876 12.776 C 53.082 12.365 53.614 12.111 53.889 11.746 C 54.093 11.474 54.352 11.152 54.649 11.062 C 55.498 10.805 56.405 10.723 57.245 10.444 C 58.305 10.092 59.531 9.839 60.302 9.127 C 61.091 8.397 61.824 8.001 62.842 7.923 C 63.786 7.85 64.606 7.485 64.91 6.495 C 65.099 5.881 65.567 5.605 66.041 5.3 C 66.474 5.211 66.714 5.038 66.767 4.517 C 66.82 3.996 64.869 4.287 64.74 4.156 C 64.14 3.544 64.198 3.423 64.988 3.124 C 65.503 2.929 66.068 2.867 66.61 2.746 C 66.939 2.667 67.269 2.588 67.596 2.51 C 68.376 2.408 69.154 2.298 69.934 2.206 C 71.287 2.046 72.642 1.909 73.991 1.734 C 74.307 1.693 74.646 1.596 74.905 1.422 C 75.144 1.261 75.472 0.698 75.481 0.423 C 75.489 0.148 74.947 -0.008 74.688 0.001 C 73.609 0.037 72.526 0.112 71.457 0.264 C 69.794 0.501 68.138 0.792 66.485 1.097 C 65.107 1.352 63.739 1.66 62.367 1.943 C 62.174 1.966 59.698 2.544 59.521 2.595 C 58.99 2.722 58.46 2.848 57.929 2.974 L 57.811 2.991 C 57.292 3.083 56.773 3.175 56.254 3.267 C 54.643 3.602 53.035 3.952 51.421 4.266 C 50.546 4.436 49.65 4.654 48.779 4.841 C 47.537 5.107 46.319 5.34 45.074 5.584 C 42.318 6.125 39.552 6.611 36.79 7.12 C 36.525 7.129 26.983 8.827 21.907 8.977 C 20.73 9.011 19.549 8.991 18.368 8.981 C 17.96 8.978 17.634 9.046 17.503 9.516 C 17.336 10.119 17.474 10.315 18.172 10.593 C 18.486 10.718 18.745 10.984 19.028 11.185 C 18.702 11.406 18.397 11.678 18.04 11.826 C 17.796 11.928 17.478 11.835 17.2 11.875 C 16.977 11.907 16.726 11.959 16.554 12.09 C 15.807 12.659 16.036 13.332 17.129 13.832 C 18.58 14.496 18.665 14.807 17.761 16.121 C 17.587 16.241 17.237 16.353 17.237 16.481 C 17.238 16.608 17.55 16.779 17.734 16.832 C 17.89 16.877 18.086 16.779 18.265 16.744 C 18.503 17.008 18.823 17.236 18.961 17.545 C 19.254 18.199 19.679 18.46 20.399 18.403 C 22.409 18.246 24.441 18.261 26.431 17.972 C 28.511 17.67 30.53 17.009 32.646 16.822 C 34.374 16.669 36.085 16.331 37.805 16.077 C 38.269 16.009 38.537 16.186 38.521 16.682 C 38.499 17.343 38.559 18.045 38.441 18.661 C 38.324 19.276 37.963 21.322 37.636 22.765 C 37.203 24.676 36.574 26.83 36.562 26.942 C 36.371 27.601 36.181 28.259 35.99 28.919 C 35.348 30.93 33.837 35.956 33.714 36.456 C 33.151 38.752 30.71 44.644 30.357 45.406 C 29.545 47.16 28.728 48.923 27.746 50.582 C 26.777 52.218 25.602 53.733 24.514 55.297 C 23.677 56.501 21.549 58.606 21.521 58.637 C 18.347 62.266 14.745 63.038 14.662 63.067 C 12.302 63.885 10.049 63.867 7.735 62.693 C 6.692 62.164 5.583 61.699 4.678 60.984 C 3.71 60.22 2.66 59.236 1.771 58.441 C 1.504 58.202 1.315 57.86 0.949 57.667 C 0.406 57.384 0.03 57.629 0.003 58.257 C -0.009 58.53 0.011 58.852 0.145 59.076 C 1.163 60.791 2.297 62.439 4.008 63.522 C 5.67 64.572 8.178 65.771 9.846 66.443 C 11.513 67.114 12.843 67.566 14.131 67.83 C 15.419 68.093 17.595 68.461 19.413 67.921 C 21.232 67.382 23.247 66.55 26.056 64.253 C 28.865 61.955 34.501 55.506 36.673 51.498 C 37.607 49.775 38.449 48.002 39.295 46.233 C 39.999 44.757 40.784 43.292 41.302 41.743 Z" style="fill: rgb(255, 255, 255);"/>
  <polygon id="polygon7" points="125.069 46.259 125.069 46.263 125.064 46.268" style="fill: rgb(255, 255, 255);"/>
  <path id="path9" d="M 76.551 12.376 L 75.694 12.159 L 75.661 12.15 C 75.604 11.358 75.57 10.564 75.48 9.776 C 75.431 9.348 75.589 8.766 74.89 8.668 L 74.884 8.676 C 74.44 8.306 73.478 8.603 73.478 8.603 C 73.478 8.603 72.511 8.783 72.315 9.292 C 71.714 9.37 71.115 9.507 70.514 9.514 C 68.479 9.537 68.485 9.522 67.739 11.407 C 67.644 11.648 67.447 11.847 67.297 12.065 C 67.127 11.869 66.851 11.694 66.808 11.473 C 66.666 10.736 66.193 10.592 65.565 10.646 C 64.945 10.699 64.938 11.156 64.808 11.641 C 64.495 12.814 64.185 14.045 63.15 14.824 C 61.901 15.764 61.402 17.102 60.992 18.514 C 60.683 19.583 60.57 20.746 59.536 21.473 C 59.391 21.575 59.254 22.273 59.299 22.364 C 58.419 23.543 55.716 27.546 55.321 28.34 C 54.889 29.208 54.37 30.076 54.169 31.005 C 54.004 31.771 53.788 32.419 53.249 32.966 C 52.202 33.541 52.453 34.569 52.376 35.482 C 52.2 35.765 52.023 36.051 51.847 36.335 C 51.716 36.523 51.585 36.712 51.453 36.901 C 51.387 36.972 51.321 37.044 51.254 37.115 C 51.076 37.322 51.051 37.583 50.719 37.738 C 50.388 37.892 49.227 38.312 48.46 38.53 C 47.296 38.859 47.045 39.019 47.082 39.647 C 47.134 40.504 47.773 40.532 48.407 40.572 C 48.937 40.605 49.048 40.932 48.85 41.357 C 48.236 42.677 47.631 44.006 46.958 45.296 C 45.371 48.338 42.052 54.652 42.01 54.783 C 41.707 55.551 41.404 56.319 41.101 57.088 L 41.094 57.383 C 40.974 57.55 40.852 57.717 40.731 57.883 C 40.664 57.994 40.595 58.105 40.527 58.216 C 40.507 58.31 40.487 58.404 40.467 58.498 C 40.133 59.114 39.636 59.697 39.505 60.355 C 39.359 61.085 39.093 61.711 38.628 62.226 C 37.646 63.317 38.003 64.506 38.275 65.697 C 38.363 66.082 38.699 66.123 38.906 65.873 C 39.26 65.451 39.562 64.97 39.811 64.476 C 40.081 63.938 40.237 63.341 40.507 62.802 C 40.585 62.645 40.899 62.501 41.075 62.53 C 41.2 62.552 41.393 62.908 41.35 63.057 C 41.2 63.586 40.945 64.086 40.77 64.61 C 40.725 64.742 40.745 65.047 40.862 65.086 C 40.979 65.125 41.256 64.999 41.311 64.887 C 41.657 64.169 41.949 63.425 42.284 62.701 C 42.873 61.43 43.472 60.164 44.089 58.907 C 44.154 58.777 44.401 58.617 44.502 58.651 C 44.632 58.695 44.729 58.912 44.789 59.072 C 44.836 59.197 44.827 59.354 44.805 59.491 C 44.563 60.955 44.311 62.416 44.07 63.878 C 44.057 63.957 44.11 64.117 44.137 64.119 C 44.262 64.124 44.458 64.127 44.501 64.054 C 44.635 63.826 44.716 63.564 44.809 63.313 C 45.228 62.184 45.315 60.891 46.47 60.131 C 46.676 59.995 46.868 59.659 46.867 59.418 C 46.862 58.366 49.309 53.119 49.6 52.558 L 49.607 52.552 C 49.837 51.972 52.592 46.296 53.134 44.842 C 53.2 44.662 54.079 42.733 54.139 42.654 C 54.527 41.805 54.915 40.954 55.302 40.104 C 55.888 39.816 56.456 39.483 57.062 39.246 C 60.152 38.044 67.406 35.058 67.767 35.146 C 67.771 35.237 67.774 35.935 67.778 36.028 C 67.784 36.218 67.791 36.409 67.798 36.599 C 67.793 37.911 67.764 39.223 67.79 40.535 C 67.812 41.57 68.074 44.941 67.996 45.578 C 67.874 46.578 67.834 47.513 68.284 48.479 C 68.702 49.375 68.88 50.37 68.6 51.378 L 68.58 51.408 C 68.575 51.79 68.569 52.175 68.563 52.559 L 68.563 52.561 C 68.632 53.258 68.626 53.952 69.191 54.52 C 69.579 54.91 69.875 55.035 70.198 54.548 C 70.432 54.199 70.57 54.253 70.818 54.53 C 71.449 55.237 71.8 55.997 71.62 56.984 C 71.561 57.306 71.707 57.7 71.858 58.014 C 71.941 58.188 72.082 58.508 72.421 58.386 C 72.76 58.264 72.728 57.939 72.755 57.701 C 72.809 57.236 72.739 56.756 72.785 56.289 C 72.826 55.879 72.909 55.459 73.067 55.082 C 73.158 54.863 73.411 54.662 73.638 54.575 C 73.719 54.544 73.968 54.848 74.086 55.033 C 74.233 55.269 74.279 55.577 74.448 55.79 C 74.854 56.303 75.416 56.209 75.603 55.587 C 75.722 55.189 75.775 54.753 75.764 54.336 C 75.716 52.591 75.564 50.846 75.582 49.103 C 75.617 45.608 75.742 42.112 75.823 38.618 C 75.903 35.169 75.959 31.721 76.056 28.273 C 76.085 27.24 76.278 26.21 76.288 25.178 C 76.318 21.819 76.619 18.488 77.15 15.173 C 77.308 14.187 77.137 13.252 76.608 12.394 L 76.556 12.387 Z M 66.367 30.892 C 65.802 31.124 65.198 31.264 64.632 31.495 C 64.394 31.592 63.855 31.973 63.855 31.973 C 63.855 31.973 63.63 32.241 63.564 32.328 C 63.157 32.524 62.748 32.884 62.341 32.883 C 61.322 32.879 60.632 33.315 60.112 34.13 C 59.986 34.329 59.895 34.566 59.728 34.722 C 59.611 34.832 59.373 34.908 59.228 34.867 C 59.098 34.829 58.924 34.6 58.937 34.471 C 58.975 34.057 59.02 33.62 59.189 33.249 C 59.874 31.752 60.566 30.255 61.33 28.798 C 62.534 26.503 63.798 24.239 65.036 21.962 C 65.241 21.588 65.391 21.189 65.986 21.351 C 66.188 21.406 66.479 21.214 66.7 21.084 C 66.912 20.958 67.084 20.767 67.273 20.606 C 67.321 20.88 67.408 21.155 67.409 21.43 C 67.419 24.034 67.385 26.64 67.428 29.243 C 67.446 30.089 67.093 30.597 66.371 30.892 Z" style="fill: rgb(255, 255, 255);"/>
  <path id="path11" d="M 130.336 10.129 C 130.052 10.022 129.768 9.913 129.486 9.806 C 129.485 9.736 129.463 9.675 129.419 9.625 C 129.406 9.612 130.267 8.567 129.778 8.06 C 129.646 7.957 128.911 7.702 128.779 7.599 C 128.713 7.187 128.636 6.776 128.583 6.361 C 128.495 5.694 128.089 5.529 127.494 5.64 C 127.302 5.777 127.11 5.913 126.917 6.05 L 126.833 6.048 L 125.935 5.977 C 125.288 6.17 125.547 6.514 124.901 6.707 C 124.754 6.815 124.607 6.922 124.46 7.03 C 124.018 7.406 123.708 7.62 123.167 8.371 C 122.626 9.122 122.004 10.347 121.627 11.028 C 121.251 11.708 119.703 15.749 119.677 15.799 C 119.553 15.913 116.966 21.649 116.112 23.572 C 115.447 25.068 114.573 26.861 113.923 28.664 C 113.273 30.467 112.649 33.216 112.503 33.386 C 112.454 33.51 112.405 33.635 112.356 33.76 L 112.163 34.334 C 112.137 34.522 112.113 34.71 112.087 34.899 C 111.903 35.932 111.626 37.345 111.429 37.976 C 111.231 38.606 110.807 39.318 110.567 40.019 C 110.371 41.356 110.143 42.689 109.991 44.032 C 109.874 45.06 109.852 46.099 109.789 47.133 C 109.829 47.508 109.87 47.881 109.911 48.258 C 110.099 48.926 110.142 49.244 110.476 50.264 C 110.81 51.284 112.216 52.24 112.216 52.24 C 113.877 53.175 116.676 53.172 117.937 52.306 C 119.198 51.44 120.063 50.86 120.607 50.382 C 121.15 49.905 123.897 47.719 125.198 46.266 C 126.498 44.812 126.987 44.114 127.371 43.729 C 127.565 44.4 127.377 44.983 126.96 45.514 C 126.872 45.769 126.783 46.024 126.693 46.278 C 126.624 47.438 126.5 48.597 126.496 49.757 C 126.491 51.316 127.113 54.587 128.736 54.87 C 130.359 55.153 130.626 55.163 131.583 54.675 C 132.328 54.296 133.179 54.101 134.002 53.912 C 134.597 53.777 134.799 54.063 134.538 54.631 C 134.242 55.273 133.901 55.897 133.543 56.508 C 132.117 58.951 130.701 61.399 129.245 63.826 C 128.666 64.791 128.995 64.923 129.779 64.934 C 129.92 64.937 129.638 65.722 129.661 65.983 C 129.736 66.815 130.141 67.065 130.83 66.584 C 131.233 66.301 131.539 65.852 131.824 65.434 C 132.112 65.01 132.296 64.514 132.583 64.089 C 132.636 64.009 133.07 64.041 133.143 64.149 C 133.325 64.412 133.046 65.045 133.652 64.934 C 133.939 64.882 134.168 64.466 134.406 64.201 C 134.562 64.024 134.676 63.812 134.827 63.631 C 135.079 63.324 135.319 63.21 135.58 63.654 C 135.846 64.109 136.237 64.009 136.514 63.698 C 136.951 63.205 137.392 62.695 137.703 62.122 C 138.529 60.59 139.307 59.029 140.065 57.462 C 140.34 56.894 140.638 56.47 141.341 56.654 C 141.932 56.809 142.186 56.535 142.374 56.003 C 142.641 55.246 142.935 54.491 143.317 53.789 C 144.579 51.478 145.888 49.192 147.174 46.895 C 148.208 45.048 149.234 43.194 150.261 41.344 C 150.814 40.347 151.246 39.268 151.914 38.338 C 152.791 37.119 154.483 36.864 155.009 36.919 C 155.534 36.974 156.096 36.656 156.338 36.41 C 156.58 36.166 156.638 36.198 156.981 35.976 C 157.324 35.754 157.544 35.571 157.709 35.451 C 157.872 35.331 160.391 34.334 160.921 33.815 C 161.942 32.814 163.521 32.231 164.931 32.119 C 165.064 32.77 165.099 33.475 165.106 34.138 C 165.119 35.627 165.088 37.118 165.077 38.606 C 165.067 38.802 165.056 38.998 165.046 39.193 C 164.662 40.149 165.072 41.014 165.322 41.912 C 165.441 42.336 165.564 42.876 165.407 43.243 C 164.887 44.445 165.132 45.668 165.158 46.882 C 165.168 47.363 165.355 47.854 166.002 47.788 C 166.536 47.735 166.617 48.017 166.653 48.46 C 166.723 49.305 166.851 50.146 166.957 50.989 C 167.056 51.782 167.136 52.58 167.269 53.369 C 167.339 53.787 167.511 54.116 168.001 54.304 C 168.796 54.61 168.821 54.74 168.428 55.54 C 168.206 55.993 167.976 56.391 168.432 56.81 C 169.188 57.503 169.22 58.254 168.651 59.079 C 168.31 59.575 168.37 59.983 169.019 60.128 C 169.567 60.252 169.602 60.702 169.66 61.107 C 169.708 61.428 169.644 61.764 169.62 62.093 C 169.59 62.537 169.735 62.843 170.228 62.853 C 170.659 62.863 170.772 62.585 170.791 62.205 C 170.894 60.133 170.978 58.062 171.13 55.995 C 171.194 55.113 171.567 53.025 171.579 52.855 C 171.667 51.991 171.927 49.862 171.971 49.663 C 172.058 47.393 172.263 41.587 172.391 39.452 C 172.52 37.317 173.193 27.303 173.238 25.797 C 173.187 25.7 174.485 16.282 174.922 14.145 C 175.36 12.008 175.333 10.084 175.28 9.864 C 175.227 9.644 174.296 9.388 173.778 9.302 C 172.738 9.132 171.681 9.069 170.629 8.962 C 169.945 8.876 170.085 8.036 170.027 7.888 C 169.971 7.74 167.744 7.101 167.298 7.334 C 166.852 7.567 166.745 9.722 166.638 10.718 C 166.36 11.194 166.085 11.671 165.808 12.148 C 165.604 12.333 165.4 12.521 165.195 12.707 C 165.115 12.791 165.031 12.874 164.951 12.957 C 164.402 13.302 163.854 13.647 163.306 13.991 C 162.523 14.829 161.741 15.665 160.956 16.503 C 160.905 16.559 160.504 17.063 160.39 17.215 C 159.964 17.803 158.964 19.08 158.954 19.181 C 158.798 19.397 158.64 19.612 158.482 19.827 C 158.482 19.827 158.129 19.964 158.076 20.061 C 157.405 21.286 156.75 22.522 156.091 23.755 C 156.091 23.755 155.617 23.984 155.364 24.107 C 155.146 24.277 154.928 24.447 154.71 24.616 C 154.622 24.645 153.267 26.421 152.545 27.179 C 152.396 27.336 152.127 27.892 152.13 27.981 C 151.16 28.385 151.282 29.915 151.14 30.096 C 150.997 30.278 150.342 30.583 150.172 30.901 C 149.679 31.826 149.086 33.464 148.859 33.762 C 148.634 34.061 148.292 34.359 148.075 34.562 C 147.931 34.619 147.789 34.677 147.644 34.735 C 147.023 34.799 146.735 35.599 146.654 35.767 C 146.572 35.935 146.357 35.967 146.209 36.067 C 146.103 36.14 145.996 36.213 145.888 36.288 L 145.905 36.271 C 145.688 36.365 145.472 36.461 145.256 36.555 C 143.893 37.382 142.529 38.201 141.178 39.047 C 141.062 39.119 140.954 39.416 141.011 39.522 C 141.487 40.437 141.19 41.16 140.516 41.816 C 140.459 41.871 140.417 42.046 140.437 42.059 C 140.545 42.131 140.699 42.24 140.796 42.208 C 141.377 42.016 141.939 41.768 142.522 41.584 C 142.726 41.521 143.114 41.511 143.167 41.612 C 143.277 41.818 143.286 42.134 143.216 42.371 C 143.142 42.629 142.935 42.851 142.781 43.086 C 142.242 43.912 140.845 45.765 140.74 45.908 C 139.969 46.97 139.221 48.051 138.444 49.11 C 137.989 49.733 137.487 50.062 136.775 49.517 C 136.261 49.122 135.771 48.693 135.27 48.282 C 135.235 47.993 135.2 47.706 135.164 47.417 C 135.366 46.317 135.423 45.221 135.942 44.151 C 136.672 42.649 137.116 41.007 137.668 39.419 C 138.271 37.688 138.858 35.951 139.448 34.216 C 139.749 33.331 140.045 32.44 140.331 31.548 C 141.327 29.559 142.336 27.576 143.309 25.577 C 143.822 24.526 144.272 23.446 144.751 22.378 C 144.832 22.355 144.864 22.302 144.851 22.22 C 145.729 20.517 146.679 18.846 147.447 17.095 C 147.728 16.451 147.69 15.599 147.577 14.878 C 147.523 14.536 146.961 14.258 146.605 13.983 C 146.226 13.69 146.231 13.43 146.488 13.029 C 147.01 12.209 146.933 11.704 146.371 11.028 C 145.925 10.489 145.337 10.407 144.711 10.433 C 143.921 10.463 143.171 10.453 142.37 10.225 C 141.712 10.038 140.778 9.737 140.189 10.604 L 140.132 10.661 C 139.909 11.061 136.401 17.167 136.207 17.481 L 135.215 19.007 C 134.961 19.389 135.545 20.001 135.419 20.306 C 135.292 20.611 134.985 20.157 134.502 20.641 C 134.471 20.651 134.077 22.049 133.751 23.333 C 133.724 23.441 134.148 23.554 134.119 23.668 C 134.095 23.76 133.619 24.156 133.595 24.252 C 133.353 25.206 133.082 25.978 132.824 26.971 C 132.777 27.153 132.881 27.181 132.835 27.357 C 132.79 27.529 132.594 27.395 132.551 27.559 C 132.305 28.485 132.089 29.705 131.95 30.099 C 131.911 30.213 132.023 30.325 131.984 30.439 C 131.928 30.596 131.723 30.753 131.669 30.911 C 131.015 32.8 130.395 34.697 129.825 36.613 C 129.774 36.741 129.723 36.872 129.67 36.999 C 129.209 37.62 128.747 38.24 128.286 38.86 C 128.02 39.097 127.754 39.332 127.489 39.567 C 127.49 39.619 127.489 39.671 127.485 39.718 C 127.489 39.67 127.49 39.619 127.489 39.567 C 127.284 39.802 127.08 40.037 126.881 40.273 C 126.746 40.382 126.611 40.493 126.475 40.602 C 126.383 40.625 126.327 40.683 126.308 40.777 C 126.201 40.888 126.095 40.999 125.988 41.11 C 125.987 41.098 125.989 41.089 125.987 41.078 C 125.671 41.395 125.355 41.712 125.039 42.03 C 125.115 42.027 125.186 42.021 125.255 42.011 C 125.186 42.021 125.115 42.027 125.039 42.03 C 124.909 42.145 124.779 42.26 124.65 42.374 C 124.491 42.541 124.333 42.706 124.175 42.872 C 124.09 42.903 123.675 43.298 123.494 43.42 C 123.411 43.463 123.319 43.494 123.246 43.548 C 121.152 45.133 119.059 46.718 116.968 48.305 C 116.801 48.36 116.804 48.373 116.47 48.472 C 116.134 48.571 115.175 48.432 115.145 48.023 C 115.113 47.614 115.459 45.264 115.825 43.885 C 116.564 41.108 117.539 38.45 118.846 35.901 C 119.352 34.913 119.848 33.558 120.286 32.896 C 120.723 32.235 121.603 31.057 121.916 30.426 C 122.229 29.795 122.398 28.601 122.818 27.781 C 123.587 26.282 124.461 24.832 125.362 23.405 C 125.947 22.478 126.439 21.572 126.552 20.436 C 126.626 19.672 126.942 18.905 127.118 18.644 C 127.294 18.384 127.737 18.003 127.824 17.833 C 128.396 16.71 128.927 15.565 129.471 14.428 C 129.471 14.428 130.603 12.609 131.039 11.642 C 131.482 10.648 131.436 10.627 130.332 10.117 M 127.468 39.808 C 127.466 39.817 127.465 39.829 127.463 39.839 C 127.468 39.829 127.468 39.818 127.468 39.808 Z M 136.213 17.466 L 136.261 17.53 L 136.215 17.474 L 136.215 17.466 Z M 164.517 22.21 C 164.248 22.937 164.002 23.598 164.067 24.38 C 164.097 24.74 163.977 25.12 163.881 25.478 C 163.756 25.946 163.456 26.181 162.94 26.133 C 161.581 26.009 160.641 26.751 159.79 27.685 C 159.604 27.889 159.387 28.11 159.138 28.204 C 158.62 28.397 158.071 28.51 157.537 28.656 C 157.651 28.175 157.711 27.671 157.895 27.216 C 158.157 26.57 158.432 25.904 158.838 25.346 C 160.356 23.256 161.93 21.207 163.495 19.153 C 164.186 18.247 164.067 19.14 164.395 19.218 C 164.486 19.24 164.738 18.786 164.828 18.814 C 164.943 18.852 164.979 18.967 165.031 19.065 C 165.08 19.155 165.118 19.25 165.147 19.349 C 165.215 19.582 165.234 19.829 165.221 20.071 C 165.196 20.563 165.008 21.016 164.824 21.466 C 164.716 21.714 164.604 21.96 164.512 22.21 Z" style="fill: rgb(255, 255, 255);"/>
  <path id="path13" d="M 198.901 37.151 C 199.33 37.292 200.313 37.55 201.026 37.728 C 201.91 37.951 202.686 38.322 203.313 39.027 C 204.12 39.937 204.995 40.788 205.833 41.671 C 206.022 41.869 206.237 42.073 206.345 42.317 C 207.06 43.938 207.964 45.354 209.77 45.96 C 210.15 46.086 210.459 46.431 210.789 46.689 C 211.037 46.885 211.245 47.138 211.51 47.309 C 212.613 48.024 213.75 48.687 214.834 49.431 C 215.602 49.959 216.302 50.588 217.033 51.171 C 217.134 51.249 217.233 51.325 217.333 51.401 C 217.99 51.983 218.649 52.564 219.307 53.146 C 223.205 57.046 226.961 61.116 231.802 63.919 C 232.18 64.151 232.559 64.385 232.936 64.618 C 233.198 64.775 233.458 64.931 233.718 65.088 C 233.939 65.253 234.156 65.419 234.375 65.584 C 235.502 66.432 236.655 67.248 237.75 68.135 C 239.579 69.619 241.364 71.154 243.181 72.65 C 243.726 73.099 248.926 76.612 249.505 77.016 C 249.561 77.055 251.103 77.475 249.887 76.442 C 249.103 75.776 245.387 73.507 245.351 73.475 C 244.288 72.553 242.919 71.804 241.868 70.867 C 240.464 69.617 239.082 68.344 237.693 67.076 C 236.034 65.56 234.63 63.743 232.539 62.738 C 232.297 62.622 232.058 62.404 231.928 62.17 C 230.94 60.397 229.348 59.181 227.894 57.864 C 226.895 56.957 225.633 56.347 224.55 55.522 C 223.167 54.47 221.845 53.337 220.496 52.24 C 220.374 52.113 220.252 51.984 220.13 51.857 C 219.529 51.308 218.929 50.759 218.329 50.212 C 217.276 49.433 216.232 48.64 215.165 47.881 C 214.709 47.558 214.193 47.318 213.719 47.016 C 213.561 46.914 213.201 46.741 213.627 46.543 C 214.31 46.222 213.893 46.036 213.579 45.796 C 211.675 44.338 209.817 42.841 208.228 41.014 C 207.634 40.332 206.723 39.928 205.962 39.391 C 205.698 39.204 205.411 39.028 205.201 38.79 C 204.147 37.6 203.549 36.038 202.184 35.098 C 202.046 35.003 201.97 34.784 201.92 34.607 C 201.874 34.448 201.907 34.27 201.905 34.1 C 202.072 34.116 202.3 34.068 202.401 34.159 C 202.896 34.596 203.343 35.082 203.83 35.525 C 204.1 35.77 204.395 36.106 204.715 36.151 C 205.337 36.239 205.746 36.432 205.987 37.061 C 206.087 37.32 206.482 37.472 206.754 37.655 C 207.532 38.181 208.337 38.668 209.089 39.23 C 209.512 39.547 209.83 39.966 210.439 39.586 C 210.557 39.513 210.898 39.628 211.024 39.762 C 212.554 41.421 214.055 43.106 215.582 44.769 C 216.27 45.518 216.834 46.396 217.822 46.847 C 218.355 47.09 218.885 47.421 219.299 47.83 C 220.031 48.558 220.716 49.343 221.344 50.164 C 222.059 51.104 222.934 51.753 224.083 52.028 C 224.386 52.251 224.693 52.473 224.997 52.697 C 225.408 53.006 225.82 53.316 226.23 53.624 C 227.318 54.436 228.407 55.249 229.494 56.062 C 229.684 56.225 229.876 56.386 230.067 56.548 C 230.174 56.636 230.279 56.726 230.386 56.815 C 230.561 56.954 230.738 57.094 230.913 57.233 C 231.005 57.289 231.097 57.345 231.189 57.401 C 232.506 58.459 233.838 59.499 235.134 60.578 C 236.872 62.025 238.569 63.519 240.314 64.955 C 241.616 66.027 243.082 66.9 244.191 68.205 C 244.339 68.379 244.558 68.567 244.767 68.6 C 245.11 68.652 245.598 68.721 245.803 68.535 C 246.149 68.22 245.828 67.873 245.546 67.591 C 245.051 67.092 244.436 66.64 244.139 66.036 C 243.856 65.459 243.489 65.129 242.947 64.945 C 240.726 64.188 239.15 62.548 237.498 61.011 C 236.088 59.699 234.677 58.387 233.268 57.075 C 232.871 56.702 232.475 56.329 232.079 55.957 C 231.988 55.868 231.897 55.778 231.807 55.69 C 231.588 55.47 231.37 55.25 231.153 55.029 C 231 54.857 230.846 54.685 230.693 54.513 C 230.14 54.015 229.62 53.469 229.025 53.029 C 228.122 52.363 227.114 51.834 226.246 51.13 C 225.384 50.431 224.498 49.685 223.881 48.784 C 223.133 47.688 222.377 46.758 221.017 46.479 C 220.754 46.424 220.534 46.195 220.287 46.06 C 218.975 45.344 218.105 44.145 217.141 43.072 C 216.204 42.028 215.406 40.859 214.547 39.746 C 214.44 39.641 214.333 39.535 214.227 39.43 C 213.754 38.797 213.353 38.089 212.792 37.545 C 212.023 36.798 211.135 36.173 210.296 35.498 C 209.529 34.883 209.52 34.558 210.362 34.023 C 210.833 33.722 211.408 33.592 211.88 33.293 C 214.79 31.452 217.587 29.472 219.594 26.585 C 220.196 25.595 220.912 24.654 221.378 23.604 C 222.232 21.682 222.349 19.659 222.186 17.539 C 222.021 15.411 221.255 13.662 219.92 12.085 C 219.908 11.992 219.22 11.317 219.149 11.241 C 218.882 10.972 218.267 10.449 216.544 9.128 C 214.821 7.806 212.375 6.498 210.229 6.217 C 208.082 5.935 205.121 6.373 203.829 6.491 C 203.613 6.51 203.339 6.627 203.213 6.791 C 202.613 7.573 201.702 7.697 200.862 7.977 C 200.162 7.961 199.46 7.915 198.761 7.938 C 198.031 7.963 197.301 8.055 196.572 8.118 C 196.309 8.134 195.619 8.223 195.538 8.25 C 195.202 8.306 194.008 8.591 193.791 8.663 C 192.508 9.248 188.875 10.619 188.122 10.916 C 187.371 11.213 187.055 11.208 186.018 11.428 C 185.576 11.522 185.063 11.85 184.603 12.133 L 184.453 12.246 C 183.953 12.501 183.454 12.758 182.952 13.013 C 182.681 13.177 182.41 13.341 182.139 13.505 C 181.66 13.713 181.18 13.923 180.699 14.131 C 180.522 14.205 180.117 14.283 179.866 14.433 C 179.615 14.585 178.953 15.221 178.876 15.553 C 178.799 15.886 178.75 16.113 178.687 16.393 C 178.622 16.617 178.558 16.841 178.492 17.064 C 178.492 17.064 178.445 17.172 178.444 17.172 C 178.295 17.522 177.758 17.676 177.445 17.809 C 177.015 17.993 176.465 18.148 176.096 18.443 C 175.757 18.715 175.695 19.153 175.541 19.536 C 175.423 19.826 175.454 20.281 175.583 20.562 C 175.709 20.837 176.246 21.344 176.536 21.389 C 176.869 21.439 177.371 21.473 177.532 21.54 C 177.692 21.607 178.177 22.142 178.146 22.366 C 178.116 22.59 178.292 23.166 178.748 23.326 C 179.074 23.38 179.401 23.433 179.728 23.488 C 180.058 23.502 180.388 23.516 180.719 23.53 C 180.797 23.62 180.876 23.709 180.954 23.797 C 181.097 24.233 181.329 24.534 181.851 24.402 C 182.232 24.403 182.949 24.556 183.707 24.397 C 184.465 24.239 184.837 23.979 185.366 23.7 C 185.933 23.4 186.455 23.016 186.996 22.669 C 187.31 22.418 187.67 22.309 187.641 22.863 C 187.581 23.995 187.302 25.085 186.676 26.055 C 186.633 26.157 186.591 26.26 186.55 26.362 C 186.259 27.885 182.874 36.328 182.422 38.028 C 181.969 39.73 181.53 41.489 181.402 41.792 C 181.373 41.916 181.346 42.038 181.317 42.161 C 181.133 42.743 180.911 43.318 180.783 43.911 C 180.699 44.3 180.48 45.242 180.775 45.102 C 181.701 44.667 181.103 45.668 180.271 46.233 C 179.773 46.266 178.411 49.334 178.244 50.926 C 178.142 51.906 177.487 53.34 177.737 53.738 C 177.787 53.819 177.965 53.99 177.864 54.031 C 177.189 54.305 176.707 57.091 176.707 57.091 C 176.707 57.091 176.93 57.213 176.819 57.325 C 176.707 57.438 176.693 57.466 176.616 57.534 C 176.48 57.67 175.725 59.239 175.583 59.601 C 175.524 59.706 174.818 61.143 174.73 61.313 C 174.237 62.01 174.071 63.796 174.255 64.673 C 174.378 65.253 174.499 64.563 174.511 65.159 C 174.514 65.3 174.478 65.384 174.478 65.518 C 174.479 65.8 174.649 67.434 174.888 67.543 C 175.332 67.748 175.364 67.267 175.508 67 C 175.552 66.92 175.624 66.856 175.684 66.785 C 175.657 66.683 176.087 66.225 176.179 66.175 C 176.272 66.206 175.763 67.622 176.114 67.526 C 176.466 67.432 177.502 63.944 177.619 63.687 C 177.822 63.299 178.025 62.912 178.228 62.524 C 178.403 62.471 178.577 62.418 178.751 62.365 C 178.931 62.419 179.11 62.472 179.287 62.526 C 179.349 62.62 179.41 62.716 179.472 62.81 C 179.476 63.087 179.445 63.369 179.498 63.636 C 179.524 63.773 179.696 63.881 179.801 64.003 C 179.912 63.879 180.023 63.758 180.134 63.633 C 180.222 63.422 180.304 63.21 180.393 62.999 C 181.335 60.768 182.278 58.537 183.217 56.306 C 183.422 55.818 183.543 55.298 183.758 54.814 C 183.793 54.734 184.529 53.562 184.657 53.761 C 184.755 53.912 184.919 54.056 184.935 54.215 C 184.96 54.488 184.846 54.777 184.881 55.048 C 184.906 55.243 185.057 55.547 185.191 55.571 C 185.359 55.6 185.623 55.434 185.748 55.275 C 185.948 55.021 186.13 54.72 186.214 54.41 C 186.4 53.7 187.599 47.449 189.014 41.347 C 190.401 35.364 192.302 28.961 192.496 28.961 C 192.932 28.961 193.137 28.752 193.218 28.358 C 193.411 27.502 193.605 26.646 193.798 25.79 C 193.9 25.442 194 25.095 194.099 24.747 C 194.198 24.525 194.297 24.302 194.395 24.079 C 194.686 23.541 194.956 22.99 195.272 22.469 C 195.525 22.052 195.819 21.899 196.01 22.53 C 196.152 23.001 196.466 23.082 196.679 22.673 C 197.151 21.765 197.672 20.84 197.891 19.859 C 198.051 19.138 198.387 18.788 198.961 18.518 C 202.367 16.92 205.706 17.065 208.97 18.926 C 210.318 19.696 210.897 20.769 210.572 22.06 C 210.275 23.249 209.834 24.379 209.064 25.377 C 208 26.758 206.994 28.187 205.997 29.619 C 205.173 30.801 203.139 30.998 202.092 29.978 C 201.586 29.484 201.068 28.996 200.508 28.568 C 200.026 28.198 199.354 28.339 199.196 28.84 C 199.044 29.319 198.9 29.854 199.411 30.272 C 199.926 30.69 200.479 31.078 200.905 31.574 C 201.146 31.854 201.302 32.354 201.233 32.702 C 201.185 32.946 200.703 33.244 200.396 33.269 C 199.797 33.318 199.183 33.165 198.574 33.152 C 198.267 33.144 197.809 33.156 197.673 33.343 C 197.37 33.76 196.898 34.318 196.873 34.855 C 196.831 35.535 198.516 37.02 198.893 37.145 Z" style="fill: rgb(255, 255, 255);"/>
  <path id="path15" d="M 245.487 77.407 C 243.996 76.514 242.484 75.658 240.991 74.769 C 240.036 74.199 238.978 73.729 238.184 72.982 C 234.547 69.562 231.012 66.033 227.389 62.6 C 225.996 61.28 224.556 59.999 222.643 59.4 C 221.798 59.136 220.997 58.696 220.227 58.247 C 219.76 57.974 219.27 57.6 219.007 57.148 C 217.984 55.386 216.31 54.327 214.814 53.074 C 213.05 51.73 211.982 49.63 209.947 48.577 C 209.785 48.494 209.644 48.346 209.53 48.198 C 208.19 46.446 206.752 44.79 205.096 43.318 C 203.39 41.801 201.966 39.974 199.985 38.758 C 199.517 38.472 199.156 38.001 198.779 37.583 C 198.737 37.537 197.91 36.741 197.383 36.443 C 196.854 36.144 195.625 35.831 194.734 35.558 C 193.633 35.219 193.177 35.538 193.007 36.715 C 192.946 37.135 192.914 37.563 192.916 37.987 C 192.919 38.867 193.064 39.001 193.98 39.126 C 194.347 39.177 194.827 39.138 195.055 39.353 C 195.622 39.894 196.253 39.873 196.905 39.768 C 197.558 39.662 197.926 39.925 198.321 40.432 C 199.069 41.39 199.813 42.411 200.765 43.13 C 201.985 44.051 202.944 45.195 204.005 46.254 C 205.235 47.479 206.267 48.896 207.906 49.701 C 208.518 50.002 208.901 50.775 209.387 51.334 C 209.878 51.897 210.287 52.569 210.871 53.001 C 211.811 53.699 212.866 54.24 213.873 54.847 C 214.237 55.138 214.609 55.42 214.963 55.723 C 215.709 56.366 216.552 56.935 217.15 57.696 C 217.669 58.356 218.17 58.798 218.995 59.056 C 219.828 59.318 220.652 59.785 221.324 60.347 C 223.423 62.103 225.454 63.938 227.498 65.76 C 228.902 67.012 230.213 68.378 232.143 68.863 C 232.562 68.967 232.923 69.357 233.282 69.649 C 234.077 70.297 234.856 70.965 235.641 71.624 C 235.865 71.796 236.09 71.968 236.314 72.14 C 236.374 72.212 236.426 72.296 236.498 72.354 C 238.752 74.207 241.341 75.606 243.484 77.62 C 243.892 78.002 244.737 77.83 245.179 78.244 C 252.032 84.671 252.178 83.202 252.414 83.093 C 252.279 82.906 245.658 77.506 245.48 77.399 Z" style="fill: rgb(255, 255, 255);"/>
  <path id="path17" d="M 234.753 76.146 C 234.528 75.468 234.058 75.165 233.588 74.834 C 232.979 74.404 232.289 74.09 231.643 73.711 C 230.721 73.167 229.74 72.703 229.35 71.551 C 229.244 71.243 228.864 70.866 228.561 70.815 C 227.265 70.592 226.571 69.203 225.205 69.136 C 225.036 69.128 224.885 68.816 224.72 68.653 C 224.386 68.323 224.021 68.021 223.717 67.667 C 223.036 66.867 221.87 66.549 221.516 65.406 C 221.466 65.243 221.065 65.156 220.812 65.1 C 219.458 64.799 218.358 64.133 217.85 62.795 C 217.484 61.83 216.779 61.173 216.122 60.442 C 215.566 59.823 214.949 59.543 214.135 59.648 C 213.464 59.735 212.954 59.534 212.634 58.873 C 212.498 58.591 212.199 58.388 211.975 58.148 C 211.666 57.794 211.358 57.44 211.05 57.087 C 210.971 56.98 210.894 56.872 210.816 56.766 C 210.81 56.673 210.774 56.595 210.708 56.531 C 210.577 55.712 210.186 55.071 209.448 54.664 C 208.293 53.703 207.071 52.81 205.998 51.763 C 204.549 50.35 203.154 48.885 202.675 46.768 C 202.531 46.136 202.021 45.499 201.512 45.063 C 200.66 44.333 199.717 43.681 198.732 43.146 C 197.254 42.344 195.821 41.406 194.113 41.112 C 193.575 41.02 193.024 40.805 192.649 41.391 C 192.407 41.769 192.708 42.03 193.023 42.257 C 193.21 42.391 193.438 42.552 193.649 42.554 C 194.64 42.565 195.063 43.238 195.319 44.02 C 195.667 45.091 196.338 45.583 197.458 45.737 C 198.374 45.863 199.356 46.197 199.681 47.223 C 200.25 49.017 201.469 50.286 202.886 51.382 C 204.197 52.398 205.34 53.552 206.313 54.889 C 206.504 55.151 206.685 55.437 206.931 55.638 C 207.908 56.431 208.907 57.197 209.899 57.972 C 209.999 58.065 210.098 58.157 210.199 58.251 C 210.484 58.537 210.771 58.824 211.056 59.11 C 211.805 60.483 212.955 61.317 214.476 61.649 C 214.672 61.726 214.871 61.803 215.068 61.879 C 215.408 62.172 215.781 62.434 216.082 62.764 C 216.611 63.344 217.062 63.997 217.605 64.562 C 217.992 64.965 218.471 65.28 218.916 65.628 C 220.437 66.822 221.933 68.054 223.492 69.196 C 225.08 70.359 226.744 71.42 228.355 72.553 C 229.084 73.066 229.801 73.608 230.456 74.208 C 231.568 75.223 232.656 76.245 234.02 76.933 C 234.576 77.215 235.045 77.67 235.552 78.046 C 235.64 78.057 242.153 82.466 242.774 82.999 C 243.137 83.311 245.781 85.006 248.188 86.868 C 249.894 88.189 251.355 89.704 252.36 90.382 C 256.909 93.451 255.189 91.209 255.334 91.227 C 255.204 91.028 238.466 78.839 238.337 78.64 C 237.881 78.173 234.943 76.707 234.756 76.147 Z" style="fill: rgb(255, 255, 255);"/>
  <path id="path19" d="M 185.085 56.637 C 184.728 56.637 184.354 56.897 184.027 57.111 C 183.897 57.196 183.846 57.438 183.806 57.618 C 183.686 58.166 183.595 58.72 183.481 59.27 C 183.324 60.027 183.434 60.87 182.647 61.411 C 182.292 61.655 182.504 62.007 182.741 62.262 C 183.038 62.579 183.389 62.505 183.58 62.198 C 183.95 61.605 184.284 60.978 184.553 60.332 C 184.926 59.436 185.437 58.051 185.592 57.49 C 185.746 56.934 185.252 56.64 185.085 56.64 Z" style="fill: rgb(255, 255, 255);"/>
  <path id="path21" d="M 90.331 54.733 C 92.348 55.574 94.628 55.823 96.879 55.358 C 97.806 55.167 98.019 55.103 99.523 54.216 C 101.028 53.329 102.056 51.195 102.363 51.083 C 102.671 50.972 103.633 50.918 103.928 51.168 C 104.102 51.314 104.565 51.919 105.147 52.371 C 105.729 52.824 105.152 52.781 105.592 53.394 C 106.032 54.008 106.662 53.336 106.673 53.642 C 106.684 53.948 106.912 54.194 107.411 54.192 C 107.912 54.191 107.807 52.242 107.702 51.115 C 107.599 50.464 107.369 47.939 107.416 47.387 C 107.463 46.836 107.617 45.891 107.718 45.142 C 107.681 44.176 108.527 40.991 108.664 40.303 C 108.602 40.208 109.265 38.38 109.65 36.602 C 110.037 34.824 110.327 32.712 110.347 32.054 C 110.386 31.026 110.579 29.294 110.463 28.969 C 110.347 28.642 109.715 28.776 109.476 28.909 C 109.238 29.043 109.353 29.13 109.291 29.241 L 109.28 29.288 C 109.234 29.281 109.193 29.293 109.162 29.338 C 108.28 29.493 107.822 28.609 107.473 28.478 C 107.124 28.347 106.874 28.318 106.449 28.385 C 106.025 28.452 104.453 30.025 103.699 30.378 C 102.946 30.732 100.409 31.868 99.534 31.738 C 99.46 31.81 99.372 31.835 99.271 31.813 C 98.933 32.164 98.622 32.782 98.25 32.821 C 96.427 33.015 95.384 34.372 94.107 35.387 C 93.884 35.678 93.568 35.937 93.453 36.266 C 93.11 37.25 92.739 37.883 91.75 38.405 C 91.695 38.434 91.647 38.586 91.675 38.629 C 91.717 38.693 91.827 38.743 91.91 38.746 C 92.536 38.767 93.279 38.231 93.279 38.231 C 93.279 38.231 96.357 36.906 97.889 36.229 C 98.552 35.935 99.176 35.767 99.901 36.117 C 100.177 36.251 100.603 36.075 100.96 36.04 L 101.381 35.796 C 101.525 35.759 101.668 35.721 101.812 35.684 L 102.079 35.657 C 102.273 35.688 102.469 35.721 102.665 35.752 C 102.311 36.817 102.145 38.699 102.093 39.038 C 102.042 39.376 101.917 39.565 101.842 39.835 C 101.73 40.237 101.604 40.639 101.543 41.051 C 101.345 42.382 101.081 43.715 101.027 45.056 C 100.993 45.885 101.486 47.162 101.745 47.466 C 102.004 47.77 102.291 48.195 101.844 48.568 C 101.395 48.942 101.047 49.287 100.649 49.648 C 100.151 49.833 99.17 50.593 97.728 50.817 C 96.285 51.04 95.039 50.983 93 50.07 C 90.959 49.158 89.302 47.498 88.176 46.477 C 87.05 45.455 85.404 41.536 85.288 39.762 C 85.172 37.988 85.34 36.189 85.394 35.469 C 85.448 34.749 85.85 32.326 86.496 30.652 C 87.142 28.979 89.019 26.658 89.28 26.364 C 90.253 25.421 91.226 24.478 92.2 23.535 C 93.305 22.692 95.054 21.173 97.549 19.785 C 98.115 19.508 101.242 17.718 103.615 17.53 C 104.306 17.475 104.98 17.201 105.641 16.966 C 106.241 16.753 106.586 16.329 106.303 15.652 C 106.108 15.185 106.114 14.733 106.636 14.603 C 107.294 14.439 106.701 13.424 106.39 13.496 C 106.054 13.574 105.72 13.719 105.241 13.408 C 104.719 13.068 104.28 12.39 104.104 11.52 C 104.032 11.16 104.594 11.179 104.239 10.7 C 103.884 10.223 103.195 10.519 102.9 10.277 C 102.802 10.242 102.704 10.208 102.607 10.173 C 102.239 10.126 101.873 10.08 101.506 10.034 C 101.449 9.983 101.391 9.932 101.334 9.881 C 100.966 9.444 100.539 9.393 99.96 9.441 C 98.249 9.582 96.68 10.24 95.04 10.631 C 94.455 10.837 93.869 11.043 93.283 11.249 C 93.027 11.45 92.781 11.663 92.516 11.848 C 91.828 12.332 91.131 12.804 90.438 13.281 C 90.353 13.37 90.268 13.459 90.183 13.548 L 90.157 13.582 C 89.938 13.863 89.719 14.143 89.5 14.425 C 89.433 14.512 89.368 14.599 89.303 14.685 C 89.113 14.871 88.924 15.057 88.734 15.242 C 88.633 15.333 88.532 15.424 88.432 15.515 C 88.26 15.624 88.089 15.732 87.917 15.841 L 87.9 15.859 C 87.792 16.043 87.684 16.226 87.575 16.411 L 87.557 16.522 C 87.408 16.676 87.259 16.831 87.11 16.985 C 86.98 17.138 86.849 17.29 86.719 17.442 C 86.621 17.563 86.523 17.683 86.426 17.803 L 86.155 18.043 C 85.992 18.257 85.829 18.472 85.665 18.686 L 85.632 18.723 C 85.418 18.981 85.206 19.238 84.993 19.497 L 84.775 19.854 L 83.765 21.539 C 83.671 21.578 83.619 21.649 83.611 21.752 C 83.52 21.966 83.43 22.181 83.339 22.395 C 83.243 22.564 83.147 22.735 83.05 22.905 L 83.05 22.905 C 82.092 23.648 81.578 24.667 81.265 25.809 C 81.199 25.891 81.133 25.973 81.068 26.054 C 80.956 26.352 80.843 26.65 80.73 26.948 C 80.558 27.41 80.386 27.871 80.214 28.332 C 79.169 30.223 78.904 32.327 78.766 34.411 C 78.585 37.139 78.62 39.883 79.275 42.57 C 79.492 43.461 81.016 46.898 81.772 48.043 C 82.527 49.187 84.553 51.445 85.845 52.331 C 87.126 53.213 88.299 53.89 90.32 54.73 Z" style="fill: rgb(255, 255, 255);"/>
  <path id="path23" d="M 251.941 72.305 C 250.656 71.353 249.353 70.424 248.051 69.495 C 247.782 69.304 247.593 68.735 247.196 69.104 C 247.058 69.231 247.245 69.797 247.389 70.116 C 247.499 70.357 247.754 70.55 247.981 70.715 C 249.354 71.714 250.724 72.72 252.128 73.672 C 252.502 73.922 252.993 74 253.44 74.127 C 253.517 74.148 253.636 74.016 253.767 73.935 C 253.635 73.78 253.558 73.663 253.455 73.575 C 252.957 73.146 252.468 72.698 251.942 72.306 Z" style="fill: rgb(255, 255, 255);"/>
  <path id="path25" d="M 261.105 78.069 C 261.031 77.98 259.185 76.981 259.099 76.921 C 258.712 76.646 258.473 76.752 258.086 76.474 C 257.348 75.941 256.647 75.36 255.932 74.799 C 255.557 74.503 254.988 74.281 254.925 74.867 C 254.885 75.244 254.977 75.704 255.329 75.905 C 255.455 75.978 255.581 76.051 255.707 76.123 C 256.431 76.498 257.151 76.876 257.874 77.249 C 258.192 77.413 262.87 80.701 263.633 80.558 C 264.399 80.413 263.728 79.553 263.728 79.553 C 263.728 79.553 261.228 78.218 261.107 78.064 Z" style="fill: rgb(255, 255, 255);"/>
  <path id="path27" d="M 251.699 78.405 C 251.699 78.405 254.994 80.654 256.234 81.229 C 257.476 81.803 258.192 82.282 257.762 81.611 C 257.333 80.94 257.762 81.085 256.376 80.271 C 254.991 79.458 254.229 79.171 253.609 78.549 C 252.987 77.927 251.746 77.401 251.697 77.831 C 251.65 78.26 251.702 78.405 251.702 78.405 Z" style="fill: rgb(255, 255, 255);"/>
  <path id="path29" d="M 254.47 85.728 C 255.854 86.541 256.523 87.163 256.045 85.918 C 255.57 84.674 254.804 84.914 253.753 84.388 C 252.703 83.861 252.663 84.379 252.901 84.668 L 254.47 85.727 Z" style="fill: rgb(255, 255, 255);"/>
</svg>