<?xml version="1.0" encoding="UTF-8" standalone="no"?>
<svg
   xmlns:dc="http://purl.org/dc/elements/1.1/"
   xmlns:cc="http://creativecommons.org/ns#"
   xmlns:rdf="http://www.w3.org/1999/02/22-rdf-syntax-ns#"
   xmlns:svg="http://www.w3.org/2000/svg"
   xmlns="http://www.w3.org/2000/svg"
   xmlns:sodipodi="http://sodipodi.sourceforge.net/DTD/sodipodi-0.dtd"
   xmlns:inkscape="http://www.inkscape.org/namespaces/inkscape"
   version="1.1"
   id="svg29"
   sodipodi:docname="Atlus.svg"
   inkscape:version="0.92.5 (2060ec1f9f, 2020-04-08)">
  <metadata
     id="metadata35">
    <rdf:RDF>
      <cc:Work
         rdf:about="">
        <dc:format>image/svg+xml</dc:format>
        <dc:type
           rdf:resource="http://purl.org/dc/dcmitype/StillImage" />
        <dc:title>mainlogo</dc:title>
      </cc:Work>
    </rdf:RDF>
  </metadata>
  <defs
     id="defs33" />
  <sodipodi:namedview
     pagecolor="#ffffff"
     bordercolor="#666666"
     borderopacity="1"
     objecttolerance="10"
     gridtolerance="10"
     guidetolerance="10"
     inkscape:pageopacity="0"
     inkscape:pageshadow="2"
     inkscape:window-width="1366"
     inkscape:window-height="743"
     id="namedview31"
     showgrid="false"
     inkscape:pagecheckerboard="true"
     inkscape:zoom="1.9496261"
     inkscape:cx="252.3121"
     inkscape:cy="48.080566"
     inkscape:window-x="0"
     inkscape:window-y="0"
     inkscape:window-maximized="1"
     inkscape:current-layer="svg29" />
  <title
     id="title14">mainlogo</title>
  <path
     d="m 13.432573,198.01254 c 1.555408,0 3.068138,-0.36499 4.538188,-1.09495 1.470049,-0.72999 2.679285,-1.71024 3.627703,-2.94076 v 0 l -2.702995,-2.94075 c -0.701829,0.89682 -1.507987,1.58508 -2.418469,2.0648 -0.910483,0.47968 -1.887355,0.71953 -2.930616,0.71953 -0.929452,0 -1.787771,-0.18248 -2.574958,-0.54748 -0.78719,-0.365 -1.4700509,-0.86033 -2.0485885,-1.48602 -0.5785366,-0.62569 -1.0337759,-1.3713 -1.3657239,-2.23684 -0.3319469,-0.86555 -0.4979192,-1.79887 -0.4979192,-2.79998 0,-1.02196 0.1612314,-1.96571 0.4836941,-2.83125 0.3224616,-0.86554 0.7682203,-1.61638 1.3372715,-2.25249 0.5690501,-0.63612 1.24717,-1.13668 2.03436,-1.50166 0.787187,-0.36499 1.626537,-0.54747 2.518053,-0.54747 1.06223,0 2.067554,0.25548 3.015974,0.76646 0.94842,0.51098 1.773545,1.24617 2.475374,2.20556 v 0 l 2.788354,-3.03461 c -0.929452,-1.25136 -2.143428,-2.24726 -3.641931,-2.98766 -1.498504,-0.74041 -3.044427,-1.1106 -4.637771,-1.1106 -1.479534,0 -2.86897,0.29199 -4.1683034,0.87597 -1.299335,0.58396 -2.4232125,1.37651 -3.3716312,2.37761 -0.9484187,1.00112 -1.6976707,2.19514 -2.2477537,3.58209 -0.5500842,1.38695 -0.8251251,2.87296 -0.8251251,4.45805 0,1.58507 0.2702989,3.0659 0.8108966,4.44242 0.5406,1.37652 1.2851099,2.56532 2.2335298,3.56644 0.9484199,1.0011 2.0722962,1.79366 3.3716312,2.37763 1.2993348,0.58397 2.6982528,0.87596 4.1967558,0.87596 z m 53.917648,0.0313 c 1.479533,0 2.864225,-0.29198 4.154076,-0.87596 1.289851,-0.58398 2.404236,-1.38173 3.343179,-2.39327 0.938931,-1.01154 1.683445,-2.21078 2.233529,-3.59772 0.550096,-1.38695 0.825114,-2.86256 0.825114,-4.42678 0,-1.56424 -0.275018,-3.03982 -0.825114,-4.42676 -0.550084,-1.38696 -1.294598,-2.5862 -2.233529,-3.59773 -0.938943,-1.01153 -2.053328,-1.80929 -3.343179,-2.39327 -1.289851,-0.58398 -2.674543,-0.87596 -4.154076,-0.87596 -1.46057,0 -2.83578,0.29198 -4.125631,0.87596 -1.289851,0.58398 -2.404236,1.38174 -3.343179,2.39327 -0.938931,1.01153 -1.683438,2.21077 -2.233522,3.59773 -0.550084,1.38694 -0.825127,2.86252 -0.825127,4.42676 0,1.56422 0.275043,3.03983 0.825127,4.42678 0.550084,1.38694 1.294591,2.58618 2.233522,3.59772 0.938943,1.01154 2.053328,1.80929 3.343179,2.39327 1.289851,0.58398 2.665061,0.87596 4.125631,0.87596 z m 0,-4.16085 c -0.891511,0 -1.721384,-0.18248 -2.489596,-0.54748 -0.768223,-0.36497 -1.432113,-0.86552 -1.99169,-1.50164 -0.559566,-0.63613 -1.00058,-1.39218 -1.323043,-2.26814 -0.322463,-0.87599 -0.4837,-1.81452 -0.4837,-2.81562 0,-1.02195 0.161237,-1.96571 0.4837,-2.83124 0.322463,-0.86556 0.763477,-1.61638 1.323043,-2.2525 0.559577,-0.63612 1.223467,-1.13668 1.99169,-1.50167 0.768212,-0.36498 1.598085,-0.54747 2.489596,-0.54747 0.89151,0 1.726118,0.18249 2.503824,0.54747 0.777705,0.36499 1.446341,0.86555 2.005919,1.50167 0.559554,0.63612 1.000568,1.38694 1.323043,2.2525 0.322451,0.86553 0.483688,1.80929 0.483688,2.83124 0,1.0011 -0.161237,1.93963 -0.483688,2.81562 -0.322475,0.87596 -0.763489,1.63201 -1.323043,2.26814 -0.559578,0.63612 -1.228214,1.13667 -2.005919,1.50164 -0.777706,0.365 -1.612314,0.54748 -2.503824,0.54748 z M 129.889,197.6997 v -4.00441 h -10.89733 v -17.89478 h -4.12564 v 21.89919 z m 52.01131,0 v -4.00441 h -10.89735 v -17.89478 h -4.1256 v 21.89919 z m 52.40966,0 v -3.94183 h -11.29568 v -5.19324 h 7.36923 v -3.81671 h -7.36923 v -5.00553 h 11.18187 v -3.94186 h -15.30748 v 21.89921 z m 45.75175,0.31286 c 1.55543,0 3.06815,-0.36499 4.53819,-1.09496 1.47005,-0.72997 2.67929,-1.71022 3.62772,-2.94075 v 0 l -2.70299,-2.94074 c -0.70183,0.89682 -1.50799,1.58507 -2.41849,2.06478 -0.91049,0.47968 -1.88736,0.71954 -2.93062,0.71954 -0.92943,0 -1.78777,-0.1825 -2.57493,-0.54747 -0.78721,-0.36501 -1.47007,-0.86035 -2.0486,-1.48603 -0.57854,-0.62568 -1.03379,-1.3713 -1.36571,-2.23684 -0.33197,-0.86554 -0.49794,-1.79888 -0.49794,-2.79998 0,-1.02195 0.16122,-1.96571 0.48371,-2.83124 0.32245,-0.86556 0.7682,-1.61638 1.33726,-2.2525 0.56906,-0.63612 1.24716,-1.13668 2.03436,-1.50167 0.78718,-0.36498 1.62653,-0.54747 2.51804,-0.54747 1.06224,0 2.06756,0.25549 3.01597,0.76648 0.94843,0.51098 1.77356,1.24615 2.47539,2.20554 v 0 l 2.78834,-3.03459 c -0.92943,-1.25139 -2.14342,-2.24728 -3.64193,-2.98768 -1.49849,-0.7404 -3.04442,-1.11059 -4.63777,-1.11059 -1.47953,0 -2.86896,0.29198 -4.16829,0.87596 -1.29933,0.58398 -2.42321,1.37652 -3.37164,2.37763 -0.94841,1.00111 -1.69766,2.19513 -2.24774,3.58208 -0.5501,1.38694 -0.82514,2.87295 -0.82514,4.45805 0,1.58507 0.27031,3.06589 0.8109,4.44241 0.54061,1.37653 1.28511,2.56534 2.23354,3.56644 0.9484,1.00112 2.07228,1.79366 3.37161,2.37762 1.29936,0.58398 2.69825,0.87598 4.19676,0.87598 z m 54.57207,-0.31286 v -17.89477 h 6.68634 v -4.00442 h -17.52679 v 4.00442 h 6.71483 v 17.89477 z m 47.25974,0 v -21.89919 h -4.12562 v 21.89919 z m 47.51582,0.34414 c 1.47953,0 2.86422,-0.29198 4.15407,-0.87596 1.28985,-0.58398 2.40425,-1.38173 3.34318,-2.39327 0.93895,-1.01154 1.68344,-2.21078 2.23353,-3.59772 0.55009,-1.38695 0.82513,-2.86256 0.82513,-4.42678 0,-1.56424 -0.27504,-3.03982 -0.82513,-4.42676 -0.55009,-1.38696 -1.29458,-2.5862 -2.23353,-3.59773 -0.93893,-1.01153 -2.05333,-1.80929 -3.34318,-2.39327 -1.28985,-0.58398 -2.67454,-0.87596 -4.15407,-0.87596 -1.46057,0 -2.83577,0.29198 -4.12565,0.87596 -1.28982,0.58398 -2.40424,1.38174 -3.34315,2.39327 -0.93894,1.01153 -1.68346,2.21077 -2.23353,3.59773 -0.5501,1.38694 -0.82514,2.86252 -0.82514,4.42676 0,1.56422 0.27504,3.03983 0.82514,4.42678 0.55007,1.38694 1.29459,2.58618 2.23353,3.59772 0.93891,1.01154 2.05333,1.80929 3.34315,2.39327 1.28988,0.58398 2.66508,0.87596 4.12565,0.87596 z m 0,-4.16085 c -0.8915,0 -1.7214,-0.18248 -2.4896,-0.54748 -0.76822,-0.36497 -1.43211,-0.86552 -1.99169,-1.50164 -0.55956,-0.63613 -1.00057,-1.39218 -1.32305,-2.26814 -0.32244,-0.87599 -0.48368,-1.81452 -0.48368,-2.81562 0,-1.02195 0.16124,-1.96571 0.48368,-2.83124 0.32248,-0.86556 0.76349,-1.61638 1.32305,-2.2525 0.55958,-0.63612 1.22347,-1.13668 1.99169,-1.50167 0.7682,-0.36498 1.5981,-0.54747 2.4896,-0.54747 0.8915,0 1.72613,0.18249 2.50382,0.54747 0.77772,0.36499 1.44635,0.86555 2.00592,1.50167 0.55955,0.63612 1.00057,1.38694 1.32303,2.2525 0.32246,0.86553 0.4837,1.80929 0.4837,2.83124 0,1.0011 -0.16124,1.93963 -0.4837,2.81562 -0.32246,0.87596 -0.76348,1.63201 -1.32303,2.26814 -0.55957,0.63612 -1.2282,1.13667 -2.00592,1.50164 -0.77769,0.365 -1.61232,0.54748 -2.50382,0.54748 z m 51.41381,3.81671 v -14.64118 l 10.15758,14.64118 h 3.64193 v -21.89919 h -3.86955 v 14.17192 l -9.90152,-14.17192 h -3.92645 v 21.89919 z"
     id="COLLECTION"
     inkscape:connector-curvature="0"
     style="fill:#ffffff;fill-rule:nonzero;stroke:none;stroke-width:1.27494538" />
  <g
     id="g125"
     transform="matrix(1.4955135,0,0,1.4955135,-74.303372,35.360133)"
     style="fill:#ffffff;stroke:none">
    <path
       d="m 162.04363,81.887502 h 18.59239 V 7.5179195 h 13.75328 v -16.55487 h -46.09896 v 16.55487 h 13.75329 z"
       style="font-style:normal;font-variant:normal;font-weight:bold;font-stretch:condensed;font-size:356.62936401px;line-height:125%;font-family:Folio;-inkscape-font-specification:'Folio Bold Condensed';letter-spacing:0px;word-spacing:0px;fill:#ffffff;fill-opacity:1;stroke:none;stroke-width:0.35707989px;stroke-linecap:butt;stroke-linejoin:miter;stroke-opacity:1"
       id="path4198"
       inkscape:connector-curvature="0" />
    <path
       d="M 249.30838,81.887502 V 65.332632 H 229.69722 V -9.0369505 H 211.10483 V 81.887502 Z"
       style="font-style:normal;font-variant:normal;font-weight:bold;font-stretch:condensed;font-size:356.62936401px;line-height:125%;font-family:Folio;-inkscape-font-specification:'Folio Bold Condensed';letter-spacing:0px;word-spacing:0px;fill:#ffffff;fill-opacity:1;stroke:none;stroke-width:0.35707989px;stroke-linecap:butt;stroke-linejoin:miter;stroke-opacity:1"
       id="path4200"
       inkscape:connector-curvature="0" />
    <path
       d="M 315.33782,-9.0369505 H 296.74543 V 59.474754 c 0,6.367256 -1.52815,7.64071 -5.3485,7.64071 -3.82036,0 -5.3485,-1.273454 -5.3485,-7.64071 V -9.0369505 H 267.45604 V 62.276346 c 0,17.064255 7.64071,21.393988 23.94089,21.393988 16.30018,0 23.94089,-4.329733 23.94089,-21.393988 z"
       style="font-style:normal;font-variant:normal;font-weight:bold;font-stretch:condensed;font-size:356.62936401px;line-height:125%;font-family:Folio;-inkscape-font-specification:'Folio Bold Condensed';letter-spacing:0px;word-spacing:0px;fill:#ffffff;fill-opacity:1;stroke:none;stroke-width:0.35707989px;stroke-linecap:butt;stroke-linejoin:miter;stroke-opacity:1"
       id="path4202"
       inkscape:connector-curvature="0" />
    <path
       d="m 383.27911,18.342261 v -7.131328 c 0,-16.1728378 -7.64071,-22.030716 -23.43152,-22.030716 -17.82832,0 -23.94089,6.8766379 -23.94089,23.176821 0,30.308152 29.16205,28.397974 29.28939,47.245058 0,5.348499 -1.52814,7.513368 -5.3485,7.513368 -3.693,0 -5.34849,-2.292214 -5.34849,-7.513368 V 53.23484 h -18.5924 v 8.532124 c 0,16.809564 6.87664,21.90337 23.81355,21.90337 18.21036,0 24.06824,-5.857878 24.06824,-24.832307 0,-29.671425 -29.28939,-29.671425 -29.28939,-45.589572 0,-5.3484992 1.52814,-7.5133675 5.34849,-7.5133675 3.69301,0 5.3485,2.2922137 5.3485,7.5133675 v 5.093806 z"
       style="font-style:normal;font-variant:normal;font-weight:bold;font-stretch:condensed;font-size:356.62936401px;line-height:125%;font-family:Folio;-inkscape-font-specification:'Folio Bold Condensed';letter-spacing:0px;word-spacing:0px;fill:#ffffff;fill-opacity:1;stroke:none;stroke-width:0.35707989px;stroke-linecap:butt;stroke-linejoin:miter;stroke-opacity:1"
       id="path4204"
       inkscape:connector-curvature="0" />
    <path
       inkscape:connector-curvature="0"
       id="path3395"
       d="M 50.308054,81.307692 H 71.838732 L 111.99517,19.449664 v 61.858028 h 18.28399 V -8.7452808 h -21.35981 z"
       style="fill:#ffffff;fill-opacity:1;fill-rule:evenodd;stroke:none;stroke-width:0.67664403px;stroke-linecap:butt;stroke-linejoin:miter;stroke-opacity:1" />
  </g>
</svg>
