<?xml version="1.0" encoding="utf-8"?>
<!-- Made by Szalik  -->
<svg version="1.1" id="Warstwa_1" xmlns="http://www.w3.org/2000/svg" xmlns:xlink="http://www.w3.org/1999/xlink" x="0px" y="0px" xml:space="preserve">
<g>
	<g>
		<path d="M166.15,268.18c-0.77-0.77-1.36-1.36-1.92-1.92c-1.56,1.29-2.99,2.7-4.64,3.78c-1.89,1.24-3.95,2.24-5.99,3.22
			c-0.52,0.25-1.35,0.21-1.91-0.02c-10.32-4.32-16.27-12.08-17.66-23.16c-0.39-3.11-0.1-6.31-0.11-9.47
			c-0.01-3.04,0.04-6.08-0.03-9.11c-0.02-1.07,0.39-1.47,1.39-1.66c8.7-1.65,17.46-2.05,26.26-1.19c2.9,0.28,5.77,0.83,8.66,1.24
			c0.91,0.13,1.33,0.59,1.32,1.52c-0.03,5.64,0.02,11.27-0.1,16.91c-0.04,1.86-0.52,3.71-0.74,5.57c-0.05,0.41,0.01,0.98,0.26,1.26
			c1.23,1.36,2.55,2.65,3.89,4.02c0.31-0.27,0.55-0.45,0.77-0.67c0.52-0.5,1.09-0.95,1.75-0.3c0.71,0.7,0.23,1.3-0.32,1.84
			c-0.71,0.7-1.43,1.38-2.25,2.18c1.79,1.78,3.49,3.45,5.17,5.15c1.1,1.11,1.72,2.41,1.26,4.02c-0.86,3.03-4.33,4.07-6.67,1.95
			c-1.57-1.42-3.02-2.98-4.52-4.47c-0.28-0.28-0.57-0.54-1.06-1c-0.7,0.79-1.35,1.54-2.03,2.27c-0.52,0.56-1.12,1.07-1.83,0.36
			c-0.7-0.7-0.21-1.31,0.35-1.83C165.62,268.51,165.84,268.4,166.15,268.18z M139.65,235.57c0,4.32-0.2,8.52,0.04,12.7
			c0.49,8.57,4.74,14.81,12.29,18.83c0.28,0.15,0.73,0.28,0.98,0.16c2.71-1.24,5.06-2.96,7.05-5.24
			c-3.84-3.84-7.61-7.59-11.34-11.38c-0.46-0.47-0.86-1.19-0.93-1.83c-0.28-2.34-0.42-4.7-0.58-7.05c-0.08-1.15,0.3-1.51,1.48-1.45
			c1.36,0.07,2.72,0.32,4.07,0.26c2.8-0.11,4.95,0.87,6.73,3.07c1.4,1.73,3.14,3.19,4.71,4.79c0.41,0.41,0.77,0.88,1.15,1.32
			c0.1-0.06,0.2-0.12,0.3-0.18c0-4.65,0-9.29,0-14C156.99,233.91,148.38,233.92,139.65,235.57z M161.53,263.59
			c-0.15,0.13-0.27,0.22-0.37,0.33c-2.13,2.27-4.61,4.08-7.46,5.34c-0.52,0.23-1.31,0.33-1.79,0.11
			c-8.01-3.76-12.98-10.02-14.06-18.78c-0.64-5.16-0.26-10.45-0.34-15.69c-0.01-0.86,0.52-1.16,1.27-1.3
			c9.26-1.81,18.51-1.81,27.77,0c0.9,0.18,1.31,0.61,1.29,1.54c-0.04,1.72,0.01,3.44-0.02,5.16c-0.06,3.4-0.06,6.79-0.26,10.18
			c-0.06,1.11,0.15,1.81,1.29,2.41c1.12-7.01,0.29-13.97,0.63-20.96c-11.27-2.1-22.4-2.12-33.41-0.03c0,6.07-0.44,11.99,0.1,17.81
			c0.93,10.1,6.44,17.22,15.7,21.38c0.37,0.17,0.89,0.3,1.23,0.16c3.65-1.45,6.82-3.61,9.57-6.64
			C162.26,264.24,161.92,263.93,161.53,263.59z M149.46,244.2c0.09,1.14,0.27,2.05,0.22,2.94c-0.08,1.3,0.53,2.13,1.4,2.98
			c5.26,5.2,10.47,10.45,15.71,15.68c0.25,0.25,0.51,0.47,0.61,0.55c0.76-0.75,1.46-1.44,2.13-2.09
			C162.95,257.7,156.32,251.06,149.46,244.2z M173.37,260.61c-5.53-5.52-11.06-10.95-16.45-16.5c-1.72-1.78-3.71-1.13-5.51-1.42
			c6.67,6.67,13.32,13.32,19.9,19.89C171.9,262.02,172.59,261.36,173.37,260.61z M170.93,266.31c0.49,0.66,0.96,1.27,1.46,1.94
			c1.92-4.5,1.83-3.88,0.94-4.36C172.46,264.76,171.61,265.62,170.93,266.31z M175.63,266.02c-0.44,1.05-0.8,1.91-1.17,2.78
			c-0.53,1.28-0.53,1.28,0.96,2.16C175.19,269.27,177.84,268.02,175.63,266.02z M176.96,272.28c1.09,0.1,1.74-0.31,2.1-1.15
			c0.37-0.87,0.12-1.6-0.68-2.26C177.91,270.01,177.46,271.1,176.96,272.28z" fill="white"/>
		<path d="M275.37,249.72c7.8,0,15.51,0,23.3,0c0,1.9,0,3.77,0,5.83c-5.79,0-11.59,0-17.46,0c0,1.09,0,1.99,0,2.99
			c4.85,0,9.64,0,14.51,0c0,1.99,0,3.88,0,5.91c-4.83,0-9.61,0-14.49,0c0,0.98,0,1.84,0,2.85c5.8,0,11.58,0,17.43,0
			c0,2.01,0,3.87,0,5.82c-7.74,0-15.47,0-23.3,0C275.37,265.37,275.37,257.6,275.37,249.72z" fill="white"/>
		<path d="M210.87,264.47c-2.34,0-4.62-0.03-6.89,0.02c-0.79,0.02-1.12-0.24-1.28-1.02c-0.33-1.6-0.77-3.17-1.19-4.84
			c5.14,0,10.17,0,15.4,0c0,0.41,0.01,0.83,0,1.25c-0.04,2.48,0.06,4.97-0.15,7.43c-0.3,3.51-2.1,5.51-5.61,5.75
			c-3.98,0.27-8,0.27-11.98-0.01c-3.45-0.24-5.35-2.19-5.58-5.65c-0.26-3.94-0.27-7.93-0.01-11.87c0.25-3.69,2.55-5.69,6.26-5.81
			c3.56-0.11,7.12-0.13,10.68,0c4.19,0.15,6.68,3.12,6.27,7.35c-1.86,0.24-3.74,0.48-5.61,0.73c-0.47-2.21-0.47-2.21-2.77-2.21
			c-2.36,0-4.72-0.01-7.08,0c-1.71,0.01-2.01,0.3-2.02,2.04c-0.01,2.56-0.02,5.12,0,7.68c0.01,1.66,0.33,1.98,1.96,2
			c2.44,0.02,4.88,0.01,7.32,0.01C210.89,267.31,211.21,266.94,210.87,264.47z" fill="white"/>
		<path d="M301.76,265.88c1.9-0.23,3.75-0.45,5.58-0.66c0.57,2.1,0.57,2.1,2.71,2.1c2.48,0,4.96,0.01,7.44-0.01
			c0.73,0,1.47-0.05,1.7-0.97c0.28-1.12-0.27-1.84-1.51-1.86c-2.6-0.03-5.2,0.03-7.79-0.03c-1.23-0.03-2.48-0.11-3.68-0.38
			c-2.12-0.47-3.49-1.84-4.11-3.94c-0.59-2.01-0.6-4.03-0.03-6.03c0.78-2.74,2.83-4.3,6.02-4.38c3.55-0.1,7.12-0.13,10.67,0.01
			c4.18,0.16,6.68,3.14,6.26,7.35c-1.86,0.24-3.74,0.48-5.61,0.73c-0.47-2.21-0.47-2.21-2.76-2.21c-2.44,0-4.88,0.01-7.32-0.01
			c-1.02-0.01-1.74,0.29-1.76,1.45c-0.02,1.07,0.49,1.52,1.81,1.53c2.84,0.01,5.68-0.02,8.51,0.01c2.68,0.03,5.22,0.58,6.41,3.31
			c1.33,3.05,1.34,6.18-0.62,9.02c-1.18,1.71-3.11,2.22-5.07,2.27c-3.48,0.08-6.96,0.1-10.43,0
			C303.94,273.04,301.48,270.25,301.76,265.88z" fill="white"/>
		<path d="M251.88,260.12c0,4.3,0,8.61,0,12.99c-1.96,0-3.82,0-5.78,0c0-7.72,0-15.49,0-23.42c1.25,0,2.56-0.05,3.85,0.03
			c0.32,0.02,0.65,0.41,0.93,0.68c2.76,2.72,5.5,5.45,8.4,8.32c1.03-1.06,2.04-2.13,3.07-3.17c1.66-1.68,3.36-3.32,4.98-5.03
			c0.6-0.63,1.2-0.94,2.08-0.87c0.94,0.08,1.9,0.02,2.91,0.02c0,7.85,0,15.59,0,23.43c-1.88,0-3.78,0-5.82,0c0-4.32,0-8.65,0-13.2
			c-2.49,2.52-4.81,4.85-7.13,7.19c-2.49-2.49-4.82-4.82-7.16-7.14C252.1,260.01,251.99,260.07,251.88,260.12z" fill="white"/>
		<path d="M244.78,273.2c-2.23,0-4.26,0.05-6.28-0.05c-0.34-0.02-0.79-0.63-0.94-1.05c-0.52-1.45-1.44-1.91-2.99-1.81
			c-2.31,0.16-4.64,0.08-6.96,0.02c-0.78-0.02-1.34,0.14-1.56,0.93c-0.49,1.71-1.64,2.18-3.33,1.99c-1.38-0.15-2.78-0.03-4.38-0.03
			c4.42-8.31,8.75-16.48,13.22-24.89C235.99,256.66,240.34,264.84,244.78,273.2z M233.41,264.37c-0.64-1.2-1.2-2.26-1.85-3.49
			c-0.66,1.27-1.2,2.31-1.82,3.49C231.01,264.37,232.11,264.37,233.41,264.37z" fill="white"/>
		<path d="M232.36,234.55c0,0.56,0,0.92,0,1.39c2.56,0,5.1,0,7.74,0c0,1.09,0,2.06,0,3.16c-2.55,0-5.09,0-7.69,0
			c0,0.59,0,1.05,0,1.68c3.06,0,6.15,0,9.29,0c0,1.1,0,2.05,0,3.07c-4.13,0-8.23,0-12.42,0c0-4.08,0-8.17,0-12.33
			c4.1,0,8.2,0,12.39,0c0,0.98,0,1.95,0,3.04C238.58,234.55,235.52,234.55,232.36,234.55z" fill="white"/>
		<path d="M330.94,235.28c-0.92,0.11-1.85,0.23-2.79,0.34c0.03-0.14,0.06-0.27,0.09-0.41c-0.61-0.22-1.21-0.57-1.83-0.62
			c-1.23-0.1-2.48-0.01-3.72-0.04c-0.78-0.02-1.08,0.33-1.07,1.08c0.02,1.36,0.02,2.72,0,4.08c-0.02,0.84,0.39,1.12,1.18,1.1
			c1.24-0.04,2.48,0,3.72-0.01c1.35-0.01,1.44-0.13,1.25-1.65c-1.34,0-2.69,0-4.14,0c-0.27-1.04-0.52-2.03-0.79-3.09
			c2.74,0,5.39,0,8.08,0c0,1.78,0.14,3.54-0.04,5.26c-0.17,1.59-1.48,2.53-3.28,2.59c-1.88,0.06-3.76,0.06-5.64,0
			c-2.11-0.07-3.35-1.28-3.44-3.39c-0.08-1.88-0.08-3.76,0-5.64c0.08-2.12,1.29-3.34,3.41-3.42c1.92-0.08,3.84-0.09,5.76,0.01
			C329.92,231.58,331.02,232.9,330.94,235.28z" fill="white"/>
		<path d="M201.25,243.84c-0.29,0.05-0.36,0.07-0.44,0.08c-2.64,0.42-4.84-0.21-6.41-2.55c-0.37-0.56-0.89-1.05-1.42-1.45
			c-0.55-0.42-1.2-0.7-2.1-1.2c0,1.98,0,3.52,0,5.13c-1.11,0-2.08,0-3.19,0c0-2.04,0-4.07,0-6.09c0-2.04,0-4.08,0-6.19
			c0.29-0.04,0.55-0.11,0.82-0.11c2.64-0.01,5.28-0.02,7.92,0c1.43,0.01,2.77,0.35,3.39,1.79c0.67,1.54,0.76,3.2-0.29,4.56
			c-0.55,0.7-1.61,1.01-2.54,1.56C198.27,240.71,199.7,242.21,201.25,243.84z M190.87,235.99c1.87,0,3.69,0.02,5.51-0.03
			c0.23-0.01,0.68-0.48,0.64-0.63c-0.09-0.3-0.43-0.72-0.68-0.73c-1.82-0.06-3.64-0.03-5.47-0.03
			C190.87,235.1,190.87,235.49,190.87,235.99z" fill="white"/>
		<path d="M207.45,243.92c-0.92,0-1.84,0.03-2.75-0.01c-2.22-0.08-3.48-1.3-3.55-3.52c-0.06-1.79-0.06-3.59,0-5.39
			c0.07-2.24,1.3-3.48,3.52-3.55c1.83-0.06,3.67-0.06,5.51,0c2.18,0.07,3.38,1.26,3.47,3.46c0.08,1.83,0.08,3.67,0,5.5
			c-0.09,2.3-1.36,3.46-3.67,3.5C209.12,243.93,208.29,243.92,207.45,243.92z M207.38,240.8c3.14,0,3.14,0,3.14-3.16
			c0-3.08,0-3.1-3.1-3.08c-3.64,0.03-3.15-0.55-3.16,3.15C204.26,241.33,203.82,240.75,207.38,240.8z" fill="white"/>
		<path d="M313.7,238.58c0-2.51,0-4.73,0-7.05c1.06,0,2.03,0,3.09,0c0,4.08,0,8.17,0,12.3c-1.26,0.2-2.27,0.1-3.23-0.94
			c-1.86-2.01-3.91-3.86-6.07-5.97c0,2.46,0,4.66,0,6.93c-1.08,0-2.03,0-3.07,0c0-4.06,0-8.15,0-12.33
			c1.16-0.19,2.18-0.18,3.15,0.88C309.45,234.47,311.5,236.39,313.7,238.58z" fill="white"/>
		<path d="M247.54,231.45c3.11,0,6.18-0.1,9.24,0.03c2.25,0.1,3.31,1.61,3.21,4.07c-0.1,2.26-1.27,3.49-3.51,3.56
			c-1.91,0.06-3.82,0.01-5.87,0.01c0,1.61,0,3.14,0,4.74c-1.08,0-2.02,0-3.07,0C247.54,239.8,247.54,235.71,247.54,231.45z
			 M250.62,236c1.89,0,3.64,0.03,5.39-0.03c0.28-0.01,0.55-0.41,0.82-0.63c-0.24-0.26-0.47-0.73-0.71-0.73
			c-1.82-0.06-3.64-0.03-5.49-0.03C250.62,235.09,250.62,235.48,250.62,236z" fill="white"/>
		<path d="M274.72,243.92c2.39-4.51,4.67-8.8,7.08-13.34c2.4,4.52,4.69,8.84,7.08,13.34c-1.17,0-2.13,0.07-3.06-0.04
			c-0.32-0.04-0.73-0.45-0.87-0.78c-0.3-0.71-0.74-0.91-1.47-0.88c-1.2,0.06-2.4-0.04-3.59,0.05c-0.38,0.03-0.91,0.34-1.06,0.66
			c-0.37,0.82-0.88,1.11-1.76,1.01C276.36,243.85,275.64,243.92,274.72,243.92z M282.78,239.08c-0.33-0.61-0.62-1.13-1-1.83
			c-0.38,0.73-0.64,1.24-0.95,1.83C281.54,239.08,282.09,239.08,282.78,239.08z" fill="white"/>
		<path d="M215.34,243.85c0-4.17,0-8.23,0-12.35c1,0,1.94,0,3.03,0c0,3.03,0,6.08,0,9.26c3.19,0,6.24,0,9.39,0c0,1.09,0,2.06,0,3.1
			C223.62,243.85,219.53,243.85,215.34,243.85z" fill="white"/>
		<path d="M273.85,240.77c0.03,0.43,0.07,0.7,0.07,0.97c0.01,0.68,0,1.35,0,2.1c-4.18,0-8.28,0-12.47,0c0-4.07,0-8.16,0-12.32
			c0.96,0,1.94,0,3.01,0c0,3.04,0,6.06,0,9.25C267.63,240.77,270.72,240.77,273.85,240.77z" fill="white"/>
		<path d="M293.41,243.86c-1.05,0-1.99,0-3.09,0c0-1.6,0.04-3.14-0.02-4.68c-0.02-0.51-0.22-1.1-0.53-1.5
			c-1.55-2.03-3.17-4-4.95-6.23c1.4,0,2.6-0.04,3.8,0.03c0.27,0.02,0.55,0.4,0.77,0.67c0.82,1.01,1.62,2.05,2.49,3.16
			c0.84-1.07,1.63-2.02,2.35-3.02c0.46-0.64,0.98-0.94,1.8-0.88c0.87,0.07,1.75,0.02,2.91,0.02c-0.75,0.94-1.3,1.8-2.01,2.5
			c-2.64,2.59-4.14,5.56-3.45,9.36C293.49,243.45,293.44,243.61,293.41,243.86z" fill="white"/>
		<path d="M299.82,243.85c0-4.12,0-8.18,0-12.33c0.98,0,1.95,0,3,0c0,4.08,0,8.17,0,12.33C301.85,243.85,300.9,243.85,299.82,243.85
			z" fill="white"/>
	</g>
</g>
</svg>
