<?xml version="1.0" encoding="utf-8"?>
<!-- Made by Szalik  -->
<svg version="1.1" id="retroachiv" xmlns="http://www.w3.org/2000/svg" xmlns:xlink="http://www.w3.org/1999/xlink" x="0px" y="0px" xml:space="preserve">
<g>
	<g>
		<path d="M59.49,349.53c-6.24,0-12.09,0-18.1,0c0.1-0.37,0.11-0.69,0.26-0.93c1-1.56,1.2-3.29,0.98-5.06
			c-0.09-0.69-0.34-1.48-0.79-1.99c-3.9-4.37-7.49-8.94-9.88-14.36c-2.16-4.91-3.44-10.08-3.95-15.38
			c-0.56-5.76-0.76-11.56-1.06-17.35c-0.09-1.71,0.47-2.21,2.19-2.21c14.12,0,28.23,0,42.35,0c1.65,0,2.16,0.51,2.14,2.14
			c-0.08,7.73-0.46,15.43-1.96,23.03c-1.5,7.59-4.7,14.4-9.68,20.34c-1.1,1.32-2.29,2.56-3.36,3.91c-0.36,0.46-0.59,1.1-0.67,1.69
			C57.65,345.49,58.17,347.47,59.49,349.53z" fill="white"/>
		<path d="M129.53,325.97c7.02,0,13.93,0,20.91,0c0,2.34,0,4.6,0,6.92c-9.32,0-18.61,0-27.98,0c0-9.29,0-18.56,0-27.92
			c9.27,0,18.57,0,27.96,0c0,2.22,0,4.47,0,6.86c-6.91,0-13.84,0-20.89,0c0,1.21,0,2.3,0,3.52c5.79,0,11.56,0,17.42,0
			c0,2.4,0,4.66,0,7.04c-5.82,0-11.6,0-17.42,0C129.53,323.64,129.53,324.76,129.53,325.97z" fill="white"/>
		<path d="M50.31,351.99c5.28,0,10.56,0,15.84,0c2.61,0,2.75,0.13,2.75,2.68c0,3.76,0,7.52,0,11.28c0,1.67-0.47,2.18-2.11,2.18
			c-11,0.01-21.99,0.01-32.99,0c-1.67,0-2.14-0.49-2.14-2.14c-0.01-4-0.01-8,0-12c0-1.61,0.38-1.99,1.98-2
			C39.2,351.98,44.75,351.99,50.31,351.99z" fill="white"/>
		<path d="M90.8,304.88c5.47,0,10.86-0.01,16.26,0.01c1.68,0.01,3.37-0.07,5.02,0.16c3.98,0.56,6.01,2.51,6.55,6.47
			c0.24,1.78,0.14,3.69-0.21,5.46c-0.63,3.11-2.93,4.87-6.25,5.16c-0.35,0.03-0.7,0.05-1.34,0.09c1.84,1.88,3.53,3.6,5.21,5.32
			c1.69,1.73,3.39,3.46,5.29,5.4c-3.39,0-6.49,0.02-9.58-0.03c-0.35-0.01-0.75-0.4-1.04-0.69c-2.78-2.76-5.54-5.54-8.31-8.31
			c-1.72-1.73-1.98-1.8-4.63-1.38c0,3.4,0,6.83,0,10.33c-2.36,0-4.62,0-6.96,0C90.8,323.61,90.8,314.32,90.8,304.88z M97.81,315.36
			c4.24,0,8.35,0.04,12.45-0.03c1.33-0.02,2.08-1.57,1.28-2.63c-0.36-0.47-1.21-0.77-1.84-0.78c-3.55-0.07-7.11-0.04-10.66-0.03
			c-0.39,0-0.78,0.04-1.23,0.06C97.81,313.1,97.81,314.15,97.81,315.36z" fill="white"/>
		<path d="M192.79,322.5c0,3.47,0,6.89,0,10.39c-2.36,0-4.62,0-6.96,0c0-9.29,0-18.58,0-27.95c0.36-0.02,0.71-0.06,1.06-0.06
			c6.08,0,12.15-0.01,18.23,0.01c0.83,0,1.68,0.09,2.5,0.22c3.3,0.55,5.45,2.54,5.95,5.84c0.26,1.75,0.29,3.6,0.03,5.34
			c-0.54,3.62-2.86,5.57-6.53,5.85c-0.31,0.02-0.61,0.04-1.29,0.09c3.72,3.49,7.23,6.78,10.74,10.08c-0.13,0.18-0.27,0.36-0.4,0.54
			c-0.28,0.03-0.56,0.09-0.84,0.09c-2.64,0.01-5.28,0.04-7.91-0.03c-0.52-0.01-1.17-0.27-1.54-0.64c-2.86-2.79-5.77-5.54-8.45-8.5
			C196.03,322.3,194.58,322.29,192.79,322.5z M192.84,315.39c0.63,0,1.11,0,1.58,0c3.47,0,6.95,0.02,10.42-0.01
			c1.62-0.01,2.41-1.13,1.86-2.5c-0.38-0.93-1.18-0.97-1.99-0.97c-3.67-0.01-7.35,0-11.02,0c-0.27,0-0.53,0.06-0.85,0.09
			C192.84,313.12,192.84,314.17,192.84,315.39z" fill="white"/>
		<path d="M244.09,318.92c0,2.04,0.05,4.08-0.01,6.11c-0.13,4.59-2.41,7.43-6.96,7.76c-4.69,0.34-9.44,0.32-14.13,0
			c-4.27-0.29-6.54-2.56-6.83-6.81c-0.32-4.69-0.32-9.44,0-14.13c0.29-4.22,2.51-6.5,6.72-6.78c4.85-0.32,9.75-0.31,14.6,0.05
			c4.18,0.31,6.42,3.11,6.58,7.33c0.09,2.15,0.02,4.31,0.02,6.47C244.08,318.92,244.09,318.92,244.09,318.92z M223.02,318.8
			c0,1.76-0.03,3.52,0.01,5.28c0.03,1.32,0.54,1.84,1.84,1.85c3.44,0.03,6.88,0.03,10.32,0c1.37-0.01,1.89-0.55,1.9-1.91
			c0.02-3.4,0.02-6.8,0-10.2c-0.01-1.37-0.53-1.9-1.9-1.91c-3.4-0.03-6.8-0.03-10.2,0c-1.44,0.01-1.94,0.52-1.97,1.98
			C222.99,315.52,223.02,317.16,223.02,318.8z" fill="white"/>
		<path d="M164.69,311.9c-3.63,0-7.05,0-10.54,0c0-2.37,0-4.62,0-6.95c9.32,0,18.61,0,27.98,0c0,2.28,0,4.53,0,6.92
			c-3.45,0-6.86,0-10.41,0c0,7.06,0,13.99,0,21.01c-2.39,0-4.65,0-7.03,0C164.69,325.96,164.69,319.03,164.69,311.9z" fill="white"/>
		<path d="M156.57,340.49c0,1.18,0,2.29,0,3.5c-3.49,0-6.91,0-10.41,0c0,0.6,0,1.08,0,1.68c2.86,0,5.68,0,8.59,0
			c0,1.23,0,2.36,0,3.59c-2.85,0-5.67,0-8.58,0c0,0.59,0,1.08,0,1.67c3.43,0,6.86,0,10.37,0c0,1.23,0,2.36,0,3.57
			c-4.65,0-9.26,0-13.93,0c0-4.67,0-9.3,0-14.01C147.24,340.49,151.85,340.49,156.57,340.49z" fill="white"/>
		<path d="M186.47,345.66c0,1.28,0,2.39,0,3.59c-2.87,0-5.7,0-8.61,0c0,0.59,0,1.08,0,1.67c3.42,0,6.85,0,10.37,0
			c0,1.23,0,2.36,0,3.57c-4.64,0-9.25,0-13.92,0c0-4.67,0-9.29,0-14c4.61,0,9.23,0,13.93,0c0,1.11,0,2.25,0,3.49
			c-3.46,0-6.88,0-10.38,0c0,0.6,0,1.09,0,1.68C180.7,345.66,183.52,345.66,186.47,345.66z" fill="white"/>
		<path d="M211.18,344.02c0,0.61,0,1.08,0,1.64c2.88,0,5.71,0,8.62,0c0,1.23,0,2.36,0,3.59c-2.84,0-5.67,0-8.58,0
			c0,0.59,0,1.08,0,1.67c3.43,0,6.86,0,10.37,0c0,1.23,0,2.36,0,3.57c-4.64,0-9.26,0-13.93,0c0-4.67,0-9.29,0-14
			c4.62,0,9.23,0,13.94,0c0,1.12,0,2.25,0,3.53C218.1,344.02,214.64,344.02,211.18,344.02z" fill="white"/>
		<path d="M265.69,345.25c0.07-1.12-0.51-1.3-1.36-1.27c-1.44,0.05-2.88,0.01-4.32,0.01c-0.64,0-1.37-0.13-1.35,0.87
			c0.02,1.01,0.8,0.79,1.41,0.81c1.83,0.05,3.67,0.05,5.5,0.15c2.1,0.12,3.24,1.26,3.53,3.37c0.48,3.53-1.09,5.36-4.61,5.36
			c-1.76,0-3.52,0.03-5.28-0.01c-2.68-0.05-4.1-1.57-4.03-4.37c1.06-0.14,2.15-0.29,3.32-0.45c0.07,1.19,0.82,1.28,1.74,1.25
			c1.48-0.06,2.96,0.03,4.43-0.05c0.34-0.02,0.65-0.48,0.98-0.73c-0.33-0.3-0.65-0.85-1-0.87c-1.71-0.09-3.44-0.03-5.15-0.04
			c-1.64-0.01-3.17-0.37-3.9-2.02c-0.8-1.81-0.8-3.67,0.32-5.38c0.72-1.1,1.91-1.43,3.14-1.46c2.04-0.05,4.08-0.06,6.11,0
			c2.37,0.06,3.88,1.48,3.91,3.66c0,0.29-0.37,0.78-0.64,0.85C267.61,345.11,266.73,345.14,265.69,345.25z" fill="white"/>
		<path d="M198.16,351.03c-1.55-1.64-2.86-3.02-4.18-4.41c-0.11,0.04-0.21,0.09-0.32,0.13c0,2.55,0,5.11,0,7.73
			c-1.27,0-2.36,0-3.52,0c0-4.65,0-9.28,0-13.98c1.35-0.25,2.53-0.23,3.59,0.99c1.3,1.5,2.81,2.82,4.29,4.28
			c1.38-1.37,2.83-2.63,4.05-4.08c1.04-1.24,2.21-1.55,3.75-1.19c0,4.6,0,9.23,0,13.95c-1.09,0-2.22,0-3.46,0c0-2.57,0-5.1,0-7.83
			C200.91,348.16,199.6,349.53,198.16,351.03z" fill="white"/>
		<path d="M237.42,354.45c-1.57,0.38-2.7-0.05-3.77-1.21c-2.06-2.23-4.29-4.3-6.6-6.59c0,2.66,0,5.2,0,7.83c-1.27,0-2.37,0-3.53,0
			c0-4.66,0-9.31,0-13.96c1.5-0.33,2.64-0.05,3.74,1.14c2.1,2.28,4.4,4.37,6.73,6.66c0-2.67,0-5.24,0-7.86c1.2,0,2.26,0,3.43,0
			C237.42,345.11,237.42,349.76,237.42,354.45z" fill="white"/>
		<path d="M116.16,348.42c0.49,0.1,0.89,0.1,1.18,0.27c0.77,0.45,2.22-0.21,2.32,1.29c0.15,2.11-0.8,3.75-2.4,4.27
			c-0.56,0.18-1.17,0.28-1.76,0.29c-1.92,0.04-3.84,0.04-5.76,0.01c-2.62-0.04-4.07-1.46-4.14-4.1c-0.05-2-0.05-4,0-6
			c0.07-2.58,1.5-4,4.06-4.05c2-0.04,4-0.05,6,0c2.69,0.08,4.34,2.05,3.99,4.73c-0.03,0.25-0.28,0.6-0.5,0.67
			c-0.94,0.29-1.91,0.5-2.88,0.73c-0.34-2.54-0.34-2.54-2.89-2.54c-1.08,0-2.16,0.03-3.24-0.01c-0.74-0.03-1.02,0.31-1.02,0.99
			c0,1.68,0,3.36,0,5.04c0,0.72,0.36,0.97,1.06,0.95c1.48-0.03,2.96-0.09,4.44,0.01c1.24,0.08,1.7-0.38,1.54-1.57
			C116.13,349.14,116.16,348.86,116.16,348.42z" fill="white"/>
		<path d="M131.98,354.47c0-1.74,0-3.4,0-5.12c-2.34,0-4.6,0-7.01,0c0,1.72,0,3.41,0,5.15c-1.22,0-2.28,0-3.44,0
			c0-4.63,0-9.28,0-14.01c1.06,0,2.16,0,3.4,0c0,1.67,0,3.37,0,5.13c2.4,0,4.66,0,7.05,0c0-1.71,0-3.4,0-5.15c1.22,0,2.32,0,3.47,0
			c0,4.68,0,9.3,0,14.01C134.34,354.47,133.25,354.47,131.98,354.47z" fill="white"/>
		<path d="M30.44,330.31c-0.33-0.16-0.68-0.29-1-0.47c-5.73-3.09-9.11-8.13-11.51-13.95c-1.79-4.34-2.63-8.87-2.61-13.57
			c0.01-1.71,0.42-2.13,2.12-2.13c2.04-0.01,4.08,0.05,6.12-0.02c1.71-0.06,1.08,1.21,1.24,2.01c0.19,0.98-0.58,0.85-1.16,0.86
			c-1.4,0.01-2.8,0.05-4.2-0.01c-0.92-0.04-1.29,0.21-1.21,1.22c0.67,8.49,3.55,15.89,10.15,21.64c1.13,0.98,1.59,2.74,2.36,4.14
			C30.64,330.12,30.54,330.21,30.44,330.31z" fill="white"/>
		<path d="M69.92,330.05c0.94-1.84,1.57-3.75,3.31-5.23c4.22-3.58,6.54-8.42,7.96-13.67c0.58-2.14,0.73-4.4,1.11-6.6
			c0.19-1.13-0.14-1.61-1.37-1.52c-1.39,0.1-2.8,0.02-4.2,0.02c-0.55,0-1.19-0.03-0.96-0.8c0.21-0.71-0.59-2,0.93-2.04
			c2.32-0.06,4.64-0.04,6.96,0c1.13,0.02,1.56,0.59,1.57,1.95c0.02,3.74-0.48,7.42-1.63,10.98c-1.45,4.49-3.44,8.74-6.76,12.15
			c-1.7,1.75-3.84,3.08-5.8,4.58c-0.26,0.2-0.61,0.29-0.92,0.44C70.06,330.22,69.99,330.14,69.92,330.05z" fill="white"/>
		<path d="M97.75,339.58c2.67,5.04,5.24,9.9,7.92,14.97c-1.3,0-2.44,0.06-3.56-0.04c-0.31-0.03-0.68-0.49-0.85-0.83
			c-0.31-0.62-0.71-0.85-1.41-0.82c-1.16,0.06-2.32,0.06-3.47,0c-1.05-0.05-1.97-0.01-2.37,1.22c-0.07,0.22-0.54,0.43-0.83,0.45
			c-1.03,0.05-2.07,0.02-3.35,0.02C92.5,349.52,95.09,344.62,97.75,339.58z M97.74,347.11c-0.41,0.84-0.71,1.45-1.03,2.09
			c0.77,0,1.38,0,2.12,0C98.46,348.49,98.15,347.9,97.74,347.11z" fill="white"/>
		<path d="M157.5,340.4c1.28,0,2.36-0.06,3.42,0.03c0.33,0.03,0.75,0.39,0.93,0.71c1.02,1.81,1.97,3.65,2.95,5.48
			c0.18,0.34,0.37,0.68,0.63,1.16c1.21-2.25,2.36-4.3,3.41-6.4c0.38-0.75,0.81-1.07,1.65-1c0.87,0.08,1.75,0.02,2.86,0.02
			c-2.65,5.02-5.23,9.91-7.91,15C162.78,350.38,160.2,345.5,157.5,340.4z" fill="white"/>
		<path d="M253.29,340.49c0,1.19,0,2.29,0,3.5c-1.73,0-3.39,0-5.2,0c0,3.56,0,7.01,0,10.52c-1.22,0-2.29,0-3.49,0
			c0-3.45,0-6.9,0-10.49c-1.82,0-3.52,0-5.27,0c0-1.23,0-2.34,0-3.53C243.96,340.49,248.57,340.49,253.29,340.49z" fill="white"/>
		<path d="M137.37,340.45c1.15,0,2.22,0,3.36,0c0,4.7,0,9.35,0,14.06c-1.14,0-2.21,0-3.36,0
			C137.37,349.85,137.37,345.2,137.37,340.45z" fill="white"/>
	</g>
</g>
</svg>
