<?xml version="1.0" encoding="utf-8"?>
<!-- Made by Szalik  -->
<svg version="1.1" id="neverplayed" xmlns="http://www.w3.org/2000/svg" xmlns:xlink="http://www.w3.org/1999/xlink" x="0px" y="0px" xml:space="preserve">
<g>
	<g>
		<path d="M169.15,222.87c0.37-0.62,0.66-1.19,1.02-1.71c0.62-0.91,1.56-0.94,2.11,0c1.65,2.79,3.27,5.59,4.85,8.41
			c0.53,0.95,0.02,1.78-1.1,1.8c-3.2,0.04-6.4,0.04-9.6,0c-1.17-0.01-1.61-0.83-1.08-1.89c0.28-0.57,0.62-1.11,1.01-1.8
			c-0.91-0.28-1.72-0.58-2.55-0.79c-13.75-3.5-27.87,5.59-30.34,19.52c-2.53,14.25,7.51,27.61,21.81,29.03
			c18.8,1.87,32.65-17.07,25.21-34.42c-0.31-0.73-0.47-1.63-0.37-2.41c0.13-1.12,1.24-1.95,2.39-2c1.24-0.05,2.17,0.51,2.69,1.64
			c1.52,3.26,2.41,6.69,2.67,10.27c1.12,15.2-9.09,28.82-23.91,31.89c-14.88,3.09-29.8-5.2-34.64-19.65
			c-3.94-11.77-1.53-22.51,7.3-31.26c8.79-8.71,19.44-10.81,31.24-7.08C168.26,222.53,168.63,222.68,169.15,222.87z" fill="white"/>
		<path d="M230.49,225.97c9.36,0,18.62,0,27.96,0c0,2.3,0,4.56,0,6.94c-6.98,0-13.91,0-20.94,0c0,1.19,0,2.24,0,3.45
			c5.77,0,11.54,0,17.42,0c0,2.4,0,4.65,0,7.02c-5.77,0-11.54,0-17.41,0c0,1.22,0,2.31,0,3.54c6.95,0,13.88,0,20.92,0
			c0,2.38,0,4.64,0,6.99c-9.26,0-18.56,0-27.94,0C230.49,244.65,230.49,235.36,230.49,225.97z" fill="white"/>
		<path d="M318.33,236.39c0,2.46,0,4.69,0,7.04c-5.84,0-11.61,0-17.47,0c0,1.22,0,2.31,0,3.53c6.99,0,13.93,0,20.94,0
			c0,2.39,0,4.64,0,6.98c-9.31,0-18.6,0-27.97,0c0-9.31,0-18.6,0-27.95c9.34,0,18.64,0,27.99,0c0,2.29,0,4.52,0,6.92
			c-6.96,0-13.93,0-20.97,0c0,1.23,0,2.29,0,3.49C306.66,236.39,312.44,236.39,318.33,236.39z" fill="white"/>
		<path d="M332.27,253.97c-2.47,0-4.69,0-7,0c0-9.33,0-18.62,0-27.99c0.37-0.02,0.72-0.05,1.06-0.05c6.08,0,12.15-0.01,18.23,0.01
			c0.83,0,1.68,0.09,2.5,0.22c3.3,0.55,5.45,2.55,5.94,5.85c0.26,1.75,0.29,3.6,0.03,5.35c-0.53,3.57-2.83,5.53-6.42,5.83
			c-0.34,0.03-0.69,0.05-1.43,0.1c3.74,3.51,7.26,6.81,10.77,10.11c-0.13,0.17-0.26,0.34-0.38,0.51c-0.29,0.03-0.57,0.09-0.86,0.09
			c-2.6,0.01-5.2,0.05-7.8-0.03c-0.59-0.02-1.31-0.32-1.74-0.73c-2.73-2.64-5.49-5.26-8.03-8.08c-1.37-1.51-2.82-2.06-4.88-1.58
			C332.27,246.96,332.27,250.41,332.27,253.97z M332.26,236.39c4.27,0,8.42,0.03,12.56-0.02c1.07-0.01,1.5-0.8,1.46-1.82
			c-0.05-1.12-0.66-1.61-2.07-1.62c-3.71-0.02-7.43-0.01-11.14,0c-0.26,0-0.52,0.08-0.82,0.13
			C332.26,234.17,332.26,235.2,332.26,236.39z" fill="white"/>
		<path d="M226.75,254.01c-1.52,0-2.96,0.05-4.39-0.03c-0.41-0.02-0.86-0.35-1.18-0.66c-4.75-4.64-9.48-9.29-14.2-13.95
			c-0.33-0.32-0.53-0.77-0.79-1.16c-0.15,0.11-0.3,0.21-0.45,0.32c0,5.13,0,10.25,0,15.43c-2.4,0-4.65,0-6.97,0
			c0-9.32,0-18.58,0-28.01c1.57,0,3.15-0.05,4.73,0.04c0.35,0.02,0.71,0.47,1.01,0.77c4.7,4.74,9.4,9.48,14.09,14.24
			c0.32,0.33,0.5,0.8,0.75,1.21c0.15-0.11,0.29-0.23,0.44-0.34c0-5.25,0-10.51,0-15.84c2.36,0,4.61,0,6.96,0
			C226.75,235.28,226.75,244.57,226.75,254.01z" fill="white"/>
		<path d="M276.14,255.71c-5.32-10-10.55-19.81-15.86-29.79c2.64,0,5.07-0.03,7.49,0.04c0.33,0.01,0.76,0.49,0.95,0.86
			c2.28,4.21,4.52,8.45,6.77,12.68c0.19,0.35,0.38,0.69,0.64,1.15c0.27-0.47,0.5-0.83,0.7-1.2c2.25-4.23,4.51-8.45,6.74-12.69
			c0.31-0.6,0.65-0.87,1.36-0.85c2.27,0.05,4.55,0.02,7.07,0.02C286.7,235.88,281.48,245.69,276.14,255.71z" fill="white"/>
		<path d="M257.61,261.49c4.67,0,9.26,0,13.92,0c0,1.15,0,2.25,0,3.51c-3.46,0-6.9,0-10.42,0c0,0.62,0,1.08,0,1.68
			c2.85,0,5.7,0,8.62,0c0,1.24,0,2.34,0,3.59c-2.83,0-5.69,0-8.61,0c0,0.6,0,1.06,0,1.67c3.43,0,6.88,0,10.4,0c0,1.28,0,2.41,0,3.6
			c-4.66,0-9.24,0-13.92,0C257.61,270.89,257.61,266.24,257.61,261.49z" fill="white"/>
		<path d="M273.44,261.45c3.47,0,6.86-0.08,10.24,0.03c2.25,0.07,3.54,1.37,3.66,3.64c0.13,2.27,0.13,4.55,0,6.82
			c-0.13,2.27-1.43,3.58-3.66,3.64c-3.38,0.1-6.77,0.03-10.24,0.03C273.44,270.89,273.44,266.24,273.44,261.45z M276.93,272
			c2.13,0,4.12,0.04,6.11-0.04c0.3-0.01,0.82-0.54,0.83-0.85c0.08-1.71,0.08-3.44,0.01-5.15c-0.01-0.31-0.45-0.86-0.7-0.87
			c-2.06-0.07-4.13-0.04-6.25-0.04C276.93,267.4,276.93,269.63,276.93,272z" fill="white"/>
		<path d="M153.84,245.12c0-2.48-0.01-4.95,0-7.43c0.01-1.34,0.67-2.13,1.74-2.13c1.07,0.01,1.7,0.78,1.7,2.15
			c0.01,4.4,0.03,8.79-0.02,13.18c-0.01,0.8,0.27,1.21,0.94,1.59c4.81,2.69,9.6,5.42,14.39,8.14c0.24,0.14,0.5,0.26,0.73,0.42
			c0.91,0.62,1.18,1.53,0.7,2.38c-0.48,0.84-1.43,1.13-2.39,0.64c-1.06-0.55-2.09-1.17-3.13-1.76c-4.41-2.5-8.81-5.03-13.24-7.49
			c-1.04-0.58-1.47-1.31-1.44-2.5C153.88,249.92,153.84,247.52,153.84,245.12z" fill="white"/>
		<path d="M198.75,275.52c0-4.71,0-9.31,0-13.99c0.32-0.03,0.62-0.09,0.92-0.09c2.92-0.01,5.84-0.01,8.76,0
			c1.65,0.01,3.18,0.39,3.88,2.05c0.78,1.86,0.8,3.77-0.44,5.48c-0.79,1.09-2.04,1.33-3.32,1.34c-2.03,0.02-4.07,0-6.26,0
			c0,1.75,0,3.44,0,5.2C201.03,275.52,199.94,275.52,198.75,275.52z M202.31,266.72c2.12,0,4.15,0.03,6.18-0.04
			c0.27-0.01,0.73-0.53,0.73-0.81c0-0.28-0.47-0.78-0.75-0.79c-2.03-0.07-4.06-0.04-6.15-0.04
			C202.31,265.62,202.31,266.08,202.31,266.72z" fill="white"/>
		<path d="M237.43,260.62c2.67,5.04,5.24,9.9,7.92,14.97c-1.3,0-2.44,0.06-3.56-0.04c-0.31-0.03-0.68-0.49-0.85-0.83
			c-0.31-0.62-0.71-0.86-1.4-0.82c-1.16,0.06-2.32,0.06-3.47,0c-1.05-0.05-1.97-0.02-2.37,1.22c-0.07,0.22-0.54,0.44-0.83,0.45
			c-1.03,0.05-2.07,0.02-3.35,0.02C232.18,270.56,234.77,265.66,237.43,260.62z M238.53,270.29c-0.4-0.76-0.7-1.35-1.1-2.11
			c-0.4,0.76-0.72,1.38-1.1,2.11C237.14,270.29,237.73,270.29,238.53,270.29z" fill="white"/>
		<path d="M214.62,275.52c0-4.71,0-9.33,0-14.01c1.15,0,2.24,0,3.44,0c0,3.49,0,6.91,0,10.48c3.55,0,7.01,0,10.52,0
			c0,1.25,0,2.35,0,3.53C223.93,275.52,219.32,275.52,214.62,275.52z" fill="white"/>
		<path d="M256.61,261.44c-1.72,2.15-3.22,4.15-4.85,6.04c-0.94,1.09-1.44,2.2-1.31,3.67c0.13,1.42,0.03,2.86,0.03,4.37
			c-1.2,0-2.29,0-3.52,0c0-1.32-0.09-2.63,0.02-3.92c0.15-1.7-0.32-3.04-1.48-4.32c-1.6-1.77-3.02-3.72-4.69-5.82
			c1.56,0,2.93-0.04,4.29,0.03c0.27,0.01,0.55,0.41,0.77,0.68c0.94,1.13,1.85,2.28,2.85,3.52c1-1.25,1.87-2.43,2.86-3.51
			c0.34-0.38,0.96-0.65,1.47-0.7C254.14,261.37,255.25,261.44,256.61,261.44z" fill="white"/>
	</g>
</g>
</svg>
