<?xml version="1.0" encoding="utf-8"?>
<!-- Made by Szalik  -->
<svg version="1.1" id="fav" xmlns="http://www.w3.org/2000/svg" xmlns:xlink="http://www.w3.org/1999/xlink" x="0px" y="0px" xml:space="preserve">
<g>
	<g>
		<path d="M131.46,240.36c2.1-2.07,4.21-4.13,6.3-6.21c1.44-1.44,2.84-2.91,4.29-4.34c0.56-0.55,0.72-1.05,0.56-1.89
			c-0.93-4.93-1.76-9.87-2.66-15c2.53,1.25,4.96,2.44,7.39,3.64c2.21,1.1,4.4,2.24,6.64,3.29c0.38,0.18,1.02,0.1,1.4-0.1
			c4.02-2.11,8.02-4.28,12.02-6.42c0.45-0.24,0.92-0.45,1.57-0.77c-0.29,1.97-0.55,3.78-0.82,5.58c-0.49,3.27-1.02,6.54-1.43,9.82
			c-0.06,0.46,0.32,1.11,0.7,1.48c3.31,3.24,6.67,6.43,10.02,9.64c0.25,0.24,0.48,0.51,0.85,0.92c-2.17,0.37-4.19,0.71-6.21,1.04
			c-2.95,0.49-5.9,0.99-8.85,1.46c-0.74,0.12-1.15,0.47-1.48,1.16c-2.14,4.51-4.33,8.99-6.62,13.71c-0.58-1.07-1.08-1.98-1.56-2.89
			c-1.83-3.49-3.69-6.97-5.44-10.5c-0.44-0.88-1.02-1.17-1.92-1.28c-4.86-0.63-9.71-1.32-14.56-1.98
			C131.59,240.6,131.53,240.48,131.46,240.36z" fill="white"/>
		<path d="M127.44,289.12c0.79-4.96,1.51-9.69,2.31-14.41c0.2-1.19,0.07-2.02-0.9-2.92c-3.3-3.08-6.49-6.29-9.71-9.46
			c-0.22-0.22-0.43-0.44-0.77-0.81c3.27-0.52,6.37-1.01,9.46-1.51c1.89-0.3,3.78-0.64,5.69-0.89c0.73-0.09,1.1-0.41,1.41-1.05
			c2.03-4.16,4.11-8.3,6.18-12.44c0.19-0.38,0.39-0.75,0.67-1.28c1.04,2.05,2.01,3.96,2.99,5.88c1.32,2.6,2.68,5.18,3.96,7.79
			c0.32,0.65,0.72,0.93,1.44,1.03c4.98,0.7,9.95,1.46,15.08,2.22c-0.28,0.34-0.46,0.58-0.66,0.79c-3.36,3.37-6.72,6.74-10.11,10.08
			c-0.51,0.5-0.67,0.96-0.54,1.68c0.87,4.95,1.7,9.92,2.57,15.08c-0.47-0.22-0.81-0.36-1.14-0.52c-4.2-2.14-8.39-4.3-12.62-6.39
			c-0.44-0.22-1.17-0.21-1.6,0.01C136.62,284.31,132.14,286.67,127.44,289.12z" fill="white"/>
		<path d="M353.88,266.69c-7.82,0-15.53,0-23.32,0c0-7.8,0-15.57,0-23.42c7.74,0,15.47,0,23.3,0c0,1.89,0,3.78,0,5.81
			c-5.82,0-11.59,0-17.44,0c0,1.04,0,1.94,0,2.98c4.84,0,9.65,0,14.53,0c0,2,0,3.86,0,5.89c-4.84,0-9.65,0-14.53,0
			c0,1.03,0,1.88,0,2.89c5.85,0,11.63,0,17.47,0C353.88,262.85,353.88,264.71,353.88,266.69z" fill="white"/>
		<path d="M356.96,259.4c1.9-0.23,3.75-0.45,5.58-0.66c0.58,2.1,0.58,2.1,2.71,2.1c2.48,0,4.96,0.01,7.44-0.01
			c0.73,0,1.47-0.05,1.71-0.97c0.28-1.12-0.26-1.85-1.5-1.86c-2.6-0.03-5.2,0.03-7.79-0.03c-1.23-0.03-2.48-0.11-3.68-0.38
			c-2.12-0.47-3.49-1.84-4.11-3.93c-0.59-2.01-0.61-4.03-0.04-6.03c0.78-2.74,2.83-4.3,6.02-4.39c3.55-0.1,7.12-0.13,10.67,0.01
			c4.19,0.16,6.67,3.13,6.26,7.35c-1.86,0.24-3.74,0.48-5.61,0.73c-0.48-2.21-0.48-2.21-2.76-2.21c-2.44,0-4.88,0.01-7.32-0.01
			c-1.02-0.01-1.74,0.28-1.76,1.45c-0.02,1.07,0.49,1.52,1.8,1.53c2.84,0.01,5.68-0.02,8.51,0.01c2.68,0.03,5.22,0.58,6.41,3.31
			c1.33,3.05,1.32,6.17-0.61,9.03c-1.01,1.49-2.65,2.14-4.36,2.19c-3.95,0.11-7.93,0.26-11.86-0.03
			C358.73,266.29,356.7,263.53,356.96,259.4z" fill="white"/>
		<path d="M294.24,266.73c-2.47,0-4.94,0.03-7.42-0.03c-0.4-0.01-0.88-0.33-1.19-0.64c-2.32-2.26-4.68-4.49-6.86-6.87
			c-1.11-1.21-2.3-1.38-3.86-1.08c0,2.83,0,5.65,0,8.54c-1.99,0-3.85,0-5.79,0c0-7.76,0-15.53,0-23.38c0.29-0.02,0.59-0.07,0.9-0.07
			c5.12,0,10.23-0.01,15.35,0.01c0.75,0,1.52,0.1,2.25,0.26c0.61,0.14,1.23,0.37,1.78,0.67c2.52,1.36,3.61,4.72,2.89,8.73
			c-0.5,2.78-2.13,4.33-5.06,4.82c-0.39,0.06-0.78,0.12-1.44,0.23c3.01,2.88,5.89,5.62,8.76,8.37
			C294.45,266.44,294.35,266.58,294.24,266.73z M274.97,252.07c3.47,0,6.82,0.01,10.18-0.01c0.97,0,1.45-0.53,1.44-1.51
			c-0.01-1.01-0.54-1.44-1.5-1.44c-1.36,0-2.72,0-4.07,0c-1.99,0-3.98,0-6.04,0C274.97,250.13,274.97,251.03,274.97,252.07z" fill="white"/>
		<path d="M242.65,254.99c0-1.76-0.06-3.52,0.01-5.27c0.16-4.01,2.51-6.38,6.51-6.49c3.43-0.09,6.87-0.08,10.3,0
			c3.89,0.09,6.22,2.1,6.46,5.96c0.23,3.86,0.21,7.75,0,11.61c-0.2,3.52-2.06,5.52-5.56,5.77c-3.97,0.28-7.99,0.29-11.97,0.01
			c-3.71-0.26-5.61-2.65-5.75-6.43C242.6,258.43,242.65,256.71,242.65,254.99z M260.19,254.99c0-1.44-0.01-2.87,0-4.31
			c0.01-1.03-0.44-1.57-1.49-1.57c-2.91,0-5.83,0-8.74,0c-0.93,0-1.44,0.48-1.44,1.38c-0.02,2.95-0.02,5.9-0.01,8.86
			c0,0.97,0.54,1.46,1.5,1.46c2.91,0,5.83,0.01,8.74-0.01c0.98,0,1.45-0.53,1.44-1.51C260.18,257.87,260.19,256.43,260.19,254.99z" fill="white"/>
		<path d="M195.71,257.97c-5.84,0-11.58,0-17.5,0c0,2.95,0,5.8,0,8.7c-2.04,0-3.9,0-5.83,0c0-7.81,0-15.58,0-23.41
			c7.78,0,15.51,0,23.32,0c0,1.9,0,3.77,0,5.82c-5.8,0-11.6,0-17.47,0c0,1.09,0,1.99,0,3c5.85,0,11.62,0,17.47,0
			C195.71,254.05,195.71,255.92,195.71,257.97z" fill="white"/>
		<path d="M220.79,266.73c-2.18,0-4.14,0.04-6.09-0.04c-0.35-0.01-0.87-0.44-0.98-0.79c-0.58-1.77-1.74-2.24-3.54-2.09
			c-2.18,0.18-4.39,0.08-6.59,0.02c-0.8-0.02-1.33,0.18-1.55,0.95c-0.49,1.73-1.66,2.15-3.34,1.98c-1.37-0.14-2.78-0.03-4.37-0.03
			c4.43-8.33,8.77-16.51,13.22-24.9C212,250.18,216.33,258.34,220.79,266.73z M209.4,257.88c-0.62-1.18-1.19-2.24-1.84-3.47
			c-0.66,1.24-1.21,2.28-1.84,3.47C206.97,257.88,208.03,257.88,209.4,257.88z" fill="white"/>
		<path d="M227.96,268.14c-4.45-8.4-8.78-16.57-13.22-24.94c2.22,0,4.27-0.03,6.32,0.04c0.26,0.01,0.58,0.47,0.75,0.78
			c1.84,3.41,3.65,6.84,5.47,10.25c0.19,0.35,0.39,0.69,0.65,1.16c0.27-0.46,0.5-0.81,0.7-1.19c1.79-3.35,3.59-6.69,5.33-10.06
			c0.38-0.73,0.78-1.05,1.63-1.02c1.78,0.07,3.57,0.02,5.57,0.02C236.75,251.57,232.4,259.76,227.96,268.14z" fill="white"/>
		<path d="M312.91,249.13c-2.99,0-5.82,0-8.73,0c0-2,0-3.89,0-5.85c7.72,0,15.46,0,23.28,0c0,1.88,0,3.77,0,5.82
			c-2.89,0-5.75,0-8.71,0c0,5.93,0,11.7,0,17.56c-1.96,0-3.82,0-5.85,0C312.91,260.85,312.91,255.04,312.91,249.13z" fill="white"/>
		<path d="M301.2,266.69c-1.93,0-3.76,0-5.67,0c0-7.8,0-15.57,0-23.41c1.85,0,3.71,0,5.67,0C301.2,251.04,301.2,258.81,301.2,266.69
			z" fill="white"/>
	</g>
</g>
</svg>
