<?xml version="1.0" encoding="utf-8"?>
<svg xmlns="http://www.w3.org/2000/svg">
  <path d="M 27.789 38.512 L 27.789 38.512 L 17.654 38.512 L 15.529 50.781 L 0 50.781 L 8.991 0 L 33.511 0 L 33.511 0 C 42.774 0 47.406 4.279 47.406 12.837 L 47.406 12.837 L 47.406 12.837 C 47.406 16.9 46.833 20.564 45.689 23.833 L 45.689 23.833 L 45.689 23.833 C 44.545 27.118 43.283 29.729 41.902 31.66 L 41.902 31.66 L 41.902 31.66 C 40.505 33.575 38.587 35.2 36.154 36.535 L 36.154 36.535 L 36.154 36.535 C 33.737 37.854 30.95 38.512 27.789 38.512 Z M 25.746 13 L 22.15 13 L 19.943 25.512 L 23.539 25.512 L 23.539 25.512 C 25.392 25.512 26.79 25.315 27.735 24.916 L 27.735 24.916 L 27.735 24.916 C 28.697 24.502 29.315 23.563 29.588 22.1 L 29.588 22.1 L 29.588 22.1 C 30.296 18.091 30.65 15.898 30.65 15.518 L 30.65 15.518 L 30.65 15.518 C 30.65 14.49 30.241 13.813 29.424 13.488 L 29.424 13.488 L 29.424 13.488 C 28.607 13.163 27.381 13 25.746 13 L 25.746 13 Z M 54.68 0 L 70.209 0 L 63.425 38.106 L 68.983 38.106 L 68.983 38.106 C 70.89 38.106 72.253 37.854 73.07 37.347 L 73.07 37.347 L 73.07 37.347 C 73.887 36.824 74.459 35.642 74.786 33.8 L 74.786 33.8 L 80.835 0 L 96.364 0 L 91.297 28.519 L 91.297 28.519 C 90.479 33.123 89.534 36.833 88.463 39.65 L 88.463 39.65 L 88.463 39.65 C 87.409 42.467 85.929 44.85 84.022 46.8 L 84.022 46.8 L 84.022 46.8 C 82.115 48.749 79.753 50.103 76.939 50.862 L 76.939 50.862 L 76.939 50.862 C 74.141 51.62 70.591 52 66.286 52 L 66.286 52 L 66.286 52 C 59.693 52 55.069 51.006 52.419 49.021 L 52.419 49.021 L 52.419 49.021 C 49.784 47.051 48.468 43.658 48.468 38.837 L 48.468 38.837 L 48.468 38.837 C 48.468 36.183 48.85 32.744 49.612 28.519 L 49.612 28.519 L 54.68 0 Z M 135.841 37.781 L 133.553 50.781 L 91.705 50.781 L 93.503 40.625 L 118.105 13.488 L 117.942 13 L 101.677 13 L 102.576 0 L 142.217 0 L 140.419 10.156 L 115.98 37.294 L 116.062 37.781 L 135.841 37.781 Z M 180.632 37.781 L 178.343 50.781 L 136.495 50.781 L 138.293 40.625 L 162.895 13.488 L 162.732 13 L 146.467 13 L 147.366 0 L 187.007 0 L 185.209 10.156 L 160.77 37.294 L 160.852 37.781 L 180.632 37.781 Z M 257.38 19.825 L 255.254 31.606 L 239.725 31.606 L 238.663 37.781 L 257.707 37.781 L 255.418 50.781 L 220.845 50.781 L 229.835 0 L 264 0 L 259.75 13 L 242.994 13 L 241.85 19.825 L 257.38 19.825 Z" style="white-space: pre; fill: rgb(255, 255, 255);"/>
  <path d="M 202.149 35.863 L 217.474 35.863 L 217.457 51.176 L 202.133 51.176 L 202.149 35.863 Z" style="fill: rgb(204, 204, 204);" transform="matrix(0.996034, 0.088971, -0.088971, 0.996034, 4.704, -18.493811)"/>
  <path d="M 186.979 17.649 L 202.307 17.649 L 202.29 32.958 L 186.963 32.958 L 186.979 17.649 Z" style="fill: rgb(204, 204, 204);" transform="matrix(0.996034, 0.088971, -0.088971, 0.996034, 3.023152, -17.216497)"/>
  <path d="M 185.448 34.587 L 200.773 34.587 L 200.756 49.901 L 185.432 49.901 L 185.448 34.587 Z" style="fill: rgb(204, 204, 204);" transform="matrix(0.996034, 0.088971, -0.088971, 0.996034, 4.524286, -17.012967)"/>
  <path d="M 188.513 0.703 L 203.841 0.703 L 203.824 16.015 L 188.497 16.015 L 188.513 0.703 Z" style="fill: rgb(204, 204, 204);" transform="matrix(0.996034, 0.088971, -0.088971, 0.996034, 1.521669, -17.420177)"/>
</svg>