<?xml version="1.0" encoding="utf-8"?>
<!-- Made by Szalik  -->
<svg version="1.1" id="Warstwa_1" xmlns="http://www.w3.org/2000/svg" xmlns:xlink="http://www.w3.org/1999/xlink" x="0px" y="0px" xml:space="preserve">
<g>
	<g>
		<path d="M165.17,262.4c0-7.87,0-15.61,0-23.43c0.31-0.03,0.61-0.08,0.92-0.08c5.12,0,10.23-0.02,15.35,0.01
			c0.87,0.01,1.76,0.12,2.6,0.34c2.14,0.55,3.56,1.92,4.13,4.07c0.6,2.26,0.54,4.49-0.24,6.72c-0.15,0.43-0.13,1,0.02,1.44
			c0.8,2.27,0.84,4.56,0.14,6.83c-0.77,2.49-2.86,3.9-5.89,4.09c-0.4,0.03-0.8,0.02-1.2,0.02
			C175.77,262.4,170.54,262.4,165.17,262.4z M171.03,247.76c3.38,0,6.65,0.01,9.92-0.01c1.25-0.01,1.7-0.43,1.71-1.49
			c0.02-1.18-0.68-1.49-1.7-1.48c-3.03,0.01-6.07,0-9.1,0.01c-0.26,0-0.52,0.08-0.83,0.13
			C171.03,245.85,171.03,246.72,171.03,247.76z M171.04,256.51c3.42,0,6.68,0.02,9.94-0.01c1.27-0.01,1.71-0.45,1.68-1.5
			c-0.03-1.15-0.78-1.34-1.71-1.34c-3.03,0.01-6.06,0-9.09,0.01c-0.26,0-0.52,0.08-0.82,0.12
			C171.04,254.69,171.04,255.51,171.04,256.51z" fill="white"/>
		<path d="M259.26,253.64c3.07,2.94,5.94,5.68,8.81,8.42c-0.07,0.11-0.14,0.22-0.2,0.34c-2.58,0-5.15,0.02-7.73-0.03
			c-0.32-0.01-0.67-0.38-0.94-0.65c-2.33-2.3-4.72-4.55-6.94-6.96c-1.1-1.2-2.28-1.21-3.77-0.96c0,2.84,0,5.66,0,8.54
			c-1.99,0-3.85,0-5.78,0c0-7.8,0-15.56,0-23.46c0.7,0,1.37,0,2.03,0c4.68,0,9.35-0.01,14.03,0c4.74,0.01,7.09,2.23,7.3,6.96
			c0.04,0.99-0.05,2.01-0.25,2.97c-0.55,2.63-2.11,4.05-4.78,4.51C260.58,253.41,260.12,253.49,259.26,253.64z M248.55,247.76
			c3.37,0,6.64-0.01,9.91,0c1.02,0,1.72-0.32,1.72-1.49c0-1.07-0.42-1.47-1.69-1.48c-3.07-0.02-6.15-0.01-9.22,0
			c-0.22,0-0.45,0.08-0.71,0.13C248.55,245.85,248.55,246.71,248.55,247.76z" fill="white"/>
		<path d="M269.1,262.32c0-7.77,0-15.51,0-23.37c0.32-0.02,0.66-0.07,1-0.07c5.07,0,10.15-0.01,15.22,0.01
			c0.67,0,1.36,0.08,2.02,0.21c2.89,0.54,4.8,2.31,4.94,5.21c0.2,4.22,0.22,8.46,0,12.68c-0.16,3.08-2.21,5.12-5.54,5.26
			C280.89,262.49,275.02,262.32,269.1,262.32z M274.97,256.45c3.57,0,7.07,0.04,10.57-0.06c0.36-0.01,0.99-0.85,1-1.31
			c0.09-2.95,0.05-5.91,0.05-8.86c0-0.93-0.48-1.4-1.4-1.41c-1.28-0.01-2.55-0.01-3.83-0.01c-2.11,0-4.21,0-6.39,0
			C274.97,248.74,274.97,252.55,274.97,256.45z" fill="white"/>
		<path d="M203.16,262.39c-1.72,0-3.44,0.06-5.15-0.01c-3.72-0.15-6.07-2.04-6.33-5.71c-0.29-4.01-0.29-8.07,0.01-12.08
			c0.27-3.63,2.58-5.55,6.24-5.66c3.55-0.11,7.11-0.12,10.66,0c3.77,0.13,6,2.16,6.23,5.93c0.23,3.86,0.23,7.75,0,11.61
			c-0.23,3.79-2.55,5.77-6.38,5.91C206.68,262.44,204.92,262.39,203.16,262.39z M209.07,250.62
			C209.07,250.62,209.07,250.62,209.07,250.62c0.01-1.4,0.03-2.79,0-4.19c-0.02-1.31-0.33-1.62-1.66-1.63
			c-2.79-0.02-5.59,0.01-8.38-0.01c-1.09-0.01-1.64,0.49-1.64,1.57c0,2.87-0.01,5.75,0.01,8.62c0,0.94,0.45,1.52,1.45,1.52
			c2.95,0.01,5.9,0.01,8.86-0.01c0.92-0.01,1.38-0.51,1.38-1.44C209.07,253.57,209.07,252.09,209.07,250.62z" fill="white"/>
		<path d="M214.74,262.4c4.44-8.35,8.77-16.52,13.22-24.89c4.44,8.35,8.77,16.51,13.22,24.88c-2.25,0-4.3,0.04-6.35-0.05
			c-0.3-0.01-0.71-0.61-0.84-1.01c-0.52-1.53-1.51-1.95-3.08-1.85c-2.31,0.16-4.64,0.07-6.96,0.02c-0.74-0.02-1.25,0.17-1.47,0.89
			c-0.52,1.74-1.68,2.25-3.43,2.03C217.71,262.27,216.33,262.4,214.74,262.4z M227.95,250.06c-0.67,1.3-1.21,2.34-1.8,3.48
			c1.28,0,2.37,0,3.64,0C229.17,252.37,228.62,251.33,227.95,250.06z" fill="white"/>
		<path d="M135.36,276.48c-9.08,0-18.16-0.02-27.24,0.02c-1.16,0.01-1.48-0.36-1.32-1.46c0.36-2.4,0.95-4.63,3.23-6
			c0.19-0.12,0.31-0.51,0.3-0.77c-0.04-0.99-0.23-1.98-0.23-2.96c-0.03-13.44-0.03-26.88-0.04-40.32c0-1.63,0-1.63,1.66-1.63
			c15.84,0,31.68,0.01,47.52-0.03c1.24,0,1.54,0.38,1.53,1.57c-0.04,14.32-0.02,28.64-0.04,42.96c0,0.76,0.15,1.29,0.79,1.83
			c1.84,1.57,2.28,3.78,2.4,6.06c0.05,0.81-0.58,0.71-1.09,0.72c-3.28,0.02-6.56,0.04-9.84,0.05c-5.88,0.01-11.76,0-17.64,0
			C135.36,276.51,135.36,276.49,135.36,276.48z M111,224.4c0,14.87,0,29.63,0,44.39c16.22,0,32.46,0,48.71,0
			c0-14.84,0-29.58,0-44.39C143.51,224.4,127.38,224.4,111,224.4z M163.32,275.46c-0.67-1.65-1.14-3.07-1.81-4.39
			c-0.45-0.9-1.31-1.31-2.41-1.23c-1.11,0.08-2.24,0.02-3.36,0.02c-14.71,0-29.43-0.01-44.14,0.02c-0.59,0-1.33,0.15-1.75,0.51
			c-1.53,1.29-1.93,3.09-2.07,5.07C126.22,275.46,144.52,275.46,163.32,275.46z" fill="white"/>
		<path d="M118.91,259.46c2.2,0,3.95,1.76,3.95,3.94c0,2.15-1.83,3.98-3.97,3.96c-2.17-0.02-3.95-1.81-3.94-3.98
			C114.95,261.19,116.7,259.45,118.91,259.46z" fill="white"/>
		<path d="M144.96,263.4c-0.01,2.17-1.81,3.97-3.97,3.96c-2.16-0.01-3.96-1.82-3.95-3.99c0.01-2.2,1.76-3.92,3.97-3.92
			C143.21,259.46,144.97,261.21,144.96,263.4z" fill="white"/>
		<path d="M152.47,245.62c-2.19,0.02-3.96-1.72-3.97-3.92c-0.01-2.21,1.72-3.97,3.9-3.99c2.15-0.02,3.99,1.78,4,3.93
			C156.43,243.8,154.64,245.59,152.47,245.62z" fill="white"/>
		<path d="M152.47,256.47c-2.2,0.02-3.96-1.72-3.97-3.91c-0.01-2.2,1.72-3.97,3.91-3.99c2.15-0.02,3.98,1.78,4,3.93
			C156.42,254.66,154.65,256.45,152.47,256.47z" fill="white"/>
		<path d="M126.21,263.44c-0.02-2.22,1.68-3.96,3.89-3.98c2.21-0.02,3.99,1.7,4.02,3.88c0.03,2.13-1.78,3.98-3.92,4.02
			C128.04,267.4,126.22,265.61,126.21,263.44z" fill="white"/>
		<path d="M148.5,263.43c-0.01-2.22,1.69-3.96,3.9-3.97c2.19-0.01,3.99,1.73,4.01,3.9c0.02,2.14-1.78,3.97-3.93,4.01
			C150.32,267.4,148.51,265.6,148.5,263.43z" fill="white"/>
		<path d="M144.96,241.72c-0.02,2.17-1.82,3.93-4.01,3.9c-2.18-0.03-3.94-1.83-3.91-4c0.03-2.18,1.84-3.94,4.01-3.91
			C143.23,237.74,144.98,239.54,144.96,241.72z M140.97,244.66c1.63,0.02,2.99-1.3,3.03-2.93c0.03-1.63-1.28-3.01-2.9-3.06
			c-1.68-0.05-3.08,1.31-3.08,2.99C138.01,243.3,139.33,244.65,140.97,244.66z" fill="white"/>
		<path d="M118.87,245.62c-2.19-0.02-3.94-1.78-3.93-3.97c0.01-2.18,1.8-3.95,3.97-3.94c2.17,0.01,3.94,1.81,3.94,3.98
			C122.85,243.85,121.05,245.63,118.87,245.62z M121.89,241.61c-0.03-1.62-1.39-2.95-3.02-2.94c-1.63,0.01-2.96,1.36-2.96,2.99
			c0,1.7,1.38,3.04,3.07,3C120.61,244.61,121.92,243.24,121.89,241.61z" fill="white"/>
		<path d="M152.42,226.59c2.17-0.01,3.98,1.78,3.99,3.93c0,2.15-1.81,3.96-3.96,3.98c-2.17,0.02-3.95-1.76-3.95-3.95
			C148.5,228.33,150.21,226.6,152.42,226.59z M149.45,230.55c0.01,1.62,1.36,2.99,2.97,2.99c1.6,0,2.98-1.36,3.02-2.97
			c0.03-1.67-1.37-3.05-3.05-3.02C150.73,227.58,149.45,228.9,149.45,230.55z" fill="white"/>
		<path d="M140.99,226.59c2.2-0.01,3.96,1.73,3.97,3.93c0.01,2.16-1.79,3.98-3.94,3.98c-2.17,0-3.96-1.78-3.97-3.95
			C137.04,228.36,138.79,226.6,140.99,226.59z M140.98,227.55c-1.65,0.01-2.96,1.33-2.96,2.98c0,1.63,1.34,2.99,2.95,3.02
			c1.65,0.02,3.06-1.41,3.03-3.07C143.97,228.84,142.63,227.54,140.98,227.55z" fill="white"/>
		<path d="M114.95,230.53c0-2.2,1.75-3.94,3.95-3.94c2.19,0,3.96,1.76,3.96,3.94c0,2.16-1.8,3.96-3.96,3.96
			C116.73,234.49,114.95,232.71,114.95,230.53z M115.91,230.57c0.02,1.63,1.38,2.98,2.99,2.98c1.65-0.01,3.04-1.45,2.99-3.11
			c-0.05-1.64-1.41-2.91-3.06-2.89C117.19,227.58,115.88,228.92,115.91,230.57z" fill="white"/>
		<path d="M130.11,245.62c-2.19-0.02-3.92-1.78-3.9-3.99c0.02-2.19,1.8-3.95,3.98-3.92c2.16,0.02,3.95,1.85,3.93,4
			C134.1,243.86,132.28,245.64,130.11,245.62z M130.12,244.66c1.63,0.01,3-1.32,3.03-2.94c0.03-1.66-1.37-3.07-3.04-3.05
			c-1.64,0.02-2.95,1.35-2.95,3C127.16,243.32,128.48,244.65,130.12,244.66z" fill="white"/>
		<path d="M126.21,230.53c0-2.21,1.74-3.95,3.94-3.94c2.18,0,3.97,1.77,3.97,3.94c0,2.14-1.83,3.97-3.97,3.97
			C127.97,234.49,126.21,232.72,126.21,230.53z M127.16,230.47c-0.02,1.64,1.27,3.01,2.89,3.07c1.63,0.06,3.09-1.36,3.09-3.01
			c0-1.63-1.33-2.96-2.98-2.98C128.53,227.53,127.19,228.83,127.16,230.47z" fill="white"/>
		<path d="M118.91,256.48c-2.2,0-3.96-1.75-3.96-3.94c0-2.18,1.76-3.96,3.94-3.97c2.16-0.01,3.96,1.78,3.97,3.95
			C122.87,254.68,121.07,256.48,118.91,256.48z M121.9,252.57c0.02-1.62-1.29-2.99-2.93-3.04c-1.63-0.05-3.01,1.26-3.06,2.89
			c-0.05,1.71,1.27,3.07,2.97,3.08C120.53,255.51,121.87,254.2,121.9,252.57z" fill="white"/>
		<path d="M126.21,252.57c-0.01-2.2,1.71-3.97,3.9-4c2.15-0.03,3.99,1.76,4.01,3.92c0.03,2.15-1.77,3.97-3.93,3.99
			C127.99,256.5,126.22,254.76,126.21,252.57z M130.16,255.5c1.65-0.01,2.98-1.33,2.99-2.96c0.01-1.61-1.34-2.99-2.96-3.01
			c-1.68-0.03-3.05,1.34-3.03,3.04C127.18,254.21,128.5,255.51,130.16,255.5z" fill="white"/>
		<path d="M144.96,252.53c0,2.17-1.78,3.95-3.96,3.95c-2.18,0-3.96-1.78-3.95-3.95c0.01-2.18,1.78-3.95,3.96-3.96
			C143.17,248.56,144.96,250.36,144.96,252.53z M144,252.54c0.01-1.63-1.33-2.99-2.95-3.01c-1.68-0.02-3.05,1.35-3.03,3.04
			c0.02,1.64,1.34,2.94,3,2.93C142.67,255.5,143.99,254.18,144,252.54z" fill="white"/>
		<path d="M121.11,273.16c1.84,0,3.68-0.02,5.52,0.02c0.28,0.01,0.55,0.28,0.83,0.44c-0.27,0.17-0.54,0.47-0.81,0.48
			c-3.68,0.03-7.35,0.03-11.03,0c-0.3,0-0.6-0.33-0.89-0.51c0.29-0.14,0.58-0.4,0.87-0.4C117.43,273.14,119.27,273.16,121.11,273.16
			z" fill="white"/>
		<path d="M111.09,274.32c-0.56-0.24-1.05-0.46-1.54-0.67c0.5-0.16,1-0.33,1.49-0.49c0.04-0.01,0.08-0.01,0.12,0
			c0.49,0.16,0.99,0.33,1.48,0.5C112.14,273.87,111.65,274.08,111.09,274.32z" fill="white"/>
	</g>
</g>
</svg>
