<?xml version="1.0" encoding="utf-8"?>
<svg version="1.1" id="allgames" x="0px" y="0px" viewBox="0 0 200 40" xmlns="http://www.w3.org/2000/svg">
  <path d="M 56.542 29.546 L 50.542 29.546 L 58.432 10.796 L 67.252 10.796 L 68.572 29.546 L 62.542 29.546 L 62.422 26.576 L 57.712 26.576 Z M 61.672 16.556 L 59.572 21.806 L 61.972 21.806 L 61.972 16.556 Z M 81.951 29.546 L 70.551 29.546 L 73.851 10.796 L 79.551 10.796 L 77.091 24.746 L 82.791 24.746 Z M 94.73 29.546 L 83.33 29.546 L 86.63 10.796 L 92.33 10.796 L 89.87 24.746 L 95.57 24.746 Z M 112.309 24.026 L 112.459 23.216 L 111.019 23.216 L 111.829 18.626 L 118.699 18.626 L 116.929 28.646 C 114.489 29.546 112.039 29.996 109.579 29.996 C 107.119 29.996 105.344 29.506 104.254 28.526 C 103.164 27.546 102.619 26.036 102.619 23.996 C 102.619 23.136 102.759 21.866 103.039 20.186 C 103.639 16.706 104.699 14.196 106.219 12.656 C 107.739 11.116 110.259 10.346 113.779 10.346 C 114.519 10.346 115.464 10.426 116.614 10.586 C 117.764 10.746 118.609 10.926 119.149 11.126 L 117.499 15.716 C 115.999 15.436 114.624 15.296 113.374 15.296 C 112.124 15.296 111.229 15.396 110.689 15.596 C 110.149 15.796 109.829 16.196 109.729 16.796 L 108.259 25.286 L 110.149 25.286 C 110.829 25.286 111.334 25.211 111.664 25.061 C 111.994 24.911 112.209 24.566 112.309 24.026 Z M 123.948 29.546 L 117.948 29.546 L 125.838 10.796 L 134.658 10.796 L 135.978 29.546 L 129.948 29.546 L 129.828 26.576 L 125.118 26.576 Z M 129.078 16.556 L 126.978 21.806 L 129.378 21.806 L 129.378 16.556 Z M 143.358 29.546 L 137.418 29.546 L 141.798 10.796 L 149.238 10.796 L 149.778 20.336 L 149.988 20.336 L 153.888 10.796 L 161.328 10.796 L 159.108 29.546 L 153.138 29.546 L 154.398 20.456 L 154.188 20.456 L 150.438 29.546 L 146.088 29.546 L 145.458 20.456 L 145.308 20.456 Z M 174.916 22.466 L 169.216 22.466 L 168.826 24.746 L 175.816 24.746 L 174.976 29.546 L 162.286 29.546 L 165.586 10.796 L 178.126 10.796 L 176.566 15.596 L 170.416 15.596 L 169.996 18.116 L 175.696 18.116 Z M 177.646 29.216 L 179.326 24.266 C 181.006 24.726 182.546 24.956 183.946 24.956 C 185.346 24.956 186.476 24.896 187.336 24.776 L 187.576 23.276 L 185.086 23.036 C 183.186 22.856 181.841 22.426 181.051 21.746 C 180.261 21.066 179.866 20.106 179.866 18.866 C 179.866 18.326 179.926 17.726 180.046 17.066 C 180.506 14.506 181.341 12.746 182.551 11.786 C 183.761 10.826 185.636 10.346 188.176 10.346 C 190.716 10.346 192.956 10.596 194.896 11.096 L 193.336 15.896 C 191.596 15.596 190.196 15.446 189.136 15.446 C 188.076 15.446 187.176 15.496 186.436 15.596 L 186.196 17.066 L 188.206 17.276 C 190.246 17.496 191.696 17.981 192.556 18.731 C 193.416 19.481 193.846 20.486 193.846 21.746 C 193.846 23.026 193.566 24.346 193.006 25.706 C 192.726 26.406 192.421 26.991 192.091 27.461 C 191.761 27.931 191.341 28.331 190.831 28.661 C 190.321 28.991 189.856 29.241 189.436 29.411 C 189.016 29.581 188.486 29.706 187.846 29.786 C 186.906 29.926 185.756 29.996 184.396 29.996 C 181.916 29.996 179.666 29.736 177.646 29.216 Z" style="white-space: pre; fill: rgb(255, 255, 255);"/>
  <path d="M 35.116 10 L 15.117 10 C 7.421 9.999 2.61 18.329 6.457 24.994 C 9.764 30.724 17.624 31.719 22.255 26.995 L 27.973 26.995 C 33.36 32.491 42.677 30.094 44.743 22.681 C 46.518 16.31 41.729 10.002 35.116 10 Z M 20.615 20.747 C 20.615 21.161 20.28 21.497 19.866 21.497 L 16.617 21.497 L 16.617 24.746 C 16.617 25.16 16.281 25.496 15.867 25.496 L 14.367 25.496 C 13.953 25.496 13.618 25.16 13.618 24.746 L 13.618 21.497 L 10.368 21.497 C 9.954 21.497 9.619 21.161 9.619 20.747 L 9.619 19.247 C 9.619 18.833 9.954 18.498 10.368 18.498 L 13.618 18.498 L 13.618 15.248 C 13.618 14.834 13.953 14.499 14.367 14.499 L 15.867 14.499 C 16.281 14.499 16.617 14.834 16.617 15.248 L 16.617 18.498 L 19.866 18.498 C 20.28 18.498 20.615 18.833 20.615 19.247 Z M 34.112 25.496 C 32.188 25.496 30.985 23.413 31.947 21.747 C 32.909 20.08 35.314 20.08 36.276 21.747 C 36.495 22.127 36.611 22.558 36.611 22.996 C 36.611 24.377 35.492 25.496 34.112 25.496 Z M 38.11 19.497 C 36.186 19.497 34.984 17.415 35.946 15.748 C 36.908 14.082 39.313 14.082 40.275 15.748 C 40.494 16.128 40.61 16.559 40.61 16.998 C 40.61 18.378 39.491 19.497 38.11 19.497 Z" style="fill: rgb(221, 221, 221);"/>
</svg>