<?xml version="1.0" encoding="utf-8"?>
<!-- Made by Szalik  -->
<svg version="1.1" id="quiz" xmlns="http://www.w3.org/2000/svg" xmlns:xlink="http://www.w3.org/1999/xlink" x="0px" y="0px" xml:space="preserve">
<g>
	<g>
		<path d="M177.13,263.12c-2.54,0-5.09,0.06-7.63-0.05c-0.51-0.02-1.1-0.61-1.47-1.09c-1.1-1.43-2.47-1.91-4.25-1.76
			c-1.79,0.15-3.6,0.08-5.39,0c-3.72-0.16-6.05-2.06-6.32-5.74c-0.29-3.97-0.28-8,0-11.98c0.26-3.64,2.53-5.6,6.19-5.73
			c3.59-0.13,7.2-0.13,10.79,0c3.72,0.14,5.94,2.16,6.17,5.87c0.24,3.78,0.13,7.59,0.07,11.38c-0.03,1.81-0.69,3.43-2.06,4.71
			c1.4,1.35,2.77,2.66,4.14,3.98C177.29,262.85,177.21,262.98,177.13,263.12z M169.48,248.6c0-1.44,0.02-2.87-0.01-4.31
			c-0.02-1.33-0.32-1.64-1.64-1.66c-2.79-0.02-5.59,0.01-8.38-0.01c-1.08-0.01-1.66,0.45-1.67,1.55c-0.01,2.87-0.01,5.75,0,8.62
			c0,1.02,0.51,1.55,1.55,1.55c2.87,0,5.75,0,8.62,0c1.11,0,1.56-0.59,1.53-1.67C169.45,251.32,169.48,249.96,169.48,248.6z" fill="white"/>
		<path d="M129.34,253.11c0-9.13,0-17.91,0-26.78c-11.62,0-23.16,0-34.76,0c0,11.54,0,23.04,0,34.68c5.33,0,10.62,0,15.88,0
			c0.19,1.18,0.36,2.22,0.53,3.32c-0.29,0.01-0.63,0.05-0.98,0.05c-5.04,0-10.08,0.01-15.12,0c-2.56,0-3.71-1.17-3.71-3.75
			c0-11.32,0-22.64,0-33.95c0-2.58,1.16-3.77,3.71-3.77c11.36-0.01,22.72-0.01,34.07,0c2.46,0,3.7,1.24,3.7,3.69
			c0.01,7.4,0.02,14.8-0.02,22.2c0,0.52-0.29,1.13-0.64,1.54C131.27,251.22,130.41,252.01,129.34,253.11z" fill="white"/>
		<path d="M213.39,242.69c0-2.1,0-3.94,0-5.87c7.77,0,15.53,0,23.43,0c0,1.24,0.05,2.47-0.03,3.69c-0.03,0.37-0.39,0.76-0.68,1.06
			c-3.79,3.83-7.6,7.66-11.42,11.47c-0.34,0.33-0.76,0.58-1.14,0.87c0.06,0.13,0.12,0.25,0.18,0.38c4.31,0,8.61,0,13,0
			c0,2.04,0,3.9,0,5.86c-7.74,0-15.5,0-23.38,0c0-1.24-0.05-2.47,0.03-3.7c0.02-0.37,0.36-0.77,0.65-1.06
			c3.85-3.89,7.72-7.77,11.59-11.64c0.28-0.28,0.64-0.48,0.96-0.72c-0.05-0.12-0.11-0.23-0.16-0.35
			C222.12,242.69,217.8,242.69,213.39,242.69z" fill="white"/>
		<path d="M195.88,236.77c2.01,0,3.88,0,5.91,0c0,0.42,0,0.8,0,1.19c0,4.84,0,9.67,0,14.51c0,0.2,0,0.4-0.01,0.6
			c-0.16,4.87-2.45,7.13-7.34,7.17c-3.04,0.03-6.07,0.04-9.11-0.01c-4.55-0.06-6.97-2.47-7-7c-0.03-5.2-0.01-10.39-0.01-15.59
			c0-0.27,0-0.54,0-0.86c1.97,0,3.83,0,5.79,0c0.02,0.46,0.06,0.88,0.06,1.31c0,4.68,0,9.35,0,14.03c0,1.96,0.27,2.23,2.2,2.24
			c2.52,0.01,5.04,0.02,7.55,0c1.66-0.01,1.94-0.31,1.94-1.98c0.01-4.72,0-9.43,0-14.15C195.88,237.78,195.88,237.35,195.88,236.77z" fill="white"/>
		<path d="M123.73,262.93c2.03-2.24,3.97-4.54,6.07-6.65c2.79-2.8,5.67-5.51,8.59-8.16c0.96-0.87,2.14-1.54,3.32-2.11
			c0.67-0.33,1.56-0.44,2.31-0.35c1.3,0.16,1.82,1.43,1.1,2.53c-0.39,0.59-0.9,1.12-1.43,1.6c-7.94,7.24-13.56,16.05-17.55,25.96
			c-0.03,0.07-0.05,0.16-0.1,0.22c-0.43,0.41-0.83,1.08-1.31,1.15c-0.4,0.06-1.04-0.5-1.33-0.94c-1.01-1.53-1.78-3.23-2.88-4.68
			c-2.08-2.72-4.3-5.33-6.53-7.93c-0.59-0.69-1.1-1.27-0.71-2.2c0.38-0.91,1.11-1.46,2.06-1.34c1.25,0.15,2.52,0.4,3.71,0.83
			C120.61,261.41,122.1,262.19,123.73,262.93z" fill="white"/>
		<path d="M108.8,244.9c0-0.48-0.02-0.96,0-1.44c0.05-1.04,0.57-1.71,1.62-1.94c0.55-0.12,1.1-0.21,1.63-0.37
			c1.06-0.32,1.86-0.91,1.98-2.13c0.1-0.99-0.31-1.74-1.14-2.2c-1.03-0.56-2.11-0.53-3.05,0.18c-0.53,0.4-0.93,0.97-1.39,1.48
			c-0.92,1.01-1.93,1.32-2.99,0.89c-1.08-0.44-1.71-1.47-1.53-2.82c0.11-0.77,0.35-1.58,0.77-2.22c3.06-4.69,11.47-4.4,14.25,0.46
			c2.42,4.24,0.59,9.04-4.07,10.59c-0.57,0.19-0.8,0.43-0.84,1.06c-0.1,1.58-1.17,2.53-2.65,2.5c-1.42-0.03-2.43-0.98-2.58-2.48
			c-0.05-0.51-0.01-1.04-0.01-1.56C108.8,244.9,108.8,244.9,108.8,244.9z" fill="white"/>
		<path d="M210.23,260.21c-1.92,0-3.75,0-5.67,0c0-7.79,0-15.56,0-23.41c1.85,0,3.71,0,5.67,0
			C210.23,244.56,210.23,252.33,210.23,260.21z" fill="white"/>
		<path d="M111.41,250.38c1.57-0.02,2.97,1.37,2.98,2.97c0.01,1.59-1.4,3-2.97,2.98c-1.54-0.02-2.88-1.36-2.91-2.91
			C108.47,251.84,109.84,250.41,111.41,250.38z" fill="white"/>
	</g>
</g>
</svg>
