<?xml version="1.0" encoding="utf-8"?>
<!-- Made by Szalik  -->
<svg version="1.1" id="Warstwa_1" xmlns="http://www.w3.org/2000/svg" xmlns:xlink="http://www.w3.org/1999/xlink" x="0px" y="0px" xml:space="preserve">
<g>
	<g>
		<path d="M140.63,259.38c0,4.44,0,8.88,0,13.32c0,1.72-0.78,2.48-2.48,2.48c-6.32-0.01-12.64-0.02-18.96,0.01
			c-0.58,0-1.24,0.24-1.73,0.58c-2.96,2.02-5.6,2.02-8.57-0.01c-0.48-0.33-1.15-0.56-1.73-0.56c-6.32-0.03-12.64-0.02-18.96-0.01
			c-1.59,0-2.49-0.82-2.5-2.39c-0.01-8.96,0-17.92-0.01-26.88c0-1.02,0.44-1.73,1.22-2.34c4.17-3.25,8.98-4.39,14.16-4.28
			c4.08,0.08,7.9,1.14,11.37,3.3c0.65,0.4,1.03,0.23,1.59-0.09c7.46-4.14,15.04-4.35,22.74-0.7c0.29,0.14,0.55,0.33,0.83,0.47
			c2.21,1.11,3.25,2.69,3.07,5.35C140.44,251.53,140.63,255.46,140.63,259.38z M136.32,268.98c0.06-0.41,0.1-0.56,0.1-0.72
			c0-6.95,0.02-13.9-0.04-20.86c0-0.46-0.46-1.08-0.88-1.36c-2.32-1.52-4.93-2.25-7.67-2.47c-4.1-0.32-8.05,0.2-11.62,2.46
			c-0.61,0.39-0.94,0.82-0.94,1.63c0.04,6.71,0.02,13.42,0.03,20.14c0,0.33,0.06,0.67,0.1,1.19
			C122.42,265.96,129.33,265.98,136.32,268.98z M111.1,269.01c0-0.7,0-1.13,0-1.56c0-6.4-0.04-12.79,0.04-19.19
			c0.02-1.26-0.37-2.02-1.45-2.55c-6.28-3.12-12.52-3.05-18.72,0.23c-0.75,0.4-1.02,0.95-1.02,1.82c0.04,6.64,0.02,13.27,0.02,19.91
			c0,0.38,0.04,0.75,0.08,1.32C97.1,265.93,104.04,266,111.1,269.01z" fill="white"/>
		<path d="M146.22,262.33c0-7.84,0-15.59,0-23.38c7.8,0,15.53,0,23.34,0c0,1.92,0,3.79,0,5.8c-5.8,0-11.58,0-17.45,0
			c0,1.05,0,1.94,0,2.98c4.81,0,9.62,0,14.5,0c0,2,0,3.87,0,5.91c-4.83,0-9.64,0-14.52,0c0,1.03,0,1.89,0,2.9
			c5.85,0,11.63,0,17.47,0c0,2.01,0,3.87,0,5.8C161.78,262.33,154.04,262.33,146.22,262.33z" fill="white"/>
		<path d="M172.64,238.91c5.76,0,11.43-0.1,17.09,0.04c3.72,0.09,5.9,2.17,6.12,5.9c0.23,3.86,0.23,7.75,0,11.61
			c-0.22,3.68-2.34,5.77-6.02,5.87c-5.7,0.17-11.41,0.04-17.2,0.04C172.64,254.56,172.64,246.8,172.64,238.91z M178.42,244.81
			c0,3.81-0.01,7.44,0.03,11.06c0,0.22,0.41,0.61,0.63,0.61c3.23,0.03,6.47,0.02,9.7,0c0.86-0.01,1.32-0.49,1.32-1.36
			c0-2.99,0-5.99,0-8.98c0-0.81-0.41-1.31-1.23-1.32C185.45,244.8,182.02,244.81,178.42,244.81z" fill="white"/>
		<path d="M318.98,238.78c2.19,0.11,4.4,0.05,6.56,0.36c2.88,0.4,4.75,2.31,4.9,5.22c0.21,4.02,0.26,8.07,0.05,12.08
			c-0.19,3.58-2.1,5.58-5.65,5.82c-3.93,0.27-7.91,0.26-11.85,0c-3.49-0.23-5.44-2.2-5.67-5.7c-0.26-3.94-0.27-7.92,0-11.85
			c0.26-3.72,2.61-5.67,6.37-5.81c1.75-0.07,3.51-0.01,5.27-0.01C318.98,238.85,318.98,238.82,318.98,238.78z M324.75,250.73
			c0-1.48-0.01-2.95,0-4.43c0.01-0.97-0.44-1.51-1.43-1.51c-2.95,0-5.91,0-8.86,0c-0.87,0-1.37,0.47-1.38,1.32
			c-0.03,2.99-0.03,5.98-0.01,8.98c0,0.91,0.52,1.4,1.44,1.4c2.95,0.01,5.9,0.01,8.86-0.01c0.92-0.01,1.38-0.51,1.37-1.44
			C324.75,253.61,324.75,252.17,324.75,250.73z" fill="white"/>
		<path d="M356.99,238.96c0,7.77,0,15.5,0,23.43c-1.29,0-2.59,0.05-3.89-0.03c-0.32-0.02-0.65-0.41-0.93-0.68
			c-3.87-3.87-7.74-7.75-11.6-11.63c-0.28-0.28-0.51-0.6-0.77-0.91c-0.09,0.04-0.19,0.09-0.28,0.13c0,4.32,0,8.64,0,13.04
			c-2.01,0-3.87,0-5.83,0c0-7.72,0-15.49,0-23.42c1.25,0,2.55-0.06,3.85,0.04c0.36,0.03,0.71,0.45,1.01,0.75
			c3.82,3.81,7.62,7.64,11.42,11.47c0.3,0.31,0.51,0.71,0.76,1.07c0.12-0.07,0.24-0.14,0.37-0.22c0-4.32,0-8.64,0-13.04
			C353.14,238.96,355.03,238.96,356.99,238.96z" fill="white"/>
		<path d="M248.63,247.7c-2.04,0.5-3.92,0.97-5.95,1.47c0-1.06-0.01-1.97,0-2.88c0.01-0.99-0.47-1.49-1.45-1.49
			c-2.92,0-5.84,0-8.75,0c-1,0-1.47,0.54-1.48,1.49c-0.01,2.92-0.01,5.84,0,8.75c0,0.97,0.53,1.47,1.51,1.47c2.88,0,5.76,0,8.63,0
			c1.1,0,1.58-0.57,1.55-1.66c-0.03-0.83-0.01-1.67-0.01-2.72c2.02,0.5,3.93,0.96,6.09,1.49c-0.24,1.63-0.3,3.24-0.73,4.74
			c-0.73,2.53-2.73,3.8-5.21,3.91c-3.99,0.17-8,0.25-11.98-0.02c-3.42-0.23-5.32-2.11-5.56-5.53c-0.28-4.05-0.28-8.16,0.01-12.21
			c0.24-3.4,2.17-5.27,5.59-5.49c3.94-0.26,7.92-0.27,11.86-0.01c3.56,0.24,5.3,2.25,5.71,5.81
			C248.56,245.73,248.57,246.65,248.63,247.7z" fill="white"/>
		<path d="M198.72,238.92c2.01,0,3.84,0,5.85,0c0,0.5,0,0.96,0,1.42c0,4.68-0.01,9.35,0,14.03c0,1.85,0.3,2.14,2.17,2.15
			c2.48,0.01,4.96,0.01,7.43,0c1.83-0.01,2.09-0.28,2.09-2.08c0.01-4.72,0-9.43,0-14.15c0-0.43,0-0.86,0-1.35c1.99,0,3.86,0,5.91,0
			c0,0.42,0,0.84,0,1.27c0,4.76,0,9.51,0,14.27c0,0.16,0,0.32,0,0.48c-0.09,5.14-2.41,7.43-7.56,7.44c-2.92,0-5.83,0.02-8.75,0
			c-4.68-0.03-7.12-2.44-7.15-7.1c-0.03-5.16-0.01-10.31-0.01-15.47C198.72,239.56,198.72,239.29,198.72,238.92z" fill="white"/>
		<path d="M276.46,262.4c-2.18,0-4.13,0.04-6.08-0.04c-0.35-0.01-0.87-0.44-0.99-0.78c-0.58-1.78-1.74-2.24-3.54-2.09
			c-2.15,0.18-4.32,0.09-6.48,0.02c-0.9-0.03-1.46,0.23-1.72,1.08c-0.47,1.54-1.47,2.03-3.06,1.85c-1.45-0.16-2.93-0.03-4.59-0.03
			c4.43-8.34,8.77-16.5,13.22-24.89C267.66,245.84,272,254,276.46,262.4z M261.41,253.52c1.29,0,2.39,0,3.65,0
			c-0.64-1.19-1.2-2.22-1.84-3.41C262.58,251.33,262.03,252.37,261.41,253.52z" fill="white"/>
		<path d="M358.5,262.4c4.44-8.36,8.77-16.51,13.22-24.89c4.43,8.34,8.78,16.52,13.22,24.88c-2.23,0-4.26,0.05-6.28-0.05
			c-0.34-0.02-0.79-0.63-0.94-1.05c-0.52-1.45-1.44-1.91-2.99-1.81c-2.31,0.16-4.64,0.08-6.96,0.02c-0.78-0.02-1.34,0.15-1.56,0.93
			c-0.49,1.71-1.64,2.18-3.33,1.99C361.51,262.28,360.1,262.4,358.5,262.4z M373.56,253.56c-0.64-1.2-1.2-2.25-1.85-3.48
			c-0.67,1.28-1.21,2.33-1.81,3.48C371.18,253.56,372.27,253.56,373.56,253.56z" fill="white"/>
		<path d="M87.61,239.5c-0.56-0.52-1.29-0.99-1.71-1.66c-0.5-0.8-0.11-1.64,0.55-2.25c0.29-0.26,0.67-0.44,1.02-0.62
			c8.08-4.04,16.16-8.07,24.22-12.14c1.02-0.51,1.91-0.55,2.94-0.03c8.1,4.08,16.21,8.13,24.32,12.18c0.32,0.16,0.66,0.31,0.92,0.55
			c0.83,0.72,1.02,1.63,0.52,2.59c-0.5,0.96-1.37,1.33-2.42,1.04c-0.46-0.12-0.89-0.36-1.31-0.58c-7.47-3.73-14.94-7.46-22.4-11.22
			c-0.75-0.38-1.32-0.41-2.09-0.02c-7.45,3.77-14.92,7.49-22.39,11.22C89.18,238.87,88.55,239.1,87.61,239.5z" fill="white"/>
		<path d="M295.57,238.96c0,1.92,0,3.78,0,5.79c-2.9,0-5.76,0-8.72,0c0,5.92,0,11.7,0,17.56c-1.99,0-3.88,0-5.9,0
			c0-5.82,0-11.6,0-17.52c-2.98,0-5.84,0-8.74,0c0-2.01,0-3.88,0-5.83C279.96,238.96,287.69,238.96,295.57,238.96z" fill="white"/>
		<path d="M409.8,262.36c-7.82,0-15.53,0-23.32,0c0-7.8,0-15.57,0-23.41c1.87,0,3.73,0,5.75,0c0,5.81,0,11.62,0,17.57
			c5.94,0,11.72,0,17.56,0C409.8,258.53,409.8,260.39,409.8,262.36z" fill="white"/>
		<path d="M298.37,262.32c0-7.8,0-15.54,0-23.36c1.91,0,3.8,0,5.75,0c0,7.79,0,15.54,0,23.36
			C302.23,262.32,300.37,262.32,298.37,262.32z" fill="white"/>
	</g>
</g>
</svg>
