<?xml version="1.0" encoding="utf-8"?>
<svg version="1.1" id="action" x="0px" y="0px" viewBox="0 0 200 40" xmlns="http://www.w3.org/2000/svg">
  <path d="M 44.099 18.93 C 44.099 18.37 44.11 17.93 44.097 17.493 C 44.085 17.181 44.212 17.035 44.526 16.986 C 46.325 16.694 48.032 16.169 49.491 15.019 C 49.707 14.849 49.892 14.863 50.102 15.03 C 51.549 16.169 53.247 16.691 55.028 16.986 C 55.298 17.027 55.493 17.113 55.489 17.422 C 55.468 19.239 55.454 21.061 54.943 22.824 C 54.499 24.347 53.63 25.585 52.323 26.491 C 51.603 26.991 50.851 27.452 50.091 27.893 C 49.931 27.984 49.627 27.984 49.47 27.889 C 48.632 27.386 47.791 26.882 47.006 26.295 C 45.253 24.986 44.493 23.133 44.27 21.018 C 44.198 20.283 44.149 19.549 44.099 18.93 Z" style="fill: rgb(221, 221, 221);"/>
  <path d="M 45.487 13.989 C 46.065 14.526 46.601 15.022 47.191 15.573 C 46.158 15.995 45.193 16.251 44.192 16.329 C 44.003 16.343 43.798 16.109 43.535 15.953 C 43.138 16.357 42.719 16.794 42.289 17.223 C 41.927 17.586 41.838 17.59 41.491 17.238 C 40.45 16.179 40.458 16.46 41.483 15.417 C 41.74 15.157 42.001 14.902 42.292 14.611 C 41.551 13.872 40.841 13.166 40.131 12.46 C 39.641 11.973 39.645 11.963 40.12 11.487 C 40.493 11.119 40.869 10.752 41.231 10.373 C 41.469 10.125 41.672 10.125 41.913 10.373 C 42.662 11.147 43.418 11.911 44.234 12.741 C 44.692 12.257 45.108 11.815 45.53 11.38 C 45.885 11.019 45.98 11.015 46.329 11.364 C 47.372 12.41 47.376 12.144 46.343 13.177 C 46.091 13.429 45.817 13.674 45.487 13.989 Z" style="fill: rgb(221, 221, 221);"/>
  <path d="M 57.35 14.65 C 57.81 15.094 58.254 15.531 58.713 15.946 C 59 16.208 58.996 16.431 58.709 16.687 C 58.489 16.886 58.283 17.103 58.077 17.319 C 57.867 17.543 57.672 17.532 57.46 17.315 C 57.009 16.851 56.547 16.389 56.047 15.878 C 55.713 16.52 55.206 16.357 54.726 16.247 C 53.988 16.076 53.257 15.878 52.429 15.669 C 53.055 15.072 53.584 14.564 54.169 14.004 C 53.704 13.553 53.293 13.152 52.884 12.747 C 52.416 12.282 52.416 12.248 52.866 11.804 C 53.839 10.849 53.608 10.877 54.538 11.789 C 54.822 12.065 55.084 12.364 55.443 12.744 C 55.801 12.354 56.114 11.995 56.447 11.654 C 56.874 11.218 57.317 10.799 57.74 10.358 C 57.981 10.11 58.183 10.117 58.422 10.362 C 58.823 10.782 59.23 11.197 59.657 11.594 C 59.948 11.864 59.912 12.073 59.642 12.336 C 58.968 12.985 58.314 13.652 57.651 14.316 C 57.569 14.405 57.488 14.501 57.35 14.65 Z" style="fill: rgb(221, 221, 221);"/>
  <path d="M 45.846 26.295 C 45.115 27.062 44.344 27.872 43.566 28.677 C 43.493 28.755 43.379 28.802 43.272 28.841 C 42.475 29.135 41.679 29.437 40.873 29.71 C 40.724 29.76 40.472 29.76 40.38 29.671 C 40.294 29.586 40.312 29.33 40.37 29.185 C 40.661 28.447 40.976 27.716 41.289 26.988 C 41.338 26.871 41.392 26.743 41.476 26.657 C 42.399 25.738 43.329 24.83 44.242 23.928 C 44.781 24.727 45.303 25.494 45.846 26.295 Z" style="fill: rgb(221, 221, 221);"/>
  <path d="M 53.74 26.303 C 54.282 25.501 54.801 24.73 55.337 23.935 C 55.972 24.556 56.604 25.231 57.292 25.831 C 57.931 26.388 58.383 27.041 58.659 27.84 C 58.83 28.333 59.071 28.805 59.255 29.295 C 59.298 29.404 59.283 29.593 59.213 29.671 C 59.138 29.752 58.946 29.799 58.839 29.763 C 57.956 29.454 57.079 29.128 56.202 28.798 C 56.125 28.769 56.05 28.716 55.994 28.656 C 55.227 27.861 54.463 27.062 53.74 26.303 Z" style="fill: rgb(221, 221, 221);"/>
  <path d="M 69.187 29.375 L 63.187 29.375 L 71.077 10.625 L 79.897 10.625 L 81.217 29.375 L 75.187 29.375 L 75.067 26.405 L 70.357 26.405 Z M 74.317 16.385 L 72.217 21.635 L 74.617 21.635 L 74.617 16.385 Z M 96.096 24.005 L 95.616 29.045 C 94.336 29.565 92.716 29.825 90.756 29.825 C 88.236 29.825 86.431 29.335 85.341 28.355 C 84.251 27.375 83.706 25.865 83.706 23.825 C 83.706 22.965 83.846 21.695 84.126 20.015 C 84.726 16.575 85.761 14.075 87.231 12.515 C 88.701 10.955 91.026 10.175 94.206 10.175 C 94.946 10.175 95.791 10.25 96.741 10.4 C 97.691 10.55 98.386 10.735 98.826 10.955 L 97.146 15.545 C 95.966 15.265 94.861 15.125 93.831 15.125 C 92.801 15.125 92.066 15.225 91.626 15.425 C 91.186 15.625 90.916 16.025 90.816 16.625 L 89.436 24.485 C 90.156 24.645 90.896 24.725 91.656 24.725 C 93.276 24.725 94.756 24.485 96.096 24.005 Z M 113.226 15.425 L 109.086 15.425 L 106.656 29.375 L 100.956 29.375 L 103.386 15.425 L 99.276 15.425 L 100.146 10.625 L 114.096 10.625 Z M 112.956 29.375 L 116.256 10.625 L 121.956 10.625 L 118.656 29.375 Z M 129.666 16.895 L 128.286 24.695 L 130.656 24.695 C 131.436 24.695 132.016 24.6 132.396 24.41 C 132.776 24.22 133.026 23.785 133.146 23.105 L 134.526 15.305 L 132.126 15.305 C 131.366 15.305 130.796 15.4 130.416 15.59 C 130.036 15.78 129.786 16.215 129.666 16.895 Z M 133.116 10.175 C 135.656 10.175 137.466 10.67 138.546 11.66 C 139.626 12.65 140.166 14.175 140.166 16.235 C 140.166 18.295 139.841 20.45 139.191 22.7 C 138.541 24.95 137.511 26.7 136.101 27.95 C 134.691 29.2 132.631 29.825 129.921 29.825 C 127.211 29.825 125.316 29.33 124.236 28.34 C 123.156 27.35 122.616 25.825 122.616 23.765 C 122.616 22.785 122.756 21.49 123.036 19.88 C 123.316 18.27 123.686 16.88 124.146 15.71 C 124.606 14.54 125.226 13.525 126.006 12.665 C 127.506 11.005 129.876 10.175 133.116 10.175 Z M 151.566 29.375 L 148.506 22.715 C 148.426 22.575 148.386 22.38 148.386 22.13 C 148.386 21.88 148.406 21.595 148.446 21.275 L 148.206 21.275 L 146.796 29.375 L 141.096 29.375 L 144.396 10.625 L 149.766 10.625 L 152.826 17.285 C 152.886 17.425 152.916 17.62 152.916 17.87 C 152.916 18.12 152.896 18.405 152.856 18.725 L 153.096 18.725 L 154.536 10.625 L 160.236 10.625 L 156.936 29.375 Z" style="white-space: pre; fill: rgb(255, 255, 255);"/>
</svg>