<?xml version="1.0" encoding="utf-8"?>
<!-- Made by Szalik  -->
<svg version="1.1" id="Warstwa_1" xmlns="http://www.w3.org/2000/svg" xmlns:xlink="http://www.w3.org/1999/xlink" x="0px" y="0px" xml:space="preserve">
<g>
	<g>
		<path d="M144.96,255.91c-1.87,0-3.6,0-5.42,0c0.07-0.77,0.26-1.37,0.15-1.92c-0.18-0.96-0.53-1.89-0.83-2.82
			c-0.14-0.42-0.58-0.89-0.48-1.21c0.17-0.57,0.59-1.11,1.03-1.53c0.35-0.33,0.88-0.48,1.4-0.73c-2.01-0.73-2.13-0.87-2.67-3.27
			c-0.33,0.65-0.52,1.32-0.95,1.78c-0.41,0.44-1.05,0.66-1.61,0.98c1.11,0.51,1.93,1.35,2.14,2.68c-0.06,0.03-0.14,0.11-0.19,0.09
			c-1.98-0.61-3.42-0.22-4.59,1.26c-1.32,1.67-1.57,4.15-0.36,5.82c0.57,0.79,0.46,1.37,0.06,2.03c-1.14,1.87-2.31,3.72-3.5,5.64
			c-1.65-0.93-3.21-1.28-4.86-0.7c-1.67,0.59-2.69,1.8-3.33,3.59c-3.69-1.72-6.11-4.54-7.85-8.16c1.31-1.4,1.9-3.09,1.83-5
			c-0.07-1.84-0.64-3.55-1.75-5.02c-1.72-2.28-3.85-3.59-6.84-2.63c-0.23,0.07-0.56,0.02-0.78-0.1c-0.71-0.36-1.39-0.77-2.23-1.24
			c0.42-1.06,0.81-2.13,1.26-3.17c2.34-5.45,5.35-10.47,9.65-14.6c1.45-1.4,3.14-2.6,4.86-3.66c2.48-1.54,5.08-1.41,7.64-0.02
			c2.75,1.5,4.99,3.59,6.97,5.97c5.6,6.71,9.05,14.44,10.76,22.97C144.65,253.86,144.77,254.77,144.96,255.91z M122.93,247.39
			c5.61-0.04,10.14-4.58,10.15-10.18c0.01-5.63-4.62-10.24-10.24-10.2c-5.61,0.04-10.14,4.57-10.15,10.17
			C112.67,242.82,117.3,247.43,122.93,247.39z" fill="white"/>
		<path d="M212.54,262.36c-2.07,0-3.9,0-5.81,0c0-7.8,0-15.57,0-23.48c1.27,0,2.53-0.04,3.79,0.03c0.33,0.02,0.68,0.36,0.95,0.63
			c2.49,2.48,4.97,4.98,7.46,7.47c0.28,0.28,0.57,0.53,0.9,0.84c0.33-0.31,0.63-0.57,0.91-0.84c2.49-2.49,4.98-4.97,7.44-7.48
			c0.45-0.46,0.9-0.7,1.56-0.67c1.03,0.05,2.07,0.01,3.2,0.01c0,7.83,0,15.6,0,23.44c-1.86,0-3.73,0-5.73,0c0-4.31,0-8.64,0-12.97
			c-0.1-0.05-0.19-0.1-0.29-0.15c-2.34,2.33-4.69,4.67-7.09,7.07c-2.4-2.41-4.73-4.74-7.28-7.29
			C212.54,253.6,212.54,257.93,212.54,262.36z" fill="white"/>
		<path d="M192.12,262.39c-1.72,0-3.44,0.06-5.15-0.01c-3.91-0.16-6.29-2.4-6.44-6.3c-0.14-3.63-0.14-7.27,0-10.9
			c0.16-3.86,2.49-6.13,6.35-6.25c3.55-0.11,7.11-0.12,10.66,0c3.77,0.13,6.01,2.15,6.23,5.93c0.23,3.86,0.23,7.75,0,11.61
			c-0.23,3.79-2.55,5.78-6.38,5.92C195.64,262.44,193.88,262.39,192.12,262.39z M198.03,250.69c0-1.44,0.02-2.87-0.01-4.31
			c-0.02-1.24-0.35-1.57-1.59-1.58c-2.83-0.02-5.67-0.02-8.5,0c-1.16,0.01-1.56,0.35-1.58,1.48c-0.04,2.91-0.04,5.83,0,8.74
			c0.02,1.08,0.39,1.45,1.48,1.47c2.91,0.04,5.83,0.04,8.74,0c1.09-0.02,1.42-0.39,1.44-1.48
			C198.06,253.56,198.03,252.13,198.03,250.69z" fill="white"/>
		<path d="M353.29,250.61c0-1.72-0.05-3.44,0.01-5.15c0.14-3.98,2.4-6.39,6.34-6.53c3.59-0.13,7.19-0.13,10.78,0.01
			c3.72,0.14,5.93,2.17,6.15,5.88c0.23,3.86,0.24,7.75,0.01,11.61c-0.24,3.86-2.57,5.88-6.46,5.96c-3.43,0.08-6.87,0.08-10.3,0
			c-4-0.1-6.35-2.48-6.51-6.49C353.23,254.13,353.29,252.37,353.29,250.61z M370.83,250.76c0-1.48,0.02-2.95-0.01-4.43
			c-0.02-1.17-0.35-1.52-1.51-1.53c-2.87-0.03-5.75-0.03-8.62,0c-1.13,0.01-1.52,0.38-1.54,1.53c-0.04,2.87-0.04,5.75,0,8.62
			c0.02,1.14,0.4,1.52,1.54,1.54c2.87,0.04,5.75,0.04,8.62,0c1.17-0.02,1.49-0.38,1.52-1.54
			C370.86,253.55,370.83,252.16,370.83,250.76z" fill="white"/>
		<path d="M385.58,249.03c0,4.56,0,8.89,0,13.29c-2,0-3.87,0-5.81,0c0-7.76,0-15.53,0-23.44c1.26,0,2.52-0.05,3.78,0.03
			c0.36,0.03,0.74,0.41,1.04,0.71c3.85,3.84,7.68,7.7,11.52,11.55c0.3,0.3,0.62,0.58,1.12,1.05c0-4.56,0-8.89,0-13.27
			c2,0,3.86,0,5.82,0c0,7.76,0,15.52,0,23.45c-1.26,0-2.53,0.05-3.78-0.03c-0.36-0.03-0.74-0.41-1.04-0.71
			c-3.88-3.87-7.74-7.75-11.61-11.63C386.35,249.75,386.06,249.49,385.58,249.03z" fill="white"/>
		<path d="M171.64,252.11c2.07,0.52,3.95,0.99,5.85,1.46c0.15,1.66,0.06,3.21-0.43,4.7c-0.9,2.77-3.06,3.96-5.77,4.06
			c-3.67,0.14-7.36,0.16-11.03,0c-3.59-0.16-5.73-2.06-5.98-5.64c-0.27-4.01-0.28-8.07,0-12.08c0.25-3.63,2.44-5.54,6.07-5.68
			c3.63-0.14,7.28-0.14,10.91,0c3.72,0.15,5.72,2.19,6.16,5.92c0.11,0.9,0.11,1.82,0.16,2.83c-1.97,0.5-3.85,0.97-5.94,1.5
			c0-0.98,0.01-1.83,0-2.69c-0.03-1.38-0.33-1.69-1.72-1.7c-2.76-0.02-5.52-0.02-8.27,0c-1.29,0.01-1.67,0.35-1.69,1.63
			c-0.04,2.8-0.03,5.6,0,8.39c0.01,1.29,0.38,1.66,1.66,1.68c2.8,0.04,5.6,0.04,8.39,0c1.29-0.02,1.61-0.38,1.64-1.68
			C171.65,253.99,171.64,253.15,171.64,252.11z" fill="white"/>
		<path d="M241.78,253.67c0,3,0,5.78,0,8.65c-1.95,0-3.81,0-5.77,0c0-7.73,0-15.5,0-23.37c0.3-0.02,0.65-0.06,0.99-0.06
			c5.04,0,10.07,0,15.11,0c0.28,0,0.56,0,0.84,0.02c3.76,0.22,5.9,2.18,6.29,5.93c0.13,1.22,0.1,2.48-0.1,3.69
			c-0.48,2.94-2.52,4.83-5.59,4.99c-3.31,0.18-6.63,0.12-9.95,0.16C243.05,253.67,242.5,253.67,241.78,253.67z M241.83,247.75
			c3.46,0,6.82,0.02,10.17-0.01c1.11-0.01,1.57-0.62,1.46-1.72c-0.09-0.91-0.49-1.22-1.7-1.23c-3.04-0.02-6.07-0.01-9.11,0
			c-0.26,0-0.52,0.08-0.82,0.13C241.83,245.86,241.83,246.72,241.83,247.75z" fill="white"/>
		<path d="M296.12,262.36c4.42-8.32,8.76-16.48,13.2-24.85c4.45,8.37,8.8,16.56,13.22,24.89c-2.16,0-4.11,0.02-6.06-0.02
			c-0.29-0.01-0.58-0.29-0.85-0.47c-0.09-0.06-0.14-0.2-0.17-0.31c-0.52-1.78-1.69-2.26-3.5-2.12c-2.26,0.18-4.55,0.06-6.83,0.03
			c-0.6-0.01-0.96,0.17-1.22,0.72c-0.34,0.72-0.75,1.4-1.14,2.13C300.6,262.36,298.45,262.36,296.12,262.36z M311.16,253.56
			c-0.66-1.23-1.22-2.26-1.86-3.45c-0.65,1.22-1.2,2.27-1.83,3.45C308.76,253.56,309.85,253.56,311.16,253.56z" fill="white"/>
		<path d="M111.57,277.05c-3.75-2.12-6.82-4.85-9.02-8.51c-1.49-2.49-2.22-5.16-2.1-8.11c0.17-4.3,0.86-8.49,2.15-12.77
			c0.57,0.3,1.07,0.57,1.57,0.84c-1.68,3.43-1.08,6.51,1,9.43c0.2,0.28,0.29,0.72,0.24,1.06c-0.27,1.73-1.12,2.98-3.35,3.21
			c2.19,0.98,3.17,2.57,3.72,4.61c0.51-2.09,1.47-3.77,3.77-4.4c-2.14-0.24-3.32-1.35-3.61-3.58c1.54,1.23,3.13,1.95,5.04,1.64
			c1.11,2.2,2.42,4.19,4.15,5.88c1.48,1.44,3.13,2.61,5.03,3.42c0.54,0.23,0.89,0.52,1.14,1.09c0.8,1.78,2.22,2.81,4.17,2.99
			c0.66,0.06,1.09,0.31,1.5,0.79c1.25,1.48,2.78,2.63,4.76,3.53c-3.52,1.52-7,2.03-10.7,1.76c-0.5-2.22-1.76-3.81-3.92-4.62
			C114.94,274.52,113.18,275.06,111.57,277.05z M107.49,269.83c2.68,0.09,3.37,2.17,4.2,4.11c0.42-2.86,0.42-2.86,2.95-4.25
			c-2.23-0.43-3.2-1.98-3.79-4.02C110.57,267.79,109.47,269.11,107.49,269.83z" fill="white"/>
		<path d="M271.25,262.33c0-7.84,0-15.58,0-23.39c1.91,0,3.77,0,5.76,0c0,5.8,0,11.58,0,17.54c5.93,0,11.73,0,17.59,0
			c0,2.05,0,3.91,0,5.84C286.82,262.33,279.08,262.33,271.25,262.33z" fill="white"/>
		<path d="M332.67,262.36c-2.02,0-3.85,0-5.85,0c0-5.84,0-11.65,0-17.56c-2.99,0-5.82,0-8.73,0c0-2,0-3.89,0-5.85
			c7.74,0,15.47,0,23.29,0c0,1.89,0,3.78,0,5.82c-2.9,0-5.75,0-8.71,0C332.67,250.7,332.67,256.48,332.67,262.36z" fill="white"/>
		<path d="M145.07,258.21c0.79,4.59-0.34,8.53-3.03,12.09c-1.81,2.39-3.97,4.39-6.52,5.94c-0.39,0.24-0.99,0.36-1.44,0.27
			c-2.14-0.45-3.88-1.6-5.44-3.45c0.29-0.2,0.57-0.34,0.79-0.56c1.46-1.45,1.97-3.19,1.34-5.15c-0.23-0.72-0.04-1.14,0.34-1.71
			c1.34-2.02,2.59-4.11,3.91-6.15c0.18-0.28,0.54-0.49,0.87-0.64c0.32-0.15,0.78-0.08,1.02-0.29c0.98-0.88,2.02-0.48,3.12-0.39
			C141.69,258.31,143.38,258.21,145.07,258.21z M140.51,263.04c-1.59,1-3.17,1.57-4.88,0.11c1.11,2.12,0.32,3.91-0.89,5.85
			c2.63-1.41,2.63-1.41,5.42-0.5C138.87,265.93,138.87,265.93,140.51,263.04z" fill="white"/>
		<path d="M268.08,262.36c-1.93,0-3.76,0-5.67,0c0-7.79,0-15.56,0-23.41c1.86,0,3.71,0,5.67,0
			C268.08,246.72,268.08,254.49,268.08,262.36z" fill="white"/>
		<path d="M344.49,238.92c1.91,0,3.74,0,5.67,0c0,7.8,0,15.57,0,23.41c-1.86,0-3.72,0-5.67,0
			C344.49,254.57,344.49,246.8,344.49,238.92z" fill="white"/>
		<path d="M145.71,227.37c-2.83,0.16-2.59,2.7-3.39,4.25c-0.31-1.01-0.49-2.11-0.97-3.06c-0.54-1.05-1.7-1.22-2.76-1.29
			c0.91-0.62,1.97-1.11,2.72-1.9c0.74-0.78,1.17-1.85,1.84-2.97C143.33,224.48,143.7,226.34,145.71,227.37z" fill="white"/>
		<path d="M101.53,243.67c-1.71-0.91-3.31-1.73-5.31-0.9c1.49-2.08,0.24-3.53-0.92-5.06c1.85,1.26,3.63,2.64,5.84,0.52
			C100.11,240.17,100.43,241.92,101.53,243.67z" fill="white"/>
		<path d="M106.08,219.53c0.23,1.69,0.95,2.99,2.42,3.84c-0.72,0.38-1.5,0.63-2.03,1.13c-0.52,0.49-0.78,1.25-1.15,1.9
			c-0.05-0.77-0.01-1.55-0.16-2.28c-0.19-0.89-1-1.17-1.8-1.39c0.59-0.42,1.28-0.74,1.72-1.26
			C105.54,220.93,105.76,220.19,106.08,219.53z" fill="white"/>
		<path d="M150.67,240.1c-1.88-2.01-2.23-2.13-4.33-1.21c1.2-1.51,0.63-2.86,0.05-4.3c1.35,1.11,2.83,1.45,4.78,1.01
			C149.65,237.15,149.97,238.6,150.67,240.1z" fill="white"/>
		<path d="M99.42,227.78c-0.81,0.95-2.14,1.48-1.74,3.08c-1.32-0.83-1.32-0.83-3.57-0.49c0.87-1.17,1.38-2.38,1.25-3.93
			C96.49,227.66,97.87,227.91,99.42,227.78z" fill="white"/>
		<path d="M115.01,237.06c1.67-0.84,3.33-1.7,5.02-2.5c0.59-0.28,0.94-0.66,1.16-1.27c0.5-1.33,1.05-2.65,1.68-4.22
			c0.61,1.49,1.17,2.73,1.62,4.02c0.27,0.79,0.74,1.24,1.48,1.58c1.61,0.75,3.19,1.58,5.04,2.51c-1.77,0.45-3.25,0.9-4.76,1.18
			c-1,0.19-1.49,0.63-1.74,1.62c-0.43,1.69-1.01,3.33-1.72,5.02c-0.45-1.45-1.03-2.88-1.33-4.37c-0.3-1.51-1.05-2.23-2.56-2.44
			c-1.29-0.18-2.55-0.61-3.82-0.92C115.06,237.21,115.03,237.14,115.01,237.06z" fill="white"/>
	</g>
</g>
</svg>
