<?xml version="1.0" encoding="utf-8"?>
<svg xmlns="http://www.w3.org/2000/svg">
  <path d="M 59.46 12.417 L 58.178 19.561 L 50.486 19.561 L 48.587 30.683 L 39.566 30.683 L 44.789 0.719 L 63.305 0.719 L 60.789 8.39 L 52.433 8.39 L 51.768 12.417 L 59.46 12.417 Z M 69.05 25.936 L 67.199 30.683 L 57.703 30.683 L 70.19 0.719 L 84.149 0.719 L 86.238 30.683 L 76.695 30.683 L 76.505 25.936 L 69.05 25.936 Z M 75.793 9.924 L 75.318 9.924 L 71.994 18.314 L 75.793 18.314 L 75.793 9.924 Z M 101.336 19.752 L 108.506 0.719 L 118.049 0.719 L 105.847 30.683 L 92.648 30.683 L 90.891 0.719 L 100.909 0.719 L 100.909 19.752 L 101.336 19.752 Z M 127.877 10.739 L 127.877 10.739 L 125.693 23.204 L 129.444 23.204 L 129.444 23.204 C 130.679 23.204 131.597 23.056 132.198 22.757 L 132.198 22.757 L 132.198 22.757 C 132.799 22.448 133.195 21.75 133.385 20.664 L 133.385 20.664 L 135.569 8.198 L 131.771 8.198 L 131.771 8.198 C 130.568 8.198 129.666 8.347 129.064 8.645 L 129.064 8.645 L 129.064 8.645 C 128.463 8.954 128.067 9.652 127.877 10.739 Z M 133.337 0 L 133.337 0 L 133.337 0 C 137.357 0 140.222 0.795 141.931 2.381 L 141.931 2.381 L 141.931 2.381 C 143.64 3.958 144.495 6.393 144.495 9.685 L 144.495 9.685 L 144.495 9.685 C 144.495 12.976 143.978 16.424 142.944 20.024 L 142.944 20.024 L 142.944 20.024 C 141.92 23.615 140.29 26.405 138.054 28.398 L 138.054 28.398 L 138.054 28.398 C 135.827 30.401 132.567 31.402 128.273 31.402 L 128.273 31.402 L 128.273 31.402 C 123.989 31.402 120.993 30.615 119.284 29.037 L 119.284 29.037 L 119.284 29.037 C 117.574 27.45 116.72 25.009 116.72 21.718 L 116.72 21.718 L 116.72 21.718 C 116.72 20.152 116.941 18.086 117.384 15.517 L 117.384 15.517 L 117.384 15.517 C 117.828 12.94 118.413 10.719 119.141 8.853 L 119.141 8.853 L 119.141 8.853 C 119.869 6.978 120.85 5.354 122.085 3.979 L 122.085 3.979 L 122.085 3.979 C 124.459 1.327 128.21 0 133.337 0 Z M 167.428 20.711 L 170.561 30.683 L 160.638 30.683 L 158.454 21.766 L 156.507 21.766 L 154.988 30.683 L 145.967 30.683 L 151.19 0.719 L 165.433 0.719 L 165.433 0.719 C 170.846 0.719 173.552 3.165 173.552 8.055 L 173.552 8.055 L 173.552 8.055 C 173.552 10.068 173.252 11.986 172.65 13.807 L 172.65 13.807 L 172.65 13.807 C 171.542 17.26 169.801 19.561 167.428 20.711 L 167.428 20.711 Z M 160.638 8.39 L 158.834 8.39 L 157.789 14.383 L 159.878 14.383 L 159.878 14.383 C 160.955 14.383 161.766 14.266 162.316 14.031 L 162.316 14.031 L 162.316 14.031 C 162.874 13.786 163.254 13.099 163.455 11.97 L 163.455 11.97 L 163.455 11.97 C 163.666 10.831 163.772 10.132 163.772 9.876 L 163.772 9.876 L 163.772 9.876 C 163.772 9.237 163.529 8.826 163.044 8.645 L 163.044 8.645 L 163.044 8.645 C 162.548 8.475 161.746 8.39 160.638 8.39 L 160.638 8.39 Z M 183.048 30.683 L 174.027 30.683 L 179.25 0.719 L 188.271 0.719 L 183.048 30.683 Z M 213.815 0.719 L 212.438 8.39 L 205.886 8.39 L 202.04 30.683 L 193.019 30.683 L 196.865 8.39 L 190.36 8.39 L 191.737 0.719 L 213.815 0.719 Z M 233.614 12.417 L 232.379 19.369 L 223.358 19.369 L 222.741 23.012 L 233.804 23.012 L 232.474 30.683 L 212.39 30.683 L 217.613 0.719 L 237.459 0.719 L 234.991 8.39 L 225.257 8.39 L 224.593 12.417 L 233.614 12.417 Z M 236.7 30.155 L 236.7 30.155 L 239.359 22.245 L 239.359 22.245 C 242.017 22.98 244.455 23.347 246.67 23.347 L 246.67 23.347 L 246.67 23.347 C 248.886 23.347 250.675 23.252 252.036 23.061 L 252.036 23.061 L 252.415 20.664 L 248.475 20.28 L 248.475 20.28 C 245.468 19.992 243.336 19.304 242.081 18.218 L 242.081 18.218 L 242.081 18.218 C 240.835 17.131 240.213 15.598 240.213 13.615 L 240.213 13.615 L 240.213 13.615 C 240.213 12.752 240.308 11.794 240.498 10.739 L 240.498 10.739 L 240.498 10.739 C 241.226 6.648 242.545 3.835 244.455 2.301 L 244.455 2.301 L 244.455 2.301 C 246.375 0.767 249.345 0 253.365 0 L 253.365 0 L 253.365 0 C 257.385 0 260.93 0.4 264 1.199 L 264 1.199 L 261.531 8.87 L 261.531 8.87 C 258.778 8.39 256.562 8.15 254.884 8.15 L 254.884 8.15 L 254.884 8.15 C 253.207 8.15 251.782 8.23 250.611 8.39 L 250.611 8.39 L 250.231 10.739 L 253.413 11.075 L 253.413 11.075 C 256.641 11.426 258.936 12.205 260.297 13.407 L 260.297 13.407 L 260.297 13.407 C 261.658 14.602 262.339 16.204 262.339 18.218 L 262.339 18.218 L 262.339 18.218 C 262.339 20.264 261.895 22.373 261.009 24.546 L 261.009 24.546 L 261.009 24.546 C 260.566 25.665 260.08 26.603 259.553 27.359 L 259.553 27.359 L 259.553 27.359 C 259.036 28.105 258.371 28.739 257.559 29.261 L 257.559 29.261 L 257.559 29.261 C 256.757 29.793 256.024 30.193 255.359 30.459 L 255.359 30.459 L 255.359 30.459 C 254.694 30.736 253.856 30.939 252.843 31.067 L 252.843 31.067 L 252.843 31.067 C 251.355 31.29 249.535 31.402 247.383 31.402 L 247.383 31.402 L 247.383 31.402 C 243.458 31.402 239.897 30.986 236.7 30.155 Z" style="white-space: pre; fill: rgb(255, 255, 255);"/>
  <path d="M 16.614 0 C 16.269 0 15.923 0.27 15.662 0.809 L 12.115 8.062 C 11.589 9.142 10.192 10.162 9.016 10.335 L 1.092 11.497 C -0.087 11.671 -0.353 12.499 0.501 13.338 L 6.237 18.982 C 7.09 19.824 7.622 21.478 7.421 22.661 L 6.064 30.637 C 5.916 31.495 6.243 32 6.837 32 C 7.109 31.989 7.376 31.912 7.614 31.775 L 14.704 28.007 C 15.233 27.728 15.924 27.592 16.616 27.592 C 17.311 27.592 18.01 27.73 18.531 28.007 L 25.624 31.775 C 25.909 31.926 26.177 32 26.4 32 C 26.995 32 27.318 31.495 27.174 30.637 L 25.816 22.661 C 25.618 21.478 26.15 19.822 26.998 18.982 L 32.737 13.338 C 33.588 12.499 33.324 11.671 32.143 11.497 L 24.217 10.337 C 23.041 10.164 21.646 9.144 21.12 8.064 L 17.575 0.809 C 17.309 0.27 16.966 0 16.614 0 Z" style="fill: rgb(255, 255, 255);"/>
</svg>