<?xml version="1.0" encoding="utf-8"?>
<!-- Made by Szalik  -->
<svg version="1.1" id="Warstwa_1" xmlns="http://www.w3.org/2000/svg" xmlns:xlink="http://www.w3.org/1999/xlink" x="0px" y="0px" xml:space="preserve">
<g>
	<g>
		<path d="M90.24,277.76c0.14-0.19,0.3-0.37,0.41-0.58c0.94-1.92,2.5-2.84,4.62-2.84c3.48,0,6.96-0.03,10.44,0.02
			c0.95,0.01,1.27-0.27,1.23-1.22c-0.07-1.48-0.04-2.96-0.01-4.44c0.02-1.66,0.98-2.7,2.42-2.69c1.43,0.01,2.36,1.06,2.38,2.73
			c0.02,2.29-0.23,2.03,2.06,2.04c1.28,0.01,2.56-0.04,3.84,0.02c0.92,0.04,1.35-0.26,1.26-1.22c-0.04-0.51-0.02-1.04,0.05-1.55
			c0.18-1.24,1.21-2.06,2.43-2.01c1.16,0.05,2.15,0.92,2.21,2.12c0.08,1.56,0.11,3.12,0.02,4.68c-0.07,1.22,0.33,1.57,1.55,1.56
			c13.64-0.04,27.27-0.02,40.91-0.03c2.37,0,4.1,0.91,5.01,3.15c0.19,0.47,0.27,1,0.28,1.51c0.04,1.52-0.07,3.05,0.03,4.56
			c0.25,3.46-2.59,7.53-7.47,7.51c-3.76-0.02-7.52,0-11.28,0c-9.16,0-18.31,0.02-27.47-0.02c-1.18-0.01-1.6,0.28-1.56,1.53
			c0.09,3.08-0.03,6.16,0.06,9.24c0.04,1.47-0.25,2.67-1.49,3.55c-0.64,0-1.28,0-1.92,0c-1.17-0.98-1.55-2.24-1.37-3.72
			c0.1-0.85-0.32-1.11-1.13-1.09c-1.56,0.04-3.12,0.07-4.67-0.01c-1.03-0.05-1.51,0.24-1.36,1.32c0.21,1.48-0.28,2.66-1.56,3.49
			c-0.56,0-1.12,0-1.68,0c-1.22-0.8-1.63-1.92-1.59-3.38c0.08-3.24-0.01-6.48,0.05-9.72c0.02-0.96-0.29-1.24-1.23-1.22
			c-2.68,0.05-5.36,0.05-8.04,0.01c-3.33-0.06-5.7-1.59-7-4.7c-0.1-0.24-0.29-0.45-0.43-0.67C90.24,283.04,90.24,280.4,90.24,277.76
			z M145.17,279.09c-6.71,0-13.43,0.02-20.14-0.02c-1.1-0.01-1.5,0.32-1.43,1.44c0.09,1.39,0.02,2.8,0.02,4.19
			c0,1.58,0,1.58,1.55,1.58c11.03,0,22.06,0,33.08,0c1.92,0,3.84,0.02,5.75-0.01c1.59-0.03,2.51-0.97,2.55-2.55
			c0.03-1.12-0.04-2.24,0.02-3.36c0.06-0.98-0.26-1.3-1.28-1.3C158.59,279.11,151.88,279.09,145.17,279.09z M101.01,279.09
			c-1.64,0-3.27,0.04-4.91-0.02c-0.86-0.03-1.12,0.3-1.09,1.12c0.05,1.16,0,2.31,0.02,3.47c0.03,1.66,0.95,2.6,2.6,2.61
			c2.79,0.03,5.59-0.01,8.38,0.02c0.67,0.01,0.93-0.19,0.91-0.88c-0.03-1.75-0.04-3.51,0-5.27c0.02-0.86-0.32-1.1-1.13-1.07
			C104.2,279.12,102.61,279.09,101.01,279.09z M111.72,283.88c0,1.07-0.05,1.98,0.03,2.88c0.02,0.26,0.42,0.68,0.66,0.69
			c1.87,0.06,3.74,0.07,5.61-0.01c0.29-0.01,0.82-0.56,0.8-0.82c-0.09-0.91,0.56-1.98-0.47-2.72c-0.06-0.04-0.15-0.03-0.23-0.03
			C116.06,283.88,114,283.88,111.72,283.88z M115.31,292.25c-0.92,0-1.83-0.03-2.75,0.02c-0.27,0.01-0.75,0.21-0.76,0.35
			c-0.06,0.95-0.05,1.9,0.02,2.85c0.01,0.13,0.43,0.32,0.66,0.32c1.83,0.03,3.67,0.04,5.5-0.01c0.3-0.01,0.77-0.32,0.84-0.58
			c0.62-2.19,0.04-2.94-2.19-2.94C116.19,292.25,115.75,292.25,115.31,292.25z M115.22,279.09c0.44,0,0.88,0,1.31,0
			c2.54,0,2.53,0,2.34-2.61c-0.04-0.64-0.27-0.94-0.93-0.94c-1.79,0.01-3.59-0.03-5.38,0.04c-0.29,0.01-0.78,0.5-0.82,0.8
			c-0.28,2.7-0.26,2.71,2.39,2.71C114.51,279.09,114.87,279.09,115.22,279.09z" fill="white"/>
		<path d="M155.52,224.24c1.27,0.84,1.6,2.04,1.57,3.51c-0.07,3.39-0.01,6.79-0.03,10.18c-0.01,2.13-0.86,2.98-2.97,2.98
			c-3.63,0.01-7.27,0.01-10.9,0c-2-0.01-2.84-0.83-2.85-2.85c-0.02-3.43,0.05-6.87-0.03-10.3c-0.03-1.46,0.27-2.67,1.52-3.53
			C146.4,224.24,150.96,224.24,155.52,224.24z M148.71,236.16c0.84,0,1.68-0.03,2.51,0.01c0.74,0.04,1.1-0.17,1.08-1
			c-0.05-1.75-0.04-3.51,0-5.26c0.01-0.69-0.27-0.9-0.92-0.89c-1.79,0.03-3.59,0.02-5.38,0c-0.66-0.01-0.93,0.24-0.92,0.91
			c0.03,1.75,0.03,3.51,0,5.26c-0.01,0.74,0.31,0.99,1.01,0.97C146.96,236.13,147.83,236.16,148.71,236.16z" fill="white"/>
		<path d="M335.61,277.23c-2,0-3.83,0-5.75,0c0-7.75,0-15.52,0-23.47c0.33,0,0.71,0,1.09,0c4.95,0,9.91-0.01,14.86,0
			c4.94,0.01,7.38,2.42,7.39,7.36c0,0.95-0.13,1.92-0.35,2.84c-0.57,2.44-2.16,3.83-4.62,4.23c-0.47,0.08-0.94,0.15-1.57,0.25
			c2.95,2.81,5.82,5.54,8.69,8.28c-0.11,0.18-0.22,0.36-0.33,0.55c-1,0-2,0.01-3,0c-1.68-0.02-3.54,0.41-4.97-0.19
			c-1.44-0.6-2.45-2.21-3.65-3.39c-1.31-1.29-2.69-2.52-3.88-3.91c-1.06-1.24-2.26-1.46-3.9-1.09c0,1.38,0,2.8,0,4.22
			C335.61,274.32,335.61,275.71,335.61,277.23z M335.69,262.64c2.35,0,4.58,0,6.82,0c1.16,0,2.32,0.02,3.47-0.02
			c0.85-0.03,1.3-0.51,1.32-1.38c0.02-0.81-0.22-1.51-1.13-1.52c-3.47-0.04-6.93-0.02-10.48-0.02
			C335.69,260.69,335.69,261.59,335.69,262.64z" fill="white"/>
		<path d="M376.7,263.89c-2.58,2.59-4.88,4.9-7.25,7.26c-2.42-2.43-4.77-4.79-7.12-7.14c-0.1,0.05-0.2,0.11-0.31,0.16
			c0,4.33,0,8.66,0,13.05c-2.01,0-3.87,0-5.8,0c0-7.79,0-15.56,0-23.45c1.26,0,2.49-0.05,3.71,0.03c0.37,0.02,0.76,0.37,1.06,0.66
			c2.76,2.72,5.5,5.46,8.35,8.29c0.27-0.25,0.56-0.51,0.83-0.78c2.4-2.4,4.83-4.78,7.18-7.24c0.7-0.73,1.39-1.08,2.4-0.98
			c0.87,0.08,1.75,0.02,2.7,0.02c0,7.85,0,15.61,0,23.45c-1.89,0-3.75,0-5.76,0C376.7,272.89,376.7,268.55,376.7,263.89z" fill="white"/>
		<path d="M315.37,253.66c2.19,0.1,4.4,0.05,6.56,0.35c2.88,0.4,4.76,2.3,4.91,5.21c0.21,4.02,0.26,8.07,0.05,12.08
			c-0.19,3.59-2.09,5.59-5.64,5.83c-3.93,0.27-7.91,0.26-11.85,0.01c-3.49-0.23-5.45-2.19-5.68-5.69c-0.26-3.94-0.27-7.92,0-11.85
			c0.25-3.73,2.6-5.68,6.36-5.83c1.75-0.07,3.51-0.01,5.27-0.01C315.37,253.74,315.37,253.7,315.37,253.66z M321.16,265.51
			c0-1.4,0.02-2.79-0.01-4.19c-0.02-1.32-0.33-1.64-1.65-1.65c-2.79-0.02-5.59,0.01-8.38-0.01c-1.09-0.01-1.66,0.46-1.66,1.56
			c-0.01,2.87-0.01,5.75,0,8.62c0,1.02,0.52,1.55,1.55,1.55c2.87,0,5.75,0,8.62,0c1.02,0,1.54-0.51,1.52-1.56
			C321.14,268.39,321.15,266.95,321.16,265.51z" fill="white"/>
		<path d="M277.26,277.22c0-7.86,0-15.6,0-23.4c7.79,0,15.52,0,23.33,0c0,1.9,0,3.76,0,5.81c-5.79,0-11.6,0-17.47,0
			c0,1.09,0,1.99,0,3c5.84,0,11.62,0,17.47,0c0,1.97,0,3.83,0,5.89c-5.8,0-11.6,0-17.54,0c0,3,0,5.82,0,8.7
			C281.06,277.22,279.2,277.22,277.26,277.22z" fill="white"/>
		<path d="M183.47,268.55c0,2.96,0,5.78,0,8.66c-1.99,0-3.85,0-5.79,0c0-7.78,0-15.54,0-23.39c0.28-0.02,0.54-0.06,0.81-0.06
			c5.16,0,10.31-0.02,15.47,0c4.4,0.02,6.66,2.07,7.04,6.46c0.1,1.14,0,2.33-0.23,3.45c-0.6,2.82-2.53,4.56-5.45,4.71
			c-3.43,0.18-6.87,0.12-10.3,0.17C184.53,268.55,184.07,268.55,183.47,268.55z M183.51,262.64c3.35,0,6.58,0.01,9.81,0
			c1.35,0,1.82-0.41,1.82-1.5c0-1.1-0.43-1.46-1.83-1.47c-2.96-0.01-5.91-0.01-8.87,0c-0.3,0-0.6,0.07-0.94,0.12
			C183.51,260.74,183.51,261.61,183.51,262.64z" fill="white"/>
		<path d="M148.68,251.69c2.68,0,5.35-0.02,8.03,0.01c3.19,0.03,5.05,1.9,5.1,5.08c0.02,1.48,0.04,2.96-0.01,4.43
			c-0.12,4.15-3.14,7.13-7.29,7.17c-3.87,0.04-7.75,0.04-11.62,0c-4.21-0.04-7.23-3.07-7.3-7.27c-0.02-1.52-0.03-3.04,0-4.55
			c0.05-2.88,1.91-4.77,4.82-4.86c1.4-0.04,2.8-0.01,4.19-0.01C145.96,251.69,147.32,251.69,148.68,251.69z M148.74,256.44
			c-2.44,0-4.87,0.02-7.31-0.01c-0.74-0.01-1.11,0.23-1.09,1.03c0.03,1.2-0.02,2.4,0.02,3.59c0.06,1.66,0.97,2.54,2.67,2.54
			c3.79,0.02,7.59,0.02,11.38,0c1.65-0.01,2.58-0.93,2.64-2.6c0.04-1.12-0.04-2.24,0.03-3.35c0.05-0.97-0.37-1.24-1.27-1.22
			C153.45,256.46,151.09,256.43,148.74,256.44z" fill="white"/>
		<path d="M255.1,277.28c-2.21,0-4.2,0.04-6.19-0.04c-0.33-0.01-0.81-0.51-0.93-0.88c-0.56-1.68-1.65-2.12-3.36-1.99
			c-2.19,0.16-4.4,0.09-6.6,0.02c-0.89-0.03-1.46,0.22-1.72,1.07c-0.47,1.52-1.45,2.04-3.05,1.86c-1.45-0.16-2.93-0.03-4.59-0.03
			c4.43-8.33,8.76-16.5,13.22-24.89C246.31,260.74,250.66,268.93,255.1,277.28z M241.87,264.95c-0.68,1.31-1.21,2.35-1.79,3.48
			c1.29,0,2.37,0,3.64,0C243.08,267.23,242.53,266.2,241.87,264.95z" fill="white"/>
		<path d="M110.52,236.16c2.64,0,5.28-0.02,7.92,0c3.24,0.02,5.14,1.92,5.18,5.15c0.02,1.48,0.03,2.96-0.01,4.44
			c-0.11,3.96-2.9,6.95-6.85,7.08c-4.15,0.13-8.32,0.13-12.47,0c-3.96-0.13-6.75-3.12-6.86-7.07c-0.04-1.52-0.04-3.04,0-4.56
			c0.07-3.1,1.94-4.97,5.06-5.03C105.16,236.12,107.84,236.16,110.52,236.16z M110.58,240.92c-2.44,0-4.88,0.02-7.31-0.01
			c-0.83-0.01-1.15,0.28-1.12,1.11c0.05,1.2-0.02,2.4,0.03,3.6c0.07,1.52,0.99,2.47,2.52,2.48c3.88,0.04,7.75,0.04,11.63,0
			c1.53-0.01,2.46-0.95,2.53-2.48c0.05-1.2-0.02-2.4,0.03-3.6c0.03-0.83-0.27-1.14-1.11-1.12
			C115.38,240.94,112.98,240.92,110.58,240.92z" fill="white"/>
		<path d="M227.4,271.37c0,2.06,0,3.91,0,5.84c-7.8,0-15.53,0-23.33,0c0-7.79,0-15.56,0-23.39c1.9,0,3.76,0,5.75,0
			c0,5.81,0,11.58,0,17.55C215.75,271.37,221.55,271.37,227.4,271.37z" fill="white"/>
		<path d="M274.16,259.67c-2.92,0-5.74,0-8.67,0c0,5.89,0,11.66,0,17.53c-1.99,0-3.88,0-5.9,0c0-5.82,0-11.6,0-17.52
			c-2.98,0-5.84,0-8.74,0c0-2.01,0-3.88,0-5.83c7.74,0,15.47,0,23.31,0C274.16,255.7,274.16,257.59,274.16,259.67z" fill="white"/>
	</g>
</g>
</svg>
