<?xml version="1.0" encoding="utf-8"?>
<!-- Made by Szalik  -->
<svg version="1.1" id="Warstwa_1" xmlns="http://www.w3.org/2000/svg" xmlns:xlink="http://www.w3.org/1999/xlink" x="0px" y="0px" xml:space="preserve">
<g>
	<g>
		<path d="M172.65,238.93c7.8,0,15.51,0,23.3,0c0,1.91,0,3.77,0,5.83c-5.79,0-11.6,0-17.46,0c0,1.09,0,1.99,0,2.99
			c4.86,0,9.64,0,14.51,0c0,1.99,0,3.88,0,5.91c-4.84,0-9.62,0-14.49,0c0,0.98,0,1.84,0,2.85c5.81,0,11.58,0,17.44,0
			c0,2.01,0,3.87,0,5.82c-7.74,0-15.48,0-23.3,0C172.65,254.57,172.65,246.8,172.65,238.93z" fill="white"/>
		<path d="M251.61,238.92c7.8,0,15.51,0,23.3,0c0,1.9,0,3.77,0,5.83c-5.79,0-11.59,0-17.46,0c0,1.09,0,1.99,0,2.99
			c4.86,0,9.64,0,14.51,0c0,1.99,0,3.88,0,5.91c-4.83,0-9.61,0-14.49,0c0,0.98,0,1.84,0,2.85c5.8,0,11.58,0,17.43,0
			c0,2.01,0,3.87,0,5.82c-7.74,0-15.47,0-23.3,0C251.61,254.57,251.61,246.8,251.61,238.92z" fill="white"/>
		<path d="M146.24,238.91c5.76,0,11.43-0.11,17.1,0.04c3.7,0.09,5.75,2.2,6.14,5.92c0.13,1.22,0.09,2.48-0.09,3.69
			c-0.41,2.72-2.07,4.3-4.8,4.77c-0.46,0.08-0.93,0.15-1.69,0.28c3.02,2.88,5.89,5.63,8.76,8.37c-0.08,0.14-0.17,0.28-0.25,0.41
			c-2.57,0-5.14,0.02-7.71-0.03c-0.32-0.01-0.68-0.36-0.95-0.63c-2.31-2.27-4.67-4.49-6.86-6.87c-1.11-1.22-2.3-1.37-3.86-1.07
			c0,2.82,0,5.64,0,8.53c-1.99,0-3.85,0-5.79,0C146.24,254.56,146.24,246.8,146.24,238.91z M152.07,247.76
			c3.39,0,6.66,0.01,9.94-0.01c1.24-0.01,1.69-0.44,1.7-1.5c0.01-1.18-0.69-1.48-1.71-1.47c-3.04,0.01-6.07,0-9.11,0.01
			c-0.26,0-0.52,0.08-0.82,0.13C152.07,245.86,152.07,246.73,152.07,247.76z" fill="white"/>
		<path d="M339.37,250.66c0-1.76-0.06-3.52,0.01-5.27c0.15-3.69,1.98-6.06,5.58-6.32c4.16-0.29,8.38-0.24,12.55,0.07
			c3.11,0.23,4.95,2.28,5.11,5.39c0.2,3.98,0.24,7.99,0.03,11.96c-0.19,3.51-2.07,5.51-5.57,5.76c-3.97,0.28-8,0.29-11.97,0
			c-3.7-0.27-5.6-2.66-5.73-6.44C339.32,254.09,339.37,252.37,339.37,250.66z M351.16,244.79c-1.44,0-2.87,0.02-4.31-0.01
			c-1.11-0.02-1.62,0.52-1.63,1.59c0,2.83,0,5.67,0,8.5c0,1.07,0.49,1.64,1.6,1.63c2.83,0,5.67,0,8.5,0c1.07,0,1.62-0.48,1.61-1.6
			c-0.02-2.83,0.01-5.67-0.01-8.5c-0.01-1.29-0.34-1.59-1.68-1.61C353.87,244.77,352.51,244.79,351.16,244.79z" fill="white"/>
		<path d="M365.81,262.33c0-7.84,0-15.58,0-23.45c1.27,0,2.5-0.06,3.72,0.03c0.4,0.03,0.83,0.41,1.15,0.73
			c3.85,3.84,7.68,7.69,11.52,11.54c0.3,0.3,0.62,0.57,1.12,1.04c0-4.58,0-8.9,0-13.28c2,0,3.87,0,5.82,0c0,7.77,0,15.54,0,23.45
			c-1.28,0-2.55,0.04-3.81-0.03c-0.33-0.02-0.67-0.38-0.94-0.64c-3.88-3.87-7.75-7.74-11.6-11.63c-0.3-0.3-0.46-0.74-0.68-1.12
			c-0.15,0.1-0.31,0.21-0.46,0.31c0,4.33,0,8.66,0,13.05C369.64,262.33,367.78,262.33,365.81,262.33z" fill="white"/>
		<path d="M301.41,247.69c-1.99,0.5-3.87,0.97-5.94,1.48c0-1.08,0-2.02,0-2.97c0-0.94-0.48-1.41-1.4-1.41c-2.96-0.01-5.92,0-8.87,0
			c-0.87,0-1.37,0.47-1.38,1.32c-0.03,3-0.03,5.99-0.01,8.99c0.01,0.92,0.55,1.38,1.46,1.38c2.92,0.01,5.84,0.01,8.75,0
			c1.05,0,1.49-0.59,1.47-1.61c-0.02-0.87,0-1.74,0-2.77c2.03,0.5,3.91,0.97,6.1,1.51c-0.27,1.67-0.34,3.36-0.83,4.92
			c-0.87,2.74-3.17,3.72-5.8,3.81c-3.51,0.12-7.04,0.11-10.55,0.01c-3.96-0.11-6.32-2.47-6.44-6.43c-0.11-3.51-0.1-7.04,0-10.55
			c0.11-4.01,2.51-6.38,6.52-6.48c3.44-0.09,6.88-0.08,10.31,0c3.88,0.09,6.03,2.12,6.48,5.99
			C301.37,245.8,301.36,246.72,301.41,247.69z" fill="white"/>
		<path d="M204.6,262.36c-2.05,0-3.88,0-5.8,0c0-7.8,0-15.56,0-23.41c7.73,0,15.47,0,23.29,0c0,1.88,0,3.77,0,5.81
			c-5.81,0-11.59,0-17.44,0c0,1.04,0,1.94,0,2.96c5.81,0,11.58,0,17.45,0c0,2,0,3.89,0,5.93c-5.82,0-11.6,0-17.5,0
			C204.6,256.61,204.6,259.44,204.6,262.36z" fill="white"/>
		<path d="M230.95,256.51c5.94,0,11.72,0,17.57,0c0,2,0,3.86,0,5.8c-7.76,0-15.49,0-23.31,0c0-7.75,0-15.52,0-23.36
			c1.86,0,3.71,0,5.74,0C230.95,244.76,230.95,250.56,230.95,256.51z" fill="white"/>
		<path d="M318.99,262.36c-2.02,0-3.85,0-5.85,0c0-5.84,0-11.64,0-17.55c-2.99,0-5.82,0-8.73,0c0-2,0-3.89,0-5.85
			c7.73,0,15.46,0,23.29,0c0,1.88,0,3.77,0,5.82c-2.89,0-5.75,0-8.7,0C318.99,250.7,318.99,256.47,318.99,262.36z" fill="white"/>
		<path d="M336.54,238.97c0,7.82,0,15.53,0,23.33c-1.92,0-3.81,0-5.76,0c0-7.76,0-15.5,0-23.33
			C332.65,238.97,334.54,238.97,336.54,238.97z" fill="white"/>
		<path d="M133.35,252.96c-1.47,0.14-2.74,0.3-4.01,0.34c-0.37,0.01-0.75-0.34-1.13-0.53c0.31-0.24,0.61-0.64,0.95-0.68
			c1.82-0.24,3.66-0.38,5.48-0.58c0.91-0.1,1.25,0.25,1.12,1.16c-0.24,1.78-0.4,3.58-0.68,5.35c-0.06,0.36-0.49,0.66-0.75,0.99
			c-0.16-0.39-0.48-0.79-0.46-1.18c0.05-1.11,0.22-2.22,0.38-3.57c-0.4,0.3-0.64,0.45-0.84,0.64c-5.39,5.14-11.88,7.94-19.21,8.6
			c-3.47,0.31-7.01-0.05-10.51-0.16c-0.38-0.01-0.74-0.44-1.11-0.67c0.3-0.28,0.56-0.61,0.9-0.82c0.64-0.4,1.31-0.79,2.01-1.06
			c0.4-0.15,0.9-0.05,1.35-0.06c-0.21,0.37-0.4,0.74-0.64,1.09c-0.1,0.15-0.29,0.23-0.49,0.37
			C113.56,264.38,128.26,259.52,133.35,252.96z" fill="white"/>
		<path d="M120.82,236.8c-1.22,1-2.21,1.86-3.26,2.62c-0.3,0.22-0.8,0.15-1.21,0.21c0.14-0.39,0.16-0.92,0.43-1.16
			c1.37-1.21,2.82-2.34,4.22-3.52c0.67-0.57,1.09-0.45,1.47,0.32c0.83,1.68,1.72,3.33,2.52,5.02c0.14,0.29-0.08,0.74-0.13,1.12
			c-0.33-0.19-0.8-0.3-0.98-0.59c-0.61-1.01-1.11-2.09-1.77-3.38c-0.15,0.6-0.17,0.99-0.35,1.3c-0.13,0.23-0.45,0.36-0.68,0.53
			c-0.18-0.27-0.5-0.52-0.52-0.8C120.54,238.02,120.7,237.55,120.82,236.8z" fill="white"/>
		<path d="M140.11,247.8c-0.77,0.83-1.25,1.43-1.83,1.92c-0.22,0.19-0.67,0.1-1.02,0.14c0.05-0.35-0.02-0.8,0.18-1.02
			c0.49-0.57,1.1-1.04,2.08-1.92c-0.8-0.59-1.48-1.01-2.04-1.55c-0.21-0.2-0.17-0.67-0.24-1.02c0.38,0.04,0.86-0.04,1.11,0.16
			c0.58,0.48,1.04,1.09,1.78,1.89c0.59-0.7,1.03-1.32,1.58-1.82c0.26-0.23,0.74-0.21,1.12-0.3c-0.09,0.41-0.05,0.92-0.28,1.19
			c-0.47,0.53-1.09,0.92-1.85,1.52c0.86,0.78,1.49,1.27,2,1.87c0.19,0.22,0.1,0.68,0.14,1.02c-0.35-0.05-0.81,0.02-1.02-0.18
			C141.22,249.17,140.74,248.52,140.11,247.8z" fill="white"/>
		<path d="M104.64,251.73c-0.74,0.82-1.24,1.45-1.83,1.98c-0.19,0.17-0.61,0.07-0.93,0.09c0.01-0.32-0.1-0.76,0.07-0.95
			c0.55-0.62,1.21-1.14,2.02-1.87c-0.73-0.62-1.34-1.03-1.79-1.58c-0.23-0.28-0.19-0.79-0.27-1.2c0.38,0.09,0.85,0.07,1.11,0.29
			c0.54,0.46,0.96,1.05,1.64,1.83c0.67-0.76,1.15-1.39,1.74-1.91c0.23-0.2,0.68-0.15,1.03-0.22c-0.05,0.38,0.02,0.86-0.18,1.11
			c-0.49,0.57-1.11,1.02-2.01,1.82c0.73,0.55,1.34,0.89,1.79,1.38c0.28,0.31,0.56,1.05,0.41,1.23c-0.57,0.68-0.96-0.04-1.32-0.39
			C105.64,252.9,105.24,252.4,104.64,251.73z" fill="white"/>
		<path d="M122.55,230.71c0.79,0.65,1.44,1.11,1.99,1.68c0.2,0.21,0.13,0.68,0.19,1.03c-0.35-0.04-0.82,0.05-1.03-0.15
			c-0.58-0.53-1.05-1.18-1.79-2.04c-0.7,0.84-1.13,1.47-1.68,1.97c-0.24,0.21-0.73,0.15-1.11,0.21c0.06-0.35,0.01-0.81,0.22-1.04
			c0.49-0.57,1.1-1.03,1.83-1.7c-0.71-0.66-1.34-1.15-1.83-1.75c-0.2-0.25-0.1-0.74-0.14-1.12c0.34,0.08,0.78,0.05,1.01,0.25
			c0.57,0.49,1.04,1.08,1.77,1.88c0.61-0.71,1.05-1.33,1.6-1.82c0.25-0.22,0.72-0.19,1.09-0.27c-0.06,0.38,0.01,0.86-0.2,1.11
			C124.01,229.51,123.39,229.97,122.55,230.71z" fill="white"/>
		<path d="M94.21,266.07c0.75,0.61,1.36,1.01,1.82,1.54c0.24,0.27,0.2,0.79,0.29,1.19c-0.41-0.11-0.9-0.12-1.2-0.36
			c-0.51-0.43-0.9-1-1.54-1.75c-0.68,0.76-1.15,1.4-1.74,1.9c-0.24,0.21-0.73,0.12-1.11,0.16c0.07-0.35,0.03-0.8,0.24-1.03
			c0.5-0.56,1.11-1.01,1.84-1.65c-0.73-0.69-1.34-1.19-1.85-1.79c-0.2-0.24-0.16-0.68-0.23-1.03c0.38,0.05,0.87-0.03,1.12,0.17
			c0.58,0.47,1.04,1.09,1.79,1.91c0.62-0.74,1.08-1.39,1.65-1.93c0.21-0.2,0.68-0.14,1.03-0.19c-0.04,0.35,0.04,0.8-0.15,1.03
			C95.7,264.81,95.09,265.27,94.21,266.07z" fill="white"/>
		<path d="M110.07,241c1.43-0.01,2.62,1.12,2.67,2.54c0.05,1.45-1.16,2.72-2.61,2.74c-1.45,0.02-2.66-1.2-2.66-2.68
			C107.48,242.17,108.64,241.02,110.07,241z M111.62,243.89c0-0.18,0-0.36,0-0.55c-0.49-0.35-0.95-0.91-1.48-1
			c-0.82-0.14-1.37,0.47-1.36,1.3c0.01,0.83,0.56,1.43,1.39,1.26C110.69,244.8,111.13,244.25,111.62,243.89z" fill="white"/>
		<path d="M93.29,256.32c-0.02-1.43,1.1-2.62,2.53-2.67c1.47-0.05,2.72,1.12,2.76,2.58c0.03,1.43-1.22,2.68-2.67,2.67
			C94.47,258.89,93.31,257.75,93.29,256.32z M95.98,258.16c0.59-0.86,1.15-1.33,1.22-1.87c0.11-0.8-0.47-1.36-1.33-1.33
			c-0.85,0.04-1.41,0.61-1.24,1.42C94.75,256.91,95.34,257.34,95.98,258.16z" fill="white"/>
		<path d="M123.22,250.07c1.44,0.03,2.57,1.19,2.56,2.62c-0.01,1.49-1.22,2.66-2.69,2.63c-1.41-0.03-2.58-1.23-2.58-2.64
			C120.51,251.24,121.75,250.04,123.22,250.07z M123.25,250.83c-0.65,0.8-1.27,1.22-1.38,1.75c-0.17,0.79,0.37,1.38,1.23,1.42
			c0.86,0.04,1.45-0.51,1.35-1.31C124.38,252.16,123.82,251.68,123.25,250.83z" fill="white"/>
		<path d="M128.91,266.36c0.01,1.47-1.19,2.66-2.68,2.64c-1.41-0.02-2.59-1.22-2.59-2.62c0-1.43,1.15-2.6,2.57-2.63
			C127.72,263.71,128.9,264.86,128.91,266.36z M127.84,266.57c-0.01-0.19-0.01-0.37-0.02-0.56c-0.55-0.33-1.07-0.86-1.64-0.93
			c-0.77-0.09-1.23,0.55-1.2,1.32c0.03,0.86,0.61,1.4,1.41,1.23C126.92,267.53,127.36,266.94,127.84,266.57z" fill="white"/>
		<path d="M132.56,245.33c0.02,1.47-1.19,2.69-2.65,2.67c-1.42-0.02-2.58-1.19-2.6-2.61c-0.02-1.47,1.19-2.69,2.66-2.67
			C131.37,242.73,132.54,243.91,132.56,245.33z M130.37,243.98c-1.21,0.12-1.75,0.51-1.76,1.39c0,0.82,0.49,1.27,1.26,1.31
			c0.79,0.03,1.42-0.44,1.34-1.2C131.16,244.91,130.62,244.39,130.37,243.98z" fill="white"/>
		<path d="M115.71,252.9c-0.16,0.28-0.26,0.56-0.44,0.75c-1.7,1.8-3.39,3.61-5.14,5.35c-0.24,0.24-0.81,0.17-1.22,0.24
			c0.13-0.39,0.14-0.89,0.4-1.16c1.62-1.76,3.28-3.49,4.96-5.2c0.24-0.25,0.63-0.4,0.97-0.49
			C115.34,252.37,115.53,252.7,115.71,252.9z" fill="white"/>
		<path d="M116.82,250.85c-0.13-0.71-0.35-1.13-0.24-1.41c0.97-2.4,1.99-4.78,3.05-7.14c0.12-0.27,0.58-0.38,0.88-0.56
			c0.1,0.34,0.36,0.75,0.26,1.01c-0.95,2.36-1.95,4.71-2.97,7.04C117.68,250.08,117.35,250.29,116.82,250.85z" fill="white"/>
	</g>
</g>
</svg>
