<?xml version="1.0" encoding="utf-8"?>
<svg version="1.1" id="shooter" x="0px" y="0px" viewBox="0 0 200 40" xmlns="http://www.w3.org/2000/svg">
  <path d="M 49.556 29.224 L 51.236 24.274 C 52.916 24.734 54.456 24.964 55.856 24.964 C 57.256 24.964 58.386 24.904 59.246 24.784 L 59.486 23.284 L 56.996 23.044 C 55.096 22.864 53.751 22.434 52.961 21.754 C 52.171 21.074 51.776 20.114 51.776 18.874 C 51.776 18.334 51.836 17.734 51.956 17.074 C 52.416 14.514 53.251 12.754 54.461 11.794 C 55.671 10.834 57.546 10.354 60.086 10.354 C 62.626 10.354 64.866 10.604 66.806 11.104 L 65.246 15.904 C 63.506 15.604 62.106 15.454 61.046 15.454 C 59.986 15.454 59.086 15.504 58.346 15.604 L 58.106 17.074 L 60.116 17.284 C 62.156 17.504 63.606 17.989 64.466 18.739 C 65.326 19.489 65.756 20.494 65.756 21.754 C 65.756 23.034 65.476 24.354 64.916 25.714 C 64.636 26.414 64.331 26.999 64.001 27.469 C 63.671 27.939 63.251 28.339 62.741 28.669 C 62.231 28.999 61.766 29.249 61.346 29.419 C 60.926 29.589 60.396 29.714 59.756 29.794 C 58.816 29.934 57.666 30.004 56.306 30.004 C 53.826 30.004 51.576 29.744 49.556 29.224 Z M 77.336 29.554 L 78.476 22.924 L 74.186 22.924 L 73.046 29.554 L 67.346 29.554 L 70.646 10.804 L 76.346 10.804 L 75.176 17.434 L 79.466 17.434 L 80.636 10.804 L 86.336 10.804 L 83.036 29.554 Z M 94.316 17.074 L 92.936 24.874 L 95.306 24.874 C 96.086 24.874 96.666 24.779 97.046 24.589 C 97.426 24.399 97.676 23.964 97.796 23.284 L 99.176 15.484 L 96.776 15.484 C 96.016 15.484 95.446 15.579 95.066 15.769 C 94.686 15.959 94.436 16.394 94.316 17.074 Z M 97.766 10.354 C 100.306 10.354 102.116 10.849 103.196 11.839 C 104.276 12.829 104.816 14.354 104.816 16.414 C 104.816 18.474 104.491 20.629 103.841 22.879 C 103.191 25.129 102.161 26.879 100.751 28.129 C 99.341 29.379 97.281 30.004 94.571 30.004 C 91.861 30.004 89.966 29.509 88.886 28.519 C 87.806 27.529 87.266 26.004 87.266 23.944 C 87.266 22.964 87.406 21.669 87.686 20.059 C 87.966 18.449 88.336 17.059 88.796 15.889 C 89.256 14.719 89.876 13.704 90.656 12.844 C 92.156 11.184 94.526 10.354 97.766 10.354 Z M 113.216 17.074 L 111.836 24.874 L 114.206 24.874 C 114.986 24.874 115.566 24.779 115.946 24.589 C 116.326 24.399 116.576 23.964 116.696 23.284 L 118.076 15.484 L 115.676 15.484 C 114.916 15.484 114.346 15.579 113.966 15.769 C 113.586 15.959 113.336 16.394 113.216 17.074 Z M 116.666 10.354 C 119.206 10.354 121.016 10.849 122.096 11.839 C 123.176 12.829 123.716 14.354 123.716 16.414 C 123.716 18.474 123.391 20.629 122.741 22.879 C 122.091 25.129 121.061 26.879 119.651 28.129 C 118.241 29.379 116.181 30.004 113.471 30.004 C 110.761 30.004 108.866 29.509 107.786 28.519 C 106.706 27.529 106.166 26.004 106.166 23.944 C 106.166 22.964 106.306 21.669 106.586 20.059 C 106.866 18.449 107.236 17.059 107.696 15.889 C 108.156 14.719 108.776 13.704 109.556 12.844 C 111.056 11.184 113.426 10.354 116.666 10.354 Z M 139.676 15.604 L 135.536 15.604 L 133.106 29.554 L 127.406 29.554 L 129.836 15.604 L 125.726 15.604 L 126.596 10.804 L 140.546 10.804 Z M 152.276 22.474 L 146.576 22.474 L 146.186 24.754 L 153.176 24.754 L 152.336 29.554 L 139.646 29.554 L 142.946 10.804 L 155.486 10.804 L 153.926 15.604 L 147.776 15.604 L 147.356 18.124 L 153.056 18.124 Z M 171.086 29.554 L 164.816 29.554 L 163.436 23.974 L 162.206 23.974 L 161.246 29.554 L 155.546 29.554 L 158.846 10.804 L 167.846 10.804 C 171.266 10.804 172.976 12.334 172.976 15.394 C 172.976 16.654 172.786 17.854 172.406 18.994 C 171.706 21.154 170.606 22.594 169.106 23.314 Z M 163.676 15.604 L 163.016 19.354 L 164.336 19.354 C 165.016 19.354 165.531 19.279 165.881 19.129 C 166.231 18.979 166.471 18.549 166.601 17.839 C 166.731 17.129 166.796 16.694 166.796 16.534 C 166.796 16.134 166.641 15.879 166.331 15.769 C 166.021 15.659 165.516 15.604 164.816 15.604 Z" style="white-space: pre; fill: rgb(255, 255, 255);"/>
  <path d="M 37.024 9.997 C 31.501 9.997 27.024 14.474 27.024 19.997 C 27.024 25.52 31.501 29.997 37.024 29.997 C 42.547 29.997 47.024 25.52 47.024 19.997 C 47.024 14.474 42.547 9.997 37.024 9.997 Z M 37.024 27.416 C 32.923 27.416 29.604 24.098 29.604 19.997 C 29.604 15.897 32.922 12.578 37.024 12.578 C 41.124 12.578 44.443 15.896 44.443 19.997 C 44.443 24.097 41.125 27.416 37.024 27.416 Z M 37.024 14.836 C 34.173 14.836 31.862 17.147 31.862 19.997 C 31.862 22.847 34.173 25.158 37.024 25.158 C 39.874 25.158 42.185 22.847 42.185 19.997 C 42.185 17.147 39.874 14.836 37.024 14.836 Z M 37.024 22.578 C 35.601 22.578 34.443 21.42 34.443 19.997 C 34.443 18.574 35.601 17.416 37.024 17.416 C 38.447 17.416 39.604 18.574 39.604 19.997 C 39.604 21.42 38.447 22.578 37.024 22.578 Z" style="fill: rgb(204, 204, 204);"/>
</svg>