<?xml version="1.0" encoding="utf-8"?>
<svg version="1.1" id="allgames" x="0px" y="0px" xmlns="http://www.w3.org/2000/svg">
  <g>
    <g>
      <g transform="matrix(0.688636, 0, 0, 0.688636, -76.228424, -158.003342)" style="">
        <path d="M 158.587 229.459 C 165.987 229.459 173.377 229.459 180.777 229.459 C 189.507 229.459 196.657 232.869 201.627 239.999 C 207.267 248.099 207.917 256.879 203.487 265.769 C 200.027 272.709 194.307 277.059 186.737 278.759 C 184.747 279.209 182.597 278.869 180.527 279.009 C 174.237 279.439 169.107 276.889 164.527 272.909 C 163.847 272.319 163.207 272.019 162.297 272.039 C 159.737 272.099 157.177 272.099 154.617 272.039 C 153.747 272.019 153.107 272.289 152.487 272.869 C 149.447 275.709 145.927 277.809 141.847 278.589 C 139.217 279.089 136.447 278.829 133.737 279.009 C 130.767 279.209 128.047 278.389 125.397 277.199 C 110.407 270.439 105.937 251.299 116.397 238.629 C 121.447 232.509 128.017 229.529 135.897 229.469 C 143.477 229.419 151.037 229.459 158.587 229.459 Z M 158.597 236.019 C 150.917 236.019 143.237 235.899 135.567 236.049 C 127.757 236.209 121.997 239.979 118.867 247.089 C 115.737 254.219 116.917 260.989 122.147 266.809 C 129.617 275.119 142.737 274.789 149.867 266.279 C 150.207 265.869 150.917 265.569 151.457 265.559 C 155.977 265.499 160.497 265.559 165.007 265.499 C 166.097 265.489 166.817 265.789 167.567 266.619 C 172.657 272.289 179.067 274.009 186.297 272.149 C 195.207 269.859 200.747 261.069 199.527 251.709 C 198.377 242.929 190.537 236.069 181.507 236.019 C 173.867 235.989 166.227 236.019 158.597 236.019 Z" fill="white"/>
        <path d="M 139.397 250.739 C 141.207 250.739 142.837 250.729 144.467 250.739 C 146.087 250.759 146.727 251.399 146.747 252.989 C 146.757 254.029 146.767 255.069 146.747 256.109 C 146.717 257.419 146.057 258.099 144.737 258.129 C 143.027 258.159 141.317 258.139 139.397 258.139 C 139.397 259.759 139.397 261.299 139.397 262.839 C 139.387 264.979 138.837 265.529 136.697 265.529 C 135.897 265.529 135.097 265.539 134.297 265.529 C 132.687 265.499 132.047 264.859 132.027 263.269 C 132.017 261.599 132.027 259.939 132.027 258.139 C 130.267 258.139 128.637 258.149 127.007 258.139 C 125.257 258.129 124.637 257.499 124.627 255.749 C 124.617 254.869 124.617 253.989 124.627 253.109 C 124.637 251.389 125.287 250.759 127.047 250.749 C 128.647 250.739 130.237 250.749 132.017 250.749 C 132.017 249.219 132.017 247.759 132.017 246.299 C 132.017 243.799 132.417 243.409 134.957 243.409 C 135.717 243.409 136.477 243.389 137.237 243.409 C 138.707 243.449 139.347 244.069 139.377 245.539 C 139.427 247.209 139.397 248.889 139.397 250.739 Z" fill="white"/>
        <path d="M 177.607 254.439 C 177.587 256.439 175.917 258.119 173.947 258.129 C 171.887 258.129 170.207 256.439 170.227 254.379 C 170.247 252.409 171.957 250.739 173.947 250.739 C 175.897 250.749 177.627 252.489 177.607 254.439 Z" fill="white"/>
        <path d="M 192.337 254.359 C 192.367 256.389 190.767 258.079 188.777 258.129 C 186.737 258.189 185.007 256.519 184.967 254.469 C 184.937 252.519 186.617 250.789 188.607 250.749 C 190.577 250.699 192.307 252.379 192.337 254.359 Z" fill="white"/>
        <path d="M 177.617 261.739 C 177.637 259.739 179.287 258.129 181.327 258.139 C 183.337 258.149 184.967 259.799 184.947 261.829 C 184.927 263.849 183.267 265.529 181.297 265.519 C 179.247 265.519 177.597 263.819 177.617 261.739 Z" fill="white"/>
        <path d="M 181.367 243.409 C 183.367 243.439 184.987 245.109 184.947 247.129 C 184.917 249.159 183.277 250.759 181.267 250.739 C 179.187 250.719 177.577 249.059 177.617 246.959 C 177.657 244.959 179.327 243.379 181.367 243.409 Z" fill="white"/>
      </g>
      <path d="M 85.719 25.615 L 84.198 29.474 L 76.401 29.474 L 86.655 5.108 L 98.116 5.108 L 99.832 29.474 L 91.996 29.474 L 91.84 25.615 L 85.719 25.615 Z M 91.255 12.594 L 90.865 12.594 L 88.136 19.416 L 91.255 19.416 L 91.255 12.594 Z M 118.311 23.237 L 117.219 29.474 L 102.405 29.474 L 106.693 5.108 L 114.1 5.108 L 110.904 23.237 L 118.311 23.237 Z M 134.919 23.237 L 133.827 29.474 L 119.013 29.474 L 123.301 5.108 L 130.708 5.108 L 127.511 23.237 L 134.919 23.237 Z M 156.673 22.301 L 156.673 22.301 L 156.868 21.248 L 154.996 21.248 L 156.049 15.284 L 164.977 15.284 L 162.676 28.305 L 162.676 28.305 C 159.506 29.474 156.322 30.059 153.125 30.059 L 153.125 30.059 L 153.125 30.059 C 149.928 30.059 147.619 29.422 146.199 28.149 L 146.199 28.149 L 146.199 28.149 C 144.786 26.875 144.08 24.913 144.08 22.262 L 144.08 22.262 L 144.08 22.262 C 144.08 21.144 144.262 19.494 144.626 17.311 L 144.626 17.311 L 144.626 17.311 C 145.406 12.789 146.783 9.527 148.759 7.526 L 148.759 7.526 L 148.759 7.526 C 150.734 5.524 154.009 4.524 158.583 4.524 L 158.583 4.524 L 158.583 4.524 C 159.545 4.524 160.77 4.628 162.261 4.836 L 162.261 4.836 L 162.261 4.836 C 163.759 5.043 164.86 5.277 165.561 5.537 L 165.561 5.537 L 163.417 11.502 L 163.417 11.502 C 161.468 11.138 159.678 10.956 158.05 10.956 L 158.05 10.956 L 158.05 10.956 C 156.43 10.956 155.269 11.086 154.567 11.346 L 154.567 11.346 L 154.567 11.346 C 153.866 11.606 153.45 12.126 153.32 12.906 L 153.32 12.906 L 151.41 23.938 L 153.866 23.938 L 153.866 23.938 C 154.749 23.938 155.403 23.844 155.828 23.653 L 155.828 23.653 L 155.828 23.653 C 156.261 23.454 156.543 23.003 156.673 22.301 Z M 173.32 25.615 L 171.799 29.474 L 164.002 29.474 L 174.255 5.108 L 185.717 5.108 L 187.432 29.474 L 179.596 29.474 L 179.44 25.615 L 173.32 25.615 Z M 178.855 12.594 L 178.466 12.594 L 175.737 19.416 L 178.855 19.416 L 178.855 12.594 Z M 199.557 17.662 L 197.023 29.474 L 189.304 29.474 L 194.996 5.108 L 204.664 5.108 L 205.366 17.506 L 205.639 17.506 L 210.707 5.108 L 220.375 5.108 L 217.49 29.474 L 209.732 29.474 L 211.369 17.662 L 211.097 17.662 L 206.223 29.474 L 200.57 29.474 L 199.752 17.662 L 199.557 17.662 Z M 239.049 14.621 L 238.036 20.274 L 230.628 20.274 L 230.122 23.237 L 239.205 23.237 L 238.114 29.474 L 221.623 29.474 L 225.911 5.108 L 242.207 5.108 L 240.18 11.346 L 232.188 11.346 L 231.642 14.621 L 239.049 14.621 Z M 241.583 29.046 L 241.583 29.046 L 243.766 22.613 L 243.766 22.613 C 245.95 23.211 247.951 23.51 249.77 23.51 L 249.77 23.51 L 249.77 23.51 C 251.59 23.51 253.058 23.432 254.176 23.276 L 254.176 23.276 L 254.488 21.326 L 251.252 21.015 L 251.252 21.015 C 248.783 20.781 247.032 20.222 246.002 19.338 L 246.002 19.338 L 246.002 19.338 C 244.979 18.454 244.468 17.207 244.468 15.596 L 244.468 15.596 L 244.468 15.596 C 244.468 14.894 244.546 14.114 244.702 13.256 L 244.702 13.256 L 244.702 13.256 C 245.3 9.93 246.382 7.642 247.951 6.395 L 247.951 6.395 L 247.951 6.395 C 249.527 5.147 251.966 4.524 255.267 4.524 L 255.267 4.524 L 255.267 4.524 C 258.568 4.524 261.479 4.849 264 5.498 L 264 5.498 L 261.973 11.736 L 261.973 11.736 C 259.712 11.346 257.892 11.151 256.515 11.151 L 256.515 11.151 L 256.515 11.151 C 255.137 11.151 253.968 11.216 253.006 11.346 L 253.006 11.346 L 252.694 13.256 L 255.306 13.529 L 255.306 13.529 C 257.957 13.815 259.842 14.448 260.959 15.427 L 260.959 15.427 L 260.959 15.427 C 262.077 16.397 262.636 17.701 262.636 19.338 L 262.636 19.338 L 262.636 19.338 C 262.636 21.002 262.272 22.717 261.544 24.484 L 261.544 24.484 L 261.544 24.484 C 261.18 25.394 260.781 26.157 260.348 26.771 L 260.348 26.771 L 260.348 26.771 C 259.923 27.378 259.378 27.893 258.711 28.318 L 258.711 28.318 L 258.711 28.318 C 258.052 28.751 257.45 29.075 256.905 29.292 L 256.905 29.292 L 256.905 29.292 C 256.359 29.517 255.67 29.682 254.838 29.786 L 254.838 29.786 L 254.838 29.786 C 253.617 29.968 252.122 30.059 250.355 30.059 L 250.355 30.059 L 250.355 30.059 C 247.132 30.059 244.208 29.721 241.583 29.046 Z" style="white-space: pre; fill: rgb(255, 255, 255);"/>
    </g>
  </g>
</svg>