<?xml version="1.0" encoding="utf-8"?>
<!-- Made by Szalik  -->
<svg version="1.1" id="Warstwa_1" xmlns="http://www.w3.org/2000/svg" xmlns:xlink="http://www.w3.org/1999/xlink" x="0px" y="0px" xml:space="preserve">
<g>
	<g>
		<path d="M162.9,219.49c16.86,0,30.46,13.63,30.5,30.54c0.03,16.51-13.7,30.29-30.24,30.32c-17.03,0.04-30.63-13.65-30.62-30.79
			C132.55,233.19,146.38,219.49,162.9,219.49z M163.6,236.21c0,1.25-0.07,2.1,0.03,2.93c0.05,0.45,0.27,1.02,0.61,1.28
			c2.72,2.04,5.47,4.02,8.24,5.98c0.3,0.21,0.82,0.29,1.17,0.19c1.58-0.43,3.15-0.9,4.69-1.46c0.38-0.14,0.84-0.64,0.87-1.01
			c0.3-3.06,0.54-6.13,0.73-9.2c0.02-0.39-0.21-0.94-0.52-1.18c-1.7-1.4-3.42-2.76-5.2-4.05c-0.35-0.25-1.05-0.31-1.47-0.15
			c-2.08,0.81-4.07,1.88-6.19,2.57C164.26,232.86,162.8,233.94,163.6,236.21z M162.24,236.68c0-0.72-0.06-1.44,0.02-2.16
			c0.08-0.8-0.19-1.2-0.95-1.51c-2.77-1.13-5.5-2.36-8.28-3.49c-0.39-0.16-1.04-0.11-1.37,0.12c-1.76,1.25-3.48,2.55-5.15,3.91
			c-0.32,0.26-0.58,0.86-0.55,1.28c0.21,3.07,0.52,6.13,0.75,9.2c0.05,0.68,0.36,0.95,0.98,1.14c1.42,0.42,2.82,0.87,4.21,1.39
			c0.69,0.26,1.18,0.13,1.74-0.29c1.98-1.49,3.91-3.06,6.02-4.34C161.72,240.65,162.9,239.18,162.24,236.68z M186.56,254.66
			c-0.1-0.19-0.2-0.45-0.36-0.65c-2.06-2.44-4.11-4.89-6.22-7.3c-0.21-0.24-0.78-0.35-1.11-0.26c-1.58,0.42-3.15,0.9-4.69,1.44
			c-0.38,0.13-0.8,0.54-0.93,0.91c-1.09,3.21-2.14,6.44-3.15,9.68c-0.12,0.38-0.03,0.95,0.19,1.29c0.9,1.36,1.86,2.7,2.88,3.98
			c0.22,0.28,0.8,0.48,1.15,0.4c2.19-0.46,4.33-1.19,6.54-1.48c2.49-0.32,3.92-1.4,4.36-3.94
			C185.47,257.37,186.09,256.08,186.56,254.66z M146.51,246.17c-0.21,0.2-0.48,0.41-0.7,0.66c-2,2.28-4.02,4.56-5.97,6.89
			c-0.28,0.34-0.42,1.02-0.29,1.45c0.56,1.96,1.19,3.89,1.9,5.8c0.16,0.42,0.66,0.9,1.09,1.01c2.94,0.77,5.9,1.43,8.84,2.18
			c0.65,0.16,1.01,0.08,1.39-0.49c0.87-1.29,1.85-2.51,2.7-3.81c0.24-0.37,0.38-0.97,0.26-1.38c-0.98-3.21-2.03-6.39-3.08-9.58
			c-0.1-0.29-0.22-0.73-0.44-0.81C150.37,247.44,148.51,246.84,146.51,246.17z M153.35,265.14c1.77,2.9,3.46,5.7,5.22,8.46
			c0.24,0.38,0.84,0.73,1.29,0.75c2.07,0.08,4.15,0.07,6.23,0.01c0.39-0.01,0.93-0.29,1.13-0.62c1.66-2.63,3.28-5.29,4.85-7.98
			c0.18-0.3,0.14-0.92-0.06-1.22c-0.9-1.37-1.86-2.69-2.88-3.98c-0.25-0.31-0.77-0.56-1.18-0.57c-3.36-0.04-6.71-0.04-10.07,0
			c-0.4,0.01-0.93,0.25-1.17,0.56C155.55,262.04,154.48,263.58,153.35,265.14z M187.08,233.66c-3.89-5.5-8.73-9.2-15.05-11.35
			c0.47,1.2,0.93,2.13,1.22,3.11c0.52,1.81,1.56,3.15,3.13,4.19c1.36,0.9,2.58,2.01,3.89,2.99c0.37,0.28,0.82,0.55,1.26,0.6
			C183.27,233.4,185.02,233.5,187.08,233.66z M139.24,233.32c3.38,0.18,6.51-0.14,8.94-2.77c0.43-0.46,0.96-0.86,1.51-1.16
			c2.7-1.48,2.76-4.4,4.07-6.86C148.99,223.49,141.6,229.04,139.24,233.32z M192,251.45c-5.06,2.66-7.78,11.21-5.54,15.57
			C189.83,262.36,191.62,257.24,192,251.45z M134.07,251.46c0.23,5.67,1.97,10.77,5.31,15.44c1.27-3.55,1.19-4.25-1.14-11.3
			C137.55,253.52,135.44,252.89,134.07,251.46z M170.59,277.96c-3.11-3.43-13.42-2.81-15.52-0.06
			C160.25,279.32,165.38,279.36,170.59,277.96z" fill="white"/>
		<path d="M276.95,252.5c2.31,2.13,4.62,4.27,6.93,6.4c-0.07,0.12-0.14,0.25-0.21,0.37c-2.01,0-4.02,0.03-6.03-0.03
			c-0.33-0.01-0.69-0.35-0.95-0.62c-1.85-1.83-3.73-3.62-5.48-5.54c-0.87-0.96-1.78-1.03-2.99-0.77c0,2.28,0,4.55,0,6.89
			c-1.58,0-3.04,0-4.6,0c0-6.14,0-12.31,0-18.59c0.36-0.02,0.75-0.05,1.13-0.05c3.88,0,7.76-0.01,11.64,0
			c2.13,0.01,4.18,0.42,5.17,2.55c1.1,2.36,1.13,4.83-0.29,7.11c-0.91,1.47-2.51,1.71-4.08,1.9
			C277.1,252.25,277.02,252.38,276.95,252.5z M268.26,247.52c2.7,0,5.33-0.01,7.96,0.01c0.81,0.01,1.34-0.27,1.35-1.14
			c0.01-0.87-0.54-1.17-1.33-1.17c-2.04,0.01-4.08,0-6.11,0c-0.62,0-1.24,0-1.87,0C268.26,246.1,268.26,246.76,268.26,247.52z" fill="white"/>
		<path d="M219.05,246.35c-0.41,0.08-0.76,0.16-1.12,0.2c-1.06,0.12-2.13,0.23-3.18,0.34c-0.75-1.67-0.75-1.67-2.64-1.67
			c-1.84,0-3.68,0.01-5.52,0c-0.79,0-1.48,0.13-1.5,1.12c-0.02,1.04,0.68,1.2,1.54,1.19c2.28-0.02,4.56-0.03,6.83,0
			c2.2,0.03,4.24,0.59,5.1,2.84c0.95,2.49,1.09,5.13-0.81,7.23c-0.79,0.88-2.26,1.5-3.46,1.58c-3.02,0.22-6.08,0.24-9.1,0.02
			c-3.26-0.25-4.83-2.29-4.74-5.76c1.45-0.19,2.92-0.39,4.39-0.59c0.58,1.77,0.58,1.77,2.48,1.77c1.88,0,3.76-0.01,5.64,0
			c0.89,0.01,1.51-0.28,1.48-1.28c-0.03-0.94-0.65-1.17-1.48-1.16c-2.28,0.01-4.56,0.01-6.83,0c-2.15-0.01-4.15-0.49-5.09-2.65
			c-1.05-2.39-1.12-4.9,0.51-7.05c0.63-0.83,1.88-1.6,2.89-1.66c3.45-0.21,6.95-0.31,10.39-0.05
			C217.79,240.99,219.26,243.2,219.05,246.35z" fill="white"/>
		<path d="M323.2,246.38c-1.42,0.18-2.87,0.36-4.49,0.56c0.12-1.85-1.11-1.74-2.33-1.72c-1.84,0.03-3.68,0.01-5.52,0.01
			c-0.82,0-1.59,0.07-1.6,1.14c-0.01,1.05,0.71,1.18,1.56,1.17c2.28-0.02,4.56-0.04,6.83,0c2.2,0.04,4.24,0.6,5.09,2.86
			c0.94,2.49,1.03,5.08-0.81,7.24c-0.61,0.72-1.74,1.35-2.66,1.4c-3.38,0.19-6.79,0.34-10.16,0.09c-3.13-0.24-4.6-2.32-4.48-5.68
			c0.7-0.09,1.44-0.2,2.17-0.29c0.75-0.1,1.49-0.19,2.23-0.28c0.52,1.76,0.52,1.76,2.36,1.76c1.92,0,3.84-0.01,5.76,0
			c0.83,0.01,1.44-0.24,1.46-1.18c0.02-1-0.61-1.27-1.5-1.26c-2.28,0.02-4.56,0.02-6.83,0c-2.15-0.01-4.15-0.51-5.08-2.67
			c-1.04-2.39-1.11-4.91,0.54-7.05c0.63-0.83,1.88-1.59,2.9-1.65c3.46-0.21,6.95-0.31,10.39-0.04
			C321.96,240.99,323.46,243.26,323.2,246.38z" fill="white"/>
		<path d="M261.12,249.94c0,1.44,0.06,2.88-0.01,4.31c-0.15,2.83-1.54,4.6-4.33,4.84c-3.21,0.27-6.47,0.3-9.68,0.06
			c-3.1-0.23-4.59-2.06-4.67-5.18c-0.07-2.71-0.07-5.43,0-8.15c0.09-3.07,1.55-4.89,4.59-5.12c3.21-0.25,6.47-0.23,9.67,0.03
			c2.86,0.23,4.27,2.01,4.41,4.89C261.17,247.06,261.12,248.5,261.12,249.94z M256.48,249.93c0-1.04-0.02-2.08,0.01-3.12
			c0.03-1.09-0.41-1.62-1.56-1.6c-2.12,0.04-4.23,0.03-6.35,0c-1.07-0.02-1.53,0.47-1.52,1.52c0.02,2.12,0.02,4.23,0,6.35
			c-0.01,1.04,0.42,1.55,1.5,1.54c2.16-0.03,4.31-0.02,6.47,0c1.02,0.01,1.46-0.47,1.45-1.46
			C256.47,252.09,256.48,251.01,256.48,249.93z" fill="white"/>
		<path d="M226.2,252.18c0,2.43,0,4.67,0,7c-1.57,0-3.05,0-4.61,0c0-6.14,0-12.28,0-18.62c0.35,0,0.73,0,1.11,0
			c3.92,0,7.84-0.02,11.76,0.01c2.13,0.01,4.16,0.45,5.14,2.6c1.08,2.38,1.09,4.85-0.41,7.09c-1.02,1.53-2.7,1.9-4.44,1.91
			c-2.36,0.02-4.72,0.01-7.08,0.01C227.23,252.18,226.8,252.18,226.2,252.18z M226.26,247.52c2.79,0,5.51,0,8.22,0
			c0.74,0,1.19-0.47,1.05-1.13c-0.09-0.43-0.61-1.08-0.96-1.09c-2.74-0.09-5.49-0.05-8.31-0.05
			C226.26,246.02,226.26,246.68,226.26,247.52z" fill="white"/>
		<path d="M283.5,245.26c0-1.64,0-3.11,0-4.63c6.22,0,12.39,0,18.62,0c0,1.51,0,2.97,0,4.58c-2.3,0-4.56,0-6.91,0
			c0,4.73,0,9.31,0,13.98c-1.59,0-3.09,0-4.74,0c0-4.6,0-9.21,0-13.93C288.09,245.26,285.86,245.26,283.5,245.26z" fill="white"/>
	</g>
</g>
</svg>
