<?xml version="1.0" encoding="utf-8"?>
<svg xmlns="http://www.w3.org/2000/svg">
  <path d="M 47.221 20.247 L 47.221 20.247 L 42.153 20.247 L 41.09 26.39 L 33.325 26.39 L 37.821 0.966 L 50.082 0.966 L 50.082 0.966 C 54.714 0.966 57.03 3.108 57.03 7.393 L 57.03 7.393 L 57.03 7.393 C 57.03 9.427 56.744 11.262 56.172 12.898 L 56.172 12.898 L 56.172 12.898 C 55.599 14.543 54.969 15.85 54.278 16.816 L 54.278 16.816 L 54.278 16.816 C 53.579 17.776 52.62 18.589 51.403 19.258 L 51.403 19.258 L 51.403 19.258 C 50.195 19.918 48.801 20.247 47.221 20.247 Z M 46.199 7.475 L 44.401 7.475 L 43.297 13.739 L 45.096 13.739 L 45.096 13.739 C 46.022 13.739 46.721 13.639 47.194 13.44 L 47.194 13.44 L 47.194 13.44 C 47.675 13.233 47.984 12.763 48.12 12.03 L 48.12 12.03 L 48.12 12.03 C 48.474 10.024 48.651 8.925 48.651 8.736 L 48.651 8.736 L 48.651 8.736 C 48.651 8.22 48.447 7.881 48.038 7.719 L 48.038 7.719 L 48.038 7.719 C 47.63 7.556 47.016 7.475 46.199 7.475 L 46.199 7.475 Z M 73.419 19.881 L 72.275 26.39 L 56.744 26.39 L 61.24 0.966 L 69.005 0.966 L 65.654 19.881 L 73.419 19.881 Z M 79.509 22.363 L 77.915 26.39 L 69.741 26.39 L 80.49 0.966 L 92.506 0.966 L 94.304 26.39 L 86.089 26.39 L 85.926 22.363 L 79.509 22.363 Z M 85.313 8.777 L 84.904 8.777 L 82.043 15.895 L 85.313 15.895 L 85.313 8.777 Z M 117.233 0.966 L 116.047 7.475 L 110.407 7.475 L 107.097 26.39 L 99.331 26.39 L 102.642 7.475 L 97.042 7.475 L 98.228 0.966 L 117.233 0.966 Z M 133.131 10.892 L 132.028 16.953 L 125.407 16.953 L 123.772 26.39 L 116.007 26.39 L 120.502 0.966 L 136.442 0.966 L 134.276 7.475 L 127.083 7.475 L 126.51 10.892 L 133.131 10.892 Z M 145.393 9.467 L 145.393 9.467 L 143.513 20.044 L 146.741 20.044 L 146.741 20.044 C 147.804 20.044 148.594 19.918 149.112 19.664 L 149.112 19.664 L 149.112 19.664 C 149.63 19.402 149.97 18.81 150.134 17.888 L 150.134 17.888 L 152.014 7.312 L 148.744 7.312 L 148.744 7.312 C 147.709 7.312 146.932 7.438 146.414 7.692 L 146.414 7.692 L 146.414 7.692 C 145.897 7.953 145.556 8.546 145.393 9.467 Z M 150.093 0.356 L 150.093 0.356 L 150.093 0.356 C 153.553 0.356 156.019 1.029 157.49 2.376 L 157.49 2.376 L 157.49 2.376 C 158.962 3.715 159.698 5.78 159.698 8.573 L 159.698 8.573 L 159.698 8.573 C 159.698 11.366 159.252 14.29 158.362 17.346 L 158.362 17.346 L 158.362 17.346 C 157.481 20.392 156.078 22.76 154.153 24.451 L 154.153 24.451 L 154.153 24.451 C 152.236 26.15 149.429 27 145.733 27 L 145.733 27 L 145.733 27 C 142.045 27 139.466 26.331 137.995 24.993 L 137.995 24.993 L 137.995 24.993 C 136.524 23.647 135.788 21.576 135.788 18.783 L 135.788 18.783 L 135.788 18.783 C 135.788 17.454 135.979 15.701 136.36 13.522 L 136.36 13.522 L 136.36 13.522 C 136.742 11.334 137.246 9.45 137.872 7.868 L 137.872 7.868 L 137.872 7.868 C 138.499 6.277 139.344 4.898 140.406 3.733 L 140.406 3.733 L 140.406 3.733 C 142.45 1.481 145.679 0.356 150.093 0.356 Z M 179.438 17.929 L 182.136 26.39 L 173.594 26.39 L 171.714 18.824 L 170.038 18.824 L 168.73 26.39 L 160.965 26.39 L 165.46 0.966 L 177.722 0.966 L 177.722 0.966 C 182.381 0.966 184.71 3.041 184.71 7.19 L 184.71 7.19 L 184.71 7.19 C 184.71 8.898 184.452 10.525 183.934 12.071 L 183.934 12.071 L 183.934 12.071 C 182.98 15 181.482 16.953 179.438 17.929 L 179.438 17.929 Z M 173.594 7.475 L 172.041 7.475 L 171.141 12.56 L 172.94 12.56 L 172.94 12.56 C 173.866 12.56 174.565 12.46 175.038 12.261 L 175.038 12.261 L 175.038 12.261 C 175.519 12.053 175.846 11.471 176.019 10.511 L 176.019 10.511 L 176.019 10.511 C 176.2 9.545 176.291 8.953 176.291 8.736 L 176.291 8.736 L 176.291 8.736 C 176.291 8.193 176.083 7.845 175.664 7.692 L 175.664 7.692 L 175.664 7.692 C 175.238 7.546 174.547 7.475 173.594 7.475 L 173.594 7.475 Z M 195.46 14.064 L 192.803 26.39 L 184.71 26.39 L 190.678 0.966 L 200.814 0.966 L 201.549 13.901 L 201.835 13.901 L 207.149 0.966 L 217.285 0.966 L 214.26 26.39 L 206.127 26.39 L 207.843 14.064 L 207.557 14.064 L 202.448 26.39 L 196.522 26.39 L 195.664 14.064 L 195.46 14.064 Z M 236.862 10.892 L 235.799 16.789 L 228.034 16.789 L 227.502 19.881 L 237.025 19.881 L 235.881 26.39 L 218.592 26.39 L 223.088 0.966 L 240.172 0.966 L 238.047 7.475 L 229.668 7.475 L 229.096 10.892 L 236.862 10.892 Z M 258.728 17.929 L 261.425 26.39 L 252.883 26.39 L 251.003 18.824 L 249.327 18.824 L 248.019 26.39 L 240.254 26.39 L 244.75 0.966 L 257.011 0.966 L 257.011 0.966 C 261.67 0.966 264 3.041 264 7.19 L 264 7.19 L 264 7.19 C 264 8.898 263.741 10.525 263.223 12.071 L 263.223 12.071 L 263.223 12.071 C 262.27 15 260.771 16.953 258.728 17.929 L 258.728 17.929 Z M 252.883 7.475 L 251.33 7.475 L 250.431 12.56 L 252.229 12.56 L 252.229 12.56 C 253.156 12.56 253.854 12.46 254.327 12.261 L 254.327 12.261 L 254.327 12.261 C 254.808 12.053 255.135 11.471 255.308 10.511 L 255.308 10.511 L 255.308 10.511 C 255.489 9.545 255.581 8.953 255.581 8.736 L 255.581 8.736 L 255.581 8.736 C 255.581 8.193 255.372 7.845 254.954 7.692 L 254.954 7.692 L 254.954 7.692 C 254.527 7.546 253.837 7.475 252.883 7.475 L 252.883 7.475 Z" style="white-space: pre; fill: rgb(255, 255, 255);"/>
  <g id="layer2" fill="#d4d4d4" stroke="none" transform="matrix(0.012165, 0, 0, 0.012107, 0, 0)">
    <path d="M0 1120 l0 -1120 1120 0 1120 0 0 1120 0 1120 -1120 0 -1120 0 0 -1120z m300 920 l0 -100 -100 0 -100 0 0 100 0 100 100 0 100 0 0 -100z m1840 0 l0 -100 -100 0 -100 0 0 100 0 100 100 0 100 0 0 -100z m-780 -285 l0 -155 -160 0 -160 0 0 155 0 155 160 0 160 0 0 -155z m0 -485 l0 -160 160 0 160 0 0 -315 0 -315 -85 0 -85 0 0 -80 0 -80 -400 0 -400 0 0 80 0 80 -75 0 -75 0 0 240 0 240 160 0 160 0 0 -240 0 -240 240 0 240 0 0 240 0 240 -85 0 -85 0 0 75 0 75 -75 0 -75 0 0 160 0 160 160 0 160 0 0 -160z m-1060 -1070 l0 -100 -100 0 -100 0 0 100 0 100 100 0 100 0 0 -100z m1840 0 l0 -100 -100 0 -100 0 0 100 0 100 100 0 100 0 0 -100z" style="fill: rgb(204, 204, 204);"/>
  </g>
</svg>