<?xml version="1.0" encoding="utf-8"?>
<svg xmlns="http://www.w3.org/2000/svg">
  <path d="M 50.68 40.545 L 50.68 40.545 L 54.14 30.364 L 54.14 30.364 C 57.601 31.31 60.773 31.784 63.657 31.784 L 63.657 31.784 L 63.657 31.784 C 66.541 31.784 68.868 31.66 70.64 31.413 L 70.64 31.413 L 71.134 28.328 L 66.005 27.835 L 66.005 27.835 C 62.091 27.465 59.317 26.58 57.683 25.181 L 57.683 25.181 L 57.683 25.181 C 56.062 23.783 55.253 21.808 55.253 19.259 L 55.253 19.259 L 55.253 19.259 C 55.253 18.147 55.376 16.914 55.623 15.556 L 55.623 15.556 L 55.623 15.556 C 56.571 10.292 58.287 6.671 60.773 4.698 L 60.773 4.698 L 60.773 4.698 C 63.272 2.723 67.138 1.736 72.37 1.736 L 72.37 1.736 L 72.37 1.736 C 77.602 1.736 82.217 2.25 86.213 3.278 L 86.213 3.278 L 82.999 13.15 L 82.999 13.15 C 79.415 12.533 76.531 12.225 74.348 12.225 L 74.348 12.225 L 74.348 12.225 C 72.164 12.225 70.31 12.327 68.786 12.533 L 68.786 12.533 L 68.292 15.556 L 72.432 15.989 L 72.432 15.989 C 76.634 16.441 79.621 17.442 81.393 18.991 L 81.393 18.991 L 81.393 18.991 C 83.164 20.528 84.05 22.59 84.05 25.181 L 84.05 25.181 L 84.05 25.181 C 84.05 27.814 83.473 30.529 82.319 33.326 L 82.319 33.326 L 82.319 33.326 C 81.743 34.765 81.11 35.973 80.424 36.946 L 80.424 36.946 L 80.424 36.946 C 79.751 37.906 78.886 38.721 77.829 39.393 L 77.829 39.393 L 77.829 39.393 C 76.785 40.078 75.831 40.592 74.966 40.935 L 74.966 40.935 L 74.966 40.935 C 74.101 41.291 73.009 41.552 71.69 41.717 L 71.69 41.717 L 71.69 41.717 C 69.754 42.005 67.385 42.148 64.584 42.148 L 64.584 42.148 L 64.584 42.148 C 59.475 42.148 54.841 41.614 50.68 40.545 Z M 108.336 31.906 L 108.336 31.906 L 100.673 31.906 L 99.066 41.223 L 87.325 41.223 L 94.123 2.662 L 112.662 2.662 L 112.662 2.662 C 119.665 2.662 123.167 5.911 123.167 12.409 L 123.167 12.409 L 123.167 12.409 C 123.167 15.494 122.735 18.277 121.869 20.76 L 121.869 20.76 L 121.869 20.76 C 121.004 23.254 120.048 25.237 119.006 26.704 L 119.006 26.704 L 119.006 26.704 C 117.947 28.157 116.499 29.391 114.66 30.405 L 114.66 30.405 L 114.66 30.405 C 112.833 31.407 110.725 31.906 108.336 31.906 Z M 106.791 12.533 L 104.072 12.533 L 102.403 22.035 L 105.123 22.035 L 105.123 22.035 C 106.523 22.035 107.58 21.884 108.295 21.583 L 108.295 21.583 L 108.295 21.583 C 109.022 21.267 109.489 20.554 109.695 19.443 L 109.695 19.443 L 109.695 19.443 C 110.231 16.4 110.499 14.734 110.499 14.446 L 110.499 14.446 L 110.499 14.446 C 110.499 13.664 110.19 13.15 109.572 12.904 L 109.572 12.904 L 109.572 12.904 C 108.954 12.657 108.027 12.533 106.791 12.533 L 106.791 12.533 Z M 138.12 15.556 L 138.12 15.556 L 135.277 31.598 L 140.159 31.598 L 140.159 31.598 C 141.766 31.598 142.961 31.407 143.743 31.022 L 143.743 31.022 L 143.743 31.022 C 144.526 30.626 145.041 29.727 145.288 28.328 L 145.288 28.328 L 148.131 12.287 L 143.187 12.287 L 143.187 12.287 C 141.622 12.287 140.448 12.477 139.665 12.863 L 139.665 12.863 L 139.665 12.863 C 138.882 13.259 138.367 14.158 138.12 15.556 Z M 145.227 1.736 L 145.227 1.736 L 145.227 1.736 C 150.459 1.736 154.187 2.758 156.412 4.8 L 156.412 4.8 L 156.412 4.8 C 158.636 6.83 159.749 9.962 159.749 14.2 L 159.749 14.2 L 159.749 14.2 C 159.749 18.436 159.077 22.872 157.73 27.505 L 157.73 27.505 L 157.73 27.505 C 156.399 32.127 154.278 35.717 151.365 38.282 L 151.365 38.282 L 151.365 38.282 C 148.469 40.859 144.225 42.148 138.635 42.148 L 138.635 42.148 L 138.635 42.148 C 133.061 42.148 129.159 41.135 126.935 39.105 L 126.935 39.105 L 126.935 39.105 C 124.71 37.062 123.598 33.922 123.598 29.685 L 123.598 29.685 L 123.598 29.685 C 123.598 27.67 123.886 25.01 124.463 21.706 L 124.463 21.706 L 124.463 21.706 C 125.04 18.389 125.802 15.529 126.749 13.129 L 126.749 13.129 L 126.749 13.129 C 127.697 10.717 128.974 8.625 130.581 6.857 L 130.581 6.857 L 130.581 6.857 C 133.671 3.443 138.553 1.736 145.227 1.736 Z M 189.597 28.39 L 193.675 41.223 L 180.76 41.223 L 177.917 29.747 L 175.383 29.747 L 173.406 41.223 L 161.665 41.223 L 168.462 2.662 L 187.001 2.662 L 187.001 2.662 C 194.046 2.662 197.568 5.808 197.568 12.101 L 197.568 12.101 L 197.568 12.101 C 197.568 14.693 197.177 17.161 196.394 19.505 L 196.394 19.505 L 196.394 19.505 C 194.952 23.947 192.687 26.909 189.597 28.39 L 189.597 28.39 Z M 180.76 12.533 L 178.411 12.533 L 177.052 20.246 L 179.771 20.246 L 179.771 20.246 C 181.172 20.246 182.228 20.095 182.943 19.793 L 182.943 19.793 L 182.943 19.793 C 183.67 19.478 184.165 18.594 184.426 17.14 L 184.426 17.14 L 184.426 17.14 C 184.7 15.673 184.838 14.775 184.838 14.446 L 184.838 14.446 L 184.838 14.446 C 184.838 13.623 184.523 13.094 183.891 12.863 L 183.891 12.863 L 183.891 12.863 C 183.246 12.642 182.202 12.533 180.76 12.533 L 180.76 12.533 Z M 231.433 2.662 L 229.641 12.533 L 221.113 12.533 L 216.107 41.223 L 204.366 41.223 L 209.372 12.533 L 200.905 12.533 L 202.698 2.662 L 231.433 2.662 Z M 228.467 40.545 L 228.467 40.545 L 231.927 30.364 L 231.927 30.364 C 235.388 31.31 238.56 31.784 241.444 31.784 L 241.444 31.784 L 241.444 31.784 C 244.328 31.784 246.656 31.66 248.427 31.413 L 248.427 31.413 L 248.922 28.328 L 243.792 27.835 L 243.792 27.835 C 239.879 27.465 237.104 26.58 235.47 25.181 L 235.47 25.181 L 235.47 25.181 C 233.849 23.783 233.04 21.808 233.04 19.259 L 233.04 19.259 L 233.04 19.259 C 233.04 18.147 233.163 16.914 233.411 15.556 L 233.411 15.556 L 233.411 15.556 C 234.358 10.292 236.074 6.671 238.56 4.698 L 238.56 4.698 L 238.56 4.698 C 241.059 2.723 244.925 1.736 250.158 1.736 L 250.158 1.736 L 250.158 1.736 C 255.39 1.736 260.004 2.25 264 3.278 L 264 3.278 L 260.787 13.15 L 260.787 13.15 C 257.202 12.533 254.318 12.225 252.135 12.225 L 252.135 12.225 L 252.135 12.225 C 249.952 12.225 248.098 12.327 246.573 12.533 L 246.573 12.533 L 246.079 15.556 L 250.219 15.989 L 250.219 15.989 C 254.421 16.441 257.408 17.442 259.18 18.991 L 259.18 18.991 L 259.18 18.991 C 260.951 20.528 261.837 22.59 261.837 25.181 L 261.837 25.181 L 261.837 25.181 C 261.837 27.814 261.26 30.529 260.107 33.326 L 260.107 33.326 L 260.107 33.326 C 259.53 34.765 258.898 35.973 258.212 36.946 L 258.212 36.946 L 258.212 36.946 C 257.538 37.906 256.673 38.721 255.616 39.393 L 255.616 39.393 L 255.616 39.393 C 254.572 40.078 253.618 40.592 252.753 40.935 L 252.753 40.935 L 252.753 40.935 C 251.888 41.291 250.796 41.552 249.478 41.717 L 249.478 41.717 L 249.478 41.717 C 247.541 42.005 245.173 42.148 242.371 42.148 L 242.371 42.148 L 242.371 42.148 C 237.263 42.148 232.628 41.614 228.467 40.545 Z" style="white-space: pre; fill: rgb(255, 255, 255);"/>
  <path d="M 21.485 0 C 33.416 0 43.039 9.631 43.068 21.578 C 43.089 33.243 33.372 42.98 21.668 43 C 9.618 43.029 -0.008 33.356 0 21.247 C 0.006 9.681 9.793 0 21.485 0 Z M 21.979 11.813 C 21.979 12.698 21.93 13.298 22 13.884 C 22.037 14.204 22.191 14.604 22.432 14.79 C 24.356 16.231 26.303 17.629 28.264 19.014 C 28.476 19.162 28.843 19.22 29.092 19.148 C 30.208 18.845 31.321 18.512 32.41 18.117 C 32.678 18.018 33.004 17.664 33.026 17.403 C 33.238 15.242 33.407 13.072 33.543 10.902 C 33.556 10.626 33.393 10.238 33.175 10.069 C 31.972 9.08 30.754 8.119 29.496 7.209 C 29.246 7.032 28.752 6.989 28.455 7.102 C 26.983 7.673 25.574 8.431 24.074 8.918 C 22.447 9.448 21.413 10.211 21.979 11.813 Z M 21.017 12.147 C 21.017 11.639 20.974 11.128 21.032 10.62 C 21.087 10.055 20.898 9.774 20.358 9.553 C 18.399 8.755 16.467 7.886 14.5 7.087 C 14.224 6.974 13.764 7.009 13.529 7.172 C 12.285 8.056 11.068 8.973 9.885 9.935 C 9.659 10.119 9.476 10.542 9.496 10.839 C 9.644 13.008 9.865 15.17 10.028 17.34 C 10.063 17.819 10.283 18.009 10.722 18.145 C 11.725 18.442 12.716 18.758 13.7 19.127 C 14.189 19.309 14.535 19.22 14.932 18.921 C 16.333 17.87 17.699 16.759 19.192 15.855 C 20.648 14.951 21.485 13.913 21.017 12.147 Z M 38.227 24.851 C 38.155 24.715 38.085 24.531 37.972 24.389 C 36.514 22.666 35.063 20.935 33.57 19.234 C 33.422 19.063 33.018 18.985 32.785 19.049 C 31.667 19.346 30.556 19.684 29.467 20.066 C 29.197 20.159 28.9 20.447 28.808 20.71 C 28.037 22.977 27.294 25.26 26.579 27.548 C 26.494 27.818 26.558 28.219 26.713 28.46 C 27.351 29.42 28.029 30.368 28.752 31.271 C 28.906 31.47 29.318 31.611 29.566 31.555 C 31.115 31.23 32.629 30.713 34.194 30.508 C 35.955 30.282 36.967 29.519 37.278 27.725 C 37.455 26.765 37.894 25.852 38.227 24.851 Z M 9.885 18.851 C 9.737 18.993 9.546 19.141 9.391 19.318 C 7.976 20.928 6.546 22.538 5.166 24.186 C 4.968 24.426 4.868 24.906 4.96 25.21 C 5.356 26.594 5.803 27.958 6.305 29.307 C 6.419 29.605 6.773 29.945 7.076 30.02 C 9.156 30.566 11.251 31.033 13.332 31.561 C 13.791 31.674 14.046 31.619 14.316 31.216 C 14.932 30.305 15.624 29.442 16.226 28.524 C 16.397 28.262 16.496 27.839 16.411 27.548 C 15.717 25.28 14.973 23.035 14.23 20.78 C 14.16 20.574 14.075 20.264 13.919 20.209 C 12.617 19.748 11.301 19.324 9.885 18.851 Z M 14.726 32.254 C 15.979 34.303 17.175 36.282 18.42 38.23 C 18.591 38.5 19.015 38.747 19.332 38.762 C 20.797 38.817 22.27 38.811 23.742 38.768 C 24.018 38.762 24.399 38.564 24.542 38.329 C 25.716 36.472 26.863 34.592 27.973 32.692 C 28.101 32.481 28.072 32.042 27.93 31.831 C 27.294 30.862 26.614 29.931 25.893 29.019 C 25.716 28.799 25.347 28.623 25.059 28.616 C 22.679 28.588 20.308 28.588 17.931 28.616 C 17.649 28.623 17.274 28.793 17.103 29.011 C 16.283 30.064 15.525 31.152 14.726 32.254 Z M 38.594 10.012 C 35.842 6.126 32.417 3.512 27.945 1.993 C 28.278 2.843 28.604 3.498 28.808 4.191 C 29.176 5.468 29.912 6.417 31.024 7.151 C 31.986 7.787 32.849 8.572 33.776 9.263 C 34.038 9.461 34.357 9.652 34.668 9.687 C 35.9 9.828 37.138 9.898 38.594 10.012 Z M 4.742 9.774 C 7.133 9.898 9.348 9.675 11.068 7.816 C 11.373 7.49 11.748 7.209 12.137 6.997 C 14.046 5.95 14.09 3.887 15.017 2.15 C 11.64 2.828 6.41 6.748 4.742 9.774 Z M 42.077 22.582 C 38.495 24.461 36.571 30.502 38.155 33.583 C 40.541 30.29 41.808 26.673 42.077 22.582 Z M 1.084 22.588 C 1.246 26.594 2.476 30.197 4.841 33.499 C 5.739 30.989 5.683 30.496 4.033 25.515 C 3.545 24.044 2.052 23.6 1.084 22.588 Z M 26.925 41.312 C 24.725 38.889 17.429 39.327 15.944 41.269 C 19.608 42.272 23.24 42.301 26.925 41.312 Z" fill="white" style=""/>
</svg>