<?xml version="1.0" encoding="utf-8"?>
<svg version="1.1" id="Warstwa_1" x="0px" y="0px" viewBox="0 0 200 40" xmlns="http://www.w3.org/2000/svg">
  <path d="M 32.081 20.01 C 32.081 23.896 32.025 27.782 32.111 31.663 C 32.147 33.225 30.621 35.005 28.77 35 C 21.099 34.974 13.434 34.99 5.763 34.99 C 3.607 34.99 2.132 33.525 2.127 31.353 C 2.116 28.83 2.127 26.307 2.127 23.784 C 2.127 18.738 2.122 13.693 2.127 8.652 C 2.127 6.877 3.185 5.483 4.807 5.107 C 5.102 5.036 5.412 5.025 5.713 5.025 C 13.342 5.02 20.967 5.051 28.597 5 C 30.356 4.99 32.177 6.521 32.116 8.545 C 31.999 12.355 32.081 16.185 32.081 20.01 Z M 3.617 20.005 C 3.617 23.789 3.617 27.574 3.617 31.358 C 3.617 32.762 4.395 33.566 5.799 33.571 C 13.368 33.576 20.936 33.576 28.505 33.571 C 29.899 33.571 30.687 32.757 30.687 31.358 C 30.692 23.789 30.692 16.221 30.687 8.652 C 30.687 7.248 29.909 6.445 28.5 6.445 C 20.931 6.439 13.363 6.439 5.794 6.445 C 4.385 6.445 3.617 7.243 3.617 8.652 C 3.617 12.436 3.617 16.221 3.617 20.005 Z" style="fill: rgb(204, 204, 204);"/>
  <path d="M 9.721 10.153 C 9.721 10.458 9.721 10.763 9.721 11.063 C 9.721 11.836 9.197 12.187 8.48 11.867 C 8.363 11.816 8.261 11.582 8.256 11.434 C 8.235 10.585 8.256 9.73 8.241 8.881 C 8.23 8.265 8.673 8.418 9.009 8.413 C 9.334 8.408 9.741 8.301 9.716 8.871 C 9.705 9.303 9.721 9.73 9.721 10.153 C 9.721 10.153 9.721 10.153 9.721 10.153 Z" style="fill: rgb(204, 204, 204);"/>
  <path d="M 28.77 10.137 C 28.77 10.544 28.739 10.951 28.775 11.358 C 28.825 11.928 28.469 11.928 28.078 11.907 C 27.722 11.887 27.259 12.055 27.274 11.399 C 27.294 10.565 27.289 9.73 27.279 8.896 C 27.269 8.23 27.757 8.443 28.098 8.418 C 28.454 8.388 28.81 8.372 28.77 8.922 C 28.744 9.323 28.77 9.73 28.77 10.137 Z" style="fill: rgb(204, 204, 204);"/>
  <path d="M 13.703 9.766 C 13.703 9.563 13.734 9.354 13.698 9.161 C 13.586 8.505 13.907 8.393 14.487 8.393 C 15.021 8.393 15.219 8.555 15.184 9.084 C 15.148 9.608 15.153 10.137 15.178 10.666 C 15.209 11.353 14.721 11.175 14.349 11.2 C 13.978 11.221 13.647 11.211 13.703 10.682 C 13.734 10.376 13.708 10.071 13.703 9.766 Z" style="fill: rgb(204, 204, 204);"/>
  <path d="M 7.015 9.491 C 7.015 9.573 7.015 9.654 7.015 9.735 C 7.01 10.458 6.364 10.844 5.728 10.493 C 5.652 10.453 5.565 10.346 5.56 10.27 C 5.545 9.746 5.535 9.217 5.565 8.693 C 5.57 8.596 5.758 8.449 5.886 8.428 C 6.882 8.24 7.015 8.372 7.015 9.491 Z" style="fill: rgb(204, 204, 204);"/>
  <path d="M 26.064 9.486 C 26.064 9.527 26.064 9.568 26.064 9.608 C 26.064 10.549 25.809 10.824 24.914 10.509 C 24.141 10.239 24.731 9.451 24.583 8.917 C 24.507 8.637 24.609 8.433 24.985 8.408 C 26.043 8.337 26.064 8.337 26.064 9.486 Z" style="fill: rgb(204, 204, 204);"/>
  <path d="M 20.601 9.476 C 20.601 9.557 20.601 9.639 20.601 9.72 C 20.601 10.478 19.985 10.926 19.385 10.473 C 19.1 10.254 19.161 9.537 19.131 9.044 C 19.12 8.845 19.237 8.494 19.365 8.459 C 19.685 8.377 20.046 8.413 20.382 8.449 C 20.463 8.459 20.57 8.642 20.58 8.754 C 20.611 8.993 20.59 9.237 20.59 9.481 C 20.596 9.476 20.601 9.476 20.601 9.476 Z" style="fill: rgb(204, 204, 204);"/>
  <path d="M 17.874 14.583 C 18.032 15.239 17.661 15.305 17.127 15.325 C 16.511 15.351 16.394 15.102 16.384 14.542 C 16.374 13.927 16.608 13.805 17.167 13.8 C 17.762 13.8 18.012 13.983 17.874 14.583 Z" style="fill: rgb(204, 204, 204);"/>
  <path d="M 28.754 19.384 C 28.917 20.081 28.464 20.046 27.976 20.081 C 27.31 20.127 27.3 19.776 27.269 19.267 C 27.228 18.591 27.584 18.591 28.088 18.566 C 28.749 18.525 28.846 18.85 28.754 19.384 Z" style="fill: rgb(204, 204, 204);"/>
  <path d="M 17.142 29.471 C 17.757 29.328 17.9 29.618 17.91 30.193 C 17.92 30.778 17.737 30.961 17.147 30.961 C 16.567 30.961 16.369 30.793 16.384 30.198 C 16.399 29.634 16.516 29.328 17.142 29.471 Z" style="fill: rgb(204, 204, 204);"/>
  <path d="M 28.078 22.014 C 28.79 21.836 28.749 22.284 28.785 22.777 C 28.836 23.438 28.49 23.464 27.981 23.489 C 27.33 23.52 27.289 23.194 27.264 22.675 C 27.233 22.014 27.549 21.907 28.078 22.014 Z" style="fill: rgb(204, 204, 204);"/>
  <path d="M 20.677 21.231 C 20.585 21.856 20.657 22.421 20.412 22.686 C 20.229 22.884 19.517 22.838 19.253 22.63 C 19.049 22.467 19.019 21.673 19.197 21.541 C 19.522 21.297 20.056 21.338 20.677 21.231 Z" style="fill: rgb(204, 204, 204);"/>
  <path d="M 24.594 17.92 C 24.405 17.228 24.838 17.243 25.341 17.213 C 25.967 17.172 26.064 17.447 26.079 17.996 C 26.099 18.637 25.804 18.713 25.275 18.728 C 24.66 18.744 24.461 18.505 24.594 17.92 Z" style="fill: rgb(204, 204, 204);"/>
  <path d="M 25.239 13.23 C 24.563 13.403 24.594 12.965 24.558 12.472 C 24.502 11.801 24.868 11.801 25.362 11.77 C 25.992 11.734 26.064 12.035 26.084 12.569 C 26.109 13.24 25.774 13.316 25.239 13.23 Z" style="fill: rgb(204, 204, 204);"/>
  <path d="M 13.622 22.157 C 13.724 21.551 13.668 21.007 13.912 20.717 C 14.075 20.529 14.858 20.549 15.021 20.753 C 15.229 21.012 15.27 21.75 15.072 21.918 C 14.792 22.162 14.227 22.08 13.622 22.157 Z" style="fill: rgb(204, 204, 204);"/>
  <path d="M 20.687 11.979 C 20.585 12.396 20.601 12.935 20.341 13.184 C 20.153 13.367 19.446 13.311 19.248 13.098 C 19.044 12.884 19.024 12.126 19.202 11.999 C 19.538 11.765 20.072 11.811 20.519 11.74 C 20.575 11.821 20.631 11.902 20.687 11.979 Z" style="fill: rgb(204, 204, 204);"/>
  <path d="M 19.899 19.339 C 19.268 19.491 19.105 19.222 19.1 18.642 C 19.095 18.057 19.278 17.869 19.863 17.874 C 20.438 17.874 20.646 18.031 20.621 18.632 C 20.596 19.171 20.535 19.532 19.899 19.339 Z" style="fill: rgb(204, 204, 204);"/>
  <path d="M 24.482 22.177 C 24.588 21.546 24.522 20.982 24.777 20.722 C 24.965 20.529 25.682 20.58 25.936 20.793 C 26.14 20.961 26.155 21.76 25.977 21.887 C 25.641 22.126 25.107 22.08 24.482 22.177 Z" style="fill: rgb(204, 204, 204);"/>
  <path d="M 14.41 19.344 C 13.759 19.527 13.714 19.15 13.688 18.627 C 13.658 18.026 13.876 17.879 14.446 17.874 C 15.041 17.869 15.199 18.082 15.194 18.647 C 15.189 19.227 15.021 19.496 14.41 19.344 Z" style="fill: rgb(204, 204, 204);"/>
  <path d="M 9.705 24.14 C 9.863 24.822 9.431 24.812 8.937 24.842 C 8.276 24.883 8.261 24.532 8.23 24.028 C 8.195 23.367 8.53 23.347 9.039 23.321 C 9.7 23.291 9.797 23.616 9.705 24.14 Z" style="fill: rgb(204, 204, 204);"/>
  <path d="M 24.573 25.351 C 24.426 24.812 24.741 24.664 25.301 24.69 C 26.048 24.72 26.028 24.715 26.074 25.488 C 26.114 26.119 25.83 26.231 25.285 26.205 C 24.573 26.16 24.573 26.185 24.573 25.351 Z" style="fill: rgb(204, 204, 204);"/>
  <path d="M 19.878 25.427 C 20.504 25.259 20.601 25.58 20.621 26.134 C 20.641 26.729 20.438 26.887 19.868 26.887 C 19.293 26.887 19.095 26.719 19.1 26.129 C 19.105 25.549 19.263 25.275 19.878 25.427 Z" style="fill: rgb(204, 204, 204);"/>
  <path d="M 6.226 30.926 C 5.55 31.093 5.55 30.676 5.519 30.173 C 5.479 29.547 5.753 29.456 6.298 29.44 C 6.928 29.425 7.01 29.705 7.025 30.239 C 7.045 30.849 6.806 31.043 6.226 30.926 Z" style="fill: rgb(204, 204, 204);"/>
  <path d="M 9.7 16.612 C 9.878 17.279 9.502 17.345 8.968 17.36 C 8.419 17.37 8.23 17.192 8.23 16.628 C 8.23 16.053 8.383 15.839 8.983 15.86 C 9.533 15.885 9.873 15.971 9.7 16.612 Z" style="fill: rgb(204, 204, 204);"/>
  <path d="M 28.057 15.9 C 28.703 15.722 28.759 16.094 28.785 16.623 C 28.815 17.248 28.551 17.35 28.012 17.36 C 27.417 17.375 27.269 17.152 27.264 16.587 C 27.259 15.987 27.472 15.773 28.057 15.9 Z" style="fill: rgb(204, 204, 204);"/>
  <path d="M 17.111 17.986 C 16.425 18.164 16.425 17.747 16.389 17.243 C 16.343 16.587 16.684 16.556 17.188 16.536 C 17.813 16.506 17.895 16.79 17.91 17.324 C 17.93 17.976 17.645 18.098 17.111 17.986 Z" style="fill: rgb(204, 204, 204);"/>
  <path d="M 6.272 19.344 C 5.646 19.507 5.529 19.196 5.519 18.642 C 5.509 18.062 5.682 17.874 6.267 17.874 C 6.842 17.874 7.04 18.052 7.025 18.637 C 7.015 19.186 6.903 19.512 6.272 19.344 Z" style="fill: rgb(204, 204, 204);"/>
  <path d="M 14.405 16.648 C 13.729 16.826 13.719 16.419 13.693 15.905 C 13.663 15.3 13.881 15.163 14.456 15.153 C 15.077 15.142 15.194 15.397 15.194 15.946 C 15.194 16.526 15.011 16.79 14.405 16.648 Z" style="fill: rgb(204, 204, 204);"/>
  <path d="M 6.994 22.029 C 7.127 22.619 6.867 22.808 6.282 22.787 C 5.789 22.772 5.484 22.731 5.524 22.101 C 5.575 21.327 5.55 21.327 6.292 21.302 C 6.821 21.282 7.122 21.424 6.994 22.029 Z" style="fill: rgb(204, 204, 204);"/>
  <path d="M 17.874 23.438 C 18.047 24.12 17.62 24.11 17.116 24.145 C 16.491 24.186 16.399 23.916 16.384 23.367 C 16.364 22.731 16.648 22.65 17.177 22.64 C 17.783 22.625 18.001 22.848 17.874 23.438 Z" style="fill: rgb(204, 204, 204);"/>
  <path d="M 16.425 11.826 C 16.247 11.165 16.638 11.129 17.162 11.104 C 17.757 11.078 17.905 11.287 17.915 11.862 C 17.925 12.477 17.681 12.604 17.132 12.604 C 16.562 12.599 16.277 12.441 16.425 11.826 Z" style="fill: rgb(204, 204, 204);"/>
  <path d="M 6.247 13.23 C 5.585 13.403 5.555 13.016 5.519 12.492 C 5.479 11.841 5.799 11.79 6.318 11.775 C 6.898 11.76 7.02 11.999 7.03 12.528 C 7.035 13.113 6.852 13.372 6.247 13.23 Z" style="fill: rgb(204, 204, 204);"/>
  <path d="M 6.277 25.432 C 6.959 25.249 7.005 25.636 7.03 26.16 C 7.055 26.734 6.827 26.877 6.287 26.882 C 5.718 26.887 5.504 26.729 5.519 26.124 C 5.535 25.554 5.667 25.264 6.277 25.432 Z" style="fill: rgb(204, 204, 204);"/>
  <path d="M 9.7 13.896 C 9.873 14.547 9.502 14.598 8.973 14.618 C 8.373 14.644 8.235 14.42 8.225 13.855 C 8.215 13.25 8.444 13.108 8.998 13.108 C 9.583 13.118 9.843 13.296 9.7 13.896 Z" style="fill: rgb(204, 204, 204);"/>
  <path d="M 17.096 27.508 C 16.394 27.686 16.425 27.243 16.389 26.755 C 16.333 26.078 16.715 26.088 17.198 26.058 C 17.839 26.017 17.884 26.338 17.91 26.856 C 17.94 27.528 17.615 27.609 17.096 27.508 Z" style="fill: rgb(204, 204, 204);"/>
  <path d="M 28.001 27.513 C 27.34 27.686 27.289 27.304 27.269 26.775 C 27.244 26.18 27.498 26.068 28.022 26.058 C 28.591 26.048 28.8 26.205 28.795 26.811 C 28.78 27.411 28.602 27.65 28.001 27.513 Z" style="fill: rgb(204, 204, 204);"/>
  <path d="M 28.749 13.896 C 28.927 14.547 28.551 14.603 28.022 14.624 C 27.432 14.649 27.269 14.446 27.264 13.866 C 27.259 13.255 27.483 13.113 28.042 13.118 C 28.612 13.118 28.902 13.271 28.749 13.896 Z" style="fill: rgb(204, 204, 204);"/>
  <path d="M 14.482 12.487 C 15.168 12.324 15.153 12.762 15.184 13.255 C 15.229 13.901 14.899 13.947 14.38 13.972 C 13.719 14.003 13.714 13.667 13.683 13.164 C 13.653 12.508 13.948 12.385 14.482 12.487 Z" style="fill: rgb(204, 204, 204);"/>
  <path d="M 28.073 30.178 C 28.739 29.995 28.754 30.402 28.79 30.915 C 28.831 31.546 28.541 31.633 28.007 31.648 C 27.391 31.663 27.279 31.409 27.269 30.86 C 27.254 30.234 27.493 30.051 28.073 30.178 Z" style="fill: rgb(204, 204, 204);"/>
  <path d="M 22.6 17.986 C 21.943 18.164 21.872 17.813 21.847 17.274 C 21.816 16.648 22.076 16.551 22.62 16.536 C 23.266 16.516 23.317 16.821 23.327 17.34 C 23.342 17.914 23.159 18.138 22.6 17.986 Z" style="fill: rgb(204, 204, 204);"/>
  <path d="M 23.408 13.352 C 22.762 13.235 22.218 13.276 21.938 13.031 C 21.75 12.869 21.786 12.131 21.989 11.928 C 22.198 11.719 22.935 11.689 23.098 11.877 C 23.342 12.157 23.296 12.701 23.408 13.352 Z" style="fill: rgb(204, 204, 204);"/>
  <path d="M 12.498 12.65 C 11.903 12.558 11.364 12.619 11.074 12.38 C 10.88 12.218 10.891 11.45 11.094 11.277 C 11.338 11.063 12.076 11.012 12.244 11.2 C 12.488 11.48 12.417 12.035 12.498 12.65 Z" style="fill: rgb(204, 204, 204);"/>
  <path d="M 19.894 15.941 C 19.288 16.083 19.095 15.839 19.1 15.244 C 19.105 14.7 19.253 14.496 19.828 14.517 C 20.346 14.532 20.662 14.562 20.621 15.224 C 20.585 15.753 20.54 16.119 19.894 15.941 Z" style="fill: rgb(204, 204, 204);"/>
  <path d="M 12.518 21.246 C 12.411 21.867 12.462 22.406 12.218 22.701 C 12.066 22.884 11.318 22.843 11.114 22.635 C 10.911 22.421 10.886 21.678 11.074 21.526 C 11.369 21.282 11.908 21.338 12.518 21.246 Z" style="fill: rgb(204, 204, 204);"/>
  <path d="M 17.137 8.433 C 17.757 8.286 17.895 8.571 17.91 9.14 C 17.93 9.781 17.651 9.858 17.116 9.858 C 16.572 9.863 16.374 9.715 16.384 9.14 C 16.399 8.586 16.516 8.271 17.137 8.433 Z" style="fill: rgb(204, 204, 204);"/>
  <path d="M 12.508 17.843 C 12.411 18.454 12.467 18.993 12.228 19.293 C 12.081 19.476 11.292 19.451 11.13 19.247 C 10.921 18.988 10.886 18.271 11.084 18.087 C 11.353 17.843 11.918 17.925 12.508 17.843 Z" style="fill: rgb(204, 204, 204);"/>
  <path d="M 15.24 23.942 C 15.143 24.573 15.219 25.132 14.97 25.397 C 14.787 25.595 14.105 25.534 13.81 25.341 C 13.627 25.219 13.592 24.425 13.759 24.303 C 14.09 24.054 14.609 24.074 15.24 23.942 Z" style="fill: rgb(204, 204, 204);"/>
  <path d="M 25.285 14.552 C 25.885 14.41 26.089 14.644 26.079 15.249 C 26.074 15.799 25.926 16.002 25.351 15.982 C 24.838 15.966 24.512 15.941 24.553 15.275 C 24.583 14.735 24.634 14.369 25.285 14.552 Z" style="fill: rgb(204, 204, 204);"/>
  <path d="M 11.73 25.427 C 12.406 25.244 12.427 25.641 12.447 26.155 C 12.472 26.714 12.284 26.882 11.735 26.882 C 11.16 26.887 10.962 26.719 10.982 26.129 C 10.997 25.58 11.094 25.259 11.73 25.427 Z" style="fill: rgb(204, 204, 204);"/>
  <path d="M 6.221 15.941 C 5.54 16.124 5.56 15.692 5.519 15.193 C 5.468 14.507 5.855 14.547 6.333 14.512 C 6.949 14.466 6.999 14.766 7.025 15.264 C 7.055 15.89 6.786 16.058 6.221 15.941 Z" style="fill: rgb(204, 204, 204);"/>
  <path d="M 9.7 20.046 C 9.878 20.748 9.426 20.702 8.937 20.737 C 8.347 20.778 8.246 20.524 8.225 20.005 C 8.205 19.39 8.449 19.278 9.004 19.278 C 9.599 19.267 9.843 19.451 9.7 20.046 Z" style="fill: rgb(204, 204, 204);"/>
  <path d="M 17.106 20.702 C 16.44 20.885 16.425 20.478 16.389 19.964 C 16.343 19.278 16.72 19.308 17.208 19.278 C 17.808 19.242 17.895 19.501 17.915 20.02 C 17.93 20.641 17.681 20.824 17.106 20.702 Z" style="fill: rgb(204, 204, 204);"/>
  <path d="M 25.27 30.208 C 24.614 30.392 24.588 30.005 24.553 29.481 C 24.502 28.794 24.878 28.825 25.362 28.794 C 25.947 28.759 26.064 28.998 26.079 29.527 C 26.094 30.152 25.845 30.331 25.27 30.208 Z" style="fill: rgb(204, 204, 204);"/>
  <path d="M 12.493 31.577 C 11.938 31.577 11.506 31.577 10.952 31.577 C 11.018 31.078 10.962 30.559 11.181 30.229 C 11.298 30.051 12.106 30.046 12.233 30.229 C 12.462 30.544 12.417 31.068 12.493 31.577 Z" style="fill: rgb(204, 204, 204);"/>
  <path d="M 11.679 9.847 C 11.226 9.939 10.941 9.796 10.982 9.156 C 11.008 8.667 11.028 8.362 11.659 8.393 C 12.177 8.418 12.498 8.443 12.442 9.105 C 12.386 9.837 12.432 9.842 11.679 9.847 Z" style="fill: rgb(204, 204, 204);"/>
  <path d="M 12.411 15.3 C 12.574 15.956 12.167 15.941 11.689 15.982 C 11.038 16.032 11.002 15.722 10.977 15.198 C 10.947 14.568 11.247 14.547 11.735 14.522 C 12.376 14.476 12.528 14.751 12.411 15.3 Z" style="fill: rgb(204, 204, 204);"/>
  <path d="M 22.579 8.438 C 23.21 8.271 23.307 8.591 23.327 9.14 C 23.352 9.756 23.108 9.863 22.559 9.868 C 22.005 9.868 21.832 9.71 21.847 9.151 C 21.862 8.611 21.933 8.26 22.579 8.438 Z" style="fill: rgb(204, 204, 204);"/>
  <path d="M 38.016 29.37 L 39.696 24.42 C 41.376 24.88 42.916 25.11 44.316 25.11 C 45.716 25.11 46.846 25.05 47.706 24.93 L 47.946 23.43 L 45.456 23.19 C 43.556 23.01 42.211 22.58 41.421 21.9 C 40.631 21.22 40.236 20.26 40.236 19.02 C 40.236 18.48 40.296 17.88 40.416 17.22 C 40.876 14.66 41.711 12.9 42.921 11.94 C 44.131 10.98 46.006 10.5 48.546 10.5 C 51.086 10.5 53.326 10.75 55.266 11.25 L 53.706 16.05 C 51.966 15.75 50.566 15.6 49.506 15.6 C 48.446 15.6 47.546 15.65 46.806 15.75 L 46.566 17.22 L 48.576 17.43 C 50.616 17.65 52.066 18.135 52.926 18.885 C 53.786 19.635 54.216 20.64 54.216 21.9 C 54.216 23.18 53.936 24.5 53.376 25.86 C 53.096 26.56 52.791 27.145 52.461 27.615 C 52.131 28.085 51.711 28.485 51.201 28.815 C 50.691 29.145 50.226 29.395 49.806 29.565 C 49.386 29.735 48.856 29.86 48.216 29.94 C 47.276 30.08 46.126 30.15 44.766 30.15 C 42.286 30.15 40.036 29.89 38.016 29.37 Z M 55.565 29.7 L 58.865 10.95 L 64.565 10.95 L 61.265 29.7 Z M 70.205 29.7 L 64.265 29.7 L 68.645 10.95 L 76.085 10.95 L 76.625 20.49 L 76.835 20.49 L 80.735 10.95 L 88.175 10.95 L 85.955 29.7 L 79.985 29.7 L 81.245 20.61 L 81.035 20.61 L 77.285 29.7 L 72.935 29.7 L 72.305 20.61 L 72.155 20.61 Z M 97.713 10.95 L 95.223 25.02 L 97.263 25.02 C 97.963 25.02 98.463 24.925 98.763 24.735 C 99.063 24.545 99.273 24.11 99.393 23.43 L 101.613 10.95 L 107.313 10.95 L 105.453 21.48 C 105.153 23.18 104.808 24.55 104.418 25.59 C 104.028 26.63 103.483 27.51 102.783 28.23 C 102.083 28.95 101.218 29.45 100.188 29.73 C 99.158 30.01 97.853 30.15 96.273 30.15 C 93.853 30.15 92.158 29.785 91.188 29.055 C 90.218 28.325 89.733 27.07 89.733 25.29 C 89.733 24.31 89.873 23.04 90.153 21.48 L 92.013 10.95 Z M 118.742 29.7 L 107.342 29.7 L 110.642 10.95 L 116.342 10.95 L 113.882 24.9 L 119.582 24.9 Z M 122.881 29.7 L 116.881 29.7 L 124.771 10.95 L 133.591 10.95 L 134.911 29.7 L 128.881 29.7 L 128.761 26.73 L 124.051 26.73 Z M 128.011 16.71 L 125.911 21.96 L 128.311 21.96 L 128.311 16.71 Z M 150.87 15.75 L 146.73 15.75 L 144.3 29.7 L 138.6 29.7 L 141.03 15.75 L 136.92 15.75 L 137.79 10.95 L 151.74 10.95 Z M 150.6 29.7 L 153.9 10.95 L 159.6 10.95 L 156.3 29.7 Z M 167.309 17.22 L 165.929 25.02 L 168.299 25.02 C 169.079 25.02 169.659 24.925 170.039 24.735 C 170.419 24.545 170.669 24.11 170.789 23.43 L 172.169 15.63 L 169.769 15.63 C 169.009 15.63 168.439 15.725 168.059 15.915 C 167.679 16.105 167.429 16.54 167.309 17.22 Z M 170.759 10.5 C 173.299 10.5 175.109 10.995 176.189 11.985 C 177.269 12.975 177.809 14.5 177.809 16.56 C 177.809 18.62 177.484 20.775 176.834 23.025 C 176.184 25.275 175.154 27.025 173.744 28.275 C 172.334 29.525 170.274 30.15 167.564 30.15 C 164.854 30.15 162.959 29.655 161.879 28.665 C 160.799 27.675 160.259 26.15 160.259 24.09 C 160.259 23.11 160.399 21.815 160.679 20.205 C 160.959 18.595 161.329 17.205 161.789 16.035 C 162.249 14.865 162.869 13.85 163.649 12.99 C 165.149 11.33 167.519 10.5 170.759 10.5 Z M 189.208 29.7 L 186.148 23.04 C 186.068 22.9 186.028 22.705 186.028 22.455 C 186.028 22.205 186.048 21.92 186.088 21.6 L 185.848 21.6 L 184.438 29.7 L 178.738 29.7 L 182.038 10.95 L 187.408 10.95 L 190.468 17.61 C 190.528 17.75 190.558 17.945 190.558 18.195 C 190.558 18.445 190.538 18.73 190.498 19.05 L 190.738 19.05 L 192.178 10.95 L 197.878 10.95 L 194.578 29.7 Z" style="white-space: pre; fill: rgb(255, 255, 255);"/>
</svg>