<?xml version="1.0" encoding="utf-8"?>
<!-- Made by Szalik  -->
<svg version="1.1" id="casino" xmlns="http://www.w3.org/2000/svg" xmlns:xlink="http://www.w3.org/1999/xlink" x="0px" y="0px" style="enable-background:new 0 0 500 500;" xml:space="preserve">
<g>
	<g>
		<path d="M132.87,227.91c0.33-0.23,0.58-0.41,0.85-0.57c0.67-0.42,1.39-0.55,2.18-0.39c5,1.01,10.01,1.99,15.02,3.01
			c2.7,0.55,5.39,1.13,8.08,1.69c0.31,0.07,0.62,0.15,0.93,0.23c1.68,0.47,2.46,1.69,2.12,3.43c-0.68,3.56-1.39,7.11-2.1,10.67
			c-0.98,4.92-1.97,9.84-2.94,14.76c-0.06,0.31-0.06,0.63-0.1,1.06c0.64,0.36,1.3,0.71,1.95,1.09c0.76,0.44,1.52,0.88,2.25,1.37
			c0.63,0.42,0.96,1.02,0.97,1.82c0.02,3.48,0.08,6.95,0.12,10.43c0,0.24-0.03,0.48-0.05,0.72c-0.16,1.82-0.66,1.92-2.03,2.16
			c-2.35,0.42-4.73,0.7-7.1,1.02c-0.91,0.12-1.84,0.15-2.73,0.33c-0.75,0.15-1.43,0.06-2.08-0.27c-2.06-1.05-4.1-2.13-6.16-3.2
			c-0.76-0.39-1.09-1.03-1.11-1.85c-0.02-0.96-0.01-1.91-0.01-3.07c-0.43,0.23-0.7,0.35-0.93,0.51c-0.95,0.67-1.87,1.37-2.83,2.02
			c-0.63,0.43-1.3,0.67-2.12,0.64c-1.8-0.06-3.6,0.02-5.4,0.03c-0.36,0-0.72-0.01-1.08-0.03c-0.9-0.04-1.56-0.38-2.01-1.23
			c-1.1-2.08-2.28-4.11-3.42-6.17c-0.17-0.31-0.36-0.6-0.54-0.9c-1.71,0.53-3.34,1.04-4.98,1.53c-1.07,0.33-2.08,0.24-2.86-0.63
			c-0.33-0.37-0.58-0.86-0.75-1.33c-1.49-4.24-2.98-8.49-4.42-12.75c-2.17-6.41-4.3-12.83-6.45-19.25
			c-0.28-0.83-0.54-1.67-0.76-2.52c-0.34-1.34,0.19-2.57,1.41-3.24c0.41-0.23,0.88-0.38,1.33-0.53c7.3-2.44,14.6-4.86,21.89-7.31
			c0.87-0.29,1.69-0.36,2.55,0.02c0.92,0.41,1.4,1.16,1.72,2.04C131.79,224.77,132.3,226.28,132.87,227.91z M132.2,232.94
			c-0.06-0.19-0.13-0.42-0.21-0.64c-0.88-2.56-1.75-5.12-2.63-7.68c-0.21-0.6-0.41-1.22-1.15-1.51c-0.29,0.09-0.63,0.19-0.97,0.31
			c-4.08,1.36-8.17,2.7-12.25,4.08c-3.13,1.06-6.25,2.16-9.37,3.25c-0.48,0.17-1.02,0.3-1.13,0.97c0.1,0.31,0.21,0.65,0.32,0.99
			c3.02,9.1,6.04,18.2,9.07,27.3c0.64,1.92,1.3,3.84,1.99,5.75c0.3,0.84,0.6,1.01,1.45,0.76c1.37-0.4,2.71-0.87,4.11-1.32
			c-0.28-0.65-0.52-1.19-0.7-1.62c0.19-1.06,0.9-1.55,1.55-2.07c1.22-0.97,2.47-1.9,3.69-2.86c0.53-0.42,1.02-0.85,1.17-1.59
			c0.96-4.68,1.94-9.36,2.93-14.03C130.78,239.67,131.49,236.32,132.2,232.94z M135.38,229.05c-0.68,0.25-0.85,0.74-0.96,1.25
			c-0.32,1.44-0.64,2.88-0.94,4.32c-1.35,6.64-2.69,13.28-4.03,19.91c-0.1,0.51-0.16,1.04-0.29,1.81c0.99-0.8,1.81-1.37,2.86-1.37
			c2.61,0,5.23-0.26,7.94,0.12c-0.21-0.28-0.37-0.5-0.53-0.72c-1.04-1.37-2.03-2.77-2.49-4.46c-0.31-1.13-0.42-2.31-0.01-3.42
			c1.04-2.77,4.64-3.32,6.54-1.05c0.23,0.27,0.43,0.57,0.67,0.89c0.33-0.19,0.63-0.38,0.95-0.54c1.4-0.73,3.11-0.55,4.26,0.45
			c1.3,1.12,1.69,2.58,1.16,4.21c-0.37,1.13-1.07,2.05-1.93,2.83c-1.92,1.74-4.16,2.93-6.55,3.85c-0.29-0.24-0.55-0.46-0.8-0.67
			c-0.04,0.04-0.09,0.07-0.13,0.11c0.95,1.71,1.89,3.43,2.86,5.17c1.36-0.21,2.61-0.4,3.85-0.59c-0.21-2.31,1.56-2.78,2.95-3.62
			c1.01,0.78,1.6,1.76,2.03,2.88c0.64,0,1.26,0,1.85,0c0.07-0.14,0.12-0.2,0.14-0.27c0.82-3.98,1.64-7.96,2.45-11.94
			c0.84-4.14,1.66-8.28,2.48-12.42c0.09-0.46,0.11-0.93,0.17-1.47c-0.44-0.17-0.79-0.36-1.16-0.45c-1.91-0.43-3.82-0.84-5.73-1.23
			C147.11,231.44,141.25,230.25,135.38,229.05z M149.78,267.36c-0.49,4.06,0.09,8.04-0.14,12.01c1.37,0.22,9.85-0.93,11.18-1.52
			c0.05-0.47,0.16-0.98,0.16-1.49c0.02-3.16,0.02-6.32,0.03-9.47c0-0.4-0.01-0.81-0.47-1.06
			C156.97,266.24,153.38,266.67,149.78,267.36z M139.6,256.5c-3.17,2.28-6.21,4.32-9,6.64c0.91,2.36,5.13,10,5.95,10.75
			c1.43-1.04,2.87-2.1,4.33-3.16c0-2.62,0-5.17,0-7.82c0.55-0.36,1.1-0.73,1.74-1.15C141.63,260.05,140.65,258.34,139.6,256.5z
			 M123.02,262.39c2.16,0,4.06,0.03,5.96-0.02c0.36-0.01,0.74-0.26,1.05-0.49c2.37-1.69,4.73-3.4,7.08-5.11
			c0.2-0.15,0.38-0.33,0.7-0.61c-1.94,0-3.69,0.02-5.44-0.01c-0.68-0.01-1.23,0.21-1.76,0.6c-1.56,1.17-3.14,2.32-4.71,3.49
			C125,260.9,124.12,261.57,123.02,262.39z M159.27,264.77c0-0.09,0.01-0.18,0.01-0.28c-1.43-0.77-2.88-1.52-4.29-2.34
			c-0.85-0.49-1.73-0.52-2.66-0.39c-1.58,0.23-3.16,0.43-4.74,0.66c-1.28,0.18-2.55,0.38-4.08,0.6c0.38,0.25,0.52,0.36,0.68,0.45
			c1.22,0.67,2.46,1.32,3.67,2.03c0.81,0.48,1.63,0.55,2.53,0.41c0.98-0.15,1.98-0.26,2.96-0.39
			C155.33,265.27,157.3,265.02,159.27,264.77z M142.89,266.42c-0.78,0.82-0.68,1.36,0.28,1.91
			C143.73,267.47,143.69,267.12,142.89,266.42z M146.98,270.33c0.64-0.9,0.55-1.42-0.28-1.9C146,269.2,146.04,269.55,146.98,270.33z
			 M124.18,265.52c-0.13,0.27-0.33,0.49-0.29,0.65c0.16,0.59,0.55,1,1.15,1.17C125.58,266.55,125.47,266.3,124.18,265.52z
			 M145.17,272.77c0.47-1.06,0.43-1.21-0.43-1.86C144.02,271.76,144.12,272.23,145.17,272.77z M142.86,273.48
			c-0.74,0.79-0.66,1.25,0.3,1.87C143.76,274.52,143.68,274.05,142.86,273.48z M133.17,273.04c-0.08-0.69-0.43-1.09-0.97-1.27
			c-0.18-0.06-0.44,0.11-0.68,0.19C132.08,273.28,132.18,273.34,133.17,273.04z M147.23,277.21c0.25-0.69,0.31-1.33-0.47-1.83
			c-0.47,0.28-0.67,0.64-0.47,1.17C146.44,276.97,146.59,277.39,147.23,277.21z" fill="white"/>
		<path d="M241.18,246.25c-2.03,0.27-3.91,0.51-5.87,0.77c-0.04-0.42-0.06-0.77-0.11-1.11c-0.1-0.68-0.41-0.98-1.09-1.07
			c-0.24-0.03-0.48-0.03-0.72-0.03c-2.68,0-5.36,0-8.04,0c-0.12,0-0.24,0-0.36,0c-0.97,0.06-1.42,0.49-1.45,1.38
			c-0.02,0.98,0.42,1.52,1.42,1.55c1.56,0.04,3.12,0.02,4.68,0.02c1.44,0,2.88-0.02,4.32,0.01c0.71,0.02,1.44,0.09,2.14,0.23
			c2.58,0.5,4.17,2.05,4.76,4.61c0.42,1.83,0.37,3.65-0.14,5.45c-0.54,1.91-1.73,3.23-3.62,3.83c-0.86,0.27-1.79,0.47-2.69,0.48
			c-3.32,0.06-6.64,0.04-9.96,0.01c-0.75-0.01-1.52-0.11-2.25-0.31c-2.38-0.65-3.83-2.21-4.29-4.65c-0.14-0.74-0.19-1.49-0.3-2.33
			c1.98-0.24,3.82-0.46,5.75-0.69c0.09,0.36,0.16,0.65,0.23,0.95c0.21,0.85,0.42,1.04,1.31,1.11c0.24,0.02,0.48,0.02,0.72,0.02
			c2.52,0,5.04,0,7.56,0c0.2,0,0.4-0.01,0.6-0.01c1.15,0.01,1.55-0.62,1.42-1.71c-0.07-0.61-0.38-0.94-0.98-1.03
			c-0.35-0.05-0.72-0.04-1.08-0.04c-2.44,0-4.88,0.04-7.32-0.02c-1.19-0.03-2.4-0.13-3.56-0.39c-2.49-0.55-3.87-2.24-4.36-4.7
			c-0.38-1.87-0.35-3.73,0.24-5.56c0.59-1.84,1.79-3.11,3.65-3.66c0.91-0.27,1.87-0.45,2.82-0.47c3.2-0.06,6.4-0.04,9.6-0.01
			c0.75,0.01,1.52,0.1,2.25,0.28c2.57,0.64,4,2.36,4.48,4.9C241.06,244.75,241.09,245.43,241.18,246.25z" fill="white"/>
		<path d="M291,262.4c-1.6,0-3.2,0-4.8,0c-1.13,0-2.22-0.22-3.26-0.67c-1.39-0.59-2.44-1.56-2.91-3c-0.32-0.97-0.61-2.01-0.63-3.02
			c-0.08-3.36-0.05-6.71-0.02-10.07c0.01-0.75,0.14-1.51,0.33-2.24c0.77-2.87,2.8-4.33,5.94-4.47c3.63-0.15,7.27-0.07,10.91-0.01
			c0.82,0.01,1.66,0.26,2.44,0.54c2.13,0.76,3.2,2.43,3.6,4.56c0.16,0.82,0.22,1.67,0.22,2.5c0.03,2.76,0.05,5.52-0.01,8.27
			c-0.02,1.11-0.17,2.23-0.44,3.31c-0.48,1.86-1.69,3.17-3.53,3.76c-0.94,0.3-1.94,0.46-2.93,0.51
			C294.28,262.46,292.64,262.4,291,262.4z M296.91,250.75c0-1.48,0.02-2.95-0.01-4.43c-0.02-1.16-0.35-1.48-1.52-1.5
			c-1.68-0.02-3.35-0.01-5.03-0.01c-1.2,0-2.39-0.02-3.59,0.01c-1.08,0.02-1.4,0.33-1.54,1.41c-0.04,0.31-0.03,0.64-0.03,0.96
			c0,1.72,0,3.43,0,5.15c0,0.88-0.04,1.76,0.02,2.63c0.08,1.15,0.44,1.5,1.57,1.51c2.87,0.02,5.75,0.03,8.62,0
			c1.17-0.01,1.48-0.35,1.5-1.53C296.93,253.54,296.91,252.14,296.91,250.75z" fill="white"/>
		<path d="M270.51,252.19c0-4.53,0-8.84,0-13.28c1.01-0.01,1.95-0.03,2.89-0.03c0.96-0.01,1.91,0,2.86,0
			c0.22,0.9,0.3,21.41,0.08,23.51c-0.64,0-1.31,0.01-1.97,0.01c-0.68,0-1.36,0-2.01,0c-4.44-4.43-8.85-8.83-13.43-13.4
			c-0.07,0.49-0.14,0.77-0.14,1.05c-0.01,3.64,0,7.28,0,10.91c0,0.43,0,0.86,0,1.36c-1.95,0-3.81,0-5.68,0
			c-0.2-0.87-0.28-20.99-0.08-23.45c0.65,0,1.31,0,1.98,0c0.68,0,1.36,0,2.13,0C261.52,243.24,265.93,247.63,270.51,252.19z" fill="white"/>
		<path d="M188.68,247.67c-2.05,0.52-3.94,0.99-5.9,1.49c-0.04-0.31-0.09-0.57-0.09-0.83c-0.01-0.64,0.01-1.28-0.01-1.92
			c-0.03-1.26-0.32-1.58-1.56-1.59c-2.84-0.02-5.68-0.02-8.51,0c-1.16,0.01-1.5,0.32-1.62,1.46c-0.04,0.32-0.02,0.64-0.02,0.96
			c0,2.28,0,4.56,0,6.84c0,0.24-0.01,0.48,0,0.72c0.09,1.33,0.43,1.68,1.78,1.69c2.72,0.02,5.44,0.02,8.15,0
			c1.52-0.01,1.77-0.28,1.78-1.86c0.01-0.79,0-1.58,0-2.51c2.03,0.51,3.94,0.99,5.87,1.47c0.15,1.65,0.03,3.2-0.44,4.69
			c-0.56,1.78-1.74,3.06-3.54,3.62c-0.9,0.28-1.87,0.47-2.81,0.49c-3.28,0.06-6.56,0.04-9.83,0.01c-0.79-0.01-1.6-0.14-2.36-0.35
			c-2.08-0.58-3.49-1.9-4.03-4.02c-0.21-0.81-0.38-1.64-0.39-2.47c-0.04-3.28-0.04-6.56,0-9.83c0.01-0.75,0.12-1.52,0.31-2.24
			c0.77-2.92,2.82-4.36,6.13-4.56c1.63-0.1,3.28-0.03,4.92-0.03c1.64,0,3.28-0.02,4.92,0.01c0.75,0.02,1.52,0.09,2.25,0.24
			c2.61,0.55,4.3,2.31,4.7,4.95C188.54,245.22,188.57,246.38,188.68,247.67z" fill="white"/>
		<path d="M216.44,262.35c-2.24,0-4.39,0-6.64,0c-0.49-0.89-1.01-1.82-1.53-2.78c-3.34,0-6.65,0-10.04,0
			c-0.51,0.91-1.03,1.84-1.55,2.79c-2.18,0-4.33,0-6.63,0c4.4-8.28,8.74-16.46,13.2-24.84C207.7,245.87,212.03,254.08,216.44,262.35
			z M201.42,253.53c1.28,0,2.38,0,3.65,0c-0.64-1.19-1.21-2.25-1.84-3.43C202.59,251.31,202.03,252.37,201.42,253.53z" fill="white"/>
		<path d="M244.15,238.94c1.95,0,3.81,0,5.72,0c0,7.8,0,15.53,0,23.27c-0.8,0.24-3.81,0.29-5.72,0.1
			C244.15,254.55,244.15,246.79,244.15,238.94z" fill="white"/>
		<path d="M118.63,246.23c0.5-2.76,0.98-5.45,1.47-8.15c0.73,0.32,4.24,3.41,6.2,5.46c-0.27,2.65-0.85,5.32-1.38,8.17
			c-0.36-0.24-0.67-0.39-0.92-0.6C122.23,249.51,120.46,247.9,118.63,246.23z" fill="white"/>
		<path d="M111.06,237.85c0.38,0.33,0.62,0.52,0.85,0.73c0.35,0.32,0.69,0.64,1.04,0.97c-0.17,0.78-0.33,1.5-0.53,2.39
			c-0.68-0.6-1.26-1.1-1.81-1.59c0.01-0.31,0-0.51,0.04-0.7C110.76,239.12,110.9,238.58,111.06,237.85z" fill="white"/>
		<path d="M111.87,236.07c-0.34-0.32-0.68-0.64-1.07-1.01c-0.19,0.06-0.41,0.12-0.63,0.2c-0.22,0.08-0.43,0.18-0.58,0.25
			c-0.3,0.49,0.09,1.13-0.5,1.47c-0.18-0.63-0.29-3.51-0.13-4.13c0.04-0.17,0.22-0.3,0.33-0.45
			C110.26,233.11,111.58,234.84,111.87,236.07z M110.7,234.63c-0.48-0.61-0.85-1.07-1.22-1.54c-0.07,0.03-0.15,0.06-0.22,0.09
			c0.07,0.59,0.14,1.18,0.22,1.85C109.91,234.89,110.23,234.79,110.7,234.63z" fill="white"/>
		<path d="M137.18,238.59c0.25-0.08,0.47-0.18,0.7-0.21c0.49-0.07,0.97-0.04,1.27,0.43c0.32,0.49,0.44,1.03,0.11,1.57
			c-0.58,0.97-1.49,1.52-2.51,1.88c-0.22,0.08-0.62-0.11-0.83-0.3c-0.62-0.57-1.07-1.26-1.32-2.08c-0.24-0.8-0.08-1.4,0.48-1.79
			c0.5-0.35,1.09-0.28,1.74,0.21C136.95,238.39,137.07,238.5,137.18,238.59z" fill="white"/>
		<path d="M138.97,237.14c-0.2-0.49-0.4-0.98-0.61-1.52c-0.35-0.09-0.73-0.2-1.18-0.32c-0.35,0.4-0.72,0.82-1.09,1.23
			c-0.06-0.04-0.13-0.08-0.19-0.12c0.05-0.16,0.07-0.33,0.15-0.48c0.53-0.93,1.07-1.85,1.62-2.77c0.2-0.34,0.41-0.71,0.98-0.47
			c0.27,1.44,0.48,2.9,0.56,4.38C139.13,237.1,139.05,237.12,138.97,237.14z M137.3,234.71c0.44,0.29,0.44,0.29,1.14,0.23
			c0.05-0.54,0.01-1.06-0.32-1.64C137.81,233.83,137.56,234.27,137.3,234.71z" fill="white"/>
		<path d="M152.18,275.9c0.83,0.23,1.08,0.65,0.98,1.3c-0.06,0.39-0.23,0.73-0.63,0.76c-0.27,0.02-0.6-0.14-0.83-0.3
			c-0.33-0.24-0.37-0.64-0.19-0.97C151.66,276.39,151.95,276.16,152.18,275.9z" fill="white"/>
		<path d="M158.67,270.06c-0.62-0.18-1.02-0.47-1-1.09c0.02-0.61,0.4-0.91,0.96-1C159.71,268.67,159.73,269.19,158.67,270.06z" fill="white"/>
		<path d="M155.5,271.8c1.11,0.8,1.07,1.43-0.09,2.11c-0.53-0.1-0.81-0.44-0.84-0.97C154.53,272.34,154.88,272,155.5,271.8z" fill="white"/>
		<path d="M137.5,269.32c0.3,0.28,0.63,0.59,1.04,0.98c-0.29,0.44-0.53,0.8-0.74,1.12c-0.78-0.09-1.19-0.42-1.24-1.06
			C136.52,269.79,136.9,269.52,137.5,269.32z" fill="white"/>
		<path d="M133.19,263.33c0.4-0.06,0.77-0.23,1.02-0.13c0.28,0.12,0.54,0.45,0.66,0.75c0.19,0.45-0.06,0.93-0.45,1.08
			c-0.39,0.14-0.88-0.05-1.11-0.45c-0.06-0.1-0.11-0.22-0.12-0.33C133.17,264.03,133.19,263.79,133.19,263.33z" fill="white"/>
		<path d="M139.24,261.4c-0.62-0.13-0.95-0.48-1.03-1.05c-0.05-0.4,0.02-0.51,0.67-1.03c0.52,0.1,0.96,0.3,1.06,0.92
			C140.03,260.78,139.83,261.17,139.24,261.4z" fill="white"/>
		<path d="M129.75,259.7c0.3-0.61,0.8-0.85,1.6-0.98C130.89,259.48,130.35,259.64,129.75,259.7z" fill="white"/>
		<path d="M151.82,262.48c0.69-0.33,1.2-0.36,1.85,0.02C153.01,262.79,152.5,262.91,151.82,262.48z" fill="white"/>
		<path d="M148.64,262.85c0.74-0.31,1.27-0.24,1.83-0.15C149.99,263.25,149.93,263.25,148.64,262.85z" fill="white"/>
		<path d="M152.34,264.03c-0.52,0-1.05,0-1.73,0c0.63-0.68,1.18-0.3,1.7-0.36C152.32,263.79,152.33,263.91,152.34,264.03z" fill="white"/>
		<path d="M147.42,264.28c0.76-0.3,1.29-0.29,1.98-0.02C148.72,264.69,148.19,264.63,147.42,264.28z" fill="white"/>
		<path d="M157.25,264.43c-1.06,0.39-1.06,0.39-1.81,0.09C156.2,264.2,156.2,264.2,157.25,264.43z" fill="white"/>
		<path d="M151.16,265.22c-0.75,0.36-1.23,0.41-1.84-0.03C149.93,264.91,150.43,264.92,151.16,265.22z" fill="white"/>
		<path d="M147.5,263.25c-0.71,0.39-0.71,0.39-1.5,0.07C146.69,263.04,146.69,263.04,147.5,263.25z" fill="white"/>
		<path d="M155.37,263.6c-0.54,0-1.07,0-1.68,0C154.39,263.09,154.39,263.09,155.37,263.6z" fill="white"/>
		<path d="M153.99,265.02c-0.49,0-0.98,0-1.52,0C153.05,264.46,153.1,264.45,153.99,265.02z" fill="white"/>
	</g>
</g>
</svg>
