<?xml version="1.0" encoding="utf-8"?>
<!-- Made by Szalik  -->
<svg version="1.1" id="allgames" xmlns="http://www.w3.org/2000/svg" xmlns:xlink="http://www.w3.org/1999/xlink" x="0px" y="0px" xml:space="preserve">
<g>
	<g>
		<path d="M166.2,240.21c7.4,0,14.79,0,22.19,0c8.73,0,15.88,3.41,20.85,10.54c5.64,8.1,6.29,16.88,1.86,25.77
			c-3.46,6.94-9.18,11.29-16.75,12.99c-1.99,0.45-4.14,0.11-6.21,0.25c-6.29,0.43-11.42-2.12-16-6.1c-0.68-0.59-1.32-0.89-2.23-0.87
			c-2.56,0.06-5.12,0.06-7.68,0c-0.87-0.02-1.51,0.25-2.13,0.83c-3.04,2.84-6.56,4.94-10.64,5.72c-2.63,0.5-5.4,0.24-8.11,0.42
			c-2.97,0.2-5.69-0.62-8.34-1.81c-14.99-6.76-19.46-25.9-9-38.57c5.05-6.12,11.62-9.1,19.5-9.16
			C151.09,240.17,158.65,240.21,166.2,240.21z M166.21,246.77c-7.68,0-15.36-0.12-23.03,0.03c-7.81,0.16-13.57,3.93-16.7,11.04
			c-3.13,7.13-1.95,13.9,3.28,19.72c7.47,8.31,20.59,7.98,27.72-0.53c0.34-0.41,1.05-0.71,1.59-0.72c4.52-0.06,9.04,0,13.55-0.06
			c1.09-0.01,1.81,0.29,2.56,1.12c5.09,5.67,11.5,7.39,18.73,5.53c8.91-2.29,14.45-11.08,13.23-20.44
			c-1.15-8.78-8.99-15.64-18.02-15.69C181.48,246.74,173.84,246.77,166.21,246.77z" fill="white"/>
		<path d="M346.04,285.63c-9.37,0-18.63,0-27.97,0c0-9.31,0-18.57,0-27.93c9.26,0,18.56,0,27.95,0c0,2.21,0,4.46,0,6.89
			c-6.93,0-13.89,0-20.93,0c0,1.23,0,2.29,0,3.48c5.82,0,11.6,0,17.45,0c0,2.4,0,4.65,0,7.04c-5.81,0-11.59,0-17.45,0
			c0,1.21,0,2.31,0,3.53c6.99,0,13.93,0,20.94,0C346.04,281.02,346.04,283.28,346.04,285.63z" fill="white"/>
		<path d="M229.29,268.16c6.22,0,12.25,0,18.43,0c0,1.43,0.01,2.82,0,4.2c-0.02,2.16,0.11,4.34-0.14,6.47
			c-0.47,4.04-2.62,6.37-6.76,6.66c-4.73,0.33-9.52,0.33-14.26,0.01c-4.26-0.29-6.52-2.58-6.81-6.85c-0.31-4.66-0.31-9.36,0-14.02
			c0.28-4.23,2.49-6.57,6.67-6.83c5.01-0.32,10.07-0.21,15.08,0.09c3.62,0.21,6.53,3.37,6.05,8.5c-2.22,0.27-4.47,0.55-6.7,0.83
			c-0.51-2.57-0.54-2.6-3.11-2.6c-2.92,0-5.84,0-8.76,0c-1.91,0-2.37,0.44-2.37,2.31c-0.01,3.16-0.01,6.32,0,9.48
			c0.01,1.8,0.47,2.26,2.3,2.26c2.96,0.01,5.92,0,8.88,0c2.74,0,3.23-0.61,2.76-3.54c-2.77,0-5.56-0.05-8.34,0.03
			c-0.95,0.03-1.32-0.28-1.51-1.18C230.29,272.07,229.79,270.18,229.29,268.16z" fill="white"/>
		<path d="M377.7,266.39c-2.3,0.28-4.54,0.56-6.78,0.83c-0.4-2.49-0.53-2.6-3-2.6c-3.04,0-6.08-0.01-9.12,0
			c-0.82,0-1.62,0.06-1.96,1.02c-0.49,1.39,0.24,2.44,1.81,2.45c3.24,0.03,6.48-0.01,9.72,0.02c1.07,0.01,2.17,0.04,3.22,0.24
			c3.47,0.65,5.43,2.51,5.93,5.99c0.26,1.82,0.23,3.76-0.08,5.58c-0.51,3.08-2.69,5.29-5.86,5.46c-5.21,0.27-10.47,0.35-15.67-0.02
			c-4.16-0.29-6.66-4.14-6.1-8.48c2.22-0.28,4.46-0.56,6.8-0.85c0.04,0.39,0.09,0.69,0.11,0.99c0.08,1.05,0.67,1.62,1.7,1.63
			c3.56,0.02,7.12,0.03,10.68-0.01c1.15-0.01,1.68-0.67,1.68-1.76c-0.01-1.13-0.59-1.73-1.82-1.74c-3.28-0.02-6.56,0.01-9.84-0.02
			c-1.11-0.01-2.24-0.06-3.34-0.26c-3.05-0.55-5.19-2.31-5.69-5.38c-0.34-2.04-0.33-4.23,0.02-6.28c0.52-3.08,2.67-5.11,5.73-5.29
			c5.09-0.3,10.24-0.43,15.32-0.06C375.7,258.18,378.06,261.61,377.7,266.39z" fill="white"/>
		<path d="M298.52,278.57c-2.71-2.87-5.41-5.74-8.12-8.61c-0.12,0.07-0.24,0.14-0.36,0.21c0,5.12,0,10.24,0,15.43c-2.4,0-4.66,0-7,0
			c0-9.29,0-18.58,0-28c1.52,0,3.03-0.04,4.53,0.03c0.36,0.02,0.76,0.38,1.05,0.67c3.06,3.1,6.1,6.22,9.15,9.34
			c0.31,0.31,0.56,0.67,1.17,1.4c0.34-0.57,0.5-1.01,0.8-1.32c3.03-3.13,6.1-6.23,9.12-9.37c0.55-0.57,1.1-0.82,1.88-0.78
			c1.23,0.06,2.47,0.02,3.81,0.02c0,9.34,0,18.63,0,28c-2.25,0-4.51,0-6.93,0c0-5.1,0-10.23,0-15.35c-0.1-0.05-0.21-0.1-0.31-0.15
			c-2.68,2.88-5.35,5.75-8.03,8.63C299.02,278.68,298.77,278.63,298.52,278.57z" fill="white"/>
		<path d="M233.66,212.66c5.32,10,10.54,19.81,15.86,29.81c-2.69,0-5.15,0.02-7.61-0.03c-0.25,0-0.62-0.38-0.7-0.65
			c-0.74-2.57-2.47-3.14-4.97-2.91c-2.5,0.23-5.03,0.07-7.55,0.04c-0.72-0.01-1.27,0.1-1.48,0.86c-0.66,2.36-2.22,3.05-4.55,2.73
			c-1.45-0.2-2.95-0.04-4.43-0.05c-0.07,0-0.14-0.05-0.35-0.13C223.11,232.5,228.33,222.69,233.66,212.66z M233.66,227.67
			c-0.79,1.47-1.49,2.78-2.25,4.2c1.56,0,2.93,0,4.48,0C235.14,230.45,234.45,229.14,233.66,227.67z" fill="white"/>
		<path d="M281.21,285.68c-2.61,0-4.97,0.02-7.33-0.02c-0.32-0.01-0.63-0.32-0.94-0.51c-0.06-0.04-0.08-0.14-0.11-0.21
			c-0.69-2.45-2.31-3.08-4.75-2.85c-2.54,0.24-5.11,0.08-7.67,0.04c-0.77-0.01-1.34,0.12-1.57,0.92c-0.64,2.32-2.17,2.98-4.47,2.68
			c-1.53-0.2-3.11-0.04-4.91-0.04c5.31-9.98,10.54-19.82,15.86-29.82C270.64,265.83,275.87,275.64,281.21,285.68z M267.59,275.09
			c-0.76-1.42-1.46-2.74-2.25-4.23c-0.81,1.52-1.49,2.82-2.24,4.23C264.69,275.09,266.03,275.09,267.59,275.09z" fill="white"/>
		<path d="M214.21,211.35c-0.26,1.53-0.38,3-0.76,4.4c-1.96,7.26-8.58,12.32-16.1,12.36c-5.68,0.03-11.35,0-17.03,0.01
			c-6.19,0-10.23,3.64-10.91,9.8c-0.01,0.11-0.06,0.22-0.11,0.4c-2.1,0-4.19,0-6.38,0c-0.13-2.59,0.44-5.02,1.57-7.21
			c3.21-6.17,8.35-9.41,15.35-9.5c5.56-0.07,11.11-0.01,16.67-0.01c6.15,0,10.13-3.48,10.99-9.61c0.03-0.2,0.06-0.39,0.1-0.63
			C209.74,211.35,211.84,211.35,214.21,211.35z" fill="white"/>
		<path d="M251.37,214.45c2.31,0,4.54,0,6.91,0c0,6.98,0,13.91,0,20.97c7.07,0,14.01,0,21.04,0c0,2.38,0,4.64,0,6.98
			c-9.27,0-18.56,0-27.94,0C251.37,233.13,251.37,223.84,251.37,214.45z" fill="white"/>
		<path d="M283.01,242.4c0-9.35,0-18.61,0-27.94c2.31,0,4.56,0,6.96,0c0,6.98,0,13.91,0,20.97c7.07,0,14.01,0,21.03,0
			c0,2.38,0,4.64,0,6.97C301.7,242.4,292.41,242.4,283.01,242.4z" fill="white"/>
		<path d="M147.01,261.49c1.81,0,3.44-0.01,5.07,0c1.62,0.02,2.26,0.66,2.28,2.25c0.01,1.04,0.02,2.08,0,3.12
			c-0.03,1.31-0.69,1.99-2.01,2.02c-1.71,0.03-3.42,0.01-5.34,0.01c0,1.62,0,3.16,0,4.7c-0.01,2.14-0.56,2.69-2.7,2.69
			c-0.8,0-1.6,0.01-2.4,0c-1.61-0.03-2.25-0.67-2.27-2.26c-0.01-1.67,0-3.33,0-5.13c-1.76,0-3.39,0.01-5.02,0
			c-1.75-0.01-2.37-0.64-2.38-2.39c-0.01-0.88-0.01-1.76,0-2.64c0.01-1.72,0.66-2.35,2.42-2.36c1.6-0.01,3.19,0,4.97,0
			c0-1.53,0-2.99,0-4.45c0-2.5,0.4-2.89,2.94-2.89c0.76,0,1.52-0.02,2.28,0c1.47,0.04,2.11,0.66,2.14,2.13
			C147.04,257.96,147.01,259.64,147.01,261.49z" fill="white"/>
		<path d="M185.22,265.19c-0.02,2-1.69,3.68-3.66,3.69c-2.06,0-3.74-1.69-3.72-3.75c0.02-1.97,1.73-3.64,3.72-3.64
			C183.51,261.5,185.24,263.24,185.22,265.19z" fill="white"/>
		<path d="M199.95,265.11c0.03,2.03-1.57,3.72-3.56,3.77c-2.04,0.06-3.77-1.61-3.81-3.66c-0.03-1.95,1.65-3.68,3.64-3.72
			C198.19,261.45,199.92,263.13,199.95,265.11z" fill="white"/>
		<path d="M185.23,272.49c0.02-2,1.67-3.61,3.71-3.6c2.01,0.01,3.64,1.66,3.62,3.69c-0.02,2.02-1.68,3.7-3.65,3.69
			C186.86,276.27,185.21,274.57,185.23,272.49z" fill="white"/>
		<path d="M188.98,254.16c2,0.03,3.62,1.7,3.58,3.72c-0.03,2.03-1.67,3.63-3.68,3.61c-2.08-0.02-3.69-1.68-3.65-3.78
			C185.27,255.71,186.94,254.13,188.98,254.16z" fill="white"/>
	</g>
</g>
</svg>
