<?xml version="1.0" encoding="utf-8"?>
<svg xmlns="http://www.w3.org/2000/svg">
  <g id="Group" transform="matrix(2.334205, 0, 0, 2.32894, -0.714375, -0.192978)" fill-rule="nonzero" fill="#BBA358">
    <path d="M7.38768955,0.0828612674 C4.47840652,0.0828612674 2.05102998,2.15201569 1.49639246,4.89939133 L0.430479403,4.89939133 C0.383351189,4.89939819 0.3402699,4.92602578 0.319190054,4.9681768 C0.298110207,5.01032783 0.302648611,5.06077016 0.330913843,5.0984815 L1.93642387,7.23916154 C1.95992658,7.2705029 1.99681473,7.28894853 2.03598944,7.28894853 C2.07516415,7.28894853 2.1120523,7.2705029 2.13555501,7.23916154 L3.74106502,5.0984815 C3.76933025,5.06077016 3.77386866,5.01032783 3.75278881,4.96817681 C3.73170897,4.92602579 3.68862768,4.8993982 3.64149947,4.89939133 L2.85329604,4.89939133 C3.38233657,2.88776029 5.20860885,1.40209472 7.38768955,1.40209472 C9.98079267,1.40209472 12.0797729,3.50107499 12.0797729,6.09417811 C12.0797729,8.68728123 9.98079267,10.7862615 7.38768955,10.7862615 C5.76122625,10.7862615 4.32947857,9.95942693 3.48745781,8.70345973 C3.46435422,8.66898149 3.4255835,8.64828946 3.38408018,8.64828685 L2.144081,8.64828685 C2.1007501,8.64829914 2.06054488,8.67084858 2.03794085,8.70781647 C2.01533681,8.74478436 2.01358838,8.79084822 2.03332507,8.82942322 C3.02907526,10.774459 5.05362488,12.105495 7.38768955,12.105495 C10.706092,12.105495 13.3990064,9.41258056 13.3990064,6.09417811 C13.3990064,2.77575508 10.7060916,0.0828612674 7.38768955,0.0828612674 Z" id="path4921" style="fill: rgb(255, 255, 255);"/>
    <path d="M6.98818588,2.68890476 C6.88882618,2.68890489 6.80827927,2.7694518 6.80827914,2.86881149 L6.80827914,6.7851934 C6.80828568,6.84889377 6.84197688,6.90784161 6.89685943,6.94017801 L9.68563791,8.58364503 C9.77120442,8.63405979 9.88143723,8.60560252 9.93190783,8.52006893 L10.2037969,8.05929657 C10.2541435,7.97393375 10.2259736,7.86392976 10.1407948,7.81327241 L7.70326263,6.36389456 L7.70326263,2.86881149 C7.70326249,2.7694518 7.62271558,2.68890489 7.52335589,2.68890476 L6.98818588,2.68890476 Z" id="polygon4923" style="fill: rgb(255, 255, 255);"/>
  </g>
  <path d="M 55.916 20.16 L 54.748 26.88 L 38.902 26.88 L 43.489 0.63 L 51.412 0.63 L 47.993 20.16 L 55.916 20.16 Z M 62.129 22.722 L 60.503 26.88 L 52.163 26.88 L 63.13 0.63 L 75.39 0.63 L 77.225 26.88 L 68.843 26.88 L 68.676 22.722 L 62.129 22.722 Z M 68.051 8.694 L 67.634 8.694 L 64.715 16.043 L 68.051 16.043 L 68.051 8.694 Z M 79.226 26.418 L 79.226 26.418 L 81.561 19.488 L 81.561 19.488 C 83.897 20.132 86.037 20.454 87.983 20.454 L 87.983 20.454 L 87.983 20.454 C 89.929 20.454 91.5 20.37 92.695 20.202 L 92.695 20.202 L 93.029 18.102 L 89.568 17.766 L 89.568 17.766 C 86.927 17.514 85.055 16.912 83.952 15.96 L 83.952 15.96 L 83.952 15.96 C 82.858 15.008 82.312 13.664 82.312 11.928 L 82.312 11.928 L 82.312 11.928 C 82.312 11.172 82.395 10.332 82.562 9.408 L 82.562 9.408 L 82.562 9.408 C 83.202 5.824 84.36 3.36 86.037 2.016 L 86.037 2.016 L 86.037 2.016 C 87.723 0.672 90.332 0 93.863 0 L 93.863 0 L 93.863 0 C 97.394 0 100.507 0.351 103.204 1.05 L 103.204 1.05 L 101.035 7.77 L 101.035 7.77 C 98.617 7.35 96.671 7.14 95.197 7.14 L 95.197 7.14 L 95.197 7.14 C 93.724 7.14 92.473 7.21 91.444 7.35 L 91.444 7.35 L 91.111 9.408 L 93.905 9.702 L 93.905 9.702 C 96.74 10.01 98.756 10.691 99.951 11.746 L 99.951 11.746 L 99.951 11.746 C 101.147 12.792 101.744 14.196 101.744 15.96 L 101.744 15.96 L 101.744 15.96 C 101.744 17.752 101.355 19.6 100.577 21.504 L 100.577 21.504 L 100.577 21.504 C 100.188 22.484 99.761 23.305 99.298 23.968 L 99.298 23.968 L 99.298 23.968 C 98.843 24.622 98.26 25.177 97.547 25.634 L 97.547 25.634 L 97.547 25.634 C 96.842 26.1 96.198 26.45 95.614 26.684 L 95.614 26.684 L 95.614 26.684 C 95.031 26.926 94.294 27.104 93.404 27.216 L 93.404 27.216 L 93.404 27.216 C 92.098 27.412 90.499 27.51 88.609 27.51 L 88.609 27.51 L 88.609 27.51 C 85.162 27.51 82.034 27.146 79.226 26.418 Z M 126.056 0.63 L 124.846 7.35 L 119.092 7.35 L 115.714 26.88 L 107.791 26.88 L 111.169 7.35 L 105.456 7.35 L 106.665 0.63 L 126.056 0.63 Z M 147.323 20.538 L 147.323 20.538 L 142.152 20.538 L 141.068 26.88 L 133.145 26.88 L 137.732 0.63 L 150.242 0.63 L 150.242 0.63 C 154.968 0.63 157.331 2.842 157.331 7.266 L 157.331 7.266 L 157.331 7.266 C 157.331 9.366 157.039 11.26 156.455 12.95 L 156.455 12.95 L 156.455 12.95 C 155.871 14.649 155.228 15.998 154.523 16.996 L 154.523 16.996 L 154.523 16.996 C 153.81 17.985 152.831 18.825 151.59 19.516 L 151.59 19.516 L 151.59 19.516 C 150.357 20.198 148.935 20.538 147.323 20.538 Z M 146.28 7.35 L 144.445 7.35 L 143.32 13.818 L 145.154 13.818 L 145.154 13.818 C 146.1 13.818 146.813 13.716 147.295 13.51 L 147.295 13.51 L 147.295 13.51 C 147.786 13.296 148.101 12.81 148.24 12.054 L 148.24 12.054 L 148.24 12.054 C 148.602 9.982 148.782 8.848 148.782 8.652 L 148.782 8.652 L 148.782 8.652 C 148.782 8.12 148.574 7.77 148.157 7.602 L 148.157 7.602 L 148.157 7.602 C 147.74 7.434 147.114 7.35 146.28 7.35 L 146.28 7.35 Z M 174.053 20.16 L 172.885 26.88 L 157.039 26.88 L 161.626 0.63 L 169.549 0.63 L 166.13 20.16 L 174.053 20.16 Z M 180.266 22.722 L 178.64 26.88 L 170.3 26.88 L 181.267 0.63 L 193.527 0.63 L 195.361 26.88 L 186.98 26.88 L 186.813 22.722 L 180.266 22.722 Z M 186.187 8.694 L 185.77 8.694 L 182.851 16.043 L 186.187 16.043 L 186.187 8.694 Z M 197.155 0.63 L 205.912 0.63 L 206.454 9.87 L 206.746 9.87 L 210.582 0.63 L 219.339 0.63 L 208.831 19.74 L 207.621 26.88 L 199.698 26.88 L 200.908 19.74 L 197.155 0.63 Z M 234.935 10.878 L 233.851 16.968 L 225.928 16.968 L 225.386 20.16 L 235.102 20.16 L 233.934 26.88 L 216.295 26.88 L 220.882 0.63 L 238.313 0.63 L 236.144 7.35 L 227.596 7.35 L 227.012 10.878 L 234.935 10.878 Z M 249.488 26.88 L 238.396 26.88 L 242.983 0.63 L 254.075 0.63 L 254.075 0.63 C 257.662 0.63 260.209 1.27 261.72 2.548 L 261.72 2.548 L 261.72 2.548 C 263.24 3.818 264 5.88 264 8.736 L 264 8.736 L 264 8.736 C 264 10.192 263.833 11.872 263.5 13.776 L 263.5 13.776 L 263.5 13.776 C 262.666 18.48 261.238 21.84 259.218 23.856 L 259.218 23.856 L 259.218 23.856 C 257.207 25.872 253.964 26.88 249.488 26.88 L 249.488 26.88 Z M 252.991 7.35 L 252.991 7.35 L 249.697 7.35 L 247.487 20.16 L 250.781 20.16 L 250.781 20.16 C 251.865 20.16 252.671 20.03 253.2 19.768 L 253.2 19.768 L 253.2 19.768 C 253.728 19.498 254.075 18.886 254.242 17.934 L 254.242 17.934 L 255.702 9.576 L 255.702 9.576 C 255.729 9.408 255.743 9.184 255.743 8.904 L 255.743 8.904 L 255.743 8.904 C 255.743 8.26 255.521 7.84 255.076 7.644 L 255.076 7.644 L 255.076 7.644 C 254.631 7.448 253.936 7.35 252.991 7.35 Z" style="white-space: pre; fill: rgb(255, 255, 255);"/>
</svg>