<?xml version="1.0" encoding="utf-8"?>
<svg xmlns="http://www.w3.org/2000/svg">
  <path d="M 40.606 29.611 L 40.606 29.611 L 32.893 29.611 L 31.276 39.043 L 19.459 39.043 L 26.301 0 L 44.959 0 L 44.959 0 C 52.008 0 55.533 3.29 55.533 9.87 L 55.533 9.87 L 55.533 9.87 C 55.533 12.994 55.097 15.811 54.227 18.324 L 54.227 18.324 L 54.227 18.324 C 53.356 20.85 52.396 22.857 51.345 24.343 L 51.345 24.343 L 51.345 24.343 C 50.281 25.814 48.822 27.064 46.97 28.09 L 46.97 28.09 L 46.97 28.09 C 45.131 29.105 43.011 29.611 40.606 29.611 Z M 39.051 9.995 L 36.314 9.995 L 34.635 19.616 L 37.371 19.616 L 37.371 19.616 C 38.781 19.616 39.845 19.463 40.564 19.157 L 40.564 19.157 L 40.564 19.157 C 41.296 18.839 41.767 18.116 41.974 16.992 L 41.974 16.992 L 41.974 16.992 C 42.513 13.91 42.782 12.224 42.782 11.931 L 42.782 11.931 L 42.782 11.931 C 42.782 11.141 42.471 10.62 41.85 10.37 L 41.85 10.37 L 41.85 10.37 C 41.228 10.12 40.295 9.995 39.051 9.995 L 39.051 9.995 Z M 66.417 39.043 L 54.6 39.043 L 61.441 0 L 73.258 0 L 66.417 39.043 Z M 106.595 39.043 L 95.462 39.043 L 89.118 25.175 L 89.118 25.175 C 88.953 24.884 88.87 24.473 88.87 23.947 L 88.87 23.947 L 88.87 23.947 C 88.87 23.433 88.911 22.843 88.994 22.177 L 88.994 22.177 L 88.496 22.177 L 85.573 39.043 L 73.756 39.043 L 80.598 0 L 91.731 0 L 98.075 13.868 L 98.075 13.868 C 98.199 14.16 98.261 14.57 98.261 15.097 L 98.261 15.097 L 98.261 15.097 C 98.261 15.611 98.22 16.2 98.137 16.867 L 98.137 16.867 L 98.634 16.867 L 101.62 0 L 113.437 0 L 106.595 39.043 Z M 135.765 39.043 L 114.494 39.043 L 121.336 0 L 140.492 0 L 140.492 0 C 143.478 0 145.64 0.52 146.981 1.562 L 146.981 1.562 L 146.981 1.562 C 148.335 2.602 149.013 4.206 149.013 6.372 L 149.013 6.372 L 149.013 6.372 C 149.013 9.537 148.314 12.14 146.919 14.18 L 146.919 14.18 L 146.919 14.18 C 145.536 16.221 143.851 17.492 141.861 17.991 L 141.861 17.991 L 141.798 18.367 L 141.798 18.367 C 145.53 19.074 147.396 21.553 147.396 25.8 L 147.396 25.8 L 147.396 25.8 C 147.396 29.549 146.38 32.692 144.348 35.233 L 144.348 35.233 L 144.348 35.233 C 142.317 37.774 139.456 39.043 135.765 39.043 L 135.765 39.043 Z M 133.651 23.489 L 133.651 23.489 L 128.986 23.489 L 127.866 29.861 L 132.469 29.861 L 132.469 29.861 C 133.506 29.861 134.293 29.444 134.832 28.611 L 134.832 28.611 L 134.832 28.611 C 135.371 27.778 135.641 26.716 135.641 25.426 L 135.641 25.426 L 135.641 25.426 C 135.641 24.134 134.977 23.489 133.651 23.489 Z M 135.392 8.559 L 135.392 8.559 L 131.66 8.559 L 130.603 14.368 L 134.273 14.368 L 134.273 14.368 C 136.18 14.368 137.134 13.014 137.134 10.307 L 137.134 10.307 L 137.134 10.307 C 137.134 9.141 136.553 8.559 135.392 8.559 Z M 161.701 32.859 L 159.275 39.043 L 146.836 39.043 L 163.194 0 L 181.479 0 L 184.216 39.043 L 171.715 39.043 L 171.466 32.859 L 161.701 32.859 Z M 170.533 11.995 L 169.911 11.995 L 165.557 22.927 L 170.533 22.927 L 170.533 11.995 Z M 213.697 29.048 L 211.955 39.043 L 188.321 39.043 L 195.162 0 L 206.98 0 L 201.88 29.048 L 213.697 29.048 Z M 240.192 29.048 L 238.451 39.043 L 214.816 39.043 L 221.658 0 L 233.475 0 L 228.375 29.048 L 240.192 29.048 Z" style="white-space: pre; fill: rgb(255, 255, 255);"/>
  <path d="M 32.951 45.966 C 32.485 45.898 32.201 45.824 29.688 45.101 C 21.298 42.698 11.767 39.792 7.839 38.44 C 5.345 37.582 4.706 37.314 3.875 36.757 C 3.319 36.387 2.977 36.103 2.511 35.633 C 1.207 34.326 0.404 32.76 0.07 30.883 C 0.002 30.481 0 30.452 0 29.512 C 0 28.715 0.008 28.505 0.046 28.257 C 0.282 26.726 0.867 25.383 1.833 24.136 C 2.094 23.799 2.747 23.124 3.081 22.847 C 4.403 21.745 5.96 21.075 7.673 20.87 C 8.156 20.808 9.101 20.808 9.586 20.87 C 10.619 20.994 11.519 21.264 12.445 21.729 C 13.295 22.154 14.674 23.07 17.386 25.013 C 21.128 27.699 28.003 32.863 33.167 36.872 C 33.476 37.111 33.907 37.446 34.125 37.615 C 34.34 37.784 34.761 38.111 35.054 38.342 C 36.538 39.512 37.392 40.712 37.631 41.969 C 37.693 42.283 37.693 42.842 37.633 43.144 C 37.548 43.577 37.374 43.987 37.129 44.339 C 36.944 44.606 36.428 45.116 36.163 45.293 C 35.622 45.649 35.039 45.869 34.382 45.964 C 34.036 46.011 33.296 46.013 32.951 45.966 Z M 9.369 32.553 C 10.349 32.287 11.098 31.635 11.498 30.698 C 11.998 29.536 11.697 28.132 10.764 27.241 C 10.146 26.654 9.238 26.314 8.438 26.375 C 6.813 26.495 5.567 27.772 5.502 29.386 C 5.438 30.983 6.589 32.37 8.183 32.622 C 8.226 32.626 8.457 32.628 8.693 32.624 C 9.062 32.618 9.161 32.609 9.369 32.553 Z" style="fill: rgb(204, 204, 204);"/>
  <path d="M 168.891 25.051 C 168.171 24.982 167.263 24.778 166.575 24.528 C 163.832 23.528 161.682 21.314 160.764 18.543 C 160.065 16.43 160.123 14.114 160.936 12.059 C 161.417 10.843 162.072 9.835 162.988 8.885 C 163.745 8.109 164.514 7.536 165.458 7.047 C 168.596 5.421 172.401 5.697 175.28 7.757 C 175.732 8.083 176.074 8.375 176.502 8.807 C 177.998 10.307 178.925 12.187 179.217 14.32 C 179.271 14.733 179.294 15.928 179.257 16.369 C 179.004 19.172 177.557 21.689 175.256 23.338 C 173.922 24.293 172.274 24.904 170.639 25.053 C 170.303 25.08 169.218 25.08 168.891 25.051 Z M 164.724 19.122 C 164.618 18.809 164.506 18.332 164.448 17.977 C 164.39 17.581 164.39 16.617 164.448 16.211 C 164.691 14.61 165.385 13.241 166.513 12.138 C 167.645 11.032 169.011 10.37 170.57 10.17 C 170.956 10.12 171.843 10.128 172.208 10.185 C 172.575 10.241 173.048 10.353 173.348 10.458 C 173.477 10.501 173.582 10.532 173.591 10.526 C 173.605 10.507 173.226 10.233 172.992 10.089 C 172.26 9.643 171.445 9.362 170.537 9.24 C 170.218 9.199 169.33 9.199 169.019 9.244 C 167.147 9.502 165.547 10.505 164.508 12.073 C 164.305 12.377 163.969 13.052 163.838 13.41 C 163.171 15.243 163.416 17.333 164.489 18.97 C 164.599 19.139 164.782 19.374 164.79 19.362 C 164.796 19.355 164.765 19.249 164.724 19.122 Z" style="fill: rgb(20, 20, 20);"/>
  <path d="M 259.274 20.858 C 258.807 20.926 258.523 21 256.011 21.723 C 247.62 24.126 238.09 27.033 234.161 28.384 C 231.667 29.242 231.029 29.51 230.197 30.067 C 229.642 30.437 229.3 30.721 228.833 31.191 C 227.529 32.499 226.727 34.064 226.393 35.941 C 226.325 36.342 226.323 36.373 226.323 37.312 C 226.323 38.109 226.331 38.319 226.368 38.567 C 226.604 40.097 227.189 41.441 228.155 42.688 C 228.416 43.025 229.069 43.7 229.403 43.977 C 230.726 45.079 232.283 45.749 233.995 45.955 C 234.478 46.015 235.424 46.015 235.909 45.955 C 236.941 45.83 237.841 45.559 238.768 45.095 C 239.618 44.67 240.997 43.754 243.708 41.811 C 247.45 39.125 254.325 33.961 259.489 29.952 C 259.798 29.712 260.23 29.378 260.447 29.209 C 260.663 29.04 261.084 28.713 261.376 28.482 C 262.861 27.312 263.715 26.113 263.953 24.855 C 264.015 24.541 264.015 23.982 263.955 23.68 C 263.87 23.247 263.696 22.837 263.451 22.485 C 263.267 22.218 262.751 21.708 262.485 21.531 C 261.944 21.175 261.362 20.955 260.704 20.86 C 260.358 20.813 259.618 20.811 259.274 20.858 Z M 235.691 34.271 C 236.672 34.537 237.42 35.189 237.82 36.126 C 238.32 37.289 238.019 38.692 237.087 39.583 C 236.469 40.17 235.561 40.51 234.76 40.449 C 233.135 40.329 231.889 39.052 231.825 37.438 C 231.76 35.841 232.911 34.454 234.505 34.202 C 234.549 34.198 234.779 34.196 235.015 34.2 C 235.384 34.206 235.484 34.215 235.691 34.271 Z" style="fill: rgb(204, 204, 204);" transform="matrix(-1, 0, 0, -1, 490.322754, 66.823734)"/>
</svg>