<?xml version="1.0" encoding="utf-8"?>
<svg xmlns="http://www.w3.org/2000/svg">
  <g transform="matrix(1.073956, 0, 0, 1.060335, -1.960409, -6.863039)">
    <g id="g-1" fill="#6d6d6d" stroke="none" transform="matrix(0.001266, 0, 0, 0.001266, 1.82541, 8.982631)">
      <path d="M3960 13860 l0 -990 495 0 495 0 0 -495 0 -495 495 0 495 0 0 1485 0 1485 -990 0 -990 0 0 -990z" style="fill: rgb(119, 119, 119);"/>
      <path d="M8910 13365 l0 -1485 495 0 495 0 0 495 0 495 495 0 495 0 0 990 0 990 -990 0 -990 0 0 -1485z" style="fill: rgb(119, 119, 119);"/>
      <path d="M0 8910 l0 -990 495 0 495 0 0 990 0 990 -495 0 -495 0 0 -990z" style="fill: rgb(119, 119, 119);"/>
      <path d="M2970 9405 l0 -495 495 0 495 0 0 -495 0 -495 495 0 495 0 0 495 0 495 -495 0 -495 0 0 495 0 495 -495 0 -495 0 0 -495z" style="fill: rgb(119, 119, 119);"/>
      <path d="M10890 9405 l0 -495 -495 0 -495 0 0 -495 0 -495 495 0 495 0 0 495 0 495 495 0 495 0 0 495 0 495 -495 0 -495 0 0 -495z" style="fill: rgb(119, 119, 119);"/>
      <path d="M13860 8910 l0 -990 495 0 495 0 0 990 0 990 -495 0 -495 0 0 -990z" style="fill: rgb(119, 119, 119);"/>
      <path d="M2970 5940 l0 -990 495 0 495 0 0 990 0 990 -495 0 -495 0 0 -990z" style="fill: rgb(119, 119, 119);"/>
      <path d="M10890 5940 l0 -990 495 0 495 0 0 990 0 990 -495 0 -495 0 0 -990z" style="fill: rgb(119, 119, 119);"/>
    </g>
    <g id="layer2" fill="#bfbfbf" stroke="none" transform="matrix(0.001266, 0, 0, 0.001266, 1.82541, 8.982631)">
      <path d="M0 12870 l0 -2970 495 0 495 0 0 990 0 990 495 0 495 0 0 -495 0 -495 495 0 495 0 0 -495 0 -495 495 0 495 0 0 -495 0 -495 -495 0 -495 0 0 -990 0 -990 495 0 495 0 0 990 0 990 495 0 495 0 0 -990 0 -990 495 0 495 0 0 -1980 0 -1980 495 0 495 0 0 -1485 0 -1485 495 0 495 0 0 1485 0 1485 495 0 495 0 0 1980 0 1980 495 0 495 0 0 990 0 990 495 0 495 0 0 -990 0 -990 495 0 495 0 0 990 0 990 -495 0 -495 0 0 495 0 495 495 0 495 0 0 495 0 495 495 0 495 0 0 495 0 495 495 0 495 0 0 -990 0 -990 495 0 495 0 0 2970 0 2970 -495 0 -495 0 0 -495 0 -495 -495 0 -495 0 0 -495 0 -495 -495 0 -495 0 0 -495 0 -495 -990 0 -990 0 0 -495 0 -495 -495 0 -495 0 0 990 0 990 -495 0 -495 0 0 990 0 990 -495 0 -495 0 0 -990 0 -990 -495 0 -495 0 0 -990 0 -990 -495 0 -495 0 0 495 0 495 -990 0 -990 0 0 495 0 495 -495 0 -495 0 0 495 0 495 -495 0 -495 0 0 495 0 495 -495 0 -495 0 0 -2970z m6930 -2475 l0 -495 495 0 495 0 0 495 0 495 495 0 495 0 0 -990 0 -990 -495 0 -495 0 0 -495 0 -495 -495 0 -495 0 0 495 0 495 -495 0 -495 0 0 990 0 990 495 0 495 0 0 -495z" style="fill: rgb(204, 204, 204);"/>
    </g>
  </g>
  <path d="M 26.686 24.983 L 26.686 24.983 L 28.904 18.532 L 28.904 18.532 C 31.122 19.132 33.154 19.431 35.002 19.431 L 35.002 19.431 L 35.002 19.431 C 36.85 19.431 38.342 19.353 39.477 19.197 L 39.477 19.197 L 39.794 17.243 L 36.507 16.93 L 36.507 16.93 C 33.999 16.695 32.221 16.135 31.174 15.248 L 31.174 15.248 L 31.174 15.248 C 30.136 14.362 29.617 13.111 29.617 11.494 L 29.617 11.494 L 29.617 11.494 C 29.617 10.791 29.696 10.009 29.854 9.148 L 29.854 9.148 L 29.854 9.148 C 30.462 5.812 31.561 3.519 33.154 2.268 L 33.154 2.268 L 33.154 2.268 C 34.756 1.017 37.233 0.391 40.586 0.391 L 40.586 0.391 L 40.586 0.391 C 43.939 0.391 46.896 0.717 49.456 1.368 L 49.456 1.368 L 47.397 7.624 L 47.397 7.624 C 45.1 7.233 43.252 7.038 41.853 7.038 L 41.853 7.038 L 41.853 7.038 C 40.454 7.038 39.266 7.103 38.289 7.233 L 38.289 7.233 L 37.972 9.148 L 40.626 9.423 L 40.626 9.423 C 43.318 9.709 45.232 10.344 46.368 11.326 L 46.368 11.326 L 46.368 11.326 C 47.503 12.299 48.07 13.606 48.07 15.248 L 48.07 15.248 L 48.07 15.248 C 48.07 16.917 47.701 18.637 46.962 20.409 L 46.962 20.409 L 46.962 20.409 C 46.592 21.321 46.187 22.086 45.747 22.702 L 45.747 22.702 L 45.747 22.702 C 45.316 23.312 44.761 23.828 44.084 24.253 L 44.084 24.253 L 44.084 24.253 C 43.415 24.688 42.804 25.014 42.249 25.231 L 42.249 25.231 L 42.249 25.231 C 41.695 25.457 40.995 25.622 40.15 25.727 L 40.15 25.727 L 40.15 25.727 C 38.91 25.909 37.392 26 35.596 26 L 35.596 26 L 35.596 26 C 32.323 26 29.353 25.661 26.686 24.983 Z M 70.879 25.414 L 63.355 25.414 L 64.86 16.773 L 59.197 16.773 L 57.692 25.414 L 50.168 25.414 L 54.524 0.977 L 62.048 0.977 L 60.504 9.618 L 66.166 9.618 L 67.711 0.977 L 75.235 0.977 L 70.879 25.414 Z M 85.767 9.148 L 85.767 9.148 L 83.945 19.314 L 87.074 19.314 L 87.074 19.314 C 88.103 19.314 88.869 19.193 89.371 18.95 L 89.371 18.95 L 89.371 18.95 C 89.872 18.698 90.202 18.128 90.361 17.243 L 90.361 17.243 L 92.182 7.077 L 89.014 7.077 L 89.014 7.077 C 88.011 7.077 87.259 7.198 86.757 7.441 L 86.757 7.441 L 86.757 7.441 C 86.255 7.693 85.925 8.263 85.767 9.148 Z M 90.321 0.391 L 90.321 0.391 L 90.321 0.391 C 93.674 0.391 96.063 1.039 97.489 2.333 L 97.489 2.333 L 97.489 2.333 C 98.914 3.62 99.627 5.604 99.627 8.289 L 99.627 8.289 L 99.627 8.289 C 99.627 10.973 99.197 13.785 98.333 16.721 L 98.333 16.721 L 98.333 16.721 C 97.481 19.65 96.121 21.924 94.255 23.549 L 94.255 23.549 L 94.255 23.549 C 92.399 25.183 89.679 26 86.097 26 L 86.097 26 L 86.097 26 C 82.525 26 80.025 25.357 78.599 24.071 L 78.599 24.071 L 78.599 24.071 C 77.174 22.777 76.461 20.787 76.461 18.102 L 76.461 18.102 L 76.461 18.102 C 76.461 16.825 76.646 15.14 77.015 13.045 L 77.015 13.045 L 77.015 13.045 C 77.385 10.943 77.873 9.132 78.481 7.611 L 78.481 7.611 L 78.481 7.611 C 79.088 6.082 79.906 4.757 80.936 3.636 L 80.936 3.636 L 80.936 3.636 C 82.916 1.473 86.044 0.391 90.321 0.391 Z M 110.715 9.148 L 110.715 9.148 L 108.893 19.314 L 112.022 19.314 L 112.022 19.314 C 113.051 19.314 113.817 19.193 114.319 18.95 L 114.319 18.95 L 114.319 18.95 C 114.82 18.698 115.15 18.128 115.309 17.243 L 115.309 17.243 L 117.13 7.077 L 113.962 7.077 L 113.962 7.077 C 112.959 7.077 112.207 7.198 111.705 7.441 L 111.705 7.441 L 111.705 7.441 C 111.203 7.693 110.873 8.263 110.715 9.148 Z M 115.269 0.391 L 115.269 0.391 L 115.269 0.391 C 118.622 0.391 121.011 1.039 122.437 2.333 L 122.437 2.333 L 122.437 2.333 C 123.862 3.62 124.575 5.604 124.575 8.289 L 124.575 8.289 L 124.575 8.289 C 124.575 10.973 124.143 13.785 123.281 16.721 L 123.281 16.721 L 123.281 16.721 C 122.427 19.65 121.068 21.924 119.203 23.549 L 119.203 23.549 L 119.203 23.549 C 117.345 25.183 114.626 26 111.045 26 L 111.045 26 L 111.045 26 C 107.472 26 104.973 25.357 103.547 24.071 L 103.547 24.071 L 103.547 24.071 C 102.122 22.777 101.409 20.787 101.409 18.102 L 101.409 18.102 L 101.409 18.102 C 101.409 16.825 101.594 15.14 101.963 13.045 L 101.963 13.045 L 101.963 13.045 C 102.333 10.943 102.821 9.132 103.429 7.611 L 103.429 7.611 L 103.429 7.611 C 104.036 6.082 104.854 4.757 105.884 3.636 L 105.884 3.636 L 105.884 3.636 C 107.864 1.473 110.992 0.391 115.269 0.391 Z M 146.789 0.977 L 145.641 7.233 L 140.176 7.233 L 136.968 25.414 L 129.444 25.414 L 132.652 7.233 L 127.227 7.233 L 128.375 0.977 L 146.789 0.977 Z M 156.252 0.821 L 156.252 0.821 L 155.817 3.323 L 155.817 3.323 C 155.79 3.428 154.536 6.882 152.055 13.684 L 152.055 13.684 L 148.293 13.684 L 148.293 4.652 L 148.293 4.652 C 148.293 3.714 148.425 2.516 148.689 1.055 L 148.689 1.055 L 148.689 1.055 C 148.794 0.351 149.322 0 150.273 0 L 150.273 0 L 155.025 0 L 155.025 0 C 155.843 0 156.252 0.273 156.252 0.821 Z M 173.676 10.517 L 172.647 16.186 L 165.123 16.186 L 164.608 19.158 L 173.835 19.158 L 172.726 25.414 L 155.975 25.414 L 160.331 0.977 L 176.884 0.977 L 174.825 7.233 L 166.707 7.233 L 166.152 10.517 L 173.676 10.517 Z M 186.663 13.567 L 184.09 25.414 L 176.249 25.414 L 182.031 0.977 L 191.851 0.977 L 192.563 13.411 L 192.841 13.411 L 197.989 0.977 L 207.81 0.977 L 204.88 25.414 L 196.999 25.414 L 198.661 13.567 L 198.385 13.567 L 193.435 25.414 L 187.692 25.414 L 186.862 13.567 L 186.663 13.567 Z M 220.798 0.977 L 228.322 0.977 L 225.034 19.314 L 227.728 19.314 L 227.728 19.314 C 228.652 19.314 229.312 19.193 229.708 18.95 L 229.708 18.95 L 229.708 18.95 C 230.102 18.698 230.381 18.128 230.539 17.243 L 230.539 17.243 L 233.47 0.977 L 240.992 0.977 L 238.539 14.701 L 238.539 14.701 C 238.143 16.917 237.684 18.702 237.166 20.057 L 237.166 20.057 L 237.166 20.057 C 236.655 21.413 235.938 22.559 235.013 23.498 L 235.013 23.498 L 235.013 23.498 C 234.09 24.436 232.946 25.088 231.582 25.453 L 231.582 25.453 L 231.582 25.453 C 230.226 25.817 228.507 26 226.421 26 L 226.421 26 L 226.421 26 C 223.227 26 220.986 25.522 219.702 24.566 L 219.702 24.566 L 219.702 24.566 C 218.426 23.619 217.788 21.986 217.788 19.666 L 217.788 19.666 L 217.788 19.666 C 217.788 18.389 217.973 16.734 218.343 14.701 L 218.343 14.701 L 220.798 0.977 Z M 254.495 19.509 L 254.495 19.509 L 249.584 19.509 L 248.555 25.414 L 241.032 25.414 L 245.388 0.977 L 257.268 0.977 L 257.268 0.977 C 261.755 0.977 264 3.037 264 7.155 L 264 7.155 L 264 7.155 C 264 9.11 263.723 10.873 263.168 12.446 L 263.168 12.446 L 263.168 12.446 C 262.614 14.027 262.003 15.284 261.334 16.213 L 261.334 16.213 L 261.334 16.213 C 260.656 17.134 259.728 17.916 258.548 18.559 L 258.548 18.559 L 258.548 18.559 C 257.379 19.193 256.027 19.509 254.495 19.509 Z M 253.505 7.233 L 251.764 7.233 L 250.694 13.254 L 252.437 13.254 L 252.437 13.254 C 253.334 13.254 254.013 13.159 254.47 12.967 L 254.47 12.967 L 254.47 12.967 C 254.937 12.768 255.234 12.316 255.367 11.612 L 255.367 11.612 L 255.367 11.612 C 255.71 9.684 255.882 8.627 255.882 8.446 L 255.882 8.446 L 255.882 8.446 C 255.882 7.95 255.684 7.624 255.288 7.468 L 255.288 7.468 L 255.288 7.468 C 254.892 7.311 254.298 7.233 253.505 7.233 L 253.505 7.233 Z" style="white-space: pre; fill: rgb(255, 255, 255);"/>
</svg>