<?xml version="1.0" encoding="utf-8"?>
<!-- Made by Szalik  -->
<svg version="1.1" id="Warstwa_1" xmlns="http://www.w3.org/2000/svg" xmlns:xlink="http://www.w3.org/1999/xlink" x="0px" y="0px" xml:space="preserve">
<g>
	<g>
		<path d="M144.55,250.06c0,7.64-0.11,15.28,0.06,22.91c0.07,3.07-2.93,6.57-6.57,6.56c-15.08-0.05-30.15-0.02-45.23-0.02
			c-4.24,0-7.14-2.88-7.15-7.15c-0.02-4.96,0-9.92,0-14.88c0-9.92-0.01-19.84,0-29.75c0-3.49,2.08-6.23,5.27-6.97
			c0.58-0.14,1.19-0.16,1.78-0.16c15-0.01,29.99,0.05,44.99-0.05c3.46-0.02,7.04,2.99,6.92,6.97
			C144.39,235.01,144.55,242.54,144.55,250.06z M88.59,250.05c0,7.44,0,14.88,0,22.32c0,2.76,1.53,4.34,4.29,4.35
			c14.88,0.01,29.76,0.01,44.64,0c2.74,0,4.29-1.6,4.29-4.35c0.01-14.88,0.01-29.76,0-44.64c0-2.76-1.53-4.34-4.3-4.34
			c-14.88-0.01-29.76-0.01-44.64,0c-2.77,0-4.28,1.57-4.28,4.34C88.59,235.17,88.59,242.61,88.59,250.05z" fill="white"/>
		<path d="M166.89,247.12c-0.32-2.17-0.37-2.22-2.3-2.22c-2.48,0-4.96,0-7.44,0c-1.47,0-1.86,0.31-1.84,1.4
			c0.02,1.03,0.48,1.38,1.92,1.38c2.68,0.01,5.36,0.06,8.04-0.01c6.29-0.16,8.09,4.07,7.45,8.89c-0.53,3.99-2.82,5.86-6.85,5.89
			c-3.4,0.02-6.8,0.05-10.2-0.01c-3.76-0.07-6.26-2.55-6.45-6.21c-0.04-0.84,0.08-1.32,1.11-1.37c1.58-0.08,3.15-0.36,4.69-0.54
			c0.66,2.07,0.66,2.07,2.75,2.07c2.44,0,4.88-0.01,7.32,0c0.89,0,1.63-0.17,1.65-1.26c0.02-1.16-0.73-1.33-1.68-1.34
			c-3.36-0.04-6.72,0.05-10.06-0.21c-3.36-0.26-5.24-2.14-5.65-5.49c-0.19-1.55-0.09-3.21,0.25-4.75c0.59-2.71,2.82-4.4,5.81-4.48
			c3.72-0.1,7.44-0.11,11.16,0c3.76,0.11,6.35,2.96,6.24,6.67c-0.01,0.29-0.25,0.78-0.44,0.81
			C170.56,246.64,168.75,246.87,166.89,247.12z" fill="white"/>
		<path d="M204.28,249.32c-2.24,2.31-4.49,4.62-6.78,6.98c-2.31-2.34-4.57-4.62-6.82-6.91c-0.1,0.05-0.19,0.09-0.29,0.14
			c-0.02,0.42-0.06,0.83-0.06,1.25c0,3.48-0.03,6.96,0.02,10.43c0.01,1.01-0.33,1.32-1.31,1.28c-1.51-0.07-3.03-0.02-4.66-0.02
			c0-7.88,0-15.68,0-23.64c1.29,0,2.56-0.06,3.81,0.04c0.4,0.03,0.82,0.43,1.15,0.75c2.7,2.66,5.39,5.35,8.17,8.12
			c0.32-0.3,0.64-0.57,0.94-0.87c2.18-2.18,4.4-4.31,6.5-6.56c1.03-1.11,2.1-1.62,3.64-1.52c2.2,0.13,2.21,0.03,2.21,2.27
			c0,6.68-0.02,13.35,0.02,20.03c0.01,1.07-0.24,1.52-1.39,1.42c-1.11-0.1-2.24-0.1-3.35,0c-1.17,0.11-1.4-0.4-1.39-1.44
			c0.05-3.44,0.02-6.88,0.02-10.31c0-0.39,0-0.78,0-1.17C204.55,249.48,204.42,249.4,204.28,249.32z" fill="white"/>
		<path d="M333.77,262.31c-2.16,0-4.35,0.25-6.46-0.06c-3.34-0.48-5.19-2.75-5.27-6.13c-0.08-3.68-0.1-7.36,0.01-11.04
			c0.1-3.67,2.59-6.15,6.26-6.25c3.64-0.09,7.28-0.08,10.92-0.01c3.47,0.07,5.91,2.04,6.16,5.49c0.29,4.17,0.31,8.39,0.01,12.56
			c-0.26,3.57-2.73,5.48-6.34,5.56c-1.76,0.04-3.52,0.01-5.28,0.01C333.77,262.41,333.77,262.36,333.77,262.31z M333.79,244.91
			c-1.4,0-2.79,0.03-4.19-0.01c-1.06-0.03-1.53,0.44-1.52,1.5c0.02,2.83,0.02,5.67,0,8.5c0,0.98,0.4,1.48,1.42,1.48
			c2.87-0.01,5.75-0.01,8.62,0c1.01,0,1.43-0.52,1.42-1.5c-0.01-2.83-0.01-5.67,0-8.5c0-0.98-0.43-1.48-1.44-1.47
			C336.67,244.92,335.23,244.91,333.79,244.91z" fill="white"/>
		<path d="M354.48,249.27c0,0.74,0,1.2,0,1.66c0,3.44-0.02,6.87,0.01,10.31c0.01,0.91-0.25,1.29-1.23,1.24
			c-1.55-0.07-3.1-0.02-4.75-0.02c0-7.88,0-15.65,0-23.6c2,0.07,3.94-0.58,5.73,1.4c3.38,3.73,7.06,7.18,10.62,10.74
			c0.28,0.28,0.57,0.54,0.99,0.94c0.04-0.49,0.09-0.83,0.09-1.16c0.01-3.48,0-6.95,0-10.43c0-1.54,0-1.54,1.59-1.54
			c1.2,0,2.4,0.02,3.6-0.01c0.68-0.02,0.91,0.27,0.91,0.92c-0.01,7.27-0.01,14.55,0,21.82c0,0.65-0.22,0.95-0.9,0.92
			c-0.76-0.03-1.54,0.1-2.27-0.04c-0.69-0.13-1.5-0.35-1.97-0.81c-3.83-3.75-7.58-7.56-11.36-11.36
			C355.27,250,354.98,249.74,354.48,249.27z" fill="white"/>
		<path d="M213.58,238.82c1.84,0,3.55,0.01,5.26,0c0.89,0,0.75,0.66,0.76,1.19c0.01,4.28,0.01,8.56,0.01,12.84
			c0,0.76,0.01,1.52,0.02,2.28c0.01,0.83,0.44,1.25,1.27,1.25c2.96,0,5.92,0.01,8.88,0c1.16,0,1.31-0.79,1.31-1.73
			c-0.01-4.76-0.01-9.52,0-14.28c0-1.55,0-1.55,1.58-1.55c1.2,0,2.4-0.04,3.6,0.03c0.31,0.02,0.86,0.41,0.86,0.63
			c-0.01,5.83,0.1,11.68-0.21,17.5c-0.18,3.39-2.64,5.37-6.05,5.46c-3.68,0.09-7.36,0.09-11.04,0c-3.52-0.09-6.04-2.25-6.17-5.79
			C213.42,250.78,213.58,244.9,213.58,238.82z" fill="white"/>
		<path d="M278.12,237.31c4.5,8.47,8.87,16.69,13.36,25.14c-2.34,0-4.4,0.05-6.46-0.05c-0.35-0.02-0.81-0.62-0.97-1.05
			c-0.54-1.46-1.49-1.89-3.02-1.79c-2.23,0.15-4.47,0.07-6.71,0.02c-0.82-0.02-1.4,0.16-1.66,0.99c-0.49,1.56-1.52,2.11-3.16,1.93
			c-1.46-0.16-2.94-0.03-4.73-0.03C269.23,254.04,273.6,245.82,278.12,237.31z M276.48,253.37c1.13,0,2.1,0,3.28,0
			c-0.54-1-1.03-1.91-1.64-3.05C277.52,251.42,277.05,252.3,276.48,253.37z" fill="white"/>
		<path d="M301.52,262.46c-1.89,0-3.6,0-5.31,0c-0.9,0-0.74-0.68-0.74-1.2c-0.01-4.16-0.01-8.32-0.01-12.47
			c0-0.8-0.06-1.61,0.01-2.4c0.11-1.13-0.25-1.56-1.45-1.51c-2.03,0.09-4.08,0-6.12,0.04c-0.86,0.02-1.23-0.23-1.19-1.15
			c0.06-1.59,0.02-3.18,0.02-4.87c0.5-0.03,0.89-0.08,1.27-0.08c7,0,13.99,0.02,20.99-0.03c1.14-0.01,1.46,0.37,1.38,1.44
			c-0.08,1.15-0.07,2.32,0,3.48c0.06,0.99-0.36,1.24-1.27,1.22c-2.08-0.04-4.16,0.05-6.24-0.04c-1.14-0.05-1.39,0.37-1.38,1.44
			c0.05,4.84,0.02,9.68,0.02,14.51C301.52,261.3,301.52,261.78,301.52,262.46z" fill="white"/>
		<path d="M240.01,262.47c0-7.93,0-15.7,0-23.64c1.82,0,3.61-0.04,5.38,0.05c0.22,0.01,0.58,0.75,0.58,1.16
			c0.04,4.63,0.03,9.27,0.03,13.9c0,0.32,0.04,0.65-0.01,0.96c-0.21,1.27,0.39,1.52,1.55,1.51c4.79-0.06,9.59-0.03,14.38-0.02
			c1.63,0,1.63,0.01,1.63,1.66c0,1.08-0.06,2.16,0.02,3.23c0.06,0.97-0.33,1.21-1.25,1.2c-5.87-0.03-11.75-0.02-17.62-0.02
			C243.2,262.47,241.68,262.47,240.01,262.47z" fill="white"/>
		<path d="M175.69,262.47c0-7.94,0-15.72,0-23.65c1.82,0,3.56-0.02,5.31,0.03c0.23,0.01,0.52,0.38,0.65,0.64
			c0.11,0.23,0.04,0.55,0.04,0.83c0,6.88-0.03,13.76,0.03,20.64c0.01,1.22-0.33,1.63-1.56,1.53
			C178.72,262.38,177.28,262.47,175.69,262.47z" fill="white"/>
		<path d="M313.23,238.82c1.8,0,3.52,0.01,5.23,0c0.8,0,0.74,0.57,0.74,1.09c0.01,2.48,0.01,4.96,0.01,7.44
			c0,4.6-0.03,9.2,0.02,13.8c0.01,1.05-0.31,1.41-1.37,1.35c-1.51-0.08-3.02-0.02-4.63-0.02
			C313.23,254.57,313.23,246.8,313.23,238.82z" fill="white"/>
		<path d="M100.59,230.68c0,0.6,0,1.2,0,1.79c0,1.52-1.03,2.21-2.44,1.58c-0.23-0.1-0.43-0.56-0.44-0.85
			c-0.04-1.67,0-3.35-0.03-5.02c-0.02-1.21,0.85-0.91,1.51-0.92c0.64-0.01,1.44-0.22,1.39,0.9
			C100.56,229.01,100.59,229.85,100.59,230.68C100.59,230.68,100.59,230.68,100.59,230.68z" fill="white"/>
		<path d="M138.04,230.65c0,0.8-0.06,1.6,0.01,2.4c0.1,1.12-0.6,1.12-1.37,1.08c-0.7-0.04-1.61,0.29-1.58-1
			c0.04-1.64,0.03-3.28,0.01-4.92c-0.02-1.31,0.94-0.89,1.61-0.94c0.7-0.06,1.4-0.09,1.32,0.99
			C137.99,229.05,138.04,229.85,138.04,230.65z" fill="white"/>
		<path d="M108.42,229.92c0-0.4,0.06-0.81-0.01-1.19c-0.22-1.29,0.41-1.51,1.55-1.51c1.05,0,1.44,0.32,1.37,1.36
			c-0.07,1.03-0.06,2.07-0.01,3.11c0.06,1.35-0.9,1-1.63,1.05c-0.73,0.04-1.38,0.02-1.27-1.02
			C108.48,231.12,108.43,230.52,108.42,229.92z" fill="white"/>
		<path d="M95.27,229.38c0,0.16,0,0.32,0,0.48c-0.01,1.42-1.28,2.18-2.53,1.49c-0.15-0.08-0.32-0.29-0.33-0.44
			c-0.03-1.03-0.05-2.07,0.01-3.1c0.01-0.19,0.38-0.48,0.63-0.52C95.01,226.92,95.27,227.18,95.27,229.38z" fill="white"/>
		<path d="M132.72,229.37c0,0.08,0,0.16,0,0.24c0,1.85-0.5,2.39-2.26,1.77c-1.52-0.53-0.36-2.08-0.65-3.13
			c-0.15-0.55,0.05-0.95,0.79-1C132.68,227.11,132.72,227.11,132.72,229.37z" fill="white"/>
		<path d="M121.98,229.35c0,0.16,0,0.32,0,0.48c0,1.49-1.21,2.37-2.39,1.48c-0.56-0.43-0.44-1.84-0.5-2.81
			c-0.02-0.39,0.21-1.08,0.46-1.15c0.63-0.16,1.34-0.09,2-0.02c0.16,0.02,0.37,0.38,0.39,0.6c0.06,0.47,0.02,0.95,0.02,1.43
			C121.97,229.35,121.98,229.35,121.98,229.35z" fill="white"/>
		<path d="M116.62,239.39c0.31,1.29-0.42,1.42-1.47,1.46c-1.21,0.05-1.44-0.44-1.46-1.54c-0.02-1.21,0.44-1.45,1.54-1.46
			C116.4,237.85,116.89,238.21,116.62,239.39z" fill="white"/>
		<path d="M138.01,248.83c0.32,1.37-0.57,1.3-1.53,1.37c-1.31,0.09-1.33-0.6-1.39-1.6c-0.08-1.33,0.62-1.33,1.61-1.38
			C138,247.14,138.19,247.78,138.01,248.83z" fill="white"/>
		<path d="M115.18,268.66c1.21-0.28,1.49,0.29,1.51,1.42c0.02,1.15-0.34,1.51-1.5,1.51c-1.14,0-1.53-0.33-1.5-1.5
			C113.72,268.98,113.95,268.38,115.18,268.66z" fill="white"/>
		<path d="M136.68,254c1.4-0.35,1.32,0.53,1.39,1.5c0.1,1.3-0.58,1.35-1.58,1.4c-1.28,0.06-1.36-0.58-1.41-1.6
			C135.02,254,135.64,253.79,136.68,254z" fill="white"/>
		<path d="M122.13,252.46c-0.18,1.23-0.04,2.34-0.52,2.86c-0.36,0.39-1.76,0.3-2.28-0.11c-0.4-0.32-0.46-1.88-0.11-2.14
			C119.86,252.59,120.91,252.67,122.13,252.46z" fill="white"/>
		<path d="M129.83,245.95c-0.37-1.36,0.48-1.33,1.47-1.39c1.23-0.08,1.42,0.46,1.45,1.54c0.04,1.26-0.54,1.41-1.58,1.44
			C129.96,247.57,129.57,247.1,129.83,245.95z" fill="white"/>
		<path d="M131.1,236.73c-1.33,0.34-1.27-0.52-1.34-1.49c-0.11-1.32,0.61-1.32,1.58-1.38c1.24-0.07,1.38,0.52,1.42,1.57
			C132.81,236.75,132.15,236.9,131.1,236.73z" fill="white"/>
		<path d="M108.26,254.28c0.2-1.19,0.09-2.26,0.57-2.83c0.32-0.37,1.86-0.33,2.18,0.07c0.41,0.51,0.49,1.96,0.1,2.29
			C110.56,254.29,109.45,254.13,108.26,254.28z" fill="white"/>
		<path d="M122.15,234.27c-0.2,0.82-0.17,1.88-0.68,2.37c-0.37,0.36-1.76,0.25-2.15-0.17c-0.4-0.42-0.44-1.91-0.09-2.16
			c0.66-0.46,1.71-0.37,2.59-0.51C121.93,233.96,122.04,234.12,122.15,234.27z" fill="white"/>
		<path d="M120.6,248.74c-1.24,0.3-1.56-0.23-1.57-1.37c-0.01-1.15,0.35-1.52,1.5-1.51c1.13,0,1.54,0.31,1.49,1.49
			C121.97,248.41,121.85,249.12,120.6,248.74z" fill="white"/>
		<path d="M129.61,254.32c0.21-1.24,0.08-2.35,0.58-2.86c0.37-0.38,1.78-0.28,2.28,0.14c0.4,0.33,0.43,1.9,0.08,2.15
			C131.89,254.22,130.84,254.13,129.61,254.32z" fill="white"/>
		<path d="M109.81,248.75c-1.28,0.36-1.37-0.38-1.42-1.41c-0.06-1.18,0.37-1.47,1.49-1.48c1.17-0.01,1.48,0.41,1.47,1.52
			C111.34,248.52,111.01,249.05,109.81,248.75z" fill="white"/>
		<path d="M100.56,258.18c0.31,1.34-0.54,1.32-1.51,1.38c-1.3,0.08-1.33-0.61-1.39-1.6c-0.07-1.3,0.59-1.34,1.59-1.39
			C100.55,256.51,100.74,257.15,100.56,258.18z" fill="white"/>
		<path d="M129.79,260.56c-0.29-1.06,0.33-1.35,1.43-1.3c1.47,0.06,1.43,0.05,1.52,1.57c0.08,1.24-0.48,1.46-1.55,1.41
			C129.79,262.15,129.79,262.2,129.79,260.56z" fill="white"/>
		<path d="M120.56,260.71c1.23-0.33,1.42,0.3,1.46,1.39c0.04,1.17-0.36,1.48-1.48,1.48c-1.13,0-1.52-0.33-1.51-1.49
			C119.04,260.95,119.35,260.41,120.56,260.71z" fill="white"/>
		<path d="M93.72,271.52c-1.33,0.33-1.33-0.49-1.39-1.48c-0.08-1.23,0.46-1.41,1.53-1.44c1.24-0.03,1.4,0.52,1.43,1.57
			C95.33,271.37,94.86,271.75,93.72,271.52z" fill="white"/>
		<path d="M100.55,243.38c0.35,1.31-0.39,1.44-1.44,1.47c-1.08,0.02-1.45-0.33-1.45-1.44c0-1.13,0.3-1.55,1.48-1.51
			C100.22,241.95,100.89,242.12,100.55,243.38z" fill="white"/>
		<path d="M136.64,241.98c1.27-0.35,1.38,0.38,1.43,1.42c0.06,1.23-0.46,1.43-1.52,1.45c-1.17,0.03-1.46-0.41-1.47-1.52
			C135.07,242.15,135.49,241.73,136.64,241.98z" fill="white"/>
		<path d="M115.12,246.08c-1.35,0.35-1.35-0.47-1.42-1.46c-0.09-1.29,0.58-1.35,1.57-1.39c1.23-0.06,1.39,0.5,1.42,1.55
			C116.73,246.06,116.17,246.3,115.12,246.08z" fill="white"/>
		<path d="M93.81,248.75c-1.23,0.32-1.46-0.29-1.48-1.38c-0.02-1.14,0.32-1.51,1.47-1.51c1.13,0,1.52,0.35,1.49,1.5
			C95.27,248.44,95.05,249.08,93.81,248.75z" fill="white"/>
		<path d="M109.8,243.45c-1.33,0.35-1.35-0.45-1.4-1.46c-0.06-1.19,0.37-1.46,1.5-1.48c1.22-0.02,1.45,0.48,1.45,1.56
			C111.35,243.21,110.99,243.73,109.8,243.45z" fill="white"/>
		<path d="M95.23,254.03c0.26,1.16-0.25,1.53-1.4,1.49c-0.97-0.03-1.57-0.11-1.49-1.35c0.1-1.52,0.05-1.52,1.51-1.57
			C94.89,252.56,95.48,252.84,95.23,254.03z" fill="white"/>
		<path d="M116.62,256.8c0.34,1.34-0.5,1.32-1.49,1.39c-1.23,0.08-1.41-0.45-1.44-1.53c-0.04-1.25,0.52-1.41,1.56-1.43
			C116.44,255.2,116.87,255.64,116.62,256.8z" fill="white"/>
		<path d="M113.77,233.97c-0.35-1.3,0.42-1.37,1.45-1.42c1.17-0.05,1.46,0.36,1.48,1.49c0.02,1.21-0.46,1.46-1.54,1.46
			C114.04,235.49,113.48,235.18,113.77,233.97z" fill="white"/>
		<path d="M93.76,236.73c-1.3,0.34-1.36-0.42-1.43-1.45c-0.08-1.28,0.55-1.38,1.57-1.41c1.14-0.03,1.38,0.44,1.4,1.48
			C95.31,236.5,94.95,237.01,93.76,236.73z" fill="white"/>
		<path d="M93.82,260.72c1.34-0.36,1.43,0.4,1.48,1.43c0.05,1.13-0.4,1.41-1.46,1.42c-1.12,0.01-1.54-0.3-1.51-1.49
			C92.36,260.96,92.62,260.39,93.82,260.72z" fill="white"/>
		<path d="M100.55,238.04c0.34,1.28-0.39,1.38-1.43,1.42c-1.18,0.05-1.45-0.39-1.47-1.5c-0.02-1.19,0.43-1.47,1.52-1.47
			C100.32,236.51,100.83,236.86,100.55,238.04z" fill="white"/>
		<path d="M115.09,264.8c-1.38,0.35-1.32-0.52-1.39-1.48c-0.11-1.33,0.64-1.31,1.59-1.37c1.26-0.08,1.35,0.55,1.4,1.57
			C116.75,264.84,116.11,265,115.09,264.8z" fill="white"/>
		<path d="M136.53,264.81c-1.3,0.34-1.4-0.41-1.44-1.45c-0.05-1.17,0.45-1.39,1.48-1.41c1.12-0.02,1.53,0.29,1.52,1.48
			C138.06,264.61,137.71,265.08,136.53,264.81z" fill="white"/>
		<path d="M138,238.04c0.35,1.28-0.39,1.39-1.43,1.43c-1.16,0.05-1.48-0.35-1.49-1.49c-0.01-1.2,0.43-1.48,1.53-1.47
			C137.73,236.51,138.3,236.81,138,238.04z" fill="white"/>
		<path d="M109.95,235.27c1.35-0.32,1.32,0.54,1.38,1.51c0.09,1.27-0.56,1.36-1.58,1.41c-1.3,0.06-1.31-0.6-1.37-1.59
			C108.32,235.31,108.9,235.07,109.95,235.27z" fill="white"/>
		<path d="M136.67,270.05c1.31-0.36,1.34,0.44,1.41,1.45c0.08,1.24-0.49,1.41-1.54,1.44c-1.21,0.03-1.43-0.47-1.45-1.55
			C135.06,270.16,135.53,269.8,136.67,270.05z" fill="white"/>
		<path d="M125.91,246.08c-1.29,0.35-1.43-0.34-1.48-1.4c-0.06-1.23,0.45-1.42,1.52-1.45c1.27-0.04,1.37,0.56,1.39,1.58
			C127.37,245.94,127.01,246.38,125.91,246.08z" fill="white"/>
		<path d="M127.5,236.97c-1.27-0.23-2.34-0.15-2.89-0.63c-0.37-0.32-0.3-1.77,0.1-2.17c0.41-0.41,1.86-0.47,2.18-0.1
			C127.37,234.62,127.28,235.69,127.5,236.97z" fill="white"/>
		<path d="M106.05,235.59c-1.17-0.18-2.23-0.06-2.8-0.53c-0.38-0.32-0.36-1.83,0.04-2.17c0.48-0.42,1.93-0.52,2.26-0.15
			C106.03,233.29,105.89,234.38,106.05,235.59z" fill="white"/>
		<path d="M120.59,242.06c-1.19,0.28-1.57-0.2-1.56-1.37c0.01-1.07,0.3-1.47,1.43-1.43c1.02,0.03,1.64,0.09,1.56,1.39
			C121.95,241.69,121.86,242.41,120.59,242.06z" fill="white"/>
		<path d="M106.09,252.49c-0.21,1.22-0.11,2.28-0.59,2.86c-0.3,0.36-1.77,0.28-2.17-0.13c-0.4-0.42-0.45-1.88-0.08-2.18
			C103.83,252.56,104.89,252.67,106.09,252.49z" fill="white"/>
		<path d="M115.17,227.3c1.22-0.29,1.49,0.27,1.52,1.39c0.04,1.26-0.51,1.41-1.56,1.41c-1.07,0.01-1.46-0.28-1.44-1.41
			C113.72,227.6,113.95,226.98,115.17,227.3z" fill="white"/>
		<path d="M106.07,245.8c-0.19,1.2-0.08,2.26-0.55,2.85c-0.29,0.36-1.84,0.31-2.16-0.09c-0.41-0.51-0.48-1.92-0.09-2.28
			C103.8,245.8,104.91,245.96,106.07,245.8z" fill="white"/>
		<path d="M111.44,257.79c-0.19,1.24-0.04,2.34-0.53,2.86c-0.36,0.39-1.7,0.27-2.28-0.11c-0.36-0.24-0.43-1.8-0.1-2.04
			C109.18,258.01,110.2,258.05,111.44,257.79z" fill="white"/>
		<path d="M131.19,239.33c1.18-0.28,1.58,0.18,1.56,1.37c-0.01,1.08-0.3,1.48-1.43,1.44c-1.01-0.03-1.65-0.08-1.57-1.39
			C129.81,239.69,129.91,238.97,131.19,239.33z" fill="white"/>
		<path d="M104.54,260.71c1.33-0.36,1.37,0.42,1.41,1.43c0.05,1.1-0.32,1.43-1.4,1.43c-1.13,0.01-1.52-0.32-1.48-1.48
			C103.1,261.01,103.29,260.38,104.54,260.71z" fill="white"/>
		<path d="M93.71,242.06c-1.34,0.36-1.3-0.49-1.38-1.47c-0.1-1.35,0.66-1.27,1.6-1.34c1.21-0.09,1.31,0.5,1.36,1.48
			C95.35,241.96,94.82,242.29,93.71,242.06z" fill="white"/>
		<path d="M100.55,250.13c0.35,1.38-0.54,1.29-1.5,1.36c-1.16,0.08-1.36-0.42-1.4-1.44c-0.04-1.21,0.44-1.43,1.53-1.43
			C100.35,248.6,100.83,248.96,100.55,250.13z" fill="white"/>
		<path d="M115.11,251.42c-1.31,0.36-1.34-0.44-1.41-1.45c-0.09-1.35,0.65-1.29,1.61-1.35c1.18-0.07,1.35,0.44,1.39,1.46
			C116.73,251.3,116.24,251.66,115.11,251.42z" fill="white"/>
		<path d="M131.16,270.11c-1.29,0.36-1.34-0.4-1.41-1.43c-0.1-1.35,0.64-1.29,1.59-1.35c1.15-0.07,1.38,0.4,1.41,1.44
			C132.78,270,132.29,270.35,131.16,270.11z" fill="white"/>
		<path d="M106.04,272.8c-1.09,0-1.94,0-3.03,0c0.13-0.98,0.02-2,0.45-2.65c0.23-0.35,1.82-0.36,2.07,0
			C105.98,270.77,105.89,271.8,106.04,272.8z" fill="white"/>
		<path d="M104.44,230.08c-0.89,0.18-1.45-0.1-1.37-1.36c0.05-0.96,0.09-1.56,1.33-1.5c1.02,0.05,1.65,0.1,1.54,1.4
			C105.83,230.06,105.92,230.07,104.44,230.08z" fill="white"/>
		<path d="M105.88,240.8c0.32,1.29-0.48,1.26-1.42,1.34c-1.28,0.1-1.35-0.51-1.4-1.54c-0.06-1.24,0.53-1.28,1.49-1.33
			C105.81,239.18,106.11,239.72,105.88,240.8z" fill="white"/>
		<path d="M125.87,227.31c1.24-0.33,1.43,0.3,1.47,1.38c0.05,1.21-0.43,1.42-1.51,1.43c-1.09,0-1.43-0.31-1.4-1.41
			C124.46,227.65,124.6,226.96,125.87,227.31z" fill="white"/>
	</g>
</g>
</svg>
