<?xml version="1.0" encoding="utf-8"?>
<!-- Made by Szalik  -->
<svg version="1.1" id="lightgun" xmlns="http://www.w3.org/2000/svg" xmlns:xlink="http://www.w3.org/1999/xlink" x="0px" y="0px" xml:space="preserve">
<g>
	<g>
		<path d="M176.14,262.17c-1.5,0-2.89,0-4.28,0c-1.4,0-2.79,0-4.29,0c-0.52-2.07-1.03-4.1-1.55-6.18c0.31-0.03,0.51-0.06,0.71-0.06
			c5.16,0,10.31,0,15.66,0c0,0.58,0.01,1.12,0,1.66c-0.04,2.6,0.12,5.21-0.16,7.78c-0.4,3.74-2.27,5.75-6,6
			c-4.22,0.29-8.48,0.29-12.69-0.01c-3.71-0.26-5.71-2.3-5.96-6.03c-0.28-4.18-0.28-8.4,0-12.58c0.25-3.76,2.31-5.82,6.07-6.06
			c4.18-0.27,8.41-0.3,12.58,0.02c4.2,0.32,6.35,3.27,6.09,7.67c-1.98,0.25-3.98,0.5-6.06,0.77c-0.04-0.35-0.08-0.65-0.12-0.96
			c-0.1-0.9-0.61-1.37-1.51-1.38c-3.16-0.01-6.32-0.02-9.47,0c-0.97,0.01-1.46,0.57-1.47,1.53c-0.01,3.12-0.01,6.24,0,9.35
			c0,1.02,0.53,1.57,1.56,1.57c3.12,0.01,6.24,0.01,9.35,0c0.96,0,1.49-0.5,1.54-1.46C176.16,263.3,176.14,262.79,176.14,262.17z" fill="white"/>
		<path d="M260.55,262.17c-2.86,0-5.65,0-8.5,0c-0.52-2.07-1.02-4.07-1.55-6.17c5.47,0,10.83,0,16.51,0
			c-0.16,3.53-0.08,7.1-0.56,10.58c-0.43,3.08-2.81,4.67-5.78,4.81c-4.19,0.2-8.4,0.26-12.58-0.01c-3.72-0.25-5.76-2.25-6.02-5.97
			c-0.3-4.21-0.29-8.48-0.01-12.69c0.25-3.72,2.27-5.76,5.98-6c4.33-0.27,8.72-0.28,13.04,0.09c3.94,0.34,6.06,3.48,5.67,7.59
			c-1.98,0.25-3.98,0.5-5.97,0.75c-0.49-2.33-0.49-2.33-2.8-2.33c-2.64,0-5.28-0.01-7.92,0c-1.5,0.01-1.91,0.42-1.91,1.94
			c-0.01,2.84-0.01,5.68,0,8.52c0,1.63,0.4,2.01,2.08,2.02c2.56,0.01,5.12,0,7.68,0C260.51,265.28,260.79,264.97,260.55,262.17z" fill="white"/>
		<path d="M96.72,231.17c-1.99,0-3.92,0-5.99,0c0.06-0.36,0.09-0.65,0.17-0.94c0.62-2.17-0.51-4.24-2.68-4.88
			c-1.98-0.58-4.09,0.56-4.66,2.68c-0.24,0.9-0.66,1.12-1.49,1.07c-1.15-0.06-2.31-0.01-3.53-0.01c-0.04-1.11,0.59-1.66,1.37-1.96
			c0.61-0.23,0.87-0.43,0.84-1.17c-0.07-1.93,1.2-3.22,3.14-3.37c0.36-0.03,0.72-0.01,1.08-0.02c2.43,0,3.59-0.88,4.65-3.09
			c0.31-0.64,1.24-1.36,1.86-1.35c0.7,0.02,1.65,0.69,1.99,1.34c0.4,0.76,0.77,0.95,1.52,0.94c2-0.03,4,0.01,6-0.02
			c1.31-0.02,2.28,0.5,3.09,1.52c0.27,0.34,0.83,0.63,1.26,0.63c11.68,0.03,23.36,0.02,35.04,0.04c0.68,0,1.07-0.21,1.38-0.86
			c0.43-0.91,1.25-1.36,2.28-1.15c1.05,0.22,1.66,0.92,1.77,2c0.04,0.36,0.06,0.72,0.02,1.08c-0.07,0.64,0.14,1,0.77,1.27
			c1.04,0.45,1.65,1.26,1.42,2.48c-0.19,0.95-1.25,1.68-2.48,1.68c-13.44,0.01-26.88,0-40.32,0.01c-0.67,0-1.06-0.12-1.3-0.87
			c-0.72-2.25-2.79-3.32-4.9-2.65c-2.02,0.64-2.96,2.59-2.38,4.91C96.71,230.68,96.69,230.88,96.72,231.17z" fill="white"/>
		<path d="M110.87,242.12c-1.11,0-2.13,0.01-3.16-0.01c-0.61-0.01-1.02,0.14-0.96,0.86c0.18,2.28-0.69,4.32-1.6,6.32
			c-1.36,2.98-2.8,5.92-4.22,8.87c-2.26,4.68-6.22,6.9-11.17,7.62c-0.99,0.14-2,0.33-2.98,0.23c-3.34-0.33-4.95-3.67-3.25-6.73
			c0.48-0.86,1.2-1.59,1.82-2.36c2.87-3.59,5.77-7.16,8.59-10.78c0.68-0.87,1.26-1.86,1.65-2.89c0.68-1.8-0.32-3.22-2.24-3.29
			c-1.68-0.06-3.36-0.01-5.04-0.02c-1.54-0.01-2.72-1.04-3.02-2.64c0.86,0,1.71,0,2.56,0c6.56,0,13.11,0.03,19.67-0.01
			c1.08-0.01,1.64,0.22,1.9,1.4C109.66,239.8,110.29,240.82,110.87,242.12z" fill="white"/>
		<path d="M304.3,257.28c0,4.91,0,9.5,0,14.16c-2.07,0-4.08,0-6.16,0c0-8.25,0-16.47,0-24.87c1.35,0,2.73-0.04,4.11,0.03
			c0.32,0.02,0.66,0.39,0.94,0.66c4.16,4.15,8.32,8.3,12.47,12.46c0.3,0.3,0.62,0.59,1.1,1.04c0-4.83,0-9.44,0-14.12
			c2.13,0,4.14,0,6.21,0c0,8.26,0,16.48,0,24.87c-1.36,0-2.75,0.04-4.12-0.03c-0.32-0.02-0.66-0.39-0.93-0.66
			c-4.16-4.15-8.31-8.31-12.47-12.46C305.14,258.06,304.83,257.78,304.3,257.28z" fill="white"/>
		<path d="M210.39,271.46c-2.07,0-4.05,0-6.13,0c0-3.08,0-6.1,0-9.21c-4.18,0-8.27,0-12.45,0c0,3.03,0,6.06,0,9.17
			c-2.1,0-4.11,0-6.21,0c0-8.23,0-16.48,0-24.8c2.02,0,4.03,0,6.13,0c0,3.07,0,6.09,0,9.2c4.18,0,8.26,0,12.49,0
			c0-3.05,0-6.11,0-9.21c2.12,0,4.1,0,6.17,0C210.39,254.87,210.39,263.12,210.39,271.46z" fill="white"/>
		<path d="M288.71,246.62c2.15,0,4.14,0,6.24,0c0,0.69,0,1.31,0,1.94c0,4.88,0,9.75,0,14.63c0,0.56,0.01,1.12-0.04,1.68
			c-0.41,4.29-2.82,6.57-7.15,6.64c-3.56,0.06-7.12,0.07-10.67,0c-4.37-0.09-6.98-2.61-7.06-6.96c-0.1-5.83-0.03-11.67-0.03-17.51
			c0-0.11,0.04-0.23,0.08-0.4c1.99,0,3.97,0,6.15,0c0,0.38,0,0.8,0,1.22c0,5.08,0,10.15,0,15.23c0,1.85,0.34,2.2,2.13,2.2
			c2.76,0.01,5.52,0.01,8.27,0c1.66-0.01,2.06-0.4,2.06-2.04c0.01-5.08,0-10.15,0-15.23C288.71,247.57,288.71,247.14,288.71,246.62z" fill="white"/>
		<path d="M120.09,246.62c2.07,0,4.06,0,6.13,0c0,6.2,0,12.35,0,18.62c6.26,0,12.43,0,18.67,0c0,2.14,0,4.15,0,6.22
			c-8.27,0-16.49,0-24.8,0C120.09,263.21,120.09,254.96,120.09,246.62z" fill="white"/>
		<path d="M238.76,246.65c0,2.05,0,4,0,6.1c-3.06,0-6.11,0-9.3,0c0,6.31,0,12.48,0,18.71c-2.12,0-4.1,0-6.23,0
			c0-6.15,0-12.32,0-18.59c-3.16,0-6.18,0-9.3,0c0-2.11,0-4.12,0-6.22C222.15,246.65,230.4,246.65,238.76,246.65z" fill="white"/>
		<path d="M154.27,246.62c0,8.29,0,16.51,0,24.81c-2.02,0-4.03,0-6.12,0c0-8.25,0-16.5,0-24.81
			C150.17,246.62,152.15,246.62,154.27,246.62z" fill="white"/>
		<path d="M121.53,230.92c-0.44,2.22-2.51,4.14-4.82,4.52c-0.67,0.11-1.35,0.14-2.03,0.14c-8.88,0.01-17.75-0.03-26.63,0.02
			c-2.99,0.02-5.26-1.03-6.73-3.71c-0.23-0.42-0.82-0.65-1.21-0.94c1.48-0.55,3.21-0.11,4.4,0.79c0.77,0.58,1.85,1.04,2.8,1.07
			c4.32,0.11,8.64,0.05,12.95,0.05c1.27,0,2.31-0.48,3.14-1.49c0.24-0.3,0.71-0.58,1.07-0.59c5.56-0.03,11.12-0.02,16.67-0.01
			C121.25,230.77,121.35,230.85,121.53,230.92z" fill="white"/>
		<path d="M87.24,231.22c-1.18,0.02-2.14-0.9-2.16-2.09c-0.03-1.17,0.89-2.16,2.06-2.21c1.21-0.05,2.24,0.94,2.23,2.16
			C89.36,230.26,88.42,231.2,87.24,231.22z" fill="white"/>
		<path d="M100.19,231.22c-1.23-0.02-2.12-0.91-2.11-2.11c0.01-1.17,0.97-2.11,2.15-2.11c1.23,0,2.21,1,2.16,2.22
			C102.35,230.42,101.46,231.23,100.19,231.22z" fill="white"/>
	</g>
</g>
</svg>
