<?xml version="1.0" encoding="utf-8"?>
<!-- Made by Szalik  -->
<svg version="1.1" id="Warstwa_1" xmlns="http://www.w3.org/2000/svg" xmlns:xlink="http://www.w3.org/1999/xlink" x="0px" y="0px" xml:space="preserve">
<g>
	<g>
		<path d="M317.11,227.55c-1.92,0.25-3.77,0.48-5.6,0.72c-0.08-0.13-0.15-0.19-0.16-0.26c-0.2-1.81-0.34-1.94-2.13-1.94
			c-2.6-0.01-5.2-0.01-7.79,0c-1.43,0.01-1.8,0.34-1.81,1.76c-0.03,2.72-0.03,5.44,0,8.15c0.01,1.42,0.37,1.78,1.79,1.8
			c2.6,0.03,5.2,0.02,7.79,0.01c1.89-0.01,2.15-0.29,2.11-2.18c0-0.16-0.03-0.31-0.06-0.61c-0.38-0.02-0.76-0.05-1.14-0.06
			c-1.96-0.01-3.92-0.03-5.88,0.01c-0.73,0.02-1.05-0.21-1.2-0.96c-0.33-1.63-0.79-3.23-1.21-4.92c5.17,0,10.2,0,15.21,0
			c0.06,0.09,0.15,0.16,0.15,0.22c-0.02,2.8,0.12,5.6-0.11,8.38c-0.31,3.83-2.53,5.85-6.35,5.96c-3.47,0.1-6.96,0.09-10.43,0
			c-3.96-0.1-6.36-2.43-6.49-6.38c-0.12-3.55-0.11-7.12,0-10.67c0.12-3.95,2.51-6.3,6.46-6.41c3.47-0.1,6.96-0.1,10.43,0
			C314.94,220.31,317.44,223.19,317.11,227.55z" fill="white"/>
		<path d="M311.17,270.95c-2.26,0-4.45,0-6.65,0c-1.25,0-1.25,0-1.56-1.25c-0.38-1.51-0.74-3.01-1.12-4.6c5.16,0,10.21,0,15.39,0
			c0,1.25,0.01,2.44,0,3.63c-0.03,1.68,0.03,3.36-0.14,5.03c-0.38,3.7-2.47,5.73-6.2,5.86c-3.59,0.13-7.2,0.13-10.79,0
			c-3.85-0.14-6.15-2.45-6.29-6.32c-0.13-3.59-0.13-7.2,0-10.79c0.14-3.91,2.5-6.22,6.41-6.33c3.51-0.1,7.04-0.11,10.55,0
			c4.19,0.14,6.52,2.85,6.38,7.34c-1.86,0.25-3.74,0.5-5.58,0.74c-0.1-0.11-0.19-0.16-0.2-0.22c-0.25-1.89-0.35-1.99-2.21-1.99
			c-2.56,0-5.12-0.01-7.67,0c-1.5,0.01-1.85,0.34-1.86,1.83c-0.02,2.68-0.02,5.36,0,8.03c0.01,1.49,0.36,1.83,1.86,1.85
			c2.52,0.03,5.04,0.01,7.55,0.01C311.2,273.79,311.55,273.35,311.17,270.95z" fill="white"/>
		<path d="M205.77,272.35c1.92-0.23,3.77-0.44,5.66-0.66c0.06,0.32,0.09,0.51,0.12,0.7c0.21,1.11,0.43,1.34,1.58,1.38
			c1.28,0.04,2.56,0.02,3.84,0.02c1.6,0,3.2,0.02,4.8-0.03c0.97-0.03,1.33-0.36,1.44-1.11c0.16-1.07-0.32-1.67-1.45-1.69
			c-1.76-0.04-3.52,0-5.28-0.02c-1.52-0.01-3.04,0.01-4.55-0.1c-3.69-0.28-5.66-2.04-6.12-5.68c-0.18-1.44-0.08-2.97,0.22-4.39
			c0.59-2.78,2.69-4.44,5.86-4.55c3.67-0.14,7.36-0.17,11.03,0.01c4.09,0.2,6.27,2.88,6.15,7.31c-1.86,0.25-3.74,0.5-5.57,0.74
			c-0.11-0.11-0.2-0.15-0.21-0.21c-0.25-1.89-0.35-1.99-2.21-1.99c-2.64,0-5.28-0.02-7.91,0.01c-1.29,0.01-1.83,0.75-1.53,1.95
			c0.18,0.74,0.58,1,1.66,1.01c2.84,0.01,5.68-0.01,8.51,0.02c0.83,0.01,1.68,0.08,2.49,0.26c2.3,0.51,3.83,1.87,4.45,4.19
			c0.49,1.81,0.52,3.64,0.07,5.45c-0.71,2.88-2.66,4.54-5.91,4.66c-3.67,0.14-7.36,0.17-11.03,0
			C207.77,279.42,205.41,276.54,205.77,272.35z" fill="white"/>
		<path d="M229.05,243.68c-1.24,0-2.41,0.06-3.56-0.03c-0.41-0.03-0.87-0.34-1.18-0.65c-3.89-3.86-7.75-7.74-11.61-11.63
			c-0.3-0.3-0.47-0.73-0.71-1.1c-0.14,0.09-0.29,0.19-0.43,0.28c0,4.33,0,8.66,0,13.06c-2,0-3.86,0-5.81,0c0-7.77,0-15.54,0-23.44
			c1.27,0,2.54-0.05,3.79,0.03c0.36,0.03,0.74,0.42,1.03,0.71c3.85,3.84,7.68,7.7,11.52,11.55c0.3,0.3,0.62,0.58,1.12,1.05
			c0-4.57,0-8.9,0-13.28c2,0,3.86,0,5.82,0C229.05,227.99,229.05,235.76,229.05,243.68z" fill="white"/>
		<path d="M290.77,220.26c0,7.8,0,15.54,0,23.41c-1.32,0-2.59,0.05-3.85-0.03c-0.33-0.02-0.67-0.38-0.94-0.65
			c-3.88-3.87-7.74-7.75-11.61-11.63c-0.3-0.3-0.6-0.6-1.13-0.81c0,4.33,0,8.66,0,13.05c-2,0-3.86,0-5.8,0c0-7.78,0-15.55,0-23.45
			c1.25,0,2.48-0.06,3.7,0.03c0.4,0.03,0.83,0.41,1.15,0.73c3.85,3.84,7.68,7.7,11.52,11.54c0.3,0.3,0.62,0.57,1.08,1
			c0-4.52,0-8.81,0-13.21C286.86,220.26,288.76,220.26,290.77,220.26z" fill="white"/>
		<path d="M284.91,269.51c0-4.57,0-8.89,0-13.28c2,0,3.86,0,5.82,0c0,7.76,0,15.53,0,23.45c-1.26,0-2.53,0.04-3.79-0.03
			c-0.33-0.02-0.68-0.37-0.95-0.63c-3.88-3.87-7.75-7.74-11.6-11.63c-0.3-0.3-0.53-0.69-0.79-1.03c-0.11,0.07-0.23,0.13-0.34,0.2
			c0,4.33,0,8.66,0,13.06c-2,0-3.87,0-5.81,0c0-7.76,0-15.53,0-23.44c1.26,0,2.53-0.05,3.79,0.03c0.36,0.03,0.74,0.42,1.03,0.71
			c3.85,3.84,7.68,7.7,11.52,11.55C284.08,268.76,284.41,269.04,284.91,269.51z" fill="white"/>
		<path d="M170.69,279.62c0-7.85,0-15.59,0-23.4c7.79,0,15.53,0,23.34,0c0,1.9,0,3.76,0,5.81c-5.8,0-11.6,0-17.47,0
			c0,1.09,0,1.99,0,3c5.84,0,11.62,0,17.47,0c0,1.97,0,3.83,0,5.88c-5.8,0-11.6,0-17.54,0c0,3,0,5.82,0,8.7
			C174.5,279.62,172.64,279.62,170.69,279.62z" fill="white"/>
		<path d="M176.5,243.62c-1.96,0-3.82,0-5.81,0c0-2.88,0-5.7,0-8.59c-3.94,0-7.75,0-11.69,0c0,2.87,0,5.69,0,8.58
			c-1.99,0-3.85,0-5.79,0c0-7.76,0-15.53,0-23.37c1.85,0,3.71,0,5.73,0c0,2.88,0,5.77,0,8.73c3.97,0,7.78,0,11.74,0
			c0-2.9,0-5.79,0-8.74c2.01,0,3.87,0,5.83,0C176.5,227.99,176.5,235.76,176.5,243.62z" fill="white"/>
		<path d="M237.94,271.04c0,2.91,0,5.7,0,8.56c-1.95,0-3.81,0-5.77,0c0-7.74,0-15.5,0-23.36c1.86,0,3.75,0,5.75,0
			c0,2.9,0,5.77,0,8.71c3.92,0,7.73,0,11.69,0c0-2.88,0-5.77,0-8.72c2.03,0,3.93,0,5.88,0c0,7.8,0,15.54,0,23.36
			c-1.92,0-3.81,0-5.82,0c0-2.83,0-5.65,0-8.56C245.73,271.04,241.92,271.04,237.94,271.04z" fill="white"/>
		<path d="M179.56,220.2c1.97,0,3.8,0,5.74,0c0.02,0.45,0.06,0.88,0.06,1.3c0,4.56,0,9.11,0,13.67c0,0.4-0.01,0.8,0.03,1.2
			c0.1,1.01,0.41,1.38,1.43,1.39c2.92,0.04,5.83,0.05,8.75,0.01c1.19-0.02,1.48-0.4,1.49-1.69c0.02-4.36,0.01-8.71,0.01-13.07
			c0-0.91,0-1.82,0-2.78c1.99,0,3.86,0,5.81,0c0.03,0.3,0.09,0.6,0.09,0.91c0.01,5,0.01,9.99-0.01,14.99c0,0.8-0.07,1.6-0.21,2.38
			c-0.52,3.07-2.63,4.98-6.03,5.12c-3.67,0.14-7.36,0.17-11.03,0c-3.96-0.19-6.15-2.68-6.18-6.8c-0.05-5.32-0.01-10.63-0.01-15.95
			C179.52,220.68,179.55,220.48,179.56,220.2z" fill="white"/>
		<path d="M113.32,229.54c0,3.63,0.01,7.27-0.01,10.9c0,0.26-0.13,0.53-0.25,0.78c-2.12,4.16-4.25,8.32-6.37,12.49
			c-1.42,2.8-0.84,4.87,1.81,6.53c1.02,0.64,2.05,1.25,3.04,1.92c0.29,0.2,0.62,0.58,0.63,0.89c0.06,1.83,0.03,3.67,0.03,5.79
			c-4.97-3.1-9.74-6.08-14.58-9.11c2.8-5.5,5.55-10.89,8.42-16.52c-0.26-0.17-0.56-0.31-0.79-0.52c-2.07-1.82-4.09-3.71-6.21-5.47
			c-2.31-1.91-5.65-1.65-7.74,0.47c-2.08,2.12-2.23,5.47-0.34,7.75c0.12,0.14,0.27,0.25,0.52,0.48c0.33-1.05,0.62-1.98,0.91-2.91
			c0.08-0.01,0.15-0.02,0.23-0.03c1.43,3.42,2.87,6.84,4.3,10.26c-0.06,0.05-0.12,0.1-0.19,0.14c-0.21-0.13-0.45-0.24-0.63-0.4
			c-1.98-1.74-3.98-3.47-5.93-5.25c-3.3-3-3.62-7.94-0.77-11.21c2.92-3.35,7.86-3.71,11.3-0.78c2.1,1.79,4.13,3.65,6.29,5.58
			c2.05-4.01,4.06-7.93,6.07-11.86C113.15,229.5,113.23,229.52,113.32,229.54z" fill="white"/>
		<path d="M138.7,253.42c1.5-3.58,2.92-6.99,4.35-10.4c0.07-0.01,0.15-0.02,0.22-0.02c0.31,0.94,0.61,1.87,0.93,2.85
			c3.18-2.76,2.06-8.09-1.93-9.53c-2.07-0.75-4.06-0.46-5.74,0.99c-2.4,2.05-4.73,4.18-7.18,6.36c2.72,5.33,5.43,10.65,8.19,16.06
			c-4.75,2.97-9.45,5.91-14.37,8.99c0-1.59,0.11-2.97-0.03-4.33c-0.15-1.46,0.31-2.41,1.67-3.01c0.76-0.34,1.44-0.86,2.14-1.32
			c2.23-1.44,2.87-3.66,1.68-6.02c-2.03-4.03-4.12-8.04-6.13-12.08c-0.32-0.65-0.52-1.43-0.53-2.16c-0.05-3.35-0.02-6.7-0.02-10.05
			c0.08-0.03,0.16-0.06,0.24-0.09c2.02,3.95,4.04,7.9,6.11,11.94c0.29-0.22,0.55-0.39,0.77-0.6c2.01-1.77,3.97-3.61,6.02-5.32
			c4.28-3.56,10.66-1.95,12.59,3.23c1.16,3.11,0.63,6.06-1.76,8.42c-2.13,2.1-4.47,4-6.72,5.98
			C139.15,253.35,139.06,253.34,138.7,253.42z" fill="white"/>
		<path d="M246.75,243.64c-2.02,0-3.85,0-5.85,0c0-5.84,0-11.65,0-17.56c-2.99,0-5.82,0-8.73,0c0-2,0-3.89,0-5.85
			c7.73,0,15.47,0,23.29,0c0,1.89,0,3.78,0,5.82c-2.89,0-5.75,0-8.71,0C246.75,231.98,246.75,237.76,246.75,243.64z" fill="white"/>
		<path d="M120.72,270.49c-2.07,0-4.09,0-6.27,0c0-1.37,0.01-2.71,0-4.05c-0.02-4.52-0.06-9.03-0.07-13.55
			c0-2.68,0.03-5.35,0.09-8.03c0.01-0.54,0.13-1.12,0.38-1.59c0.44-0.84,0.64-1.69,0.6-2.64c-0.05-1.4-0.01-2.79-0.01-4.29
			c1.43,0,2.8,0,4.28,0c0.03,0.26,0.1,0.56,0.11,0.86c0.01,1.16,0.04,2.32,0,3.48c-0.03,0.9,0.14,1.72,0.58,2.53
			c0.24,0.43,0.38,0.98,0.38,1.47c0.02,8.35,0.02,16.71,0.01,25.06C120.79,269.97,120.75,270.2,120.72,270.49z" fill="white"/>
		<path d="M163.8,264.09c-0.34,1.37-0.63,2.56-0.97,3.94c-0.83,0-1.65,0-2.47,0c-0.8,0-1.6,0.01-2.4,0
			c-0.67-0.01-0.94,0.39-0.94,0.98c0,0.6,0.28,0.97,0.95,0.97c1.87-0.01,3.75,0,5.71,0c-0.01-0.98,0.69-1.14,1.4-1.31
			c0.81-0.19,1.61-0.4,2.54-0.63c0.05,0.64,0.1,1.18,0.15,1.78c0.27,0.1,0.56,0.2,0.89,0.31c0,1.19,0,2.38,0,3.65
			c-0.26,0.08-0.55,0.16-0.81,0.24c-0.4,0.53-0.02,1.41,0.82,1.93c0,1.18,0,2.38,0,3.79c-0.78-0.15-1.49-0.31-2.2-0.4
			c-0.45-0.06-0.91-0.05-1.36,0c-0.79,0.09-1.57,0.3-2.35,0.33c-1.52,0.05-3.04,0.02-4.55,0.02c-3.8,0-5.72-2.23-4.95-5.96
			c0.24-1.19,0.34-2.27,0-3.45c-0.19-0.63-0.13-1.35-0.08-2.02c0.21-2.53,1.59-3.99,4.12-4.13
			C159.38,263.99,161.5,264.09,163.8,264.09z M163.77,273.92c-1.94,0-3.8,0.01-5.66,0c-0.68,0-1.09,0.29-1.08,0.97
			c0.01,0.75,0.54,0.86,1.16,0.85c1.39-0.02,2.78,0,4.17-0.01C163.74,275.73,163.85,275.59,163.77,273.92z" fill="white"/>
		<path d="M258.56,220.2c1.92,0,3.75,0,5.67,0c0,7.8,0,15.57,0,23.41c-1.86,0-3.73,0-5.67,0
			C258.56,235.85,258.56,228.08,258.56,220.2z" fill="white"/>
		<path d="M197.12,256.2c1.92,0,3.75,0,5.67,0c0,7.8,0,15.57,0,23.41c-1.87,0-3.73,0-5.67,0
			C197.12,271.85,197.12,264.08,197.12,256.2z" fill="white"/>
		<path d="M264.24,279.64c-1.93,0-3.76,0-5.67,0c0-7.8,0-15.57,0-23.41c1.86,0,3.72,0,5.67,0
			C264.24,264,264.24,271.77,264.24,279.64z" fill="white"/>
		<path d="M131.42,265.96c0.71-0.45,1.27-0.81,1.9-1.21c1.55,1.37,3.06,2.72,4.58,4.07c0.45,0.4,0.91,0.78,1.34,1.2
			c0.61,0.61,1.28,0.81,2.17,0.69c2.46-0.33,4.33,1.66,3.88,4.03c-0.33,1.72-1.93,2.96-3.64,2.8c-1.77-0.16-3.29-1.59-3.12-3.32
			c0.15-1.6-0.56-2.51-1.66-3.43C135.06,269.28,133.34,267.67,131.42,265.96z M143.34,274.11c0.01-0.81-0.6-1.46-1.38-1.47
			c-0.84-0.02-1.55,0.67-1.53,1.48c0.02,0.75,0.72,1.43,1.48,1.43C142.68,275.55,143.33,274.91,143.34,274.11z" fill="white"/>
		<path d="M102.19,264.96c0.61,0.39,1.18,0.76,2.1,1.35c-0.44,0.26-0.79,0.4-1.05,0.63c-1.74,1.53-3.46,3.09-5.21,4.61
			c-0.62,0.54-0.93,1.14-0.85,1.99c0.05,0.54,0.02,1.13-0.13,1.65c-0.5,1.67-2.29,2.68-3.97,2.3c-1.74-0.39-2.87-1.95-2.7-3.72
			c0.17-1.78,1.61-3.27,3.37-3.04c1.59,0.21,2.55-0.48,3.57-1.43C98.89,267.83,100.53,266.43,102.19,264.96z M95.26,274.1
			c0-0.78-0.64-1.42-1.44-1.43c-0.82-0.01-1.43,0.57-1.45,1.39c-0.03,0.85,0.64,1.53,1.47,1.5
			C94.61,275.54,95.27,274.87,95.26,274.1z" fill="white"/>
		<path d="M119.8,234.23c-1.49,0-2.86,0-4.3,0c-0.26-3.61-0.01-7.07,1.5-10.35c0.12-0.25,0.4-0.43,0.61-0.64
			c0.21,0.21,0.51,0.38,0.62,0.64c0.87,2.07,1.52,4.21,1.57,6.48C119.82,231.62,119.8,232.89,119.8,234.23z" fill="white"/>
		<path d="M114.57,274.39c0-0.73,0-1.31,0-1.98c2.05,0,4.06,0,6.12,0c0,0.67,0,1.28,0,1.98
			C118.66,274.39,116.66,274.39,114.57,274.39z" fill="white"/>
	</g>
</g>
</svg>
