<?xml version="1.0" encoding="utf-8"?>
<!-- Made by Szalik  -->
<svg version="1.1" id="Warstwa_1" xmlns="http://www.w3.org/2000/svg" xmlns:xlink="http://www.w3.org/1999/xlink" x="0px" y="0px" xml:space="preserve">
<g>
	<g>
		<path d="M118.14,243.07c-0.43,1.05-0.85,2.1-1.28,3.16c-0.21,0.52-0.42,1.04-0.63,1.55c-0.74,1.8-1.61,2.27-3.46,1.81
			c-2.64-0.65-5.27-1.32-7.9-1.98c-0.23-0.06-0.47-0.11-0.69-0.19c-1.21-0.46-1.8-1.6-1.46-2.78c0.32-1.1,1.41-1.79,2.63-1.52
			c1.91,0.41,3.81,0.92,5.71,1.38c0.46,0.11,0.92,0.22,1.45,0.34c0.19-0.44,0.37-0.83,0.53-1.24c1.03-2.56,2.08-5.1,3.06-7.68
			c0.43-1.12,1.15-1.78,2.31-2.01c3.57-0.7,7.13-1.42,10.69-2.14c1.01-0.2,1.8,0.17,2.49,0.86c1.44,1.44,2.88,2.89,4.33,4.32
			c0.28,0.28,0.57,0.54,0.91,0.85c1.6-1.07,3.15-2.12,4.73-3.13c0.46-0.29,0.99-0.54,1.52-0.63c0.96-0.16,1.85,0.39,2.25,1.24
			c0.36,0.79,0.21,1.8-0.41,2.45c-0.25,0.26-0.54,0.48-0.84,0.68c-1.96,1.32-3.91,2.63-5.89,3.93c-1.47,0.97-2.38,0.88-3.63-0.35
			c-1.26-1.23-2.49-2.49-3.74-3.73c-0.27-0.27-0.56-0.53-1-0.95c-0.04,0.56-0.08,0.94-0.08,1.31c0,8.44,0,16.87-0.02,25.31
			c0,0.72,0.19,1.29,0.63,1.86c1.81,2.34,3.6,4.7,5.35,7.08c0.34,0.46,0.61,1.05,0.69,1.61c0.15,1.01-0.4,1.84-1.28,2.21
			c-0.97,0.41-1.92,0.24-2.59-0.6c-0.95-1.18-1.84-2.42-2.75-3.63c-1.15-1.53-2.27-3.09-3.47-4.6c-0.7-0.88-1.09-1.83-1.22-2.94
			c-0.32-2.66-0.69-5.31-1.05-7.96c-0.04-0.31-0.12-0.62-0.23-1.15c-0.22,0.41-0.38,0.65-0.49,0.9c-1.21,2.74-2.39,5.5-3.62,8.22
			c-0.29,0.63-0.3,1.16-0.07,1.81c1.1,3,2.17,6.01,3.22,9.03c0.52,1.5-0.1,2.78-1.53,3.26c-1.08,0.36-2.13-0.07-2.56-1.13
			c-1.54-3.82-3.04-7.65-4.58-11.46c-0.31-0.78-0.18-1.47,0.1-2.2c1.25-3.33,2.5-6.66,3.7-10c0.25-0.7,0.39-1.47,0.4-2.21
			c0.05-2.6,0.02-5.2,0.02-7.8c0-0.38,0-0.76,0-1.14C118.32,243.1,118.23,243.08,118.14,243.07z" fill="white"/>
		<path d="M280.41,227.96c-5.79,0-11.57,0-17.43,0c0,1.04,0,1.94,0,2.97c4.82,0,9.64,0,14.51,0c0,2,0,3.86,0,5.89
			c-4.82,0-9.63,0-14.52,0c0,1.02,0,1.88,0,2.88c5.83,0,11.6,0,17.45,0c0,2,0,3.86,0,5.81c-7.74,0-15.48,0-23.3,0
			c0-7.73,0-15.5,0-23.35c7.72,0,15.45,0,23.28,0C280.41,224.03,280.41,225.92,280.41,227.96z" fill="white"/>
		<path d="M153.17,245.6c0-7.91,0-15.65,0-23.46c0.39-0.02,0.74-0.05,1.09-0.05c4.99,0,9.99-0.01,14.98,0.01
			c0.75,0,1.52,0.08,2.26,0.22c2.8,0.53,4.53,2.32,4.89,5.16c0.16,1.22,0.19,2.47,0.19,3.7c-0.01,2.83,0.09,5.68-0.15,8.5
			c-0.32,3.83-2.61,5.83-6.52,5.91c-3.59,0.07-7.19,0.02-10.79,0.02C157.16,245.6,155.21,245.6,153.17,245.6z M159.05,228.06
			c0,3.87,0,7.68,0,11.52c0.2,0.05,0.35,0.13,0.5,0.13c3.19,0.01,6.39,0.03,9.58-0.01c1.22-0.02,1.53-0.38,1.54-1.64
			c0.02-2.75,0.02-5.51,0-8.27c-0.01-1.51-0.3-1.78-1.87-1.79c-2.91-0.01-5.83-0.01-8.74,0
			C159.75,227.99,159.43,228.03,159.05,228.06z" fill="white"/>
		<path d="M210.11,232.52c0,4.3,0,8.61,0,12.99c-1.95,0-3.82,0-5.78,0c0-7.73,0-15.49,0-23.42c1.26,0,2.56-0.06,3.86,0.04
			c0.36,0.03,0.71,0.46,1.01,0.76c3.82,3.82,7.62,7.64,11.43,11.46c0.3,0.3,0.62,0.59,1.12,1.06c0-4.54,0-8.86,0-13.26
			c2.03,0,3.92,0,5.88,0c0,7.78,0,15.52,0,23.43c-1.31,0-2.61,0.05-3.9-0.03c-0.32-0.02-0.65-0.41-0.93-0.69
			c-3.87-3.87-7.74-7.75-11.61-11.63c-0.28-0.28-0.57-0.54-0.85-0.82C210.27,232.46,210.19,232.49,210.11,232.52z" fill="white"/>
		<path d="M244.27,264.1c-1.69,0.23-3.42,0.46-5.1,0.69c-0.1-0.13-0.17-0.18-0.18-0.24c-0.27-1.82-0.36-1.9-2.2-1.9
			c-2.4,0-4.8-0.01-7.2,0c-1.08,0.01-1.51,0.35-1.59,1.21c-0.11,1.07,0.38,1.63,1.52,1.65c2.64,0.02,5.28-0.01,7.92,0.02
			c0.79,0.01,1.6,0.07,2.38,0.23c2.29,0.46,3.88,1.81,4.27,4.14c0.25,1.51,0.33,3.12,0.08,4.63c-0.47,2.88-2.46,4.51-5.58,4.62
			c-3.43,0.13-6.88,0.15-10.31-0.01c-3.84-0.18-6.01-2.84-5.71-6.78c1.74-0.21,3.5-0.42,5.21-0.63c0.23,0.62,0.28,1.31,0.64,1.58
			c0.42,0.31,1.11,0.35,1.69,0.36c2.4,0.03,4.8,0.02,7.2,0.01c0.66,0,1.3-0.06,1.53-0.85c0.32-1.05-0.22-1.76-1.42-1.78
			c-2.52-0.02-5.04,0-7.56-0.01c-0.68,0-1.37,0.01-2.03-0.1c-3.11-0.47-4.75-1.98-5.17-5.09c-0.2-1.47-0.12-3.05,0.19-4.5
			c0.55-2.57,2.53-4.08,5.46-4.18c3.43-0.12,6.88-0.16,10.31,0.01C242.49,257.37,244.68,260.14,244.27,264.1z" fill="white"/>
		<path d="M248.2,235.31c2.03,0.5,3.91,0.97,5.87,1.45c0.12,1.81,0.05,3.55-0.64,5.21c-1.03,2.5-3.15,3.48-5.63,3.57
			c-3.63,0.13-7.28,0.15-10.91,0c-3.81-0.16-6.05-2.46-6.19-6.28c-0.13-3.59-0.13-7.2,0-10.79c0.13-3.91,2.49-6.23,6.39-6.35
			c3.51-0.11,7.04-0.1,10.55,0c3.82,0.11,5.91,2.15,6.36,5.99c0.11,0.9,0.1,1.82,0.14,2.74c-0.45,0.14-0.79,0.26-1.13,0.34
			c-1.54,0.39-3.09,0.76-4.8,1.18c0-0.99,0.02-1.85,0-2.72c-0.03-1.32-0.33-1.64-1.65-1.65c-2.8-0.02-5.6-0.02-8.39,0
			c-1.22,0.01-1.62,0.36-1.64,1.56c-0.04,2.84-0.04,5.68,0,8.51c0.02,1.23,0.38,1.6,1.59,1.62c2.84,0.04,5.68,0.04,8.51,0
			c1.24-0.02,1.54-0.37,1.58-1.61C248.21,237.21,248.2,236.34,248.2,235.31z" fill="white"/>
		<path d="M195.25,279.14c-1.83,0-3.57,0-5.41,0c0-4.12,0-8.18,0-12.22c-2.22,2.24-4.39,4.43-6.67,6.73
			c-2.42-2.43-4.62-4.63-7.01-7.03c0,4.32,0,8.37,0,12.5c-1.87,0-3.64,0-5.47,0c0-7.3,0-14.56,0-21.98c1.21,0,2.43-0.04,3.65,0.03
			c0.29,0.02,0.59,0.36,0.84,0.61c2.29,2.29,4.57,4.59,6.84,6.89c0.28,0.28,0.5,0.63,0.8,1.01c0.43-0.39,0.73-0.64,1-0.91
			c2.31-2.32,4.63-4.64,6.92-6.98c0.45-0.46,0.89-0.72,1.55-0.68c0.95,0.05,1.91,0.01,2.95,0.01
			C195.25,264.47,195.25,271.76,195.25,279.14z" fill="white"/>
		<path d="M277.25,265.42c-1.84,0.46-3.53,0.88-5.42,1.35c0-0.86,0.02-1.61,0-2.35c-0.04-1.45-0.36-1.77-1.78-1.77
			c-2.48-0.01-4.96-0.01-7.44,0c-1.38,0.01-1.72,0.33-1.73,1.68c-0.01,2.56-0.01,5.12,0,7.68c0.01,1.29,0.36,1.66,1.63,1.67
			c2.56,0.02,5.12,0.02,7.68,0c1.23-0.01,1.56-0.34,1.64-1.55c0.03-0.4,0.01-0.8,0.01-1.2c0-0.39,0-0.78,0-1.37
			c1.86,0.46,3.57,0.88,5.27,1.3c1.19,4.51-1.49,8.22-6.03,8.32c-3.16,0.07-6.32,0.07-9.48,0c-3.84-0.08-6.11-2.33-6.2-6.17
			c-0.08-3.24-0.08-6.48,0-9.72c0.1-3.83,2.37-6.08,6.22-6.15c3.16-0.06,6.32-0.07,9.48,0c3.79,0.08,5.92,2.18,6.16,5.94
			C277.29,263.83,277.25,264.58,277.25,265.42z" fill="white"/>
		<path d="M194.52,242.73c-3.14,0-6.22,0.01-9.29-0.01c-0.52,0-0.8,0.18-1.03,0.63c-0.37,0.75-0.79,1.47-1.2,2.22
			c-2.18,0-4.33,0-6.64,0c4.39-8.26,8.72-16.43,13.19-24.85c4.43,8.34,8.77,16.51,13.23,24.89c-1.39,0-2.6,0.01-3.81,0
			c-0.92-0.01-2.01,0.27-2.7-0.13c-0.69-0.39-0.97-1.48-1.44-2.26C194.75,243.07,194.66,242.94,194.52,242.73z M187.73,236.74
			c1.33,0,2.41,0,3.67,0c-0.63-1.19-1.18-2.23-1.83-3.44C188.91,234.52,188.35,235.56,187.73,236.74z" fill="white"/>
		<path d="M198.07,257.18c1.79,0,3.53,0,5.44,0c0,0.45,0,0.87,0,1.29c0,4.4,0,8.79,0,13.19c0,1.75,0.26,2.01,2,2.02
			c2.32,0.01,4.64,0.01,6.96,0c1.71,0,2-0.29,2-2.05c0.01-4.36,0-8.71,0-13.07c0-0.43,0-0.86,0-1.37c1.84,0,3.58,0,5.4,0
			c0.02,0.42,0.06,0.8,0.06,1.19c0,4.48,0,8.95,0,13.43c0,0.52-0.02,1.04-0.06,1.56c-0.25,3.53-2.26,5.64-5.8,5.78
			c-3.39,0.14-6.8,0.14-10.19,0c-3.68-0.15-5.81-2.45-5.86-6.24c-0.06-5.08-0.02-10.15-0.02-15.23
			C198.01,257.53,198.04,257.38,198.07,257.18z" fill="white"/>
		<path d="M163.8,263.61c-0.34,1.37-0.63,2.56-0.97,3.94c-0.83,0-1.65,0-2.48,0c-0.8,0-1.6,0.01-2.4,0
			c-0.67-0.01-0.94,0.39-0.93,0.98c0,0.6,0.29,0.97,0.95,0.97c1.88-0.01,3.75,0,5.7,0c0.08-0.81,0.55-1.16,1.29-1.29
			c0.85-0.15,1.69-0.41,2.66-0.65c0.05,0.65,0.1,1.18,0.15,1.78c0.27,0.1,0.56,0.19,0.89,0.31c0,1.19,0,2.38,0,3.66
			c-0.26,0.08-0.55,0.16-0.81,0.23c-0.41,0.5-0.02,1.42,0.81,1.94c0,1.18,0,2.37,0,3.79c-0.78-0.15-1.49-0.31-2.2-0.4
			c-0.45-0.06-0.91-0.05-1.36,0c-0.79,0.09-1.57,0.3-2.36,0.33c-1.52,0.05-3.04,0.02-4.55,0.02c-3.8,0-5.72-2.23-4.95-5.97
			c0.24-1.19,0.34-2.27,0-3.45c-0.18-0.63-0.13-1.35-0.08-2.02c0.21-2.53,1.59-3.99,4.12-4.13
			C159.38,263.51,161.5,263.61,163.8,263.61z M163.7,273.44c-1.9,0-3.72,0.01-5.55-0.01c-0.66-0.01-1.11,0.24-1.12,0.93
			c-0.02,0.74,0.48,0.9,1.12,0.9c1.39-0.02,2.78,0,4.17-0.01C163.77,275.25,163.92,275.07,163.7,273.44z" fill="white"/>
		<path d="M247.28,257.17c1.81,0,3.54,0,5.35,0c0,7.34,0,14.62,0,21.96c-1.79,0-3.53,0-5.35,0
			C247.28,271.85,247.28,264.57,247.28,257.17z" fill="white"/>
		<path d="M121.78,220.41c3.09-0.01,5.66,2.53,5.67,5.62c0.01,3.1-2.52,5.66-5.61,5.67c-3.1,0.01-5.67-2.52-5.68-5.61
			C116.15,223.01,118.7,220.43,121.78,220.41z" fill="white"/>
		<path d="M137.34,256.74c0-2.54,0-4.98,0-7.41c0-0.48,0-0.96,0-1.44c0-0.63,0.36-0.98,0.93-1.06c1.48-0.18,2.95-0.24,4.38,0.33
			c1.54,0.62,2.4,1.81,2.75,3.39c0.15,0.7,0.19,1.42,0.27,2.14c-0.15,0.01-0.25,0.03-0.27,0.01c-1.19-2.18-3.25-2.36-5.38-2.34
			c-0.76,0.01-0.85,0.58-0.85,1.19c0,2.28,0.01,4.56,0,6.84c-0.02,2.61-2.24,4.28-4.73,3.56c-1.82-0.53-2.38-2.27-1.22-3.77
			C134.1,257.05,135.41,256.57,137.34,256.74z" fill="white"/>
	</g>
</g>
</svg>
