<?xml version="1.0" encoding="utf-8"?>
<svg xmlns="http://www.w3.org/2000/svg">
  <path d="M 66.38 14.596 L 64.902 22.65 L 56.034 22.65 L 53.844 35.189 L 43.443 35.189 L 49.465 1.407 L 70.815 1.407 L 67.913 10.056 L 58.279 10.056 L 57.512 14.596 L 66.38 14.596 Z M 79.135 35.189 L 68.734 35.189 L 74.756 1.407 L 85.157 1.407 L 79.135 35.189 Z M 104.207 25.243 L 104.207 25.243 L 104.481 23.784 L 101.853 23.784 L 103.331 15.515 L 115.867 15.515 L 112.638 33.568 L 112.638 33.568 C 108.185 35.189 103.715 36 99.226 36 L 99.226 36 L 99.226 36 C 94.737 36 91.494 35.117 89.5 33.352 L 89.5 33.352 L 89.5 33.352 C 87.516 31.586 86.526 28.865 86.526 25.19 L 86.526 25.19 L 86.526 25.19 C 86.526 23.64 86.781 21.352 87.292 18.325 L 87.292 18.325 L 87.292 18.325 C 88.387 12.055 90.321 7.533 93.095 4.758 L 93.095 4.758 L 93.095 4.758 C 95.868 1.984 100.467 0.596 106.89 0.596 L 106.89 0.596 L 106.89 0.596 C 108.24 0.596 109.961 0.741 112.054 1.029 L 112.054 1.029 L 112.054 1.029 C 114.158 1.317 115.703 1.641 116.689 2.001 L 116.689 2.001 L 113.678 10.272 L 113.678 10.272 C 110.941 9.767 108.428 9.514 106.142 9.514 L 106.142 9.514 L 106.142 9.514 C 103.866 9.514 102.237 9.695 101.251 10.056 L 101.251 10.056 L 101.251 10.056 C 100.266 10.416 99.682 11.137 99.5 12.218 L 99.5 12.218 L 96.817 27.514 L 100.266 27.514 L 100.266 27.514 C 101.507 27.514 102.425 27.382 103.021 27.118 L 103.021 27.118 L 103.021 27.118 C 103.629 26.842 104.025 26.217 104.207 25.243 Z M 146.304 35.189 L 135.903 35.189 L 137.983 23.244 L 130.155 23.244 L 128.075 35.189 L 117.674 35.189 L 123.696 1.407 L 134.097 1.407 L 131.962 13.352 L 139.79 13.352 L 141.925 1.407 L 152.326 1.407 L 146.304 35.189 Z M 182.27 1.407 L 180.682 10.056 L 173.128 10.056 L 168.694 35.189 L 158.293 35.189 L 162.727 10.056 L 155.227 10.056 L 156.815 1.407 L 182.27 1.407 Z M 190.591 35.189 L 180.19 35.189 L 186.211 1.407 L 196.612 1.407 L 190.591 35.189 Z M 225.954 35.189 L 216.155 35.189 L 210.572 23.19 L 210.572 23.19 C 210.426 22.938 210.353 22.582 210.353 22.127 L 210.353 22.127 L 210.353 22.127 C 210.353 21.682 210.389 21.172 210.462 20.596 L 210.462 20.596 L 210.024 20.596 L 207.451 35.189 L 197.05 35.189 L 203.072 1.407 L 212.871 1.407 L 218.454 13.407 L 218.454 13.407 C 218.564 13.658 218.619 14.014 218.619 14.47 L 218.619 14.47 L 218.619 14.47 C 218.619 14.914 218.582 15.425 218.509 16.002 L 218.509 16.002 L 218.947 16.002 L 221.575 1.407 L 231.976 1.407 L 225.954 35.189 Z M 251.519 25.243 L 251.519 25.243 L 251.792 23.784 L 249.165 23.784 L 250.643 15.515 L 263.179 15.515 L 259.949 33.568 L 259.949 33.568 C 255.497 35.189 251.026 36 246.537 36 L 246.537 36 L 246.537 36 C 242.048 36 238.806 35.117 236.811 33.352 L 236.811 33.352 L 236.811 33.352 C 234.828 31.586 233.837 28.865 233.837 25.19 L 233.837 25.19 L 233.837 25.19 C 233.837 23.64 234.092 21.352 234.603 18.325 L 234.603 18.325 L 234.603 18.325 C 235.698 12.055 237.632 7.533 240.406 4.758 L 240.406 4.758 L 240.406 4.758 C 243.18 1.984 247.778 0.596 254.201 0.596 L 254.201 0.596 L 254.201 0.596 C 255.551 0.596 257.272 0.741 259.365 1.029 L 259.365 1.029 L 259.365 1.029 C 261.469 1.317 263.015 1.641 264 2.001 L 264 2.001 L 260.989 10.272 L 260.989 10.272 C 258.252 9.767 255.739 9.514 253.453 9.514 L 253.453 9.514 L 253.453 9.514 C 251.178 9.514 249.548 9.695 248.563 10.056 L 248.563 10.056 L 248.563 10.056 C 247.577 10.416 246.993 11.137 246.811 12.218 L 246.811 12.218 L 244.129 27.514 L 247.577 27.514 L 247.577 27.514 C 248.818 27.514 249.736 27.382 250.333 27.118 L 250.333 27.118 L 250.333 27.118 C 250.94 26.842 251.336 26.217 251.519 25.243 Z" style="white-space: pre; fill: rgb(255, 255, 255);"/>
  <g id="g-1" fill="#000000" stroke="none" transform="matrix(0.028731, 0, 0, 0.027998, -0.613754, -0.029636)">
    <path d="M516 1238 c-79 -54 -173 -149 -226 -228 -50 -74 -55 -58 65 -205 65 -80 86 -114 104 -170 28 -87 75 -171 108 -192 13 -9 41 -17 61 -18 32 -2 37 -6 43 -33 26 -128 153 -172 295 -102 78 38 212 164 257 241 79 135 48 261 -102 414 -63 64 -130 101 -248 136 -28 8 -84 46 -158 106 -63 51 -120 93 -127 92 -7 0 -40 -19 -72 -41z m40 -83 c4 -8 -1 -30 -10 -49 -9 -19 -16 -39 -16 -45 0 -17 51 -13 71 5 34 31 76 -11 45 -45 -9 -10 -16 -29 -16 -43 0 -22 3 -25 27 -20 15 3 34 11 41 19 19 19 54 -2 50 -30 -2 -18 -10 -22 -38 -23 -99 -2 -103 -6 -102 -90 1 -47 -8 -59 -38 -49 -20 6 -29 50 -11 57 5 2 12 17 15 34 7 30 6 31 -21 26 -15 -2 -35 -11 -44 -19 -32 -28 -73 15 -44 47 8 9 15 29 15 43 0 32 -19 35 -60 11 -32 -20 -60 -13 -60 14 0 29 19 40 59 35 53 -7 78 9 83 52 2 19 1 41 -3 47 -5 7 -3 18 3 25 14 18 47 16 54 -2z" style="fill: rgb(204, 204, 204);"/>
    <path d="M543 1013 c-13 -2 -23 -12 -23 -21 0 -9 -3 -27 -6 -40 -6 -22 -5 -23 32 -16 22 3 40 7 41 8 0 0 4 18 8 39 8 40 5 41 -52 30z" style="fill: rgb(204, 204, 204);"/>
    <path d="M135 966 c-135 -66 -127 -47 -91 -215 31 -143 32 -145 19 -250 -16 -126 -11 -172 30 -271 74 -183 149 -237 311 -228 151 9 312 82 376 170 35 47 37 58 13 58 -46 0 -123 70 -144 130 -7 19 -18 30 -30 30 -23 0 -102 -39 -174 -85 l-50 -32 4 44 c2 31 -2 50 -13 62 -16 17 -15 19 16 25 35 7 88 51 88 73 0 8 -11 35 -24 61 -13 26 -31 70 -40 98 -14 45 -21 52 -54 62 -34 11 -39 10 -59 -13 -13 -15 -23 -34 -23 -44 0 -41 -52 -52 -67 -15 -4 11 6 27 33 49 46 39 40 52 -26 57 -38 3 -46 7 -48 25 -2 16 4 26 20 34 26 11 53 47 43 57 -3 3 -27 9 -53 12 -42 4 -47 8 -47 30 0 30 35 40 55 15 12 -15 40 -21 40 -8 0 3 -7 14 -15 23 -14 16 -14 21 6 54 28 47 16 46 -96 -8z" style="fill: rgb(204, 204, 204);"/>
    <path d="M265 804 c-19 -30 -12 -41 31 -50 42 -8 54 20 23 53 -28 29 -33 29 -54 -3z" style="fill: rgb(204, 204, 204);"/>
  </g>
</svg>