<?xml version="1.0" encoding="utf-8"?>
<!-- Made by Szalik  -->
<svg version="1.1" id="action" xmlns="http://www.w3.org/2000/svg" xmlns:xlink="http://www.w3.org/1999/xlink" x="0px" y="0px" xml:space="preserve">
<g>
	<g>
		<path d="M137.27,246.95c0-1.58,0.03-2.82-0.01-4.05c-0.03-0.88,0.33-1.29,1.21-1.43c5.07-0.82,9.88-2.3,13.99-5.54
			c0.61-0.48,1.13-0.44,1.72,0.03c4.08,3.21,8.86,4.68,13.88,5.51c0.76,0.12,1.31,0.36,1.3,1.23c-0.06,5.12-0.1,10.25-1.54,15.22
			c-1.25,4.29-3.7,7.78-7.38,10.33c-2.03,1.41-4.15,2.71-6.29,3.95c-0.45,0.26-1.31,0.26-1.75-0.01c-2.36-1.42-4.73-2.84-6.94-4.49
			c-4.94-3.69-7.08-8.91-7.71-14.87C137.55,250.76,137.41,248.69,137.27,246.95z" fill="white"/>
		<path d="M281.28,238.78c2.19,0.1,4.4,0.05,6.56,0.35c2.89,0.4,4.76,2.3,4.92,5.21c0.21,4.02,0.27,8.07,0.06,12.08
			c-0.19,3.59-2.08,5.59-5.63,5.84c-3.93,0.27-7.91,0.26-11.85,0.01c-3.49-0.22-5.45-2.18-5.68-5.68
			c-0.26-3.94-0.27-7.92-0.01-11.85c0.25-3.73,2.6-5.68,6.36-5.83c1.75-0.07,3.51-0.01,5.27-0.01
			C281.28,238.86,281.28,238.82,281.28,238.78z M287.07,250.6c0-1.44-0.01-2.87,0-4.31c0.01-0.98-0.46-1.5-1.44-1.5
			c-2.91,0-5.83,0-8.74,0c-0.99,0-1.49,0.5-1.5,1.46c-0.02,2.91-0.01,5.83,0,8.74c0,0.95,0.47,1.5,1.46,1.51
			c2.91,0.01,5.83,0.01,8.74,0c1.04,0,1.5-0.55,1.49-1.59C287.06,253.47,287.07,252.04,287.07,250.6z" fill="white"/>
		<path d="M313.51,252.27c0-4.64,0-8.95,0-13.32c1.95,0,3.81,0,5.78,0c0,7.75,0,15.51,0,23.44c-1.25,0-2.51,0.05-3.77-0.03
			c-0.36-0.03-0.74-0.41-1.04-0.71c-3.88-3.87-7.74-7.75-11.61-11.62c-0.28-0.28-0.57-0.54-1.05-0.99c0,4.56,0,8.88,0,13.28
			c-2.01,0-3.87,0-5.82,0c0-7.75,0-15.52,0-23.44c1.25,0,2.51-0.05,3.77,0.03c0.36,0.02,0.74,0.41,1.04,0.7
			c3.85,3.84,7.68,7.69,11.52,11.54C312.63,251.47,312.95,251.75,313.51,252.27z" fill="white"/>
		<path d="M231.33,247.69c-1.99,0.5-3.87,0.97-5.94,1.48c0-1.08,0-2.03,0-2.97c0-0.94-0.49-1.41-1.41-1.41c-2.96-0.01-5.92,0-8.87,0
			c-0.87,0-1.37,0.47-1.38,1.32c-0.03,3-0.03,5.99-0.01,8.99c0.01,0.92,0.55,1.38,1.46,1.38c2.92,0.01,5.84,0.01,8.75,0
			c0.97,0,1.47-0.5,1.46-1.49c-0.01-0.91,0-1.82,0-2.89c2.03,0.5,3.92,0.97,6.11,1.51c-0.27,1.67-0.34,3.36-0.83,4.92
			c-0.84,2.69-3.1,3.7-5.68,3.8c-3.59,0.13-7.2,0.14-10.79,0.01c-3.9-0.14-6.2-2.5-6.32-6.42c-0.11-3.51-0.1-7.04,0-10.55
			c0.11-4.01,2.51-6.38,6.53-6.47c3.44-0.09,6.88-0.08,10.31,0c3.88,0.09,6.02,2.12,6.48,5.99
			C231.29,245.8,231.28,246.72,231.33,247.69z" fill="white"/>
		<path d="M208.06,262.4c-2.23,0-4.26,0.05-6.28-0.05c-0.34-0.02-0.79-0.63-0.94-1.05c-0.52-1.45-1.44-1.92-2.99-1.81
			c-2.31,0.16-4.64,0.07-6.96,0.02c-0.78-0.02-1.34,0.14-1.56,0.93c-0.49,1.71-1.63,2.18-3.33,1.99c-1.38-0.15-2.78-0.03-4.38-0.03
			c4.41-8.31,8.75-16.48,13.22-24.89C199.27,245.86,203.62,254.04,208.06,262.4z M194.83,250.07c-0.68,1.31-1.21,2.35-1.79,3.48
			c1.29,0,2.37,0,3.64,0C196.04,252.35,195.49,251.32,194.83,250.07z" fill="white"/>
		<path d="M257.65,238.96c0,1.92,0,3.78,0,5.79c-2.9,0-5.76,0-8.72,0c0,5.92,0,11.7,0,17.56c-1.99,0-3.88,0-5.9,0
			c0-5.82,0-11.6,0-17.52c-2.98,0-5.84,0-8.74,0c0-2.01,0-3.88,0-5.83C242.04,238.96,249.77,238.96,257.65,238.96z" fill="white"/>
		<path d="M141.18,233.03c1.63,1.51,3.14,2.91,4.8,4.46c-2.91,1.19-5.63,1.91-8.45,2.13c-0.53,0.04-1.11-0.62-1.85-1.06
			c-1.12,1.14-2.3,2.37-3.51,3.58c-1.02,1.02-1.27,1.03-2.25,0.04c-2.93-2.98-2.91-2.19-0.02-5.13c0.72-0.73,1.46-1.45,2.28-2.27
			c-2.09-2.08-4.09-4.07-6.09-6.06c-1.38-1.37-1.37-1.4-0.03-2.74c1.05-1.04,2.11-2.07,3.13-3.14c0.67-0.7,1.24-0.7,1.92,0
			c2.11,2.18,4.24,4.33,6.54,6.67c1.29-1.36,2.46-2.61,3.65-3.83c1-1.02,1.27-1.03,2.25-0.05c2.94,2.95,2.95,2.2,0.04,5.11
			C142.88,231.45,142.11,232.14,141.18,233.03z" fill="white"/>
		<path d="M174.6,234.89c1.3,1.25,2.55,2.48,3.84,3.65c0.81,0.74,0.8,1.37-0.01,2.09c-0.62,0.56-1.2,1.17-1.78,1.78
			c-0.59,0.63-1.14,0.6-1.74-0.01c-1.27-1.31-2.57-2.61-3.98-4.05c-0.94,1.81-2.37,1.35-3.72,1.04c-2.08-0.48-4.14-1.04-6.47-1.63
			c1.76-1.68,3.25-3.11,4.9-4.69c-1.31-1.27-2.47-2.4-3.62-3.54c-1.32-1.31-1.32-1.41-0.05-2.66c2.74-2.69,2.09-2.61,4.71-0.04
			c0.8,0.78,1.54,1.62,2.55,2.69c1.01-1.1,1.89-2.11,2.83-3.07c1.2-1.23,2.45-2.41,3.64-3.65c0.68-0.7,1.25-0.68,1.92,0.01
			c1.13,1.18,2.28,2.35,3.48,3.47c0.82,0.76,0.72,1.35-0.04,2.09c-1.9,1.83-3.74,3.71-5.61,5.58
			C175.22,234.2,174.99,234.47,174.6,234.89z" fill="white"/>
		<path d="M260.73,238.92c1.91,0,3.74,0,5.67,0c0,7.8,0,15.57,0,23.41c-1.86,0-3.72,0-5.67,0
			C260.73,254.57,260.73,246.8,260.73,238.92z" fill="white"/>
		<path d="M142.19,267.7c-2.06,2.16-4.23,4.44-6.42,6.71c-0.21,0.22-0.53,0.35-0.83,0.46c-2.25,0.83-4.49,1.68-6.76,2.45
			c-0.42,0.14-1.13,0.14-1.39-0.11c-0.24-0.24-0.19-0.96-0.03-1.37c0.82-2.08,1.71-4.14,2.59-6.19c0.14-0.33,0.29-0.69,0.53-0.93
			c2.6-2.59,5.22-5.15,7.79-7.69C139.19,263.28,140.66,265.44,142.19,267.7z" fill="white"/>
		<path d="M164.43,267.72c1.53-2.26,2.99-4.43,4.5-6.67c1.79,1.75,3.57,3.65,5.51,5.34c1.8,1.57,3.07,3.41,3.85,5.66
			c0.48,1.39,1.16,2.72,1.68,4.1c0.12,0.31,0.08,0.84-0.12,1.06c-0.21,0.23-0.75,0.36-1.05,0.26c-2.49-0.87-4.96-1.79-7.43-2.72
			c-0.22-0.08-0.43-0.23-0.59-0.4C168.62,272.11,166.47,269.86,164.43,267.72z" fill="white"/>
	</g>
</g>
</svg>
