<?xml version="1.0" encoding="utf-8"?>
<!-- Made by Szalik  -->
<svg version="1.1" id="Warstwa_1" xmlns="http://www.w3.org/2000/svg" xmlns:xlink="http://www.w3.org/1999/xlink" x="0px" y="0px" xml:space="preserve">
<g>
	<g>
		<path d="M113.49,257.9c-0.79,2.97-1.58,5.94-2.37,8.9c-0.73,2.74-1.45,5.48-2.18,8.22c-0.49,1.86-1.77,2.68-3.44,2.25
			c-1.72-0.45-2.44-1.84-1.93-3.73c1.75-6.56,3.55-13.11,5.22-19.69c1.4-5.51,2.63-11.06,3.98-16.77c-1.72,0.45-2.91,1.38-3.84,2.66
			c-0.46,0.64-0.85,1.35-1.2,2.06c-0.46,0.93-1.04,1.62-2.2,1.49c-1.13-0.13-2.22-1.13-2.33-2.25c-0.05-0.53,0.03-1.13,0.23-1.63
			c2-4.98,7.23-8.12,12.55-7.6c0.63,0.06,1.27,0.04,1.91,0.03c2.06-0.01,3.58,0.95,4.08,2.85c0.98,3.73,3.52,5.67,7.09,6.52
			c1.16,0.28,2.36,0.43,3.55,0.57c1.71,0.2,2.51,0.96,2.41,2.35c-0.12,1.56-1.35,2.69-2.91,2.55c-4.01-0.37-7.77-1.45-10.94-4.09
			c-0.11-0.09-0.25-0.17-0.48-0.32c-0.79,3.43-1.51,6.78-2.37,10.09c-0.29,1.1,0,1.58,0.94,2.14c6.09,3.69,8.13,9.33,5.78,16.04
			c-0.6,1.72-1.47,3.36-2.33,4.98c-0.84,1.58-2.1,1.97-3.47,1.23c-1.45-0.78-2.05-2.44-1.38-3.88c0.37-0.8,0.81-1.55,1.22-2.33
			C122.68,263.69,118.65,259.78,113.49,257.9z" fill="white"/>
		<path d="M151.36,258.66c-5.27,1.72-9.6,5.01-12.9,9.71c-1.27,1.81-2.27,2.16-3.63,1.27c-1.57-1.02-1.92-2.85-0.79-4.5
			c4.76-6.94,11.35-11.09,19.54-12.8c0.38-0.08,0.77-0.16,1.49-0.32c-1.13-2.07-2.06-4.1-3.29-5.92c-1.13-1.68-2.59-3.14-3.91-4.68
			c-0.31-0.36-0.82-0.63-0.97-1.04c-0.52-1.42-1.71-1.56-2.94-1.78c-3.9-0.69-7.78-1.42-11.67-2.15c-1.88-0.35-2.78-1.58-2.45-3.31
			c0.31-1.62,1.62-2.45,3.43-2.12c4.48,0.82,8.95,1.69,13.44,2.48c0.64,0.11,1.41-0.04,2.01-0.3c1.63-0.7,3.17-0.67,4.5,0.49
			c5.82,5.09,9.72,11.39,11.61,18.9c0.52,2.06-0.35,4.14-2.26,5.11c-4.18,2.12-7.45,5.34-10.72,8.57c-1.42,1.4-2.8,1.59-4.16,0.58
			c-1.4-1.03-1.55-2.54-0.38-3.81C148.69,261.52,150.08,260.03,151.36,258.66z" fill="white"/>
		<path d="M165.17,244.38c0-7.85,0-15.59,0-23.51c0.43,0,0.86,0,1.28,0c4.72,0,9.43,0,14.15,0c6.53,0,9.7,4.59,7.43,10.79
			c-0.26,0.72-0.3,1.29-0.02,2.03c0.82,2.21,0.8,4.48,0.05,6.7c-0.93,2.77-3.16,3.89-5.85,3.95
			C176.57,244.46,170.94,244.38,165.17,244.38z M171.04,229.76c3.37,0,6.68,0,9.98,0c0.98,0,1.62-0.35,1.64-1.45
			c0.01-1.08-0.41-1.51-1.66-1.52c-2.68-0.02-5.35-0.01-8.03-0.01c-0.63,0-1.25,0-1.94,0C171.04,227.85,171.04,228.75,171.04,229.76
			z M171.05,238.47c3.53,0,6.99,0.02,10.45-0.01c0.91-0.01,1.19-0.66,1.16-1.49c-0.03-0.82-0.47-1.25-1.27-1.28
			c-1-0.03-1.99-0.02-2.99-0.02c-2.43,0-4.85,0-7.35,0C171.05,236.66,171.05,237.51,171.05,238.47z" fill="white"/>
		<path d="M214.89,226.8c-5.86,0-11.6,0-17.43,0c0,1.01,0,1.91,0,2.95c4.84,0,9.65,0,14.52,0c0,2,0,3.87,0,5.9
			c-4.85,0-9.66,0-14.54,0c0,1,0,1.82,0,2.84c5.83,0,11.64,0,17.48,0c0,2.06,0,3.92,0,5.84c-7.8,0-15.54,0-23.34,0
			c0-7.79,0-15.53,0-23.37c7.73,0,15.47,0,23.31,0C214.89,222.83,214.89,224.72,214.89,226.8z" fill="white"/>
		<path d="M279.31,229.77c4.86,0,9.65,0,14.51,0c0,1.95,0,3.82,0,5.86c-4.83,0-9.64,0-14.52,0c0,1.03,0,1.89,0,2.9
			c5.85,0,11.63,0,17.47,0c0,2.01,0,3.87,0,5.8c-7.79,0-15.53,0-23.33,0c0-7.76,0-15.51,0-23.35c7.73,0,15.5,0,23.33,0
			c0,1.89,0,3.75,0,5.77c-5.81,0-11.58,0-17.45,0C279.31,227.79,279.31,228.69,279.31,229.77z" fill="white"/>
		<path d="M299.81,244.33c0-7.83,0-15.57,0-23.45c1.27,0,2.5-0.05,3.72,0.03c0.37,0.02,0.77,0.36,1.06,0.65
			c2.76,2.72,5.51,5.45,8.37,8.29c0.26-0.24,0.55-0.49,0.81-0.76c2.4-2.4,4.83-4.79,7.18-7.23c0.69-0.72,1.38-1.1,2.39-1
			c0.87,0.09,1.75,0.02,2.71,0.02c0,7.84,0,15.6,0,23.45c-1.87,0-3.73,0-5.74,0c0-4.31,0-8.65,0-13.03c-2.4,2.43-4.7,4.76-7.03,7.13
			c-2.62-2.62-4.97-4.98-7.32-7.33c-0.11,0.06-0.21,0.12-0.32,0.18c0,4.33,0,8.66,0,13.06
			C303.64,244.33,301.78,244.33,299.81,244.33z" fill="white"/>
		<path d="M256.94,280.35c-2.05,0-3.88,0-5.81,0c0-7.77,0-15.53,0-23.38c0.14-0.03,0.32-0.09,0.51-0.09
			c5.36,0,10.71-0.03,16.07,0.01c3.19,0.02,5.35,1.41,6.23,3.94c0.78,2.26,0.78,4.56,0.01,6.82c-0.85,2.48-2.77,3.72-5.27,3.84
			c-3.39,0.17-6.79,0.12-10.18,0.16c-0.47,0.01-0.95,0-1.55,0C256.94,274.6,256.94,277.42,256.94,280.35z M256.95,265.76
			c3.35,0,6.58,0.01,9.81,0c1.35,0,1.82-0.41,1.82-1.5c0-1.1-0.43-1.46-1.83-1.47c-2.96-0.01-5.91-0.01-8.87,0
			c-0.3,0-0.6,0.07-0.94,0.12C256.95,263.86,256.95,264.73,256.95,265.76z" fill="white"/>
		<path d="M224.68,256.92c1.96,0,3.79,0,5.82,0c0,0.49,0,0.95,0,1.4c0,4.68-0.01,9.35,0,14.03c0,1.87,0.29,2.16,2.16,2.17
			c2.48,0.01,4.96,0.01,7.43,0c1.87-0.01,2.11-0.27,2.11-2.18c0-4.68,0-9.35,0-14.03c0-0.43,0-0.86,0-1.36c1.98,0,3.84,0,5.91,0
			c0,0.37,0,0.74,0,1.12c0,4.88,0,9.75,0,14.63c0,0.36-0.01,0.72-0.03,1.08c-0.37,4.49-2.62,6.59-7.15,6.62
			c-3.2,0.02-6.4,0.05-9.59-0.01c-3.98-0.08-6.48-2.21-6.61-6.11C224.53,268.53,224.68,262.78,224.68,256.92z" fill="white"/>
		<path d="M229.4,219.51c4.43,8.34,8.77,16.5,13.22,24.88c-2.23,0-4.29,0.06-6.33-0.06c-0.35-0.02-0.8-0.72-0.97-1.19
			c-0.48-1.32-1.32-1.73-2.72-1.65c-2.35,0.13-4.72,0.07-7.08,0.02c-0.81-0.02-1.4,0.12-1.66,0.98c-0.48,1.64-1.57,2.14-3.24,1.95
			c-1.4-0.16-2.84-0.03-4.45-0.03C220.61,236.06,224.95,227.89,229.4,219.51z M229.4,232.07c-0.66,1.27-1.21,2.31-1.83,3.49
			c1.28,0,2.37,0,3.65,0C230.61,234.4,230.07,233.36,229.4,232.07z" fill="white"/>
		<path d="M252.99,244.4c-1.75,0-3.3,0-4.86,0c-0.27,0-0.55,0-0.99,0c0-5.88,0-11.69,0-17.6c-2.99,0-5.82,0-8.73,0
			c0-2,0-3.89,0-5.85c7.73,0,15.47,0,23.29,0c0,1.89,0,3.78,0,5.82c-2.9,0-5.75,0-8.71,0C252.99,232.7,252.99,238.48,252.99,244.4z"  fill="white"/>
		<path d="M123.64,226.36c-0.02,2.57-2.11,4.63-4.68,4.63c-2.62,0-4.73-2.13-4.7-4.74c0.03-2.55,2.14-4.63,4.69-4.64
			C121.56,221.61,123.66,223.73,123.64,226.36z" fill="white"/>
		<path d="M147.43,231.92c-2.44-0.02-4.41-2.05-4.37-4.48c0.04-2.37,2.02-4.34,4.39-4.35c2.42-0.01,4.44,2.01,4.44,4.43
			C151.89,229.95,149.87,231.94,147.43,231.92z" fill="white"/>
		<path d="M270.51,220.97c0,2.9,0,5.76,0,8.71c-1.89,0-3.78,0-5.73,0c0-2.9,0-5.76,0-8.71
			C266.66,220.97,268.55,220.97,270.51,220.97z" fill="white"/>
		<path d="M138.89,241.08c0.6,1.61,1.69,2.63,3.28,3.01c-0.26,1.05-0.48,2.07-0.78,3.07c-0.07,0.22-0.36,0.4-0.58,0.55
			c-1.05,0.71-1.66,1.68-1.89,2.93c-0.05,0.26-0.35,0.47-0.54,0.71c-0.09-0.3-0.32-0.65-0.23-0.88c0.34-0.88,0.57-1.97,1.23-2.51
			c1.11-0.9,1.35-2.04,1.6-3.03c-0.88-0.91-1.66-1.74-2.45-2.55c-0.13-0.14-0.27-0.27-0.42-0.38c-0.27-0.2-0.56-0.38-0.84-0.56
			c0.34-0.11,0.67-0.24,1.01-0.33C138.44,241.04,138.6,241.08,138.89,241.08z" fill="white"/>
	</g>
</g>
</svg>
