<?xml version="1.0" encoding="utf-8"?>
<!-- Made by Szalik  -->
<svg version="1.1" id="Warstwa_1" xmlns="http://www.w3.org/2000/svg" xmlns:xlink="http://www.w3.org/1999/xlink" x="0px" y="0px" xml:space="preserve">
<g>
	<g>
		<path d="M126.75,251.4c-0.02-6.68,3.52-12.33,9.4-14.55c4.82-1.82,9.42-1.02,13.14,2.54c5.2,4.97,10.18,10.17,15.16,15.36
			c5.64,5.89,11.18,11.88,16.76,17.82c1.5,1.6,2.65,3.4,3.09,5.59c0.49,2.49-0.02,4.74-1.94,6.45c-1.91,1.71-4.25,1.69-6.43,0.74
			c-3.77-1.63-7.45-3.47-11.14-5.27c-9.25-4.52-18.49-9.06-27.71-13.63c-2.36-1.17-4.67-2.46-6.45-4.49
			C127.99,258.93,126.79,255.38,126.75,251.4z M145.19,251.55c0.03-2.97-1.99-5.24-4.71-5.28c-2.61-0.04-4.68,2.21-4.72,5.14
			c-0.04,2.93,2.03,5.22,4.75,5.24C143.24,256.66,145.15,254.58,145.19,251.55z" fill="white"/>
		<path d="M191.27,230.62c-0.06,5.05-1.8,9.38-5.67,12.71c-5.79,4.97-14.35,4.17-19.4-1.77c-4.77-5.61-5.19-14.51-0.97-20.56
			c6.44-9.23,19.48-8.12,24.35,2.07C190.71,225.46,191.31,227.97,191.27,230.62z M181.91,221.96c-3.36-3.09-8.48-2.4-11.61,0.6
			c-4.19,4.02-3.87,11.08-1.44,13.78C167.46,227.49,173.16,220.51,181.91,221.96z" fill="white"/>
		<path d="M258.53,262.36c0-7.87,0-15.61,0-23.48c0.67,0,1.3,0,1.93,0c4.72,0,9.43-0.03,14.15,0.02c1.06,0.01,2.15,0.18,3.18,0.47
			c1.87,0.51,3.1,1.81,3.66,3.64c0.71,2.31,0.67,4.64-0.13,6.95c-0.15,0.43-0.17,1.01-0.02,1.44c0.74,2.06,0.83,4.15,0.34,6.25
			c-0.67,2.85-2.55,4.57-5.76,4.66C270.13,262.48,264.38,262.36,258.53,262.36z M264.41,247.76c3.38,0,6.68,0,9.99,0
			c0.98,0,1.62-0.36,1.63-1.45c0.01-1.08-0.41-1.5-1.66-1.51c-2.68-0.02-5.35-0.01-8.03-0.01c-0.62,0-1.25,0-1.93,0
			C264.41,245.85,264.41,246.75,264.41,247.76z M264.4,256.51c3.42,0,6.69,0.02,9.95-0.01c1.27-0.01,1.7-0.46,1.67-1.5
			c-0.03-1.15-0.79-1.33-1.72-1.33c-3.03,0.01-6.06,0-9.1,0.01c-0.26,0-0.52,0.08-0.81,0.13C264.4,254.7,264.4,255.52,264.4,256.51z" fill="white"/>
		<path d="M255.46,262.4c-1.26,0-2.42,0.06-3.57-0.03c-0.41-0.03-0.87-0.34-1.18-0.65c-3.88-3.86-7.75-7.74-11.6-11.63
			c-0.3-0.3-0.46-0.74-0.69-1.12c-0.15,0.1-0.3,0.2-0.45,0.31c0,4.33,0,8.66,0,13.05c-2,0-3.87,0-5.8,0c0-7.78,0-15.55,0-23.45
			c1.24,0,2.47-0.06,3.69,0.03c0.4,0.03,0.83,0.41,1.15,0.73c3.85,3.84,7.68,7.69,11.52,11.54c0.3,0.3,0.62,0.57,1.12,1.04
			c0-4.57,0-8.9,0-13.28c2,0,3.87,0,5.82,0C255.46,246.71,255.46,254.48,255.46,262.4z" fill="white"/>
		<path d="M202.9,253.67c0,3,0,5.79,0,8.65c-1.95,0-3.82,0-5.77,0c0-7.74,0-15.51,0-23.39c0.35-0.02,0.73-0.05,1.12-0.05
			c4.96,0,9.91-0.01,14.87,0c2.67,0.01,5.23,0.51,6.47,3.21c1.39,3.02,1.39,6.15-0.42,9.05c-1,1.6-2.68,2.3-4.5,2.37
			c-3.39,0.13-6.79,0.11-10.19,0.15C204.01,253.67,203.54,253.67,202.9,253.67z M202.96,247.74c3.52,0,6.98,0.03,10.44-0.02
			c0.87-0.01,1.2-0.67,1.18-1.5c-0.02-0.86-0.4-1.38-1.28-1.4c-1.72-0.03-3.43-0.02-5.15-0.02c-1.71,0-3.41,0-5.19,0
			C202.96,245.83,202.96,246.73,202.96,247.74z" fill="white"/>
		<path d="M282.66,262.4c4.44-8.35,8.76-16.49,13.22-24.89c4.43,8.34,8.78,16.52,13.22,24.88c-2.22,0-4.25,0.05-6.26-0.05
			c-0.34-0.02-0.79-0.62-0.95-1.04c-0.53-1.44-1.42-1.93-2.98-1.82c-2.31,0.16-4.64,0.09-6.96,0.02c-0.86-0.02-1.38,0.24-1.62,1.03
			c-0.49,1.58-1.54,2.07-3.15,1.9C285.76,262.28,284.31,262.4,282.66,262.4z M294.05,253.53c1.33,0,2.41,0,3.66,0
			c-0.63-1.19-1.19-2.22-1.83-3.44C295.22,251.32,294.67,252.36,294.05,253.53z" fill="white"/>
		<path d="M333.96,256.49c0,2.06,0,3.91,0,5.84c-7.8,0-15.53,0-23.33,0c0-7.8,0-15.57,0-23.39c1.9,0,3.76,0,5.76,0
			c0,5.81,0,11.59,0,17.55C322.32,256.49,328.12,256.49,333.96,256.49z" fill="white"/>
		<path d="M360.36,256.49c0,2.06,0,3.91,0,5.84c-7.8,0-15.53,0-23.33,0c0-7.79,0-15.56,0-23.39c1.9,0,3.76,0,5.75,0
			c0,5.81,0,11.58,0,17.55C348.71,256.49,354.51,256.49,360.36,256.49z" fill="white"/>
		<path d="M223.52,238.92c1.92,0,3.75,0,5.67,0c0,7.8,0,15.57,0,23.41c-1.86,0-3.73,0-5.67,0
			C223.52,254.57,223.52,246.8,223.52,238.92z" fill="white"/>
	</g>
</g>
</svg>
