<?xml version="1.0" encoding="utf-8"?>
<!-- Made by Szalik  -->
<svg version="1.1" id="Warstwa_1" xmlns="http://www.w3.org/2000/svg" xmlns:xlink="http://www.w3.org/1999/xlink" x="0px" y="0px" xml:space="preserve">
<g>
	<g>
		<path d="M101.39,250.1c-2.73,0.65-3.98-1.25-5.25-3c-0.37-0.51-0.52-1.26-0.54-1.91c-0.07-2.08-0.04-4.16-0.02-6.23
			c0.02-1.65,0.89-2.85,2.51-3c3.32-0.32,6.3-1.64,9.36-2.81c5.43-2.08,11.04-3.22,16.89-2.89c5.51,0.31,10.55,2.04,15.15,5.1
			c0.62,0.41,1.44,0.7,2.19,0.74c3.13,0.19,6.22,0.59,9.12,1.81c1.16,0.49,2.26,1.2,3.27,1.95c1.15,0.85,1.69,2.08,1.65,3.55
			c-0.04,1.2,0.02,2.4-0.01,3.6c-0.05,2.03-1.11,3.14-3.12,3.15c-0.75,0.01-1.09,0.19-1.34,0.95c-0.88,2.65-3.36,4.39-6.1,4.4
			c-2.74,0.02-5.26-1.67-6.16-4.32c-0.3-0.88-0.72-1.03-1.53-1.03c-7.31,0.03-14.63,0.02-21.94,0.01c-0.59,0-1.08-0.09-1.36,0.75
			c-0.95,2.89-3.45,4.63-6.33,4.58c-2.85-0.05-5.17-1.81-6.15-4.68C101.61,250.64,101.53,250.46,101.39,250.1z M101.39,248.11
			c0.88-3.44,2.98-5.43,5.92-5.66c3.42-0.27,5.32,1.22,7.29,5.69c7.99,0,15.97,0,23.92,0c1-3.55,3.09-5.51,6.06-5.69
			c3.61-0.22,6.27,1.91,7.19,5.7c1.45,0.12,1.89-0.05,1.94-0.93c0.07-1.26,0.02-2.53,0.02-4.04c-2.82,0.93-3.74-0.98-4.61-2.87
			c-0.43-0.94-1.09-1.41-2.08-1.53c-1.7-0.21-3.4-0.61-5.11-0.63c-7.84-0.08-15.67-0.06-23.51-0.07c-0.23,0-0.46,0.04-0.84,0.08
			c0.95,1.94,1.84,3.8,2.76,5.65c0.34,0.68,0.71,1.4-0.16,1.87c-0.92,0.5-1.26-0.29-1.58-0.94c-0.81-1.65-1.61-3.31-2.42-4.95
			c-1.04-2.1-2.1-4.2-3.13-6.27c-0.25,0.02-0.37,0.02-0.48,0.05c-4.86,1.12-9.16,4.04-14.26,4.41c-0.31,0.02-0.58,0.57-0.69,0.69
			c0.79,0.57,1.83,0.95,1.91,1.47c0.2,1.32-1.21,0.86-1.97,1.24c0,1.19-0.02,2.38,0,3.58C97.58,246.73,99.53,248.36,101.39,248.11z
			 M114.97,232.96c0.37,0.74,0.78,1.39,1.04,2.09c0.32,0.85,0.86,1.06,1.73,1.05c5.87-0.04,11.74-0.02,17.61-0.02
			c0.35,0,0.71-0.04,1.06-0.06C129.68,231.93,122.54,231.35,114.97,232.96z M145.12,253.52c2.5-0.01,4.6-2.13,4.56-4.61
			c-0.04-2.44-2.12-4.51-4.55-4.52c-2.49-0.01-4.61,2.08-4.61,4.57C140.52,251.46,142.6,253.53,145.12,253.52z M107.92,253.52
			c2.53,0.01,4.6-2.04,4.59-4.56c0-2.45-2.04-4.52-4.49-4.57c-2.52-0.05-4.61,1.99-4.63,4.52
			C103.36,251.47,105.36,253.5,107.92,253.52z" fill="white"/>
		<path d="M318.7,240.62c0,3.2,0.2,6.32-0.06,9.41c-0.24,2.91-2.2,4.79-5.4,5c-4.02,0.27-8.08,0.29-12.1,0.01
			c-3.45-0.24-5.35-2.19-5.57-5.66c-0.26-3.94-0.27-7.93,0-11.87c0.25-3.69,2.56-5.68,6.27-5.79c3.56-0.11,7.12-0.13,10.68,0.01
			c4.19,0.16,6.7,3.17,6.25,7.35c-1.86,0.24-3.74,0.48-5.61,0.72c-0.44-2.21-0.44-2.21-2.65-2.21c-2.48,0-4.96-0.01-7.44,0.01
			c-1.37,0.01-1.74,0.35-1.76,1.69c-0.03,2.76-0.03,5.52,0,8.28c0.01,1.36,0.38,1.72,1.73,1.74c2.56,0.03,5.12,0.02,7.68,0.01
			c2.17,0,2.5-0.43,2.15-2.85c-2.16,0-4.35-0.07-6.53,0.03c-1.12,0.05-1.54-0.36-1.74-1.39c-0.28-1.48-0.69-2.94-1.07-4.49
			C308.66,240.62,313.69,240.62,318.7,240.62z" fill="white"/>
		<path d="M204.82,246.6c0,2.84,0,5.66,0,8.54c-1.99,0-3.85,0-5.78,0c0-7.79,0-15.56,0-23.41c0.37-0.02,0.72-0.05,1.06-0.05
			c5,0,9.99-0.03,14.99,0.02c1.1,0.01,2.25,0.16,3.29,0.5c2.78,0.91,4.18,3.52,4.04,7.28c-0.14,3.62-1.5,5.73-4.24,6.48
			c-0.71,0.2-1.46,0.28-2.57,0.49c3.06,2.92,5.93,5.66,8.8,8.4c-0.07,0.11-0.14,0.23-0.2,0.34c-2.58,0-5.15,0.02-7.73-0.03
			c-0.32-0.01-0.67-0.38-0.94-0.65c-2.33-2.3-4.72-4.55-6.94-6.96C207.49,246.37,206.31,246.34,204.82,246.6z M204.91,237.59
			c0,1.06,0,1.98,0,2.97c3.45,0,6.8,0.01,10.16-0.01c0.97,0,1.45-0.53,1.44-1.52c-0.01-1.01-0.54-1.44-1.5-1.44
			c-0.84,0-1.68,0-2.52,0C209.98,237.59,207.47,237.59,204.91,237.59z" fill="white"/>
		<path d="M172.61,255.16c0-7.86,0-15.6,0-23.4c0.22-0.03,0.41-0.07,0.6-0.07c5.31,0,10.63-0.03,15.94,0.01
			c4.14,0.04,6.49,2.05,6.75,6.19c0.23,3.78,0.2,7.59-0.03,11.37c-0.22,3.64-2.28,5.72-5.91,5.84
			C184.21,255.3,178.46,255.16,172.61,255.16z M178.42,237.61c0,3.81-0.01,7.44,0.03,11.06c0,0.22,0.41,0.61,0.63,0.61
			c3.23,0.03,6.47,0.02,9.7,0c0.86-0.01,1.32-0.49,1.32-1.36c0-2.99,0-5.99,0-8.98c0-0.8-0.41-1.31-1.23-1.32
			C185.45,237.6,182.02,237.61,178.42,237.61z" fill="white"/>
		<path d="M292.41,255.21c-1.25,0-2.41,0.06-3.56-0.03c-0.41-0.03-0.87-0.34-1.18-0.65c-3.88-3.86-7.75-7.74-11.61-11.62
			c-0.3-0.3-0.52-0.7-0.78-1.05c-0.12,0.07-0.24,0.15-0.36,0.22c0,4.33,0,8.66,0,13.06c-2,0-3.86,0-5.81,0c0-7.77,0-15.54,0-23.45
			c1.27,0,2.53-0.05,3.79,0.03c0.36,0.03,0.74,0.42,1.03,0.71c3.85,3.84,7.68,7.7,11.52,11.55c0.3,0.3,0.62,0.58,1.12,1.05
			c0-4.57,0-8.89,0-13.28c2,0,3.87,0,5.83,0C292.41,239.51,292.41,247.28,292.41,255.21z" fill="white"/>
		<path d="M245.71,244c0.63-1.16,1.16-2.13,1.68-3.11c1.48-2.79,2.97-5.57,4.43-8.37c0.31-0.59,0.64-0.89,1.36-0.87
			c1.84,0.06,3.67,0.02,5.76,0.02c-4.42,8.34-8.76,16.53-13.22,24.95c-4.45-8.4-8.79-16.58-13.22-24.94c2.21,0,4.24-0.03,6.26,0.04
			c0.3,0.01,0.66,0.49,0.84,0.83C241.61,236.28,243.59,240.02,245.71,244z" fill="white"/>
		<path d="M230.87,255.17c-1.92,0-3.75,0-5.67,0c0-7.79,0-15.56,0-23.41c1.85,0,3.71,0,5.67,0
			C230.87,239.52,230.87,247.29,230.87,255.17z" fill="white"/>
		<path d="M260.42,255.11c0-7.8,0-15.52,0-23.33c1.9,0,3.79,0,5.75,0c0,7.75,0,15.49,0,23.33
			C264.31,255.11,262.42,255.11,260.42,255.11z" fill="white"/>
		<path d="M122.39,238.93c0.46,0.38,0.92,0.75,1.38,1.13c-0.3,0.36-0.55,0.96-0.9,1.02c-0.8,0.13-1.81,0.44-2.28-0.64
			C120.27,239.69,120.96,239.16,122.39,238.93z" fill="white"/>
		<path d="M145.06,252.11c-1.7-0.02-3.1-1.45-3.1-3.15c0-1.74,1.48-3.17,3.24-3.13c1.69,0.05,3.1,1.53,3.05,3.2
			C148.19,250.73,146.74,252.13,145.06,252.11z M145.11,247.29c-0.54,0.78-1.1,1.25-1.06,1.66c0.04,0.42,0.67,0.78,1.04,1.16
			c0.38-0.38,1.03-0.73,1.07-1.15C146.2,248.56,145.64,248.09,145.11,247.29z" fill="white"/>
		<path d="M107.88,245.83c1.73-0.03,3.14,1.33,3.19,3.05c0.05,1.75-1.39,3.23-3.14,3.23c-1.72,0-3.09-1.38-3.11-3.12
			C104.81,247.25,106.15,245.86,107.88,245.83z M107.98,247.28c-0.56,0.79-1.14,1.25-1.11,1.65c0.04,0.42,0.67,0.79,1.04,1.18
			c0.39-0.37,1.04-0.71,1.09-1.13C109.06,248.58,108.5,248.09,107.98,247.28z" fill="white"/>
	</g>
</g>
</svg>
