<?xml version="1.0" encoding="utf-8"?>
<!-- Made by Szalik  -->
<svg version="1.1" id="Warstwa_1" xmlns="http://www.w3.org/2000/svg" xmlns:xlink="http://www.w3.org/1999/xlink" x="0px" y="0px" xml:space="preserve">
<g>
	<g>
		<path d="M203.08,280.09c0-2.04,0-3.91,0-5.93c-0.43-0.02-0.85-0.06-1.28-0.06c-23.68,0-47.35,0-71.03-0.02
			c-1.02,0-1.46,0.22-1.37,1.32c0.09,1.15,0.07,2.32,0.01,3.48c-0.05,0.92,0.21,1.27,1.2,1.24c2.36-0.07,4.72-0.03,7.08-0.02
			c1.81,0.01,2.96,1.01,3,2.57c0.04,1.55-1.24,2.75-2.98,2.76c-3.52,0.01-7.04,0.01-10.56,0c-1.8-0.01-2.96-1.06-2.99-2.86
			c-0.05-3.64-0.05-7.28,0-10.92c0.02-1.94,1.04-2.82,3.09-2.82c12.96-0.01,25.92,0,38.87,0c12.92,0,25.84,0,38.75,0
			c2.71,0,3.44,0.71,3.44,3.38c0,3.4,0.01,6.8,0,10.2c-0.01,2.02-1,3.03-3,3.03c-18.48,0-36.95-0.02-55.43,0.04
			c-1.66,0.01-3.19-1.33-3.14-2.74c0.05-1.65,1.17-2.62,3.17-2.62c17.2,0,34.39,0,51.59,0
			C201.98,280.09,202.45,280.09,203.08,280.09z" fill="white"/>
		<path d="M168.05,262.4c0-7.87,0-15.61,0-23.45c0.35-0.02,0.69-0.07,1.03-0.07c5.04,0,10.07-0.02,15.11,0.01
			c0.91,0.01,1.84,0.11,2.72,0.34c2.14,0.55,3.56,1.91,4.14,4.07c0.61,2.26,0.54,4.49-0.24,6.72c-0.15,0.43-0.13,1,0.02,1.44
			c0.8,2.27,0.84,4.56,0.14,6.83c-0.76,2.49-2.86,3.9-5.89,4.09c-0.36,0.02-0.72,0.02-1.08,0.02
			C178.74,262.4,173.46,262.4,168.05,262.4z M173.91,247.76c3.38,0,6.65,0.01,9.92-0.01c1.25-0.01,1.7-0.43,1.71-1.49
			c0.02-1.18-0.68-1.49-1.7-1.48c-3.04,0.01-6.07,0-9.11,0.01c-0.26,0-0.52,0.08-0.83,0.13
			C173.91,245.85,173.91,246.72,173.91,247.76z M173.92,256.51c3.42,0,6.69,0.02,9.95-0.01c1.27-0.01,1.7-0.46,1.67-1.51
			c-0.03-1.15-0.79-1.33-1.72-1.33c-3.03,0.01-6.06,0-9.1,0.01c-0.26,0-0.52,0.08-0.81,0.13
			C173.92,254.7,173.92,255.52,173.92,256.51z" fill="white"/>
		<path d="M220.65,238.92c7.8,0,15.51,0,23.3,0c0,1.9,0,3.77,0,5.83c-5.79,0-11.59,0-17.46,0c0,1.09,0,1.99,0,2.99
			c4.85,0,9.64,0,14.51,0c0,1.99,0,3.88,0,5.91c-4.83,0-9.61,0-14.49,0c0,0.98,0,1.84,0,2.85c5.8,0,11.58,0,17.43,0
			c0,2.01,0,3.87,0,5.82c-7.74,0-15.47,0-23.3,0C220.65,254.57,220.65,246.8,220.65,238.92z" fill="white"/>
		<path d="M200.27,262.36c-2.05,0-3.88,0-5.79,0c0-7.8,0-15.57,0-23.41c0.3-0.02,0.6-0.07,0.91-0.07c5.07,0,10.15-0.01,15.22,0.01
			c0.79,0,1.6,0.1,2.37,0.26c0.61,0.13,1.23,0.37,1.78,0.67c2.51,1.36,3.61,4.72,2.89,8.73c-0.5,2.78-2.13,4.32-5.06,4.82
			c-0.39,0.06-0.78,0.12-1.45,0.23c3.01,2.88,5.89,5.62,8.76,8.37c-0.09,0.14-0.17,0.28-0.26,0.42c-2.61,0-5.22,0.02-7.83-0.03
			c-0.28-0.01-0.59-0.37-0.84-0.61c-2.3-2.28-4.67-4.49-6.85-6.88c-1.11-1.21-2.3-1.38-3.86-1.07
			C200.27,256.62,200.27,259.44,200.27,262.36z M200.31,247.76c3.37,0,6.64-0.01,9.91,0c1.02,0,1.72-0.31,1.72-1.48
			c0-1.08-0.42-1.48-1.69-1.49c-3.07-0.02-6.15-0.01-9.22,0c-0.22,0-0.45,0.08-0.72,0.12C200.31,245.84,200.31,246.71,200.31,247.76
			z" fill="white"/>
		<path d="M298.33,250.52c0-1.68-0.05-3.36,0.01-5.03c0.12-3.75,1.96-6.17,5.6-6.43c4.16-0.3,8.38-0.23,12.55,0.07
			c3.1,0.23,4.94,2.28,5.1,5.4c0.2,3.98,0.25,7.99,0.02,11.96c-0.21,3.73-2.52,5.75-6.3,5.86c-3.51,0.1-7.03,0.11-10.54,0
			c-3.99-0.12-6.3-2.54-6.43-6.57C298.28,254.04,298.33,252.28,298.33,250.52z M315.87,250.68c0-1.44-0.02-2.87,0.01-4.31
			c0.02-1.12-0.52-1.59-1.61-1.58c-2.83,0.01-5.67,0.01-8.5,0c-1.04,0-1.58,0.48-1.58,1.51c-0.01,2.91-0.01,5.83,0,8.74
			c0,0.97,0.53,1.47,1.5,1.47c2.91,0,5.83,0.01,8.74-0.01c0.97,0,1.45-0.52,1.44-1.51C315.86,253.55,315.87,252.12,315.87,250.68z" fill="white"/>
		<path d="M135.45,231.97c-0.03-7.66,6.14-13.88,13.84-13.94c7.64-0.06,13.92,6.14,13.99,13.8c0.07,7.66-6.24,14.01-13.92,14.02
			C141.72,245.86,135.49,239.63,135.45,231.97z M149.38,223.31c-4.79,0-8.6,3.78-8.64,8.57c-0.04,4.78,3.87,8.72,8.66,8.7
			c4.73-0.02,8.61-3.93,8.61-8.65C157.99,227.18,154.12,223.31,149.38,223.31z" fill="white"/>
		<path d="M273.44,238.92c1.92,0,3.75,0,5.73,0c0,2.92,0,5.81,0,8.73c1.56,0.23,2.75,0.19,3.87-1.06c2.18-2.44,4.57-4.7,6.88-7.02
			c0.27-0.27,0.62-0.65,0.94-0.65c2.58-0.05,5.15-0.03,7.73-0.03c0.06,0.1,0.12,0.21,0.18,0.31c-3.9,3.76-7.79,7.51-11.71,11.28
			c4.02,4.05,7.81,7.86,11.83,11.92c-2.34,0-4.39-0.09-6.43,0.03c-1.36,0.08-2.3-0.35-3.22-1.34c-1.99-2.13-4.19-4.06-6.15-6.22
			c-1.11-1.22-2.3-1.38-3.86-1.08c0,2.83,0,5.65,0,8.54c-1.99,0-3.85,0-5.79,0C273.44,254.56,273.44,246.8,273.44,238.92z" fill="white"/>
		<path d="M342.28,238.95c1.99,0,3.85,0,5.91,0c0,0.41,0,0.83,0,1.25c0,4.76,0,9.51,0,14.27c0,0.16,0,0.32,0,0.48
			c-0.09,5.15-2.41,7.44-7.55,7.45c-2.92,0.01-5.83,0.02-8.75,0c-4.68-0.03-7.13-2.44-7.16-7.09c-0.03-5.16-0.01-10.31-0.01-15.47
			c0-0.27,0-0.54,0-0.89c1.94,0,3.8,0,5.85,0c0,0.46,0,0.92,0,1.37c0,4.68-0.01,9.35,0,14.03c0,1.86,0.29,2.15,2.16,2.16
			c2.44,0.01,4.88,0.01,7.31,0c1.99-0.01,2.22-0.24,2.23-2.19c0-4.68,0-9.35,0-14.03C342.28,239.87,342.28,239.44,342.28,238.95z" fill="white"/>
		<path d="M258.68,237.51c4.45,8.38,8.79,16.55,13.22,24.89c-2.23,0-4.26,0.05-6.28-0.05c-0.34-0.02-0.79-0.63-0.94-1.05
			c-0.52-1.45-1.44-1.91-2.99-1.81c-2.31,0.16-4.64,0.08-6.96,0.02c-0.78-0.02-1.34,0.14-1.56,0.93c-0.49,1.71-1.64,2.18-3.33,1.99
			c-1.38-0.15-2.78-0.03-4.38-0.03C249.87,254.09,254.21,245.92,258.68,237.51z M256.85,253.56c1.28,0,2.37,0,3.67,0
			c-0.63-1.19-1.19-2.25-1.85-3.48C258.02,251.34,257.47,252.38,256.85,253.56z" fill="white"/>
		<path d="M374.53,238.96c0,1.92,0,3.78,0,5.79c-2.91,0-5.76,0-8.72,0c0,5.92,0,11.7,0,17.56c-1.96,0-3.82,0-5.85,0
			c0-5.78,0-11.58,0-17.53c-3.03,0-5.88,0-8.79,0c0-2.01,0-3.88,0-5.83C358.92,238.96,366.66,238.96,374.53,238.96z" fill="white"/>
	</g>
</g>
</svg>
