<?xml version="1.0" encoding="utf-8"?>
<!-- Made by Szalik  -->
<svg version="1.1" id="shooter" xmlns="http://www.w3.org/2000/svg" xmlns:xlink="http://www.w3.org/1999/xlink" x="0px" y="0px" xml:space="preserve">
<g>
	<g>
		<path d="M127.76,214.57c-0.03,1.96-0.03,1.96,1.88,2.28c0.54,0.09,1.06,0.22,1.9,0.39c-2.74,2.75-5.22,5.35-7.83,7.8
			c-1.24,1.17-3.12,0.72-4.05-0.71c-0.19-0.3-0.35-0.62-0.6-1.05c-0.18,0.31-0.37,0.51-0.43,0.75c-0.29,1.08-0.44,2.21-0.83,3.25
			c-1.36,3.63-0.52,6.74,1.78,9.76c1.69,2.21,2.95,4.75,4.46,7.11c0.71,1.1,0.98,2.2,0.74,3.51c-0.81,4.48-1.52,8.98-2.3,13.47
			c-0.31,1.8-1.77,2.91-3.38,2.68c-1.55-0.22-2.66-1.8-2.38-3.6c0.63-3.99,1.37-7.96,1.98-11.95c0.1-0.68-0.02-1.53-0.36-2.12
			c-1.48-2.56-3.06-5.06-4.63-7.57c-0.17-0.27-0.5-0.42-0.76-0.63c-0.07,0.35-0.26,0.73-0.18,1.05c0.44,1.95,0.86,3.91,1.45,5.81
			c0.54,1.73,0.38,3.36-0.1,5.05c-0.9,3.19-1.71,6.41-2.55,9.61c-0.56,2.15-2.16,3.15-3.98,2.5c-1.55-0.55-2.2-2.03-1.71-3.96
			c0.62-2.4,1.16-4.82,1.92-7.18c0.76-2.35,0.92-4.6,0.16-7c-1.01-3.24-1.78-6.55-2.65-9.83c-0.07-0.27-0.15-0.55-0.16-0.82
			c-0.09-6.06,0.18-12.09,2.15-17.89c0.57-1.67,1.45-3.31,2.51-4.73c1.69-2.26,4.04-3,6.82-2.18c0.85,0.25,1.34,0.67,1.49,1.61
			c0.3,1.85,0.71,3.69,1.09,5.53c0.3,1.46,1,1.74,2.48,1.74c1.99,0,3.21-1.51,4.87-2.1C126.97,215.04,127.33,214.8,127.76,214.57z" fill="white"/>
		<path d="M246.42,224.09c0,0.82,0,1.48,0,2.29c3.86,0,7.7,0,11.59,0c0,1.62,0,3.07,0,4.68c-3.88,0-7.69,0-11.59,0
			c0,0.84,0,1.54,0,2.4c4.62,0,9.24,0,13.92,0c0,1.61,0,3.08,0,4.62c-6.16,0-12.34,0-18.59,0c0-6.16,0-12.33,0-18.57
			c6.19,0,12.36,0,18.6,0c0,1.5,0,2.96,0,4.58C255.71,224.09,251.11,224.09,246.42,224.09z" fill="white"/>
		<path d="M267.46,231.22c0,2.3,0,4.56,0,6.88c-1.58,0-3.04,0-4.58,0c0-6.19,0-12.36,0-18.66c2.9,0,5.77-0.02,8.64,0.01
			c1.95,0.02,3.92-0.03,5.86,0.19c2.17,0.24,3.58,1.57,3.94,3.76c0.19,1.13,0.25,2.32,0.1,3.45c-0.32,2.38-1.56,3.55-3.95,4.01
			c-0.34,0.07-0.68,0.13-1.3,0.53c2.36,2.12,4.71,4.24,7.07,6.37c-0.1,0.14-0.2,0.28-0.3,0.42c-1.98,0-3.96,0.03-5.94-0.03
			c-0.33-0.01-0.71-0.31-0.98-0.57c-1.82-1.8-3.68-3.57-5.4-5.46C269.74,231.14,268.84,230.85,267.46,231.22z M267.54,226.4
			c2.7,0,5.33-0.01,7.96,0.01c0.81,0.01,1.34-0.27,1.35-1.14c0.01-0.87-0.53-1.17-1.33-1.17c-2.04,0.01-4.08,0-6.11,0
			c-0.62,0-1.24,0-1.87,0C267.54,224.98,267.54,225.64,267.54,226.4z" fill="white"/>
		<path d="M136.42,232.3c1.43-0.19,2.88-0.38,4.33-0.57c0.71,1.77,0.71,1.77,2.7,1.77c1.8,0,3.6-0.01,5.4,0.01
			c0.87,0.01,1.54-0.23,1.53-1.23c-0.01-1.02-0.7-1.21-1.56-1.21c-2.28,0.02-4.56,0.02-6.83,0c-2.16-0.02-4.15-0.55-5.05-2.72
			c-1.01-2.44-1.04-4.95,0.63-7.17c1.01-1.35,2.59-1.69,4.18-1.72c2.64-0.05,5.28-0.05,7.91,0c3.51,0.07,5.48,2.18,5.33,5.8
			c-1.45,0.18-2.92,0.36-4.49,0.56c-0.03-1.58-0.96-1.77-2.18-1.72c-1.88,0.07-3.76,0.03-5.63,0.02c-0.86,0-1.69,0.05-1.66,1.19
			c0.02,1.06,0.79,1.12,1.62,1.11c2.24-0.02,4.48-0.03,6.71,0c2.19,0.03,4.25,0.56,5.13,2.8c0.97,2.48,1.07,5.08-0.75,7.25
			c-0.63,0.75-1.8,1.41-2.76,1.46c-3.42,0.19-6.87,0.31-10.27,0.05C137.69,237.73,136.17,235.47,136.42,232.3z" fill="white"/>
		<path d="M197.04,228.77c0,1.44,0.06,2.88-0.01,4.31c-0.14,2.88-1.54,4.67-4.41,4.9c-3.25,0.26-6.54,0.26-9.79,0.01
			c-2.88-0.22-4.34-1.95-4.45-4.86c-0.12-2.87-0.12-5.75,0-8.62c0.12-3.13,1.96-4.93,5.11-5.05c2.79-0.11,5.59-0.1,8.38,0
			c3.24,0.11,5.06,2,5.18,5.24C197.09,226.06,197.05,227.42,197.04,228.77C197.04,228.77,197.04,228.77,197.04,228.77z
			 M187.57,233.49c1.16,0,2.32-0.01,3.47,0c0.89,0.01,1.34-0.42,1.35-1.3c0.01-2.24,0.01-4.47,0.01-6.71c0-0.93-0.45-1.39-1.4-1.38
			c-2.2,0.02-4.39,0.02-6.59,0c-0.94-0.01-1.41,0.43-1.42,1.37c0,2.24,0,4.47,0,6.71c0,0.88,0.46,1.32,1.34,1.32
			C185.41,233.49,186.49,233.49,187.57,233.49z" fill="white"/>
		<path d="M218.17,228.85c0,1.36,0.04,2.72-0.01,4.07c-0.11,3.01-1.52,4.83-4.5,5.08c-3.21,0.26-6.47,0.25-9.68,0
			c-2.9-0.23-4.36-1.93-4.49-4.83c-0.13-2.91-0.12-5.83,0-8.74c0.12-2.89,1.59-4.62,4.48-4.83c3.25-0.25,6.54-0.23,9.79,0.02
			c2.81,0.22,4.22,1.98,4.37,4.8c0.08,1.47,0.01,2.95,0.01,4.43C218.16,228.85,218.16,228.85,218.17,228.85z M213.52,228.92
			c0-1.12-0.01-2.24,0-3.35c0.01-0.98-0.42-1.47-1.45-1.46c-2.16,0.02-4.31,0.02-6.47,0c-0.99-0.01-1.5,0.4-1.5,1.41
			c0,2.2,0,4.39,0,6.59c0,0.93,0.44,1.4,1.39,1.4c2.2-0.01,4.39-0.02,6.59,0c1.03,0.01,1.45-0.49,1.44-1.47
			C213.51,230.99,213.52,229.95,213.52,228.92z" fill="white"/>
		<path d="M162.17,238.12c-1.69,0-3.12,0-4.64,0c0-6.19,0-12.36,0-18.61c1.46,0,2.92,0,4.54,0c0,2.25,0,4.5,0,6.82
			c3.21,0,6.27,0,9.43,0c0-2.27,0-4.5,0-6.81c1.57,0,3.03,0,4.59,0c0,6.14,0,12.31,0,18.56c-1.44,0-2.9,0-4.52,0
			c0-2.27,0-4.56,0-6.93c-3.19,0-6.21,0-9.39,0C162.17,233.43,162.17,235.72,162.17,238.12z" fill="white"/>
		<path d="M232.34,238.11c-1.65,0-3.12,0-4.74,0c0-4.62,0-9.24,0-14c-2.4,0-4.66,0-6.98,0c0-1.6,0-3.06,0-4.6c6.2,0,12.37,0,18.61,0
			c0,1.5,0,2.95,0,4.56c-2.28,0-4.54,0-6.89,0C232.34,228.81,232.34,233.39,232.34,238.11z" fill="white"/>
		<path d="M129.36,215.18c0.25-1.16,0.49-2.28,0.79-3.68c-0.59,0.31-0.94,0.51-1.31,0.7c-2.12,1.11-4.22,2.27-6.38,3.29
			c-1.43,0.67-1.7,0.46-2-1.06c-0.26-1.32-0.51-2.65-0.8-4.14c2.44-0.39,4.79-0.77,7.14-1.14c0.36-0.06,0.71-0.13,1.07-0.14
			c1.34-0.05,2.26-0.54,2.44-2.02c0.08-0.7,0.54-0.97,1.28-0.92c1.28,0.08,2.56,0.07,3.84,0.09c0.74,0.01,1.57-0.16,1.79,0.92
			c0.02,0.11,0.47,0.22,0.69,0.17c0.7-0.15,1.37-0.51,2.07-0.56c2.71-0.18,5.43-0.29,8.14-0.38c2.33-0.08,4.66-0.1,7-0.11
			c0.28,0,0.56,0.25,0.84,0.39c-0.25,0.14-0.48,0.37-0.74,0.42c-1.1,0.19-2.22,0.3-3.32,0.5c-4.26,0.81-8.5,1.64-12.76,2.46
			c-0.27,0.05-0.56,0.12-0.82,0.08c-1.16-0.16-1.39,0.07-1.08,1.21c0.31,1.12,0.62,2.23,0.96,3.34c0.21,0.68-0.01,1.03-0.67,1.25
			c-0.63,0.21-1.18,0.54-1.6-0.32c-0.33-0.68-0.79-1.3-1.13-1.98c-0.33-0.67-0.8-0.82-1.53-0.85c-1.25-0.06-1.77,0.44-1.96,1.64
			C131.07,215.73,130.99,215.72,129.36,215.18z" fill="white"/>
		<path d="M121.12,206.97c-3.64,0.01-6.57-2.88-6.6-6.5c-0.03-3.64,2.97-6.7,6.55-6.71c3.6-0.01,6.6,3.03,6.59,6.66
			C127.66,204.06,124.75,206.97,121.12,206.97z" fill="white"/>
	</g>
</g>
</svg>
