<?xml version="1.0" encoding="utf-8"?>
<!-- Made by Szalik  -->
<svg version="1.1" id="Warstwa_1" xmlns="http://www.w3.org/2000/svg" xmlns:xlink="http://www.w3.org/1999/xlink" x="0px" y="0px" xml:space="preserve">
<g>
	<g>
		<path d="M135.15,273.18c-0.52,0-0.96,0-1.39,0c-4.52,0-9.04,0.01-13.56,0c-1.89,0-2.6-0.73-2.6-2.62c0-15.99,0-31.99,0-47.98
			c0-1.97,0.69-2.65,2.68-2.65c15.95,0,31.91,0,47.86,0c2.04,0,2.71,0.68,2.71,2.75c0,4.48,0,8.96,0,13.44c0,0.43,0,0.86,0,1.3
			c7.46-0.64,12.22,2.96,12.25,9.11c0.03,4.95-4.48,10.79-12.25,9.12c0,0.46,0,0.88,0,1.31c0,4.52,0,9.04,0,13.56
			c0,1.95-0.72,2.66-2.69,2.66c-4.48,0.01-8.96,0-13.44,0c-0.43,0-0.87,0-1.44,0c0.84,3.79,0.12,7.09-2.68,9.72
			c-1.96,1.84-4.34,2.67-7.03,2.49C138.56,285.06,133.58,280.46,135.15,273.18z M121.75,269.09c0.58,0,1.02,0,1.45,0
			c4.88,0,9.76-0.01,14.64,0.01c1.75,0.01,2.6,1.2,2.1,2.88c-0.27,0.92-0.65,1.81-0.86,2.74c-0.48,2.13,0.07,3.99,1.78,5.38
			c1.74,1.41,3.71,1.66,5.72,0.65c1.95-0.98,3.04-2.64,2.9-4.84c-0.08-1.21-0.54-2.4-0.9-3.58c-0.65-2.13,0.13-3.23,2.38-3.23
			c4.8-0.01,9.6,0,14.4,0c0.43,0,0.85,0,1.41,0c0-0.57,0-1,0-1.43c0-4.84-0.01-9.68,0-14.52c0-2.06,1.16-2.87,3.14-2.25
			c0.84,0.27,1.66,0.58,2.51,0.79c2.14,0.51,3.98-0.1,5.36-1.8c1.39-1.7,1.63-3.64,0.68-5.62c-0.95-1.97-2.59-3.09-4.79-2.98
			c-1.21,0.06-2.41,0.49-3.58,0.86c-2.22,0.68-3.32-0.07-3.32-2.37c-0.01-4.8,0-9.6,0-14.4c0-0.42,0-0.85,0-1.3
			c-15.1,0-30.03,0-45.02,0C121.75,239.08,121.75,254.01,121.75,269.09z" fill="white"/>
		<path d="M325.35,244.75c0,1.11,0,1.97,0,2.98c4.86,0,9.67,0,14.55,0c0,2,0,3.87,0,5.91c-4.83,0-9.64,0-14.52,0
			c0,1.03,0,1.89,0,2.9c5.85,0,11.63,0,17.47,0c0,2.01,0,3.87,0,5.8c-7.79,0-15.53,0-23.34,0c0-7.77,0-15.51,0-23.35
			c7.74,0,15.5,0,23.33,0c0,1.9,0,3.76,0,5.77C337.03,244.75,331.25,244.75,325.35,244.75z" fill="white"/>
		<path d="M250.31,256.56c4.68,0,8.98,0,13.34,0c0,1.99,0,3.85,0,5.78c-7.8,0-15.54,0-23.4,0c0-1.26-0.05-2.49,0.03-3.71
			c0.02-0.37,0.36-0.77,0.65-1.06c3.86-3.89,7.73-7.77,11.59-11.65c0.28-0.28,0.54-0.57,1.02-1.07c-4.55,0-8.86,0-13.23,0
			c0-2.05,0-3.91,0-5.87c7.73,0,15.47,0,23.36,0c-0.04,2.01,0.46,3.94-1.49,5.71c-3.73,3.38-7.17,7.08-10.72,10.65
			C251.15,255.63,250.87,255.95,250.31,256.56z" fill="white"/>
		<path d="M290.03,262.36c-7.81,0-15.52,0-23.38,0c0-1.29-0.05-2.56,0.03-3.81c0.02-0.36,0.4-0.75,0.69-1.04
			c3.86-3.89,7.73-7.77,11.6-11.65c0.27-0.27,0.52-0.56,0.97-1.04c-4.55,0-8.84,0-13.21,0c0-2.03,0-3.92,0-5.87
			c7.76,0,15.5,0,23.38,0c0,1.27,0.05,2.5-0.03,3.72c-0.03,0.37-0.39,0.76-0.68,1.06c-3.83,3.87-7.66,7.72-11.51,11.57
			c-0.31,0.31-0.71,0.51-1.07,0.76c0.07,0.14,0.14,0.27,0.21,0.41c4.31,0,8.63,0,13.01,0C290.03,258.51,290.03,260.37,290.03,262.36
			z" fill="white"/>
		<path d="M187.74,262.31c0-7.77,0-15.51,0-23.35c0.29-0.03,0.59-0.08,0.89-0.08c5.16-0.01,10.31-0.03,15.47,0.02
			c1.06,0.01,2.16,0.2,3.16,0.55c2.7,0.95,4.05,3.59,3.87,7.26c-0.18,3.66-1.62,5.84-4.51,6.54c-1.23,0.3-2.53,0.36-3.8,0.39
			c-2.96,0.06-5.91,0.03-8.87,0.05c-0.07,0-0.15,0.05-0.35,0.13c0,2.76,0,5.58,0,8.49C191.57,262.31,189.69,262.31,187.74,262.31z
			 M193.59,247.76c3.39,0,6.66,0.01,9.93-0.01c1.24-0.01,1.69-0.44,1.71-1.49c0.02-1.18-0.69-1.48-1.71-1.48
			c-3.04,0.01-6.07,0-9.11,0.01c-0.26,0-0.52,0.08-0.82,0.13C193.59,245.86,193.59,246.72,193.59,247.76z" fill="white"/>
		<path d="M214.08,238.94c1.97,0,3.83,0,5.79,0c0.02,0.46,0.06,0.88,0.06,1.3c0,4.68,0,9.35,0,14.03c0,1.96,0.27,2.24,2.2,2.24
			c2.52,0.01,5.04,0.02,7.55,0c1.66-0.01,1.94-0.31,1.95-1.98c0.01-4.72,0-9.43,0-14.15c0-0.44,0-0.87,0-1.4c1.96,0,3.85,0,5.91,0
			c0,0.37,0,0.75,0,1.14c0,4.84,0,9.67,0,14.51c0,0.16,0,0.32,0,0.48c-0.12,5-2.46,7.28-7.46,7.3c-2.96,0.01-5.91,0.02-8.87,0
			c-4.67-0.03-7.1-2.46-7.12-7.12c-0.03-5.16-0.01-10.31-0.01-15.47C214.08,239.54,214.08,239.27,214.08,238.94z" fill="white"/>
		<path d="M316.44,262.33c-7.8,0-15.53,0-23.33,0c0-7.8,0-15.56,0-23.39c1.9,0,3.76,0,5.75,0c0,5.81,0,11.59,0,17.55
			c5.93,0,11.73,0,17.58,0C316.44,258.55,316.44,260.41,316.44,262.33z" fill="white"/>
	</g>
</g>
</svg>
