<?xml version="1.0" encoding="utf-8"?>
<!-- Made by Szalik  -->
<svg version="1.1" id="4players" xmlns="http://www.w3.org/2000/svg" xmlns:xlink="http://www.w3.org/1999/xlink" x="0px" y="0px" xml:space="preserve">
<g>
	<g>
		<path d="M119.52,285.2c-0.58-1.67-1.69-2.78-3.43-3.2c-1.11-0.27-1.54-0.99-1.53-2.11c0.02-4.44-0.02-8.88,0.02-13.32
			c0.02-2.52,1.22-4.16,3.62-4.92c1.13-0.36,2.34-0.5,3.53-0.59c0.49-0.03,1.08,0.26,1.52,0.56c1.92,1.31,3.78,1.29,5.66-0.02
			c0.48-0.33,1.18-0.57,1.75-0.52c1.14,0.1,2.32,0.28,3.39,0.68c2.33,0.86,3.44,2.59,3.45,5.07c0.01,4.28-0.03,8.56,0.02,12.84
			c0.01,1.25-0.34,2.05-1.62,2.4c-1.59,0.43-2.31,1.74-2.93,3.12C128.48,285.2,124,285.2,119.52,285.2z" fill="white"/>
		<path d="M144.48,285.2c-0.49-1.6-1.48-2.71-3.14-3.15c-1.14-0.3-1.6-1.02-1.59-2.19c0.03-4.39-0.01-8.79,0.02-13.18
			c0.02-2.93,1.51-4.68,4.5-5.34c1.52-0.34,2.97-0.52,4.4,0.64c1.32,1.07,3.01,0.94,4.36-0.08c0.96-0.72,1.85-0.91,2.99-0.76
			c3.95,0.5,5.71,2.45,5.71,6.42c0,4.08-0.03,8.15,0.02,12.23c0.01,1.21-0.37,1.95-1.58,2.32c-1.52,0.46-2.24,1.71-2.74,3.11
			C153.12,285.2,148.8,285.2,144.48,285.2z" fill="white"/>
		<path d="M127.2,206.24c1.78,0.59,3.51,1.26,4.74,2.78c2.37,2.93,2.28,6.69-0.22,9.5c-2.45,2.75-6.92,3.32-10.04,1.21
			c-2.54-1.72-3.76-4.17-3.26-7.2c0.52-3.16,2.56-5.12,5.63-6.03c0.26-0.08,0.51-0.18,0.76-0.27
			C125.6,206.24,126.4,206.24,127.2,206.24z" fill="white"/>
		<path d="M151.68,206.24c1.95,0.55,3.74,1.34,4.96,3.09c1.89,2.71,1.89,6.11-0.05,8.71c-1.93,2.59-5.17,3.61-8.21,2.6
			c-2.96-0.99-5.07-3.92-5.05-7.01c0.02-3.16,2.15-6.02,5.23-7.01c0.33-0.11,0.65-0.24,0.97-0.37
			C150.24,206.24,150.96,206.24,151.68,206.24z" fill="white"/>
		<path d="M125.04,245.86c-1.99,0-3.73,0-5.48,0c-0.56-1.83-1.69-2.98-3.52-3.43c-1.08-0.27-1.55-0.98-1.55-2.1
			c0.02-4.48-0.02-8.95,0.02-13.43c0.02-2.2,1.07-3.88,3.13-4.66c1.28-0.48,2.7-0.67,4.07-0.82c0.51-0.05,1.14,0.29,1.61,0.61
			c1.82,1.24,3.77,1.2,5.56-0.04c0.51-0.36,1.27-0.65,1.84-0.56c1.43,0.24,2.92,0.54,4.22,1.16c1.74,0.83,2.59,2.4,2.58,4.39
			c-0.02,4.48-0.03,8.95,0.01,13.43c0.01,1.09-0.42,1.74-1.44,2.04c-1.69,0.49-2.6,1.71-3.07,3.4c-1.94,0-3.89,0-6.04,0
			c4.92,1.6,7.16,4.59,6.51,8.52c-0.6,3.66-3.83,6.25-7.69,6.18c-3.83-0.08-6.94-2.81-7.42-6.52
			C117.91,250.29,120.35,247.21,125.04,245.86z" fill="white"/>
		<path d="M149.76,245.87c-1.9,0-3.56,0-5.23,0c-0.5-1.8-1.56-2.97-3.35-3.43c-1.08-0.28-1.49-1.04-1.49-2.15
			c0.03-4.44-0.01-8.88,0.02-13.32c0.01-2.42,1.27-4.23,3.57-4.98c1.01-0.33,2.1-0.49,3.16-0.56c0.5-0.04,1.1,0.19,1.53,0.48
			c2.02,1.4,3.63,1.42,5.58-0.01c0.28-0.21,0.62-0.47,0.94-0.48c3.05-0.13,7.46,1.27,7.3,6c-0.15,4.27-0.06,8.56-0.01,12.83
			c0.01,1.16-0.33,1.89-1.5,2.24c-1.6,0.49-2.37,1.78-2.87,3.34c-1.81,0-3.64,0-5.47,0c1.99,0.61,3.67,1.6,4.84,3.36
			c1.17,1.76,1.5,3.7,1.03,5.73c-0.81,3.53-3.97,5.83-7.61,5.62c-3.42-0.2-6.28-2.87-6.71-6.26
			C142.98,250.28,145.16,247.28,149.76,245.87z" fill="white"/>
		<path d="M265.01,257.99c0-7.82,0-15.56,0-23.36c7.79,0,15.53,0,23.36,0c0,1.92,0,3.84,0,5.87c-5.79,0-11.53,0-17.37,0
			c0,0.99,0,1.88,0,2.92c4.79,0,9.6,0,14.48,0c0,2.03,0,3.93,0,5.94c-4.83,0-9.6,0-14.48,0c0,0.93,0,1.75,0,2.71
			c5.72,0,11.49,0,17.36,0c0,2.04,0,3.93,0,5.92C280.64,257.99,272.88,257.99,265.01,257.99z" fill="white"/>
		<path d="M341.15,241.98c-1.89,0.25-3.8,0.5-5.71,0.75c-0.37-2.2-0.37-2.2-2.51-2.2c-2.52,0-5.04,0.02-7.56-0.01
			c-0.97-0.01-1.66,0.21-1.66,1.36c0,1.08,0.42,1.53,1.66,1.55c2.84,0.03,5.68,0.06,8.52,0c6.15-0.13,7.84,4.06,7.28,8.67
			c-0.5,4.13-2.8,5.98-6.97,5.98c-3.36,0-6.72,0.04-10.08-0.01c-4.13-0.06-6.9-3.34-6.21-7.36c1.86-0.22,3.75-0.44,5.62-0.65
			c0.47,2.06,0.47,2.07,2.51,2.07c2.52,0,5.04-0.01,7.56,0c0.95,0.01,1.68-0.19,1.69-1.34c0.01-1.13-0.68-1.38-1.65-1.37
			c-2.68,0.02-5.36,0.03-8.04,0c-0.99-0.01-2.01-0.08-2.97-0.29c-2.81-0.61-4.58-2.67-4.81-5.67c-0.09-1.22-0.09-2.5,0.15-3.69
			c0.67-3.38,2.89-5.16,6.31-5.19c3.52-0.02,7.04-0.04,10.56,0C338.88,234.62,341.61,237.8,341.15,241.98z" fill="white"/>
		<path d="M291.45,234.57c5.84,0,11.59-0.09,17.35,0.03c3.53,0.07,5.69,2.43,6.01,6.35c0.1,1.25-0.01,2.57-0.3,3.8
			c-0.66,2.86-2.42,4.11-6.27,4.53c3.01,2.83,5.9,5.54,8.8,8.25c-0.12,0.18-0.24,0.35-0.37,0.53c-2.65,0-5.3,0.02-7.95-0.03
			c-0.28-0.01-0.58-0.38-0.83-0.62c-2.22-2.19-4.5-4.32-6.6-6.63c-1.1-1.21-2.26-1.62-3.93-1.26c0,2.75,0,5.56,0,8.46
			c-2.04,0-3.93,0-5.91,0C291.45,250.25,291.45,242.48,291.45,234.57z M297.35,243.43c3.43,0,6.73,0.02,10.04-0.01
			c0.98-0.01,1.55-0.53,1.5-1.59c-0.06-1.04-0.68-1.32-1.61-1.3c-1.71,0.03-3.43,0.01-5.14,0.01c-1.58,0-3.16,0-4.78,0
			C297.35,241.56,297.35,242.42,297.35,243.43z" fill="white"/>
		<path d="M172.77,249.41c0,2.91,0,5.69,0,8.57c-1.99,0-3.89,0-5.88,0c0-7.71,0-15.48,0-23.42c0.39,0,0.81,0,1.23,0
			c4.88,0,9.76,0.08,14.63-0.02c6.31-0.13,7.95,4.03,7.47,8.64c-0.44,4.19-2.69,6.1-7.07,6.21c-3,0.07-6,0.02-8.99,0.02
			C173.73,249.41,173.3,249.41,172.77,249.41z M172.81,243.42c3.44,0,6.82,0.03,10.19-0.02c0.94-0.01,1.4-0.66,1.32-1.63
			c-0.08-0.96-0.66-1.25-1.55-1.24c-2.99,0.02-5.98,0-8.97,0.01c-0.34,0-0.68,0.05-0.99,0.07
			C172.81,241.6,172.81,242.46,172.81,243.42z" fill="white"/>
		<path d="M218.05,258.08c4.45-8.38,8.8-16.57,13.27-24.97c4.46,8.39,8.81,16.58,13.27,24.97c-2.23,0-4.28,0.03-6.33-0.04
			c-0.3-0.01-0.74-0.48-0.86-0.82c-0.57-1.71-1.69-2.19-3.44-2.04c-2.15,0.17-4.32,0.07-6.48,0.02c-0.8-0.02-1.41,0.11-1.66,0.97
			c-0.48,1.64-1.56,2.14-3.23,1.95C221.18,257.95,219.73,258.08,218.05,258.08z M231.32,245.84c-0.64,1.22-1.16,2.22-1.74,3.34
			c1.24,0,2.29,0,3.5,0C232.5,248.09,231.97,247.09,231.32,245.84z" fill="white"/>
		<path d="M193.26,257.99c0-7.82,0-15.56,0-23.37c1.95,0,3.85,0,5.89,0c0,5.83,0,11.6,0,17.48c5.88,0,11.62,0,17.46,0
			c0,2,0,3.89,0,5.88C208.88,257.99,201.11,257.99,193.26,257.99z" fill="white"/>
		<path d="M237.11,234.56c2.45,0,4.69-0.03,6.93,0.03c0.36,0.01,0.81,0.28,1.05,0.57c1.71,2.06,3.37,4.16,5.16,6.39
			c0.94-1.16,1.86-2.29,2.77-3.41c0.96-1.17,1.71-2.77,2.95-3.39c1.19-0.59,2.89-0.17,4.37-0.18c0.96-0.01,1.92,0,3.17,0
			c-0.53,0.67-0.92,1.17-1.32,1.67c-2.78,3.46-5.57,6.9-8.31,10.4c-0.38,0.48-0.62,1.2-0.63,1.82c-0.06,3.15-0.03,6.31-0.03,9.55
			c-1.96,0-3.86,0-5.94,0c0-0.41,0-0.83,0-1.25c0-2.72,0.05-5.44-0.03-8.16c-0.02-0.72-0.31-1.56-0.75-2.13
			c-2.85-3.66-5.78-7.25-8.67-10.87C237.59,235.29,237.4,234.98,237.11,234.56z" fill="white"/>
	</g>
</g>
</svg>
