<?xml version="1.0" encoding="utf-8"?>
<!-- Made by Szalik  -->
<svg version="1.1" id="shootemup" xmlns="http://www.w3.org/2000/svg" xmlns:xlink="http://www.w3.org/1999/xlink" x="0px" y="0px" style="enable-background:new 0 0 500 500;" xml:space="preserve">
<g>
	<g>
		<path d="M165.87,226.05c-0.95-2.56,0.67-3.69,1.96-4.98c2.03-2.02,4.06-4.06,6.3-6.32c0,2.98,0,5.66,0,8.53c2.82,0,5.5,0,8.18,0
			c0.04,0.1,0.08,0.2,0.12,0.3c-0.26,0.27-0.51,0.54-0.78,0.8c-1.95,1.95-3.98,3.83-5.84,5.87c-1.15,1.26-2.37,1.95-4.37,1.47
			c5.35,8.23,6.48,16.69,2.9,25.56c-2.33,5.77-6.37,10.11-11.86,13.04c-10.97,5.86-24.55,3.16-32.49-6.42
			c-7.9-9.53-7.98-23.35-0.33-33.04C137.53,220.9,153.18,217.19,165.87,226.05z M163.5,231.21c-6.82-6.25-19.88-7.41-28.49,1.62
			c-8.16,8.55-7.53,22.24,1.35,30.05c8.94,7.86,22.57,6.72,30.06-2.53c7.49-9.24,4.94-21.23-0.37-26.47
			c-1.15,1.16-2.3,2.32-3.45,3.48c6.15,8.31,2.93,18.1-2.97,22.43c-6.29,4.63-15.01,4.07-20.54-1.43
			c-5.55-5.51-6.23-14.2-1.57-20.51c2.27-3.08,5.28-5.09,9.01-5.96c4.94-1.14,9.42-0.05,13.45,2.93
			C161.18,233.6,162.31,232.43,163.5,231.21z M156.24,238.84c-3.93-3.28-10.26-2.57-13.83,1.38c-3.73,4.14-3.52,10.55,0.48,14.43
			c4.02,3.9,10.38,3.97,14.44,0.14c3.8-3.59,4.43-9.97,1.24-13.58c-1.01,1.02-2.05,2-2.99,3.07c-0.27,0.31-0.42,0.91-0.34,1.31
			c0.29,1.34,0.29,2.62-0.31,3.86c-1.19,2.5-4.12,3.64-6.7,2.61c-2.6-1.03-3.93-3.95-3.02-6.62c0.89-2.6,3.67-4.05,6.37-3.36
			c0.4,0.1,1.01,0.15,1.27-0.07C154.02,241.03,155.11,239.92,156.24,238.84z" fill="white"/>
		<path d="M313.41,254.56c0,1.68,0,3.11,0,4.63c-6.18,0-12.35,0-18.61,0c0-6.14,0-12.31,0-18.55c6.17,0,12.34,0,18.58,0
			c0,1.48,0,2.94,0,4.56c-4.62,0-9.23,0-13.92,0c0,0.85,0,1.54,0,2.34c3.88,0,7.7,0,11.59,0c0,1.57,0,3.02,0,4.63
			c-3.87,0-7.68,0-11.58,0c0,0.84,0,1.54,0,2.4C304.08,254.56,308.69,254.56,313.41,254.56z" fill="white"/>
		<path d="M182.45,253.42c1.52-0.2,3-0.39,4.48-0.58c0.4,1.77,0.4,1.77,2.25,1.77c1.92,0,3.84-0.01,5.76,0.01
			c0.88,0.01,1.53-0.24,1.52-1.24c-0.01-1.02-0.71-1.2-1.56-1.2c-2.28,0.02-4.56,0.02-6.83,0c-2.16-0.02-4.15-0.55-5.05-2.73
			c-1.01-2.44-1.03-4.95,0.64-7.17c1.02-1.34,2.59-1.69,4.18-1.71c2.64-0.05,5.28-0.05,7.91,0c3.51,0.07,5.48,2.2,5.31,5.8
			c-1.45,0.18-2.92,0.36-4.49,0.56c-0.02-1.59-0.97-1.77-2.19-1.72c-1.92,0.07-3.84,0.03-5.75,0.01c-0.85-0.01-1.57,0.16-1.54,1.2
			c0.03,0.96,0.69,1.11,1.51,1.1c2.28-0.02,4.56-0.03,6.83,0c2.19,0.03,4.25,0.56,5.12,2.81c0.97,2.48,1.11,5.12-0.77,7.24
			c-0.78,0.88-2.25,1.51-3.45,1.6c-3.02,0.23-6.08,0.25-9.1,0.03C183.97,258.97,182.43,256.99,182.45,253.42z" fill="white"/>
		<path d="M336.88,240.67c0,6.2,0,12.34,0,18.54c-1.52,0-2.98,0-4.6,0c0-3.37,0-6.74,0-10.11c-0.1-0.06-0.21-0.12-0.31-0.17
			c-1.7,1.93-3.4,3.85-5.2,5.89c-2.28-2.22-4.16-4.04-6.24-6.07c0,3.66,0,7.03,0,10.47c-1.61,0-3.07,0-4.61,0
			c0-6.18,0-12.35,0-18.56c1.9-0.3,3.48-0.15,4.89,1.51c1.69,2,3.75,3.69,5.62,5.48c1.74-1.7,3.75-3.37,5.4-5.34
			C333.24,240.63,334.82,240.29,336.88,240.67z" fill="white"/>
		<path d="M243.11,249.97c0,1.44,0.06,2.88-0.01,4.31c-0.15,2.82-1.55,4.59-4.36,4.82c-3.25,0.26-6.54,0.27-9.79,0.03
			c-2.9-0.22-4.37-1.93-4.5-4.82c-0.13-2.91-0.12-5.83,0-8.74c0.12-2.9,1.58-4.62,4.47-4.84c3.21-0.25,6.47-0.26,9.68-0.01
			c2.99,0.24,4.4,2.05,4.52,5.06C243.17,247.17,243.12,248.57,243.11,249.97C243.12,249.97,243.12,249.97,243.11,249.97z
			 M233.79,245.23c-1.08,0-2.16,0.02-3.23-0.01c-1-0.03-1.49,0.42-1.49,1.42c0.01,2.2,0,4.39,0,6.59c0,0.93,0.45,1.39,1.4,1.39
			c2.2-0.01,4.39-0.02,6.59,0c1.03,0.01,1.43-0.51,1.43-1.48c-0.01-2.16-0.01-4.31,0-6.47c0-0.99-0.44-1.47-1.46-1.45
			C235.94,245.25,234.87,245.23,233.79,245.23z" fill="white"/>
		<path d="M264.24,249.88c0,1.44,0.06,2.88-0.01,4.31c-0.13,2.89-1.53,4.68-4.39,4.91c-3.25,0.26-6.54,0.27-9.79,0.02
			c-2.89-0.22-4.35-1.94-4.47-4.84c-0.12-2.91-0.12-5.83,0-8.74c0.13-2.89,1.6-4.6,4.5-4.82c3.25-0.24,6.54-0.23,9.79,0.03
			c2.8,0.22,4.2,1.99,4.36,4.82C264.3,247,264.23,248.44,264.24,249.88C264.24,249.88,264.24,249.88,264.24,249.88z M250.19,249.8
			c0,1.12,0.01,2.24,0,3.35c-0.01,0.99,0.43,1.47,1.45,1.46c2.2-0.02,4.39-0.01,6.59,0c0.96,0.01,1.38-0.48,1.38-1.4
			c0-2.2,0-4.39,0-6.59c0-0.92-0.42-1.41-1.38-1.4c-2.2,0.01-4.39,0.02-6.59,0c-1.02-0.01-1.45,0.49-1.44,1.47
			C250.19,247.72,250.19,248.76,250.19,249.8z" fill="white"/>
		<path d="M366.57,240.56c4.56,0,9.04-0.09,13.51,0.03c3.53,0.1,5.22,2.24,5.14,6.13c-0.08,3.45-1.93,5.38-5.34,5.45
			c-2.83,0.05-5.67,0.01-8.67,0.01c0,2.37,0,4.66,0,7.02c-1.62,0-3.09,0-4.64,0C366.57,253.05,366.57,246.88,366.57,240.56z
			 M371.19,247.52c2.71,0,5.3-0.01,7.89,0.01c0.83,0.01,1.46-0.2,1.46-1.15c0-0.96-0.65-1.16-1.47-1.15c-2.24,0.01-4.48,0-6.71,0.01
			c-0.38,0-0.76,0.05-1.17,0.07C371.19,246.07,371.19,246.71,371.19,247.52z" fill="white"/>
		<path d="M208.24,259.21c-1.62,0-3.09,0-4.63,0c0-6.17,0-12.34,0-18.58c1.47,0,2.93,0,4.55,0c0,2.26,0,4.52,0,6.83
			c3.18,0,6.21,0,9.38,0c0-2.24,0-4.49,0-6.82c1.61,0,3.07,0,4.63,0c0,6.15,0,12.32,0,18.57c-1.46,0-2.92,0-4.54,0
			c0-2.29,0-4.57,0-6.94c-3.19,0-6.21,0-9.39,0C208.24,254.56,208.24,256.85,208.24,259.21z" fill="white"/>
		<path d="M345.39,240.63c1.59,0,3.05,0,4.63,0c0,1.38,0,2.69,0,4c0,2.76-0.01,5.52,0,8.28c0.01,1.43,0.28,1.7,1.67,1.71
			c2.04,0.01,4.08,0.01,6.12,0c1.33-0.01,1.62-0.29,1.62-1.63c0.02-3.6,0.01-7.2,0.01-10.79c0-0.48,0-0.96,0-1.53
			c1.55,0,3.04,0,4.66,0c0,1.64,0,3.26,0,4.89c0,2.68,0.02,5.36-0.01,8.04c-0.04,3.76-1.98,5.69-5.72,5.7
			c-2.52,0.01-5.04,0.03-7.56-0.01c-3.25-0.05-5.28-1.76-5.38-4.9C345.28,249.83,345.39,245.27,345.39,240.63z" fill="white"/>
		<path d="M278.38,259.23c-1.65,0-3.12,0-4.7,0c0-4.63,0-9.22,0-13.94c-2.37,0-4.62,0-6.96,0c0-1.61,0-3.07,0-4.63
			c6.14,0,12.31,0,18.57,0c0,1.46,0,2.95,0,4.58c-2.3,0-4.56,0-6.91,0C278.38,249.96,278.38,254.55,278.38,259.23z" fill="white"/>
		<path d="M287.86,240.61c1.53,0,2.96,0,4.48,0c0,2.29,0,4.54,0,6.85c-1.51,0-2.97,0-4.48,0
			C287.86,245.15,287.86,242.87,287.86,240.61z" fill="white"/>
	</g>
</g>
</svg>
