<?xml version="1.0" encoding="utf-8"?>
<!-- Made by Szalik  -->
<svg version="1.1" id="casual" xmlns="http://www.w3.org/2000/svg" xmlns:xlink="http://www.w3.org/1999/xlink" x="0px" y="0px" xml:space="preserve">
<g>
	<g>
		<path d="M115.18,247.41c0-0.51,0-0.95,0-1.39c0-8.08,0-16.15,0-24.23c0-0.4-0.02-0.8,0.03-1.2c0.14-1.2,1.03-2.15,2.21-2.37
			c0.35-0.06,0.72-0.07,1.07-0.07c9.76,0,19.51,0,29.27,0c0.24,0,0.48-0.01,0.72,0.01c1.49,0.12,2.5,1.12,2.64,2.62
			c0.04,0.4,0.02,0.8,0.02,1.2c0,8,0,15.99,0,23.99c0,0.47,0,0.95,0,1.46c0.46,0.16,0.82,0.29,1.2,0.42
			c5.04,1.73,8.41,6.31,8.47,11.64c0.05,4.64,0.04,9.28,0,13.91c-0.03,3.81-2.85,6.79-6.53,6.98c-3.6,0.18-6.71-2.47-7.2-6.17
			c-0.08-0.59-0.08-1.2-0.09-1.79c-0.01-0.96,0-1.91,0-2.84c-0.89-0.29-25.64-0.39-27.55-0.13c-0.03,0.28-0.09,0.59-0.09,0.89
			c-0.01,1.08,0.02,2.16-0.01,3.24c-0.1,3.71-2.95,6.64-6.59,6.8c-3.54,0.15-6.66-2.51-7.14-6.11c-0.07-0.55-0.09-1.12-0.09-1.67
			c-0.01-4.08,0.08-8.16-0.02-12.23c-0.17-6.64,4.18-11.38,9.16-12.72C114.78,247.6,114.92,247.52,115.18,247.41z M133.21,249.96
			c-5.08,0-10.16-0.03-15.23,0.01c-5.2,0.04-9.5,3.99-9.67,9.08c-0.16,4.79-0.08,9.6-0.02,14.39c0.03,2.41,1.98,4.24,4.22,4.18
			c2.3-0.06,4.01-1.87,4.06-4.33c0.02-1.2-0.01-2.4,0.01-3.6c0.02-2.05,1.07-3.14,3.09-3.14c9-0.01,17.99-0.01,26.99,0
			c2.01,0,3.07,1.11,3.09,3.15c0.01,1.28-0.05,2.56,0.03,3.84c0.16,2.74,2.6,4.58,5.15,3.95c1.88-0.46,3.11-2.12,3.12-4.31
			c0.02-4.36,0.02-8.72,0-13.07c-0.02-6.03-4.16-10.14-10.21-10.15C142.96,249.95,138.08,249.95,133.21,249.96z M131.69,234.68
			c0-4.65,0-9.15,0-13.69c-4.6,0-9.13,0-13.67,0c0,4.61,0,9.14,0,13.69C122.62,234.68,127.12,234.68,131.69,234.68z M118.03,237.56
			c-0.25,2.04-0.16,8.73,0.11,9.54c4.5,0,9.01,0,13.54,0c0-3.22,0-6.35,0-9.54C127.1,237.56,122.6,237.56,118.03,237.56z
			 M148.24,247.1c0.26-1.72,0.17-12.85-0.09-13.65c-4.5,0-9,0-13.55,0c0,4.58,0,9.08,0,13.65C139.2,247.1,143.72,247.1,148.24,247.1
			z M148.31,220.98c-4.64,0-9.13,0-13.69,0c0,3.2,0,6.33,0,9.51c4.6,0,9.12,0,13.69,0C148.31,227.29,148.31,224.18,148.31,220.98z" fill="white"/>
		<path d="M217.79,255.13c0.17-0.04,0.36-0.11,0.55-0.13c1.66-0.2,3.32-0.38,4.92-0.57c0.12,0.14,0.2,0.19,0.21,0.25
			c0.3,1.68,0.45,1.82,2.17,1.83c2.52,0.01,5.04,0,7.56,0c0.28,0,0.56-0.01,0.84-0.05c0.88-0.13,1.22-0.58,1.18-1.49
			c-0.04-0.83-0.38-1.25-1.26-1.28c-1.52-0.05-3.04-0.01-4.56-0.03c-1.84-0.02-3.68,0.02-5.51-0.11c-3.67-0.26-5.65-2.07-6.09-5.71
			c-0.17-1.44-0.07-2.97,0.24-4.39c0.61-2.78,2.71-4.41,5.89-4.52c3.63-0.13,7.28-0.15,10.91,0c4.13,0.17,6.48,3.03,6.2,7.33
			c-1.86,0.24-3.74,0.49-5.6,0.73c-0.08-0.12-0.16-0.19-0.17-0.25c-0.21-1.83-0.34-1.95-2.12-1.95c-2.64,0-5.28-0.01-7.92,0.01
			c-1.13,0.01-1.52,0.31-1.65,1.16c-0.18,1.16,0.35,1.79,1.62,1.8c2.88,0.02,5.76-0.02,8.63,0.02c0.91,0.01,1.84,0.1,2.72,0.33
			c2.19,0.55,3.61,1.94,4.2,4.16c0.48,1.82,0.51,3.64,0.05,5.45c-0.73,2.87-2.69,4.51-5.94,4.63c-3.63,0.13-7.28,0.15-10.91,0
			C219.8,262.17,217.29,259.13,217.79,255.13z" fill="white"/>
		<path d="M188.63,247.69c-2.03,0.51-3.92,0.98-5.95,1.48c0-1,0.02-1.87,0-2.75c-0.03-1.3-0.34-1.62-1.67-1.63
			c-2.8-0.02-5.6-0.02-8.4,0c-1.21,0.01-1.6,0.36-1.62,1.58c-0.04,2.84-0.04,5.68,0,8.52c0.02,1.22,0.39,1.58,1.61,1.6
			c2.84,0.03,5.68,0.04,8.51,0c1.23-0.02,1.52-0.37,1.55-1.63c0.02-0.87,0-1.74,0-2.75c2.04,0.51,3.92,0.98,5.86,1.46
			c0.12,1.7,0.04,3.32-0.51,4.89c-0.94,2.66-3.06,3.77-5.66,3.87c-3.67,0.14-7.36,0.16-11.03,0c-3.8-0.16-6.04-2.48-6.17-6.3
			c-0.13-3.59-0.13-7.2,0-10.79c0.14-3.9,2.5-6.21,6.42-6.33c3.52-0.1,7.04-0.1,10.55,0c3.77,0.12,5.88,2.15,6.32,5.89
			C188.56,245.72,188.57,246.63,188.63,247.69z" fill="white"/>
		<path d="M244.12,238.92c1.96,0,3.79,0,5.75,0c0.02,0.45,0.06,0.87,0.06,1.29c0,4.48,0,8.95,0,13.43c0,0.32-0.01,0.64,0,0.96
			c0.04,1.56,0.36,1.9,1.93,1.91c2.64,0.02,5.28,0.02,7.91,0c1.57-0.01,1.86-0.33,1.86-1.95c0.01-4.76,0-9.51,0-14.27
			c0-0.43,0-0.86,0-1.35c1.99,0,3.85,0,5.81,0c0.03,0.29,0.09,0.59,0.09,0.89c0.01,5.04,0.01,10.07-0.01,15.11
			c0,0.76-0.08,1.52-0.2,2.27c-0.52,3.07-2.63,4.99-6.02,5.13c-3.67,0.15-7.36,0.17-11.03,0c-3.96-0.18-6.15-2.68-6.19-6.79
			c-0.05-5.32-0.01-10.63-0.01-15.95C244.08,239.4,244.1,239.21,244.12,238.92z" fill="white"/>
		<path d="M198.21,259.58c-0.52,0.94-1.02,1.84-1.53,2.78c-2.16,0-4.32,0-6.64,0c4.39-8.26,8.74-16.45,13.2-24.84
			c4.45,8.37,8.8,16.56,13.2,24.85c-2.29,0-4.4,0-6.62,0c-0.5-0.88-1.02-1.81-1.57-2.78C204.95,259.58,201.64,259.58,198.21,259.58z
			 M203.23,250.08c-0.66,1.26-1.21,2.31-1.83,3.48c1.31,0,2.4,0,3.68,0C204.45,252.37,203.89,251.31,203.23,250.08z" fill="white"/>
		<path d="M295.4,262.36c-2.3,0-4.41,0-6.62,0c-0.5-0.89-1.02-1.82-1.57-2.79c-3.31,0-6.62,0-10.03,0
			c-0.49,0.89-1.01,1.82-1.54,2.78c-2.17,0-4.32,0-6.64,0c4.39-8.26,8.74-16.45,13.2-24.84
			C286.63,245.86,290.97,254.02,295.4,262.36z M282.19,250.07c-0.67,1.29-1.21,2.33-1.76,3.4c1.3,0.25,2.6,0.22,3.52-0.08
			C283.4,252.34,282.85,251.31,282.19,250.07z" fill="white"/>
		<path d="M296.93,262.33c0-7.84,0-15.58,0-23.38c1.91,0,3.77,0,5.76,0c0,5.8,0,11.57,0,17.54c1.58,0.07,3.04,0.03,4.5,0.04
			c1.44,0.01,2.88,0,4.32,0c1.48,0,2.96,0,4.44,0c1.43,0,2.86,0,4.34,0c0,2.02,0,3.88,0,5.81
			C312.5,262.33,304.76,262.33,296.93,262.33z" fill="white"/>
		<path d="M120.73,252.75c3.08,0.01,5.54,2.51,5.5,5.6c-0.04,3.01-2.53,5.46-5.55,5.45c-3.07-0.02-5.54-2.54-5.5-5.61
			C115.22,255.15,117.69,252.74,120.73,252.75z M120.69,261.02c1.51,0.01,2.75-1.2,2.77-2.71c0.03-1.5-1.18-2.76-2.68-2.81
			c-1.53-0.05-2.85,1.24-2.84,2.77C117.94,259.77,119.19,261,120.69,261.02z" fill="white"/>
		<path d="M140.09,258.28c-0.01-3.1,2.45-5.55,5.55-5.53c3.03,0.02,5.47,2.47,5.49,5.49c0.01,3.06-2.51,5.57-5.57,5.55
			C142.54,263.77,140.1,261.31,140.09,258.28z M148.35,258.22c-0.03-1.5-1.28-2.73-2.77-2.72c-1.49,0.01-2.74,1.26-2.75,2.75
			c-0.01,1.54,1.29,2.81,2.84,2.77C147.18,260.98,148.38,259.72,148.35,258.22z" fill="white"/>
		<path d="M125,225.97c0.57-0.66,1.01-1.23,1.53-1.73c0.69-0.67,1.44-0.7,2.02-0.16c0.62,0.58,0.59,1.35-0.09,2.11
			c-0.24,0.27-0.51,0.51-0.76,0.77c-0.25,0.26-0.49,0.52-0.85,0.89c0.48,0.49,0.96,0.95,1.4,1.44c0.24,0.26,0.5,0.53,0.64,0.85
			c0.26,0.56,0.03,1.23-0.5,1.58c-0.57,0.38-1.15,0.35-1.66-0.09c-0.62-0.55-1.21-1.14-1.88-1.78c-0.62,0.6-1.17,1.17-1.76,1.69
			c-0.79,0.69-1.79,0.53-2.22-0.33c-0.31-0.62-0.14-1.16,0.31-1.64c0.28-0.29,0.56-0.57,0.84-0.85c0.25-0.26,0.49-0.52,0.85-0.89
			c-0.43-0.43-0.84-0.84-1.25-1.26c-0.25-0.26-0.52-0.51-0.71-0.81c-0.37-0.6-0.23-1.27,0.3-1.72c0.51-0.43,1.2-0.46,1.76,0.02
			C123.61,224.58,124.18,225.19,125,225.97z" fill="white"/>
		<path d="M141.43,244.42c-2.26-0.01-4.12-1.87-4.13-4.13c-0.01-2.32,1.89-4.18,4.23-4.14c2.27,0.04,4.1,1.92,4.08,4.17
			C145.58,242.58,143.69,244.43,141.43,244.42z M142.81,240.28c0-0.74-0.63-1.37-1.37-1.37c-0.74,0-1.35,0.63-1.34,1.38
			c0,0.74,0.64,1.38,1.36,1.37C142.18,241.66,142.82,241.01,142.81,240.28z" fill="white"/>
	</g>
</g>
</svg>
