<?xml version="1.0" encoding="utf-8"?>
<svg viewBox="0 0 200 40" xmlns="http://www.w3.org/2000/svg">
  <g transform="matrix(0.82612, 0, 0, 0.815642, -0.221005, 3.920739)">
    <g id="g-1" fill="#6d6d6d" stroke="none" transform="matrix(0.001266, 0, 0, 0.001266, 1.82541, 8.982631)">
      <path d="M3960 13860 l0 -990 495 0 495 0 0 -495 0 -495 495 0 495 0 0 1485 0 1485 -990 0 -990 0 0 -990z" style="fill: rgb(119, 119, 119);"/>
      <path d="M8910 13365 l0 -1485 495 0 495 0 0 495 0 495 495 0 495 0 0 990 0 990 -990 0 -990 0 0 -1485z" style="fill: rgb(119, 119, 119);"/>
      <path d="M0 8910 l0 -990 495 0 495 0 0 990 0 990 -495 0 -495 0 0 -990z" style="fill: rgb(119, 119, 119);"/>
      <path d="M2970 9405 l0 -495 495 0 495 0 0 -495 0 -495 495 0 495 0 0 495 0 495 -495 0 -495 0 0 495 0 495 -495 0 -495 0 0 -495z" style="fill: rgb(119, 119, 119);"/>
      <path d="M10890 9405 l0 -495 -495 0 -495 0 0 -495 0 -495 495 0 495 0 0 495 0 495 495 0 495 0 0 495 0 495 -495 0 -495 0 0 -495z" style="fill: rgb(119, 119, 119);"/>
      <path d="M13860 8910 l0 -990 495 0 495 0 0 990 0 990 -495 0 -495 0 0 -990z" style="fill: rgb(119, 119, 119);"/>
      <path d="M2970 5940 l0 -990 495 0 495 0 0 990 0 990 -495 0 -495 0 0 -990z" style="fill: rgb(119, 119, 119);"/>
      <path d="M10890 5940 l0 -990 495 0 495 0 0 990 0 990 -495 0 -495 0 0 -990z" style="fill: rgb(119, 119, 119);"/>
    </g>
    <g id="layer2" fill="#bfbfbf" stroke="none" transform="matrix(0.001266, 0, 0, 0.001266, 1.82541, 8.982631)">
      <path d="M0 12870 l0 -2970 495 0 495 0 0 990 0 990 495 0 495 0 0 -495 0 -495 495 0 495 0 0 -495 0 -495 495 0 495 0 0 -495 0 -495 -495 0 -495 0 0 -990 0 -990 495 0 495 0 0 990 0 990 495 0 495 0 0 -990 0 -990 495 0 495 0 0 -1980 0 -1980 495 0 495 0 0 -1485 0 -1485 495 0 495 0 0 1485 0 1485 495 0 495 0 0 1980 0 1980 495 0 495 0 0 990 0 990 495 0 495 0 0 -990 0 -990 495 0 495 0 0 990 0 990 -495 0 -495 0 0 495 0 495 495 0 495 0 0 495 0 495 495 0 495 0 0 495 0 495 495 0 495 0 0 -990 0 -990 495 0 495 0 0 2970 0 2970 -495 0 -495 0 0 -495 0 -495 -495 0 -495 0 0 -495 0 -495 -495 0 -495 0 0 -495 0 -495 -990 0 -990 0 0 -495 0 -495 -495 0 -495 0 0 990 0 990 -495 0 -495 0 0 990 0 990 -495 0 -495 0 0 -990 0 -990 -495 0 -495 0 0 -990 0 -990 -495 0 -495 0 0 495 0 495 -990 0 -990 0 0 495 0 495 -495 0 -495 0 0 495 0 495 -495 0 -495 0 0 495 0 495 -495 0 -495 0 0 -2970z m6930 -2475 l0 -495 495 0 495 0 0 495 0 495 495 0 495 0 0 -990 0 -990 -495 0 -495 0 0 -495 0 -495 -495 0 -495 0 0 495 0 495 -495 0 -495 0 0 990 0 990 495 0 495 0 0 -495z" style="fill: rgb(204, 204, 204);"/>
    </g>
  </g>
  <path d="M 19.815 29.034 L 19.815 29.034 L 21.487 24.17 L 21.487 24.17 C 23.159 24.623 24.691 24.848 26.084 24.848 L 26.084 24.848 L 26.084 24.848 C 27.477 24.848 28.602 24.789 29.457 24.672 L 29.457 24.672 L 29.696 23.199 L 27.218 22.963 L 27.218 22.963 C 25.328 22.785 23.987 22.364 23.198 21.694 L 23.198 21.694 L 23.198 21.694 C 22.416 21.027 22.024 20.083 22.024 18.865 L 22.024 18.865 L 22.024 18.865 C 22.024 18.335 22.084 17.745 22.203 17.096 L 22.203 17.096 L 22.203 17.096 C 22.661 14.582 23.49 12.853 24.691 11.91 L 24.691 11.91 L 24.691 11.91 C 25.898 10.966 27.766 10.495 30.293 10.495 L 30.293 10.495 L 30.293 10.495 C 32.821 10.495 35.05 10.741 36.98 11.231 L 36.98 11.231 L 35.427 15.948 L 35.427 15.948 C 33.696 15.653 32.303 15.506 31.249 15.506 L 31.249 15.506 L 31.249 15.506 C 30.193 15.506 29.298 15.555 28.562 15.653 L 28.562 15.653 L 28.322 17.096 L 30.324 17.303 L 30.324 17.303 C 32.353 17.519 33.796 17.998 34.652 18.738 L 34.652 18.738 L 34.652 18.738 C 35.508 19.472 35.935 20.457 35.935 21.694 L 35.935 21.694 L 35.935 21.694 C 35.935 22.953 35.657 24.249 35.1 25.585 L 35.1 25.585 L 35.1 25.585 C 34.821 26.273 34.515 26.849 34.184 27.314 L 34.184 27.314 L 34.184 27.314 C 33.858 27.773 33.441 28.162 32.93 28.483 L 32.93 28.483 L 32.93 28.483 C 32.426 28.811 31.965 29.057 31.547 29.22 L 31.547 29.22 L 31.547 29.22 C 31.129 29.39 30.602 29.515 29.965 29.594 L 29.965 29.594 L 29.965 29.594 C 29.03 29.731 27.885 29.8 26.532 29.8 L 26.532 29.8 L 26.532 29.8 C 24.064 29.8 21.825 29.544 19.815 29.034 Z M 53.129 29.358 L 47.458 29.358 L 48.592 22.844 L 44.323 22.844 L 43.188 29.358 L 37.517 29.358 L 40.801 10.937 L 46.472 10.937 L 45.309 17.45 L 49.577 17.45 L 50.741 10.937 L 56.413 10.937 L 53.129 29.358 Z M 64.353 17.096 L 64.353 17.096 L 62.979 24.76 L 65.338 24.76 L 65.338 24.76 C 66.114 24.76 66.691 24.669 67.07 24.485 L 67.07 24.485 L 67.07 24.485 C 67.447 24.295 67.696 23.866 67.815 23.199 L 67.815 23.199 L 69.188 15.535 L 66.8 15.535 L 66.8 15.535 C 66.045 15.535 65.477 15.626 65.099 15.81 L 65.099 15.81 L 65.099 15.81 C 64.721 16 64.472 16.429 64.353 17.096 Z M 67.786 10.495 L 67.786 10.495 L 67.786 10.495 C 70.313 10.495 72.115 10.983 73.19 11.959 L 73.19 11.959 L 73.19 11.959 C 74.264 12.929 74.801 14.425 74.801 16.448 L 74.801 16.448 L 74.801 16.448 C 74.801 18.472 74.476 20.592 73.826 22.805 L 73.826 22.805 L 73.826 22.805 C 73.183 25.013 72.158 26.728 70.751 27.953 L 70.751 27.953 L 70.751 27.953 C 69.352 29.185 67.302 29.8 64.601 29.8 L 64.601 29.8 L 64.601 29.8 C 61.909 29.8 60.024 29.315 58.949 28.346 L 58.949 28.346 L 58.949 28.346 C 57.875 27.371 57.337 25.87 57.337 23.847 L 57.337 23.847 L 57.337 23.847 C 57.337 22.883 57.476 21.613 57.755 20.034 L 57.755 20.034 L 57.755 20.034 C 58.034 18.45 58.402 17.085 58.86 15.938 L 58.86 15.938 L 58.86 15.938 C 59.318 14.784 59.934 13.786 60.71 12.941 L 60.71 12.941 L 60.71 12.941 C 62.204 11.31 64.562 10.495 67.786 10.495 Z M 83.159 17.096 L 83.159 17.096 L 81.786 24.76 L 84.145 24.76 L 84.145 24.76 C 84.92 24.76 85.499 24.669 85.877 24.485 L 85.877 24.485 L 85.877 24.485 C 86.254 24.295 86.503 23.866 86.623 23.199 L 86.623 23.199 L 87.996 15.535 L 85.607 15.535 L 85.607 15.535 C 84.852 15.535 84.284 15.626 83.906 15.81 L 83.906 15.81 L 83.906 15.81 C 83.528 16 83.279 16.429 83.159 17.096 Z M 86.592 10.495 L 86.592 10.495 L 86.592 10.495 C 89.121 10.495 90.921 10.983 91.996 11.959 L 91.996 11.959 L 91.996 11.959 C 93.07 12.929 93.608 14.425 93.608 16.448 L 93.608 16.448 L 93.608 16.448 C 93.608 18.472 93.283 20.592 92.633 22.805 L 92.633 22.805 L 92.633 22.805 C 91.989 25.013 90.964 26.728 89.559 27.953 L 89.559 27.953 L 89.559 27.953 C 88.157 29.185 86.108 29.8 83.408 29.8 L 83.408 29.8 L 83.408 29.8 C 80.715 29.8 78.831 29.315 77.757 28.346 L 77.757 28.346 L 77.757 28.346 C 76.681 27.371 76.144 25.87 76.144 23.847 L 76.144 23.847 L 76.144 23.847 C 76.144 22.883 76.284 21.613 76.562 20.034 L 76.562 20.034 L 76.562 20.034 C 76.841 18.45 77.209 17.085 77.667 15.938 L 77.667 15.938 L 77.667 15.938 C 78.125 14.784 78.741 13.786 79.518 12.941 L 79.518 12.941 L 79.518 12.941 C 81.01 11.31 83.368 10.495 86.592 10.495 Z M 110.354 10.937 L 109.489 15.653 L 105.369 15.653 L 102.95 29.358 L 97.278 29.358 L 99.697 15.653 L 95.607 15.653 L 96.473 10.937 L 110.354 10.937 Z M 117.488 10.819 L 117.488 10.819 L 117.159 12.705 L 117.159 12.705 C 117.139 12.784 116.194 15.388 114.323 20.515 L 114.323 20.515 L 111.488 20.515 L 111.488 13.706 L 111.488 13.706 C 111.488 13 111.587 12.096 111.786 10.996 L 111.786 10.996 L 111.786 10.996 C 111.865 10.465 112.263 10.2 112.981 10.2 L 112.981 10.2 L 116.563 10.2 L 116.563 10.2 C 117.179 10.2 117.488 10.406 117.488 10.819 Z M 130.623 18.128 L 129.846 22.402 L 124.175 22.402 L 123.787 24.642 L 130.742 24.642 L 129.906 29.358 L 117.279 29.358 L 120.563 10.937 L 133.041 10.937 L 131.489 15.653 L 125.369 15.653 L 124.95 18.128 L 130.623 18.128 Z M 140.413 20.427 L 138.473 29.358 L 132.562 29.358 L 136.921 10.937 L 144.324 10.937 L 144.86 20.31 L 145.07 20.31 L 148.951 10.937 L 156.354 10.937 L 154.146 29.358 L 148.205 29.358 L 149.457 20.427 L 149.249 20.427 L 145.518 29.358 L 141.188 29.358 L 140.563 20.427 L 140.413 20.427 Z M 166.146 10.937 L 171.817 10.937 L 169.339 24.76 L 171.369 24.76 L 171.369 24.76 C 172.066 24.76 172.564 24.669 172.862 24.485 L 172.862 24.485 L 172.862 24.485 C 173.16 24.295 173.369 23.866 173.489 23.199 L 173.489 23.199 L 175.698 10.937 L 181.368 10.937 L 179.52 21.282 L 179.52 21.282 C 179.221 22.953 178.875 24.298 178.484 25.319 L 178.484 25.319 L 178.484 25.319 C 178.099 26.343 177.559 27.206 176.861 27.914 L 176.861 27.914 L 176.861 27.914 C 176.165 28.621 175.303 29.112 174.275 29.387 L 174.275 29.387 L 174.275 29.387 C 173.253 29.662 171.957 29.8 170.384 29.8 L 170.384 29.8 L 170.384 29.8 C 167.976 29.8 166.287 29.439 165.32 28.719 L 165.32 28.719 L 165.32 28.719 C 164.357 28.005 163.876 26.774 163.876 25.025 L 163.876 25.025 L 163.876 25.025 C 163.876 24.062 164.016 22.815 164.294 21.282 L 164.294 21.282 L 166.146 10.937 Z M 191.547 24.907 L 191.547 24.907 L 187.846 24.907 L 187.07 29.358 L 181.398 29.358 L 184.682 10.937 L 193.638 10.937 L 193.638 10.937 C 197.021 10.937 198.713 12.489 198.713 15.594 L 198.713 15.594 L 198.713 15.594 C 198.713 17.068 198.504 18.397 198.086 19.583 L 198.086 19.583 L 198.086 19.583 C 197.668 20.774 197.208 21.722 196.703 22.423 L 196.703 22.423 L 196.703 22.423 C 196.192 23.116 195.493 23.706 194.603 24.19 L 194.603 24.19 L 194.603 24.19 C 193.722 24.669 192.703 24.907 191.547 24.907 Z M 190.801 15.653 L 189.489 15.653 L 188.683 20.191 L 189.996 20.191 L 189.996 20.191 C 190.672 20.191 191.185 20.12 191.529 19.976 L 191.529 19.976 L 191.529 19.976 C 191.88 19.826 192.105 19.485 192.205 18.953 L 192.205 18.953 L 192.205 18.953 C 192.464 17.5 192.593 16.703 192.593 16.567 L 192.593 16.567 L 192.593 16.567 C 192.593 16.193 192.444 15.948 192.145 15.83 L 192.145 15.83 L 192.145 15.83 C 191.847 15.712 191.399 15.653 190.801 15.653 L 190.801 15.653 Z" style="white-space: pre; fill: rgb(255, 255, 255);"/>
</svg>