<?xml version="1.0" encoding="utf-8"?>
<svg xmlns="http://www.w3.org/2000/svg">
  <g id="layer1" fill="#000000" stroke="none" transform="matrix(0.010511, 0, 0, 0.010452, -0.633324, -0.881873)">
    <path d="M1790 2655 c-19 -22 -8 -150 17 -206 l21 -46 406 -101 c394 -98 497 -130 543 -174 49 -46 48 -52 -36 -518 -43 -239 -77 -436 -76 -438 2 -2 68 39 149 89 l146 92 0 41 c0 23 -9 263 -20 533 -15 381 -23 499 -34 521 -16 31 -90 103 -125 121 -12 7 -219 30 -459 51 -240 21 -456 41 -479 44 -29 4 -45 1 -53 -9z" style="fill: rgb(204, 204, 204);"/>
    <path d="M936 2431 c-4 -6 -206 -739 -276 -1000 l-11 -43 -42 6 c-23 4 -43 9 -45 10 -2 2 49 197 112 433 64 236 116 436 116 445 0 34 -149 84 -281 95 -69 5 -78 4 -87 -13 -30 -57 -345 -958 -353 -1009 -10 -68 -12 -239 -3 -272 4 -14 44 -47 107 -88 l100 -65 89 1 c127 2 130 -1 216 -203 11 -25 31 -53 44 -61 12 -8 76 -29 140 -47 l117 -33 79 23 c79 23 80 23 118 4 33 -16 46 -33 81 -103 23 -46 46 -88 51 -93 15 -15 314 -80 339 -73 13 3 53 33 91 67 81 74 119 98 153 98 23 0 65 -24 145 -83 40 -30 319 -76 352 -58 26 14 99 124 147 221 35 71 42 108 160 765 122 684 123 690 103 707 -59 52 -417 120 -466 90 -7 -5 -63 -235 -128 -533 -64 -288 -117 -525 -119 -527 -5 -6 -85 19 -85 26 0 4 47 244 105 532 58 289 104 534 103 545 -4 24 -81 57 -218 91 -128 32 -320 57 -351 46 -23 -9 -31 -40 -149 -543 l-126 -534 -34 3 c-19 1 -39 7 -44 12 -6 6 35 209 108 537 134 604 133 537 5 578 -138 43 -348 70 -363 46z" style="fill: rgb(204, 204, 204);"/>
  </g>
  <path d="M 52.168 28.346 L 37.169 28.346 L 41.994 1.09 L 55.502 1.09 L 55.502 1.09 C 57.607 1.09 59.132 1.454 60.077 2.181 L 60.077 2.181 L 60.077 2.181 C 61.032 2.907 61.51 4.027 61.51 5.538 L 61.51 5.538 L 61.51 5.538 C 61.51 7.748 61.017 9.565 60.034 10.989 L 60.034 10.989 L 60.034 10.989 C 59.058 12.414 57.87 13.301 56.466 13.649 L 56.466 13.649 L 56.423 13.912 L 56.423 13.912 C 59.054 14.406 60.37 16.135 60.37 19.101 L 60.37 19.101 L 60.37 19.101 C 60.37 21.717 59.653 23.913 58.221 25.686 L 58.221 25.686 L 58.221 25.686 C 56.788 27.46 54.771 28.346 52.168 28.346 L 52.168 28.346 Z M 50.677 17.488 L 50.677 17.488 L 47.388 17.488 L 46.599 21.935 L 49.844 21.935 L 49.844 21.935 C 50.575 21.935 51.13 21.645 51.511 21.063 L 51.511 21.063 L 51.511 21.063 C 51.891 20.481 52.081 19.741 52.081 18.839 L 52.081 18.839 L 52.081 18.839 C 52.081 17.938 51.613 17.488 50.677 17.488 Z M 51.905 7.065 L 51.905 7.065 L 49.274 7.065 L 48.528 11.121 L 51.116 11.121 L 51.116 11.121 C 52.461 11.121 53.133 10.175 53.133 8.286 L 53.133 8.286 L 53.133 8.286 C 53.133 7.471 52.724 7.065 51.905 7.065 Z M 82.123 11.731 L 80.983 18.054 L 72.65 18.054 L 72.08 21.368 L 82.299 21.368 L 81.071 28.346 L 62.519 28.346 L 67.343 1.09 L 85.676 1.09 L 83.395 8.068 L 74.404 8.068 L 73.79 11.731 L 82.123 11.731 Z M 93.701 24.028 L 91.991 28.346 L 83.22 28.346 L 94.754 1.09 L 107.648 1.09 L 109.578 28.346 L 100.763 28.346 L 100.587 24.028 L 93.701 24.028 Z M 99.929 9.463 L 99.491 9.463 L 96.421 17.095 L 99.929 17.095 L 99.929 9.463 Z M 134.182 1.09 L 132.91 8.068 L 126.858 8.068 L 123.305 28.346 L 114.972 28.346 L 118.525 8.068 L 112.516 8.068 L 113.788 1.09 L 134.182 1.09 Z M 144.664 0.916 L 144.664 0.916 L 144.181 3.707 L 144.181 3.707 C 144.152 3.823 142.763 7.675 140.015 15.263 L 140.015 15.263 L 135.848 15.263 L 135.848 5.189 L 135.848 5.189 C 135.848 4.142 135.995 2.805 136.287 1.177 L 136.287 1.177 L 136.287 1.177 C 136.404 0.393 136.989 0 138.041 0 L 138.041 0 L 143.304 0 L 143.304 0 C 144.211 0 144.664 0.305 144.664 0.916 Z M 163.961 11.731 L 162.821 18.054 L 154.488 18.054 L 153.918 21.368 L 164.137 21.368 L 162.909 28.346 L 144.357 28.346 L 149.181 1.09 L 167.514 1.09 L 165.233 8.068 L 156.242 8.068 L 155.628 11.731 L 163.961 11.731 Z M 178.346 15.133 L 175.496 28.346 L 166.812 28.346 L 173.215 1.09 L 184.092 1.09 L 184.881 14.958 L 185.188 14.958 L 190.89 1.09 L 201.766 1.09 L 198.521 28.346 L 189.793 28.346 L 191.635 15.133 L 191.328 15.133 L 185.846 28.346 L 179.487 28.346 L 178.566 15.133 L 178.346 15.133 Z M 216.152 1.09 L 224.484 1.09 L 220.844 21.543 L 223.827 21.543 L 223.827 21.543 C 224.85 21.543 225.581 21.408 226.019 21.136 L 226.019 21.136 L 226.019 21.136 C 226.458 20.855 226.765 20.22 226.94 19.232 L 226.94 19.232 L 230.186 1.09 L 238.519 1.09 L 235.8 16.397 L 235.8 16.397 C 235.361 18.869 234.854 20.859 234.279 22.372 L 234.279 22.372 L 234.279 22.372 C 233.714 23.883 232.92 25.163 231.896 26.209 L 231.896 26.209 L 231.896 26.209 C 230.873 27.256 229.606 27.983 228.095 28.389 L 228.095 28.389 L 228.095 28.389 C 226.594 28.797 224.689 29 222.379 29 L 222.379 29 L 222.379 29 C 218.841 29 216.361 28.467 214.938 27.401 L 214.938 27.401 L 214.938 27.401 C 213.524 26.344 212.818 24.523 212.818 21.935 L 212.818 21.935 L 212.818 21.935 C 212.818 20.511 213.023 18.665 213.432 16.397 L 213.432 16.397 L 216.152 1.09 Z M 253.474 21.761 L 253.474 21.761 L 248.036 21.761 L 246.896 28.346 L 238.563 28.346 L 243.387 1.09 L 256.544 1.09 L 256.544 1.09 C 261.515 1.09 264 3.387 264 7.981 L 264 7.981 L 264 7.981 C 264 10.161 263.693 12.128 263.079 13.882 L 263.079 13.882 L 263.079 13.882 C 262.465 15.646 261.788 17.047 261.047 18.083 L 261.047 18.083 L 261.047 18.083 C 260.297 19.111 259.268 19.983 257.962 20.7 L 257.962 20.7 L 257.962 20.7 C 256.666 21.408 255.17 21.761 253.474 21.761 Z M 252.378 8.068 L 250.448 8.068 L 249.264 14.784 L 251.194 14.784 L 251.194 14.784 C 252.188 14.784 252.938 14.677 253.445 14.464 L 253.445 14.464 L 253.445 14.464 C 253.961 14.241 254.293 13.737 254.439 12.952 L 254.439 12.952 L 254.439 12.952 C 254.819 10.801 255.009 9.623 255.009 9.419 L 255.009 9.419 L 255.009 9.419 C 255.009 8.868 254.79 8.504 254.351 8.33 L 254.351 8.33 L 254.351 8.33 C 253.913 8.155 253.255 8.068 252.378 8.068 L 252.378 8.068 Z" style="white-space: pre; fill: rgb(255, 255, 255);"/>
</svg>