<?xml version="1.0" encoding="utf-8"?>
<!-- Made by Szalik  -->
<svg version="1.1" id="Warstwa_1" xmlns="http://www.w3.org/2000/svg" xmlns:xlink="http://www.w3.org/1999/xlink" x="0px" y="0px" xml:space="preserve">
<g>
	<g>
		<path d="M191.15,227.24c0.43-0.87,0.8-1.6,1.16-2.35c0.42-0.87,1.03-1.55,2.05-1.11c0.92,0.4,1.16,1.18,0.8,2.2
			c-0.58,1.64-1.02,3.34-1.57,5c-0.42,1.26-1.26,1.6-2.52,1.15c-2.54-0.91-5.07-1.84-7.63-2.71c-0.36-0.12-0.95-0.06-1.24,0.16
			c-1.01,0.77-1.94,1.64-3.12,2.66c1.31,0.4,2.45,0.76,3.59,1.09c0.61,0.18,1.23,0.34,1.85,0.48c1.18,0.27,1.89,0.98,2.38,2.1
			c1.38,3.13,2.87,6.2,4.27,9.32c0.29,0.65,0.65,0.92,1.35,0.87c0.84-0.06,1.68-0.03,2.52-0.04c0.84-0.01,1.4,0.37,1.54,1.2
			c0.15,0.88-0.24,1.52-1.14,1.66c-1.69,0.27-3.38,0.55-5.08,0.67c-0.48,0.03-1.12-0.39-1.49-0.79c-2.22-2.35-4.44-4.71-6.55-7.16
			c-0.75-0.87-1.5-0.88-2.52-0.81c-2.49,0.18-5,0.21-7.5,0.24c-1.01,0.01-1.32-0.51-1.14-1.56c0.65-3.77,1.17-7.56,1.81-11.33
			c0.1-0.6,0.45-1.29,0.9-1.67c2.01-1.64,4.11-3.16,6.16-4.75c0.8-0.62,1.55-0.64,2.4-0.09c2.5,1.63,5.02,3.24,7.54,4.85
			C190.3,226.74,190.64,226.93,191.15,227.24z" fill="white"/>
		<path d="M281.25,230.32c0,1.68,0,3.11,0,4.63c-6.18,0-12.35,0-18.61,0c0-6.14,0-12.31,0-18.55c6.17,0,12.34,0,18.58,0
			c0,1.48,0,2.94,0,4.56c-4.62,0-9.23,0-13.92,0c0,0.85,0,1.54,0,2.34c3.88,0,7.7,0,11.59,0c0,1.57,0,3.02,0,4.63
			c-3.87,0-7.68,0-11.58,0c0,0.84,0,1.54,0,2.4C271.92,230.32,276.53,230.32,281.25,230.32z" fill="white"/>
		<path d="M386.84,220.98c-4.68,0-9.23,0-13.9,0c0,0.76,0,1.44,0,2.25c3.8,0,7.61,0,11.52,0c0,1.6,0,3.08,0,4.67
			c-3.83,0-7.62,0-11.52,0c0,0.83,0,1.55,0,2.44c4.6,0,9.21,0,13.89,0c0,1.61,0,3.08,0,4.62c-6.18,0-12.35,0-18.6,0
			c0-6.18,0-12.35,0-18.58c6.21,0,12.38,0,18.61,0C386.84,217.9,386.84,219.36,386.84,220.98z" fill="white"/>
		<path d="M360.41,228.24c2.36,2.12,4.72,4.24,7.07,6.37c-0.1,0.14-0.21,0.29-0.31,0.43c-2.02,0-4.04,0.02-6.06-0.03
			c-0.29-0.01-0.62-0.32-0.86-0.56c-1.82-1.8-3.68-3.57-5.39-5.46c-0.87-0.96-1.78-1.25-3.12-0.9c0,2.24,0,4.54,0,6.89
			c-1.62,0-3.08,0-4.62,0c0-6.19,0-12.36,0-18.65c2.66,0,5.28-0.02,7.91,0.01c2.16,0.02,4.33-0.07,6.46,0.17
			c2.46,0.28,3.77,1.66,4.15,4.11c0.16,1.01,0.16,2.09,0.02,3.1c-0.34,2.38-1.57,3.55-3.95,4.01c-0.34,0.07-0.68,0.13-1.02,0.2
			C360.6,228.03,360.5,228.13,360.41,228.24z M351.78,223.28c2.79,0,5.51,0,8.22,0c0.74,0,1.19-0.47,1.05-1.14
			c-0.09-0.43-0.61-1.08-0.96-1.09c-2.74-0.09-5.49-0.05-8.31-0.05C351.78,221.78,351.78,222.44,351.78,223.28z" fill="white"/>
		<path d="M221.8,235.04c0-6.3,0-12.44,0-18.65c0.38-0.02,0.73-0.06,1.07-0.07c3.95,0,7.91-0.01,11.86,0
			c3.76,0.01,5.71,1.91,5.75,5.65c0.03,2.48,0.03,4.95,0,7.43c-0.04,3.69-1.99,5.62-5.65,5.63
			C230.53,235.05,226.22,235.04,221.8,235.04z M226.49,230.37c2.81,0,5.48,0.01,8.15,0c0.78,0,1.18-0.46,1.18-1.21
			c0.02-2.31,0.05-4.63-0.04-6.94c-0.02-0.41-0.58-1.13-0.91-1.14c-2.77-0.09-5.55-0.05-8.39-0.05
			C226.49,224.17,226.49,227.19,226.49,230.37z" fill="white"/>
		<path d="M288.39,235c-1.68,0-3.11,0-4.62,0c0-6.2,0-12.37,0-18.6c1.81-0.2,3.37-0.2,4.8,1.42c2.54,2.87,5.36,5.5,8.06,8.22
			c0.3,0.3,0.61,0.58,1.11,1.05c0-3.71,0-7.17,0-10.7c1.58,0,3.04,0,4.6,0c0,6.15,0,12.32,0,18.57c-1.73,0.14-3.27,0.27-4.71-1.33
			c-2.56-2.85-5.43-5.42-8.17-8.11c-0.28-0.27-0.57-0.54-1.06-0.98C288.39,228.16,288.39,231.53,288.39,235z" fill="white"/>
		<path d="M165.61,222.05c1.05,1.39,2.13,2.77,3.14,4.19c0.21,0.29,0.36,0.87,0.21,1.12c-1.77,2.93-3.61,5.81-5.43,8.71
			c-0.04,0.06-0.14,0.07-0.44,0.21c-1.2-1.43-2.51-2.86-3.66-4.41c-1.69-2.28-3.01-4.77-3.64-7.58c-0.13-0.58-0.19-1.17-0.26-1.76
			c-0.14-1.21,0.54-1.76,1.63-1.94c3.8-0.63,6.66-2.72,8.9-5.74c0.29-0.39,0.31-1.05,0.28-1.57c-0.15-2.79-0.36-5.58-0.55-8.37
			c-0.02-0.32-0.1-0.64-0.06-0.95c0.1-0.85,0.56-1.45,1.43-1.52c0.9-0.08,1.41,0.53,1.56,1.34c0.55,3.1,0.86,6.25,1.62,9.29
			c0.61,2.45,0.01,4.19-1.83,5.78C167.47,219.77,166.63,220.92,165.61,222.05z" fill="white"/>
		<path d="M325.96,216.36c1.56,0,2.99,0,4.56,0c0.02,0.45,0.06,0.87,0.06,1.28c0.01,3.64,0,7.28,0.01,10.91
			c0,1.56,0.25,1.81,1.81,1.82c1.96,0.01,3.92,0.01,5.88,0c1.47-0.01,1.72-0.26,1.73-1.77c0.01-4.04,0-8.07,0-12.19
			c1.56,0,3.05,0,4.66,0c0,2.1,0,4.17,0,6.24c0,2.32,0.04,4.64-0.01,6.96c-0.07,3.48-2.02,5.4-5.49,5.44c-2.6,0.03-5.2,0.04-7.8,0
			c-3.2-0.05-5.23-1.71-5.35-4.8C325.83,225.65,325.96,221.06,325.96,216.36z" fill="white"/>
		<path d="M220.58,235.04c-1.71,0-3.23,0.09-4.72-0.06c-0.45-0.05-1-0.7-1.21-1.2c-0.39-0.92-0.93-1.2-1.9-1.16
			c-1.87,0.08-3.76,0.06-5.63,0.01c-0.81-0.02-1.38,0.13-1.63,0.98c-0.34,1.15-1.05,1.61-2.31,1.47c-1.17-0.13-2.36-0.03-3.73-0.03
			c3.54-6.67,6.99-13.17,10.57-19.9C213.57,221.83,217.02,228.33,220.58,235.04z M211.5,227.89c-0.51-0.94-0.94-1.75-1.49-2.79
			c-0.54,1.03-0.97,1.84-1.46,2.79C209.58,227.89,210.45,227.89,211.5,227.89z" fill="white"/>
		<path d="M240.49,216.32c1.7,0,3.18-0.06,4.65,0.04c0.39,0.03,0.88,0.46,1.09,0.83c1.6,2.9,3.13,5.82,4.77,8.9
			c0.23-0.34,0.41-0.56,0.55-0.82c1.45-2.71,2.91-5.41,4.32-8.14c0.32-0.62,0.69-0.86,1.39-0.83c1.39,0.06,2.78,0.02,4.37,0.02
			c-3.53,6.64-6.99,13.13-10.56,19.84C247.49,229.47,244.03,222.96,240.49,216.32z" fill="white"/>
		<path d="M304.84,221.04c0-1.67,0-3.1,0-4.63c6.17,0,12.35,0,18.61,0c0,1.46,0,2.95,0,4.58c-2.31,0-4.57,0-6.92,0
			c0,4.73,0,9.31,0,13.97c-1.59,0-3.09,0-4.7,0c0-4.62,0-9.2,0-13.93C309.47,221.04,307.21,221.04,304.84,221.04z" fill="white"/>
		<path d="M156.56,217.94c-2.86,0.01-5.73-2.03-6.46-4.59c-0.63-2.18,0.26-3.87,2.41-4.6c3.34-1.13,7.91,1.95,8.18,5.37
			C160.84,216.17,159.09,218.18,156.56,217.94z" fill="white"/>
		<path d="M163.17,211.56c-5.37-8.01-10.74-16.02-16.15-24.08c2.26-0.48,2.47-0.4,3.64,1.33c4,5.95,7.97,11.93,12.02,17.84
			c1.06,1.54,0.41,3.21,0.9,4.77C163.44,211.47,163.3,211.51,163.17,211.56z" fill="white"/>
		<path d="M180.49,265.88c-0.75,0-1.27,0.07-1.76-0.03c-0.27-0.05-0.65-0.33-0.71-0.57c-1.33-5.32-2.63-10.65-3.94-15.97
			c-0.41-1.65-0.83-3.29-1.26-5.02c0.42-0.06,0.68-0.09,0.95-0.13c0.94-0.12,1.43,0.09,1.68,1.22c1.3,5.69,2.74,11.36,4.14,17.03
			C179.87,263.5,180.16,264.6,180.49,265.88z" fill="white"/>
		<path d="M169.58,232.36c-0.4,2.67-0.75,4.99-1.14,7.6c-0.99-0.58-1.78-0.99-2.51-1.5c-0.18-0.13-0.29-0.66-0.18-0.86
			c0.93-1.57,1.9-3.11,2.89-4.65C168.78,232.77,169.06,232.69,169.58,232.36z" fill="white"/>
	</g>
</g>
</svg>
