<?xml version="1.0" encoding="utf-8"?>
<svg xmlns="http://www.w3.org/2000/svg">
  <path d="M 18.942 42.881 C 15.653 42.479 12.466 41.303 9.717 39.489 C 5.454 36.674 2.351 32.557 0.896 27.772 C 0.548 26.659 0.21 24.972 0.084 23.839 C -0.028 22.787 -0.028 20.218 0.084 19.169 C 0.998 10.651 7.062 3.375 15.341 0.888 C 16.458 0.542 18.156 0.207 19.299 0.082 C 20.355 -0.028 22.942 -0.028 23.999 0.082 C 29.007 0.611 33.651 2.871 37.221 6.516 C 39.665 9.03 41.399 11.934 42.406 15.234 C 43.032 17.277 43.3 19.169 43.3 21.504 C 43.3 23.258 43.218 24.223 42.912 25.746 C 41.38 33.475 35.58 39.826 27.959 42.118 C 26.842 42.462 25.142 42.799 23.999 42.924 C 22.893 43.043 20.035 43.017 18.942 42.881 Z M 18.266 33.498 C 18.266 28.879 18.251 28.745 17.701 27.687 C 17.279 26.879 16.237 25.847 15.423 25.426 C 14.334 24.865 14.308 24.865 9.615 24.865 L 5.404 24.865 L 5.462 25.183 C 5.564 25.761 6.231 27.67 6.612 28.475 C 7.443 30.23 8.498 31.719 9.929 33.148 C 11.739 34.934 13.767 36.22 16.112 37.036 C 16.863 37.304 17.963 37.616 18.164 37.625 C 18.242 37.633 18.266 36.75 18.266 33.498 Z M 26.766 37.171 C 29.364 36.33 31.436 35.062 33.371 33.148 C 34.802 31.719 35.859 30.23 36.688 28.475 C 37.069 27.67 37.736 25.761 37.838 25.183 L 37.896 24.865 L 33.726 24.865 C 29.076 24.865 29.05 24.865 27.959 25.436 C 27.14 25.853 26.032 26.956 25.608 27.772 C 25.034 28.853 25.034 28.879 25.034 33.498 L 25.034 37.641 L 25.354 37.581 C 25.523 37.555 26.166 37.362 26.766 37.171 Z M 22.834 25.251 C 24.062 24.873 25.107 23.796 25.465 22.553 C 25.616 22.016 25.616 20.99 25.465 20.453 C 25.099 19.169 23.999 18.077 22.709 17.714 C 22.165 17.563 21.135 17.563 20.593 17.714 C 19.299 18.077 18.199 19.169 17.835 20.453 C 17.768 20.689 17.716 21.16 17.716 21.504 C 17.716 21.848 17.768 22.326 17.835 22.553 C 18.115 23.51 18.842 24.437 19.712 24.923 C 20.111 25.14 20.364 25.223 21.1 25.402 C 21.379 25.469 22.429 25.376 22.834 25.251 Z M 8.372 18.646 C 9.496 18.479 11.054 18.135 12.05 17.825 C 12.897 17.555 13.581 17.277 15.35 16.48 C 18.437 15.101 19.197 14.908 21.65 14.908 C 23.91 14.908 24.915 15.127 27.14 16.101 C 27.723 16.355 28.66 16.766 29.227 17.011 C 31.654 18.069 34.302 18.69 37.11 18.864 L 38.056 18.925 L 38.007 18.64 C 37.558 16.136 36.424 13.573 34.826 11.481 C 34.157 10.6 32.629 9.079 31.739 8.415 C 29.344 6.618 26.554 5.492 23.594 5.123 C 22.674 5.012 20.626 5.012 19.704 5.123 C 16.744 5.492 13.953 6.618 11.559 8.415 C 10.673 9.079 9.143 10.6 8.474 11.481 C 6.876 13.573 5.742 16.136 5.293 18.64 L 5.244 18.925 L 6.231 18.864 C 6.783 18.832 7.746 18.733 8.372 18.646 Z" style="fill: rgb(204, 204, 204);"/>
  <path d="M 83.504 27.864 L 87.791 41.279 L 74.216 41.279 L 71.228 29.283 L 68.566 29.283 L 66.487 41.279 L 54.147 41.279 L 61.291 0.968 L 80.776 0.968 L 80.776 0.968 C 88.18 0.968 91.883 4.257 91.883 10.836 L 91.883 10.836 L 91.883 10.836 C 91.883 13.545 91.471 16.125 90.649 18.576 L 90.649 18.576 L 90.649 18.576 C 89.133 23.219 86.752 26.316 83.504 27.864 L 83.504 27.864 Z M 74.216 11.288 L 71.748 11.288 L 70.319 19.35 L 73.177 19.35 L 73.177 19.35 C 74.649 19.35 75.76 19.193 76.511 18.877 L 76.511 18.877 L 76.511 18.877 C 77.275 18.548 77.795 17.624 78.07 16.103 L 78.07 16.103 L 78.07 16.103 C 78.358 14.57 78.503 13.631 78.503 13.287 L 78.503 13.287 L 78.503 13.287 C 78.503 12.427 78.172 11.875 77.507 11.632 L 77.507 11.632 L 77.507 11.632 C 76.829 11.401 75.732 11.288 74.216 11.288 L 74.216 11.288 Z M 104.808 34.894 L 102.275 41.279 L 89.285 41.279 L 106.366 0.968 L 125.462 0.968 L 128.32 41.279 L 115.265 41.279 L 115.005 34.894 L 104.808 34.894 Z M 114.031 13.352 L 113.381 13.352 L 108.835 24.639 L 114.031 24.639 L 114.031 13.352 Z M 160.535 29.734 L 160.535 29.734 L 159.495 40.57 L 159.495 40.57 C 156.724 41.688 153.217 42.247 148.974 42.247 L 148.974 42.247 L 148.974 42.247 C 143.518 42.247 139.606 41.194 137.239 39.086 L 137.239 39.086 L 137.239 39.086 C 134.886 36.979 133.71 33.733 133.71 29.348 L 133.71 29.348 L 133.71 29.348 C 133.71 27.498 134.013 24.768 134.62 21.156 L 134.62 21.156 L 134.62 21.156 C 135.919 13.76 138.155 8.385 141.331 5.031 L 141.331 5.031 L 141.331 5.031 C 144.52 1.677 149.558 0 156.443 0 L 156.443 0 L 156.443 0 C 158.045 0 159.879 0.166 161.942 0.495 L 161.942 0.495 L 161.942 0.495 C 163.992 0.81 165.493 1.205 166.445 1.677 L 166.445 1.677 L 162.808 11.545 L 162.808 11.545 C 160.253 10.943 157.865 10.642 155.642 10.642 L 155.642 10.642 L 155.642 10.642 C 153.405 10.642 151.81 10.858 150.857 11.288 L 150.857 11.288 L 150.857 11.288 C 149.905 11.718 149.32 12.578 149.103 13.868 L 149.103 13.868 L 146.116 30.766 L 146.116 30.766 C 147.675 31.11 149.277 31.282 150.922 31.282 L 150.922 31.282 L 150.922 31.282 C 154.429 31.282 157.634 30.766 160.535 29.734 Z M 176.902 41.279 L 164.562 41.279 L 171.706 0.968 L 184.047 0.968 L 176.902 41.279 Z M 218.86 41.279 L 207.234 41.279 L 200.609 26.96 L 200.609 26.96 C 200.436 26.659 200.349 26.236 200.349 25.692 L 200.349 25.692 L 200.349 25.692 C 200.349 25.161 200.392 24.553 200.479 23.865 L 200.479 23.865 L 199.959 23.865 L 196.907 41.279 L 184.566 41.279 L 191.711 0.968 L 203.337 0.968 L 209.962 15.286 L 209.962 15.286 C 210.092 15.588 210.156 16.011 210.156 16.555 L 210.156 16.555 L 210.156 16.555 C 210.156 17.086 210.113 17.694 210.027 18.382 L 210.027 18.382 L 210.546 18.382 L 213.664 0.968 L 226.004 0.968 L 218.86 41.279 Z M 249.191 29.411 L 249.191 29.411 L 249.516 27.67 L 246.399 27.67 L 248.152 17.801 L 263.026 17.801 L 259.194 39.345 L 259.194 39.345 C 253.911 41.279 248.607 42.247 243.281 42.247 L 243.281 42.247 L 243.281 42.247 C 237.955 42.247 234.108 41.194 231.742 39.086 L 231.742 39.086 L 231.742 39.086 C 229.388 36.979 228.213 33.733 228.213 29.348 L 228.213 29.348 L 228.213 29.348 C 228.213 27.498 228.516 24.768 229.122 21.156 L 229.122 21.156 L 229.122 21.156 C 230.421 13.674 232.716 8.278 236.007 4.966 L 236.007 4.966 L 236.007 4.966 C 239.297 1.655 244.753 0 252.374 0 L 252.374 0 L 252.374 0 C 253.976 0 256.018 0.172 258.501 0.516 L 258.501 0.516 L 258.501 0.516 C 260.997 0.86 262.831 1.247 264 1.677 L 264 1.677 L 260.428 11.545 L 260.428 11.545 C 257.18 10.943 254.199 10.642 251.486 10.642 L 251.486 10.642 L 251.486 10.642 C 248.787 10.642 246.853 10.858 245.684 11.288 L 245.684 11.288 L 245.684 11.288 C 244.515 11.718 243.822 12.578 243.606 13.868 L 243.606 13.868 L 240.423 32.12 L 244.515 32.12 L 244.515 32.12 C 245.987 32.12 247.076 31.963 247.784 31.647 L 247.784 31.647 L 247.784 31.647 C 248.505 31.319 248.975 30.573 249.191 29.411 Z" style="white-space: pre; fill: rgb(255, 255, 255);"/>
</svg>