<?xml version="1.0" encoding="utf-8"?>
<!-- Made by Szalik  -->
<svg version="1.1" id="Warstwa_1" xmlns="http://www.w3.org/2000/svg" xmlns:xlink="http://www.w3.org/1999/xlink" x="0px" y="0px" xml:space="preserve">
<g>
	<g>
		<path d="M133.29,243.77c-2.14,0.63-4.3,1.19-6.42,1.91c-1.09,0.37-1.72,0.08-2.27-0.86c-0.66-1.1-1.47-2.1-2.11-3.2
			c-0.37-0.64-0.56-1.39-0.89-2.26c-2.17,0.71-3.43-0.94-4.76-2.53c-1.1-1.32-2.27-2.59-3.46-3.83c-0.23-0.24-0.75-0.41-1.06-0.32
			c-1.9,0.54-3.48,0.06-4.53-1.48c-1.14-1.66-1.03-4.07,0.25-5.6c1.11-1.33,2.83-1.77,4.32-1.11c1.66,0.73,2.97,2.73,2.42,4.51
			c-0.51,1.65,0.23,2.5,1.18,3.5c1.13,1.19,2.23,2.41,3.28,3.66c0.51,0.6,1.07,0.76,1.84,0.86c2.44,0.33,4.23-0.49,5.79-2.41
			c1.12-1.38,2.63-2.44,4.03-3.71c-0.88-0.99-1.49-1.66-2.08-2.35c-0.87-1-0.85-1.49,0.09-2.46c5.01-5.2,12.95-4.83,17.63,0.82
			c2.37,2.86,3.39,6.2,3.45,10.06c1.53,0,3.03,0.03,4.53-0.02c0.26-0.01,0.55-0.3,0.75-0.53c1.54-1.68,3.08-3.36,4.55-5.1
			c0.26-0.31,0.28-0.89,0.28-1.35c0-0.55-0.22-1.11-0.19-1.66c0.12-2.56,2.18-4.41,4.48-4.08c2.25,0.33,3.82,2.86,3.29,5.3
			c-0.56,2.58-2.75,3.88-5.22,3.15c-0.3-0.09-0.84,0.07-1.06,0.31c-1.67,1.78-3.3,3.59-4.9,5.43c-0.57,0.66-1.18,0.98-2.07,0.94
			c-1.43-0.06-2.87-0.02-4.39-0.02c0,3.37,0,6.67,0,10.03c3.32,0,6.62,0,9.94,0c0.08-0.18,0.17-0.35,0.26-0.53
			c0.9-1.92,2.51-2.87,4.29-2.52c1.82,0.36,3.21,2.18,3.23,4.24c0.02,2.08-1.29,3.93-3.1,4.35c-1.78,0.41-3.41-0.49-4.39-2.35
			c-0.17-0.31-0.58-0.7-0.89-0.71c-3.08-0.05-6.15-0.03-9.43-0.03c0,1.72,0,3.38,0,5.04c0,1.63,0,3.27,0,5.07
			c1.47,0,2.86,0.07,4.24-0.02c1.08-0.08,1.79,0.34,2.47,1.12c1.69,1.96,3.45,3.87,5.17,5.78c2.44-0.79,4.02-0.38,5.15,1.28
			c1.14,1.68,1.03,4.07-0.26,5.6c-1.11,1.32-2.83,1.76-4.33,1.1c-1.65-0.72-2.96-2.73-2.41-4.51c0.51-1.65-0.23-2.5-1.18-3.49
			c-1.08-1.13-2.16-2.26-3.11-3.49c-0.75-0.97-1.62-1.17-2.8-0.87c-0.01,1.08-0.45,2.16,1,2.92c0.58,0.3,0.96,1.37,1.04,2.13
			c0.16,1.5,0.05,3.03,0.05,4.55c0,1.06-0.53,1.5-1.57,1.5c-9.72-0.01-19.44,0-29.16-0.01c-1.27,0-1.6-0.36-1.61-1.68
			c-0.02-1.36,0-2.72,0-4.08c0-1.26,0.55-2.1,1.58-2.9c0.54-0.42,0.55-1.52,0.87-2.55c-1.84,0-3.31-0.03-4.77,0.03
			c-0.29,0.01-0.63,0.31-0.85,0.56c-1.54,1.68-3.08,3.37-4.56,5.1c-0.25,0.29-0.26,0.82-0.27,1.24c-0.01,0.39,0.18,0.78,0.21,1.17
			c0.21,2.4-1.6,4.6-3.82,4.67c-2.3,0.07-4.12-1.99-4.04-4.56c0.08-2.49,2.1-4.66,4.27-4.07c1.71,0.46,2.33-0.39,3.18-1.34
			c1.3-1.47,2.57-2.96,3.96-4.35c0.45-0.45,1.21-0.78,1.84-0.8c2.36-0.1,4.72-0.05,7.08-0.06c0.07,0,0.14-0.06,0.28-0.12
			c0.41-3.26-0.61-6.69,1.12-9.96c-2.03,0-3.86,0-5.69,0c-2.36,0-4.72,0.03-7.08-0.02c-0.94-0.02-1.57,0.08-2.03,1.13
			c-0.6,1.36-1.82,2.1-3.38,2.06c-1.5-0.04-2.56-0.82-3.26-2.1c-0.74-1.34-0.79-2.77-0.18-4.16c0.64-1.46,1.75-2.39,3.4-2.46
			c1.66-0.07,2.88,0.76,3.53,2.22c0.37,0.83,0.84,0.97,1.63,0.97c4.56-0.03,9.12-0.09,13.68,0.02c1.67,0.04,2.71-0.69,3.32-2
			c0.5-1.08,0.68-2.32,1-3.49C133.54,243.92,133.42,243.85,133.29,243.77z M124.31,240.38c0.5,0.75,1,1.41,1.41,2.14
			c0.38,0.67,0.81,0.83,1.56,0.58c2.09-0.68,4.2-1.3,6.32-1.87c0.58-0.15,1.27-0.16,1.85-0.01c3.83,1,4.93,0.28,5.47-3.69
			c0.01-0.08-0.01-0.19,0.03-0.23c0.35-0.33,0.72-0.91,1.07-0.9c0.35,0.01,0.89,0.57,0.98,0.97c0.64,2.95-1.64,6.25-4.61,6.66
			c-0.87,0.12-1.79-0.1-2.82-0.17c0.28,3.5-1.38,6.03-4.06,8.17c-0.79,0.63-1.41,1.86-1.51,2.88c-0.22,2.28-0.07,4.6-0.07,6.93
			c5.96,0,11.88,0,17.82,0c0-8.96,0.2-17.84-0.08-26.7c-0.15-4.93-3.6-8.84-7.84-10.02c-3.17-0.89-7.19,0.17-8.91,2.38
			c0.47,0.53,0.95,1.07,1.43,1.6c1.27,1.41,1.26,1.72-0.06,3.08C129.63,234.9,126.99,237.62,124.31,240.38z M127.02,266.73
			c0.49,0,0.92,0,1.35,0c4.24,0,8.48,0,12.72,0c0.32,0,0.73-0.11,0.94,0.04c0.4,0.3,0.94,0.75,0.95,1.14c0,0.39-0.53,0.85-0.92,1.16
			c-0.2,0.16-0.62,0.04-0.94,0.04c-5.04,0-10.08-0.01-15.12,0.03c-0.4,0-1.11,0.35-1.13,0.59c-0.13,1.09-0.05,2.2-0.05,3.35
			c9.41,0,18.67,0,28.05,0c0-1.02-0.05-1.97,0.01-2.92c0.05-0.88-0.33-1.09-1.13-1.07c-1.44,0.05-2.88,0-4.32,0.02
			c-0.84,0.01-1.45-0.28-1.45-1.19c0-0.91,0.6-1.21,1.45-1.2c1.06,0.02,2.13,0,3.17,0c0.29-2.41,0.29-2.41-1.94-2.41
			c-6.76,0-13.52,0.03-20.27-0.03c-1.21-0.01-1.58,0.4-1.41,1.51C127,266.06,127,266.33,127.02,266.73z M165.62,228.66
			c0.05-1.1-0.7-2.03-1.68-2.09c-0.98-0.06-1.85,0.8-1.9,1.89c-0.05,1.06,0.73,2.03,1.7,2.09
			C164.73,230.6,165.58,229.75,165.62,228.66z M165.62,250.68c0.02-1.11-0.76-1.99-1.75-2.01c-0.99-0.02-1.82,0.86-1.83,1.95
			c-0.02,1.08,0.78,2,1.76,2.01C164.81,252.64,165.61,251.79,165.62,250.68z M110.93,226.56c-0.99,0-1.78,0.89-1.78,1.99
			c0,1.1,0.8,1.99,1.79,1.99c0.97,0,1.8-0.92,1.8-1.99C112.74,227.48,111.9,226.56,110.93,226.56z M163.79,274.72
			c0.99,0.03,1.81-0.83,1.84-1.94c0.02-1.1-0.74-2-1.73-2.03c-0.99-0.03-1.82,0.84-1.85,1.93
			C162.01,273.74,162.81,274.68,163.79,274.72z M112.45,250.63c-0.01-1.09-0.82-1.97-1.81-1.97c-0.99,0-1.79,0.9-1.78,1.99
			c0.01,1.1,0.82,1.98,1.81,1.97C111.65,252.61,112.46,251.71,112.45,250.63z M110.89,270.75c-0.99,0.03-1.76,0.93-1.74,2.03
			c0.02,1.1,0.85,1.97,1.84,1.94c0.97-0.03,1.78-0.97,1.75-2.04C112.71,271.59,111.87,270.72,110.89,270.75z" fill="white"/>
		<path d="M230.99,253.81c0,2.85,0,5.64,0,8.51c-1.95,0-3.82,0-5.77,0c0-7.74,0-15.51,0-23.37c0.29-0.02,0.59-0.07,0.9-0.07
			c5.08,0,10.16-0.02,15.24,0.01c0.95,0.01,1.9,0.21,2.84,0.39c0.42,0.08,0.83,0.28,1.22,0.49c2.57,1.35,3.67,4.57,2.99,8.69
			c-0.47,2.83-2.11,4.42-5.11,4.92c-0.38,0.06-0.76,0.12-1.24,0.2c2.84,2.73,5.6,5.37,8.38,8.04c4.14-7.79,8.43-15.85,12.82-24.11
			c4.43,8.34,8.77,16.5,13.22,24.88c-2.24,0-4.29,0.06-6.33-0.06c-0.35-0.02-0.8-0.72-0.97-1.2c-0.48-1.32-1.32-1.73-2.72-1.65
			c-2.35,0.13-4.72,0.07-7.08,0.02c-0.81-0.02-1.4,0.13-1.65,0.98c-0.48,1.64-1.57,2.03-3.24,1.96c-3.67-0.15-7.36-0.01-11.04-0.08
			c-0.63-0.01-1.38-0.34-1.84-0.78c-2.29-2.17-4.57-4.37-6.71-6.69C233.78,253.71,232.61,253.45,230.99,253.81z M231.05,247.75
			c3.46,0,6.85,0.01,10.24-0.01c0.91-0.01,1.36-0.53,1.37-1.45c0.01-0.99-0.47-1.49-1.45-1.49c-2.52-0.01-5.03-0.01-7.55-0.01
			c-0.86,0-1.72,0-2.62,0C231.05,245.87,231.05,246.77,231.05,247.75z M265.08,253.56c-0.63-1.2-1.2-2.26-1.85-3.48
			c-0.66,1.26-1.21,2.31-1.82,3.48C262.69,253.56,263.78,253.56,265.08,253.56z" fill="white"/>
		<path d="M321.97,238.97c0,1.92,0,3.78,0,5.82c-2.96,0-5.87,0-8.77,0c-2.87,0-5.75,0-8.7,0c0,1.02,0,1.92,0,2.93
			c4.81,0,9.6,0,14.48,0c0,1.99,0,3.88,0,5.94c-4.81,0-9.62,0-14.49,0c0,1,0,1.82,0,2.84c5.84,0,11.64,0,17.48,0
			c0,2.06,0,3.92,0,5.84c-7.8,0-15.54,0-23.34,0c0-7.8,0-15.54,0-23.37C306.36,238.97,314.09,238.97,321.97,238.97z" fill="white"/>
		<path d="M348.09,246.27c-1.92,0.25-3.77,0.49-5.62,0.73c-0.56-2.21-0.56-2.21-2.87-2.21c-2.4,0-4.8-0.01-7.2,0
			c-1.43,0.01-1.8,0.34-1.81,1.76c-0.03,2.72-0.03,5.44,0,8.16c0.01,1.42,0.37,1.78,1.8,1.79c2.48,0.03,4.96,0.01,7.44,0.01
			c2.35,0,2.62-0.3,2.36-2.85c-1.52,0-3.06,0-4.6,0c-0.72,0-1.44-0.05-2.16,0.01c-0.85,0.07-1.3-0.16-1.47-1.09
			c-0.29-1.56-0.74-3.1-1.15-4.74c5.15,0,10.2,0,15.51,0c-0.13,3.25-0.03,6.5-0.44,9.68c-0.4,3.03-2.74,4.74-6.11,4.84
			c-3.52,0.1-7.04,0.11-10.56,0c-3.96-0.11-6.32-2.48-6.43-6.45c-0.1-3.52-0.1-7.04,0-10.56c0.12-3.97,2.48-6.33,6.43-6.45
			c3.52-0.1,7.04-0.11,10.56,0.01C345.94,239.07,348.34,241.88,348.09,246.27z" fill="white"/>
		<path d="M172.68,255.08c1.83-0.22,3.68-0.44,5.51-0.66c0.67,2.1,0.67,2.1,2.94,2.1c2.44,0,4.88,0.01,7.32-0.01
			c0.8-0.01,1.53-0.15,1.65-1.17c0.13-1.11-0.36-1.65-1.61-1.66c-2.6-0.02-5.2,0.03-7.79-0.03c-1.23-0.03-2.49-0.12-3.68-0.4
			c-2.06-0.48-3.41-1.83-4.02-3.88c-0.6-2-0.6-4.02-0.06-6.03c0.74-2.75,2.71-4.2,5.4-4.33c3.95-0.19,7.92-0.28,11.86,0.01
			c3.95,0.29,5.99,3.1,5.73,7.25c-1.86,0.24-3.74,0.49-5.62,0.74c-0.56-2.21-0.56-2.21-2.87-2.21c-2.4,0-4.8-0.01-7.2,0
			c-1.33,0.01-1.83,0.44-1.8,1.52c0.03,1.16,0.74,1.46,1.76,1.45c2.84-0.02,5.68-0.03,8.51,0c2.68,0.03,5.22,0.56,6.43,3.28
			c1.35,3.05,1.35,6.17-0.57,9.03c-1.11,1.65-2.94,2.22-4.82,2.27c-3.67,0.1-7.36,0.17-11.03-0.01
			C174.61,262.12,172.18,259.11,172.68,255.08z" fill="white"/>
		<path d="M207.79,244.81c-2.99,0-5.82,0-8.73,0c0-2,0-3.89,0-5.85c7.72,0,15.46,0,23.28,0c0,1.88,0,3.77,0,5.81
			c-2.88,0-5.74,0-8.7,0c0,5.92,0,11.7,0,17.56c-1.96,0-3.82,0-5.85,0C207.79,256.53,207.79,250.72,207.79,244.81z" fill="white"/>
		<path d="M272.21,244.81c0-2.14,0-3.97,0-5.86c7.78,0,15.52,0,23.33,0c0,1.9,0,3.79,0,5.83c-2.91,0-5.76,0-8.72,0
			c0,5.93,0,11.7,0,17.55c-1.97,0-3.82,0-5.82,0c0-5.79,0-11.56,0-17.52C277.99,244.81,275.11,244.81,272.21,244.81z" fill="white"/>
		<path d="M349.65,238.88c2.46,0,4.66-0.03,6.86,0.03c0.39,0.01,0.88,0.32,1.15,0.64c1.71,2.06,3.37,4.16,5.17,6.39
			c1.14-1.42,2.38-2.68,3.28-4.15c1.45-2.35,3.32-3.41,6.11-2.95c1.15,0.19,2.36,0.03,3.75,0.03c-0.36,0.49-0.57,0.8-0.81,1.1
			c-2.9,3.62-5.82,7.22-8.68,10.87c-0.4,0.51-0.65,1.27-0.67,1.93c-0.07,3.15-0.03,6.31-0.03,9.54c-1.93,0-3.79,0-5.78,0
			c-0.02-0.4-0.05-0.82-0.05-1.24c0-2.72,0.05-5.44-0.04-8.16c-0.02-0.73-0.32-1.56-0.76-2.14c-2.75-3.53-5.58-7-8.38-10.5
			C350.43,239.89,350.12,239.49,349.65,238.88z" fill="white"/>
	</g>
</g>
</svg>
