<?xml version="1.0" encoding="utf-8"?>
<!-- Made by Szalik  -->
<svg version="1.1" id="asiatic" xmlns="http://www.w3.org/2000/svg" xmlns:xlink="http://www.w3.org/1999/xlink" x="0px" y="0px" xml:space="preserve">
<g>
	<g>
		<path d="M136.3,236.7c0.63,0,1.06,0,1.5,0c6.64,0,13.28,0.08,19.92-0.04c3.11-0.06,5.83,2.32,5.78,5.73
			c-0.16,10.84-0.12,21.68-0.01,32.51c0.03,2.58-2.31,5.29-5.23,5.27c-7.52-0.05-15.04-0.01-22.56-0.02
			c-3.11-0.01-5.34-2.24-5.36-5.39c-0.03-3.36-0.01-6.72-0.01-10.08c0-0.44,0-0.87,0-1.47c-1.39,0-2.7,0-4.01,0
			c-0.44,0-0.95,0.13-1.3-0.05c-0.46-0.24-1.04-0.67-1.13-1.11c-0.15-0.73,0.44-1.15,1.19-1.16c1.32-0.02,2.64-0.01,3.96-0.01
			c0.39,0,0.78-0.03,1.3-0.05c0-0.51,0-0.93,0-1.36c0-5.68,0.02-11.36-0.01-17.04c-0.01-2.34,0.93-4.06,2.99-5.21
			c0.3-0.17,0.59-0.65,0.59-0.98c0.04-3.72,0.05-7.44,0.01-11.16c-0.02-1.75-1.21-2.96-2.95-2.97c-7.52-0.03-15.04-0.02-22.56,0
			c-1.64,0.01-2.77,1.12-2.96,2.74c-0.02,0.16-0.02,0.32-0.02,0.48c0,10.76-0.01,21.52,0.01,32.27c0,2.1,1.17,3.24,3.29,3.28
			c1.76,0.03,3.52,0.01,5.28,0c0.81,0,1.49,0.23,1.51,1.15c0.02,0.92-0.64,1.2-1.46,1.19c-1.92-0.01-3.84-0.01-5.76-0.01
			c-3.08,0-5.18-2.85-5.15-5.34c0.12-10.92,0.12-21.84,0-32.75c-0.03-2.42,1.87-5.35,5.12-5.37c7.6-0.06,15.2-0.06,22.79,0
			c3.04,0.02,5.2,2.36,5.22,5.43c0.03,3.36,0.01,6.72,0.01,10.08C136.3,235.69,136.3,236.12,136.3,236.7z M132.7,258.44
			c0,5.32,0,10.64,0,15.95c0,2.3,1.09,3.41,3.35,3.41c7.28,0.01,14.55,0.01,21.83,0c2.18,0,3.31-1.14,3.31-3.35
			c0.01-10.68,0.01-21.35,0-32.03c0-2.25-1.14-3.36-3.42-3.36c-7.2-0.01-14.39-0.01-21.59,0c-2.42,0-3.47,1.07-3.47,3.53
			C132.7,247.89,132.7,253.17,132.7,258.44z" fill="white"/>
		<path d="M217.14,235.73c-1.97,0.26-3.88,0.51-5.79,0.76c-0.35-2.2-0.35-2.2-2.51-2.2c-2.52,0-5.04,0.02-7.56-0.01
			c-0.98-0.01-1.65,0.22-1.65,1.37c0.01,1.07,0.43,1.52,1.67,1.54c2.8,0.03,5.6,0.07,8.4,0c6.23-0.16,7.9,3.97,7.41,8.56
			c-0.45,4.17-2.78,6.08-7,6.09c-3.24,0-6.48,0.01-9.72,0c-4.36-0.02-6.97-2.85-6.64-7.35c1.89-0.22,3.8-0.45,5.71-0.68
			c0.44,2.07,0.44,2.07,2.51,2.07c2.52,0,5.04-0.01,7.56,0c0.95,0.01,1.68-0.21,1.68-1.36c0-1.14-0.69-1.37-1.66-1.36
			c-2.68,0.02-5.36,0.03-8.04-0.01c-0.99-0.01-2.01-0.08-2.97-0.29c-2.81-0.61-4.58-2.68-4.81-5.68c-0.09-1.19-0.11-2.42,0.12-3.58
			c0.68-3.5,2.92-5.28,6.48-5.29c3.28-0.02,6.56-0.01,9.84,0C214.7,228.33,217.26,230.97,217.14,235.73z" fill="white"/>
		<path d="M301.93,241.49c2.06,0.52,3.99,1,6.08,1.53c-0.13,1.39-0.13,2.76-0.41,4.07c-0.61,2.87-2.92,4.69-5.98,4.74
			c-3.68,0.06-7.36,0.07-11.04,0c-3.55-0.07-6.09-2.63-6.16-6.18c-0.07-3.72-0.08-7.44,0-11.16c0.08-3.55,2.65-6.08,6.21-6.14
			c3.64-0.06,7.28-0.06,10.92,0c3.8,0.06,6.16,2.59,6.35,6.68c0.1,2.17,0.1,2.16-1.95,2.66c-1.27,0.31-2.54,0.63-4.02,0.99
			c0-0.98,0.01-1.87,0-2.76c-0.02-1.24-0.34-1.6-1.54-1.61c-2.84-0.02-5.68,0.02-8.52-0.02c-1.07-0.01-1.53,0.44-1.52,1.5
			c0.02,2.88,0.02,5.76,0,8.64c0,0.99,0.43,1.46,1.45,1.46c2.88-0.02,5.76-0.02,8.64,0c1.07,0.01,1.52-0.51,1.5-1.55
			C301.91,243.42,301.93,242.51,301.93,241.49z" fill="white"/>
		<path d="M179,226.86c4.47,8.42,8.82,16.61,13.27,24.97c-2.21,0-4.23,0.05-6.25-0.04c-0.36-0.02-0.86-0.56-1-0.96
			c-0.55-1.55-1.56-2-3.17-1.89c-2.27,0.15-4.56,0.07-6.84,0.02c-0.74-0.02-1.21,0.19-1.47,0.89c-0.12,0.33-0.37,0.62-0.49,0.96
			c-0.29,0.84-0.83,1.1-1.72,1.06c-1.79-0.08-3.59-0.02-5.59-0.02C170.16,243.5,174.51,235.32,179,226.86z M180.79,242.96
			c-0.63-1.17-1.17-2.18-1.81-3.36c-0.65,1.27-1.15,2.26-1.72,3.36C178.52,242.96,179.55,242.96,180.79,242.96z" fill="white"/>
		<path d="M253.71,251.84c-2.17,0-4.13,0.05-6.08-0.04c-0.41-0.02-0.99-0.52-1.14-0.92c-0.59-1.58-1.59-2.08-3.27-1.94
			c-2.22,0.18-4.48,0.09-6.72,0.02c-0.81-0.02-1.31,0.21-1.54,0.97c-0.5,1.63-1.55,2.15-3.23,1.96c-1.42-0.17-2.87-0.03-4.55-0.03
			c4.43-8.34,8.79-16.55,13.26-24.97C244.89,235.26,249.24,243.44,253.71,251.84z M238.69,242.92c1.27,0,2.32,0,3.51,0
			c-0.61-1.13-1.15-2.13-1.78-3.3C239.79,240.84,239.28,241.81,238.69,242.92z" fill="white"/>
		<path d="M272.58,228.41c0,1.97,0,3.84,0,5.83c-2.91,0-5.76,0-8.75,0c0,5.9,0,11.67,0,17.52c-2.03,0-3.92,0-5.96,0
			c0-5.77,0-11.55,0-17.45c-2.96,0-5.77,0-8.67,0c0-2.02,0-3.92,0-5.91C256.95,228.41,264.72,228.41,272.58,228.41z" fill="white"/>
		<path d="M165.62,267.18c0-4.61,0-9.04,0-13.66c0.56,0,1.1,0,1.64,0c2.48,0,4.96,0,7.43,0c3.64,0,5.33,2.23,4.44,5.75
			c-0.16,0.64-0.02,1.37-0.03,2.05c-0.01,1.07,0.14,2.16-0.06,3.19c-0.31,1.6-1.47,2.58-3.28,2.63
			C172.42,267.26,169.07,267.18,165.62,267.18z M169,262.03c0.03,0.66,0.05,1.15,0.08,1.7c2.07,0,3.98,0.04,5.89-0.04
			c0.31-0.01,0.6-0.55,0.89-0.84c-0.28-0.27-0.54-0.78-0.83-0.79C173.09,262,171.14,262.03,169,262.03z M169.04,258.56
			c2.06,0,4.01,0.03,5.96-0.04c0.3-0.01,0.65-0.46,0.82-0.78c0.06-0.12-0.37-0.69-0.58-0.7c-2.05-0.06-4.11-0.03-6.19-0.03
			C169.04,257.6,169.04,257.99,169.04,258.56z" fill="white"/>
		<path d="M293.85,253.58c4.54,0,9.01,0,13.53,0c0,1.12,0,2.17,0,3.38c-3.37,0-6.7,0-10.12,0c0,0.59,0,1.03,0,1.61
			c2.8,0,5.58,0,8.42,0c0,1.18,0,2.24,0,3.45c-2.82,0-5.6,0-8.44,0c0,0.61,0,1.07,0,1.67c3.35,0,6.69,0,10.11,0
			c0,1.22,0,2.31,0,3.47c-4.49,0-8.95,0-13.5,0C293.85,262.65,293.85,258.16,293.85,253.58z" fill="white"/>
		<path d="M256.32,258.14c0.05-1.11-0.63-1.18-1.42-1.16c-1.4,0.03-2.8,0.05-4.2,0c-0.91-0.03-1.33,0.29-1.3,1.23
			c0.04,1.44,0.04,2.88,0,4.32c-0.02,0.95,0.4,1.26,1.31,1.23c1.4-0.05,2.8-0.01,4.2-0.01c1.33-0.01,1.47-0.2,1.22-1.71
			c-1.17,0-2.36-0.05-3.55,0.02c-0.81,0.05-1.15-0.26-1.28-1.02c-0.13-0.78-0.36-1.55-0.56-2.4c3,0,5.89,0,8.85,0
			c0,1.84,0.15,3.67-0.04,5.47c-0.21,1.96-1.57,3.02-3.66,3.09c-2.04,0.07-4.08,0.07-6.11,0c-2.34-0.09-3.67-1.46-3.74-3.82
			c-0.07-2-0.07-4,0-5.99c0.08-2.41,1.45-3.77,3.86-3.83c2-0.05,4-0.07,5.99,0c2.52,0.09,3.91,1.68,3.7,4.22
			C258.55,257.88,257.5,258,256.32,258.14z" fill="white"/>
		<path d="M225.7,251.8c-1.97,0-3.84,0-5.78,0c0-7.8,0-15.57,0-23.4c1.9,0,3.8,0,5.78,0C225.7,236.16,225.7,243.92,225.7,251.8z" fill="white"/>
		<path d="M275.6,228.36c1.96,0,3.83,0,5.78,0c0,7.8,0,15.56,0,23.4c-1.92,0-3.81,0-5.78,0C275.6,244,275.6,236.23,275.6,228.36z" fill="white"/>
		<path d="M225.32,267.2c-1.35,0-2.7,0.04-4.04-0.03c-0.37-0.02-0.79-0.32-1.08-0.6c-1.26-1.23-2.48-2.49-3.71-3.74
			c-0.87-0.88-0.88-0.88-2.37-0.66c0,0.79,0,1.61,0,2.43c0,0.83,0,1.66,0,2.54c-1.18,0-2.23,0-3.35,0c0-4.52,0-8.98,0-13.53
			c0.28-0.03,0.59-0.08,0.89-0.08c2.84-0.01,5.67-0.02,8.51,0c1.55,0.01,3.01,0.34,3.73,1.88c0.78,1.68,0.9,3.51-0.22,5.02
			c-0.62,0.83-1.84,1.22-2.95,1.92c1.53,1.35,3.24,2.85,4.95,4.35C225.55,266.86,225.44,267.03,225.32,267.2z M214.18,258.56
			c2.03,0,3.95,0.04,5.86-0.04c0.32-0.01,0.63-0.52,0.94-0.8c-0.26-0.24-0.52-0.69-0.78-0.69c-1.99-0.06-3.97-0.03-6.01-0.03
			C214.18,257.56,214.18,257.99,214.18,258.56z" fill="white"/>
		<path d="M120.89,233.29c2.18,0.36,4.01,1.09,5.6,2.39c0.78,0.63,1.15,1.4,1.04,2.41c-0.13,1.15-0.21,2.31-0.36,3.46
			c-0.22,1.81-1.63,2.69-3.36,2.14c-0.9-0.28-1.82-0.53-2.93-0.85c0,0.98,0,1.77,0,2.56c0,2.32-0.01,4.64,0,6.95
			c0,0.85-0.23,1.6-1.19,1.6c-0.97,0-1.19-0.74-1.18-1.6c0.01-3.04-0.01-6.07-0.02-9.11c0-0.04-0.03-0.07-0.16-0.32
			c-0.8,0.21-1.67,0.39-2.51,0.67c-2.04,0.68-3.35-0.11-3.64-2.25c-0.14-1.03-0.2-2.07-0.34-3.1c-0.15-1.15,0.23-2.12,1.21-2.67
			c1.69-0.94,3.45-1.74,5.46-2.73c0-0.48,0.02-1.39,0-2.3c-0.02-0.82,0.22-1.49,1.14-1.51c0.99-0.02,1.24,0.7,1.23,1.55
			C120.89,231.49,120.89,232.4,120.89,233.29z M114.58,241.41c1.37-0.34,2.6-0.64,3.85-0.95c0-1.55,0-3.11,0-4.77
			c-0.61,0.16-1.12,0.26-1.6,0.43c-2.45,0.88-2.67,1.25-2.4,3.78C114.48,240.37,114.52,240.84,114.58,241.41z M124.79,241.42
			c0.12-1.1,0.25-2.13,0.33-3.16c0.02-0.27-0.06-0.67-0.25-0.83c-1.12-0.91-2.38-1.53-3.92-1.68c0,1.62,0,3.16,0,4.69
			C122.23,240.77,123.45,241.08,124.79,241.42z" fill="white"/>
		<path d="M226.13,267.19c0-4.63,0-9.09,0-13.64c3.44,0,6.82-0.12,10.2,0.04c2.2,0.1,3.35,1.52,3.41,3.74
			c0.05,2.04,0.06,4.08,0,6.11c-0.07,2.23-1.36,3.65-3.58,3.72C232.85,267.27,229.54,267.19,226.13,267.19z M229.54,263.72
			c2.07,0,4.1,0.03,6.12-0.04c0.24-0.01,0.64-0.59,0.66-0.92c0.07-1.6,0.07-3.2,0-4.79c-0.01-0.33-0.41-0.91-0.65-0.92
			c-2.02-0.07-4.05-0.04-6.13-0.04C229.54,259.29,229.54,261.43,229.54,263.72z" fill="white"/>
		<path d="M276.78,267.12c0-4.56,0-9.02,0-13.51c1.39-0.23,2.52-0.15,3.55,1.05c1.24,1.45,2.74,2.67,4.18,4.03
			c1.24-1.22,2.7-2.46,3.91-3.91c1.02-1.22,2.14-1.48,3.62-1.16c0,4.47,0,8.93,0,13.48c-1.04,0-2.1,0-3.3,0c0-2.41,0-4.85,0-7.67
			c-1.47,1.66-2.71,3.04-4.02,4.51c-1.67-1.62-3.02-2.93-4.58-4.44c0,2.71,0,5.13,0,7.61C278.98,267.12,277.92,267.12,276.78,267.12
			z" fill="white"/>
		<path d="M180.97,260.32c0-1-0.04-2,0.01-3c0.12-2.35,1.44-3.71,3.78-3.79c2.03-0.07,4.08-0.08,6.11,0
			c2.35,0.09,3.69,1.46,3.75,3.8c0.06,2,0.05,4,0,5.99c-0.06,2.4-1.44,3.79-3.83,3.85c-1.96,0.05-3.91,0.04-5.87,0
			c-2.47-0.05-3.84-1.41-3.95-3.87C180.93,262.32,180.97,261.32,180.97,260.32C180.97,260.32,180.97,260.32,180.97,260.32z
			 M187.76,263.73c0.8,0,1.6-0.03,2.39,0.01c0.77,0.03,1.09-0.31,1.09-1.06c-0.01-1.52-0.02-3.03,0.01-4.55
			c0.02-0.89-0.38-1.19-1.24-1.16c-1.47,0.04-2.95,0.04-4.43,0c-0.87-0.03-1.24,0.32-1.22,1.19c0.03,1.48,0.03,2.95,0,4.43
			c-0.02,0.89,0.39,1.21,1.25,1.16C186.32,263.7,187.04,263.73,187.76,263.73z" fill="white"/>
		<path d="M194.49,267.2c2.62-4.91,5.13-9.61,7.71-14.46c2.59,4.85,5.1,9.55,7.71,14.46c-1.26,0-2.33,0.06-3.38-0.04
			c-0.33-0.03-0.75-0.43-0.89-0.76c-0.33-0.75-0.82-0.95-1.59-0.9c-1.04,0.07-2.08,0.05-3.12,0.01c-1.04-0.05-1.97-0.04-2.35,1.23
			c-0.07,0.22-0.55,0.43-0.84,0.44C196.75,267.23,195.75,267.2,194.49,267.2z M202.19,260.03c-0.38,0.73-0.67,1.28-0.99,1.9
			c0.74,0,1.32,0,2.02,0C202.86,261.26,202.57,260.74,202.19,260.03z" fill="white"/>
		<path d="M275.92,267.2c-0.95,0-1.64-0.06-2.31,0.01c-1.05,0.11-1.85-0.07-2.25-1.21c-0.09-0.24-0.61-0.45-0.95-0.46
			c-1.48-0.05-2.96-0.06-4.44,0.01c-0.35,0.02-0.88,0.29-0.99,0.58c-0.37,0.98-1.05,1.16-1.97,1.09c-0.75-0.06-1.52-0.01-2.52-0.01
			c2.6-4.87,5.11-9.6,7.71-14.47C270.79,257.59,273.3,262.29,275.92,267.2z M269.26,261.98c-0.39-0.71-0.69-1.25-1.05-1.93
			c-0.37,0.68-0.67,1.24-1.04,1.93C267.91,261.98,268.47,261.98,269.26,261.98z" fill="white"/>
		<path d="M119.6,260.39c0.6,0.74,1.2,1.17,1.19,1.57c-0.01,0.42-0.56,1.05-0.99,1.18c-0.7,0.2-1.3-0.3-1.22-1.05
			C118.63,261.61,119.1,261.18,119.6,260.39z" fill="white"/>
		<path d="M145.7,249.29c0-1.01,0-1.8,0-2.76c-1.14,0-2.25-0.01-3.35,0c-0.86,0.01-1.57-0.26-1.54-1.24
			c0.03-0.91,0.71-1.15,1.52-1.13c1.08,0.02,2.15,0,3.33,0c0.13-0.9,0.03-2.07,1.32-2.03c1.14,0.04,1.14,1.02,1.16,2.03
			c1.14,0,2.24,0.01,3.35,0c0.86-0.01,1.59,0.21,1.59,1.2c-0.01,0.98-0.76,1.2-1.6,1.18c-1.07-0.01-2.14,0-3.29,0
			c0,0.92,0,1.74,0,2.76c0.62,0,1.24,0,1.86,0c1.76,0,3.52,0,5.28,0c0.89,0,1.46,0.39,1.46,1.35c0,3.32,0,6.64,0,9.95
			c0,1.05-0.64,1.35-1.57,1.35c-2.23-0.01-4.46,0-6.86,0c0.62,1.82,1.72,2.9,3.42,3.35c0.38,0.1,0.86,0.01,1.16,0.21
			c0.44,0.29,1,0.73,1.07,1.18c0.11,0.74-0.54,1.23-1.24,1.09c-1.23-0.25-2.43-0.67-3.63-1.07c-0.32-0.1-0.58-0.36-1.02-0.65
			c0,2.15,0.01,4.14,0,6.12c-0.01,1.65-0.66,2.07-2.19,1.42c-0.59-0.25-1.17-0.51-1.76-0.76c-0.69-0.3-1.2-0.74-0.91-1.56
			c0.31-0.88,1-0.92,1.77-0.64c0.18,0.06,0.37,0.11,0.65,0.2c0-1.53,0-2.99,0-4.31c-1.25,0.4-2.53,0.88-3.85,1.23
			c-0.85,0.22-1.71,0.02-1.81-1.02c-0.09-0.97,0.65-1.2,1.5-1.29c2.05-0.23,3.43-1.33,4.19-3.48c-2.28,0-4.41,0-6.55,0
			c-1.83,0-2.07-0.24-2.07-2.06c0-2.96-0.01-5.92,0-8.87c0-1.33,0.37-1.7,1.72-1.71C141.06,249.28,143.33,249.29,145.7,249.29z
			 M139.51,251.7c0,2.67,0,5.21,0,7.8c2.08,0,4.09,0,6.14,0c0-0.92,0-1.76,0-2.68c-0.73,0-1.37,0.02-2-0.01
			c-0.77-0.04-1.35-0.4-1.31-1.24c0.03-0.76,0.56-1.11,1.3-1.11c0.67-0.01,1.33,0,2.02,0c0-1,0-1.86,0-2.76
			C143.58,251.7,141.6,251.7,139.51,251.7z M148.16,254.46c0.78,0,1.46,0,2.13,0c0.78-0.01,1.38,0.28,1.4,1.12
			c0.03,0.91-0.61,1.23-1.42,1.24c-0.7,0.01-1.4,0-2.08,0c0,1.02,0,1.84,0,2.68c2.1,0,4.11,0,6.15,0c0-2.63,0-5.2,0-7.77
			c-2.1,0-4.12,0-6.18,0C148.16,252.63,148.16,253.45,148.16,254.46z" fill="white"/>
	</g>
</g>
</svg>
