<?xml version="1.0" encoding="utf-8"?>
<svg xmlns="http://www.w3.org/2000/svg">
  <path d="M 0.451 26.792 C 0.451 26.786 0.521 26.357 0.606 25.835 C 0.692 25.318 0.813 24.564 0.876 24.166 L 0.991 23.443 L 5.739 18.538 L 10.483 13.633 L 8.277 11.352 L 6.07 9.073 L 5.586 9.571 L 5.103 10.067 L 4.606 10.239 C 4.335 10.335 3.615 10.584 3.009 10.8 C 1.823 11.214 1.669 11.268 1.65 11.268 C 1.644 11.268 2.514 10.362 3.585 9.253 L 5.536 7.241 L 4.877 6.561 C 4.514 6.185 4.21 5.882 4.2 5.89 C 4.191 5.895 4.186 5.89 4.187 5.873 C 4.193 5.857 4.182 5.848 4.167 5.852 C 4.154 5.854 4.145 5.843 4.148 5.83 C 4.15 5.815 4.14 5.806 4.127 5.809 C 4.115 5.811 4.104 5.801 4.105 5.787 C 4.109 5.773 4.1 5.761 4.086 5.767 C 4.072 5.768 4.062 5.759 4.065 5.746 C 4.068 5.731 4.058 5.719 4.043 5.723 C 4.03 5.727 4.022 5.717 4.024 5.702 C 4.028 5.688 4.017 5.677 4.002 5.681 C 3.991 5.684 3.98 5.672 3.983 5.659 C 3.985 5.644 3.976 5.635 3.962 5.638 C 3.95 5.64 3.938 5.63 3.94 5.617 C 3.946 5.602 3.935 5.592 3.919 5.597 C 3.907 5.598 3.898 5.588 3.9 5.575 C 3.904 5.56 3.893 5.549 3.878 5.553 C 3.867 5.556 3.856 5.545 3.859 5.533 C 3.863 5.518 3.852 5.508 3.839 5.512 C 3.826 5.513 3.815 5.503 3.816 5.49 C 3.822 5.475 3.811 5.464 3.797 5.468 C 3.783 5.47 3.774 5.459 3.777 5.446 C 3.781 5.432 3.769 5.42 3.754 5.425 C 3.744 5.428 3.733 5.416 3.735 5.404 C 3.739 5.39 3.729 5.379 3.715 5.384 C 3.702 5.386 3.691 5.374 3.692 5.362 C 3.698 5.346 3.687 5.337 3.673 5.34 C 3.659 5.341 3.65 5.333 3.653 5.32 C 3.655 5.304 3.646 5.294 3.63 5.296 C 3.62 5.299 3.609 5.29 3.611 5.277 C 3.615 5.261 3.605 5.252 3.591 5.256 C 3.578 5.257 3.567 5.246 3.57 5.233 C 3.575 5.219 3.563 5.208 3.549 5.214 C 3.537 5.215 3.527 5.204 3.529 5.191 C 3.533 5.176 3.522 5.165 3.508 5.17 C 3.494 5.172 3.485 5.161 3.487 5.148 C 3.49 5.135 3.481 5.123 3.467 5.127 C 3.455 5.13 3.443 5.119 3.446 5.106 C 3.451 5.092 3.439 5.081 3.426 5.085 C 3.413 5.086 3.403 5.076 3.405 5.065 C 3.409 5.048 3.398 5.038 3.384 5.042 C 3.37 5.043 3.361 5.034 3.362 5.021 C 3.366 5.006 3.359 4.994 3.343 5 C 3.331 5.002 3.32 4.992 3.322 4.977 C 3.327 4.963 3.316 4.952 3.302 4.956 C 3.29 4.96 3.278 4.948 3.282 4.937 C 3.286 4.921 3.274 4.91 3.26 4.915 C 3.249 4.917 3.238 4.906 3.24 4.893 C 3.244 4.877 3.234 4.868 3.22 4.872 C 3.207 4.873 3.196 4.863 3.198 4.85 C 3.203 4.836 3.192 4.824 3.178 4.829 C 3.166 4.832 3.154 4.82 3.158 4.808 C 3.162 4.793 3.15 4.783 3.136 4.788 C 3.124 4.789 3.114 4.778 3.116 4.766 C 3.12 4.75 3.11 4.74 3.096 4.743 C 3.083 4.745 3.072 4.736 3.073 4.722 C 3.077 4.708 3.068 4.696 3.054 4.7 C 3.042 4.703 3.03 4.694 3.034 4.679 C 3.038 4.665 3.026 4.655 3.013 4.659 C 3 4.661 2.99 4.65 2.992 4.637 C 2.996 4.621 2.985 4.611 2.972 4.616 C 2.959 4.619 2.948 4.608 2.951 4.595 C 2.956 4.58 2.945 4.569 2.931 4.572 C 2.918 4.576 2.907 4.565 2.91 4.552 C 2.914 4.537 2.903 4.527 2.889 4.531 C 2.877 4.532 2.866 4.524 2.869 4.51 C 2.873 4.495 2.861 4.485 2.848 4.489 C 2.836 4.49 2.825 4.48 2.827 4.466 C 2.831 4.452 2.821 4.44 2.807 4.446 C 2.794 4.448 2.783 4.436 2.787 4.423 C 2.79 4.41 2.779 4.399 2.765 4.403 C 2.753 4.406 2.744 4.395 2.745 4.381 C 2.749 4.367 2.737 4.356 2.72 4.36 C 2.703 4.365 2.697 4.36 2.705 4.352 C 2.715 4.342 2.472 4.078 2.17 3.764 L 1.617 3.193 L 1.471 3.193 C 1.241 3.193 0.891 3.076 0.696 2.936 C 0.627 2.884 0.602 2.884 0.639 2.933 C 0.665 2.965 0.664 2.967 0.634 2.94 C 0.612 2.923 0.601 2.902 0.606 2.894 C 0.62 2.872 0.561 2.824 0.539 2.841 C 0.528 2.846 0.503 2.833 0.482 2.809 C 0.462 2.786 0.453 2.767 0.462 2.767 C 0.469 2.767 0.462 2.749 0.442 2.724 C 0.42 2.7 0.397 2.687 0.389 2.692 C 0.382 2.696 0.352 2.678 0.325 2.645 C 0.298 2.617 0.289 2.595 0.305 2.608 C 0.323 2.619 0.329 2.613 0.323 2.594 C 0.318 2.577 0.304 2.567 0.292 2.569 C 0.28 2.57 0.256 2.558 0.24 2.537 C 0.191 2.485 0.04 2.185 0.04 2.15 C 0.04 2.132 0.063 2.171 0.093 2.234 C 0.158 2.38 0.268 2.56 0.283 2.544 C 0.289 2.54 0.279 2.515 0.26 2.497 C 0.202 2.427 0.082 2.155 0.036 1.987 C 0 1.849 -0.004 1.78 0.001 1.545 C 0.009 1.311 0.019 1.237 0.067 1.095 C 0.141 0.866 0.261 0.666 0.428 0.48 C 0.503 0.395 0.545 0.343 0.524 0.359 C 0.492 0.384 0.495 0.374 0.533 0.331 C 0.583 0.273 0.62 0.251 0.575 0.306 C 0.558 0.326 0.557 0.339 0.572 0.339 C 0.593 0.339 0.627 0.297 0.627 0.265 C 0.627 0.255 0.649 0.235 0.678 0.214 L 0.73 0.185 L 0.678 0.229 C 0.602 0.293 0.639 0.285 0.776 0.201 C 0.998 0.066 1.189 0.012 1.494 0.001 C 1.717 -0.004 1.788 0.001 1.923 0.038 C 2.081 0.082 2.284 0.176 2.394 0.255 C 2.463 0.306 2.486 0.306 2.451 0.256 C 2.423 0.225 2.426 0.222 2.456 0.251 C 2.476 0.265 2.489 0.286 2.482 0.294 C 2.468 0.319 2.528 0.366 2.55 0.351 C 2.561 0.344 2.588 0.359 2.609 0.387 L 2.649 0.435 L 2.596 0.393 L 2.544 0.348 L 2.594 0.406 C 2.621 0.439 2.651 0.46 2.663 0.453 C 2.672 0.447 2.676 0.453 2.674 0.47 C 2.67 0.485 2.679 0.495 2.691 0.493 C 2.703 0.491 2.737 0.515 2.763 0.547 C 2.81 0.599 2.81 0.603 2.767 0.565 C 2.741 0.541 2.72 0.532 2.72 0.544 C 2.72 0.573 2.792 0.641 2.807 0.625 C 2.812 0.619 2.829 0.633 2.845 0.651 C 2.873 0.686 2.87 0.687 2.837 0.661 C 2.792 0.621 2.792 0.647 2.841 0.717 C 2.978 0.917 3.091 1.29 3.091 1.535 L 3.091 1.669 L 5.05 3.693 L 7.009 5.718 L 8.958 3.705 C 10.03 2.595 10.907 1.698 10.907 1.705 C 10.907 1.711 10.833 1.947 10.74 2.226 C 10.649 2.506 10.556 2.788 10.536 2.851 C 10.23 3.795 9.749 5.245 9.734 5.274 C 9.723 5.295 9.675 5.35 9.629 5.396 C 9.584 5.443 9.551 5.488 9.557 5.497 C 9.565 5.509 9.557 5.513 9.541 5.512 C 9.526 5.508 9.517 5.518 9.521 5.533 C 9.522 5.545 9.512 5.556 9.501 5.553 C 9.485 5.549 9.475 5.56 9.479 5.575 C 9.481 5.588 9.472 5.598 9.459 5.597 C 9.445 5.592 9.434 5.602 9.439 5.617 C 9.441 5.63 9.43 5.64 9.417 5.638 C 9.404 5.635 9.393 5.644 9.397 5.659 C 9.4 5.672 9.389 5.684 9.377 5.681 C 9.363 5.677 9.352 5.688 9.356 5.702 C 9.357 5.717 9.348 5.727 9.336 5.723 C 9.32 5.719 9.31 5.731 9.315 5.746 C 9.318 5.759 9.306 5.768 9.294 5.767 C 9.28 5.761 9.27 5.773 9.273 5.787 C 9.276 5.801 9.265 5.811 9.253 5.809 C 9.239 5.806 9.228 5.815 9.232 5.83 C 9.233 5.843 9.224 5.854 9.211 5.852 C 9.198 5.848 9.186 5.857 9.191 5.873 C 9.194 5.886 9.182 5.895 9.17 5.894 C 9.156 5.89 9.146 5.901 9.15 5.916 C 9.152 5.929 9.141 5.94 9.129 5.936 C 9.115 5.932 9.104 5.944 9.108 5.957 C 9.109 5.971 9.101 5.982 9.088 5.98 C 9.074 5.975 9.063 5.986 9.066 6 C 9.07 6.013 9.059 6.024 9.046 6.021 C 9.031 6.019 9.022 6.028 9.026 6.045 C 9.029 6.055 9.017 6.066 9.006 6.065 C 8.991 6.061 8.981 6.071 8.984 6.086 C 8.987 6.099 8.977 6.109 8.964 6.107 C 8.95 6.104 8.939 6.114 8.944 6.129 C 8.946 6.141 8.935 6.153 8.923 6.15 C 8.909 6.145 8.898 6.155 8.902 6.172 C 8.905 6.184 8.894 6.195 8.882 6.193 C 8.868 6.188 8.857 6.199 8.861 6.213 C 8.863 6.23 8.857 6.238 8.847 6.23 C 8.838 6.224 8.818 6.23 8.808 6.247 C 8.79 6.267 9.301 6.805 10.99 8.552 L 13.195 10.83 L 15.403 8.552 C 16.617 7.298 17.609 6.264 17.609 6.258 C 17.609 6.247 17.597 6.239 17.586 6.239 C 17.576 6.239 17.568 6.248 17.576 6.258 C 17.581 6.267 16.601 7.292 15.396 8.536 L 13.207 10.8 L 11.01 8.526 L 8.814 6.251 L 11.01 8.514 L 13.207 10.777 L 15.388 8.523 L 17.567 6.272 L 17.089 5.773 C 16.825 5.499 16.621 5.283 16.635 5.29 C 16.648 5.296 16.661 5.299 16.661 5.295 C 16.661 5.291 16.597 5.101 16.524 4.873 C 16.45 4.645 16.211 3.929 16 3.279 C 15.788 2.629 15.585 2.004 15.546 1.896 C 15.498 1.744 15.488 1.691 15.505 1.671 C 15.524 1.655 15.528 1.656 15.523 1.68 C 15.519 1.698 15.525 1.71 15.538 1.707 C 15.548 1.706 16.421 2.598 17.476 3.69 L 19.393 5.676 L 17.465 3.693 L 15.537 1.711 L 17.465 3.71 L 19.393 5.707 L 21.345 3.69 L 23.3 1.669 L 23.3 1.531 C 23.3 1.297 23.42 0.907 23.546 0.724 C 23.593 0.657 23.601 0.625 23.564 0.649 C 23.55 0.661 23.548 0.657 23.555 0.638 C 23.567 0.623 23.579 0.617 23.584 0.623 C 23.599 0.641 23.671 0.573 23.671 0.544 C 23.671 0.532 23.65 0.541 23.626 0.565 C 23.599 0.586 23.612 0.569 23.647 0.524 C 23.727 0.439 23.765 0.414 23.7 0.493 C 23.679 0.519 23.695 0.507 23.74 0.468 C 23.819 0.393 23.843 0.355 23.781 0.405 C 23.761 0.419 23.77 0.401 23.803 0.365 C 23.839 0.326 23.869 0.294 23.873 0.294 C 23.88 0.294 23.868 0.315 23.847 0.339 C 23.826 0.36 23.816 0.381 23.83 0.381 C 23.857 0.381 23.923 0.306 23.907 0.29 C 23.902 0.285 23.915 0.268 23.932 0.251 C 23.967 0.222 23.968 0.225 23.94 0.26 C 23.905 0.306 23.93 0.306 23.997 0.255 C 24.107 0.176 24.31 0.082 24.468 0.038 C 24.603 0.001 24.674 -0.004 24.897 0.001 C 25.201 0.012 25.392 0.066 25.616 0.201 C 25.752 0.285 25.771 0.289 25.731 0.239 C 25.705 0.204 25.707 0.201 25.74 0.229 C 25.757 0.247 25.771 0.264 25.764 0.269 C 25.751 0.285 25.794 0.339 25.821 0.339 C 25.833 0.339 25.829 0.32 25.814 0.301 C 25.8 0.28 25.813 0.286 25.843 0.315 C 25.905 0.372 25.918 0.401 25.863 0.357 C 25.843 0.34 25.888 0.395 25.965 0.48 C 26.13 0.666 26.25 0.866 26.324 1.095 C 26.372 1.237 26.382 1.311 26.39 1.545 C 26.395 1.78 26.391 1.849 26.354 1.987 C 26.309 2.155 26.189 2.427 26.132 2.497 C 26.112 2.515 26.102 2.54 26.108 2.544 C 26.124 2.56 26.232 2.38 26.298 2.234 C 26.328 2.171 26.353 2.132 26.353 2.15 C 26.353 2.185 26.2 2.485 26.153 2.537 C 26.135 2.558 26.111 2.57 26.101 2.569 C 26.087 2.567 26.073 2.577 26.068 2.594 C 26.061 2.613 26.068 2.619 26.086 2.608 C 26.102 2.595 26.093 2.617 26.065 2.645 C 26.039 2.678 26.009 2.696 26.002 2.692 C 25.992 2.687 25.971 2.7 25.949 2.724 C 25.929 2.749 25.921 2.767 25.929 2.767 C 25.938 2.767 25.929 2.786 25.909 2.809 C 25.888 2.833 25.863 2.846 25.852 2.841 C 25.83 2.824 25.771 2.872 25.785 2.894 C 25.794 2.91 25.738 2.961 25.656 3.01 C 25.596 3.046 25.636 3.002 25.705 2.957 C 25.744 2.933 25.773 2.905 25.767 2.901 C 25.76 2.894 25.731 2.91 25.698 2.933 C 25.5 3.076 25.149 3.193 24.91 3.193 L 24.774 3.193 L 22.82 5.214 L 20.867 7.231 L 22.788 9.212 L 24.712 11.193 L 22.805 9.212 L 20.897 7.231 L 22.823 9.212 C 23.877 10.3 24.744 11.195 24.744 11.199 C 24.744 11.203 24.736 11.199 24.723 11.193 C 24.712 11.187 24.703 11.191 24.703 11.201 C 24.703 11.223 24.732 11.232 24.77 11.227 C 24.78 11.224 24.776 11.243 24.765 11.268 C 24.737 11.319 24.714 11.319 24.63 11.276 C 24.598 11.258 24.584 11.25 24.605 11.257 C 24.703 11.283 24.753 11.293 24.741 11.28 C 24.736 11.274 24.483 11.183 24.184 11.079 C 23.34 10.781 21.465 10.126 21.362 10.087 C 21.252 10.049 21.225 10.059 21.324 10.104 C 21.371 10.128 21.375 10.133 21.341 10.126 C 21.31 10.116 21.093 9.907 20.809 9.621 L 20.33 9.126 L 18.149 11.382 L 15.97 13.633 L 20.707 18.527 C 23.312 21.219 25.445 23.426 25.445 23.432 C 25.445 23.438 23.308 21.235 20.698 18.538 L 15.948 13.633 L 18.134 11.373 C 19.46 10.006 20.33 9.119 20.346 9.126 C 20.363 9.133 20.371 9.126 20.368 9.111 C 20.363 9.098 20.351 9.084 20.339 9.08 C 20.329 9.074 19.326 10.098 18.114 11.352 L 15.908 13.633 L 20.655 18.538 L 25.401 23.443 L 25.474 23.88 C 25.512 24.12 25.635 24.868 25.744 25.541 C 25.852 26.214 25.947 26.77 25.954 26.778 C 25.961 26.784 25.961 26.73 25.954 26.66 L 25.941 26.532 L 25.965 26.634 C 25.995 26.786 25.98 26.807 25.851 26.792 C 25.793 26.784 25.057 26.659 24.219 26.514 L 22.696 26.249 L 19.69 23.143 C 18.036 21.433 16.679 20.041 16.672 20.047 C 16.667 20.053 18.019 21.459 19.677 23.172 C 21.334 24.885 22.688 26.287 22.681 26.287 C 22.675 26.287 20.538 24.084 17.935 21.393 L 13.195 16.497 L 8.455 21.395 C 5.432 24.519 3.706 26.29 3.687 26.281 C 3.663 26.272 3.663 26.268 3.69 26.268 C 3.706 26.266 5.853 24.063 8.456 21.372 L 13.195 16.476 L 13.402 16.69 C 13.515 16.806 13.608 16.896 13.608 16.89 C 13.608 16.883 13.514 16.779 13.398 16.661 L 13.188 16.442 L 8.442 21.343 L 3.7 26.242 L 2.957 26.37 C 2.548 26.441 1.854 26.562 1.409 26.639 C 0.453 26.807 0.451 26.807 0.451 26.792 Z M 15.145 18.459 C 14.311 17.596 13.622 16.892 13.614 16.892 C 13.603 16.892 14.285 17.6 15.124 18.468 C 15.961 19.332 16.652 20.04 16.656 20.035 C 16.661 20.031 15.982 19.322 15.145 18.459 Z M 21.258 10.041 C 21.258 10.025 20.393 9.137 20.377 9.137 C 20.37 9.137 20.561 9.344 20.805 9.595 C 21.049 9.847 21.251 10.052 21.252 10.052 C 21.256 10.052 21.258 10.049 21.258 10.041 Z M 17.126 5.761 C 16.88 5.509 16.673 5.3 16.667 5.3 C 16.657 5.3 16.854 5.513 17.103 5.772 C 17.35 6.025 17.56 6.235 17.564 6.228 C 17.567 6.224 17.373 6.013 17.126 5.761 Z M 0.535 2.822 C 0.535 2.818 0.517 2.801 0.499 2.786 C 0.466 2.758 0.463 2.762 0.491 2.793 C 0.517 2.829 0.535 2.841 0.535 2.822 Z M 25.9 2.793 C 25.928 2.762 25.925 2.758 25.895 2.786 C 25.872 2.801 25.856 2.818 25.856 2.822 C 25.856 2.841 25.872 2.829 25.9 2.793 Z M 0.389 2.674 C 0.389 2.669 0.372 2.652 0.355 2.637 C 0.322 2.609 0.321 2.612 0.346 2.645 C 0.372 2.679 0.389 2.691 0.389 2.674 Z M 26.045 2.645 C 26.072 2.612 26.069 2.609 26.039 2.637 C 26.017 2.652 26.002 2.669 26.002 2.674 C 26.002 2.691 26.017 2.679 26.045 2.645 Z" style="fill: rgb(204, 204, 204);"/>
  <path d="M 48.245 18.035 L 50.858 26.396 L 42.584 26.396 L 40.763 18.92 L 39.14 18.92 L 37.873 26.396 L 30.351 26.396 L 34.706 1.273 L 46.582 1.273 L 46.582 1.273 C 51.095 1.273 53.352 3.323 53.352 7.424 L 53.352 7.424 L 53.352 7.424 C 53.352 9.111 53.101 10.72 52.599 12.247 L 52.599 12.247 L 52.599 12.247 C 51.676 15.142 50.224 17.071 48.245 18.035 L 48.245 18.035 Z M 42.584 7.705 L 41.079 7.705 L 40.208 12.729 L 41.95 12.729 L 41.95 12.729 C 42.848 12.729 43.525 12.632 43.982 12.435 L 43.982 12.435 L 43.982 12.435 C 44.448 12.229 44.765 11.654 44.933 10.706 L 44.933 10.706 L 44.933 10.706 C 45.108 9.751 45.196 9.165 45.196 8.951 L 45.196 8.951 L 45.196 8.951 C 45.196 8.415 44.995 8.07 44.589 7.919 L 44.589 7.919 L 44.589 7.919 C 44.176 7.776 43.507 7.705 42.584 7.705 L 42.584 7.705 Z M 63.922 9.675 L 63.922 9.675 L 62.101 20.126 L 65.228 20.126 L 65.228 20.126 C 66.257 20.126 67.023 20.001 67.524 19.75 L 67.524 19.75 L 67.524 19.75 C 68.026 19.492 68.355 18.907 68.514 17.995 L 68.514 17.995 L 70.335 7.543 L 67.168 7.543 L 67.168 7.543 C 66.165 7.543 65.413 7.668 64.911 7.919 L 64.911 7.919 L 64.911 7.919 C 64.41 8.178 64.08 8.763 63.922 9.675 Z M 68.474 0.67 L 68.474 0.67 L 68.474 0.67 C 71.826 0.67 74.215 1.336 75.64 2.666 L 75.64 2.666 L 75.64 2.666 C 77.065 3.989 77.777 6.029 77.777 8.79 L 77.777 8.79 L 77.777 8.79 C 77.777 11.55 77.346 14.44 76.484 17.46 L 76.484 17.46 L 76.484 17.46 C 75.63 20.47 74.271 22.81 72.407 24.48 L 72.407 24.48 L 72.407 24.48 C 70.55 26.16 67.832 26.999 64.252 26.999 L 64.252 26.999 L 64.252 26.999 C 60.679 26.999 58.181 26.339 56.756 25.016 L 56.756 25.016 L 56.756 25.016 C 55.331 23.686 54.618 21.64 54.618 18.879 L 54.618 18.879 L 54.618 18.879 C 54.618 17.566 54.803 15.834 55.173 13.68 L 55.173 13.68 L 55.173 13.68 C 55.542 11.52 56.03 9.656 56.637 8.093 L 56.637 8.093 L 56.637 8.093 C 57.244 6.522 58.063 5.159 59.092 4.007 L 59.092 4.007 L 59.092 4.007 C 61.071 1.782 64.199 0.67 68.474 0.67 Z M 95.157 19.965 L 94.048 26.396 L 79.005 26.396 L 83.359 1.273 L 90.881 1.273 L 87.635 19.965 L 95.157 19.965 Z M 113.565 11.081 L 112.536 16.909 L 105.014 16.909 L 104.499 19.965 L 113.723 19.965 L 112.615 26.396 L 95.869 26.396 L 100.224 1.273 L 116.772 1.273 L 114.713 7.705 L 106.598 7.705 L 106.043 11.081 L 113.565 11.081 Z M 138.228 20.326 L 138.228 20.326 L 133.319 20.326 L 132.29 26.396 L 124.768 26.396 L 129.123 1.273 L 141 1.273 L 141 1.273 C 145.486 1.273 147.73 3.39 147.73 7.625 L 147.73 7.625 L 147.73 7.625 C 147.73 9.634 147.452 11.447 146.898 13.064 L 146.898 13.064 L 146.898 13.064 C 146.344 14.69 145.733 15.981 145.064 16.937 L 145.064 16.937 L 145.064 16.937 C 144.387 17.884 143.458 18.688 142.28 19.348 L 142.28 19.348 L 142.28 19.348 C 141.109 20.001 139.759 20.326 138.228 20.326 Z M 137.239 7.705 L 135.497 7.705 L 134.428 13.895 L 136.17 13.895 L 136.17 13.895 C 137.067 13.895 137.744 13.797 138.202 13.6 L 138.202 13.6 L 138.202 13.6 C 138.668 13.395 138.967 12.93 139.099 12.207 L 139.099 12.207 L 139.099 12.207 C 139.442 10.224 139.614 9.139 139.614 8.951 L 139.614 8.951 L 139.614 8.951 C 139.614 8.442 139.416 8.107 139.02 7.945 L 139.02 7.945 L 139.02 7.945 C 138.624 7.785 138.03 7.705 137.239 7.705 L 137.239 7.705 Z M 163.604 19.965 L 162.496 26.396 L 147.452 26.396 L 151.807 1.273 L 159.329 1.273 L 156.083 19.965 L 163.604 19.965 Z M 169.503 22.417 L 167.959 26.396 L 160.041 26.396 L 170.453 1.273 L 182.092 1.273 L 183.834 26.396 L 175.877 26.396 L 175.718 22.417 L 169.503 22.417 Z M 175.124 8.991 L 174.729 8.991 L 171.957 16.026 L 175.124 16.026 L 175.124 8.991 Z M 185.536 1.273 L 193.85 1.273 L 194.364 10.116 L 194.641 10.116 L 198.283 1.273 L 206.597 1.273 L 196.621 19.563 L 195.473 26.396 L 187.951 26.396 L 189.099 19.563 L 185.536 1.273 Z M 210.912 26.396 L 203.39 26.396 L 207.745 1.273 L 215.267 1.273 L 210.912 26.396 Z M 236.486 26.396 L 229.4 26.396 L 225.362 17.473 L 225.362 17.473 C 225.256 17.285 225.203 17.021 225.203 16.682 L 225.203 16.682 L 225.203 16.682 C 225.203 16.351 225.23 15.972 225.282 15.543 L 225.282 15.543 L 224.966 15.543 L 223.105 26.396 L 215.583 26.396 L 219.938 1.273 L 227.024 1.273 L 231.062 10.197 L 231.062 10.197 C 231.142 10.384 231.181 10.648 231.181 10.988 L 231.181 10.988 L 231.181 10.988 C 231.181 11.319 231.155 11.697 231.102 12.126 L 231.102 12.126 L 231.419 12.126 L 233.319 1.273 L 240.841 1.273 L 236.486 26.396 Z M 254.974 19 L 254.974 19 L 255.171 17.915 L 253.271 17.915 L 254.34 11.764 L 263.406 11.764 L 261.07 25.191 L 261.07 25.191 C 257.85 26.396 254.617 26.999 251.371 26.999 L 251.371 26.999 L 251.371 26.999 C 248.125 26.999 245.78 26.342 244.338 25.03 L 244.338 25.03 L 244.338 25.03 C 242.903 23.717 242.187 21.693 242.187 18.959 L 242.187 18.959 L 242.187 18.959 C 242.187 17.808 242.371 16.106 242.741 13.855 L 242.741 13.855 L 242.741 13.855 C 243.533 9.192 244.931 5.828 246.937 3.765 L 246.937 3.765 L 246.937 3.765 C 248.943 1.702 252.268 0.67 256.913 0.67 L 256.913 0.67 L 256.913 0.67 C 257.89 0.67 259.134 0.777 260.648 0.992 L 260.648 0.992 L 260.648 0.992 C 262.169 1.206 263.287 1.447 264 1.715 L 264 1.715 L 261.822 7.865 L 261.822 7.865 C 259.843 7.491 258.026 7.303 256.372 7.303 L 256.372 7.303 L 256.372 7.303 C 254.727 7.303 253.548 7.437 252.836 7.705 L 252.836 7.705 L 252.836 7.705 C 252.123 7.973 251.701 8.509 251.569 9.312 L 251.569 9.312 L 249.629 20.689 L 252.123 20.689 L 252.123 20.689 C 253.02 20.689 253.684 20.59 254.116 20.393 L 254.116 20.393 L 254.116 20.393 C 254.555 20.189 254.842 19.724 254.974 19 Z" style="white-space: pre; fill: rgb(255, 255, 255);"/>
</svg>