<?xml version="1.0" encoding="utf-8"?>
<!-- Made by Szalik  -->
<svg version="1.1" id="fight" xmlns="http://www.w3.org/2000/svg" xmlns:xlink="http://www.w3.org/1999/xlink" x="0px" y="0px" xml:space="preserve">
<g>
	<g>
		<path d="M121.29,233.84c1.09,1.58,2.26,3.28,3.49,5.07c1.72-1.41,3.37-2.78,5.03-4.14c0.34-0.28,0.67-0.58,1.05-0.79
			c1-0.56,2.06-0.34,2.67,0.52c0.6,0.85,0.52,1.98-0.31,2.71c-1.26,1.11-2.57,2.16-3.86,3.23c-1.17,0.97-2.33,1.94-3.52,2.9
			c-1.2,0.96-2.37,0.8-3.29-0.45c-0.47-0.64-0.93-1.29-1.4-1.93c-0.02-0.03-0.07-0.03-0.2-0.08c-0.32,1.73-0.64,3.45-0.96,5.17
			c-0.12,0.67-0.19,1.35-0.37,2c-0.28,0.97-0.06,1.73,0.6,2.5c1.66,1.94,3.23,3.96,4.85,5.94c0.56,0.68,0.82,1.44,0.76,2.33
			c-0.34,5.26-0.65,10.53-1.01,15.79c-0.1,1.53-1.44,2.69-2.89,2.64c-1.58-0.06-2.8-1.27-2.74-2.9c0.08-2.52,0.27-5.03,0.41-7.54
			c0.13-2.23,0.3-4.47,0.37-6.7c0.02-0.46-0.22-1.01-0.51-1.38c-1.3-1.68-2.67-3.29-3.98-4.95c-0.73-0.94-1.63-1.41-2.81-1.18
			c-1.17,0.23-1.7,1.1-2.01,2.15c-1.93,6.38-3.86,12.76-5.79,19.14c-0.35,1.17-0.77,2.27-2.09,2.71c-1.76,0.58-3.61-0.6-3.71-2.44
			c-0.03-0.5,0.06-1.04,0.21-1.52c2.65-8.7,5.33-17.39,7.96-26.09c0.33-1.1,0.53-2.25,0.69-3.4c0.09-0.67,0.4-1.01,0.98-1.34
			c3.48-1.96,6.94-3.94,10.36-6C120.02,235.34,120.56,234.56,121.29,233.84z" fill="white"/>
		<path d="M197.61,245.55c-1.92,0.25-3.77,0.49-5.59,0.72c-0.08-0.12-0.16-0.18-0.17-0.24c-0.22-1.86-0.33-1.96-2.24-1.96
			c-2.48,0-4.96-0.01-7.43,0c-1.78,0-2.07,0.29-2.07,2.11c-0.01,2.52-0.01,5.04,0,7.55c0.01,1.73,0.32,2.05,2.02,2.06
			c2.4,0.02,4.8,0.01,7.19,0c2.41,0,2.61-0.23,2.42-2.79c-0.36-0.02-0.74-0.06-1.12-0.06c-1.96-0.01-3.92-0.03-5.88,0.01
			c-0.72,0.01-1.06-0.17-1.22-0.94c-0.33-1.63-0.79-3.24-1.21-4.93c5.16,0,10.19,0,15.21,0c0.06,0.08,0.15,0.14,0.15,0.2
			c-0.02,2.83,0.11,5.68-0.12,8.5c-0.29,3.69-2.48,5.71-6.2,5.84c-3.59,0.13-7.2,0.13-10.79,0c-3.85-0.15-6.13-2.47-6.27-6.34
			c-0.12-3.55-0.11-7.12-0.01-10.67c0.12-3.96,2.49-6.31,6.45-6.42c3.47-0.1,6.96-0.1,10.43,0
			C195.41,238.31,197.86,241.13,197.61,245.55z" fill="white"/>
		<path d="M145.08,261.64c-2.05,0-3.88,0-5.8,0c0-7.8,0-15.57,0-23.41c7.74,0,15.47,0,23.3,0c0,1.89,0,3.78,0,5.82
			c-5.82,0-11.59,0-17.45,0c0,1.04,0,1.94,0,2.95c5.81,0,11.59,0,17.45,0c0,2,0,3.89,0,5.93c-5.82,0-11.6,0-17.5,0
			C145.08,255.89,145.08,258.72,145.08,261.64z" fill="white"/>
		<path d="M206.45,246.99c4.02,0,7.81,0,11.74,0c0-2.93,0-5.82,0-8.77c2.01,0,3.87,0,5.83,0c0,7.77,0,15.54,0,23.38
			c-1.91,0-3.8,0-5.81,0c0-2.87,0-5.68,0-8.58c-3.94,0-7.75,0-11.69,0c0,2.87,0,5.69,0,8.58c-1.99,0-3.85,0-5.79,0
			c0-7.76,0-15.53,0-23.37c1.86,0,3.71,0,5.73,0C206.45,241.12,206.45,244.01,206.45,246.99z" fill="white"/>
		<path d="M241.71,261.64c-2.02,0-3.85,0-5.85,0c0-5.84,0-11.64,0-17.56c-2.99,0-5.82,0-8.73,0c0-2,0-3.89,0-5.85
			c7.73,0,15.46,0,23.29,0c0,1.89,0,3.78,0,5.82c-2.89,0-5.75,0-8.71,0C241.71,249.97,241.71,255.75,241.71,261.64z" fill="white"/>
		<path d="M171.35,261.64c-1.93,0-3.76,0-5.67,0c0-7.79,0-15.56,0-23.41c1.85,0,3.71,0,5.67,0
			C171.35,246,171.35,253.77,171.35,261.64z" fill="white"/>
		<path d="M120.89,232.66c-1.04-1.9-2.36-2.26-4.2-1.2c-1.65,0.95-1.96,0.87-2.93-0.83c-1.49-2.6-0.56-5.88,2.07-7.35
			c2.62-1.46,5.91-0.48,7.3,2.17C124.53,228.11,123.57,231.28,120.89,232.66z" fill="white"/>
		<path d="M120.44,233.49c-0.36,0.48-0.62,1.13-1.09,1.41c-3.59,2.15-7.21,4.25-10.84,6.33c-0.97,0.56-1.98,0.26-2.5-0.6
			c-0.53-0.88-0.33-1.93,0.62-2.49c3.6-2.14,7.21-4.25,10.86-6.31C118.78,231.1,120.21,231.94,120.44,233.49z" fill="white"/>
		<path d="M114.45,232.75c-2.58,1.49-4.97,2.87-7.37,4.25c-0.04-0.05-0.08-0.11-0.13-0.16c1.21-1.51,2.35-3.09,3.68-4.49
			c0.48-0.51,1.42-0.81,2.14-0.79C113.3,231.57,113.81,232.26,114.45,232.75z" fill="white"/>
	</g>
</g>
</svg>
