<?xml version="1.0" encoding="utf-8"?>
<svg viewBox="0 0 200 40" xmlns="http://www.w3.org/2000/svg">
  <path d="M 4.504 29.65 C 4.504 29.646 4.555 29.334 4.617 28.955 C 4.679 28.58 4.767 28.033 4.813 27.744 L 4.896 27.219 L 8.343 23.658 L 11.787 20.098 L 10.185 18.442 L 8.583 16.787 L 8.232 17.149 L 7.881 17.509 L 7.52 17.634 C 7.324 17.703 6.801 17.884 6.361 18.041 C 5.5 18.341 5.388 18.381 5.375 18.381 C 5.37 18.381 6.002 17.723 6.779 16.918 L 8.196 15.457 L 7.717 14.964 C 7.454 14.691 7.233 14.471 7.226 14.477 C 7.219 14.48 7.216 14.477 7.216 14.464 C 7.221 14.453 7.213 14.446 7.202 14.449 C 7.192 14.45 7.186 14.442 7.188 14.433 C 7.189 14.422 7.182 14.416 7.173 14.418 C 7.164 14.419 7.156 14.412 7.157 14.402 C 7.16 14.392 7.153 14.383 7.143 14.387 C 7.133 14.388 7.126 14.381 7.128 14.372 C 7.13 14.361 7.123 14.352 7.112 14.355 C 7.102 14.358 7.097 14.351 7.098 14.34 C 7.101 14.33 7.093 14.322 7.082 14.325 C 7.074 14.327 7.066 14.318 7.068 14.309 C 7.07 14.298 7.063 14.291 7.053 14.294 C 7.044 14.295 7.036 14.288 7.037 14.278 C 7.041 14.268 7.033 14.26 7.022 14.264 C 7.013 14.265 7.006 14.257 7.008 14.248 C 7.011 14.237 7.003 14.229 6.992 14.232 C 6.984 14.234 6.976 14.226 6.978 14.217 C 6.981 14.207 6.973 14.199 6.964 14.202 C 6.954 14.203 6.946 14.196 6.947 14.186 C 6.951 14.175 6.943 14.167 6.933 14.17 C 6.923 14.172 6.916 14.164 6.919 14.154 C 6.922 14.144 6.913 14.135 6.902 14.139 C 6.895 14.141 6.887 14.132 6.888 14.124 C 6.891 14.114 6.884 14.106 6.874 14.109 C 6.864 14.111 6.856 14.102 6.857 14.093 C 6.861 14.082 6.853 14.075 6.843 14.077 C 6.833 14.078 6.826 14.072 6.829 14.063 C 6.83 14.051 6.824 14.044 6.812 14.045 C 6.805 14.048 6.797 14.041 6.798 14.032 C 6.801 14.02 6.794 14.013 6.784 14.016 C 6.774 14.017 6.766 14.009 6.768 14 C 6.772 13.989 6.763 13.982 6.753 13.986 C 6.744 13.987 6.737 13.979 6.739 13.969 C 6.742 13.958 6.734 13.95 6.723 13.954 C 6.713 13.955 6.707 13.947 6.708 13.938 C 6.71 13.929 6.704 13.92 6.694 13.923 C 6.685 13.925 6.676 13.917 6.678 13.907 C 6.682 13.897 6.673 13.889 6.664 13.892 C 6.654 13.893 6.647 13.886 6.649 13.878 C 6.652 13.865 6.644 13.858 6.633 13.861 C 6.623 13.862 6.617 13.855 6.617 13.846 C 6.62 13.835 6.615 13.826 6.604 13.831 C 6.595 13.832 6.587 13.825 6.588 13.814 C 6.592 13.804 6.584 13.796 6.574 13.799 C 6.565 13.801 6.556 13.793 6.559 13.785 C 6.562 13.773 6.554 13.765 6.543 13.769 C 6.535 13.77 6.527 13.762 6.529 13.753 C 6.532 13.741 6.524 13.735 6.514 13.738 C 6.505 13.738 6.497 13.731 6.498 13.722 C 6.502 13.711 6.494 13.703 6.484 13.706 C 6.475 13.709 6.466 13.7 6.469 13.691 C 6.472 13.68 6.463 13.673 6.453 13.677 C 6.445 13.677 6.437 13.669 6.439 13.661 C 6.442 13.649 6.434 13.642 6.424 13.644 C 6.415 13.645 6.407 13.639 6.408 13.629 C 6.41 13.619 6.404 13.61 6.394 13.613 C 6.385 13.615 6.376 13.608 6.379 13.597 C 6.382 13.587 6.373 13.58 6.364 13.583 C 6.355 13.584 6.347 13.576 6.349 13.567 C 6.352 13.555 6.344 13.548 6.334 13.552 C 6.325 13.554 6.317 13.546 6.319 13.537 C 6.323 13.526 6.315 13.518 6.305 13.52 C 6.295 13.523 6.287 13.515 6.289 13.505 C 6.292 13.494 6.284 13.487 6.274 13.49 C 6.265 13.491 6.257 13.485 6.26 13.475 C 6.262 13.464 6.254 13.457 6.244 13.46 C 6.236 13.46 6.228 13.453 6.229 13.443 C 6.232 13.433 6.225 13.424 6.214 13.428 C 6.205 13.43 6.197 13.421 6.2 13.412 C 6.202 13.402 6.194 13.394 6.184 13.397 C 6.175 13.399 6.169 13.391 6.169 13.381 C 6.172 13.371 6.164 13.363 6.151 13.366 C 6.139 13.37 6.135 13.366 6.14 13.36 C 6.148 13.353 5.971 13.161 5.752 12.933 L 5.351 12.519 L 5.245 12.519 C 5.078 12.519 4.824 12.434 4.682 12.332 C 4.632 12.294 4.614 12.294 4.641 12.33 C 4.66 12.353 4.659 12.355 4.637 12.335 C 4.621 12.323 4.613 12.307 4.617 12.302 C 4.627 12.286 4.584 12.251 4.568 12.263 C 4.56 12.267 4.542 12.257 4.527 12.24 C 4.512 12.223 4.506 12.209 4.512 12.209 C 4.517 12.209 4.512 12.196 4.498 12.178 C 4.482 12.161 4.465 12.151 4.459 12.155 C 4.454 12.158 4.432 12.145 4.413 12.121 C 4.393 12.101 4.387 12.085 4.398 12.094 C 4.411 12.102 4.416 12.098 4.411 12.084 C 4.408 12.072 4.397 12.064 4.389 12.066 C 4.38 12.066 4.363 12.058 4.351 12.043 C 4.315 12.005 4.206 11.787 4.206 11.762 C 4.206 11.749 4.223 11.777 4.244 11.823 C 4.291 11.929 4.371 12.059 4.382 12.048 C 4.387 12.045 4.379 12.027 4.366 12.013 C 4.323 11.963 4.236 11.765 4.203 11.643 C 4.177 11.543 4.174 11.493 4.178 11.322 C 4.183 11.153 4.191 11.099 4.225 10.996 C 4.279 10.829 4.366 10.684 4.487 10.549 C 4.542 10.488 4.572 10.45 4.557 10.461 C 4.534 10.48 4.536 10.472 4.564 10.441 C 4.6 10.399 4.627 10.383 4.594 10.423 C 4.582 10.437 4.581 10.447 4.592 10.447 C 4.607 10.447 4.632 10.416 4.632 10.393 C 4.632 10.386 4.648 10.371 4.669 10.356 L 4.707 10.335 L 4.669 10.367 C 4.614 10.414 4.641 10.408 4.74 10.347 C 4.901 10.249 5.04 10.21 5.261 10.202 C 5.423 10.198 5.475 10.202 5.573 10.228 C 5.687 10.26 5.835 10.329 5.915 10.386 C 5.965 10.423 5.981 10.423 5.956 10.387 C 5.936 10.364 5.938 10.362 5.96 10.383 C 5.974 10.393 5.984 10.408 5.979 10.414 C 5.968 10.432 6.012 10.467 6.028 10.456 C 6.036 10.451 6.056 10.461 6.071 10.482 L 6.1 10.517 L 6.061 10.486 L 6.024 10.453 L 6.06 10.496 C 6.079 10.52 6.101 10.535 6.11 10.53 C 6.116 10.525 6.119 10.53 6.118 10.542 C 6.115 10.553 6.122 10.56 6.13 10.559 C 6.139 10.557 6.164 10.575 6.183 10.598 C 6.217 10.636 6.217 10.639 6.185 10.611 C 6.167 10.594 6.151 10.587 6.151 10.596 C 6.151 10.617 6.204 10.666 6.214 10.655 C 6.218 10.65 6.23 10.66 6.242 10.673 C 6.262 10.699 6.26 10.7 6.236 10.681 C 6.204 10.652 6.204 10.671 6.239 10.721 C 6.339 10.867 6.421 11.137 6.421 11.315 L 6.421 11.412 L 7.843 12.882 L 9.265 14.352 L 10.68 12.89 C 11.458 12.085 12.095 11.433 12.095 11.439 C 12.095 11.443 12.041 11.614 11.973 11.817 C 11.907 12.02 11.84 12.225 11.825 12.27 C 11.603 12.956 11.254 14.008 11.243 14.029 C 11.235 14.045 11.2 14.085 11.167 14.118 C 11.134 14.152 11.11 14.185 11.115 14.191 C 11.12 14.2 11.115 14.203 11.103 14.202 C 11.092 14.199 11.086 14.207 11.088 14.217 C 11.089 14.226 11.082 14.234 11.074 14.232 C 11.062 14.229 11.055 14.237 11.058 14.248 C 11.059 14.257 11.053 14.265 11.043 14.264 C 11.033 14.26 11.025 14.268 11.029 14.278 C 11.03 14.288 11.022 14.295 11.013 14.294 C 11.003 14.291 10.996 14.298 10.998 14.309 C 11.001 14.318 10.993 14.327 10.984 14.325 C 10.974 14.322 10.966 14.33 10.969 14.34 C 10.969 14.351 10.963 14.358 10.954 14.355 C 10.943 14.352 10.935 14.361 10.939 14.372 C 10.941 14.381 10.932 14.388 10.924 14.387 C 10.913 14.383 10.906 14.392 10.908 14.402 C 10.911 14.412 10.903 14.419 10.894 14.418 C 10.884 14.416 10.876 14.422 10.879 14.433 C 10.879 14.442 10.873 14.45 10.863 14.449 C 10.854 14.446 10.845 14.453 10.849 14.464 C 10.851 14.474 10.842 14.48 10.834 14.479 C 10.823 14.477 10.816 14.485 10.819 14.495 C 10.821 14.505 10.813 14.513 10.804 14.51 C 10.794 14.507 10.786 14.516 10.789 14.525 C 10.789 14.535 10.784 14.543 10.774 14.542 C 10.764 14.538 10.756 14.546 10.758 14.556 C 10.761 14.566 10.753 14.574 10.744 14.572 C 10.733 14.57 10.726 14.577 10.729 14.589 C 10.731 14.596 10.723 14.604 10.715 14.604 C 10.704 14.601 10.696 14.608 10.699 14.619 C 10.701 14.628 10.694 14.636 10.684 14.634 C 10.674 14.632 10.666 14.639 10.67 14.65 C 10.671 14.659 10.663 14.668 10.654 14.665 C 10.644 14.662 10.636 14.669 10.639 14.681 C 10.641 14.69 10.633 14.698 10.625 14.697 C 10.614 14.693 10.606 14.701 10.609 14.711 C 10.611 14.723 10.606 14.729 10.599 14.723 C 10.593 14.719 10.578 14.723 10.571 14.736 C 10.558 14.75 10.929 15.141 12.155 16.409 L 13.756 18.063 L 15.358 16.409 C 16.24 15.499 16.96 14.748 16.96 14.744 C 16.96 14.736 16.951 14.73 16.943 14.73 C 16.936 14.73 16.93 14.736 16.936 14.744 C 16.939 14.75 16.228 15.494 15.353 16.397 L 13.764 18.041 L 12.169 16.39 L 10.575 14.739 L 12.169 16.381 L 13.764 18.024 L 15.347 16.388 L 16.929 14.754 L 16.582 14.392 C 16.391 14.193 16.243 14.036 16.253 14.041 C 16.262 14.045 16.272 14.048 16.272 14.045 C 16.272 14.042 16.225 13.904 16.172 13.738 C 16.118 13.573 15.945 13.053 15.792 12.581 C 15.638 12.109 15.491 11.656 15.462 11.577 C 15.427 11.467 15.42 11.428 15.432 11.414 C 15.446 11.402 15.449 11.403 15.445 11.42 C 15.443 11.433 15.447 11.442 15.456 11.44 C 15.464 11.439 16.097 12.087 16.863 12.88 L 18.255 14.321 L 16.855 12.882 L 15.456 11.443 L 16.855 12.894 L 18.255 14.344 L 19.672 12.88 L 21.091 11.412 L 21.091 11.312 C 21.091 11.142 21.178 10.859 21.27 10.726 C 21.304 10.678 21.31 10.655 21.283 10.672 C 21.273 10.681 21.271 10.678 21.276 10.664 C 21.285 10.653 21.294 10.649 21.297 10.653 C 21.308 10.666 21.36 10.617 21.36 10.596 C 21.36 10.587 21.345 10.594 21.328 10.611 C 21.308 10.626 21.318 10.614 21.343 10.581 C 21.401 10.52 21.429 10.501 21.381 10.559 C 21.366 10.578 21.378 10.569 21.411 10.541 C 21.468 10.486 21.485 10.459 21.44 10.495 C 21.426 10.505 21.432 10.492 21.456 10.466 C 21.482 10.437 21.504 10.414 21.507 10.414 C 21.512 10.414 21.503 10.429 21.488 10.447 C 21.473 10.462 21.466 10.477 21.476 10.477 C 21.495 10.477 21.543 10.423 21.532 10.411 C 21.528 10.408 21.538 10.395 21.55 10.383 C 21.575 10.362 21.576 10.364 21.556 10.39 C 21.53 10.423 21.548 10.423 21.597 10.386 C 21.677 10.329 21.824 10.26 21.939 10.228 C 22.037 10.202 22.089 10.198 22.25 10.202 C 22.471 10.21 22.61 10.249 22.772 10.347 C 22.871 10.408 22.885 10.411 22.856 10.374 C 22.837 10.349 22.838 10.347 22.862 10.367 C 22.875 10.38 22.885 10.392 22.88 10.396 C 22.87 10.408 22.902 10.447 22.921 10.447 C 22.93 10.447 22.927 10.433 22.916 10.419 C 22.906 10.404 22.915 10.408 22.937 10.429 C 22.982 10.471 22.992 10.492 22.952 10.46 C 22.937 10.448 22.97 10.488 23.026 10.549 C 23.145 10.684 23.233 10.829 23.286 10.996 C 23.321 11.099 23.328 11.153 23.334 11.322 C 23.338 11.493 23.335 11.543 23.308 11.643 C 23.275 11.765 23.188 11.963 23.147 12.013 C 23.132 12.027 23.125 12.045 23.13 12.048 C 23.141 12.059 23.22 11.929 23.267 11.823 C 23.289 11.777 23.307 11.749 23.307 11.762 C 23.307 11.787 23.196 12.005 23.162 12.043 C 23.149 12.058 23.132 12.066 23.124 12.066 C 23.114 12.064 23.104 12.072 23.1 12.084 C 23.095 12.098 23.1 12.102 23.114 12.094 C 23.125 12.085 23.119 12.101 23.098 12.121 C 23.079 12.145 23.058 12.158 23.053 12.155 C 23.045 12.151 23.03 12.161 23.014 12.178 C 23 12.196 22.994 12.209 23 12.209 C 23.006 12.209 23 12.223 22.985 12.24 C 22.97 12.257 22.952 12.267 22.944 12.263 C 22.928 12.251 22.885 12.286 22.895 12.302 C 22.902 12.313 22.861 12.35 22.801 12.386 C 22.758 12.412 22.787 12.38 22.837 12.347 C 22.865 12.33 22.886 12.31 22.882 12.307 C 22.877 12.302 22.856 12.313 22.832 12.33 C 22.688 12.434 22.433 12.519 22.26 12.519 L 22.161 12.519 L 20.743 13.986 L 19.325 15.45 L 20.719 16.888 L 22.116 18.326 L 20.732 16.888 L 19.347 15.45 L 20.745 16.888 C 21.51 17.678 22.139 18.328 22.139 18.331 C 22.139 18.333 22.134 18.331 22.124 18.326 C 22.116 18.322 22.11 18.325 22.11 18.332 C 22.11 18.348 22.131 18.355 22.158 18.351 C 22.165 18.349 22.163 18.363 22.155 18.381 C 22.134 18.418 22.118 18.418 22.057 18.386 C 22.033 18.373 22.023 18.368 22.038 18.373 C 22.11 18.392 22.146 18.399 22.137 18.389 C 22.134 18.385 21.95 18.319 21.733 18.243 C 21.12 18.027 19.759 17.552 19.684 17.523 C 19.604 17.496 19.585 17.503 19.657 17.536 C 19.691 17.553 19.694 17.557 19.669 17.552 C 19.646 17.544 19.489 17.393 19.283 17.185 L 18.935 16.826 L 17.352 18.463 L 15.77 20.098 L 19.209 23.65 C 21.1 25.604 22.648 27.207 22.648 27.211 C 22.648 27.215 21.097 25.616 19.202 23.658 L 15.754 20.098 L 17.341 18.457 C 18.304 17.465 18.935 16.821 18.947 16.826 C 18.959 16.831 18.965 16.826 18.963 16.815 C 18.959 16.805 18.95 16.795 18.942 16.792 C 18.934 16.788 18.206 17.531 17.326 18.442 L 15.725 20.098 L 19.171 23.658 L 22.616 27.219 L 22.669 27.536 C 22.697 27.71 22.786 28.253 22.865 28.742 C 22.944 29.231 23.013 29.634 23.018 29.64 C 23.023 29.644 23.023 29.605 23.018 29.554 L 23.008 29.461 L 23.026 29.535 C 23.047 29.646 23.037 29.661 22.943 29.65 C 22.901 29.644 22.367 29.554 21.758 29.448 L 20.653 29.256 L 18.47 27.001 C 17.27 25.76 16.285 24.749 16.28 24.754 C 16.276 24.758 17.257 25.779 18.461 27.022 C 19.664 28.266 20.647 29.284 20.642 29.284 C 20.637 29.284 19.086 27.684 17.196 25.731 L 13.756 22.177 L 10.315 25.732 C 8.12 28 6.867 29.286 6.853 29.279 C 6.836 29.273 6.836 29.27 6.855 29.27 C 6.867 29.268 8.426 27.669 10.315 25.716 L 13.756 22.161 L 13.906 22.317 C 13.988 22.401 14.055 22.466 14.055 22.462 C 14.055 22.457 13.987 22.381 13.903 22.296 L 13.75 22.137 L 10.305 25.694 L 6.863 29.251 L 6.323 29.344 C 6.026 29.395 5.523 29.483 5.2 29.539 C 4.506 29.661 4.504 29.661 4.504 29.65 Z M 15.171 23.601 C 14.566 22.974 14.065 22.463 14.06 22.463 C 14.052 22.463 14.547 22.977 15.156 23.607 C 15.763 24.235 16.265 24.749 16.268 24.745 C 16.272 24.742 15.779 24.227 15.171 23.601 Z M 19.609 17.49 C 19.609 17.478 18.981 16.834 18.969 16.834 C 18.964 16.834 19.103 16.984 19.28 17.166 C 19.457 17.349 19.604 17.498 19.604 17.498 C 19.607 17.498 19.609 17.496 19.609 17.49 Z M 16.609 14.383 C 16.431 14.2 16.28 14.048 16.276 14.048 C 16.269 14.048 16.412 14.203 16.592 14.391 C 16.772 14.575 16.924 14.727 16.927 14.722 C 16.929 14.719 16.788 14.566 16.609 14.383 Z M 4.565 12.249 C 4.565 12.247 4.552 12.234 4.539 12.223 C 4.515 12.203 4.513 12.206 4.533 12.228 C 4.552 12.255 4.565 12.263 4.565 12.249 Z M 22.979 12.228 C 22.999 12.206 22.997 12.203 22.975 12.223 C 22.958 12.234 22.947 12.247 22.947 12.249 C 22.947 12.263 22.958 12.255 22.979 12.228 Z M 4.459 12.142 C 4.459 12.138 4.447 12.126 4.435 12.115 C 4.411 12.095 4.41 12.097 4.428 12.121 C 4.447 12.146 4.459 12.154 4.459 12.142 Z M 23.084 12.121 C 23.103 12.097 23.101 12.095 23.079 12.115 C 23.063 12.126 23.053 12.138 23.053 12.142 C 23.053 12.154 23.063 12.146 23.084 12.121 Z" style="fill: rgb(204, 204, 204);"/>
  <path d="M 39.2 23.293 L 41.096 29.363 L 35.09 29.363 L 33.768 23.936 L 32.59 23.936 L 31.67 29.363 L 26.21 29.363 L 29.371 11.125 L 37.992 11.125 L 37.992 11.125 C 41.268 11.125 42.907 12.613 42.907 15.59 L 42.907 15.59 L 42.907 15.59 C 42.907 16.815 42.725 17.983 42.36 19.091 L 42.36 19.091 L 42.36 19.091 C 41.69 21.193 40.636 22.593 39.2 23.293 L 39.2 23.293 Z M 35.09 15.794 L 33.998 15.794 L 33.365 19.441 L 34.63 19.441 L 34.63 19.441 C 35.282 19.441 35.773 19.371 36.105 19.228 L 36.105 19.228 L 36.105 19.228 C 36.443 19.078 36.673 18.661 36.795 17.973 L 36.795 17.973 L 36.795 17.973 C 36.922 17.279 36.986 16.854 36.986 16.699 L 36.986 16.699 L 36.986 16.699 C 36.986 16.31 36.84 16.059 36.546 15.95 L 36.546 15.95 L 36.546 15.95 C 36.246 15.846 35.76 15.794 35.09 15.794 L 35.09 15.794 Z M 50.58 17.224 L 50.58 17.224 L 49.258 24.811 L 51.528 24.811 L 51.528 24.811 C 52.275 24.811 52.831 24.72 53.195 24.538 L 53.195 24.538 L 53.195 24.538 C 53.559 24.351 53.798 23.926 53.914 23.264 L 53.914 23.264 L 55.235 15.677 L 52.936 15.677 L 52.936 15.677 C 52.208 15.677 51.662 15.767 51.298 15.95 L 51.298 15.95 L 51.298 15.95 C 50.934 16.138 50.695 16.562 50.58 17.224 Z M 53.885 10.687 L 53.885 10.687 L 53.885 10.687 C 56.318 10.687 58.052 11.171 59.087 12.136 L 59.087 12.136 L 59.087 12.136 C 60.121 13.097 60.638 14.577 60.638 16.582 L 60.638 16.582 L 60.638 16.582 C 60.638 18.585 60.325 20.683 59.699 22.876 L 59.699 22.876 L 59.699 22.876 C 59.079 25.061 58.093 26.759 56.74 27.972 L 56.74 27.972 L 56.74 27.972 C 55.392 29.191 53.418 29.8 50.82 29.8 L 50.82 29.8 L 50.82 29.8 C 48.226 29.8 46.412 29.321 45.378 28.361 L 45.378 28.361 L 45.378 28.361 C 44.344 27.395 43.826 25.91 43.826 23.906 L 43.826 23.906 L 43.826 23.906 C 43.826 22.953 43.96 21.695 44.229 20.132 L 44.229 20.132 L 44.229 20.132 C 44.497 18.564 44.851 17.21 45.292 16.076 L 45.292 16.076 L 45.292 16.076 C 45.732 14.935 46.327 13.946 47.074 13.11 L 47.074 13.11 L 47.074 13.11 C 48.51 11.494 50.781 10.687 53.885 10.687 Z M 73.255 24.694 L 72.45 29.363 L 61.529 29.363 L 64.69 11.125 L 70.151 11.125 L 67.794 24.694 L 73.255 24.694 Z M 86.618 18.245 L 85.871 22.476 L 80.41 22.476 L 80.036 24.694 L 86.732 24.694 L 85.928 29.363 L 73.772 29.363 L 76.933 11.125 L 88.946 11.125 L 87.451 15.794 L 81.56 15.794 L 81.157 18.245 L 86.618 18.245 Z M 104.521 24.956 L 104.521 24.956 L 100.958 24.956 L 100.211 29.363 L 94.75 29.363 L 97.912 11.125 L 106.534 11.125 L 106.534 11.125 C 109.79 11.125 111.419 12.662 111.419 15.736 L 111.419 15.736 L 111.419 15.736 C 111.419 17.194 111.217 18.511 110.815 19.684 L 110.815 19.684 L 110.815 19.684 C 110.413 20.865 109.97 21.802 109.484 22.496 L 109.484 22.496 L 109.484 22.496 C 108.992 23.183 108.318 23.767 107.463 24.246 L 107.463 24.246 L 107.463 24.246 C 106.613 24.72 105.633 24.956 104.521 24.956 Z M 103.804 15.794 L 102.539 15.794 L 101.763 20.288 L 103.027 20.288 L 103.027 20.288 C 103.679 20.288 104.17 20.217 104.503 20.074 L 104.503 20.074 L 104.503 20.074 C 104.841 19.925 105.058 19.587 105.154 19.062 L 105.154 19.062 L 105.154 19.062 C 105.403 17.623 105.528 16.835 105.528 16.699 L 105.528 16.699 L 105.528 16.699 C 105.528 16.329 105.384 16.086 105.096 15.968 L 105.096 15.968 L 105.096 15.968 C 104.809 15.852 104.378 15.794 103.804 15.794 L 103.804 15.794 Z M 122.943 24.694 L 122.138 29.363 L 111.217 29.363 L 114.379 11.125 L 119.839 11.125 L 117.483 24.694 L 122.943 24.694 Z M 127.225 26.474 L 126.104 29.363 L 120.356 29.363 L 127.915 11.125 L 136.364 11.125 L 137.628 29.363 L 131.852 29.363 L 131.737 26.474 L 127.225 26.474 Z M 131.306 16.728 L 131.019 16.728 L 129.007 21.835 L 131.306 21.835 L 131.306 16.728 Z M 138.864 11.125 L 144.899 11.125 L 145.273 17.544 L 145.474 17.544 L 148.118 11.125 L 154.153 11.125 L 146.911 24.402 L 146.078 29.363 L 140.617 29.363 L 141.451 24.402 L 138.864 11.125 Z M 157.285 29.363 L 151.825 29.363 L 154.986 11.125 L 160.447 11.125 L 157.285 29.363 Z M 175.85 29.363 L 170.706 29.363 L 167.775 22.885 L 167.775 22.885 C 167.698 22.749 167.66 22.557 167.66 22.311 L 167.66 22.311 L 167.66 22.311 C 167.66 22.071 167.679 21.795 167.717 21.484 L 167.717 21.484 L 167.488 21.484 L 166.137 29.363 L 160.676 29.363 L 163.838 11.125 L 168.982 11.125 L 171.913 17.603 L 171.913 17.603 C 171.971 17.739 171.999 17.931 171.999 18.177 L 171.999 18.177 L 171.999 18.177 C 171.999 18.418 171.981 18.692 171.942 19.004 L 171.942 19.004 L 172.172 19.004 L 173.551 11.125 L 179.012 11.125 L 175.85 29.363 Z M 189.272 23.994 L 189.272 23.994 L 189.415 23.206 L 188.035 23.206 L 188.811 18.741 L 195.393 18.741 L 193.697 28.488 L 193.697 28.488 C 191.359 29.363 189.012 29.8 186.656 29.8 L 186.656 29.8 L 186.656 29.8 C 184.3 29.8 182.597 29.323 181.551 28.371 L 181.551 28.371 L 181.551 28.371 C 180.509 27.418 179.989 25.949 179.989 23.964 L 179.989 23.964 L 179.989 23.964 C 179.989 23.128 180.123 21.893 180.391 20.259 L 180.391 20.259 L 180.391 20.259 C 180.966 16.874 181.981 14.432 183.437 12.934 L 183.437 12.934 L 183.437 12.934 C 184.893 11.436 187.307 10.687 190.679 10.687 L 190.679 10.687 L 190.679 10.687 C 191.388 10.687 192.291 10.765 193.391 10.921 L 193.391 10.921 L 193.391 10.921 C 194.495 11.076 195.306 11.251 195.824 11.446 L 195.824 11.446 L 194.243 15.91 L 194.243 15.91 C 192.806 15.639 191.487 15.502 190.286 15.502 L 190.286 15.502 L 190.286 15.502 C 189.092 15.502 188.236 15.6 187.72 15.794 L 187.72 15.794 L 187.72 15.794 C 187.202 15.989 186.896 16.378 186.8 16.961 L 186.8 16.961 L 185.391 25.22 L 187.202 25.22 L 187.202 25.22 C 187.853 25.22 188.335 25.148 188.649 25.005 L 188.649 25.005 L 188.649 25.005 C 188.967 24.857 189.176 24.519 189.272 23.994 Z" style="white-space: pre; fill: rgb(255, 255, 255);"/>
</svg>