<?xml version="1.0" encoding="utf-8"?>
<!-- Made by Szalik  -->
<svg version="1.1" id="lastplayed" xmlns="http://www.w3.org/2000/svg" xmlns:xlink="http://www.w3.org/1999/xlink" x="0px" y="0px" xml:space="preserve">
<g>
	<g>
		<path d="M149.24,227.69c0.41,0.73,0.77,1.3,1.06,1.91c0.44,0.94,0,1.76-1.03,1.77c-3.28,0.05-6.56,0.05-9.84-0.01
			c-1.02-0.02-1.47-0.89-0.96-1.8c1.59-2.82,3.2-5.63,4.85-8.41c0.55-0.94,1.5-0.9,2.11,0.02c0.35,0.52,0.65,1.09,0.84,1.4
			c3.1-0.61,6-1.44,8.95-1.72c16.51-1.59,31.34,10.97,32.66,27.53c1.33,16.73-11.19,31.41-27.8,32.57
			c-22.71,1.59-38.97-21.22-30-42.07c0.57-1.32,1.35-2.3,2.89-2.28c2.05,0.03,3.19,2.07,2.29,4.11c-1.55,3.5-2.27,7.14-2.15,10.96
			c0.32,10.05,6.79,19.01,16.23,22.42c9.52,3.44,20.12,0.79,26.85-6.74c7.4-8.27,8.41-20.42,2.47-29.72
			c-6.03-9.44-17.49-13.67-28.17-10.38C150.12,227.37,149.75,227.51,149.24,227.69z" fill="white"/>
		<path d="M262.19,245.2c2.28-0.28,4.49-0.56,6.79-0.84c0.05,0.29,0.09,0.51,0.11,0.73c0.16,1.47,0.57,1.88,2.06,1.89
			c3.32,0.02,6.64,0.02,9.96,0c1.43-0.01,2.05-0.57,2.06-1.77c0-1.2-0.62-1.76-2.04-1.76c-3.56-0.01-7.12,0.05-10.68-0.05
			c-1.3-0.04-2.64-0.26-3.86-0.7c-3.11-1.13-4.18-3.72-4.48-6.77c-0.03-0.28-0.03-0.56-0.03-0.84c-0.09-6.25,2.76-9.16,8.99-9.17
			c3.48-0.01,6.96-0.04,10.44,0.02c1.19,0.02,2.4,0.17,3.54,0.48c3.49,0.97,5.63,4.56,4.98,8.28c-0.8,0.11-1.62,0.22-2.45,0.33
			c-1.42,0.17-2.84,0.34-4.25,0.5c-0.45-2.54-0.52-2.59-3.12-2.59c-3,0-6-0.01-9,0c-0.81,0-1.62,0.06-1.97,1.01
			c-0.51,1.39,0.22,2.45,1.79,2.47c3.24,0.03,6.48-0.01,9.72,0.02c1.15,0.01,2.32,0.07,3.45,0.28c3.17,0.59,5.19,2.52,5.67,5.69
			c0.27,1.82,0.27,3.76,0,5.58c-0.48,3.24-2.62,5.53-5.89,5.7c-5.17,0.28-10.39,0.37-15.55,0.01
			C264.16,253.4,261.69,249.68,262.19,245.2z" fill="white"/>
		<path d="M228.6,254c5.33-10.02,10.56-19.84,15.87-29.81c5.3,9.96,10.52,19.77,15.86,29.8c-2.7,0-5.19,0.02-7.68-0.04
			c-0.26-0.01-0.63-0.48-0.73-0.81c-0.68-2.36-2.25-2.94-4.58-2.74c-2.58,0.22-5.19,0.08-7.79,0.03c-0.77-0.01-1.34,0.11-1.57,0.92
			c-0.64,2.31-2.17,2.99-4.47,2.68C231.98,253.83,230.4,254,228.6,254z M244.46,239.19c-0.79,1.47-1.49,2.78-2.25,4.2
			c1.56,0,2.93,0,4.48,0C245.94,241.97,245.25,240.66,244.46,239.19z" fill="white"/>
		<path d="M205.69,246.99c7.16,0,14.09,0,21.09,0c0,2.38,0,4.64,0,6.95c-9.33,0-18.59,0-27.96,0c0-9.27,0-18.56,0-27.94
			c2.22,0,4.47,0,6.87,0C205.69,232.92,205.69,239.85,205.69,246.99z" fill="white"/>
		<path d="M321.8,232.94c-3.48,0-6.87,0-10.39,0c0,7.02,0,13.95,0,20.97c-2.39,0-4.65,0-7.07,0c0-6.92,0-13.89,0-20.96
			c-3.58,0-7,0-10.5,0c0-2.37,0-4.62,0-6.96c9.3,0,18.59,0,27.96,0C321.8,228.26,321.8,230.51,321.8,232.94z" fill="white"/>
		<path d="M269.74,266.67c0,1.33,0,2.43,0,3.64c-2.88,0-5.71,0-8.61,0c0,0.59,0,1.08,0,1.67c3.45,0,6.88,0,10.39,0
			c0,1.23,0,2.37,0,3.56c-4.64,0-9.22,0-13.9,0c0-4.63,0-9.29,0-14.02c4.59,0,9.21,0,13.9,0c0,1.14,0,2.27,0,3.51
			c-3.48,0-6.91,0-10.4,0c0,0.57,0,1.03,0,1.63C263.95,266.67,266.8,266.67,269.74,266.67z" fill="white"/>
		<path d="M273.41,275.6c0-4.75,0-9.37,0-14.06c0.27-0.03,0.54-0.09,0.8-0.09c2.99-0.01,5.99-0.02,8.98,0
			c2.63,0.02,4.04,1.26,4.18,3.89c0.12,2.19,0.11,4.39-0.01,6.58c-0.14,2.32-1.48,3.61-3.76,3.67
			C280.24,275.66,276.89,275.6,273.41,275.6z M276.98,265.04c0,2.4,0,4.64,0,6.96c2.05,0,4.01-0.01,5.96,0.01
			c0.66,0.01,0.97-0.28,0.97-0.92c0-1.72,0.04-3.44-0.04-5.15c-0.01-0.31-0.53-0.84-0.83-0.86
			C281.06,265.01,279.06,265.04,276.98,265.04z" fill="white"/>
		<path d="M161.76,245.1c0,2.44-0.03,4.88,0.01,7.31c0.02,1.08-0.36,1.79-1.32,2.32c-5.4,3.03-10.77,6.1-16.16,9.15
			c-1.18,0.67-2.17,0.49-2.71-0.45c-0.55-0.94-0.21-1.88,0.98-2.56c4.86-2.77,9.71-5.55,14.6-8.25c0.91-0.5,1.19-1.06,1.17-2.06
			c-0.06-4.31-0.04-8.63-0.02-12.95c0.01-1.65,1.41-2.64,2.56-1.76c0.48,0.36,0.82,1.19,0.84,1.81
			C161.82,240.15,161.76,242.63,161.76,245.1z" fill="white"/>
		<path d="M202.22,270.32c0,1.82,0,3.49,0,5.22c-1.17,0-2.24,0-3.4,0c0-4.63,0-9.28,0-14.04c0.35-0.02,0.73-0.05,1.12-0.05
			c2.8,0,5.6-0.01,8.4,0c2.97,0.01,4.44,1.47,4.46,4.4c0.02,2.98-1.47,4.46-4.52,4.47C206.33,270.32,204.37,270.32,202.22,270.32z
			 M202.3,266.71c2.13,0,4.19,0.03,6.26-0.04c0.24-0.01,0.65-0.5,0.66-0.77c0.01-0.28-0.38-0.81-0.6-0.82
			c-2.1-0.06-4.21-0.04-6.32-0.04C202.3,265.67,202.3,266.13,202.3,266.71z" fill="white"/>
		<path d="M245.36,275.6c-0.93,0-1.61-0.03-2.28,0.01c-1.04,0.06-1.97,0.04-2.38-1.21c-0.08-0.24-0.62-0.44-0.95-0.46
			c-1.2-0.06-2.4,0.02-3.59-0.04c-1.09-0.05-2.06-0.05-2.47,1.25c-0.06,0.2-0.48,0.41-0.73,0.42c-1.07,0.05-2.15,0.02-3.44,0.02
			c2.65-5.01,5.23-9.89,7.92-14.98C240.1,265.67,242.68,270.54,245.36,275.6z M238.53,270.29c-0.39-0.76-0.7-1.36-1.11-2.13
			c-0.42,0.82-0.73,1.43-1.09,2.13C237.12,270.29,237.71,270.29,238.53,270.29z" fill="white"/>
		<path d="M214.65,261.49c1.15,0,2.22,0,3.39,0c0,3.47,0,6.9,0,10.46c3.55,0,7,0,10.53,0c0,1.25,0,2.35,0,3.55
			c-4.61,0-9.22,0-13.92,0C214.65,270.89,214.65,266.24,214.65,261.49z" fill="white"/>
		<path d="M256.61,261.44c-1.91,2.4-3.69,4.55-5.36,6.77c-0.43,0.58-0.69,1.41-0.74,2.14c-0.11,1.7-0.03,3.41-0.03,5.18
			c-1.2,0-2.27,0-3.52,0c0-1.44-0.09-2.9,0.03-4.35c0.12-1.46-0.35-2.57-1.3-3.67c-1.64-1.89-3.15-3.9-4.89-6.07
			c1.56,0,2.89-0.04,4.22,0.03c0.28,0.01,0.58,0.37,0.79,0.63c0.94,1.13,1.85,2.29,2.89,3.58c0.98-1.22,1.92-2.33,2.79-3.5
			c0.43-0.58,0.88-0.81,1.6-0.77C254.16,261.48,255.24,261.44,256.61,261.44z" fill="white"/>
	</g>
</g>
</svg>
