<?xml version="1.0" encoding="utf-8"?>
<!-- Made by Szalik  -->
<svg version="1.1" id="various" xmlns="http://www.w3.org/2000/svg" xmlns:xlink="http://www.w3.org/1999/xlink" x="0px" y="0px" xml:space="preserve">
<g>
	<g>
		<path d="M95.61,131.96c1.92-0.23,3.77-0.44,5.6-0.66c0.48,2.05,0.53,2.1,2.59,2.1c2.52,0,5.04,0.01,7.55-0.01
			c0.74,0,1.47-0.08,1.68-1c0.25-1.13-0.29-1.81-1.55-1.83c-2.6-0.03-5.2,0.03-7.79-0.03c-1.23-0.03-2.48-0.12-3.68-0.39
			c-2.12-0.48-3.48-1.86-4.08-3.96c-0.58-2.01-0.59-4.03-0.01-6.03c0.79-2.73,2.85-4.27,6.04-4.36c3.52-0.09,7.04-0.11,10.55,0
			c4.2,0.13,6.5,2.79,6.4,7.34c-1.85,0.25-3.73,0.5-5.71,0.76c-0.05-0.35-0.12-0.64-0.14-0.94c-0.06-0.82-0.5-1.26-1.3-1.26
			c-3-0.02-6-0.01-8.99-0.01c-0.95,0-1.36,0.57-1.36,1.46c0,0.97,0.49,1.49,1.48,1.49c2.4,0.01,4.8,0,7.2,0.01
			c0.76,0,1.52-0.02,2.28,0.01c3.9,0.15,6.09,2.11,6.49,5.97c0.13,1.21,0.08,2.49-0.13,3.69c-0.48,2.67-2.15,4.52-4.89,4.69
			c-4.29,0.27-8.63,0.37-12.91,0.04C97.21,138.75,95.29,135.87,95.61,131.96z" fill="white"/>
		<path d="M7.77,115.76c5.49,0,10.92-0.01,16.35,0.01c0.63,0,1.27,0.09,1.9,0.21c2.52,0.47,4.3,1.91,4.72,4.46
			c0.29,1.77,0.31,3.67,0.03,5.44c-0.39,2.51-2.12,3.93-4.64,4.33c-0.47,0.07-0.94,0.15-1.64,0.27c2.98,2.85,5.86,5.59,8.73,8.34
			c-0.09,0.16-0.18,0.31-0.27,0.47c-1.61,0-3.23-0.15-4.82,0.03c-2.26,0.26-3.92-0.42-5.41-2.17c-1.63-1.91-3.53-3.58-5.32-5.36
			c-1.42-1.42-1.6-1.47-3.82-1.1c0,2.8,0,5.62,0,8.51c-1.99,0-3.85,0-5.8,0C7.77,131.47,7.77,123.7,7.77,115.76z M13.6,124.63
			c3.49,0,6.91,0.02,10.34-0.01c0.93-0.01,1.3-0.63,1.29-1.53c-0.02-0.94-0.5-1.4-1.41-1.4c-1.88-0.01-3.75-0.01-5.63-0.01
			c-1.51,0-3.01,0-4.58,0C13.6,122.72,13.6,123.62,13.6,124.63z" fill="white"/>
		<path d="M42.73,127.55c0-1.76-0.06-3.52,0.01-5.27c0.16-4,2.51-6.38,6.52-6.49c3.43-0.09,6.87-0.08,10.31,0
			c3.89,0.09,6.22,2.1,6.46,5.97c0.23,3.86,0.21,7.75-0.01,11.61c-0.2,3.52-2.06,5.52-5.57,5.77c-3.97,0.28-7.99,0.29-11.97,0.01
			c-3.71-0.26-5.61-2.65-5.74-6.44C42.68,130.98,42.73,129.26,42.73,127.55z M60.28,127.52c0-1.4,0.02-2.79-0.01-4.19
			c-0.02-1.32-0.32-1.64-1.64-1.65c-2.79-0.02-5.59,0.01-8.38-0.01c-1.08-0.01-1.66,0.46-1.66,1.55c-0.01,2.87-0.01,5.75,0,8.62
			c0,1.02,0.51,1.55,1.55,1.55c2.87,0,5.75,0,8.62,0c1.02,0,1.54-0.5,1.53-1.55C60.26,130.39,60.27,128.96,60.28,127.52z" fill="white"/>
		<path d="M69.12,115.82c1.99,0,3.85,0,5.85,0c0,0.48,0,0.91,0,1.33c0,4.68,0,9.35,0,14.03c0,1.94,0.28,2.21,2.22,2.22
			c2.44,0.01,4.88,0.01,7.31,0c1.91-0.01,2.16-0.26,2.17-2.13c0-4.68,0-9.35,0-14.03c0-0.43,0-0.87,0-1.39c1.97,0,3.86,0,5.85,0
			c0.02,0.39,0.05,0.78,0.05,1.17c0,4.8,0,9.59,0,14.39c0,0.2,0,0.4,0,0.6c-0.13,4.95-2.42,7.23-7.36,7.27
			c-3.04,0.03-6.07,0.04-9.11-0.01c-4.54-0.06-6.95-2.48-6.98-7.02C69.1,126.82,69.12,121.38,69.12,115.82z" fill="white"/>
		<path d="M-20.23,139.29c4.44-8.37,8.78-16.52,13.23-24.9c4.44,8.36,8.79,16.54,13.23,24.89c-2.2,0-4.19,0.05-6.18-0.05
			c-0.35-0.02-0.84-0.57-0.99-0.97c-0.56-1.53-1.54-2.02-3.17-1.9c-2.23,0.16-4.47,0.08-6.71,0.02c-0.87-0.02-1.48,0.16-1.74,1.03
			c-0.48,1.58-1.53,2.07-3.14,1.9C-17.12,139.17-18.57,139.29-20.23,139.29z M-7.01,126.95c-0.67,1.29-1.21,2.34-1.8,3.49
			c1.28,0,2.37,0,3.64,0C-5.79,129.25-6.34,128.22-7.01,126.95z" fill="white"/>
		<path d="M-51.68,117.69c-5.25-0.02-9.51-4.31-9.51-9.56c0-5.24,4.28-9.52,9.53-9.54c5.26-0.02,9.65,4.39,9.6,9.62
			C-42.11,113.44-46.45,117.71-51.68,117.69z" fill="white"/>
		<path d="M-27.4,140.7c-4.45-8.4-8.78-16.57-13.22-24.94c2.22,0,4.27-0.03,6.32,0.04c0.26,0.01,0.58,0.47,0.75,0.78
			c1.84,3.41,3.65,6.84,5.47,10.25c0.19,0.35,0.39,0.69,0.65,1.16c0.27-0.46,0.5-0.81,0.7-1.19c1.79-3.35,3.59-6.69,5.33-10.06
			c0.38-0.73,0.78-1.05,1.63-1.02c1.78,0.07,3.57,0.02,5.57,0.02C-18.61,124.13-22.96,132.32-27.4,140.7z" fill="white"/>
		<path d="M-78.41,104.85c0-2.19,0-4.29,0-6.67c3.75,2.92,7.28,5.68,10.92,8.51c-3.64,3.13-7.16,6.17-10.9,9.38
			c0-2.36,0-4.45,0-6.67c-4.25,0.16-8.36,0.39-12.17,2.13c-2.84,1.3-3.93,3.92-4.24,6.8c-0.3,2.81-0.31,5.65-0.45,8.6
			c-1.33,0-2.75,0-4.32,0c-0.04-3.74-0.31-7.57,0.69-11.32c0.95-3.55,2.8-6.5,6.24-8.06c1.87-0.85,3.9-1.45,5.92-1.85
			c2.26-0.45,4.6-0.54,6.9-0.78C-79.38,104.88-78.95,104.88-78.41,104.85z" fill="white"/>
		<path d="M-68.17,148.75c0,2.2,0,4.3,0,6.66c-3.73-2.91-7.27-5.66-10.9-8.49c3.62-3.11,7.14-6.15,10.84-9.33c0,2.28,0,4.36,0,6.75
			c2.63-0.3,5.11-0.53,7.58-0.87c1.06-0.15,2.09-0.5,3.13-0.79c3.05-0.84,4.86-2.93,5.43-5.93c0.42-2.22,0.49-4.51,0.66-6.78
			c0.08-1.07,0.01-2.15,0.01-3.32c1.48,0,2.9,0,4.47,0c0.04,4.89,0.39,9.81-1.91,14.39c-1.83,3.64-4.97,5.59-8.81,6.37
			c-3,0.61-6.08,0.86-9.12,1.26C-67.22,148.73-67.65,148.72-68.17,148.75z" fill="white"/>
		<path d="M34.13,139.21c0-7.81,0-15.55,0-23.37c1.89,0,3.74,0,5.71,0c0,7.76,0,15.53,0,23.37
			C37.98,139.21,36.12,139.21,34.13,139.21z" fill="white"/>
		<path d="M-92.34,149.39c-2.79-0.03-5.1-2.38-5.06-5.15c0.04-2.8,2.37-5.07,5.17-5.04c2.8,0.03,5.11,2.38,5.06,5.15
			C-87.21,147.15-89.54,149.41-92.34,149.39z" fill="white"/>
	</g>
</g>
</svg>
