<?xml version="1.0" encoding="utf-8"?>
<!-- Made by Szalik  -->
<svg version="1.1" id="adult" xmlns="http://www.w3.org/2000/svg" xmlns:xlink="http://www.w3.org/1999/xlink" x="0px" y="0px" xml:space="preserve">
<g>
	<g>
		<path d="M101.83,252.2c0.13,0.18,0.27,0.32,0.36,0.49c1.53,2.7,3.75,4.61,6.56,5.92c1.88,0.87,3.69,1.91,5.51,2.92
			c0.52,0.29,0.9,0.29,1.42,0c2.14-1.17,4.28-2.34,6.46-3.42c2.18-1.09,3.85-2.68,5.15-4.71c0.26-0.4,0.53-0.79,0.83-1.24
			c2.92,1.17,5.36,2.93,7.4,5.23c2.67,3.02,4.16,6.47,4.02,10.59c-0.11,3.19-0.02,6.39-0.02,9.68c-16.33,0-32.58,0-48.94,0
			c-0.02-0.33-0.06-0.67-0.06-1.01c-0.01-3.12,0.03-6.24-0.01-9.36c-0.04-2.82,0.75-5.36,2.27-7.7c2.13-3.28,5.02-5.66,8.58-7.25
			C101.49,252.27,101.64,252.25,101.83,252.2z" fill="white"/>
		<path d="M172.6,262.29c0-7.79,0-15.53,0-23.35c0.38-0.02,0.73-0.06,1.08-0.06c4.99,0,9.99-0.01,14.98,0.01
			c0.75,0,1.52,0.08,2.26,0.22c2.81,0.53,4.54,2.31,4.9,5.15c0.17,1.34,0.19,2.71,0.19,4.06c0,2.71,0.08,5.44-0.15,8.14
			c-0.33,3.83-2.61,5.83-6.52,5.92c-2.72,0.06-5.43,0.02-8.15,0.02c-2.76,0-5.51-0.01-8.27-0.01
			C172.86,262.38,172.79,262.35,172.6,262.29z M178.49,244.86c0,3.87,0,7.68,0,11.54c0.29,0.05,0.52,0.11,0.75,0.11
			c3.03,0.01,6.07,0.02,9.1,0c1.46-0.01,1.77-0.34,1.78-1.78c0.02-2.68,0.01-5.35,0-8.03c-0.01-1.63-0.28-1.9-1.88-1.91
			c-2.91-0.01-5.83-0.01-8.74,0C179.18,244.79,178.87,244.83,178.49,244.86z" fill="white"/>
		<path d="M129.84,233.01c1.34,0.65,2.29,1.6,2.73,3.03c0.89,2.91-0.33,6.31-2.93,7.82c-0.56,0.32-0.77,0.75-0.96,1.28
			c-1.3,3.63-3.22,6.87-6.24,9.35c-4.5,3.69-10,3.67-14.47-0.07c-2.97-2.48-4.86-5.68-6.16-9.27c-0.23-0.64-0.55-1.06-1.15-1.4
			c-3.2-1.83-4.12-7.29-1.51-9.71c0.63-0.59,0.58-1.24,0.18-1.83c-0.69-1-0.61-1.87,0-2.88c0.26-0.42,0.24-1.08,0.18-1.61
			c-0.08-0.76,0.1-1.35,0.72-1.77c0.67-0.46,1.03-1.08,1.15-1.88c0.11-0.69,0.52-1.15,1.2-1.35c0.76-0.23,1.35-0.66,1.68-1.41
			c0.3-0.69,0.87-1.02,1.62-1.03c0.81-0.01,1.46-0.32,1.98-0.95c0.44-0.54,1.03-0.76,1.71-0.59c0.84,0.21,1.58,0.06,2.25-0.49
			c0.55-0.44,1.14-0.54,1.78-0.19c0.76,0.41,1.53,0.4,2.29,0c0.59-0.31,1.14-0.3,1.68,0.12c0.7,0.56,1.47,0.77,2.35,0.55
			c0.68-0.17,1.27,0.05,1.71,0.59c0.52,0.63,1.18,0.93,1.98,0.95c0.75,0.01,1.31,0.35,1.62,1.03c0.33,0.75,0.92,1.19,1.68,1.42
			c0.74,0.22,1.13,0.73,1.23,1.46c0.1,0.72,0.43,1.28,1.02,1.69c0.74,0.51,0.95,1.18,0.81,2.08c-0.08,0.51,0.02,1.15,0.29,1.58
			c0.57,0.91,0.55,1.7-0.05,2.54C130.05,232.34,129.98,232.66,129.84,233.01z M127.67,235.26c-0.09-0.48-0.17-0.91-0.25-1.34
			c-0.42-2.35-1.21-4.54-2.57-6.52c-3.95-5.75-11.55-6.97-16.79-2.65c-2.71,2.23-4.17,5.2-4.87,8.58c-0.13,0.65-0.26,1.3-0.39,1.95
			c-0.35,0-0.59,0.03-0.82,0c-0.79-0.1-1.29,0.28-1.64,0.94c-0.89,1.66-0.21,4.5,1.36,5.5c0.49,0.31,1.09,0.45,1.64,0.66
			c0.13,0.44,0.25,0.86,0.38,1.28c1.08,3.32,2.71,6.31,5.33,8.68c3.87,3.5,8.4,3.53,12.3,0.09c2.11-1.86,3.6-4.16,4.67-6.74
			c0.46-1.1,0.82-2.24,1.22-3.36c2.14-0.64,3.17-1.89,3.3-4C130.68,236.18,129.92,235.32,127.67,235.26z" fill="white"/>
		<path d="M198.76,238.92c1.97,0,3.8,0,5.74,0c0.02,0.45,0.06,0.87,0.06,1.3c0,4.48,0,8.95,0,13.43c0,0.32-0.01,0.64,0,0.96
			c0.04,1.56,0.36,1.89,1.94,1.9c2.6,0.02,5.2,0.02,7.79,0c1.68-0.01,1.97-0.3,1.97-1.96c0.01-4.76,0-9.51,0-14.27
			c0-0.43,0-0.86,0-1.34c1.99,0,3.86,0,5.81,0c0.03,0.3,0.09,0.6,0.09,0.91c0.01,5,0.01,9.99-0.01,14.99c0,0.8-0.07,1.6-0.21,2.38
			c-0.52,3.07-2.63,4.98-6.02,5.12c-3.67,0.15-7.36,0.17-11.03,0c-3.96-0.19-6.15-2.68-6.18-6.8c-0.05-5.32-0.01-10.63-0.01-15.95
			C198.72,239.4,198.75,239.2,198.76,238.92z" fill="white"/>
		<path d="M164.43,262.34c-0.5-0.9-1.02-1.83-1.56-2.81c-3.14,0-6.25,0.01-9.37-0.01c-0.53,0-0.79,0.24-1,0.66
			c-0.36,0.71-0.75,1.41-1.16,2.16c-2.16,0-4.33,0-6.65,0c4.39-8.27,8.73-16.44,13.19-24.83c4.43,8.34,8.78,16.52,13.19,24.82
			C168.78,262.34,166.64,262.34,164.43,262.34z M156.15,253.58c1.22,0.06,2.32,0.12,3.57-0.04c-0.66-1.25-1.21-2.27-1.84-3.44
			c-0.61,1.15-1.1,2.06-1.59,2.98C156.24,253.17,156.23,253.3,156.15,253.58z" fill="white"/>
		<path d="M225.2,238.92c1.92,0,3.75,0,5.74,0c0,5.84,0,11.65,0,17.6c5.94,0,11.72,0,17.57,0c0,2,0,3.86,0,5.8
			c-7.76,0-15.49,0-23.31,0C225.2,254.57,225.2,246.8,225.2,238.92z" fill="white"/>
		<path d="M253.15,244.81c-2.99,0-5.82,0-8.73,0c0-2,0-3.89,0-5.85c7.72,0,15.46,0,23.29,0c0,1.88,0,3.77,0,5.81
			c-2.88,0-5.74,0-8.7,0c0,5.92,0,11.7,0,17.56c-1.96,0-3.82,0-5.85,0C253.15,256.52,253.15,250.72,253.15,244.81z" fill="white"/>
		<path d="M121.47,250.29c-3.69,0-5.35-1.34-6.39-5.29c-0.32,1.65-0.76,3.1-2.07,4.09c-1.27,0.97-2.75,1.17-4.27,1.26
			c-0.58-2.26,0.79-5.06,2.98-5.93c2.23-0.89,4.54-0.89,6.77,0C120.68,245.28,122.05,248.09,121.47,250.29z" fill="white"/>
	</g>
</g>
</svg>
