<?xml version="1.0" encoding="utf-8"?>
<svg xmlns="http://www.w3.org/2000/svg">
  <g id="layer1" fill="#555555" stroke="none" transform="matrix(0.020841, -0.003526, 0.003515, 0.020905, -17.268671, 14.188012)">
    <path d="M 994.141 1044.927 C 981.047 1040.791 965.884 1034.589 961.749 1030.453 C 947.965 1019.426 950.721 938.1 967.262 880.207 C 996.209 774.069 1049.277 687.919 1150.591 583.159 C 1229.16 501.143 1238.809 480.467 1218.132 435.669 C 1205.727 410.168 1165.064 377.087 1145.766 377.087 C 1139.563 377.087 1128.536 372.262 1120.954 366.749 C 1114.063 361.235 1096.832 356.411 1083.048 356.411 C 1050.655 356.411 1041.006 348.14 1007.924 290.936 C 976.221 236.489 975.532 228.219 993.451 180.664 L 1006.546 146.203 L 1043.073 142.757 C 1073.399 139.311 1092.008 131.73 1140.941 99.337 C 1174.023 77.972 1208.483 60.053 1216.753 60.053 C 1225.024 60.053 1242.254 66.255 1254.66 73.837 C 1274.647 86.242 1289.12 87.621 1394.568 87.62 C 1502.084 87.62 1513.801 88.999 1532.41 101.404 C 1550.329 114.499 1553.086 115.188 1572.384 105.539 C 1589.614 95.891 1593.06 95.891 1596.506 104.85 C 1599.263 113.121 1603.398 113.81 1617.871 106.918 C 1630.277 101.404 1637.858 101.404 1642.682 106.229 C 1648.196 111.742 1655.088 111.742 1667.494 106.228 C 1680.589 100.715 1685.413 100.715 1689.548 107.607 C 1694.373 114.499 1698.508 115.188 1710.225 108.296 C 1721.941 102.782 1728.144 102.093 1735.036 108.296 C 1741.928 114.499 1748.131 113.81 1759.158 108.296 C 1772.253 101.404 1775.699 102.782 1784.659 114.499 C 1794.307 128.972 1797.064 128.972 2186.465 128.971 L 2577.934 128.971 L 2657.882 97.956 C 2733.005 68.32 2739.208 66.942 2757.127 76.591 C 2804.682 101.402 2899.793 250.959 2894.969 293.001 C 2892.901 310.231 2890.145 311.609 2853.616 313.677 C 2821.914 315.055 2812.953 318.501 2804.683 331.596 L 2794.345 347.448 L 2513.148 351.584 L 2231.953 356.409 L 2214.723 376.396 L 2196.804 397.072 L 1934.906 414.992 C 1790.862 424.641 1668.873 434.29 1663.359 436.357 C 1656.467 438.425 1655.089 448.074 1657.846 474.953 C 1660.603 494.25 1665.427 513.549 1669.562 517.684 C 1679.9 528.022 1677.833 553.523 1665.427 563.861 C 1657.846 570.064 1629.588 574.888 1591.682 576.956 L 1529.653 580.402 L 1441.435 738.919 C 1357.352 889.166 1352.528 899.504 1352.528 936.032 C 1352.528 958.776 1349.082 978.073 1344.258 982.208 C 1328.406 994.614 1122.334 1044.238 1069.954 1048.373 C 1041.696 1050.441 1007.236 1048.373 994.141 1044.927 Z" transform="matrix(0.965926, -0.258819, 0.258819, 0.965926, -77.987752, 516.874447)" style="fill: rgb(204, 204, 204);"/>
  </g>
  <path d="M 67.159 26.894 L 65.74 35.026 L 46.487 35.026 L 52.06 3.261 L 61.687 3.261 L 57.532 26.894 L 67.159 26.894 Z M 77.292 35.026 L 67.666 35.026 L 73.239 3.261 L 82.866 3.261 L 77.292 35.026 Z M 100.498 25.674 L 100.498 25.674 L 100.751 24.302 L 98.319 24.302 L 99.687 16.526 L 111.29 16.526 L 108.301 33.501 L 108.301 33.501 C 104.18 35.026 100.042 35.788 95.887 35.788 L 95.887 35.788 L 95.887 35.788 C 91.732 35.788 88.731 34.958 86.885 33.298 L 86.885 33.298 L 86.885 33.298 C 85.049 31.637 84.132 29.08 84.132 25.624 L 84.132 25.624 L 84.132 25.624 C 84.132 24.166 84.369 22.015 84.842 19.169 L 84.842 19.169 L 84.842 19.169 C 85.855 13.274 87.645 9.021 90.212 6.412 L 90.212 6.412 L 90.212 6.412 C 92.78 3.804 97.036 2.499 102.981 2.499 L 102.981 2.499 L 102.981 2.499 C 104.23 2.499 105.823 2.634 107.76 2.905 L 107.76 2.905 L 107.76 2.905 C 109.707 3.177 111.138 3.482 112.05 3.82 L 112.05 3.82 L 109.263 11.597 L 109.263 11.597 C 106.73 11.122 104.404 10.885 102.288 10.885 L 102.288 10.885 L 102.288 10.885 C 100.182 10.885 98.674 11.054 97.762 11.393 L 97.762 11.393 L 97.762 11.393 C 96.85 11.732 96.309 12.409 96.14 13.426 L 96.14 13.426 L 93.658 27.809 L 96.85 27.809 L 96.85 27.809 C 97.998 27.809 98.848 27.685 99.4 27.437 L 99.4 27.437 L 99.4 27.437 C 99.962 27.177 100.329 26.589 100.498 25.674 Z M 139.461 35.026 L 129.834 35.026 L 131.759 23.794 L 124.514 23.794 L 122.589 35.026 L 112.962 35.026 L 118.535 3.261 L 128.162 3.261 L 126.186 14.494 L 133.431 14.494 L 135.407 3.261 L 145.034 3.261 L 139.461 35.026 Z M 172.749 3.261 L 171.28 11.393 L 164.287 11.393 L 160.183 35.026 L 150.557 35.026 L 154.661 11.393 L 147.719 11.393 L 149.189 3.261 L 172.749 3.261 Z M 188.456 25.674 L 188.456 25.674 L 188.709 24.302 L 186.277 24.302 L 187.645 16.526 L 199.248 16.526 L 196.258 33.501 L 196.258 33.501 C 192.137 35.026 188 35.788 183.845 35.788 L 183.845 35.788 L 183.845 35.788 C 179.69 35.788 176.689 34.958 174.843 33.298 L 174.843 33.298 L 174.843 33.298 C 173.007 31.637 172.09 29.08 172.09 25.624 L 172.09 25.624 L 172.09 25.624 C 172.09 24.166 172.327 22.015 172.8 19.169 L 172.8 19.169 L 172.8 19.169 C 173.813 13.274 175.603 9.021 178.17 6.412 L 178.17 6.412 L 178.17 6.412 C 180.737 3.804 184.993 2.499 190.938 2.499 L 190.938 2.499 L 190.938 2.499 C 192.188 2.499 193.781 2.634 195.718 2.905 L 195.718 2.905 L 195.718 2.905 C 197.665 3.177 199.096 3.482 200.008 3.82 L 200.008 3.82 L 197.221 11.597 L 197.221 11.597 C 194.688 11.122 192.362 10.885 190.246 10.885 L 190.246 10.885 L 190.246 10.885 C 188.14 10.885 186.632 11.054 185.72 11.393 L 185.72 11.393 L 185.72 11.393 C 184.808 11.732 184.267 12.409 184.098 13.426 L 184.098 13.426 L 181.616 27.809 L 184.808 27.809 L 184.808 27.809 C 185.956 27.809 186.806 27.685 187.358 27.437 L 187.358 27.437 L 187.358 27.437 C 187.92 27.177 188.287 26.589 188.456 25.674 Z M 205.784 3.261 L 215.41 3.261 L 211.205 27.097 L 214.65 27.097 L 214.65 27.097 C 215.833 27.097 216.677 26.94 217.184 26.623 L 217.184 26.623 L 217.184 26.623 C 217.69 26.296 218.045 25.556 218.248 24.404 L 218.248 24.404 L 221.997 3.261 L 231.624 3.261 L 228.482 21.1 L 228.482 21.1 C 227.976 23.98 227.39 26.301 226.726 28.063 L 226.726 28.063 L 226.726 28.063 C 226.072 29.825 225.155 31.315 223.973 32.535 L 223.973 32.535 L 223.973 32.535 C 222.791 33.755 221.327 34.603 219.582 35.077 L 219.582 35.077 L 219.582 35.077 C 217.847 35.552 215.647 35.788 212.978 35.788 L 212.978 35.788 L 212.978 35.788 C 208.891 35.788 206.025 35.166 204.382 33.924 L 204.382 33.924 L 204.382 33.924 C 202.749 32.693 201.933 30.57 201.933 27.555 L 201.933 27.555 L 201.933 27.555 C 201.933 25.895 202.169 23.743 202.642 21.1 L 202.642 21.1 L 205.784 3.261 Z M 258.427 35.026 L 249.357 35.026 L 244.189 23.743 L 244.189 23.743 C 244.054 23.505 243.987 23.172 243.987 22.743 L 243.987 22.743 L 243.987 22.743 C 243.987 22.325 244.02 21.845 244.088 21.304 L 244.088 21.304 L 243.683 21.304 L 241.301 35.026 L 231.674 35.026 L 237.248 3.261 L 246.317 3.261 L 251.485 14.544 L 251.485 14.544 C 251.587 14.782 251.637 15.115 251.637 15.544 L 251.637 15.544 L 251.637 15.544 C 251.637 15.962 251.603 16.442 251.536 16.983 L 251.536 16.983 L 251.941 16.983 L 254.373 3.261 L 264 3.261 L 258.427 35.026 Z" style="white-space: pre; fill: rgb(255, 255, 255);"/>
</svg>