<?xml version="1.0" encoding="utf-8"?>
<svg xmlns="http://www.w3.org/2000/svg">
  <path d="M 39.937 31.69 L 39.937 31.69 L 42.765 23.377 L 42.765 23.377 C 45.594 24.15 48.187 24.536 50.544 24.536 L 50.544 24.536 L 50.544 24.536 C 52.901 24.536 54.804 24.435 56.251 24.233 L 56.251 24.233 L 56.656 21.715 L 52.463 21.312 L 52.463 21.312 C 49.264 21.01 46.996 20.287 45.661 19.145 L 45.661 19.145 L 45.661 19.145 C 44.336 18.003 43.674 16.391 43.674 14.309 L 43.674 14.309 L 43.674 14.309 C 43.674 13.402 43.775 12.394 43.977 11.285 L 43.977 11.285 L 43.977 11.285 C 44.752 6.986 46.154 4.031 48.187 2.418 L 48.187 2.418 L 48.187 2.418 C 50.229 0.806 53.389 0 57.666 0 L 57.666 0 L 57.666 0 C 61.942 0 65.714 0.42 68.98 1.26 L 68.98 1.26 L 66.354 9.32 L 66.354 9.32 C 63.424 8.817 61.067 8.565 59.282 8.565 L 59.282 8.565 L 59.282 8.565 C 57.497 8.565 55.982 8.649 54.736 8.817 L 54.736 8.817 L 54.332 11.285 L 57.716 11.638 L 57.716 11.638 C 61.151 12.007 63.592 12.825 65.04 14.09 L 65.04 14.09 L 65.04 14.09 C 66.488 15.345 67.212 17.029 67.212 19.145 L 67.212 19.145 L 67.212 19.145 C 67.212 21.295 66.741 23.511 65.798 25.795 L 65.798 25.795 L 65.798 25.795 C 65.326 26.971 64.81 27.957 64.249 28.752 L 64.249 28.752 L 64.249 28.752 C 63.698 29.536 62.991 30.201 62.128 30.75 L 62.128 30.75 L 62.128 30.75 C 61.274 31.309 60.494 31.729 59.787 32.01 L 59.787 32.01 L 59.787 32.01 C 59.08 32.3 58.188 32.513 57.11 32.648 L 57.11 32.648 L 57.11 32.648 C 55.527 32.882 53.591 33 51.301 33 L 51.301 33 L 51.301 33 C 47.126 33 43.338 32.563 39.937 31.69 Z M 96.66 0.756 L 95.195 8.817 L 88.224 8.817 L 84.133 32.245 L 74.536 32.245 L 78.628 8.817 L 71.708 8.817 L 73.172 0.756 L 96.66 0.756 Z M 117.975 21.765 L 121.309 32.245 L 110.752 32.245 L 108.429 22.874 L 106.358 22.874 L 104.741 32.245 L 95.144 32.245 L 100.701 0.756 L 115.854 0.756 L 115.854 0.756 C 121.612 0.756 124.491 3.326 124.491 8.464 L 124.491 8.464 L 124.491 8.464 C 124.491 10.58 124.171 12.596 123.531 14.51 L 123.531 14.51 L 123.531 14.51 C 122.353 18.138 120.501 20.556 117.975 21.765 L 117.975 21.765 Z M 110.752 8.817 L 108.833 8.817 L 107.721 15.115 L 109.944 15.115 L 109.944 15.115 C 111.089 15.115 111.953 14.992 112.537 14.745 L 112.537 14.745 L 112.537 14.745 C 113.131 14.488 113.535 13.766 113.749 12.579 L 113.749 12.579 L 113.749 12.579 C 113.973 11.381 114.086 10.648 114.086 10.379 L 114.086 10.379 L 114.086 10.379 C 114.086 9.707 113.828 9.275 113.311 9.086 L 113.311 9.086 L 113.311 9.086 C 112.784 8.906 111.931 8.817 110.752 8.817 L 110.752 8.817 Z M 134.542 27.257 L 132.572 32.245 L 122.47 32.245 L 135.755 0.756 L 150.605 0.756 L 152.827 32.245 L 142.675 32.245 L 142.472 27.257 L 134.542 27.257 Z M 141.715 10.429 L 141.21 10.429 L 137.674 19.246 L 141.715 19.246 L 141.715 10.429 Z M 181.163 0.756 L 179.699 8.817 L 172.728 8.817 L 168.637 32.245 L 159.04 32.245 L 163.131 8.817 L 156.211 8.817 L 157.676 0.756 L 181.163 0.756 Z M 202.226 13.049 L 200.913 20.354 L 191.316 20.354 L 190.659 24.183 L 202.428 24.183 L 201.014 32.245 L 179.648 32.245 L 185.204 0.756 L 206.317 0.756 L 203.691 8.817 L 193.336 8.817 L 192.629 13.049 L 202.226 13.049 Z M 223.592 22.975 L 223.592 22.975 L 223.845 21.614 L 221.42 21.614 L 222.784 13.906 L 234.351 13.906 L 231.371 30.733 L 231.371 30.733 C 227.262 32.245 223.137 33 218.996 33 L 218.996 33 L 218.996 33 C 214.854 33 211.862 32.177 210.022 30.531 L 210.022 30.531 L 210.022 30.531 C 208.191 28.885 207.277 26.35 207.277 22.924 L 207.277 22.924 L 207.277 22.924 C 207.277 21.479 207.513 19.347 207.984 16.525 L 207.984 16.525 L 207.984 16.525 C 208.995 10.681 210.779 6.466 213.338 3.879 L 213.338 3.879 L 213.338 3.879 C 215.898 1.293 220.14 0 226.067 0 L 226.067 0 L 226.067 0 C 227.313 0 228.901 0.135 230.832 0.403 L 230.832 0.403 L 230.832 0.403 C 232.773 0.671 234.199 0.975 235.108 1.31 L 235.108 1.31 L 232.33 9.018 L 232.33 9.018 C 229.805 8.548 227.486 8.313 225.377 8.313 L 225.377 8.313 L 225.377 8.313 C 223.277 8.313 221.774 8.481 220.864 8.817 L 220.864 8.817 L 220.864 8.817 C 219.955 9.153 219.416 9.825 219.248 10.832 L 219.248 10.832 L 216.773 25.09 L 219.955 25.09 L 219.955 25.09 C 221.1 25.09 221.947 24.967 222.498 24.721 L 222.498 24.721 L 222.498 24.721 C 223.058 24.464 223.424 23.881 223.592 22.975 Z M 237.129 0.756 L 247.736 0.756 L 248.393 11.84 L 248.746 11.84 L 253.393 0.756 L 264 0.756 L 251.272 23.68 L 249.807 32.245 L 240.21 32.245 L 241.675 23.68 L 237.129 0.756 Z" style="white-space: pre; fill: rgb(255, 255, 255);"/>
  <path d="M 14.665 13.484 C 13.484 13.832 12.296 14.142 11.127 14.539 C 10.526 14.745 10.179 14.584 9.876 14.065 C 9.511 13.457 9.066 12.903 8.713 12.295 C 8.509 11.941 8.403 11.528 8.223 11.046 C 7.026 11.44 6.332 10.526 5.598 9.648 C 4.994 8.917 4.347 8.216 3.694 7.529 C 3.566 7.396 3.28 7.302 3.108 7.352 C 2.062 7.652 1.19 7.386 0.613 6.534 C -0.015 5.616 0.044 4.282 0.749 3.437 C 1.362 2.702 2.31 2.461 3.13 2.823 C 4.044 3.226 4.768 4.333 4.465 5.318 C 4.182 6.23 4.591 6.699 5.115 7.252 C 5.738 7.912 6.344 8.585 6.923 9.277 C 7.203 9.607 7.511 9.697 7.935 9.752 C 9.28 9.936 10.267 9.48 11.127 8.419 C 11.744 7.657 12.577 7.07 13.348 6.367 C 12.861 5.821 12.526 5.45 12.201 5.068 C 11.722 4.516 11.732 4.245 12.252 3.709 C 15.012 0.835 19.387 1.039 21.967 4.163 C 23.273 5.743 23.836 7.59 23.868 9.725 C 24.711 9.725 25.538 9.74 26.365 9.713 C 26.508 9.707 26.668 9.548 26.779 9.421 C 27.627 8.492 28.476 7.563 29.284 6.6 C 29.429 6.429 29.439 6.108 29.439 5.853 C 29.439 5.549 29.318 5.24 29.335 4.935 C 29.402 3.52 30.535 2.498 31.805 2.678 C 33.044 2.864 33.909 4.26 33.616 5.611 C 33.308 7.038 32.101 7.755 30.74 7.352 C 30.575 7.302 30.277 7.393 30.156 7.522 C 29.235 8.508 28.338 9.509 27.456 10.526 C 27.141 10.891 26.804 11.067 26.314 11.046 C 25.528 11.012 24.733 11.035 23.896 11.035 C 23.896 12.898 23.896 14.724 23.896 16.581 C 25.726 16.581 27.543 16.581 29.373 16.581 C 29.417 16.482 29.468 16.387 29.516 16.289 C 30.011 15.227 30.9 14.702 31.882 14.895 C 32.884 15.093 33.65 16.1 33.662 17.239 C 33.672 18.389 32.949 19.411 31.953 19.644 C 30.971 19.87 30.074 19.374 29.533 18.345 C 29.439 18.173 29.213 17.956 29.043 17.951 C 27.346 17.922 25.652 17.934 23.846 17.934 C 23.846 18.885 23.846 19.806 23.846 20.722 C 23.846 21.622 23.846 22.53 23.846 23.525 C 24.656 23.525 25.423 23.564 26.183 23.513 C 26.779 23.469 27.169 23.702 27.543 24.133 C 28.476 25.216 29.446 26.272 30.394 27.328 C 31.737 26.891 32.609 27.119 33.232 28.038 C 33.86 28.964 33.798 30.286 33.089 31.135 C 32.476 31.862 31.528 32.107 30.702 31.74 C 29.793 31.342 29.07 30.231 29.373 29.249 C 29.654 28.335 29.247 27.866 28.723 27.317 C 28.129 26.692 27.531 26.068 27.009 25.387 C 26.597 24.852 26.117 24.743 25.467 24.906 C 25.46 25.505 25.218 26.102 26.018 26.521 C 26.336 26.687 26.546 27.281 26.59 27.698 C 26.679 28.528 26.619 29.376 26.619 30.216 C 26.619 30.802 26.326 31.045 25.753 31.045 C 20.396 31.039 15.038 31.045 9.683 31.039 C 8.982 31.039 8.802 30.841 8.795 30.108 C 8.784 29.357 8.795 28.605 8.795 27.854 C 8.795 27.158 9.098 26.692 9.666 26.251 C 9.964 26.018 9.969 25.409 10.146 24.84 C 9.13 24.84 8.322 24.825 7.517 24.857 C 7.358 24.862 7.171 25.03 7.049 25.168 C 6.199 26.095 5.351 27.031 4.536 27.987 C 4.398 28.146 4.393 28.443 4.388 28.671 C 4.381 28.887 4.487 29.104 4.502 29.32 C 4.618 30.646 3.62 31.862 2.397 31.9 C 1.13 31.941 0.126 30.802 0.17 29.379 C 0.214 28.004 1.328 26.805 2.524 27.131 C 3.467 27.384 3.808 26.912 4.276 26.389 C 4.994 25.577 5.694 24.754 6.458 23.984 C 6.706 23.735 7.125 23.552 7.474 23.542 C 8.774 23.486 10.075 23.513 11.375 23.508 C 11.414 23.508 11.452 23.474 11.53 23.442 C 11.755 21.639 11.193 19.743 12.146 17.934 C 11.028 17.934 10.019 17.934 9.011 17.934 C 7.709 17.934 6.41 17.951 5.108 17.922 C 4.591 17.912 4.244 17.968 3.99 18.548 C 3.66 19.301 2.987 19.71 2.126 19.688 C 1.3 19.666 0.715 19.234 0.332 18.526 C -0.078 17.787 -0.105 16.994 0.232 16.227 C 0.584 15.421 1.195 14.906 2.106 14.868 C 3.019 14.827 3.694 15.286 4.051 16.094 C 4.255 16.552 4.514 16.631 4.948 16.631 C 7.462 16.615 9.976 16.581 12.488 16.642 C 13.409 16.665 13.983 16.26 14.318 15.534 C 14.592 14.938 14.692 14.252 14.868 13.604 C 14.803 13.567 14.735 13.528 14.665 13.484 Z M 9.716 11.609 C 9.991 12.024 10.267 12.39 10.493 12.793 C 10.703 13.164 10.939 13.25 11.353 13.115 C 12.505 12.739 13.666 12.394 14.836 12.08 C 15.156 11.997 15.537 11.992 15.855 12.073 C 17.966 12.628 18.571 12.228 18.869 10.032 C 18.876 9.99 18.865 9.931 18.887 9.905 C 19.079 9.725 19.283 9.405 19.475 9.41 C 19.669 9.415 19.967 9.725 20.017 9.947 C 20.369 11.577 19.113 13.402 17.475 13.626 C 16.995 13.695 16.488 13.572 15.921 13.535 C 16.076 15.469 15.161 16.868 13.685 18.052 C 13.249 18.399 12.907 19.078 12.851 19.644 C 12.732 20.904 12.813 22.189 12.813 23.474 C 16.097 23.474 19.36 23.474 22.634 23.474 C 22.634 18.522 22.745 13.611 22.59 8.713 C 22.507 5.987 20.605 3.824 18.268 3.172 C 16.522 2.678 14.308 3.267 13.358 4.489 C 13.617 4.783 13.883 5.08 14.146 5.374 C 14.847 6.151 14.84 6.323 14.112 7.075 C 12.648 8.58 11.193 10.083 9.716 11.609 Z M 11.208 26.18 C 11.481 26.18 11.717 26.18 11.954 26.18 C 14.289 26.18 16.626 26.18 18.963 26.18 C 19.14 26.18 19.366 26.117 19.482 26.202 C 19.702 26.367 19.999 26.615 20.005 26.832 C 20.005 27.047 19.714 27.303 19.497 27.472 C 19.387 27.561 19.157 27.493 18.98 27.493 C 16.202 27.493 13.426 27.49 10.647 27.512 C 10.427 27.512 10.035 27.705 10.024 27.838 C 9.954 28.443 9.998 29.054 9.998 29.69 C 15.183 29.69 20.286 29.69 25.455 29.69 C 25.455 29.126 25.427 28.6 25.46 28.075 C 25.487 27.591 25.279 27.472 24.837 27.483 C 24.044 27.512 23.25 27.483 22.457 27.493 C 21.995 27.5 21.659 27.34 21.659 26.837 C 21.659 26.335 21.989 26.168 22.457 26.173 C 23.041 26.185 23.63 26.173 24.204 26.173 C 24.364 24.84 24.364 24.84 23.135 24.84 C 19.409 24.84 15.685 24.857 11.964 24.825 C 11.297 24.818 11.094 25.046 11.186 25.658 C 11.198 25.807 11.198 25.959 11.208 26.18 Z M 32.481 5.131 C 32.51 4.522 32.096 4.007 31.557 3.975 C 31.015 3.942 30.535 4.415 30.51 5.02 C 30.481 5.606 30.91 6.14 31.446 6.175 C 31.991 6.203 32.459 5.733 32.481 5.131 Z M 32.481 17.305 C 32.491 16.69 32.062 16.205 31.517 16.193 C 30.971 16.183 30.513 16.668 30.51 17.271 C 30.498 17.869 30.937 18.377 31.48 18.383 C 32.035 18.389 32.476 17.919 32.481 17.305 Z M 2.342 3.969 C 1.796 3.969 1.362 4.461 1.362 5.068 C 1.362 5.679 1.801 6.17 2.347 6.17 C 2.882 6.17 3.34 5.662 3.34 5.068 C 3.34 4.479 2.877 3.969 2.342 3.969 Z M 31.473 30.597 C 32.018 30.612 32.47 30.137 32.488 29.524 C 32.498 28.916 32.079 28.419 31.535 28.401 C 30.988 28.385 30.532 28.868 30.513 29.468 C 30.491 30.055 30.934 30.575 31.473 30.597 Z M 3.18 17.278 C 3.174 16.675 2.727 16.186 2.182 16.186 C 1.638 16.186 1.195 16.687 1.202 17.289 C 1.207 17.895 1.653 18.383 2.199 18.377 C 2.739 18.372 3.185 17.874 3.18 17.278 Z M 2.32 28.401 C 1.774 28.419 1.35 28.916 1.362 29.524 C 1.372 30.13 1.83 30.612 2.376 30.597 C 2.911 30.58 3.355 30.059 3.34 29.468 C 3.323 28.868 2.86 28.385 2.32 28.401 Z" style="fill: rgb(204, 204, 204);"/>
</svg>