<?xml version="1.0" encoding="utf-8"?>
<!-- Made by Szalik  -->
<svg version="1.1" id="build" xmlns="http://www.w3.org/2000/svg" xmlns:xlink="http://www.w3.org/1999/xlink" x="0px" y="0px" xml:space="preserve">
<g>
	<g>
		<path d="M135.57,180.6c0,0.89,0,1.79,0,2.95c2.72,0,5.47,0,8.14,0c0.63,2.85,0.63,2.85,3.25,3.43c0.06,0.59,0.13,1.19,0.22,2.04
			c0.49,0,0.96,0,1.44,0c0.38,0,0.76,0,1.11,0c0.67,0.67,0.48,3.14-0.48,5.24c0.97,0.39,1.93,0.78,3.05,1.23c0,2.46,0,5.11,0,7.92
			c-0.62,0.1-1.32,0.21-2.15,0.34c0,1.65,0,3.28,0,5.04c-0.98,0-1.83,0-2.89,0c-0.12,1.07-0.23,2.02-0.35,3.1c-1.87,0-3.76,0-5.96,0
			c0.18,2.16-0.72,4.26,0.92,6.22c1.67,0,3.29,0,5.02,0c-0.02,2.16,0.8,3.44,3.19,3.14c0,1.77,0,3.4,0,5.16c0.73,0,1.33,0,1.78,0
			c0.24,0.23,0.42,0.31,0.42,0.4c0.01,3.66,0.01,7.33,0.01,11.13c-0.61,0-1.21,0-2.09,0c0,1.84,0,3.56,0,5.37
			c-1.12,0.06-1.98,0.11-2.99,0.17c0,0.85,0,1.71,0,2.79c-1.07,0.12-2.01,0.22-3.09,0.34c0,0.58,0,1.18,0,2.06c-2.86,0-5.6,0-8.46,0
			c-0.06,1.12-0.1,1.98-0.15,3c-18.04,0-36.09,0-54.23,0c0-4.47,0-8.9,0-13.48c1.61,0,3.24,0,5.13,0c0.05-1.09,0.14-2.06,0.14-3.02
			c0.01-12.13-0.01-24.25,0.03-36.38c0-1.06-0.53-2.32,0.71-3.21c-1.53-2.32-3.98-0.54-6.1-1.55c0-4.32,0-8.88,0-13.44
			C99.32,180.6,117.45,180.6,135.57,180.6z M130.2,234.84c2.03,0,3.65,0,5.3,0c0-2.01,0-3.88,0-6.03c-1.02,0-1.96,0-2.88,0
			c-0.09-0.87-0.16-1.47-0.23-2.1c-0.76-0.13-1.46-0.24-2.27-0.37c0-0.99,0-1.85,0-2.67c-1.26-0.29-2.73-1.1-3.43-0.67
			c-1.28,0.78-2.46,0.45-3.64,0.46c-7.24,0.06-14.48,0.03-21.78,0.03c0,5.96,0,11.74,0,17.54c8.4,0,16.65,0,25.2,0
			c0.34-0.97,0.7-1.96,1.1-3.09c0.8,0,1.66,0,2.65,0C130.2,236.95,130.2,236.1,130.2,234.84z M104.29,211.87c6.77,0,13.22,0,19.66,0
			c0.12-1.07,0.22-2.02,0.35-3.12c0.58,0.22,0.92,0.33,1.23,0.49c0.31,0.16,0.6,0.37,1.04,0.65c1.62-2.12,4.08-0.11,6.06-1.41
			c0-0.51,0-1.11,0-1.98c2.09,0,4.06,0,5.87,0c0-2.14,0-4.02,0-6.01c-2.01,0-3.89,0-6.02,0c0-1.07,0-2.02,0-3.09
			c-1.89,0-3.51,0-4.98,0c-0.43-1.13-0.82-2.12-1.12-2.91c-8.61,0-16.85,0-25.18,0c0,4.78,0,9.45,0,14.48
			c0.88,0.32,1.86,0.68,2.89,1.06C104.14,210.56,104.21,211.16,104.29,211.87z" fill="white"/>
		<path d="M399.83,180.6c0.05,1.11-0.41,2.41,1.68,3.03c0.92,0,2.44,0,4.23,0c0.23,1.65,0.38,3.61,3.04,3.01
			c0.14,0.78,0.26,1.48,0.41,2.31c0.85,0.05,1.71,0.09,2.83,0.15c0,0.93,0,1.88,0,2.91c1.12,0.05,1.98,0.09,3.11,0.14
			c0,1.74,0,3.47,0,5.18c0.87,0.09,1.47,0.16,2.2,0.24c0,3.69,0,7.35,0,11.23c1.07,0.08,2.02,0.16,3.07,0.24c0,4.76,0,9.45,0,14.4
			c-0.9,0-1.85,0-2.93,0c0,3.93,0,7.59,0,11.4c-0.72,0-1.32,0-2.2,0c0,1.84,0,3.55,0,5.39c-1.13,0-1.98,0-3.05,0
			c-0.08,1.07-0.16,2.02-0.24,3.09c-0.93,0.05-1.79,0.1-2.92,0.16c0,0.93,0,1.88,0,2.96c-1.12,0-1.98,0-2.97,0c0,0.73,0,1.33,0,2.13
			c-1.73,0-3.34,0-5.07,0c-0.4,0.53-0.78,1.02-1.26,1.66c0.19,0.37,0.45,0.87,0.77,1.47c-16.23,0-32.39,0-48.88,0
			c-0.18-4.38-0.02-8.89-0.1-13.54c1.76,0,3.39,0,4.88,0c0.49-0.49,0.86-0.86,1.27-1.27c0-13.21,0-26.46,0.01-39.72
			c0-1.04,0.08-2.05-1.28-2.78c-1.35,0-2.97,0-4.85,0c0-4.69,0-9.24,0-13.8C367.66,180.6,383.74,180.6,399.83,180.6z M397.4,200.53
			c0-1.27,0-2.12,0-3.1c-1.75,0-3.37,0-4.87,0c-0.43-1.14-0.8-2.13-1.14-3.05c-5.92,0-11.52,0.01-17.12-0.01
			c-1.04,0-2.04-0.05-2.6,0.99c0,14.24,0,28.44,0,42.59c6.89,0,13.6,0,20.46,0c0.05-1.03,0.09-1.99,0.14-3.06c1.88,0,3.51,0,5.29,0
			c-0.46-2.52,1.15-3.01,2.97-3.24c0.07-0.64,0.13-1.24,0.2-1.94c1.02-0.07,1.97-0.14,2.85-0.2c0-7.97,0-15.71,0-23.54
			c-1.04-0.08-1.99-0.15-3.06-0.22c0-1.84,0-3.46,0-5.21C399.52,200.53,398.66,200.53,397.4,200.53z" fill="white"/>
		<path d="M235.91,180.6c0,4.46,0,8.93,0,13.67c-1.7,0-3.42,0-5.25,0c0,14.65,0,29.03,0,43.62c-1.06,0.09-2.01,0.17-3.1,0.27
			c0,1.68,0,3.3,0,5.05c-2.04,0.08-3.51,0.71-3.16,3.17c-0.73,0-1.33,0-2.07,0c-0.14,0.81-0.25,1.51-0.39,2.34
			c-1.63,0-3.26,0-5.13,0c-0.37,0.9-0.72,1.77-1.2,2.93c-10.01,0-20.4,0-30.93,0c0-0.82,0-1.67,0-2.8c-1.84,0-3.56,0-5.31,0
			c-0.09-0.86-0.16-1.47-0.24-2.22c-0.83,0-1.69,0-2.77,0c-0.12-1.07-0.22-2.01-0.34-3.09c-0.84,0-1.7,0-2.82,0
			c0-1.83,0-3.56,0-5.17c-1.16-0.36-2.05-0.64-3.14-0.97c0-14.42,0-28.64,0-42.99c-1.88,0-3.5,0-5.39,0c0-4.69,0-9.24,0-13.8
			c8.43,0,16.85,0,25.28,0c0,4.55,0,9.11,0,13.93c-1.96,0-3.67,0-5.36,0c0,1.8,0,3.33,0,4.86c0,1.66,0,3.31,0,4.97
			c0,1.53,0,3.06,0,4.59s0,3.06,0,4.59c0,1.66,0,3.31,0,4.97c0,1.53,0,3.06,0,4.59c0,1.66,0.46,3.5-0.13,4.91
			c-0.54,1.29,0.13,2.53-0.51,3.64c2.32,0.29,2.32,0.29,3.51,1.62c-0.18,0.18-0.36,0.36-0.76,0.76c1.18,0.51,2.23,0.96,3.43,1.49
			c0,1.81,0,3.68,0,5.59c7.04,0,13.91-0.01,20.79,0.01c1.04,0,2.05,0.08,2.91-1.54c0-1.19,0-2.9,0-4.74c1.12,0,1.98,0,2.96,0
			c0-1.76,0-3.38,0-5.05c0.82-0.12,1.52-0.23,2.19-0.33c0-10.7,0-21.24,0-31.85c-0.77-0.12-1.47-0.23-1.87-0.29
			c-0.43-1.15-0.76-2.03-1.15-3.08c-1.92,0-3.63,0-5.32,0c0-4.73,0-9.19,0-13.65C219.06,180.6,227.49,180.6,235.91,180.6z" fill="white"/>
		<path d="M310.98,180.6c0,4.46,0,8.93,0,13.66c-1.7,0-3.41,0-4.6,0c-1.62,0.87-1.54,1.88-1.54,2.92c0.02,4.85,0.01,9.69,0.01,14.54
			c0,8.41,0,16.82,0,25.17c0.42,0.42,0.78,0.78,1.14,1.14c6.37,0,12.75,0,19.4,0c0-1.95,0-3.91,0-6c4.7,0,9.13,0,13.67,0
			c0.25,0.25,0.61,0.61,0.92,0.92c0,6.27,0,12.48,0,18.78c-18.06,0-36.01,0-54.12,0c0-4.49,0-9.01,0-13.67c1.68,0,3.3,0,5.06,0
			c0-14.6,0-29.07,0-43.68c-1.71,0-3.34,0-5.22,0c0-4.69,0-9.24,0-13.8C294.13,180.6,302.55,180.6,310.98,180.6z" fill="white"/>
		<path d="M273.45,180.6c0,4.46,0,8.92,0,13.65c-1.69,0-3.4,0-5.24,0c0,14.73,0,29.19,0,43.78c1.73,0,3.36,0,5.11,0
			c0,4.55,0,8.98,0,13.56c0.06-0.05-0.03,0.05-0.13,0.11c-0.1,0.06-0.22,0.12-0.33,0.12c-8.14,0.01-16.28,0-24.55,0
			c0-4.54,0-8.97,0-13.66c1.57,0,3.28,0,5.11,0c0-14.64,0-29,0-43.64c-1.57,0-3.28,0-5.24,0c0-4.82,0-9.38,0-13.93
			C256.6,180.6,265.02,180.6,273.45,180.6z" fill="white"/>
		<path d="M317.24,320.69c-5.08,0-9.76,0-14.57,0c0-21.6,0-43.13,0-64.85c4.66,0,9.44,0,14.36,0c0.04,0.57,0.08,1.17,0.14,2.05
			c0.93,0,1.87,0,2.99,0c-1.15,1.83-0.61,3.53-0.81,5.42c0.98,0.36,1.86,0.69,2.96,1.1c0,0.33,0,0.92,0,1.77
			c1.07,0.11,2.01,0.21,3.09,0.33c0,1.85,0,3.74,0,5.82c1.07,0.1,2.02,0.19,3.11,0.29c0,0.9,0,1.76,0,2.75
			c0.81,0.13,1.51,0.24,2.34,0.37c0,1.65,0,3.27,0,5.04c0.99,0,1.84,0,2.89,0c0.12,1.07,0.23,2.02,0.35,3.1c0.85,0,1.71,0,2.74,0
			c0,1.73,0,3.35,0,5.27c0.99,0.43,1.95,0.84,3.11,1.35c0,0.34,0,0.94,0,1.8c1.07,0.05,2.02,0.1,3.1,0.15c0-12.27,0-24.35,0-36.61
			c4.65,0,9.17,0,13.78,0c0,21.55,0,43.08,0,64.77c-4.48,0-9,0-13.62,0c-0.04-0.9-0.09-1.76-0.14-2.76c-0.88,0-1.73,0-2.87,0
			c0-1.84,0-3.55,0-5.4c-1.13,0-1.98,0-3.06,0c-0.08-1.07-0.15-2.03-0.23-3.06c-0.68-0.07-1.29-0.13-2.05-0.2c0-1.59,0-3.21,0-5.08
			c-1.07-0.11-2.01-0.21-3.09-0.32c0-0.84,0-1.7,0-2.76c-1.07-0.1-2.02-0.19-3.11-0.3c0-1.91,0-3.8,0-5.94c-1.08,0-2.03,0-2.99,0
			c-0.1-0.87-0.17-1.47-0.24-2.03c-1-0.36-1.99-0.72-3.03-1.1c0-1.92,0-3.54,0-5.25c-0.73-0.07-1.33-0.12-2.21-0.21
			c0-0.92,0-1.87,0-2.89c-1.13,0-1.98,0-2.97,0C317.24,295.69,317.24,308.03,317.24,320.69z" fill="white"/>
		<path d="M161.48,272.53c1.26,0,2.12,0,3.11,0c0,0.99,0,1.85,0,2.84c0.81,0.13,1.51,0.25,2.34,0.38c0,1.64,0,3.27,0,5.04
			c0.98,0,1.84,0,2.91,0c0.12,1.07,0.23,2.01,0.35,3.09c0.84,0,1.7,0,2.74,0c0,1.73,0,3.34,0,5.08c0.88,0.56,1.67,1.07,2.48,1.59
			c0,0.47,0,0.97,0,1.68c1.19,0,2.39,0,3.72,0c0-12.03,0-24.11,0-36.38c4.64,0,9.16,0,13.79,0c0,21.5,0,43.03,0,64.74
			c-4.42,0-8.94,0-13.59,0c0.25-2.2-0.96-3.09-3.16-3.02c0-1.74,0-3.36,0-5.11c-0.99,0-1.84,0-2.92,0
			c-0.08-1.07-0.16-2.02-0.24-3.09c-0.93-0.05-1.79-0.1-2.81-0.16c0-1.6,0-3.22,0-5.04c-1.78-0.28-3.79-0.39-3.1-3.1
			c-0.84-0.14-1.54-0.25-2.37-0.38c0-1.64,0-3.27,0-5.14c-0.9-0.36-1.78-0.72-2.96-1.2c-0.05-0.3-0.18-1-0.33-1.83
			c-0.85-0.05-1.71-0.09-2.83-0.15c0-1.94,0-3.92,0-5.9c-0.87-0.1-1.47-0.17-2.07-0.24c-0.77-3.33-1.5-3.69-4.09-1.88
			c0,12,0,24.08,0,36.3c-4.55,0-8.97,0-13.43,0c-0.59-3.24-0.81-49.84-0.27-64.83c4.42,0,8.85,0,13.46,0
			c0.1,0.53,0.23,1.22,0.39,2.05c0.83,0,1.69,0,2.81,0c0,2.09,0,4.07,0,6.14c1.12,0.06,1.98,0.11,2.99,0.17
			c0.1,0.68,0.21,1.38,0.34,2.21c0.91,0,1.76,0,2.75,0C161.48,268.37,161.48,270.25,161.48,272.53z" fill="white"/>
		<path d="M250.23,317.7c-1.67,0-3.21,0-4.95,0c-0.09,0.93-0.19,1.89-0.3,2.95c-9.31,0-18.58,0-27.89,0
			c-0.32-0.9-0.68-1.9-1.05-2.93c-1.89,0-3.51,0-5.27,0c0-0.73,0-1.33,0-2.13c-1.07-0.1-2.02-0.2-3.11-0.31c0-0.89,0-1.75,0-2.87
			c-1.08,0-2.03,0-3.11,0c0-1.89,0-3.51,0-5.28c-0.73,0-1.33,0-1.75,0c-0.72-0.61-0.93-25.41-0.49-37.54c0.59,0,1.19,0,2.06,0
			c0-1.84,0-3.55,0-5.4c1.12,0,1.98,0,3.06,0c0.08-1.07,0.14-2.03,0.22-3.08c0.95-0.05,1.81-0.1,2.94-0.16c0-0.95,0-1.89,0-2.97
			c2.14,0,4.02,0,6.03,0c0-0.73,0-1.33,0-2.12c9.5,0,18.87,0,28.42,0c0.03,0.55,0.05,1.15,0.1,2.11c0.83,0,1.67,0,2.52,0
			c0.87,0,1.73,0,2.7,0c0.06,1.04,0.11,1.9,0.16,2.91c0.85,0,1.71,0,2.79,0c0.11,1.07,0.22,2.01,0.33,3.09c0.84,0,1.7,0,2.42,0
			c0.22,0.22,0.39,0.31,0.39,0.41c0.02,1.62,0.01,3.24,0.01,5c1.12,0,1.98,0,3,0c0,1.84,0,3.55,0,5.37
			c-0.89,0.05-1.75,0.09-2.75,0.15c0,0.87,0,1.73,0,2.41c-0.23,0.26-0.31,0.44-0.39,0.44c-2.64,0.01-5.28,0.01-8.06,0.01
			c0-0.85,0-1.7,0-2.77c-1.07-0.09-2.02-0.17-3.09-0.26c-0.05-0.66-0.1-1.26-0.16-1.98c-1.89-0.09-3.37-0.71-3.02-3.15
			c-5.83,0-11.54,0-17.56,0c0.17,0.6,0.33,1.21,0.55,2.01c-0.17,0.14-0.56,0.44-1.23,0.97c-1.25,0-2.88,0-4.63,0
			c0,1.75,0,3.37,0,5.27c-1.08,0-2.03,0-3.06,0c0,6.99,0,13.72,0,20.71c0.93,0,1.88,0,2.96,0c0,1.89,0,3.51,0,5.27
			c1.75,0,3.37,0,4.95,0c0.43,1.12,0.8,2.11,1.18,3.11c3.89,0,7.55,0,11.36,0c0-0.85,0-1.7,0-2.83c1.84,0,3.55,0,5.38,0
			c0-3.17,0-6.07,0-9.23c-2.61,0-5.35,0-8.21,0c-0.06-0.86-0.1-1.46-0.17-2.34c-0.93,0-1.87,0-2.91,0c0-2.91,0-5.55,0-8.34
			c0.86,0,1.71,0,2.77,0c0.12-1.07,0.23-2.02,0.35-3.09c3.4,0,6.81,0,10.59,0c0.3,0.78,0.67,1.76,1.11,2.91c1.49,0,3.11,0,4.85,0
			c-0.01,2.13,0.77,3.45,3.01,3.17c0.57,2.66,0.57,2.66,3.18,3.04c0,1.66,0,3.38,0,5.22c1.12,0.06,1.98,0.1,3,0.15
			c0,3.38,0,6.79,0,10.62c-0.67,0.28-1.64,0.68-2.79,1.16c0,1.39,0,3.02,0,4.86c-1.07,0.08-2.02,0.16-3.09,0.24
			c-0.05,0.93-0.1,1.79-0.17,2.92c-0.93,0-1.88,0-2.78,0C250.49,316.33,250.36,317.03,250.23,317.7z" fill="white"/>
		<path d="M415.07,306.98c0,4.7,0,9.12,0,13.67c-16.24,0-32.41,0-48.76,0c0-21.51,0-43.13,0-64.87c16.13,0,32.3,0,48.65,0
			c0,4.15,0,8.42,0,12.66c-0.67,1.34-1.91,1-3.02,1c-8.29,0.01-16.59,0.01-24.88,0.01c-2.29,0-4.57,0-7,0c0,3.84,0,7.59,0,11.48
			c7.58,0,15.07,0,22.7,0c0,4.56,0,8.99,0,13.56c0.05-0.05-0.03,0.06-0.14,0.13c-0.1,0.06-0.22,0.11-0.33,0.11
			c-7.12,0.01-14.25,0-21.69,0c-0.24,0.84-0.63,1.62-0.66,2.41c-0.08,2.92-0.03,5.85-0.03,8.63c0.7,1.11,1.59,1.25,2.69,1.24
			c6.12-0.05,12.25-0.03,18.37-0.03C405.57,306.98,410.17,306.98,415.07,306.98z" fill="white"/>
		<path d="M129.37,255.79c0,4.56,0,8.99,0,13.55c-11.4,0-22.72,0-34.22,0c0,3.88,0,7.64,0,11.53c7.51,0,15,0,22.65,0
			c0,4.65,0,9.17,0,13.83c-7.31,0-14.55,0-22.11,0c-0.25,0.82-0.67,1.6-0.69,2.39c-0.08,3.18-0.03,6.37-0.03,9.82
			c11.46,0,22.87,0,34.38,0c0,4.7,0,9.13,0,13.71c-16,0-32.01,0-48.09,0c0-21.62,0-43.16,0-64.82
			C97.22,255.79,113.14,255.79,129.37,255.79z" fill="white"/>
		<path d="M274.08,269.42c-2.01,0-3.89,0-5.88,0c0-4.56,0-8.99,0-13.6c8.54,0,17.14,0,25.84,0c0,4.46,0,8.89,0,13.47
			c-1.86,0-3.74,0-5.6,0c-0.61,3.23-0.79,26.88-0.3,37.57c1.86,0,3.75,0,5.81,0c0,4.65,0,9.17,0,13.8c-8.51,0-17.03,0-25.7,0
			c0-4.49,0-9.01,0-13.66c1.94,0,3.82,0,5.83,0C274.08,294.52,274.08,282.18,274.08,269.42z" fill="white"/>
	</g>
</g>
</svg>
