<?xml version="1.0" encoding="utf-8"?>
<svg viewBox="0 0 264 42" xmlns="http://www.w3.org/2000/svg">
  <path d="M 37.626 7.744 L 30.76 14.948 C 30.76 14.948 30.396 15.132 30.092 15.132 C 29.788 15.132 29.36 14.825 29.36 14.825 L 28.511 14.1 C 28.511 14.1 28.266 14.04 28.266 13.794 C 28.266 13.554 28.936 12.941 28.936 11.787 C 28.936 10.63 28.694 5.825 21.278 5.825 C 13.863 5.825 10.579 12.759 10.579 18.477 C 10.579 24.195 14.103 34.655 25.657 34.655 C 32.375 34.655 33.798 30.881 33.798 30.881 L 36.108 30.881 L 36.108 40.737 L 23.465 40.737 C 8.391 40.737 0 28.934 0 20.421 C 0 7.366 11.347 0.122 21.642 0.122 C 31.611 0.123 37.626 7.744 37.626 7.744 Z M 190.996 42 C 177.863 42 168.425 32.405 168.425 20.73 C 168.425 9.048 178.107 0 190.996 0 C 203.879 0 213.562 9.048 213.562 20.73 C 213.562 32.403 204.123 42 190.996 42 Z M 90.451 1.206 C 90.451 1.206 102.73 1.206 109.904 1.206 C 117.077 1.206 124.248 3.757 124.248 12.028 C 124.248 20.301 119.02 23.221 114.524 25.289 C 109.331 27.676 102.489 29.549 102.489 29.549 L 102.489 35.872 C 102.489 35.872 102.55 36.299 103.155 37.023 C 103.766 37.754 104.434 37.938 104.434 37.938 L 104.434 40.856 L 90.331 40.856 L 90.331 38.002 C 90.331 38.002 91.18 37.817 91.792 37.21 C 92.397 36.602 92.521 35.872 92.521 35.872 L 92.521 7.286 C 92.521 7.286 92.577 6.069 92.095 5.585 C 91.608 5.094 90.452 4.427 90.452 4.427 L 90.452 1.206 L 90.451 1.206 Z M 58.906 1.206 L 69.299 1.206 L 81.945 34.291 C 82.306 35.201 82.914 36.057 83.522 36.785 C 84.127 37.514 85.587 38.003 85.587 38.003 L 85.587 40.858 L 70.334 40.858 L 70.334 37.939 C 70.334 37.939 71.305 38.064 71.793 37.212 C 72.278 36.358 72.278 35.69 71.915 34.841 C 71.55 33.987 68.991 27.237 68.991 27.237 L 56.533 27.237 C 56.533 27.237 53.982 34.048 53.735 34.655 C 53.491 35.264 53.491 36.239 53.735 36.845 C 54.14 37.857 55.561 38.005 55.561 38.005 L 55.561 40.859 L 43.34 40.859 L 43.34 38.005 C 43.34 38.005 44.453 37.622 45.285 36.786 C 46.197 35.873 46.5 34.898 46.5 34.898 L 58.906 1.206 Z M 219.441 1.23 L 233.911 1.23 L 239.138 17.384 L 244.728 1.206 L 259.862 1.206 L 259.862 3.574 C 259.862 3.574 258.856 4.002 258.409 4.55 C 257.861 5.219 257.861 5.705 257.982 6.681 C 258.103 7.651 261.992 34.048 262.115 35.022 C 262.239 35.996 262.358 36.543 262.6 37.213 C 262.841 37.876 264 38.427 264 38.427 L 264 40.88 L 249.469 40.88 L 249.469 38.245 C 249.469 38.245 250.747 38.064 251.175 37.453 C 251.6 36.843 251.78 36.477 251.66 35.507 C 251.537 34.534 248.075 12.397 248.075 12.397 L 241.753 31.979 L 234.093 31.979 L 227.83 13.608 L 224.67 35.262 C 224.67 35.262 224.547 36.562 225.035 37.271 C 225.703 38.245 226.923 38.245 226.923 38.245 L 226.923 40.858 L 214.335 40.858 L 214.335 38.064 C 214.335 38.064 215.337 37.909 216.066 37.057 C 216.794 36.208 216.918 35.109 216.918 35.109 L 221.509 6.556 C 221.509 6.556 221.786 5.49 221.479 5.005 C 221.159 4.493 219.441 4.063 219.441 4.063 L 219.441 1.23 Z M 179.322 20.91 C 179.322 32.588 185.279 35.507 190.996 35.507 C 196.706 35.507 202.788 31.859 202.788 20.91 C 202.788 9.965 195.979 6.313 190.996 6.313 C 186.011 6.313 179.322 9.23 179.322 20.91 Z M 166.376 7.813 L 159.508 15.017 C 159.508 15.017 159.142 15.2 158.837 15.2 C 158.536 15.2 158.111 14.896 158.111 14.896 L 157.257 14.163 C 157.257 14.163 157.015 14.106 157.015 13.865 C 157.015 13.619 157.681 13.008 157.681 11.857 C 157.681 10.699 157.441 5.895 150.023 5.895 C 142.606 5.895 139.324 12.827 139.324 18.546 C 139.324 24.258 142.85 34.722 154.403 34.722 C 161.122 34.722 162.546 30.95 162.546 30.95 L 164.858 30.95 L 164.858 40.803 L 152.21 40.803 C 137.138 40.803 128.746 29.005 128.746 20.49 C 128.746 7.437 140.09 0.19 150.387 0.19 C 160.357 0.19 166.376 7.813 166.376 7.813 Z M 102.609 7.164 L 102.609 24.071 C 102.609 24.071 114.036 19.329 114.036 12.639 C 114.036 4.367 102.609 7.164 102.609 7.164 Z M 58.599 21.032 L 66.625 21.032 L 62.492 9.477 L 58.599 21.032 Z" fill-rule="evenodd" style="fill: rgb(255, 255, 255);"/>
</svg>