<svg id="Warstwa_1" data-name="Warstwa 1" xmlns="http://www.w3.org/2000/svg" viewBox="0 0 219 240"><title>cave</title><path d="M178,114c11.26,5.66,19.21,15.22,27.82,23.93,1.88,1.9,2.65,5.39,3,8.26.79,7.28.89,14.63,1.5,21.93,1.46,17.73-18.64,35.09-36.81,25.08-5.67-3.12-11.68-5.63-17.56-8.36a19.83,19.83,0,0,0-3.37-.86,20.85,20.85,0,0,0-.48,2.81q0,16.14,0,32.28l1.72.24c.9-1.08,1.76-2.21,2.72-3.24,6.19-6.58,13.87-9.5,22.61-7.29a181.44,181.44,0,0,1,24.59,8.11c8.64,3.55,13,10.72,13.26,20,.41,12.7-7.53,25.15-18.89,30.42-1.25.58-2.18,2.12-2.93,3.41-.56,1-.54,2.25-.86,3.37-3.57,12.77-9.7,17.54-22.6,19.81-19.25,3.37-38.15.05-57.15-1.89a9.3,9.3,0,0,1-5-2c-7.71-6.93-14.34-14.51-13.22-26,.37-3.75-.68-6.16-4.87-7.33-5.26-1.48-7.8-5.86-7.58-11.11.85-21.14,1.78-42.28,3.25-63.38.22-3.14,2.85-7.06,5.54-8.84,4-2.61,6-5.72,6.28-10.07.56-8.13,4.67-13.15,11.93-16.92C131.08,135.93,151,124.85,171,114Zm-65.69,94.3h.53c0-11.49,0-23,0-34.48,0-6,2.47-10.48,8.3-13,4.58-2,9-4.39,13.44-6.6,11.63-5.74,14.9-4.37,18.28,8,1.12,4.11,3.58,5.32,7.46,4.37,5.43-1.32,9-6.08,8.74-12.39-.28-7.82-.83-15.64-1.41-23.44-.55-7.41-2.12-8.24-8.7-4.7-15.54,8.36-31,16.94-46.6,25.07-5.33,2.77-8,6.53-8.47,12.42s-2.8,10.66-8.43,13.84c-2,1.11-3.53,4.56-3.69,7-1.23,20-2.11,39.92-3,59.88-.19,4.08,1.33,7.11,5.65,8.24,5,1.28,6.86,4.89,7,9.7,0,2.32-.18,4.66,0,7,.33,4.47,2.41,6.9,7.35,6.72,4.14-.15,8.31.53,12.47.73,6.49.32,13,.76,19.47.75,7,0,9.66-2.61,10.46-9.35a77.28,77.28,0,0,1,1.06-7.92c1.37-6,4-10.85,10.79-12.28,9.2-1.93,12.18-6.23,11.36-15.65-.35-4.07-1.38-7.8-5.93-8.76s-8.56.83-10.44,5A39.07,39.07,0,0,0,155.12,240c-1,8.07-6.17,13.4-14.26,14-4.82.33-9.65.56-14.47.84-10.69.61-14-2.56-14.07-13.46S112.31,219.3,112.31,208.3Zm48.42,10.51c1.4,0,2.05.05,2.69,0s1.31-.25,2-.31c6.07-.54,11.1,2.25,12.72,8.18,4,14.76-1.15,23.14-13.23,25.8-4.75,1-6.72,3.94-7.71,8A59.78,59.78,0,0,0,156,268.4c-1,9.3-5.56,13.64-15,13.94-2.83.09-5.67-.12-8.5-.25-8.05-.39-16.11-.81-24.94-1.26,2.64,4.47,5.74,6.47,10,6.87q16.67,1.56,33.32,3.23c6.35.65,11.4-1.72,14.14-7.28,2.53-5.15,3.9-10.86,6-16.24.64-1.63,1.87-4.18,3-4.28,13.45-1.14,22.62-21.55,20.9-32.47-1.35-8.58-6.24-14.17-14.53-16.67C173.25,211.82,166.8,213.09,160.73,218.81Zm-12.84-53.37c-.3-10.2-2-11.27-10.84-6.94-3.89,1.92-7.65,4.15-11.68,5.66-5.93,2.22-7.74,6.3-7.72,12.38.07,21.33-.26,42.66-.39,64a35.57,35.57,0,0,0,.45,5.45c.44,3,2.17,4.24,5.23,4,6.15-.44,12.34-.45,18.45-1.16,3.53-.41,6.9-1.89,7.93-6.6-5.26.57-10.06.92-14.8,1.65-4.44.68-6.38-.51-6.35-5.42.13-20.17,0-40.33-.2-60.5,0-3.46,1.29-5,4.38-6.17C137.64,169.88,142.78,167.55,147.89,165.44Zm4.26,5.36c2.09,8,7.25,12.27,13.76,11.49,11.86-1.43,22.26-12.88,21.91-24.8-.27-9.31-1-18.63-2-27.88-1-8.52-8.8-12.73-15.28-9.23.75,3.86,1.77,7.52,2.12,11.23.67,7,1.08,13.95,1.37,20.93C174.58,166.37,165.44,173.94,152.15,170.8Zm-18.46,68c4.06-.37,8.06-.48,11.93-1.22a4.64,4.64,0,0,0,2.83-3.42c-.32-15.63-.86-31.26-1.45-46.88,0-1.14-.59-2.87-1.41-3.25-4-1.82-8.07-3.29-12.38-5,0,19.68,0,38.64,0,57.6A11.32,11.32,0,0,0,133.69,238.84ZM190.91,130.6c.53,7.75.82,14.57,1.49,21.35,1.52,15.42-4.6,26.4-18.62,33-.85.4-1.65.92-2.71,1.53,1.19.61,2.07,1.08,3,1.51,16.92,8.06,32.36-2.59,31.14-21.46-.3-4.65-1.29-9.36-.85-13.94C205.33,142.17,199,136.58,190.91,130.6Zm6,89.48c7.39,16.82,1,30.18-9.51,42.67,12.92,1.55,22.21-6.87,24.48-21.86C213.41,230.45,207.45,221.89,196.86,220.08Zm-20,48.08c-2.79,7.15-5.44,14-8.07,20.7,13.09,0,22-8.71,20.76-20.7ZM146.3,171.49l-9.18,3.76,13.71,5.36Z" transform="translate(-41 -114)" fill="white"/><path d="M237,354c-2.34-2.69-6.21-5.14-6.69-8.13-1-5.95-1.14-12.47.36-18.23,1.87-7.22,16-10.3,22.86-5.62,2.41,1.62,4.33,4,6.47,6v12c-2.16.61-4.31,1.64-6.5,1.73-5.74.25-11.5.09-17.49.09.35,5,3,6.24,7,6.48,5.68.36,11.33,1.11,17,1.7v4Zm18.14-18.6c-1.7-3.3-2.52-7.29-4.24-7.72a26.06,26.06,0,0,0-12.29.07c-3.6.9-2.92,4.53-2.2,7.65Z" transform="translate(-41 -114)" fill="white"/><path d="M109,354c-4.63-2.62-6.06-6.76-5.65-11.81.44-5.55,3.61-8.75,9.27-9.13,2.32-.15,4.66-.05,7-.06h7c1-4.93-1-6.88-5.44-6.82a53,53,0,0,1-8.46-.25c-1.1-.16-2.74-1.71-2.75-2.64s1.59-2.82,2.54-2.86c4.62-.17,9.45-.58,13.83.54,2.51.64,5.94,3.89,6.15,6.22.8,8.88.46,17.86.54,26.81Zm9.58-14.92v.12c-2,0-4.2-.55-5.87.17a5.72,5.72,0,0,0-2.91,4.13c-.07,1.48,1.32,4.16,2.42,4.35a20,20,0,0,0,9.24-.28c2.37-.77,6.46-1.22,5.52-5.59-.88-4.05-4.34-2.56-6.92-2.89A10.43,10.43,0,0,0,118.58,339.08Z" transform="translate(-41 -114)" fill="white"/><path d="M41,331c6.2-9.55,15.94-13.46,27.12-10.66,1.15.28,2,1.78,3,2.72-1.06,1-2,2.71-3.19,2.89a63.3,63.3,0,0,1-8.94.23c-7.56.09-12,4.54-11.86,12,.07,5.1,4.79,9.83,10.18,10.05,3.32.14,6.66-.12,10,.16,3.72.31,5.17,2.11,2.75,5.62H51L41,344Z" transform="translate(-41 -114)" fill="white"/><path d="M179,354c-3.7-7.8-7.55-15.53-11-23.45-.93-2.14-.87-4.89-.64-7.29.11-1.09,1.77-2,2.73-3,1,1.07,2.5,2,3,3.25,2.85,7.85,5.47,15.79,8.16,23.7h2.18c2.63-7.7,5.17-15.42,8-23.06.54-1.47,2-2.62,3-3.91,1,1.28,2.81,2.53,2.85,3.84a20.09,20.09,0,0,1-1.34,8.18c-3.08,7.34-6.58,14.51-9.91,21.74Z" transform="translate(-41 -114)" fill="white"/></svg>