<svg id="Warstwa_1" data-name="Warstwa 1" xmlns="http://www.w3.org/2000/svg" viewBox="0 0 429.1 76.15"><title>Sharp_X1_logo</title><path d="M452.62,251.36c-.57,4.24-1.05,8.5-1.73,12.72-.44,2.74-1.12,5.45-1.8,8.15a8.68,8.68,0,0,1-7.72,7c-8.49,1.17-17,2.64-25.49,3.34a202.32,202.32,0,0,1-50.65-2.45c-.7-.12-1.4-.34-2.1-.4-6.21-.47-9.52-3.82-10.84-9.91a113,113,0,0,1,.19-50c1.22-5.29,4.08-8.22,9.56-9.18,16-2.81,32.06-4.34,48.25-3.26,10.32.69,20.57,2.32,30.85,3.58a8.66,8.66,0,0,1,8,7.46c1.14,5.88,2,11.81,3,17.72.15.91.29,1.82.43,2.73Zm-54.19.73H419v-14H398.57v-8.23H419V214.57h-35.8v61.16h15.25Z" transform="translate(-23.52 -207.07)" fill="white"/><path d="M100.9,274.15V252.77H84.05V274H69.64V218.47H83.92v21.25h16.91V218.46h14.53v49.2l.44.11c.33-.66.7-1.3,1-2q10.48-22.77,20.93-45.58a2.78,2.78,0,0,1,3-1.95c7.22.09,14.45,0,21.85,0V274H148.35V252.65c-3.6,0-6.94-.07-10.27.07-.52,0-1.16.92-1.45,1.55-2.81,6-5.6,12-8.31,18.12a2.5,2.5,0,0,1-2.67,1.81C117.5,274.1,109.35,274.15,100.9,274.15ZM148.16,230l-.39,0-4.43,9.69h4.82Z" transform="translate(-23.52 -207.07)" fill="white"/><path d="M200.59,247.1V218.44H215v55.7c-4.58,0-9.13.05-13.68-.06-.56,0-1.24-.84-1.62-1.43-5.36-8.29-10.67-16.6-16-24.9-.41-.65-.85-1.27-1.59-2.34V274H167.69V218.32c4.56,0,9.11-.06,13.66.06.56,0,1.22.85,1.61,1.45q8,12.43,16,24.9C199.36,245.36,199.81,246,200.59,247.1Z" transform="translate(-23.52 -207.07)" fill="white"/><path d="M266.72,274.15c-4.58,0-9,.06-13.44-.07-.63,0-1.41-.82-1.82-1.46-5.41-8.33-10.76-16.7-16.12-25.06-.37-.58-.78-1.12-1.54-2.21V274H219.52V218.32c4.51,0,9.06,0,13.61.06.55,0,1.22.85,1.61,1.45q8,12.42,16,24.89c.42.66.86,1.29,1.67,2.5v-28.8h14.32Z" transform="translate(-23.52 -207.07)" fill="white"/><path d="M271.77,274V218.47H302.7V231H286.25v8.84h16.44v12.78h-16.5v8.75h16.48V274Z" transform="translate(-23.52 -207.07)" fill="white"/><path d="M66.05,240.93c-4-7.22-10-10.27-16.69-8.76a14.45,14.45,0,0,0-1.77,27.65c6.89,2.51,12.63.1,18.67-8.11v6.7c0,3.86,0,7.72,0,11.59a2.2,2.2,0,0,1-1.49,2.45c-11,4.61-21.39,3.66-30.6-3.95s-12.64-18-9.53-29.67c3.06-11.5,10.89-18.54,22.6-21a27,27,0,0,1,17.35,2.18,3.05,3.05,0,0,1,1.58,2.09c.13,5.87.07,11.74.06,17.6A9.25,9.25,0,0,1,66.05,240.93Z" transform="translate(-23.52 -207.07)" fill="white"/><path d="M322.11,261.4h16.63V274H307.81V218.4h14.3Z" transform="translate(-23.52 -207.07)" fill="white"/></svg>