<?xml version="1.0" encoding="utf-8"?>
<!-- Made by Szalik  -->
<svg version="1.1" id="Warstwa_1" xmlns="http://www.w3.org/2000/svg" xmlns:xlink="http://www.w3.org/1999/xlink" x="0px" y="0px" xml:space="preserve">
<g>
	<g>
		<path d="M306.5,284.7c-9.23,0.23-18.46,0.5-27.69,0.67c-5.67,0.11-11.35,0.08-17.03,0.12c-11.79,0.09-23.59,0.18-35.38,0.27
			c-7.59,0.05-15.19,0.1-22.78,0.12c-5.6,0.02-11.19-0.01-16.79,0.01c-1.43,0-2.87,0.11-4.3,0.16c-1.41,0.05-2.65-0.29-3.77-1.23
			c-0.96-0.82-2.06-1.49-3.11-2.21c-3.34-2.31-6.67-4.65-10.04-6.92c-3.17-2.13-6-4.6-8.2-7.75c-0.73-1.04-1.55-2.01-2.27-3.05
			c-0.45-0.64-0.32-1.26,0.26-1.83c2.33-2.34,4.63-4.71,6.96-7.04c2.67-2.67,5.38-5.32,8.06-7.99c2.86-2.85,5.68-5.73,8.55-8.55
			c1.7-1.67,3.49-3.24,5.2-4.9c0.91-0.89,1.71-1.89,2.61-2.79c1.63-1.6,3.34-3.13,4.95-4.75c1.39-1.4,2.64-2.93,4.02-4.35
			c1.49-1.55,3.07-3.01,4.58-4.54c2.24-2.27,4.44-4.57,6.69-6.84c2.69-2.71,5.44-5.38,8.11-8.1c3.05-3.1,6.04-6.26,9.08-9.38
			c1.51-1.55,3.09-3.03,4.61-4.57c1.19-1.21,2.35-2.46,3.52-3.69c0.95-1,1.82-2.08,2.87-2.97c0.53-0.45,1.35-0.77,2.04-0.78
			c4.72-0.06,9.44-0.02,14.15-0.02c7.68,0.01,15.35,0.03,23.03,0.01c1.37,0,2.43,0.38,3.31,1.5c0.68,0.88,1.59,1.58,2.39,2.36
			c3.5,3.43,7,6.85,10.48,10.3c1.5,1.48,2.97,2.99,4.4,4.54c0.31,0.34,0.49,0.92,0.49,1.39c-0.02,1.79-0.13,3.58-0.22,5.37
			c-0.04,0.89-0.24,1.43-1.4,1.45c-5.55,0.08-11.1,0.25-16.65,0.43c-1.16,0.04-1.91-0.4-2.33-1.46c-0.95-2.39-1.94-4.76-2.85-7.17
			c-0.6-1.59-1.48-2.31-3.21-2.29c-3.52,0.03-7.04,0.11-10.55,0.15c-4.92,0.06-9.83,0.16-14.75,0.12c-1.44-0.01-2.36,0.51-3.01,1.69
			c-0.27,0.49-0.5,1-0.7,1.52c-0.68,1.81-1.31,3.64-2.03,5.43c-0.76,1.9-1.63,3.75-2.42,5.64c-0.61,1.46-1.15,2.95-1.73,4.42
			c-0.37,0.96-0.71,1.92-1.11,2.87c-0.94,2.22-1.92,4.43-2.85,6.65c-1.19,2.87-2.35,5.75-3.53,8.62c-0.46,1.11-0.97,2.19-1.44,3.29
			c-0.24,0.58-0.53,1.18-0.62,1.79c-0.16,1.14,0.22,1.54,1.37,1.55c6.96,0.03,13.91,0.05,20.87,0.05c6.56,0,13.11,0.01,19.67-0.04
			c4.75-0.03,9.51-0.13,14.26-0.21c2.62-0.05,5.25-0.13,7.87-0.2c1.7-0.04,1.94-0.27,2.06-2.04c0.15-2.27,0.32-4.54,0.44-6.82
			c0.04-0.86,0.54-1.09,1.26-1.1c4.31-0.01,8.62,0.01,12.94-0.03c4.55-0.04,9.09-0.14,13.64-0.19c0.84-0.01,1.67,0.13,2.51,0.13
			c0.79,0,1.62,0.05,2.36-0.16c1.79-0.5,3.28-0.19,4.62,1.13c1.96,1.93,3.97,3.81,5.97,5.71c3.4,3.23,6.82,6.45,10.21,9.7
			c4.07,3.91,8.13,7.83,12.15,11.79c0.69,0.67,1.13,1.51,2.09,1.99c0.66,0.33,0.86,1.34,0.24,2.01c-2.37,2.58-4.71,5.2-7.23,7.62
			c-1.32,1.27-3.04,2.12-4.53,3.23c-2.74,2.04-5.44,4.13-8.18,6.17c-1.62,1.21-3.26,2.4-4.96,3.5c-0.53,0.34-1.28,0.46-1.93,0.46
			c-7.48,0.05-14.95,0.05-22.43,0.07c-0.96,0-1.92,0.08-2.88,0.12C306.51,284.84,306.5,284.77,306.5,284.7z M267.6,271.12
			c0-0.03,0-0.06,0-0.09c3.36,0,6.72,0.01,10.08,0c10.16-0.05,20.31-0.12,30.47-0.18c7.8-0.04,15.59-0.04,23.39-0.11
			c1.78-0.02,3.55-0.33,5.33-0.32c3.08,0.02,6.16,0.22,9.24,0.27c0.95,0.01,1.92-0.15,2.84-0.38c0.89-0.23,1.92-0.44,2.55-1.02
			c1.77-1.66,3.45-3.43,4.98-5.31c0.4-0.49,0.3-1.59,0.08-2.3c-0.18-0.58-0.85-1.01-1.34-1.48c-3.11-3.02-6.23-6.02-9.36-9.03
			c-0.6-0.58-1.2-1.14-1.81-1.7c-1.55-1.42-3.12-2.82-4.64-4.27c-1.88-1.78-3.71-3.61-5.57-5.42c-1.89-1.83-3.88-3.56-5.64-5.49
			c-1.21-1.33-2.59-1.94-4.3-1.93c-1.59,0-3.18,0.07-4.77,0.1c-4.11,0.07-8.22,0.16-12.33,0.2c-4.44,0.05-8.88,0.04-13.31,0.08
			c-1.23,0.01-1.63,0.51-1.18,1.69c0.48,1.26,1.19,2.43,1.8,3.63c0.61,1.2,1.31,2.36,1.81,3.61c0.48,1.17-0.04,1.73-1.32,1.62
			c-0.67-0.06-1.35-0.21-2.02-0.19c-2.2,0.05-4.39,0.23-6.59,0.24c-6.96,0.05-13.92,0.06-20.87,0.08c-10,0.04-20,0.05-30,0.13
			c-5.55,0.04-11.11,0.2-16.66,0.29c-0.43,0.01-0.87-0.14-1.31-0.22c0.09-0.49,0.08-1.04,0.3-1.47c0.76-1.49,1.61-2.93,2.39-4.42
			c1.38-2.64,2.75-5.28,4.07-7.94c1.29-2.6,2.5-5.24,3.76-7.86c0.76-1.57,1.51-3.15,2.3-4.71c1.22-2.43,2.51-4.82,3.7-7.27
			c1.11-2.27,2.11-4.6,3.17-6.89c1.13-2.42,2.33-4.8,3.4-7.24c0.82-1.86,1.27-2.26,3.35-2.3c3.28-0.06,6.56-0.12,9.83-0.17
			c2.91-0.04,5.83-0.08,8.74-0.1c2.44-0.02,4.87-0.02,7.31,0c1.35,0.01,2.19,0.69,2.69,1.97c0.58,1.48,1.45,2.86,1.94,4.37
			c0.62,1.92,1.65,2.58,3.74,2.48c4.87-0.22,9.75-0.1,14.63-0.14c1.3-0.01,1.48-0.39,0.84-1.54c-0.12-0.21-0.25-0.41-0.41-0.58
			c-2.3-2.3-4.62-4.59-6.92-6.9c-2.81-2.82-5.54-5.71-8.44-8.43c-0.74-0.69-1.31-1.78-2.66-1.77c-7.84,0.05-15.67,0.03-23.51,0.06
			c-4.08,0.02-8.16,0.22-12.23,0.07c-1.59-0.06-2.85,0.31-3.89,1.33c-2.01,1.96-3.9,4.03-5.87,6.04c-3.5,3.57-7,7.14-10.52,10.69
			c-0.56,0.56-1.23,1.01-1.77,1.59c-1.29,1.4-2.48,2.88-3.79,4.25c-2.09,2.18-4.26,4.28-6.38,6.43c-1.57,1.59-3.1,3.2-4.66,4.79
			c-1.7,1.73-3.41,3.46-5.1,5.19c-1.89,1.93-3.75,3.89-5.66,5.81c-2.47,2.48-4.98,4.92-7.45,7.41c-2.33,2.35-4.6,4.76-6.94,7.1
			c-1.54,1.54-3.2,2.96-4.73,4.51c-1.68,1.69-3.26,3.48-4.93,5.18c-3.13,3.18-6.3,6.31-9.44,9.48c-1.25,1.26-1.26,1.78-0.12,3.16
			c1.29,1.56,2.68,3.05,3.87,4.69c0.8,1.1,1.77,1.52,3.06,1.51c4.88-0.03,9.76-0.01,14.64-0.07c8.03-0.11,16.07-0.28,24.1-0.4
			c4.84-0.07,9.68-0.11,14.52-0.15c10.48-0.09,20.96-0.18,31.43-0.24C255.52,271.09,261.56,271.12,267.6,271.12z" fill="white"/>
		<path d="M193.92,318.03c0.75-1.58,2.16-1.18,3.34-1.52c0.83-0.24,1.82-0.97,2.13-1.72c1.34-3.19,2.45-6.48,3.64-9.73
			c0.96-2.61,1.92-5.22,2.84-7.85c0.19-0.54,0.28-1.17,0.23-1.73c-0.08-0.79-0.73-0.8-1.37-0.77c-0.16,0.01-0.37-0.15-0.49-0.29
			c-0.65-0.77,0.05-3.13,1.05-3.25c1.69-0.2,3.42-0.28,5.12-0.22c0.33,0.01,0.87,0.88,0.91,1.39c0.25,3.07,0.37,6.14,0.57,9.22
			c0.15,2.42,0.32,4.84,0.53,7.26c0.04,0.43,0.34,0.84,0.51,1.27c0.34-0.28,0.78-0.5,0.99-0.86c3.16-5.31,6.3-10.62,9.41-15.96
			c0.83-1.42,1.64-2.66,3.63-2.47c1.74,0.17,3.51,0.03,5.26,0.16c0.49,0.04,1.32,0.5,1.33,0.81c0.04,0.72-0.29,1.47-0.51,2.2
			c-0.03,0.11-0.25,0.21-0.4,0.24c-2.8,0.65-2.68,3.13-3.11,5.16c-0.73,3.46-1.37,6.94-1.85,10.44c-0.25,1.81-1.13,3.65-0.27,5.51
			c0.22,0.47,0.68,0.94,1.14,1.14c0.72,0.32,1.13,0.71,1.06,1.52c-0.34,3.79-0.01,3.37-3.41,3.61c-3.05,0.21-6.13,0-9.19-0.03
			c-0.24,0-0.48,0.02-0.72-0.01c-0.49-0.06-1.32-0.03-1.39-0.24c-0.18-0.56-0.11-1.24,0.02-1.83c0.17-0.72,0.43-1.44,0.81-2.07
			c0.22-0.36,0.74-0.71,1.14-0.74c2.08-0.14,3.11-1.07,3.51-3.08c0.63-3.14,1.37-6.27,2.03-9.41c0.09-0.41-0.05-0.86-0.08-1.29
			c-0.41,0.26-0.99,0.41-1.21,0.78c-1.44,2.44-2.79,4.94-4.19,7.4c-1.83,3.23-3.75,6.41-5.5,9.69c-0.73,1.38-1.78,0.75-2.7,0.71
			c-0.99-0.05-1.41-0.87-1.45-1.78c-0.06-1.38,0-2.77-0.03-4.16c-0.04-1.94-0.1-3.89-0.22-5.83c-0.02-0.32-0.37-0.88-0.59-0.89
			c-0.35-0.01-0.95,0.26-1.04,0.54c-0.65,2-1.24,4.01-1.72,6.06c-0.06,0.27,0.58,0.91,1,1.06c1.46,0.5,1.77,1.12,1.08,2.52
			c-0.25,0.5-0.54,0.99-0.68,1.52c-0.23,0.91-0.79,1.19-1.67,1.19c-3.02,0.01-6.04,0.1-9.06,0.06c-0.35-0.01-0.84-0.59-1.01-1.01
			c-0.19-0.47-0.09-1.06-0.11-1.6c-0.11-0.03-0.22-0.06-0.32-0.09c-0.16,0.3-0.36,0.59-0.46,0.9c-0.43,1.27-1.25,1.88-2.59,1.88
			c-5.31,0.02-10.62,0.06-15.93,0.05c-0.78,0-1.56-0.21-2.76-0.38c0.92-1.63,1.69-3.08,2.57-4.45c0.18-0.28,0.78-0.37,1.2-0.4
			c1.73-0.15,2.8-1.09,3.56-2.62c1.64-3.32,3.39-6.59,5.07-9.89c1.28-2.51,2.52-5.03,3.81-7.54c0.3-0.59,0.2-1-0.38-1.28
			c-1.04-0.5-1.33-1.34-1.05-2.39c0.26-0.97,1.53-1.83,2.47-1.84c4.15-0.04,8.31-0.12,12.46-0.12c0.66,0,1.82,0.21,1.87,0.5
			c0.16,0.79-0.01,1.71-0.3,2.5c-0.4,1.11-1.02,2.14-1.54,3.2c-0.43,0.89-0.75,1.86-1.31,2.66c-0.24,0.34-0.95,0.5-1.44,0.49
			c-2.53-0.04-2.52-0.07-1.73-2.44c0.18-0.53,0.39-1.07,0.44-1.61c0.04-0.38-0.04-0.94-0.29-1.15c-0.26-0.22-0.86-0.28-1.19-0.14
			c-0.48,0.22-1.01,0.61-1.24,1.06c-0.83,1.64-1.61,3.3-2.28,5.01c-0.45,1.13,0.05,1.66,1.28,1.55c1.08-0.09,1.56,0.58,1.12,1.63
			c-0.3,0.73-0.62,1.46-1.04,2.13c-0.18,0.29-0.6,0.51-0.96,0.58c-0.5,0.11-1.04,0.11-1.55,0.07c-1.28-0.08-2.03,0.6-2.5,1.67
			c-0.86,1.92-1.72,3.85-2.5,5.8c-0.2,0.5-0.12,1.1-0.17,1.66c0.8-0.01,1.7,0.21,2.38-0.09c0.55-0.24,0.9-1.07,1.22-1.69
			c0.47-0.92,0.8-1.91,1.27-2.83c0.66-1.27,3.39-1.9,4.62-1.11c0.64,0.41,0.58,1.38,0.08,2.38c-0.63,1.27-1.14,2.6-1.64,3.93
			c-0.11,0.28,0.02,0.65,0.05,0.99C193.68,317.82,193.8,317.93,193.92,318.03z" fill="white"/>
		<path d="M314.86,320.88c-1.36,0-2.73,0.13-4.07-0.02c-3.64-0.41-6.51-2.18-7.99-5.58c-0.99-2.27-1.51-4.75-2.26-7.13
			c-0.79-2.49-1.6-4.98-2.4-7.47c-0.56-1.75-1.17-3.48-1.63-5.25c-0.34-1.31-0.04-2.48,1.1-3.44c1.71-1.44,3.68-2.04,5.86-2.04
			c1.48,0,2.99-0.1,4.42,0.16c1.3,0.24,2.53,0.88,3.76,1.44c0.79,0.35,1.36,0.51,1.59-0.58c0.16-0.76,0.65-0.96,1.43-0.9
			c1.11,0.09,2.25,0.13,3.35-0.01c1.85-0.23,3.12,0.67,4.3,1.89c1.37,1.41,2.78,2.8,4.14,4.22c1.26,1.33,2.46,2.72,3.73,4.04
			c0.99,1.03,2.04,2.02,3.09,3c0.23,0.22,0.58,0.31,0.88,0.45c0.11-0.4,0.38-0.84,0.29-1.19c-0.15-0.56-0.55-1.05-0.83-1.58
			c-0.76-1.43-1.5-2.88-2.26-4.31c-0.73-1.37-1.55-2.6-3.38-2.64c-0.7-0.01-2.38-2.41-2.15-3.07c0.12-0.34,0.66-0.74,1.03-0.76
			c1.96-0.09,3.92-0.11,5.87-0.08c0.97,0.02,2.75,1.81,2.78,2.77c0.01,0.43-0.16,0.98-0.46,1.27c-0.66,0.67-0.66,1.32-0.25,2.06
			c1.07,1.91,2.15,3.83,3.23,5.74c1.06,1.87,2.11,3.75,3.2,5.61c1.45,2.48,2.93,4.94,4.39,7.41c0.83,1.41,1.69,2.8,2.43,4.25
			c0.2,0.4,0.17,1.02,0.01,1.45c-0.07,0.19-0.76,0.17-1.16,0.18c-0.8,0.03-1.6,0.02-2.4,0.03c-1.28,0.02-2.3-0.49-3.16-1.44
			c-2.09-2.3-4.16-4.63-6.32-6.86c-1.6-1.66-3.34-3.18-5.01-4.77c-0.2-0.19-0.31-0.48-0.53-0.63c-0.45-0.31-1.05-0.88-1.38-0.77
			c-0.82,0.28-0.51,1.06-0.24,1.63c0.57,1.23,1.19,2.44,1.8,3.65c0.51,0.99,0.91,2.07,1.6,2.93c0.54,0.67,1.37,1.27,2.18,1.49
			c1,0.27,1.63,0.76,2.08,1.61c0.33,0.64,0.7,1.26,0.98,1.92c0.28,0.65,0.18,1.28-0.66,1.29c-2.46,0.03-4.93-0.02-7.39-0.03
			c-1.22-0.01-2.07-0.47-2.35-1.76c-0.08-0.38-0.34-0.72-0.52-1.07c-0.47-0.91-0.44-1.65,0.59-2.2c1.03-0.56,1.3-1.46,0.82-2.41
			c-0.94-1.89-1.9-3.76-2.8-5.66c-1.36-2.88-2.66-5.79-4-8.68c-0.55-1.19-1.12-2.38-1.69-3.57c-0.62-1.29-3.07-1.88-4.13-0.95
			c-0.2,0.17-0.3,0.68-0.19,0.93c0.83,1.98,1.73,3.93,2.59,5.91c0.98,2.26,1.93,4.54,2.9,6.8c0.93,2.18,1.8,4.39,2.81,6.53
			c0.67,1.43,0.41,3.16-0.92,4.76c-0.78,0.94-1.69,1.55-2.98,1.45c-0.63-0.05-1.28,0.04-1.92,0.05c-0.6,0.01-1.2,0-1.8,0
			C314.86,320.93,314.86,320.9,314.86,320.88z M313.13,315.73c2.36-0.13,3.1-1.24,2.34-3.54c-0.06-0.19-0.15-0.37-0.22-0.56
			c-0.65-1.67-1.27-3.34-1.94-5c-1.45-3.58-2.88-7.16-4.42-10.7c-0.79-1.81-1.4-2.05-3.39-1.86c-2.17,0.21-2.84,1.29-2.1,3.35
			c0.53,1.46,1.01,2.93,1.52,4.39c0.78,2.25,1.58,4.5,2.33,6.76c0.32,0.97,0.52,1.98,0.86,2.95
			C308.9,313.79,310.16,316.04,313.13,315.73z" fill="white"/>
		<path d="M131.87,310.46c-1.21,1.56-2.16,2.86-3.18,4.1c-1.56,1.9-3.08,3.86-4.79,5.62c-1.15,1.18-2.69,1.81-4.43,1.8
			c-3.84-0.04-7.67-0.03-11.51-0.02c-1.56,0-3.04-0.64-3.58-1.91c-0.69-1.63-0.75-3.57,0.63-5.09c2.11-2.33,4.25-4.62,6.43-6.88
			c2.44-2.53,4.95-4.99,7.41-7.5c1.9-1.93,3.79-3.87,5.67-5.81c2.2-2.27,4.78-3.61,8.04-3.57c3.75,0.04,7.5-0.09,11.25-0.03
			c0.56,0.01,1.45,0.5,1.59,0.96c0.22,0.69,0.19,1.74-0.2,2.31c-1.28,1.81-2.75,3.48-4.19,5.17c-0.29,0.35-0.75,0.72-1.17,0.76
			c-1.4,0.15-2.82,0.29-4.21,0.19c-0.83-0.06-0.88-1.02-0.21-1.79c0.6-0.69,1.16-1.41,1.68-2.15c0.5-0.71,0.28-1.27-0.56-1.4
			c-1.89-0.3-3.67-0.34-5.13,1.37c-1.77,2.08-3.74,3.99-5.61,5.99c-2.14,2.29-4.26,4.59-6.38,6.9c-1.34,1.46-2.71,2.89-3.94,4.43
			c-0.39,0.49-0.53,1.33-0.45,1.97c0.04,0.32,0.8,0.64,1.29,0.79c2.1,0.62,3.74-0.35,5.17-1.73c0.83-0.8,1.63-1.66,2.29-2.6
			c1.19-1.71,2.88-2.15,4.79-2.11C129.54,310.24,130.5,310.36,131.87,310.46z" fill="white"/>
		<path d="M179.25,291.02c1.48,0,2.95,0.05,4.43-0.01c1.21-0.05,1.53,0.38,1.34,1.55c-0.22,1.39-1.13,2.1-2.28,2.29
			c-2.12,0.36-3.13,1.87-4.04,3.5c-1.85,3.31-3.61,6.66-5.44,9.98c-2.3,4.14-4.66,8.26-6.96,12.4c-0.5,0.9-1.14,1.18-2.14,1.14
			c-2.77-0.12-2.94,0.24-2.53-2.79c0.44-3.27,1.15-6.5,1.76-9.75c0.32-1.71,0.7-3.42,0.98-5.13c0.05-0.33-0.21-0.71-0.33-1.07
			c-0.39,0.13-0.92,0.15-1.14,0.42c-0.68,0.84-1.25,1.75-1.83,2.66c-1.83,2.89-3.64,5.79-5.46,8.67c-0.55,0.87-0.61,1.52,0.54,1.96
			c0.25,0.1,0.52,0.82,0.41,1.11c-0.44,1.15-0.99,2.27-1.61,3.33c-0.17,0.3-0.73,0.51-1.12,0.52c-2.99,0.08-5.98,0.12-8.97,0.1
			c-0.4,0-1.09-0.32-1.14-0.58c-0.07-0.46,0.14-1.05,0.42-1.47c0.47-0.72,1.05-1.4,1.65-2.02c0.36-0.38,0.88-0.89,1.31-0.87
			c2.68,0.12,3.85-1.87,5.1-3.62c1.91-2.68,3.61-5.51,5.44-8.24c1.86-2.77,3.75-5.52,5.65-8.27c0.42-0.61,0.36-1.06-0.16-1.58
			c-1-1.01-0.95-1.47,0.13-2.4c0.09-0.08,0.25-0.15,0.26-0.24c0.26-1.78,1.62-1.39,2.77-1.41c1.2-0.02,2.4-0.05,3.59-0.03
			c1.6,0.03,1.87,0.24,1.65,1.85c-0.29,2.11-0.83,4.19-1.17,6.3c-0.26,1.6-0.42,3.22-0.56,4.84c-0.02,0.25,0.22,0.61,0.44,0.74
			c0.13,0.08,0.48-0.16,0.7-0.31c0.16-0.11,0.3-0.27,0.4-0.44c1.29-2.24,2.61-4.47,3.85-6.75c0.76-1.4,0.37-2.06-1.21-2.27
			c-0.89-0.12-1.2-1.4-0.52-2.45c0.59-0.9,1.23-1.74,2.57-1.6c1.07,0.11,2.15,0.02,3.23,0.02
			C179.25,291.08,179.25,291.05,179.25,291.02z" fill="white"/>
		<path d="M284.11,320.99c-1.6,0-3.2,0.02-4.79-0.02c-0.32-0.01-0.73-0.18-0.93-0.41c-0.92-1.05-0.64-3.7,0.48-4.51
			c1.25-0.91,1.58-2.06,1.31-3.56c-0.67-3.68-1.22-7.39-1.88-11.08c-0.35-2-0.76-4-1.28-5.97c-0.11-0.43-0.76-0.86-1.25-1.02
			c-1.37-0.45-2.29-2.55-1.46-3.73c0.21-0.3,0.81-0.44,1.23-0.44c2.9-0.02,5.81-0.11,8.7,0.09c1.88,0.13,3.75,0.63,5.6,1.1
			c0.45,0.11,0.89,0.68,1.14,1.14c1.46,2.69,2.58,5.49,2.09,8.65c-0.07,0.48-0.29,0.99-0.58,1.38c-0.6,0.79-0.52,1.46,0.17,2.11
			c0.12,0.11,0.23,0.23,0.37,0.31c2.13,1.18,2.89,3.18,3.34,5.41c0.25,1.21,0.68,2.38,1.03,3.56c0.34,1.14,1.1,1.77,2.27,2.04
			c1.73,0.4,2.96,2.55,2.28,3.96c-0.19,0.4-0.72,0.88-1.11,0.89c-1.83,0.05-3.82,0.38-5.44-0.22c-1.29-0.48-2.55-2-3.1-3.35
			c-1.02-2.52-1.53-5.25-2.21-7.9c-0.48-1.87-2.8-3.12-4.53-2.29c-0.31,0.15-0.64,0.79-0.58,1.12c0.39,2.07,0.73,4.17,1.44,6.14
			c0.32,0.88,1.4,1.54,2.24,2.14c0.86,0.62,2,2.76,1.58,3.69c-0.17,0.39-0.94,0.68-1.45,0.71c-1.55,0.09-3.11,0.03-4.67,0.03
			C284.11,320.96,284.11,320.97,284.11,320.99z M282.43,296.14c0.41,1.82,0.86,3.64,1.23,5.47c0.22,1.09,0.88,1.33,1.84,1.15
			c1.29-0.25,2.36-1.57,2.17-3.17c-0.16-1.43-0.7-2.83-1.15-4.22c-0.3-0.91-1.52-1.26-3.01-1.02
			C282.41,294.53,282.59,295.37,282.43,296.14z" fill="white"/>
		<path d="M392.39,297.84c-1.85,1.25-4.7,0.89-5.99-0.6c-0.68-0.78-1.38-1.54-2.09-2.29c-1.64-1.75-3.72-2.15-5.93-1.66
			c-0.69,0.15-1.61,0.87-1.74,1.47c-0.13,0.62,0.41,1.67,0.99,2.06c1.1,0.75,2.4,1.26,3.67,1.7c1.53,0.53,3.16,0.78,4.68,1.34
			c1.81,0.67,3.55,1.55,5.32,2.32c0.36,0.16,0.75,0.27,1.12,0.38c4.07,1.23,8.01,2.71,10.98,5.92c1.42,1.53,2.95,2.96,3.77,5
			c0.96,2.37-0.68,6.07-3.24,6.26c-4,0.3-8.12,1.05-12.01-0.28c-1.95-0.66-3.76-2.09-5.3-3.53c-1.75-1.65-3.13-3.7-4.65-5.59
			c-0.2-0.25-0.28-0.61-0.41-0.92c0.32-0.11,0.63-0.29,0.96-0.31c1.15-0.08,2.33-0.26,3.46-0.09c0.79,0.12,1.62,0.6,2.22,1.16
			c1.07,1,1.86,2.3,2.97,3.24c1.91,1.64,4.15,2.49,6.74,2.05c1.88-0.32,2.62-2.01,1.4-3.46c-1.53-1.82-3.41-3.17-5.75-3.89
			c-2.89-0.89-5.74-1.9-8.59-2.91c-2.25-0.8-4.47-1.69-6.72-2.51c-3.43-1.25-6.04-3.51-7.97-6.55c-1.09-1.72-0.72-4.09,0.75-5.5
			c0.17-0.16,0.38-0.33,0.6-0.37c1.73-0.28,3.51-0.91,5.18-0.7c2.29,0.28,4.44-0.23,6.65-0.45c1.14-0.11,1.66-0.01,2.23,1.21
			c0.68,1.45,2,2.62,3.12,3.85C389.96,295.45,391.19,296.61,392.39,297.84z" fill="white"/>
		<path d="M247.93,321.48c-1.35,0-2.71,0.06-4.05-0.04c-0.41-0.03-0.97-0.41-1.15-0.78c-0.69-1.38-0.2-3.13,1.09-4.34
			c1.78-1.69,2.07-3.17,0.99-5.33c-0.75-1.49-2.17-0.93-3.32-0.94c-0.97-0.02-2.04,0.19-2.39,1.41c-0.25,0.88-0.5,1.76-0.76,2.64
			c-0.43,1.46,0.15,2.29,1.65,2.51c0.35,0.05,0.94,0.44,0.93,0.62c-0.1,1.13-0.3,2.25-0.57,3.35c-0.07,0.27-0.49,0.55-0.8,0.64
			c-2.71,0.77-5.46,0.39-8.21,0.22c-0.15-0.01-0.31-0.1-0.42-0.2c-0.9-0.79-0.38-4.26,0.78-4.51c2.78-0.61,3.43-2.81,4.1-5.07
			c0.6-2.05,1.28-4.08,1.87-6.13c0.92-3.19,1.78-6.4,2.68-9.6c0.17-0.61,0.06-1.01-0.58-1.35c-1.33-0.69-0.55-1.93-0.56-2.92
			c-0.01-0.9,0.79-0.98,1.5-0.98c1.83-0.01,3.66,0.03,5.49,0c1.03-0.02,1.37,0.56,1.55,1.45c0.88,4.44,1.82,8.87,2.68,13.32
			c0.51,2.62,0.89,5.26,1.34,7.89c0.25,1.45,0.9,2.56,2.35,3.19c0.46,0.2,0.77,0.88,1.02,1.4c0.14,0.29,0.05,0.71,0.04,1.07
			c-0.08,2.18-0.51,2.55-2.68,2.4c-0.75-0.05-1.51,0.02-2.26,0.02c-0.76,0.01-1.52,0-2.28,0
			C247.93,321.43,247.93,321.45,247.93,321.48z M243.11,301.91c-0.22-0.03-0.44-0.05-0.66-0.08c-0.36,0.73-0.87,1.44-1.02,2.22
			c-0.07,0.38,0.52,0.89,0.81,1.34c0.44-0.36,1.22-0.69,1.26-1.09C243.6,303.53,243.27,302.71,243.11,301.91z" fill="white"/>
		<path d="M265.41,300.97c0.38,4.35,0.74,8.61,1.12,12.87c0.12,1.33,1,2.28,2.23,2.64c0.36,0.11,0.88,0.45,0.93,0.75
			c0.17,1.01,0.27,2.06,0.16,3.07c-0.04,0.32-0.82,0.77-1.27,0.78c-2.68,0.06-5.35,0.02-8.03-0.01c-1.13-0.01-2.28,0.04-3.4-0.12
			c-0.42-0.06-1.03-0.6-1.09-0.99c-0.14-0.89-0.04-1.83,0.08-2.73c0.04-0.26,0.43-0.59,0.72-0.69c1.82-0.62,2.58-1.56,2.57-3.49
			c-0.02-3.28-0.1-6.56-0.14-9.83c-0.03-2.31-0.03-4.63-0.07-6.94c-0.02-0.86-0.13-1.69-1.25-1.88c-1.12-0.19-2.07,0.06-2.48,1.15
			c-0.31,0.83-0.45,1.78-0.44,2.67c0.01,1.01-0.32,1.49-1.33,1.56c-1.55,0.1-2.43-0.28-2.39-1.3c0.08-2.35,0.25-4.71,0.53-7.04
			c0.05-0.41,0.84-1.01,1.32-1.04c1.82-0.12,3.66-0.03,5.49-0.03c1.24,0,2.47-0.01,3.71-0.03c0.32,0,0.64-0.07,0.96-0.07
			c2.27,0,4.53,0,6.8,0c1.78,0,2.73,0.89,2.88,2.65c0.15,1.83,0.31,3.65,0.45,5.48c0.02,0.23-0.01,0.64-0.09,0.66
			c-0.86,0.22-1.74,0.55-2.6,0.49c-0.44-0.03-0.99-0.68-1.22-1.18c-0.32-0.71-0.29-1.59-0.59-2.31c-0.24-0.58-0.66-1.29-1.18-1.5
			c-1.67-0.68-2.37-0.11-2.36,1.7C265.41,297.86,265.41,299.46,265.41,300.97z" fill="white"/>
		<path d="M375.89,320.7c-3.59-0.38-6.76-0.44-9.41-2.36c-0.75-0.54-1.36-1.33-1.9-2.09c-2.16-3.06-4.28-6.14-6.38-9.23
			c-1.67-2.47-3.27-4.99-4.95-7.46c-1.01-1.48-2.1-2.91-3.13-4.37c-1.4-1.96-0.94-3.3,1.15-4.4c1.62-0.85,3.24-1.01,4.97-0.8
			c0.32,0.04,0.66,0.07,0.96,0c2.98-0.77,4.97,0.75,6.71,2.86c1.16,1.4,2.34,2.79,3.47,4.22c0.24,0.31,0.49,0.87,0.36,1.14
			c-0.13,0.28-0.71,0.45-1.11,0.47c-1.47,0.06-2.83-0.07-3.63-1.68c-0.45-0.91-1.23-1.66-1.93-2.42c-0.43-0.46-0.94-0.89-1.5-1.17
			c-1-0.5-1.99-0.26-2.76,0.5c-0.73,0.72-0.66,1.64-0.12,2.42c0.97,1.41,2.03,2.75,3.04,4.13c2.22,3.03,4.38,6.09,6.65,9.08
			c1.39,1.84,2.9,3.59,4.41,5.33c0.67,0.78,3.26,1.02,4.06,0.42c0.91-0.68,0.55-1.62,0.2-2.39c-0.38-0.82-0.97-1.55-1.52-2.28
			c-0.6-0.81-0.5-1.21,0.52-1.36c1.73-0.26,3.41-0.39,4.55,1.43c0.97,1.55,2.22,2.94,3.07,4.54c1.05,1.96-0.14,4.22-2.3,4.74
			C378.07,320.25,376.76,320.51,375.89,320.7z" fill="white"/>
		<path d="M133.04,322.1c-2.16,0-4.31,0.03-6.47-0.03c-0.4-0.01-1.04-0.3-1.13-0.6c-0.13-0.41,0.02-1.03,0.27-1.42
			c0.62-0.95,1.3-1.87,2.09-2.68c0.37-0.38,1.05-0.7,1.57-0.67c2.27,0.14,3.68-1.27,4.92-2.75c2.62-3.11,5.11-6.33,7.61-9.55
			c1.68-2.16,3.28-4.37,4.92-6.55c0.19-0.25,0.45-0.45,0.69-0.66c1.03-0.93,1.02-1.27-0.11-2.09c-0.55-0.4-0.35-1.63,0.28-2.33
			c1.04-1.17,2.24-1.66,3.86-1.6c3.19,0.11,6.39-0.03,9.59-0.02c0.36,0,0.96,0.16,1.02,0.37c0.09,0.34-0.09,0.81-0.29,1.16
			c-0.88,1.52-2.12,2.43-3.98,2.39c-1.38-0.03-2.35,0.44-3.21,1.76c-1.95,3-4.25,5.77-6.38,8.65c-1.94,2.63-3.85,5.28-5.78,7.92
			c-0.63,0.86-1.07,1.78-0.28,2.72c0.29,0.35,0.82,0.6,1.28,0.67c0.72,0.11,0.82,0.49,0.55,0.99c-0.36,0.66-0.83,1.25-1.27,1.86
			c-0.16,0.22-0.5,0.39-0.53,0.62c-0.26,1.66-1.61,1.6-2.74,1.65c-2.16,0.09-4.32,0.03-6.48,0.03
			C133.04,321.98,133.04,322.04,133.04,322.1z" fill="white"/>
		<path d="M340.63,289.97c1.12,0,2.24,0.02,3.36-0.01c0.98-0.02,1.69,0.29,2.09,1.26c0.16,0.39,0.57,0.68,0.73,1.07
			c0.17,0.4,0.39,1.06,0.21,1.27c-1.25,1.43-0.08,2.5,0.56,3.51c1.96,3.1,4.03,6.12,6.1,9.15c1.62,2.37,3.29,4.7,4.93,7.06
			c0.23,0.33,0.37,0.72,0.63,1.01c0.37,0.41,0.79,1.03,1.24,1.09c1.94,0.25,3.02,1.45,3.85,3.05c1.11,2.1,1.13,2.19-1.19,2.3
			c-2.63,0.12-5.27,0.11-7.9,0.03c-1.19-0.04-2.27-0.48-2.63-1.86c-0.09-0.36-0.39-0.68-0.62-1c-0.62-0.84-0.85-1.65,0.16-2.37
			c0.88-0.63,0.81-1.46,0.33-2.23c-1.84-2.98-3.75-5.93-5.61-8.9c-1.67-2.67-3.35-5.33-4.97-8.04c-0.93-1.56-2.28-2.51-3.96-3.07
			c-0.44-0.14-2.16-2.33-2-2.69c0.14-0.32,0.62-0.67,0.97-0.7c1.23-0.08,2.47-0.03,3.71-0.03
			C340.63,289.91,340.63,289.94,340.63,289.97z" fill="white"/>
		<path d="M285.9,198.67c-1.61,0.02-3.22,0.05-4.82,0.07c-0.6,0.01-1.2-0.04-1.79,0.02c-2.86,0.32-2.7-0.08-3.89-2.32
			c-0.93-1.75-1.79-3.55-2.85-5.23c-0.33-0.53-1.21-1.02-1.83-1.02c-6.64-0.03-13.28,0.02-19.91,0.09
			c-3.31,0.03-6.63,0.17-9.94,0.17c-1.55,0-2.12,1.14-2.71,2.17c-1.45,2.55-2.8,5.17-4.16,7.77c-1.07,2.05-2.08,4.13-3.14,6.18
			c-1.1,2.14-2.27,4.25-3.34,6.41c-1.15,2.34-2.16,4.75-3.34,7.08c-1.64,3.22-3.39,6.39-5.08,9.59c-2.23,4.23-4.44,8.47-6.67,12.69
			c-0.53,1.01-1.12,2-1.69,3c-0.81,1.43-0.4,2.14,1.24,2.14c10.52-0.01,21.04,0,31.55-0.03c7.56-0.02,15.11-0.07,22.67-0.15
			c4.15-0.05,8.29-0.24,12.44-0.27c4.95-0.04,9.89,0.04,14.84,0.02c2.3-0.01,4.61-0.08,6.91-0.26c1.48-0.11,1.91-0.98,1.32-2.34
			c-0.27-0.62-0.66-1.19-0.99-1.78c-1.02-1.8-2.06-3.59-3.04-5.41c-0.18-0.34-0.28-0.92-0.1-1.2c0.15-0.25,0.73-0.26,1.13-0.32
			c0.39-0.06,0.79-0.08,1.19-0.09c1.35-0.03,2.7-0.05,4.05-0.09c0.87-0.03,1.74-0.1,2.62-0.12c1.3-0.03,2.6-0.03,3.9-0.03
			c0.16,0,0.32,0.06,0.47,0.06c2.27-0.1,4.53-0.24,6.8-0.3c1.83-0.05,3.69-0.22,5.47,0.07c0.93,0.15,1.79,1.1,2.55,1.82
			c1.33,1.25,2.56,2.6,3.83,3.91c2.39,2.46,4.76,4.93,7.16,7.36c3.39,3.44,6.82,6.83,10.19,10.28c1.19,1.22,2.28,2.54,3.34,3.87
			c0.23,0.28,0.27,0.85,0.18,1.22c-0.19,0.76-1.94,1.88-2.74,1.88c-6.8,0-13.59-0.01-20.39,0.02c-10.8,0.05-21.6,0.11-32.39,0.22
			c-4.76,0.05-9.51,0.3-14.26,0.35c-17.24,0.18-34.47,0.36-51.71,0.47c-15,0.09-30,0.08-44.99,0.13c-5.68,0.02-11.35,0.1-17.03,0.14
			c-0.72,0-1.47,0.02-2.14-0.18c-0.41-0.12-0.8-0.59-1-1.01c-0.12-0.24,0.07-0.77,0.29-1c2.66-2.83,5.38-5.61,8.03-8.45
			c1.88-2.01,3.61-4.15,5.51-6.14c3.08-3.23,6.27-6.36,9.34-9.6c2.55-2.69,4.97-5.51,7.5-8.22c1.44-1.54,3.02-2.94,4.5-4.43
			c0.7-0.7,1.32-1.48,1.99-2.21c1.94-2.15,3.9-4.3,5.84-6.46c2.37-2.64,4.72-5.3,7.11-7.93c1.2-1.32,2.49-2.55,3.71-3.85
			c1.76-1.85,3.5-3.72,5.23-5.6c2.77-3.02,5.52-6.06,8.29-9.09c1.87-2.05,3.68-4.14,5.64-6.09c0.49-0.49,1.43-0.73,2.18-0.76
			c6.42-0.29,12.85-0.55,19.28-0.73c2.55-0.07,5.11,0.13,7.66,0.12c2.31-0.01,4.63-0.13,6.94-0.23c1.51-0.07,2.52,0.64,3.44,1.78
			c1.13,1.4,2.42,2.65,3.62,3.99c1.87,2.1,3.72,4.23,5.57,6.36c0.25,0.29,0.4,0.66,0.59,1C285.99,198.34,285.95,198.5,285.9,198.67z
			" fill="white"/>
	</g>
</g>
</svg>
