<?xml version="1.0" encoding="utf-8"?>
<!-- Made by Szalik  -->
<svg version="1.1" id="Warstwa_1" xmlns="http://www.w3.org/2000/svg" xmlns:xlink="http://www.w3.org/1999/xlink" x="0px" y="0px" xml:space="preserve">
<g>
	<g>
		<path d="M249.36,337.25c-123.74,0-247.47-0.03-371.21,0.04c-16.42,0.01-28.43-7.18-36.59-21.17c-3.36-5.76-4.5-12.08-4.49-18.71
			c0.03-20.75-0.03-41.5-0.07-62.24c-0.03-14.75-0.08-29.5-0.13-44.24c-0.05-15.45,7.05-26.93,19.59-35.41
			c0.52-0.35,1.07-0.65,1.59-0.99c6.95-4.54,14.46-6.37,22.86-6.36c243.85,0.11,487.69,0.11,731.54-0.03
			c17.68-0.01,30.94,7.33,41.02,21.35c3.46,4.81,5.25,10.12,5.25,16.09c0.01,37.12,0.12,74.24,0.07,111.36
			c-0.02,18.11-11.1,33.47-28.26,39.16c-3,0.99-6.39,1.12-9.59,1.12C497.08,337.26,373.22,337.25,249.36,337.25z M248,173
			c-122.87,0-245.75-0.01-368.62,0.04c-2.85,0-5.75,0.29-8.54,0.86c-4.69,0.95-7.79,3.85-8.86,8.59c-0.44,1.93-0.66,3.95-0.67,5.93
			c-0.18,26.75-0.32,53.49-0.43,80.24c-0.04,9.75,0.04,19.5,0.02,29.25c-0.02,7.85,4.05,13.06,11,15.81
			c3.15,1.24,6.83,1.56,10.27,1.56c37.25,0.1,74.5,0.05,111.75,0.04c114.24-0.01,228.48-0.01,342.72-0.01
			c89.87,0,179.75,0.03,269.62,0.01c4.73,0,9.52,0.04,14.19-0.57c7.94-1.04,13.37-6.43,14.79-14.31c0.53-2.93,0.67-5.96,0.68-8.95
			c0.06-32.62,0.09-65.25,0.08-97.87c0-15.19-5.45-20.63-20.5-20.63C492.99,173,370.49,173,248,173z" fill="white"/>
		<path d="M555.66,292.98c-10.49,0-20.99,0.18-31.48-0.05c-13-0.28-27.36-7.71-30.97-21.08c-0.61-2.27-1.17-4.65-1.2-6.98
			c-0.16-12.37-0.36-24.74-0.12-37.1c0.26-13.28,12.29-25.94,25.63-26.99c8.08-0.64,16.21-0.73,24.32-0.8
			c13.87-0.11,27.74-0.14,41.61,0.07c5.35,0.08,10.77,0.44,16,1.49c11.19,2.26,20.29,13.74,20.37,25.07
			c0.09,12.25-0.68,24.56,0.39,36.72c1.3,14.89-16.07,28.95-27.48,29.08c-6.23,0.07-12.46,0.18-18.69,0.22
			c-6.12,0.04-12.25,0.01-18.37,0.01C555.66,292.77,555.66,292.87,555.66,292.98z M557.45,223.37c0-0.01,0-0.02,0-0.03
			c-6,0-12-0.13-18,0.05c-3.22,0.1-6.47,0.52-9.62,1.22c-6.07,1.34-8.19,4-8.44,10.14c-0.24,5.74-0.31,11.49-0.57,17.23
			c-0.4,8.47,2.4,12.88,10.43,15.55c2.45,0.81,5.12,1.24,7.7,1.28c10.25,0.15,20.5,0.21,30.75,0.02c4.09-0.07,8.2-0.64,12.23-1.37
			c6.18-1.13,10.88-6.59,11.1-12.97c0.19-5.36,0.21-10.76-0.17-16.11c-0.66-9.35-6.54-14.79-15.92-14.98
			C570.45,223.26,563.95,223.37,557.45,223.37z" fill="white"/>
		<path d="M77.08,200c11.62,0,23.24-0.01,34.85,0c11.51,0,20.24,5.04,25.87,14.97c1.66,2.92,2.84,6.52,2.92,9.84
			c0.36,13.86,0.33,27.73,0.18,41.6c-0.03,2.65-0.61,5.63-1.93,7.88c-6.48,11.01-15.64,18-29.04,18.03
			c-21.61,0.04-43.23,0.1-64.84,0.13c-8.17,0.01-15.46-2.69-21.88-7.62c-7.27-5.58-10.32-13.31-10.44-22.25
			c-0.15-10.74,0.42-21.51-0.19-32.22c-0.9-15.8,13.32-30.03,28.9-30.3C53.35,199.84,65.22,200.01,77.08,200z M78.39,222.5
			c-5.49,0-10.99-0.19-16.48,0.06c-4.08,0.18-8.18,0.67-12.18,1.48c-4.98,1.01-7.53,4.47-7.73,9.63c-0.25,6.24-0.7,12.47-0.65,18.7
			c0.02,2.76,0.49,5.82,1.77,8.21c3.45,6.47,9.8,8.08,16.5,8.22c10.36,0.23,20.72,0.37,31.08,0.08c5.14-0.15,10.26-1.28,15.36-2.13
			c1.16-0.19,2.58-0.75,3.23-1.62c2.59-3.5,5.15-7.07,5.05-11.77c-0.09-4.49-0.06-8.99-0.13-13.48
			c-0.19-11.25-6.26-17.3-17.48-17.39C90.62,222.46,84.5,222.5,78.39,222.5z" fill="white"/>
		<path d="M302.41,292.25c-13.62,0-27.24,0.03-40.86-0.01c-9.43-0.03-11.48-1.99-11.45-11.46c0.05-23.87,0.2-47.74,0.37-71.6
			c0.05-6.91,1.67-8.68,8.58-9c5.86-0.27,11.74-0.16,17.61-0.17c21.74-0.01,43.49-0.01,65.23,0c10.52,0,11.2,0.69,11.11,11.24
			c-0.02,2.25-0.19,4.49-0.31,6.74c-0.15,3-1.76,4.59-4.74,4.69c-3.86,0.14-7.72,0.28-11.58,0.3c-16.99,0.1-33.97,0.12-50.96,0.28
			c-4.39,0.04-5.18,0.9-5.32,4.46c-0.19,4.8,1.39,7.08,5.35,7.53c1.73,0.2,3.49,0.22,5.24,0.22c16.49-0.05,32.98-0.13,49.47-0.21
			c5.82-0.03,8.13,1.6,8.8,7.36c0.36,3.13-0.28,6.42-0.76,9.6c-0.35,2.27-2.1,3.26-4.34,3.38c-3.74,0.21-7.48,0.61-11.22,0.62
			c-15.37,0.07-30.74,0.02-46.11,0.04c-5.53,0.01-8.34,5.03-5.44,9.91c0.59,0.99,2.09,1.82,3.28,2c2.7,0.41,5.47,0.5,8.22,0.5
			c17.24-0.01,34.49-0.08,51.73-0.15c7.07-0.03,8.52,1.26,8.72,8.47c0.1,3.36-0.09,6.73-0.25,10.09c-0.15,3.13-1.99,4.77-5.02,5
			c-2.36,0.18-4.74,0.17-7.12,0.17C327.9,292.26,315.15,292.25,302.41,292.25z" fill="white"/>
		<path d="M419.8,292.58c-9.25,0-18.5-0.18-27.74,0.04c-14.24,0.34-23.22-7.58-30.22-18.75c-0.63-1.01-1-2.35-1.04-3.55
			c-0.62-15.22-1.94-30.44-0.22-45.67c1.36-12.03,11.31-22.22,23.47-23.8c4.08-0.53,8.21-0.8,12.32-0.82
			c18.12-0.09,36.24,0.05,54.36-0.07c12.34-0.08,22.43,4.11,29.54,14.56c2.92,4.29,4.29,9,4.21,14.12c-0.06,3.94-1.66,6.01-5.5,6.25
			c-5.34,0.33-10.73,0.31-16.08,0.09c-3.71-0.15-6.62-2.1-8.43-5.45c-2.19-4.06-5.69-5.78-10.16-5.81
			c-13.62-0.1-27.23-0.32-40.85-0.25c-10.39,0.05-15.69,5.23-16.05,15.61c-0.2,5.73-0.08,11.5,0.34,17.22
			c0.58,7.85,5.22,11.93,13,11.94c13.75,0.01,27.49-0.05,41.24,0.03c5.58,0.03,9.92-1.88,12.81-6.85c2.28-3.92,5.89-5.61,10.37-5.51
			c4.37,0.09,8.75,0.14,13.12,0.32c4.19,0.17,5.95,2.05,6.22,6.37c0.69,10.95-6.75,22.85-17.59,26.69
			c-5.43,1.92-11.36,2.98-17.12,3.29c-9.97,0.52-19.98,0.14-29.98,0.14C419.8,292.68,419.8,292.63,419.8,292.58z" fill="white"/>
		<path d="M-54.33,292.25c-10,0-20-0.07-30,0.02c-14.09,0.12-22.8-8.04-29.6-19.12c-0.61-1-0.81-2.38-0.84-3.6
			c-0.27-13.73-0.58-27.47-0.65-41.2c-0.05-9.51,4.1-17.04,11.58-22.87c4.84-3.76,10.49-5.34,16.35-5.4
			c22.49-0.23,44.99-0.3,67.49-0.06c11.81,0.13,20.32,6.48,25.9,16.48c1.86,3.34,2.57,7.54,2.96,11.43c0.44,4.42-1.74,6.46-6.2,6.6
			c-5.12,0.16-10.24,0.13-15.36,0.02c-3.66-0.08-6.49-1.86-8.22-5.07c-2.5-4.65-6.49-6.25-11.49-6.24c-13.75,0.02-27.5-0.03-41.25,0
			c-7.83,0.02-13.81,5.05-14.34,12.9c-0.46,6.83-0.3,13.75,0.24,20.57c0.55,6.94,5.19,11.22,12.19,11.31
			c14.49,0.18,28.99,0.05,43.48-0.14c4.77-0.06,8.67-2.2,11.11-6.52c2.32-4.11,5.95-5.92,10.55-5.88c4.25,0.04,8.5,0.06,12.74,0.28
			c4.61,0.25,6.42,2.22,6.67,6.85c0.53,10.05-6.37,21.65-16.33,25.7c-5.21,2.12-11.02,3.43-16.63,3.75
			c-10.09,0.59-20.24,0.17-30.36,0.17C-54.33,292.27-54.33,292.26-54.33,292.25z" fill="white"/>
		<path d="M195.8,292.25c-12.24,0-24.48,0.01-36.72,0c-8.12-0.01-10.58-2.43-10.58-10.45c-0.01-23.86-0.01-47.71,0.01-71.57
			c0-1.61,0.11-3.26,0.44-4.83c0.61-2.91,2.48-4.61,5.51-4.63c6.37-0.06,12.74-0.1,19.11,0.01c3.28,0.06,4.84,1.96,4.9,5.78
			c0.09,5.87,0.04,11.74,0.02,17.61c-0.04,12.11-0.12,24.23-0.12,36.34c0,5.53,0.77,6.23,6.33,6.23c15.86,0.01,31.72,0,47.59,0
			c1,0,2-0.03,3,0.01c6.27,0.3,7.99,1.78,8.52,8.01c0.3,3.57,0.34,7.2,0,10.76c-0.35,3.66-2.78,5.76-6.45,6.22
			c-2.1,0.26-4.22,0.47-6.33,0.48C219.28,292.27,207.54,292.25,195.8,292.25z" fill="white"/>
	</g>
</g>
</svg>
