<svg id="Warstwa_1" data-name="Warstwa 1" xmlns="http://www.w3.org/2000/svg" viewBox="0 0 240.01 85.23"><title>comad</title><path d="M370.32,257.84v5.76a9.63,9.63,0,0,0-.22,1,29.64,29.64,0,0,1-3.21,10.6c-3.79,7.05-9.4,10.95-17.73,10.85-14.16-.17-28.31,0-42.47,0h-1.58l-.12-2.26h-8.83L296,286H294.4q-33.84,0-67.67,0a5,5,0,0,0-3.17,1c-6.43,4.69-13.54,6.6-21.38,4.55-6.26-1.64-11.14-5.44-15.27-10.3-.66-.78-1.29-1.6-1.95-2.42a30.32,30.32,0,1,1-.52-36.91,3.74,3.74,0,0,0,.36-.45,35.59,35.59,0,0,1,7-7.65c5.84-4.66,12.36-7.06,20-5.89a2,2,0,0,0,1.32-.53c2.84-2.32,5.53-4.85,8.5-7a32.1,32.1,0,0,1,14.7-6.34,1.1,1.1,0,0,0,.73-.71,7.65,7.65,0,0,1,4.63-6.21h2.16c5.75,2.1,5.95,10.2,2.83,13.7a4.85,4.85,0,0,1-7.7,0c-.29-.33-.55-.67-.86-1.05a46.5,46.5,0,0,0-14.81,12.58l7.59,7.75c6.11-6.93,13.69-11.05,23.28-10.41s16.55,5.65,22,13.28C281.39,236,288,231.28,296.74,230s16.37,1.24,23.37,6.92v-3.73c.26,0,.38-.08.49-.08,9.48,0,19-.08,28.44.06a18.6,18.6,0,0,1,12,4.62,25.29,25.29,0,0,1,7.86,12.91C369.5,253,369.84,255.46,370.32,257.84Zm-82.07,14.89h23.34v5.7h9.29V277.2c0-5.23,0-10.47,0-15.71a20.81,20.81,0,0,0-5.24-14.17c-4.1-4.76-9.27-7.49-15.66-7.15-9.68.52-18.45,9.23-18.92,19-.3,6.3-.1,12.62-.13,18.94a1.12,1.12,0,0,0,.12.35h7.19Zm-32.64,5.73V277c0-5.2,0-10.4,0-15.6a4.45,4.45,0,0,1,5.3-4.57c2.19.34,3.66,2.21,3.67,4.76,0,5.12,0,10.24,0,15.36v1.42h6.53v-1.27c0-5.32,0-10.64,0-16a21.71,21.71,0,0,0-6.73-15.89c-5.88-5.8-14-6.86-20.62-2.55a20.89,20.89,0,0,0-10,17.52c-.23,5.83-.06,11.67,0,17.51a3.67,3.67,0,0,0,.09.63h6.41V277c0-5.15,0-10.31,0-15.47a4.47,4.47,0,0,1,5.25-4.65c2.24.32,3.75,2.21,3.76,4.82,0,5.12,0,10.24,0,15.36v1.42Zm-77-23.76a18.88,18.88,0,0,0-20.94-12.88A19.18,19.18,0,0,0,160.18,280c8.62.13,17.89-6.64,18.57-13.67h-1.29c-5.88,0-11.76,0-17.64,0a5.78,5.78,0,1,1,0-11.56c4.12,0,8.24,0,12.36,0Zm25.7-14.1a16,16,0,0,0-6.47,3.08c-9.53,7.44-10.29,22.87-1.56,31.38a16.31,16.31,0,0,0,23.11.23c8.32-7.8,8.45-22.16.27-30.21-.39-.37-.8-.72-1.38-1.24-.27,1.94-.51,3.6-.77,5.34l-7.1-2.12-7.14-2.13Zm124.94,37.9c4.51,0,8.91,0,13.3,0a26,26,0,0,0,3.95-.14A17.28,17.28,0,0,0,361.2,258c-1.39-8.32-9.1-15.51-17.65-15.12-4.31.19-8.64,0-13,0h-1.31Zm-94.94-60.25c-6.69.52-21.58,14.16-24.85,22.54l4.5,1.43a37.29,37.29,0,0,1,7.85-13.66A69.21,69.21,0,0,1,234.34,218.25Z" transform="translate(-130.31 -207.2)" fill="white"/><path d="M311.55,266.53H288.21c.33-5.24,1.12-10.22,5.25-13.94,3.75-3.38,12.51-3.86,16,3.09A21.46,21.46,0,0,1,311.55,266.53Z" transform="translate(-130.31 -207.2)" fill="white"/><path d="M199.35,260.34a8.4,8.4,0,1,1,16.8-.08,8.4,8.4,0,1,1-16.8.08Z" transform="translate(-130.31 -207.2)" fill="white"/><path d="M337.26,253.27c3.57,0,7.08-.08,10.58,0a4.68,4.68,0,0,1,3.49,2.31,10.4,10.4,0,0,1,0,11.61A6.92,6.92,0,0,1,347,270a8.89,8.89,0,0,1-1.79.13h-7.94Z" transform="translate(-130.31 -207.2)" fill="white"/></svg>