<?xml version="1.0" encoding="utf-8"?>
<svg version="1.1" viewBox="0 0 3839 1089.9" xmlns="http://www.w3.org/2000/svg">
  <path class="st0" d="M 807.1 897.9 L 788.8 897.9 L 788.8 935.1 L 807.3 935.1 C 821.2 935.1 829.6 927.9 829.6 916.8 L 829.6 916.4 C 829.6 904.4 821.2 897.9 807.1 897.9 Z" style="fill: rgb(255, 255, 255);"/>
  <polygon class="st0" points="1180.5 950.3 1212 950.3 1196.4 910.3" style="fill: rgb(255, 255, 255);"/>
  <path class="st0" d="M 3026.3 876.4 C 3024.7 875.8 3022.4 875.1 3019.3 874.4 L 3019.2 874.4 C 3013.9 873.2 3008.5 873.2 3003.3 874.4 L 3003.2 874.4 C 3000.1 875.1 2997.8 875.7 2996.2 876.4 C 2993.6 877.5 2992 878.9 2991.1 880.6 C 2990.2 882.3 2989.8 884.3 2989.8 886.5 L 2989.8 986.2 C 2989.8 988.7 2990.2 990.8 2991.1 992.4 C 2992 994 2993.7 995.3 2996.1 996.3 C 2997.4 996.8 2999.8 997.2 3003.3 997.5 L 3003.4 997.5 C 3008.5 997.9 3013.7 997.9 3018.9 997.5 L 3019 997.5 C 3022.5 997.2 3024.9 996.8 3026.2 996.3 C 3028.6 995.3 3030.3 994 3031.2 992.4 C 3032.1 990.8 3032.5 988.7 3032.5 986.2 L 3032.7 986.2 L 3032.7 886.5 C 3032.7 884.3 3032.3 882.3 3031.4 880.6 C 3030.5 878.8 3028.8 877.5 3026.3 876.4 Z" style="fill: rgb(255, 255, 255);"/>
  <path class="st0" d="M 3374.9 781.1 L 464 781.1 C 378.7 781.1 309.6 850.2 309.6 935.5 C 309.6 1020.8 378.7 1089.9 464 1089.9 L 3374.9 1089.9 C 3460.2 1089.9 3529.3 1020.8 3529.3 935.5 C 3529.3 850.2 3460.2 781.1 3374.9 781.1 Z M 868.6 915 C 868.6 948.1 843.1 965.6 808.1 965.6 L 788.8 965.6 L 788.8 1005.8 L 749.8 1005.8 L 749.8 865.2 L 749.9 865.2 L 810.2 865.2 C 845.7 865.2 868.6 883.5 868.6 914.6 L 868.6 915 Z M 1052.4 1005.7 L 945.4 1005.7 L 945.4 865.2 L 984.3 865.2 L 984.3 971.6 L 1052.4 971.6 L 1052.4 1005.7 Z M 1233.5 1005.8 L 1223.3 980.7 L 1169.1 980.7 L 1159.1 1005.8 L 1118.1 1005.8 L 1177.8 864.2 L 1215.4 864.2 L 1275.3 1005.8 L 1233.5 1005.8 Z M 1406.8 952.6 L 1406.8 1005.8 L 1367.6 1005.8 L 1367.6 953.2 L 1314.2 865.2 L 1358.6 865.2 L 1387.5 916.4 L 1416.6 865.2 L 1460.2 865.2 L 1406.8 952.6 Z M 1760.3 962.4 C 1760.3 991.1 1737.6 1008.2 1703.5 1008.2 C 1678.7 1008.2 1655 1000.4 1637.7 984.9 L 1659.4 959 C 1673.3 970 1688.7 975.9 1705 975.9 C 1715.4 975.9 1721.1 972.3 1721.1 966.3 L 1721.1 965.9 C 1721.1 960.1 1716.5 956.9 1697.4 952.4 C 1667.5 945.6 1644.4 937.1 1644.4 908.2 L 1644.4 907.8 C 1644.4 881.7 1665.1 862.8 1698.8 862.8 C 1722.7 862.8 1741.4 869.2 1756.6 881.5 L 1737.1 909 C 1724.2 900 1710.2 895.1 1697.7 895.1 C 1688.3 895.1 1683.6 899.1 1683.6 904.1 L 1683.6 904.5 C 1683.6 910.9 1688.4 913.7 1707.9 918.2 C 1740.2 925.2 1760.3 935.7 1760.3 962 L 1760.3 962.4 Z M 1913.3 952.6 L 1913.3 1005.8 L 1874.1 1005.8 L 1874.1 953.2 L 1820.7 865.2 L 1865.1 865.2 L 1894 916.4 L 1923.1 865.2 L 1966.7 865.2 L 1913.3 952.6 Z M 2144 962.4 C 2144 991.1 2121.3 1008.2 2087.2 1008.2 C 2062.4 1008.2 2038.7 1000.4 2021.4 984.9 L 2043.1 959 C 2057 970 2072.4 975.9 2088.7 975.9 C 2099.1 975.9 2104.8 972.3 2104.8 966.3 L 2104.8 965.9 C 2104.8 960.1 2100.2 956.9 2081.1 952.4 C 2051.2 945.6 2028.1 937.1 2028.1 908.2 L 2028.1 907.8 C 2028.1 881.7 2048.8 862.8 2082.5 862.8 C 2106.4 862.8 2125.1 869.2 2140.3 881.5 L 2120.8 909 C 2107.9 900 2093.9 895.1 2081.4 895.1 C 2072 895.1 2067.3 899.1 2067.3 904.1 L 2067.3 904.5 C 2067.3 910.9 2072.1 913.7 2091.6 918.2 C 2123.9 925.2 2144 935.7 2144 962 L 2144 962.4 Z M 2334.6 899.3 L 2292.4 899.3 L 2292.4 1005.7 L 2253.4 1005.7 L 2253.4 899.3 L 2211.3 899.3 L 2211.3 865.2 L 2334.6 865.2 L 2334.6 899.3 Z M 2526 1005.7 L 2411.9 1005.7 L 2411.9 865.2 L 2412 865.2 L 2525.1 865.2 L 2525.1 898.3 L 2450.5 898.3 L 2450.5 919.6 L 2518 919.6 L 2518 950.3 L 2450.5 950.3 L 2450.5 972.6 L 2526 972.6 L 2526 1005.7 Z M 2755.5 1005.8 L 2716.7 1005.8 L 2716.7 925 L 2680.7 980 L 2679.9 980 L 2644.2 925.4 L 2644.2 1005.7 L 2606 1005.7 L 2606 865.2 L 2606.1 865.2 L 2647.3 865.2 L 2680.8 919.6 L 2714.3 865.2 L 2755.5 865.2 L 2755.5 1005.8 Z M 3089 1005.7 L 3050 1005.7 L 3011 1005.7 L 2972 1005.7 L 2933 1005.7 L 2933 998 C 2934.8 997.9 2937.4 997.7 2940.9 997.4 C 2944.4 997.1 2946.8 996.7 2948.1 996.2 C 2950.5 995.2 2952.2 993.9 2953.1 992.3 C 2954 990.7 2954.4 988.6 2954.4 986.1 L 2954.4 886.4 C 2954.4 884.2 2954 882.2 2953.1 880.5 C 2952.2 878.7 2950.5 877.4 2948 876.3 C 2946.4 875.7 2944.1 875 2941 874.3 C 2937.9 873.6 2935.2 873.2 2933 872.9 L 2933 865.2 L 2972 865.2 L 3011 865.2 L 3050 865.2 L 3089 865.2 L 3089 872.9 C 3086.8 873.1 3084.1 873.6 3081 874.3 C 3077.9 875 3075.6 875.6 3074 876.3 C 3071.4 877.4 3069.8 878.8 3068.9 880.5 C 3068.1 882.3 3067.7 884.2 3067.6 886.4 L 3067.6 986.1 C 3067.6 988.6 3068 990.7 3068.9 992.3 C 3069.8 993.9 3071.5 995.2 3073.9 996.2 C 3075.2 996.7 3077.6 997.1 3081.1 997.4 C 3084.6 997.7 3087.2 997.9 3089 998 L 3089 1005.7 Z" style="fill: rgb(255, 255, 255);"/>
  <path class="st1" d="M 3838.3 533 L 3815.3 534.6 C 3814.2 534.7 3811.2 534.4 3809.8 533.2 C 3806.7 530.5 3804.7 526 3803.4 519.5 L 3758.2 230.6 C 3756 216.6 3757.1 213.1 3774.3 204.8 L 3786.4 198.9 L 3786.4 17.8 L 3425.5 17.8 L 3414 57 L 3398.6 17.8 L 3049.3 17.8 L 3049.3 127.1 C 2979.2 46.5 2873.5 0 2755.3 0 C 2633.2 0 2518.7 45.4 2443.2 122.5 C 2379.9 42.8 2280.3 0.8 2153.5 0.8 C 2036.8 0.8 1939.3 46.1 1863.3 135.7 C 1812.4 54.4 1753.9 17.8 1600 17.8 L 1253.5 17.8 L 1253.5 188.9 L 1253.7 205 L 1269.1 209.5 C 1271.3 210.1 1275.6 211.9 1279.2 214.3 C 1282.2 216.3 1284.2 219.5 1284.6 223.1 C 1284.8 224.6 1284.9 226.5 1284.9 228.8 C 1284.9 234.8 1284.5 383.2 1284.3 477.5 L 1106.8 17.8 L 845.3 17.8 L 678.8 458.8 L 678.8 434.8 L 513.1 434.8 L 497.8 435 L 492.8 449.4 C 491.5 453.2 478.3 486.9 431.9 486.9 C 379.3 486.9 321 443.4 317.3 347.8 C 315.5 300 341.2 269.4 363.7 257.7 C 367.5 255.7 371.1 254.2 374.2 253.2 C 384.2 249.7 393.8 259.3 390.3 269.3 C 388.7 273.8 385.5 279.2 379.8 285.6 L 360.8 303.8 L 516.1 410.8 L 718.6 196 L 711.7 182.5 C 707.9 175.2 616.8 2.5 387.9 2.5 C 163.1 2.5 0 161 0 379.3 C 0 583.9 183.8 744.1 418.3 744.1 L 1628.1 744.1 L 1628 561.4 L 1610.2 558.3 C 1608 557.9 1605.7 557.4 1603.4 556.8 C 1687.7 534.6 1762.8 491.1 1804.6 460.7 C 1860.7 634 2020.6 744.2 2221.1 744.2 L 2459.3 744.2 L 2459.3 652.8 C 2510.8 695.2 2612.3 761.2 2745.1 761.2 C 2847.5 761.2 2933.4 714.9 2979.2 684.1 L 2979.2 744.6 L 3327.7 744.6 L 3327.7 618.3 L 3471 618.3 L 3471 744.1 L 3839 744.1 L 3839 556 L 3838.3 533 Z M 3817.5 722.6 L 3492.5 722.6 L 3492.5 596.8 L 3306.3 596.8 L 3306.3 722.9 L 3000.7 722.9 L 3000.7 641 C 3000.7 641 2889 739.6 2745.1 739.6 C 2560.9 739.6 2437.9 603.6 2437.9 603.6 L 2437.9 722.6 C 2437.9 722.6 2424.4 722.6 2221.2 722.6 C 2028.4 722.6 1862.8 616.6 1816.6 423.5 C 1794.7 444.5 1698.1 513.8 1582.1 539.9 C 1573.1 541.9 1568.6 545.4 1568.6 555.2 C 1568.6 573.1 1606.7 579.5 1606.7 579.5 L 1606.7 722.7 C 1606.7 722.7 604.6 722.7 418.3 722.7 C 198.2 722.7 21.4 571.4 21.4 379.4 C 21.4 187.4 159.3 24 387.8 24 C 606.2 24 692.5 192.3 692.5 192.3 L 513.1 382.7 L 394.6 301 C 394.6 301 433.5 263.6 398 236.4 C 370.2 215.2 292.5 260.2 295.8 348.6 C 299.7 450.5 362.5 508.3 431.9 508.3 C 496.2 508.3 513.1 456.2 513.1 456.2 L 657.4 456.2 L 657.4 576.3 L 860.2 39.3 L 1092.1 39.3 L 1278.3 522 C 1278.3 522 1291.8 547.5 1305.4 554.3 C 1305.4 554.3 1306.2 237.6 1306.2 228.7 C 1306.2 219.8 1305 210 1299.5 203.7 C 1290.4 193.2 1275 188.8 1275 188.8 L 1275 39.3 C 1275 39.3 1489.9 39.3 1600 39.3 C 1768.5 39.3 1811.8 85.2 1860.7 173.6 C 1928.2 82.4 2021.1 22.3 2153.6 22.3 C 2290 22.3 2386.4 72.7 2441.4 156.6 C 2518.3 64.3 2642.2 21.5 2755.4 21.5 C 2894.6 21.5 3011 89.2 3071.1 194 L 3071.1 39.3 L 3384.3 39.3 L 3417.3 123.4 L 3441.9 39.3 L 3765.2 39.3 L 3765.2 185.5 C 3742.3 196.6 3733.1 207.8 3737.2 234 L 3782.4 522.9 C 3784.3 532.3 3787.6 542.1 3795.6 549.3 C 3805 557.7 3817.6 556.1 3817.6 556.1 L 3817.6 722.6 Z" style="fill: rgb(255, 255, 255);"/>
  <path class="st1" d="M 903.3 103.8 L 1048.1 103.8 L 1224.2 566.2 C 1229.3 578.9 1237.7 590.8 1246.2 601.1 C 1254.6 611.3 1275 618.1 1275 618.1 L 1275 658 L 1062.5 658 L 1062.5 617.2 C 1062.5 617.2 1076 618.9 1082.8 607 C 1089.6 595.1 1089.6 585.7 1084.5 573.8 C 1079.4 561.9 1043.9 467.5 1043.9 467.5 L 870.3 467.5 C 870.3 467.5 834.7 562.7 831.3 571.2 C 827.9 579.7 827.9 593.3 831.3 601.8 C 837 616 856.8 618 856.8 618 L 856.8 658 L 686.7 658 L 686.7 618 C 686.7 618 702.2 612.7 713.7 601 C 726.4 588.2 730.7 574.6 730.7 574.6 L 903.3 103.8 M 899.1 380.9 L 1010.8 380.9 L 953.3 219.4 L 899.1 380.9 Z" style="fill: rgb(255, 255, 255);"/>
  <path class="st1" d="M 1342.6 103.8 C 1342.6 103.8 1513.6 103.8 1613.4 103.8 C 1713.3 103.8 1813.2 139.5 1813.2 255.1 C 1813.2 370.7 1740.4 411.4 1677.8 440.3 C 1605.5 473.7 1510.2 499.8 1510.2 499.8 L 1510.2 588.1 C 1510.2 588.1 1511 594.1 1519.5 604.3 C 1527.9 614.5 1537.3 617 1537.3 617 L 1537.3 658 L 1340.9 658 L 1340.9 618 C 1340.9 618 1352.8 615.4 1361.2 607 C 1369.7 598.5 1371.4 588.3 1371.4 588.3 L 1371.4 188.8 C 1371.4 188.8 1372.2 171.8 1365.4 165 C 1358.6 158.2 1342.6 148.9 1342.6 148.9 L 1342.6 103.8 M 1511.9 187.1 L 1511.9 423.4 C 1511.9 423.4 1671 357.1 1671 263.6 C 1671.1 148 1511.9 187.1 1511.9 187.1 Z" style="fill: rgb(255, 255, 255);"/>
  <path class="st1" d="M 2742.6 673.9 C 2559.8 673.9 2428.3 539.8 2428.3 376.7 C 2428.3 213.6 2563.2 87 2742.6 87 C 2922.1 87 3056.9 213.5 3056.9 376.7 C 3056.9 539.9 2925.5 673.9 2742.6 673.9 M 2580.1 379.3 C 2580.1 542.5 2663 583.3 2742.6 583.3 C 2822.1 583.3 2906.8 532.3 2906.8 379.3 C 2906.8 226.3 2812 175.3 2742.6 175.3 C 2673.2 175.3 2580.1 216.1 2580.1 379.3 Z" style="fill: rgb(255, 255, 255);"/>
  <path class="st1" d="M 3138.7 104.2 L 3340.2 104.2 L 3413 329.9 L 3490.8 103.8 L 3701.6 103.8 L 3701.6 137 C 3701.6 137 3687.6 142.9 3681.3 150.6 C 3673.7 159.9 3673.7 166.8 3675.4 180.4 C 3677.1 194 3731.2 562.8 3732.9 576.4 C 3734.6 590.1 3736.3 597.7 3739.7 607 C 3743 616.3 3759.1 624 3759.1 624 L 3759.1 658.3 L 3556.8 658.3 L 3556.8 621.5 C 3556.8 621.5 3574.6 618.9 3580.5 610.4 C 3586.5 601.9 3589 596.8 3587.3 583.2 C 3585.6 569.6 3537.4 260.2 3537.4 260.2 L 3449.4 533.9 L 3342.8 533.9 L 3255.6 277.2 L 3211.6 579.8 C 3211.6 579.8 3209.9 597.9 3216.7 607.8 C 3226 621.5 3242.9 621.5 3242.9 621.5 L 3242.9 658 L 3067.7 658 L 3067.7 618.9 C 3067.7 618.9 3081.6 616.7 3091.8 604.9 C 3102 593 3103.7 577.7 3103.7 577.7 L 3167.6 178.7 C 3167.6 178.7 3171.4 163.8 3167.2 157 C 3162.8 149.8 3138.8 143.8 3138.8 143.8 L 3138.8 104.2" style="fill: rgb(255, 255, 255);"/>
  <path class="st1" d="M 607.1 195.2 L 512.6 294.7 C 507.6 299.9 499.5 300.4 493.9 295.9 L 477.8 282.7 C 477.1 282.1 476.7 281.1 476.7 279.8 C 476.7 276.4 486 267.9 486 251.8 C 486 235.6 482.7 168.5 379.4 168.5 C 276.2 168.5 230.4 265.4 230.4 345.3 C 230.4 425.2 279.5 571.4 440.3 571.4 C 533.9 571.4 553.7 518.7 553.7 518.7 L 585.9 518.7 L 585.9 656.4 L 409.9 656.4 C 200 656.3 83.1 491.4 83.1 372.4 C 83.1 189.9 241.1 88.7 384.4 88.7 C 523.3 88.8 607.1 195.2 607.1 195.2" style="fill: rgb(255, 255, 255);"/>
  <path class="st1" d="M 2399.8 196.2 L 2305.3 295.7 C 2300.3 300.9 2292.2 301.4 2286.6 296.9 L 2270.5 283.7 C 2269.8 283.1 2269.4 282.1 2269.4 280.8 C 2269.4 277.4 2278.7 268.9 2278.7 252.8 C 2278.7 236.6 2275.4 169.5 2172.1 169.5 C 2068.9 169.5 2023.1 266.4 2023.1 346.3 C 2023.1 426.2 2072.2 572.4 2233 572.4 C 2326.6 572.4 2346.4 519.7 2346.4 519.7 L 2378.6 519.7 L 2378.6 657.4 L 2202.5 657.4 C 1992.6 657.4 1875.8 492.5 1875.8 373.6 C 1875.8 191.1 2033.8 89.9 2177.1 89.9 C 2316 89.7 2399.8 196.2 2399.8 196.2" style="fill: rgb(255, 255, 255);"/>
</svg>