<svg xmlns="http://www.w3.org/2000/svg" width="169" height="41" style=""><rect id="backgroundrect" width="100%" height="100%" x="0" y="0" fill="none" stroke="none" style="--darkreader-inline-fill:none; --darkreader-inline-stroke:none;" data-darkreader-inline-fill="" data-darkreader-inline-stroke="" class="" opacity="1"/>
  
  
<g class="currentLayer" style=""><title>Layer 1</title><path d="M43.334129333496094,13.829999923706055 L43.334129333496094,13.829999923706055 L42.85413360595703,18.8700008392334 L42.85413360595703,18.8700008392334 C41.57414245605469,19.389999389648438 39.95416259765625,19.649999618530273 37.994178771972656,19.649999618530273 L37.994178771972656,19.649999618530273 L37.994178771972656,19.649999618530273 C35.474205017089844,19.649999618530273 33.66722106933594,19.15999984741211 32.5742301940918,18.18000030517578 L32.5742301940918,18.18000030517578 L32.5742301940918,18.18000030517578 C31.487228393554688,17.200000762939453 30.944225311279297,15.689998626708984 30.944225311279297,13.649999618530273 L30.944225311279297,13.649999618530273 L30.944225311279297,13.649999618530273 C30.944225311279297,12.789999961853027 31.084224700927734,11.520000457763672 31.364227294921875,9.84000015258789 L31.364227294921875,9.84000015258789 L31.364227294921875,9.84000015258789 C31.964229583740234,6.400000095367432 32.997230529785156,3.9000003337860107 34.464210510253906,2.3399999141693115 L34.464210510253906,2.3399999141693115 L34.464210510253906,2.3399999141693115 C35.93720245361328,0.7799999713897705 38.26417541503906,-5.960464477539063e-8 41.44414520263672,-5.960464477539063e-8 L41.44414520263672,-5.960464477539063e-8 L41.44414520263672,-5.960464477539063e-8 C42.18413543701172,-5.960464477539063e-8 43.0311279296875,0.0769999623298645 43.98411560058594,0.22999992966651917 L43.98411560058594,0.22999992966651917 L43.98411560058594,0.22999992966651917 C44.931114196777344,0.37700000405311584 45.624107360839844,0.559999942779541 46.06410217285156,0.7799999713897705 L46.06410217285156,0.7799999713897705 L44.384117126464844,5.369999885559082 L44.384117126464844,5.369999885559082 C43.204124450683594,5.090000152587891 42.10113525390625,4.949999809265137 41.07415008544922,4.949999809265137 L41.07415008544922,4.949999809265137 L41.07415008544922,4.949999809265137 C40.041160583496094,4.949999809265137 39.304161071777344,5.050000190734863 38.864166259765625,5.25 L38.864166259765625,5.25 L38.864166259765625,5.25 C38.42417907714844,5.449999809265137 38.1541748046875,5.849999904632568 38.054176330566406,6.449999809265137 L38.054176330566406,6.449999809265137 L36.6741943359375,14.3100004196167 L36.6741943359375,14.3100004196167 C37.39418029785156,14.470000267028809 38.134178161621094,14.550000190734863 38.8941650390625,14.550000190734863 L38.8941650390625,14.550000190734863 L38.8941650390625,14.550000190734863 C40.51415252685547,14.550000190734863 41.994140625,14.3100004196167 43.334129333496094,13.829999923706055 zM48.31407928466797,0.44999995827674866 L54.01402282714844,0.44999995827674866 L51.52404022216797,14.520000457763672 L53.56402587890625,14.520000457763672 L53.56402587890625,14.520000457763672 C54.264015197753906,14.520000457763672 54.764015197753906,14.427000045776367 55.06401062011719,14.239999771118164 L55.06401062011719,14.239999771118164 L55.06401062011719,14.239999771118164 C55.36400604248047,14.04699993133545 55.574005126953125,13.609999656677246 55.694000244140625,12.930000305175781 L55.694000244140625,12.930000305175781 L57.913978576660156,0.44999995827674866 L63.613922119140625,0.44999995827674866 L61.753936767578125,10.979999542236328 L61.753936767578125,10.979999542236328 C61.453941345214844,12.680000305175781 61.10694885253906,14.050000190734863 60.713951110839844,15.09000015258789 L60.713951110839844,15.09000015258789 L60.713951110839844,15.09000015258789 C60.32695770263672,16.1299991607666 59.783966064453125,17.010000228881836 59.08396911621094,17.729999542236328 L59.08396911621094,17.729999542236328 L59.08396911621094,17.729999542236328 C58.38397216796875,18.450000762939453 57.51698303222656,18.950000762939453 56.48399353027344,19.229999542236328 L56.48399353027344,19.229999542236328 L56.48399353027344,19.229999542236328 C55.457008361816406,19.510000228881836 54.154014587402344,19.649999618530273 52.57403564453125,19.649999618530273 L52.57403564453125,19.649999618530273 L52.57403564453125,19.649999618530273 C50.15406036376953,19.649999618530273 48.45707702636719,19.283000946044922 47.48408508300781,18.549999237060547 L47.48408508300781,18.549999237060547 L47.48408508300781,18.549999237060547 C46.51708984375,17.822999954223633 46.03410339355469,16.56999969482422 46.03410339355469,14.789999961853027 L46.03410339355469,14.789999961853027 L46.03410339355469,14.789999961853027 C46.03410339355469,13.8100004196167 46.174095153808594,12.539999961853027 46.45409393310547,10.979999542236328 L46.45409393310547,10.979999542236328 L48.31407928466797,0.44999995827674866 zM63.102928161621094,18.8700008392334 L63.102928161621094,18.8700008392334 L64.78291320800781,13.920000076293945 L64.78291320800781,13.920000076293945 C66.46289825439453,14.380000114440918 68.00287628173828,14.609999656677246 69.40286254882812,14.609999656677246 L69.40286254882812,14.609999656677246 L69.40286254882812,14.609999656677246 C70.8028564453125,14.609999656677246 71.9328384399414,14.550000190734863 72.79283142089844,14.430000305175781 L72.79283142089844,14.430000305175781 L73.03282928466797,12.930000305175781 L70.54285430908203,12.6899995803833 L70.54285430908203,12.6899995803833 C68.64287567138672,12.510000228881836 67.29689025878906,12.079999923706055 66.50289154052734,11.399999618530273 L66.50289154052734,11.399999618530273 L66.50289154052734,11.399999618530273 C65.71690368652344,10.720000267028809 65.32290649414062,9.760000228881836 65.32290649414062,8.520000457763672 L65.32290649414062,8.520000457763672 L65.32290649414062,8.520000457763672 C65.32290649414062,7.979999542236328 65.38290405273438,7.380000114440918 65.5029067993164,6.71999979019165 L65.5029067993164,6.71999979019165 L65.5029067993164,6.71999979019165 C65.96289825439453,4.159999847412109 66.79689025878906,2.4000000953674316 68.00287628173828,1.440000057220459 L68.00287628173828,1.440000057220459 L68.00287628173828,1.440000057220459 C69.21686553955078,0.47999992966651917 71.09284973144531,-5.960464477539063e-8 73.63282012939453,-5.960464477539063e-8 L73.63282012939453,-5.960464477539063e-8 L73.63282012939453,-5.960464477539063e-8 C76.17279815673828,-5.960464477539063e-8 78.41278076171875,0.2500000298023224 80.3527603149414,0.75 L80.3527603149414,0.75 L78.79277038574219,5.550000190734863 L78.79277038574219,5.550000190734863 C77.05278778076172,5.25 75.65280151367188,5.099999904632568 74.59281158447266,5.099999904632568 L74.59281158447266,5.099999904632568 L74.59281158447266,5.099999904632568 C73.53282928466797,5.099999904632568 72.6328353881836,5.150000095367432 71.8928451538086,5.25 L71.8928451538086,5.25 L71.65284729003906,6.71999979019165 L73.66282653808594,6.929999351501465 L73.66282653808594,6.929999351501465 C75.70280456542969,7.149999618530273 77.15278625488281,7.63700008392334 78.01277923583984,8.390000343322754 L78.01277923583984,8.390000343322754 L78.01277923583984,8.390000343322754 C78.87277221679688,9.13700008392334 79.30276489257812,10.140000343322754 79.30276489257812,11.399999618530273 L79.30276489257812,11.399999618530273 L79.30276489257812,11.399999618530273 C79.30276489257812,12.680000305175781 79.02276611328125,14 78.46277618408203,15.35999870300293 L78.46277618408203,15.35999870300293 L78.46277618408203,15.35999870300293 C78.18277740478516,16.059999465942383 77.87677764892578,16.64699935913086 77.54278564453125,17.1200008392334 L77.54278564453125,17.1200008392334 L77.54278564453125,17.1200008392334 C77.21678924560547,17.586999893188477 76.79679107666016,17.982999801635742 76.28279876708984,18.309999465942383 L76.28279876708984,18.309999465942383 L76.28279876708984,18.309999465942383 C75.77680206298828,18.64299964904785 75.31280517578125,18.89299964904785 74.89281463623047,19.059999465942383 L74.89281463623047,19.059999465942383 L74.89281463623047,19.059999465942383 C74.47281646728516,19.232999801635742 73.94282531738281,19.360000610351562 73.30282592773438,19.440000534057617 L73.30282592773438,19.440000534057617 L73.30282592773438,19.440000534057617 C72.36283874511719,19.579999923706055 71.21285247802734,19.649999618530273 69.85285949707031,19.649999618530273 L69.85285949707031,19.649999618530273 L69.85285949707031,19.649999618530273 C67.37288665771484,19.649999618530273 65.12290954589844,19.389999389648438 63.102928161621094,18.8700008392334 zM96.79261779785156,0.44999995827674866 L95.92261505126953,5.25 L91.78264617919922,5.25 L89.35266876220703,19.200000762939453 L83.65272521972656,19.200000762939453 L86.08270263671875,5.25 L81.97274017333984,5.25 L82.84272766113281,0.44999995827674866 L96.79261779785156,0.44999995827674866 zM103.36274719238281,6.71999979019165 L103.36274719238281,6.71999979019165 L101.98271179199219,14.520000457763672 L104.35275268554688,14.520000457763672 L104.35275268554688,14.520000457763672 C105.13278198242188,14.520000457763672 105.71278381347656,14.427000045776367 106.09280395507812,14.239999771118164 L106.09280395507812,14.239999771118164 L106.09280395507812,14.239999771118164 C106.47280883789062,14.04699993133545 106.72280883789062,13.609999656677246 106.84281921386719,12.930000305175781 L106.84281921386719,12.930000305175781 L108.22283935546875,5.130000114440918 L105.82278442382812,5.130000114440918 L105.82278442382812,5.130000114440918 C105.06277465820312,5.130000114440918 104.49276733398438,5.2230000495910645 104.11276245117188,5.409999847412109 L104.11276245117188,5.409999847412109 L104.11276245117188,5.409999847412109 C103.73275756835938,5.603000164031982 103.48274230957031,6.039999961853027 103.36274719238281,6.71999979019165 zM106.81282043457031,-5.960464477539063e-8 L106.81282043457031,-5.960464477539063e-8 L106.81282043457031,-5.960464477539063e-8 C109.35285949707031,-5.960464477539063e-8 111.16290283203125,0.4970000088214874 112.242919921875,1.4900000095367432 L112.242919921875,1.4900000095367432 L112.242919921875,1.4900000095367432 C113.32293701171875,2.4769999980926514 113.86294555664062,4 113.86294555664062,6.059999942779541 L113.86294555664062,6.059999942779541 L113.86294555664062,6.059999942779541 C113.86294555664062,8.119999885559082 113.53594970703125,10.277000427246094 112.8829345703125,12.529999732971191 L112.8829345703125,12.529999732971191 L112.8829345703125,12.529999732971191 C112.23591613769531,14.777000427246094 111.20590209960938,16.523000717163086 109.79287719726562,17.770000457763672 L109.79287719726562,17.770000457763672 L109.79287719726562,17.770000457763672 C108.38584899902344,19.023000717163086 106.3258056640625,19.649999618530273 103.61274719238281,19.649999618530273 L103.61274719238281,19.649999618530273 L103.61274719238281,19.649999618530273 C100.90568542480469,19.649999618530273 99.01264953613281,19.156999588012695 97.93263244628906,18.170000076293945 L97.93263244628906,18.170000076293945 L97.93263244628906,18.170000076293945 C96.85261535644531,17.177000045776367 96.3126220703125,15.649999618530273 96.3126220703125,13.59000015258789 L96.3126220703125,13.59000015258789 L96.3126220703125,13.59000015258789 C96.3126220703125,12.609999656677246 96.4526138305664,11.317000389099121 96.73262023925781,9.710000038146973 L96.73262023925781,9.710000038146973 L96.73262023925781,9.710000038146973 C97.01261901855469,8.097000122070312 97.38262939453125,6.706999778747559 97.84263610839844,5.539999961853027 L97.84263610839844,5.539999961853027 L97.84263610839844,5.539999961853027 C98.30264282226562,4.367000102996826 98.92265319824219,3.3499999046325684 99.70266723632812,2.490000009536743 L99.70266723632812,2.490000009536743 L99.70266723632812,2.490000009536743 C101.20269775390625,0.8299999237060547 103.57273864746094,-5.960464477539063e-8 106.81282043457031,-5.960464477539063e-8 zM122.14311218261719,10.109999656677246 L120.19308471679688,19.200000762939453 L114.25296020507812,19.200000762939453 L118.633056640625,0.44999995827674866 L126.07319641113281,0.44999995827674866 L126.61320495605469,9.989999771118164 L126.82321166992188,9.989999771118164 L130.72329711914062,0.44999995827674866 L138.16343688964844,0.44999995827674866 L135.94338989257812,19.200000762939453 L129.97328186035156,19.200000762939453 L131.23330688476562,10.109999656677246 L131.02330017089844,10.109999656677246 L127.27322387695312,19.200000762939453 L122.92312622070312,19.200000762939453 L122.29312133789062,10.109999656677246 L122.14311218261719,10.109999656677246 z" style="white-space: pre; fill: rgb(255, 255, 255); --darkreader-inline-fill:#e8e6e3;" id="svg_1" data-darkreader-inline-fill="" class=""/><path d="M12.391376495361328,35.32503890991211 L12.391376495361328,35.32503890991211 L11.911373138427734,40.36503982543945 L11.911373138427734,40.36503982543945 C10.63137435913086,40.885040283203125 9.011375427246094,41.14503860473633 7.0513763427734375,41.14503860473633 L7.0513763427734375,41.14503860473633 L7.0513763427734375,41.14503860473633 C4.531375885009766,41.14503860473633 2.724376678466797,40.65503692626953 1.6313743591308594,39.6750373840332 L1.6313743591308594,39.6750373840332 L1.6313743591308594,39.6750373840332 C0.5443744659423828,38.695037841796875 0.0013751983642578125,37.18503952026367 0.0013751983642578125,35.14503860473633 L0.0013751983642578125,35.14503860473633 L0.0013751983642578125,35.14503860473633 C0.0013751983642578125,34.285037994384766 0.1413745880126953,33.015037536621094 0.4213752746582031,31.335037231445312 L0.4213752746582031,31.335037231445312 L0.4213752746582031,31.335037231445312 C1.0213756561279297,27.895038604736328 2.0543746948242188,25.395038604736328 3.521373748779297,23.835039138793945 L3.521373748779297,23.835039138793945 L3.521373748779297,23.835039138793945 C4.994373321533203,22.27503776550293 7.321376800537109,21.495038986206055 10.501373291015625,21.495038986206055 L10.501373291015625,21.495038986206055 L10.501373291015625,21.495038986206055 C11.241374969482422,21.495038986206055 12.088375091552734,21.572038650512695 13.041374206542969,21.725038528442383 L13.041374206542969,21.725038528442383 L13.041374206542969,21.725038528442383 C13.98837661743164,21.872037887573242 14.681373596191406,22.055038452148438 15.121376037597656,22.27503776550293 L15.121376037597656,22.27503776550293 L13.441375732421875,26.86503791809082 L13.441375732421875,26.86503791809082 C12.261375427246094,26.585039138793945 11.158374786376953,26.445037841796875 10.13137435913086,26.445037841796875 L10.13137435913086,26.445037841796875 L10.13137435913086,26.445037841796875 C9.098373413085938,26.445037841796875 8.361373901367188,26.5450382232666 7.921375274658203,26.745038986206055 L7.921375274658203,26.745038986206055 L7.921375274658203,26.745038986206055 C7.481376647949219,26.945037841796875 7.211376190185547,27.34503936767578 7.1113739013671875,27.945037841796875 L7.1113739013671875,27.945037841796875 L5.731376647949219,35.80503845214844 L5.731376647949219,35.80503845214844 C6.451374053955078,35.96503829956055 7.191375732421875,36.045040130615234 7.951374053955078,36.045040130615234 L7.951374053955078,36.045040130615234 L7.951374053955078,36.045040130615234 C9.57137680053711,36.045040130615234 11.051376342773438,35.80503845214844 12.391376495361328,35.32503890991211 zM21.961376190185547,28.215038299560547 L21.961376190185547,28.215038299560547 L20.581375122070312,36.015037536621094 L22.951374053955078,36.015037536621094 L22.951374053955078,36.015037536621094 C23.73137664794922,36.015037536621094 24.31137466430664,35.92203903198242 24.691375732421875,35.73503875732422 L24.691375732421875,35.73503875732422 L24.691375732421875,35.73503875732422 C25.07137680053711,35.54203796386719 25.32137680053711,35.105037689208984 25.441375732421875,34.4250373840332 L25.441375732421875,34.4250373840332 L26.82137680053711,26.625038146972656 L24.421375274658203,26.625038146972656 L24.421375274658203,26.625038146972656 C23.661373138427734,26.625038146972656 23.091373443603516,26.71803855895996 22.711376190185547,26.905038833618164 L22.711376190185547,26.905038833618164 L22.711376190185547,26.905038833618164 C22.331375122070312,27.098037719726562 22.081375122070312,27.535037994384766 21.961376190185547,28.215038299560547 zM25.411373138427734,21.495038986206055 L25.411373138427734,21.495038986206055 L25.411373138427734,21.495038986206055 C27.951374053955078,21.495038986206055 29.761375427246094,21.99203872680664 30.841373443603516,22.98503875732422 L30.841373443603516,22.98503875732422 L30.841373443603516,22.98503875732422 C31.921375274658203,23.97203826904297 32.46137619018555,25.495038986206055 32.46137619018555,27.555038452148438 L32.46137619018555,27.555038452148438 L32.46137619018555,27.555038452148438 C32.46137619018555,29.61503791809082 32.134376525878906,31.772037506103516 31.48137664794922,34.02503967285156 L31.48137664794922,34.02503967285156 L31.48137664794922,34.02503967285156 C30.834373474121094,36.272037506103516 29.80437469482422,38.01803970336914 28.391376495361328,39.265037536621094 L28.391376495361328,39.265037536621094 L28.391376495361328,39.265037536621094 C26.984375,40.51803970336914 24.924373626708984,41.14503860473633 22.211376190185547,41.14503860473633 L22.211376190185547,41.14503860473633 L22.211376190185547,41.14503860473633 C19.504375457763672,41.14503860473633 17.611373901367188,40.65203857421875 16.531375885009766,39.6650390625 L16.531375885009766,39.6650390625 L16.531375885009766,39.6650390625 C15.451374053955078,38.67203903198242 14.911373138427734,37.14503860473633 14.911373138427734,35.08503723144531 L14.911373138427734,35.08503723144531 L14.911373138427734,35.08503723144531 C14.911373138427734,34.105037689208984 15.051376342773438,32.81203842163086 15.331375122070312,31.20503807067871 L15.331375122070312,31.20503807067871 L15.331375122070312,31.20503807067871 C15.611373901367188,29.592039108276367 15.981376647949219,28.202037811279297 16.441375732421875,27.035037994384766 L16.441375732421875,27.035037994384766 L16.441375732421875,27.035037994384766 C16.90137481689453,25.862037658691406 17.521373748779297,24.84503936767578 18.301376342773438,23.98503875732422 L18.301376342773438,23.98503875732422 L18.301376342773438,23.98503875732422 C19.801376342773438,22.32503890991211 22.171375274658203,21.495038986206055 25.411373138427734,21.495038986206055 zM45.63037872314453,35.89503860473633 L44.790374755859375,40.695037841796875 L33.39037322998047,40.695037841796875 L36.69037628173828,21.945037841796875 L42.39037322998047,21.945037841796875 L39.93037414550781,35.89503860473633 L45.63037872314453,35.89503860473633 zM58.410377502441406,35.89503860473633 L57.57037353515625,40.695037841796875 L46.170372009277344,40.695037841796875 L49.470375061035156,21.945037841796875 L55.170372009277344,21.945037841796875 L52.71037292480469,35.89503860473633 L58.410377502441406,35.89503860473633 zM72.3603744506836,29.265039443969727 L71.58037567138672,33.61503982543945 L65.88037872314453,33.61503982543945 L65.49037170410156,35.89503860473633 L72.48037719726562,35.89503860473633 L71.64037322998047,40.695037841796875 L58.95037841796875,40.695037841796875 L62.25037384033203,21.945037841796875 L74.79037475585938,21.945037841796875 L73.23037719726562,26.745038986206055 L67.08037567138672,26.745038986206055 L66.6603775024414,29.265039443969727 L72.3603744506836,29.265039443969727 zM87.75037384033203,35.32503890991211 L87.75037384033203,35.32503890991211 L87.27037811279297,40.36503982543945 L87.27037811279297,40.36503982543945 C85.99037170410156,40.885040283203125 84.37037658691406,41.14503860473633 82.4103775024414,41.14503860473633 L82.4103775024414,41.14503860473633 L82.4103775024414,41.14503860473633 C79.89037322998047,41.14503860473633 78.0833740234375,40.65503692626953 76.99037170410156,39.6750373840332 L76.99037170410156,39.6750373840332 L76.99037170410156,39.6750373840332 C75.90337371826172,38.695037841796875 75.3603744506836,37.18503952026367 75.3603744506836,35.14503860473633 L75.3603744506836,35.14503860473633 L75.3603744506836,35.14503860473633 C75.3603744506836,34.285037994384766 75.50037384033203,33.015037536621094 75.7803726196289,31.335037231445312 L75.7803726196289,31.335037231445312 L75.7803726196289,31.335037231445312 C76.38037872314453,27.895038604736328 77.41337585449219,25.395038604736328 78.88037872314453,23.835039138793945 L78.88037872314453,23.835039138793945 L78.88037872314453,23.835039138793945 C80.35337829589844,22.27503776550293 82.68037414550781,21.495038986206055 85.8603744506836,21.495038986206055 L85.8603744506836,21.495038986206055 L85.8603744506836,21.495038986206055 C86.60037231445312,21.495038986206055 87.44637298583984,21.572038650512695 88.40037536621094,21.725038528442383 L88.40037536621094,21.725038528442383 L88.40037536621094,21.725038528442383 C89.34637451171875,21.872037887573242 90.04037475585938,22.055038452148438 90.48037719726562,22.27503776550293 L90.48037719726562,22.27503776550293 L88.80037689208984,26.86503791809082 L88.80037689208984,26.86503791809082 C87.62037658691406,26.585039138793945 86.51637268066406,26.445037841796875 85.49037170410156,26.445037841796875 L85.49037170410156,26.445037841796875 L85.49037170410156,26.445037841796875 C84.45637512207031,26.445037841796875 83.72037506103516,26.5450382232666 83.2803726196289,26.745038986206055 L83.2803726196289,26.745038986206055 L83.2803726196289,26.745038986206055 C82.84037780761719,26.945037841796875 82.57037353515625,27.34503936767578 82.47037506103516,27.945037841796875 L82.47037506103516,27.945037841796875 L81.09037780761719,35.80503845214844 L81.09037780761719,35.80503845214844 C81.81037139892578,35.96503829956055 82.55037689208984,36.045040130615234 83.31037139892578,36.045040130615234 L83.31037139892578,36.045040130615234 L83.31037139892578,36.045040130615234 C84.93037414550781,36.045040130615234 86.4103775024414,35.80503845214844 87.75037384033203,35.32503890991211 zM105.75038146972656,21.945037841796875 L104.88037109375,26.745038986206055 L100.74037170410156,26.745038986206055 L98.31037902832031,40.695037841796875 L92.6103744506836,40.695037841796875 L95.04037475585938,26.745038986206055 L90.93037414550781,26.745038986206055 L91.80037689208984,21.945037841796875 L105.75038146972656,21.945037841796875 zM110.30937194824219,40.695037841796875 L104.609375,40.695037841796875 L107.90937805175781,21.945037841796875 L113.609375,21.945037841796875 L110.30937194824219,40.695037841796875 zM121.31938171386719,28.215038299560547 L121.31938171386719,28.215038299560547 L119.93937683105469,36.015037536621094 L122.30937194824219,36.015037536621094 L122.30937194824219,36.015037536621094 C123.08937072753906,36.015037536621094 123.66937255859375,35.92203903198242 124.04937744140625,35.73503875732422 L124.04937744140625,35.73503875732422 L124.04937744140625,35.73503875732422 C124.42938232421875,35.54203796386719 124.67938232421875,35.105037689208984 124.79937744140625,34.4250373840332 L124.79937744140625,34.4250373840332 L126.17938232421875,26.625038146972656 L123.77937316894531,26.625038146972656 L123.77937316894531,26.625038146972656 C123.01937866210938,26.625038146972656 122.44937133789062,26.71803855895996 122.06938171386719,26.905038833618164 L122.06938171386719,26.905038833618164 L122.06938171386719,26.905038833618164 C121.68937683105469,27.098037719726562 121.43937683105469,27.535037994384766 121.31938171386719,28.215038299560547 zM124.76937866210938,21.495038986206055 L124.76937866210938,21.495038986206055 L124.76937866210938,21.495038986206055 C127.30937194824219,21.495038986206055 129.11936950683594,21.99203872680664 130.19937133789062,22.98503875732422 L130.19937133789062,22.98503875732422 L130.19937133789062,22.98503875732422 C131.2793731689453,23.97203826904297 131.8193817138672,25.495038986206055 131.8193817138672,27.555038452148438 L131.8193817138672,27.555038452148438 L131.8193817138672,27.555038452148438 C131.8193817138672,29.61503791809082 131.49337768554688,31.772037506103516 130.83937072753906,34.02503967285156 L130.83937072753906,34.02503967285156 L130.83937072753906,34.02503967285156 C130.19337463378906,36.272037506103516 129.1633758544922,38.01803970336914 127.74937438964844,39.265037536621094 L127.74937438964844,39.265037536621094 L127.74937438964844,39.265037536621094 C126.34336853027344,40.51803970336914 124.28337097167969,41.14503860473633 121.56938171386719,41.14503860473633 L121.56938171386719,41.14503860473633 L121.56938171386719,41.14503860473633 C118.86337280273438,41.14503860473633 116.96937561035156,40.65203857421875 115.88937377929688,39.6650390625 L115.88937377929688,39.6650390625 L115.88937377929688,39.6650390625 C114.80937194824219,38.67203903198242 114.26937866210938,37.14503860473633 114.26937866210938,35.08503723144531 L114.26937866210938,35.08503723144531 L114.26937866210938,35.08503723144531 C114.26937866210938,34.105037689208984 114.40937805175781,32.81203842163086 114.68937683105469,31.20503807067871 L114.68937683105469,31.20503807067871 L114.68937683105469,31.20503807067871 C114.96937561035156,29.592039108276367 115.33937072753906,28.202037811279297 115.79937744140625,27.035037994384766 L115.79937744140625,27.035037994384766 L115.79937744140625,27.035037994384766 C116.25936889648438,25.862037658691406 116.87937927246094,24.84503936767578 117.65937805175781,23.98503875732422 L117.65937805175781,23.98503875732422 L117.65937805175781,23.98503875732422 C119.15937805175781,22.32503890991211 121.52937316894531,21.495038986206055 124.76937866210938,21.495038986206055 zM148.58937072753906,40.695037841796875 L143.21937561035156,40.695037841796875 L140.1593780517578,34.035037994384766 L140.1593780517578,34.035037994384766 C140.07937622070312,33.89503860473633 140.03936767578125,33.69804000854492 140.03936767578125,33.445037841796875 L140.03936767578125,33.445037841796875 L140.03936767578125,33.445037841796875 C140.03936767578125,33.19804000854492 140.0593719482422,32.9150390625 140.09938049316406,32.59503936767578 L140.09938049316406,32.59503936767578 L139.859375,32.59503936767578 L138.44937133789062,40.695037841796875 L132.74937438964844,40.695037841796875 L136.04937744140625,21.945037841796875 L141.41937255859375,21.945037841796875 L144.4793701171875,28.605037689208984 L144.4793701171875,28.605037689208984 C144.53936767578125,28.745038986206055 144.5693817138672,28.942039489746094 144.5693817138672,29.195037841796875 L144.5693817138672,29.195037841796875 L144.5693817138672,29.195037841796875 C144.5693817138672,29.442039489746094 144.54937744140625,29.725038528442383 144.50936889648438,30.0450382232666 L144.50936889648438,30.0450382232666 L144.74937438964844,30.0450382232666 L146.1893768310547,21.945037841796875 L151.88937377929688,21.945037841796875 L148.58937072753906,40.695037841796875 zM151.859375,40.36503982543945 L151.859375,40.36503982543945 L153.53936767578125,35.4150390625 L153.53936767578125,35.4150390625 C155.21937561035156,35.875038146972656 156.75936889648438,36.105037689208984 158.1593780517578,36.105037689208984 L158.1593780517578,36.105037689208984 L158.1593780517578,36.105037689208984 C159.5593719482422,36.105037689208984 160.6893768310547,36.045040130615234 161.54937744140625,35.9250373840332 L161.54937744140625,35.9250373840332 L161.78936767578125,34.4250373840332 L159.29937744140625,34.18503952026367 L159.29937744140625,34.18503952026367 C157.3993682861328,34.00503921508789 156.0523681640625,33.57503890991211 155.25936889648438,32.89503860473633 L155.25936889648438,32.89503860473633 L155.25936889648438,32.89503860473633 C154.47238159179688,32.21503829956055 154.07937622070312,31.25503921508789 154.07937622070312,30.015039443969727 L154.07937622070312,30.015039443969727 L154.07937622070312,30.015039443969727 C154.07937622070312,29.475038528442383 154.13937377929688,28.875038146972656 154.25936889648438,28.215038299560547 L154.25936889648438,28.215038299560547 L154.25936889648438,28.215038299560547 C154.71937561035156,25.655038833618164 155.5523681640625,23.895038604736328 156.75936889648438,22.935039520263672 L156.75936889648438,22.935039520263672 L156.75936889648438,22.935039520263672 C157.97238159179688,21.975038528442383 159.84938049316406,21.495038986206055 162.38937377929688,21.495038986206055 L162.38937377929688,21.495038986206055 L162.38937377929688,21.495038986206055 C164.92938232421875,21.495038986206055 167.16937255859375,21.745038986206055 169.109375,22.245038986206055 L169.109375,22.245038986206055 L167.54937744140625,27.0450382232666 L167.54937744140625,27.0450382232666 C165.8093719482422,26.745038986206055 164.4093780517578,26.59503936767578 163.34938049316406,26.59503936767578 L163.34938049316406,26.59503936767578 L163.34938049316406,26.59503936767578 C162.28936767578125,26.59503936767578 161.38937377929688,26.645038604736328 160.6493682861328,26.745038986206055 L160.6493682861328,26.745038986206055 L160.4093780517578,28.215038299560547 L162.41937255859375,28.425039291381836 L162.41937255859375,28.425039291381836 C164.45938110351562,28.645038604736328 165.9093780517578,29.132038116455078 166.76937866210938,29.885038375854492 L166.76937866210938,29.885038375854492 L166.76937866210938,29.885038375854492 C167.62937927246094,30.632038116455078 168.0593719482422,31.63503646850586 168.0593719482422,32.89503860473633 L168.0593719482422,32.89503860473633 L168.0593719482422,32.89503860473633 C168.0593719482422,34.1750373840332 167.7793731689453,35.49503707885742 167.21937561035156,36.855037689208984 L167.21937561035156,36.855037689208984 L167.21937561035156,36.855037689208984 C166.9393768310547,37.55503845214844 166.6323699951172,38.14204025268555 166.29937744140625,38.61503982543945 L166.29937744140625,38.61503982543945 L166.29937744140625,38.61503982543945 C165.97238159179688,39.08203887939453 165.5523681640625,39.4780387878418 165.03936767578125,39.80503845214844 L165.03936767578125,39.80503845214844 L165.03936767578125,39.80503845214844 C164.53237915039062,40.138038635253906 164.0693817138672,40.388038635253906 163.6493682861328,40.55503845214844 L163.6493682861328,40.55503845214844 L163.6493682861328,40.55503845214844 C163.2293701171875,40.7280387878418 162.69937133789062,40.855037689208984 162.0593719482422,40.93503952026367 L162.0593719482422,40.93503952026367 L162.0593719482422,40.93503952026367 C161.11936950683594,41.07503890991211 159.96937561035156,41.14503860473633 158.609375,41.14503860473633 L158.609375,41.14503860473633 L158.609375,41.14503860473633 C156.12937927246094,41.14503860473633 153.87937927246094,40.885040283203125 151.859375,40.36503982543945 z" style="white-space: pre; fill: rgb(255, 255, 255); --darkreader-inline-fill:#e8e6e3;" id="svg_2" data-darkreader-inline-fill="" class=""/></g></svg>