<?xml version="1.0" encoding="utf-8"?>
<svg version="1.1" viewBox="0 0 3840 1398.6" xmlns="http://www.w3.org/2000/svg">
  <path class="st5518" d="M 1634.8 0 L 1953.8 0 C 2129.2 0 2207.3 65.5 2207.3 244.3 L 2207.3 376 C 2207.3 548.1 2151.9 629.5 1976.5 629.5 L 1634.9 629.5 L 1634.9 0 Z M 1802.7 483.5 L 1949.6 483.5 C 2011.7 483.5 2034.4 442.4 2034.4 376.1 L 2034.4 244.3 C 2034.4 162.9 2008.4 146.1 1949.6 146.1 L 1802.7 146.1 L 1802.7 483.5 Z" style="fill: rgb(255, 255, 255);"/>
  <path class="st5518" d="M 2406.1 521.2 L 2375 629.5 L 2200.4 629.5 L 2389.3 0 L 2644.5 0 L 2835.9 629.5 L 2664.7 629.5 L 2632 521.2 L 2406.1 521.2 Z M 2520.3 125.9 L 2518.6 125.9 L 2442.2 398.7 L 2598.3 398.7 L 2520.3 125.9 Z" style="fill: rgb(255, 255, 255);"/>
  <path class="st5518" d="M 3100.4 629.5 L 2932.5 629.5 L 2932.5 146 L 2771.3 146 L 2771.3 0 L 3270 0 L 3270 146 L 3100.4 146 L 3100.4 629.5 Z" style="fill: rgb(255, 255, 255);"/>
  <path class="st5518" d="M 3410.2 521.2 L 3379.1 629.5 L 3204.5 629.5 L 3393.5 0 L 3648.7 0 L 3840 629.5 L 3668.8 629.5 L 3636 521.2 L 3410.2 521.2 Z M 3524.4 125.9 L 3522.7 125.9 L 3446.3 398.7 L 3602.4 398.7 L 3524.4 125.9 Z" style="fill: rgb(255, 255, 255);"/>
  <path class="st5518" d="M 1802.8 1015.6 L 2071.4 1015.6 L 2071.4 1132.3 L 1802.8 1132.3 L 1802.8 1254.8 L 2094.9 1254.8 L 2094.9 1392.5 L 1634.9 1392.5 L 1634.9 763 L 2089 763 L 2089 900.7 L 1802.8 900.7 L 1802.8 1015.6 Z" style="fill: rgb(255, 255, 255);"/>
  <path class="st5518" d="M 2337.7 1285.3 L 2306.6 1393.6 L 2132 1393.6 L 2320.9 764.1 L 2576.1 764.1 L 2767.5 1393.6 L 2596.3 1393.6 L 2563.6 1285.3 L 2337.7 1285.3 Z M 2451.9 890 L 2450.2 890 L 2373.8 1162.8 L 2529.9 1162.8 L 2451.9 890 Z" style="fill: rgb(255, 255, 255);"/>
  <path class="st5518" d="M 3086.4 1010.9 C 3272.7 1024.3 3318.9 1047.8 3318.9 1192.2 C 3318.9 1296.3 3323.1 1398.7 3046.1 1398.7 C 2885.8 1398.7 2779.2 1395.3 2779.2 1188.9 L 2940.4 1188.9 C 2940.4 1254.4 2963.9 1261.1 3046.2 1261.1 C 3125.1 1261.1 3151.1 1256.1 3151.1 1203.2 C 3151.1 1148.6 3141.9 1149.5 3063 1144.4 L 3026.1 1141.9 C 2870.8 1131 2780.2 1131.8 2780.2 951.4 C 2780.2 771 2881.6 759 3046.1 759 C 3183.8 759 3301.3 761.5 3301.3 935.3 L 3301.3 961.3 L 3140.1 961.3 C 3140.1 896.7 3113.2 896.7 3046.1 896.7 C 2955.4 896.7 2947.9 915.2 2947.9 950.4 C 2947.9 1000.8 2972.2 1002.4 3016.7 1005.8 L 3086.4 1010.9 Z" style="fill: rgb(255, 255, 255);"/>
  <path class="st5518" d="M 3670.4 1393.6 L 3502.5 1393.6 L 3502.5 910.1 L 3341.3 910.1 L 3341.3 764.1 L 3840 764.1 L 3840 910.1 L 3670.4 910.1 L 3670.4 1393.6 Z" style="fill: rgb(255, 255, 255);"/>
  <path class="st5518" d="M 41.8 252.8 C 27.7 252.8 13.7 253.5 0 254.8 L 0 1143.8 C 13.8 1145.1 27.7 1145.8 41.8 1145.8 C 288 1145.8 488.3 945.5 488.3 699.3 C 488.3 453.1 288.1 252.8 41.8 252.8 Z" style="fill: rgb(255, 255, 255);"/>
  <path class="st5518" d="M 41.8 0 C 27.8 0 13.9 0.5 0 1.4 L 0 187.3 C 13.8 186.2 27.7 185.5 41.8 185.5 C 325.2 185.5 555.7 416 555.7 699.4 C 555.7 982.8 325.2 1213.3 41.8 1213.3 C 27.7 1213.3 13.8 1212.6 0 1211.5 L 0 1397.4 C 13.9 1398.2 27.8 1398.8 41.8 1398.8 C 428 1398.8 741.1 1085.7 741.1 699.5 C 741.1 313.3 428.1 0 41.8 0 Z" style="fill: rgb(255, 255, 255);"/>
  <path class="st5518" d="M 1425.4 1398.6 C 1439.5 1398.6 1453.4 1398.1 1467.2 1397.2 L 1467.2 1211.3 C 1453.4 1212.4 1439.5 1213.1 1425.4 1213.1 C 1142 1213.1 911.5 982.6 911.5 699.2 C 911.5 415.8 1142 185.3 1425.4 185.3 C 1439.5 185.3 1453.4 186 1467.2 187.1 L 1467.2 1.4 C 1453.3 0.6 1439.4 0 1425.4 0 C 1039.2 0 726.1 313.1 726.1 699.3 C 726.1 1085.5 1039.2 1398.6 1425.4 1398.6 Z" style="fill: rgb(255, 255, 255);"/>
  <path class="st5518" d="M 1467.2 665.8 L 1467.2 254.8 C 1453.4 253.5 1439.5 252.8 1425.4 252.8 C 1190.5 252.8 997.5 435.2 980.3 665.8 L 1467.2 665.8 Z" style="fill: rgb(255, 255, 255);"/>
  <path class="st5518" d="M 980.3 732.8 C 997.5 963.4 1190.5 1145.8 1425.4 1145.8 C 1439.5 1145.8 1453.5 1145.1 1467.2 1143.8 L 1467.2 732.8 L 980.3 732.8 Z" style="fill: rgb(255, 255, 255);"/>
</svg>