<?xml version="1.0" encoding="utf-8"?>
<svg version="1.1" xmlns="http://www.w3.org/2000/svg">
  <path opacity="1.00" d="M 12.844 -0.373 C 16.668 -5.33 22.762 -8.041 28.835 -8.828 C 31.286 -8.835 33.741 -8.723 36.192 -8.878 C 41.926 -8.32 47.627 -5.888 51.514 -1.52 C 54.816 2.112 56.63 6.917 57.139 11.772 C 52.778 11.834 48.414 11.967 44.054 11.939 C 43.502 8.738 41.429 5.862 38.583 4.33 C 35.561 2.692 31.841 2.174 28.567 3.325 C 26.796 3.936 25.088 4.916 23.935 6.429 C 22.395 8.393 22.608 11.39 24.137 13.294 C 25.714 15.221 28.132 16.142 30.426 16.886 C 35.903 18.534 41.635 19.235 47.011 21.245 C 50.733 22.619 54.373 24.734 56.646 28.096 C 59.245 31.956 59.794 36.879 59.168 41.407 C 58.521 46.16 55.991 50.592 52.285 53.597 C 47.307 57.699 40.744 59.467 34.385 59.402 C 28.239 59.315 21.955 57.705 16.958 53.992 C 13.591 51.504 10.972 47.958 9.788 43.914 C 9.153 41.941 8.981 39.862 8.878 37.803 C 13.165 37.747 17.451 37.865 21.741 37.8 C 22.972 41.395 25.633 44.519 29.167 45.967 C 32.73 47.462 36.902 47.657 40.495 46.144 C 42.219 45.418 43.872 44.32 44.87 42.695 C 45.981 40.905 46.117 38.473 44.966 36.668 C 43.862 34.915 41.94 33.932 40.084 33.184 C 36.557 31.829 32.829 31.137 29.18 30.206 C 24.437 29.016 19.583 27.653 15.561 24.749 C 12.709 22.724 10.553 19.71 9.684 16.297 C 8.231 10.652 9.209 4.259 12.844 -0.373 Z" style="fill: rgb(255, 255, 255);" transform="matrix(0, -1, 1, 0, 8.877968, 59.40369)"/>
  <path opacity="1.00" d="M 5.764 50.974 C 12.02 50.931 18.272 50.968 24.528 50.953 C 27.876 63.565 31.053 76.224 34.433 88.824 C 36.987 76.218 39.294 63.556 41.819 50.944 C 48.897 50.974 55.977 50.941 63.056 50.958 C 63.064 73.178 63.042 95.397 63.067 117.617 C 58.799 117.632 54.535 117.654 50.268 117.604 C 50.007 105.268 49.807 92.928 49.43 80.598 C 46.948 92.947 44.342 105.274 41.838 117.62 C 37.304 117.635 32.771 117.639 28.238 117.62 C 25.181 105.882 22.189 94.129 19.085 82.403 C 18.979 83.476 18.986 84.556 18.995 85.633 C 19.007 96.297 18.986 106.958 19.004 117.623 C 15.725 117.639 12.448 117.625 9.169 117.632 C 8.035 117.629 6.891 117.697 5.764 117.502 L 5.764 50.974 Z" style="fill: rgb(255, 255, 255);" transform="matrix(0, -1, 1, 0, -49.877052, 118.708054)"/>
  <path opacity="1.00" d="M 140.022 9.864 C 149.569 2.538 161.919 -0.415 173.837 0.047 C 179.345 0.321 184.802 1.331 190.106 2.813 C 190.3 2.927 190.68 3.15 190.872 3.259 C 184.39 7.796 178.819 13.796 175.328 20.91 C 168.746 20.168 161.93 21.817 156.552 25.702 C 149.824 30.397 144.941 37.888 144.04 46.079 C 142.998 54.353 142.029 62.637 140.997 70.911 C 140.695 73.201 140.596 75.589 139.553 77.697 C 138.1 80.744 135.905 83.381 133.597 85.827 C 131.502 88.002 128.318 88.355 125.452 88.386 C 118.781 73.755 117.421 56.949 120.913 41.318 C 123.597 29.169 129.918 17.465 140.022 9.864 Z" style="fill: rgb(255, 255, 255);"/>
  <path opacity="1.00" d="M 190.221 7.89 C 200.06 1.544 212.322 0.171 223.771 1.347 C 233.901 2.357 244.261 6.015 251.265 13.651 C 257.033 19.765 259.738 28.111 260.332 36.35 C 253.042 36.484 245.746 36.421 238.456 36.38 C 237.663 32.028 235.433 27.873 231.869 25.158 C 226.704 21.179 219.795 20.076 213.432 20.884 C 208.648 21.579 203.629 23.096 200.247 26.723 C 198.225 28.966 196.928 32.37 198.241 35.271 C 199.518 38.841 200.758 42.426 202.004 46.006 C 203.921 51.721 203.03 57.855 202.421 63.715 C 194.406 61.575 186.12 58.099 181.034 51.265 C 176.135 44.628 175.51 35.831 176.86 27.946 C 178.241 19.781 183.197 12.336 190.221 7.89 Z" style="fill: rgb(255, 255, 255);"/>
  <path opacity="1.00" d="M 77.963 4.238 C 91.334 3.88 104.712 3.543 118.088 3.227 C 124.712 3.206 131.325 4.191 137.631 6.233 C 137.661 7.144 137.485 8.03 136.667 8.564 C 131.179 13.34 127.068 19.407 123.346 25.578 C 115.639 25.542 107.932 25.718 100.22 25.723 C 100.376 47.514 100.256 69.315 100.407 91.111 C 105.082 91.484 109.766 91.821 114.446 92.08 C 118.974 92.064 123.503 92.002 128.032 91.924 C 132.393 91.779 135.89 88.65 138.475 85.438 C 141.93 80.962 144.592 75.662 145.041 69.967 C 145.624 63.015 146.281 56.068 146.912 49.12 C 147.172 46.167 147.761 43.219 148.923 40.478 C 151.461 34.282 156.656 29.371 162.758 26.671 C 171.44 41.266 172.717 59.316 168.71 75.564 C 165.802 87.148 158.944 97.955 148.808 104.561 C 138.912 111.156 126.702 113.523 114.936 113.016 C 102.611 112.503 90.276 112.166 77.963 111.519 L 77.963 4.238 Z" style="fill: rgb(255, 255, 255);"/>
  <path opacity="1.00" d="M 206.715 26.479 C 211.53 24.226 216.996 24.267 222.176 24.868 C 227.512 34.51 230.66 45.384 230.727 56.415 C 230.988 68.699 227.632 80.89 221.874 91.707 C 216.069 92.391 209.993 91.251 205.032 88.126 C 202.936 86.821 201.133 84.459 201.806 81.874 C 203.166 76.476 205.016 71.201 206.501 65.834 C 207.283 62.751 206.954 59.554 206.913 56.415 C 206.814 52.715 206.084 49.058 205.021 45.519 C 203.723 41.074 201.795 36.712 201.602 32.028 C 201.717 29.23 204.395 27.505 206.715 26.479 Z" style="fill: rgb(255, 255, 255);"/>
  <path opacity="1.00" d="M 233.745 50.513 C 241.729 52.674 250.008 55.311 256.205 61.015 C 261.333 65.668 263.751 72.594 264 79.366 L 264 83.241 C 263.646 89.64 261.348 95.987 257.096 100.851 C 251.442 107.421 243.229 111.275 234.876 113.207 C 223.755 115.715 212.004 115.156 201.034 112.15 C 192.186 109.664 183.431 104.741 178.809 96.551 C 175.656 90.909 172.9 84.314 174.598 77.776 C 181.727 77.692 188.861 77.828 195.995 77.879 C 196.787 82.739 198.809 87.702 202.879 90.743 C 207.944 94.556 214.589 95.137 220.733 95.198 C 226.319 95.08 232.291 94.505 237.023 91.267 C 241.134 88.562 242.75 82.687 240.431 78.33 C 238.758 75.283 235.652 73.429 232.687 71.813 C 232.88 64.704 233.412 57.612 233.745 50.513 Z" style="fill: rgb(255, 255, 255);"/>
  <path opacity="1.00" d="M 165.229 93.463 C 168.032 93.028 170.961 93.453 173.811 93.51 C 177.511 101.903 184.614 108.213 192.238 113.079 C 186.636 114.97 180.737 115.875 174.828 116 L 174.499 116 C 165.953 115.912 157.495 114.042 149.543 110.996 C 149.533 110.892 149.512 110.69 149.501 110.586 C 152.425 107.742 155.453 104.996 158.423 102.193 C 161.284 99.778 162.904 96.328 165.229 93.463 Z" style="fill: rgb(255, 255, 255);"/>
</svg>