<?xml version="1.0" encoding="utf-8"?>
<svg id="Warstwa_1" data-name="Warstwa 1" viewBox="0 0 264 47" xmlns="http://www.w3.org/2000/svg">
  <title>ecwolf</title>
  <path d="M 252.27 47 C 249.932 46.865 248.704 45.215 247.516 43.501 C 246.026 41.325 244.608 39.1 243.102 36.932 C 242.027 35.383 241.452 33.538 241.454 31.647 C 241.415 28.626 241.359 25.597 241.454 22.575 C 241.488 21.622 241.76 20.692 242.247 19.873 C 243.546 17.801 244.949 15.799 246.414 13.839 C 247.579 12.244 247.999 12.244 249.687 13.185 C 251.2 14.046 252.658 14.995 254.163 15.879 C 254.614 16.118 255.076 16.332 255.55 16.517 C 256.968 12.037 255.55 8.546 252.175 5.787 L 258.094 0 C 259.599 1.379 261.263 2.942 262.958 4.44 C 263.691 5.094 264.073 6.058 263.989 7.039 C 263.949 17.266 263.989 27.494 263.941 37.722 C 263.924 38.339 263.722 38.935 263.363 39.435 C 261.477 41.987 259.528 44.482 257.594 47 Z M 256.073 26.21 C 255.962 24.871 255.954 23.715 255.748 22.6 C 255.646 21.463 254.522 20.716 253.442 21.069 C 252.888 21.178 252.353 21.375 251.858 21.651 C 250.005 22.72 248.515 24.326 247.579 26.259 C 246.549 28.323 246.787 30.515 246.731 32.716 C 246.676 35.649 248.197 37.499 250.463 38.901 C 251.747 39.699 252.92 39.587 253.799 38.328 C 254.447 37.437 254.891 36.413 255.098 35.33 C 255.526 32.245 255.764 29.136 256.073 26.21 Z" fill="white"/>
  <path d="M 62.603 3.218 C 64.653 6.422 65.691 10.173 65.582 13.98 C 65.479 18.763 65.582 23.546 65.653 28.329 C 65.693 31.734 65.725 31.734 67.523 35.001 L 63.799 39.745 C 63.395 40.263 63.007 40.271 62.547 39.8 C 61.303 38.486 60.036 37.186 58.808 35.814 C 58.648 35.607 58.6 35.331 58.681 35.081 C 60.194 32.69 60.266 29.956 60.329 27.246 C 60.392 23.711 60.416 20.18 60.4 16.651 C 60.384 14.386 59.424 12.232 57.754 10.712 C 57.413 10.386 57.12 10.01 56.708 9.549 L 62.413 3.171 Z" fill="white"/>
  <path d="M 13.351 11.326 L 19.381 4.988 C 20.965 7.021 22.55 8.911 23.984 10.912 C 25.181 12.585 24.642 14.555 24.46 16.396 C 24.143 19.529 23.667 22.654 23.319 25.779 C 22.969 27.966 23.996 30.144 25.902 31.255 C 27.938 28.624 30.054 26.025 30.038 22.422 C 30.038 20.517 29.848 18.612 29.681 16.707 C 29.506 14.978 28.877 13.328 27.859 11.924 C 27.669 11.661 27.612 11.326 27.7 11.016 C 28.738 9.341 29.784 7.667 30.941 6.081 C 31.63 5.14 32.129 5.14 32.85 6.032 C 35.6 9.421 37.359 13.151 36.701 17.703 C 36.119 21.902 34.92 25.991 33.144 29.836 C 32.505 30.996 31.794 32.115 31.012 33.185 L 30.458 34.061 C 31.369 34.061 32.042 34.061 32.74 34.061 C 33.437 34.061 34.102 33.862 35.045 33.718 C 33.865 35.688 32.827 37.457 31.717 39.195 C 31.456 39.471 31.104 39.644 30.727 39.681 C 28.104 40.095 25.482 40.479 22.851 40.853 C 21.248 41.047 19.647 40.483 18.517 39.323 C 17.186 38.11 17.059 38.126 15.419 38.916 C 14.223 39.498 13.042 40.071 11.806 40.597 C 10.439 41.234 8.824 40.966 7.733 39.92 C 5.747 38.267 4.18 36.164 3.161 33.782 C 2.851 32.878 2.711 31.924 2.749 30.968 C 2.749 27.086 2.686 23.196 2.749 19.306 C 2.902 16.871 2.253 14.453 0.903 12.426 C 0.586 11.963 0.341 11.438 0 10.831 L 6.046 5.323 C 8.375 8.185 10.982 10.848 10.863 14.889 C 10.792 17.504 10.562 20.102 10.443 22.717 C 10.348 24.655 10.293 26.592 10.293 28.536 C 10.326 29.891 10.87 31.181 11.814 32.148 C 12.836 33.296 14.12 33.327 15.538 32.945 C 15.581 32.807 15.613 32.666 15.633 32.523 C 15.633 27.963 15.633 23.403 15.633 18.843 C 15.715 16.505 15.079 14.197 13.811 12.235 C 13.652 11.94 13.525 11.652 13.351 11.326 Z" fill="white"/>
  <path d="M 238.111 3.157 L 229.133 14.676 C 229.862 15.13 230.425 15.521 231.027 15.856 C 237.144 19.275 238.594 22.232 237.366 29.152 C 236.721 33.32 235.209 37.305 232.929 40.847 C 231.731 42.691 230.173 44.273 228.349 45.494 C 227.099 46.405 225.521 46.732 224.015 46.394 C 219.744 45.398 215.767 43.604 211.599 41.835 L 215.957 38.271 C 216.749 37.626 217.541 36.948 218.334 36.375 C 218.68 36.159 219.098 36.096 219.491 36.199 C 221.345 36.845 223.167 37.57 225.037 38.248 C 225.519 38.406 226.012 38.529 226.511 38.614 C 227.82 38.942 229.182 38.322 229.799 37.115 C 232.216 33.329 231.748 29.207 228.476 25.891 C 226.577 24.106 224.387 22.66 222.002 21.619 L 220.243 20.734 C 222.914 17.482 225.544 14.285 228.167 11.088 L 228.032 10.754 C 226.733 10.666 225.441 10.531 224.134 10.498 C 222.177 10.451 220.212 10.498 218.247 10.451 C 216.282 10.403 215.949 9.917 216.995 8.195 C 217.951 6.601 218.942 5.046 219.966 3.531 C 220.153 3.269 220.44 3.095 220.758 3.053 C 226.424 3.053 232.097 3.053 237.77 3.053 C 237.897 3.037 237.952 3.085 238.111 3.157 Z" fill="white"/>
  <path d="M 57.627 23.331 C 57.627 27.317 57.215 30.769 55.765 34.005 C 53.602 38.836 50.179 40.582 44.95 40.127 C 40.687 39.76 36.701 34.914 36.82 30.848 C 36.837 26.558 38.08 22.363 40.402 18.763 C 42.445 15.733 45.688 13.737 49.3 13.287 C 51.827 12.904 53.855 14.291 55.448 16.236 C 57.08 18.218 57.863 20.77 57.627 23.331 Z M 51.074 29.645 L 50.963 29.645 C 50.963 29.294 50.963 28.943 50.963 28.601 C 50.901 25.695 49.582 22.962 47.35 21.116 C 45.995 20.023 45.33 20.206 44.585 21.76 C 43.454 24.017 43.523 26.693 44.767 28.888 C 45.51 30.588 46.762 32.012 48.349 32.961 C 49.289 33.536 50.512 32.994 50.726 31.909 C 50.898 31.162 51.024 30.406 51.106 29.645 Z" fill="white"/>
  <path d="M 71.541 18.524 L 69.457 18.524 C 68.843 18.611 68.32 18.08 68.411 17.465 C 68.363 16.888 68.827 16.398 69.401 16.42 C 71.43 16.173 71.43 16.165 71.683 14.116 C 71.683 13.797 71.77 13.486 71.794 13.168 C 71.838 10.738 73.441 8.616 75.756 7.922 C 77.863 7.125 79.884 6.136 82.031 5.53 C 84.939 4.67 88.734 7.125 89.344 10.13 C 89.368 10.453 89.235 10.768 88.988 10.975 C 87.673 11.772 86.326 12.45 84.963 13.119 C 84.765 13.223 84.369 13.119 84.123 12.936 C 83.386 12.498 82.713 11.948 81.96 11.565 C 80.977 11.063 80.312 11.445 80.106 12.546 C 80.033 12.954 79.996 13.367 79.995 13.781 C 79.995 15.982 80.256 15.925 81.857 15.902 C 82.974 15.902 83.125 16.132 83.125 17.408 C 83.125 18.843 82.99 19.042 81.825 19.09 C 80.914 19.09 79.995 19.09 78.941 19.09 L 78.941 20.167 C 78.941 26.033 78.941 31.901 78.893 37.768 C 78.893 39.928 78.672 42.088 78.569 44.248 C 78.627 45.093 77.976 45.818 77.134 45.843 C 75.597 45.931 74.044 45.843 72.499 45.843 C 71.834 45.843 71.802 45.293 71.786 44.815 C 71.699 42.487 71.58 40.168 71.564 37.84 C 71.525 31.749 71.564 25.659 71.525 19.568 Z" fill="white"/>
  <path d="M 116.981 40.813 C 115.397 38.947 113.812 37.138 112.227 35.304 C 111.815 34.937 111.892 34.267 112.378 34.005 C 113.148 33.51 113.579 32.624 113.495 31.71 C 113.495 29.262 113.495 26.807 113.368 24.367 C 113.265 22.654 112.576 21.976 110.872 21.561 C 107.822 20.764 107.006 21.378 106.911 24.558 C 106.839 26.528 106.911 28.544 106.911 30.474 C 106.839 31.895 107.423 33.269 108.495 34.197 C 108.868 34.54 109.177 34.946 109.581 35.4 L 104.914 40.885 C 103.44 39.195 102.038 37.648 100.723 36.022 C 100.42 35.591 100.326 35.047 100.469 34.54 C 101.681 31.781 101.523 28.88 101.483 25.986 C 101.506 23.814 101.077 21.661 100.223 19.664 C 100.139 19.392 100.189 19.096 100.358 18.867 C 101.243 18.001 102.174 17.184 103.147 16.42 C 104.486 15.399 105.405 15.551 106.507 16.843 C 107.782 18.333 107.774 18.325 109.391 17.169 C 110.421 16.428 111.451 15.679 112.513 15.001 C 113.731 14.211 115.309 14.261 116.474 15.128 C 118.986 16.675 119.739 19.058 119.826 21.793 C 119.915 24.684 119.968 27.58 119.984 30.482 C 119.984 31.909 120.27 33.12 121.664 33.829 C 122.33 34.172 122.377 34.723 122.06 35.369 C 120.935 37.665 119.01 39.195 116.981 40.813 Z" fill="white"/>
  <path d="M 198.553 34.914 C 201.358 32.61 200.716 29.461 200.74 26.488 C 200.74 26.074 200.645 25.691 200.669 25.245 C 200.84 23.754 199.91 22.358 198.474 21.953 C 197.753 21.638 197.002 21.402 196.231 21.25 C 195.132 20.957 194.029 21.709 193.894 22.845 C 193.719 23.491 193.616 24.154 193.585 24.822 C 193.514 26.344 193.506 27.875 193.474 29.398 C 193.442 31.303 194.176 33.139 195.51 34.491 C 196.159 34.958 196.159 35.929 195.51 36.397 C 194.575 37.385 193.783 38.517 192.88 39.53 C 191.977 40.542 191.382 40.55 190.503 39.585 C 189.37 38.342 188.3 37.035 187.238 35.727 C 187.119 35.475 187.119 35.182 187.238 34.93 C 189.203 31.008 189.005 26.919 188.118 22.805 C 187.835 21.761 187.442 20.751 186.945 19.792 C 186.699 19.408 186.822 18.896 187.215 18.668 C 188.253 17.871 189.29 17.073 190.273 16.236 C 191.541 15.136 192.943 16.077 193.498 17.105 C 194.29 18.509 194.409 18.556 195.74 17.615 C 196.978 16.68 198.263 15.81 199.591 15.009 C 201.334 14.037 202.253 14.212 203.711 15.559 C 206.619 18.198 206.611 18.198 206.619 22.112 C 206.619 24.566 206.698 27.022 206.674 29.477 C 206.526 31.254 207.273 32.987 208.663 34.093 C 209.242 34.548 209.258 34.954 208.885 35.615 C 207.865 37.422 206.434 38.959 204.709 40.103 C 204.184 40.624 203.315 40.519 202.927 39.888 C 201.493 38.142 200.003 36.509 198.553 34.914 Z" fill="white"/>
  <path d="M 134.254 13.526 C 135.942 13.813 137.638 14.037 139.302 14.395 C 140.617 14.674 140.767 15.24 139.825 16.213 C 138.882 17.185 137.725 18.245 136.616 19.194 C 136.316 19.376 135.954 19.425 135.617 19.33 C 134.215 18.963 132.844 18.436 131.426 18.134 C 130.007 17.831 129.421 18.221 129.088 19.282 C 128.557 20.956 128.819 21.92 130.142 22.471 C 131.236 22.957 132.4 23.268 133.541 23.658 C 134.682 24.048 135.641 24.359 136.711 24.751 C 138.759 25.447 140.156 27.358 140.205 29.533 C 140.348 31.127 140.451 32.778 140.53 34.396 C 140.504 34.689 140.391 34.966 140.205 35.193 C 136.608 39.721 131.711 40.9 126.268 40.566 C 125.325 40.5 124.395 40.307 123.502 39.992 C 122.361 39.585 122.179 38.988 122.868 38.023 C 123.657 36.943 124.506 35.911 125.412 34.93 C 125.578 34.739 126.101 34.747 126.41 34.834 C 128.391 35.4 130.372 36.11 132.448 35.879 C 133.381 35.779 134.285 35.489 135.102 35.026 C 136.025 34.385 136.449 33.231 136.164 32.14 C 136.009 31.221 135.257 30.523 134.334 30.442 C 132.511 30.052 130.665 29.741 128.835 29.398 C 128.708 29.398 128.581 29.398 128.454 29.334 C 123.7 28.274 121.965 24.806 123.843 20.27 C 125.596 16.074 129.733 13.395 134.254 13.526 Z" fill="white"/>
  <path d="M 88.711 34.244 C 90.549 34.244 92.316 34.244 94.083 34.244 C 95.279 34.244 96.46 34.459 97.672 34.548 C 98.338 34.595 98.464 34.922 98.274 35.512 C 97.775 37.218 97.308 38.931 96.785 40.797 C 93.845 40.693 90.929 40.741 88.069 40.446 C 85.837 40.253 83.957 38.687 83.354 36.517 C 81.421 30.538 81.77 24.774 85.288 19.409 C 86.841 17.123 89.171 15.487 91.84 14.809 C 93.076 14.352 94.465 14.75 95.271 15.798 C 96.026 16.698 96.714 17.652 97.331 18.652 C 97.935 19.567 97.854 20.777 97.133 21.602 C 96.463 22.456 95.726 23.256 94.93 23.993 C 93.346 25.436 91.69 26.846 90.002 28.194 C 88.92 28.91 88.358 30.2 88.568 31.486 C 88.663 32.275 88.647 33.112 88.711 34.244 Z M 88.108 26.616 C 89.297 25.675 90.327 24.901 91.278 24.081 C 92.783 22.813 92.752 22.39 91.183 21.171 C 91.08 21.099 90.977 21.019 90.866 20.956 C 90.333 20.52 89.536 20.69 89.226 21.307 C 88.312 22.915 87.921 24.772 88.108 26.616 Z" fill="white"/>
  <path d="M 162.05 34.914 C 164.134 34.914 166.122 34.914 168.111 34.914 C 169.506 34.914 170.892 35.089 172.279 35.161 C 172.881 35.161 173.032 35.48 172.913 36.038 C 172.58 37.632 172.279 39.227 171.914 40.821 C 171.787 41.073 171.544 41.246 171.265 41.283 C 168.698 41.283 166.138 41.235 163.571 41.211 C 161.761 41.157 160.104 40.173 159.181 38.605 C 157.791 36.502 156.971 34.07 156.804 31.55 C 156.518 28.977 156.759 26.373 157.51 23.897 C 157.896 22.408 158.689 21.058 159.8 19.999 C 161.467 18.494 163.218 17.086 165.045 15.782 C 166.796 14.602 168.349 14.818 169.886 16.292 C 170.718 17.112 171.409 18.066 171.93 19.115 C 172.723 20.708 172.493 21.793 171.201 22.989 C 169.125 24.901 166.986 26.743 164.863 28.616 C 164.458 28.975 164.07 29.414 163.666 29.709 C 161.963 31 161.852 32.817 162.05 34.914 Z M 161.701 25.691 C 161.907 26.719 162.319 27.221 162.802 26.839 C 164.237 25.722 165.592 24.503 166.954 23.284 C 167.086 23.082 167.113 22.83 167.026 22.606 C 166.416 21.354 163.619 21.139 162.969 22.359 C 162.474 23.43 162.051 24.532 161.701 25.659 Z" fill="white"/>
  <path d="M 150.933 17.536 L 150.933 24.942 C 150.933 27.333 150.933 29.725 150.933 32.116 C 150.898 32.454 150.985 32.793 151.179 33.073 C 152.32 34.061 153.556 34.977 154.681 35.95 C 154.885 36.137 154.998 36.405 154.99 36.684 C 154.878 37.115 154.682 37.519 154.412 37.872 C 153.382 39.195 152.312 40.494 151.242 41.857 C 147.772 39.737 145.11 37.21 145.157 32.817 C 145.22 27.785 145.281 22.754 145.339 17.727 L 145.339 17.05 C 144.769 17.05 144.214 17.01 143.66 16.97 C 142.653 16.898 142.463 16.627 142.471 15.376 C 142.479 14.124 142.685 13.877 143.62 13.781 C 144.991 13.662 145.117 13.574 145.086 12.187 C 145.013 11.085 145.499 10.021 146.377 9.358 L 150.87 5.81 L 150.87 13.781 L 153.992 13.781 C 155.481 13.781 155.624 13.956 155.624 15.423 C 155.624 17.504 155.624 17.536 153.516 17.576 C 152.708 17.544 151.916 17.536 150.933 17.536 Z" fill="white"/>
  <path d="M 184.647 35.345 L 180.171 40.127 C 178.586 38.62 177.081 37.178 175.591 35.711 C 175.484 35.507 175.484 35.262 175.591 35.058 C 177.073 32.555 177.176 29.788 177.176 27.006 C 177.176 24.551 177.176 22.087 177.176 19.641 C 177.122 19.002 177.428 18.386 177.968 18.046 C 179.085 17.249 180.155 16.333 181.502 15.264 C 181.851 16.441 182.116 17.644 182.294 18.859 C 182.461 21.362 182.476 23.881 182.548 26.401 C 182.548 27.197 182.548 27.931 182.548 28.696 C 182.391 31.099 183.14 33.473 184.647 35.345 Z" fill="white"/>
  <path d="M 176.138 8.728 C 177.438 7.56 179.39 7.522 180.733 8.639 C 181.636 9.301 182.595 9.899 183.538 10.537 C 182.508 11.749 181.407 12.067 180.282 11.406 C 178.855 10.585 177.524 9.636 176.138 8.728 Z" fill="white"/>
</svg>