<svg id="Warstwa_1" data-name="Warstwa 1" xmlns="http://www.w3.org/2000/svg" viewBox="0 0 263.9 112.08"><title>ecwolf</title><path d="M319.2,306.32c-2.95-.17-4.5-2.24-6-4.39-1.88-2.73-3.67-5.52-5.57-8.24a11.55,11.55,0,0,1-2.08-6.63c-.05-3.79-.12-7.59,0-11.38a7.08,7.08,0,0,1,1-3.39c1.64-2.6,3.41-5.11,5.26-7.57,1.47-2,2-2,4.13-.82,1.91,1.08,3.75,2.27,5.65,3.38a16.73,16.73,0,0,0,1.75.8c1.79-5.62,0-10-4.26-13.46l7.47-7.26c1.9,1.73,4,3.69,6.14,5.57a3.91,3.91,0,0,1,1.3,3.26c-.05,12.83,0,25.66-.06,38.49a3.86,3.86,0,0,1-.73,2.15c-2.38,3.2-4.84,6.33-7.28,9.49ZM324,280.24c-.14-1.68-.15-3.13-.41-4.53a2.23,2.23,0,0,0-2.91-1.92,6.83,6.83,0,0,0-2,.73,13.46,13.46,0,0,0-5.4,5.78c-1.3,2.59-1,5.34-1.07,8.1-.07,3.68,1.85,6,4.71,7.76,1.62,1,3.1.86,4.21-.72a9.36,9.36,0,0,0,1.64-3.76C323.31,287.81,323.61,283.91,324,280.24Z" transform="translate(-118.27 -194.24)"  fill="white"/><path d="M197.28,194.24a23.68,23.68,0,0,1,3.76,13.5c-.13,6,0,12,.09,18,.05,4.27.09,4.27,2.36,8.37l-4.7,5.95c-.51.65-1,.66-1.58.07-1.57-1.65-3.17-3.28-4.72-5a1,1,0,0,1-.16-.92c1.91-3,2-6.43,2.08-9.83q.12-6.65.09-13.29a10.14,10.14,0,0,0-3.34-7.45c-.43-.41-.8-.88-1.32-1.46l7.2-8Z" transform="translate(-118.27 -194.24)"  fill="white"/><path d="M135.12,204.41l7.61-7.95c2,2.55,4,4.92,5.81,7.43,1.51,2.1.83,4.57.6,6.88-.4,3.93-1,7.85-1.44,11.77a6.71,6.71,0,0,0,3.26,6.87c2.57-3.3,5.24-6.56,5.22-11.08,0-2.39-.24-4.78-.45-7.17a12.29,12.29,0,0,0-2.3-6,1.32,1.32,0,0,1-.2-1.14c1.31-2.1,2.63-4.2,4.09-6.19.87-1.18,1.5-1.18,2.41-.06,3.47,4.25,5.69,8.93,4.86,14.64a53.7,53.7,0,0,1-4.49,15.22,38.8,38.8,0,0,1-2.69,4.2l-.7,1.1c1.15,0,2,0,2.88,0s1.72-.25,2.91-.43c-1.49,2.47-2.8,4.69-4.2,6.87a2,2,0,0,1-1.25.61c-3.31.52-6.62,1-9.94,1.47a6.56,6.56,0,0,1-5.47-1.92c-1.68-1.52-1.84-1.5-3.91-.51-1.51.73-3,1.45-4.56,2.11a4.63,4.63,0,0,1-5.14-.85,20.51,20.51,0,0,1-5.77-7.7,9.63,9.63,0,0,1-.52-3.53c0-4.87-.08-9.75,0-14.63a13.94,13.94,0,0,0-2.33-8.63c-.4-.58-.71-1.24-1.14-2l7.63-6.91c2.94,3.59,6.23,6.93,6.08,12-.09,3.28-.38,6.54-.53,9.82-.12,2.43-.19,4.86-.19,7.3a6.7,6.7,0,0,0,1.92,4.53c1.29,1.44,2.91,1.48,4.7,1A3.18,3.18,0,0,0,138,231c0-5.72,0-11.44,0-17.16a14.28,14.28,0,0,0-2.3-8.29C135.5,205.18,135.34,204.82,135.12,204.41Z" transform="translate(-118.27 -194.24)"  fill="white"/><path d="M301.33,251.32,290,265.77c.92.57,1.63,1.06,2.39,1.48,7.72,4.29,9.55,8,8,16.68a37.63,37.63,0,0,1-5.6,14.67,20.44,20.44,0,0,1-5.78,5.83,6.8,6.8,0,0,1-5.47,1.13c-5.39-1.25-10.41-3.5-15.67-5.72l5.5-4.47c1-.81,2-1.66,3-2.38a1.88,1.88,0,0,1,1.46-.22c2.34.81,4.64,1.72,7,2.57a13,13,0,0,0,1.86.46,3.67,3.67,0,0,0,4.15-1.88c3.05-4.75,2.46-9.92-1.67-14.08a28.68,28.68,0,0,0-8.17-5.36l-2.22-1.11c3.37-4.08,6.69-8.09,10-12.1l-.17-.42c-1.64-.11-3.27-.28-4.92-.32-2.47-.06-4.95,0-7.43-.06s-2.9-.67-1.58-2.83q1.81-3,3.75-5.85a1.46,1.46,0,0,1,1-.6c7.15,0,14.31,0,21.47,0C301.06,251.17,301.13,251.23,301.33,251.32Z" transform="translate(-118.27 -194.24)"  fill="white"/><path d="M191,219.47c0,5-.52,9.33-2.35,13.39-2.73,6.06-7.05,8.25-13.65,7.68-5.38-.46-10.41-6.54-10.26-11.64a28.05,28.05,0,0,1,4.52-15.16,15.94,15.94,0,0,1,11.23-6.87c3.19-.48,5.75,1.26,7.76,3.7A12.19,12.19,0,0,1,191,219.47Zm-8.27,7.92h-.14c0-.44,0-.88,0-1.31a12.51,12.51,0,0,0-4.56-9.39c-1.71-1.37-2.55-1.14-3.49.81a9.45,9.45,0,0,0,.23,8.94,11.17,11.17,0,0,0,4.52,5.11,2,2,0,0,0,3-1.32A24.08,24.08,0,0,0,182.77,227.39Z" transform="translate(-118.27 -194.24)"  fill="white"/><path d="M208.56,213.44h-2.63a1.17,1.17,0,0,1-1.32-1.33,1.21,1.21,0,0,1,1.25-1.31c2.56-.31,2.56-.32,2.88-2.89,0-.4.11-.79.14-1.19a7,7,0,0,1,5-6.58c2.66-1,5.21-2.24,7.92-3,3.67-1.08,8.46,2,9.23,5.77a1.26,1.26,0,0,1-.45,1.06c-1.66,1-3.36,1.85-5.08,2.69-.25.13-.75,0-1.06-.23-.93-.55-1.78-1.24-2.73-1.72-1.24-.63-2.08-.15-2.34,1.23a8.93,8.93,0,0,0-.14,1.55c0,2.76.33,2.69,2.35,2.66,1.41,0,1.6.29,1.6,1.89,0,1.8-.17,2.05-1.64,2.11-1.15,0-2.31,0-3.64,0v1.35c0,7.36,0,14.72-.06,22.08,0,2.71-.28,5.42-.41,8.13a1.87,1.87,0,0,1-1.81,2c-1.94.11-3.9,0-5.85,0-.84,0-.88-.69-.9-1.29-.11-2.92-.26-5.83-.28-8.75-.05-7.64,0-15.28-.05-22.92Z" transform="translate(-118.27 -194.24)"  fill="white"/><path d="M265.91,241.4c-2-2.34-4-4.61-6-6.91a1,1,0,0,1,.19-1.63,3.08,3.08,0,0,0,1.41-2.88c0-3.07,0-6.15-.16-9.21-.13-2.15-1-3-3.15-3.52-3.85-1-4.88-.23-5,3.76-.09,2.47,0,5,0,7.42a5.77,5.77,0,0,0,2,4.67c.47.43.86.94,1.37,1.51l-5.89,6.88c-1.86-2.12-3.63-4.06-5.29-6.1a2.19,2.19,0,0,1-.32-1.86c1.53-3.46,1.33-7.1,1.28-10.73a19.55,19.55,0,0,0-1.59-7.93,1.12,1.12,0,0,1,.17-1,42.74,42.74,0,0,1,3.52-3.07c1.69-1.28,2.85-1.09,4.24.53,1.61,1.87,1.6,1.86,3.64.41,1.3-.93,2.6-1.87,3.94-2.72a4.4,4.4,0,0,1,5,.16c3.17,1.94,4.12,4.93,4.23,8.36q.17,5.44.2,10.9c0,1.79.36,3.31,2.12,4.2.84.43.9,1.12.5,1.93C270.9,237.45,268.47,239.37,265.91,241.4Z" transform="translate(-118.27 -194.24)"  fill="white"/><path d="M368.86,234c3.54-2.89,2.73-6.84,2.76-10.57,0-.52-.12-1-.09-1.56a3.83,3.83,0,0,0-2.77-4.13,13.63,13.63,0,0,0-2.83-.88,2.36,2.36,0,0,0-2.95,2,11.45,11.45,0,0,0-.39,2.48c-.09,1.91-.1,3.83-.14,5.74a8.85,8.85,0,0,0,2.57,6.39,1.47,1.47,0,0,1,0,2.39c-1.18,1.24-2.18,2.66-3.32,3.93s-1.89,1.28-3,.07c-1.43-1.56-2.78-3.2-4.12-4.84a1.16,1.16,0,0,1,0-1c2.48-4.92,2.23-10.05,1.11-15.21a19,19,0,0,0-1.48-3.78,1,1,0,0,1,.34-1.41c1.31-1,2.62-2,3.86-3.05,1.6-1.38,3.37-.2,4.07,1.09,1,1.76,1.15,1.82,2.83.64a55.79,55.79,0,0,1,4.86-3.27c2.2-1.22,3.36-1,5.2.69,3.67,3.31,3.66,3.31,3.67,8.22,0,3.08.1,6.16.07,9.24a6.67,6.67,0,0,0,2.51,5.79c.73.57.75,1.08.28,1.91a16.52,16.52,0,0,1-5.27,5.63,1.45,1.45,0,0,1-2.25-.27C372.57,238.05,370.69,236,368.86,234Z" transform="translate(-118.27 -194.24)"  fill="white"/><path d="M287.71,207.17c2.13.36,4.27.64,6.37,1.09,1.66.35,1.85,1.06.66,2.28s-2.65,2.55-4.05,3.74a1.6,1.6,0,0,1-1.26.17c-1.77-.46-3.5-1.12-5.29-1.5s-2.53.11-2.95,1.44c-.67,2.1-.34,3.31,1.33,4,1.38.61,2.85,1,4.29,1.49s2.65.88,4,1.37a6.49,6.49,0,0,1,4.41,6c.18,2,.31,4.07.41,6.1a1.81,1.81,0,0,1-.41,1c-4.54,5.68-10.72,7.16-17.59,6.74a13.38,13.38,0,0,1-3.49-.72c-1.44-.51-1.67-1.26-.8-2.47a44,44,0,0,1,3.21-3.88c.21-.24.87-.23,1.26-.12,2.5.71,5,1.6,7.62,1.31a8.67,8.67,0,0,0,3.35-1.07,3.36,3.36,0,0,0,1.34-3.62,2.57,2.57,0,0,0-2.31-2.13c-2.3-.49-4.63-.88-6.94-1.31-.16,0-.32,0-.48-.08-6-1.33-8.19-5.68-5.82-11.37A13.82,13.82,0,0,1,287.71,207.17Z" transform="translate(-118.27 -194.24)"  fill="white"/><path d="M230.23,233.16c2.32,0,4.55,0,6.78,0,1.51,0,3,.27,4.53.38.84.06,1,.47.76,1.21-.63,2.14-1.22,4.29-1.88,6.63-3.71-.13-7.39-.07-11-.44a6.78,6.78,0,0,1-5.95-4.93c-2.44-7.5-2-14.73,2.44-21.46a14.23,14.23,0,0,1,8.27-5.77,3.81,3.81,0,0,1,4.33,1.24,30.54,30.54,0,0,1,2.6,3.58,3.05,3.05,0,0,1-.25,3.7,25.91,25.91,0,0,1-2.78,3c-2,1.81-4.09,3.58-6.22,5.27a4.14,4.14,0,0,0-1.81,4.13C230.17,230.69,230.15,231.74,230.23,233.16Zm-.76-9.57c1.5-1.18,2.8-2.15,4-3.18,1.9-1.59,1.86-2.12-.12-3.65-.13-.09-.26-.19-.4-.27a1.36,1.36,0,0,0-2.07.44A11.15,11.15,0,0,0,229.47,223.59Z" transform="translate(-118.27 -194.24)"  fill="white"/><path d="M322.79,234c2.63,0,5.14,0,7.65,0,1.76,0,3.51.22,5.26.31.76,0,.95.4.8,1.1-.42,2-.8,4-1.26,6a1.08,1.08,0,0,1-.82.58c-3.24,0-6.47-.06-9.71-.09a6.67,6.67,0,0,1-5.54-3.27,18.15,18.15,0,0,1-3-8.85,23.83,23.83,0,0,1,.89-9.6,10.33,10.33,0,0,1,2.89-4.89,74.46,74.46,0,0,1,6.62-5.29c2.21-1.48,4.17-1.21,6.11.64a13.25,13.25,0,0,1,2.58,3.54c1,2,.71,3.36-.92,4.86-2.62,2.4-5.32,4.71-8,7.06-.51.45-1,1-1.51,1.37C322.68,229.09,322.54,231.37,322.79,234Zm-.44-11.57c.26,1.29.78,1.92,1.39,1.44,1.81-1.4,3.52-2.93,5.24-4.46a.93.93,0,0,0,.09-.85c-.77-1.57-4.3-1.84-5.12-.31A33.38,33.38,0,0,0,322.35,222.39Z" transform="translate(-118.27 -194.24)"  fill="white"/><path d="M308.76,212.2v9.29c0,3,0,6,0,9a1.77,1.77,0,0,0,.31,1.2c1.44,1.24,3,2.39,4.42,3.61a1.2,1.2,0,0,1,.39.92,4.15,4.15,0,0,1-.73,1.49c-1.3,1.66-2.65,3.29-4,5-4.38-2.66-7.74-5.83-7.68-11.34q.12-9.47.23-18.93v-.85c-.72,0-1.42-.05-2.12-.1-1.27-.09-1.51-.43-1.5-2s.27-1.88,1.45-2c1.73-.15,1.89-.26,1.85-2a4.1,4.1,0,0,1,1.63-3.55l5.67-4.45v10h3.94c1.88,0,2.06.22,2.06,2.06,0,2.61,0,2.65-2.66,2.7C311,212.21,310,212.2,308.76,212.2Z" transform="translate(-118.27 -194.24)" fill="white"/><path d="M351.31,234.54l-5.65,6c-2-1.89-3.9-3.7-5.78-5.54a.88.88,0,0,1,0-.82c1.87-3.14,2-6.61,2-10.1,0-3.08,0-6.17,0-9.24a2.15,2.15,0,0,1,1-2c1.41-1,2.76-2.15,4.46-3.49a32.16,32.16,0,0,1,1,4.51c.21,3.14.23,6.3.32,9.46,0,1,0,1.92,0,2.88A12,12,0,0,0,351.31,234.54Z" transform="translate(-118.27 -194.24)"  fill="white"/><path d="M340.57,201.15a4.45,4.45,0,0,1,5.8-.11c1.14.83,2.35,1.58,3.54,2.38-1.3,1.52-2.69,1.92-4.11,1.09C344,203.48,342.32,202.29,340.57,201.15Z" transform="translate(-118.27 -194.24)"  fill="white"/></svg>