<svg id="Warstwa_1" data-name="Warstwa 1" xmlns="http://www.w3.org/2000/svg" viewBox="0 0 460.77 302.5"><title>ex</title><path d="M224,116.93c0,7,.2,13.64-.19,20.24-.07,1.15-2.47,2.72-4.06,3.16-25.7,7-51.44,13.89-77.18,20.79-14.15,3.79-28.32,7.52-42.47,11.35-18,4.88-29.22,19.18-29.65,38-.19,8-.1,16,0,24,.21,23.25,8,32.92,31,37.89-1.62.66-2.76,1.16-3.93,1.59a40.58,40.58,0,0,0-27,37.34c-.25,9-.29,18,0,27,.76,23.06,20.48,37.76,42.82,31.86C148,361,182.59,351.63,217.18,342.38c2.06-.55,4.13-1,6.85-1.71,0,7.2.21,13.82-.19,20.41-.07,1.16-2.53,2.7-4.15,3.14-24.25,6.63-48.55,13.11-72.84,19.62l-40.52,10.87c-30.54,8.18-56.38-11.3-56.84-43-.18-13,0-26,0-39,0-11.63,4.71-21.27,13.25-29.87C50,273.28,48.92,259.73,49.3,245.49c.35-13.15.06-26.32.07-39.48,0-26.45,15.05-46.45,40.45-53.32Q154.44,135.2,219.14,118C220.56,117.64,222,117.37,224,116.93Z" transform="translate(-19.94 -97.34)" fill="white"/><path d="M54.26,281.31c-8-4.7-16.41-8.77-23.77-14.29s-10.2-14.37-10.33-23.5c-.26-19-.34-38,0-57C20.57,163.47,37,142,59.42,135.82c47.22-12.94,94.56-25.44,141.86-38.09,1.06-.29,2.49-.63,3.31-.16,8.07,4.51,16,9.19,25,14.37l-42.92,11.48q-49.45,13.26-98.92,26.51c-24.27,6.49-41,27.51-41.44,52.58-.29,18.16-.13,36.32,0,54.49C46.31,265.77,48.51,271.32,54.26,281.31Z" transform="translate(-19.94 -97.34)" fill="white"/><path d="M164.74,231.05c0,7.1.17,13.42-.15,19.71a5.06,5.06,0,0,1-3.06,3.52c-17,4.71-34,9.72-51.18,13.62-20.13,4.56-35.39-8.17-35.56-28.8-.08-9.49-.18-19,0-28.49a35.42,35.42,0,0,1,25.87-33.68c40.18-11,80.43-21.62,120.66-32.39a26.71,26.71,0,0,1,2.66-.38c0,7,.2,13.72-.2,20.44-.06,1.09-2.66,2.52-4.31,3-34.41,9.3-68.86,18.44-103.28,27.71-15,4-23.46,18.18-19.46,32.13,3.26,11.38,13.62,17.69,25.13,14.86,12.45-3.06,24.8-6.53,37.2-9.81C160.68,232,162.27,231.67,164.74,231.05Z" transform="translate(-19.94 -97.34)" fill="white"/><path d="M223.84,313.57v22.49q-17,4.56-33.78,9.08L116.7,364.8c-23.41,6.28-41.82-7.82-41.93-32.13,0-6.16.3-12.35-.06-18.49-1-17.75,11.78-34,26.45-38.64,20.58-6.57,41.65-11.61,63.47-17.57,0,7.56.17,14.45-.19,21.31-.05.94-2.66,2.1-4.26,2.54-14.93,4.11-29.93,8-44.86,12.12a26,26,0,0,0-19,22.66c-1.73,15.86,11.84,27.71,27.47,23.61,30.77-8.07,61.47-16.4,92.2-24.61C218.33,315,220.73,314.37,223.84,313.57Z" transform="translate(-19.94 -97.34)" fill="white"/><path d="M247.58,183.45c-10.34-6.27-14.43-14.82-12.57-25.8,3.08-18.08,23-27.77,37.63-18.09,6.22,4.1,12.89,7.52,19.31,11.67-6.53-1-12.69-.47-18.39,2.91A26.32,26.32,0,0,0,261.67,169c-3.73,11.42.05,20.69,12.36,29.3-5.39,1.47-10.26,2.83-15.15,4.14q-67.31,18-134.62,36c-14.13,3.77-25.39-5.46-23.76-18.56,2.71,2.38,6,1.34,9,.56,13.71-3.54,27.37-7.23,41-10.89q46.34-12.37,92.64-24.79C244.33,184.52,245.43,184.13,247.58,183.45Z" transform="translate(-19.94 -97.34)" fill="white"/><path d="M345.78,179.44c-3.48-2.46-6.64-5.8-10.5-7.22-12.57-4.62-17.4-12.8-15.41-26.2,1.19-8,.22-16.29.22-25.77,4.63,2.67,8.54,4.94,12.48,7.18s7.94,4.48,11.91,6.71l.86-1.44L321.84,119c2.07-.77,3.33-1.35,4.65-1.71,12.55-3.38,25.06-6.88,37.68-9.94a12.45,12.45,0,0,1,7.84,1.12c6.23,3.15,12.08,7,18.27,10.3,2.81,1.47,3.59,3.27,3.48,6.27-.23,6.13-.07,12.27-.07,19.16,2.44-.51,4.32-.8,6.14-1.29,17.06-4.55,34.07-9.25,51.18-13.58a12.24,12.24,0,0,1,7.84,1c6.53,3.3,12.82,7.1,19.06,10.94,1.27.78,2.71,2.59,2.72,3.94.15,31.65.12,63.3-.49,95V143.26l-86.9,23.2V121.59c-2.07.43-3.51.65-4.91,1-12.72,3.38-25.39,6.92-38.16,10.09-3.42.85-4.44,2.29-4.39,5.76.18,13.66,0,27.32,0,41Z" transform="translate(-19.94 -97.34)" fill="white"/><path d="M74.75,399.84c-14.74-1.25-27.66-5-38.6-14.1-9.1-7.56-14.07-17.3-14.23-29.12-.23-16.16-.31-32.32,0-48.47.28-13,6.3-23.28,17.11-30.55a5.69,5.69,0,0,1,4.79-.5c4.45,2.17,8.65,4.84,13.36,7.55-9.54,9.75-11.4,21.64-11.06,34.36.3,11.49.05,23,.07,34.48,0,20.22,8,35.75,26.68,44.91A16.2,16.2,0,0,1,74.75,399.84Z" transform="translate(-19.94 -97.34)" fill="white"/><path d="M438,206.52c-4,2.08-7.25,4.06-10.73,5.55-17.42,7.43-33.82-3.37-33.87-22.2,0-5.33-.29-10.68.17-16,.15-1.76,1.91-4.37,3.47-4.86,9.05-2.8,18.28-5,27.42-7.58,3.68-1,4.9.58,4.95,4,.07,5.66.12,11.32.37,17,.1,2.27-.82,5.72,3.17,5.44,3.32-.23,5.41-2.26,5.38-6-.06-6.32.19-12.66-.08-19-.18-3.91,1.29-5.64,5-6.54,8.89-2.15,17.68-4.71,26.54-7,5.1-1.33,6.11-.61,6.12,4.44,0,26.48,0,52.95.05,79.42,0,2.89-.76,4.65-3.8,5.43q-14.5,3.67-28.93,7.71c-4.22,1.17-5-1.05-4.95-4.43q0-16.23,0-32.47C438.32,208.62,438.15,207.81,438,206.52Zm5.86,33.9c8-2.09,15-4.14,22.09-5.71,3.63-.81,4.67-2.46,4.64-6.12-.17-23-.09-46-.1-68.92,0-1.43-.16-2.87-.28-4.76-7.88,2.1-15.21,4.23-22.64,6-3.13.72-3.86,2.3-3.76,5.22.18,5.65.21,11.32,0,17-.23,5.86-5.35,10.41-11.32,10.44-5.28,0-8.11-3.39-8.27-10.26-.11-5.08,0-10.16,0-16-8.35,2.21-15.75,4-23,6.23-1,.31-2.08,2.39-2.14,3.7-.24,5.15-.24,10.32,0,15.47.3,8.09,5.26,13.54,13.11,15.44,10,2.42,17.26-2.76,24.67-8,1.6-1.13,3.69-1.56,5.56-2.31.52,2,1.47,3.95,1.49,5.94C443.94,215.68,443.87,227.64,443.87,240.42Z" transform="translate(-19.94 -97.34)" fill="white"/><path d="M348.76,227.75c-5.61,2.66-10.57,6-16,7.4-14.7,3.79-27.17-6.82-26.62-22,.58-15.87,15.25-29.51,30.85-28.29,3.85.3,7.59,2,12,3.15v-5.13c0-13.83.1-27.66-.08-41.48,0-3.63,1.14-5.42,4.71-6.3,9.7-2.4,19.31-5.12,29-7.65,5-1.32,6-.63,6,4.55,0,28,0,56,.07,84,0,3.42-1.19,5.1-4.53,5.93-9.85,2.47-19.64,5.18-29.45,7.81C351.8,230.5,349.2,230.89,348.76,227.75Zm33.95-94.61c-8.11,2.15-15.93,4.43-23.85,6.22-3.67.83-4.69,2.51-4.65,6.14.19,16.14.15,32.29,0,48.44,0,1.9-1.2,3.79-1.84,5.68-1.47-1.07-3.25-1.9-4.38-3.27-4.23-5.13-9.62-7.14-16-5.92-9.23,1.76-15.51,7.38-18.93,16-3.13,7.91-1.33,16,4.25,20.58,5.3,4.33,14,5,20.56.32,4.2-3,7.25-7.55,10.92-11.3a18.23,18.23,0,0,1,3.41-2.23c.68,1.17,1.76,2.29,2,3.55a44.71,44.71,0,0,1,.09,6.75c9-2.39,16.93-4.66,25-6.58,3.05-.73,3.87-2.15,3.85-5.15-.11-25.14-.06-50.28-.08-75.42C383,135.86,382.85,134.72,382.71,133.14Z" transform="translate(-19.94 -97.34)" fill="white"/><path d="M212.49,256.51c-3.16,3.23-6.4,6.1-9.12,9.41a21.5,21.5,0,0,1-13.32,8c-3.26.59-6.41,1.83-9.68,2.38-1.57.27-3.3-.38-5-.62.53-1.58.65-3.54,1.68-4.67,5.83-6.4,11.88-12.59,17.85-18.86,1.13-1.19,2.21-2.44,3.81-4.2-4.67-3-9.07-5.86-13.48-8.69-3.09-2-6.25-3.83-9.25-5.93-2.47-1.73-3-4.17.28-5.16,9.23-2.79,18.58-5.19,27.95-7.5,1.18-.3,2.83.7,4.08,1.42,3.14,1.82,6.17,3.83,10.34,6.45.83-1.31,1.59-2.61,2.45-3.85,6.8-9.73,16.42-14.65,28-16.13,1.78-.23,3.67.31,5.5.5-.64,1.71-.87,3.8-2,5.06-5.47,6-11.2,11.85-16.83,17.76-1.36,1.43-2.66,2.92-4.35,4.78,7.38,4.66,14.44,9,21.33,13.6,1.45,1,2.27,2.87,3.37,4.34-1.47.91-2.83,2.19-4.42,2.66-6.87,2-13.87,3.56-20.68,5.73-4.2,1.33-7.68,1-11.14-1.75A77.84,77.84,0,0,0,212.49,256.51Zm34.41-3.57c-7.06-4.48-13-8.19-18.8-11.94-4.73-3-4.84-3.91-1.13-7.88,1.93-2.07,3.88-4.11,5.83-6.16,3.18-3.35,6.37-6.7,10.42-10.94-7.86,1.57-7.82,1.61-17.56,11.79-8.14,8.52-5.7,7.65-15.28,2-2.35-1.37-5.16-3.5-7.42-3.15-6.13.94-12.09,3-19.26,5,6.78,4.33,12.61,8,18.42,11.77,4.94,3.19,5,3.83.85,8.2l-15.31,16.1,1,1.49c3-1.76,6.17-3.21,8.79-5.37,3.05-2.53,5.6-5.68,8.35-8.57,5.67-6,5.62-5.91,12.57-1.63,2.77,1.71,6,4.49,8.67,4.19C233.36,257.16,239.48,254.9,246.9,252.94Z" transform="translate(-19.94 -97.34)" fill="white"/><path d="M301.85,220.26c0,6.49-.09,13,0,19.47.06,3-1.16,4.53-4.07,5.27-9.5,2.43-19,5-28.44,7.58-3.58,1-5.05-.48-5.05-3.91,0-13.48-.14-27,.16-40.44,0-1.66,2.08-4.25,3.7-4.74,9.38-2.85,18.94-5.13,28.39-7.76,3.83-1.07,5.31.29,5.28,4.06C301.81,206.61,301.85,213.43,301.85,220.26Zm-5.57-18.76c-8.62,2.3-16.34,4.23-23.94,6.56-1.13.35-2.3,2.57-2.37,4-.27,5.48-.11,11-.11,16.47v18.24c8.55-2.28,16.27-4.25,23.91-6.48a4.16,4.16,0,0,0,2.4-3C296.34,225.65,296.28,214,296.28,201.5Z" transform="translate(-19.94 -97.34)" fill="white"/><path d="M409.57,220.15l25.2-6.76v39c-7.83-4.53-15.75-9-23.47-13.71-1.05-.64-1.59-2.78-1.66-4.26C409.43,229.84,409.57,225.2,409.57,220.15Z" transform="translate(-19.94 -97.34)" fill="white"/><path d="M302.27,173.15c0,11.66-9.32,21.41-20.48,21.53a18.47,18.47,0,0,1-18.46-18.87c0-11.68,9.9-21.73,21.11-21.51C294.63,154.51,302.31,162.62,302.27,173.15Zm-33.39,2.37c-.12,7.79,5.34,13.62,12.75,13.62,8.14,0,15.28-7.44,15.28-15.94,0-7.5-5.4-13.25-12.55-13.37C276.14,159.7,269,166.93,268.88,175.52Z" transform="translate(-19.94 -97.34)" fill="white"/><path d="M345.77,179.45l-45.95,11.91c5.34-7.59,8.3-14.93,6.39-23.33a3.9,3.9,0,0,1,.73-.61c9.87-4.79,17.7.1,25.66,5.15,4.17,2.65,8.77,4.61,13.17,6.87Z" transform="translate(-19.94 -97.34)" fill="white"/></svg>