<?xml version="1.0" encoding="utf-8"?>
<svg version="1.1" viewBox="0 0 3839 458.2" xmlns="http://www.w3.org/2000/svg">
  <path class="st0" d="M 686.9 117 L 856.2 117 L 856.2 161.5 L 735.8 161.5 L 735.8 208.8 L 841.9 208.8 L 841.9 253.3 L 735.8 253.3 L 735.8 339.4 L 686.9 339.4 L 686.9 117 Z" style="fill: rgb(255, 255, 255);"/>
  <path class="st0" d="M 889.5 117 L 938.4 117 L 938.4 339.3 L 889.5 339.3 L 889.5 117 Z" style="fill: rgb(255, 255, 255);"/>
  <path class="st0" d="M 986 117 L 1031.1 117 L 1135.3 253.9 L 1135.3 117 L 1183.6 117 L 1183.6 339.3 L 1142 339.3 L 1034.3 198 L 1034.3 339.3 L 986 339.3 L 986 117 Z" style="fill: rgb(255, 255, 255);"/>
  <path class="st0" d="M 1305.2 115.4 L 1350.3 115.4 L 1445.6 339.3 L 1394.5 339.3 L 1374.2 289.4 L 1280.2 289.4 L 1259.9 339.3 L 1210 339.3 L 1305.2 115.4 Z M 1356.6 246.3 L 1327.1 174.2 L 1297.6 246.3 L 1356.6 246.3 Z" style="fill: rgb(255, 255, 255);"/>
  <path class="st0" d="M 1471.9 117 L 1520.8 117 L 1520.8 294.8 L 1631.6 294.8 L 1631.6 339.3 L 1471.9 339.3 L 1471.9 117 Z" style="fill: rgb(255, 255, 255);"/>
  <path class="st0" d="M 1747.9 117 L 1851.1 117 C 1876.5 117 1896.5 124 1909.2 136.7 C 1919.4 146.9 1924.4 159.2 1924.4 174.5 L 1924.4 175.1 C 1924.4 200.2 1911.1 214.2 1895.2 223.1 C 1920.9 232.9 1936.8 247.9 1936.8 277.7 L 1936.8 278.3 C 1936.8 318.9 1903.8 339.3 1853.6 339.3 L 1747.8 339.3 L 1747.8 117 Z M 1840.6 206.9 C 1862.2 206.9 1875.8 199.9 1875.8 183.4 L 1875.8 182.8 C 1875.8 168.2 1864.4 159.9 1843.7 159.9 L 1795.4 159.9 L 1795.4 206.9 L 1840.6 206.9 Z M 1853.6 296.4 C 1875.2 296.4 1888.2 288.8 1888.2 272.3 L 1888.2 271.7 C 1888.2 256.8 1877.1 247.6 1852 247.6 L 1795.5 247.6 L 1795.5 296.5 L 1853.6 296.5 Z" style="fill: rgb(255, 255, 255);"/>
  <path class="st0" d="M 1965.7 244 L 1965.7 117 L 2014.6 117 L 2014.6 242.8 C 2014.6 279 2032.7 297.7 2062.6 297.7 C 2092.5 297.7 2110.6 279.6 2110.6 244.3 L 2110.6 117 L 2159.5 117 L 2159.5 242.4 C 2159.5 309.7 2121.7 342.8 2062 342.8 C 2002.2 342.8 1965.7 309.5 1965.7 244 Z" style="fill: rgb(255, 255, 255);"/>
  <path class="st0" d="M 2201.3 117 L 2303 117 C 2331.3 117 2353.2 124.9 2367.8 139.5 C 2380.2 151.9 2386.9 169.4 2386.9 190.3 L 2386.9 190.9 C 2386.9 226.8 2367.5 249.3 2339.3 259.8 L 2393.6 339.2 L 2336.4 339.2 L 2288.8 268.1 L 2250.4 268.1 L 2250.4 339.2 L 2201.5 339.2 L 2201.5 117 Z M 2299.8 225 C 2323.6 225 2337.3 212.3 2337.3 193.6 L 2337.3 193 C 2337.3 172 2322.7 161.2 2298.9 161.2 L 2250.3 161.2 L 2250.3 225 L 2299.8 225 Z" style="fill: rgb(255, 255, 255);"/>
  <path class="st0" d="M 2423 117 L 2468.1 117 L 2572.3 253.9 L 2572.3 117 L 2620.6 117 L 2620.6 339.3 L 2579 339.3 L 2471.3 198 L 2471.3 339.3 L 2423 339.3 L 2423 117 Z" style="fill: rgb(255, 255, 255);"/>
  <path class="st0" d="M 2829.5 115.4 L 2874.6 115.4 L 2969.9 339.3 L 2918.8 339.3 L 2898.5 289.4 L 2804.5 289.4 L 2784.2 339.3 L 2734.3 339.3 L 2829.5 115.4 Z M 2880.9 246.3 L 2851.4 174.2 L 2821.9 246.3 L 2880.9 246.3 Z" style="fill: rgb(255, 255, 255);"/>
  <path class="st0" d="M 2996.2 117 L 3045.1 117 L 3045.1 294.8 L 3155.9 294.8 L 3155.9 339.3 L 2996.2 339.3 L 2996.2 117 Z" style="fill: rgb(255, 255, 255);"/>
  <path class="st0" d="M 3184.8 117 L 3275.6 117 C 3328.6 117 3360.7 148.4 3360.7 193.9 L 3360.7 194.5 C 3360.7 245.9 3320.7 272.6 3270.8 272.6 L 3233.6 272.6 L 3233.6 339.3 L 3184.7 339.3 L 3184.7 117 Z M 3272.5 229.1 C 3297 229.1 3311.2 214.5 3311.2 195.4 L 3311.2 194.8 C 3311.2 172.9 3296 161.1 3271.5 161.1 L 3233.7 161.1 L 3233.7 229.1 L 3272.5 229.1 Z" style="fill: rgb(255, 255, 255);"/>
  <path class="st0" d="M 3389 117 L 3437.9 117 L 3437.9 205 L 3528.1 205 L 3528.1 117 L 3577 117 L 3577 339.3 L 3528.1 339.3 L 3528.1 250.1 L 3437.9 250.1 L 3437.9 339.3 L 3389 339.3 L 3389 117 Z" style="fill: rgb(255, 255, 255);"/>
  <path class="st0" d="M 3698.6 115.4 L 3743.7 115.4 L 3839 339.3 L 3787.9 339.3 L 3767.6 289.4 L 3673.6 289.4 L 3653.3 339.3 L 3603.4 339.3 L 3698.6 115.4 Z M 3750.1 246.3 L 3720.6 174.2 L 3691.1 246.3 L 3750.1 246.3 Z" style="fill: rgb(255, 255, 255);"/>
  <path class="st0" d="M 433.7 0 L 0 0 L 0 58.4 L 352.8 182.5 L 554 182.5 L 554 120.2 C 554 53.8 500.1 0 433.7 0 Z M 336.7 193 L 184.7 139.6 L 184.7 357.8 L 117.1 382 L 117.1 458.2 L 385.7 458.2 L 385.7 330 L 336.7 330 L 336.7 193 Z M 352.8 313.8 L 554 313.8 L 554 198.7 L 352.8 198.7 L 352.8 313.8 Z" style="fill: rgb(255, 255, 255);"/>
</svg>