<?xml version="1.0" encoding="utf-8"?>
<svg id="svg" version="1.1" xmlns="http://www.w3.org/2000/svg">
  <path id="path3" d="M 0 0 L 20.696 0 C 39.08 0 41.481 0.023 42.181 0.203 C 45.315 1.01 48.086 3.85 49.287 7.49 C 49.539 8.251 49.561 8.606 49.561 12.044 L 49.561 15.772 L 33.674 15.772 L 27.341 13.776 C 10.87 8.585 2.054 5.823 1.073 5.544 L 0 5.239 L 0 0 Z M 16.687 11.184 C 16.912 11.262 19.981 12.231 24.52 13.655 C 26.666 14.329 28.789 14.997 29.236 15.142 L 30.049 15.405 L 30.049 21.89 L 30.048 28.376 L 34.406 28.376 L 34.369 29.732 C 34.317 31.715 34.117 35.65 34.03 36.525 C 34.118 35.676 34.327 31.977 34.372 30.375 C 34.389 29.773 34.419 31.579 34.439 34.386 C 34.458 37.195 34.446 39.566 34.412 39.654 C 34.363 39.783 31.87 39.816 22.504 39.816 L 10.659 39.816 L 10.671 36.794 L 10.684 33.772 L 11.226 33.53 C 11.523 33.396 11.812 33.303 11.867 33.32 C 11.922 33.338 11.968 33.291 11.968 33.216 C 11.968 33.14 12.026 33.115 12.097 33.159 C 12.169 33.203 12.228 33.173 12.228 33.094 C 12.228 33.015 12.286 32.985 12.358 33.03 C 12.429 33.073 12.487 33.05 12.487 32.976 C 12.487 32.904 12.585 32.881 12.704 32.926 C 12.761 32.948 12.803 32.958 12.827 32.955 C 12.673 33.091 12.385 33.272 11.993 33.469 C 12.866 33.032 13.203 32.811 12.904 32.879 C 12.89 32.895 12.874 32.912 12.855 32.929 C 12.855 32.919 12.853 32.908 12.846 32.893 C 12.826 32.899 12.804 32.905 12.78 32.912 C 12.712 32.931 12.733 32.906 12.821 32.849 C 12.773 32.769 12.763 32.707 12.797 32.707 C 12.896 32.707 12.946 32.729 12.954 32.767 C 13.017 32.732 13.091 32.69 13.175 32.644 C 13.518 32.459 13.863 32.349 13.943 32.399 C 14.039 32.456 14.052 32.429 13.982 32.316 C 13.904 32.191 13.936 32.168 14.099 32.23 C 14.228 32.279 14.29 32.264 14.245 32.192 C 14.203 32.123 14.688 31.808 15.323 31.491 L 16.477 30.916 L 16.474 30.543 C 16.463 30.758 16.446 30.892 16.426 30.913 C 16.37 30.969 16.354 30.071 16.39 28.919 L 16.453 26.864 L 16.419 21.156 C 16.388 15.788 16.399 11.337 16.445 11.263 C 16.491 11.189 16.6 11.153 16.687 11.184 Z M 31.476 16.935 L 49.561 16.935 L 49.561 27.019 L 40.553 26.986 L 31.544 26.954 L 31.51 21.945 L 31.476 16.935 Z M 51.121 0 L 74.926 0 L 74.926 5.885 L 69.077 8.788 L 69.042 12.16 L 69.008 15.532 L 67.642 15.965 C 66.891 16.203 65.134 16.755 63.74 17.193 C 62.344 17.63 59.958 18.391 58.437 18.884 C 56.917 19.376 55.606 19.779 55.524 19.779 C 55.414 19.779 55.393 18.686 55.447 15.578 L 55.519 11.376 L 51.121 11.376 L 51.121 0 Z M 68.975 16.94 C 69.029 16.937 69.073 19.509 69.073 22.656 L 69.072 28.376 L 71.298 28.337 L 73.523 28.299 L 73.443 29.695 C 73.439 29.758 73.435 29.83 73.431 29.906 L 73.464 34.645 C 73.483 37.311 73.47 39.565 73.436 39.654 C 73.387 39.783 70.903 39.816 61.528 39.816 L 49.683 39.816 L 49.696 36.794 L 49.708 33.772 L 50.25 33.53 C 50.547 33.396 50.836 33.303 50.891 33.32 C 50.946 33.338 50.992 33.291 50.992 33.216 C 50.992 33.14 51.05 33.115 51.121 33.159 C 51.193 33.203 51.252 33.173 51.252 33.094 C 51.252 33.015 51.305 32.983 51.371 33.023 C 51.436 33.063 51.513 33.026 51.542 32.94 C 51.581 32.822 51.617 32.821 51.688 32.934 C 51.731 33.004 51.602 33.13 51.314 33.303 C 51.577 33.147 51.742 33.021 51.719 32.984 C 51.63 32.84 53.059 32.165 53.231 32.272 C 53.311 32.32 53.336 32.299 53.288 32.222 C 53.238 32.142 53.697 31.832 54.393 31.475 L 55.583 30.864 L 55.531 26.012 L 55.479 21.16 L 59.316 19.968 C 61.427 19.313 64.442 18.364 66.016 17.86 C 67.59 17.358 68.922 16.943 68.975 16.94 Z M 76.487 0 L 88.422 0.003 L 100.357 0.006 L 101.723 1.328 C 102.475 2.055 104.289 3.784 105.756 5.17 C 107.222 6.556 109.154 8.401 110.048 9.268 L 111.674 10.847 L 111.673 11.155 C 111.681 11.142 111.69 11.16 111.701 11.213 C 111.731 11.372 111.732 11.663 111.702 11.859 C 111.69 11.937 111.679 11.964 111.67 11.944 L 111.647 18.131 C 111.657 17.778 111.667 17.581 111.676 17.581 C 111.711 17.581 111.739 20.258 111.739 23.528 C 111.739 26.799 111.695 29.474 111.641 29.474 C 111.609 29.474 111.587 28.524 111.577 27.063 C 111.551 28.515 111.52 29.335 111.486 29.323 C 111.421 29.299 110.702 28.64 109.891 27.859 C 109.078 27.076 107.857 25.913 107.177 25.273 C 103.933 22.219 100.727 19.182 99.251 17.762 C 98.357 16.902 97.245 15.845 96.78 15.414 L 95.934 14.629 L 95.9 18.69 C 95.877 21.365 95.82 22.752 95.732 22.752 C 95.658 22.752 94.883 22.523 94.01 22.243 C 91.555 21.454 84.758 19.331 83.399 18.928 L 82.18 18.566 L 82.232 13.703 L 82.284 8.842 L 79.385 7.372 L 76.487 5.901 L 76.487 0 Z M 85.073 20.8 C 85.967 21.09 88.762 21.978 91.284 22.773 L 95.869 24.219 L 95.869 26.851 L 91.544 25.5 C 89.165 24.756 86.107 23.812 84.747 23.401 L 82.276 22.654 L 82.238 21.452 C 82.217 20.791 82.228 20.179 82.263 20.09 C 82.332 19.91 82.314 19.906 85.073 20.8 Z M 83.199 24.05 C 83.621 24.195 86.484 25.1 89.56 26.061 C 92.637 27.021 95.319 27.872 95.52 27.949 L 95.887 28.091 L 95.826 30.108 C 95.804 30.86 95.775 31.62 95.742 32.345 C 95.804 32.208 95.845 33.51 95.854 35.842 L 95.869 39.818 L 82.276 39.752 L 82.271 33.03 C 82.267 27.386 82.281 26.867 82.356 29.798 C 82.438 33.001 82.499 34.788 82.623 35.777 C 82.606 35.567 82.59 35.321 82.572 35.033 C 82.437 32.912 82.204 24.156 82.276 23.947 C 82.347 23.745 82.291 23.739 83.199 24.05 Z M 113.04 0 L 126.57 0 L 126.521 16.45 C 126.496 24.882 126.456 30.116 126.381 33.168 C 126.384 33.152 126.387 33.137 126.39 33.126 C 126.548 32.541 126.568 32.903 126.568 36.326 L 126.568 39.816 L 113.04 39.816 L 113.042 36.552 C 113.043 34.669 113.097 33.207 113.17 33.094 C 113.088 33.221 113.043 27.438 113.042 16.644 L 113.04 0 Z M 128.09 0 L 152.714 0 L 152.714 6.443 L 155.608 7.929 L 158.503 9.415 L 158.541 10.395 L 158.579 11.376 L 147.641 11.376 L 147.641 17.063 C 147.641 20.978 147.598 22.752 147.503 22.752 C 147.428 22.752 144.867 21.97 141.813 21.014 C 138.758 20.059 135.747 19.124 135.121 18.938 L 133.983 18.6 L 133.983 8.792 L 131.121 7.369 L 128.259 5.946 L 128.259 4.35 C 128.259 3.473 128.221 2.135 128.175 1.377 L 128.09 0 Z M 134.21 19.967 C 134.336 20.016 136.457 20.696 138.926 21.478 C 141.394 22.261 144.349 23.202 145.492 23.57 L 147.571 24.239 L 147.538 27.859 C 147.509 31.008 147.35 34.985 147.208 36.297 C 147.353 34.997 147.516 31.255 147.542 28.424 C 147.56 26.62 147.589 28.373 147.609 32.318 C 147.628 36.265 147.616 39.566 147.581 39.654 C 147.533 39.781 146.046 39.816 140.751 39.816 L 133.983 39.816 L 133.985 36.229 C 133.986 33.806 134.048 32.472 134.125 32.498 C 134.114 32.467 134.104 32.458 134.094 32.473 C 134.035 32.566 133.986 29.77 133.985 26.261 C 133.983 20.237 133.996 19.886 134.21 19.967 Z M 154.145 0 L 173.535 0 L 173.486 15.998 C 173.461 24.199 173.413 29.647 173.33 32.913 C 173.387 31.917 173.442 31.196 173.469 31.17 C 173.503 31.137 173.516 33.053 173.496 35.43 L 173.462 39.752 L 159.869 39.818 L 159.894 33.71 C 159.915 28.524 159.927 27.946 160.001 30.097 C 159.989 29.349 159.981 28.53 159.978 27.697 L 159.969 25.17 C 159.968 25.195 159.966 25.218 159.965 25.24 C 159.939 25.614 159.917 25.309 159.917 24.563 C 159.917 23.816 159.939 23.51 159.965 23.882 L 159.961 22.752 L 149.072 22.752 L 149.072 19.133 L 159.869 19.133 L 159.869 16.697 C 159.869 15.357 159.904 13.046 159.948 11.559 L 160.027 8.856 L 157.086 7.382 L 154.145 5.909 L 154.145 0 Z M 175.086 0 L 188.617 0 L 188.617 9.885 C 188.617 17.736 188.583 19.76 188.454 19.717 C 188.364 19.687 185.657 18.842 182.438 17.839 C 179.218 16.835 176.262 15.911 175.869 15.785 L 175.153 15.556 L 175.12 7.777 L 175.086 0 Z M 175.084 16.928 L 175.383 17.003 C 175.547 17.045 178.578 17.994 182.117 19.113 L 188.552 21.148 L 188.585 26.087 L 188.62 31.025 L 202.802 31.025 L 196.733 30.993 L 190.112 30.959 L 196.8 30.928 L 203.486 30.896 L 203.394 35.255 C 203.344 37.652 203.285 39.632 203.263 39.652 C 203.242 39.674 196.893 39.73 189.156 39.776 L 175.088 39.859 L 175.097 36.056 C 175.102 33.813 175.152 32.36 175.218 32.512 C 175.231 32.544 175.245 32.604 175.258 32.691 C 175.199 30.652 175.156 27.926 175.135 24.656 L 175.084 16.928 Z" style="fill: rgb(255, 255, 255);"/>
  <path id="path3" d="M 203.733 72.174 C 204.284 72.343 208.052 73.539 209.074 73.869 L 210.081 74.195 L 210.081 74.766 C 210.081 75.505 210.248 75.522 206.569 74.376 L 203.513 73.422 L 203.473 72.753 C 203.435 72.107 203.443 72.086 203.733 72.174 Z M 206.404 62.409 L 212.1 62.409 L 214.863 65.02 L 217.626 67.63 L 217.626 76.678 L 217.269 76.348 C 217.072 76.167 215.394 74.585 213.54 72.833 C 211.687 71.081 210.153 69.664 210.132 69.685 C 210.111 69.706 210.082 70.549 210.068 71.56 C 210.048 72.969 210.003 73.398 209.873 73.398 C 209.78 73.398 208.984 73.171 208.104 72.894 C 207.224 72.618 205.816 72.177 204.976 71.918 L 203.447 71.444 L 203.447 69.093 L 203.447 66.74 L 202.049 66.03 L 200.651 65.318 L 200.613 64.034 C 200.592 63.329 200.605 62.675 200.642 62.58 C 200.695 62.442 201.803 62.409 206.404 62.409 Z M 203.447 73.932 L 204.391 74.24 C 204.909 74.408 206.373 74.873 207.643 75.272 L 209.952 75.996 L 209.952 81.671 L 203.447 81.671 L 203.447 73.932 Z M 218.276 62.409 L 224.911 62.409 L 224.911 81.671 L 218.276 81.671 L 218.276 62.409 Z M 225.691 70.166 L 239.219 70.166 L 239.219 71.846 L 225.691 71.846 L 225.691 70.166 Z M 225.691 72.364 L 239.219 72.364 L 239.219 74.044 L 232.195 74.044 L 232.195 81.671 L 225.691 81.671 L 225.691 72.364 Z M 239.219 76.759 L 243.382 76.759 L 243.382 81.671 L 232.716 81.671 L 232.716 77.793 L 239.219 77.793 L 239.219 76.759 Z M 232.716 62.409 L 243.382 62.409 L 243.382 67.322 L 239.219 67.322 L 239.219 66.288 L 232.716 66.288 L 232.716 62.409 Z M 225.691 62.409 L 232.195 62.409 L 232.195 69.778 L 225.691 69.778 L 225.691 62.409 Z M 244.159 62.408 L 254.08 62.441 L 264 62.474 L 263.996 69.997 C 263.994 74.135 263.962 77.551 263.924 77.589 C 263.887 77.625 262.425 77.206 260.676 76.656 L 257.496 75.658 L 257.427 67.839 L 250.797 67.839 L 250.797 70.684 C 250.797 72.248 250.753 73.526 250.699 73.526 C 250.646 73.525 249.168 73.073 247.414 72.521 L 244.227 71.516 L 244.193 66.963 L 244.159 62.408 Z M 244.311 72.234 C 244.474 72.234 250.516 74.146 250.689 74.252 C 250.748 74.288 250.797 74.78 250.797 75.345 L 250.797 76.371 L 254.146 76.373 L 257.496 76.376 L 260.683 77.384 L 263.87 78.393 L 263.906 80.02 L 263.942 81.649 L 254.865 81.693 C 249.873 81.716 245.423 81.716 244.976 81.692 L 244.162 81.648 L 244.162 76.942 C 244.162 73.506 244.202 72.234 244.311 72.234 Z" style="fill: rgb(255, 255, 255);"/>
  <path id="path3" d="M 8.06 42.014 L 31.481 42.014 L 31.448 49.608 L 31.415 57.204 L 24.62 57.237 L 17.826 57.27 L 17.791 54.403 L 17.756 51.535 L 13.724 50.275 C 11.505 49.582 9.34 48.906 8.91 48.771 L 8.13 48.528 L 8.095 45.27 L 8.06 42.014 Z M 32.52 42.014 L 41.273 42.014 C 50.906 42.014 50.951 42.018 52.187 42.805 C 53.038 43.348 53.681 44.097 54.161 45.1 L 54.569 45.956 L 54.643 61.405 L 17.821 61.405 L 17.821 58.027 L 20.91 58.117 C 21.699 58.141 23.351 58.152 25.423 58.153 C 24.796 58.15 24.208 58.146 23.707 58.141 C 21.865 58.12 23.372 58.104 27.056 58.104 C 30.224 58.104 31.782 58.116 30.988 58.132 C 31.858 58.126 32.735 58.118 33.601 58.11 L 43.202 58.012 L 43.162 54.699 C 43.101 49.729 43.491 50.029 37.078 50.029 L 32.52 50.029 L 32.52 42.014 Z M 17.821 62.403 L 18.894 62.484 C 19.011 62.493 19.432 62.502 20.106 62.51 C 20.202 62.498 20.614 62.491 21.268 62.491 C 22.254 62.491 22.719 62.508 22.389 62.53 C 25.795 62.551 31.309 62.566 37.32 62.567 L 54.673 62.568 L 54.583 66.479 C 54.573 66.934 54.563 67.37 54.553 67.789 C 54.566 67.523 54.582 67.622 54.602 68.062 C 54.763 71.716 54.565 77.887 54.263 78.635 C 53.841 79.681 52.761 80.806 51.666 81.343 L 50.802 81.765 L 32.52 81.837 L 32.52 74.073 L 37.085 74.073 C 42.529 74.073 42.736 74.022 43.06 72.59 L 43.149 72.199 L 43.222 72.464 C 43.272 71.774 43.23 70.826 43.213 69.517 L 43.171 66.059 C 43.171 66.059 31.415 66.059 31.415 66.059 C 31.45 66.059 31.48 69.607 31.48 73.944 L 31.48 81.83 L 14.699 81.83 L 14.699 75.913 L 16.227 75.135 L 17.756 74.358 L 17.834 72.921 C 17.866 72.328 17.902 71.915 17.936 71.678 C 17.887 71.472 17.844 69.618 17.836 67.237 L 17.821 62.403 Z M 56.374 62.181 C 56.414 62.181 57.84 62.621 59.541 63.161 C 61.242 63.699 64.244 64.649 66.211 65.27 L 69.788 66.402 L 69.758 68.623 L 69.732 70.54 L 69.748 70.034 L 69.772 69.226 L 69.819 69.968 L 69.866 70.71 L 76.851 70.745 L 83.837 70.779 L 76.78 70.811 L 69.728 70.842 L 76.782 70.846 L 83.837 70.85 L 85.298 71.344 C 86.102 71.615 86.727 71.869 86.687 71.908 C 86.648 71.948 86.693 71.976 86.787 71.972 C 87.292 71.95 87.552 72.017 87.471 72.149 C 87.41 72.246 87.475 72.262 87.674 72.199 C 87.887 72.132 87.94 72.15 87.869 72.264 C 87.799 72.378 87.852 72.396 88.064 72.328 C 88.284 72.259 88.331 72.278 88.254 72.401 C 88.239 72.427 88.228 72.448 88.222 72.465 C 88.231 72.451 88.245 72.435 88.261 72.416 C 88.405 72.26 88.975 72.354 88.975 72.534 C 88.975 72.594 89.063 72.61 89.17 72.569 C 89.277 72.528 89.365 72.557 89.365 72.633 C 89.365 72.71 89.453 72.74 89.56 72.698 C 89.667 72.657 89.755 72.683 89.755 72.755 C 89.755 72.827 89.864 72.858 89.996 72.823 C 90.129 72.79 90.319 72.843 90.42 72.943 C 90.475 72.997 90.542 73.042 90.603 73.067 C 90.638 73.052 90.656 73.058 90.65 73.082 C 90.682 73.09 90.71 73.092 90.732 73.085 C 90.803 73.063 92.295 73.498 94.048 74.053 L 97.235 75.06 L 97.269 78.51 L 97.304 81.959 L 56.195 81.959 L 56.221 72.038 C 56.246 62.35 56.249 62.248 56.34 67.739 C 56.403 71.531 56.451 73.868 56.538 75.304 C 56.46 73.89 56.422 71.6 56.374 67.901 C 56.333 64.755 56.333 62.181 56.374 62.181 Z M 56.195 42.143 L 69.853 42.143 L 69.853 53.52 C 69.853 62.312 69.818 64.895 69.696 64.895 C 69.61 64.895 67.488 64.251 64.981 63.463 C 59.861 61.855 56.761 60.887 56.422 60.792 C 56.209 60.732 56.195 60.175 56.195 51.436 L 56.195 42.143 Z M 83.641 42.143 L 97.343 42.143 L 97.255 57.171 C 97.24 59.748 97.228 61.912 97.216 63.729 L 97.235 62.116 L 97.269 67.792 C 97.287 70.913 97.278 73.492 97.248 73.522 C 97.157 73.613 95.739 73.13 95.739 73.008 C 95.739 72.947 95.683 72.93 95.615 72.971 C 95.385 73.112 94.791 72.894 94.965 72.733 C 94.975 72.723 94.984 72.715 94.993 72.708 C 94.977 72.712 94.96 72.716 94.942 72.721 C 94.744 72.784 94.694 72.765 94.763 72.651 C 94.834 72.538 94.781 72.52 94.569 72.587 C 94.356 72.653 94.302 72.636 94.373 72.522 C 94.444 72.41 94.393 72.39 94.195 72.453 C 94.034 72.503 93.918 72.483 93.918 72.406 C 93.918 72.332 93.83 72.306 93.723 72.346 C 93.616 72.387 93.528 72.353 93.528 72.27 C 93.528 72.187 93.475 72.151 93.41 72.191 C 93.346 72.231 91.516 71.715 89.345 71.044 C 87.174 70.374 85.017 69.712 84.552 69.573 L 83.707 69.321 L 83.641 42.143 Z M 98.861 42.143 L 119.214 42.143 C 139.486 42.143 139.569 42.145 140.287 42.411 C 141.723 42.945 142.83 44.105 143.34 45.608 C 143.604 46.386 143.787 64.249 143.531 64.249 C 143.461 64.249 140.552 63.331 135.414 61.685 C 133.305 61.01 128.609 59.561 126.991 59.085 C 126.152 58.84 126.048 58.773 126.048 58.491 L 126.048 58.173 L 129.95 58.173 L 129.95 54.845 C 129.95 49.738 130.453 50.107 123.414 50.055 L 118.243 50.018 L 118.243 58.555 C 118.243 63.251 118.199 67.092 118.146 67.09 C 118.092 67.089 116.965 66.747 115.641 66.332 C 114.318 65.915 111.42 65.012 109.203 64.324 C 106.984 63.637 105.035 63.018 104.87 62.95 L 104.57 62.826 L 104.61 56.9 L 104.65 50.973 L 101.755 49.499 L 98.861 48.025 L 98.861 45.084 L 98.861 42.143 Z M 104.6 63.966 L 104.885 64.044 C 105.042 64.087 108.097 65.048 111.674 66.179 L 118.178 68.234 L 118.17 69.958 C 118.167 70.599 118.146 71.458 118.114 72.379 C 118.167 72.645 118.215 74.159 118.224 76.674 L 118.243 81.795 L 111.511 81.86 C 107.809 81.896 104.736 81.9 104.682 81.87 C 104.628 81.839 104.596 78.342 104.612 74.098 C 104.626 69.968 104.637 68.177 104.662 68.144 L 104.6 63.966 Z M 119.281 58.173 L 119.898 58.173 C 120.475 58.173 124.053 59.228 130.406 61.271 C 131.478 61.617 134.054 62.433 136.129 63.086 C 138.204 63.739 140.224 64.376 140.617 64.501 L 141.332 64.728 L 141.332 66.848 C 141.332 67.473 141.325 68.337 141.313 69.202 C 141.359 68.579 141.398 69.293 141.398 71.32 C 141.398 72.421 141.366 73.316 141.321 73.556 C 141.336 73.583 141.352 73.592 141.371 73.589 C 141.457 73.571 141.527 73.621 141.527 73.701 C 141.527 73.772 141.617 73.806 141.738 73.788 C 141.457 73.649 141.43 73.557 141.723 73.557 C 141.83 73.557 141.918 73.6 141.918 73.653 C 141.918 73.707 142.077 73.759 142.271 73.77 C 142.466 73.782 142.647 73.855 142.673 73.933 C 142.682 73.961 142.697 73.983 142.715 73.999 C 142.718 73.997 142.722 73.995 142.724 73.993 C 142.799 73.946 142.827 73.96 142.795 74.022 C 142.806 74.02 142.817 74.016 142.829 74.009 C 142.888 73.972 143.088 74 143.273 74.07 L 143.609 74.197 L 143.609 81.83 L 137.723 81.831 C 134.485 81.831 130.914 81.869 129.788 81.916 L 127.739 82 L 127.739 77.923 C 127.739 75.681 127.783 73.651 127.836 73.412 C 127.894 73.149 127.957 73.832 128.009 75.283 C 128.007 75.136 128.004 74.991 128.001 74.849 C 127.984 73.689 127.933 73.099 127.869 73.298 C 127.805 73.497 127.759 72.953 127.75 71.876 L 127.735 70.131 L 123.542 68.824 L 119.349 67.516 L 119.314 62.845 L 119.281 58.173 Z M 155.576 63.51 C 160.293 65.025 164.393 66.317 164.48 66.317 C 164.519 66.317 164.552 66.906 164.552 67.626 C 164.552 68.81 164.53 68.927 164.324 68.867 C 164.199 68.829 162.574 68.324 160.714 67.742 C 158.854 67.161 155.942 66.256 154.244 65.734 C 152.545 65.211 151.104 64.751 151.041 64.712 C 150.914 64.634 150.837 62.376 150.955 62.186 C 151.04 62.049 150.889 62.005 155.576 63.51 Z M 151.068 65.929 C 151.128 65.929 152.621 66.391 154.385 66.956 C 156.149 67.521 159.144 68.468 161.039 69.062 L 164.487 70.139 L 164.472 71.428 C 164.468 71.869 164.451 72.465 164.427 73.126 C 164.483 73.024 164.526 74.604 164.536 77.192 L 164.552 81.796 L 157.82 81.859 C 154.118 81.894 151.045 81.899 150.991 81.869 C 150.937 81.839 150.906 78.284 150.921 73.969 C 150.94 68.624 150.951 67.079 150.988 68.175 C 150.995 66.851 151.024 65.929 151.068 65.929 Z M 145.169 42.143 L 169.04 42.156 L 170.89 43.927 C 171.908 44.902 174.435 47.298 176.505 49.253 L 180.269 52.808 L 180.28 62.165 L 180.291 71.444 C 180.292 71.444 180.293 71.443 180.293 71.443 L 180.291 71.541 L 180.227 71.482 C 180.232 71.481 180.238 71.479 180.243 71.478 L 179.673 70.964 C 179.386 70.705 178.719 70.085 177.897 69.317 C 178.02 69.455 178.09 69.549 178.066 69.549 C 178.03 69.549 177.802 69.346 177.56 69.097 C 177.331 68.862 177.167 68.667 177.179 68.645 C 175.855 67.404 174.326 65.963 173.333 65.016 C 173.088 64.783 172.802 64.511 172.504 64.228 C 172.582 64.32 172.622 64.378 172.603 64.378 C 172.567 64.378 172.339 64.174 172.096 63.926 C 171.878 63.701 171.719 63.514 171.715 63.48 C 171.32 63.105 170.948 62.752 170.665 62.487 C 169.986 61.846 168.347 60.291 167.023 59.028 L 164.617 56.735 L 164.582 60.815 C 164.563 63.059 164.514 64.895 164.473 64.895 C 164.431 64.895 161.783 64.077 158.588 63.076 C 155.393 62.076 152.37 61.131 151.869 60.976 L 150.958 60.694 L 150.958 50.918 L 145.171 48.025 L 145.17 45.084 L 145.169 42.143 Z M 181.722 42.143 L 195.253 42.143 L 195.205 58.141 C 195.182 65.815 195.138 71.17 195.069 74.561 C 195.075 74.514 195.081 74.475 195.088 74.445 C 195.142 74.206 195.201 75.749 195.22 77.875 C 195.239 80 195.239 81.754 195.22 81.769 C 195.201 81.785 192.157 81.825 188.454 81.858 L 181.722 81.917 L 181.722 78.197 C 181.722 75.856 181.771 74.447 181.853 74.396 C 181.766 74.45 181.722 69.055 181.722 58.31 L 181.722 42.143 Z" style="fill: rgb(255, 255, 255);"/>
</svg>