<?xml version="1.0" encoding="utf-8"?>
<!-- Made by Szalik  -->
<svg version="1.1" id="Warstwa_1" xmlns="http://www.w3.org/2000/svg" xmlns:xlink="http://www.w3.org/1999/xlink" x="0px" y="0px" xml:space="preserve">
<g>
	<g>
		<path d="M214.57,189.04c1.31,5.22,2.24,9.62,3.52,13.91c5.53,18.47,15.27,33.78,32.92,42.97c16.66,8.68,34.33,10.6,52.35,6.25
			c18.6-4.5,32.48-15.85,42.09-32.4c0.67-1.15,1.62-2.14,2.44-3.21c-0.15,1.61-0.16,3.24-0.48,4.81
			c-2.69,13.19-5.44,26.37-8.17,39.56c-2.33,11.23-4.7,22.45-6.91,33.7c-0.09,0.46,1.44,1.86,1.98,1.74
			c14.85-3.27,28.87-8.72,41.68-16.97c13.9-8.95,24.55-21.05,33.11-35.1c6.55-10.76,11.16-22.3,13.55-34.63
			c4.43-22.82,1.68-44.72-9.35-65.36c-7.77-14.54-18.38-26.76-30.96-37.32c-1.09-0.92-2.32-1.67-3.13-2.85
			c45.46,25.53,68.97,64.85,72.47,117.3c0.55-1.02,0.63-1.14,0.67-1.26c0.04-0.11,0.05-0.23,0.25-1.26c0,2.6,0,4.28,0,5.97
			c0,1.72,0,3.44,0,5.69c-0.2-0.95-0.3-1.38-0.47-2.2c-0.73,5.65-1.27,10.92-2.11,16.14c-3.92,24.34-10.92,47.61-26.45,67.27
			c-12.49,15.8-28.5,27.59-46.01,37.44c-13.48,7.58-27.82,12.81-42.84,16.19c-4.98,1.12-10.07,1.74-15.14,2.35
			c-0.58,0.07-2.04-1.49-1.93-2.06c3.81-18.79,7.77-37.56,11.69-56.33c0.76-3.64,1.49-7.28,2.11-10.94
			c0.07-0.41-0.67-1.34-1.09-1.38c-10.67-1.03-21.42-1.49-32.01-3.04c-13.02-1.9-25.74-5.79-36.38-13.58
			c-8.82-6.45-17.05-14.05-24.26-22.27c-11.89-13.57-18.4-30.01-21.44-47.73c-1.05-6.12-1.39-12.37-2.02-18.56
			C214.19,191.21,214.4,190.52,214.57,189.04z" fill="white"/>
		<path d="M81.99,313.37c5.88,0,11.76-0.04,17.63,0.06c0.53,0.01,1.54,0.97,1.51,1.42c-0.37,5.2-0.64,10.44-1.46,15.58
			c-0.92,5.82-2.32,11.56-3.58,17.32c-1.59,7.24-3.68,14.41-4.68,21.73c-0.44,3.23-2.65,3.35-4.31,4.53
			c-1.11,0.79-2.66,1.34-4.02,1.36c-10.2,0.11-20.41,0.27-30.59-0.14c-1.75-0.07-5.34-0.74-4.94-4.32c0.27-2.39,0.83-4.76,1.46-7.08
			c0.13-0.48,1.17-1.05,1.75-1.01c3.56,0.27,7.12,1.07,10.66,1c4.3-0.09,8.62-0.69,12.85-1.47c0.83-0.15,1.4-2.12,1.93-3.32
			c0.13-0.3-0.41-1.27-0.51-1.26c-0.88,0.17-1.72,0.55-2.59,0.77c-1.98,0.49-3.95,1.18-5.96,1.32c-3.02,0.21-6.07,0.03-9.11,0.01
			c-3.68-0.02-7.01-3.16-6.64-6.83c0.51-5.09,1.5-10.14,2.28-15.21c0.46-3.01,0.7-6.08,1.41-9.03c0.94-3.88,1.67-8.01,3.62-11.38
			c1.15-1.99,4.4-3.57,6.86-3.82c5.42-0.57,10.94-0.18,16.42-0.18C81.99,313.42,81.99,313.4,81.99,313.37z M80.09,339.76
			c-0.27-0.12-0.54-0.25-0.81-0.37c0.26-1.02,0.59-2.03,0.77-3.07c0.69-4.04,1.42-8.08,1.9-12.15c0.06-0.48-1.29-1.59-2.03-1.62
			c-4.07-0.19-5.37,1.75-5.73,6.2c-0.33,4.12-1.58,8.17-2.27,12.28c-0.18,1.06,0.09,3.12,0.41,3.17c1.74,0.28,3.88,0.65,5.26-0.12
			C78.83,343.38,79.29,341.26,80.09,339.76z" fill="white"/>
		<path d="M291,313.38c4.48,0,8.95,0,13.43,0c2.68,0,5.64,3.05,5.62,5.74c-0.02,3.08,0.3,6.2-0.1,9.22
			c-0.41,3.07-1.53,6.04-2.31,9.06c-0.15,0.56-0.17,1.15-0.25,1.73c-0.85,5.93-1.19,11.8-4.83,17.2c-2.81,4.17-6.76,4.01-10.32,4.33
			c-6.33,0.58-12.8,0.41-19.14-0.2c-3.06-0.3-5.96-2.31-8.9-3.62c-0.28-0.13-0.44-0.85-0.41-1.28c0.4-4.95,0.67-9.92,1.35-14.83
			c0.64-4.57,1.51-9.13,2.72-13.58c0.96-3.52,2.12-7.15,4.08-10.16c1.14-1.76,3.92-3.13,6.13-3.4c4.25-0.53,8.62-0.15,12.93-0.15
			C291,313.41,291,313.4,291,313.38z M292.08,325.93c-0.26-0.28-1.29-1.81-1.63-1.67c-1.57,0.65-3.54,1.45-4.23,2.78
			c-0.84,1.62-0.42,3.85-0.75,5.79c-0.74,4.37-1.8,8.7-2.3,13.1c-0.13,1.16,1.3,2.5,2.02,3.75c1.06-1.11,2.61-2.05,3.06-3.37
			c0.82-2.42,0.98-5.06,1.44-7.6C290.42,334.74,291.17,330.78,292.08,325.93z" fill="white"/>
		<path d="M130.1,313.44c4.24,0,8.52-0.35,12.7,0.14c2.4,0.29,5.82,1.39,6.66,3.14c1.06,2.23-0.01,5.48-0.21,8.29
			c-0.09,1.3-0.25,2.6-0.48,3.88c-0.89,4.79-1.75,9.59-2.76,14.35c-0.73,3.44-1.95,6.81-2.38,10.28c-0.18,1.47,1.15,3.11,1.75,4.69
			c0.22,0.57,0.64,1.45,0.41,1.74c-0.46,0.56-1.3,1.12-2,1.14c-4.97,0.11-9.95,0.28-14.9,0.01c-2.23-0.12-4.9-0.55-4.82-3.98
			c0.02-0.76-0.49-1.54-0.75-2.3c-0.63,0.5-1.47,0.87-1.86,1.52c-4.07,6.79-13.8,5.98-18.72,1.3c-2.9-2.75-3.99-6.2-2.72-9.1
			c2.62-6.03,2.97-14.22,10.73-16.45c5.18-1.49,10.88-1.13,16.31-1.9c1.29-0.18,3.43-1.56,3.43-2.39c-0.01-2.1-0.75-4.34-1.8-6.19
			c-0.23-0.4-3.02,1.09-4.51,0.88c-3.55-0.48-7.12-1.21-10.47-2.42c-0.76-0.28-1.18-3.11-0.78-4.48c0.28-0.97,2.18-1.99,3.41-2.05
			C120.9,313.29,125.5,313.44,130.1,313.44z M121.74,342.11c0,0.76-0.28,1.7,0.06,2.24c0.62,0.98,1.55,1.81,2.5,2.48
			c0.23,0.16,1.41-0.44,1.56-0.88c0.73-2.15,1.33-4.35,1.79-6.57c0.08-0.38-0.64-1.22-1.14-1.38
			C122.65,336.78,121.74,337.6,121.74,342.11z" fill="white"/>
		<path d="M172.65,361.09c-5.14,0-10.29,0-15.43,0c-1.5,0-6.33-5.14-6.08-6.75c0.71-4.46,1.6-8.88,2.43-13.32
			c0.39-2.08,0.89-4.14,1.2-6.23c0.54-3.59,1.07-7.19,1.43-10.8c0.55-5.47,6.04-10.55,11.55-10.55c7.92,0,15.84-0.03,23.76-0.04
			c4.35-0.01,7.82,5.34,6.5,9.46c-0.7,2.2-0.73,4.68-0.75,7.03c-0.04,5.98-2.99,8.05-8.98,7.17c-3.21-0.47-6.64,0.7-9.97,0.79
			c-1.64,0.04-3.49-1.35-4.9-0.92c-1.6,0.48-3.65,2.05-4.01,3.51c-0.59,2.36-1.85,5.47,1.42,7.25c0.82,0.45,1.87,0.67,2.81,0.69
			c4.28,0.07,8.56,0.15,12.84-0.04c1.66-0.07,3.27-0.92,4.93-1.24c0.57-0.11,1.24,0.34,1.86,0.53c-0.25,0.44-0.69,0.87-0.73,1.34
			c-0.17,1.88-0.29,3.78-0.28,5.67c0.02,3.48-2.73,6.26-6.27,6.24c-4.44-0.02-8.88,0-13.32,0
			C172.65,360.94,172.65,361.01,172.65,361.09z M173.95,330.25c4.68,0.12,7.78-0.47,7.44-4.67c-0.31-3.84-4.1-2.67-5.53-2.04
			c-1.8,0.78-2.81,3.38-4.16,5.19C172.77,329.45,173.84,330.17,173.95,330.25z" fill="white"/>
		<path d="M247.3,313.44c3.68,0,7.36-0.09,11.03,0.06c1.04,0.04,2.97,0.97,2.93,1.15c-0.48,2.16-0.75,5.62-2.04,6.09
			c-2.77,1-6.1,0.52-9.2,0.51c-2.1-0.01-3.43,0.39-3.62,2.95c-0.3,3.98-0.98,7.94-1.58,11.9c-0.46,3.06-1.27,6.08-1.45,9.14
			c-0.06,1,1.4,2.98,2.15,2.97c4.63-0.07,9.25-0.58,13.88-0.92c0.28-0.02,0.75,0.07,0.82,0.23c0.13,0.33,0.1,0.76,0.04,1.13
			c-0.43,2.3-1.25,4.59-1.26,6.88c-0.01,3.78-2.53,5.09-5.34,5.21c-7.06,0.3-14.16-0.22-21.22,0.14c-5.12,0.26-8.66-1.42-10.32-6.22
			c-0.52-1.51-0.07-3.39,0.08-5.08c0.08-0.92,0.52-1.81,0.68-2.73c1.02-6.08,1.81-12.21,3.06-18.24c0.81-3.87,1.85-7.82,3.63-11.31
			c0.92-1.79,3.57-3.43,5.65-3.74c3.95-0.59,8.05-0.17,12.09-0.17C247.3,313.41,247.3,313.43,247.3,313.44z" fill="white"/>
		<path d="M215.47,300.6c2.8,0,5.64-0.27,8.38,0.13c1.09,0.16,2.83,1.8,2.81,2.73c-0.1,3.89-0.51,7.8-1.25,11.63
			c-1.14,5.9-2.57,11.75-4.02,17.58c-1.46,5.9-3.34,11.71-4.53,17.66c-0.48,2.41,0.38,5.08,0.64,7.64c0.09,0.84,0.38,1.72,0.21,2.5
			c-0.05,0.25-1.3,0.31-2.01,0.33c-4.48,0.13-8.96,0.4-13.43,0.24c-1.64-0.06-3.88-0.69-4.71-1.86c-0.88-1.24-0.63-3.47-0.45-5.22
			c0.2-1.95,0.98-3.83,1.35-5.78c0.54-2.83,0.78-5.74,1.45-8.53c0.61-2.52,1.8-4.91,2.42-7.43c1.05-4.23,1.8-8.53,2.78-12.77
			c0.6-2.6,1.89-5.13,2-7.73c0.13-3.08-0.65-6.2-1.1-9.29c-0.07-0.47-0.53-0.87-0.81-1.31c0.54-0.19,1.08-0.52,1.63-0.54
			c1.44-0.06,2.88,0.02,4.32,0.03c1.44,0.01,2.88,0,4.32,0C215.47,300.61,215.47,300.61,215.47,300.6z" fill="white"/>
	</g>
</g>
</svg>
