<?xml version="1.0" encoding="utf-8"?>
<svg version="1.1" viewBox="0 0 3840 480" xmlns="http://www.w3.org/2000/svg">
  <rect x="240.4" y="128.7" transform="matrix(0, 1, -1, 0, 535.817627, -51.933601)" class="st1" width="106.9" height="226.4" style="fill: rgb(255, 255, 255);"/>
  <rect x="671.4" y="163.3" class="st1" width="106.9" height="310.1" style="fill: rgb(255, 255, 255);"/>
  <path class="st1" d="M 778.3 163.3 C 742.7 163.3 707 163.3 671.4 163.3 C 671.4 116.8 601.7 116.8 601.7 163.3 C 566.1 163.3 530.4 163.3 494.8 163.3 C 494.7 -25.8 778.3 -25.8 778.3 163.3 Z" style="fill: rgb(255, 255, 255);"/>
  <rect x="494.7" y="163.3" class="st1" width="106.9" height="310.1" style="fill: rgb(255, 255, 255);"/>
  <rect x="585.3" y="165.4" transform="matrix(0, 1, -1, 0, 934.174988, -343.382813)" class="st1" width="106.9" height="260.1" style="fill: rgb(255, 255, 255);"/>
  <rect x="2990.3" y="92.4" class="st1" width="106.9" height="381" style="fill: rgb(255, 255, 255);"/>
  <rect x="2990.3" y="-47.3" transform="matrix(0, 1, -1, 0, 3118.700439, -2968.767822)" class="st1" width="106.9" height="244.6" style="fill: rgb(255, 255, 255);"/>
  <rect x="2417.1" y="163.3" class="st1" width="106.9" height="310.1" style="fill: rgb(255, 255, 255);"/>
  <path class="st1" d="M 2524 163.3 C 2488.4 163.3 2452.7 163.3 2417.1 163.3 C 2417.1 116.8 2347.4 116.8 2347.4 163.3 C 2311.8 163.3 2276.1 163.3 2240.5 163.3 C 2240.5 -25.8 2524 -25.8 2524 163.3 Z" style="fill: rgb(255, 255, 255);"/>
  <rect x="2240.5" y="163.3" class="st1" width="106.9" height="310.1" style="fill: rgb(255, 255, 255);"/>
  <rect x="2331.1" y="165.4" transform="matrix(0, 1, -1, 0, 2679.936279, -2089.144043)" class="st1" width="106.9" height="260.1" style="fill: rgb(255, 255, 255);"/>
  <rect x="1008.1" y="158.7" class="st1" width="106.9" height="314.7" style="fill: rgb(255, 255, 255);"/>
  <rect x="831.5" y="158.7" class="st1" width="106.9" height="314.7" style="fill: rgb(255, 255, 255);"/>
  <path class="st1" d="M 1061.6 163.3 C 1026 163.3 1043.8 163.3 1008.1 163.3 C 1008.1 116.8 938.4 116.8 938.4 163.3 C 902.8 163.3 867.1 163.3 831.5 163.3 C 831.5 -25.8 1061.6 -25.8 1061.6 163.3 Z" style="fill: rgb(255, 255, 255);"/>
  <path class="st1" d="M 1291.7 163.3 C 1256.1 163.3 1220.4 163.3 1184.8 163.3 C 1184.8 116.8 1115.1 116.8 1115.1 163.3 C 1079.5 163.3 1097.3 163.3 1061.6 163.3 C 1061.6 -25.8 1291.7 -25.8 1291.7 163.3 Z" style="fill: rgb(255, 255, 255);"/>
  <rect x="1184.8" y="158.7" class="st1" width="106.9" height="314.7" style="fill: rgb(255, 255, 255);"/>
  <rect x="1903.7" y="158.7" class="st1" width="106.9" height="314.7" style="fill: rgb(255, 255, 255);"/>
  <rect x="1727" y="158.7" class="st1" width="106.9" height="314.7" style="fill: rgb(255, 255, 255);"/>
  <path class="st1" d="M 1957.2 163.3 C 1921.6 163.3 1939.4 163.3 1903.7 163.3 C 1903.7 116.8 1834 116.8 1834 163.3 C 1798.4 163.3 1762.7 163.3 1727.1 163.3 C 1727 -25.8 1957.2 -25.8 1957.2 163.3 Z" style="fill: rgb(255, 255, 255);"/>
  <path class="st1" d="M 2187.3 163.3 C 2151.7 163.3 2116 163.3 2080.4 163.3 C 2080.4 116.8 2010.7 116.8 2010.7 163.3 C 1975.1 163.3 1992.9 163.3 1957.2 163.3 C 1957.2 -25.8 2187.3 -25.8 2187.3 163.3 Z" style="fill: rgb(255, 255, 255);"/>
  <rect x="2080.3" y="158.7" class="st1" width="106.9" height="314.7" style="fill: rgb(255, 255, 255);"/>
  <rect x="1419.3" y="151" transform="matrix(0, 1, -1, 0, 1720.123169, -1225.285522)" class="st1" width="106.9" height="192.8" style="fill: rgb(255, 255, 255);"/>
  <rect x="1419.3" y="-21.5" transform="matrix(0, 1, -1, 0, 1547.643188, -1397.765503)" class="st1" width="106.9" height="192.8" style="fill: rgb(255, 255, 255);"/>
  <path class="st1" d="M 1451.8 366.4 L 1451.8 21.4 L 1344.9 21.4 L 1344.9 387.1 C 1344.9 434.7 1383.5 473.3 1431.1 473.3 L 1569.1 473.3 L 1569.1 366.4 L 1451.8 366.4 Z" style="fill: rgb(255, 255, 255);"/>
  <rect x="3281" y="151" transform="matrix(0, 1, -1, 0, 3581.891846, -3087.054199)" class="st1" width="106.9" height="192.8" style="fill: rgb(255, 255, 255);"/>
  <rect x="3281" y="-21.5" transform="matrix(0, 1, -1, 0, 3409.411865, -3259.53418)" class="st1" width="106.9" height="192.8" style="fill: rgb(255, 255, 255);"/>
  <path class="st1" d="M 3313.6 366.4 L 3313.6 21.4 L 3206.7 21.4 L 3206.7 387.1 C 3206.7 434.7 3245.3 473.3 3292.9 473.3 L 3430.9 473.3 L 3430.9 366.4 L 3313.6 366.4 Z" style="fill: rgb(255, 255, 255);"/>
  <rect x="3484.1" y="178" class="st1" width="106.9" height="295.4" style="fill: rgb(255, 255, 255);"/>
  <polygon class="st1" points="3697.6 276.6 3675 299.2 3591 233.5 3622.1 352.2 3749.9 480 3825.5 404.4" style="fill: rgb(255, 255, 255);"/>
  <path class="st1" d="M 3662 0 C 3563.7 0 3484 79.7 3484 178 C 3484 251 3528 313.7 3590.9 341.1 L 3590.9 233.5 L 3621.7 351.2 C 3634.7 354.2 3648.1 355.9 3661.9 355.9 C 3760.2 355.9 3839.9 276.2 3839.9 177.9 C 3840 79.7 3760.3 0 3662 0 Z M 3662 249 C 3622.8 249 3590.9 217.2 3590.9 177.9 C 3590.9 138.7 3622.7 106.8 3662 106.8 C 3701.3 106.8 3733.1 138.6 3733.1 177.9 C 3733.1 217.2 3701.3 249 3662 249 Z" style="fill: rgb(255, 255, 255);"/>
  <path class="st1" d="M 2880.8 21.5 L 2817.9 21.5 L 2817.9 21.5 C 2755.4 21.5 2702 66.7 2691.8 128.4 L 2658.9 326.7 C 2655.1 349.6 2635.3 366.5 2612 366.5 L 2564.6 366.5 L 2564.6 473.4 L 2634.6 473.4 C 2697.1 473.4 2750.5 428.2 2760.7 366.5 L 2793.6 168.2 C 2797.4 145.3 2817.2 128.4 2840.5 128.4 L 2880.8 128.4 L 2880.8 21.5 Z" style="fill: rgb(255, 255, 255);"/>
  <path class="st1" d="M 380.1 188.5 L 339.3 229.3 C 339.5 231.9 339.7 234.4 339.7 237 C 339.7 301.3 287.6 353.4 223.3 353.4 C 159 353.4 106.9 301.3 106.9 237 C 106.9 172.7 159 120.6 223.3 120.6 C 261 120.6 294.3 138.6 315.6 166.3 L 391.6 90.3 C 350.7 43.4 290.5 13.7 223.3 13.7 C 100 13.7 0 113.7 0 237 C 0 360.3 100 460.3 223.3 460.3 C 346.6 460.3 446.6 360.3 446.6 237 C 446.6 220.3 444.8 204.1 441.3 188.5 L 380.1 188.5 Z" style="fill: rgb(255, 255, 255);"/>
</svg>