<?xml version="1.0" encoding="utf-8"?>
<!-- Made by Szalik  -->
<svg version="1.1" id="Warstwa_1" xmlns="http://www.w3.org/2000/svg" xmlns:xlink="http://www.w3.org/1999/xlink" x="0px" y="0px" xml:space="preserve">
<g>
	<g>
		<path d="M-331.92,213.74c0,80.66,0,160.59,0,241.39c-8.08,0-16.02-0.03-23.96,0.01c-63.99,0.32-128.03,2.37-191.95,0.55
			c-73.69-2.09-132.13-34.16-171.1-98.08c-17.48-28.67-28.77-59.77-29.99-93.61c-2.23-62.03,15.72-117.06,59.74-162.03
			c28.58-29.19,62.42-49.58,103-57.53c4.88-0.95,9.91-1.5,14.88-1.5c78.16-0.09,156.32-0.06,234.48-0.06c1.47,0,2.94,0,4.78,0
			c0,29.95,0,59.52,0,89.5c-33.9,0-67.79,0-102.33,0c-1.31-20.81-2.62-41.7-4.01-63.91c-23.09,19.72-45.51,38.86-68.43,58.43
			c-22.25-25.85-44.37-51.53-67.41-78.29c-4.38,32.87-8.6,64.55-12.94,97.08c-34.25-7.88-68.16-15.69-103.15-23.74
			c14.68,36.43,29.04,72.06,43.59,108.14c-22.37,11.86-44.45,23.58-67.33,35.71c27.07,15.37,53.35,30.28,80.25,45.55
			c-11.71,31.62-23.4,63.17-35.58,96.07c36.55-16.78,72.04-33.08,108.11-49.65c6.59,23.81,13.05,47.14,19.73,71.28
			c1.39-1.59,2.46-2.73,3.44-3.94c18.39-22.84,36.83-45.63,55.07-68.59c2.42-3.05,4.28-3.06,7.43-1.44
			c31.22,16.03,62.5,31.94,93.76,47.88c1.28,0.65,2.61,1.22,4.74,2.2c-3.58-11.33-6.88-21.89-10.24-32.43
			c-8.39-26.3-16.89-52.56-25.13-78.9c-1.2-3.83-2.8-5.57-6.93-5.05c-2.93,0.37-5.95,0.07-9.79,0.07
			c10.09,30.66,19.99,60.72,30.4,92.34c-29.21-14.36-57.25-28.14-85.72-42.14c-17.03,21.04-34.05,42.07-52.04,64.29
			c-5.22-22-10.12-42.69-15.19-64.09c-33.73,16.8-66.97,33.35-100.21,49.9c-0.29-0.26-0.59-0.52-0.88-0.78
			c12.6-27.19,25.2-54.38,38.09-82.2c-24.54-13.14-48.96-26.2-74.43-39.83c20.64-11.02,40.47-21.62,60.87-32.52
			c-14.18-31.72-28.32-63.37-43.01-96.25c31.9,8.18,62.82,16.11,94.14,24.14c3.4-29.96,6.77-59.64,10.31-90.82
			c19.71,25.55,38.57,50.01,57.82,74.97c19.69-18.13,39.19-36.1,59.71-55c1.96,23.9,3.82,46.47,5.72,69.59
			c27.65-4.93,54.79-9.76,83.23-14.83c-16.48,23.17-32.24,45.33-48.44,68.11C-382.91,213.74-357.73,213.74-331.92,213.74z
			 M-390.52,164.63c-22.41,3.95-43.6,7.69-65.22,11.51c-1.57-19.06-3.09-37.49-4.68-56.76c-17.12,15.79-33.48,30.89-50.27,46.38
			c-15.45-20.02-30.61-39.65-46.62-60.4c-2.86,25.22-5.55,48.92-8.3,73.14c-27.46-7.01-54.16-13.83-82.06-20.95
			c12.61,28.22,24.59,55.04,36.73,82.21c-16.58,8.9-32.83,17.62-49.68,26.66c21.62,11.56,42.38,22.66,63.4,33.9
			c-9.33,20.16-18.39,39.72-28.01,60.51c28.36-14.1,55.34-27.52,82.68-41.11c4.32,18.24,8.43,35.57,12.72,53.68
			c1.59-1.78,2.5-2.72,3.32-3.73c11.52-14.24,23.2-28.37,34.44-42.84c3.01-3.87,5.26-4.08,9.39-1.99
			c18.39,9.32,36.94,18.3,55.45,27.38c1.53,0.75,3.12,1.36,5.37,2.34c-0.52-1.83-0.75-2.77-1.05-3.69
			c-6.36-19.25-12.81-38.47-19-57.77c-1.05-3.26-2.45-4.35-5.9-4.32c-25.32,0.16-50.65,0.08-75.98,0.08c-1.92,0-3.83,0-5.41,0
			c0-25.24,0-49.64,0-74.51c2.62,0,4.59,0,6.55,0c30.82-0.07,61.65-0.19,92.47-0.15c3.34,0,5.4-0.97,7.35-3.79
			c8.23-11.92,16.76-23.63,25.15-35.44C-395.49,171.89-393.38,168.76-390.52,164.63z" fill="white"/>
		<path d="M924.17,106.97c35.42,0,70.51,0,106.33,0c0,18.63,0,37.16,0,55.15c12.82,0,24.94-0.43,37.01,0.08
			c33.37,1.41,64.35,10.27,90.78,31.57c28.3,22.82,44.06,53.07,51.74,88.18c11.24,51.4-14.4,118.21-59.07,148.92
			c-23.06,15.86-48.67,24.54-76.25,27.06c-15.21,1.39-30.59,1.09-45.89,1.16c-32.82,0.15-65.64,0.05-98.46,0.05
			c-1.97,0-3.93,0-6.19,0C924.17,341.65,924.17,224.61,924.17,106.97z M1030.46,310.6c0,17.48,0,34.96,0,52.45
			c0,9.39,0,9.39,9.15,11.44c32.66,7.32,60.09-7.82,69.95-38.92c5.43-17.12,5.58-34.46,0.05-51.58
			c-5.97-18.47-17.3-32.09-36.62-37.66c-12.56-3.62-25.01-2.1-37.44,1.09c-3.8,0.97-5.27,2.51-5.21,6.74
			C1030.62,272.97,1030.46,291.79,1030.46,310.6z" fill="white"/>
		<path d="M-1.6,305.38c-0.24,65.45-42.33,121.55-106.92,142.51c-69.26,22.47-147.65-8.47-182.47-72.03
			c-35.79-65.32-17.56-145.52,43.36-190.72c73.34-54.42,180.46-32.51,226.32,46.36C-8.05,254.3-1.52,278.98-1.6,305.38z
			 M-210.23,302.3c0.09,17.96,3.97,31.85,12.37,44.4c19.98,29.84,56.48,32.6,80.38,6.09c24.16-26.8,22.42-74.28-3.64-99.22
			c-19.22-18.39-45.81-19.42-65.96-2.07C-203.41,265.55-209.82,284.18-210.23,302.3z" fill="white"/>
		<path d="M904.7,342.66c-63.67,0-127.26,0-190.87,0c1.09,24.84,17.92,41.07,42.04,41.22c47.49,0.28,94.97,0.65,142.46,0.99
			c0.99,0.01,1.98,0.09,3.4,0.16c0,24.43,0,48.81,0,73.86c-1.73,0-3.51,0-5.28,0c-45.99,0-91.98,0.06-137.98-0.01
			c-71-0.11-133.5-54.32-140.81-124.87c-5.37-51.8,9.5-97.41,51.78-131.03c24.32-19.34,52.91-28.51,83.5-31.04
			c73.19-6.04,140.86,46.95,153.02,119.29C908.73,307.68,908.27,330.72,904.7,342.66z M814.62,287.15
			c-5.88-23.1-28.69-45.67-58.15-43.3c-24.17,1.94-43.37,23.06-47.01,43.3C744.4,287.15,779.28,287.15,814.62,287.15z" fill="white"/>
		<path d="M168.92,380.03c0,26.01,0,52.1,0,78.79c-2.06,0-3.84,0-5.62,0c-29.16,0-58.32,0-87.48,0c-33.07,0-55.23-17.08-62.59-49.37
			c-2.46-10.77-3.91-22.02-3.95-33.06C8.95,290.07,9.1,203.76,9.1,117.44c0-1.97,0-3.94,0-6.23c34.98,0,69.53,0,104.63,0
			c0,20.21,0,40.28,0,60.91c17.93,0,35.33,0,52.71,0c0,24.8,0,49.04,0,73.72c-17.68,0-34.77,0-52.11,0c-0.21,1.32-0.5,2.25-0.5,3.18
			c0.04,28.83-0.15,57.66,0.29,86.48c0.16,10.66,2.52,21.09,8.07,30.51c5.73,9.72,14.53,14.48,25.5,14.91
			C154.63,381.17,161.61,380.37,168.92,380.03z" fill="white"/>
		<path d="M345.89,380.03c0,25.74,0,51.87,0,78.78c-2.01,0-3.93,0-5.85,0c-29,0-58,0-86.99,0c-33.42,0-55.48-17.03-62.88-49.64
			c-2.45-10.77-3.91-22.02-3.95-33.05c-0.32-86.16-0.17-172.32-0.17-258.48c0-1.98,0-3.97,0-6.39c34.8,0,69.34,0,104.44,0
			c0,20.02,0,40.1,0,60.72c17.94,0,35.34,0,52.98,0c0,24.79,0,49.02,0,73.87c-17.74,0-34.96,0-52.4,0
			c-0.17,1.37-0.34,2.15-0.34,2.94c0.08,29.16-0.06,58.33,0.4,87.48c0.16,10.49,2.62,20.74,8.13,29.95
			c5.68,9.49,14.41,14.18,25.17,14.67C331.48,381.19,338.59,380.36,345.89,380.03z" fill="white"/>
		<path d="M360.26,109.22c35.14,0,69.75,0,104.68,0c0,116.42,0,232.63,0,349.05c-35.01,0-69.73,0-104.68,0
			C360.26,341.79,360.26,225.7,360.26,109.22z" fill="white"/>
		<path d="M496.02,458.43c0-95.21,0-189.61,0-284.4c33.21,0,66.23,0,99.89,0c0,2.01,0,3.79,0,5.56c0,90.96-0.04,181.92,0.11,272.88
			c0.01,4.85-1.36,6.09-6.12,6.06c-29.49-0.21-58.97-0.11-88.46-0.11C499.8,458.43,498.16,458.43,496.02,458.43z" fill="white"/>
		<path d="M595.64,154.09c-33.43,0-66.63,0-100.12,0c0-14.42,0-28.49,0-42.93c33.38,0,66.59,0,100.12,0
			C595.64,125.42,595.64,139.63,595.64,154.09z" fill="white"/>
	</g>
</g>
</svg>
