<?xml version="1.0" encoding="utf-8"?>
<svg version="1.1" id="demo" x="0px" y="0px" viewBox="0 0 200 40" xmlns="http://www.w3.org/2000/svg">
  <path d="M 39.231 29.375 L 40.371 22.745 L 36.081 22.745 L 34.941 29.375 L 29.241 29.375 L 32.541 10.625 L 38.241 10.625 L 37.071 17.255 L 41.361 17.255 L 42.531 10.625 L 48.231 10.625 L 44.931 29.375 Z M 56.211 16.895 L 54.831 24.695 L 57.201 24.695 C 57.981 24.695 58.561 24.6 58.941 24.41 C 59.321 24.22 59.571 23.785 59.691 23.105 L 61.071 15.305 L 58.671 15.305 C 57.911 15.305 57.341 15.4 56.961 15.59 C 56.581 15.78 56.331 16.215 56.211 16.895 Z M 59.661 10.175 C 62.201 10.175 64.011 10.67 65.091 11.66 C 66.171 12.65 66.711 14.175 66.711 16.235 C 66.711 18.295 66.386 20.45 65.736 22.7 C 65.086 24.95 64.056 26.7 62.646 27.95 C 61.236 29.2 59.176 29.825 56.466 29.825 C 53.756 29.825 51.861 29.33 50.781 28.34 C 49.701 27.35 49.161 25.825 49.161 23.765 C 49.161 22.785 49.301 21.49 49.581 19.88 C 49.861 18.27 50.231 16.88 50.691 15.71 C 51.151 14.54 51.771 13.525 52.551 12.665 C 54.051 11.005 56.421 10.175 59.661 10.175 Z M 73.041 29.375 L 67.101 29.375 L 71.481 10.625 L 78.921 10.625 L 79.461 20.165 L 79.671 20.165 L 83.571 10.625 L 91.011 10.625 L 88.791 29.375 L 82.821 29.375 L 84.081 20.285 L 83.871 20.285 L 80.121 29.375 L 75.771 29.375 L 75.141 20.285 L 74.991 20.285 Z M 104.6 22.295 L 98.9 22.295 L 98.51 24.575 L 105.5 24.575 L 104.66 29.375 L 91.97 29.375 L 95.27 10.625 L 107.81 10.625 L 106.25 15.425 L 100.1 15.425 L 99.68 17.945 L 105.38 17.945 Z M 107.87 29.375 L 111.17 10.625 L 120.41 10.625 C 121.85 10.625 122.895 10.875 123.545 11.375 C 124.195 11.875 124.52 12.645 124.52 13.685 C 124.52 15.205 124.185 16.455 123.515 17.435 C 122.845 18.415 122.03 19.025 121.07 19.265 L 121.04 19.445 C 122.84 19.785 123.74 20.975 123.74 23.015 C 123.74 24.815 123.25 26.325 122.27 27.545 C 121.29 28.765 119.91 29.375 118.13 29.375 Z M 117.11 21.905 L 114.86 21.905 L 114.32 24.965 L 116.54 24.965 C 117.04 24.965 117.42 24.765 117.68 24.365 C 117.94 23.965 118.07 23.455 118.07 22.835 C 118.07 22.215 117.75 21.905 117.11 21.905 Z M 117.95 14.735 L 116.15 14.735 L 115.64 17.525 L 117.41 17.525 C 118.33 17.525 118.79 16.875 118.79 15.575 C 118.79 15.015 118.51 14.735 117.95 14.735 Z M 140.749 29.375 L 134.479 29.375 L 133.099 23.795 L 131.869 23.795 L 130.909 29.375 L 125.209 29.375 L 128.509 10.625 L 137.509 10.625 C 140.929 10.625 142.639 12.155 142.639 15.215 C 142.639 16.475 142.449 17.675 142.069 18.815 C 141.369 20.975 140.269 22.415 138.769 23.135 Z M 133.339 15.425 L 132.679 19.175 L 133.999 19.175 C 134.679 19.175 135.194 19.1 135.544 18.95 C 135.894 18.8 136.134 18.37 136.264 17.66 C 136.394 16.95 136.459 16.515 136.459 16.355 C 136.459 15.955 136.304 15.7 135.994 15.59 C 135.684 15.48 135.179 15.425 134.479 15.425 Z M 155.809 22.295 L 150.109 22.295 L 149.719 24.575 L 156.709 24.575 L 155.869 29.375 L 143.179 29.375 L 146.479 10.625 L 159.019 10.625 L 157.459 15.425 L 151.309 15.425 L 150.889 17.945 L 156.589 17.945 Z M 178.069 10.625 L 184.039 10.625 L 177.949 29.375 L 170.389 29.375 L 170.389 22.475 L 170.059 22.475 L 167.569 29.375 L 160.639 29.375 L 160.639 10.625 L 166.609 10.625 L 166.069 21.095 L 166.249 21.095 L 170.149 10.625 L 174.679 10.625 L 174.679 21.095 L 174.859 21.095 Z" style="white-space: pre; fill: rgb(255, 255, 255);"/>
  <path d="M 27.624 20.027 L 18.837 28.814 C 18.413 29.238 17.726 29.238 17.302 28.814 L 16.278 27.79 C 15.855 27.367 15.854 26.681 16.276 26.257 L 23.24 19.26 L 16.276 12.264 C 15.854 11.84 15.855 11.154 16.278 10.731 L 17.302 9.706 C 17.726 9.282 18.413 9.282 18.837 9.706 L 27.624 18.493 C 28.048 18.917 28.048 19.604 27.624 20.027 Z" style="fill: rgb(204, 204, 204);"/>
  <path d="M 44.897 35.303 L 44.897 33.856 C 44.897 33.257 44.411 32.771 43.811 32.771 L 30.066 32.771 C 29.467 32.771 28.981 33.257 28.981 33.856 L 28.981 35.303 C 28.981 35.902 29.467 36.388 30.066 36.388 L 43.811 36.388 C 44.411 36.388 44.897 35.902 44.897 35.303 Z" style="fill: rgb(204, 204, 204);"/>
</svg>