<svg id="Warstwa_1" data-name="Warstwa 1" xmlns="http://www.w3.org/2000/svg" viewBox="0 0 239.55 129.2"><title>igs</title><path d="M233.52,315c-2.78-.54-5.62-.86-8.32-1.67-15.9-4.76-25.48-15.42-28.83-31.6a50.64,50.64,0,0,1,.37-22.84,35.3,35.3,0,0,1,17.41-23.07c12.51-7,25.92-8.66,39.9-5.75,4.26.89,8.09,2.92,11.84,5.1a43.91,43.91,0,0,0,4.53,2.44c3.66,1.6,6.69.27,8-3.51.48-1.38.61-2.89,1.06-4.29.22-.68.83-1.76,1.23-1.75,1.06,0,.87,1.15.87,1.91q0,17.16,0,34.32a3.06,3.06,0,0,1-.15,1.29c-.18.38-.61.63-.93.93-.29-.32-.75-.61-.85-1-.33-1.23-.4-2.54-.81-3.73-3.08-9-7.6-17.08-14.57-23.63a22,22,0,0,0-12.54-6,16.87,16.87,0,0,0-15.93,6.42c-3.49,4.24-5.24,9.28-6.39,14.56-1.84,8.39-1.92,16.9-1.57,25.43a80.24,80.24,0,0,0,2.78,19.3,26.65,26.65,0,0,0,4.76,9.72,11.31,11.31,0,0,0,14.67,2.87,7.67,7.67,0,0,0,4.16-7.15c-.13-7.12,0-14.24-.05-21.36,0-3.53-2.13-5.56-5.65-5.57h-7a1.17,1.17,0,0,1-1.31-1.24,1.25,1.25,0,0,1,1.34-1.37H292c.91,0,1.73,0,1.83,1.2.07.85-.25,1.4-1.19,1.42-.36,0-.72,0-1.08,0-8.08-.49-9,2.78-8.84,8.86.18,8.51,0,17,0,25.55a5.78,5.78,0,0,1,0,1.56c-.16.51-.44,1.23-.84,1.37s-1.06-.32-1.41-.7c-1.64-1.79-3-3.87-4.85-5.43a12,12,0,0,0-14.3-1.21c-1.63.93-3.18,2-4.73,3.05a31.72,31.72,0,0,1-15.56,5.4,5.41,5.41,0,0,0-.79.21Z" transform="translate(-130.77 -185.76)" fill="white"/><path d="M370.32,247c-.28,1.45-.48,2.91-.84,4.34-2.24,8.86-8,14.61-16.18,18.22-10,4.47-20,4.14-29.61-1.18-3.66-2-7.12-4.43-10.73-6.56a21.91,21.91,0,0,0-4.54-2.08,3.21,3.21,0,0,0-4.07,1.69,15.43,15.43,0,0,0-1.44,4.38,34.71,34.71,0,0,0-.15,4.79c0,.4.08.89-.12,1.17-.3.45-.77,1-1.22,1.05s-.92-.52-1.17-.94a3,3,0,0,1-.17-1.41q0-18.6,0-37.19c0-.84-.2-2,1-2.1s1.53.86,1.81,1.84c3.21,11.41,8.39,21.68,17.43,29.63A28.29,28.29,0,0,0,339.5,270a17.28,17.28,0,0,0,8.11-1.81c5.71-3,7.13-9.44,3.16-14.49a20.5,20.5,0,0,0-7.73-6c-6.25-2.85-12.61-5.42-18.9-8.18-4-1.76-8.11-3.41-11.93-5.53-6.83-3.78-10.1-10-10.46-17.62a43,43,0,0,1,.58-9.41A21,21,0,0,1,309,195.23a33.13,33.13,0,0,1,24.36-9.14,21.56,21.56,0,0,1,8.81,2.54c3.18,1.57,6.27,3.33,9.42,5,1.34.71,2.67,1.46,4.06,2a3.74,3.74,0,0,0,5-1.71A14.65,14.65,0,0,0,361.9,190a14.45,14.45,0,0,0,0-2.87c0-.7.12-1.33,1-1.37s1,.59,1,1.3v26.87a2.93,2.93,0,0,1-.08,1.19c-.22.45-.57,1.07-1,1.16a1.77,1.77,0,0,1-1.37-.65,5.87,5.87,0,0,1-.76-1.73c-3-8.23-7.63-15.39-14.57-20.87a23.22,23.22,0,0,0-20.87-4.56c-.27.07-.54.16-.8.25-5.85,2-8,7-5.38,12.6a13.67,13.67,0,0,0,6.68,6.79c5.9,2.74,11.91,5.24,17.81,8,4.71,2.18,9.38,4.45,13.94,6.91a26.11,26.11,0,0,1,8.11,7,21.43,21.43,0,0,1,4.44,10.59,7.73,7.73,0,0,0,.23.92Z" transform="translate(-130.77 -185.76)" fill="white"/><path d="M144.27,248.84q0-16.32,0-32.63a15.12,15.12,0,0,0-.2-2.86,5,5,0,0,0-5.25-4.43c-2.12-.06-4.24,0-6.36,0-.86,0-1.67,0-1.68-1.18s.72-1.25,1.62-1.25h51.22c.93,0,1.65.22,1.62,1.27s-.74,1.18-1.6,1.17q-3.06,0-6.12,0-5.17.06-5.71,5.16a21.43,21.43,0,0,0-.12,2.4q0,32.39,0,64.78a21.14,21.14,0,0,0,.16,2.75,5,5,0,0,0,5.2,4.77c2.2.06,4.4,0,6.6,0,.86,0,1.58.19,1.59,1.18s-.71,1.26-1.63,1.26H132.38c-.91,0-1.63-.15-1.61-1.26s.72-1.18,1.57-1.17c2,0,4,0,6,0,3.73,0,5.8-2,5.89-5.75.07-2.68,0-5.36,0-8Z" transform="translate(-130.77 -185.76)" fill="white"/></svg>