<?xml version="1.0" encoding="utf-8"?>
<!-- Made by Szalik  -->
<svg version="1.1" id="Warstwa_1" xmlns="http://www.w3.org/2000/svg" xmlns:xlink="http://www.w3.org/1999/xlink" x="0px" y="0px" xml:space="preserve">
<g>
	<g>
		<path d="M970.8,328.88c-0.32,0.78-0.62,1.58-0.97,2.35c-2.5,5.44-8.84,8.05-14.52,5.98c-5.8-2.12-9.01-8.26-7.36-14.08
			c1.36-4.76,5.19-7.99,10.17-8.55c4.56-0.51,9.17,1.9,11.38,6.03c0.51,0.96,0.87,2,1.29,3C970.8,325.36,970.8,327.12,970.8,328.88z
			 M969,326.24c0-5.45-4.26-9.76-9.68-9.81c-5.41-0.04-9.96,4.5-9.89,9.9c0.06,5.28,4.58,9.73,9.87,9.71
			C964.69,336.01,969,331.67,969,326.24z" fill="white"/>
		<path d="M-19.9,136.29c0.7,1.38,0.46,2.83,0.46,4.22c0.01,11.52-0.02,23.04-0.02,34.56c0,30.96,0,61.92,0,92.87
			c0,2.94,0.5,3.46,3.51,3.46c9.52,0.01,19.04,0,28.56-0.01c2.91,0,3.27,0.34,3.3,3.31c0.02,2,0.03,4,0,6
			c-0.03,2.68-0.45,3.1-3.04,3.1c-9.44,0-18.88-0.01-28.32-0.02c-0.56,0-1.12-0.04-1.68,0.02c-1.48,0.16-2.11,0.8-2.3,2.28
			c-0.06,0.47-0.03,0.96-0.03,1.44c-0.01,36.88-0.03,73.75,0,110.63c0,2.63,0.14,5.29,0.57,7.87c0.54,3.32,3.02,4.33,5.77,2.37
			c1.68-1.19,3.24-2.63,4.56-4.21c4.15-4.96,6.87-10.74,9.06-16.78c1.52-4.2,2.98-8.43,4.31-12.69c0.96-3.04,1.65-6.17,2.49-9.25
			c0.38-1.38,0.78-2.77,1.28-4.11c0.38-1.03,1.17-1.49,2.3-1.09c1.28,0.44,2.62,0.76,3.83,1.35c1.53,0.74,1.81,1.45,1.41,3.12
			c-0.8,3.26-1.64,6.51-2.52,9.74c-1.01,3.7-1.99,7.41-3.13,11.06c-1.38,4.42-2.85,8.81-4.41,13.16c-1.21,3.38-2.48,6.75-3.98,10
			c-4.79,10.42-10.85,19.94-20.15,27c-4.81,3.65-10.1,6.31-15.9,8.15c-4.96,1.58-9.94,2.2-15.09,2.2c-58.48-0.01-116.95,0-175.43,0
			c-0.4,0-0.8,0.01-1.2-0.01c-1.03-0.04-1.65-0.49-1.65-1.6c0.01-2.47,0-4.94,0-7.64c1.03-0.09,1.87-0.23,2.72-0.24
			c5.36-0.02,10.72-0.01,16.08,0c3.41,0.01,3.53-0.1,3.53-3.46c0-34.16,0-68.31,0-102.47c0-32.8,0-65.59,0-98.39
			c0-0.56-0.01-1.13,0.08-1.67c0.15-0.92,0.7-1.45,1.67-1.26c1.02,0.2,2.03,0.45,3.03,0.73c1.54,0.43,3.04,0.98,4.59,1.36
			c3.96,0.97,7.91,1.95,11.9,2.76c2.18,0.44,4.46,0.42,6.66,0.82c9.12,1.64,18.33,1.68,27.51,1.09c6.76-0.43,13.55-1.02,20.17-2.72
			c2.55-0.66,5.1-1.31,7.66-1.93c2.49-0.6,3.03-0.18,3.03,2.38c0,11.2,0,22.4,0,33.6c0,0.24-0.01,0.48,0,0.72
			c0.01,3,0.29,3.29,3.29,3.3c2.4,0,4.8,0.02,7.2-0.01c2.65-0.03,3.1-0.51,3.09-3.08c-0.02-13.12-0.04-26.24-0.05-39.35
			c0-2.82,0.61-3.5,3.04-4.45c4.52-1.78,9.11-3.48,13.42-5.69c4.53-2.33,8.93-5,13.11-7.92c12.76-8.91,23.57-19.85,32.78-32.39
			c5.84-7.95,10.89-16.37,15.06-25.28c2.23-4.76,3.92-9.77,5.84-14.67C-21.54,137.6-21.29,136.56-19.9,136.29z M-89.29,436.21
			c-0.18-0.68-0.18-0.86-0.27-0.98c-0.24-0.31-0.5-0.63-0.8-0.88c-4.06-3.46-7.4-7.53-10.17-12.05c-2.44-3.98-4.22-8.25-4.4-13.02
			c-0.07-1.84-0.13-3.68-0.13-5.52c-0.02-29.2-0.02-58.4-0.03-87.6c0-9.68-0.01-19.36-0.02-29.04c0-2.72-0.52-3.3-3.15-3.34
			c-2.56-0.04-5.12-0.04-7.68-0.02c-2.15,0.02-2.63,0.51-2.74,2.7c-0.02,0.4,0,0.8,0,1.2c0,13.04,0.01,26.08,0.01,39.12
			c0,35.44,0,70.88-0.01,106.32c0,3.35,0.14,3.46,3.54,3.47c7.84,0.01,15.68,0.04,23.52,0.04
			C-90.89,436.61-90.16,436.37-89.29,436.21z" fill="white"/>
		<path d="M-142.86,60.41c0.24,0,0.48,0.01,0.72,0c6.4-0.35,12.5,1.15,18.59,2.88c6.83,1.94,13.1,5,18.97,8.96
			c8.42,5.68,15.14,12.95,20.41,21.62c2.71,4.46,4.82,9.2,6.45,14.13c1.63,4.94,2.44,10.07,3.01,15.25
			c0.72,6.52,0.08,12.98-1.15,19.33c-1.15,5.94-3.21,11.66-6.01,17.11c-4.45,8.67-10.39,16.1-17.91,22.24
			c-6.23,5.09-13.17,8.9-20.79,11.62c-11.22,4-22.69,4.56-34.28,2.82c-6.23-0.94-12.19-3.02-17.91-5.85
			c-4.39-2.18-8.56-4.64-12.39-7.66c-6.51-5.15-12.03-11.19-16.39-18.3c-2.65-4.31-4.88-8.83-6.45-13.6
			c-2.47-7.47-3.87-15.17-3.72-23.09c0.13-7.09,1.34-14.03,3.61-20.71c3.63-10.69,9.56-19.98,17.77-27.79
			c4.84-4.6,10.21-8.5,16.16-11.48c5.57-2.79,11.46-4.72,17.56-6.16C-152.04,60.62-147.48,60.48-142.86,60.41z" fill="white"/>
		<path d="M569.8,137.04c-4.52,0-8.9,0-13.47,0c0-1.66,0-3.12,0-4.85c6.11-0.06,12.25,0.09,18.36-0.25
			c6.03-0.34,12.04-1.18,18.29-1.82c0,47.27,0,94.34,0,141.66c4.68,0.45,9.21-0.05,13.8,0.31c0,1.59,0,3.01,0,4.62
			c-0.61,0.07-1.22,0.2-1.82,0.2c-2.48,0.02-4.96,0.04-7.44,0c-8.01-0.12-15.98,0.44-23.92,1.45c-1.1,0.14-2.21,0.2-3.54,0.31
			c0-3.9,0-7.62,0-11.43c-1.95-0.61-3.17-0.25-4.45,1.31c-7.57,9.16-17.51,12.6-29.09,11.1c-14.47-1.87-24.24-10.46-30.07-23.28
			c-6.29-13.86-6.24-28.23,0.04-42.1c5.16-11.39,13.86-19.25,26.28-22.34c5.73-1.42,11.56-1.6,17.35-0.26
			c6.6,1.53,11.63,5.48,15.86,10.57c1,1.2,1.99,2.07,3.65,1.45C570.08,202.03,570.27,141.36,569.8,137.04z M527.78,235.76
			c0,7.12-0.08,14.24,0.03,21.36c0.06,3.86,0.91,7.61,2.65,11.11c1.67,3.36,4.38,5.51,8,6.32c1.77,0.4,3.66,0.53,5.48,0.45
			c9.55-0.45,16.6-5.18,21.68-13.05c3.14-4.86,4.16-10.33,4.17-16.03c0.01-7.2-0.07-14.4,0.02-21.6
			c0.13-10.49-4.71-18.37-12.78-24.52c-4.36-3.32-9.37-4.72-14.87-4.31c-7.12,0.53-11.25,3.78-13,10.66
			c-0.72,2.85-1.25,5.82-1.33,8.74C527.66,221.83,527.79,228.8,527.78,235.76z" fill="white"/>
		<path d="M679.17,137c0-1.75,0-3.15,0-4.82c6.21-0.06,12.35,0.11,18.46-0.23c6.13-0.34,12.22-1.18,18.61-1.83
			c0,24.58,0,49.01,0,73.44c1.94,0.68,3.19,0.28,4.38-1.16c3.22-3.93,6.95-7.28,11.7-9.33c4.51-1.94,9.25-2.36,14.09-2.18
			c19.3,0.71,33.5,15.67,37.08,32.42c2.65,12.39,1.81,24.53-4.47,35.85c-4.29,7.74-10.26,13.93-18.43,17.58
			c-9.07,4.05-18.38,4.53-27.72,0.78c-4.79-1.92-8.64-5.16-11.87-9.09c-1.15-1.4-2.34-1.67-4.11-1.27c0,3.7,0,7.36,0,11.29
			c-6.39-0.46-12.56-1.08-18.74-1.3c-6.22-0.22-12.46-0.05-18.89-0.05c0-1.69,0-3.24,0-5.09c4.78,0,9.53,0,14.44,0
			c0-45.06,0-89.82,0-134.9c-2.32-0.22-4.7-0.07-7.06-0.1C684.23,136.98,681.84,137,679.17,137z M759.17,236.43
			c-0.01,0-0.02,0-0.03,0c0-6.88,0.06-13.76-0.02-20.64c-0.05-3.69-0.67-7.32-1.75-10.86c-1.42-4.67-4.49-7.66-9.23-8.85
			c-4.13-1.04-8.26-0.98-12.28,0.47c-6.87,2.48-11.72,7.35-15.44,13.42c-2.24,3.66-3.56,7.68-3.56,12.04
			c-0.01,8.48-0.04,16.96,0.02,25.44c0.04,5.93,1.84,11.36,5.4,16.1c5.5,7.35,12.73,11.55,22.1,11.46
			c6.77-0.06,11.39-3.47,13.31-9.98c0.76-2.58,1.35-5.31,1.43-7.99C759.3,250.2,759.17,243.31,759.17,236.43z" fill="white"/>
		<path d="M187.45,272.01c4.67,0,8.96,0,13.36,0c0,1.7,0,3.18,0,4.78c-16.5,0-32.85,0-49.39,0c0-1.58,0-3.05,0-4.74
			c4.13,0,8.18,0,12.42,0c0.1-0.8,0.25-1.4,0.25-2.01c0.01-19.75,0.02-39.51-0.03-59.26c-0.01-2.06-0.32-4.14-0.68-6.18
			c-0.6-3.43-2.87-5.21-6.19-5.8c-4.7-0.83-9.05,0.07-13.06,2.65c-4.26,2.75-7.42,6.54-10.04,10.8c-3.42,5.57-5.25,11.65-5.27,18.19
			c-0.05,13.2-0.02,26.39-0.02,39.59c0,0.54,0.06,1.08,0.11,1.93c4.47,0,8.82,0,13.27,0c0,1.73,0,3.15,0,4.56
			c-1.76,0.5-48.44,0.6-51.1,0.1c0-1.38,0-2.79,0-4.53c4.79-0.33,9.62,0.06,14.55-0.22c0-24.8,0-49.39,0-74.26
			c-4.83,0-9.6,0-14.52,0c0-1.75,0-3.22,0-5c12.34,0.2,24.61,0.02,37.12-1.75c0,6.62,0,12.89,0,19.04c1.53,0.64,2.08-0.04,2.8-0.97
			c2.43-3.16,4.78-6.43,7.57-9.26c6.64-6.72,14.96-9.31,24.25-8.75c3.24,0.19,6.55,0.66,9.66,1.58c8.25,2.42,12.91,8.23,14.39,16.58
			c0.42,2.34,0.51,4.77,0.52,7.16c0.04,17.51,0.02,35.03,0.02,52.54C187.45,269.72,187.45,270.66,187.45,272.01z" fill="white"/>
		<path d="M836.73,271.94c5.3,0,10.31,0,15.46,0c0,1.73,0,3.21,0,4.83c-18.29,0-36.49,0-54.97,0c-0.05-0.75-0.12-1.5-0.14-2.26
			c-0.02-0.71-0.01-1.43-0.01-2.46c5.53-0.22,10.93,0.02,16.48-0.14c0-44.94,0-89.7,0-134.79c-2.63-0.24-5.32-0.07-8-0.1
			c-2.71-0.03-5.42-0.01-8.31-0.01c0-1.65,0-3.12,0-4.93c13.12,0.25,26.19,0.14,39.48-2.22
			C836.73,177.41,836.73,224.54,836.73,271.94z" fill="white"/>
		<path d="M484.87,229.46c-18.35,0-36.56,0-54.93,0c-0.09,0.77-0.23,1.37-0.23,1.97c-0.01,8-0.01,16-0.01,24
			c0,2.82,0.34,5.61,1.44,8.22c2.85,6.76,8.06,10.52,15.3,10.95c13.51,0.81,23.34-5.33,30.02-16.81c1.43-2.46,2.39-5.2,3.6-7.9
			c1.44,0,2.94,0,4.61,0c-0.02,0.46,0.03,0.84-0.07,1.18c-2.71,9.53-7.55,17.6-16.1,23.04c-5.52,3.51-11.68,5.16-18.12,5.69
			c-8.7,0.71-17.13-0.37-24.81-4.81c-11.21-6.48-18.42-16.07-20.6-28.88c-2.7-15.88,1.05-30.17,12.03-42.25
			c8.61-9.48,19.29-13.83,32.15-12.9c8.55,0.62,16.19,3.35,22.89,8.77C480.82,206.83,485.65,217.74,484.87,229.46z M460.48,223.26
			c0-5.26,0.01-10.28-0.02-15.3c0-0.63-0.18-1.26-0.33-1.88c-1.16-4.83-3.97-8.06-8.91-9.3c-3.63-0.91-7.27-1.01-10.92-0.24
			c-5.46,1.16-8.92,4.43-10.02,9.97c-0.33,1.63-0.5,3.32-0.54,4.98c-0.08,3.27-0.03,6.55-0.02,9.82c0,0.61,0.08,1.23,0.14,1.95
			C440.12,223.26,450.23,223.26,460.48,223.26z" fill="white"/>
		<path d="M942.65,229.55c-18.49,0-36.71,0-55.08,0c-0.07,0.75-0.19,1.36-0.19,1.98c-0.01,7.92-0.07,15.84,0.03,23.76
			c0.03,2.14,0.32,4.33,0.87,6.39c2.03,7.6,8.38,12.53,16.25,13.02c14.6,0.91,26.2-8.2,31.25-19.97c0.66-1.54,1.23-3.11,1.88-4.77
			c1.59,0,3.14,0,5.1,0c-0.61,1.86-1.08,3.52-1.69,5.13c-3.59,9.51-9.51,16.95-18.95,21.25c-4.26,1.94-8.78,2.98-13.41,3.42
			c-18.48,1.76-33.25-6-41.98-21.82c-3.6-6.52-4.9-13.66-4.81-21.05c0.17-13.86,5.08-25.74,15.15-35.37
			c8.26-7.91,18.14-11.33,29.55-10.57c7,0.47,13.56,2.22,19.45,6.08c11.17,7.33,16.75,17.71,16.73,31.07
			C942.79,228.48,942.72,228.86,942.65,229.55z M887.37,223.18c4.74,0.5,29.29,0.3,31.02-0.22c0-4.61,0.1-9.24-0.05-13.87
			c-0.06-1.72-0.6-3.46-1.16-5.12c-1.24-3.69-3.91-5.95-7.59-7.04c-3.75-1.11-7.57-1.19-11.39-0.43
			c-5.73,1.14-9.19,4.68-10.29,10.34C886.86,212.21,887.51,217.65,887.37,223.18z" fill="white"/>
		<path d="M308.49,197.56c0-1.84,0-3.19,0-4.73c0.64-0.07,1.25-0.19,1.85-0.2c2.48-0.02,4.96-0.05,7.44,0
			c8.33,0.15,16.62-0.42,24.88-1.42c0.93-0.11,1.86-0.14,3.07-0.22c0,7.02,0,13.8,0,20.45c1.24,0.68,1.8,0.28,2.34-0.62
			c1.39-2.33,2.74-4.7,4.33-6.9c3.47-4.81,7.76-8.71,13.34-10.97c5.4-2.18,10.97-2.82,16.67-1.35c8.75,2.26,12.82,12.4,8.12,20.13
			c-1.79,2.94-4.43,4.64-7.85,4.79c-2.05,0.09-4.17-0.06-6.18-0.48c-4.51-0.94-6.99-4.06-7.17-8.65c-0.05-1.28,0.03-2.57-0.09-3.84
			c-0.29-2.96-1.18-3.57-4.1-3c-2.84,0.55-5.27,1.92-7.3,3.9c-7.37,7.2-11.43,15.92-11.54,26.27c-0.12,11.03-0.03,22.07-0.03,33.11
			c0,2-0.01,4,0.01,6c0.01,0.62,0.08,1.24,0.15,2.08c6.24,0,12.36,0,18.7,0c0,1.69,0,3.15,0,4.62c-1.67,0.49-53.7,0.61-56.55,0.1
			c0-1.38,0-2.79,0-4.54c2.39-0.25,4.83-0.09,7.26-0.12c2.37-0.03,4.75-0.01,7.24-0.01c0-24.92,0-49.51,0-74.4
			C318.21,197.56,313.46,197.56,308.49,197.56z" fill="white"/>
		<path d="M289.24,249.97c1.78,0,3.34,0,5.09,0c-1.18,5.05-3.06,9.6-5.76,13.77c-5.99,9.25-14.66,14.21-25.45,15.72
			c-6.41,0.9-12.77,0.75-19.01-1.05c-11.07-3.18-19.03-10.21-24.39-20.24c-4.31-8.07-5.47-16.8-4.72-25.82
			c0.66-7.93,2.91-15.38,7.45-22c7.94-11.57,18.79-18.21,32.89-19.31c6.6-0.51,13.11-0.11,19.41,2.03
			c5.34,1.81,9.99,4.69,13.18,9.49c2.93,4.4,3.88,9.27,2.82,14.43c-0.92,4.44-3.79,7.18-8.23,7.99c-4.18,0.76-8.18,0.2-11.37-2.94
			c-3.61-3.56-4.23-10.01-1.45-14.68c0.86-1.44,1.95-2.73,2.92-4.09c1.25-1.74,1.23-2.98-0.33-4.39c-0.87-0.78-1.93-1.51-3.03-1.84
			c-5.98-1.81-12.01-1.89-17.88,0.35c-5.48,2.09-8.25,6.59-9.73,11.99c-1.2,4.34-1.59,8.8-1.59,13.3
			c-0.01,10.88-0.04,21.75,0.02,32.63c0.01,2.14,0.22,4.33,0.68,6.42c1.51,6.89,5.92,11.02,12.74,12.42
			c10.02,2.06,18.62-0.87,25.97-7.81c4.15-3.92,7.14-8.58,8.92-14.01C288.66,251.55,288.94,250.81,289.24,249.97z" fill="white"/>
		<path d="M30.61,197.55c0-1.7,0-3.11,0-4.73c0.57-0.06,1.18-0.18,1.78-0.19c2.88-0.02,5.76-0.05,8.64,0
			c7.85,0.12,15.66-0.48,23.44-1.41c0.93-0.11,1.87-0.15,3.14-0.24c0.06,27.02,0.12,53.85,0.19,80.96c5.22,0,10.21,0,15.35,0
			c0,1.76,0,3.23,0,4.85c-18.3,0-36.5,0-54.95,0c-0.05-0.76-0.12-1.52-0.15-2.28c-0.03-0.71-0.01-1.43-0.01-2.41
			c5.46,0,10.78,0,16.01,0c0.56-1.94,0.7-71.47,0.18-74.54C39.77,197.55,35.25,197.55,30.61,197.55z" fill="white"/>
		<path d="M655.79,271.97c5.34,0,10.34,0,15.42,0c0,1.76,0,3.23,0,4.83c-18.35,0-36.55,0-54.93,0c0-1.54,0-3.02,0-4.81
			c5.38,0,10.78,0,16.31,0c0-24.91,0-49.5,0-74.36c-4.63,0-9.16,0-13.87,0c0-1.73,0-3.19,0-5.02c12.26,0.16,24.53,0.08,37.08-1.81
			C655.79,218.03,655.79,244.86,655.79,271.97z" fill="white"/>
		<path d="M479.75,328.97c0,16.89,0,33.78,0,50.8c-2.88,0-5.49,0-8.08,0c-0.49-1.77-0.66-61.61-0.18-65.66
			c1.57-0.38,3.23-0.11,4.87-0.18c0.56-0.03,1.14,0.09,1.68-0.02c1.9-0.37,2.84,0.67,3.81,2.12c10.65,15.96,21.35,31.89,32.05,47.82
			c0.25,0.38,0.54,0.73,1.26,1.01c0-8.42,0-16.85,0-25.27c0-8.46,0-16.92,0-25.52c2.85,0,5.44,0,8.21,0c0,21.84,0,43.64,0,65.7
			c-2.72,0.26-5.49,0.19-8.24,0.03c-0.59-0.04-1.24-0.89-1.66-1.5c-3.28-4.82-6.52-9.68-9.77-14.53
			c-7.52-11.22-15.04-22.45-22.57-33.67c-0.29-0.43-0.65-0.82-0.98-1.23C480.02,328.9,479.89,328.93,479.75,328.97z" fill="white"/>
		<path d="M791.15,332.52c-2.42,0.64-4.93,1.3-7.61,2.01c-0.38-1.03-0.72-1.91-1.03-2.8c-2.08-5.98-6.41-9.45-12.44-10.79
			c-5.68-1.27-11.27-0.83-16.66,1.54c-4.37,1.92-7.52,5.09-9.64,9.29c-3.01,5.96-3.75,12.34-3.15,18.91
			c0.29,3.19,0.88,6.32,2.14,9.31c2.95,7.01,8.44,10.9,15.64,12.5c8.6,1.92,16.46-0.18,23.77-4.84c1.22-0.77,1.68-1.72,1.65-3.16
			c-0.09-3.34-0.03-6.68-0.03-10.27c-6.46,0-12.66,0-19.09,0c-0.26-2.68-0.13-5.12-0.11-7.51c1.84-0.56,22.6-0.76,27.8-0.3
			c0.07,0.56,0.21,1.16,0.21,1.77c0.02,6.96-0.01,13.92,0.03,20.88c0.01,1.14-0.32,1.9-1.27,2.61c-7.27,5.47-15.33,8.91-24.49,9.32
			c-7.42,0.33-14.46-1.18-20.93-4.98c-6.22-3.66-10.26-9.1-12.5-15.84c-3.08-9.28-2.79-18.56,0.59-27.74
			c3.73-10.11,10.87-16.36,21.38-18.67c7.34-1.62,14.61-1.41,21.72,1.24c7.9,2.94,12.23,8.9,14.16,16.86
			C791.33,331.99,791.24,332.15,791.15,332.52z" fill="white"/>
		<path d="M722.24,347.02c0.14,5.48-0.88,10.88-3.12,16c-3.87,8.85-10.57,14.5-19.93,16.85c-10.64,2.66-20.47,0.98-29.13-6.01
			c-4.62-3.73-7.61-8.63-9.35-14.23c-3.16-10.17-2.73-20.27,1.8-29.92c4.56-9.71,12.54-15.1,23.1-16.6
			c6.13-0.87,12.14-0.24,17.87,2.21c8.98,3.85,14.53,10.7,17.22,19.99C721.8,339.09,722.31,342.96,722.24,347.02z M713.21,347.13
			c-0.06-1.44-0.05-2.88-0.2-4.31c-0.56-5.24-1.89-10.26-5.29-14.42c-5.78-7.08-13.42-9.4-22.13-7.54
			c-8.28,1.77-13.99,6.76-16.29,15.16c-1.6,5.87-1.8,11.83-0.96,17.83c1.36,9.74,8.32,18.16,19.19,19.49
			c9.75,1.19,18.52-3.23,22.8-12C712.51,356.86,713.17,352.06,713.21,347.13z" fill="white"/>
		<path d="M566.82,312.78c12.06,0.26,21.69,4.85,27.72,15.71c2.32,4.17,3.56,8.71,4.02,13.46c0.64,6.6,0.2,13.09-2.18,19.36
			c-3.66,9.67-10.45,15.92-20.46,18.51c-10.25,2.65-19.83,1.18-28.4-5.28c-6.38-4.82-9.89-11.5-11.36-19.16
			c-1.61-8.4-1.1-16.77,2.44-24.68c4.62-10.32,12.74-16.1,23.91-17.64c1.11-0.15,2.23-0.19,3.35-0.27
			C566.18,312.76,566.5,312.78,566.82,312.78z M544.28,347.3c0.25,2.46,0.35,4.95,0.78,7.37c1.76,10.06,8.81,17.16,18.69,18.6
			c10.93,1.6,20.43-4.11,23.93-13.8c3.16-8.75,2.96-17.58-0.51-26.24c-1.33-3.31-3.44-6.14-6.32-8.3c-6.43-4.84-13.56-5.9-21.1-3.41
			c-7.06,2.33-11.83,7.06-13.84,14.38C544.89,339.64,544.44,343.42,544.28,347.3z" fill="white"/>
		<path d="M840.55,341.83c6.11,0,12.09,0,18.08,0c5.99,0,11.98,0,18.16,0c0,2.58,0,5.01,0,7.79c-6.05,0.1-12.09,0.03-18.13,0.05
			c-5.98,0.01-11.96,0-18.11,0c0,7.57,0,14.87,0,22.37c13.43,0,26.76,0,40.37,0c0.14,2.61,0.13,5.04,0.01,7.44
			c-1.84,0.49-44.85,0.68-48.92,0.25c-0.48-1.72-0.57-63.05-0.07-65.69c15.7,0,31.42,0,47.34,0c0,2.47,0,4.9,0,7.57
			c-12.87,0-25.71,0-38.72,0C840.55,328.43,840.55,335.01,840.55,341.83z" fill="white"/>
		<path d="M940.49,332.6c-2.75,0.22-5.36,0.42-8,0.63c-0.18-0.51-0.36-0.87-0.43-1.25c-1.19-6.79-5.2-10.11-11.52-11.04
			c-4.13-0.61-8.3-0.55-12.34,0.76c-2.35,0.76-4.29,2.09-5.71,4.15c-2.77,4.01-1.68,9.44,2.74,11.45c3.46,1.57,7.22,2.51,10.89,3.57
			c4.29,1.24,8.69,2.15,12.93,3.53c2.32,0.75,4.58,1.94,6.6,3.32c8.55,5.85,8.54,16.69,4.07,23.43c-3.34,5.03-8.21,7.75-13.92,9.03
			c-7.1,1.59-14.2,1.18-21.04-1.21c-8.38-2.93-13.09-9.08-14.48-17.8c-0.11-0.7-0.08-1.42-0.12-2.39c2.68-0.26,5.26-0.52,8.01-0.79
			c0.23,0.81,0.47,1.46,0.6,2.14c1.09,5.68,4.4,9.48,9.81,11.41c6.42,2.29,12.84,2.39,19.18-0.32c3.18-1.36,5.42-3.65,6.21-7.13
			c0.84-3.72-0.2-6.87-3.32-9.07c-1.54-1.09-3.31-2.01-5.11-2.54c-4.9-1.45-9.88-2.61-14.81-3.97c-3.7-1.02-7.39-2.07-10.66-4.2
			c-3.49-2.27-5.98-5.28-7.01-9.36c-2.07-8.18,2.49-16.74,10.7-19.9c8.34-3.2,16.75-3.09,25.06,0.14
			C935.95,317.94,940.76,325.15,940.49,332.6z" fill="white"/>
		<path d="M324.14,314.06c0,2.62,0,4.99,0,7.64c-6.56,0-13.01,0-19.47,0c-6.38,0-12.76,0-19.29,0c0,6.74,0,13.26,0,20.05
			c12.04,0,24.08,0,36.27,0c0,2.7,0,5.13,0,7.87c-12.07,0-24.09,0-36.27,0c0,7.61,0,14.92,0,22.46c13.42,0,26.74,0,40.2,0
			c0,2.66,0,5.09,0,7.67c-16.29,0-32.48,0-48.66,0c-0.54-1.76-0.65-62.92-0.1-65.69C292.51,314.06,308.22,314.06,324.14,314.06z" fill="white"/>
		<path d="M448.06,348.89c-11.48,0-22.71,0-34.29,0c-0.05,10.24,0.01,20.44-0.03,30.82c-2.92,0-5.67,0-8.61,0
			c0-21.78,0-43.56,0-65.66c1.34-0.04,2.73-0.1,4.13-0.12c1.35-0.02,2.7,0,4.39,0c0.2,3.04,0.08,5.96,0.1,8.88
			c0.02,3.04,0,6.08,0,9.11c0,2.94,0,5.88,0,8.88c11.53,0,22.77,0,34.28,0c0-8.94,0-17.77,0-26.73c2.95,0,5.64,0,8.33,0
			c0.49,1.64,0.65,62.2,0.14,65.68c-2.72,0-5.46,0-8.45,0C448.06,369.43,448.06,359.24,448.06,348.89z" fill="white"/>
		<path d="M392.45,332.09c-2.7,0.63-5.4,1.26-8.18,1.91c-0.62-1.4-1.16-2.63-1.72-3.84c-2.68-5.79-7.23-9.07-13.53-9.71
			c-6.53-0.66-12.58,0.63-17.55,5.29c-2.19,2.06-3.8,4.5-4.81,7.35c-3.21,9.08-3.18,18.17-0.12,27.26
			c2.96,8.81,10.43,12.71,17.99,13.12c6.71,0.36,12.42-1.84,16.55-7.38c1.74-2.33,2.85-4.98,3.59-7.79c0.12-0.45,0.27-0.89,0.46-1.5
			c2.85,0.7,5.61,1.38,8.58,2.11c-0.24,0.91-0.4,1.66-0.63,2.4c-4.08,13.19-14.32,20.2-28.27,19.7c-2.54-0.09-5.1-0.44-7.59-0.98
			c-7.65-1.64-13.38-6.03-16.97-12.92c-5.77-11.11-6.67-22.77-2.75-34.62c3.4-10.24,10.79-16.4,21.2-18.83
			c6.51-1.52,13.03-1.33,19.31,1.25c7.45,3.06,12.02,8.74,14.42,16.3C392.51,331.42,392.45,331.68,392.45,332.09z" fill="white"/>
		<path d="M266.89,314.02c0,2.6,0,4.97,0,7.64c-7.22,0-14.36,0-21.78,0c0,19.53,0,38.76,0,58.11c-2.97,0-5.66,0-8.71,0
			c-0.02-19.27,0-38.5-0.01-58.03c-7.31,0-14.46,0-21.71,0c0-2.74,0-5.18,0-7.72C232.1,314.02,249.36,314.02,266.89,314.02z" fill="white"/>
		<path d="M609.95,314.03c2.92,0,5.6,0,8.56,0c0,19.34,0,38.56,0,58.05c11.01,0,21.76,0,32.63,0c0,2.64,0,5.01,0,7.38
			c-1.67,0.52-38.25,0.65-41.2,0.12C609.95,357.82,609.95,336.04,609.95,314.03z" fill="white"/>
		<path d="M815.6,379.78c-2.84,0-5.53,0-8.39,0c0-21.89,0-43.69,0-65.8c2.72-0.13,5.47-0.09,8.39-0.01
			C815.6,335.89,815.6,357.69,815.6,379.78z" fill="white"/>
		<path d="M630.26,149.51c-0.07-7.01,5.15-12.41,12.07-12.49c6.81-0.08,12.41,5.37,12.5,12.17c0.09,6.82-5.28,12.32-12.18,12.47
			C635.75,161.81,630.32,156.48,630.26,149.51z" fill="white"/>
		<path d="M66.67,149.29c0.06,6.87-5.31,12.31-12.23,12.38c-6.87,0.07-12.36-5.37-12.37-12.25c-0.01-6.89,5.41-12.39,12.24-12.4
			C61.2,137,66.61,142.38,66.67,149.29z" fill="white"/>
		<path d="M964.53,332.5c-1.64,0.5-2.57,0.09-3.15-1.25c-0.35-0.8-0.87-1.52-1.35-2.25c-0.86-1.33-2-2.01-3.8-1.38
			c-0.07,1.59-0.14,3.23-0.22,4.94c-0.67,0-1.18,0-1.81,0c0-4.08,0-8.03,0-12.27c2.45-0.21,4.91-0.39,7.3,0.13
			c2.45,0.53,3.12,3.8,1.24,5.54c-0.52,0.48-1.18,0.79-1.81,1.19c0.63,0.85,1.31,1.69,1.92,2.58
			C963.4,330.58,963.9,331.48,964.53,332.5z M956.27,325.58c0.85,0,1.55,0.01,2.25,0c0.4,0,0.8,0,1.19-0.05
			c1.03-0.13,1.84-0.56,1.97-1.71c0.12-1.01-0.6-1.82-1.95-1.97c-1.13-0.13-2.29-0.03-3.47-0.03
			C956.27,323.22,956.27,324.3,956.27,325.58z" fill="white"/>
	</g>
</g>
</svg>
