<?xml version="1.0" encoding="utf-8"?>
<svg version="1.1" viewBox="0 0 3839 1410.8" xmlns="http://www.w3.org/2000/svg">
  <rect class="st0" width="439.5" height="439.5" style="fill: rgb(255, 255, 255);"/>
  <polygon class="st0" points="1410.8 485.6 485.6 485.6 485.6 1410.8 925.1 1410.8 925.1 925.1 1410.8 925.1" style="fill: rgb(255, 255, 255);"/>
  <rect y="485.6" class="st0" width="439.5" height="925.1" style="fill: rgb(255, 255, 255);"/>
  <path class="st0" d="M 1757.6 1133.2 L 1757.6 1087.1 L 2382 1087.1 L 2382 485.6 L 1456.9 485.6 L 1456.9 1410.7 L 2382 1410.7 L 2382 1133.1 L 1757.6 1133.2 L 1757.6 1133.2 Z M 1757.6 763.2 L 2081.3 763.2 L 2081.3 809.3 L 1757.6 809.3 L 1757.6 763.2 L 1757.6 763.2 Z" style="fill: rgb(255, 255, 255);"/>
  <polygon class="st0" points="2428.2 485.6 2428.2 1410.8 2867.7 1410.8 2867.7 948.3 2913.9 948.3 2913.9 1410.8 3353.4 1410.8 3353.4 948.3 3399.5 948.3 3399.5 1410.8 3839 1410.8 3839 485.6" style="fill: rgb(255, 255, 255);"/>
</svg>