<?xml version="1.0" encoding="UTF-8" standalone="no"?>
<svg
   xmlns:dc="http://purl.org/dc/elements/1.1/"
   xmlns:cc="http://creativecommons.org/ns#"
   xmlns:rdf="http://www.w3.org/1999/02/22-rdf-syntax-ns#"
   xmlns:svg="http://www.w3.org/2000/svg"
   xmlns="http://www.w3.org/2000/svg"
   xmlns:sodipodi="http://sodipodi.sourceforge.net/DTD/sodipodi-0.dtd"
   xmlns:inkscape="http://www.inkscape.org/namespaces/inkscape"
   version="1.1"
   id="svg267"
   sodipodi:docname="Irem.svg"
   style="fill:none"
   inkscape:version="0.92.5 (2060ec1f9f, 2020-04-08)">
  <metadata
     id="metadata273">
    <rdf:RDF>
      <cc:Work
         rdf:about="">
        <dc:format>image/svg+xml</dc:format>
        <dc:type
           rdf:resource="http://purl.org/dc/dcmitype/StillImage" />
        <dc:title />
      </cc:Work>
    </rdf:RDF>
  </metadata>
  <defs
     id="defs271" />
  <sodipodi:namedview
     pagecolor="#ffffff"
     bordercolor="#666666"
     borderopacity="1"
     objecttolerance="10"
     gridtolerance="10"
     guidetolerance="10"
     inkscape:pageopacity="0"
     inkscape:pageshadow="2"
     inkscape:window-width="1366"
     inkscape:window-height="743"
     id="namedview269"
     showgrid="false"
     inkscape:pagecheckerboard="true"
     inkscape:zoom="1.3788474"
     inkscape:cx="217.09309"
     inkscape:cy="59.283829"
     inkscape:window-x="0"
     inkscape:window-y="0"
     inkscape:window-maximized="1"
     inkscape:current-layer="svg267" />
  <path
     d="M 103.39855,12.039355 H 54.744058 v 44.567539 h 48.654492 z"
     id="path225"
     inkscape:connector-curvature="0"
     style="fill:#000000;stroke-width:1.36748588" />
  <path
     d="M 103.39855,56.703848 H 54.744058 V 158.68369 h 48.654492 z"
     id="path229"
     inkscape:connector-curvature="0"
     style="fill:#000000;stroke-width:1.36748588" />
  <path
     d="m 103.36588,56.696192 v 48.715988 53.25783 h 48.71599 v -53.25783 h 53.25715 V 56.696192 h -53.25715 z"
     id="path233"
     inkscape:connector-curvature="0"
     style="fill:#000000;stroke-width:1.36748588" />
  <path
     d="M 205.32397,56.696192 V 158.67001 h 101.28558 v -30.96398 h -66.0564 v -0.31685 h 66.0564 V 56.696192 Z m 35.22918,31.514121 h 29.9999 v 0.12198 h -29.9999 z"
     id="path237"
     inkscape:connector-curvature="0"
     style="fill:#000000;stroke-width:1.36748588" />
  <path
     d="M 306.70665,56.696192 V 158.67001 h 53.13639 v -52.5697 h 0.12171 v 52.5697 h 52.44718 v -52.5697 h 0.1217 v 52.5697 h 48.71669 V 56.696192 Z"
     id="path241"
     inkscape:connector-curvature="0"
     style="fill:#000000;stroke-width:1.36748588" />
  <path
     d="M 98.99499,7.635558 H 50.340453 V 52.203043 H 98.99499 Z"
     id="path245"
     inkscape:connector-curvature="0"
     style="fill:#ffffff;stroke-width:1.36748588" />
  <path
     d="M 98.99499,52.300134 H 50.340453 V 154.28037 H 98.99499 Z"
     id="path249"
     inkscape:connector-curvature="0"
     style="fill:#ffffff;stroke-width:1.36748588" />
  <path
     d="M 48.138323,50.098346 H 101.19663 V 156.48203 H 48.138323 Z m 4.4037,4.403714 v 97.57668 H 96.79292 V 54.502059 Z"
     id="path251"
     inkscape:connector-curvature="0"
     style="clip-rule:evenodd;fill:#000000;fill-rule:evenodd;stroke-width:1.36748588" />
  <path
     d="m 98.96231,52.292477 v 48.715993 53.25688 h 48.71613 v -53.25688 h 53.25728 V 52.292477 h -53.25728 z"
     id="path253"
     inkscape:connector-curvature="0"
     style="fill:#ffffff;stroke-width:1.36748588" />
  <path
     d="m 96.76024,50.09055 h 106.37713 v 53.11971 h -53.25742 v 53.25673 H 96.76024 Z m 4.40371,4.403715 v 97.569425 h 44.31229 V 98.806545 h 53.25783 v -44.31228 z"
     id="path255"
     inkscape:connector-curvature="0"
     style="clip-rule:evenodd;fill:#000000;fill-rule:evenodd;stroke-width:1.36748588" />
  <path
     d="M 200.92067,52.292477 V 154.26535 h 101.28421 v -30.96317 h -66.05503 v -0.31671 h 66.05503 V 52.292477 Z m 35.22918,31.513985 h 29.9999 v 0.122116 h -29.9999 z"
     id="path257"
     inkscape:connector-curvature="0"
     style="fill:#ffffff;stroke-width:1.36748588" />
  <path
     d="M 198.71766,50.09055 H 304.40653 V 156.46699 H 198.71766 Z m 101.28557,75.41341 h -66.05504 v -4.72041 h 66.05504 V 54.494265 h -96.88091 v 97.569425 h 96.88091 z M 233.94819,81.604536 h 34.4032 v 4.525832 h -34.4032 z"
     id="path259"
     inkscape:connector-curvature="0"
     style="clip-rule:evenodd;fill:#000000;fill-rule:evenodd;stroke-width:1.36748588" />
  <path
     d="M 302.30333,52.292477 V 154.26535 h 53.13504 v -52.56889 h 0.12307 v 52.56889 h 52.44719 v -52.56889 h 0.1217 v 52.56889 h 48.71531 V 52.292477 Z"
     id="path261"
     inkscape:connector-curvature="0"
     style="fill:#ffffff;stroke-width:1.36748588" />
  <path
     d="M 300.10169,50.09055 H 459.0473 V 156.46699 H 300.10169 Z m 57.6614,101.97314 h 48.04252 V 99.494663 h 4.52638 V 152.06369 H 454.644 V 54.494265 H 304.50499 v 97.569425 h 48.73173 V 99.494663 h 4.52637 z"
     id="path263"
     inkscape:connector-curvature="0"
     style="clip-rule:evenodd;fill:#000000;fill-rule:evenodd;stroke-width:1.36748588" />
  <path
     d="m 12.281631,197.71391 c 1.585275,-0.001 3.150971,-0.35329 4.588104,-1.03045 1.413333,-0.63137 2.667225,-1.57678 3.66808,-2.76753 v 0 l -2.732831,-2.76753 c -0.670666,0.8162 -1.503671,1.48026 -2.444874,1.9497 -0.923293,0.45145 -1.936939,0.6837 -2.962772,0.67716 -0.865652,0.008 -1.724549,-0.15539 -2.5269835,-0.48414 -0.8024513,-0.32878 -1.5324917,-0.81456 -2.1478903,-1.42957 -0.5925803,-0.60356 -1.0607848,-1.31834 -1.377382,-2.10673 -0.3394461,-0.83582 -0.5103718,-1.73052 -0.5027496,-2.63503 -0.00919,-0.91105 0.1568103,-1.81721 0.4889618,-2.66448 0.3100544,-0.79001 0.7695254,-1.50971 1.3526027,-2.1198 0.584746,-0.60682 1.2841161,-1.08607 2.0564557,-1.41321 0.8048392,-0.34675 1.6710642,-0.52177 2.5454182,-0.51523 1.054456,-0.005 2.095335,0.24044 3.039908,0.71315 0.976336,0.49723 1.831259,1.20548 2.502727,2.07727 v 0 l 2.819489,-2.85583 c -0.99137,-1.21693 -2.252784,-2.18033 -3.68174,-2.8117 -1.468602,-0.68696 -3.066666,-1.04354 -4.684524,-1.04682 -1.445031,-0.009 -2.8776344,0.27152 -4.2148124,0.82438 -1.2668625,0.52013 -2.4235954,1.28072 -3.407668,2.2392 -0.9713323,0.96013 -1.7439088,2.10672 -2.2727033,3.37272 -0.5481752,1.32652 -0.8315943,2.74953 -0.8339583,4.18564 -0.00236,1.43773 0.2763756,2.86238 0.8201846,4.19053 0.5225358,1.2611 1.2902335,2.40278 2.2575414,3.35799 0.9845487,0.9585 2.1417565,1.71907 3.4090597,2.23758 1.3462226,0.55612 2.7882803,0.83581 4.2423563,0.82273 z m 54.513082,0.0311 c 1.440193,0.009 2.868119,-0.26987 4.199694,-0.82435 1.261258,-0.51687 2.408819,-1.28236 3.376643,-2.25068 0.967824,-0.96665 1.736738,-2.11816 2.262432,-3.38906 0.550406,-1.31833 0.834012,-2.7348 0.834012,-4.16601 0,-1.43119 -0.283606,-2.84767 -0.834012,-4.16765 -0.525694,-1.26925 -1.294454,-2.42075 -2.262267,-3.38906 -0.967812,-0.96667 -2.115385,-1.73215 -3.376808,-2.24902 -2.684764,-1.09915 -5.68699,-1.09915 -8.371754,0 -1.261411,0.51687 -2.408984,1.28235 -3.376805,2.24902 -0.967814,0.96831 -1.736734,2.11981 -2.262269,3.38906 -0.550071,1.31998 -0.833364,2.73646 -0.833364,4.16765 0,1.43121 0.283293,2.84768 0.833364,4.16601 0.525699,1.2709 1.294455,2.42241 2.262269,3.38906 0.967821,0.96832 2.115394,1.73381 3.376805,2.25068 1.323079,0.55284 2.742001,0.83255 4.173533,0.82272 z m 0,-3.91574 c -0.845148,0.007 -1.68293,-0.1603 -2.461991,-0.49233 -0.778895,-0.33204 -1.482711,-0.8211 -2.068282,-1.4361 -0.577546,-0.61829 -1.031602,-1.34451 -1.337468,-2.13617 -0.652295,-1.71088 -0.652295,-3.60498 0,-5.31587 0.308317,-0.78512 0.762373,-1.5048 1.337468,-2.11981 0.585571,-0.61499 1.289387,-1.10406 2.068282,-1.43609 0.779061,-0.33204 1.616843,-0.49887 2.461991,-0.49233 0.870013,-0.007 1.731989,0.16846 2.53166,0.51523 0.763681,0.32712 1.453451,0.80801 2.027544,1.41319 0.575106,0.61501 1.029162,1.33469 1.337491,2.11981 0.651965,1.71089 0.651965,3.60499 0,5.31587 -0.305878,0.79166 -0.759934,1.51788 -1.337491,2.13617 -0.574093,0.60518 -1.263863,1.08606 -2.027544,1.4132 -0.799341,0.34512 -1.660834,0.52013 -2.530187,0.51359 z m 63.229227,3.5919 v -3.76855 h -11.01906 v -16.84395 h -4.16813 v 20.61086 z m 52.58704,0 v -3.76855 h -11.0194 v -16.84395 h -4.16927 v 20.61086 z m 52.98859,0 v -3.70967 h -11.42013 v -4.88898 h 7.45204 V 185.229 h -7.45204 v -4.70739 h 11.30563 v -3.70966 H 220.0069 v 20.61084 z m 46.25787,0.29441 c 1.58659,-10e-4 3.15189,-0.3533 4.58801,-1.03046 1.4132,-0.63137 2.66774,-1.57678 3.66877,-2.76753 v 0 l -2.73481,-2.76751 c -0.67062,0.81618 -1.50317,1.4819 -2.44367,1.94968 -0.92415,0.45308 -1.93825,0.68371 -2.96381,0.67716 -0.86525,0.009 -1.72397,-0.15375 -2.52544,-0.48251 -0.8031,-0.32877 -1.5326,-0.81455 -2.14761,-1.43119 -0.5921,-0.60193 -1.06155,-1.31835 -1.37723,-2.10509 -0.34021,-0.83581 -0.51194,-1.73217 -0.50378,-2.63503 -0.009,-0.9127 0.15703,-1.81722 0.49071,-2.66613 0.30749,-0.78837 0.76711,-1.50807 1.35104,-2.11815 0.58392,-0.60684 1.28398,-1.08772 2.05601,-1.41486 0.80475,-0.34511 1.67165,-0.52013 2.54509,-0.51523 1.05826,-0.002 2.10345,0.24373 3.05047,0.72133 0.9765,0.49397 1.83031,1.20383 2.50257,2.07564 v 0 l 2.81822,-2.85585 c -0.9912,-1.21692 -2.2523,-2.18032 -3.68186,-2.81167 -1.46718,-0.68698 -3.0652,-1.04356 -4.68287,-1.04682 -1.44428,-0.009 -2.87711,0.27151 -4.21506,0.82436 -1.266,0.52014 -2.42406,1.27909 -3.40871,2.2392 -0.97157,0.96015 -1.74524,2.10509 -2.27356,3.37109 -0.54793,1.32652 -0.83091,2.74954 -0.83419,4.18727 -0.001,1.43774 0.27643,2.86076 0.8211,4.1889 0.52178,1.26109 1.28889,2.40278 2.2572,3.358 0.98468,0.95849 2.14108,1.71906 3.40871,2.23758 1.3445,0.55283 2.78387,0.8309 4.2347,0.81618 z m 55.17709,-0.29441 v -16.84395 h 6.75852 v -3.77018 h -17.72067 v 3.77018 h 6.78961 v 16.84231 z m 47.78066,0 v -20.61086 h -4.17091 v 20.61086 z m 48.04238,0.32548 c 1.44101,0.009 2.86893,-0.26987 4.20036,-0.82436 1.26108,-0.5185 2.40767,-1.28236 3.37598,-2.25067 0.96831,-0.96666 1.73707,-2.1198 2.2621,-3.38907 0.54959,-1.31833 0.83419,-2.7348 0.83419,-4.16601 0,-1.43119 -0.2846,-2.84766 -0.83419,-4.16764 -0.52503,-1.26926 -1.29379,-2.42077 -2.2621,-3.38906 -0.96831,-0.96667 -2.1149,-1.73217 -3.37598,-2.24902 -2.68573,-1.09916 -5.68717,-1.09916 -8.37128,0 -1.26109,0.51849 -2.40767,1.28235 -3.37434,2.25066 -0.96831,0.96829 -1.73707,2.11816 -2.26374,3.38742 -0.54958,1.31834 -0.83419,2.73645 -0.83419,4.16764 0,1.43121 0.28461,2.84768 0.83419,4.16601 0.52667,1.26927 1.29543,2.42078 2.26374,3.38907 0.96667,0.96668 2.11325,1.73217 3.37434,2.25067 1.32326,0.55121 2.73972,0.83092 4.17092,0.82109 z m 0,-3.91574 c -0.86525,0.007 -1.72235,-0.16849 -2.51563,-0.51523 -0.75895,-0.33042 -1.44427,-0.81129 -2.01512,-1.41484 -0.57739,-0.61664 -1.0321,-1.34125 -1.33798,-2.13453 -0.65262,-1.7109 -0.65262,-3.60498 0,-5.31588 0.30752,-0.78675 0.76223,-1.50643 1.33798,-2.1198 0.57085,-0.60192 1.25617,-1.08279 2.01512,-1.4132 0.79328,-0.34675 1.65038,-0.5234 2.51563,-0.51524 0.87017,-0.007 1.73052,0.16849 2.53035,0.51524 0.76385,0.32712 1.4541,0.80802 2.02822,1.4132 0.57574,0.61501 1.03046,1.3347 1.33795,2.1198 0.65262,1.7109 0.65262,3.60498 0,5.31588 -0.30587,0.79166 -0.75893,1.51789 -1.33795,2.13453 -0.57412,0.60518 -1.26437,1.08606 -2.02822,1.41484 -0.79983,0.3451 -1.66018,0.51849 -2.53035,0.51195 z m 51.98102,3.59188 v -13.78691 l 10.27026,13.78691 h 3.68186 v -20.61084 h -3.91247 v 13.33873 l -10.0102,-13.33873 h -3.97136 v 20.61084 z"
     id="path265"
     inkscape:connector-curvature="0"
     style="fill:#ffffff;stroke-width:1.63565207" />
  <path
     d="M 48.138323,5.4336597 H 101.19663 V 54.404832 H 48.138323 Z m 4.4037,4.4037012 V 50.001117 H 96.79292 V 9.8373609 Z"
     id="path247"
     inkscape:connector-curvature="0"
     style="clip-rule:evenodd;fill:#000000;fill-rule:evenodd;stroke-width:1.36748588" />
</svg>
