<?xml version="1.0" encoding="UTF-8"?>
<svg xmlns="http://www.w3.org/2000/svg" xmlns:xlink="http://www.w3.org/1999/xlink" width="155px" height="75px" viewBox="0 0 155 75" version="1.1">
<g id="surface1">
<path style=" stroke:none;fill-rule:nonzero;fill:rgb(100%,100%,100%);fill-opacity:1;" d="M 155 57.769531 C 153.792969 57.769531 152.652344 57.792969 151.511719 57.757812 C 150.835938 57.738281 150.484375 57.394531 150.347656 56.707031 C 150.273438 56.339844 150.289062 55.957031 150.21875 55.589844 C 150.097656 54.960938 149.753906 54.789062 149.191406 55.082031 C 148.863281 55.269531 148.554688 55.480469 148.265625 55.71875 C 145.003906 58.257812 141.371094 59.039062 137.363281 58.058594 C 134.160156 57.277344 132.078125 54.660156 131.84375 51.289062 C 131.472656 45.953125 134.972656 42.578125 139.007812 41.457031 C 140.589844 41.015625 142.273438 40.914062 143.917969 40.722656 C 145.371094 40.550781 146.835938 40.472656 148.289062 40.335938 C 149.097656 40.257812 149.359375 39.976562 149.289062 39.183594 C 149.171875 37.847656 149.132812 36.484375 148.824219 35.191406 C 148.324219 33.070312 146.808594 31.996094 144.6875 31.78125 C 141.507812 31.453125 138.421875 31.921875 135.425781 33.03125 C 135.1875 33.121094 134.933594 33.28125 134.699219 33.257812 C 134.488281 33.238281 134.191406 33.0625 134.105469 32.875 C 133.886719 32.375 133.761719 31.828125 133.597656 31.300781 C 133.371094 30.585938 133.523438 30.183594 134.207031 29.929688 C 137.945312 28.542969 141.75 27.488281 145.785156 27.875 C 147.0625 27.984375 148.324219 28.246094 149.542969 28.648438 C 152.527344 29.675781 153.925781 32.003906 154.675781 34.972656 C 155.035156 36.382812 154.972656 37.746094 154.980469 39.128906 C 155.011719 45.054688 154.992188 50.984375 154.992188 56.914062 Z M 146.507812 43.738281 C 144.726562 43.777344 142.957031 43.863281 141.230469 44.382812 C 138.964844 45.070312 137.683594 46.527344 137.449219 48.929688 C 137.15625 51.941406 138.964844 54.195312 141.945312 54.421875 C 143.488281 54.542969 144.902344 54.050781 146.28125 53.429688 C 147.90625 52.703125 148.949219 51.472656 149.109375 49.691406 C 149.265625 47.941406 149.242188 46.171875 149.269531 44.410156 C 149.273438 43.96875 148.972656 43.738281 148.523438 43.738281 C 147.851562 43.734375 147.179688 43.738281 146.507812 43.738281 Z M 146.507812 43.738281 "/>
<path style=" stroke:none;fill-rule:nonzero;fill:rgb(100%,100%,100%);fill-opacity:1;" d="M 98.804688 45.835938 C 98.804688 49.328125 98.804688 52.820312 98.804688 56.3125 C 98.804688 57.53125 98.566406 57.769531 97.351562 57.78125 C 96.996094 57.78125 96.640625 57.792969 96.285156 57.78125 C 95.019531 57.726562 94.480469 57.195312 94.332031 55.925781 C 94.292969 55.574219 94.148438 55.238281 94.050781 54.890625 C 93.6875 55.054688 93.269531 55.152344 92.964844 55.390625 C 90.945312 56.96875 88.699219 58.03125 86.144531 58.378906 C 83.589844 58.726562 81.175781 58.285156 78.980469 56.894531 C 77.40625 55.894531 76.664062 54.320312 76.285156 52.574219 C 75.398438 48.476562 76.628906 44.003906 82.164062 41.917969 C 84.414062 41.082031 86.785156 40.632812 89.179688 40.589844 C 90.085938 40.566406 90.988281 40.554688 91.890625 40.53125 C 92.671875 40.511719 93.101562 40.242188 93.265625 39.554688 C 93.710938 37.65625 93.601562 35.8125 92.605469 34.089844 C 91.703125 32.53125 90.230469 31.984375 88.546875 31.769531 C 85.769531 31.410156 83.121094 32.019531 80.484375 32.777344 C 80.011719 32.910156 79.546875 33.074219 79.078125 33.234375 C 78.582031 33.402344 78.332031 33.183594 78.210938 32.71875 C 78.105469 32.320312 78.007812 31.917969 77.863281 31.53125 C 77.507812 30.578125 77.679688 30.101562 78.65625 29.800781 C 80.296875 29.289062 81.945312 28.78125 83.613281 28.390625 C 86.777344 27.652344 89.953125 27.53125 93.117188 28.449219 C 96.648438 29.46875 98.707031 32.148438 98.757812 35.839844 C 98.777344 37.507812 98.757812 39.171875 98.757812 40.839844 L 98.757812 45.839844 Z M 93.429688 47.332031 L 93.390625 47.332031 C 93.390625 46.441406 93.398438 45.546875 93.390625 44.660156 C 93.382812 43.914062 93.210938 43.730469 92.480469 43.738281 C 91.453125 43.746094 90.421875 43.722656 89.398438 43.8125 C 88.164062 43.917969 86.910156 44.019531 85.710938 44.308594 C 83.164062 44.925781 81.96875 46.265625 81.664062 48.730469 C 81.445312 50.503906 81.722656 52.160156 83.246094 53.328125 C 84.589844 54.355469 86.140625 54.671875 87.789062 54.328125 C 89.609375 53.949219 91.144531 52.953125 92.632812 51.902344 C 93.304688 51.425781 93.433594 50.667969 93.433594 49.886719 C 93.429688 49.035156 93.429688 48.183594 93.429688 47.332031 Z M 93.429688 47.332031 "/>
<path style=" stroke:none;fill-rule:nonzero;fill:rgb(100%,100%,100%);fill-opacity:1;" d="M 116.710938 52.273438 C 117.488281 49.949219 118.363281 47.652344 119.027344 45.296875 C 120.105469 41.449219 121.085938 37.570312 122.023438 33.6875 C 122.34375 32.347656 122.433594 30.949219 122.585938 29.566406 C 122.695312 28.59375 122.785156 28.453125 123.773438 28.445312 C 125.082031 28.429688 126.386719 28.429688 127.6875 28.46875 C 128.386719 28.488281 128.5625 28.753906 128.40625 29.4375 C 126.644531 37.117188 124.835938 44.785156 121.984375 52.160156 C 121.429688 53.597656 120.820312 55.015625 120.203125 56.433594 C 119.722656 57.535156 119.160156 57.8125 117.960938 57.78125 C 116.519531 57.742188 115.074219 57.75 113.632812 57.78125 C 112.621094 57.800781 112.292969 57.609375 111.988281 56.632812 C 109.179688 47.640625 106.375 38.648438 103.570312 29.652344 C 103.511719 29.464844 103.464844 29.269531 103.433594 29.074219 C 103.367188 28.660156 103.527344 28.429688 103.972656 28.433594 C 105.101562 28.433594 106.230469 28.425781 107.355469 28.433594 C 108.476562 28.441406 109.285156 29.003906 109.660156 30.066406 C 110.273438 31.800781 110.890625 33.535156 111.414062 35.304688 C 112.941406 40.464844 114.421875 45.640625 115.925781 50.804688 C 116.070312 51.292969 116.292969 51.757812 116.480469 52.234375 Z M 116.710938 52.273438 "/>
<path style=" stroke:none;fill-rule:nonzero;fill:rgb(100%,100%,100%);fill-opacity:1;" d="M 71.015625 37.390625 C 71.015625 41.792969 71.066406 46.191406 70.996094 50.589844 C 70.957031 53.003906 70.886719 55.433594 70.527344 57.8125 C 69.867188 62.207031 67.558594 65.523438 63.589844 67.667969 C 61.96875 68.546875 59.890625 67.398438 59.34375 66.199219 C 59.140625 65.757812 59.105469 65.40625 59.628906 65.109375 C 62.953125 63.203125 64.570312 60.191406 64.972656 56.480469 C 65.140625 54.929688 65.160156 53.355469 65.164062 51.789062 C 65.195312 44.574219 65.210938 37.359375 65.207031 30.140625 C 65.207031 26.6875 65.152344 23.242188 65.132812 19.792969 C 65.125 17.996094 65.5 17.628906 67.300781 17.691406 C 68.050781 17.714844 68.800781 17.761719 69.546875 17.851562 C 70.390625 17.957031 70.714844 18.285156 70.851562 19.132812 C 70.914062 19.566406 70.941406 20 70.929688 20.4375 C 70.9375 26.085938 70.9375 31.738281 70.929688 37.390625 Z M 71.015625 37.390625 "/>
<path style=" stroke:none;fill-rule:nonzero;fill:rgb(100%,100%,100%);fill-opacity:1;" d="M 36.546875 0.0117188 C 36.617188 0.0976562 36.722656 0.171875 36.75 0.269531 C 37.433594 2.96875 37.621094 5.660156 36.648438 8.34375 C 35.949219 10.265625 34.804688 11.886719 33.359375 13.304688 C 30.957031 15.664062 28.527344 17.992188 26.140625 20.367188 C 25.339844 21.164062 24.625 22.042969 23.894531 22.902344 C 21.605469 25.585938 21.160156 28.558594 22.664062 31.75 C 23.410156 33.324219 24.316406 34.820312 25.140625 36.355469 C 25.238281 36.535156 25.3125 36.730469 25.394531 36.921875 L 25.222656 37.058594 C 24.988281 36.792969 24.757812 36.515625 24.511719 36.257812 C 22.425781 34.109375 20.601562 31.726562 19.066406 29.152344 C 17.878906 27.160156 17.851562 25.167969 19.164062 23.285156 C 20.101562 21.949219 21.136719 20.632812 22.332031 19.53125 C 24.6875 17.359375 27.199219 15.351562 29.617188 13.25 C 30.753906 12.265625 31.898438 11.273438 32.921875 10.175781 C 35.148438 7.777344 36.21875 4.855469 36.460938 1.613281 C 36.484375 1.304688 36.386719 0.988281 36.363281 0.675781 C 36.347656 0.464844 36.363281 0.25 36.363281 0.0351562 Z M 36.546875 0.0117188 "/>
<path style=" stroke:none;fill-rule:nonzero;fill:rgb(100%,100%,100%);fill-opacity:1;" d="M 43.027344 14.910156 C 40.859375 16.535156 38.738281 17.996094 36.761719 19.640625 C 35.53125 20.671875 34.433594 21.902344 33.445312 23.175781 C 32.070312 24.945312 32.066406 26.867188 33.273438 28.773438 C 34.011719 29.945312 34.773438 31.105469 35.457031 32.308594 C 36.179688 33.578125 36.714844 34.929688 36.492188 36.441406 C 36.445312 36.855469 36.332031 37.253906 36.15625 37.632812 C 35.226562 39.457031 33.78125 40.796875 32.121094 41.917969 L 31.984375 41.828125 C 32.085938 41.664062 32.179688 41.492188 32.289062 41.332031 C 33.578125 39.441406 33.605469 37.523438 32.375 35.601562 C 31.953125 34.933594 31.4375 34.324219 30.972656 33.683594 C 29.925781 32.25 29.023438 30.738281 28.675781 28.964844 C 28.140625 26.273438 28.921875 23.949219 30.734375 21.941406 C 32.679688 19.792969 35.035156 18.207031 37.644531 17 C 39.214844 16.273438 40.847656 15.65625 42.457031 14.996094 C 42.601562 14.9375 42.777344 14.945312 43.027344 14.910156 Z M 43.027344 14.910156 "/>
<path style=" stroke:none;fill-rule:nonzero;fill:rgb(100%,100%,100%);fill-opacity:1;" d="M 52.367188 64.839844 C 52.804688 65.316406 52.703125 65.699219 52.359375 65.949219 C 51.550781 66.542969 50.753906 67.195312 49.855469 67.617188 C 47.636719 68.648438 45.257812 69.199219 42.859375 69.625 C 37.800781 70.523438 32.683594 70.820312 27.5625 70.976562 C 22.175781 71.136719 16.796875 71.027344 11.425781 70.6875 C 8.378906 70.492188 5.359375 70.101562 2.414062 69.269531 C 1.769531 69.078125 1.148438 68.816406 0.570312 68.480469 C -0.0742188 68.113281 -0.175781 67.554688 0.285156 66.972656 C 0.617188 66.53125 1.027344 66.152344 1.496094 65.859375 C 3.304688 64.824219 5.285156 64.304688 7.394531 64.164062 C 7.199219 64.253906 7 64.335938 6.808594 64.429688 C 6.253906 64.695312 5.691406 64.941406 5.160156 65.242188 C 4.722656 65.484375 4.4375 65.867188 4.480469 66.40625 C 4.523438 66.945312 4.890625 67.238281 5.34375 67.359375 C 6.792969 67.742188 8.238281 68.191406 9.710938 68.421875 C 16.351562 69.433594 23.027344 69.609375 29.722656 69.207031 C 34.066406 68.941406 38.410156 68.679688 42.746094 68.304688 C 45.503906 68.066406 48.25 67.660156 50.835938 66.558594 C 51.574219 66.238281 52.199219 65.824219 52.367188 64.839844 Z M 52.367188 64.839844 "/>
<path style=" stroke:none;fill-rule:nonzero;fill:rgb(100%,100%,100%);fill-opacity:1;" d="M 39.320312 61.527344 C 37.292969 62.03125 35.285156 62.644531 33.234375 63.023438 C 28.136719 63.976562 23.039062 63.871094 18 62.585938 C 17.066406 62.339844 16.175781 61.953125 15.355469 61.441406 C 14.199219 60.71875 14.238281 59.714844 15.371094 58.933594 C 15.816406 58.628906 16.320312 58.40625 16.914062 58.082031 C 16.964844 59.589844 17.910156 59.957031 19.03125 60.074219 C 24.050781 60.621094 29.121094 60.496094 34.109375 59.703125 C 35.441406 59.488281 36.507812 59.5625 37.582031 60.328125 C 38.121094 60.710938 38.738281 60.992188 39.316406 61.320312 Z M 39.320312 61.527344 "/>
<path style=" stroke:none;fill-rule:nonzero;fill:rgb(100%,100%,100%);fill-opacity:1;" d="M 40.285156 53.308594 C 38.027344 53.785156 35.78125 54.339844 33.515625 54.738281 C 29.035156 55.511719 24.527344 55.253906 20.023438 54.925781 C 17.84375 54.769531 15.695312 54.484375 13.644531 53.675781 C 13.042969 53.4375 12.457031 53.199219 12.367188 52.4375 C 12.273438 51.671875 12.632812 51.085938 13.265625 50.695312 C 13.816406 50.355469 14.402344 50.078125 15.015625 49.742188 C 14.816406 51.527344 15.128906 51.828125 16.890625 52.308594 C 17.925781 52.59375 19.035156 52.652344 20.117188 52.710938 C 25.933594 53.015625 31.691406 52.433594 37.425781 51.519531 C 37.808594 51.480469 38.191406 51.5625 38.519531 51.757812 C 39.136719 52.132812 39.695312 52.609375 40.285156 53.050781 Z M 40.285156 53.308594 "/>
<path style=" stroke:none;fill-rule:nonzero;fill:rgb(100%,100%,100%);fill-opacity:1;" d="M 42.664062 43.878906 C 41.554688 45.199219 40.097656 45.273438 38.691406 45.464844 C 33.164062 46.214844 27.628906 46.96875 22.039062 46.945312 C 17.230469 46.925781 12.417969 46.8125 7.710938 45.683594 C 7.359375 45.613281 7.023438 45.496094 6.703125 45.34375 C 6.5 45.238281 6.214844 44.992188 6.226562 44.828125 C 6.242188 44.582031 6.429688 44.242188 6.640625 44.128906 C 7.578125 43.621094 8.519531 43.089844 9.523438 42.742188 C 11.183594 42.164062 12.882812 41.710938 14.570312 41.222656 C 14.746094 41.167969 14.949219 41.214844 15.179688 41.324219 C 14.824219 41.492188 14.457031 41.65625 14.097656 41.824219 C 13.433594 42.136719 12.765625 42.433594 12.117188 42.777344 C 11.660156 43.015625 11.3125 43.371094 11.40625 43.960938 C 11.5 44.550781 11.988281 44.644531 12.457031 44.757812 C 15.113281 45.40625 17.828125 45.375 20.53125 45.449219 C 26.980469 45.632812 33.371094 44.929688 39.757812 44.207031 Z M 42.664062 43.878906 "/>
<path style=" stroke:none;fill-rule:nonzero;fill:rgb(100%,100%,100%);fill-opacity:1;" d="M 15.003906 73.617188 C 16.21875 73.617188 17.441406 73.542969 18.652344 73.628906 C 24.542969 74.035156 30.429688 74.125 36.320312 73.667969 C 41.359375 73.273438 46.371094 72.714844 51.148438 70.9375 C 52.421875 70.460938 53.632812 69.8125 54.871094 69.242188 C 55.007812 69.179688 55.144531 69.113281 55.28125 69.050781 L 55.402344 69.191406 C 54.957031 69.585938 54.550781 70.027344 54.066406 70.367188 C 51.777344 71.957031 49.183594 72.78125 46.488281 73.320312 C 40.074219 74.59375 33.597656 75.070312 27.070312 74.988281 C 23.066406 74.9375 19.082031 74.714844 15.164062 73.804688 C 15.109375 73.792969 15.054688 73.769531 15 73.753906 Z M 15.003906 73.617188 "/>
<path style=" stroke:none;fill-rule:nonzero;fill:rgb(100%,100%,100%);fill-opacity:1;" d="M 46.84375 53.585938 C 47.417969 53.140625 48.003906 52.699219 48.566406 52.253906 C 49.933594 51.164062 51.289062 50.046875 52.191406 48.527344 C 52.6875 47.695312 53.140625 46.761719 53.335938 45.820312 C 53.894531 43.132812 52.257812 40.980469 49.492188 40.597656 C 49.003906 40.53125 48.507812 40.507812 48.019531 40.460938 L 47.996094 40.292969 C 48.722656 40.195312 49.441406 40.027344 50.167969 40.011719 C 52.082031 39.96875 53.675781 40.742188 54.960938 42.121094 C 56.277344 43.53125 56.535156 45.800781 55.554688 47.554688 C 55.152344 48.300781 54.648438 48.988281 54.058594 49.597656 C 52.296875 51.355469 50.160156 52.683594 47.808594 53.484375 C 47.515625 53.585938 47.207031 53.644531 46.902344 53.722656 Z M 46.84375 53.585938 "/>
</g>
</svg>
