<?xml version="1.0" encoding="UTF-8" standalone="no"?>
<svg
   xmlns:dc="http://purl.org/dc/elements/1.1/"
   xmlns:cc="http://creativecommons.org/ns#"
   xmlns:rdf="http://www.w3.org/1999/02/22-rdf-syntax-ns#"
   xmlns:svg="http://www.w3.org/2000/svg"
   xmlns="http://www.w3.org/2000/svg"
   xmlns:sodipodi="http://sodipodi.sourceforge.net/DTD/sodipodi-0.dtd"
   xmlns:inkscape="http://www.inkscape.org/namespaces/inkscape"
   version="1.1"
   id="svg62"
   sodipodi:docname="jaleco.svg"
   style="fill:none"
   inkscape:version="0.92.5 (2060ec1f9f, 2020-04-08)">
  <metadata
     id="metadata68">
    <rdf:RDF>
      <cc:Work
         rdf:about="">
        <dc:format>image/svg+xml</dc:format>
        <dc:type
           rdf:resource="http://purl.org/dc/dcmitype/StillImage" />
        <dc:title />
      </cc:Work>
    </rdf:RDF>
  </metadata>
  <defs
     id="defs66" />
  <sodipodi:namedview
     pagecolor="#ffffff"
     bordercolor="#666666"
     borderopacity="1"
     objecttolerance="10"
     gridtolerance="10"
     guidetolerance="10"
     inkscape:pageopacity="0"
     inkscape:pageshadow="2"
     inkscape:window-width="1366"
     inkscape:window-height="743"
     id="namedview64"
     showgrid="false"
     inkscape:pagecheckerboard="true"
     inkscape:zoom="0.96800323"
     inkscape:cx="-40.268971"
     inkscape:cy="195.52862"
     inkscape:window-x="0"
     inkscape:window-y="0"
     inkscape:window-maximized="1"
     inkscape:current-layer="svg62" />
  <path
     d="m 18.62684,198.68429 c -1.480818,0.69215 -3.002705,1.03719 -4.567732,1.03719 -1.509568,0 -2.91644,-0.27727 -4.2247277,-0.82976 -1.308304,-0.55247 -2.43791,-1.30212 -3.3929461,-2.24895 -0.955036,-0.94681 -1.7046802,-2.07026 -2.248949,-3.37238 -0.5442687,-1.30214 -0.815367,-2.70286 -0.815367,-4.20215 0,-1.4993 0.2772659,-2.90618 0.8297419,-4.21858 0.554548,-1.31034 1.308304,-2.43996 2.2633238,-3.38677 0.955036,-0.94682 2.0846421,-1.69648 3.3929461,-2.24895 1.308288,-0.55248 2.706953,-0.82975 4.195978,-0.82975 1.602,0 3.158804,0.3512 4.666316,1.05157 1.509568,0.70035 2.731591,1.64101 3.666101,2.82606 l -2.805553,2.86922 c -0.70652,-0.9078 -1.538318,-1.602 -2.491298,-2.0867 -0.955036,-0.48265 -1.967571,-0.725 -3.035566,-0.725 -0.897521,0 -1.743709,0.17457 -2.534422,0.51961 -0.792785,0.34505 -1.474667,0.81742 -2.0476854,1.41921 -0.5730183,0.60177 -1.0207588,1.3124 -1.3473168,2.13188 -0.3245021,0.81742 -0.4867531,1.71085 -0.4867531,2.6782 0,0.94681 0.1684186,1.82996 0.501128,2.64738 0.3347814,0.8195 0.7927849,1.52396 1.3760826,2.11547 0.5812257,0.59354 1.2692587,1.06182 2.0620437,1.40687 0.790729,0.34504 1.655388,0.51756 2.589882,0.51756 1.051564,0 2.033294,-0.22798 2.951357,-0.67981 0.916023,-0.45391 1.727278,-1.10497 2.433798,-1.9532 l 2.719288,2.78088 c -0.955036,1.16453 -2.170908,2.09081 -3.64967,2.7809 z m 53.878248,0.23824 c -1.298025,0.55249 -2.692578,0.8277 -4.181619,0.8277 -1.470539,0 -2.854829,-0.27521 -4.152854,-0.8277 -1.298025,-0.55248 -2.419407,-1.30829 -3.36418,-2.26538 -0.944757,-0.95708 -1.694401,-2.0908 -2.246893,-3.40319 -0.554532,-1.31035 -0.831798,-2.70696 -0.831798,-4.18572 0,-1.48082 0.277266,-2.87537 0.831798,-4.18777 0.552492,-1.3124 1.302136,-2.44612 2.246893,-3.40321 0.944773,-0.95709 2.066155,-1.71085 3.36418,-2.26332 1.298025,-0.55248 2.682315,-0.82975 4.152854,-0.82975 1.489041,0 2.883594,0.27727 4.181619,0.82975 1.298025,0.55247 2.419407,1.30623 3.36418,2.26332 0.944757,0.95709 1.694401,2.09081 2.248949,3.40321 0.552476,1.3124 0.829742,2.70695 0.829742,4.18777 0,1.47876 -0.277266,2.87537 -0.829742,4.18572 -0.554548,1.31239 -1.304192,2.44611 -2.248949,3.40319 -0.944773,0.95709 -2.066155,1.7129 -3.36418,2.26538 z m -4.181619,-3.10744 c -0.897521,0 -1.731374,-0.17253 -2.505673,-0.51758 -0.772242,-0.3471 -1.441789,-0.81948 -2.004544,-1.42124 -0.562756,-0.60179 -1.006384,-1.31652 -1.330886,-2.14626 -0.324503,-0.8277 -0.486754,-1.71496 -0.486754,-2.66177 0,-0.96735 0.162251,-1.86078 0.486754,-2.6782 0.324502,-0.81948 0.76813,-1.53011 1.330886,-2.13188 0.562755,-0.60179 1.232302,-1.07416 2.004544,-1.41921 0.774299,-0.3471 1.608152,-0.51961 2.505673,-0.51961 0.897536,0 1.737558,0.17251 2.520063,0.51961 0.782506,0.34505 1.456164,0.81742 2.018919,1.41921 0.562756,0.60177 1.006384,1.3124 1.330887,2.13188 0.324502,0.81742 0.486753,1.71085 0.486753,2.6782 0,0.94681 -0.162251,1.83407 -0.486753,2.66177 -0.324503,0.82974 -0.768131,1.54447 -1.330887,2.14626 -0.562755,0.60176 -1.236413,1.07414 -2.018919,1.42124 -0.782505,0.34505 -1.622527,0.51758 -2.520063,0.51758 z m 62.941821,-0.17868 v 3.78932 h -15.12033 v -20.71498 h 4.15285 v 16.92566 z m 52.34609,3.78932 v -3.78932 H 172.6439 v -16.92566 h -4.1508 v 20.71498 z m 52.74864,-3.72977 v 3.72977 H 220.83918 V 178.71075 H 236.245 v 3.72771 h -11.25297 v 4.73408 h 7.4164 v 3.61064 h -7.4164 v 4.91278 z m 46.04697,4.02552 c 1.56501,0 3.0869,-0.34504 4.56772,-1.03719 1.47876,-0.69009 2.69669,-1.61637 3.64967,-2.7809 l -2.71927,-2.78088 c -0.70652,0.84823 -1.51779,1.49929 -2.4338,1.9532 -0.91601,0.45183 -1.89979,0.67981 -2.9493,0.67981 -0.93655,0 -1.79917,-0.17252 -2.59196,-0.51756 -0.79276,-0.34505 -1.4808,-0.81333 -2.06204,-1.40687 -0.58328,-0.59151 -1.0413,-1.29597 -1.37401,-2.11547 -0.33478,-0.81742 -0.50114,-1.70057 -0.50114,-2.64738 0,-0.96735 0.16225,-1.86078 0.48676,-2.6782 0.32451,-0.81948 0.77225,-1.53011 1.34527,-2.13188 0.57301,-0.60179 1.25488,-1.07416 2.04766,-1.41921 0.79279,-0.34504 1.63691,-0.51961 2.53444,-0.51961 1.06798,0 2.08053,0.24235 3.03557,0.725 0.95502,0.4847 1.78478,1.1789 2.4913,2.0867 l 2.80553,-2.86922 c -0.93449,-1.18505 -2.15653,-2.12571 -3.66404,-2.82606 -1.50957,-0.70037 -3.06432,-1.05157 -4.66836,-1.05157 -1.48904,0 -2.8877,0.27727 -4.19599,0.82975 -1.30623,0.55247 -2.4379,1.30213 -3.39293,2.24895 -0.95504,0.94681 -1.70879,2.07643 -2.26127,3.38677 -0.55455,1.3124 -0.83181,2.71928 -0.83181,4.21858 0,1.49929 0.27317,2.90001 0.81742,4.20215 0.54427,1.30212 1.29187,2.42557 2.24691,3.37238 0.95502,0.94683 2.08668,1.69648 3.39293,2.24895 1.30829,0.55249 2.71721,0.82976 4.22474,0.82976 z m 54.92365,-17.22346 v 16.92771 h -4.15286 v -16.92771 h -6.75712 v -3.78727 h 17.64039 v 3.78727 z m 47.56475,16.92771 v -20.71498 h -4.15286 v 20.71498 z m 52.00309,-0.5032 c -1.29802,0.55249 -2.69258,0.8277 -4.1816,0.8277 -1.4685,0 -2.85278,-0.27521 -4.1508,-0.8277 -1.29802,-0.55248 -2.42148,-1.30829 -3.36624,-2.26538 -0.94477,-0.95708 -1.69441,-2.0908 -2.24689,-3.40319 -0.55455,-1.31035 -0.82976,-2.70696 -0.82976,-4.18572 0,-1.48082 0.27521,-2.87537 0.82976,-4.18777 0.55248,-1.3124 1.30212,-2.44612 2.24689,-3.40321 0.94476,-0.95709 2.06822,-1.71085 3.36624,-2.26332 1.29802,-0.55248 2.6823,-0.82975 4.1508,-0.82975 1.48902,0 2.88358,0.27727 4.1816,0.82975 1.29803,0.55247 2.41942,1.30623 3.36418,2.26332 0.94476,0.95709 1.69442,2.09081 2.24895,3.40321 0.55248,1.3124 0.82974,2.70695 0.82974,4.18777 0,1.47876 -0.27726,2.87537 -0.82974,4.18572 -0.55453,1.31239 -1.30419,2.44611 -2.24895,3.40319 -0.94476,0.95709 -2.06615,1.7129 -3.36418,2.26538 z m -4.1816,-3.10744 c -0.89754,0 -1.73139,-0.17253 -2.50569,-0.51758 -0.77224,-0.3471 -1.43973,-0.81948 -2.00455,-1.42124 -0.56273,-0.60179 -1.00636,-1.31652 -1.33087,-2.14626 -0.32451,-0.8277 -0.48676,-1.71496 -0.48676,-2.66177 0,-0.96735 0.16225,-1.86078 0.48676,-2.6782 0.32451,-0.81948 0.76814,-1.53011 1.33087,-2.13188 0.56482,-0.60179 1.23231,-1.07416 2.00455,-1.41921 0.7743,-0.3471 1.60815,-0.51961 2.50569,-0.51961 0.89752,0 1.73754,0.17251 2.52004,0.51961 0.78253,0.34505 1.45617,0.81742 2.01892,1.41921 0.56276,0.60177 1.00844,1.3124 1.33295,2.13188 0.3245,0.81742 0.48675,1.71085 0.48675,2.6782 0,0.94681 -0.16225,1.83407 -0.48675,2.66177 -0.32451,0.82974 -0.77019,1.54447 -1.33295,2.14626 -0.56275,0.60176 -1.23639,1.07414 -2.01892,1.42124 -0.7825,0.34505 -1.62252,0.51758 -2.52004,0.51758 z m 51.74635,-10.24042 v 13.85106 h -3.92282 v -20.71498 h 3.95159 l 9.9652,13.40538 v -13.40538 h 3.89406 v 20.71498 h -3.66608 z"
     id="path40"
     inkscape:connector-curvature="0"
     style="clip-rule:evenodd;fill:#ffffff;fill-rule:evenodd;stroke-width:2.05383444" />
  <path
     style="fill:#ffffff;stroke-width:1.03845072"
     d="m 88.232854,34.21165 c -36.604451,0 -66.107165,27.451086 -65.853903,61.270723 0.253246,33.819647 30.166891,61.263717 66.771239,61.263717 36.60447,0 66.1073,-27.44407 65.85391,-61.263717 C 154.75072,61.662736 124.83732,34.211652 88.232854,34.21165 Z m -30.662496,16.564576 8.007437,8.520376 9.495482,-8.520376 8.807481,8.520376 8.586899,-8.520376 8.916023,8.520376 8.92477,-8.520376 17.73226,18.131401 -8.6902,8.579896 -9.26964,-8.579896 -8.35232,8.579896 -8.923019,-8.579896 -8.579897,8.579896 -9.378189,-8.579896 -8.807481,8.579896 -17.277087,-18.190921 z m -20.141137,32.684488 9.269649,8.637668 8.352314,-8.637668 8.462604,8.637668 9.267899,-8.637668 8.69719,8.637668 8.924774,-8.637668 8.688436,8.637668 9.386943,-8.637668 8.5799,8.637668 8.5799,-8.637668 17.84779,18.246946 -8.46961,8.40833 -8.69719,-8.40833 -9.1506,8.40833 -9.03507,-8.40833 -8.35231,8.40833 -9.378189,-8.40833 -8.579898,8.40833 -9.042066,-8.40833 -8.923023,8.40833 -8.462604,-8.40833 -8.69719,8.40833 -17.385626,-18.017608 z m 20.141137,32.301096 8.007437,8.52037 9.495482,-8.52037 8.807481,8.52037 8.586899,-8.52037 8.916023,8.52037 8.92477,-8.52037 17.73226,18.12965 -8.6902,8.5799 -9.26964,-8.5799 -8.35232,8.5799 -8.923019,-8.5799 -8.579897,8.5799 -9.378189,-8.5799 -8.807481,8.5799 -17.277087,-18.18918 z"
     id="path42"
     inkscape:connector-curvature="0" />
  <path
     d="m 194.76965,59.896588 h 16.44045 v 51.375442 c 0,35.12151 -45.23978,27.1379 -44.52547,-0.685 h 15.75405 c -0.12053,9.48339 12.33097,13.57447 12.33097,0.685 z"
     id="path50"
     inkscape:connector-curvature="0"
     style="clip-rule:evenodd;fill:#ffffff;fill-rule:evenodd;stroke-width:1.26874876" />
  <path
     d="m 214.63445,133.1922 h 17.12557 l 4.10948,-22.60517 h 16.44045 l 3.42435,22.60517 h 17.12557 l -12.3297,-73.295612 h -33.56602 z m 23.29042,-39.045359 h 11.64458 l -5.86162,-30.275897 z"
     id="path52"
     inkscape:connector-curvature="0"
     style="clip-rule:evenodd;fill:#ffffff;fill-rule:evenodd;stroke-width:1.26874876" />
  <path
     d="M 316.01509,133.1922 H 278.3396 V 59.896588 h 17.12557 v 57.540422 h 20.54992 z"
     id="path54"
     inkscape:connector-curvature="0"
     style="clip-rule:evenodd;fill:#ffffff;fill-rule:evenodd;stroke-width:1.26874876" />
  <path
     d="M 359.85544,133.1922 H 318.75559 V 59.896588 h 41.09985 V 74.96666 h -23.97555 v 11.645211 h 23.97555 v 15.755069 h -23.97555 v 15.75507 h 23.97555 z"
     id="path56"
     inkscape:connector-curvature="0"
     style="clip-rule:evenodd;fill:#ffffff;fill-rule:evenodd;stroke-width:1.26874876" />
  <path
     d="m 400.95656,87.296615 h 16.43918 c 0.12814,-7.862056 -4.09553,-29.417845 -26.43312,-28.79527 -13.33201,0.371617 -25.36102,10.53937 -25.62745,37.015364 -0.38951,38.890701 19.6821,39.318781 24.01614,39.229581 28.45169,-0.58578 28.40729,-27.31704 28.05584,-32.35043 l -16.45059,-0.0292 c -0.69781,8.56939 -1.95514,16.59346 -10.39613,16.00311 -8.19104,-0.87112 -7.37016,-13.35929 -7.41457,-22.85308 -0.0431,-9.232302 -0.0152,-20.691642 8.48793,-21.041436 6.79034,0.260855 8.19612,6.852386 9.32277,12.821341 z"
     id="path58"
     inkscape:connector-curvature="0"
     style="clip-rule:evenodd;fill:#ffffff;fill-rule:evenodd;stroke-width:1.26874876" />
  <path
     d="m 446.40187,58.233005 c -17.89443,-0.238779 -26.51685,15.890952 -25.90785,37.98824 0.94522,34.310265 15.44575,38.389035 26.44453,38.256705 19.06549,-0.22647 26.22885,-17.07469 26.31005,-36.243201 0.0837,-20.180589 -5.68781,-39.719321 -26.84673,-40.001744 z m 0.40219,16.242395 c -8.58308,0.254892 -9.43187,11.396663 -9.39635,20.537869 0.014,3.45493 -0.5481,23.792721 9.53084,23.625121 9.49786,-0.16012 9.24157,-14.676 9.39636,-22.95408 0.15986,-8.549842 -0.5684,-21.475093 -9.53085,-21.20891 z"
     id="path60"
     inkscape:connector-curvature="0"
     style="clip-rule:evenodd;fill:#ffffff;fill-rule:evenodd;stroke-width:1.26874876" />
  <g
     id="g48"
     transform="matrix(0.99975161,0,0,0.99975161,27.123974,-118.40856)">
    <path
       d="m 98.368707,123.56449 -3.911684,9.67624 h 7.837657 z m -1.627486,-2.59162 h 3.269259 l 8.12318,19.44364 h -2.99801 l -1.94157,-4.98788 h -9.607908 l -1.941568,4.98788 h -3.040839 z"
       style="font-style:normal;font-weight:normal;font-size:40px;line-height:125%;font-family:sans-serif;letter-spacing:0px;word-spacing:0px;fill:#ffffff;fill-opacity:1;stroke:#ffffff;stroke-width:0.69800001;stroke-linecap:butt;stroke-linejoin:miter;stroke-miterlimit:4;stroke-dasharray:none;stroke-opacity:1"
       id="path36"
       inkscape:connector-curvature="0" />
    <path
       d="m 149.94112,131.30027 q 0.92796,0.28651 1.79881,1.22418 0.88512,0.93767 1.77025,2.5786 l 2.92663,5.31346 h -3.09794 l -2.72677,-4.98788 q -1.05644,-1.95348 -2.05577,-2.59162 -0.98506,-0.63814 -2.69821,-0.63814 h -3.14077 v 8.21764 h -2.88381 v -19.44364 h 6.50997 q 3.65472,0 5.45352,1.39348 1.79881,1.39349 1.79881,4.2065 0,1.83627 -0.94223,3.04743 -0.92796,1.21115 -2.71249,1.67999 z m -7.22378,-8.16555 v 6.9023 h 3.62617 q 2.08433,0 3.14077,-0.87256 1.07072,-0.88557 1.07072,-2.59161 0,-1.70604 -1.07072,-2.56557 -1.05644,-0.87256 -3.14077,-0.87256 z"
       style="font-style:normal;font-weight:normal;font-size:40px;line-height:125%;font-family:sans-serif;letter-spacing:0px;word-spacing:0px;fill:#ffffff;fill-opacity:1;stroke:#ffffff;stroke-width:0.69800001;stroke-linecap:butt;stroke-linejoin:miter;stroke-miterlimit:4;stroke-dasharray:none;stroke-opacity:1"
       id="path38"
       inkscape:connector-curvature="0" />
    <path
       d="m 200.69712,122.47054 v 2.77394 q -1.45617,-1.2372 -3.11221,-1.84929 -1.64177,-0.61209 -3.49768,-0.61209 -3.65472,0 -5.59629,2.04464 -1.94157,2.03162 -1.94157,5.88649 0,3.84184 1.94157,5.88649 1.94157,2.03161 5.59629,2.03161 1.85591,0 3.49768,-0.61209 1.65604,-0.61209 3.11221,-1.84929 v 2.74789 q -1.51328,0.93768 -3.21215,1.40651 -1.6846,0.46884 -3.56906,0.46884 -4.83964,0 -7.62351,-2.69581 -2.78386,-2.70882 -2.78386,-7.38415 0,-4.68836 2.78386,-7.38416 2.78387,-2.70883 7.62351,-2.70883 1.91302,0 3.59761,0.46884 1.69888,0.45581 3.1836,1.38046 z"
       style="font-style:normal;font-weight:normal;font-size:40px;line-height:125%;font-family:sans-serif;letter-spacing:0px;word-spacing:0px;fill:#ffffff;fill-opacity:1;stroke:#ffffff;stroke-width:0.69800001;stroke-linecap:butt;stroke-linejoin:miter;stroke-miterlimit:4;stroke-dasharray:none;stroke-opacity:1"
       id="path40-3"
       inkscape:connector-curvature="0" />
    <path
       d="m 238.86281,123.56449 -3.91168,9.67624 h 7.83765 z m -1.62749,-2.59162 h 3.26926 l 8.12318,19.44364 h -2.998 l -1.94157,-4.98788 h -9.60792 l -1.94157,4.98788 h -3.04083 z"
       style="font-style:normal;font-weight:normal;font-size:40px;line-height:125%;font-family:sans-serif;letter-spacing:0px;word-spacing:0px;fill:#ffffff;fill-opacity:1;stroke:#ffffff;stroke-width:0.69800001;stroke-linecap:butt;stroke-linejoin:miter;stroke-miterlimit:4;stroke-dasharray:none;stroke-opacity:1"
       id="path42-3"
       inkscape:connector-curvature="0" />
    <path
       d="m 277.21144,123.13472 v 15.11994 h 3.48341 q 4.41135,0 6.45285,-1.82325 2.05578,-1.82325 2.05578,-5.75625 0,-3.90696 -2.05578,-5.71719 -2.0415,-1.82325 -6.45285,-1.82325 z m -2.8838,-2.16185 h 5.92464 q 6.19589,0 9.09396,2.3572 2.89808,2.34418 2.89808,7.34509 0,5.02695 -2.91235,7.38415 -2.91235,2.3572 -9.07969,2.3572 h -5.92464 z"
       style="font-style:normal;font-weight:normal;font-size:40px;line-height:125%;font-family:sans-serif;letter-spacing:0px;word-spacing:0px;fill:#ffffff;fill-opacity:1;stroke:#ffffff;stroke-width:0.69800001;stroke-linecap:butt;stroke-linejoin:miter;stroke-miterlimit:4;stroke-dasharray:none;stroke-opacity:1"
       id="path44-6"
       inkscape:connector-curvature="0" />
    <path
       d="m 321.42893,120.97287 h 13.47677 v 2.21394 h -10.59297 v 5.75626 h 10.15041 v 2.21394 h -10.15041 v 7.04556 h 10.84994 v 2.21394 h -13.73374 z"
       style="font-style:normal;font-weight:normal;font-size:40px;line-height:125%;font-family:sans-serif;letter-spacing:0px;word-spacing:0px;fill:#ffffff;fill-opacity:1;stroke:#ffffff;stroke-width:0.69800001;stroke-linecap:butt;stroke-linejoin:miter;stroke-miterlimit:4;stroke-dasharray:none;stroke-opacity:1"
       id="path46-7"
       inkscape:connector-curvature="0" />
  </g>
</svg>
