<?xml version="1.0" encoding="utf-8"?>
<svg version="1.1" viewBox="0 0 3839 1187.1" xmlns="http://www.w3.org/2000/svg">
  <path class="st1" d="M 1675.8 317.6 L 1675.8 725.5 C 1675.8 763.6 1644.9 794.4 1606.9 794.4 L 1606.9 794.4 C 1568.8 794.4 1538 763.5 1538 725.5 L 1538 661.2 C 1538 651.8 1530.4 644.1 1520.9 644.1 L 1448.7 644.1 C 1439.3 644.1 1431.6 651.7 1431.6 661.2 L 1431.6 718 C 1431.6 814.8 1510 893.2 1606.8 893.2 L 1606.8 893.2 C 1703.6 893.2 1782 814.8 1782 718 L 1782 317.6 C 1782 308.2 1774.4 300.5 1764.9 300.5 L 1692.7 300.5 C 1683.5 300.6 1675.8 308.2 1675.8 317.6 Z" style="fill: rgb(255, 255, 255);"/>
  <path class="st1" d="M 2150.4 893.3 L 2221.7 893.3 C 2232.6 893.3 2240.7 883.2 2238.4 872.6 L 2115.4 314 C 2113.7 306.2 2106.7 300.6 2098.7 300.6 L 2018.8 300.6 L 2006.1 300.6 L 1926.2 300.6 C 1918.2 300.6 1911.3 306.2 1909.5 314 L 1786.5 872.6 C 1784.2 883.2 1792.3 893.3 1803.2 893.3 L 1874.5 893.3 C 1882.5 893.3 1889.4 887.7 1891.2 879.9 L 1942.7 646.4 L 2082.4 646.4 L 2133.9 879.9 C 2135.4 887.7 2142.4 893.3 2150.4 893.3 Z M 1964.5 547.6 L 2012.6 329.4 L 2060.7 547.6 L 1964.5 547.6 Z" style="fill: rgb(255, 255, 255);"/>
  <path class="st1" d="M 3040.9 382.3 L 3040.9 317.6 C 3040.9 308.2 3033.3 300.5 3023.8 300.5 L 2776.5 300.5 L 2687.3 300.5 C 2677.9 300.5 2670.2 308.1 2670.2 317.6 L 2670.2 399.3 L 2670.2 532.1 L 2670.2 630.9 L 2670.2 794.5 L 2670.2 876.2 C 2670.2 885.6 2677.8 893.3 2687.3 893.3 L 3023.8 893.3 C 3033.2 893.3 3040.9 885.7 3040.9 876.2 L 3040.9 811.5 C 3040.9 802.1 3033.3 794.4 3023.8 794.4 L 2776.5 794.4 L 2776.5 630.9 L 2978.1 630.9 C 2987.5 630.9 2995.2 623.3 2995.2 613.8 L 2995.2 549.1 C 2995.2 539.7 2987.6 532 2978.1 532 L 2776.5 532 L 2776.5 399.4 L 3023.8 399.4 C 3033.2 399.4 3040.9 391.7 3040.9 382.3 Z" style="fill: rgb(255, 255, 255);"/>
  <path class="st1" d="M 2378.1 794.5 L 2378.1 317.6 C 2378.1 308.2 2370.5 300.5 2361 300.5 L 2288.8 300.5 C 2279.4 300.5 2271.7 308.1 2271.7 317.6 L 2271.7 794.5 L 2271.7 876.2 C 2271.7 885.6 2279.4 893.3 2288.8 893.3 L 2625.3 893.3 C 2634.7 893.3 2642.4 885.7 2642.4 876.2 L 2642.4 811.5 C 2642.4 802.1 2634.8 794.4 2625.3 794.4 L 2378.1 794.5 L 2378.1 794.5 Z" style="fill: rgb(255, 255, 255);"/>
  <path class="st1" d="M 3644.8 293.9 C 3630.4 293.9 3450.6 293.9 3450.6 521.1 L 3450.6 666 C 3450.6 893.2 3630.5 893.2 3644.8 893.2 C 3659.1 893.2 3839 893.2 3839 666 L 3839 521.2 C 3839 293.9 3659.1 293.9 3644.8 293.9 Z M 3730.2 646 C 3730.2 803.8 3649.9 803.8 3643.4 803.8 C 3636.9 803.8 3556.6 803.8 3556.6 646 L 3556.6 545.5 C 3556.6 387.7 3636.9 387.7 3643.4 387.7 C 3649.9 387.7 3730.2 387.7 3730.2 545.5 L 3730.2 646 Z" style="fill: rgb(255, 255, 255);"/>
  <path class="st1" d="M 3092.6 611.3 C 3112.5 610.8 3132.3 609.1 3152.1 607.4 L 3152.1 545.4 C 3152.1 387.6 3232.4 387.6 3238.9 387.6 C 3244.9 387.6 3314.9 387.6 3324.5 514.8 C 3325.2 523.6 3332.6 530.5 3341.5 530.5 L 3417.3 530.5 C 3426.7 530.5 3434.3 522.9 3434.3 513.4 C 3430.3 293.9 3254.3 293.9 3240.2 293.9 C 3225.8 293.9 3046 293.9 3046 521.1 L 3046 609.2 C 3061.4 610.4 3076.9 611.7 3092.6 611.3 Z" style="fill: rgb(255, 255, 255);"/>
  <path class="st1" d="M 3417.3 656.6 L 3341.5 656.6 C 3332.6 656.6 3325.2 663.4 3324.5 672.3 C 3314.8 799.4 3244.8 799.5 3238.9 799.5 C 3232.5 799.5 3152.1 799.5 3152.1 641.7 L 3152.1 607.4 L 3152.1 579.7 L 3152.1 545.4 C 3152.1 387.6 3232.4 387.6 3238.9 387.6 C 3244.9 387.6 3314.9 387.6 3324.5 514.8 C 3325.2 523.6 3332.6 530.5 3341.5 530.5 L 3417.3 530.5 C 3426.7 530.5 3434.3 522.9 3434.3 513.4 C 3430.3 293.9 3254.3 293.9 3240.2 293.9 C 3225.8 293.9 3046 293.9 3046 521.1 L 3046 577.9 L 3046 609.1 L 3046 665.9 C 3046 893.1 3225.9 893.1 3240.2 893.1 C 3254.4 893.1 3430.4 893.1 3434.3 673.6 C 3434.2 664.3 3426.7 656.6 3417.3 656.6 Z" style="fill: rgb(255, 255, 255);"/>
  <path class="st1" d="M 671.6 0 C 300.7 0 0 265.7 0 593.5 C 0 921.3 300.7 1187 671.6 1187 C 1042.5 1187 1343.2 921.3 1343.2 593.5 C 1343.2 265.7 1042.6 0 671.6 0 Z M 350.8 147.2 L 440.6 237 L 533.6 144 L 623.4 233.8 L 716.4 140.8 L 806.2 230.6 L 899.2 137.6 L 1085.4 323.8 L 992.4 416.8 L 902.6 327 L 809.6 420 L 719.8 330.2 L 626.8 423.2 L 537 333.4 L 444 426.4 L 257.8 240.2 L 350.8 147.2 Z M 992.3 1040 L 902.5 950.2 L 809.5 1043.2 L 719.7 953.4 L 626.7 1046.4 L 537 956.6 L 444 1049.6 L 257.9 863.3 L 350.9 770.3 L 440.7 860.1 L 533.7 767.1 L 623.5 856.9 L 716.5 763.9 L 806.3 853.7 L 899.3 760.7 L 1085.3 947 L 992.3 1040 Z M 1085.2 635.4 L 992.2 728.4 L 902.4 638.6 L 809.4 731.6 L 719.6 642 L 626.6 735 L 537 645.1 L 444 738.1 L 354.2 648.3 L 261.2 741.3 L 75.1 555 L 168.1 462 L 257.9 551.8 L 350.9 458.8 L 440.7 548.6 L 533.7 455.6 L 623.5 545.2 L 716.5 452.2 L 806.3 542 L 899.3 449 L 989.1 538.8 L 1082.1 445.8 L 1268 632.2 L 1175 725.2 L 1085.2 635.4 Z" style="fill: rgb(255, 255, 255);"/>
</svg>