<?xml version="1.0" encoding="UTF-8" standalone="no"?>
<svg
   xmlns:dc="http://purl.org/dc/elements/1.1/"
   xmlns:cc="http://creativecommons.org/ns#"
   xmlns:rdf="http://www.w3.org/1999/02/22-rdf-syntax-ns#"
   xmlns:svg="http://www.w3.org/2000/svg"
   xmlns="http://www.w3.org/2000/svg"
   xmlns:sodipodi="http://sodipodi.sourceforge.net/DTD/sodipodi-0.dtd"
   xmlns:inkscape="http://www.inkscape.org/namespaces/inkscape"
   version="1.1"
   id="svg95"
   sodipodi:docname="Kaneko.svg"
   inkscape:version="0.92.5 (2060ec1f9f, 2020-04-08)">
  <metadata
     id="metadata101">
    <rdf:RDF>
      <cc:Work
         rdf:about="">
        <dc:format>image/svg+xml</dc:format>
        <dc:type
           rdf:resource="http://purl.org/dc/dcmitype/StillImage" />
        <dc:title>mainlogo</dc:title>
      </cc:Work>
    </rdf:RDF>
  </metadata>
  <defs
     id="defs99">
    <clipPath
       clipPathUnits="userSpaceOnUse"
       id="clipPath909">
      <g
         style="fill:#aa8800;stroke:none"
         id="use911"
         inkscape:label="Clip">
        <g
           id="g1939"
           transform="matrix(2.0794317,0,0,2.0794317,186.00321,-131.99158)"
           style="fill:#aa8800;stroke:none">
          <path
             d="m -146.65192,109.06017 v 4.30384 h -1.16463 v -4.30384 h -1.77166 v -0.88128 h 4.77092 v 0.88128 z"
             style="font-style:normal;font-variant:normal;font-weight:normal;font-stretch:normal;font-size:medium;line-height:1.25;font-family:Eurostile;-inkscape-font-specification:Eurostile;letter-spacing:0px;word-spacing:0px;fill:#aa8800;fill-opacity:1;stroke:none;stroke-width:0.35733205;stroke-miterlimit:4;stroke-dasharray:none;stroke-opacity:1"
             id="path1925"
             inkscape:connector-curvature="0" />
          <path
             d="m -141.67415,108.13331 q 1.67275,0 2.15389,0.47103 0.48114,0.46723 0.48114,2.09684 0,1.78155 -0.48564,2.24498 -0.48114,0.46344 -2.33824,0.46344 -1.67275,0 -2.16288,-0.45584 -0.49014,-0.45963 -0.49014,-2.01707 0,-1.85373 0.48114,-2.32856 0.48114,-0.47482 2.36073,-0.47482 z m -0.0899,0.84329 q -1.17362,0 -1.37147,0.25451 -0.19785,0.25451 -0.19785,1.76256 0,1.1168 0.22933,1.34471 0.23382,0.22792 1.36697,0.22792 1.08369,0 1.29953,-0.25451 0.21584,-0.2583 0.21584,-1.55743 0,-1.30293 -0.20685,-1.53845 -0.20235,-0.23931 -1.3355,-0.23931 z"
             style="font-style:normal;font-variant:normal;font-weight:normal;font-stretch:normal;font-size:medium;line-height:1.25;font-family:Eurostile;-inkscape-font-specification:Eurostile;letter-spacing:0px;word-spacing:0px;fill:#aa8800;fill-opacity:1;stroke:none;stroke-width:0.35733205;stroke-miterlimit:4;stroke-dasharray:none;stroke-opacity:1"
             id="path1927"
             inkscape:connector-curvature="0" />
          <path
             d="m -134.53799,112.36877 h -2.64852 l -0.38221,0.99524 h -1.23208 l 2.04147,-5.18512 h 1.74919 l 2.07294,5.18512 h -1.20959 z m -0.2698,-0.72554 -1.06121,-2.70082 -1.04322,2.70082 z"
             style="font-style:normal;font-variant:normal;font-weight:normal;font-stretch:normal;font-size:medium;line-height:1.25;font-family:Eurostile;-inkscape-font-specification:Eurostile;letter-spacing:0px;word-spacing:0px;fill:#aa8800;fill-opacity:1;stroke:none;stroke-width:0.35733205;stroke-miterlimit:4;stroke-dasharray:none;stroke-opacity:1"
             id="path1929"
             inkscape:connector-curvature="0" />
          <path
             d="m -132.40659,113.36401 v -5.18512 h 2.47314 0.30577 q 1.24557,0 1.67725,0.36847 0.43617,0.36466 0.43617,1.41309 0,1.04082 -0.41369,1.38269 -0.41369,0.34188 -1.67274,0.34188 l -0.2698,0.004 h -1.37148 v 1.67519 z m 1.16462,-2.50329 h 1.32651 q 0.79141,0 1.00275,-0.15195 0.21584,-0.15574 0.21584,-0.72933 0,-0.65716 -0.17987,-0.81291 -0.17537,-0.15954 -0.92181,-0.15954 h -1.44342 z"
             style="font-style:normal;font-variant:normal;font-weight:normal;font-stretch:normal;font-size:medium;line-height:1.25;font-family:Eurostile;-inkscape-font-specification:Eurostile;letter-spacing:0px;word-spacing:0px;fill:#aa8800;fill-opacity:1;stroke:none;stroke-width:0.35733205;stroke-miterlimit:4;stroke-dasharray:none;stroke-opacity:1"
             id="path1931"
             inkscape:connector-curvature="0" />
          <path
             d="m -125.61218,108.17889 v 4.30384 h 2.87784 v 0.88128 h -4.04247 v -5.18512 z"
             style="font-style:normal;font-variant:normal;font-weight:normal;font-stretch:normal;font-size:medium;line-height:1.25;font-family:Eurostile;-inkscape-font-specification:Eurostile;letter-spacing:0px;word-spacing:0px;fill:#aa8800;fill-opacity:1;stroke:none;stroke-width:0.35733205;stroke-miterlimit:4;stroke-dasharray:none;stroke-opacity:1"
             id="path1933"
             inkscape:connector-curvature="0" />
          <path
             d="m -117.78215,112.36877 h -2.64851 l -0.38222,0.99524 h -1.23208 l 2.04147,-5.18512 h 1.74919 l 2.07295,5.18512 h -1.20959 z m -0.2698,-0.72554 -1.0612,-2.70082 -1.04322,2.70082 z"
             style="font-style:normal;font-variant:normal;font-weight:normal;font-stretch:normal;font-size:medium;line-height:1.25;font-family:Eurostile;-inkscape-font-specification:Eurostile;letter-spacing:0px;word-spacing:0px;fill:#aa8800;fill-opacity:1;stroke:none;stroke-width:0.35733205;stroke-miterlimit:4;stroke-dasharray:none;stroke-opacity:1"
             id="path1935"
             inkscape:connector-curvature="0" />
          <path
             d="m -109.66276,108.17889 v 5.18512 h -1.97402 l -1.75368,-2.84517 q -0.1304,-0.21272 -0.4092,-0.74453 l -0.19785,-0.37226 -0.19335,-0.37227 h -0.045 l 0.018,0.34188 0.0135,0.33808 0.009,0.67995 v 2.97432 h -1.16463 v -5.18512 h 1.97403 l 1.5963,2.62865 q 0.21134,0.34947 0.49013,0.84709 l 0.23383,0.42165 0.23382,0.42544 h 0.0405 l -0.0135,-0.33428 -0.0135,-0.33427 -0.009,-0.66856 v -2.98572 z"
             style="font-style:normal;font-variant:normal;font-weight:normal;font-stretch:normal;font-size:medium;line-height:1.25;font-family:Eurostile;-inkscape-font-specification:Eurostile;letter-spacing:0px;word-spacing:0px;fill:#aa8800;fill-opacity:1;stroke:none;stroke-width:0.35733205;stroke-miterlimit:4;stroke-dasharray:none;stroke-opacity:1"
             id="path1937"
             inkscape:connector-curvature="0" />
        </g>
      </g>
    </clipPath>
    <linearGradient
       id="SVGID_2_"
       gradientUnits="userSpaceOnUse"
       x1="730.24628"
       y1="285.81149"
       x2="730.24628"
       y2="33.963799"
       gradientTransform="matrix(0.43499454,0,0,-0.43499454,9.1046148,160.45593)">
      <stop
         offset="0"
         style="stop-color:#ECEFEB"
         id="stop155" />
      <stop
         offset="0.1746"
         style="stop-color:#EAECE9"
         id="stop157" />
      <stop
         offset="0.2796"
         style="stop-color:#E1E4E0"
         id="stop159" />
      <stop
         offset="0.3661"
         style="stop-color:#D3D6D3"
         id="stop161" />
      <stop
         offset="0.4427"
         style="stop-color:#C0C1BF"
         id="stop163" />
      <stop
         offset="0.5127"
         style="stop-color:#A6A7A6"
         id="stop165" />
      <stop
         offset="0.5769"
         style="stop-color:#878787"
         id="stop167" />
      <stop
         offset="0.6"
         style="stop-color:#7A7A7A"
         id="stop169" />
      <stop
         offset="1"
         style="stop-color:#343732"
         id="stop171" />
    </linearGradient>
    <linearGradient
       id="SVGID_1_"
       gradientUnits="userSpaceOnUse"
       x1="954.83661"
       y1="279.914"
       x2="954.83661"
       y2="15.5362"
       gradientTransform="matrix(0.43499454,0,0,-0.43499454,9.1046148,160.45593)">
      <stop
         offset="0"
         style="stop-color:#ECEFEB"
         id="stop132" />
      <stop
         offset="0.1746"
         style="stop-color:#EAECE9"
         id="stop134" />
      <stop
         offset="0.2796"
         style="stop-color:#E1E4E0"
         id="stop136" />
      <stop
         offset="0.3661"
         style="stop-color:#D3D6D3"
         id="stop138" />
      <stop
         offset="0.4427"
         style="stop-color:#C0C1BF"
         id="stop140" />
      <stop
         offset="0.5127"
         style="stop-color:#A6A7A6"
         id="stop142" />
      <stop
         offset="0.5769"
         style="stop-color:#878787"
         id="stop144" />
      <stop
         offset="0.6"
         style="stop-color:#7A7A7A"
         id="stop146" />
      <stop
         offset="1"
         style="stop-color:#343732"
         id="stop148" />
    </linearGradient>
    <radialGradient
       id="SVGID_1_-3"
       cx="-19.067499"
       cy="480.04959"
       r="1"
       gradientTransform="matrix(-7.2191342,25.86842,25.86842,7.2191342,-12511.769,-2887.2055)"
       gradientUnits="userSpaceOnUse">
      <stop
         offset="1.562500e-02"
         style="stop-color:#FEFEFE"
         id="stop108" />
      <stop
         offset="1"
         style="stop-color:#0549A0"
         id="stop110" />
    </radialGradient>
  </defs>
  <sodipodi:namedview
     pagecolor="#ffffff"
     bordercolor="#666666"
     borderopacity="1"
     objecttolerance="10"
     gridtolerance="10"
     guidetolerance="10"
     inkscape:pageopacity="0"
     inkscape:pageshadow="2"
     inkscape:window-width="1366"
     inkscape:window-height="743"
     id="namedview97"
     showgrid="false"
     inkscape:pagecheckerboard="true"
     inkscape:zoom="1.3948125"
     inkscape:cx="209.35272"
     inkscape:cy="77.65914"
     inkscape:window-x="0"
     inkscape:window-y="0"
     inkscape:window-maximized="1"
     inkscape:current-layer="svg95" />
  <title
     id="title70">mainlogo</title>
  <g
     id="g6"
     style="line-height:125%;fill:#ffffff;stroke:#ffffff;stroke-width:5.77144432;stroke-miterlimit:4;stroke-dasharray:none;stroke-opacity:1"
     transform="matrix(0.81251972,0,0,0.81251972,-56.585293,-677.77081)">
    <path
       inkscape:connector-curvature="0"
       id="path4"
       word-spacing="0"
       letter-spacing="0"
       font-size="159.402"
       font-weight="400"
       d="m 108.246,940.261 35.219,-43.041 h 33.974 l -42.73,52.926 50.046,53.238 h -41.29 l -35.22,-37.632 z M 226.902,897.22 h 34.09 l 35.57,106.164 H 192.616 l 20.548,-66.314 h 26.775 l -10.663,41.757 h 28.058 z m 140.138,0 q 16.267,0 23.116,6.226 6.694,6.227 6.694,20.237 v 79.7 h -34.286 v -68.22 q 0,-6.382 -0.467,-8.445 -0.467,-1.906 -2.413,-2.568 -1.906,-0.467 -7.627,-0.467 H 335.79 v 79.7 H 304.073 V 897.22 Z m 113.908,39.85 v 26.463 h -43.042 v 13.388 h 43.042 v 26.463 H 406.19 V 937.07 Z M 406.19,897.22 h 74.758 v 26.463 H 406.19 Z m 82.814,43.041 35.219,-43.041 h 33.974 l -42.73,52.926 50.046,53.238 h -41.29 l -35.22,-37.632 z m 139.204,-13.698 q -9.574,0 -16.267,6.849 -6.85,7.005 -6.85,16.734 0,9.885 6.85,16.89 6.849,7.005 16.267,7.005 6.226,0 11.48,-3.347 5.254,-3.191 8.29,-8.6 2.879,-5.41 2.879,-11.948 0,-9.729 -6.538,-16.734 -6.538,-6.85 -16.111,-6.85 z m 0,-32.223 q 11.169,0 21.209,4.475 9.885,4.476 17.357,11.948 7.355,7.666 11.636,17.862 4.32,10.352 4.32,21.521 0,15.139 -7.356,28.059 -7.472,12.92 -20.08,20.392 -12.57,7.666 -27.086,7.666 -14.516,0 -27.242,-7.666 -12.764,-7.472 -20.12,-20.392 -7.472,-12.92 -7.472,-28.059 0,-11.169 4.32,-21.52 4.28,-10.197 11.792,-17.863 7.316,-7.472 17.512,-11.948 10.04,-4.475 21.21,-4.475 z"
       style="font-weight:400;font-size:159.4019928px;font-family:Stop;-inkscape-font-specification:Stop;letter-spacing:0;word-spacing:0;fill:#ffffff;stroke:#ffffff;stroke-width:5.77144432;stroke-miterlimit:4;stroke-dasharray:none;stroke-opacity:1" />
  </g>
  <path
     style="fill:#ffffff;stroke:#ffffff;stroke-width:4.68941212;stroke-miterlimit:4;stroke-dasharray:none"
     inkscape:connector-curvature="0"
     id="path8"
     d="M 3.7020567,52.387842 H 26.598057 V 136.40641 H 3.7020567 Z" />
  <path
     d="m 17.120577,195.84142 c -1.47975,0.69167 -3.00052,1.03646 -4.56442,1.03646 -1.50846,0 -2.9143203,-0.27721 -4.2216403,-0.82914 -1.30737,-0.55207 -2.43614,-1.30117 -3.39049,-2.24731 -0.95433,-0.94615 -1.70344,-2.0688 -2.24732,-3.36993 -0.54385,-1.30121 -0.81476,-2.7009 -0.81476,-4.19911 0,-1.49821 0.27707,-2.90406 0.82914,-4.21547 0.55416,-1.30941 1.30735,-2.43818 2.26168,-3.38432 0.95433,-0.94619 2.08311,-1.69525 3.39047,-2.24732 1.30735,-0.55206 2.7050003,-0.82918 4.1929203,-0.82918 1.60084,0 3.15651,0.35095 4.66292,1.05082 1.50847,0.69982 2.72959,1.6398 3.66342,2.82402 l -2.8035,2.86709 c -0.706,-0.90714 -1.5372,-1.6008 -2.48947,-2.08515 -0.95434,-0.48227 -1.96614,-0.72451 -3.03337,-0.72451 -0.89687,0 -1.74244,0.1744 -2.53258,0.51927 -0.7921903,0.34488 -1.4735903,0.81683 -2.0462003,1.41817 -0.57258,0.60131 -1.01999,1.31146 -1.34632,2.13032 -0.32426,0.81682 -0.48641,1.7096 -0.48641,2.67626 0,0.94614 0.16821,1.82864 0.50079,2.64546 0.33452,0.81891 0.79219,1.52285 1.37506,2.11392 0.58081,0.5931 1.26834,1.06101 2.0605403,1.40589 0.79015,0.34444 1.65419,0.51714 2.58799,0.51714 1.05081,0 2.03183,-0.22818 2.94923,-0.6793 0.91534,-0.45359 1.72601,-1.10418 2.43201,-1.9518 l 2.7173,2.77886 c -0.95433,1.16365 -2.16932,2.08927 -3.64699,2.77886 z m 53.838994,0.23816 c -1.297079,0.55211 -2.690617,0.8271 -4.178574,0.8271 -1.469471,0 -2.852749,-0.2746 -4.149829,-0.8271 -1.29708,-0.55211 -2.417643,-1.30737 -3.361736,-2.26371 -0.944062,-0.95638 -1.693161,-2.08927 -2.245254,-3.40077 -0.554124,-1.30937 -0.831194,-2.70489 -0.831194,-4.18258 0,-1.47977 0.277031,-2.87334 0.831194,-4.1848 0.552093,-1.31136 1.301192,-2.4443 2.245254,-3.40072 0.944093,-0.95638 2.064656,-1.70956 3.361736,-2.26163 1.29708,-0.55211 2.680358,-0.82918 4.149829,-0.82918 1.487957,0 2.881495,0.27677 4.178574,0.82918 1.29708,0.55207 2.417647,1.30525 3.361727,2.26163 0.944071,0.95642 1.693166,2.08936 2.247315,3.40072 0.552072,1.31146 0.829138,2.70503 0.829138,4.1848 0,1.47769 -0.277031,2.87321 -0.829138,4.18258 -0.554149,1.3115 -1.303244,2.44439 -2.247315,3.40077 -0.94408,0.95634 -2.064647,1.7116 -3.361727,2.26371 z m -4.178574,-3.10513 c -0.896872,0 -1.730118,-0.17265 -2.503849,-0.51723 -0.771679,-0.34705 -1.44074,-0.8189 -2.003084,-1.42021 -0.562349,-0.60135 -1.005651,-1.31557 -1.329915,-2.14476 -0.324274,-0.82706 -0.486402,-1.71363 -0.486402,-2.65973 0,-0.9667 0.162159,-1.85949 0.486402,-2.67631 0.324273,-0.81886 0.767566,-1.52896 1.329915,-2.13031 0.562344,-0.60135 1.231405,-1.07338 2.003084,-1.41817 0.773731,-0.34705 1.606977,-0.51927 2.503849,-0.51927 0.896882,0 1.736292,0.17266 2.518226,0.51927 0.781939,0.34488 1.455104,0.81682 2.017448,1.41817 0.562344,0.60135 1.005655,1.31145 1.32992,2.13031 0.324273,0.81682 0.486401,1.70961 0.486401,2.67631 0,0.9461 -0.162159,1.83267 -0.486401,2.65973 -0.324274,0.82919 -0.767576,1.54341 -1.32992,2.14476 -0.562344,0.60131 -1.235509,1.07338 -2.017448,1.42021 -0.781934,0.34488 -1.621344,0.51723 -2.518226,0.51723 z m 62.895993,-0.17829 v 3.78655 H 114.56766 V 175.8828 h 4.14983 v 16.91336 z m 52.30794,3.78655 v -3.78655 H 171.02544 V 175.8828 h -4.14777 v 20.69991 z m 52.71023,-3.7273 v 3.72704 h -15.50953 v -20.69991 h 15.39461 v 3.725 h -11.24477 v 4.73066 h 7.41099 v 3.608 h -7.41099 v 4.90921 z m 46.01345,4.0226 c 1.56387,0 3.08466,-0.34445 4.56439,-1.03646 1.47769,-0.68959 2.69472,-1.61521 3.64701,-2.7789 l -2.71728,-2.77899 c -0.70602,0.84766 -1.51669,1.49825 -2.43203,1.9518 -0.91534,0.45151 -1.89842,0.6793 -2.94716,0.6793 -0.93586,0 -1.79786,-0.17266 -2.59006,-0.51715 -0.7922,-0.34487 -1.47973,-0.81278 -2.06055,-1.40589 -0.58286,-0.59106 -1.04054,-1.29501 -1.373,-2.11391 -0.33456,-0.81682 -0.50078,-1.69932 -0.50078,-2.64546 0,-0.96666 0.16216,-1.85945 0.48641,-2.67627 0.32428,-0.81886 0.77168,-1.52901 1.34428,-2.13031 0.5726,-0.60135 1.25397,-1.07342 2.04618,-1.41817 0.7922,-0.34444 1.6357,-0.51923 2.53259,-0.51923 1.0672,0 2.07902,0.2425 3.03336,0.72447 0.95432,0.48435 1.78347,1.17805 2.48948,2.08515 l 2.80351,-2.8671 c -0.93383,-1.18421 -2.15497,-2.12415 -3.6614,-2.82402 -1.50847,-0.69986 -3.06208,-1.05081 -4.66495,-1.05081 -1.48796,0 -2.88559,0.2772 -4.19294,0.82918 -1.30528,0.55207 -2.43612,1.30117 -3.39046,2.24731 -0.95433,0.94614 -1.70755,2.07492 -2.25961,3.38433 -0.55415,1.31141 -0.83121,2.71726 -0.83121,4.21547 0,1.4982 0.27295,2.89789 0.81682,4.19911 0.54388,1.30117 1.29093,2.42378 2.24527,3.36992 0.95433,0.94614 2.08517,1.69525 3.39047,2.24731 1.30734,0.55211 2.71522,0.82914 4.22166,0.82914 z m 54.88365,-17.21095 v 16.91539 h -4.14984 v -16.91539 h -6.75219 v -3.78465 h 17.62754 v 3.78452 z m 47.53012,16.91544 v -20.69991 h -4.14985 v 20.69991 z m 51.96519,-0.50288 c -1.29709,0.55211 -2.69058,0.82715 -4.17855,0.82715 -1.46745,0 -2.8507,-0.27504 -4.14778,-0.82715 -1.29708,-0.55202 -2.41969,-1.30728 -3.36375,-2.26366 -0.9441,-0.95642 -1.69321,-2.08928 -2.24529,-3.40073 -0.55412,-1.30941 -0.82913,-2.70498 -0.82913,-4.18262 0,-1.47977 0.27499,-2.8733 0.82913,-4.18476 0.55208,-1.3114 1.30119,-2.44434 2.24529,-3.40077 0.94406,-0.95637 2.06667,-1.7096 3.36375,-2.26167 1.29708,-0.55206 2.68033,-0.82914 4.14778,-0.82914 1.48797,0 2.88146,0.27677 4.17855,0.82914 1.29709,0.55207 2.41767,1.3053 3.36173,2.26167 0.94406,0.95643 1.6932,2.08937 2.24731,3.40077 0.55207,1.31146 0.82914,2.70499 0.82914,4.18476 0,1.47764 -0.27677,2.87321 -0.82914,4.18262 -0.55411,1.31145 -1.30325,2.44431 -2.24731,3.40073 -0.94406,0.95638 -2.06464,1.71164 -3.36173,2.26366 z m -4.17855,-3.10512 c -0.89686,0 -1.73012,-0.17266 -2.50386,-0.51719 -0.77167,-0.34705 -1.43868,-0.81891 -2.00309,-1.42021 -0.56233,-0.60135 -1.00564,-1.31557 -1.3299,-2.14472 -0.32436,-0.8271 -0.48641,-1.71372 -0.48641,-2.65977 0,-0.96671 0.16216,-1.85949 0.48641,-2.67631 0.32436,-0.8189 0.76757,-1.52896 1.3299,-2.13036 0.56441,-0.6013 1.23142,-1.07333 2.00309,-1.41817 0.77374,-0.34704 1.607,-0.51922 2.50386,-0.51922 0.89682,0 1.73629,0.17265 2.51819,0.51922 0.78198,0.34488 1.45513,0.81687 2.01747,1.41817 0.56235,0.6014 1.0077,1.31146 1.33197,2.13036 0.32449,0.81682 0.48639,1.7096 0.48639,2.67631 0,0.94605 -0.16224,1.83267 -0.48639,2.65977 -0.32449,0.82915 -0.76962,1.54337 -1.33197,2.14472 -0.56234,0.6013 -1.23549,1.07338 -2.01747,1.42021 -0.7819,0.34488 -1.62137,0.51719 -2.51819,0.51719 z m 51.70868,-10.23303 v 13.84103 h -3.91996 v -20.69991 h 3.94868 l 9.95798,13.39567 v -13.39567 h 3.89124 v 20.69991 h -3.66344 z"
     id="path40"
     inkscape:connector-curvature="0"
     style="clip-rule:evenodd;fill:#ffffff;fill-rule:evenodd;stroke-width:2.05233884" />
</svg>
