<?xml version="1.0" encoding="utf-8"?>
<svg xmlns="http://www.w3.org/2000/svg">
  <path d="M 63.098 45.537 L 82.932 45.537 C 91.04 45.537 97.636 38.939 97.636 30.833 C 97.636 22.729 91.04 16.17 82.932 16.17 L 77.761 16.17 C 77.354 16.17 77.026 15.845 77.026 15.437 C 77.026 14.989 77.352 14.664 77.761 14.664 L 97.556 14.664 L 97.597 8.472 L 77.761 8.472 C 73.931 8.472 70.836 11.568 70.836 15.397 C 70.836 19.267 73.931 22.403 77.761 22.403 L 82.932 22.403 C 87.576 22.403 91.365 26.192 91.365 30.834 C 91.365 35.478 87.576 39.225 82.932 39.225 L 63.098 39.225 L 63.098 45.537 L 63.098 45.537 Z" id="path5" style="fill-opacity: 1; fill: rgb(255, 255, 255);"/>
  <path d="M 63.098 37.799 L 82.932 37.799 C 86.802 37.799 89.899 34.662 89.899 30.833 C 89.899 27.005 86.803 23.869 82.932 23.869 L 77.761 23.869 C 73.118 23.869 69.37 20.04 69.37 15.396 C 69.37 10.753 73.118 7.007 77.761 7.007 L 97.596 7.007 L 97.555 0.734 L 77.759 0.734 C 69.654 0.734 63.096 7.291 63.096 15.437 C 63.096 23.543 69.654 30.1 77.759 30.1 L 82.891 30.1 C 83.298 30.1 83.625 30.427 83.625 30.833 C 83.625 31.241 83.298 31.566 82.891 31.566 L 63.096 31.566 L 63.098 37.799 L 63.098 37.799 Z" id="path7" style="fill-opacity: 1; fill: rgb(255, 255, 255);"/>
  <path d="M 112.992 39.265 C 109.572 39.265 106.762 36.536 106.762 33.033 L 106.762 13.115 C 106.762 9.776 109.572 6.965 112.992 6.965 L 134.173 6.965 L 134.173 0.734 L 112.992 0.734 C 106.11 0.734 100.529 6.314 100.529 13.197 L 100.529 33.033 C 100.529 39.917 106.109 45.497 112.992 45.497 L 134.092 45.497 L 134.092 39.266 L 112.992 39.265 L 112.992 39.265 Z" id="path9" style="fill-opacity: 1; fill: rgb(255, 255, 255);"/>
  <path d="M 108.267 13.196 C 108.267 10.59 110.385 8.43 112.992 8.43 L 134.173 8.43 L 134.173 14.663 L 115.926 14.663 C 114.458 14.663 114.458 16.129 114.458 16.129 L 129.692 16.129 L 129.692 22.361 L 108.267 22.361 L 108.267 13.196 L 108.267 13.196 Z" id="path11" style="fill-opacity: 1; fill: rgb(255, 255, 255);"/>
  <path d="M 112.992 37.759 C 110.385 37.759 108.267 35.64 108.267 33.033 L 108.267 23.867 L 129.691 23.867 L 129.691 30.099 L 114.458 30.099 C 114.458 31.566 115.924 31.566 115.924 31.566 L 134.09 31.566 L 134.09 37.757 L 112.992 37.759 L 112.992 37.759 Z" id="path13" style="fill-opacity: 1; fill: rgb(255, 255, 255);"/>
  <path d="M 149.039 39.265 C 145.578 39.265 142.766 36.453 142.766 33.033 L 142.766 13.197 C 142.766 9.776 145.578 6.965 148.999 6.965 L 169.528 6.965 L 169.528 0.734 L 148.958 0.734 C 142.074 0.734 136.495 6.314 136.495 13.197 L 136.495 33.033 C 136.495 39.917 142.114 45.497 148.999 45.497 L 169.528 45.497 L 169.528 16.13 L 151.891 16.13 L 151.891 22.362 L 163.296 22.362 L 163.296 39.265 L 149.039 39.265 L 149.039 39.265 Z" id="path15" style="fill-opacity: 1; fill: rgb(255, 255, 255);"/>
  <path d="M 144.231 33.033 C 144.231 35.639 146.392 37.799 148.998 37.799 L 161.828 37.799 L 161.828 23.828 L 151.89 23.828 L 151.89 30.1 L 155.597 30.1 L 155.597 31.566 L 151.932 31.566 C 151.116 31.566 150.465 30.876 150.465 30.1 L 150.465 16.13 C 150.465 16.13 150.465 14.663 151.932 14.663 L 169.527 14.663 L 169.527 8.43 L 148.998 8.43 C 146.392 8.43 144.232 10.589 144.232 13.196 L 144.231 33.033 L 144.231 33.033 Z" id="path17" style="fill-opacity: 1; fill: rgb(255, 255, 255);"/>
  <path d="M 188.793 8.351 C 189.077 7.536 189.811 6.966 190.707 6.966 C 191.603 6.966 192.338 7.537 192.623 8.351 L 202.561 37.84 L 188.022 37.84 L 188.022 30.915 L 192.91 30.915 L 190.71 24.357 L 183.54 45.497 L 176.209 45.497 L 188.793 8.351 L 188.793 8.351 Z" id="path19" style="fill-opacity: 1; fill: rgb(255, 255, 255);"/>
  <path d="M 204.597 39.265 L 188.019 39.265 L 188.019 45.496 L 213.232 45.496 L 200.116 6.598 C 198.975 2.811 195.187 0 190.706 0 C 186.227 0 182.439 2.77 181.298 6.598 L 168.058 45.496 L 174.657 45.496 L 187.486 7.658 C 188.016 6.395 189.237 5.54 190.703 5.54 C 192.13 5.54 193.353 6.395 193.882 7.658 L 204.597 39.265 L 204.597 39.265 Z" id="path21" style="fill-opacity: 1; fill: rgb(255, 255, 255);"/>
  <path id="path6717" d="M 43.152 86.145 L 27.761 86.145 L 27.761 84.402 C 28.318 84.388 29.034 84.329 29.909 84.229 C 30.786 84.132 31.386 83.993 31.714 83.811 C 32.222 83.502 32.594 83.147 32.831 82.744 C 33.069 82.342 33.187 81.84 33.187 81.234 L 33.187 55.904 L 32.819 55.904 L 20.938 85.58 L 19.712 85.58 L 8.395 55.29 L 8.077 55.29 L 8.077 76.08 C 8.077 78.092 8.203 79.623 8.457 80.67 C 8.711 81.718 9.099 82.47 9.624 82.927 C 9.984 83.269 10.727 83.6 11.856 83.912 C 12.985 84.222 13.722 84.387 14.066 84.4 L 14.066 86.143 L 0 86.143 L 0 84.4 C 0.737 84.336 1.509 84.213 2.32 84.034 C 3.129 83.854 3.755 83.585 4.198 83.224 C 4.77 82.768 5.163 82.063 5.376 81.113 C 5.59 80.166 5.694 78.577 5.694 76.351 L 5.694 58.53 C 5.694 57.499 5.572 56.657 5.327 56.003 C 5.082 55.349 4.73 54.817 4.272 54.408 C 3.765 53.965 3.142 53.639 2.406 53.425 C 1.669 53.214 0.942 53.091 0.222 53.057 L 0.222 51.315 L 12.103 51.315 L 22.067 77.431 L 30.585 55.585 C 30.896 54.786 31.163 53.947 31.383 53.069 C 31.604 52.194 31.724 51.608 31.74 51.315 L 43.104 51.315 L 43.104 53.057 C 42.646 53.074 42.06 53.148 41.349 53.278 C 40.638 53.411 40.117 53.533 39.79 53.646 C 39.235 53.841 38.857 54.171 38.66 54.629 C 38.464 55.086 38.366 55.585 38.366 56.125 L 38.366 81.235 C 38.366 81.808 38.464 82.29 38.66 82.683 C 38.857 83.075 39.233 83.42 39.79 83.712 C 40.086 83.878 40.609 84.029 41.362 84.168 C 42.114 84.305 42.712 84.386 43.153 84.399 L 43.153 86.144 L 43.152 86.144 L 43.152 86.145 Z" style="fill-opacity: 1; fill: rgb(255, 255, 255);"/>
  <path id="path6719" d="M 64.936 85.702 C 64.168 85.983 63.493 86.206 62.911 86.378 C 62.33 86.55 61.672 86.635 60.936 86.635 C 59.658 86.635 58.641 86.339 57.879 85.74 C 57.118 85.144 56.632 84.273 56.419 83.127 L 56.271 83.127 C 55.208 84.303 54.066 85.206 52.847 85.826 C 51.627 86.449 50.158 86.758 48.44 86.758 C 46.624 86.758 45.131 86.206 43.961 85.089 C 42.791 83.978 42.207 82.521 42.207 80.72 C 42.207 79.787 42.338 78.951 42.6 78.216 C 42.861 77.479 43.255 76.817 43.777 76.228 C 44.187 75.74 44.727 75.302 45.397 74.915 C 46.069 74.532 46.698 74.226 47.287 73.995 C 48.025 73.718 49.518 73.201 51.767 72.448 C 54.017 71.698 55.534 71.108 56.32 70.682 L 56.32 68.252 C 56.32 68.039 56.276 67.63 56.184 67.025 C 56.094 66.42 55.903 65.846 55.608 65.306 C 55.28 64.703 54.819 64.174 54.22 63.723 C 53.624 63.275 52.777 63.048 51.681 63.048 C 50.927 63.048 50.229 63.176 49.582 63.429 C 48.935 63.685 48.481 63.949 48.22 64.227 C 48.22 64.556 48.298 65.036 48.454 65.674 C 48.609 66.312 48.687 66.902 48.687 67.441 C 48.687 68.015 48.428 68.538 47.912 69.011 C 47.398 69.49 46.681 69.723 45.765 69.723 C 44.948 69.723 44.346 69.436 43.96 68.853 C 43.577 68.274 43.385 67.623 43.385 66.901 C 43.385 66.15 43.65 65.429 44.182 64.741 C 44.715 64.054 45.405 63.441 46.257 62.901 C 46.994 62.445 47.886 62.053 48.932 61.735 C 49.98 61.415 51.002 61.256 52.001 61.256 C 53.376 61.256 54.573 61.35 55.597 61.538 C 56.62 61.728 57.548 62.131 58.383 62.753 C 59.217 63.36 59.851 64.182 60.285 65.219 C 60.718 66.26 60.936 67.596 60.936 69.233 C 60.936 71.573 60.91 73.647 60.862 75.454 C 60.812 77.263 60.79 79.24 60.79 81.383 C 60.79 82.021 60.9 82.53 61.12 82.907 C 61.341 83.284 61.681 83.603 62.139 83.862 C 62.385 84.011 62.773 84.092 63.305 84.108 C 63.837 84.124 64.381 84.134 64.937 84.134 L 64.937 85.702 L 64.936 85.702 Z M 56.37 72.742 C 54.979 73.152 53.761 73.55 52.713 73.945 C 51.665 74.337 50.692 74.827 49.793 75.418 C 48.974 75.974 48.328 76.632 47.853 77.392 C 47.379 78.153 47.141 79.06 47.141 80.105 C 47.141 81.464 47.496 82.461 48.209 83.099 C 48.921 83.736 49.824 84.057 50.92 84.057 C 52.083 84.057 53.105 83.774 53.989 83.209 C 54.872 82.644 55.618 81.981 56.222 81.208 L 56.37 72.742 Z" style="fill-opacity: 1; fill: rgb(255, 255, 255);"/>
  <path id="path6721" d="M 78.106 74.289 C 78.777 74.878 79.292 75.558 79.653 76.324 C 80.013 77.096 80.193 78.037 80.193 79.147 C 80.193 81.391 79.353 83.223 77.678 84.646 C 76 86.069 73.827 86.782 71.16 86.782 C 69.752 86.782 68.455 86.527 67.269 86.02 C 66.082 85.513 65.235 85.048 64.728 84.621 L 64.238 86.217 L 62.397 86.217 L 62.152 77.796 L 63.845 77.796 C 63.976 78.434 64.254 79.181 64.679 80.028 C 65.105 80.88 65.621 81.647 66.226 82.335 C 66.864 83.057 67.629 83.662 68.521 84.153 C 69.413 84.642 70.416 84.89 71.528 84.89 C 73.099 84.89 74.311 84.534 75.162 83.821 C 76.012 83.11 76.439 82.091 76.439 80.764 C 76.439 80.076 76.304 79.487 76.034 78.986 C 75.764 78.488 75.366 78.052 74.843 77.672 C 74.303 77.296 73.64 76.958 72.854 76.654 C 72.069 76.352 71.194 76.052 70.228 75.757 C 69.458 75.529 68.604 75.215 67.663 74.812 C 66.722 74.41 65.916 73.939 65.245 73.4 C 64.525 72.829 63.936 72.123 63.477 71.29 C 63.019 70.455 62.79 69.473 62.79 68.344 C 62.79 66.364 63.526 64.688 64.999 63.312 C 66.473 61.937 68.444 61.249 70.915 61.249 C 71.863 61.249 72.833 61.372 73.824 61.616 C 74.813 61.863 75.619 62.156 76.241 62.499 L 76.806 61.223 L 78.573 61.223 L 78.941 69.003 L 77.248 69.003 C 76.905 67.269 76.163 65.858 75.026 64.768 C 73.888 63.681 72.501 63.136 70.865 63.136 C 69.524 63.136 68.467 63.474 67.698 64.144 C 66.928 64.817 66.545 65.627 66.545 66.575 C 66.545 67.311 66.671 67.925 66.925 68.415 C 67.179 68.907 67.558 69.322 68.067 69.668 C 68.556 69.996 69.175 70.303 69.92 70.588 C 70.665 70.874 71.584 71.2 72.682 71.557 C 73.762 71.9 74.781 72.303 75.738 72.76 C 76.695 73.226 77.483 73.734 78.106 74.289 Z" style="fill-opacity: 1; fill: rgb(255, 255, 255);"/>
  <path id="path6723" d="M 93.558 85.088 C 92.494 85.531 91.488 85.904 90.539 86.205 C 89.59 86.509 88.428 86.659 87.053 86.659 C 85.024 86.659 83.596 86.15 82.77 85.126 C 81.943 84.103 81.53 82.658 81.53 80.795 L 81.53 64.398 L 77.16 64.398 L 77.16 62.041 L 81.628 62.041 L 81.628 54.505 L 86.096 54.505 L 86.096 62.041 L 93.042 62.041 L 93.042 64.398 L 86.145 64.398 L 86.145 77.922 C 86.145 78.938 86.181 79.785 86.256 80.465 C 86.329 81.143 86.505 81.74 86.783 82.243 C 87.044 82.718 87.438 83.078 87.961 83.323 C 88.484 83.568 89.188 83.691 90.072 83.691 C 90.48 83.691 91.081 83.654 91.876 83.578 C 92.67 83.505 93.23 83.413 93.558 83.296 L 93.558 85.088 L 93.558 85.088 Z" style="fill-opacity: 1; fill: rgb(255, 255, 255);"/>
  <path id="path6725" d="M 112.275 80.45 C 111.26 82.382 109.902 83.919 108.2 85.064 C 106.498 86.211 104.542 86.781 102.333 86.781 C 100.387 86.781 98.681 86.438 97.214 85.751 C 95.751 85.064 94.545 84.131 93.594 82.953 C 92.646 81.776 91.937 80.402 91.471 78.831 C 91.004 77.259 90.772 75.602 90.772 73.849 C 90.772 72.278 91.021 70.735 91.52 69.221 C 92.02 67.71 92.752 66.346 93.717 65.135 C 94.65 63.975 95.807 63.037 97.191 62.324 C 98.573 61.611 100.125 61.256 101.842 61.256 C 103.609 61.256 105.123 61.537 106.382 62.091 C 107.643 62.648 108.665 63.408 109.451 64.372 C 110.204 65.292 110.764 66.372 111.133 67.614 C 111.5 68.857 111.685 70.208 111.685 71.663 L 111.685 73.283 L 95.657 73.283 C 95.657 74.872 95.808 76.312 96.11 77.605 C 96.414 78.898 96.892 80.034 97.546 81.017 C 98.183 81.967 99.018 82.715 100.05 83.263 C 101.08 83.813 102.308 84.083 103.732 84.083 C 105.188 84.083 106.443 83.744 107.499 83.063 C 108.556 82.388 109.574 81.162 110.555 79.396 L 112.275 80.45 Z M 106.85 71.221 C 106.85 70.305 106.772 69.323 106.617 68.276 C 106.461 67.228 106.212 66.354 105.868 65.649 C 105.493 64.897 104.977 64.286 104.321 63.808 C 103.668 63.335 102.824 63.097 101.794 63.097 C 100.074 63.097 98.647 63.812 97.51 65.246 C 96.373 66.678 95.755 68.669 95.657 71.221 L 106.85 71.221 L 106.85 71.221 Z" style="fill-opacity: 1; fill: rgb(255, 255, 255);"/>
  <path id="path6727" d="M 128.438 65.059 C 128.438 65.893 128.234 66.634 127.825 67.28 C 127.416 67.929 126.787 68.249 125.936 68.249 C 125.018 68.249 124.319 68.012 123.835 67.536 C 123.354 67.064 123.112 66.539 123.112 65.967 C 123.112 65.607 123.14 65.28 123.197 64.985 C 123.255 64.689 123.308 64.394 123.357 64.101 C 122.588 64.101 121.687 64.412 120.657 65.034 C 119.626 65.657 118.751 66.539 118.03 67.684 L 118.03 81.773 C 118.03 82.349 118.142 82.814 118.362 83.174 C 118.582 83.536 118.93 83.805 119.405 83.985 C 119.814 84.148 120.342 84.271 120.988 84.35 C 121.634 84.435 122.194 84.49 122.67 84.523 L 122.67 86.143 L 109.906 86.143 L 109.906 84.523 C 110.282 84.491 110.671 84.46 111.071 84.426 C 111.472 84.395 111.82 84.33 112.115 84.228 C 112.572 84.081 112.913 83.824 113.133 83.457 C 113.354 83.089 113.465 82.609 113.465 82.021 L 113.465 67.073 C 113.465 66.566 113.346 66.065 113.109 65.576 C 112.871 65.084 112.539 64.692 112.114 64.398 C 111.804 64.2 111.437 64.06 111.01 63.968 C 110.584 63.879 110.126 63.818 109.636 63.785 L 109.636 62.189 L 117.686 61.648 L 118.029 61.992 L 118.029 65.404 L 118.151 65.404 C 119.168 64.078 120.297 63.072 121.539 62.385 C 122.784 61.697 123.921 61.354 124.951 61.354 C 125.983 61.354 126.821 61.691 127.468 62.361 C 128.116 63.031 128.438 63.93 128.438 65.059 L 128.438 65.059 Z" style="fill-opacity: 1; fill: rgb(255, 255, 255);"/>
  <path id="path6729" d="M 154.581 70.166 C 155.316 70.986 155.859 71.88 156.211 72.854 C 156.565 73.828 156.741 74.962 156.741 76.253 C 156.741 79.332 155.602 81.869 153.329 83.863 C 151.054 85.862 148.232 86.857 144.86 86.857 C 143.305 86.857 141.752 86.618 140.197 86.134 C 138.643 85.653 137.3 85.066 136.171 84.38 L 135.116 86.172 L 133.154 86.172 L 132.81 74.243 L 134.798 74.243 C 135.208 75.714 135.686 77.046 136.235 78.231 C 136.784 79.42 137.507 80.525 138.407 81.558 C 139.258 82.524 140.252 83.292 141.388 83.865 C 142.526 84.439 143.847 84.724 145.351 84.724 C 146.481 84.724 147.465 84.577 148.31 84.282 C 149.152 83.986 149.837 83.567 150.359 83.029 C 150.882 82.489 151.269 81.856 151.525 81.128 C 151.78 80.401 151.906 79.561 151.906 78.61 C 151.906 77.224 151.515 75.923 150.73 74.72 C 149.945 73.516 148.775 72.605 147.219 71.983 C 146.155 71.557 144.936 71.086 143.561 70.572 C 142.188 70.057 141.001 69.57 140.003 69.11 C 138.039 68.227 136.513 67.069 135.424 65.637 C 134.336 64.206 133.793 62.335 133.793 60.027 C 133.793 58.703 134.063 57.468 134.602 56.321 C 135.142 55.176 135.911 54.152 136.91 53.252 C 137.858 52.403 138.98 51.734 140.272 51.251 C 141.565 50.769 142.916 50.528 144.322 50.528 C 145.926 50.528 147.361 50.772 148.63 51.265 C 149.897 51.755 151.057 52.329 152.103 52.981 L 153.11 51.312 L 155.074 51.312 L 155.271 62.872 L 153.284 62.872 C 152.925 61.547 152.519 60.282 152.068 59.066 C 151.619 57.857 151.035 56.759 150.314 55.778 C 149.611 54.831 148.751 54.071 147.737 53.506 C 146.722 52.943 145.478 52.659 144.007 52.659 C 142.454 52.659 141.126 53.16 140.03 54.156 C 138.934 55.157 138.385 56.375 138.385 57.813 C 138.385 59.32 138.736 60.567 139.44 61.558 C 140.144 62.548 141.168 63.361 142.509 63.999 C 143.703 64.572 144.876 65.066 146.029 65.482 C 147.183 65.901 148.3 66.348 149.38 66.821 C 150.363 67.247 151.306 67.73 152.214 68.27 C 153.119 68.816 153.908 69.445 154.581 70.166 L 154.581 70.166 Z" style="fill-opacity: 1; fill: rgb(255, 255, 255);"/>
  <path id="path6731" d="M 153.391 94.049 C 153.391 93.231 153.614 92.564 154.066 92.047 C 154.515 91.531 155.074 91.274 155.747 91.274 C 156.27 91.274 156.719 91.37 157.098 91.569 C 157.473 91.766 157.809 92.021 158.104 92.329 C 158.349 92.573 158.613 92.91 158.889 93.335 C 159.168 93.762 159.389 94.114 159.551 94.391 C 160.371 93.949 161.348 92.795 162.487 90.931 C 163.622 89.065 164.448 87.432 164.952 86.02 C 163.396 82.144 161.991 78.675 160.73 75.613 C 159.47 72.553 158.153 69.387 156.779 66.113 C 156.468 65.362 155.943 64.774 155.207 64.357 C 154.472 63.939 153.735 63.675 152.998 63.559 L 152.998 61.939 L 164.044 61.939 L 164.044 63.657 C 163.552 63.673 162.965 63.777 162.276 63.963 C 161.589 64.153 161.246 64.368 161.246 64.614 C 161.246 64.712 161.283 64.876 161.357 65.104 C 161.431 65.335 161.515 65.572 161.616 65.816 C 162.238 67.436 163.185 69.773 164.463 72.824 C 165.741 75.879 166.73 78.318 167.432 80.152 C 168.17 78.4 168.935 76.59 169.727 74.716 C 170.522 72.842 171.412 70.63 172.392 68.076 C 172.506 67.767 172.673 67.338 172.881 66.788 C 173.093 66.24 173.202 65.769 173.202 65.377 C 173.202 64.953 172.831 64.555 172.085 64.186 C 171.34 63.819 170.633 63.593 169.961 63.51 L 169.961 61.94 L 178.945 61.94 L 178.945 63.463 C 178.453 63.547 177.805 63.827 177.005 64.31 C 176.202 64.794 175.605 65.476 175.212 66.358 C 173.264 70.876 171.531 74.991 170.02 78.705 C 168.506 82.421 167.358 85.153 166.573 86.903 C 165.541 89.197 164.621 90.982 163.811 92.267 C 163.001 93.553 162.21 94.561 161.441 95.297 C 160.688 95.986 160.005 96.449 159.394 96.686 C 158.781 96.921 158.143 97.041 157.493 97.041 C 156.216 97.041 155.214 96.739 154.485 96.135 C 153.754 95.532 153.391 94.834 153.391 94.049 L 153.391 94.049 Z" style="fill-opacity: 1; fill: rgb(255, 255, 255);"/>
  <path id="path6733" d="M 190.738 74.289 C 191.407 74.878 191.924 75.558 192.284 76.324 C 192.645 77.096 192.824 78.037 192.824 79.147 C 192.824 81.391 191.984 83.223 190.31 84.646 C 188.63 86.069 186.459 86.782 183.791 86.782 C 182.385 86.782 181.086 86.527 179.902 86.02 C 178.714 85.513 177.867 85.048 177.36 84.621 L 176.869 86.217 L 175.028 86.217 L 174.783 77.796 L 176.476 77.796 C 176.605 78.434 176.884 79.181 177.311 80.028 C 177.737 80.88 178.252 81.647 178.859 82.335 C 179.495 83.057 180.26 83.662 181.153 84.153 C 182.044 84.642 183.046 84.89 184.159 84.89 C 185.729 84.89 186.942 84.534 187.792 83.821 C 188.641 83.11 189.069 82.091 189.069 80.764 C 189.069 80.076 188.933 79.487 188.663 78.986 C 188.393 78.488 187.995 78.052 187.472 77.672 C 186.933 77.296 186.27 76.958 185.486 76.654 C 184.7 76.352 183.823 76.052 182.858 75.757 C 182.087 75.529 181.232 75.215 180.293 74.812 C 179.349 74.41 178.546 73.939 177.874 73.4 C 177.156 72.829 176.564 72.123 176.106 71.29 C 175.647 70.455 175.419 69.473 175.419 68.344 C 175.419 66.364 176.157 64.688 177.63 63.312 C 179.104 61.937 181.072 61.249 183.545 61.249 C 184.493 61.249 185.464 61.372 186.453 61.616 C 187.442 61.863 188.25 62.156 188.872 62.499 L 189.438 61.223 L 191.204 61.223 L 191.572 69.003 L 189.878 69.003 C 189.535 67.269 188.793 65.858 187.659 64.768 C 186.52 63.681 185.135 63.136 183.497 63.136 C 182.155 63.136 181.098 63.474 180.33 64.144 C 179.56 64.817 179.177 65.627 179.177 66.575 C 179.177 67.311 179.303 67.925 179.557 68.415 C 179.811 68.907 180.191 69.322 180.698 69.668 C 181.19 69.996 181.81 70.303 182.553 70.588 C 183.295 70.874 184.217 71.2 185.314 71.557 C 186.396 71.9 187.414 72.303 188.372 72.76 C 189.326 73.226 190.115 73.734 190.738 74.289 L 190.738 74.289 Z" style="fill-opacity: 1; fill: rgb(255, 255, 255);"/>
  <path id="path6735" d="M 206.189 85.088 C 205.126 85.531 204.12 85.904 203.168 86.205 C 202.221 86.509 201.061 86.659 199.685 86.659 C 197.656 86.659 196.228 86.15 195.401 85.126 C 194.575 84.103 194.161 82.658 194.161 80.795 L 194.161 64.398 L 189.793 64.398 L 189.793 62.041 L 194.258 62.041 L 194.258 54.505 L 198.727 54.505 L 198.727 62.041 L 205.674 62.041 L 205.674 64.398 L 198.775 64.398 L 198.775 77.922 C 198.775 78.938 198.813 79.785 198.887 80.465 C 198.96 81.144 199.137 81.74 199.417 82.243 C 199.676 82.718 200.072 83.078 200.592 83.323 C 201.115 83.568 201.819 83.691 202.702 83.691 C 203.111 83.691 203.712 83.654 204.507 83.578 C 205.3 83.505 205.861 83.413 206.188 83.296 L 206.189 85.088 L 206.189 85.088 Z" style="fill-opacity: 1; fill: rgb(255, 255, 255);"/>
  <path id="path6737" d="M 224.906 80.45 C 223.892 82.382 222.534 83.919 220.831 85.064 C 219.129 86.211 217.173 86.781 214.964 86.781 C 213.021 86.781 211.313 86.438 209.847 85.751 C 208.382 85.064 207.177 84.131 206.224 82.953 C 205.278 81.776 204.567 80.402 204.101 78.831 C 203.634 77.259 203.403 75.602 203.403 73.849 C 203.403 72.278 203.654 70.735 204.151 69.221 C 204.65 67.71 205.383 66.346 206.348 65.135 C 207.28 63.975 208.438 63.037 209.821 62.324 C 211.203 61.611 212.755 61.256 214.471 61.256 C 216.24 61.256 217.752 61.537 219.012 62.091 C 220.272 62.648 221.294 63.408 222.08 64.372 C 222.834 65.292 223.393 66.372 223.762 67.614 C 224.128 68.857 224.313 70.208 224.313 71.663 L 224.313 73.283 L 208.286 73.283 C 208.286 74.872 208.439 76.312 208.74 77.605 C 209.041 78.898 209.519 80.034 210.177 81.017 C 210.812 81.967 211.651 82.715 212.679 83.263 C 213.709 83.813 214.936 84.083 216.362 84.083 C 217.819 84.083 219.072 83.744 220.13 83.063 C 221.185 82.388 222.204 81.162 223.188 79.396 L 224.906 80.45 Z M 219.48 71.221 C 219.48 70.305 219.403 69.323 219.248 68.276 C 219.094 67.228 218.842 66.354 218.499 65.649 C 218.124 64.897 217.609 64.286 216.953 63.808 C 216.297 63.335 215.455 63.097 214.423 63.097 C 212.707 63.097 211.277 63.812 210.14 65.246 C 209.004 66.678 208.386 68.669 208.287 71.221 L 219.48 71.221 L 219.48 71.221 Z" style="fill-opacity: 1; fill: rgb(255, 255, 255);"/>
  <path id="path6739" d="M 263.996 86.145 L 252.189 86.145 L 252.189 84.523 C 252.566 84.492 252.946 84.46 253.331 84.427 C 253.715 84.396 254.053 84.33 254.348 84.23 C 254.806 84.082 255.146 83.824 255.367 83.457 C 255.589 83.09 255.7 82.609 255.7 82.022 L 255.7 69.528 C 255.7 67.827 255.31 66.513 254.532 65.588 C 253.754 64.664 252.787 64.202 251.625 64.202 C 250.824 64.202 250.07 64.323 249.367 64.569 C 248.663 64.814 248.017 65.157 247.429 65.6 C 246.952 65.961 246.556 66.348 246.235 66.766 C 245.917 67.183 245.675 67.532 245.51 67.808 L 245.51 81.774 C 245.51 82.35 245.61 82.819 245.807 83.186 C 246.004 83.553 246.338 83.838 246.814 84.034 C 247.19 84.181 247.53 84.292 247.833 84.365 C 248.134 84.438 248.531 84.492 249.022 84.524 L 249.022 86.144 L 237.464 86.144 L 237.464 84.524 C 237.842 84.492 238.202 84.46 238.556 84.427 C 238.906 84.396 239.231 84.33 239.523 84.228 C 239.982 84.081 240.321 83.824 240.542 83.456 C 240.764 83.089 240.876 82.609 240.876 82.02 L 240.876 69.526 C 240.876 67.825 240.486 66.512 239.707 65.587 C 238.931 64.663 237.96 64.2 236.801 64.2 C 235.999 64.2 235.244 64.327 234.541 64.581 C 233.838 64.838 233.191 65.184 232.602 65.625 C 232.128 65.986 231.727 66.391 231.4 66.84 C 231.073 67.293 230.828 67.631 230.662 67.859 L 230.662 81.727 C 230.662 82.284 230.778 82.752 231.007 83.127 C 231.236 83.505 231.578 83.79 232.035 83.987 C 232.378 84.152 232.732 84.272 233.09 84.353 C 233.453 84.437 233.851 84.493 234.293 84.527 L 234.293 86.148 L 222.534 86.148 L 222.534 84.527 C 222.911 84.495 223.299 84.463 223.702 84.429 C 224.102 84.399 224.448 84.332 224.745 84.232 C 225.203 84.085 225.544 83.827 225.762 83.458 C 225.983 83.092 226.093 82.613 226.093 82.023 L 226.093 66.977 C 226.093 66.454 225.978 65.982 225.738 65.566 C 225.5 65.147 225.169 64.791 224.745 64.496 C 224.433 64.299 224.05 64.141 223.592 64.018 C 223.134 63.895 222.659 63.819 222.168 63.784 L 222.168 62.19 L 230.27 61.649 L 230.613 61.992 L 230.613 65.453 L 230.785 65.453 C 231.194 65.046 231.693 64.561 232.282 64.004 C 232.874 63.451 233.42 62.997 233.928 62.655 C 234.5 62.264 235.217 61.937 236.078 61.673 C 236.936 61.413 237.865 61.281 238.863 61.281 C 240.433 61.281 241.782 61.702 242.913 62.543 C 244.044 63.387 244.854 64.406 245.342 65.6 C 245.933 65.029 246.452 64.526 246.902 64.091 C 247.351 63.658 247.945 63.196 248.681 62.704 C 249.304 62.279 250.034 61.935 250.878 61.673 C 251.72 61.413 252.656 61.281 253.689 61.281 C 255.734 61.281 257.354 61.955 258.55 63.293 C 259.743 64.636 260.341 66.699 260.341 69.48 L 260.341 81.778 C 260.341 82.351 260.438 82.819 260.638 83.189 C 260.835 83.555 261.168 83.842 261.644 84.035 C 262.022 84.183 262.392 84.293 262.76 84.367 C 263.129 84.44 263.541 84.494 264 84.526 L 264 86.147 L 263.997 86.147 L 263.997 86.145 Z" style="fill-opacity: 1; fill: rgb(255, 255, 255);"/>
</svg>