<svg id="Warstwa_1" data-name="Warstwa 1" xmlns="http://www.w3.org/2000/svg" viewBox="0 0 226.58 85.6"><title>sega32x</title><path d="M-83.28,184.19c2-3,3.79-5.75,5.62-8.5,4-6,8-12,12-18.06a6,6,0,0,1,5.39-3c3.71.05,7.42,0,11.27,0v2.74l.22.23c2.36-3.29,5.78-3.05,9.15-3,3.8.05,7.6,0,11.4.05.35,0,.7,0,1.12.07v29.35H-37.9v-21.2a2.49,2.49,0,0,0-2.67,1.1c-.69.88-1.29,1.83-1.89,2.77-3.61,5.56-7.2,11.14-10.83,16.69a1.61,1.61,0,0,1-1.07.74c-3.43,0-6.87,0-10.31,0a2.34,2.34,0,0,1-.54-.22l14-21.32-.13-.39a33.89,33.89,0,0,0-5.16.44,4.27,4.27,0,0,0-2.24,1.81c-4.15,6.21-8.23,12.47-12.3,18.73a1.79,1.79,0,0,1-1.73,1C-76.2,184.16-79.6,184.19-83.28,184.19Z" transform="translate(83.28 -154.62)" fill="white"/><path d="M68.31,231.81a9.07,9.07,0,0,1-.2-1.27c0-2.67,0-5.35,0-8,0-.8-.19-1.16-1.06-1.14-1.82,0-3.65,0-5.66,0,0,1.29,0,2.39,0,3.49,0,.35-.36,1-.57,1-2.06.07-4.13,0-6.3,0v-3.66c0-3.6,0-7.2,0-10.8,0-1.07.34-1.41,1.34-1.39,1.6,0,3.2,0,4.79.06.29,0,.75.54.78.86.1,1,0,2.07,0,3.45h4.17c2.53,0,2.53,0,2.53-2.56,0-2.08,0-4.16,0-6.24,0-.94-.26-1.27-1.2-1.26-5.55.09-11.11.14-16.66.2h-.63c.3-.35.46-.56.65-.74,7.16-6.62,15.15-11.9,24.57-14.71,3.71-1.11,7.51-1.74,11.36-.83a32.52,32.52,0,0,1,4.07,1.57l.17.52a13.71,13.71,0,0,0-1.22.9Q80.11,199.58,71,207.92a1.75,1.75,0,0,0-.55,2.16L92.5,194l.45.47a5.79,5.79,0,0,0-1.12.63q-9.92,9-19.8,18a27,27,0,0,0-2,2.17l.38.38,22-15.3.25.28c-.33.25-.69.48-1,.76q-10.34,9.21-20.66,18.46a7.09,7.09,0,0,0-1,1.63l.39.32,19.69-14.12.21.21c-.36.38-.68.78-1.07,1.13q-9.09,8.28-18.19,16.55a7.86,7.86,0,0,0-1,1.29l.38.38q6.39-4.62,12.76-9.26l.22.24a59.12,59.12,0,0,1-4.08,4.28c-3.47,3-7.06,5.89-10.59,8.82a5.67,5.67,0,0,0-.5.48Z" transform="translate(83.28 -154.62)" fill="white"/><path d="M38.55,178.17v-5.68H31.46c1.47-2.19,2.76-4.14,4.08-6.06a.84.84,0,0,1,.62-.25H48.58v18c-.43,0-.85.08-1.27.08H17.44c-.48,0-1,0-1.43-.07-2.49-.09-3-.67-3-3.2,0-5.28-.05-10.55,0-15.83a4.4,4.4,0,0,1,.68-2.19c1.52-2.4,3.16-4.72,4.71-7.09a2.34,2.34,0,0,1,2.07-1.19H46.21a4.07,4.07,0,0,1,.51.07v5.86H25.85c-1.75,0-2.5.7-2.53,2.54-.05,4,0,8-.05,12a11,11,0,0,0,.05,2.15c.06.33.55.82.85.82C28.92,178.18,33.68,178.17,38.55,178.17Z" transform="translate(83.28 -154.62)" fill="white"/><path d="M-23.8,183.93c0-.49-.06-.92-.06-1.35,0-5.8,0-11.6,0-17.4a4.32,4.32,0,0,1,.62-2.1c1.49-2.42,3.09-4.76,4.63-7.15a2.27,2.27,0,0,1,2-1.25c8.52,0,17,0,25.55,0a5.15,5.15,0,0,1,.56.06v5.87h-20a2,2,0,0,0-2.07,1.84c-.07,1.18,0,2.38,0,3.69H9.67c-1.4,2.12-2.64,4.06-4,5.93-.2.29-.83.39-1.27.4-5.11,0-10.23,0-15.35,0h-1.52v5.65h22v5.78Z" transform="translate(83.28 -154.62)" fill="white"/><path d="M62.66,173.44v10.64c-.39,0-.74.07-1.08.07-2.56,0-5.12,0-7.68,0-1,0-1.42-.29-1.39-1.36.08-2.35.05-4.71.06-7.07v-21c.4,0,.75-.08,1.09-.08,5.76,0,11.52,0,17.28,0a2,2,0,0,1,1.82.89l20.13,28.05a3.48,3.48,0,0,1,.28.54c-2.36,0-4.6-.16-6.8,0a4.2,4.2,0,0,1-4.58-2.3c-.73-1.31-1.56-2.9-2.77-3.52s-3-.18-4.49-.19c-2.36,0-4.72,0-7.07,0a2.13,2.13,0,0,1-1.36-.69c-1.11-1.34-2.12-2.76-3.18-4.15Zm11.84-1.06a1.85,1.85,0,0,0-.17-.42c-2.63-3.6-5.25-7.21-7.91-10.8a1.3,1.3,0,0,0-.85-.5c-.9-.07-1.81,0-2.8,0v11.75Z" transform="translate(83.28 -154.62)" fill="white"/><path d="M87.19,219.46c1.47-1.35,2.81-2.61,4.18-3.82,5-4.48,10.11-9,15.21-13.41a2.4,2.4,0,0,0,.84-2.75L84.75,216.07l-.21-.25c.23-.24.45-.49.69-.71Q96,205.38,106.8,195.67a1.87,1.87,0,0,0,.63-2.16L85,209.62l-.24-.26c.52-.5,1-1,1.56-1.48q10.23-9,20.44-18a6.57,6.57,0,0,0,1-1.65l-.46-.41L87.53,202.07l-.25-.24a18.9,18.9,0,0,1,1.57-1.77q8.93-7.83,17.86-15.65a7.15,7.15,0,0,0,1.06-1.63l-.46-.41-12.65,9.4c.61-2.21,10.45-11.09,14.76-13.43v3.51c0,7.4,0,14.8,0,22.2,0,1.13.28,1.51,1.46,1.5,4.92-.07,9.84,0,14.76,0,.72,0,1.43-.07,2.22-.11a2.62,2.62,0,0,1-.38.56c-7.42,6.89-15.69,12.37-25.57,15.07-3.5,1-7.06,1.47-10.66.53A7.86,7.86,0,0,1,87.19,219.46Z" transform="translate(83.28 -154.62)" fill="white"/><path d="M68.31,231.81c-.82.48-1.65.94-2.47,1.43-5.21,3.11-10.63,5.75-16.69,6.68a26.12,26.12,0,0,1-6.67.15c-5.53-.63-8.57-4.64-8-10.22a25,25,0,0,1,2.36-8.38,51.75,51.75,0,0,1,9.92-14.12c0,.46.12.75.12,1,0,5.68,0,11.36,0,17a11.9,11.9,0,0,0,.21,2.38,4.67,4.67,0,0,0,4.77,3.88H66.89c.47,0,1,.09,1.42.13Z" transform="translate(83.28 -154.62)" fill="white"/><path d="M131.14,202.39v-4.81c0-4.68,0-9.36,0-14,0-3.54-2-5.46-5.54-5.46H110c.1-.21.12-.34.19-.38,5.72-3.69,11.74-6.71,18.54-7.78a22.46,22.46,0,0,1,6-.18c6.18.68,9.26,4.81,8.46,11a27.35,27.35,0,0,1-2.87,8.85A53.79,53.79,0,0,1,131.14,202.39Z" transform="translate(83.28 -154.62)" fill="white"/><path d="M116.86,191.75c0-2.19.06-4.39,0-6.58,0-1.14.38-1.45,1.44-1.38a21.52,21.52,0,0,0,3.59,0c1-.1,1.33.31,1.33,1.27,0,3.91,0,7.82,0,11.73,0,3,0,3-3,3-3.32,0-3.32,0-3.32-3.37v-4.67Z" transform="translate(83.28 -154.62)" fill="white"/></svg>