<?xml version="1.0" encoding="utf-8"?>
<!-- Made by Szalik  -->
<svg version="1.1" id="Warstwa_1" xmlns="http://www.w3.org/2000/svg" xmlns:xlink="http://www.w3.org/1999/xlink" x="0px" y="0px" xml:space="preserve">
<style type="text/css">
	.st0{fill:#FFFFFF;}
</style>
<g>
	<g>
		<path d="M104.6,276c-4.12,0-8.11,0-12.47,0c3.43-9.1,5.71-18.44,9.56-27.29c1.84-4.23,2.85-8.81,4.33-13.2
			c1.09-3.21,2.24-6.4,3.56-9.52c0.61-1.44,1.69-2.67,2.48-3.88c11.42,0,22.54,0,33.94,0c0,2.39-0.11,4.7,0.02,6.99
			c0.27,4.86-0.81,9.8,0.92,14.61c0.42,1.17,0.06,2.61,0.06,3.98c-1.09,0.7-2.11,1.37-3.46,2.24c1.24,0.84,2.2,1.5,3.29,2.24
			c0,7.78,0,15.56,0,23.59c-2.74,0-5.64,0-8.43,0c-0.4-1.35-0.9-2.68-1.15-4.05c-0.23-1.28-0.61-2.77-0.17-3.87
			c1.43-3.64,1.36-7.09,0-10.73c-0.49-1.32-0.08-2.97-0.08-4.68c0.98-0.72,2.06-1.51,3.64-2.67c-0.97-0.37-1.51-0.49-1.95-0.77
			c-0.54-0.35-1.01-0.82-1.65-1.37c0-4.02,0-8.14,0-12.4c-1.85,1.51-3.39,3.43-3.94,6.35c-0.5,2.66-1.65,4.99-2.42,7.44
			c-0.84,0-1.51,0-2.18,0c-0.3,1.61-0.3,1.61,1.46,2.43c-2.78,7.99-5.57,15.99-8.48,24.34c-3.09,0-6.66,0-10.28,0
			c3.09-8.21,6.16-16.37,9.26-24.61c0.3-0.08,0.75-0.2,1.31-0.34c0.23-5.36,2.71-10.13,4.33-15.47c-2.22-0.73-4.49-0.14-6.62-0.38
			c-2.39,4.51-2.68,9.72-5.51,13.8c-1.13,0.19-2.04,0.35-3.6,0.62c1,0.9,1.58,1.43,2.64,2.39c-0.2,3.88-2.89,7.5-4.05,11.59
			C107.77,267.51,106.16,271.54,104.6,276z" fill="white"/>
		<path d="M394.18,255.09c-3.63,0-6.75,0-10.03,0c0,6.87,0,13.65,0,20.67c-3.73,0-7.29,0-11.15,0c0-6.27,0-12.56,0-18.85
			c0-4-0.08-7.99,0.04-11.99c0.05-1.88-0.28-3.71,0.8-5.67c0.71-1.29-0.11-3.45-0.31-5.21c-0.11-0.93-0.79-2.07-0.45-2.74
			c1.47-2.92,0.68-6.04,0.99-9.17c2.93,0,5.71,0,8.84,0c0,6.81,0,13.72,0,20.74c4.12,0,7.91,0,12.04,0c0-6.87,0-13.77,0-20.77
			c3.46,0,6.58,0,9.87,0c0,17.92,0,35.81,0,53.8c-3.57,0-7.02,0-10.64,0C394.18,269.08,394.18,262.3,394.18,255.09z" fill="white"/>
		<path d="M314.53,222.15c7.04,0,14.15,0,21.65,0c-1.92,3.84-0.88,7.76-1.26,11.71c-5.22,0-10.34,0-15.72,0
			c-1.69,3.28-3.37,6.54-5.15,9.98c6.89,0,13.67,0,20.32,0c1.78,2.06-0.56,3.31-0.62,5c-0.8,0.09-1.58,0.18-2.89,0.33
			c0.82,0.93,1.49,1.68,2.43,2.74c-0.45,0.99-0.97,2.1-1.42,3.08c-5.36,0-10.35,0-15.4,0c-0.42,0.46-0.88,0.94-1.36,1.46
			c0,3.38,0,6.83,0,10.44c7.22,0,14.33,0,21.66,0c0,3.06,0,5.96,0,8.98c-10.81,0-21.58,0-32.83,0c0.47-12.73-0.97-25.54,1.22-38.22
			C308.73,232.94,309.95,226.78,314.53,222.15z" fill="white"/>
		<path d="M160.09,254.83c0,3.96,0,7.41,0,11.02c6.87,0,13.64,0,20.66,0c0,3.39,0,6.62,0,10c-10.07,0-20.18,0-30.65,0
			c0.16-4.19-0.91-8.53,0.83-13.03c-0.27-0.95-2.11-2.17,0.16-3.41c-1.1-2.54-1.94-5.05-0.35-7.76c0.44-0.75,0.55-2.07,0.2-2.85
			c-2.73-6.11,0.28-11.36,2.48-16.66c1.41-3.41,3.3-6.61,5.05-10.05c7.28,0,14.72,0,22.35,0c0,3.81,0,7.59,0,11.66
			c-5.99,1.02-12.48-1.03-18.57,1.6c-0.79,2.66-1.63,5.44-2.59,8.67c7.09,0,13.66,0,20.45,0c-0.53,1.83-0.83,3.34-1.43,4.73
			c-0.3,0.68-1.16,1.11-1.74,1.63c0.45,0.5,0.77,0.87,1.16,1.31c-0.43,0.98-0.86,1.96-1.37,3.13
			C171.4,254.83,165.96,254.83,160.09,254.83z" fill="white"/>
		<path d="M230.19,235.05c0,4.5,0,8.95,0,13.47c-0.72,0.25-1.29,0.45-2.01,0.7c-0.07,0.38-0.15,0.83-0.26,1.39
			c0.63,0.22,1.21,0.42,1.93,0.67c0,8.06,0,16.17,0,24.51c-3.14,0-6.37,0-9.73,0c0-7.8,0-15.57,0-23.54
			c0.89-0.6,1.91-1.27,3.28-2.19c-1.24-0.89-2.3-1.65-3.28-2.35c0.31-1.84,0.82-3.53,0.84-5.22c0.1-6.66,0.04-13.31,0.04-20.33
			c2.56-0.34,5.18-0.09,7.77-0.14c2.64-0.05,5.28-0.01,8.04-0.01c3.39,8.55,6.73,16.99,10.1,25.51c-0.6,0.64-1.24,1.33-2,2.14
			c1.22,0.78,2.42,1.54,3.52,2.23c2.85,7.95,5.66,15.77,8.61,23.98c-1.76,0.05-3.51,0.11-5.26,0.14c-1.81,0.02-3.62,0.01-5.55,0.01
			c-1.01-3.34-1.99-6.58-2.99-9.85c-3.19,0-5.98,0-8.75,0c-0.82-3.33-1.61-6.49-2.47-9.98c2.2,0,4.43,0,7.14,0
			c-0.25-1.88-0.45-3.35-0.66-4.93c0.34-0.21,1.03-0.65,2.39-1.51c-4.38-1.15-5.08-4.25-5.89-7.28
			C234.22,239.54,233.27,236.71,230.19,235.05z" fill="white"/>
		<path d="M184.91,246.87c0.4-0.59,0.75-1.11,1.21-1.79c-0.34-0.59-0.73-1.25-1.09-1.86c2.13-7.31,4.99-14.29,8.35-21.11
			c7.1,0,14.22,0,21.48,0c0,3.89,0,7.67,0,11.68c-5.35,0-10.79,0-15.95,0c-3.25,2.28-2.5,6.36-4.9,8.75c0,2.65-0.74,5.62,0.2,7.89
			c1.03,2.5,0.58,4.8,0.75,7.17c0.2,2.64,0.04,5.31,0.04,8.46c2.29-0.11,4.76,0.35,6.71-0.46c2.34-0.97,4.55-0.13,7.13-0.78
			c0.05-1.37,0.13-2.96,0.16-4.56c0.03-1.64,0.01-3.29,0.01-5.1c-2.28,0-4.41,0-6.98,0c1.19-2.5,1.84-4.88,5.03-5.38
			c-0.36-0.48-0.61-0.8-0.75-0.99c1.13-1.09,2.28-2.19,3.99-3.83c1.27,0.29,3.38,0.76,5.6,1.26c0,0.85,0,1.64,0,2.46
			c-0.58,0.22-1.15,0.45-2.13,0.83c0.56,0.66,1.04,1.22,2.01,2.37c0,7.07,0,14.97,0,22.86c-0.37,0.37-0.72,0.72-1.17,1.17
			c-9.68,0-19.47,0-29.6,0c0-3.33,0-6.61,0-9.9c0-3.33,0.45-6.74-0.13-9.97C184.31,252.87,187.48,249.89,184.91,246.87z" fill="white"/>
		<path d="M348.49,222.01c6.65,0,13.3,0,19.96,0c1.78,3.69,1.78,3.69,1.33,11.87c-5.76,0-11.54,0-17.24,0
			c-0.57,1.13-1.01,2.11-1.54,3.05c-1.42,2.54-2.39,5.15-2.04,8.16c0.12,1.05,0.48,2.3-0.69,3.21c-0.27,0.21-0.39,0.98-0.23,1.35
			c2.16,5.22,0.24,10.71,1.16,16.02c1.5,1.09,3.34-0.16,5.12,0.87c1.14,0.66,3.2-0.4,4.86-0.52c1.66-0.12,3.33-0.03,4.99-0.03
			c1.82,0,3.63,0,5.35,0c0.45,0.45,0.81,0.81,1.33,1.33c0,2.6,0,5.39,0,8.42c-10.38,0-20.94,0-31.83,0c0-5.02,0-10.14,0-15.25
			c0-7.15-0.02-14.31,0.02-21.46c0.01-1.09-0.14-2.11,0.59-3.25c2.51-3.91,4.74-8.01,7.14-12
			C347.17,223.1,347.9,222.6,348.49,222.01z" fill="white"/>
		<path d="M266.1,234.18c0-4.31,0-8.09,0-12.03c11.88,0,23.66,0,35.67,0c0,3.78,0,7.69,0,11.77c-3.46,0-6.91,0-10.77,0
			c0,3.44,0.08,6.72-0.04,10c-0.06,1.55,0.76,3.33-0.93,4.63c-0.24,0.19-0.2,1.04-0.01,1.44c1.94,4.08,0.71,8.4,0.92,12.59
			c0.22,4.31,0.05,8.65,0.05,13.2c-3.94,0-7.85,0-12,0c0-7.65-0.75-15.38,0.23-22.88c0.81-6.24,0.32-12.37,0.85-18.72
			C275.41,234.18,270.96,234.18,266.1,234.18z" fill="white"/>
		<path d="M272.92,246.14c0,3.3,0,6.41,0,9.68c-4.82,0-9.58,0-14.49,0c-2.13-2.42-1.26-5.52-1.45-8.31
			c0.52-0.52,0.88-0.88,1.37-1.37C262.97,246.14,267.73,246.14,272.92,246.14z" fill="white"/>
	</g>
</g>
</svg>
