<svg id="Warstwa_1" data-name="Warstwa 1" xmlns="http://www.w3.org/2000/svg" viewBox="0 0 263.18 64.78"><title>megadrive</title><path d="M282,256.06V239.23H270.77V233h17.54v24l.3.06c.42-1.2.86-2.4,1.27-3.61q5.06-14.91,10.11-29.82a10,10,0,0,1,19,.07q6.27,18.62,12.56,37.22c.15.45.28.9.44,1.44H306.86v-6.16h16.5c-.69-2-1.31-3.91-1.95-5.79L312.8,225a3.4,3.4,0,0,0-4.5-2.39,3.76,3.76,0,0,0-2.26,2.62l-8.46,25.08c-1.36,4-2.73,8-4.11,12.09H268.4c-7.5,0-12.85-4.88-13.08-12.37-.21-7-.16-13.92.05-20.87a12.11,12.11,0,0,1,11.74-11.58c6.88-.15,13.76,0,20.64,0a3.16,3.16,0,0,1,.52.08v6.17H268.4c-4.19,0-6.81,2.62-6.81,6.81v19a6.29,6.29,0,0,0,6.56,6.57h12.72C281.22,256.13,281.57,256.09,282,256.06Z" transform="translate(-119.3 -216.81)" fill="white"/><path d="M182,254.71v-6.26h18.6a2.3,2.3,0,0,0,.95,0,4.2,4.2,0,0,0,.85-.79c-.29-.21-.57-.59-.87-.6-1.64-.06-3.28,0-4.92,0a14.7,14.7,0,0,1-6.1-28.08,15.09,15.09,0,0,1,5.54-1.32c6.59-.16,13.19-.06,19.79-.06a5,5,0,0,1,.55.06v6.19c-.46,0-.93.08-1.39.08-6.11,0-12.23,0-18.35,0a8.38,8.38,0,0,0-2.06,16.51,35,35,0,0,0,5.72.32,18.26,18.26,0,0,1,3.33.27,7,7,0,0,1-1.75,13.72c-4.28.08-8.56,0-12.84,0Z" transform="translate(-119.3 -216.81)" fill="white"/><path d="M182,262.4v-6.34h1.47c6.12,0,12.24,0,18.36,0a8.36,8.36,0,0,0,1.57-16.57,46.23,46.23,0,0,0-6.46-.17,6.91,6.91,0,0,1-5.9-2.88,6.77,6.77,0,0,1-.71-7.15,6.43,6.43,0,0,1,6-4c6.59-.11,13.19,0,19.79,0a1.27,1.27,0,0,1,.3.11v6.15H197.6a3.15,3.15,0,0,0-1.07.05,1.16,1.16,0,0,0-.61.73c0,.16.34.56.57.6a10.69,10.69,0,0,0,1.79.1c2.79,0,5.58-.18,8.31.77a14.73,14.73,0,0,1,9.77,15.6c-1.06,7.4-6.74,12.82-13.91,13C195.66,262.52,188.86,262.4,182,262.4Z" transform="translate(-119.3 -216.81)" fill="white"/><path d="M252.93,217.53v6.26H232.41c-4.21,0-6.82,2.6-6.82,6.79v18.95a6.25,6.25,0,0,0,6.63,6.6h20.6v6.26H232a12.41,12.41,0,0,1-12.63-12.59q0-9.84,0-19.67A12.41,12.41,0,0,1,232,217.53h21Z" transform="translate(-119.3 -216.81)" fill="white"/><path d="M321.32,254.65H306.79v-4.46l-.25-.06c-.26.73-.53,1.45-.78,2.18-1,3.06-2.09,6.12-3.09,9.19a1.08,1.08,0,0,1-1.25.91c-2.11-.05-4.22,0-6.45,0,1.31-3.87,2.57-7.61,3.84-11.34q4.31-12.77,8.63-25.53a2.13,2.13,0,0,1,2-1.74,2.09,2.09,0,0,1,2.11,1.78c0,.11.09.22.13.33l5.79,17.26q1.74,5.17,3.47,10.33C321.09,253.86,321.19,254.24,321.32,254.65ZM309.5,241.28l-2.15,6.44h4.29C310.94,245.63,310.28,243.64,309.5,241.28Z" transform="translate(-119.3 -216.81)" fill="white"/><path d="M274.31,248.45V247h-3.53v-6.34h9.8v14c-.35,0-.66.07-1,.07-3.8,0-7.6,0-11.4,0-3.2,0-5.18-2-5.19-5.15q0-9.6,0-19.2c0-3.19,2-5.11,5.2-5.11h20v6.29H271.47c-1.85,0-2.19.33-2.2,2.15v12.59c0,1.64.51,2.15,2.14,2.17C272.33,248.46,273.24,248.45,274.31,248.45Z" transform="translate(-119.3 -216.81)" fill="white"/><path d="M252.93,225.39v6.15h-1.45c-5.43,0-10.87,0-16.3,0-.92,0-1.66.16-1.87,1.39h1.35c4.24,0,8.47,0,12.71,0,.91,0,1.18.27,1.15,1.16-.06,1.66,0,3.33,0,5.07H227.05v-6.58c0-.92,0-1.84,0-2.76a4.67,4.67,0,0,1,4.42-4.53c7,0,14.07,0,21.1,0A1.55,1.55,0,0,1,252.93,225.39Z" transform="translate(-119.3 -216.81)" fill="white"/><path d="M227.05,240.75H248.4v6.19h-15l-.22.33a5.14,5.14,0,0,0,1.14,1,3.27,3.27,0,0,0,1.41.16h17.07v6.22h-20.4c-3.52,0-5.39-1.88-5.39-5.41Z" transform="translate(-119.3 -216.81)" fill="white"/><path d="M184.94,270.53h6.38c0,1.6,0,3.14,0,4.68,0,2.15.37,2.53,2.49,2.53h9.47a2.74,2.74,0,0,0,1.39-.23c.4-.26.87-.83.82-1.21a1.48,1.48,0,0,0-1.13-.89c-2.11-.09-4.23,0-6.35-.05h-1.41V272.1c.4,0,.82-.05,1.24-.05h9.47c3.13,0,4.79,1.49,4.88,4.34a4.54,4.54,0,0,1-4.61,5c-2,.11-3.92.05-5.87.05-3.72,0-7.44,0-11.15,0a11.84,11.84,0,0,1-2.72-.33,3.48,3.48,0,0,1-2.88-3.4C184.88,275.35,184.94,273,184.94,270.53Z" transform="translate(-119.3 -216.81)" fill="white"/><path d="M359.27,270.33c2.13,0,4,0,5.88,0,.2,0,.52.12.58.28.5,1.11,1.48,1.08,2.45,1.08l11.27.06h1.38v3.34H367.76a2.53,2.53,0,0,0-1.18.08c-.4.24-.89.7-.91,1.09s.49.82.87,1a2.72,2.72,0,0,0,1.29.17c4.44,0,8.87.06,13.31,0,1,0,1.41.22,1.33,1.33-.17,2.45-.12,2.46-2.57,2.47-5,0-10.07,0-15.11,0a5.21,5.21,0,0,1-5.52-5.46C359.26,274.08,359.27,272.29,359.27,270.33Z" transform="translate(-119.3 -216.81)" fill="white"/><path d="M164.93,275.32c-.26,1.74.15,2.26,1.77,2.28,4.4.07,8.8.11,13.19.16h1.51v3.51c-.32,0-.67.06-1,.06-5.6,0-11.2-.07-16.79-.14-3.65,0-5.26-1.7-5.25-5.32v-5.51c2,0,3.9,0,5.77,0a.82.82,0,0,1,.58.44c.3,1.07,1.09,1.26,2,1.26h12.72c.23,0,.47,0,.81.06v3.18Z" transform="translate(-119.3 -216.81)" fill="white"/><path d="M342,276.59c.73-1,1.29-1.73,1.84-2.49.88-1.24,1.5-3,2.69-3.58s3-.17,4.47-.18h2.49c-.28.51-.42.81-.6,1.09-2.1,3.06-4.17,6.14-6.33,9.16a2.23,2.23,0,0,1-1.53.81c-2.07.09-4.15.07-6.23,0a1.77,1.77,0,0,1-1.31-.54c-2.19-3.38-4.3-6.81-6.62-10.5a22.25,22.25,0,0,0,3.49,0c2.6-.44,4.28.55,5.39,2.9A29.3,29.3,0,0,0,342,276.59Z" transform="translate(-119.3 -216.81)" fill="white"/><path d="M241.56,281.35H235l-.15-3.14H223.26V273.7h11.67v-3.23h6.63Z" transform="translate(-119.3 -216.81)" fill="white"/><path d="M296.28,273.68H305c2.34,0,2.69-.34,2.83-2.66a4.59,4.59,0,0,1,.08-.53h6.83c.35,2.63-.24,4.76-2.63,6.29l4.46,4.31-.2.36c-.37,0-.75.06-1.12.06a19.24,19.24,0,0,0-2.4,0c-3,.39-5.45-.38-7.24-3a1.82,1.82,0,0,0-1.34-.51c-2.64,0-5.27,0-8,0Z" transform="translate(-119.3 -216.81)" fill="white"/><path d="M119.34,269.09c0-1,0-1.95,0-2.89,0-.23.39-.49.66-.62a1.67,1.67,0,0,1,.71,0q13.85,0,27.69,0a20.26,20.26,0,0,1,3.22.2,3.27,3.27,0,0,1,2.84,3.3Z" transform="translate(-119.3 -216.81)" fill="white"/><path d="M283.7,270.45a75.05,75.05,0,0,1-.06,7.52,3.91,3.91,0,0,1-3.84,3.52c-5.1.09-10.21,0-15.41,0v-3.76h2.54c2.79,0,5.59,0,8.38,0,1.71,0,2.24-.53,2.27-2.21s0-3.33,0-5.07Z" transform="translate(-119.3 -216.81)" fill="white"/><path d="M283.44,269.28H257.06v-3.65h20.17a19.67,19.67,0,0,1,2.87.18A4.12,4.12,0,0,1,283.44,269.28Z" transform="translate(-119.3 -216.81)" fill="white"/><path d="M185.33,269.27a3.61,3.61,0,0,1,3.11-3.46,15.71,15.71,0,0,1,2.74-.18c6.28,0,12.55.05,18.83.08a8,8,0,0,1,.87.09v3.47Z" transform="translate(-119.3 -216.81)" fill="white"/><path d="M314.35,269.25H288.62a4.33,4.33,0,0,1,3.83-3.5c1.27-.13,2.56-.11,3.84-.12,4.43,0,8.87,0,13.3,0A4.62,4.62,0,0,1,314.35,269.25Z" transform="translate(-119.3 -216.81)" fill="white"/><path d="M215.82,269.28a3.72,3.72,0,0,1,3.81-3.56c3.27-.1,6.54-.09,9.82-.1,2.51,0,5,0,7.54.09a4.46,4.46,0,0,1,4.14,3.57Z" transform="translate(-119.3 -216.81)" fill="white"/><path d="M359.34,269v-3.33h22.89V269Z" transform="translate(-119.3 -216.81)" fill="white"/><path d="M158.5,269.16c-.34-3.53-.34-3.51,3-3.5,6.15,0,12.3,0,18.45,0h1.52v3.45Z" transform="translate(-119.3 -216.81)" fill="white"/><path d="M288.08,281.3c0-3.54,0-6.92,0-10.31a.92.92,0,0,1,.68-.58c2-.05,4,0,6,0V281.3Z" transform="translate(-119.3 -216.81)" fill="white"/><path d="M318.63,281.32V270.37h6.53v10.95Z" transform="translate(-119.3 -216.81)" fill="white"/><path d="M222,281.31c-2,0-3.81,0-5.64,0-.26,0-.73-.33-.74-.51,0-3.42,0-6.85,0-10.3H222Z" transform="translate(-119.3 -216.81)" fill="white"/><path d="M133.69,270.34h6.22V281h-6.22Z" transform="translate(-119.3 -216.81)" fill="white"/><path d="M154.47,270.45v10.64h-6V270.45Z" transform="translate(-119.3 -216.81)" fill="white"/><path d="M263.07,281.34h-6V270.52h6Z" transform="translate(-119.3 -216.81)" fill="white"/><path d="M125.26,281h-6c0-3.43,0-6.69,0-10a.9.9,0,0,1,.61-.64c1.75-.05,3.5,0,5.32,0Z" transform="translate(-119.3 -216.81)" fill="white"/><path d="M347.31,268.92c.65-1,1.29-2,2-3a1,1,0,0,1,.67-.39c2.17,0,4.35,0,6.88,0-.93,1.34-1.65,2.41-2.4,3.46a.87.87,0,0,1-.6.3c-2.15,0-4.29,0-6.44,0Z" transform="translate(-119.3 -216.81)" fill="white"/><path d="M327.87,265.58c2.19,0,4.06,0,5.93,0a1.24,1.24,0,0,1,.9.42c.71,1,1.35,2,2.12,3.22-2.21,0-4.22,0-6.23,0a.86.86,0,0,1-.58-.34C329.33,267.88,328.68,266.84,327.87,265.58Z" transform="translate(-119.3 -216.81)" fill="white"/><path d="M318.74,269.17v-3.51h6.4v3.51Z" transform="translate(-119.3 -216.81)" fill="white"/></svg>