<?xml version="1.0" encoding="UTF-8" standalone="no"?><!-- Generator: Gravit.io --><svg xmlns="http://www.w3.org/2000/svg" xmlns:xlink="http://www.w3.org/1999/xlink" style="isolation:isolate" viewBox="0 0 264 81.6" width="264pt" height="81.6pt"><defs><clipPath id="_clipPath_ZaRq8AqhZpRGWC6LmkezREbcZodjxijp"><rect width="264" height="81.6"/></clipPath></defs><g clip-path="url(#_clipPath_ZaRq8AqhZpRGWC6LmkezREbcZodjxijp)"><g><path d=" M 62.872 18.229 L 42.291 43.48 L 48.542 18.762 L 17.674 47.447 C 12.393 44.801 9.231 41.265 9.231 37.231 C 9.231 27.732 26.757 18.999 48.246 17.791 C 53.413 17.499 58.351 17.67 62.872 18.229 L 62.872 18.229 Z  M 64.309 49.842 L 72.311 20.122 C 81.403 22.773 87.259 27.35 87.259 32.839 C 87.259 39.811 77.822 46.366 64.309 49.842 L 64.309 49.842 Z  M 25.313 70.881 L 34.248 38.417 L 16.25 56.763 C 6.111 53.03 -0.054 47.193 0 40.4 C 0 27.902 21.471 16.786 47.799 15.655 C 53.631 15.404 59.225 15.663 64.399 16.356 L 77.729 0 L 72.892 17.969 C 86.501 21.389 95.599 28.154 95.599 36.288 C 95.599 48.298 75.77 59.03 50.861 60.855 L 58.967 31.866 L 25.313 70.881 L 25.313 70.881 Z " fill-rule="evenodd" fill="rgb(255,255,255)"/><path d=" M 116.122 22.185 L 105.117 22.185 L 96.221 52.713 L 104.624 52.713 L 108.11 40.746 L 109.554 33.774 L 108.697 52.713 L 115.251 52.713 L 125.38 34.105 L 122.773 40.746 L 119.285 52.713 L 127.645 52.713 L 136.542 22.185 L 125.576 22.185 L 115.378 40.746 L 116.122 22.185 L 116.122 22.185 Z " fill-rule="evenodd" fill="rgb(255,255,255)"/><path d=" M 140.111 22.185 L 131.215 52.713 L 140.331 52.713 L 149.228 22.185 L 140.111 22.185 L 140.111 22.185 Z " fill-rule="evenodd" fill="rgb(255,255,255)"/><path d=" M 159.801 29.44 C 162.115 29.377 163.856 29.886 165.025 30.971 C 166.194 32.054 166.372 34.088 165.559 37.072 C 165.047 38.83 164.432 40.267 163.714 41.382 C 162.998 42.497 162.191 43.37 161.294 43.997 C 160.395 44.625 159.434 45.041 158.408 45.244 C 157.383 45.449 156.292 45.522 155.134 45.458 L 159.801 29.44 L 159.801 29.44 Z  M 152.968 22.185 L 144.071 52.713 L 155.959 52.713 C 158.089 52.713 160.124 52.43 162.067 51.864 C 164.01 51.301 165.797 50.38 167.43 49.109 C 169.059 47.837 170.507 46.187 171.769 44.162 C 173.03 42.136 174.042 39.681 174.798 36.788 C 175.566 33.867 175.678 31.465 175.136 29.581 C 174.592 27.695 173.726 26.205 172.533 25.105 C 171.341 24.006 169.98 23.244 168.453 22.82 C 166.923 22.395 165.542 22.185 164.311 22.185 L 152.968 22.185 L 152.968 22.185 Z " fill-rule="evenodd" fill="rgb(255,255,255)"/><path d=" M 178.635 22.185 L 176.798 52.713 L 185.619 52.713 L 193.722 35.14 L 191.879 52.713 L 200.743 52.713 L 216.193 22.185 L 207.663 22.185 L 199.231 40.746 L 201.657 22.185 L 193.381 22.185 L 185.367 40.746 L 187.71 22.185 L 178.635 22.185 L 178.635 22.185 Z " fill-rule="evenodd" fill="rgb(255,255,255)"/><path d=" M 219.166 42.396 L 224.711 32.455 L 224.503 42.396 L 219.166 42.396 L 219.166 42.396 Z  M 223.082 22.185 L 204.355 52.713 L 213.556 52.713 L 215.591 48.756 L 224.456 48.756 L 224.184 52.713 L 233.385 52.713 L 232.535 22.185 L 223.082 22.185 L 223.082 22.185 Z " fill-rule="evenodd" fill="rgb(255,255,255)"/><path d=" M 234.637 22.185 L 239.035 41.688 L 235.823 52.713 L 244.687 52.713 L 247.899 41.688 L 264 22.185 L 253.583 22.185 L 246.287 32.077 L 244.719 22.185 L 234.637 22.185 L 234.637 22.185 Z " fill-rule="evenodd" fill="rgb(255,255,255)"/></g></g></svg>