<?xml version="1.0" encoding="utf-8"?>
<svg version="1.1" viewBox="0 0 3840 978.3" xmlns="http://www.w3.org/2000/svg">
  <path class="st1" d="M 1449 289.9 L 1634.8 289.9 L 1613.3 537.7 L 1614.2 537.7 L 1759.6 289.9 L 1948.9 289.9 L 1806.9 750.2 L 1683 750.2 L 1784.5 432.7 L 1783.6 432.7 L 1606.4 750.2 L 1507.5 750.2 L 1526.4 432.7 L 1525.5 432.7 L 1430.9 750.2 L 1307.9 750.2 L 1449 289.9 Z" style="fill: rgb(255, 255, 255);"/>
  <path class="st1" d="M 1995.3 289.9 L 2128.7 289.9 L 1987.6 750.2 L 1854.2 750.2 L 1995.3 289.9 Z" style="fill: rgb(255, 255, 255);"/>
  <path class="st1" d="M 2177.7 289.9 L 2377.3 289.9 C 2456.5 289.9 2551.1 342.4 2527 493 C 2502.9 646.1 2401.4 750.3 2250.8 750.3 L 2036.6 750.3 L 2177.7 289.9 Z M 2207 632.4 L 2271.5 632.4 C 2358.4 632.4 2389.4 536 2393.7 493.9 C 2401.4 425.1 2369.6 407.9 2324.9 407.9 L 2275.9 407.9 L 2207 632.4 Z" style="fill: rgb(255, 255, 255);"/>
  <path class="st1" d="M 2905.6 750.3 L 2777.4 750.3 L 2804.1 512 L 2803.2 512 L 2682.7 750.3 L 2554.5 750.3 L 2573.4 290 L 2704.2 290 L 2675 557.5 L 2675.9 557.5 L 2809.3 289.9 L 2925.5 289.9 L 2896.2 557.5 L 2897.1 557.5 L 3028.7 289.9 L 3164.6 289.9 L 2905.6 750.3 Z" style="fill: rgb(255, 255, 255);"/>
  <path class="st1" d="M 3224.8 289.9 L 3355.6 289.9 L 3408.1 750.2 L 3277.3 750.2 L 3272.1 684.8 L 3131 684.8 L 3095.7 750.2 L 2959.8 750.2 L 3224.8 289.9 Z M 3182.7 585.9 L 3266.2 585.9 L 3255.9 448.2 L 3255 448.2 L 3182.7 585.9 Z" style="fill: rgb(255, 255, 255);"/>
  <path class="st1" d="M 3471.8 581.6 L 3403 289.9 L 3536.4 289.9 L 3563.9 461.1 L 3683.5 289.9 L 3840 289.9 L 3605.1 579.8 L 3558.6 750.2 L 3425.2 750.2 L 3471.8 581.6 Z" style="fill: rgb(255, 255, 255);"/>
  <path class="st1" d="M 224.7 778.6 C 73.3 726.2 -31.7 627.2 8.7 506.8 C 66.3 333.9 406.2 199.6 768.4 208.2 C 819.2 209.1 852.7 211.6 899.2 217.7 L 1083.3 0 L 1011.9 237.5 C 1227 290 1362.1 405.3 1317.3 536.1 C 1258.8 709 935.3 818.3 696.1 831.2 L 815.7 418.2 L 342.5 978.3 L 464.7 525.7 L 224.7 778.6 Z M 1196.9 505 C 1225.3 409.5 1147.9 327.8 1001.6 277.9 L 882.9 679.7 C 1026.6 653.9 1171.1 592.8 1196.9 505 Z M 876.8 242.6 C 835.5 236.6 799.4 234 752.9 232.3 C 461.2 225.4 185.9 333.8 139.4 474.1 C 112 557.5 156.7 610.9 248.8 647 L 657.5 268.4 L 574.9 598.8 L 876.8 242.6" style="fill: rgb(255, 255, 255);"/>
</svg>