<?xml version="1.0" encoding="utf-8"?>
<!-- Made by Szalik  -->
<svg version="1.1" id="Warstwa_1" xmlns="http://www.w3.org/2000/svg" xmlns:xlink="http://www.w3.org/1999/xlink" x="0px" y="0px" xml:space="preserve">
<g>
	<g>
		<path d="M531.83,272.21c0,34.71,0,68.84,0,103.37c-185.87,0-371.66,0-557.88,0c0-34.45,0-68.83,0-103.37
			C159.93,272.21,345.62,272.21,531.83,272.21z M509.79,358.59c0-20.62,0-41.05,0-61.66c-2.29,0-4.37,0-6.93,0
			c0,14.95,0,29.67,0,44.38c-1.79-1.01-2.67-2.3-3.41-3.66c-6.6-12.08-13.29-24.11-19.71-36.29c-2.21-4.2-5.01-5.81-9.69-4.07
			c0,20.52,0,41.03,0,61.49c2.54,0,4.49,0,7.12,0c0-15.28,0-30.36,0-45.44c8.26,13.45,15.78,26.9,22.86,40.58
			C502.21,358.13,504.71,360.08,509.79,358.59z M93.33,327.39c-1.74-6.31-2.84-12.88-5.34-18.86c-6.74-16.15-27.79-16.46-36.51-4.14
			c-8.73,12.33-8.83,34.82,0.09,46.99c8,10.91,23.06,12.02,32.36,2.13C90.69,346.29,92.18,337.16,93.33,327.39z M411.95,327.35
			c0.7,8.04,2.14,15.43,6.2,22.18c4.76,7.89,11.8,11.38,20.93,10.44c7.95-0.82,13.43-5.36,16.77-12.36
			c5.39-11.27,5.68-23.06,1.97-34.76c-2.72-8.56-7.89-15.67-17.64-16.74c-11.96-1.31-18.93,2.66-23.69,13.67
			C414.13,315.27,413.41,321.47,411.95,327.35z M107.2,334.64c8.48-1.52,9.35-1.08,12.54,5.79c2.02,4.34,4.53,8.51,6.02,13.02
			c1.79,5.43,5.03,6.65,10.65,4.88c-4.14-8.35-8.23-16.59-12.4-25c1.36-0.64,2.59-1.13,3.73-1.77c6.41-3.64,9.49-11.33,8.21-20.38
			c-0.92-6.54-5.86-13.12-12.01-13.74c-7.81-0.79-15.76-0.19-23.64-0.19c0,20.63,0,41.02,0,61.42c2.37,0,4.43,0,6.9,0
			C107.2,350.4,107.2,342.48,107.2,334.64z M188.98,327.61c0.36,0.08,0.71,0.16,1.07,0.25c0,2.49-0.26,5.02,0.07,7.47
			c0.34,2.59,1.17,5.13,1.91,7.66c2.69,9.14,10.47,16.39,18.17,17c11.01,0.87,18.82-3.53,23.22-13.9
			c5.3-12.51,5.17-25.22-0.57-37.57c-4.39-9.44-12.03-13.69-22.52-12.54c-8.75,0.96-14.16,6.4-17.07,14.03
			C191.12,315.61,190.36,321.73,188.98,327.61z M275.79,333.29c0.94-0.59,1.32-0.93,1.77-1.1c7.69-2.92,11.29-9.76,10.42-19.83
			c-0.67-7.76-6.05-14.51-13.38-15.19c-7.35-0.68-14.81-0.15-22.37-0.15c0,20.74,0,41.14,0,61.67c2.33,0,4.38,0,6.98,0
			c0-8.36,0-16.43,0-24.43c8.83-0.64,8.86-0.65,12.49,6.63c2.07,4.15,4.53,8.21,5.91,12.59c1.77,5.62,5.2,6.44,10.69,4.94
			c-2.12-4.24-4.18-8.35-6.23-12.45C280.02,341.84,277.97,337.7,275.79,333.29z M39.83,321.01c-1.83-5.06-2.93-9.61-5.03-13.63
			c-8.16-15.64-29.81-15.62-37.74-0.26c-7.05,13.64-7.2,27.83,0,41.46c7.36,13.95,25.06,15.76,34.88,3.97
			c4.11-4.94,6.3-10.7,6.95-17.05c-5.05-1.68-7.89-0.31-8.92,5c-0.49,2.51-1.74,5.05-3.22,7.16c-5.88,8.38-15.6,8.02-21.95-0.02
			c-6.34-8.02-6.6-31.05,0.07-39.8c5.89-7.72,16.35-7.89,21.79,0.12c1.73,2.55,3.48,5.55,3.82,8.5
			C31.14,322.36,34.6,321.7,39.83,321.01z M314.46,296.69c-6.29,20.88-12.45,41.34-18.72,62.14c2.99,0,5.29,0,7.89,0
			c2.03-7.29,4.06-14.53,6.05-21.66c18.21-2.03,18.21-2.03,22.34,14.89c1.82,7.47,2.04,7.62,9.8,6.42
			c-5.94-19.81-11.83-39.6-17.88-59.34c-0.31-1.02-1.84-2.12-2.97-2.35C319.06,296.41,317.01,296.69,314.46,296.69z M148.32,296.98
			c0,20.71,0,41.25,0,61.81c2.29,0,4.23,0,6.72,0c0-8.25,0-16.31,0-24.8c4,0,7.46,0.01,10.92,0c9.42-0.02,15.22-4.5,17.62-13.58
			c2.85-10.82-3.59-22.52-13.37-23.32C162.99,296.51,155.68,296.98,148.32,296.98z M366.62,303.02c4.49,0,8.14,0.25,11.73-0.14
			c1.24-0.13,2.97-1.66,3.31-2.87c0.72-2.57-1.01-3.42-3.47-3.34c-3.49,0.12-6.99,0.05-10.49,0.05c-7.58,0-15.16,0-22.86,0
			c0,2.48,0,4.22,0,6.3c3.67,0,6.99,0.22,10.27-0.06c3.8-0.33,4.89,1.21,4.83,4.86c-0.22,13.65-0.19,27.31-0.24,40.96
			c-0.01,3.28,0,6.56,0,9.99c2.57,0,4.49,0,6.91,0C366.62,340.29,366.62,322.03,366.62,303.02z M394.53,296.99
			c0,20.74,0,41.21,0,61.75c2.57,0,4.67,0,6.94,0c0-20.74,0-41.21,0-61.75C398.92,296.99,396.82,296.99,394.53,296.99z" fill="white"/>
		<path d="M-43.13,133.04c0,81.19,0,161.76,0,242.64c-14.16,0-28.09,0-42.54,0c0-41.43,0-82.99,0-124.54
			c-0.42-0.07-0.84-0.14-1.26-0.2c-11.16,41.62-22.32,83.25-33.49,124.92c-9.1,0-17.91,0-27.04,0
			c-11.59-41.98-23.17-83.93-34.76-125.89c-0.28,0-0.57,0.01-0.85,0.01c-0.98,9.62-1.98,19.25-2.93,28.87
			c-1.23,12.38-2.45,24.77-3.65,37.16c-1.13,11.73-2.24,23.47-3.34,35.2c-0.69,7.28-1.23,14.57-2.14,21.83
			c-0.14,1.08-1.88,2.8-2.9,2.82c-14.46,0.18-28.93,0.13-44.21,0.13c8.41-81.08,16.77-161.7,25.2-242.94c4.9,0,9.51,0,14.12,0
			c9.83,0,19.67,0.22,29.49-0.09c4.16-0.13,5.53,1.41,6.61,5.26c5.42,19.25,11.23,38.38,16.91,57.56
			c3.98,13.45,7.94,26.91,11.94,40.36c0.55,1.86,1.29,3.67,2.38,6.72c4.38-15.95,8.47-30.63,12.44-45.34
			c5.47-20.26,10.8-40.56,16.38-60.78c0.4-1.45,2.36-3.5,3.61-3.52C-83.36,132.98-63.55,133.04-43.13,133.04z" fill="white"/>
		<path d="M319.77,183.77c21.87,0,42.79,0,64.12,0c0-16.82,0-33.42,0-50.37c14.44,0,28.49,0,42.87,0c0,43.28,0,86.52,0,130.17
			c-14.05,0-28.09,0-42.55,0c0-16.6,0-33.19,0-50.17c-21.46,0-42.5,0-64.14,0c0,16.66,0,33.37,0,50.33c-14.51,0-28.43,0-42.84,0
			c0-43.45,0-86.79,0-130.41c14.09,0,28.02,0,42.54,0C319.77,149.96,319.77,166.67,319.77,183.77z" fill="white"/>
		<path d="M697.79,332.06c14.56,0,28.21,0.15,41.84-0.09c4.17-0.07,5.45,1.21,5.37,5.36c-0.24,12.62-0.09,25.25-0.09,38.26
			c-30.1,0-59.66,0-89.63,0c0-80.6,0-161.29,0-242.27c14.07,0,28,0,42.5,0C697.79,199.32,697.79,265.35,697.79,332.06z" fill="white"/>
		<path d="M637.84,375.82c-29.74,0-59.02,0-88.75,0c0-80.83,0-161.49,0-242.47c14.17,0,28.22,0,42.7,0c0,66.13,0,132.03,0,198.47
			c15.45,0,30.5,0,46.05,0C637.84,346.68,637.84,361.03,637.84,375.82z" fill="white"/>
		<path d="M267.4,186.41c-6.05-5.51-11.17-10.99-17.1-15.4c-12.95-9.63-27.52-11.87-42.84-6.93c-13.21,4.25-21.63,17.71-21.48,33.16
			c0.13,13.37,9.53,26.96,22.19,30.64c20.38,5.92,37.89,0.4,52.59-14.64c1.96-2,3.82-4.09,6.97-5.92c0,1.67,0,3.35,0,5.02
			c-0.01,11.33-0.28,22.67,0.1,33.98c0.15,4.4-1.61,6.62-5.11,8.59c-9.67,5.46-20.12,8.56-30.99,9.91
			c-13.67,1.71-27.51,3.02-41.04-0.83c-26.79-7.62-44.29-24.85-50.64-52.08c-6.86-29.42,2.76-53.61,25.97-72.39
			c12.14-9.82,26.58-14.23,42.05-14.34c18.21-0.12,35.91,2.8,52.57,10.81c4.93,2.37,7.7,4.85,7.28,11.14
			c-0.75,11.28-0.23,22.64-0.26,33.97C267.64,182.68,267.5,184.27,267.4,186.41z" fill="white"/>
		<path d="M440.06,263.63c0-43.37,0-86.59,0-130.3c1.41-0.1,2.84-0.28,4.27-0.28c27.48-0.02,54.96,0.07,82.44-0.11
			c4.23-0.03,5.44,1.31,5.29,5.39c-0.28,7.63-0.08,15.28-0.08,23.6c-18.33,0-36.36,0-54.68,0c0,7.58,0,14.49,0,21.96
			c16.05,0,32.1,0,48.42,0c0,9.8,0,19.06,0,28.91c-16,0-32.04,0-48.4,0c0,7.32,0,14.05,0,21.32c2.27,0.13,4.52,0.36,6.77,0.37
			c14.81,0.05,29.63-0.01,44.44,0.19c1.14,0.02,3.2,1.76,3.23,2.75c0.26,8.62,0.15,17.25,0.15,26.21
			C501.17,263.63,470.8,263.63,440.06,263.63z" fill="white"/>
		<path d="M61.64,161.87c-11.34,0-21.61,0-32.06,0c0-9.67,0-18.91,0-28.5c37.05,0,73.78,0,110.95,0c0,9.37,0,18.74,0,28.56
			c-10.26,0-20.52,0-31.58,0c0,2.36,0,4.28,0,6.2c0,29.83-0.01,59.65-0.01,89.48c0,6.36-0.01,6.35-6.6,6.35c-13.32,0-26.64,0-40.7,0
			C61.64,230.04,61.64,196.33,61.64,161.87z" fill="white"/>
		<path d="M-26.13,263.97c0-43.83,0-87.03,0-130.53c0.8-0.14,1.57-0.38,2.34-0.38c12.15-0.03,24.3,0.06,36.45-0.08
			c3.13-0.04,4.39,0.74,4.38,4.15c-0.1,40.95-0.08,81.9-0.04,122.85c0,2.54-0.43,4.06-3.51,4.04
			C0.54,263.91-12.43,263.97-26.13,263.97z" fill="white"/>
		<path d="M51.47,326.88c1.87-6.01,2.86-12.37,5.74-17.7c5.26-9.75,17.38-9.82,22.86-0.19c6.84,12.03,6.96,24.87,0.43,37
			c-5.89,10.95-18.8,10.58-24.16-0.65C53.73,339.84,53.12,333.4,51.47,326.88z" fill="white"/>
		<path d="M419.7,326.85c1.15-4.61,1.98-10.06,3.89-15.1c2.09-5.52,6.09-9.66,12.59-9.69c6.61-0.03,10.83,3.85,13.27,9.61
			c4.54,10.75,4.37,21.73,0.08,32.44c-2.67,6.66-8.78,10.54-14.3,9.71c-7.1-1.06-10.92-6.11-12.88-12.4
			C420.98,337.03,420.65,332.32,419.7,326.85z" fill="white"/>
		<path d="M107.09,315.36c0-0.67-0.02-1.33,0-2c0.35-12.16-2.46-10.25,10.58-10.28c7.06-0.02,11.58,5.67,10.95,13.12
			c-0.61,7.27-4.71,11.63-11.62,11.63c-11.99,0-9.59,1.68-9.91-9.48C107.06,317.36,107.09,316.36,107.09,315.36z" fill="white"/>
		<path d="M230.49,327.8c-1.48,5.67-2.49,11.21-4.4,16.42c-2.16,5.89-6.75,9.65-13.2,9.58c-6.32-0.07-10.52-4.35-12.67-9.72
			c-4.25-10.65-4.51-21.68,0.04-32.35c2.29-5.38,6.28-9.55,12.72-9.65c6.58-0.1,11,3.59,13.13,9.51
			C227.98,316.8,229.04,322.31,230.49,327.8z" fill="white"/>
		<path d="M259.02,303.03c4.19,0,7.5-0.12,10.81,0.03c6.53,0.3,10.01,4.04,10.32,10.85c0.37,8.14-2.93,12.92-9.56,13.83
			c-11.16,1.54-11.57,1.17-11.57-10.22C259.02,312.91,259.02,308.29,259.02,303.03z" fill="white"/>
		<path d="M319.29,306.33c2.28,7.97,4.56,15.93,6.96,24.33c-4.99,0-9.51,0-14.77,0c2.32-8.33,4.54-16.34,6.77-24.35
			C318.6,306.31,318.95,306.32,319.29,306.33z" fill="white"/>
		<path d="M155.02,303.11c4.52,0,8.49-0.34,12.38,0.08c5,0.54,8.16,4.3,8.66,9.4c0.73,7.53-1.21,12.87-6.31,14.13
			c-4.38,1.08-9.24,1.22-13.64,0.4c-0.93-0.17-0.93-6.29-1.05-9.68C154.89,312.85,155.02,308.23,155.02,303.11z" fill="white"/>
	</g>
</g>
</svg>
