<svg id="Warstwa_1" data-name="Warstwa 1" xmlns="http://www.w3.org/2000/svg" viewBox="0 0 377 168"><title>model2</title><path d="M19,360C7.93,357,.22,348.79-4.48,339.69c-4.2-8.11-9.34-15-14.9-21.95-3.19-4-1.94-8.47,3.43-10.21,15.81-5.12,31.65-10.26,47.75-14.31,10.76-2.72,22-3.41,33-5.45a12.09,12.09,0,0,0,7.09-4.3c5.09-7.19,9-15.24,14.45-22.12,5.14-6.5,11.43-12.14,17.59-17.75A9.74,9.74,0,0,1,115.56,242c4,2.2,4.17,6.26,3.72,10.12-.93,8-2.18,16-2.49,24.4,3-3.7,5.8-7.58,9-11.07a89,89,0,0,1,10.49-9.88c2.92-2.27,7.16-4.16,10-1.08,2.11,2.29,3,6.47,3,9.78-.11,4.74-1.6,9.46-2.62,14.83,11.57-.56,22.67-1,33.75-1.74,1.16-.08,2.57-1.44,3.27-2.57q5-8.08,9.59-16.38c3.4-6.13,1.13-10.09-5.76-10.36-5.4-.22-9.44,2.29-13.23,5.91-3.2,3.06-6.66,6.2-10.59,8.06-5.92,2.79-10.86-1.36-8.86-7.6,5.48-17.07,17.09-28.63,34.05-34.4a26.77,26.77,0,0,1,12.23-1c12.57,2,19.35,11.08,18.2,23.83-1,10.55-5.57,19.77-10.91,28.69-.9,1.51-1.77,3-3,5.2,18.08-.58,35.69,1.88,51.12-6.17l-9.31-24.5c-5.09,4.37-4.35,11.56-5.68,19.1a42,42,0,0,1-4.3-4.42c-8.95-12.71-6.74-31.38,4.78-41.79a7.13,7.13,0,0,0,2.36-3.49c2.14-10.77,6.66-13.74,17.53-11.23a14.32,14.32,0,0,1,1.57.42L276,192h9c2.12,1.25,4.53,2.2,6.31,3.82,3,2.75,5.47,5.58,10.23,5.92,2.17.15,5,3.45,5.91,5.91,1.14,3.11,2.71,4.71,5.7,5.29,4.81.93,7.29,4.3,9,8.51,2.38,6,1.94,12.08-.13,18.06a17.35,17.35,0,0,1-2.34,3.56c-1.28-.88-2.82-1.54-3.78-2.68a65.66,65.66,0,0,1-4.09-6.11c-.45,4.51.5,8.52,0,12.33s-2.51,7.51-4.18,12.16c-5-9.39-5-9.39-6.88-9.09,4.47,9.66,8.9,19.47,13.6,29.15.55,1.14,2.47,1.92,3.9,2.27,7.1,1.74,14.32,3,21.34,5a38.15,38.15,0,0,1,10.77,5.05c5.14,3.47,4.9,8.46-.5,11.42a43.52,43.52,0,0,1-11.49,4.47c-4.95,1.07-10.11,1.19-15.3,1.73.89,8.88,2,17.44,2.5,26,.22,3.83,1.56,5.55,5.07,7.25,7.29,3.53,14.16,7.92,21.08,12.16,1.5.91,2.49,2.65,4.22,4.58L344,360H247l-13.11-1.46c.29-.82.31-1.24.52-1.39a12.16,12.16,0,0,1,2.13-1.28c18.55-8.54,37.51-15.62,58.3-16.16,1.38,0,3.8-1,3.93-1.8,1.45-9.43,2.55-18.92,3.83-29-8.74.95-16.25,1.32-23.59,2.65q-62.89,11.35-125.72,23.1-49.09,9.12-98.16,18.47C43.73,355.28,32.38,357.7,21,360Zm159-56.9,3.79-4.53c9.56-11.29,20.39-21.72,26.56-35.44,3.09-6.88,5.87-14.26,6.81-21.66,1.46-11.49-8.34-20.41-19.79-18.65-17.84,2.73-28.31,14.83-36.11,29.91a8.46,8.46,0,0,0-.62,2.41c-.58,3.45,1.21,4.7,3.93,3.08a44.62,44.62,0,0,0,8.84-7.15c4.72-4.81,10.18-7.4,16.94-7,9.32.59,13.27,7.5,8.89,15.75-8.6,16.24-18.11,31.81-32.77,43.52a18.88,18.88,0,0,0-4.55,4.59c-1.87,3.07-4.15,6.34-4.56,9.73-.45,3.68,1,7.6,1.67,11.41,3.3-.69,6.85-.82,9.86-2.15q52-22.95,103.84-46.22c6.85-3.06,13.62-6.28,20.43-9.43l-.63-1.67C250.45,271.74,215.35,290.62,178,303.1Zm-38.64,8.13L137.9,311a46,46,0,0,1,.06-7.14c1-6.07,2.22-12.1,3.36-18.15,1.42-7.52,3-15,4.14-22.58a6.77,6.77,0,0,0-1.63-5.27c-.75-.69-3.67,0-4.88,1a78,78,0,0,0-10.15,9.49c-5.56,6.41-10.73,13.16-16.1,19.74-.87,1.07-1.9,2-3.36,3.55,2.06-13.56,4.12-26.18,5.76-38.85.3-2.31-.6-6.49-1.88-6.91-2.18-.71-5.54.26-7.62,1.67a30.34,30.34,0,0,0-7.72,7.73Q68.78,297.31,40,339.57a11.08,11.08,0,0,0-1.28,2.69c-1,2.85.65,4,3,3.38A11.11,11.11,0,0,0,47,342.27,217.46,217.46,0,0,0,60.51,325c11.95-17.63,23.59-35.47,35.38-53.21.86-1.3,1.87-2.5,2.82-3.75-.66,9-2.52,17.45-4,26A151.45,151.45,0,0,0,92,313.75c-.22,5.13,3,6.6,7.13,3.66a41.62,41.62,0,0,0,8.51-7.64c8.23-10.25,16.15-20.75,24.21-31.13,1-1.28,2.1-2.48,3.15-3.71a11.35,11.35,0,0,1-1,5.71c-3.47,9-7.07,17.93-10.34,27a25.15,25.15,0,0,0-1.52,8.75c.08,5.44,3.9,8.55,9,6.87a41.59,41.59,0,0,0,11.64-6.38c4.44-3.34,4.29-5.2.46-9.91Zm170.76-32.41c-5.27-15.45-13.85-28.82-23.85-41.94l11.2-4.15c.31,2.25.51,3.69.72,5.24l4.63-.7v4.93l5.57,4.09c-1.13-6.51-2.3-13.18-3.72-21.35,5.86,3.76,12.83,3.32,13.53,11.71,4.1-7,.54-17.28-6.88-20a11.61,11.61,0,0,1-7.67-7.58c-.66-1.73-3.86-4-5.34-3.61-3.25.77-4.52-.37-5.87-2.8a11.88,11.88,0,0,0-3.07-3.77c-8.09-6.13-16.4-3.55-20.8,7-1.57,3.74-2.67,3.91-6.39,2.79-7-2.1-13.66-1.59-13.88,4.93-.15,4.46-2.52,6.88-5.22,9.58-9.49,9.48-10.93,20.55-3.47,32.34l-1.07-9.18c6.94.92,6.57-4.41,6.9-8.12l9.42-4.18c-1,5.31-2.95,10.14-2.6,14.81.36,4.84,2.93,9.52,4.53,14.27l1.57-.52c-.7-2.21-1.39-4.43-2.15-6.87,8.46-1.05,1.48-5.88,2.21-8.89l1.2.63c1.89-3.34,3.79-6.67,5.82-10.25l8,1.51c-3.45,3.85-6.05,7.77-3.05,12,1.31,1.84,4.77,3.06,7.22,3,7.48-.19,5.6-7,6.91-12.24,1.28,1.42,2.22,2.1,2.68,3,4.86,9.77,10,19.42,14.28,29.44C303.22,277.92,305.05,279.87,310.08,278.82ZM64.54,293.09c-28.47,3.25-54.95,9.08-80.88,20.32,6.79,7.75,14.11,14.07,16,23.9a2.74,2.74,0,0,0,.85,1.21c4.31,4.41,8.4,9.08,13.07,13.06a11.49,11.49,0,0,0,7.72,2.48c5.73-.52,11.39-2,17.34-3.13-5.76-4.36-6.47-7.67-2.87-13.87,2.41-4.16,5.11-8.16,7.76-12.18C50.23,314.64,57,304.42,64.54,293.09Zm284.51,5.32,0-2.77c-4.19-1.81-8.26-4-12.6-5.35-18.51-5.56-37.66-6.61-56.81-7.47a12,12,0,0,0-4.79,1.14c-15.09,6.18-30.26,12.18-45.19,18.72-14,6.12-27.69,12.84-41.52,19.3,9.14-.78,18-2.48,26.78-4,25.43-4.35,50.8-9.17,76.35-12.71,14.13-1.95,28.6-1.4,42.86-2.62C339.21,302.22,344.09,299.88,349.05,298.41Zm-229.46,6-.71-.19c-1.06,1.26-2,2.61-3.21,3.77-4.46,4.46-8.56,9.4-13.56,13.15-7.45,5.58-14.28,2.15-14.82-7.08a52.81,52.81,0,0,1,.77-10.4c.61-4.32,1.56-8.6,2.37-12.89-15.17,18.83-25.79,40.58-43.31,58.66L151,329.9c-.31-5.08-.6-9.68-.79-12.74-4,2.76-8.73,6.71-14,9.49-4.88,2.55-10.49,2.82-15-1.23-4.29-3.85-4.43-9.06-3.25-14.34C118.41,308.83,119,306.61,119.59,304.39Zm225.67,51.24.63-1.91c-6.53-3.5-12.95-7.25-19.65-10.4-2.8-1.32-3.82-2.67-4.05-5.79-.64-8.43-1.73-16.83-3-25.19-.19-1.25-2-3.17-3.17-3.21-3.57-.11-7.17.53-10.79.88-.91,9-1.82,17.76-2.65,26.5-.35,3.62-1.11,6.33-5.83,6.11a37.35,37.35,0,0,0-10.89,1.13c-13.14,3.38-26.2,7.08-39.29,10.66l.42,1.22ZM143.2,301.1l1.69-.26,6.33,9.58,27.41-27.91c-11.15.69-20.73,1.22-30.29,2a3.76,3.76,0,0,0-2.48,2.43C144.8,291.61,144.06,296.37,143.2,301.1Zm143.47-50.46c-2.81,5.38-6.77,7-11.93,6.47-5.84-.64-7.59-4.93-8.56-10l-1.82.07c-1.22,7.34-2.45,14.68-3.63,21.74l34-3.72Q291.13,258.72,286.67,250.64Zm-67.22,32.17c-14.78-2.62-20.37-.28-25.58,10.22Zm77.81-10.43L287.42,278l12.25.94C298.72,276.35,298.05,274.55,297.26,272.38Z" transform="translate(21.11 -192)" fill="white"/></svg>