<svg id="Warstwa_1" data-name="Warstwa 1" xmlns="http://www.w3.org/2000/svg" viewBox="0 0 900 624"><title>model3</title><path d="M-199,405c.62-7.07,1.84-14.14,1.76-21.2-.21-17.82,8.57-29.07,24.59-35.35,24-9.42,47.88-19.44,72.25-27.92a788.5,788.5,0,0,1,114.82-30.2c21-3.91,42.08-7.46,63.1-11.34a10.12,10.12,0,0,0,5.17-3c14.07-15.27,27.82-30.85,42.08-45.94,7-7.46,15.64-12.11,26.63-10.42,7.09,1.09,11.61,5.39,13.85,11.52A111.41,111.41,0,0,1,171,253.29c.72,4.92-.68,10.16-1.18,15.82,9.05-.47,18.36,1,26.22-7.57a45.89,45.89,0,0,1,26.63-14.64c-5.74-23.71,12.93-30.58,27.65-40.65a635.29,635.29,0,0,0-48.9-81.32c-2.55,13.61-7.43,25-20,30.93-8.27,3.87-17,3.1-25.31.14-16.95-6-29.42-24.85-21.15-48.25-4.14,1.45-8.27,3.77-11.57-1.36,3.4,15.35-10.57,22.62-14.29,35.06l-7.51-4-.94.53c1.67,3.12,3.44,6.2,5,9.38.75,1.54,1.64,3.35,1.48,4.94-.61,5.92-1.62,11.81-2.59,18.5l-7.65-3.58c1.17,2.42,1.64,4.68,3,6,4.16,3.92,3.88,8.55,3.59,13.66-.45,7.75-.12,15.55-.12,23.73-17.84-1.42-29.8-10.32-38.43-24.07-12.5-19.91-14.74-41.76-10.36-64.35,1.82-9.35,5.28-18.39,8-27.66a5.79,5.79,0,0,0-1.53.9c-5.17,5.34-10.45,8.39-16.76,1.1.15,1.06,0,2.28.51,3.15,3.24,5.76.86,10.54-2,15.62-4.59,8.07-8.67,16.44-13.26,25.25l-8.49-5.94c1,2.51,1.29,4.34,2.26,5.71,3.68,5.19,2.8,10.45,1.17,16.1-2.52,8.7-4.49,17.56-6.86,27.06-8.75-7.31-15.87-15.08-21-24.44C-20.25,128.8-19.72,98.13-5.81,67.08,3.21,47,15.86,29.8,33.54,16.44c1.56-1.18,3.27-3.18,3.48-5,2.29-19.85,14.4-30.58,32.61-35.84s35.51-3.32,52.32,6.12c.8-4.2,1.25-8.16,2.35-11.93,4.19-14.41,14.45-22.75,28.33-26.86,6.29-1.86,12.9-2.67,19.37-4h27c4.94,1.3,10,2.3,14.78,4A30.53,30.53,0,0,1,230-43.7a7.16,7.16,0,0,0,5,2.68c14.22,1,28.05,3.73,38.65,13.83,5.49,5.24,9.79,12.11,13.28,18.93a19.46,19.46,0,0,0,8.67,8.7c9.4,5.28,19.15,10.17,27.77,16.57,28.81,21.4,37.33,50,28.29,84.34-1.39,5.26-3,10.46-4.81,16.74L327.8,93.25c-.71-.93-1.36-1.9-2.08-2.82-5.64-7.17-5.64-7.17-6-16.71l-6.25,7L298.35,70.33c1.19,7,2.31,13.07,3.25,19.17,2.64,17.22,4.46,34.59-2.62,51.12-3.78,8.84-9.43,16.88-15,25-3.44-11.11-9.16-21.14-8.38-33.11L271.45,135c-3.85-4.56-7.83-9-11.41-13.74-.81-1.08-.53-3.29-.19-4.85.59-2.66,1.64-5.22,2.49-7.81l-1-.68-8.3,6.27c-4.56-4.47-9.17-8.73-13.38-13.35-1-1.05-.59-3.37-.68-5.11s0-3.63,0-5.54c-2.71,2-5.13,5.14-7.94,5.53s-6.07-1.89-9.47-2.49a431.32,431.32,0,0,1,63.91,79.06c10.33-4,20.23-8.84,30.67-11.68,29-7.88,55.59-2.71,77.87,18,17.46,16.22,23.35,36.77,17.66,60-2.46,10.06-6.39,19.78-9.63,29.61,18.25,1.55,37.15,2.62,55.91,4.88,22.23,2.67,44.48,5.58,66.45,9.79,25.35,4.86,50.62,10.45,75.53,17.2,23.78,6.45,47.12,14.61,69.37,25.48,5.2,2.54,10.29,5.32,15.33,8.18,7.5,4.26,13.68,9.77,16.44,18.32v5c-1.82,7.76-6.89,12.73-14.46,13.86-12.76,1.9-25.64,3.37-38.51,4.09-20,1.12-40.09,1.18-60.11,2.21-27.16,1.39-54.31,3.22-81.45,5-8.69.56-17.36,1.5-26,2.26-1,22.46-9.44,41.42-23.9,57.69-12.48,14.05-28.65,22.54-46,28.77-10,3.6-20.36,6.39-31.12,9.72,21.8,6.09,41.7,15.15,60.89,25.87A333.7,333.7,0,0,1,494.94,545H-17.17a676.75,676.75,0,0,1,177.81-57c-2.91-6.44-4.34-13.44-8.49-17.92-5.73-6.18-10.27-12.42-11.67-21-6.95,1.75-13.57,3.19-20,5.11-19.86,5.87-39.83,11.43-59.44,18-23.83,8-47.44,16.74-71,25.6-16.87,6.35-33.57,13.18-50.17,20.23-20.72,8.8-41.31,17.93-61.86,27.14-12.76,5.72-25.33,11.86-38,17.81h-2c-9.36-2.81-15.11-9-17.32-18.49-2.85-12.21-5.92-24.39-8.37-36.68-3.13-15.71-5.8-31.52-8.52-47.31-1.12-6.47-1.87-13-2.79-19.52ZM343.07,100.62l1.72.34c1.08-8,3-16.08,3.08-24.13.28-22.38-10.43-39.78-27.67-52.78C309.91,16.28,297.93,10.77,286.86,4a11.68,11.68,0,0,1-4.68-5.54C276.06-18.85,263.89-29,246-32.15c-6.72-1.2-13.63-1.35-20.57-2-2.59-11.11-9.72-15.25-20.29-17.91C189.47-56,173.54-54.59,158-50.94c-14.54,3.41-25.16,11.77-27.72,27.37-.91,5.61-.14,11.48-.14,18.44-3-1.42-4.84-2-6.36-3.06-15-10.42-31-14.32-49.22-10.09C56.08-14,46.05-3.23,44.66,15.32a5.71,5.71,0,0,1-2,3.44c-4,3.43-8.3,6.51-12.24,10C16.63,41.06,6.86,56.19-.31,73.14-5.31,85-8.81,97.15-9,110A84.23,84.23,0,0,0,2.79,155c2.86,4.79,6.43,9.16,10.45,14.82,1.63-6.3,2.68-10.9,4-15.41A14.14,14.14,0,0,0,16.48,144c-3.34-7.68-6.44-15.61-4.73-25.84L27,129.2c3.22-6.35,6.71-12.51,9.47-19,1.12-2.62,1-5.92.87-8.88C37,95,36.2,88.78,35.59,82.5l1.73-.71c3.41,2.45,7,4.75,10.22,7.39s5.61,2.47,9.35.13c6.86-4.29,14.45-7.42,21.73-11L80,79.86c-.66,1.46-1.28,2.94-2,4.38-4.31,8.67-9.64,17-12.75,26.06-9,26.34-8.21,52,8.48,75.59,5.43,7.67,12.41,13.59,22.44,16,0-3.9-.12-7.38,0-10.86.25-5.7-.43-10.86-3.76-16-4-6.07-4.84-13.34-5.18-21.42l12.37,5.84c-1-12.64-10-22.74-6.86-35.79l12.88,7.21c1.24-1.83,2.48-3.57,3.62-5.37,4-6.33,8.7-12.18,6.15-20.83-1.3-4.4-.23-9.5-.23-14.28l1.39-1.1c2.44,2.18,5,4.26,7.29,6.54,5.87,5.75,5.83,5.79,13.36,2.75.77-.31,1.47-.78,2.26-1,4.24-1.33,8.5-2.62,12.75-3.92A13.57,13.57,0,0,1,148.75,99c-17,18.21-10.82,44.53,12.06,51.35,11.38,3.4,20.15.73,27.08-8.76a35.24,35.24,0,0,0,6.38-27.24c-.68-4.33-1.64-8.61-2.47-12.91,25.07,30.21,45.45,63.3,63.15,96.91L277.82,176a24.65,24.65,0,0,0-1.55-3.22c-12.94-20.58-27.36-40.09-44.28-57.56-9.23-9.52-19.34-18.18-29-27.32-1-1-1.47-2.58-2.92-5.26,9.76,1.43,18,2.72,26.33,3.79,1.74.23,4.09.29,5.27-.66,2-1.6,3.13-4.17,4.81-6.18s3.75-4.08,5.63-6.11l2.14.66C245,81,245.65,88,246.41,94.9a6.83,6.83,0,0,0,1.15,3.38c1.65,2.08,3.59,3.93,5.56,6l15.82-11.6,1.94.89c-.68,6.55-.84,13.2-2.2,19.59-1,4.87-.28,8.21,3.77,10.66l12.48-9.9c-.15,12.7-5.2,24.08,1.57,35.1a59,59,0,0,0,9.81-31.77c.47-14.7-1.95-29-4.95-43.29-1.22-5.8-2.19-11.65-3.27-17.47l1.24-.7,22.93,14.48c3.53-4.11,6.75-7.87,10-11.64l1.95.46c.93,5.41,1.75,10.85,2.84,16.23.53,2.65,1,5.6,2.47,7.71C333.74,89.11,338.51,94.8,343.07,100.62ZM172.43,414.4c-17-14.82-11.32-33-7.09-51.09-5.4,6.55-10.16,13.34-15.47,19.66-7.91,9.4-15.75,19-27.48,24.09-8.49,3.69-17,3.86-24.58-1.67-7.92-5.81-14.57-12.73-12.37-24.12,2.74-14.13,5.19-28.33,7.8-42.49.64-3.54,1.39-7,2.1-10.58-1.62.13-2.34.56-2.79,1.18-14.38,19.91-29.15,39.56-43,59.84C34,412.05,19.31,435.49,4,458.52a13.15,13.15,0,0,1-7,5,196.71,196.71,0,0,1-23.65,5c-8.27,1.15-13.79-2.14-14.59-9.14s-.25-14.23.19-21.32c.41-6.53,4.75-10.62,9.89-14.08a17.92,17.92,0,0,0,4.56-4.38c8.09-11.49,15.67-23.35,24.12-34.56,20.05-26.6,40.5-52.89,60.77-79.32,3.33-4.34,6.63-8.71,10.65-14-7.08,1.13-12.82,1.82-18.47,3-27,5.58-54.14,10.75-81,17.09a724.09,724.09,0,0,0-95.94,30c-15.47,6-30.83,12.35-45.94,19.2-7.16,3.26-13.15,8.36-13.24,17.53,0,3.63-.74,7.25-.75,10.88,0,22.24-1.71,44.67.53,66.69,2.34,22.92,8.4,45.48,13.05,68.15,1.45,7.05,3,14.19,5.67,20.85,2.1,5.34,5,8,12,4.42C-142,542.72-129,536-115.64,529.86c16.87-7.77,33.8-15.51,51.08-22.32C-30.19,494,4.17,480.33,39.05,468.19c29.58-10.3,59.85-18.61,89.88-27.56,7.21-2.15,15-2.74,18.89-10.71a8.46,8.46,0,0,1,3.35-2.94C158.09,422.81,165.07,418.74,172.43,414.4Zm155.12-83-1.26-1.57c1.86-1.35,3.82-2.59,5.58-4.06,6.88-5.75,13.68-11.59,20.54-17.36,18.89-15.9,34.82-34.14,44-57.4,4.86-12.29,8.11-24.94,5-38.41-6.09-26.44-32-43-59.31-44.4-20.13-1-37.52,7.07-54.33,16.78-8.87,5.13-16.48,11.77-21.94,20.62a38.41,38.41,0,0,1-16.13,14.3,53.49,53.49,0,0,0-11.62,8.46c-6.07,5.52-7,9.3-4.59,14.82,3.09,7.08,9.31,11.23,16.31,10.83,9.65-.56,16.35-6.63,23.2-12.44a102.88,102.88,0,0,1,62.08-24.88c23.59-1.42,35.24,25,28.24,40.25a80.92,80.92,0,0,1-13.46,20.62c-12.47,13.61-28.17,23.15-44.4,31.63-13.33,7-27.12,13.09-40.46,20.07-3.06,1.61-6.55,4.85-7.32,8-4.17,16.75,4.1,43,30.74,43.68,18.84.49,37.41-1.56,56-4.38a419.83,419.83,0,0,1,43.45-4.41c8.49-.4,17.15,1.08,24.82,5.72,5.43,3.29,8.73,8,8.19,14.31-.85,10.09-5.7,18.13-14.07,24.07-11.12,7.89-23.74,11.06-37,13.2a180.38,180.38,0,0,1-49.19,1.38c-17.54-2-34.91-5.69-52.24-9.17-25.29-5.08-50.52-6.77-75.82-.4-12.23,3.08-24.09,7.09-34.34,14.79-7.93,6-9.11,16.22-1.72,22.53,5,4.25,7.31,9.41,9.72,15.09,4.6,10.83,11.56,19.66,23.31,23.62,5.23,1.77,9.44,1,13.24-3.52A51.57,51.57,0,0,1,238.46,475c16.46-1.55,33.06-1.75,49.61-2,8.09-.12,16.19,1.37,24.3,1.51,13.59.24,27.33,1.19,40.74-.35,19.83-2.29,39-8.15,57.65-15.35,22.77-8.77,40.75-22.64,51.51-45.34,17.94-37.86-1-78.32-41.07-88.54-24.61-6.28-49-4.78-73.4.72C341,327.23,334.29,329.45,327.55,331.36ZM120.9,276.78l.74.76c-4,14.17-8.49,28.22-11.75,42.55C105,341.52,101,363.14,96.68,384.7a5,5,0,0,0,.67,3.63C105.11,398,111,402.81,123.07,393a148,148,0,0,0,23.55-24.8c17.9-23.2,35.06-47,52.56-70.48a36.92,36.92,0,0,1,3.91-3.9l1,.71c-2.73,7.93-5.28,15.93-8.24,23.77-6.6,17.46-13.67,34.75-20,52.3-3.14,8.7-5.44,17.77-1.76,27.15,2.55,6.51,7.85,9.64,14.7,8.3,2.4-.47,5.42-1.77,7.15-.83,4.14,2.23,7.48,1,10.57-1.21,6.46-4.55,13.05-9,18.79-14.42,3.22-3,5.46-7.53,6.95-11.78.68-1.93-.93-5.57-2.68-7.09-.91-.8-4.61.89-6.59,2.17-2.44,1.57-4.14,4.34-6.64,5.74a6.82,6.82,0,0,1-6,0c-1.18-.76-1.63-3.61-1.39-5.39a55.3,55.3,0,0,1,2.6-10.51c8-23.12,16.34-46.15,21.58-70.11,1.84-8.4,4-16.9,1.35-25.56-2.44-7.94-9.13-11.32-16.21-7a139,139,0,0,0-22.27,16.52c-19.65,18.1-34.68,40.15-50.9,61.17-3.42,4.44-6.79,8.9-10.18,13.36a3.43,3.43,0,0,1-.52-2.93c6.28-21.61,12.28-43.31,19-64.78,4.58-14.63,9.15-28.83,2.81-44.26-3.81-9.26-9.51-12.43-16.85-5.79a442.68,442.68,0,0,0-37.78,38.12c-16.82,19.43-32.88,39.55-48.47,60C31,360.54,9.54,390.2-12.29,419.57c-3.31,4.46-6.24,9.7-10.61,12.77-9.45,6.63-8.79,15.44-6.57,25.05,6.06-1.17,12.13-2.58,18.27-3.43,3.89-.54,6.1-2.67,8-5.72,8.72-13.65,17.44-27.3,26.31-40.86,25.47-39,52.37-76.93,82.12-112.79C110.32,288.52,115.68,282.71,120.9,276.78ZM475,538.54a7.29,7.29,0,0,0-.91-1.36c-28.83-21.84-60.09-39-94.87-49.41-5.65-1.69-11.9-3.91-17.41-3-21,3.37-41.85,1.44-62.74.45-18.44-.86-36.84-2.32-55.25.2-13,1.78-24.67,6.18-33.31,16.86-5.3,6.56-12.55,8.1-20.69,6.7-8.57-1.48-15.49-5.94-21.45-11.89-2.35-2.34-4.39-2.68-7.48-2.12C120.48,502.26,81,512.68,42.58,527.21c-9,3.41-17.93,7-26.89,10.59l.31.74Zm4.48-164.9c1.44,0,2.58.07,3.71,0,36.67-2.58,73.31-5.48,110-7.65,26.23-1.55,52.52-2,78.76-3.24A55.46,55.46,0,0,0,686,359.86c5.34-1.72,6.17-5.22,2.39-9.49A27.61,27.61,0,0,0,680.8,344c-11-5.75-21.94-11.87-33.45-16.47-42.43-17-86.38-28.49-131.48-35.86A1141.71,1141.71,0,0,0,398.35,279a8.24,8.24,0,0,0-5.64,2.71c-3.66,4.07-6.7,8.68-10.28,12.83-4.67,5.41-9.64,10.58-14.79,16.2,18.92-2,37.09-1.56,55.05,3.06,17.8,4.58,32.76,13.39,44,28.27C473.72,351.46,477.25,362.21,479.44,373.64Zm-253.79-15.4c13,1.16,19,7.56,18.28,19.31-.41,6.8-3.5,12.37-7.67,17.43-2.87,3.5-6.06,6.73-9.16,10.15,8.82.83,17.39,1.47,25.92,2.48,5.42.64,10.79,1.74,16.16,2.78,7.37,1.42,9.3-.07,9.1-7.28a56.69,56.69,0,0,1-.07-6c.36-4.54-.81-7.54-6-8.25-2.33-.32-4.59-1.86-6.65-3.19-15.81-10.22-22.36-30.62-19.73-48,1.31-8.7,5.65-15.45,14.16-19a98.66,98.66,0,0,0,11.23-5.21c1.31-.75,2.71-2.92,2.59-4.32-.86-9.75-2.1-19.46-3.25-29.19-.29-2.42-1.3-3.86-4.19-3.68-5.13.33-10.29.45-15.44.38-2.94,0-3.88,1.16-4.46,4-2.64,12.76-5.14,25.58-8.54,38.15C234.36,332,229.85,344.89,225.65,358.24Zm57.43-50.12c12.42-7.16,24.81-14.23,37.05-21.55,1-.58,1.6-3.12,1.24-4.42-4.46-15.75-9.12-31.44-13.82-47.43-13.17,4-22.68,12.11-32.06,20.34-.75.65-.9,2.48-.7,3.66C277.41,274.75,280.15,290.75,283.08,308.12Zm3.61,85.48c0,5.5-.25,11.15.17,16.76.11,1.4,2.19,3.52,3.67,3.82,9.46,1.91,19,3.79,28.54,4.91,8.3,1,16.72.91,25.8,1.34l-3.48-30.9Zm27.72-162.29c3.48,10.6,6.88,20.64,10,30.76.88,2.82,2.05,4.06,5.22,3.81,4.46-.36,9,0,13.46-.18a5.56,5.56,0,0,0,3.79-1.53c4.49-5.9,8-12.13,7-20.08-.93-7.33-7.28-15.23-13.59-15.91A56.43,56.43,0,0,0,314.41,231.31Zm95.09,162-58.16,10.82c.59,5.9,1.06,10.75,1.53,15.49,13.67.94,34.36-4,45-10.65C403.38,405.51,407.77,401.18,409.5,393.27Zm-13-8.63c-15.93-2.69-31.52-.83-47.36,2.43.47,2.39.84,4.26,1.23,6.22ZM166.24,280.71c-1.79,5.47-3.44,10.55-5.1,15.63l.72.35L176,280Zm100.87-19.62-18.93,4.62h19.89C267.67,263.81,267.35,262.24,267.11,261.09Z" transform="translate(199 61)"  fill="white"/></svg>