<svg id="Warstwa_1" data-name="Warstwa 1" xmlns="http://www.w3.org/2000/svg" viewBox="0 0 520.61 162.37"><title>namco22</title><path d="M47.07,126.38c2.26-.1,4-.24,5.85-.25q49,0,98,0c11.35,0,17.91,6.53,17.94,18,0,15.16-.28,30.32-.16,45.48,0,4.06-1.49,5.17-5.25,5-5.63-.22-11.27,0-17.62,0v-5.86c0-13-.11-26,0-39,0-3.4-.9-4.77-4.49-4.62-6,.25-12,.23-18,0-3.35-.12-4.26,1.16-4.23,4.35.13,12.83,0,25.66,0,38.5v6.77c-6.76,0-13.19.18-19.58-.21-.9-.05-2.33-2.84-2.36-4.38-.21-12.83-.14-25.67-.16-38.5V146H69.34V194.1H47.07Z" transform="translate(150.76 -124.03)" fill="white"/><path d="M10.89,150.05v-7.86H-47.63c0-4.79-.2-9.08.16-13.33.08-.94,2.16-2.43,3.33-2.44,21.16-.15,42.33-.32,63.48,0,9.36.14,16.45,7.87,16.52,17.31.1,15.49-.17,31-.09,46.48,0,3.54-1.28,4.57-4.68,4.56-22.82-.11-45.65,0-68.48-.09-8.46,0-13.2-3.71-16.07-11.66-2.53-7-2.37-14.08-.49-21.1,2.13-8,7.4-11.8,15.72-11.83q21.74,0,43.48,0C7,150,8.84,150.05,10.89,150.05Zm-40.7,26.79H12a34.58,34.58,0,0,1,0-4.37c.65-4.68-1-6.58-6-6.26-6.12.39-12.28.08-18.43.08H-29.81Z" transform="translate(150.76 -124.03)" fill="white"/><path d="M321.16,196.11H289.68c-8.9,0-15-5.16-15.29-14-.39-13.81-.42-27.66,0-41.47.32-10.12,7-16.37,17.07-16.47,20.32-.19,40.65-.16,61,0,9.77.07,17,7.22,17.23,17.07.26,13,.23,26,0,39-.16,9.57-7,15.92-16.54,15.92Zm25.12-16.33V142.66H297.36v37.12Z" transform="translate(150.76 -124.03)" fill="white"/><path d="M92,266.93c-12.24,5.09-24.41,5.65-36.48-.57-4.26,4.74-20.7,5.3-25.38,2.73-3.41-1.87-4.35-4.82-4.35-8.35v-23.3l-5.41-.28c-.12,2.24-.23,4.19-.41,7.52-2-1.08-4-1.56-5-2.81C10.31,236,2,233.44-4.59,236.4c-1.44.64-3.32,2.49-3.28,3.72a5.79,5.79,0,0,0,3,4.39c5,1.76,10.21,2.75,15.28,4.28a37.77,37.77,0,0,1,8.69,3.48c5.44,3.27,5.94,9.3.94,13.24A26,26,0,0,1,10.75,270a32.69,32.69,0,0,1-10.4.8c-6-.4-11.92-1.34-18.79-2.16-.13-2.94-.32-7-.59-12.71,2.53,1.5,4.37,2,5.27,3.23,5,6.68,11.65,9.13,19.67,8.22,3.42-.39,7.47-.74,7.83-5.33s-3.66-5-6.73-5.89c-4.13-1.2-8.43-1.82-12.55-3.06-5.78-1.74-11.7-3.53-12.66-12.12-5.19,8-9.58,15.17-14.41,22-4.38,6.23-8.81,12.53-14,18.07-5,5.35-11.74,6.75-18.76,4-1.38-.55-3.32-2.87-3-3.76.48-1.54,2.6-3.77,3.85-3.65,3.58.32,7.06,1.67,10.59,2.62l.59,1.91c3.43-3.68,7-7.27,10.19-11.15.59-.71.2-2.85-.45-3.9-5.52-8.9-11.19-17.72-16.87-26.53-.61-.95-1.48-2.23-2.4-2.4-5.33-1-7-5.14-9.37-9.3-4.8-8.53-17.13-12.07-25.7-7.57-2.17,1.13-4.67,3.95-4.75,6.07s2.14,5.6,4.2,6.49c5.88,2.54,12.21,4,18.31,6,4.4,1.45,9,2.63,13,4.78,8.24,4.39,9.1,13.3,1.94,19.32-8.06,6.77-17.86,7.42-27.81,6.82a72.57,72.57,0,0,1-7.82-1.33c-3.73-.64-7.45-2.93-11.14.41-.59.53-2.21-.06-3.93-.17V252.24c2.79-1.24,4.41-.2,6,2.41a26.18,26.18,0,0,0,30.11,11.9c3.87-1.1,7.35-3.18,7.58-7.58.21-4.24-2.52-7.32-6.36-8.65-5.76-2-11.76-3.31-17.59-5.14-3.93-1.22-8-2.37-11.56-4.36-8.58-4.81-8.88-14.21-.73-19.75,6.73-4.58,14.49-5.75,22.4-5.13,6.8.54,13.54,1.82,21.46,2.93.21,3.35.51,8.24.88,14.14,4.41,0,8.84-.11,13.25.05a32.51,32.51,0,0,1,5.43,1.11l-4.54,4,13.79,22.07c4.73-7.58,9-14.46,13.31-21.36l-6.8-4.4.73-1c9.25-.48,18.5-1.28,27.76-1.36,8.8-.07,17.6.61,26.71,1,.23-3.87.42-7.14.64-10.75H36.62c.25,3.47.47,6.73.71,10.13,5.31.58,10.43,1.12,15.54,1.8A13.7,13.7,0,0,1,53,237H37.45c0,8.28-.23,16.19.2,24.07.08,1.5,2.54,3.71,4.24,4.1,3.39.77,7,.51,11,.69-.38-1.37-.37-1.94-.65-2.24-9.34-9.87-5.82-26.49,13.17-30.73A38.54,38.54,0,0,1,91,236.05l-.1-.1c3.69,4,6.66,8.2,5,14.68H59.61C59.55,257,61.5,261.69,67,264c8.41,3.5,16.61,3.66,24.28-2.33,1.38-1.08,3.56-1.14,5.38-1.67L98,262.28l-6.13,4.79Zm-7.58-20.25c-.91-8.34-4.2-11.57-11.48-11.5-7.51.07-12.54,4.36-13.1,11.5Z" transform="translate(150.76 -124.03)" fill="white"/><path d="M-87.37,145.65h-40v49.21c-7.54,0-14.45.08-21.36-.12-.7,0-1.92-1.8-1.93-2.76-.11-21.79-.09-43.59-.09-65.92,2.11-.17,3.86-.43,5.6-.43q30,0,60,0c5.38,0,11,0,14.94,4.14,2.71,2.86,5.91,6.78,6,10.32.61,18,.28,36,.28,54.41H-87.37Z" transform="translate(150.76 -124.03)" fill="white"/><path d="M262.87,144.61H203v32.8h60V195c-1.55.12-2.83.3-4.12.3-20.64,0-41.29.08-61.93,0-10.73,0-17.63-7.12-17.67-17.88,0-11.49-.08-23,0-34.47.08-9,5.44-15.94,14.31-16.16,22.92-.55,45.87-.18,69.25-.18Z" transform="translate(150.76 -124.03)" fill="white"/><path d="M307.72,279.16H260.49A30.75,30.75,0,0,1,269,259.28c5.65-6.1,11.82-11.73,17.47-17.83a29.27,29.27,0,0,0,5.63-8.64c1.93-4.76-.4-9.53-4.44-10.57-5.15-1.32-9,1.09-10.36,6.56-.25.95-.4,1.92-.74,3.53L260.9,231c1.88-5,2.85-9.77,5.29-13.61,5.64-8.85,22-11.38,32.19-5.53,9.06,5.23,12.77,16.8,7.39,27.07-3.16,6-8.24,11.12-12.75,16.39-2.65,3.11-5.87,5.73-8.83,8.57l.37,1.31h23.16Z" transform="translate(150.76 -124.03)" fill="white"/><path d="M223.6,232.45,209.54,231c-.61-10,3.87-17.89,13-20.21a41.11,41.11,0,0,1,18.51-.65c12.06,2.69,17.78,15.8,12.11,27.92-2.87,6.13-8,11.3-12.4,16.6-2.82,3.37-6.31,6.18-9.5,9.24l.47,1.23H255v13.91H207.7c.14-7.65,3.2-14,8-19.34,5.69-6.29,11.93-12.09,17.76-18.26a30.3,30.3,0,0,0,5.19-7.21c2.46-5,.68-10.49-3.44-11.91-5.21-1.81-9.51.88-11,6.89C224.06,230.05,223.92,230.85,223.6,232.45Z" transform="translate(150.76 -124.03)" fill="white"/><path d="M91,236.05c1.11-.84,2.16-2.3,3.33-2.41,5.27-.51,10.58-.63,16.11-.9.33,1.92.58,3.34.88,5.07,1.08-.48,2.13-.84,3.08-1.38,7.06-4.07,15.29-6.89,22.27-3,7.19,4.06,12.58,3.26,19.13,0,2.65-1.33,6.18-1.5,9.26-1.3,9.48.62,15.78,3.9,15,15.38-.26,4,.1,8-.08,12s.38,7,5.11,7.48c.61.07,1.16.81,1.74,1.25-.45.54-.9,1.56-1.35,1.56-7.31,0-14.62-.1-21.93-.25-.19,0-.36-.79-.85-1.92,8.11-.45,6.18-6.39,6.28-11.24.08-4,.08-8-.12-12-.22-4.55-3-6.8-7.34-7.3a28.79,28.79,0,0,0-5,0c-7.76.49-10.83,3.72-10.87,11.42,0,3.67.15,7.34,0,11-.19,3.88.36,7,5.07,7.57.51.06.91,1,2,2.35H128.27c-.15-.34-.3-.68-.46-1a8.66,8.66,0,0,1,2.63-1.41c3.35-.46,4.39-2.47,4.35-5.56-.07-5,.09-10,0-15-.17-6.59-3-9.47-9.57-9.3a33,33,0,0,0-8.7,1.51c-3.84,1.19-6,3.69-5.58,8.18A91.89,91.89,0,0,1,111,260.3c-.23,3.63,1.09,5.65,4.58,6.5a11.37,11.37,0,0,1,2.67,1.52l-.42,1.59c-8,0-16.08.06-24.12-.13-.57,0-1.09-1.86-1.64-2.85l-.13.14c8.18-.35,8.19-.35,8.21-8.57,0-4.16,0-8.32,0-12.48,0-8.21-.76-9-9.17-10.07Z" transform="translate(150.76 -124.03)" fill="white"/></svg>