<?xml version="1.0" encoding="utf-8"?>
<svg version="1.1" viewBox="0 0 3840 972.9" xmlns="http://www.w3.org/2000/svg">
  <path class="st1" d="M 0.5 -0.4 L 0.5 490.7 L 171 490.7 L 171 142.4 L 451.4 142.4 L 451.4 490.7 L 621.9 490.7 L 621.9 146.6 C 621.9 65.4 556.1 -0.4 474.9 -0.4 L 0.5 -0.4 Z" style="fill: rgb(255, 255, 255);"/>
  <path class="st1" d="M 699.7 -0.4 L 699.7 121.8 L 1184.5 121.8 L 1184.5 173.8 L 846.7 173.8 C 765.5 173.8 699.7 239.6 699.7 320.8 L 699.7 343.7 C 699.7 424.9 765.5 490.7 846.7 490.7 L 1354.9 490.7 L 1354.9 146.7 C 1354.9 65.5 1289.1 -0.3 1207.9 -0.3 L 699.7 -0.3 Z M 870.1 368.5 L 870.1 296 L 1184.4 296 L 1184.4 368.6 L 870.1 368.6 Z" style="fill: rgb(255, 255, 255);"/>
  <path class="st1" d="M 1449.9 -0.4 L 1449.9 490.7 L 1620.4 490.7 L 1620.4 142.4 L 1813.7 142.4 L 1813.7 490.7 L 1984.2 490.7 L 1984.2 142.4 L 2177.5 142.4 L 2177.5 490.7 L 2348 490.7 L 2348 146.6 C 2348 65.4 2282.2 -0.4 2201 -0.4 L 1449.9 -0.4 Z" style="fill: rgb(255, 255, 255);"/>
  <path class="st1" d="M 2433.4 146.6 L 2433.4 343.6 C 2433.4 424.8 2499.2 490.6 2580.4 490.6 L 3047.5 490.6 L 3047.5 347.9 L 2603.9 347.9 L 2603.9 142.4 L 3047.5 142.4 L 3047.5 -0.4 L 2580.4 -0.4 C 2499.1 -0.4 2433.4 65.4 2433.4 146.6 Z" style="fill: rgb(255, 255, 255);"/>
  <path class="st1" d="M 3133.1 146.6 L 3133.1 343.6 C 3133.1 424.8 3198.9 490.6 3280.1 490.6 L 3692.6 490.6 C 3773.8 490.6 3839.6 424.8 3839.6 343.6 L 3839.6 146.6 C 3839.6 65.4 3773.8 -0.4 3692.6 -0.4 L 3280.2 -0.4 C 3198.8 -0.4 3133.1 65.4 3133.1 146.6 Z M 3303.5 368.5 L 3303.5 121.8 L 3669.1 121.8 L 3669.1 368.5 L 3303.5 368.5 Z" style="fill: rgb(255, 255, 255);"/>
  <path class="st1" d="M 323 871.3 C 323 842.2 305.6 823.5 263.9 823.5 L 90.5 823.5 C 25.3 823.5 0.5 793.9 0.5 750.5 L 0.5 739.2 C 0.5 695.7 25.3 666.2 90.5 666.2 L 338.2 666.2 L 338.2 691 L 90.5 691 C 49.6 691 31.8 711.4 31.8 738.8 L 31.8 751 C 31.8 780.6 49.6 798.8 90.5 798.8 L 263.9 798.8 C 329.1 798.8 353.9 828.4 353.9 871.4 L 353.9 899.7 C 353.9 942.7 329.1 972.3 263.9 972.3 L 10.1 972.3 L 10.1 947.4 L 263.8 947.4 C 305.1 947.4 322.9 928.3 322.9 899.6 L 322.9 871.3 Z" style="fill: rgb(255, 255, 255);"/>
  <path class="st1" d="M 637.6 972.1 L 637.6 841.7 L 439.4 666.2 L 479.8 666.2 L 653.2 819.2 L 826.6 666.2 L 866.6 666.2 L 668.9 841.7 L 668.9 972.1 L 637.6 972.1 L 637.6 972.1 Z" style="fill: rgb(255, 255, 255);"/>
  <path class="st1" d="M 1263.7 871.3 C 1263.7 842.2 1246.3 823.5 1204.6 823.5 L 1031.2 823.5 C 966 823.5 941.2 793.9 941.2 750.5 L 941.2 739.2 C 941.2 695.7 966 666.2 1031.2 666.2 L 1279 666.2 L 1279 691 L 1031.3 691 C 990.4 691 972.6 711.4 972.6 738.8 L 972.6 751 C 972.6 780.6 990.4 798.8 1031.3 798.8 L 1204.7 798.8 C 1269.9 798.8 1294.7 828.4 1294.7 871.4 L 1294.7 899.7 C 1294.7 942.7 1269.9 972.3 1204.7 972.3 L 950.8 972.3 L 950.8 947.4 L 1204.5 947.4 C 1245.8 947.4 1263.6 928.3 1263.6 899.6 L 1263.7 871.3 L 1263.7 871.3 Z" style="fill: rgb(255, 255, 255);"/>
  <path class="st1" d="M 1550.9 972.1 L 1550.9 690.9 L 1385.7 690.9 L 1385.7 666.1 L 1741.2 666.1 L 1741.2 690.9 L 1581.7 690.9 L 1581.7 972 L 1550.9 972 Z" style="fill: rgb(255, 255, 255);"/>
  <path class="st1" d="M 1851.5 972.1 L 1851.5 666.2 L 2150.4 666.2 L 2150.4 691 L 1882.7 691 L 1882.7 797.9 L 2138.2 797.9 L 2138.2 822.7 L 1882.7 822.7 L 1882.7 947.5 L 2150.4 947.5 L 2150.4 972.3 L 1851.5 972.1 L 1851.5 972.1 Z" style="fill: rgb(255, 255, 255);"/>
  <path class="st1" d="M 2685 972.1 L 2685 715.2 L 2505.6 972 L 2479.9 972 L 2300.5 715.7 L 2300.5 972 L 2271.4 972 L 2271.4 666.2 L 2301 666.2 L 2493.9 942.1 L 2686.8 666.2 L 2714.2 666.2 L 2714.2 972.1 L 2685 972.1 L 2685 972.1 Z" style="fill: rgb(255, 255, 255);"/>
  <path class="st1" d="M 3119.1 972.1 L 3119.1 873.9 C 3119.1 830 3144.3 800 3210.4 800 L 3331.2 800 C 3371.2 800 3388.6 780.9 3388.6 754.8 L 3388.6 735.7 C 3388.6 710.1 3371.2 690.9 3331.2 690.9 L 3134.8 690.9 L 3134.8 666.1 L 3331.2 666.1 C 3394.7 666.1 3419.9 696.1 3419.9 735.6 L 3419.9 754.4 C 3419.9 794.8 3394.7 824.8 3331.2 824.8 L 3210.4 824.8 C 3167.8 824.8 3150.4 843.9 3150.4 873.9 L 3150.4 947.4 L 3419.8 947.4 L 3419.8 972.2 L 3119.1 972.1 L 3119.1 972.1 Z" style="fill: rgb(255, 255, 255);"/>
  <path class="st1" d="M 3538.7 972.1 L 3538.7 873.9 C 3538.7 830 3563.9 800 3630 800 L 3750.8 800 C 3790.8 800 3808.2 780.9 3808.2 754.8 L 3808.2 735.7 C 3808.2 710.1 3790.8 690.9 3750.8 690.9 L 3554.4 690.9 L 3554.4 666.1 L 3750.8 666.1 C 3814.3 666.1 3839.5 696.1 3839.5 735.6 L 3839.5 754.4 C 3839.5 794.8 3814.3 824.8 3750.8 824.8 L 3630 824.8 C 3587.4 824.8 3570 843.9 3570 873.9 L 3570 947.4 L 3839.4 947.4 L 3839.4 972.2 L 3538.7 972.1 L 3538.7 972.1 Z" style="fill: rgb(255, 255, 255);"/>
</svg>