<?xml version="1.0" encoding="utf-8"?>
<svg version="1.1" viewBox="0 0 3839 835.4" xmlns="http://www.w3.org/2000/svg">
  <rect x="839" y="511.3" class="st2" width="611.3" height="120.1" style="fill: rgb(255, 255, 255);"/>
  <rect x="3718.9" y="48.7" class="st2" width="120.1" height="722.8" style="fill: rgb(255, 255, 255);"/>
  <polygon class="st2" points="3464.2 48.7 3038.3 541.9 2612.5 48.7 2612.5 771.4 2732.6 771.4 2732.6 371.4 3038.3 725.7 3344.1 371.4 3344.1 771.4 3464.2 771.4" style="fill: rgb(255, 255, 255);"/>
  <rect x="591" y="48.7" class="st2" width="120.1" height="600.4" style="fill: rgb(255, 255, 255);"/>
  <rect y="164.1" class="st2" width="120.1" height="607.4" style="fill: rgb(255, 255, 255);"/>
  <polygon class="st2" points="711 616.2 711 771.4 0 188.9 0 33.7" style="fill: rgb(255, 255, 255);"/>
  <path class="st2" d="M 2079.5 0 C 1848.9 0 1661.8 187 1661.8 417.7 C 1661.8 648.4 1848.8 835.4 2079.5 835.4 C 2310.1 835.4 2497.2 648.4 2497.2 417.7 C 2497.2 187 2310.2 0 2079.5 0 Z M 2079.5 120.1 C 1915.1 120.1 1781.9 253.3 1781.9 417.7 C 1781.9 582.1 1915.1 715.3 2079.5 715.3 C 2243.9 715.3 2377.1 582.1 2377.1 417.7 C 2377.1 253.3 2243.9 120.1 2079.5 120.1 Z M 2079.5 693.7 C 1927.2 693.7 1803.5 569.8 1803.5 417.7 C 1803.5 265.4 1927.4 141.7 2079.5 141.7 C 2231.8 141.7 2355.5 265.6 2355.5 417.7 C 2355.6 569.9 2231.7 693.7 2079.5 693.7 Z M 2079.5 715.3 C 1915.1 715.3 1781.9 582.1 1781.9 417.7 C 1781.9 253.3 1915.1 120.1 2079.5 120.1 C 2243.9 120.1 2377.1 253.3 2377.1 417.7 C 2377.1 582 2243.9 715.3 2079.5 715.3 Z" style="fill: rgb(255, 255, 255);"/>
  <polygon class="st2" points="975.2 771.4 1242.7 282.5 1510.3 771.4 1647.1 771.4 1242.7 32.5 838.3 771.4" style="fill: rgb(255, 255, 255);"/>
</svg>