<?xml version="1.0" encoding="utf-8"?>
<!-- Made by Szalik  -->
<svg version="1.1" id="Warstwa_1" xmlns="http://www.w3.org/2000/svg" xmlns:xlink="http://www.w3.org/1999/xlink" x="0px" y="0px" xml:space="preserve">
<g>
	<g>
		<path d="M-68.51,248.2c-0.09,1.57-0.26,3.14-0.25,4.71c0.14,15.16,0.65,30.32,0.38,45.47c-0.23,12.96,0.53,11.83-12.15,12.34
			c-11.73,0.47-12.22-0.28-12.14-12.27c0.19-25.99,0.5-51.98,0.59-77.98c0.01-3.5,1.09-4.62,4.56-4.56
			c8.33,0.15,16.68,0.3,24.98-0.22c5.95-0.38,8.87,2.61,11.01,7.37c4.78,10.6,9.61,21.18,14.36,31.79
			c3.53,7.88,6.94,15.82,10.46,23.7c0.58,1.29,1.5,2.43,3.36,3.45c0.11-1.34,0.34-2.68,0.32-4.02c-0.22-16.16-0.49-32.31-0.73-48.47
			c-0.03-2.17,0.08-4.34-0.03-6.5c-0.24-4.93,1.72-7.51,6.97-7.19c3.48,0.21,7,0.31,10.48,0.05c5.35-0.4,7.16,2.52,7.18,7.16
			c0.02,6.5-0.2,12.99-0.21,19.49C0.61,261.34,0.63,280.17,0.63,299c0,12.06-0.07,12.16-12.35,11.97
			c-7.16-0.11-14.33-0.57-21.49-0.45c-4.73,0.08-7.08-1.98-8.9-6.21c-7.55-17.54-15.41-34.96-23.19-52.4
			c-0.62-1.39-1.52-2.65-2.29-3.96C-67.89,248.03-68.2,248.11-68.51,248.2z" fill="white"/>
		<path d="M245.73,305.96c-1.29,5.06-4.73,5.34-8.65,5.09c-3.48-0.22-6.99-0.02-10.49-0.03c-6.13-0.02-7.11-1.06-7.14-7.32
			c-0.07-14.65-0.17-29.3-0.25-43.96c-0.07-12.16-0.16-24.31-0.19-36.47c-0.02-6.6,0.81-7.37,7.57-7.38
			c3.83-0.01,7.66,0.03,11.49,0.09c5.85,0.09,6.78,1.12,6.72,7.19c-0.07,6.99-0.15,13.99-0.13,20.98c0.01,2.26,0.32,4.52,0.56,7.66
			c2.06-1.1,3.5-1.74,4.81-2.6c10.32-6.76,21.29-7.85,32.14-2.18c10.65,5.56,14.09,15.8,14.86,27.12
			c0.58,8.46-0.86,16.54-4.83,24.11c-8.07,15.4-24.75,20.36-39.8,11.77C250.38,308.89,248.43,307.62,245.73,305.96z M243.54,280.66
			c1.47,4.32,2.45,9.7,5.02,14.15c3.82,6.62,12.46,6.62,17.34,0.69c5.78-7.02,6.43-23.89,1.25-31.35c-2.89-4.16-7-5.46-11.77-5
			c-4.52,0.43-7.3,3.26-8.53,7.37C245.56,270.79,244.79,275.21,243.54,280.66z" fill="white"/>
		<path d="M136.04,251.66c6.03-2.54,11.04-5.23,16.38-6.79c14.24-4.16,32.26,5.2,32.12,23.13c-0.1,12.81-0.33,25.62-0.39,38.43
			c-0.02,3.76-1.74,4.84-5.29,4.63c-4.48-0.27-9.02-0.36-13.49-0.01c-4.69,0.36-6.45-1.91-6.45-6.08c0-7.49,0.33-14.98,0.21-22.47
			c-0.07-4.8-0.22-9.69-1.2-14.35c-1.19-5.74-4.8-8.16-10.34-8.15c-6.04,0.01-9.56,2.32-10.67,8.31c-0.9,4.85-0.81,9.91-0.91,14.88
			c-0.13,7.16-0.02,14.33-0.05,21.5c-0.01,4.26-1.34,6.92-6.46,6.41c-4.46-0.44-9-0.29-13.49-0.04c-3.65,0.2-5.25-1.43-5.5-4.81
			c-0.19-2.49-0.44-4.98-0.44-7.47c-0.05-24.33-0.04-48.66-0.07-72.98c-0.01-9.21,0.73-9.99,9.89-9.92c2.67,0.02,5.33,0.04,8,0.07
			c6.64,0.06,7.79,1.13,7.72,7.93c-0.06,6.49-0.52,12.99-0.55,19.48C135.07,246.11,135.7,248.87,136.04,251.66z" fill="white"/>
		<path d="M347.95,305.98c-1.92,1.27-3.8,2.56-5.74,3.78c-14.61,9.19-38.73,7.14-41-20.04c-1.05-12.58-0.19-25.31-0.24-37.98
			c-0.02-3.73,1.94-5.62,5.46-5.71c5.33-0.15,10.66-0.08,16-0.01c4.34,0.05,4.48,3.4,4.51,6.39c0.08,8-0.1,16-0.12,23.99
			c-0.01,3.49-0.09,7.01,0.25,10.48c0.7,7.03,4.49,10.54,10.91,10.47c6.51-0.07,10.77-4.09,10.94-11.1c0.23-9.49-0.01-19-0.04-28.49
			c-0.01-1.83-0.05-3.66,0-5.49c0.12-4.21,2.05-6.46,6.53-6.3c4.66,0.17,9.33,0.05,13.99,0.16c3.61,0.09,5.55,2.11,5.56,5.67
			c0.06,17.83,0.18,35.66-0.02,53.49c-0.06,5.58-1.75,6.7-7.43,6.71c-2.83,0.01-5.67,0-8.5,0C351.64,312,351.64,312,347.95,305.98z"
			 fill="white"/>
		<path d="M553.34,304.72c-2.96,1.99-4.97,3.4-7.03,4.73c-17.21,11.11-37.98,1.6-40.21-18.7c-0.9-8.24-0.67-16.6-0.87-24.91
			c-0.1-4.16,0.1-8.32,0.01-12.48c-0.12-5.8,0.98-7.13,6.63-7.55c3.82-0.28,7.63-0.71,11.45-0.77c7.22-0.12,8.37,0.87,8.47,8.31
			c0.11,8.99-0.23,17.99-0.29,26.98c-0.02,2.49,0.1,5.01,0.45,7.47c0.75,5.3,4.92,8.92,10.24,9.12c4.75,0.18,9.63-3.32,10.74-8.05
			c0.56-2.4,0.72-4.94,0.71-7.41c-0.04-9.33-0.27-18.66-0.32-27.99c-0.04-6.64,0.92-7.55,7.34-7.74c3.66-0.11,7.32-0.4,10.99-0.41
			c6.49-0.03,7.72,0.99,7.79,7.42c0.15,14.16,0.07,28.32,0.03,42.49c-0.01,3.81-0.08,7.63-0.38,11.43
			c-0.25,3.14-2.04,4.61-5.38,4.43c-3.82-0.2-7.66-0.02-11.49,0.01C557.97,311.12,553.33,311.85,553.34,304.72z" fill="white"/>
		<path d="M477.57,266.03c-2.02-8.66-6.89-11.8-13.07-8.95c-4.72,2.18-5.39,6.53-0.88,9.02c3.99,2.21,8.58,3.39,12.99,4.77
			c4.74,1.48,9.67,2.39,14.36,4.01c6.57,2.27,11.39,6.54,11.93,13.89c0.59,7.84-2.11,14.47-9.07,18.72
			c-9.86,6.03-20.93,6.29-31.91,5.68c-5.36-0.3-10.85-1.7-15.88-3.65c-6.25-2.41-9.8-7.74-11.5-14.2c-1.02-3.86,0.13-6.28,4.46-6.32
			c5.16-0.05,10.37-0.34,15.47,0.21c1.62,0.17,3.56,2.43,4.38,4.19c2.65,5.72,6.88,8.63,12.11,6.72c2.43-0.89,5.14-3.23,6.05-5.57
			c1.32-3.4-1.29-6.12-4.45-7.32c-3.7-1.4-7.64-2.18-11.47-3.25c-4.63-1.29-9.35-2.32-13.85-3.97c-6.7-2.45-10.58-7.48-11-14.65
			c-0.4-6.96,2.06-13.03,8.25-16.53c4.25-2.4,9.04-4.5,13.81-5.22c12.37-1.87,24.66-1.64,35.3,6.44c3.81,2.89,7.24,6.37,6.28,11.63
			c-0.3,1.65-2.58,4.03-4.11,4.16C489.84,266.31,483.84,266.03,477.57,266.03z" fill="white"/>
		<path d="M59.15,278.07c0.87,4.55,1.39,9.53,2.84,14.21c1.49,4.8,5.4,6.91,10.48,6.75c4.8-0.14,7.33-3.21,8.38-7.25
			c1.17-4.5,3.42-6.31,8.12-5.86c4.12,0.4,8.32,0.04,12.48,0.09c4.85,0.06,6.08,1.74,5.05,6.58c-1.52,7.1-5.28,12.49-11.88,15.71
			c-13.7,6.67-27.81,7.66-41.99,2.03c-12.15-4.82-18.35-14.61-19.52-27.27c-1.37-14.71,3.24-27.51,16.69-34.7
			c14.71-7.85,30.2-8.74,45.06,0.47c5.3,3.29,8.5,8.37,9.86,14.47c0.96,4.32-0.59,6.28-4.97,6.5c-1.99,0.1-4.01-0.15-5.99,0.07
			c-7.13,0.78-12.86-0.27-15.97-8.16c-0.88-2.24-5.14-4.09-8.02-4.38c-3.8-0.38-7.18,2.13-8.16,6.07
			C60.43,268.03,59.99,272.83,59.15,278.07z" fill="white"/>
		<path d="M391.41,283.34c0-5.48,0.04-10.96-0.01-16.43c-0.04-4.12-2.39-5.17-6.2-5.18c-2.36-0.01-6.49-0.88-6.73-2.03
			c-0.84-3.87-0.59-8.09-0.03-12.07c0.11-0.81,3.34-1.64,5.15-1.68c5.02-0.1,8.96-0.83,8.73-7.33c-0.05-1.31,1.68-3.28,3.06-3.95
			c4.77-2.31,9.71-4.31,14.68-6.16c4.45-1.66,5.69-0.74,6.13,3.92c0.03,0.33,0.05,0.66,0.08,1c0.34,3.75-0.56,8.52,1.42,10.94
			c1.62,1.98,6.7,0.95,10.16,1.7c1.24,0.27,2.61,1.61,3.19,2.82c0.69,1.43,0.69,3.23,0.83,4.89c0.56,6.8-0.61,8-7.32,7.65
			c-6.26-0.33-7.65,0.87-7.73,7.2c-0.07,6.33,0.06,12.65,0.14,18.98c0.08,5.61,2.57,8.16,8.14,8.43c5.63,0.27,7.02,1.96,6.86,8.35
			c-0.14,5.75-1.91,7.62-7.38,7.66c-5.66,0.04-11.33,0.14-16.98-0.03c-10.31-0.31-16.34-6.47-16.49-16.68
			c-0.06-3.99-0.01-7.99-0.01-11.98C391.19,283.34,391.3,283.34,391.41,283.34z" fill="white"/>
		<path d="M213.93,277.98c0,8.32,0.18,16.64-0.06,24.94c-0.2,6.85-1.72,8.09-8.4,8.09c-3.66,0-7.32-0.13-10.98,0.01
			c-3.97,0.15-5.81-1.88-6.19-5.56c-0.17-1.65-0.21-3.32-0.22-4.98c-0.04-13.97-0.06-27.94-0.09-41.91c0-1.33-0.02-2.66,0.06-3.99
			c0.44-7.79,1.43-8.88,9.05-9.18c3.14-0.12,6.31,0.1,9.46,0.34c6.64,0.51,7.16,0.92,7.32,7.78
			C214.08,261.68,213.93,269.83,213.93,277.98z" fill="white"/>
		<path d="M4.98,277.5c0-8.33,0-16.66,0-24.99c0-4.32,1.58-6.93,6.45-6.76c3.81,0.13,7.66-0.43,11.46-0.24
			c6.59,0.34,7.06,0.88,7.09,7.47c0.08,14.33,0.09,28.66,0.02,42.99c-0.02,3.48-0.49,6.95-0.68,10.44c-0.18,3.3-1.86,4.7-5.14,4.62
			c-4.33-0.11-8.66-0.08-12.99,0.02c-4.22,0.1-6.17-2.09-6.2-6.07c-0.07-9.16-0.02-18.32-0.02-27.48
			C4.97,277.5,4.97,277.5,4.98,277.5z" fill="white"/>
		<path d="M17.65,233.26c-1.16,0-2.33,0.01-3.49,0c-8.76-0.1-9.6-0.98-9.19-9.7c0.3-6.38,1.39-7.52,7.62-7.63
			c4.15-0.07,8.31,0.12,12.46-0.03c3.28-0.11,5.37,1.44,5.39,4.48c0.03,3.56-0.6,7.18-1.43,10.66c-0.22,0.91-2.15,1.85-3.39,2
			c-2.62,0.3-5.3,0.09-7.96,0.09C17.65,233.18,17.65,233.22,17.65,233.26z" fill="white"/>
		<path d="M201.03,233.07c-1.66-0.01-3.31,0-4.97-0.01c-7-0.03-7.15-0.18-7.22-7.3c-0.09-9.7,0.13-9.9,10.07-9.84
			c3.31,0.02,6.62-0.14,9.93-0.11c3.2,0.03,4.79,1.88,5.1,4.95c0.08,0.82,0.05,1.65,0.06,2.48c0.1,9.26-0.46,9.84-9.49,9.82
			C203.35,233.07,202.19,233.07,201.03,233.07z" fill="white"/>
	</g>
</g>
</svg>
