<?xml version="1.0" encoding="UTF-8" standalone="no"?>
<!-- Created with Inkscape (http://www.inkscape.org/) -->

<svg
   xmlns:dc="http://purl.org/dc/elements/1.1/"
   xmlns:cc="http://creativecommons.org/ns#"
   xmlns:rdf="http://www.w3.org/1999/02/22-rdf-syntax-ns#"
   xmlns:svg="http://www.w3.org/2000/svg"
   xmlns="http://www.w3.org/2000/svg"
   xmlns:sodipodi="http://sodipodi.sourceforge.net/DTD/sodipodi-0.dtd"
   xmlns:inkscape="http://www.inkscape.org/namespaces/inkscape"
   version="1.1"
   id="svg8"
   inkscape:version="0.92.5 (2060ec1f9f, 2020-04-08)"
   sodipodi:docname="odyssey2.svg">
  <defs
     id="defs2" />
  <sodipodi:namedview
     id="base"
     pagecolor="#ffffff"
     bordercolor="#666666"
     borderopacity="1.0"
     inkscape:pageopacity="0.0"
     inkscape:pageshadow="2"
     inkscape:zoom="1.1291611"
     inkscape:cx="201.73026"
     inkscape:cy="80.813418"
     inkscape:document-units="mm"
     inkscape:current-layer="layer1"
     showgrid="false"
     units="px"
     inkscape:pagecheckerboard="true"
     inkscape:window-width="1366"
     inkscape:window-height="739"
     inkscape:window-x="0"
     inkscape:window-y="0"
     inkscape:window-maximized="1"
     inkscape:snap-others="false"
     inkscape:object-nodes="false" />
  <metadata
     id="metadata5">
    <rdf:RDF>
      <cc:Work
         rdf:about="">
        <dc:format>image/svg+xml</dc:format>
        <dc:type
           rdf:resource="http://purl.org/dc/dcmitype/StillImage" />
        <dc:title></dc:title>
      </cc:Work>
    </rdf:RDF>
  </metadata>
  <g
     inkscape:label="Layer 1"
     inkscape:groupmode="layer"
     id="layer1"
     transform="translate(0,-244.08332)">
    <g
       id="g287"
       transform="matrix(1.2208578,0,0,1.2208578,-8.6681315,-57.696225)"
       style="fill:#ffffff;fill-opacity:1;stroke:none">
      <path
         style="fill:#ffffff;fill-opacity:1;stroke:none;stroke-width:0.12999208"
         d="m 56.225501,287.27871 c -0.261694,-0.15923 -0.758913,-0.4603 -1.104933,-0.66904 -0.346018,-0.20874 -1.214088,-0.75954 -1.929045,-1.22401 -1.402753,-0.91128 -1.33769,-0.87001 -4.029754,-2.55581 -1.000939,-0.6268 -2.14162,-1.34766 -2.534846,-1.60191 -0.922131,-0.59623 -1.412104,-0.89737 -2.569811,-1.5794 -0.5197,-0.30617 -0.977017,-0.60862 -1.016259,-0.67212 -0.03924,-0.0635 -0.31599,-0.23892 -0.614995,-0.38984 -0.299005,-0.15091 -1.283584,-0.76429 -2.187954,-1.36306 -0.904369,-0.59876 -1.68078,-1.08866 -1.725359,-1.08866 -0.04458,0 -0.737802,-0.42853 -1.540498,-0.9523 -2.366068,-1.54387 -5.27234,-3.36151 -5.68419,-3.55502 -0.107244,-0.0504 -0.545967,-0.33463 -0.974941,-0.63164 -0.428974,-0.29702 -0.929166,-0.6223 -1.111539,-0.72285 -0.511836,-0.28221 -1.11237,-0.65426 -1.973671,-1.22276 -0.893443,-0.58972 -1.420859,-0.91363 -1.984507,-1.21878 -0.214503,-0.11612 -0.608052,-0.37795 -0.874556,-0.58183 -0.44525,-0.34064 -1.516504,-1.02494 -2.310224,-1.47574 -0.3284,-0.18652 -0.933156,-0.57528 -1.952852,-1.25536 -0.306739,-0.20457 -0.825427,-0.5143 -1.152642,-0.68828 -0.327215,-0.17399 -0.712906,-0.42243 -0.857092,-0.55209 -0.144186,-0.12967 -1.022611,-0.69073 -1.952054,-1.24681 -5.005774,-2.99492 -5.85505,-3.6812 -6.4182068,-5.18637 -0.323999,-0.86596 -0.192064,-1.81122 0.3149328,-2.25636 l 0.333124,-0.29248 h 5.29517 5.295169 l 1.310624,1.20242 c 0.720844,0.66134 2.150478,1.96288 3.176966,2.89233 1.026489,0.92944 2.279923,2.07012 2.785409,2.53484 0.505486,0.46473 1.120869,1.02209 1.367516,1.23859 0.246647,0.2165 0.857924,0.76381 1.358394,1.21624 0.500469,0.45243 1.602949,1.44522 2.449955,2.2062 0.847005,0.76098 2.357094,2.18791 3.355751,3.17095 1.961299,1.93062 2.318799,2.21089 2.318799,1.81785 0,-0.23401 -1.838494,-2.07267 -4.572334,-4.57273 -2.694992,-2.46454 -7.125638,-6.82018 -7.0301,-6.91109 0.05397,-0.0514 1.163138,-0.11238 2.464809,-0.1356 l 2.366674,-0.0422 1.648673,1.65586 c 1.486527,1.49301 2.13246,1.95007 2.13246,1.50892 0,-0.12749 -1.039947,-1.46654 -2.586459,-3.33034 l -0.458413,-0.55247 h -3.230821 c -2.174,0 -3.323699,-0.0487 -3.514757,-0.14879 -0.429331,-0.22499 -3.468743,-3.35652 -3.468743,-3.57388 0,-0.16393 0.779966,-0.18439 5.75215,-0.15087 l 5.75215,0.0388 0.584964,0.30816 c 1.241254,0.65389 1.629114,1.11302 4.111718,4.86727 2.548893,3.8545 3.93053,5.9615 4.405791,6.71885 0.157031,0.25023 1.130969,1.74189 2.164308,3.3148 1.033339,1.5729 2.412676,3.67877 3.065195,4.67971 0.652518,1.00094 1.380018,2.08313 1.616663,2.40486 0.236646,0.32173 0.523386,0.7897 0.637199,1.03993 0.113815,0.25024 0.30395,0.53526 0.422524,0.63338 0.118574,0.0981 0.217966,0.24437 0.220871,0.32498 0.0029,0.0806 0.321971,0.5853 0.709036,1.12152 0.387066,0.53621 0.882751,1.31129 1.101523,1.72239 0.218772,0.4111 0.455421,0.74746 0.525889,0.74746 0.07047,0 0.12812,-0.0218 0.12812,-0.0484 0,-0.0266 -0.371466,-0.77244 -0.825478,-1.6574 -2.114436,-4.12145 -2.990306,-5.79407 -3.190997,-6.09375 -0.1197,-0.17874 -0.279695,-0.47122 -0.355544,-0.64996 -0.246822,-0.58164 -1.091361,-2.26354 -1.370745,-2.72983 -0.448944,-0.74929 -2.475418,-4.67057 -3.102527,-6.00347 -0.145204,-0.30862 -0.48259,-0.94136 -0.749749,-1.40608 -0.385245,-0.67014 -0.552316,-0.84713 -0.807525,-0.85548 -1.419932,-0.0465 -2.155185,-0.55854 -2.9262,-2.03795 -0.269825,-0.51774 -0.765737,-1.40931 -1.102026,-1.98128 -2.120841,-3.60716 -2.47169,-4.24389 -2.401264,-4.35784 0.123673,-0.20011 5.069414,-0.16644 5.230412,0.0356 0.07121,0.0894 0.494034,0.95219 0.9396,1.91738 0.849016,1.83914 1.265898,2.43165 1.616293,2.29719 0.215735,-0.0828 0.281001,-0.5961 0.102833,-0.80878 -0.0569,-0.0679 -0.182152,-0.35748 -0.278336,-0.64346 -0.09618,-0.28598 -0.403981,-1.01089 -0.683995,-1.61091 -0.293295,-0.62848 -0.460599,-1.13945 -0.39467,-1.20538 0.06294,-0.0629 1.221317,-0.0985 2.574163,-0.079 l 2.459718,0.0355 0.243227,0.90995 c 0.284726,1.06519 0.645495,2.38025 1.389443,5.06469 0.538192,1.94201 0.538599,1.94521 0.274482,2.15908 -0.194785,0.15772 -0.433545,0.19794 -0.905772,0.15257 -0.81204,-0.078 -0.915009,0.0764 -0.57284,0.85905 0.145251,0.33224 0.386112,0.99923 0.535249,1.48221 0.149136,0.48298 0.323129,0.9802 0.386651,1.10493 0.178148,0.34983 0.314262,0.72558 1.023944,2.82664 0.36224,1.07243 0.758636,2.21311 0.880882,2.53484 0.122246,0.32173 0.652095,1.84264 1.177444,3.3798 1.094273,3.20181 1.309771,3.81276 1.536046,4.35473 0.259025,0.62042 0.597202,1.70704 0.597202,1.91892 0,0.10676 0.08774,0.26694 0.194988,0.35594 0.165729,0.13755 0.194303,0.1058 0.190421,-0.21157 -0.0025,-0.20536 -0.09319,-0.75362 -0.201516,-1.21834 -0.108322,-0.46472 -0.331313,-1.5234 -0.495536,-2.35263 -0.164223,-0.82922 -0.337812,-1.57114 -0.385752,-1.64871 -0.0873,-0.14125 -0.228293,-0.76979 -0.472933,-2.10829 -0.243101,-1.33008 -0.539981,-2.66351 -0.65119,-2.92482 -0.06086,-0.14299 -0.138914,-0.43547 -0.173459,-0.64996 -0.131214,-0.81466 -0.469382,-2.52719 -0.795745,-4.02975 -0.621999,-2.86368 -0.726994,-3.48886 -0.606211,-3.60965 0.06464,-0.0646 1.504585,-0.12263 3.199871,-0.12886 2.507982,-0.009 3.095295,-0.0451 3.15187,-0.19253 0.167923,-0.4376 -0.188139,-0.48861 -3.448785,-0.49413 l -3.210798,-0.005 -0.157277,-0.64453 c -0.825688,-3.38369 -0.947655,-4.01788 -0.947655,-4.92745 0,-0.94088 0.02018,-1.00759 0.444905,-1.47114 l 0.444906,-0.48556 6.429419,-0.036 c 5.13417,-0.0288 6.442297,-0.002 6.493346,0.13058 0.03516,0.0916 -0.04418,0.5758 -0.176312,1.07595 -0.132133,0.50015 -0.24508,1.0556 -0.250996,1.23434 -0.0059,0.17874 -0.08058,0.52971 -0.16591,0.77995 l -0.155154,0.45497 -3.820714,0.065 c -3.505636,0.0596 -3.832593,0.0844 -3.964759,0.30009 -0.115298,0.18818 -0.09369,0.2725 0.108287,0.42248 0.205251,0.15241 0.913252,0.18737 3.794597,0.18737 1.987524,0 3.574351,0.0519 3.615368,0.11829 0.06723,0.10878 -0.124507,1.11006 -0.661906,3.45649 -0.301126,1.3148 -0.566735,2.62449 -0.698616,3.4448 -0.127903,0.79557 -0.212472,1.21264 -0.685313,3.37979 -0.179391,0.8222 -0.399425,1.93363 -0.488961,2.46985 -0.08954,0.53622 -0.212294,1.03051 -0.272792,1.09843 -0.0605,0.0679 -0.109997,0.29205 -0.109997,0.49807 0,0.20601 -0.171372,1.08638 -0.380827,1.95638 -0.383428,1.5926 -0.643895,3.20487 -0.413053,2.55675 0.217472,-0.61058 0.532287,-1.75432 0.608267,-2.20987 0.04174,-0.25023 0.180809,-0.7767 0.309047,-1.16993 0.12824,-0.39322 0.33094,-1.12443 0.450445,-1.6249 0.119505,-0.50047 0.452211,-1.78739 0.739347,-2.85982 0.287135,-1.07244 0.755281,-2.82733 1.040324,-3.89977 0.285042,-1.07243 0.621091,-2.30086 0.746774,-2.72983 l 0.228515,-0.77995 1.357896,-0.10296 c 0.746843,-0.0566 2.008939,-0.0714 2.804657,-0.0328 1.528438,0.0741 1.815845,-0.0148 1.716283,-0.53075 -0.03926,-0.20345 -0.302203,-0.22501 -2.860558,-0.23456 -1.549528,-0.006 -2.857665,-0.0509 -2.906971,-0.10016 -0.134589,-0.13459 0.248056,-1.70675 0.935507,-3.8437 0.167234,-0.51984 0.304062,-1.04948 0.304062,-1.17697 0,-0.35027 0.696117,-1.37551 1.188756,-1.75079 0.762774,-0.58107 1.246759,-0.62297 6.740761,-0.58359 4.707477,0.0337 5.133323,0.0549 5.118284,0.25438 -0.009,0.11967 -0.36,0.75047 -0.779953,1.40178 -0.419951,0.65131 -0.824329,1.29299 -0.898615,1.42596 -0.381246,0.68239 -0.248259,0.65932 -3.81311,0.66145 -1.832259,10e-4 -3.398654,0.045 -3.480877,0.0975 -0.148718,0.095 -0.220275,0.33791 -0.190885,0.64797 0.01184,0.12494 0.719705,0.16249 3.062544,0.16249 1.862352,0 3.077942,0.0498 3.126356,0.12817 0.08527,0.13797 -0.340054,0.92722 -1.130318,2.09747 -0.271401,0.4019 -0.493457,0.76603 -0.493457,0.80918 0,0.0432 -0.405889,0.68219 -0.901976,1.42009 -0.496087,0.7379 -1.050912,1.63817 -1.232945,2.00059 -0.182035,0.36242 -0.419607,0.73251 -0.527939,0.82242 -0.108331,0.0899 -0.196966,0.21888 -0.196966,0.28662 0,0.0677 -0.16762,0.36767 -0.37249,0.66654 -0.204869,0.29886 -0.529657,0.83587 -0.72175,1.19335 -0.192093,0.35748 -0.610631,1.03019 -0.930084,1.49491 -0.319453,0.46472 -0.616373,0.98116 -0.659823,1.14764 -0.04345,0.16648 -0.232367,0.47086 -0.419821,0.6764 -0.187453,0.20554 -0.486433,0.65429 -0.664401,0.99723 -0.177969,0.34293 -0.454861,0.77195 -0.615315,0.95337 -0.316469,0.35782 -0.825601,1.32756 -0.741527,1.41239 0.07291,0.0736 0.579943,-0.56533 0.965464,-1.21656 0.178739,-0.30193 0.646711,-1.00545 1.039937,-1.56339 0.393226,-0.55793 0.823827,-1.19615 0.956891,-1.41827 0.133065,-0.22212 0.527916,-0.7978 0.877447,-1.2793 0.349531,-0.4815 0.635511,-0.91646 0.635511,-0.96657 0,-0.0501 0.120084,-0.21893 0.266853,-0.37515 0.262863,-0.27981 0.453044,-0.55047 2.79921,-3.98382 2.313518,-3.38558 3.063241,-4.48875 4.664295,-6.86321 0.89185,-1.32267 1.744681,-2.56572 1.895181,-2.76233 l 0.273634,-0.35748 h 5.637097 c 3.851094,0 5.664236,0.0439 5.722753,0.13859 0.04711,0.0762 -0.692477,0.92443 -1.643526,1.88489 l -1.729182,1.74629 h -2.768534 c -2.700245,0 -2.768533,0.007 -2.768533,0.26526 0,0.25723 0.05419,0.26336 1.787392,0.20217 1.960747,-0.0692 2.762331,0.002 2.762331,0.24407 0,0.0871 -0.716581,0.87419 -1.592403,1.74915 l -1.592403,1.59086 -2.15358,-0.0854 c -1.844932,-0.0731 -2.177223,-0.0569 -2.31855,0.11342 -0.32529,0.39195 -0.02469,0.47015 1.807293,0.47015 0.9925,0 1.836117,0.0511 1.874705,0.11352 0.03859,0.0624 -1.376498,1.55021 -3.144636,3.30615 -6.372678,6.32872 -11.96829,11.85591 -14.251835,14.07756 -1.280162,1.24547 -2.292307,2.29974 -2.249209,2.34284 0.08903,0.089 0.342881,-0.1007 1.528789,-1.14261 0.460968,-0.40499 1.807822,-1.54567 2.993009,-2.53484 1.185187,-0.98917 2.881584,-2.4094 3.76977,-3.15607 0.888187,-0.74666 2.170602,-1.82302 2.84981,-2.3919 0.679209,-0.56888 1.498159,-1.2802 1.819889,-1.5807 0.321731,-0.3005 0.71471,-0.63225 0.873287,-0.73723 0.158578,-0.10497 0.831287,-0.66333 1.494909,-1.24078 0.663623,-0.57746 1.451602,-1.24597 1.751066,-1.48559 0.299463,-0.23961 1.398778,-1.16687 2.442921,-2.06056 1.044144,-0.8937 2.362533,-1.99832 2.929754,-2.45471 0.567222,-0.4564 0.999986,-0.88049 0.961699,-0.94244 -0.03829,-0.0619 -0.22995,-0.11264 -0.425919,-0.11264 -0.459185,0 -0.668286,-0.21687 -0.668286,-0.69311 0,-0.5673 0.442355,-1.19292 1.749307,-2.47407 0.646533,-0.63377 2.12113,-2.08156 3.276882,-3.21731 l 2.101367,-2.065 h 2.01821 c 1.36702,0 2.04767,0.0477 2.10953,0.14776 0.0549,0.0889 -0.75774,0.96808 -2.03971,2.20666 -1.85072,1.78809 -2.11154,2.08924 -1.98294,2.28959 0.19713,0.30712 1.12267,0.25046 1.61308,-0.0987 0.19737,-0.14054 0.40832,-0.25716 0.46877,-0.25915 0.0605,-0.002 0.5779,-0.40949 1.14987,-0.90554 0.57196,-0.49605 1.5664,-1.35136 2.20986,-1.90068 0.64346,-0.54932 1.21671,-1.07777 1.27388,-1.17434 0.13533,-0.22855 4.770755,-0.26055 4.770755,-0.0329 0,0.16744 -0.77678,0.87961 -2.41318,2.21247 -0.64805,0.52783 -1.49625,1.23414 -1.88489,1.56958 -5.545235,4.78605 -5.093655,4.48288 -6.717025,4.50942 -0.92229,0.0151 -0.96154,0.0298 -2.004906,0.7526 -0.585311,0.40547 -1.448915,1.0232 -1.91912,1.37272 -1.954889,1.45317 -3.087756,2.30605 -4.492553,3.38223 -0.816614,0.62559 -1.515119,1.13743 -1.552236,1.13743 -0.0649,0 -2.872614,2.05369 -4.624532,3.3826 -1.5099,1.14532 -3.010983,2.2564 -4.078084,3.01854 -0.574853,0.41057 -1.094534,0.83467 -1.154847,0.94245 -0.06031,0.10777 -0.164599,0.19595 -0.231744,0.19595 -0.06714,0 -0.459089,0.25256 -0.870987,0.56124 -1.440138,1.07925 -3.741487,2.76908 -4.063705,2.98389 -0.178739,0.11916 -0.540951,0.37932 -0.804916,0.57813 -0.263964,0.19881 -0.878177,0.65214 -1.364917,1.00741 -2.332652,1.70259 -4.003323,2.9376 -5.369708,3.96946 -0.8222,0.6209 -1.619878,1.19498 -1.772617,1.27574 -0.152741,0.0808 -0.737705,0.17624 -1.299921,0.21218 -0.896458,0.0573 -1.080748,0.0297 -1.498021,-0.22415 z M 24.593265,262.40484 c 0,-0.13509 -2.352708,-2.28829 -4.06624,-3.72142 -0.732099,-0.6123 -0.746175,-0.61746 -1.683313,-0.61746 -1.365053,0 -1.370229,-0.01 0.939845,1.82024 0.714957,0.56646 1.733269,1.38008 2.262916,1.80805 0.529646,0.42798 1.11461,0.80293 1.29992,0.83324 0.580637,0.0949 1.246872,0.0294 1.246872,-0.12265 z m 79.103115,-5.15133 c 0.002,-0.0894 0.7938,-0.8937 1.76042,-1.78739 l 1.75748,-1.62491 1.91186,-0.0776 c 2.00836,-0.0815 2.36684,-0.1524 2.36684,-0.46833 0,-0.14985 -0.15284,-0.18679 -0.68246,-0.16495 -1.58369,0.0653 -2.69734,-0.003 -2.69727,-0.16661 3e-5,-0.0894 0.28875,-0.4111 0.64159,-0.71496 l 0.64152,-0.55246 h 2.48101 2.48101 l 0.14609,0.32064 c 0.12957,0.28436 0.0852,0.40126 -0.39171,1.03297 -0.56927,0.75399 -1.34777,1.35792 -2.09981,1.62894 -0.25024,0.0902 -1.16957,0.19502 -2.04296,0.23299 -1.33703,0.0581 -1.62312,0.10784 -1.81032,0.31469 -0.33271,0.36764 -0.10306,0.48284 1.04847,0.52597 0.56598,0.0212 1.04861,0.0978 1.07252,0.17015 0.0239,0.0724 -0.22455,0.43799 -0.55212,0.81246 l -0.59558,0.68084 h -2.71975 c -2.09071,0 -2.71908,-0.0376 -2.71683,-0.16249 z"
         id="path280"
         inkscape:connector-curvature="0" />
    </g>
  </g>
</svg>
