<?xml version="1.0" encoding="utf-8"?>
<!-- Made by Szalik  -->
<svg version="1.1" id="Warstwa_1" xmlns="http://www.w3.org/2000/svg" xmlns:xlink="http://www.w3.org/1999/xlink" x="0px" y="0px" xml:space="preserve">
<g>
	<path d="M431,343c-0.35-0.28-0.69-0.79-1.07-0.82c-12.06-1.07-21.13-7.05-27.81-16.92c-5.36-7.92-8.21-16.85-10.11-26.11
		c-2.09-10.13-2.62-20.43-1.84-30.68c0.8-10.52,2.71-20.86,7.69-30.46c5.75-11.09,14.41-18.07,26.5-21.37
		c10.34-2.82,20.32-2.09,30.1,1.67c9.06,3.49,15.45,10.09,19.5,18.84c3.54,7.65,5.97,15.65,7.15,24.05
		c1.08,7.71,2.2,15.42,1.7,23.21c-0.84,13.07-2.92,25.85-9.2,37.65c-5.31,9.99-13.59,15.98-24.3,18.88
		c-2.37,0.64-4.88,0.77-7.31,1.22c-0.38,0.07-0.68,0.55-1.02,0.84C437.67,343,434.33,343,431,343z M418.96,279.79
		c-0.37,5.65,0.56,12.01,2.05,18.31c1.23,5.17,3.1,10.07,6.28,14.41c4.48,6.11,13.57,6.1,17.36,1.36c1.54-1.93,3.2-3.84,4.31-6.01
		c4.99-9.83,5.73-20.56,5.82-31.29c0.04-4.72-1.04-9.47-1.82-14.17c-0.96-5.76-3.17-11.14-6.41-15.96
		c-4.29-6.4-13.96-7.98-19.2-1.46c-1.9,2.37-3.31,4.9-4.37,7.7C419.79,261.16,418.79,269.96,418.96,279.79z" fill="white"/>
	<path d="M518,341c-0.75,0.31-1.49,0.88-2.24,0.89c-7.46,0.07-14.92,0.04-22.62,0.04c0-42.38,0-84.42,0-126.93
		c8.31,0,16.59,0,24.86,0C518,257,518,299,518,341z" fill="white"/>
	<path d="M370.08,276.31c2.86,3.31,5.48,6.1,7.8,9.12c2.82,3.68,4.86,7.55,5.41,12.52c0.74,6.61-0.02,12.76-2.17,18.89
		c-2.33,6.62-6.5,11.92-12.01,16.11c-8.62,6.55-18.53,9.59-29.25,8.91c-12.91-0.81-24.66-4.87-33.48-15.01
		c-5.26-6.04-8.21-13.06-8.43-21.19c-0.15-5.36,0.07-10.63,2.6-15.48c2.23-4.28,5.21-8.05,8.5-11.57c0.56-0.6,1.33-1.01,1.92-1.45
		c-2.55-5.13-4.83-9.85-7.23-14.51c-3.65-7.08-3.21-14.38-1.17-21.71c3.62-12.98,12.46-20.76,25.17-24.29
		c13.06-3.62,25.63-2.42,37.02,5.32c8.75,5.94,14.09,14.1,15.44,24.92c1.2,9.61-1.37,17.88-7.07,25.43
		C372.13,273.63,371.12,274.95,370.08,276.31z M340.56,317.4c1.94-0.35,3.93-0.5,5.79-1.08c5.18-1.64,8.17-6.87,7.81-13.02
		c-0.32-5.5-2.47-9.71-7.83-11.49c-5.23-1.74-10.49-1.75-14.9,2.27c-4.44,4.06-5.65,9.8-3.11,15.43
		C330.65,314.64,334.57,317.61,340.56,317.4z M351.97,251.03c0.15-7.03-4.78-11.91-11.79-11.91c-6.35,0-10.82,4.19-11.03,11.53
		c-0.18,6.48,5.19,11.39,11.84,11.33C347.36,261.92,351.98,257.31,351.97,251.03z" fill="white"/>
	<path d="M217.86,276.36c-1.45-2.51-2.98-5.07-4.43-7.67c-3.25-5.84-5.72-11.9-5.39-18.8c0.72-15.02,9.18-27.02,23.2-32.1
		c11.05-4,22.01-4.16,32.9,0.18c11.87,4.72,19.9,13.27,22.58,25.79c2.23,10.4,0.21,20.33-6.82,28.81c-1.03,1.25-1.93,2.61-2.71,3.68
		c3.22,4,6.23,7.73,9.23,11.48c2.35,2.94,3.13,6.37,3.75,10.05c1.25,7.45-0.19,14.34-3.02,21.14c-2.29,5.51-5.86,10.06-10.5,13.63
		c-9.14,7.02-19.69,10.18-31.11,9.29c-9.12-0.71-17.86-3.3-25.42-8.82c-9.52-6.95-14.74-16.09-15.32-28.12
		c-0.49-10.08,3.5-17.96,9.98-25.05c0.9-0.98,1.82-1.95,2.72-2.92C217.62,276.8,217.69,276.64,217.86,276.36z M247.7,317.14
		c8.3,0.7,13.26-5.77,13.54-12.54c0.32-7.7-5.92-14.13-13.52-13.8c-8.01,0.35-13.8,5.51-13.67,13.17
		C234.16,310.21,238.85,317.98,247.7,317.14z M258.97,251.3c-0.21-7.73-4.82-11.92-11.6-12.17c-6.05-0.22-11.11,3.81-11.26,11.8
		c-0.12,6.23,5.19,11.11,11.61,11.05C254.2,261.92,258.99,257.4,258.97,251.3z" fill="white"/>
	<path d="M19.04,238.64c0,34.84,0,68.79,0,103.23c-8.64,0.18-17.05,0.03-25.42,0.1c-1.06-4.44-1.42-107.48-0.48-127.71
		c1.03-0.11,2.12-0.34,3.21-0.34c10.16,0,20.32-0.11,30.48,0.12c8.96,0.2,17.77,1.7,26.08,5.11c11.79,4.82,18.27,13.66,19.22,26.52
		c0.3,4.11,0.49,8.1,0.07,12.26c-1.45,14.4-9.11,23.85-22.26,28.99c-7.75,3.03-15.93,4.16-24.56,4.04c-1.03-4.1-0.23-8.23-0.38-12.3
		c-0.15-3.99-0.03-7.99-0.03-12.25c2.24-0.45,4.43-1.16,6.65-1.25c2.63-0.11,4.78-1.27,6.99-2.37c3.42-1.7,5.09-4.7,5.3-8.35
		c0.13-2.26-0.16-4.63-0.7-6.83c-1.25-5-5.69-6.31-9.82-7.25C28.93,239.32,24.26,239.21,19.04,238.64z" fill="white"/>
	<path d="M160.86,241.04c-3.83-0.5-7.11-0.8-10.33-1.38c-8.17-1.45-15.79,0.32-22.84,4.26c-9.57,5.35-14.69,13.92-16.79,24.54
		c-2.02,10.22-1.32,20.08,3.58,29.4c4.99,9.5,12.74,15.85,23.27,17.74c5.28,0.94,10.9,0.02,16.36-0.16c1.76-0.06,3.5-0.45,5.75-0.75
		c0,4.5,0,8.46,0,12.43c0,3,0.04,6-0.01,9c-0.05,3.2-0.08,3.21-3.14,3.91c-9.11,2.1-18.24,2.72-27.55,1.13
		c-7.45-1.28-14.31-3.72-20.64-7.85c-12.1-7.9-19.32-19.28-23.43-32.81c-2.61-8.61-3.7-17.49-3.01-26.49
		c1.32-17.19,6.9-32.65,19.45-44.94c7.88-7.72,17.51-12.18,28.39-14.16c8.62-1.57,17.15-1.01,25.7,0.18
		c0.97,0.14,1.88,0.68,2.85,0.78c1.97,0.22,2.4,1.45,2.4,3.13C160.85,226.15,160.86,233.3,160.86,241.04z" fill="white"/>
	<path d="M79.08,181.11c-4.54-9.02-4.12-14.82,1.53-19.11c4.68-3.56,12.56-4.91,19.29,0.6c2.79,2.29,4,5.45,4.21,9.17
		c0.2,3.6-1.61,6.3-3.24,9.12c0.38,0.58,0.57,1.05,0.91,1.37c3.99,3.64,4.07,8.16,2.64,12.82c-1.63,5.32-5.76,8.03-10.99,8.84
		c-3.94,0.61-7.84,0.2-11.56-1.82c-7.61-4.14-9.43-12.96-3.82-19.64C78.36,182.09,78.64,181.69,79.08,181.11z M89.96,195.12
		c2.87,0.03,4.88-1.78,4.92-4.44c0.03-2.07-2.87-4.71-5.06-4.61c-2,0.09-4.66,2.63-4.7,4.48C85.08,193.08,87.21,195.1,89.96,195.12z
		 M89.71,168.02c-2.02,0.11-3.66,1.83-3.68,3.87c-0.02,2.05,2.19,4.11,4.22,3.94c2.03-0.18,3.77-2.02,3.69-3.93
		C93.85,169.69,91.89,167.9,89.71,168.02z" fill="white"/>
	<path d="M111.29,181.08c-2.69-3.92-4.24-7.96-3.05-12.38c0.73-2.71,2.16-5.28,4.63-6.91c5.46-3.61,12.96-4.31,19.32,1.01
		c4.92,4.12,5.13,10.03,0.72,18.38c0.42,0.5,0.86,1.19,1.45,1.7c5.21,4.55,3.01,16.3-4.11,19.47c-6.85,3.05-13.28,2.38-19.18-2.03
		c-4.99-3.73-5.59-12.8-2.13-16.63C109.61,182.95,110.27,182.21,111.29,181.08z M117.13,190.68c0.11,2.78,2.28,4.6,5.33,4.45
		c2.6-0.12,4.65-2.38,4.4-4.84c-0.19-1.85-2.85-4.19-4.8-4.22C119.9,186.03,117.06,188.69,117.13,190.68z M125.95,171.98
		c-0.03-2.2-1.95-4.03-4.15-3.96c-2.02,0.07-3.7,1.76-3.76,3.79c-0.07,2.08,2.06,4.14,4.13,4.02
		C124.17,175.71,125.98,173.87,125.95,171.98z" fill="white"/>
	<path d="M172.49,182.42c0.08,5.67-1.15,10.87-3.99,15.75c-1.13,1.94-2.56,3.39-4.55,4.4c-4.3,2.18-8.79,2.74-13.34,1.22
		c-3.18-1.07-5.81-2.97-7.45-6.16c-4.63-9-5.29-18.32-2.06-27.77c3.36-9.82,12.61-13.18,22.1-9.11c4.78,2.05,6.46,6.51,7.71,10.96
		C171.87,175.14,171.99,178.83,172.49,182.42z M162.43,182.21c-0.51-2.86-0.91-5.63-1.55-8.35c-0.25-1.09-0.89-2.16-1.57-3.07
		c-2.28-3.04-5.9-2.73-7.48,0.74c-2.89,6.34-2.45,12.89-0.65,19.4c0.33,1.19,1.38,2.26,2.3,3.17c1.41,1.4,3.53,1.45,4.89,0.04
		c1.01-1.05,1.99-2.35,2.38-3.71C161.54,187.77,161.9,184.98,162.43,182.21z" fill="white"/>
	<path d="M205.98,192.03c-2.36,10.01-11.29,14.36-21.15,11.07c-3.36-1.12-5.53-3.61-7.04-6.63c-3.33-6.67-4.41-13.61-3.13-21.09
		c0.87-5.08,2.32-9.52,6.27-13.06c7.33-6.56,20.12-3.8,23.8,5.33c0.92,2.28,1.65,4.69,2.04,7.1c0.4,2.44,0.29,4.97,0.4,7.46
		 M184.98,181.15c-0.21,3.34-0.03,6.8,1.54,10c0.95,1.94,1.96,3.96,4.63,3.83c2.36-0.12,3.31-1.9,4.19-3.71
		c0.22-0.44,0.42-0.89,0.59-1.36c1.66-4.66,1.27-9.46,0.75-14.22c-0.17-1.57-0.95-3.17-1.77-4.56c-1.92-3.25-5.48-4.58-8-0.18
		C185.09,174.14,184.85,177.5,184.98,181.15z" fill="white"/>
	<path d="M345.89,191.53c-3.27,3.29-6.14,5.85-8.61,8.75c-3.39,3.99-7.82,3.86-12.31,3.54c-0.65-0.05-1.6-1.23-1.73-2
		c-0.27-1.62-0.08-3.31-0.08-5.08c0.37-0.25,0.74-0.71,1.14-0.74c4.41-0.39,7.5-2.83,10.34-6.04c3.42-3.86,7.2-7.39,10.77-11.11
		c1.14-1.19,2.13-2.52,3.19-3.79c0.72-0.86,2.01-1.76,0.92-2.92c-0.69-0.73-1.99-1.2-3.02-1.22c-6.49-0.11-12.98-0.02-19.47-0.07
		c-3.64-0.02-3.83-0.27-3.89-4.03c-0.02-1.46,0-2.92,0-4.84c1.82,0,3.28,0,4.73,0c6.49,0.01,12.98,0.02,19.47,0.01
		c7.17-0.01,12.3,6.01,11.79,12.54c-0.15,1.92-0.54,3.51-2.01,4.87c-1.81,1.68-3.43,3.55-5.21,5.41
		c3.86,6.05,8.17,11.67,10.54,19.12c-3.15,0-5.6,0-8.05,0c-1.39,0-1.89-0.96-2.48-2.05C350.11,198.57,348.13,195.34,345.89,191.53z"
		 fill="white"/>
	<path d="M4.14,185.53c0-1.4-0.02-2.87,0-4.33c0.04-3.13,0.1-3.03,3.21-4.39c1.3-0.57,2.78-1.44,3.43-2.6
		c1.2-2.15-0.05-4.5-2.51-5.53c-0.6-0.25-1.23-0.52-1.87-0.59c-0.97-0.1-1.96-0.03-3.32-0.03c-0.47,6.04-0.15,11.97-0.21,17.89
		c-0.06,5.81-0.01,11.62-0.01,17.83c-3.21,0.55-6.28,0.29-9.62,0.22c0-14.91,0-29.66,0-44.72c4.34-0.85,8.79-0.35,13.2-0.27
		c1.95,0.04,3.93,0.42,5.81,0.95c8.36,2.37,9.46,6.94,8.95,13.61C20.52,182.49,14,186.99,4.14,185.53z" fill="white"/>
	<path d="M49.86,168.26c-5.66-0.47-10.84-0.81-14.76,3.6c-3.3,3.71-3.5,8.11-3.07,12.65c0.71,7.45,7.61,11.55,16.88,10
		c0,2.97,0,5.91,0,9.25c-4.25,0.39-8.4,0.9-12.42-0.1c-6.82-1.7-11.31-6.38-13.34-12.9c-2.81-9-1.9-17.74,4.2-25.33
		c3.01-3.74,7.21-5.8,11.97-6.38c2.46-0.3,4.99-0.14,7.48-0.01c2.47,0.13,2.93,0.62,3.04,2.96
		C49.93,163.81,49.86,165.63,49.86,168.26z" fill="white"/>
	<path d="M240.98,164.21c3.32,0,5.95,0,8.96,0c0.06,1.24,0.16,2.35,0.16,3.47c0.01,6.66-0.15,13.32,0.03,19.98
		c0.25,9.2-8.41,16.03-15.83,15.54c-5.97-0.4-11.98-0.07-17.97-0.09c-1.29-0.01-2.57-0.15-4.01-0.24c0-2.9,0-5.52,0-8.49
		c1-0.12,2.09-0.37,3.19-0.38c5.99-0.04,12-0.24,17.98,0.05c4.56,0.22,7.84-2.91,7.57-7.63c-0.33-5.81-0.08-11.65-0.08-17.48
		C240.98,167.47,240.98,166,240.98,164.21z" fill="white"/>
	<path d="M277.14,162.2c3.33,0,6.27,0,9.53,0c0.09,1.07,0.26,2.18,0.26,3.28c0.02,7.32,0.21,14.65-0.05,21.97
		c-0.23,6.49-2.61,11.96-9.12,14.65c-1.2,0.49-2.52,0.92-3.79,0.94c-6.14,0.1-12.29,0.04-18.69,0.04c-0.68-2.88-0.38-5.64-0.18-8.91
		c2.53-0.01,4.97-0.02,7.42-0.03c2.83,0,5.68-0.19,8.49,0.05c3.77,0.32,6.3-1.9,6.16-5.93c-0.17-4.82-0.03-9.65-0.02-14.48
		C277.14,169.99,277.14,166.2,277.14,162.2z" fill="white"/>
	<path d="M193.85,267.38c0,5.93,0,11.52,0,17.34c-9.89,0-19.6,0-29.7,0c-0.52-5.69-0.13-11.39-0.29-17.34
		C173.99,267.38,183.7,267.38,193.85,267.38z" fill="white"/>
	<path d="M325.81,179.14c0,2.63,0,4.92,0,7.21c-3.32,0.94-28.4,1.19-35.62,0.33c0-2.39,0-4.81,0-7.23
		C294.07,178.76,317.01,178.54,325.81,179.14z" fill="white"/>
	<path d="M212.14,162.07c7.11,0,13.58,0,19.98,0c0.27,0.34,0.64,0.59,0.65,0.84c0.25,9.76,0.58,7.87-7.76,8.02
		c-3.16,0.06-6.32,0.06-9.47,0c-3.03-0.06-3.29-0.35-3.38-3.52C212.1,165.79,212.14,164.15,212.14,162.07z" fill="white"/>
	<path d="M222.5,175.06c2.67,0,5.33,0.01,8,0c1.4,0,2.15,0.73,2.33,2.07c0.07,0.49,0.02,1,0.04,1.5c0.15,5.74-0.43,5.4-5.11,5.34
		c-4.16-0.06-8.33,0.03-12.49-0.03c-2.48-0.04-2.95-0.51-3.1-2.81c-0.07-1-0.06-2,0-3c0.14-2.67,0.47-2.99,3.35-3.06
		C217.83,175.01,220.17,175.05,222.5,175.06C222.5,175.05,222.5,175.06,222.5,175.06z" fill="white"/>
	<path d="M255.08,182.21c0-6.99,0-13.39,0-20.01c2.92,0,5.67,0,8.69,0c0,6.45,0,12.85,0,19.65
		C261.14,182.41,258.36,181.91,255.08,182.21z" fill="white"/>
	<path d="M50.01,185.81c0-2.74,0-4.88,0-7.27c3.64-0.82,7.26-0.28,10.84-0.38c3.48-0.1,6.96-0.02,10.65-0.02
		c0.9,2.45,0.5,4.85,0.33,7.69C64.48,185.88,57.29,185.89,50.01,185.81z" fill="white"/>
	<path d="M369.02,165.71c0.09,1.97-1.49,3.76-3.58,4.04c-1.33,0.18-4.04-2.14-4.22-3.62c-0.21-1.68,1.74-4,3.49-4.15
		C367,161.78,368.92,163.43,369.02,165.71z" fill="white"/>
	<path d="M378.1,165.81c-0.05,2.03-1.79,3.89-3.62,3.88c-2.06-0.01-3.71-2.07-3.56-4.43c0.15-2.38,1.36-3.39,3.89-3.28
		C377.19,162.08,378.17,163.22,378.1,165.81z" fill="white"/>
</g>
</svg>
