<?xml version="1.0" encoding="utf-8"?>
<svg viewBox="0 0 264 93" xmlns="http://www.w3.org/2000/svg">
  <path class="st1" d="M 50.173 22.879 L 44.989 22.879 L 49.167 14.376 C 48.008 14.376 44.89 13.769 43.731 12.757 C 42.272 11.389 41.064 8.708 41.869 5.468 C 42.775 1.924 46.752 -0.811 51.129 0.304 C 54.249 1.114 56.061 2.683 56.563 6.076 C 56.816 7.643 56.715 9.162 55.659 11.491 L 50.173 22.879 Z M 46.298 7.543 C 46.298 11.237 51.984 11.341 51.984 7.695 C 51.984 3.847 46.298 3.847 46.298 7.543 Z" style="fill: rgb(255, 255, 255);"/>
  <path class="st1" d="M 63.91 0.253 C 68.894 -0.405 73.271 3.543 71.711 8.708 C 71.459 9.516 70.1 11.237 70.1 11.237 C 70.1 11.237 72.215 13.161 72.416 14.427 C 73.372 19.692 69.447 22.728 65.472 22.879 C 61.244 22.981 56.614 20.146 57.521 14.73 C 57.621 14.021 58.125 13.312 58.376 12.857 C 58.627 12.402 59.785 11.237 59.785 11.237 C 59.785 11.237 58.224 8.756 58.074 7.695 C 57.57 3.899 59.835 0.811 63.91 0.253 Z M 62.955 6.531 C 62.955 9.263 67.081 9.263 67.081 6.683 C 67.081 3.797 62.955 3.746 62.955 6.531 Z M 65.069 18.578 C 68.29 18.578 68.29 13.718 65.018 13.718 C 61.697 13.718 61.797 18.578 65.069 18.578 Z" style="fill: rgb(255, 255, 255);"/>
  <path class="st1" d="M 81.274 0.253 C 83.789 0 86.003 0.911 87.262 2.126 C 90.986 5.67 91.589 17.414 87.11 21.31 C 85.299 22.93 81.475 23.742 78.555 22.323 C 75.788 20.957 74.128 17.262 73.875 13.009 C 73.423 6.327 75.335 0.861 81.274 0.253 Z M 82.129 18.578 C 86.557 18.477 86.406 3.543 81.424 4.86 C 77.901 5.719 77.951 18.628 82.129 18.578 Z" style="fill: rgb(255, 255, 255);"/>
  <path class="st1" d="M 98.886 0.102 C 101.403 -0.151 103.617 0.759 104.875 1.975 C 108.599 5.518 109.203 17.262 104.724 21.16 C 102.912 22.778 99.088 23.588 96.169 22.172 C 93.401 20.806 91.74 17.11 91.489 12.857 C 91.036 6.176 92.949 0.709 98.886 0.102 Z M 99.741 18.427 C 104.17 18.325 104.02 3.392 99.038 4.708 C 95.515 5.569 95.565 18.477 99.741 18.427 Z" style="fill: rgb(255, 255, 255);"/>
  <path class="st1" d="M 28.533 0.456 L 28.533 4.91 C 16.455 1.62 16.556 21.31 28.383 18.022 L 28.383 22.474 C 10.064 27.031 9.963 -3.795 28.533 0.456 Z" style="fill: rgb(255, 255, 255);"/>
  <path class="st1" d="M 5.888 13.718 L 5.888 9.315 C 8.001 9.315 9.31 8.556 9.31 7.036 C 9.31 5.772 9.108 4.505 4.78 4.505 L 4.78 22.879 L 0.15 22.879 L 0.251 0 L 4.729 0 C 13.336 0.051 14.343 3.493 14.343 6.883 C 14.343 11.693 10.97 13.718 5.888 13.718 Z" style="fill: rgb(255, 255, 255);"/>
  <polygon class="st1" points="120.526 1.67 120.526 5.974 110.561 5.974 110.561 1.67" style="fill: rgb(255, 255, 255);"/>
  <path class="st1" d="M 185.897 22.679 L 181.167 22.679 C 180.614 20.401 177.543 16.35 177.543 16.35 L 172.36 21.715 C 171.403 22.679 169.693 22.679 167.932 22.679 L 166.472 22.679 L 166.472 18.628 L 167.478 18.628 C 168.536 18.628 169.491 18.528 170.297 17.718 L 179.354 8.1 C 180.311 7.138 179.808 5.772 178.147 5.772 L 166.472 5.822 L 166.472 1.67 L 178.197 1.67 C 183.884 1.67 185.544 7.796 183.481 10.024 L 180.511 13.11 C 180.562 13.11 185.595 20.401 185.897 22.679 Z" style="fill: rgb(255, 255, 255);"/>
  <polygon class="st1" points="136.478 1.67 136.478 11.693 131.899 11.693 131.899 1.67" style="fill: rgb(255, 255, 255);"/>
  <path class="st1" d="M 147.851 1.67 L 147.851 14.73 C 147.851 19.133 144.581 22.425 140.504 22.425 L 131.949 22.425 L 131.949 18.12 L 139.9 18.12 C 142.115 18.12 143.322 16.958 143.322 14.579 C 143.322 12.201 143.322 1.67 143.322 1.67 L 147.851 1.67 Z" style="fill: rgb(255, 255, 255);"/>
  <path class="st1" d="M 129.433 2.835 L 129.433 14.681 C 129.433 19.186 125.358 22.425 121.683 22.425 L 110.561 22.425 L 110.561 17.869 L 121.632 17.869 C 123.494 17.869 124.953 16.857 124.953 14.781 L 124.953 2.886 L 129.433 2.835 Z" style="fill: rgb(255, 255, 255);"/>
  <polygon class="st1" points="120.526 12.554 110.561 12.554 110.561 8.301 120.526 8.301" style="fill: rgb(255, 255, 255);"/>
  <rect x="28.684" y="9.971" class="st1" width="11.071" height="3.443" style="fill: rgb(255, 255, 255);"/>
  <polygon class="st1" points="167.478 10.124 167.478 14.275 149.664 14.275 149.664 10.124" style="fill: rgb(255, 255, 255);"/>
  <circle class="st1" cx="211.545" cy="33.907" r="1.276" style="fill: rgb(255, 255, 255);" transform="matrix(1.459209, 0, 0, 1.46778, -121.231049, -46.326103)"/>
  <circle class="st1" cx="214.718" cy="33.907" r="1.276" style="fill: rgb(255, 255, 255);" transform="matrix(1.459209, 0, 0, 1.46778, -121.231049, -46.326103)"/>
  <path class="st1" d="M 130.944 92.481 L 116.248 92.481 L 128.124 68.387 C 124.904 68.387 116.046 66.667 112.826 63.732 C 108.65 59.934 105.226 52.241 107.592 43.078 C 110.21 33.005 121.482 25.36 133.712 28.499 C 142.467 30.727 147.6 35.182 149.111 44.849 C 149.814 49.305 149.512 53.606 146.594 60.186 L 130.944 92.481 Z M 120.074 49.203 C 120.074 59.681 136.176 59.985 136.176 49.609 C 136.176 38.776 120.074 38.675 120.074 49.203 Z" style="fill: rgb(255, 255, 255);"/>
  <path class="st1" d="M 172.007 28.599 C 186.148 26.778 198.479 37.964 194.151 52.495 C 193.495 54.771 189.621 59.631 189.621 59.631 C 189.621 59.631 195.509 65.147 196.163 68.691 C 198.88 83.523 187.759 92.229 176.436 92.585 C 164.459 92.938 151.324 84.787 153.891 69.5 C 154.243 67.425 155.601 65.452 156.306 64.237 C 157.011 63.022 160.282 59.631 160.282 59.631 C 160.282 59.631 155.903 52.646 155.501 49.658 C 154.041 38.827 160.433 30.069 172.007 28.599 Z M 169.189 46.368 C 169.189 54.163 180.865 54.061 180.865 46.773 C 180.865 38.523 169.189 38.42 169.189 46.368 Z M 175.228 80.335 C 184.337 80.335 184.387 66.565 175.077 66.565 C 165.716 66.617 165.969 80.335 175.228 80.335 Z" style="fill: rgb(255, 255, 255);"/>
  <path class="st1" d="M 221.073 28.599 C 228.219 27.893 234.46 30.473 237.982 33.865 C 248.449 43.938 250.161 77.044 237.58 88.079 C 232.396 92.635 221.628 94.962 213.424 90.912 C 205.573 87.016 200.943 76.639 200.138 64.641 C 198.931 45.761 204.315 30.321 221.073 28.599 Z M 223.489 80.335 C 236.071 80.081 235.567 37.865 221.476 41.508 C 211.512 44.09 211.663 80.637 223.489 80.335 Z" style="fill: rgb(255, 255, 255);"/>
  <path class="st1" d="M 84.344 29.106 L 84.344 41.66 C 50.173 32.397 50.424 87.977 83.89 78.764 L 83.89 91.318 C 32.056 104.326 31.805 17.059 84.344 29.106 Z" style="fill: rgb(255, 255, 255);"/>
  <path class="st1" d="M 16.205 66.716 L 16.254 54.213 C 22.294 54.213 25.917 52.089 25.917 47.683 C 25.917 44.039 25.313 40.445 13.083 40.445 L 13.134 92.481 L 0 92.481 L 0.15 27.841 L 12.832 27.841 C 37.189 27.942 40.058 37.762 40.058 47.279 C 40.007 60.947 30.546 66.716 16.205 66.716 Z" style="fill: rgb(255, 255, 255);"/>
  <rect x="86.054" y="54.973" class="st1" width="15.147" height="8.605" style="fill: rgb(255, 255, 255);"/>
  <rect x="251.57" y="28.448" class="st1" width="12.43" height="64.033" style="fill: rgb(255, 255, 255);"/>
</svg>