<?xml version="1.0" encoding="utf-8"?>
<!-- Made by szalik  -->
<svg version="1.1" id="piece" xmlns="http://www.w3.org/2000/svg" xmlns:xlink="http://www.w3.org/1999/xlink" xml:space="preserve">
<g>
	<g>
		<path d="M187.79,182.63c0.4,1.68,0.35,3.13-0.01,4.57c-3.07,12.28-6.57,24.43-10.69,36.4c-5.31,15.44-10.67,30.87-16.5,46.13
			c-2.44,6.38-4.88,12.75-7.53,19.05c-1.44,3.42-3.21,6.7-5.03,9.94c-0.9,1.61-2.23,2.99-3.51,4.43c-0.48-1.07-0.79-2.09-0.47-3.22
			c2.83-10.19,5.65-20.39,8.96-30.44c6.6-20.02,13.63-39.9,21.33-59.52c2.97-7.58,6.3-15.03,9.51-22.51
			C184.67,185.54,186.37,184.31,187.79,182.63z" fill="white"/>
		<path d="M261.8,272.22c0,2.16,0,4.22,0,6.4c-0.3,0.04-0.6,0.12-0.9,0.12c-7.52,0.01-15.04,0.01-22.56,0.01
			c-1.05,0-1.32-0.21-1.57-1.25c-0.12-0.5-0.17-1.03-0.17-1.54c0.01-3.4,0.06-6.8,0.05-10.2c-0.01-13.76-0.04-27.52-0.05-41.28
			c0-1.16,0.07-2.32,0.18-3.47c0.11-1.09,0.42-1.38,1.49-1.53c0.63-0.09,1.27-0.13,1.91-0.14c5.72-0.01,11.44-0.02,17.16,0.01
			c1.43,0.01,2.87,0.13,4.41,0.2c0,2.31,0,4.51,0,6.87c-0.5,0-0.97,0-1.44,0c-4.6,0-9.2,0-13.8,0c-0.36,0-0.72-0.02-1.08,0.02
			c-1.94,0.25-3.12,1.31-3.2,3.42c-0.14,3.63-0.11,7.27-0.01,10.91c0.05,1.79,0.7,2.37,2.5,2.65c1.14,0.17,2.31,0.2,3.46,0.2
			c4.08,0.01,8.16-0.03,12.24-0.05c0.43,0,0.86,0,1.36,0c0,1.92,0,3.7,0,5.57c-1.19,0.06-2.33,0.17-3.48,0.18
			c-1.72,0.01-3.44-0.14-5.15-0.08c-2.55,0.08-5.11,0.17-7.65,0.45c-2.13,0.24-2.98,1.18-3.12,3.28c-0.13,2.03-0.15,4.07-0.08,6.1
			c0.12,3.59,0.34,7.19,0.53,10.78c0.09,1.69,0.7,2.29,2.39,2.27c2.52-0.03,5.03-0.18,7.55-0.16
			C255.75,271.99,258.7,272.13,261.8,272.22z" fill="white"/>
		<path d="M419.72,243.58c0,1.93,0,3.68,0,5.56c-1.11,0.07-2.21,0.18-3.31,0.19c-1.76,0.01-3.52-0.13-5.27-0.08
			c-2.55,0.08-5.11,0.16-7.65,0.44c-2.22,0.25-3.04,1.16-3.18,3.35c-0.14,1.99-0.15,3.99-0.08,5.98c0.12,3.59,0.34,7.18,0.53,10.78
			c0.09,1.78,0.68,2.36,2.45,2.34c2.48-0.03,4.95-0.17,7.43-0.16c2.84,0.01,5.67,0.11,8.51,0.18c0.15,0,0.3,0.05,0.54,0.09
			c0,2.12,0,4.22,0,6.44c-0.44,0.02-0.87,0.06-1.29,0.06c-7.28,0-14.56,0.01-21.84,0c-1.41,0-1.73-0.26-1.97-1.65
			c-0.07-0.43-0.08-0.88-0.07-1.31c0.02-3.36,0.06-6.72,0.06-10.08c-0.01-13.76-0.05-27.52-0.05-41.28c0-1.16,0.07-2.32,0.19-3.47
			c0.1-1.02,0.41-1.31,1.42-1.46c0.63-0.09,1.27-0.15,1.91-0.15c5.8-0.01,11.6-0.02,17.4,0.01c1.39,0.01,2.78,0.14,4.25,0.22
			c0,2.3,0,4.48,0,6.85c-0.47,0-0.93,0-1.39,0c-4.64,0-9.28,0-13.92,0c-0.36,0-0.72-0.02-1.08,0.03c-2.01,0.29-3.08,1.45-3.19,3.71
			c-0.12,2.31-0.09,4.64-0.1,6.95c-0.01,1.08,0.04,2.16,0.09,3.24c0.1,2.1,0.67,2.81,2.72,3.11c1.1,0.16,2.23,0.16,3.35,0.16
			c4.04,0,8.08-0.03,12.12-0.05C418.72,243.58,419.15,243.58,419.72,243.58z" fill="white"/>
		<path d="M83.91,278.92c-1.78,0-3.45,0-5.23,0c-0.02-0.48-0.06-0.91-0.06-1.33c0-17.79,0.01-35.59,0.02-53.38
			c0-1.51,1.12-2.94,2.6-3.06c3.74-0.29,7.47-0.71,11.23-0.15c3.3,0.49,5.87,1.98,7.89,4.68c4.89,6.55,5.12,13.54,1.8,20.67
			c-2.13,4.58-6.12,6.8-11.2,6.93c-1.12,0.03-2.24-0.02-3.36,0.01c-2.42,0.07-3.48,1-3.55,3.42c-0.09,2.71,0.01,5.43,0.04,8.15
			c0.04,3.16,0.14,6.31,0.13,9.47C84.21,275.83,84.02,277.33,83.91,278.92z M84,236.15c-0.01,0-0.01,0-0.02,0
			c-0.02,0.36-0.07,0.72-0.05,1.08c0.11,2.11,0.08,4.24,0.38,6.33c0.36,2.57,1.8,3.74,4.38,3.59c1.66-0.1,3.33-0.41,4.93-0.87
			c2.13-0.62,3.63-2.04,4.55-4.12c1.63-3.68,1.29-7.2-0.51-10.71c-1.21-2.36-3.13-3.55-5.69-3.83c-1.35-0.15-2.72-0.15-4.05-0.36
			c-2.75-0.44-3.92,1.26-3.92,3.27C84,232.39,84,234.27,84,236.15z" fill="white"/>
		<path d="M334.78,276.4c-5.51-0.32-10.56-1.76-14.72-5.58c-2-1.84-3.49-4.04-4.76-6.42c-2.44-4.57-4.01-9.41-4.27-14.59
			c-0.28-5.52,1.03-10.72,3.82-15.48c1.18-2.03,2.63-3.9,4.04-5.79c2.54-3.41,6.02-5.32,10.17-5.98c4.59-0.73,8.99-0.12,13.14,2.02
			c1.59,0.82,2.91,1.96,3.99,3.38c0.54,0.71,0.78,1.48,0.62,2.36c-0.22,1.23-1.16,1.87-2.36,1.53c-0.61-0.17-1.19-0.47-1.75-0.76
			c-0.67-0.35-1.34-0.72-1.97-1.14c-5.02-3.24-12.84-2.25-17.13,1.58c-1.72,1.54-3.11,3.32-4.22,5.33c-2.09,3.8-3.38,7.85-3.5,12.2
			c-0.16,5.76,1.82,10.81,5.35,15.28c2.4,3.05,5.51,5.04,9.31,5.94c3.61,0.86,6.96,0.25,10.14-1.6c1.03-0.6,2.09-1.18,3.15-1.72
			c0.38-0.19,0.83-0.31,1.25-0.37c1.4-0.2,2.08,0.52,1.73,1.91c-0.44,1.75-1.34,3.28-2.79,4.36c-2.06,1.54-4.32,2.73-6.87,3.26
			C336.37,276.31,335.57,276.32,334.78,276.4z" fill="white"/>
		<path d="M145.55,317.76c-1.22-1.62-1.32-3.34-0.27-5.02c4.45-7.1,7.15-14.97,10.07-22.75c2.71-7.21,5.6-14.36,8.37-21.55
			c4.49-11.66,9-23.32,13.42-35.02c2.37-6.29,3.87-12.83,5.42-19.36c1.12-4.7,2.29-9.38,3.44-14.07c0.09-0.35,0.23-0.68,0.31-1.03
			c0.31-1.29,1.07-2.12,2.47-2.4c0.75,0.87,0.8,1.85,0.5,2.96c-1.11,4.16-2.14,8.35-3.29,12.51c-2.56,9.27-4.97,18.59-7.79,27.79
			c-5,16.32-11.39,32.14-17.97,47.87c-3.5,8.36-6.97,16.74-10.46,25.11c-0.32,0.77-0.68,1.53-1.03,2.29
			C148.1,316.47,147.01,317.33,145.55,317.76z" fill="white"/>
	</g>
</g>
</svg>
