<?xml version="1.0" encoding="utf-8"?>
<!-- Made by Szalik  -->
<svg version="1.1" id="Piece" viewBox="-35 67 606 353" xmlns="http://www.w3.org/2000/svg" xmlns:xlink="http://www.w3.org/1999/xlink" xml:space="preserve">
<g>
	<g>
		<path d="M117.83,391.09c0.71-3.19,1.29-5.79,1.93-8.63c1.72,0,3.2,0,4.68,0c27.87,0,55.73,0,83.6,0c6.37,0,6.37,0,7.15-7.43
			c-26.93,0-53.8,0-81.39,0c3.11-14.66,6.06-28.56,9.08-42.79c6.06,0,11.9,0,17.75,0c8.75,0,17.49,0,26.24,0
			c5.05,0,5.63-0.69,4.94-6.27c-19.77,0-39.59,0-59.87,0c0.42-2.56,0.4-4.87,1.27-6.79c0.45-1.01,2.44-1.86,3.73-1.87
			c17.37-0.12,34.74-0.21,52.11,0.02c4.03,0.05,6.44-0.67,6.59-5.12c0.06-1.9,1.07-2.8,3.15-2.71c3.33,0.15,6.66,0.04,10.33,0.04
			c-0.37,2.78-0.67,4.96-1.02,7.58c20.81,0,41.36,0,62.52,0c-0.64,3.1-1.17,5.69-1.8,8.76c-1.53,0-3,0-4.46,0
			c-17.74,0-35.49,0-53.23,0c-5.5,0-5.5,0.01-6.11,6.24c16.21,0,32.38,0,48.99,0c-2.98,13.85-5.81,27.18-8.82,40.48
			c-0.2,0.89-1.74,1.98-2.75,2.09c-2.85,0.29-5.74,0.11-8.61,0.11c-6.45,0.01-6.71,0.28-6.74,7.55c9.55,0,19.11,0,28.45,0
			c0.32,0.63,0.56,0.87,0.52,1.06c-1.52,7.69-1.53,7.69-9.57,7.69c-6.25,0-12.5,0.06-18.74-0.03c-2.25-0.03-3.4,0.67-3.76,3.07
			c-0.47,3.19-1.35,6.31-2.06,9.46c-2.57,11.33-5.8,14.65-17.25,15.68c-7.17,0.65-14.44,0.12-21.98,0.12
			c0.25-2.99,0.48-5.78,0.77-9.2c3.78,0,7.6,0,11.42,0c2.75,0,5.5,0.07,8.25-0.06c3.03-0.15,5.24-1.51,5.92-4.7
			c0.97-4.57,1.92-9.15,3.01-14.34C180.34,391.09,149.31,391.09,117.83,391.09z M235.24,357.28c-11.82,0-23.03-0.02-34.23,0.06
			c-0.63,0-1.62,0.76-1.8,1.37c-0.67,2.2-1.08,4.48-1.7,7.27c11.82,0,23.03,0.02,34.24-0.06c0.63,0,1.62-0.76,1.8-1.37
			C234.22,362.35,234.62,360.06,235.24,357.28z M185.74,357.32c-1.79,0-3.12,0-4.46,0c-7.73,0-15.46,0-23.19,0
			c-7.49,0-7.5,0-8.79,7.29c-0.06,0.32,0.14,0.68,0.3,1.37c10.94,0,21.89,0.03,32.83-0.07c0.72-0.01,1.86-0.9,2.05-1.59
			C185.07,362.21,185.29,360.01,185.74,357.32z M201.31,348.74c10.05,0,19.48,0,28.92,0c7.04,0,7.05,0,8.27-6.87
			c0.04-0.21-0.14-0.45-0.37-1.08c-11.16,0-22.46-0.02-33.76,0.06c-0.64,0-1.66,0.78-1.84,1.39
			C201.99,344.11,201.78,346.08,201.31,348.74z M188.9,341.55c-0.45-0.2-0.68-0.39-0.9-0.39c-10.46-0.06-20.93-0.17-31.39-0.05
			c-0.97,0.01-2.32,1.27-2.78,2.28c-0.64,1.39-0.6,3.1-0.92,5.1c1.53,0.08,2.85,0.2,4.17,0.2c8.35,0.02,16.7,0.01,25.05,0.01
			C188.52,348.7,188.59,348.62,188.9,341.55z" fill="white"/>
		<path d="M362.71,419.53c-0.26-0.47-0.37-0.57-0.37-0.67c-0.14-10.12-0.14-10.12,9.9-10.12c0.37,0,0.75,0,1.12,0
			c10.73,0,10.74,0,12.93-10.31c0.98-4.62,1.97-9.23,2.91-13.86c0.19-0.93,0.12-1.91,0.19-3.32c-3.74,0-7.21,0-10.67,0
			c-9,0-17.99,0.11-26.98-0.06c-2.75-0.05-3.89,0.75-4.43,3.52c-1.91,9.75-4.2,19.43-6.13,29.19c-0.41,2.09-1.22,2.69-3.18,2.63
			c-3.46-0.1-6.92-0.03-10.7-0.03c2.5-11.86,4.9-23.25,7.35-34.91c-1.24-0.13-2.19-0.32-3.15-0.32
			c-11.49-0.02-22.99,0.06-34.48-0.07c-2.53-0.03-3.38,1.01-4.04,3.25c-3.58,12.14-9.34,23.1-18.05,32.4
			c-0.6,0.64-1.19,1.29-1.81,1.9c-0.26,0.25-0.6,0.43-1.24,0.87c-3.12-2.45-6.31-4.95-10.05-7.87c1.79-1.62,3.55-2.98,5.02-4.59
			c8.77-9.62,13.07-21.47,15.99-33.78c4.33-18.25,8.09-36.64,12.1-54.97c0.29-1.32,0.68-2.61,1.04-4c40.38,0,80.56,0,121.28,0
			c-1.45,6.9-2.82,13.55-4.24,20.19c-4.97,23.33-9.93,46.66-14.94,69.98c-2.06,9.58-6.27,13.61-16.22,14.73
			c-5.06,0.57-10.23,0.19-15.35,0.23C365.18,419.54,363.84,419.53,362.71,419.53z M350.13,371.98c13.67,0,26.77,0.03,39.86-0.07
			c0.74-0.01,1.96-0.9,2.12-1.57c1.37-5.9,2.54-11.85,3.75-17.69c-0.53-0.29-0.74-0.5-0.96-0.5c-12.87-0.05-25.73-0.13-38.6-0.03
			c-0.83,0.01-2.17,1.22-2.38,2.08C352.57,359.86,351.46,365.59,350.13,371.98z M356.36,342.73c13.69,0,26.66,0.03,39.62-0.07
			c0.81-0.01,2.17-0.93,2.34-1.65c1.34-5.64,2.45-11.32,3.74-17.49c-13.58,0-26.65-0.03-39.73,0.08c-0.8,0.01-2.12,1.05-2.3,1.83
			C358.71,330.98,357.63,336.58,356.36,342.73z M296.91,370.96c0.61,0.34,0.92,0.67,1.23,0.67c12.23,0.06,24.46,0.12,36.69,0.08
			c0.69,0,1.86-0.67,1.99-1.22c1.44-5.96,2.71-11.95,4.14-18.43c-13.23,0-25.69-0.03-38.15,0.08c-0.77,0.01-2.01,1.07-2.2,1.84
			C299.26,359.63,298.12,365.32,296.91,370.96z M346.81,324.37c-0.78-0.33-1.11-0.6-1.45-0.6c-12.11-0.05-24.23-0.11-36.34-0.03
			c-0.82,0.01-2.17,0.99-2.35,1.74c-1.33,5.53-2.43,11.11-3.58,16.56c0.59,0.31,0.8,0.53,1.02,0.53
			c12.24,0.06,24.48,0.13,36.72,0.06c0.81,0,2.16-0.95,2.34-1.69C344.51,335.44,345.63,329.87,346.81,324.37z" fill="white"/>
		<path d="M70.09,293.51c0.51-3.62,0.55-7.37,1.6-10.82c8.01-26.33,15.77-52.74,24.46-78.85c13.32-39.98,28.46-79.3,45.78-117.75
			c2.35-5.22,5.19-10.24,7.94-15.27c0.78-1.43,2.08-2.58,3.14-3.86c0.37,0.13,0.73,0.25,1.1,0.38c0,1.61,0.33,3.3-0.05,4.81
			c-3,11.83-5.78,23.74-9.3,35.42c-15.89,52.66-34.97,104.17-56.4,154.8c-3.88,9.18-8.56,18.03-13.01,26.96
			c-0.88,1.78-2.36,3.26-3.56,4.88C71.23,293.98,70.66,293.74,70.09,293.51z" fill="white"/>
		<path d="M238.76,184.62c11.65,0,23.2,0,34.89,0c0,4.03,0,7.6,0,11.57c-11.67,0-23.21,0-34.95,0c0,14.05,0,27.71,0,41.79
			c6.4,0,12.61,0,18.83,0c4.87,0,9.74,0.07,14.61-0.03c2.11-0.05,2.91,0.72,2.82,2.83c-0.12,2.73-0.03,5.46-0.03,8.45
			c-15.7,0-31.09,0-46.71,0c0-35.79,0-71.56,0-107.53c15.42,0,30.73,0,46.38,0c0,3.61,0,7.24,0,11.26c-11.95,0-23.77,0-35.84,0
			C238.76,163.61,238.76,173.89,238.76,184.62z" fill="white"/>
		<path d="M534.85,184.7c11.85,0,23.32,0,34.96,0c0,3.88,0,7.45,0,11.39c-11.56,0-23.1,0-34.95,0c0,14.02,0,27.67,0,41.72
			c11.82,0,23.63,0,35.74,0c0,4.03,0,7.68,0,11.51c-15.41,0-30.71,0-46.21,0c0-35.85,0-71.53,0-107.52c15.32,0,30.71,0,46.3,0
			c0,3.61,0,7.16,0,11.12c-11.95,0-23.75,0-35.84,0C534.85,163.61,534.85,173.88,534.85,184.7z" fill="white"/>
		<path d="M-35.75,142.26c8.88,0,17.51-0.45,26.05,0.15c6.49,0.45,11.63,4.29,15.45,9.59c7.77,10.79,7.68,29.13-0.06,39.99
			c-5.07,7.13-12.32,9.8-20.64,10.24c-3.34,0.18-6.7,0.03-10.36,0.03c0,15.81,0,31.24,0,46.96c-3.61,0-6.9,0-10.44,0
			C-35.75,213.5-35.75,177.73-35.75,142.26z M-25.28,190.93c8.88-0.06,18.2,1.02,23.55-7.53c4.54-7.26,4.73-15.82,0.08-23.18
			c-5.51-8.73-15-6.55-23.63-7.28C-25.28,165.73-25.28,178.05-25.28,190.93z" fill="white"/>
		<path d="M432.75,167.6c-3.93-2.88-7.36-6.02-11.33-8.17c-11.76-6.4-23.68-4.5-33.25,4.85c-15.93,15.55-16.7,44.16-1.63,60.71
			c11.84,12.99,28.38,13.82,41.57,2c1.37-1.22,2.4-2.82,3.59-4.25c0.35,0.17,0.7,0.33,1.04,0.5c0,3.91,0.17,7.84-0.11,11.73
			c-0.08,1.08-1.31,2.31-2.32,3.07c-15.44,11.73-35.51,9.8-49.48-4.66c-21.26-21.99-18.61-61.45,4.75-79.96
			c13.06-10.35,30.7-10.86,44.16-1.06c2.25,1.64,3.33,3.37,3.08,6.21C432.54,161.54,432.75,164.55,432.75,167.6z" fill="white"/>
		<path d="M154.48,97.58c-0.38,3.09-0.38,6.28-1.2,9.25c-4.48,16.2-8.67,32.5-13.88,48.47c-16.63,50.93-34.83,101.3-56.87,150.2
			c-2.25,5-4.94,9.8-7.56,14.62c-0.86,1.58-2.17,2.92-3.96,5.28c-1.23-5.18-0.71-9.29,0.98-12.84
			c5.95-12.46,13.06-24.42,18.38-37.13c20.82-49.73,39.31-100.33,55.12-151.89c2.34-7.63,4.16-15.41,6.27-23.11
			c0.3-1.09,0.9-2.1,1.37-3.15C153.58,97.39,154.03,97.49,154.48,97.58z" fill="white"/>
		<path d="M167.99,409.16c-4.3,1.88-7.65,3.45-11.1,4.75c-0.77,0.29-2.33-0.09-2.81-0.72c-3.75-4.92-7.32-9.97-11.19-15.31
			c3.6-1.45,7.1-2.94,10.68-4.21c0.69-0.24,2.04,0.12,2.51,0.69C159.95,399.01,163.69,403.78,167.99,409.16z" fill="white"/>
	</g>
</g>
</svg>
