<?xml version="1.0" encoding="utf-8"?>
<!-- Generator: Adobe Illustrator 23.0.5, SVG Export Plug-In . SVG Version: 6.00 Build 0)  -->
<svg version="1.1" id="Warstwa_1" xmlns="http://www.w3.org/2000/svg" xmlns:xlink="http://www.w3.org/1999/xlink" x="0px" y="0px" xml:space="preserve">
<g>
	<g>
		<path d="M42.03,242.3c-3.33-0.52-3.64-1.74-1.57-4.32c7.43-9.26,22.65-11.1,31.58-3.21c6.51,5.75,6.01,13.37,0.2,19.83
			c-6.63,7.39-16.15,10.16-24.39,14.96c-2.24,1.31-5.26,1.2-7.77,2.16c-1.38,0.53-2.93,1.68-3.55,2.96
			c-2.96,6.07-4.86,12.83-8.7,18.24c-2.24,3.15-7.42,4.22-11.28,6.22c-0.48-1.31-1.63-2.82-1.32-3.91c1.2-4.18,2.42-8.46,4.45-12.27
			c6.79-12.74,13.94-25.3,20.94-37.92C41.1,244.18,41.52,243.29,42.03,242.3z M41.04,265.08c7.94-1.1,17.97-6.93,22.25-12.64
			c3.16-4.22,1.85-8.93-3.01-10.9c-4.14-1.67-7.23-0.08-9.72,5.1c-0.9,1.88-1.45,3.93-2.43,5.76
			C45.91,256.57,43.53,260.64,41.04,265.08z" fill="white"/>
		<path d="M132.13,295.86c-4.7-7.74-1.05-14.77,1.76-21.51c2.13-5.1,5.54-9.71,8.7-14.32c3.54-5.16,8.57-8.49,15.27-11.12
			c-0.62,1.97-0.77,3.3-1.41,4.32c-3.53,5.71-7.47,11.19-10.67,17.08c-2.24,4.13-3.63,8.75-5.14,13.24
			c-0.31,0.92,0.2,2.74,0.93,3.22c0.75,0.49,2.68,0.28,3.33-0.38c2.57-2.61,5.32-5.23,7.14-8.35c4.19-7.2,7.7-14.8,11.83-22.05
			c2.36-4.14,6.84-5.2,10.98-6.51c0.37,0.29,0.74,0.59,1.11,0.88c-4.11,7.78-8.23,15.57-12.51,23.67c2.4-0.42,4.61-0.81,6.81-1.2
			c0.14,0.43,0.28,0.85,0.41,1.28c-0.84,0.52-1.62,1.26-2.54,1.54c-6.17,1.86-9.27,6.37-11.61,12.09
			c-2.49,6.08-5.15,12.27-8.9,17.58c-3.41,4.82-8.3,8.63-12.74,12.67c-2.29,2.08-4.87,3.93-7.57,5.44
			c-5.51,3.06-10.87-0.07-10.19-6.27c0.39-3.53,2.17-7.04,3.91-10.24c1.21-2.23,3.35-4,5.2-5.84
			C128.02,299.33,129.97,297.77,132.13,295.86z M147.31,288.95c-3.43,2.48-6.44,4.1-8.72,6.44c-3.7,3.78-7.31,7.79-10.16,12.21
			c-1.09,1.69-0.95,5.81,0.34,7.02c2.26,2.12,5.04-0.18,6.61-2.19C140.66,305.63,144.45,298.01,147.31,288.95z" fill="white"/>
		<path d="M201.87,266.84c0.74-1.31,1.37-2.7,2.23-3.93c3.83-5.52,6.96-11.3,6.65-18.27c-0.08-1.72-0.82-3.41-1.52-6.19
			c-3.01,2.64-5.51,4.31-7.33,6.54c-4.86,5.95-9.58,12.04-14.07,18.28c-3.64,5.06-4.24,11.14-4.47,17.13
			c-0.14,3.63,1.15,7.02,4.87,8.57c3.22,1.35,6.47,1.56,9.53-0.77c4.12-3.14,8.34-6.16,13.25-9.76c-0.61,1.46-0.79,2.36-1.29,2.99
			c-5.37,6.74-11.34,12.84-19.02,16.98c-5.56,3-11.62,1.44-15.43-3.7c-4.57-6.17-4.48-13.22-2.94-20.03
			c4.39-19.46,17.32-32.01,34.48-40.83c1.53-0.79,3.14-1.45,4.72-2.14c5.37-2.32,10.22,0.12,11,5.98c0.43,3.23,0.48,6.82-0.5,9.87
			c-2.12,6.65-4.59,13.29-12.2,16.04c-2.53,0.92-4.75,2.71-7.11,4.1C202.44,267.41,202.16,267.13,201.87,266.84z" fill="white"/>
		<path d="M241.79,288.92c2.89-2.48,5.79-4.96,8.68-7.44c0.31,0.28,0.62,0.56,0.93,0.84c-0.96,1.29-1.79,2.71-2.91,3.84
			c-3.6,3.63-7.15,7.34-11.06,10.61c-1.51,1.26-4.05,2.09-5.9,1.79c-0.93-0.15-2.06-3.34-1.9-5.04c0.28-3.15,1.12-6.36,2.31-9.31
			c2.1-5.19,4.77-10.15,6.92-15.32c1-2.4,1.36-5.06,1.48-7.83c-5.11,3.1-9.39,6.62-11.35,12.31c-0.58,1.69-1.38,3.31-2.18,4.91
			c-2.16,4.33-3.95,8.92-6.67,12.86c-2.65,3.85-6.53,6.58-12.42,7.09c0.54-2.21,0.68-4.16,1.46-5.8
			c7.91-16.75,15.85-33.49,23.94-50.15c2.21-4.56,4.7-9.04,7.57-13.2c2.16-3.13,5.88-3.47,10.4-3.94
			c-5.66,12.54-10.92,24.19-16.13,35.73c3.3-2.37,6.49-5.1,10.08-7.13c4.61-2.6,7.72-0.88,6.94,4.29
			c-0.79,5.26-3.04,10.32-4.91,15.37c-1.87,5.04-4.08,9.96-6.13,14.93C241.23,288.53,241.51,288.73,241.79,288.92z" fill="white"/>
		<path d="M482.98,245.79c-1.61,9.48-3.96,18.27-9.7,26.34c-6.53,9.19-15.75,15.34-23.35,23.27c-5.53,5.76-11.8,3.21-13.57-4.72
			c-1.68-7.57,0.29-14.69,2.81-21.56c5.14-14.07,14.52-25.1,26.13-34.33c0.68-0.54,1.46-0.96,2.21-1.4
			c6.35-3.79,12.22-1.6,14.31,5.49C482.47,241.11,482.61,243.5,482.98,245.79z M472.11,250.62c-0.45-1.54-0.89-4.55-2.22-7.11
			c-1.53-2.96-4.31-3.12-5.88-0.44c-4.79,8.19-10.02,16.23-13.67,24.92c-2.16,5.13-1.99,11.37-2.21,17.14
			c-0.12,3.24,2.28,4.16,5.22,2.56c0.97-0.53,1.89-1.23,2.7-1.99C465.72,276.56,470.8,265.26,472.11,250.62z" fill="white"/>
		<path d="M109.23,288.7c-2.77,2.57-5.29,4.92-7.83,7.25c-2.17,2-4.69,3.94-7.64,2.61c-3.18-1.43-3.06-5.03-3.05-7.87
			c0.05-13.77,6.57-24.49,16.54-33.39c2.6-2.32,5.44-4.37,8.2-6.5c3.91-3.03,9.23-1.94,10.8,2.67c1.45,4.24,2.72,8.16-0.25,13.19
			c-3.35,5.68-4.29,12.8-6.17,19.33c-0.27,0.95,0.08,2.08,0.14,3.13c3.33-3.17,6.47-6.16,9.61-9.15c0.23,0.15,0.46,0.3,0.69,0.45
			c-0.09,0.51-0.01,1.15-0.3,1.5c-3.78,4.59-7.6,9.13-11.42,13.69c-0.08,0.1-0.15,0.23-0.25,0.28c-2.33,0.94-4.66,1.88-6.99,2.81
			c-0.7-2.17-1.49-4.31-2.04-6.51C109.02,291.17,109.23,290.02,109.23,288.7z M103.41,289.89c2.59-2.57,5.66-4.67,7.39-7.58
			c2.2-3.68,3.28-8.02,4.89-12.05c2.13-5.35,1.27-10.28-2.33-13.07C104.89,264.53,99,282.7,103.41,289.89z" fill="white"/>
		<path d="M426.75,245.53c-2.85,1.31-5.7,2.63-8.65,3.98c-1.91-5.09,2.19-6.86,4.81-8.74c4.64-3.32,9.7-6.11,14.79-8.71
			c1.6-0.82,3.87-0.31,5.83-0.42c-0.28,1.84-0.13,3.9-0.93,5.47c-3.16,6.23-7.19,12.06-9.84,18.48
			c-4.52,10.97-11.1,20.81-16.29,31.39c-1.25,2.55-2.29,5.21-3.08,7c-2.09,0.81-3.58,1.33-5.02,1.97c-0.9,0.4-1.67,1.28-2.58,1.43
			c-1.74,0.28-3.55,0.18-5.32,0.24c0.18-1.63-0.12-3.52,0.61-4.84c7.41-13.39,15-26.69,22.53-40.01c1.22-2.16,2.46-4.31,3.69-6.47
			C427.12,246.05,426.93,245.79,426.75,245.53z" fill="white"/>
		<path d="M101.59,227.92c-0.62,2.71-0.65,4.6-1.46,6.06c-2.67,4.84-5.88,9.39-8.39,14.31c-1.83,3.59-2.66,7.68-4.33,11.37
			c-1.81,4-4.41,7.67-6.03,11.73c-1.99,4.97-3.32,10.21-4.94,15.33c0.28,0.24,0.56,0.49,0.85,0.73c4.06-2.88,8.12-5.76,12.21-8.66
			c-0.37,4.29-17.11,18.71-23.27,19.93c-2.96-4.4-2.08-9.32-0.36-13.53c4.19-10.22,9.02-20.19,13.85-30.14
			c3.09-6.38,7.04-12.37,9.86-18.85C91.83,231.03,96.29,230.21,101.59,227.92z" fill="white"/>
		<path d="M285.74,260.9c-0.77,9.31-4.71,17.95-11.56,25.21c-3.4,3.6-7.03,7.06-10.92,10.12c-5.05,3.97-9.62,1.83-10.53-4.57
			c-1.24-8.73,0.87-16.84,6.16-23.6c4.65-5.94,10.24-11.22,15.85-16.31c4.36-3.96,9.59-1.81,10.65,3.97
			C285.64,257.16,285.6,258.67,285.74,260.9z M273.48,259.09c-7.16,6.53-9.75,14.98-11.02,23.87c-0.34,2.38,1.03,5,1.65,7.63
			C274.35,286.68,279.42,268.74,273.48,259.09z" fill="white"/>
		<path d="M367.02,278.82c-0.43,0.94-0.63,2.14-1.33,2.79c-5.19,4.84-10.32,9.77-15.8,14.26c-4.83,3.96-11.56,2.85-12.79-2
			c-0.87-3.42-1.37-7.26-0.77-10.69c1.86-10.54,7.91-18.65,16.45-24.86c3.8-2.76,7.75-5.48,12-7.4c4.36-1.98,7.67,0.8,7.34,5.61
			c-0.4,5.84-4.32,9.43-8.81,12.23c-3.97,2.48-8.23,4.61-12.59,6.33c-2.72,1.08-3.4,2.87-3.65,5.29c-0.1,0.99-0.41,2.04-0.2,2.97
			c0.43,1.84,0.66,4.45,1.9,5.18c1.25,0.73,3.84,0,5.44-0.86c2.61-1.4,4.93-3.35,7.28-5.19c1.65-1.29,3.15-2.77,4.71-4.17
			C366.48,278.49,366.75,278.66,367.02,278.82z M360.8,258.28c-6.03,4.13-10.24,9.58-10.79,13.97
			C360.08,269.82,364.9,263.58,360.8,258.28z" fill="white"/>
		<path d="M329.22,272.2c0-4.44,0-7.8,0-11.16c-5.88,6.93-10.37,14.26-10.52,23.39c-0.07,4.28,1.65,5.41,5.29,3.12
			c3.64-2.29,6.85-5.28,10.8-7.61c-0.92,1.34-1.65,2.87-2.78,3.99c-3.98,3.95-8.06,7.81-12.17,11.62c-2.37,2.19-5.07,4.06-8.41,2.4
			c-3.69-1.85-3.98-5.52-3.78-9.05c0.64-11.11,6.34-19.82,13.82-27.44c3.56-3.63,7.79-6.61,11.74-9.86
			c2.72-2.25,4.87-1.14,6.57,1.34c2.4,3.5,1.75,8.32-1.33,11.35c-1.69,1.65-3.23,3.46-4.97,5.05
			C332.47,270.25,331.21,270.88,329.22,272.2z" fill="white"/>
		<path d="M308.96,251.17c-3.23,6.19-6.69,12.27-9.63,18.59c-2.88,6.2-6.98,11.99-7.72,19.01c0.3,0.27,0.61,0.54,0.91,0.82
			c3.08-1.87,6.16-3.74,9.24-5.61c0.2,0.21,0.39,0.41,0.59,0.62c-1.12,1.33-2.07,2.87-3.4,3.94c-3.39,2.74-7.11,5.08-10.39,7.93
			c-2.18,1.89-4.26,1.73-5.86,0.07c-1.3-1.35-2.64-3.72-2.33-5.33c0.86-4.47,2.09-9,4.05-13.09c3.16-6.63,6.84-13.04,10.64-19.33
			c2.88-4.76,7.32-7.57,12.74-8.59C308.2,250.52,308.58,250.84,308.96,251.17z" fill="white"/>
		<path d="M402.85,277.7c-9.21,0-18.08,0-26.94,0c-0.1-0.44-0.2-0.87-0.3-1.31c2.31-3.22,3.89-7.22,9.01-7.32
			c6.21-0.12,12.43-0.44,18.64-0.45c3.32-0.01,3.91,1.37,2.17,4.24c-0.51,0.85-1.11,1.65-1.57,2.53
			C403.41,276.25,403.07,277.18,402.85,277.7z" fill="white"/>
		<path d="M319.27,229.69c-1.75,7.78-5.44,13.11-14.1,12.83C305.84,233.84,313.37,226.86,319.27,229.69z" fill="white"/>
	</g>
</g>
</svg>
