<?xml version="1.0" encoding="utf-8"?>
<svg version="1.1" viewBox="0 0 264 46" xmlns="http://www.w3.org/2000/svg">
  <polygon points="260.742 3.254 260.742 21.136 181.753 21.136 181.753 45.524 264 45.524 264 42.272 185.009 42.272 185.009 24.39 264 24.39 264 0 181.753 0 181.753 3.254" style="fill: rgb(255, 255, 255);"/>
  <polygon points="169.565 0 169.565 3.254 127.611 3.254 127.611 45.524 82.247 45.524 82.247 42.272 124.2 42.272 124.2 0" style="fill: rgb(255, 255, 255);"/>
  <polygon points="3.254 45.524 3.254 24.39 82.247 24.39 82.247 0 0 0 0 3.201 78.995 3.254 78.995 21.136 0 21.136 0 45.524" style="fill: rgb(255, 255, 255);"/>
</svg>