<svg id="Warstwa_1" data-name="Warstwa 1" xmlns="http://www.w3.org/2000/svg" viewBox="0 0 728.04 70.15"><title>psk</title><path d="M368.81,215.5v20.86h78.75V215.43h27.09c.07,1.46.21,3,.21,4.62,0,15.83.05,31.65,0,47.48,0,11.67-6.13,17.68-17.92,17.68q-79.72,0-159.45-.08a20.23,20.23,0,0,1-8.45-2.13c-18.21-8.9-36.32-18-54.48-27a53.37,53.37,0,0,0-5.18-1.87V284.9h-27V215.48h26.78v31a71.6,71.6,0,0,0,7-2.57c18.44-9.14,36.84-18.37,55.28-27.52a10.17,10.17,0,0,1,4.15-1.25q35.49-.1,71,0A18.61,18.61,0,0,1,368.81,215.5ZM447.27,258H359.94c-12.28,0-18.24-6-18.24-18.42,0-5.5,0-11,0-16.49,0-3.66-1.05-4.31-4.47-2.58-17.95,9.07-36,17.91-54,26.92-1.2.6-2,1.91-3,2.9,1,.94,1.92,2.18,3.12,2.78q27,13.6,54,27c1.17.58,2.63.56,4.53.93V264H447.27Z" transform="translate(109.05 -215.08)" fill="white"/><path d="M161.67,215.62v20.26c-2.07.09-4,.26-5.9.26q-44.73,0-89.47,0a17.47,17.47,0,0,0-4,.11c-.72.18-1.25,1.16-1.86,1.77.65.58,1.22,1.47,2,1.67a13.88,13.88,0,0,0,3.48.1c27,0,54,.41,81-.22a19.94,19.94,0,0,1,20.28,17.73c1.24,9.28.2,18.09-7.84,24.25a16.28,16.28,0,0,1-9,3.48c-38,.23-76,.14-113.95.12a24.59,24.59,0,0,1-2.73-.33V264.2H134.48a16.39,16.39,0,0,0,4-.1c.85-.22,1.51-1.2,2.26-1.83a7.12,7.12,0,0,0-2.23-1.36,22.09,22.09,0,0,0-4-.09c-27.15,0-54.31-.24-81.46.13-9.18.13-17.36-4.27-18.93-16.18-1-7.15-1.26-14.6,2.5-21.36,2.78-5,7-8.21,12.74-8.22,36.82-.12,73.63-.05,110.45,0A9.9,9.9,0,0,1,161.67,215.62Z" transform="translate(109.05 -215.08)" fill="white"/><path d="M548.25,285.21c-17.65,0-35.31,0-53,0-10.84,0-16.9-6.09-17-17q-.15-18,0-36c.1-10.71,6.4-17,17.07-17.06q53.22-.08,106.45,0c11.07,0,17.12,6.23,17.15,17.39q0,18,0,36c-.05,10.53-6.17,16.67-16.74,16.71C584.23,285.26,566.24,285.21,548.25,285.21Zm-.14-21.31c12.31,0,24.62-.08,36.93,0,3.63,0,5.13-1.39,5-5-.14-5.49-.21-11,0-16.47.19-4.5-1.64-6.34-6.12-6.24-7.49.16-15,0-22.46,0-16,0-31.95,0-47.92,0-4.36,0-6.87,1.25-6.53,6.31a149.24,149.24,0,0,1,0,16c-.16,4.11,1.44,5.54,5.57,5.46C524.48,263.76,536.29,263.9,548.11,263.9Z" transform="translate(109.05 -215.08)" fill="white"/><path d="M-82.35,269.89v14.82h-26.59v-7c0-19,.11-38-.11-57,0-4.46,1.45-5.66,5.76-5.64,35.14.14,70.28,0,105.42.2A43.81,43.81,0,0,1,17,218c9.78,3.68,14.81,20,12.16,31-1.95,8.08-4.9,15.58-13.29,18.93a27,27,0,0,1-9.73,1.55c-27.47.09-54.95,0-82.43,0C-78.1,269.43-79.9,269.7-82.35,269.89Zm1.16-21.31a9.13,9.13,0,0,0,1.74.33q39.44,0,78.85.07c3.42,0,4.69-1.3,4.66-4.75,0-5.88-.4-6.54-6.46-6.55q-35.43-.08-70.87,0c-9.62,0-9.72.11-8.46,9.84A4.6,4.6,0,0,0-81.19,248.58Z" transform="translate(109.05 -215.08)" fill="white"/><path d="M198.33,285.05H171.84v-45h26.49Z" transform="translate(109.05 -215.08)" fill="white"/><path d="M199.6,215.49c-3.3,6.86-5.95,12.51-8.77,18.06a3.78,3.78,0,0,1-2.56,1.92c-7.57.15-15.14.09-23.87.09,3.41-6.81,6.35-12.75,9.4-18.63a2.81,2.81,0,0,1,1.95-1.38C183.29,215.45,190.83,215.49,199.6,215.49Z" transform="translate(109.05 -215.08)" fill="white"/></svg>