<?xml version="1.0" encoding="UTF-8" standalone="no"?>
<!-- Created with Inkscape (http://www.inkscape.org/) -->
<svg xmlns="http://www.w3.org/2000/svg" width="631.00159" height="164.72501">
  <defs>
  </defs>
  <path d="M 99.678873,5.028802 C 90.993993,1.831415 81.847033,0 72.244753,0 C 58.986393,0 47.556073,2.745436 37.950419,8.232934 C 28.351513,14.175757 23.319338,20.577276 23.319338,28.351513 L 23.778035,29.265534 C 24.233359,39.323135 31.093575,47.097375 45.265963,52.584875 L 71.789433,29.265534 C 66.757253,29.265534 62.187153,28.351513 58.527693,26.520099 C 54.868243,24.692057 53.040193,22.405318 53.040193,19.204558 L 54.868243,15.089778 C 58.072373,11.430321 64.015193,9.602279 71.789433,9.602279 C 79.560293,9.602279 85.047793,11.430321 88.248553,15.089778 L 99.678873,5.028802"
     style="fill:#fff" />
  <path d="M 120.71484,30.179555 C 111.10919,22.405318 100.59626,17.376516 88.248553,15.089778 L 71.789433,29.265534 C 78.646273,29.720858 85.047793,31.552273 90.076593,35.208357 C 95.108773,39.323135 97.395503,44.355315 97.395503,49.839435 L 96.936813,53.040195 C 95.564093,58.072375 92.822033,62.187155 88.248553,65.387915 C 83.219753,68.588675 77.732253,69.961385 71.330733,69.961385 C 64.470513,69.961385 58.986393,68.129975 53.957593,64.929215 C 48.925413,61.728455 46.183353,57.613675 45.265963,52.584875 L 0,91.908005 C 3.659456,106.99778 12.344341,119.34213 25.606077,128.9444 C 38.867813,138.54668 54.412913,143.57548 71.789433,143.57548 C 91.904633,143.57548 109.28115,137.17735 123.45691,124.82962 C 137.63266,112.02659 144.9482,96.481485 144.9482,78.646275 C 144.9482,59.441715 136.71527,43.437915 120.71484,30.179555"
     style="fill:#fff" />
  <g style="fill:#fff">
  <path d="M 203.0172,13.261736 C 228.16795,13.261736 240.5123,26.064774 240.5123,52.126175 L 214.90622,52.126175 C 214.90622,40.695855 211.70546,35.208357 204.84862,35.208357 C 198.90242,35.208357 196.16036,38.409115 196.16036,44.810635 C 196.16036,49.384115 199.36112,53.498895 205.75926,57.613675 L 217.19296,64.929215 C 224.96382,69.961385 230.91002,74.990195 234.11078,79.104975 C 238.22556,85.051165 240.5123,92.366705 240.5123,100.13757 C 240.5123,113.3993 238.22556,122.54288 233.65208,128.48571 C 228.62328,134.43191 219.4797,137.63267 206.21796,137.63267 C 192.04558,137.63267 181.5259,133.97321 175.58308,126.20235 C 170.09558,119.34213 167.35015,109.28115 167.35015,95.108765 L 193.87362,95.108765 C 192.5009,108.36713 196.61568,114.76865 206.21796,114.76865 C 211.24676,114.76865 213.9922,112.02659 213.9922,106.0804 C 213.9922,101.51029 212.61948,97.850835 210.33274,95.108765 L 202.10318,88.707255 L 190.67286,81.847035 C 176.4971,73.162145 169.64026,62.187155 169.64026,48.470095 C 169.64026,38.867815 171.927,31.093576 176.04178,25.150754 C 181.9846,17.376516 190.67286,13.261736 203.0172,13.261736"  fill="white"/>
  <path d="M 377.22757,43.437915 C 386.37452,43.437915 392.77604,46.642055 396.43213,53.498895 C 401.0056,46.642055 407.40712,42.982595 415.63669,42.982595 C 419.75147,42.982595 424.32494,44.355315 428.43972,47.097375 C 434.38592,50.298135 437.12798,55.785635 437.12798,63.101175 L 437.12798,134.43191 L 411.5219,134.43191 L 411.5219,76.359535 L 410.60788,68.588675 C 410.14919,66.301935 408.32114,64.929215 405.12039,64.929215 C 401.91963,64.929215 399.63289,66.301935 398.71887,68.588675 L 398.26354,76.359535 L 398.26354,134.43191 L 372.65746,134.43191 L 372.65746,76.818235 L 372.19877,68.588675 C 371.28475,66.301935 369.4567,65.387915 366.25594,65.387915 C 363.05519,65.387915 361.22714,66.760625 360.76845,69.043995 L 360.30975,76.359535 L 360.30975,134.43191 L 334.24835,134.43191 L 334.24835,45.724655 L 358.9404,45.724655 L 358.9404,53.498895 L 361.22714,51.212155 C 365.79725,46.183355 371.28475,43.437915 377.22757,43.437915"  fill="white"/>
  <path d="M 631.0016,45.269335 L 610.88303,135.80462 C 607.68227,149.06298 602.65346,157.75125 595.79325,161.86603 C 592.13379,164.15276 586.64629,165.06679 579.78945,164.61147 L 570.64249,163.69406 L 570.64249,144.48951 L 578.41673,144.94821 C 582.07619,144.48951 582.99021,139.91941 580.70347,131.68648 L 561.49891,45.269335 L 588.47771,45.269335 L 595.79325,99.678875 L 604.48151,45.269335 L 631.0016,45.269335"  fill="white"/>
  <path d="M 493.82764,43.896615 C 502.97122,43.896615 509.37274,47.097375 512.5735,53.498895 C 517.6023,46.642055 524.46251,43.437915 532.23675,43.437915 C 536.35153,43.437915 540.92164,44.810635 545.03979,47.097375 C 550.98261,50.756835 553.72468,56.240955 553.72468,63.101175 L 553.72468,134.43191 L 527.66327,134.43191 L 527.66327,76.818235 L 527.20795,69.043995 C 526.74925,66.760625 524.92121,65.387915 521.71708,65.387915 C 518.51632,65.387915 516.23295,66.760625 515.31556,69.043995 L 514.86024,76.818235 L 514.86024,134.43191 L 489.25416,134.43191 L 489.25416,77.276925 L 488.79883,69.043995 C 488.34014,66.760625 486.0534,65.387915 482.85264,65.387915 C 479.65188,65.387915 477.82384,66.760625 477.36514,69.502695 L 476.90644,76.818235 L 476.90644,134.8906 L 450.84504,134.8906 L 450.84504,46.183355 L 475.5371,46.183355 L 475.5371,53.957595 L 477.82384,51.212155 C 482.39731,46.183355 487.88144,43.896615 493.82764,43.896615"  fill="white"/>
  <path d="M 318.70325,68.129975 L 318.70325,117.0554 L 319.15857,128.48571 C 319.61389,131.68648 320.07259,133.97321 321.44531,135.80462 L 295.83923,135.80462 L 292.63847,129.40311 L 287.15097,133.05918 C 283.03619,136.25994 278.92141,138.088 274.80663,138.088 C 266.11837,138.088 259.71685,135.80462 255.14338,131.68648 C 250.11458,127.5717 247.82784,122.08756 247.82784,114.31332 C 247.82784,105.62507 249.65588,99.223555 252.85664,94.194745 C 255.60207,89.621275 260.63088,85.961815 268.40511,83.678445 L 280.74945,79.104975 C 287.60967,76.818235 291.26575,74.076165 291.72445,71.330735 C 292.17978,68.129975 291.72445,65.387915 289.89641,63.101175 C 288.52369,60.814435 286.23695,59.900415 283.95021,60.359115 C 280.29413,60.359115 278.00739,62.187155 276.63467,65.387915 L 275.26196,73.617475 L 248.28653,73.617475 C 248.74186,60.359115 253.31534,51.670855 262.00022,46.642055 C 267.49109,43.437915 275.26196,42.068575 285.32293,42.068575 C 294.01119,42.068575 300.86803,42.982595 304.98281,44.810635 C 314.12977,48.470095 318.70325,56.240955 318.70325,68.129975 M 292.63847,92.366705 L 282.5775,96.936815 C 276.63467,100.13757 273.89261,104.25235 274.34794,109.28115 C 274.34794,113.3993 276.17598,116.60007 280.29413,117.97278 C 283.49152,118.88343 286.23695,118.4281 288.52369,116.60007 C 290.81043,114.31332 292.17978,111.11256 292.63847,106.0804 L 292.63847,92.366705"  fill="white"/>
  </g>
</svg>
