<?xml version="1.0" encoding="utf-8"?>
<svg version="1.1" viewBox="0 0 264 30" xmlns="http://www.w3.org/2000/svg">
  <path d="M 5.944 14.646 C 6.922 13.886 8.318 12.941 9.917 12.117 C 11.518 11.234 13.32 10.44 15.32 9.646 L 15.32 9.676 C 17.292 8.911 19.378 8.205 21.551 7.588 C 23.753 6.94 25.924 6.411 28.096 6.029 C 30.297 5.588 32.412 5.322 34.413 5.205 C 36.472 5.028 38.818 5.192 39.409 5.234 C 40 5.276 40.844 5.146 41.215 4.852 C 41.587 4.529 41.787 4.146 41.844 3.676 C 41.902 3.176 41.759 2.735 41.474 2.381 C 41.159 1.999 40.473 1.765 40.016 1.735 C 38.186 1.528 36.443 1.528 34.185 1.675 C 32.069 1.822 29.84 2.116 27.468 2.557 C 25.21 2.969 22.923 3.527 20.636 4.175 C 18.349 4.822 16.178 5.558 14.12 6.351 C 11.976 7.205 9.66 8.285 8.345 8.97 C 7.032 9.654 5.339 10.637 3.909 11.851 C 2.478 13.065 1.872 13.647 0.914 15.175 C -0.044 16.703 -0.264 18.436 0.326 19.474 C 1.844 22.146 7.26 21.27 9.318 20.858 C 10.975 20.506 13.005 20.027 15.435 19.322 C 17.206 18.763 19.465 18.027 22.208 17.087 L 29.011 14.793 C 31.498 13.94 33.527 13.293 35.1 12.851 C 37.015 12.263 40.416 11.429 42.167 11.756 C 42.079 12.884 40.717 15.908 34.641 18.704 C 32.382 19.763 29.868 20.734 27.095 21.675 L 27.066 21.675 C 24.924 22.381 22.723 22.999 20.464 23.557 C 18.263 24.087 16.204 24.469 14.232 24.793 L 14.261 24.763 C 11.159 25.209 6.699 24.813 5.818 24.931 C 4.074 25.045 3.649 26.176 3.631 26.666 C 3.612 27.155 3.589 28.302 5.912 28.45 C 8.235 28.6 10.405 28.797 14.747 28.263 C 17.443 27.854 18.978 27.528 21.236 26.999 L 21.264 26.999 C 23.609 26.411 25.895 25.763 28.124 25.028 C 31.04 24.087 33.698 23.028 36.069 21.911 C 41.402 19.449 43.322 17.2 44.571 15.265 C 45.821 13.332 46.277 10.674 44.98 9.427 C 43.495 7.997 40.669 8.252 39.699 8.346 C 38.312 8.482 36.241 8.823 34.155 9.44 C 32.555 9.91 30.496 10.558 27.924 11.441 L 21.122 13.734 C 18.407 14.647 16.205 15.383 14.462 15.911 C 12.147 16.618 10.231 17.147 8.63 17.471 C 4.975 18.337 3.8 17.852 3.8 17.852 C 3.751 16.775 4.968 15.406 5.944 14.646 Z" style="fill: rgb(204, 204, 204);"/>
  <circle cx="23.131" cy="14.577" r="14.577" style="fill: rgb(255, 255, 255);" transform="matrix(1, 0, 0, 1.029018, 0, 0)"/>
  <path d="M 9.318 20.859 C 10.975 20.506 13.005 20.028 15.435 19.322 C 17.206 18.763 22.208 17.087 22.208 17.087 L 29.011 14.793 C 31.498 13.941 33.527 13.293 35.1 12.851 C 35.1 12.851 37.452 12.214 37.851 12.141 C 37.708 10.613 36.857 8.779 36.857 8.779 C 35.998 8.949 35.079 9.168 34.156 9.44 C 32.556 9.912 30.497 10.559 27.925 11.441 L 21.123 13.734 C 18.407 14.647 16.206 15.383 14.463 15.911 C 10.873 17.062 8.432 17.517 8.335 17.539 C 8.334 17.539 8.658 19.726 9.318 20.859 Z" style="fill: rgb(204, 204, 204);"/>
  <path d="M 72.14 7.727 C 71.873 7.268 71.511 6.991 71.063 6.839 C 62.886 4.478 57.613 4.817 55.278 7.913 C 54.439 8.925 53.929 9.906 53.779 10.918 C 53.599 11.928 53.719 12.879 54.168 13.8 L 54.137 13.8 C 54.468 14.504 54.976 15.148 55.636 15.732 L 55.666 15.732 C 56.205 16.191 56.774 16.56 57.433 16.867 C 57.881 17.112 58.931 17.265 60.607 17.295 C 60.938 17.326 61.567 17.326 62.524 17.326 C 63.363 17.357 64.023 17.357 64.501 17.387 L 64.531 17.387 C 66.029 17.419 67.55 17.568 68.037 17.723 C 68.522 17.88 69.376 18.79 69.443 19.197 C 69.512 19.603 69.443 19.197 69.443 19.197 C 69.533 19.442 69.623 19.508 69.538 20.129 C 69.45 20.749 69.265 20.639 69.025 20.946 C 69.025 20.946 69.034 20.918 69.025 20.913 C 68.613 20.637 68.306 21.342 67.677 21.527 C 66.78 21.744 65.699 21.895 64.442 21.926 C 63.184 21.957 61.926 21.926 60.638 21.773 C 59.41 21.619 58.332 21.403 57.433 21.129 C 56.984 20.977 56.505 21.006 56.084 21.252 C 55.636 21.467 55.335 21.835 55.187 22.326 C 55.037 22.785 55.097 23.274 55.304 23.734 C 55.545 24.162 55.906 24.468 56.354 24.624 C 57.432 24.99 58.72 25.235 60.218 25.421 C 61.687 25.574 63.123 25.636 64.561 25.604 C 66.12 25.542 67.468 25.36 68.576 25.083 C 70.132 24.684 71.212 24.071 71.781 23.274 L 71.811 23.274 C 72.289 22.659 72.648 22.106 72.858 21.616 L 72.858 21.585 C 73.099 20.973 73.218 20.358 73.218 19.716 L 73.218 19.653 C 73.189 19.194 73.226 18.522 72.986 17.877 C 72.896 17.541 72.809 17.355 72.327 16.284 C 71.844 15.216 70.73 14.533 68.783 14.105 L 68.754 14.105 C 67.795 13.919 66.417 13.766 64.651 13.705 C 64.142 13.674 63.452 13.674 62.553 13.643 C 61.656 13.643 61.027 13.643 60.696 13.612 C 59.738 13.583 59.11 13.55 58.87 13.49 C 58.539 13.336 58.241 13.153 58 12.938 C 57.732 12.693 57.522 12.448 57.401 12.204 L 57.401 12.172 C 57.281 11.989 57.251 11.773 57.311 11.557 C 57.401 11.159 57.611 10.732 58 10.332 C 59.797 8.554 63.811 8.554 70.071 10.394 C 70.553 10.516 71.001 10.486 71.419 10.21 C 71.87 9.966 72.168 9.597 72.289 9.107 C 72.441 8.649 72.381 8.188 72.14 7.727 Z" style="fill: rgb(255, 255, 255);"/>
  <path d="M 89.765 6.173 C 89.404 5.836 88.986 5.651 88.477 5.651 L 76.495 5.651 C 76.016 5.651 75.567 5.836 75.236 6.173 C 74.877 6.539 74.698 6.972 74.698 7.491 L 74.698 22.824 C 74.698 23.314 74.878 23.775 75.236 24.112 C 75.567 24.483 76.015 24.665 76.495 24.665 L 88.477 24.665 C 88.986 24.665 89.404 24.482 89.765 24.112 C 90.094 23.775 90.274 23.314 90.274 22.824 C 90.274 22.302 90.094 21.874 89.765 21.503 C 89.404 21.167 88.986 20.982 88.477 20.982 L 78.293 20.982 L 78.293 16.997 L 85.781 16.997 C 86.289 16.997 86.708 16.814 87.069 16.446 C 87.397 16.106 87.578 15.647 87.578 15.156 C 87.578 14.636 87.398 14.207 87.069 13.838 C 86.708 13.498 86.289 13.315 85.781 13.315 L 78.293 13.315 L 78.293 9.33 L 88.477 9.33 C 88.986 9.33 89.404 9.144 89.764 8.776 C 90.094 8.439 90.274 8.012 90.274 7.489 C 90.274 6.971 90.094 6.539 89.765 6.173 Z" style="fill: rgb(255, 255, 255);"/>
  <path d="M 110.451 8.342 C 110.363 7.81 110.092 7.377 109.705 7.079 C 106.417 4.648 102.813 4.187 99.329 4.817 C 97.955 5.148 97.511 5.115 96.01 5.881 C 94.512 6.643 93.468 8.061 93.468 8.061 C 92.751 8.862 92.362 9.838 91.883 11.133 C 91.404 12.427 91.407 13.07 91.347 14.667 C 91.287 16.266 91.495 17.731 91.943 19.126 C 92.391 20.527 93.079 21.76 94.007 22.792 L 94.007 22.756 C 94.904 23.823 96.01 24.651 97.295 25.185 C 98.58 25.751 99.986 26.052 101.509 26.052 C 105.096 26.052 107.7 25.216 109.314 23.554 C 111.198 21.857 111.974 19.296 111.676 15.868 C 111.646 15.335 111.438 14.934 111.107 14.57 C 110.749 14.235 110.361 14.069 109.881 14.069 L 102.108 14.069 C 101.632 14.069 101.184 14.266 100.85 14.635 C 100.492 15.033 100.313 15.497 100.313 16.065 C 100.313 16.598 100.492 17.096 100.85 17.461 C 101.184 17.862 101.632 18.06 102.108 18.06 L 108.089 18.06 C 107.969 19.059 107.58 19.894 106.981 20.524 C 105.816 21.556 103.993 22.054 101.511 22.054 C 100.464 22.054 99.477 21.855 98.611 21.489 L 98.581 21.457 C 97.802 21.123 97.146 20.657 96.576 19.991 C 96.01 19.36 95.589 18.593 95.321 17.762 C 95.022 16.864 94.903 15.865 94.934 14.8 C 94.963 13.669 95.083 13.055 95.291 12.291 C 95.442 11.723 95.68 11.258 96.009 10.893 C 96.009 10.893 96.544 10.038 97.445 9.576 C 98.347 9.112 99 8.977 100.106 8.678 L 100.136 8.678 C 102.769 8.012 105.279 8.577 107.702 10.406 C 108.119 10.707 108.567 10.806 109.044 10.707 C 109.523 10.574 109.911 10.307 110.181 9.842 C 110.451 9.409 110.541 8.909 110.451 8.342 Z" style="fill: rgb(255, 255, 255);"/>
  <path d="M 133.087 24.516 C 133.387 24.087 133.505 23.66 133.446 23.137 C 131.559 10.35 128.175 4.093 123.262 4.401 C 118.353 4.093 114.935 10.136 113.108 22.523 C 113.047 23.014 113.139 23.474 113.439 23.874 C 113.738 24.302 114.127 24.547 114.605 24.61 C 115.086 24.7 115.534 24.577 115.954 24.269 C 116.342 23.963 116.584 23.566 116.673 23.073 C 116.898 21.534 117.146 20.112 117.411 18.81 L 117.421 18.81 L 129.041 18.81 C 129.343 20.284 129.624 21.909 129.883 23.684 C 129.972 24.174 130.183 24.574 130.601 24.882 C 130.989 25.189 131.44 25.31 131.919 25.217 C 132.398 25.162 132.786 24.917 133.087 24.516 Z M 118.301 15.135 C 119.612 10.597 121.27 8.247 123.261 8.082 C 125.192 8.244 126.83 10.597 128.144 15.135 L 118.301 15.135 Z" style="fill: rgb(255, 255, 255);"/>
  <path d="M 161.645 7.563 C 161.376 7.1 161.012 6.822 160.559 6.667 C 152.313 4.286 146.996 4.626 144.641 7.751 C 143.794 8.77 143.281 9.76 143.129 10.78 C 142.947 11.801 143.068 12.758 143.521 13.687 L 143.491 13.687 C 143.824 14.398 144.338 15.045 145.002 15.634 L 145.032 15.634 C 145.575 16.097 146.15 16.468 146.814 16.779 C 147.267 17.027 148.325 17.182 150.015 17.211 C 150.349 17.241 150.984 17.241 151.948 17.241 C 152.795 17.273 153.46 17.273 153.942 17.305 L 153.973 17.305 C 155.483 17.337 157.017 17.487 157.508 17.643 C 157.997 17.802 158.859 18.719 158.926 19.132 C 158.996 19.541 158.926 19.132 158.926 19.132 C 159.016 19.377 159.109 19.442 159.02 20.069 C 158.933 20.697 158.745 20.583 158.504 20.893 L 158.504 20.862 C 158.231 21.108 157.778 21.292 157.144 21.481 C 156.239 21.698 155.15 21.852 153.881 21.882 C 152.612 21.915 151.344 21.882 150.045 21.729 C 148.808 21.573 147.721 21.357 146.814 21.078 C 146.36 20.924 145.878 20.957 145.454 21.202 C 145 21.421 144.698 21.789 144.549 22.283 C 144.398 22.746 144.459 23.241 144.668 23.704 C 144.911 24.137 145.274 24.447 145.727 24.603 C 146.813 24.972 148.112 25.22 149.624 25.407 C 151.104 25.561 152.552 25.624 154.003 25.593 C 155.575 25.53 156.934 25.344 158.052 25.066 C 159.62 24.662 160.71 24.046 161.284 23.241 L 161.314 23.241 C 161.797 22.623 162.159 22.064 162.371 21.57 L 162.371 21.538 C 162.614 20.921 162.734 20.303 162.734 19.653 L 162.734 19.591 C 162.705 19.128 162.744 18.451 162.501 17.799 C 162.41 17.459 162.321 17.273 161.836 16.195 C 161.348 15.116 160.225 14.426 158.262 13.996 L 158.231 13.996 C 157.266 13.808 155.876 13.655 154.095 13.594 C 153.582 13.563 152.887 13.563 151.98 13.531 C 151.075 13.531 150.441 13.531 150.107 13.499 C 149.142 13.471 148.507 13.437 148.265 13.377 C 147.932 13.221 147.631 13.036 147.388 12.821 C 147.118 12.574 146.905 12.326 146.784 12.08 L 146.784 12.048 C 146.662 11.863 146.633 11.646 146.693 11.429 C 146.784 11.028 146.997 10.595 147.388 10.193 C 149.2 8.399 153.248 8.399 159.56 10.256 C 160.046 10.378 160.499 10.349 160.92 10.07 C 161.375 9.824 161.676 9.451 161.798 8.957 C 161.949 8.491 161.888 8.026 161.645 7.563 Z" style="fill: rgb(255, 255, 255);"/>
  <path d="M 166.554 25.613 C 166.947 25.304 167.189 24.901 167.279 24.406 C 167.508 22.856 167.757 21.421 168.023 20.11 L 179.755 20.11 C 180.06 21.597 180.341 23.234 180.601 25.026 C 180.691 25.521 180.902 25.924 181.326 26.232 C 181.718 26.54 182.171 26.665 182.655 26.571 C 183.139 26.51 183.531 26.261 183.832 25.861 C 184.133 25.427 184.255 24.993 184.195 24.469 C 182.292 11.575 178.878 5.268 173.925 5.576 C 168.971 5.268 165.557 11.36 163.684 23.852 C 163.594 24.347 163.714 24.809 164.015 25.212 C 164.319 25.646 164.71 25.894 165.195 25.953 C 165.709 26.047 166.131 25.924 166.554 25.613 Z M 168.922 16.397 C 170.246 11.822 171.919 9.455 173.926 9.288 C 175.891 9.449 177.539 11.822 178.855 16.397 L 168.922 16.397 Z" style="fill: rgb(255, 255, 255);"/>
  <path d="M 199.691 7.028 C 199.329 6.69 198.905 6.503 198.392 6.503 L 182.686 6.503 C 182.201 6.503 181.749 6.69 181.416 7.028 C 181.054 7.4 180.873 7.833 180.873 8.358 C 180.873 8.853 181.055 9.316 181.416 9.657 C 181.749 10.031 182.201 10.215 182.686 10.215 L 188.726 10.215 L 188.726 24.437 C 188.726 24.933 188.908 25.397 189.269 25.738 C 189.603 26.109 190.055 26.296 190.538 26.296 C 191.054 26.296 191.476 26.109 191.836 25.738 C 192.17 25.397 192.352 24.933 192.352 24.437 L 192.352 10.214 L 198.392 10.214 C 198.905 10.214 199.329 10.029 199.69 9.657 C 200.024 9.316 200.204 8.853 200.204 8.358 C 200.204 7.833 200.024 7.401 199.691 7.028 Z" style="fill: rgb(255, 255, 255);"/>
  <path d="M 220.855 6.659 C 220.494 6.287 220.07 6.102 219.556 6.102 C 219.073 6.102 218.621 6.287 218.288 6.659 C 217.926 6.997 217.744 7.462 217.744 7.957 L 217.744 17.139 C 217.744 17.853 217.623 18.533 217.353 19.151 C 217.111 19.799 216.718 20.325 216.264 20.82 C 215.781 21.284 215.268 21.688 214.634 21.934 C 214.031 22.212 213.365 22.335 212.67 22.335 L 209.982 22.335 C 209.288 22.335 208.653 22.214 208.019 21.934 C 207.385 21.688 206.873 21.284 206.389 20.82 C 205.935 20.325 205.572 19.8 205.3 19.181 L 205.3 19.151 C 205.061 18.533 204.91 17.853 204.91 17.139 L 204.91 7.956 C 204.91 7.462 204.727 6.996 204.395 6.659 C 204.031 6.286 203.611 6.102 203.097 6.102 C 202.615 6.102 202.159 6.286 201.828 6.659 C 201.465 6.996 201.285 7.462 201.285 7.956 L 201.285 17.139 C 201.285 18.347 201.525 19.491 201.95 20.603 L 201.979 20.603 C 202.402 21.687 203.037 22.613 203.822 23.449 C 204.636 24.253 205.544 24.901 206.599 25.366 C 207.659 25.83 208.776 26.047 209.984 26.047 L 212.672 26.047 C 213.88 26.047 214.999 25.83 216.086 25.366 L 216.055 25.366 C 217.111 24.901 218.018 24.253 218.836 23.449 C 219.619 22.613 220.254 21.687 220.709 20.603 L 220.709 20.635 C 221.162 19.52 221.375 18.378 221.375 17.139 L 221.375 7.956 C 221.37 7.462 221.188 6.996 220.855 6.659 Z" style="fill: rgb(255, 255, 255);"/>
  <path d="M 223.289 6.677 C 222.969 7.015 222.776 7.414 222.776 7.904 L 222.776 23.875 C 222.776 24.365 222.969 24.826 223.322 25.165 C 223.708 25.532 224.191 25.716 224.704 25.716 C 225.249 25.716 225.698 25.532 226.053 25.165 C 226.44 24.826 226.631 24.365 226.631 23.875 L 226.631 9.623 C 230.776 9.38 233.953 9.595 236.17 10.239 C 237.84 10.76 238.74 11.62 238.835 12.818 C 238.867 13.769 238.483 14.446 237.679 14.848 C 236.393 15.4 234.498 15.554 231.995 15.276 C 231.545 15.244 231.158 15.308 230.773 15.552 C 230.387 15.766 230.13 16.073 229.969 16.474 C 229.808 16.843 229.808 17.239 229.906 17.639 C 230.033 18.041 230.292 18.345 230.646 18.59 L 240.284 25.348 C 240.701 25.65 241.182 25.776 241.697 25.684 C 242.242 25.622 242.66 25.377 242.981 24.944 C 243.271 24.546 243.399 24.085 243.336 23.594 C 243.239 23.072 242.981 22.674 242.564 22.366 L 237.457 18.803 C 238.197 18.621 238.837 18.402 239.385 18.129 C 241.57 17.082 242.663 15.304 242.697 12.814 C 242.824 9.868 241.024 7.841 237.365 6.734 C 234.505 5.814 230.232 5.597 224.546 6.06 C 224.063 6.093 223.646 6.306 223.289 6.677 Z" style="fill: rgb(255, 255, 255);"/>
  <path d="M 245.604 6.996 C 245.391 7.307 245.272 7.648 245.272 8.048 L 245.272 24.128 C 245.272 24.624 245.452 25.088 245.815 25.427 C 246.147 25.799 246.599 25.984 247.083 25.984 C 247.597 25.984 248.02 25.8 248.381 25.427 C 248.714 25.088 248.896 24.624 248.896 24.128 L 248.896 12.658 L 260.887 25.397 C 261.159 25.674 261.459 25.861 261.825 25.952 C 262.186 26.015 262.518 25.983 262.881 25.861 C 263.215 25.704 263.484 25.49 263.697 25.15 C 263.909 24.841 264 24.5 264 24.128 L 264 8.048 C 264 7.523 263.818 7.09 263.484 6.718 C 263.122 6.38 262.701 6.192 262.186 6.192 C 261.704 6.192 261.251 6.381 260.918 6.718 C 260.556 7.09 260.374 7.523 260.374 8.048 L 260.374 19.52 L 248.414 6.75 C 248.141 6.504 247.84 6.319 247.476 6.225 C 247.115 6.164 246.751 6.194 246.42 6.349 C 246.086 6.471 245.786 6.69 245.604 6.996 Z" style="fill: rgb(255, 255, 255);"/>
</svg>