<svg id="Warstwa_1" data-name="Warstwa 1" xmlns="http://www.w3.org/2000/svg" viewBox="0 0 237.63 99.63"><title>segastv</title><path d="M368.71,236.27c-4,5-7.76,9.88-11.57,14.71q-19,24.12-38,48.2a2.33,2.33,0,0,1-1.53.85c-8.4.05-16.8,0-25.19,0-.24,0-.47,0-.84-.05,0-.56,0-1.07,0-1.57a3.61,3.61,0,0,0-3.88-3.9c-3.92,0-7.84,0-11.76,0H236.08c-3.65,0-4.68,1-4.78,4.66,0,.24,0,.47-.06.79H204v-5.44c-2.35,0-4.53,0-6.71,0a1.48,1.48,0,0,0-.87.53,15.25,15.25,0,0,1-11.75,5q-26-.06-52.07,0h-1.42V272.58h4.92a7.1,7.1,0,0,0-.45-.84c-9.87-13.46-2.92-31.69,13.41-35.14a17.18,17.18,0,0,1,3.57-.38q48,0,96,0a7.58,7.58,0,0,1,7.78,7.32c.08,1.54,0,3.1,0,4.69h5.15c0-1.36.08-2.71,0-4.05-.34-4.8,3.63-8.09,8-8,8.95.17,17.92.06,26.87,0a2,2,0,0,1,1.79.88c3.42,4.53,6.89,9,10.34,13.53.84,1.09,1.51,1.06,2.29-.08q4.57-6.73,9.15-13.49a1.64,1.64,0,0,1,1.54-.84q23,0,46.08,0C367.86,236.2,368.17,236.24,368.71,236.27ZM251.25,251.82c0-1.34.05-2.54,0-3.73a7.91,7.91,0,0,0-8.12-7.73H154.35a17.46,17.46,0,0,0-3.22.3,19.05,19.05,0,0,0-6.57,34.88c.31.2.6.42,1.2.84H135.7v18.83a5.75,5.75,0,0,0,.63.07c15.52,0,31,.07,46.55-.11a16.58,16.58,0,0,0,12-5.15,2.21,2.21,0,0,1,1.45-.55c3.68-.05,7.36,0,11,0,.35,0,.69.05,1.17.08v5.54c.16.12.19.17.23.17,5.47,0,10.95,0,16.43,0a1,1,0,0,0,.72-.68c.77-3.4,2.48-4.81,5.94-4.81h59.75c.36,0,.72,0,1.08,0a4,4,0,0,1,3.72,4c0,.47,0,.94,0,1.39a2.26,2.26,0,0,0,.46.13c5.88,0,11.76,0,17.64,0a1.89,1.89,0,0,0,1.24-.72q20.82-26,41.6-52.09c.51-.64,1-1.3,1.56-2-.36,0-.51,0-.67,0q-17.1,0-34.19,0a1.47,1.47,0,0,0-1.41.83q-5.26,8.29-10.55,16.57a2.64,2.64,0,0,1-4.47.2q-6.53-8.44-13.06-16.88a2,2,0,0,0-1.36-.67c-7.43,0-14.87-.06-22.31,0a4.84,4.84,0,0,0-2.5.94c-1.26.88-1.45,2.29-1.44,3.75,0,2.22,0,4.45,0,6.73Z" transform="translate(-131.08 -200.45)" fill="white"/><path d="M270.67,229.08V216.93h-8.11v-4.66H275.4V229.2l.27.05c.33-.9.67-1.81,1-2.72l7-20.82a7.4,7.4,0,0,1,14.15-.05q4.52,13.41,9,26.83c.12.37.22.75.36,1.23H288.85v-4.6H300.7c-.13-.52-.2-.9-.32-1.25q-3.56-10.53-7.13-21.05c-.49-1.46-1.35-2.22-2.49-2.21s-2,.77-2.49,2.23c-2.88,8.52-5.8,17-8.62,25.58a1.76,1.76,0,0,1-2,1.41c-5.67-.06-11.35,0-17,0a9.13,9.13,0,0,1-9.22-7.51,7.93,7.93,0,0,1-.11-1.54q0-7.2,0-14.4c0-4.91,3.18-8.89,8.08-9.21,5.29-.35,10.62-.08,16-.08v4.65H261c-3.32,0-5.1,1.78-5.11,5.1q0,6.6,0,13.2c0,3.26,1.82,5.06,5,5.07Z" transform="translate(-131.08 -200.45)" fill="white"/><path d="M197.77,228.13v-4.6c.4,0,.82-.05,1.24-.05h12.12a2.47,2.47,0,0,0,.72,0,3.81,3.81,0,0,0,.72-.43c-.23-.14-.47-.39-.7-.4-1.16,0-2.32,0-3.48,0A10.82,10.82,0,0,1,198,214a10.68,10.68,0,0,1,6.44-12.18,10.83,10.83,0,0,1,3.71-.8c4.76-.1,9.52,0,14.28,0a4.63,4.63,0,0,1,.54.06v4.69h-1.29c-4.4,0-8.8,0-13.2,0a6,6,0,0,0-1.4,11.85,27.33,27.33,0,0,0,4.06.26,13.37,13.37,0,0,1,2.62.24,5.06,5.06,0,0,1,3.67,5.59,5,5,0,0,1-5,4.45C207.57,228.15,202.74,228.13,197.77,228.13Z" transform="translate(-131.08 -200.45)" fill="white"/><path d="M222.94,206.64v4.69h-4.22c-3.2,0-6.4,0-9.6,0a2.58,2.58,0,0,0-1,.41,2.87,2.87,0,0,0,.94.41c1.63.1,3.29,0,4.9.23,5.7.88,9.37,5.72,9,11.68a10.65,10.65,0,0,1-10.16,9.7c-4.88.15-9.76,0-14.64,0a2,2,0,0,1-.41-.1v-4.65h1.33c4.28,0,8.56,0,12.84,0a6,6,0,0,0,6.23-4.88,6,6,0,0,0-5-7.09c-1.54-.19-3.11-.13-4.67-.19a5.13,5.13,0,1,1,.12-10.25C213.4,206.62,218.11,206.64,222.94,206.64Z" transform="translate(-131.08 -200.45)" fill="white"/><path d="M249.56,229.16v4.46c-.13.07-.2.14-.27.14-5.52,0-11,.13-16.54-.18-4.23-.24-7.61-4.2-7.67-8.46-.07-5-.05-10.08,0-15.12a8.9,8.9,0,0,1,8.64-9c5.16-.15,10.32,0,15.48,0a1.7,1.7,0,0,1,.39.11v4.55c-.42,0-.84,0-1.26,0-4.48,0-9,.1-13.44,0a4.8,4.8,0,0,0-5.22,5.15c.17,4.48.05,9,.05,13.44,0,3,1.75,4.8,4.74,4.83,4.67,0,9.35,0,14,0C248.8,229.1,249.11,229.13,249.56,229.16Z" transform="translate(-131.08 -200.45)" fill="white"/><path d="M299.45,228.13H288.73v-2.71l-.24,0c-.81,2.4-1.66,4.78-2.4,7.2a1.47,1.47,0,0,1-1.77,1.25c-1.31-.09-2.63,0-4.11,0a14.8,14.8,0,0,1,.35-1.45c2.84-8.4,5.71-16.8,8.54-25.21.29-.86.65-1.59,1.67-1.59s1.39.71,1.68,1.57q3.39,10.06,6.8,20.13C299.33,227.51,299.37,227.78,299.45,228.13Zm-8.68-9.52c-.54,1.62-1,2.95-1.43,4.34h2.88C291.76,221.57,291.32,220.27,290.77,218.61Z" transform="translate(-131.08 -200.45)" fill="white"/><path d="M275.37,206.67v4.59c-.45,0-.87.06-1.3.06-3.67,0-7.35,0-11,0-1.12,0-1.5.45-1.5,1.48,0,3.08,0,6.16,0,9.24,0,1,.41,1.49,1.44,1.45.67,0,1.34,0,2,0,0-.72,0-.72-2.46-1V217.9h7.16v10.21c-3.38,0-6.72.09-10.06,0a3.17,3.17,0,0,1-2.77-3.29q-.09-7.38,0-14.76a3.21,3.21,0,0,1,3-3.33C265,206.62,270.1,206.67,275.37,206.67Z" transform="translate(-131.08 -200.45)" fill="white"/><path d="M230.67,217.93h15.66v4.62H235.52l-.11.48a5.33,5.33,0,0,0,1.45.43c3.76,0,7.51,0,11.27,0h1.41v4.64H234.21a3.3,3.3,0,0,1-3.51-3.06C230.58,222.71,230.67,220.36,230.67,217.93Z" transform="translate(-131.08 -200.45)" fill="white"/><path d="M249.57,211.33H237.41a4.24,4.24,0,0,0-1.07,0,3.77,3.77,0,0,0-.9.49l.1.3h10.79v4.69H230.69c0-2.47-.09-4.89,0-7.31a3.08,3.08,0,0,1,3-2.86c5.23-.06,10.46,0,15.8,0Z" transform="translate(-131.08 -200.45)" fill="white"/><path d="M191,247.11V246c.47,0,.89-.07,1.31-.07q24.36,0,48.72,0c2.11,0,4,1,3.81,3.78-.11,1.55,0,3.12,0,4.84H222.71v36.59h-9.64V254.51h-56.5c-2.88,0-4.87,1.75-4.9,4.29s1.92,4.43,4.88,4.44c7.12,0,14.24,0,21.36,0a13.93,13.93,0,0,1,.58,27.86c-12.48.17-25,0-37.44,0a2,2,0,0,1-.34-.07v-9.3H176c2.91,0,4.9-1.81,4.93-4.43a4.35,4.35,0,0,0-3.92-4.38c-.52-.05-1-.06-1.56-.06-6.8,0-13.6,0-20.4,0a13.54,13.54,0,0,1-13.28-10.39A13.38,13.38,0,0,1,154.55,246c11.12-.21,22.24-.09,33.36,0C188.94,245.94,190,246.69,191,247.11Z" transform="translate(-131.08 -200.45)" fill="white"/><path d="M346.28,245.88l-2.12,2.93Q329,269.45,313.9,290.09a2.76,2.76,0,0,1-2.16,1.13c-2.8.38-4.49-.77-6.2-3C295,274.43,284.3,260.79,273.65,247.1c-.25-.31-.48-.63-.92-1.22h1.47c4.12,0,8.24,0,12.36,0a2.53,2.53,0,0,1,2.13,1q10.5,12.16,21,24.3c.26.29.57.54.93.89,1.72-2.18,3.43-4.34,5.12-6.5q7.39-9.44,14.81-18.86a1.94,1.94,0,0,1,1.2-.78C336.5,245.86,341.22,245.88,346.28,245.88Z" transform="translate(-131.08 -200.45)" fill="white"/><path d="M239.43,265.69H283.7v9.63H239.43Z" transform="translate(-131.08 -200.45)" fill="white"/></svg>