<?xml version="1.0" encoding="utf-8"?>
<!-- Made by Szalik  -->
<svg version="1.1" id="segacd" xmlns="http://www.w3.org/2000/svg" xmlns:xlink="http://www.w3.org/1999/xlink" x="0px" y="0px" xml:space="preserve">
<g>
	<g>
		<path d="M401.83,258.33c-33.89,0-67.79,0-101.91,0c0-10.51,0-20.68,0-31.46c33.95,0,67.93,0,101.91,0
			C401.83,237.36,401.83,247.84,401.83,258.33z M353.37,251.81c3.6-0.71,6.98-1.3,10.32-2.05c8.93-2.01,17.89-3.99,26.23-7.93
			c1.81-0.86,3.62-1.86,5.17-3.11c3.07-2.46,2.76-4.79-0.87-6.44c-1.92-0.87-4.04-1.46-6.12-1.83c-10.07-1.79-20.13-0.99-30.17,0.5
			c2.24,0.28,4.52,0.01,6.71,0.33c4.09,0.61,8.31,1.06,12.14,2.48c4.69,1.74,4.93,5.7,0.96,8.7c-0.94,0.71-1.99,1.31-3.06,1.83
			c-5.61,2.7-11.59,4.12-17.96,5.27c-0.95-2.98-1.86-5.81-2.76-8.64c-0.2,0.05-0.4,0.1-0.59,0.15
			C353.37,244.55,353.37,248.04,353.37,251.81z M342,253.53c-0.04-0.17-0.07-0.34-0.11-0.51c-1.3,0-2.61,0.02-3.91,0
			c-4.53-0.06-9.07-0.15-13.28-2.1c-4.01-1.86-4.74-5.31-1.85-8.67c0.99-1.15,2.21-2.24,3.54-2.93c2.72-1.43,5.57-2.63,8.41-3.81
			c1.66-0.69,3.42-1.16,5.13-1.74c-2.66,0.04-5.21,0.49-7.75,1.04c-7.2,1.57-14.4,3.23-20.89,6.89c-2.13,1.2-4.17,2.77-5.84,4.55
			c-1.79,1.93-1.4,4.07,0.91,5.37c1.93,1.09,4.11,1.89,6.28,2.36c7.29,1.58,14.66,1.14,22.01,0.41
			C337.11,254.16,339.55,253.82,342,253.53z" fill="white"/>
		<path d="M115.96,255.38c1.45-2.48,2.88-4.92,4.52-7.74c1.48,3.28,4.25,4.18,7.09,4.95c4.65,1.26,9.35,1.98,14.1,0.71
			c1.46-0.39,2.98-0.99,4.17-1.89c2.05-1.54,1.77-3.43-0.62-4.3c-1.65-0.6-3.47-0.81-5.23-1.01c-4.38-0.48-8.78-0.72-13.14-1.32
			c-1.84-0.25-3.73-0.91-5.37-1.81c-5.18-2.86-5.65-9.43-1.01-13.1c3.21-2.54,7.07-3.35,11.02-3.7c6.12-0.54,12.11,0.15,17.98,2.06
			c1.95,0.63,4.02,0.9,6.28,1.38c-1.5,2.24-3.12,4.64-4.65,6.93c-1.51-1.03-2.71-2.13-4.13-2.78c-4.06-1.86-8.37-2.78-12.85-2.49
			c-1.76,0.11-3.54,0.5-5.22,1.05c-1.6,0.52-3.25,1.43-3.06,3.45c0.19,1.94,2.03,2.22,3.51,2.43c2.83,0.39,5.69,0.48,8.53,0.82
			c3.3,0.39,6.61,0.83,9.88,1.41c1.26,0.22,2.51,0.78,3.65,1.39c5.56,2.97,6.09,9.71,1.03,13.49c-3.26,2.44-7.14,3.21-11.07,3.62
			c-6.97,0.73-13.78-0.04-20.42-2.37C119.49,256.06,117.9,255.84,115.96,255.38z" fill="white"/>
		<path d="M223.53,247.99c0-2.13,0-4.24,0-6.07c1.88,0.26,3.65,0.69,5.42,0.72c5.23,0.1,10.46,0.03,15.76,0.03
			c-1.98,3.81-2.64,7.47,0.3,11.27c-8.18,3.86-16.65,5.84-25.63,4.74c-3.27-0.4-6.58-1.19-9.64-2.37
			c-5.78-2.23-9.36-6.39-9.63-12.87c-0.27-6.64,3.06-11.14,8.76-13.88c8.78-4.22,17.9-4.25,27.13-1.5c1.77,0.53,3.6,0.84,5.85,1.35
			c-1.32,2.19-2.73,4.53-4.01,6.65c-1.78-1.05-3.25-2.2-4.9-2.83c-4.92-1.89-10.01-2.12-15.06-0.62c-1.89,0.56-3.81,1.47-5.36,2.68
			c-4.88,3.8-5.06,10.73-0.14,14.46c2.27,1.72,5.25,3.1,8.04,3.4c3.94,0.43,8.06,0.02,12.01-0.61c3.88-0.61,3.83-0.93,3.38-5.47
			C231.72,247.19,227.57,246.25,223.53,247.99z" fill="white"/>
		<path d="M187.93,238.6c0,2.35,0,4.71,0,6.48c-6.26-0.92-12.47-0.28-18.83-0.44c0,2.97,0,5.53,0,8.05
			c5.12,1.02,25.19,0.62,28.17-0.58c0,2.41,0,4.77,0,6.98c-1.72-0.27-3.37-0.74-5.03-0.75c-9.89-0.07-19.78-0.03-29.67-0.03
			c-1.16,0-2.33,0-3.1,0c0.4-2.03,1.05-3.89,1.08-5.76c0.13-6.79,0.11-13.58,0-20.37c-0.03-1.64-0.63-3.26-1.03-5.18
			c0.34-0.02,1.2-0.09,2.07-0.1c10.01-0.01,20.02,0.03,30.03-0.04c1.58-0.01,3.16-0.45,4.88-0.72c0,1.98,0,4.31,0,6.5
			c-2.45-0.2-4.93-0.54-7.41-0.58c-6.54-0.08-13.08-0.03-19.89-0.03c0,2.43,0,4.6,0,7.23C175.43,239.15,181.63,240,187.93,238.6z" fill="white"/>
		<path d="M258.4,258.21c-4.89,0-8.66,0-12.16,0c1.5-2.28,3.17-4.5,4.52-6.89c3.74-6.63,7.34-13.33,11.03-19.98
			c0.79-1.42,1.6-2.74-0.9-4.25c5,0,9.19,0,13.92,0c-1.9,1.58-1.19,2.95-0.35,4.45c4.12,7.37,8.12,14.8,12.28,22.15
			c0.89,1.58,2.24,2.9,3.48,4.47c-4.11,0-8.21,0-12.64,0c2.39-2.5,0.09-4.27-0.81-6.32c-0.91-2.08-2.7-1.58-4.3-1.6
			c-3.57-0.04-7.17,0.25-10.71-0.09c-2.92-0.28-3.61,1.63-4.67,3.48C256.18,255.2,255.05,256.72,258.4,258.21z M261.45,245.78
			c4.16,0,7.85,0,11.97,0c-2.05-3.73-3.89-7.08-5.99-10.89C265.27,238.81,263.43,242.18,261.45,245.78z" fill="white"/>
	</g>
</g>
</svg>
