<?xml version="1.0" encoding="utf-8"?>
<!-- Made by Szalik  -->
<svg version="1.1" id="Warstwa_1" xmlns="http://www.w3.org/2000/svg" xmlns:xlink="http://www.w3.org/1999/xlink" x="0px" y="0px" xml:space="preserve">
<g>
	<g>
		<path d="M309.12,317.6c-0.02-0.03-0.04-0.08-0.07-0.09c-5.76-2.02-7.61-4.65-7.61-10.78c0-31.28,0-62.56,0-93.84
			c0-2.21,0.39-2.61,2.55-2.61c6.72,0,13.44,0,20.16,0c2.6,0,2.92,0.31,2.92,2.87c0,29.24,0,58.48,0,87.72
			c0,0.56-0.03,1.13,0.06,1.68c0.19,1.25,1.35,2.16,2.66,2.13c1.23-0.03,2.05-0.86,2.18-2.25c0.05-0.52,0.03-1.04,0.03-1.56
			c0-29.12,0-58.24,0-87.36c0-0.4-0.01-0.8,0-1.2c0.06-1.46,0.61-2.01,2.08-2.02c4.72-0.01,9.44-0.01,14.16-0.01
			c2.24,0,4.48,0,6.72,0c2.3,0,2.66,0.36,2.66,2.61c0,19.28,0,38.56,0,57.84c0,0.47,0,0.94,0,1.56c1.58,0,3.04,0,4.51,0
			c1.96,0,3.92,0.03,5.88-0.01c1.01-0.02,1.8,0.26,2.31,1.16c0,14.72,0,29.44,0,44.16c-4.48,0-8.96,0-13.44,0
			c-0.99-0.86-1.98-1.71-2.79-2.42c-1.59,0.75-3.36,1.58-5.13,2.42C335.68,317.6,322.4,317.6,309.12,317.6z" fill="white"/>
		<path d="M138.72,317.6c-0.26-0.09-0.51-0.19-0.78-0.26c-4.51-1.13-7.61-5.06-7.62-9.7c-0.01-8-0.01-16,0-24
			c0-1.62,0.53-2.18,2.14-2.18c7.12-0.01,14.24-0.01,21.36,0c1.59,0,2.14,0.58,2.15,2.2c0.01,5.92,0,11.84,0,17.76
			c0,0.4-0.02,0.8,0.02,1.2c0.12,1.26,1.16,2.22,2.4,2.25c1.24,0.03,2.29-0.87,2.48-2.15c0.05-0.35,0.05-0.72,0.05-1.08
			c0-8.8,0-17.6,0-26.4c0-2.44-0.8-3.22-3.24-3.22c-5.72,0-11.44,0.01-17.16,0c-5.91-0.01-10.2-4.32-10.2-10.23
			c0-13.8,0-27.6,0-41.39c0-6,4.26-10.31,10.25-10.31c12-0.01,24-0.01,35.99,0c5.87,0.01,10.17,4.27,10.19,10.12
			c0.02,8.84,0.01,17.68,0,26.52c0,1.68-0.54,2.21-2.24,2.21c-7.04,0.01-14.08,0.01-21.12,0c-1.73,0-2.28-0.55-2.29-2.32
			c-0.01-6,0-12-0.01-18c0-0.44,0.01-0.88-0.04-1.32c-0.16-1.22-1.16-2.08-2.39-2.09c-1.28-0.02-2.31,0.88-2.46,2.15
			c-0.04,0.36-0.03,0.72-0.03,1.08c0,8.52,0,17.04,0,25.56c0,2.57,0.81,3.37,3.36,3.37c5.56,0,11.12-0.01,16.68,0
			c6.35,0.01,10.53,4.17,10.53,10.5c0,13.08,0,26.16,0,39.23c0,5.44-2.8,9-8.12,10.36c-0.11,0.03-0.21,0.11-0.32,0.17
			C165.12,317.6,151.92,317.6,138.72,317.6z" fill="white"/>
		<path d="M229.44,317.6c-0.8-0.54-1.07-1.28-1.07-2.24c0.02-26.51,0.01-53.01,0.02-79.52c0-1.68,0.55-2.21,2.25-2.21
			c8.68,0,17.35,0,26.03,0c1.76,0,2.3,0.53,2.3,2.28c0,26.47,0,52.93,0.02,79.4c0,0.97-0.3,1.68-0.99,2.29
			C248.48,317.6,238.96,317.6,229.44,317.6z" fill="white"/>
		<path d="M199.44,317.6c-0.49-0.15-0.98-0.31-1.47-0.46c-4.1-1.29-6.93-5.07-6.93-9.37c-0.01-21.11,0-42.23-0.01-63.34
			c0-5.14,4.4-10.94,10.67-10.66c4.11,0.18,8.25,0.23,12.35-0.01c6.56-0.39,11.08,5.46,11.05,11.05c-0.03,7.2-0.01,14.4-0.01,21.59
			c0,11.84,0,23.67,0,35.51c0,2.16-0.43,2.59-2.6,2.59c-3.48,0-6.96,0-10.44,0c-0.35,0-0.7,0.04-1.11,0.06c0,1.45,0,2.83,0,4.34
			c2.27,0,4.46,0,6.64,0c1,0,2-0.01,3,0c2.33,0.04,3.99,1.39,4.42,3.61c0.38,1.98-0.71,3.91-2.74,4.81
			c-0.18,0.08-0.34,0.18-0.51,0.27C214.32,317.6,206.88,317.6,199.44,317.6z M210.51,268.48c0-5.56,0.01-11.11-0.01-16.67
			c-0.01-1.61-1.17-2.78-2.67-2.81c-1.43-0.03-2.62,1.09-2.78,2.61c-0.04,0.36-0.02,0.72-0.02,1.08c0,6.96,0,13.91,0,20.87
			c0,3.76,0.01,7.52,0,11.27c0,1.31,0.42,2.37,1.67,2.93c1.88,0.84,3.79-0.53,3.8-2.73C210.52,279.51,210.51,274,210.51,268.48z" fill="white"/>
		<path d="M264.48,317.6c-0.88-0.54-1.12-1.34-1.12-2.34c0.01-26.43,0.01-52.87,0.01-79.3c0-1.82,0.54-2.33,2.38-2.33
			c4.56,0,9.12,0,13.68,0c2.63,0,2.93,0.31,2.93,2.99c0,5.12,0,10.24,0,15.36c0,0.48,0,0.95,0,1.62c1.19,0,2.29-0.03,3.39,0.01
			c1.51,0.06,3.07-0.02,4.53,0.3c4.32,0.94,7.18,4.67,7.19,9.26c0.02,12.44,0.01,24.87,0.01,37.31c0,2.4,0,4.8,0,7.2
			c-0.01,5.1-2.58,8.44-7.5,9.75c-0.11,0.03-0.2,0.12-0.3,0.18C281.28,317.6,272.88,317.6,264.48,317.6z M283.18,285.09
			c0-3.08,0-6.15,0-9.23c0-2.6,0.03-5.2-0.01-7.79c-0.02-1.5-1.09-2.54-2.47-2.55c-1.38-0.01-2.41,1.03-2.5,2.53
			c-0.02,0.36-0.01,0.72-0.01,1.08c0,9.71,0,19.42,0,29.13c0,1.24-0.01,2.48,0.01,3.72c0.02,1.09,0.48,1.93,1.5,2.39
			c1.75,0.79,3.48-0.48,3.48-2.61C283.19,296.2,283.18,290.64,283.18,285.09z" fill="white"/>
		<path d="M246.48,182.24c1.32,0.29,2.66,0.51,3.96,0.87c10.96,3.06,18.03,13.08,17.38,24.56c-0.62,10.8-9.03,20-19.94,21.8
			c-12.85,2.12-24.97-6.61-27.25-19.62c-2.19-12.53,6.36-24.77,18.96-27.17c0.7-0.13,1.4-0.29,2.09-0.44
			C243.28,182.24,244.88,182.24,246.48,182.24z" fill="white"/>
	</g>
</g>
</svg>
