<?xml version="1.0" encoding="utf-8"?>
<!-- Made by Szalik  -->
<svg version="1.1" id="Warstwa_1" xmlns="http://www.w3.org/2000/svg" xmlns:xlink="http://www.w3.org/1999/xlink" x="0px" y="0px" xml:space="preserve">
<g>
	<g>
		<path d="M138.95,284.38c2.86-8.98,9.09-13.73,18.34-14.98c7.87-1.06,17.01,2.67,20.26,9.57c-4.22-1.05-7.79-1.47-10.98-2.82
			c-7.19-3.05-14.99-1.08-19.17,5.98c3.85,0,7.26,0,10.67,0c5.74,0,11.49,0.17,17.22-0.06c3.66-0.15,4.32,1.53,3.98,4.66
			c-0.56,5.15-3.86,8.31-7.84,10.83c-7.79,4.94-21.46,3.57-28.22-2.68c-0.87-0.8-1.51-1.85-2.25-2.78c0.2-0.47,0.39-0.94,0.59-1.41
			c3.17,0.84,6.58,1.19,9.45,2.62c8.29,4.13,17.72,1.76,21.03-6.47c-2.59,0-4.87,0-7.16,0c-6.7,0-13.4,0.11-20.09-0.07
			c-1.96-0.05-3.9-0.93-5.84-1.43C138.95,285.02,138.95,284.7,138.95,284.38z" fill="white"/>
		<path d="M401.47,284.28c-1.75,3.69-3.25,7.53-5.38,10.99c-0.96,1.57-3.04,2.75-4.87,3.41c-2.7,0.97-4.4-0.65-5.5-3.14
			c-1.74-3.91-3.63-7.74-6.49-11.51c0,4.77,0,9.53,0,14.18c-7.86,1.16-7.86,1.16-7.85-5.55c0.01-7.16,0-14.32,0-21.39
			c8.13-2.23,9.66-1.56,13.05,5.47c2.06,4.28,4.13,8.56,6.7,13.87c2.96-6.12,5.46-11.65,8.33-16.98c0.75-1.38,2.55-2.89,4.03-3.07
			c6.71-0.83,7.18-0.24,7.18,6.72c0,5.75-0.14,11.5,0.05,17.24c0.11,3.53-1.58,4.23-4.68,4.31c-3.47,0.09-3.42-1.89-3.36-4.31
			c0.08-3.31,0.02-6.63,0.02-9.95C402.29,284.47,401.88,284.38,401.47,284.28z" fill="white"/>
		<path d="M221.21,271.13c9.22-1.9,10.14-1.45,13.6,6.19c1.87,4.13,3.77,8.25,6.12,13.39c3.03-6.22,5.61-11.43,8.13-16.67
			c1.47-3.05,7.34-5.14,9.88-3.22c0.78,0.59,1.08,2.19,1.1,3.33c0.1,6.21,0.04,12.43,0.05,18.65c0.01,6.38,0.01,6.38-7.32,5.58
			c0-4.62,0-9.31,0-14.01c-0.39-0.12-0.78-0.24-1.17-0.36c-1.76,3.53-3.62,7.02-5.23,10.61c-1.19,2.64-2.44,4.31-5.9,4.31
			c-3.75,0-4.37-2.42-5.52-4.83c-1.58-3.32-3.21-6.62-4.82-9.93c-0.37,0.12-0.74,0.24-1.11,0.36c0,3.59-0.15,7.19,0.04,10.77
			c0.18,3.31-1.68,3.46-4.21,3.5c-2.66,0.05-3.73-0.82-3.69-3.57C221.28,287.29,221.21,279.33,221.21,271.13z" fill="white"/>
		<path d="M344.87,300.47c-3.9-1.4-8.94-2.28-12.92-4.82c-9.6-6.12-9.01-17.95,0.85-23.75c8.38-4.93,17.04-4.86,25.55-0.36
			c5.14,2.72,8.46,7.07,8.18,13.06c-0.31,6.62-4.64,10.73-10.39,13.12C352.98,299.02,349.43,299.39,344.87,300.47z M345.83,273.83
			c-7.48,0.02-13.04,3.95-13.34,9.44c-0.36,6.42,5.22,11.1,13.2,11.07c7.93-0.03,13.63-4.27,13.75-10.22
			C359.56,278.27,353.66,273.81,345.83,273.83z" fill="white"/>
		<path d="M193.84,281.83c5.76,0,11.64-0.14,17.49,0.11c1.28,0.05,2.5,1.47,3.75,2.25c-1.27,0.77-2.52,2.16-3.82,2.22
			c-5.85,0.24-11.72,0.11-17.86,0.11c0,2.72,0,5.03,0,7.92c5.05,0,9.96-0.28,14.81,0.12c2.42,0.2,5.92-2.12,7.23,2.15
			c-2.33,0.69-4.64,1.86-6.99,1.96c-6.52,0.27-13.07,0.22-19.59-0.02c-1.26-0.05-3.51-1.51-3.53-2.38
			c-0.27-8.4-0.16-16.8-0.16-25.83c9.63,0,18.83-0.05,28.02,0.08c0.77,0.01,1.52,1.22,2.28,1.87c-0.99,0.8-1.94,2.23-2.97,2.28
			c-4.61,0.25-9.24,0.12-13.86,0.09C192.6,274.73,192.4,274.98,193.84,281.83z" fill="white"/>
		<path d="M320.12,280.96c-3.72,0.82-6.28,0.77-8.88-2.24c-5.24-6.07-15.7-6.26-21.66-0.96c-5,4.45-3.89,11.77,2.3,15.07
			c7.07,3.78,14.58,2.21,20.42-3.59c1.59-1.58,4.51-1.84,6.82-2.7c0.35,0.47,0.71,0.94,1.06,1.4c-0.69,1.41-1.17,2.98-2.11,4.19
			c-7.58,9.71-25.53,10.78-34.32,2.11c-5.79-5.71-5.81-13.69-0.05-19.52c9.4-9.52,28.72-7.41,35.77,3.94
			C319.77,279.15,319.8,279.81,320.12,280.96z" fill="white"/>
		<path d="M273.98,270.89c0,8.63-0.11,16.44,0.05,24.25c0.06,3.11-1.29,3.68-4.05,3.68c-2.71,0-3.7-0.87-3.66-3.59
			c0.11-7.96,0.04-15.92,0.04-24.35C268.99,270.89,271.35,270.89,273.98,270.89z" fill="white"/>
	</g>
</g>
</svg>
