<?xml version="1.0" encoding="UTF-8" standalone="no"?>
<svg
   xmlns:dc="http://purl.org/dc/elements/1.1/"
   xmlns:cc="http://creativecommons.org/ns#"
   xmlns:rdf="http://www.w3.org/1999/02/22-rdf-syntax-ns#"
   xmlns:svg="http://www.w3.org/2000/svg"
   xmlns="http://www.w3.org/2000/svg"
   xmlns:sodipodi="http://sodipodi.sourceforge.net/DTD/sodipodi-0.dtd"
   xmlns:inkscape="http://www.inkscape.org/namespaces/inkscape"
   version="1.1"
   id="svg95"
   sodipodi:docname="Snk.svg"
   inkscape:version="0.92.5 (2060ec1f9f, 2020-04-08)">
  <metadata
     id="metadata101">
    <rdf:RDF>
      <cc:Work
         rdf:about="">
        <dc:format>image/svg+xml</dc:format>
        <dc:type
           rdf:resource="http://purl.org/dc/dcmitype/StillImage" />
        <dc:title>mainlogo</dc:title>
      </cc:Work>
    </rdf:RDF>
  </metadata>
  <defs
     id="defs99">
    <clipPath
       clipPathUnits="userSpaceOnUse"
       id="clipPath909">
      <g
         style="fill:#aa8800;stroke:none"
         id="use911"
         inkscape:label="Clip">
        <g
           id="g1939"
           transform="matrix(2.0794317,0,0,2.0794317,186.00321,-131.99158)"
           style="fill:#aa8800;stroke:none">
          <path
             d="m -146.65192,109.06017 v 4.30384 h -1.16463 v -4.30384 h -1.77166 v -0.88128 h 4.77092 v 0.88128 z"
             style="font-style:normal;font-variant:normal;font-weight:normal;font-stretch:normal;font-size:medium;line-height:1.25;font-family:Eurostile;-inkscape-font-specification:Eurostile;letter-spacing:0px;word-spacing:0px;fill:#aa8800;fill-opacity:1;stroke:none;stroke-width:0.35733205;stroke-miterlimit:4;stroke-dasharray:none;stroke-opacity:1"
             id="path1925"
             inkscape:connector-curvature="0" />
          <path
             d="m -141.67415,108.13331 q 1.67275,0 2.15389,0.47103 0.48114,0.46723 0.48114,2.09684 0,1.78155 -0.48564,2.24498 -0.48114,0.46344 -2.33824,0.46344 -1.67275,0 -2.16288,-0.45584 -0.49014,-0.45963 -0.49014,-2.01707 0,-1.85373 0.48114,-2.32856 0.48114,-0.47482 2.36073,-0.47482 z m -0.0899,0.84329 q -1.17362,0 -1.37147,0.25451 -0.19785,0.25451 -0.19785,1.76256 0,1.1168 0.22933,1.34471 0.23382,0.22792 1.36697,0.22792 1.08369,0 1.29953,-0.25451 0.21584,-0.2583 0.21584,-1.55743 0,-1.30293 -0.20685,-1.53845 -0.20235,-0.23931 -1.3355,-0.23931 z"
             style="font-style:normal;font-variant:normal;font-weight:normal;font-stretch:normal;font-size:medium;line-height:1.25;font-family:Eurostile;-inkscape-font-specification:Eurostile;letter-spacing:0px;word-spacing:0px;fill:#aa8800;fill-opacity:1;stroke:none;stroke-width:0.35733205;stroke-miterlimit:4;stroke-dasharray:none;stroke-opacity:1"
             id="path1927"
             inkscape:connector-curvature="0" />
          <path
             d="m -134.53799,112.36877 h -2.64852 l -0.38221,0.99524 h -1.23208 l 2.04147,-5.18512 h 1.74919 l 2.07294,5.18512 h -1.20959 z m -0.2698,-0.72554 -1.06121,-2.70082 -1.04322,2.70082 z"
             style="font-style:normal;font-variant:normal;font-weight:normal;font-stretch:normal;font-size:medium;line-height:1.25;font-family:Eurostile;-inkscape-font-specification:Eurostile;letter-spacing:0px;word-spacing:0px;fill:#aa8800;fill-opacity:1;stroke:none;stroke-width:0.35733205;stroke-miterlimit:4;stroke-dasharray:none;stroke-opacity:1"
             id="path1929"
             inkscape:connector-curvature="0" />
          <path
             d="m -132.40659,113.36401 v -5.18512 h 2.47314 0.30577 q 1.24557,0 1.67725,0.36847 0.43617,0.36466 0.43617,1.41309 0,1.04082 -0.41369,1.38269 -0.41369,0.34188 -1.67274,0.34188 l -0.2698,0.004 h -1.37148 v 1.67519 z m 1.16462,-2.50329 h 1.32651 q 0.79141,0 1.00275,-0.15195 0.21584,-0.15574 0.21584,-0.72933 0,-0.65716 -0.17987,-0.81291 -0.17537,-0.15954 -0.92181,-0.15954 h -1.44342 z"
             style="font-style:normal;font-variant:normal;font-weight:normal;font-stretch:normal;font-size:medium;line-height:1.25;font-family:Eurostile;-inkscape-font-specification:Eurostile;letter-spacing:0px;word-spacing:0px;fill:#aa8800;fill-opacity:1;stroke:none;stroke-width:0.35733205;stroke-miterlimit:4;stroke-dasharray:none;stroke-opacity:1"
             id="path1931"
             inkscape:connector-curvature="0" />
          <path
             d="m -125.61218,108.17889 v 4.30384 h 2.87784 v 0.88128 h -4.04247 v -5.18512 z"
             style="font-style:normal;font-variant:normal;font-weight:normal;font-stretch:normal;font-size:medium;line-height:1.25;font-family:Eurostile;-inkscape-font-specification:Eurostile;letter-spacing:0px;word-spacing:0px;fill:#aa8800;fill-opacity:1;stroke:none;stroke-width:0.35733205;stroke-miterlimit:4;stroke-dasharray:none;stroke-opacity:1"
             id="path1933"
             inkscape:connector-curvature="0" />
          <path
             d="m -117.78215,112.36877 h -2.64851 l -0.38222,0.99524 h -1.23208 l 2.04147,-5.18512 h 1.74919 l 2.07295,5.18512 h -1.20959 z m -0.2698,-0.72554 -1.0612,-2.70082 -1.04322,2.70082 z"
             style="font-style:normal;font-variant:normal;font-weight:normal;font-stretch:normal;font-size:medium;line-height:1.25;font-family:Eurostile;-inkscape-font-specification:Eurostile;letter-spacing:0px;word-spacing:0px;fill:#aa8800;fill-opacity:1;stroke:none;stroke-width:0.35733205;stroke-miterlimit:4;stroke-dasharray:none;stroke-opacity:1"
             id="path1935"
             inkscape:connector-curvature="0" />
          <path
             d="m -109.66276,108.17889 v 5.18512 h -1.97402 l -1.75368,-2.84517 q -0.1304,-0.21272 -0.4092,-0.74453 l -0.19785,-0.37226 -0.19335,-0.37227 h -0.045 l 0.018,0.34188 0.0135,0.33808 0.009,0.67995 v 2.97432 h -1.16463 v -5.18512 h 1.97403 l 1.5963,2.62865 q 0.21134,0.34947 0.49013,0.84709 l 0.23383,0.42165 0.23382,0.42544 h 0.0405 l -0.0135,-0.33428 -0.0135,-0.33427 -0.009,-0.66856 v -2.98572 z"
             style="font-style:normal;font-variant:normal;font-weight:normal;font-stretch:normal;font-size:medium;line-height:1.25;font-family:Eurostile;-inkscape-font-specification:Eurostile;letter-spacing:0px;word-spacing:0px;fill:#aa8800;fill-opacity:1;stroke:none;stroke-width:0.35733205;stroke-miterlimit:4;stroke-dasharray:none;stroke-opacity:1"
             id="path1937"
             inkscape:connector-curvature="0" />
        </g>
      </g>
    </clipPath>
  </defs>
  <sodipodi:namedview
     pagecolor="#ffffff"
     bordercolor="#666666"
     borderopacity="1"
     objecttolerance="10"
     gridtolerance="10"
     guidetolerance="10"
     inkscape:pageopacity="0"
     inkscape:pageshadow="2"
     inkscape:window-width="1366"
     inkscape:window-height="743"
     id="namedview97"
     showgrid="false"
     inkscape:pagecheckerboard="true"
     inkscape:zoom="2.789625"
     inkscape:cx="203.89546"
     inkscape:cy="92.376387"
     inkscape:window-x="0"
     inkscape:window-y="0"
     inkscape:window-maximized="1"
     inkscape:current-layer="svg95" />
  <title
     id="title70">mainlogo</title>
  <path
     d="m 1.9610228,80.55477 c 0,20.52127 13.6808882,37.13405 30.6191902,37.13405 h 85.017217 c 1.9544,0 3.90864,1.95439 3.90864,4.56016 0,2.60606 -1.62864,4.56032 -3.90864,4.56032 H 1.6354278 v 32.8998 H 131.27822 c 16.93838,0 30.61918,-16.93839 30.61918,-37.45966 0,-20.52128 -13.6808,-37.45966 -30.61918,-37.45966 H 46.58676 c -1.954555,0 -3.908799,-1.9544 -3.908799,-4.560164 0,-2.605916 1.628636,-4.560317 3.908799,-4.560317 H 161.57118 V 43.420726 H 32.585646 c -16.938263,0 -30.619151,16.612773 -30.619151,37.134044 z"
     id="path826"
     inkscape:connector-curvature="0"
     style="fill:#ffffff;stroke-width:1.51023841" />
  <path
     d="M 171.02225,43.420726 V 159.05909 h 40.71754 V 86.418724 l 77.52659,72.640366 h 42.34556 V 43.420726 H 290.89441 V 115.73547 L 213.36784,43.420726 Z"
     id="path828"
     inkscape:connector-curvature="0"
     style="fill:#ffffff;stroke-width:1.51023841" />
  <path
     d="M 381.77604,94.236472 V 43.420726 H 340.40757 V 159.05909 h 41.36847 v -51.14152 l 65.80108,51.14152 h 53.09545 l -74.92142,-57.65624 74.92142,-57.982124 h -53.09545 z"
     id="path830"
     inkscape:connector-curvature="0"
     style="fill:#ffffff;stroke-width:1.51023841" />
  <path
     d="m 13.156542,197.2085 c 1.588891,-0.003 3.158189,-0.3519 4.598554,-1.02545 1.416608,-0.62675 2.673434,-1.56764 3.676529,-2.75167 v 0 l -2.739113,-2.75316 c -0.67221,0.81252 -1.507068,1.47249 -2.450423,1.93915 -0.925435,0.45004 -1.941394,0.67962 -2.969568,0.67356 -0.867652,0.009 -1.72851,-0.15404 -2.532791,-0.48176 -0.8042814,-0.32622 -1.535998,-0.80948 -2.1528117,-1.42113 -0.5939394,-0.59957 -1.0632116,-1.31089 -1.3805464,-2.09471 -0.340222,-0.83063 -0.5115454,-1.72167 -0.5039077,-2.61875 -0.00908,-0.90766 0.1571762,-1.80775 0.4900846,-2.65046 0.3107734,-0.78533 0.7713056,-1.50119 1.3557141,-2.10815 0.5860813,-0.60257 1.2870655,-1.08057 2.0611591,-1.40557 0.806693,-0.34359 1.674916,-0.51786 2.55127,-0.51244 1.05687,-0.004 2.100125,0.23923 3.046865,0.71042 0.978587,0.49294 1.835542,1.19822 2.508503,2.06525 v 0 l 2.825968,-2.8406 c -0.99359,-1.21031 -2.257963,-2.16825 -3.690274,-2.79589 -1.471914,-0.68234 -3.073643,-1.03724 -4.695212,-1.03996 -1.448365,-0.0104 -2.88423,0.26881 -4.2244741,0.81975 -1.2697801,0.51666 -2.4291569,1.27252 -3.4154986,2.22669 -0.9735559,0.95478 -1.7478958,2.09455 -2.2779067,3.35214 -0.5494357,1.31994 -0.8335095,2.73503 -0.8358696,4.16373 -0.00259,1.4302 0.2770067,2.84529 0.8220595,4.16674 0.5237347,1.25349 1.293186,2.38769 2.262722,3.33762 0.9868086,0.95448 2.1466652,1.7096 3.4168731,2.22609 1.3492954,0.55275 2.7946784,0.83063 4.2520944,0.81856 z m 54.6382,0.0302 c 1.443489,0.0104 2.874595,-0.26882 4.209199,-0.82006 1.264217,-0.515 2.414413,-1.27465 3.384429,-2.23666 0.970028,-0.96204 1.740712,-2.10831 2.267623,-3.37087 0.551692,-1.31088 0.835922,-2.71994 0.835922,-4.14258 0,-1.42264 -0.28423,-2.8317 -0.835922,-4.14257 -0.526911,-1.26303 -1.297439,-2.40839 -2.267468,-3.37071 -0.970029,-0.96232 -2.120367,-1.72259 -3.384584,-2.23696 -2.690953,-1.09251 -5.699941,-1.09251 -8.390894,0 -1.264373,0.51437 -2.414569,1.27464 -3.384598,2.23696 -0.970029,0.96232 -1.740699,2.10768 -2.267468,3.37071 -0.551238,1.31087 -0.835312,2.71993 -0.835312,4.14257 0,1.42264 0.284074,2.8317 0.835312,4.14258 0.526925,1.26256 1.297595,2.40883 2.267624,3.37087 0.970029,0.96201 2.120225,1.72166 3.384442,2.23666 1.32598,0.54972 2.748177,0.82761 4.183056,0.81854 z m 0,-3.89491 c -0.847242,0.008 -1.686924,-0.15858 -2.467579,-0.48782 -0.780785,-0.33074 -1.48623,-0.81702 -2.073102,-1.42868 -0.578871,-0.61466 -1.034048,-1.33656 -1.340477,-2.12339 -0.653939,-1.70054 -0.653939,-3.5853 0,-5.28584 0.308983,-0.78229 0.764018,-1.49664 1.340477,-2.10767 0.586872,-0.61286 1.292317,-1.099 2.073102,-1.42885 0.780655,-0.32968 1.620337,-0.4961 2.467579,-0.48901 0.871854,-0.006 1.735875,0.16778 2.537356,0.51226 0.765392,0.32562 1.456781,0.80375 2.032177,1.4056 0.576459,0.61103 1.031493,1.32538 1.34049,2.10767 0.653628,1.70054 0.653628,3.5853 0,5.28584 -0.306429,0.78683 -0.761606,1.50873 -1.34049,2.12339 -0.575396,0.60107 -1.266785,1.07983 -2.032177,1.40453 -0.801183,0.34433 -1.664595,0.51801 -2.535995,0.51197 z m 63.374128,3.57322 v -3.7469 H 120.1245 v -16.75036 h -4.17747 v 20.49424 z m 52.70868,0 v -3.7469 h -11.04437 v -16.75036 h -4.18034 v 20.49424 z m 53.10905,0 v -3.68951 h -11.44609 v -4.86145 h 7.46964 v -3.57324 h -7.46964 v -4.67992 h 11.33132 v -3.68904 h -15.51468 v 20.4947 z m 46.36431,0.29298 c 1.58879,-0.003 3.15792,-0.35188 4.59869,-1.02544 1.4166,-0.62826 2.67312,-1.56764 3.67742,-2.75166 v 0 l -2.74107,-2.75164 c -0.67207,0.81249 -1.50721,1.47247 -2.45113,1.93913 -0.92426,0.45006 -1.94065,0.67961 -2.96912,0.67358 -0.86688,0.009 -1.72771,-0.15406 -2.53116,-0.48178 -0.80495,-0.3262 -1.53592,-0.80949 -2.15208,-1.42113 -0.59505,-0.59957 -1.06472,-1.31089 -1.38189,-2.09469 -0.33979,-0.83063 -0.51196,-1.72168 -0.50441,-2.62028 -0.009,-0.90614 0.15707,-1.80624 0.49084,-2.65047 0.30959,-0.78381 0.77021,-1.49965 1.35467,-2.10694 0.58597,-0.60257 1.28672,-1.08057 2.06147,-1.40557 0.80648,-0.34357 1.67487,-0.518 2.55081,-0.51227 1.06017,-0.004 2.10677,0.24133 3.05672,0.71586 0.97864,0.49279 1.83493,1.19807 2.5085,2.06449 v 0 l 2.82566,-2.83985 c -0.99375,-1.21031 -2.25781,-2.16825 -3.68951,-2.79592 -1.47249,-0.68201 -3.07335,-1.03675 -4.69383,-1.03993 -1.44831,-0.009 -2.88455,0.26881 -4.22564,0.81975 -1.27012,0.51604 -2.42998,1.27148 -3.41617,2.22535 -0.9741,0.95461 -1.74884,2.09439 -2.27894,3.35272 -0.54973,1.31843 -0.83366,2.73353 -0.83668,4.16372 -10e-4,1.42868 0.27789,2.84529 0.82309,4.16524 0.52405,1.2535 1.29275,2.3892 2.26233,3.33914 0.98618,0.95296 2.14605,1.70807 3.41617,2.22458 1.34864,0.54972 2.79092,0.8261 4.24526,0.81251 z m 55.30192,-0.29298 v -16.75007 h 6.77492 v -3.74857 h -17.76038 v 3.74857 h 6.80511 v 16.74702 z m 47.89268,0 v -20.49452 h -4.18033 v 20.49453 z m 48.15093,0.32319 c 1.4438,0.0104 2.87549,-0.26882 4.21054,-0.82006 1.26408,-0.51499 2.41337,-1.27463 3.38445,-2.23667 0.96957,-0.96201 1.73979,-2.10828 2.26687,-3.37084 0.55124,-1.31089 0.83515,-2.71995 0.83515,-4.14258 0,-1.42266 -0.28391,-2.8317 -0.83515,-4.14409 -0.52708,-1.26165 -1.2973,-2.40703 -2.26687,-3.36935 -0.97108,-0.96217 -2.12037,-1.72257 -3.38445,-2.23697 -2.69123,-1.09205 -5.69964,-1.09205 -8.38937,0 -1.26408,0.51515 -2.41337,1.27569 -3.38443,2.23803 -0.96959,0.96216 -1.73981,2.10708 -2.26689,3.36829 -0.55274,1.31239 -0.83666,2.71993 -0.83666,4.14409 0,1.42263 0.28392,2.83169 0.83666,4.14258 0.52708,1.26256 1.2973,2.40731 2.26689,3.36935 0.97106,0.96201 2.12035,1.72317 3.38443,2.23816 1.32449,0.54822 2.74561,0.82611 4.17883,0.81704 z m 0,-3.89491 c -0.86688,0.008 -1.72619,-0.16612 -2.5221,-0.51197 -0.75964,-0.32771 -1.44681,-0.80496 -2.01768,-1.40603 -0.57993,-0.61314 -1.03602,-1.33504 -1.3426,-2.12188 -0.65242,-1.70053 -0.65242,-3.58531 0,-5.28583 0.30961,-0.78231 0.76569,-1.49816 1.3426,-2.10784 0.57087,-0.59971 1.25804,-1.07787 2.01768,-1.40544 0.79591,-0.34553 1.65522,-0.52013 2.5221,-0.51241 0.87291,-0.006 1.73526,0.16778 2.53721,0.51241 0.76569,0.32546 1.45736,0.8036 2.03277,1.40544 0.5769,0.61118 1.0315,1.32553 1.34109,2.10784 0.65394,1.70052 0.65394,3.5853 0,5.28583 -0.30657,0.78684 -0.76115,1.50874 -1.34109,2.12188 -0.57541,0.60259 -1.26708,1.08134 -2.03277,1.40603 -0.80195,0.34433 -1.6658,0.51651 -2.53721,0.51047 z m 52.10172,3.57324 v -13.70994 l 10.29378,13.70995 h 3.68951 v -20.49468 h -3.92058 v 13.26368 l -10.03402,-13.26368 h -3.97947 v 20.4947 z"
     id="path836"
     inkscape:connector-curvature="0"
     style="fill:#ffffff;stroke-width:1.51023841" />
</svg>
