<svg id="Warstwa_1" data-name="Warstwa 1" xmlns="http://www.w3.org/2000/svg" viewBox="0 0 1045.95 229.4"><title>taitox</title><path d="M-297.8,335.63l68.63-119.23h-22.07a12,12,0,0,1,.65-2.66c12.36-21.41,24.86-42.75,37-64.26,2.35-4.15,5-5.57,9.75-5.56q165.48.24,331,0c5.74,0,11.46-1.5,17.2-2.21,10.94-1.35,22-2.18,32.58,1.41,7.51,2.56,14.41,6.93,21.58,10.5-.19.39-.38.78-.56,1.17.27-.14.73-.22.8-.42,2.95-8.82,9.09-10.54,18-10.41,38.32.56,76.65.24,115,.24h6.71c-6.41,11.36-12.37,21.9-18.62,33,1.65.1,2.88.23,4.11.23q38.23-.1,76.48-.24c7.11,0,14.32-.93,21.3,0,11.78,1.52,17.29,5.09,24.15,12.75,11.1-4.07,21.53-8.81,32.45-11.65,16.26-4.24,32.43-3.66,46.44,7.26,10.11,7.87,13.76,18.84,12.75,31.34-.43,5.23-1.67,10.4-2.54,15.61,7.36-2.2,13.11-9.38,12.9-16.6-.3-10-1-20-1.32-29.93-.52-15.31-.82-30.62-1.36-45.92-.1-3.12,1-4,4-4q37.75.14,75.5,0c3.34,0,4.44,1.22,4.33,4.36-.14,3.81,0,7.64,0,12.69,2.24-1.67,3.8-2.67,5.18-3.89,4.23-3.75,8.33-7.66,12.61-11.35a6.55,6.55,0,0,1,3.86-1.67c32.15-.09,64.3-.07,97.47-.07-1.45,1.61-2.28,2.69-3.26,3.59q-53,48.69-106.17,97.26c-4.31,3.93-5.85,7.66-5.48,13.68,1.15,18.44,1.37,36.94,1.78,55.43.21,9.3,0,18.6,0,28.25H550V314c-6.83,5.76-12.95,10.45-18.48,15.77a16.79,16.79,0,0,1-12.89,4.95q-33.5-.39-67,0c-7,.07-13.88,1.31-20.84,1.73-12.82.78-25.27-.29-35.82-8.76-2.44-2-4.57-4.31-7.14-6.77-3.23,1.95-6.52,4.16-10,6a79.1,79.1,0,0,1-32.3,8.91,8,8,0,0,0-5.43,3.17c-4.54,7.14-8.77,14.48-12.82,21.91-1.48,2.71-3.18,3.77-6.25,3.76q-40-.15-80,0c-7.14,0-14.29.68-21.44.76-17.37.18-33.31-4.8-48.14-13.69-3.4-2-6.9-3.89-10.84-6.11l4.47-9.12H116.58c3.06-5.41,5.61-9.92,8.8-15.54-6.14,3.29-11.06,6.18-16.19,8.62-17.87,8.48-36.57,11.52-56.18,8.2-12.54-2.13-22.44-9-30.72-21.83-3.3,5.57-6.57,10.85-9.59,16.27C11.27,334.78,9.63,336,6.48,336q-150-.14-300-.08C-294.61,335.9-295.71,335.77-297.8,335.63ZM68.82,317.68l.05-.26c2.49-.14,5-.14,7.47-.45a74.22,74.22,0,0,0,8.35-1.52c23.18-5.62,40-19.53,51.9-39.87,11.32-19.39,22.73-38.74,33.78-58.29,5.13-9.1,10.34-18.32,14-28,5-13.25-1.58-24-15.55-26-30.54-4.28-55.59,6.54-72.77,31.59-15,21.9-27.6,45.48-41,68.5a193,193,0,0,0-13.2,26.25c-5.33,13.6.83,23.85,15.05,26.59C60.87,316.94,64.87,317.2,68.82,317.68ZM477.6,312.5c13.61,0,26,.07,38.47-.1,1.43,0,3-1.17,4.23-2.2,15.32-13.32,30.56-26.73,45.85-40.08,1.24-1.09,2.66-2,5.33-3.91v45.92h41.69c.08-1.68.23-3,.18-4.3-.83-23.11-1.6-46.22-2.6-69.32-.16-3.81.68-6.39,3.72-9,26.65-22.86,53.13-45.92,79.65-68.93.65-.57,1.19-1.26,2.45-2.62-13.29,0-25.57-.09-37.84.12-1.57,0-3.35,1.32-4.64,2.47-13.28,11.87-26.48,23.84-39.71,35.76-1.17,1.05-2.5,1.94-4.71,3.65-.82-14.65-1.57-28.13-2.32-41.6h-39c0,2.54,0,4.68,0,6.83.42,21,.93,41.95,1.19,62.93,0,2.18-.81,5.1-2.33,6.44-19.49,17.16-39.17,34.09-58.79,51.1C498.46,294.33,488.48,303,477.6,312.5Zm-686.75,1.74c13.15,0,25.12.08,37.09-.11,1.3,0,3-1.34,3.79-2.53,4-5.73,7.79-11.61,11.63-17.45,4.76-7.22,9.65-8.79,18.67-5.71-4.1,8.41-8.2,16.78-12.61,25.81,11.33,0,21.66-.36,31.94.14,5.45.27,7.7-1.77,9.74-6.6C-91.42,266.46-73.64,225.25-56,184c2.53-5.91,5-11.83,7.82-18.42h-5.65c-15,0-30,.11-45-.08a8.28,8.28,0,0,0-7.79,4q-37,52.44-74.21,104.7ZM303,199.47c-12.51,0-23.79-.09-35.07.14-1.2,0-2.75,1.65-3.49,2.91q-21,36.25-41.82,72.67a8.91,8.91,0,0,0-.41,6.38c2.52,7.92,5.63,15.64,8.15,23.56,1,3.16,2.62,4.09,5.75,4,5.36-.23,10.74-.07,16.87-.07-5.19,8.78-12.06,13.3-21,12.7-8.71-.58-17.31-2.73-26-4-1.59-.22-4.18.07-4.86,1.08-3.82,5.78-7.2,11.85-10.94,18.16,7.78,4.46,15.89,6,24.21,6.46,34.23,2,61-10.08,78.24-40.93,15.53-27.72,31.71-55.08,47.6-82.6l11.83-20.47c-11.24,0-21.53.19-31.8-.1-3.86-.11-5.9,1.18-7.81,4.53q-21.87,38.37-44.2,76.5c-1.36,2.34-3.61,4.17-5.66,6.48-4.14-6.58-4.33-11.63-.45-17.44,5.89-8.85,10.89-18.3,16.25-27.5C286.41,228.13,294.4,214.33,303,199.47ZM275.89,343c12.27,0,23.24.13,34.2-.14,1.53,0,3.54-1.69,4.42-3.14q6.76-11.07,12.95-22.48c1.47-2.7,3-3.69,6.22-3.37,26.22,2.62,45.7-9.08,60.44-29.63a302.65,302.65,0,0,0,19-30.43c6.23-11.33,12.32-22.87,16.92-34.92,4.7-12.3-.83-19.69-13.88-20.89-2.8-.25-5.65.16-8.47.14-7.62,0-14.52,4.28-22.89,1.82-6.74-2-14.54-.24-21.85-.48-3.28-.1-5,1-6.63,3.89Q324.83,258.28,293,313.1C287.5,322.7,282,332.32,275.89,343Zm-122.14-28c11.81,0,22.77-.18,33.72.1,3.68.09,5.56-1.15,7.36-4.3,20.66-36.12,41.6-72.08,62.11-108.29,2.95-5.2,6.07-7.95,12-6.77,11.19,2.22,18.43-1.92,22.6-12.75,2.22-5.76,6-10.9,9.5-17-27.78,0-54.59,0-81.4.12-1.4,0-3.28,1.5-4.11,2.82-3.36,5.35-6.4,10.91-9.57,16.38-1.85,3.23-3.72,6.45-6.11,10.6h22.87ZM-191.56,195.07l-69,119.18c10.29,0,19.61-.5,28.84.16,6.9.5,10.52-1.84,14-7.92,20.27-35.77,41.1-71.23,61.62-106.85,1.94-3.37,4-5.2,8.18-4.75,4.62.49,9.33-.07,14,.17,3.05.16,4.87-1,6.5-3.49,3.76-5.7,7.79-11.22,11.68-16.83,1.92-2.76,3.78-5.56,5.78-8.51a9.32,9.32,0,0,0-1.74-.56q-41.5-.06-83,0c-1.2,0-3,.41-3.5,1.24-5.37,9.09-10.53,18.3-16.15,28.2Zm672.9,85.05c-5.68,0-10.83.15-16,0-7-.24-14.17-1-16.88,7.87a.61.61,0,0,1-.31.37c-2.18.71-4.76,2.46-6.43,1.83-2.65-1-2.48-3.87-1.1-6.42,3.34-6.14,6.68-12.28,9.82-18.51,1.3-2.59,3-3.39,5.89-3.36,11.5.16,23,0,34.49.13,3,0,4.84-.67,6.3-3.51,3.81-7.39,8.46-14.38,11.9-21.93a86.32,86.32,0,0,0,6.69-20.22c1.82-10.16-2.73-16-12.85-17.64-17.88-3-33.65,2.6-47.68,13.22-24,18.15-39.24,42.69-49.9,70.33a45.33,45.33,0,0,0-2.56,14.15c-.45,10.53,4.69,17.07,15,18.25C442.79,317.53,466.87,308.63,481.34,280.12ZM-40,314.25c11.85,0,22.49-.16,33.13.09,3.63.08,5.63-1.09,7.45-4.26,20.68-35.91,41.65-71.64,62.17-107.64,3.19-5.61,6.47-8.86,13.08-7.44,11.24,2.42,17.85-2.62,22-12.85,2.25-5.54,5.85-10.54,8.9-15.88a7.67,7.67,0,0,0-1.63-.61q-39.73,0-79.47,0c-1.16,0-2.91.52-3.41,1.37-5.27,9-10.35,18.06-16,28.1H29.09C5.91,235.11-16.74,274.2-40,314.25Zm-66.41,0c11.91,0,22.71-.14,33.5.08,3.47.07,5.29-1.14,7-4.12q35-60.75,70.31-121.36c4.32-7.44,8.6-14.9,13.28-23-2.38-.11-4-.25-5.57-.25-9,0-18,.21-27-.11-4.06-.15-6.18,1.29-8.18,4.77q-29.34,51.06-59,101.94C-89.93,285.84-97.82,299.49-106.37,314.25Z" transform="translate(297.8 -136.01)" fill="white"/><path d="M146.64,191.67c-.79,1.68-1.56,3.72-2.64,5.58-16.46,28.52-32.85,57.07-49.59,85.42-2,3.48-5.9,6-9.21,8.57-.91.71-3.6.57-4.26-.21a5.27,5.27,0,0,1-.74-4.67c3.31-6.52,6.92-12.88,10.58-19.22q19.68-34.14,39.49-68.21c2.64-4.53,4.9-9.6,10.76-11.15C144.08,187,146.81,188.64,146.64,191.67Z" transform="translate(297.8 -136.01)" fill="white"/><path d="M-136.86,260l37.41-53.44,1.61.91a46.25,46.25,0,0,1-1.6,4.36c-7,14.52-14.2,28.93-20.86,43.59-2.09,4.61-4.5,6.93-9.64,6.08a38.79,38.79,0,0,0-6.29-.06Z" transform="translate(297.8 -136.01)" fill="white"/><path d="M342.69,291c2.21-4,4.29-7.89,6.5-11.7q15.21-26.3,30.48-52.55c.58-1,1.08-2.56,1.92-2.8a10.06,10.06,0,0,1,5.63-.25c.8.27,1.48,2.91,1.12,4.16a41,41,0,0,1-3.79,9.13q-13.68,23.73-27.67,47.27C352.7,291.25,349.46,292.67,342.69,291Z" transform="translate(297.8 -136.01)" fill="white"/><path d="M465.53,238.82c3.45-5.1,6.05-9.31,9.06-13.2a9.13,9.13,0,0,1,4.89-3c1-.23,3.59,1.92,3.52,2-2.32,4.8-4.35,9.92-7.68,14C474.13,240,469.72,238.82,465.53,238.82Z" transform="translate(297.8 -136.01)" fill="white"/></svg>