<?xml version="1.0" encoding="utf-8"?>
<svg version="1.1" viewBox="0 0 3840 1269.7" xmlns="http://www.w3.org/2000/svg">
  <polygon class="st2" points="852.6 392.3 0 392.3 0 558.4 324 558.4 324 1244.8 528.5 1244.8 528.5 558.4 852.6 558.4" style="fill: rgb(255, 255, 255);"/>
  <polygon class="st2" points="2817.1 392.3 1964.3 392.3 1964.3 558.4 2288.4 558.4 2288.4 1244.8 2493 1244.8 2493 558.4 2817.1 558.4 2817.1 392.3" style="fill: rgb(255, 255, 255);"/>
  <rect x="1694.9" y="392.3" class="st2" width="204.7" height="852.6" style="fill: rgb(255, 255, 255);"/>
  <path class="st2" d="M 1129.7 1244.8 L 1683.8 1244.8 L 1314.9 566 C 1172.4 762.1 1106.5 1003.5 1129.7 1244.8 Z" style="fill: rgb(255, 255, 255);"/>
  <path class="st2" d="M 618.1 1244.8 L 908.4 1244.8 C 937.7 958.9 1068.1 692.8 1276.2 494.6 L 1151 264.4 L 618.1 1244.8 Z" style="fill: rgb(255, 255, 255);"/>
  <path class="st2" d="M 1798.2 0 C 1713.4 0 1644.7 68.7 1644.7 153.5 C 1644.7 238.3 1713.4 307 1798.2 307 C 1883 307 1951.7 238.3 1951.7 153.5 L 1951.7 153.5 C 1951.8 68.8 1883.2 0.1 1798.6 0 C 1798.5 0 1798.3 0 1798.2 0 Z" style="fill: rgb(255, 255, 255);"/>
  <path class="st2" d="M 1570 320.5 L 1557.2 296.6 C 1454.5 348.8 1359.9 415.5 1276.2 494.6 L 1314.9 566 C 1384.6 469.6 1471 386.5 1570 320.5 Z" style="fill: rgb(255, 255, 255);"/>
  <path class="st2" d="M 3328.5 364.8 C 3035.2 364.8 2816.8 546.8 2816.8 817.3 C 2816.8 1087.8 3035.2 1269.6 3328.5 1269.6 C 3621.8 1269.6 3840 1087.6 3840 817.3 C 3840 547 3621.8 364.8 3328.5 364.8 Z M 3328.5 1112.3 L 3328.5 1111.9 C 3165.5 1111.9 3033.6 994.7 3033.6 817.3 C 3033.6 639.9 3165.6 522.5 3328.5 522.5 C 3491.4 522.5 3623.4 639.7 3623.4 817.3 C 3623.4 994.9 3491.5 1112.3 3328.5 1112.3 Z" style="fill: rgb(255, 255, 255);"/>
</svg>