<svg id="Warstwa_1" data-name="Warstwa 1" xmlns="http://www.w3.org/2000/svg" viewBox="0 0 1553.39 297.91"><title>tecmo</title><path d="M456.48,289q0,49.56,0,99.12c0,4.41-.15,4.56-4.62,4.56q-40.8,0-81.6,0c-4.43,0-4.91-.29-4.91-4.82q0-98.16.05-196.32c0-6.44-3-10.82-8.5-13.53a53.2,53.2,0,0,0-10-3.88c-3.21-.82-6.49-1.73-9.91-1.42a27,27,0,0,1-4.31,0c-3.66-.24-7.13.78-10.6,1.61a52.89,52.89,0,0,0-8.6,2.86,21.63,21.63,0,0,0-5.46,3.45,12.74,12.74,0,0,0-4.68,10.07q0,98,0,196.08c0,1,0,1.92,0,2.88-.09,2.33-.68,2.9-3.08,3-.48,0-1,0-1.44,0h-79.2c-4.11,0-4.4-.29-4.4-4.33q0-92.76,0-185.52a34.3,34.3,0,0,1,.62-4.47,25,25,0,0,0,.33-3.08c0-5.52,0-11,0-16.56a39.54,39.54,0,0,1,.92-9.73c1.26-5,2.46-10,4.88-14.49,3.1-5.73,6.24-11.55,11.1-16.12.65-.6,1.27-1.23,1.87-1.86a74,74,0,0,1,19.8-14.55c1.91-1,3.64-2.35,5.6-3.23,4.44-2,8.91-3.92,13.46-5.63s9.2-3.2,13.85-4.62c2.58-.78,5.27-1.23,7.92-1.82,2.33-.52,4.66-1,7-1.51.93-.19,1.89-.29,2.83-.43s1.89-.29,2.82-.48c.55-.1,1.08-.37,1.62-.42,4.44-.38,8.88-.7,13.32-1.09,1.58-.14,3.14-.44,4.71-.65a23,23,0,0,1,2.85-.32c5.44,0,10.88,0,16.32,0a6.24,6.24,0,0,1,2.13.18c2.55,1,5.2.72,7.83.84,1.65.08,3.3.41,4.95.65a14,14,0,0,0,1.41.27c6.28.21,12.22,2.15,18.25,3.62,2.17.53,4.34,1.1,6.45,1.83a84.19,84.19,0,0,1,14.29,6.14c2.5,1.41,5.16,2.53,7.75,3.79a5.15,5.15,0,0,0,4.84-.09c2.93-1.48,5.84-3,8.79-4.4a43.24,43.24,0,0,1,5.08-2.12c5.48-1.77,10.95-3.55,16.48-5.13,2.67-.77,5.45-1.13,8.19-1.64,3.36-.62,6.71-1.26,10.09-1.76,1.57-.23,3.19-.08,4.78-.22s3-.4,4.49-.59a22.93,22.93,0,0,1,3.07-.36q13.08,0,26.16,0a6,6,0,0,1,2.14.15c2.63,1,5.35.79,8.06.84a22.89,22.89,0,0,1,2.61.29c1.57.22,3.15.45,4.71.7,2.2.35,4.43.58,6.59,1.12,6.5,1.62,13,3.21,19.43,5.09,7.16,2.1,13.71,5.68,20.36,9a81.31,81.31,0,0,1,16.78,11.44c.67.57,1.48,1,2.12,1.55a43.19,43.19,0,0,1,4.14,4c2,2.38,3.86,4.87,5.66,7.41s3.48,5,5,7.58,2.78,5.38,4.11,8.1a67.59,67.59,0,0,1,5,15.94c.67,3.18.5,6.36,1,9.48a18.3,18.3,0,0,1-.08,7.73,8.64,8.64,0,0,0,0,2.16q0,46.92,0,93.84a41.85,41.85,0,0,0,.66,5.19,22.94,22.94,0,0,1,.29,2.85q0,22.08,0,44.16a6.91,6.91,0,0,1-.22,2.37,18,18,0,0,0-.76,6.63q0,19.44,0,38.88a19.24,19.24,0,0,1,0,2.15,2.15,2.15,0,0,1-2.28,2.26,17.53,17.53,0,0,1-1.92,0H526c-4.15,0-4.36-.21-4.36-4.33V245.77a17.75,17.75,0,0,0-.74-5.91,11.32,11.32,0,0,1-.33-3.55q0-22.68,0-45.36a14.91,14.91,0,0,0-3-9.08c-3.8-5.34-9.13-7.83-15.17-9.21a63.51,63.51,0,0,0-17-2,30.24,30.24,0,0,0-4,.57c-2.51.45-5,1-7.51,1.41-5.91,1-10.52,4.16-14.27,8.6a12.52,12.52,0,0,0-3.07,8.36Q456.53,239.27,456.48,289Z" transform="translate(525.21 -101.7)" fill="white"/><path d="M830.45,102.7h17.76a6.94,6.94,0,0,1,2.38.14c2.71,1.05,5.53.62,8.3.89,3.86.37,7.71,1,11.55,1.62,2.36.37,4.68,1,7,1.2A81.93,81.93,0,0,1,892,109.5c5.86,1.6,11.74,3.11,17.52,4.92,5.41,1.7,10.71,3.73,16,5.65.82.29,1.59.73,2.39,1.1,5.56,2.62,11.18,5.13,16.67,7.89,3.49,1.75,6.83,3.81,10.17,5.85,4,2.41,7.88,4.87,11.71,7.48,2.63,1.8,5.07,3.87,7.57,5.85q4.32,3.4,8.59,6.86c.69.55,1.36,1.12,2,1.73,2.05,2,4.18,4,6.09,6.12q5.07,5.73,9.89,11.67c2.31,2.85,4.51,5.81,6.57,8.84,1.69,2.51,3.11,5.21,4.65,7.82l2.79,4.75a18.35,18.35,0,0,1,.93,1.68,137,137,0,0,1,8.73,24.06c.89,3.72,1.79,7.44,2.64,11.17.16.69.08,1.43.17,2.14.22,1.81.49,3.62.72,5.43a17.33,17.33,0,0,1,.25,2.37c0,5.2.22,10.41,0,15.6a116.15,116.15,0,0,1-1.6,11.55c-.38,2.44-.89,4.86-1.33,7.28a5.49,5.49,0,0,1-.07.72c-1.38,4.33-2.73,8.67-4.19,13-.69,2-1.67,4-2.39,6a59.1,59.1,0,0,1-6,12c-1.54,2.42-2.7,5.1-4.37,7.43-3.52,4.93-7.41,9.6-10.87,14.57-3,4.32-7,7.67-10.57,11.42A98.28,98.28,0,0,1,974,353.29c-4.3,3.18-8.63,6.33-13,9.35A180.34,180.34,0,0,1,935.18,377c-3.83,1.79-7.74,3.44-11.7,4.91-6.06,2.26-12.15,4.48-18.32,6.42s-12.26,3.62-18.47,5.1c-4.32,1-8.77,1.5-13.16,2.26-3.29.57-6.56,1.21-9.85,1.77-.86.14-1.76.06-2.63.16-1.57.19-3.14.44-4.71.65-1,.13-1.9.28-2.85.32-3.73.14-7.52-.42-11.17.9a6.67,6.67,0,0,1-2.15.1H820.49a6.32,6.32,0,0,1-2.14-.11c-3.5-1.28-7.12-.74-10.7-.9a36.77,36.77,0,0,1-4-.55,8.45,8.45,0,0,0-1.87-.36c-3.72.39-7.29-.69-10.91-1.15-4-.51-8-1.55-11.93-2.37a9.83,9.83,0,0,0-1.86-.44c-4,0-7.7-1.4-11.45-2.4-7.17-1.92-14.32-4-21.33-6.45-5.94-2.08-11.67-4.75-17.47-7.23-3-1.29-6-2.65-8.88-4.14-3.48-1.78-7-3.56-10.28-5.65-5.75-3.63-11.37-7.46-17-11.29a54.78,54.78,0,0,1-6-4.7c-5.55-5.05-11.59-9.59-16.48-15.33-3.46-4.06-6.67-8.35-9.89-12.6a98.18,98.18,0,0,1-6.35-9c-2.72-4.6-5.15-9.38-7.64-14.11a81.54,81.54,0,0,1-6.12-15.34c-1.06-3.66-1.76-7.44-2.57-11.18-.62-2.87-1.27-5.75-1.69-8.65-.28-1.89-.12-3.83-.27-5.74-.12-1.58-.54-3.14-.59-4.72-.09-3-.06-6,0-9,0-.77.56-1.55.53-2.32A62.71,62.71,0,0,1,634.67,231a56.55,56.55,0,0,1,1.15-6.1c1.91-7,3.84-14,7.06-20.61,1.71-3.51,3-7.22,4.9-10.65a95.94,95.94,0,0,1,9.94-15.51c1.46-1.8,2.74-3.73,4.11-5.6a11.53,11.53,0,0,1,.68-1c3.63-4,7.09-8.23,11-12,3.54-3.43,7.64-6.27,11.31-9.57,5.75-5.15,12.35-9.08,18.7-13.37,2.64-1.78,5.47-3.29,8.25-4.87,3.19-1.81,6.34-3.73,9.65-5.29,4.69-2.21,9.48-4.24,14.29-6.17,5.11-2,10.23-4.1,15.48-5.77,6.53-2.08,13.16-3.91,19.82-5.58,4-1,8.13-1.51,12.2-2.28,2.89-.54,5.77-1.16,8.65-1.71.71-.13,1.43-.12,2.15-.21,1.88-.24,3.77-.54,5.66-.73,1.58-.15,3.19-.13,4.77-.28s3.31-.43,5-.64a24.91,24.91,0,0,1,3.08-.31C818.45,102.69,824.45,102.7,830.45,102.7ZM721.79,251h.08c0,3-.41,6.14.09,9.09a54.73,54.73,0,0,0,4.13,13.23A65.1,65.1,0,0,0,741.61,295c1.06,1,2.09,2,3,3.05,3.48,3.81,7.63,6.77,11.8,9.73a102,102,0,0,0,24.17,12.57A125.9,125.9,0,0,0,812,327.64a2.92,2.92,0,0,1,.93.2,14.45,14.45,0,0,0,5.91.74c2.07,0,4.16-.08,6.23,0a17.85,17.85,0,0,1,4,.63,8.3,8.3,0,0,0,4.71,0,16.75,16.75,0,0,1,4-.61c2.63-.09,5.27,0,7.91,0a12.61,12.61,0,0,0,2.38-.2c2.89-.55,5.76-1.24,8.66-1.7a87.17,87.17,0,0,0,16.48-4c4.72-1.73,9.53-3.26,14.11-5.32,7.51-3.38,14.8-7.21,21.23-12.45,3.28-2.67,6.64-5.25,9.71-8.13,2.2-2.05,3.85-4.69,6-6.8a49.74,49.74,0,0,0,6.4-8.35,55.76,55.76,0,0,0,7.11-15.91c.54-1.91.83-3.89,1.21-5.84.21-1.09.37-2.19.56-3.29a15.5,15.5,0,0,0,.41-2.59c0-3.25.46-6.56-.81-9.73a2.74,2.74,0,0,1-.13-1.18c.19-3.19-.78-6.19-1.77-9.12A55.64,55.64,0,0,0,932,222.48c-3.1-5.07-6.25-10-10.69-14a49.49,49.49,0,0,1-4.4-4.41c-4-4.67-9.07-8.1-14.13-11.4a114.13,114.13,0,0,0-24-11.8c-5.48-1.95-11.16-3.35-16.76-4.94a30.45,30.45,0,0,0-5.14-1.13c-3.71-.38-7.36-1.47-11.15-1.14a7.31,7.31,0,0,1-1.39-.32,27.43,27.43,0,0,0-4-.56c-6.95,0-13.91-.15-20.87,0-3.56.09-7.11.74-10.66,1.13-.08,0-.15.05-.23.06-2.41.55-4.81,1.1-7.22,1.63-3.66.81-7.39,1.36-11,2.46-6.48,2-13,4-19,7.26-6.2,3.31-12.66,6.14-18.12,10.69-1.78,1.47-3.89,2.6-5.48,4.25-4.75,4.95-10,9.37-14.15,14.95a61,61,0,0,0-8.88,16.33c-1.94,5.57-3.5,11.31-2.94,17.35C721.84,249.58,721.79,250.31,721.79,251Z" transform="translate(525.21 -101.7)" fill="white"/><path d="M-267.2,249.67q0-37.2,0-74.39c0-6.11,1.81-11.77,3.92-17.4a50.15,50.15,0,0,1,4.84-9.59,62.58,62.58,0,0,1,3.74-5.26,101.51,101.51,0,0,1,6.63-7.83,70.73,70.73,0,0,1,7-5.85,99.28,99.28,0,0,1,20.25-12.26,87.49,87.49,0,0,1,19-6.47c2.58-.5,5.13-1.16,7.7-1.72.62-.13,1.26-.15,1.89-.24,1.65-.24,3.3-.5,4.95-.71a21.15,21.15,0,0,1,2.85-.28q60.48,0,121,0c1.17,0,2.35.37,3.53.5,1.66.19,3.32.37,5,.47,2.34.13,3,.71,3,3.06,0,4.48,0,9,0,13.44V169.3c0,.72,0,1.44,0,2.16-.07,2.6-.66,3.17-3.34,3.23h-2.16q-23.26,0-46.55,0a38.14,38.14,0,0,0-4.48.58,32.35,32.35,0,0,1-3.8.36c-18.16,0-36.31.08-54.47,0-4.86,0-8.4,2.19-11.33,5.69a4.79,4.79,0,0,0-.91,2.87q-.1,14.4,0,28.8c0,3.06,1.54,4.51,4.61,4.61.8,0,1.6,0,2.4,0H-57.86c4.67,0,4.76.09,4.76,4.66v57.83c0,.48,0,1,0,1.44-.08,2.49-.64,3-3.19,3.09-.8,0-1.6,0-2.4,0H-173.63c-4,0-4.7,1.05-5.58,5-1.68,7.47-.6,15-.82,22.45a9.23,9.23,0,0,0,3.11,7.29,12.29,12.29,0,0,1,1.53,1.53c3.57,4.45,8.47,5.7,13.86,5.7h103.9c4.34,0,4.53.18,4.53,4.41v59c0,3.12-.48,3.58-3.66,3.58H-104q-33.7,0-67.43,0a40,40,0,0,1-5.19-.66c-.79-.1-1.58-.26-2.37-.28-2.78-.07-5.55.08-8.3-.83-2-.66-4.23-.67-6.33-1.14-4.2-.92-8.42-1.81-12.55-3a114,114,0,0,1-23.37-9.85c-3.07-1.66-5.81-3.93-8.82-5.72-4-2.4-7.28-5.68-10.66-8.87-8.27-7.79-13.34-17.43-16.73-28.1a15.78,15.78,0,0,1-.42-2.58,7.76,7.76,0,0,0-.18-1.9c-1-2.54-.81-5.19-.81-7.82Q-267.21,286.26-267.2,249.67Z" transform="translate(525.21 -101.7)" fill="white"/><path d="M189.18,140.22V169c0,.64,0,1.28,0,1.92-.11,2.05-.7,2.67-2.81,2.73s-4.32,0-6.48,0c-2.71,0-5.41-.11-8.07.78-1.24.42-2.7.16-4.05.21-3.73.16-7.52-.47-11.18.86a11.83,11.83,0,0,1-2.62.14c-1.89.21-3.78.48-5.66.74-.24,0-.47.13-.7.15-3.16.38-6.34.61-9.47,1.15-3.53.61-7,1.43-10.51,2.28s-7.13,1.79-10.62,2.9c-3.2,1-6.33,2.23-9.43,3.51s-6.47,2.75-9.58,4.37a125.37,125.37,0,0,0-15.38,9.69c-5.5,4-9.9,9.07-14.61,13.83a44.68,44.68,0,0,0-5.44,7.59,58.59,58.59,0,0,0-6.76,14.23c-.93,3-1.17,6.23-1.72,9.36a23.68,23.68,0,0,1-.46,2.82,13.15,13.15,0,0,0,0,7.56,8.19,8.19,0,0,1,.42,1.86c.49,9,4,17,8.77,24.52a77.06,77.06,0,0,0,14.41,16.91,108.54,108.54,0,0,0,12.33,9.06,102.72,102.72,0,0,0,23.84,11.65c4.71,1.53,9.44,3,14.2,4.37,2.37.66,4.85.92,7.27,1.37l8.67,1.63a5.47,5.47,0,0,0,1.17.26c5-.11,9.92,1.6,15,1.12a15.82,15.82,0,0,1,7.57.81,7.49,7.49,0,0,0,2.61.23c3.44,0,6.88,0,10.32,0,2.38,0,3,.64,3,3,0,5.6,0,11.2,0,16.8V391c0,.64,0,1.28,0,1.92,0,3.18-.47,3.65-3.59,3.66q-9,0-18,0a37.27,37.27,0,0,1-8.79-.74c-2.43-.59-5.1-.12-7.65-.27-1.89-.11-3.77-.49-5.67-.68-1.5-.15-3-.14-4.53-.3-1.81-.18-3.62-.45-5.43-.69a4.3,4.3,0,0,0-.69-.16c-3.38.16-6.64-.73-10-1.12-.48-.06-1-.05-1.44-.13-5.24-1-10.49-1.89-15.71-2.94-2.26-.46-4.47-1.21-6.71-1.8-4.09-1.07-8.22-2-12.26-3.22-4.9-1.48-9.73-3.18-14.56-4.86-1.89-.65-3.69-1.51-5.54-2.27-3.25-1.33-6.55-2.55-9.73-4-4.27-2-8.53-4-12.65-6.32-4.75-2.62-9.4-5.44-14-8.35-3.1-2-6-4.17-9-6.36-2.75-2-5.43-4.18-8.13-6.3a21.7,21.7,0,0,1-2-1.73c-2.84-2.81-5.78-5.54-8.47-8.5-3.2-3.55-6.29-7.21-9.22-11a101.54,101.54,0,0,1-7-10c-3.31-5.54-6.7-11-9.14-17.08-1.8-4.45-3.55-8.9-5-13.48-1-3.34-1.73-6.79-2.55-10.19-.57-2.41-1.15-4.81-1.62-7.23a21.3,21.3,0,0,1-.27-3.57c-.06-2.63.19-5.28-.82-7.82a6.05,6.05,0,0,1-.18-2.14c0-2.32-.08-4.64,0-7a34.05,34.05,0,0,1,.56-4,7.23,7.23,0,0,0,.32-1.4c-.31-3.71.73-7.28,1.11-10.91a30.35,30.35,0,0,1,.8-3.49,110,110,0,0,1,7.57-22.69c1-2.15,1.71-4.49,2.86-6.58a137,137,0,0,1,11.7-18.1c1-1.26,2-2.51,2.84-3.85,3-4.64,7.33-8,11-12,1-1.11,2.2-2.09,3.2-3.24,2.45-2.8,5.52-4.84,8.44-7q5.16-3.92,10.46-7.61a66.2,66.2,0,0,1,6.33-3.88c5.83-3.15,11.64-6.33,17.58-9.27a200.67,200.67,0,0,1,30.34-11.82c5.18-1.59,10.38-3.2,15.65-4.47,5.56-1.35,11.22-2.29,16.83-3.43,2.89-.58,5.75-1.29,8.65-1.75,3.29-.52,6.62-.83,9.94-1.22a7.27,7.27,0,0,0,1.89-.18c2.46-1,5-.79,7.58-.81a6,6,0,0,0,1.91-.1c3.89-1.4,7.92-.7,11.89-.91,1.34-.07,2.67-.37,4-.56a21.18,21.18,0,0,1,2.83-.4q13.2,0,26.4,0c3,0,3.45.51,3.45,3.55Q189.2,125.22,189.18,140.22Z" transform="translate(525.21 -101.7)" fill="white"/><path d="M-405.12,107.66h114.94c5,0,5,0,5,4.91V173c0,3.13-.51,3.62-3.65,3.62-18.64,0-37.28,0-55.91,0-1.73,0-3.46.5-5.19.67s-3.34.23-5,.29c-1.36.05-2.72,0-4.08,0a4.13,4.13,0,0,0-4.18,4.09c-.09,1-.05,2.08-.05,3.12V387.43c0,1,0,1.92,0,2.88a2.14,2.14,0,0,1-2.25,2.28,17.58,17.58,0,0,1-1.92,0h-79.67c-3.79,0-4.1-.32-4.1-4.12V186c0-1,0-1.92,0-2.88-.2-4.16-2.56-6.43-6.7-6.43h-62.63c-4.51,0-4.64-.12-4.64-4.52v-60c0-.56,0-1.12,0-1.68.1-2.1.68-2.7,2.74-2.8.8,0,1.6,0,2.4,0Z" transform="translate(525.21 -101.7)" fill="white"/></svg>