<?xml version="1.0" encoding="utf-8"?>
<!-- Made by Szalik  -->
<svg version="1.1" id="tools" xmlns="http://www.w3.org/2000/svg" xmlns:xlink="http://www.w3.org/1999/xlink" x="0px" y="0px" xml:space="preserve">
<g>
	<g>
		<path d="M129.99,238.4c1.94,0.93,3.68,1.81,5.48,2.58c0.43,0.18,1.06,0.13,1.52-0.03c1.43-0.5,2.84-1.06,4.22-1.68
			c0.44-0.2,0.92-0.61,1.1-1.04c0.64-1.5,1.17-3.05,1.7-4.6c0.19-0.57,0.47-0.82,1.11-0.8c1.76,0.04,3.52,0.05,5.28,0
			c0.7-0.02,0.97,0.28,1.18,0.89c0.51,1.51,1.03,3.03,1.65,4.5c0.18,0.44,0.66,0.86,1.1,1.05c1.46,0.64,2.95,1.21,4.45,1.73
			c0.39,0.14,0.94,0.13,1.31-0.04c1.79-0.79,3.54-1.66,5.2-2.46c1.64,1.65,3.24,3.26,4.97,4.99c-0.75,1.55-1.64,3.28-2.4,5.07
			c-0.21,0.5-0.16,1.21,0.01,1.75c0.44,1.36,0.98,2.7,1.58,4c0.24,0.51,0.69,1.05,1.19,1.27c1.42,0.62,2.91,1.11,4.38,1.61
			c0.6,0.2,0.91,0.48,0.89,1.19c-0.06,1.72-0.05,3.44,0,5.16c0.02,0.69-0.25,0.99-0.86,1.2c-1.55,0.53-3.09,1.08-4.6,1.71
			c-0.4,0.17-0.79,0.62-0.96,1.03c-0.53,1.29-0.85,2.67-1.47,3.91c-0.45,0.9-0.4,1.59,0.04,2.43c0.71,1.34,1.3,2.74,1.99,4.09
			c0.28,0.54,0.29,0.89-0.18,1.34c-1.44,1.39-2.83,2.82-4.31,4.31c-1.78-0.83-3.56-1.61-5.29-2.49c-0.66-0.34-1.13-0.25-1.76,0.06
			c-1.36,0.67-2.79,1.19-4.14,1.86c-0.47,0.23-0.96,0.67-1.15,1.13c-0.64,1.59-1.19,3.22-1.71,4.85c-0.19,0.6-0.47,0.81-1.1,0.8
			c-1.76-0.04-3.52-0.04-5.28,0c-0.64,0.02-0.91-0.22-1.1-0.8c-0.54-1.67-1.1-3.34-1.73-4.98c-0.15-0.38-0.52-0.78-0.89-0.96
			c-1.47-0.72-2.96-1.39-4.48-1.99c-0.45-0.18-1.08-0.23-1.51-0.05c-1.58,0.66-3.13,1.42-4.66,2.19c-0.54,0.28-0.89,0.26-1.33-0.2
			c-1.21-1.28-2.51-2.47-3.69-3.77c-0.25-0.28-0.36-0.94-0.21-1.3c0.66-1.58,1.46-3.11,2.13-4.68c0.16-0.37,0.13-0.92-0.03-1.3
			c-0.63-1.55-1.31-3.08-2.04-4.59c-0.18-0.37-0.56-0.75-0.94-0.9c-1.68-0.64-3.38-1.23-5.09-1.77c-0.61-0.19-0.79-0.49-0.78-1.11
			c0.04-1.76,0.04-3.52,0-5.28c-0.02-0.66,0.26-0.89,0.83-1.07c1.67-0.54,3.34-1.09,4.98-1.72c0.41-0.16,0.83-0.56,1.03-0.96
			c0.72-1.42,1.4-2.87,1.99-4.34c0.19-0.48,0.24-1.16,0.05-1.62c-0.64-1.55-1.45-3.02-2.11-4.56c-0.14-0.33-0.08-0.97,0.15-1.22
			C127.07,241.3,128.53,239.88,129.99,238.4z M147.94,249.64c-6.34-0.05-11.51,4.99-11.57,11.28c-0.05,6.14,5.07,11.31,11.25,11.36
			c6.24,0.04,11.45-4.9,11.51-10.91C159.18,254.82,154.29,249.69,147.94,249.64z" fill="white"/>
		<path d="M346.42,256.97c2.68-0.32,5.29-0.64,7.88-0.95c0.08,0.1,0.16,0.16,0.17,0.22c0.28,2.53,0.53,2.75,3.15,2.75
			c3.64,0,7.28,0.01,10.92-0.01c0.98,0,1.96-0.11,2.28-1.3c0.44-1.63-0.34-2.7-2.03-2.71c-4.2-0.03-8.4,0-12.59-0.03
			c-0.99-0.01-2-0.11-2.97-0.32c-3.81-0.82-6.19-3.31-6.64-7.22c-0.22-1.92-0.23-3.92,0.04-5.84c0.6-4.21,3.34-6.81,8.08-7.09
			c5.34-0.31,10.73-0.37,16.06,0.01c5.68,0.4,8.47,4.06,8.34,10.16c-2.63,0.34-5.3,0.69-7.95,1.04c-0.1-0.2-0.19-0.29-0.2-0.4
			c-0.25-2.5-0.52-2.75-3.01-2.75c-3.68,0-7.36,0-11.04,0c-1,0-1.92,0.15-2.26,1.33c-0.5,1.74,0.34,2.87,2.25,2.88
			c3.88,0.03,7.76-0.01,11.64,0.02c1.19,0.01,2.41,0.06,3.57,0.29c3.56,0.69,5.98,2.77,6.59,6.39c0.36,2.13,0.44,4.4,0.13,6.53
			c-0.59,4.1-3.2,6.73-7.38,6.95c-5.77,0.31-11.59,0.38-17.36,0C348.87,266.58,345.9,262.38,346.42,256.97z" fill="white"/>
		<path d="M252.14,234.54c2.95,0,5.93-0.23,8.86,0.06c4.17,0.41,7.07,3.33,7.26,7.5c0.26,5.54,0.33,11.12,0.05,16.65
			c-0.26,5.13-2.94,7.92-8.08,8.26c-5.41,0.36-10.88,0.36-16.3,0c-5.07-0.33-7.72-2.97-8.06-8.01c-0.37-5.45-0.39-10.97-0.01-16.41
			c0.37-5.37,3.66-8.07,9.07-8.24c2.4-0.07,4.8-0.01,7.2-0.01C252.14,234.4,252.14,234.47,252.14,234.54z M243.88,250.75
			c0,1.96-0.01,3.92,0,5.87c0.02,1.73,0.58,2.35,2.28,2.36c3.96,0.03,7.91,0.03,11.87,0c1.66-0.01,2.22-0.6,2.23-2.28
			c0.03-3.96,0.03-7.91,0-11.87c-0.01-1.73-0.59-2.29-2.33-2.3c-3.92-0.02-7.83-0.02-11.75,0c-1.71,0.01-2.29,0.61-2.31,2.33
			C243.87,246.83,243.88,248.79,243.88,250.75z" fill="white"/>
		<path d="M272.65,250.7c0-2.36-0.06-4.72,0.01-7.08c0.17-5.47,2.9-8.76,8.32-9.13c5.33-0.37,10.72-0.35,16.06-0.01
			c5.25,0.33,7.93,3.1,8.24,8.38c0.31,5.26,0.31,10.56,0,15.82c-0.31,5.28-2.99,8.04-8.24,8.37c-5.3,0.34-10.65,0.35-15.94,0.01
			c-5.52-0.35-8.31-3.7-8.45-9.28C272.6,255.42,272.65,253.06,272.65,250.7z M297.24,250.76c0-2,0.03-4-0.01-5.99
			c-0.03-1.66-0.6-2.22-2.27-2.23c-3.92-0.02-7.83-0.02-11.75,0c-1.78,0.01-2.35,0.6-2.36,2.4c-0.01,3.88-0.01,7.75,0,11.63
			c0.01,1.8,0.58,2.41,2.35,2.42c3.92,0.03,7.83,0.03,11.75,0c1.72-0.01,2.26-0.6,2.29-2.35
			C297.26,254.68,297.24,252.72,297.24,250.76z" fill="white"/>
		<path d="M186.42,211.8c0.19,0.06,0.41,0.13,0.63,0.22c0.95,0.41,2.23,0.59,2.75,1.32c0.46,0.65-0.02,1.91,0.08,2.88
			c0.05,0.52,0.37,1.05,0.67,1.5c1.18,1.82,2.87,2.28,4.93,1.86c0.3-0.06,0.87,0.3,1.02,0.61c1.35,2.81,1.31,2.8-0.93,4.97
			c-0.36,0.35-0.5,0.99-0.62,1.52c-0.5,2.16,0.59,3.58,2.24,4.77c0.25,0.18,0.4,0.84,0.28,1.17c-1.06,2.99-1.08,2.95-4.21,2.87
			c-0.47-0.01-1,0.3-1.41,0.59c-1.67,1.18-2.36,2.76-1.8,4.8c0.19,0.69-0.13,1.06-0.8,1.35c-2.67,1.13-2.63,1.13-4.54-1
			c-0.33-0.37-0.97-0.55-1.5-0.66c-1.89-0.4-3.31,0.38-4.4,1.88c-0.6,0.82-1.26,0.83-2.16,0.47c-2.71-1.08-2.75-1.05-2.62-3.96
			c0.03-0.72-0.29-1.11-0.68-1.65c-1.27-1.72-2.9-2.16-4.89-1.76c-0.66,0.13-0.97-0.17-1.23-0.79c-1.18-2.78-1.22-2.79,1.03-4.73
			c0.54-0.47,0.83-0.93,0.67-1.64c-0.02-0.08-0.02-0.16,0-0.24c0.41-1.88-0.37-3.21-1.9-4.2c-0.75-0.49-0.86-1.04-0.49-1.9
			c1.08-2.5,1.05-2.57,3.77-2.38c0.98,0.07,1.43-0.5,2.11-0.97c1.72-1.17,1.8-2.75,1.53-4.5c-0.11-0.73,0.12-1.05,0.79-1.33
			c2.79-1.17,2.79-1.21,4.75,1.03c0.47,0.53,0.97,0.57,1.62,0.69c2.23,0.42,3.6-0.65,4.76-2.29c0.11-0.16,0.27-0.29,0.41-0.43
			C186.29,211.84,186.34,211.83,186.42,211.8z M188.43,227.52c-0.01-3.56-2.96-6.46-6.53-6.44c-3.5,0.02-6.42,2.93-6.45,6.42
			c-0.03,3.49,2.97,6.51,6.49,6.54C185.44,234.06,188.44,231.05,188.43,227.52z" fill="white"/>
		<path d="M211.05,242.56c-4.2,0-8.18,0-12.25,0c0-2.75,0-5.41,0-8.15c10.87,0,21.75,0,32.7,0c0,2.67,0,5.3,0,8.08
			c-4.02,0-8.03,0-12.2,0c0,8.29,0,16.41,0,24.63c-2.81,0-5.46,0-8.25,0C211.05,259,211.05,250.87,211.05,242.56z" fill="white"/>
		<path d="M317.5,258.97c8.31,0,16.41,0,24.6,0c0,2.75,0,5.41,0,8.14c-10.85,0-21.7,0-32.65,0c0-10.84,0-21.73,0-32.71
			c2.61,0,5.27,0,8.05,0C317.5,242.52,317.5,250.65,317.5,258.97z" fill="white"/>
	</g>
</g>
</svg>
