<?xml version="1.0" encoding="utf-8"?>
<svg viewBox="0 0 200 40" xmlns="http://www.w3.org/2000/svg">
  <path d="M 65.644 22.24 L 65.644 19.613 L 63.256 18.738 C 63.048 17.935 62.771 17.18 62.358 16.482 L 62.382 16.479 L 63.517 14.117 L 61.663 12.26 L 59.299 13.385 L 59.296 13.388 C 58.599 12.976 57.842 12.715 57.039 12.507 L 56.163 10.1 L 53.531 10.1 L 52.655 12.507 C 51.85 12.715 51.093 13.005 50.396 13.417 L 50.391 13.398 L 48.025 12.266 L 46.165 14.12 L 47.292 16.481 L 47.295 16.484 C 46.882 17.18 46.473 17.937 46.266 18.74 L 43.708 19.613 L 43.708 22.24 L 46.266 23.115 C 46.473 23.917 46.839 24.675 47.251 25.37 L 47.269 25.373 L 46.155 27.736 L 48.02 29.593 L 50.39 28.469 L 50.395 28.467 C 51.091 28.877 51.85 29.262 52.653 29.469 L 53.531 32 L 56.163 32 L 57.039 29.469 C 57.843 29.262 58.601 28.91 59.297 28.498 L 59.302 28.486 L 61.669 29.601 L 63.528 27.74 L 62.401 25.375 L 62.399 25.372 C 62.811 24.675 63.048 23.917 63.256 23.115 L 65.644 22.24 Z M 54.846 25.304 C 52.425 25.304 50.461 23.344 50.461 20.927 C 50.461 18.51 52.425 16.549 54.846 16.549 C 57.27 16.549 59.232 18.51 59.232 20.927 C 59.232 23.344 57.27 25.304 54.846 25.304 Z" style="fill: rgb(204, 204, 204);"/>
  <path d="M 74.053 6.37 L 73.478 4.984 L 71.989 5.058 C 71.703 4.679 71.373 4.349 71.003 4.072 L 71.004 4.069 L 71.083 2.576 L 69.694 2 L 68.691 3.111 L 68.691 3.113 C 68.232 3.049 67.761 3.044 67.293 3.111 L 66.289 2 L 64.9 2.574 L 64.978 4.067 C 64.6 4.352 64.27 4.686 63.991 5.056 L 63.99 5.055 L 62.493 4.978 L 61.92 6.364 L 63.03 7.364 L 63.033 7.366 C 62.98 7.795 62.958 8.297 63.024 8.765 L 61.903 9.77 L 62.479 11.157 L 63.982 11.075 C 64.267 11.454 64.606 11.782 64.976 12.059 L 64.976 12.062 L 64.9 13.555 L 66.423 14.129 L 67.559 13.018 L 67.559 13.016 C 67.853 13.07 68.355 13.083 68.824 13.018 L 69.761 14.129 L 71.116 13.555 L 71.022 12.062 C 71.401 11.778 71.724 11.442 72.001 11.073 L 72 11.074 L 73.493 11.151 L 74.068 9.763 L 72.955 8.764 L 72.951 8.762 C 73.017 8.304 73.013 7.837 72.948 7.369 L 74.053 6.37 Z M 68.95 10.376 C 67.672 10.903 66.208 10.298 65.678 9.021 C 65.147 7.745 65.755 6.283 67.033 5.754 C 68.312 5.225 69.777 5.831 70.307 7.107 C 70.836 8.385 70.228 9.847 68.95 10.376 Z" style="fill: rgb(204, 204, 204);"/>
  <path d="M 89.702 11.148 L 88.829 15.936 L 84.676 15.936 L 82.239 29.85 L 76.522 29.85 L 78.959 15.936 L 74.837 15.936 L 75.71 11.148 L 89.702 11.148 Z M 96.292 17.402 L 94.908 25.182 L 97.284 25.182 C 98.067 25.182 98.649 25.089 99.03 24.903 C 99.411 24.71 99.662 24.274 99.782 23.596 L 101.166 15.816 L 98.759 15.816 C 97.996 15.816 97.425 15.909 97.044 16.096 C 96.663 16.288 96.412 16.724 96.292 17.402 Z M 99.752 10.699 C 102.3 10.699 104.115 11.195 105.198 12.185 C 106.281 13.17 106.823 14.689 106.823 16.744 C 106.823 18.798 106.495 20.95 105.84 23.197 C 105.191 25.438 104.158 27.18 102.741 28.423 C 101.33 29.673 99.263 30.299 96.542 30.299 C 93.827 30.299 91.928 29.807 90.845 28.823 C 89.762 27.833 89.22 26.309 89.22 24.254 C 89.22 23.277 89.361 21.987 89.641 20.384 C 89.922 18.775 90.294 17.389 90.755 16.225 C 91.216 15.055 91.838 14.041 92.62 13.183 C 94.125 11.527 96.502 10.699 99.752 10.699 Z M 115.249 17.402 L 113.864 25.182 L 116.241 25.182 C 117.024 25.182 117.606 25.089 117.987 24.903 C 118.368 24.71 118.618 24.274 118.739 23.596 L 120.123 15.816 L 117.716 15.816 C 116.953 15.816 116.382 15.909 116 16.096 C 115.62 16.288 115.369 16.724 115.249 17.402 Z M 118.709 10.699 C 121.257 10.699 123.072 11.195 124.155 12.185 C 125.238 13.17 125.78 14.689 125.78 16.744 C 125.78 18.798 125.452 20.95 124.797 23.197 C 124.148 25.438 123.115 27.18 121.698 28.423 C 120.287 29.673 118.22 30.299 115.499 30.299 C 112.784 30.299 110.885 29.807 109.802 28.823 C 108.719 27.833 108.177 26.309 108.177 24.254 C 108.177 23.277 108.318 21.987 108.598 20.384 C 108.879 18.775 109.251 17.389 109.712 16.225 C 110.173 15.055 110.795 14.041 111.577 13.183 C 113.082 11.527 115.459 10.699 118.709 10.699 Z M 138.989 25.062 L 138.146 29.85 L 126.712 29.85 L 130.022 11.148 L 135.739 11.148 L 133.272 25.062 L 138.989 25.062 Z M 138.989 29.521 L 140.674 24.584 C 142.359 25.042 143.903 25.272 145.308 25.272 C 146.712 25.272 147.845 25.212 148.708 25.092 L 148.948 23.596 L 146.451 23.356 C 144.546 23.177 143.194 22.749 142.399 22.07 C 141.609 21.391 141.215 20.434 141.215 19.197 C 141.215 18.659 141.276 18.06 141.396 17.402 C 141.858 14.848 142.693 13.093 143.903 12.136 C 145.12 11.178 147.003 10.699 149.55 10.699 C 152.098 10.699 154.345 10.948 156.291 11.447 L 154.726 16.235 C 152.981 15.936 151.577 15.786 150.513 15.786 C 149.45 15.786 148.548 15.836 147.805 15.936 L 147.564 17.402 L 149.581 17.611 C 151.627 17.831 153.081 18.316 153.944 19.067 C 154.806 19.812 155.238 20.813 155.238 22.07 C 155.238 23.346 154.957 24.663 154.395 26.02 C 154.114 26.718 153.806 27.303 153.472 27.775 C 153.144 28.241 152.723 28.636 152.209 28.962 C 151.7 29.294 151.236 29.544 150.814 29.71 C 150.393 29.883 149.862 30.009 149.219 30.089 C 148.277 30.229 147.123 30.299 145.759 30.299 C 143.272 30.299 141.015 30.039 138.989 29.521 Z" style="fill: rgb(255, 255, 255); white-space: pre;"/>
</svg>