<?xml version="1.0" encoding="utf-8"?>
<!-- Made by Szalik  -->
<svg version="1.1" id="Warstwa_1" xmlns="http://www.w3.org/2000/svg" xmlns:xlink="http://www.w3.org/1999/xlink" x="0px" y="0px" xml:space="preserve">
<g>
	<g>
		<path d="M-142.7,154.67c0,45.53,0,91.06,0,137.07c5.02,0,9.79,0,14.89,0c0,24.22,0,47.96,0,71.98c-17.92,0-35.69,0-53.87,0
			c0-23.63,0-47.35,0-71.64c3.87,0,7.93,0,12.44,0c0-43.24,0-85.91,0-129.07c-4.11,0-8.2,0-12.57,0c0-23.08,0-45.68,0-68.68
			c19.63,0,39.35,0,59.55,0c13.12,60.95,26.26,122.03,39.41,183.11c0.21-0.01,0.41-0.03,0.62-0.04c0-37.9,0-75.8,0-114.33
			c-4.74,0-9.63,0-14.79,0c0-23.22,0-45.81,0-68.78c17.89,0,35.77,0,53.94,0c0,22.71,0,45.31,0,68.42c-4.03,0-8.11,0-12.72,0
			c0,67.22,0,133.93,0,201.29c-10.28,0-20.05,0-29.81,0c-11.87,0-11.83-0.01-14.27-11.44c-13.75-64.6-27.52-129.21-41.29-193.81
			c-0.3-1.41-0.75-2.8-1.13-4.19C-142.43,154.6-142.57,154.63-142.7,154.67z" fill="white"/>
		<path d="M357.39,240.05c0,17.18,0,34.13,0,51.63c4.63,0,9.05,0,13.78,0c0,24.3,0,48.04,0,72.05c-21.58,0-43.01,0-64.82,0
			c0-23.66,0-47.38,0-71.81c4.04,0,8.25,0,12.7,0c0-43.28,0-85.84,0-128.87c-4.31,0-8.4,0-12.78,0c0-23.19,0-45.9,0-68.95
			c1.3-0.06,2.42-0.16,3.55-0.16c20.99,0.02,41.99-0.22,62.97,0.21c7.25,0.15,14.61,1.4,21.66,3.18
			c12.21,3.09,20.44,10.94,23.72,23.28c6.3,23.71,7.27,47.72,2.18,71.7c-3.53,16.63-12.78,28.76-31.75,32.79
			c4.07,1.27,6.82,2.01,9.49,2.98c11.38,4.14,17.53,12.05,17.84,24.4c0.23,8.99,0.75,17.97,1.29,26.95c0.2,3.31,0.32,6.78,1.43,9.82
			c0.72,1.96,3.11,4.48,4.87,4.57c1.75,0.09,4.77-2.22,5.27-4.02c1.54-5.56,2.3-11.35,3.04-17.1c0.38-2.92,0.07-5.93,0.07-9.21
			c3.24,0,5.98,0,9.29,0c0.46,5.31,1.04,10.57,1.34,15.84c1.08,19.48,2.1,39.02-2.69,58.16c-1.58,6.34-4.1,12.81-7.72,18.2
			c-9.7,14.45-28.98,13.7-38.17-1.06c-5.88-9.43-8.28-20.1-8.78-30.92c-0.86-18.45-0.77-36.95-1.08-55.42
			c-0.05-3.16,0.12-6.35-0.18-9.49C382.54,244.93,371.42,236.95,357.39,240.05z M357.43,163.09c0,16.78,0,33,0,49.65
			c9.9,0.16,19.8,0.25,25.6-8.97c6.36-10.12,5.48-21.22-0.2-31.33C377.39,162.76,367.66,162.34,357.43,163.09z" fill="white"/>
		<path d="M179.5,94.07c36.11,0,71.9,0,108.07,0c0,35.8,0,71.51,0,107.55c-10.08,0-20.14,0-30.86,0c0-12.81,0-25.53,0-38.45
			c-9.1,0-17.55,0-26.33,0c0,15.83,0,31.57,0,47.98c10.65,0,21.35,0,32.38,0c0,9.55,0,18.44,0,27.73c-10.69,0-21.29,0-32.31,0
			c0,17.62,0,34.85,0,52.52c8.35,0,16.89,0,26.17,0c0-12.81,0-25.69,0-39.09c10.84,0,20.97-0.1,31.09,0.16
			c0.95,0.02,2.53,2.25,2.62,3.54c0.33,4.47,0.13,8.99,0.13,13.49c0,29.32,0,58.65,0,87.97c0,1.97,0,3.95,0,6.22
			c-37.17,0-73.92,0-111.02,0c0-23.73,0-47.45,0-71.65c3.96,0,7.89,0,12.25,0c0-43.15,0-85.83,0-128.92c-3.91,0-7.85,0-12.2,0
			C179.5,140.02,179.5,117.32,179.5,94.07z" fill="white"/>
		<path d="M-237.63,162.95c-2.73,0-5.2,0-8,0c0-23,0-45.72,0-68.73c16.67,0,33.24,0,50.14,0c0,22.82,0,45.53,0,68.75
			c-4.47,0-8.72,0-13.46,0c0,2.13,0,3.75,0,5.37c0.04,47.15,0.27,94.29-0.02,141.44c-0.06,9.91-0.96,20.07-3.36,29.65
			c-4.42,17.66-17.73,27.66-35.91,28.57c-4.97,0.25-10.05,0.3-14.95-0.42c-16.86-2.46-28.13-12.26-32.49-28.46
			c-2.69-10-4.04-20.63-4.14-31c-0.43-46.14-0.19-92.29-0.19-138.44c0-1.98,0-3.97,0-6.49c-4.29,0-8.35,0-12.81,0
			c0-23.23,0-45.93,0-68.95c19.75,0,39.47,0,59.49,0c0,22.72,0,45.31,0,68.46c-2.64,0-5.36,0-8.37,0c-0.17,1.79-0.4,3.07-0.4,4.34
			c0.01,31.32-0.15,62.64,0.22,93.96c0.09,7.57,1.62,15.19,3.15,22.65c0.84,4.08,3.12,8.1,8.17,8.22c5.14,0.12,8.13-3.61,9.16-7.87
			c1.86-7.71,3.76-15.65,3.88-23.51c0.48-31.81,0.29-63.63,0.34-95.45C-237.19,164.55-237.38,164.08-237.63,162.95z" fill="white"/>
		<path d="M652.61,94.11c9.26,66.06,18.46,131.63,27.72,197.64c3.91,0,7.51,0,11.39,0c0,24.23,0,47.96,0,71.98
			c-21.56,0-42.99,0-64.88,0c0-23.67,0-47.37,0-71.81c4.29,0,8.65,0,13.63,0c-1.42-12.65-2.75-24.51-4.11-36.57
			c-9.86,0-19.29,0-29.32,0c-1.43,11.96-2.86,23.91-4.34,36.35c5.28,0,9.9,0,14.89,0c0,24.14,0,47.88,0,71.96
			c-17.85,0-35.76,0-54.05,0c0-23.67,0-47.39,0-71.72c3.94,0,7.85,0,12.14,0c9.03-66.27,17.99-132.01,26.96-197.83
			C619.48,94.11,635.78,94.11,652.61,94.11z M632.53,227.08c-3.54-26.88-6.99-53.16-10.45-79.44c-0.29,0.03-0.58,0.06-0.87,0.1
			c-3.56,26.31-7.12,52.61-10.74,79.35C617.96,227.08,624.84,227.08,632.53,227.08z" fill="white"/>
		<path d="M453.41,261.45c11.23,0,22.15,0,33.15,0c0.46,5.2,0.88,10.13,1.33,15.06c0.07,0.83,0.17,1.66,0.36,2.47
			c2.02,8.91,6.93,13.47,13.93,12.94c6.99-0.53,11.11-5.72,11.77-14.92c1.06-14.63-3.78-26.45-16.43-34.62
			c-4.75-3.07-9.25-6.54-14.04-9.55c-18.05-11.33-28.61-27.69-31.81-48.53c-3.61-23.47-2.74-46.85,4.45-69.66
			c1.52-4.83,4.02-9.57,6.98-13.7c10.87-15.15,31.46-15.73,43.31-1.36c2.79,3.38,4.98,7.26,7.98,11.7c0-6.08,0-11.33,0-16.97
			c11.34,0,22.23,0,33.53,0c0,31.31,0,62.68,0,94.39c-11.7,0-23.43,0-35.13,0c-1.01-6.03-1.56-12.01-3.09-17.72
			c-1.67-6.24-6.06-8.49-11.77-6.95c-4.2,1.13-6.19,4.22-6.99,8.26c-2.23,11.2,2.32,19.88,10.43,27.01
			c3.36,2.95,7.25,5.29,10.91,7.89c5.02,3.57,10.07,7.09,15.08,10.68c16.04,11.49,25.53,26.73,27.3,46.67
			c2.14,24.15,3.19,48.27-2.85,72.01c-1.61,6.34-4.29,12.72-7.82,18.21c-10.05,15.64-30.81,18.36-44.75,6.03
			c-4.49-3.97-7.96-9.11-12.19-14.05c0,5.66,0,11.2,0,17.25c-5.94,0-11.39,0-16.84,0c-5.48,0-10.96,0-16.79,0
			C453.41,329.79,453.41,295.89,453.41,261.45z" fill="white"/>
		<path d="M132.63,363.73c-15.35,0-30.27,0-45.42,0C77.84,296.78,68.5,230.06,59.1,162.95c-3.92,0-7.53,0-11.41,0
			c0-23.17,0-45.9,0-68.83c19.95,0,39.57,0,59.61,0c0,22.79,0,45.49,0,68.76c-3.61,0-7.19,0-11.15,0
			c7.03,46.1,13.97,91.6,20.91,137.09c0.28-0.02,0.56-0.03,0.84-0.05c4.87-45.46,9.75-90.92,14.68-136.9c-5.08,0-9.68,0-14.62,0
			c0-23.17,0-45.87,0-68.83c16.62,0,33.05,0,49.85,0c0,22.75,0,45.46,0,68.53c-2.96,0.15-5.89,0.3-9.28,0.47
			C149.9,229.94,141.3,296.58,132.63,363.73z" fill="white"/>
		<path d="M703.15,363.65c0-23.97,0-47.58,0-71.73c4.26,0,8.34,0,12.77,0c0-43.12,0-85.69,0-128.75c-4.03,0-8.12,0-12.59,0
			c0-23.19,0-45.91,0-68.94c21.41,0,42.82,0,64.67,0c0,22.69,0,45.39,0,68.63c-4.43,0-8.85,0-13.56,0c0,43.11,0,85.68,0,128.62
			c8.67,0,17.21,0,26.34,0c0-17.41,0-34.64,0-52.14c11.48,0,22.38,0,33.6,0c0,41.47,0,82.72,0,124.32
			C777.38,363.65,740.48,363.65,703.15,363.65z" fill="white"/>
		<path d="M22.39,291.73c4.49,0,8.77,0,13.45,0c0,24.12,0,47.85,0,71.92c-21.44,0-42.98,0-64.76,0c0-23.79,0-47.4,0-71.56
			c4.07,0,8.14,0,12.63,0c0-43.24,0-85.92,0-129.1c-4.12,0-8.21,0-12.57,0c0-23.09,0-45.69,0-68.68c21.46,0,43,0,64.82,0
			c0,22.7,0,45.29,0,68.41c-4.39,0-8.8,0-13.57,0C22.39,205.82,22.39,248.4,22.39,291.73z" fill="white"/>
		<path d="M458.87,393.14c0,12.71,0,25.46,0,38.56c-2.77,0-5.5,0-8.85,0c0-8.3,0-16.66,0-25.45c-6.89,6.54-13.24,12.55-19.97,18.94
			c-5.21-5.63-10.68-11.54-16.92-18.28c0,8.91,0,16.77,0,24.92c-3.08,0-5.63,0-8.41,0c0-13.12,0-26.02,0-38.97
			c4.34-1.15,7.45-0.4,10.23,3.2c4.87,6.31,10.24,12.23,15.83,18.82c4.88-5.83,9.93-11.13,14.11-17.05
			C448.56,392.64,452.95,391.55,458.87,393.14z" fill="white"/>
		<path d="M128.59,416.93c4.29,5.08,8.11,9.61,12.2,14.46c-6.57,1.49-11.64,0.99-14.46-5.47c-3.83-8.78-10.56-12.08-19.92-10.28
			c-1.28,0.25-2.63,0.15-4.47,0.24c0,5.16,0,10.22,0,15.68c-3.39,0-6.25,0-9.43,0c0-12.82,0-25.59,0-38.82
			c1.16-0.15,2.42-0.46,3.67-0.46c8.83-0.01,17.67-0.22,26.49,0.18c3.88,0.18,7.96,1.09,11.5,2.68c4.83,2.17,7.26,7.4,6.42,11.93
			c-0.96,5.18-4.2,8.14-9.34,9.1C130.61,416.29,130.01,416.52,128.59,416.93z M101.23,410.45c8.3,0,16.1,0.4,23.8-0.26
			c2.15-0.18,5.32-3.2,5.76-5.38c0.78-3.84-3.03-5.49-6.15-5.64c-7.72-0.38-15.48-0.12-23.42-0.12
			C101.23,403.06,101.23,406.64,101.23,410.45z" fill="white"/>
		<path d="M-164.97,415.12c0,3.89,0,6.86,0,10.48c11.32,0,22.52,0,33.57,0c1.55,6.88,1.37,7.14-4.84,7.14
			c-11.16,0.01-22.31,0.01-33.47-0.01c-1.62,0-3.24-0.14-5.08-0.23c0-13.3,0-26.24,0-39.6c14.23,0,28.43,0,43.05,0
			c0,2.04,0,4.08,0,6.78c-11.04,0-22.09,0-33.44,0c0,3.36,0,6.07,0,9.21c6.69,0,13.13,0,19.87,0c0,2.15,0,3.88,0,6.21
			C-151.67,415.12-158.07,415.12-164.97,415.12z" fill="white"/>
		<path d="M484.11,392.8c14.18,0,28.26,0,42.74,0c0,2.12,0,4.17,0,6.86c-11,0-22.04,0-33.39,0c0,3.33,0,6.05,0,9.31
			c6.74,0,13.31,0,20.14,0c0.09,2.13,0.16,3.74,0.27,6.13c-6.75,0-13.28,0-20.07,0c0,3.87,0,6.96,0,10.67c11.47,0,22.69,0,34.08,0
			c0,2.54,0,4.45,0,6.67c-14.63,0-29.02,0-43.77,0C484.11,419.21,484.11,406.16,484.11,392.8z" fill="white"/>
		<path d="M26.17,431.88c0-13.41,0-26.33,0-39.56c14.43,0,28.64,0,43.17,0c0,2.11,0,4.04,0,6.6c-11.01,0-22.05,0-33.49,0
			c0,3.36,0,6.09,0,9.5c6.53,0,13.09,0,19.88,0c0,2.41,0,4.16,0,6.44c-6.5,0-12.91,0-19.6,0c0,3.58,0,6.65,0,10.22
			c11.22,0,22.3,0,33.82,0c0,2.51,0,4.52,0,6.8C55.44,431.88,41.02,431.88,26.17,431.88z" fill="white"/>
		<path d="M594.71,433.69c-11.39-8.76-22.07-16.97-33.7-25.92c0,8.96,0,17.11,0,25.61c-3.57,0-6.29,0-9.39,0
			c0-13.35,0-26.58,0-41.18c2.86,1.18,5.66,1.64,7.49,3.21c8.8,7.56,17.35,15.43,26.79,23.92c0-9.2,0-17.4,0-25.9
			c3.14,0,5.73,0,8.8,0C594.71,406.49,594.71,419.67,594.71,433.69z" fill="white"/>
		<path d="M-318.64,399.24c42.08,0,83.03,0,124.36,0c0,2.52,0,4.89,0,7.8c-1.84,0-3.63,0-5.41,0c-34.32,0-68.63-0.23-102.94,0.19
			C-309.51,407.31-313.71,404.34-318.64,399.24z" fill="white"/>
		<path d="M681.48,406.75c0-2.86,0-5.09,0-7.63c41.29,0,82.35,0,124.72,0c-4.77,3.67-7.48,7.79-13.73,7.75
			c-35.12-0.25-70.25-0.12-105.38-0.12C685.31,406.75,683.52,406.75,681.48,406.75z" fill="white"/>
		<path d="M368.09,418.7c0-9.27,0-17.24,0-25.57c2.94,0,5.66,0,8.72,0c0,13.03,0,26.06,0,40.07c-11.36-8.73-22.1-16.98-33.87-26.02
			c0,9.11,0,17.26,0,25.62c-3.63,0-6.38,0-9.43,0c0-13.45,0-26.68,0-41.45c3.09,1.38,5.81,1.94,7.67,3.53
			c7.46,6.38,14.65,13.09,21.95,19.66C364.44,415.71,365.82,416.8,368.09,418.7z" fill="white"/>
		<path d="M-63.82,433.52c-11.74-9.01-22.48-17.24-34.12-26.16c0,9.17,0,17.22,0,25.62c-3.26,0-5.97,0-9.04,0
			c0-13.31,0-26.51,0-41.14c3.05,1.35,5.8,1.92,7.67,3.52c7.46,6.37,14.64,13.07,21.94,19.63c1.18,1.06,2.44,2.02,4.47,3.69
			c0-8.97,0-17.01,0-25.37c3.28,0,6.03,0,9.08,0C-63.82,406.31-63.82,419.34-63.82,433.52z" fill="white"/>
		<path d="M274.55,431.45c-6.49,1.59-10.7,0.2-13.49-5.39c-0.78-1.56-3.51-2.89-5.43-3.01c-6.14-0.38-12.33,0.07-18.49-0.23
			c-3.33-0.16-5.5,0.92-6.67,3.89c-2.34,5.9-6.76,7.08-12.91,5.59c0.69-1.37,1.24-2.68,1.98-3.88
			c6.49-10.67,13.01-21.32,19.54-31.96c3.52-5.73,9.1-5.74,12.81-0.02C259.38,407.98,266.85,419.55,274.55,431.45z M245.77,402.91
			c-2.67,4.27-4.93,7.89-7.42,11.88c5.42,0,9.98,0,15.34,0C250.95,410.68,248.55,407.08,245.77,402.91z" fill="white"/>
		<path d="M645.19,433.84c-3.9,0-6.98,0-10.66,0c0-11.33,0-22.39,0-33.8c-7.04,0-13.49,0-20.24,0c0-2.6,0-4.84,0-7.4
			c16.75,0,33.48,0,50.52,0c0,2.25,0,4.34,0,6.98c-6.34,0-12.74,0-19.61,0C645.19,411.22,645.19,422.28,645.19,433.84z" fill="white"/>
		<path d="M-287.2,419.22c31.62,0,62.22,0,93.28,0c0,2.44,0,4.81,0,7.82c-1.74,0-3.51,0-5.27,0c-25.12,0-50.25-0.27-75.36,0.19
			C-280.84,427.34-283.72,424.27-287.2,419.22z" fill="white"/>
		<path d="M-22.04,399.77c-7.43,0-13.87,0-20.63,0c0-2.66,0-4.9,0-7.44c16.72,0,33.44,0,50.51,0c0,2.14,0,4.21,0,6.91
			c-6.34,0-12.73,0-19.75,0c0,11.79,0,22.98,0,34.39c-3.57,0-6.5,0-10.14,0C-22.04,422.62-22.04,411.59-22.04,399.77z" fill="white"/>
		<path d="M774.36,419.14c-3.3,5.72-7.33,7.88-13.66,7.78c-24.61-0.41-49.24-0.17-73.86-0.17c-1.79,0-3.58,0-5.63,0
			c0-2.79,0-5.04,0-7.61C712.16,419.14,743.01,419.14,774.36,419.14z" fill="white"/>
		<path d="M179.17,399.16c-7.37,0-13.8,0-20.56,0c0-2.53,0-4.6,0-7.01c16.84,0,33.59,0,50.7,0c0,2.1,0,4.16,0,6.72
			c-6.46,0-12.88,0-19.84,0c0,11.57,0,22.65,0,34.14c-3.6,0-6.66,0-10.31,0C179.17,422.08,179.17,411.01,179.17,399.16z" fill="white"/>
		<path d="M305.02,433.33c-2.92,0-5.36,0-8.22,0c0-13.47,0-26.77,0-40.34c2.76,0,5.33,0,8.22,0
			C305.02,406.42,305.02,419.61,305.02,433.33z" fill="white"/>
	</g>
</g>
</svg>
