<?xml version="1.0" encoding="utf-8"?>
<!-- Made by Szalik  -->
<svg version="1.1" id="Warstwa_1" xmlns="http://www.w3.org/2000/svg" xmlns:xlink="http://www.w3.org/1999/xlink" x="0px" y="0px" xml:space="preserve">
<g>
	<g>
		<path d="M341.03,224.32c8.76,0.3,16.85,4.2,22.27,12.74c6.85,10.78,4.31,24.65-5.79,32.84c-11.22,9.08-28.18,8-37.89-2.42
			c-11.77-12.64-8.1-32.28,7.5-40.13C331.12,225.34,335.36,224.37,341.03,224.32z M348.21,249.6c0-3.8,0.06-7.6-0.01-11.4
			c-0.13-6.5-6.58-10.46-12.1-7.43c-3.07,1.69-4.31,4.49-4.32,7.89c-0.02,7.52-0.01,15.04,0,22.56c0,0.64,0.06,1.28,0.16,1.91
			c0.69,4.5,5.24,7.57,9.67,6.53c3.89-0.91,6.56-4.42,6.6-8.78C348.24,257.12,348.21,253.36,348.21,249.6z" fill="white"/>
		<path d="M236.15,276.5c-5.04-0.18-10.04-0.62-14.61-2.87c-2-0.98-3.98-2.31-5.5-3.92c-4.72-4.97-2.96-11.78,3.51-14.07
			c2.91-1.03,5.88-1,8.84-0.22c0.64,0.17,1.27,0.5,1.8,0.91c1.04,0.8,1.17,1.91,0.38,2.95c-0.61,0.79-1.33,1.49-1.98,2.25
			c-2.1,2.41-2.08,5.06,0.04,7.42c4.4,4.9,13.86,3.06,16.08-3.14c1.1-3.06,0.1-5.98-2.8-7.43c-1.84-0.92-3.85-1.51-5.81-2.17
			c-4.46-1.48-8.98-2.81-13.41-4.39c-5.61-2-9.5-7.52-9.29-13.12c0.17-4.67,2.55-8.16,6.32-10.73c4.18-2.85,8.88-3.35,13.77-2.9
			c2.66,0.24,5.17,0.96,7.52,2.23c2.62,1.41,5.42,1.66,8.26,1c1.09-0.25,2.05-1.01,3.1-1.44c0.7-0.29,1.58-0.73,2.17-0.52
			c0.47,0.17,0.84,1.2,0.9,1.88c0.45,5.19-2.71,10.18-7.17,11.51c-4.09,1.21-7.18,0.17-9.64-3.3c-0.97-1.37-1.83-2.82-2.87-4.13
			c-1.77-2.22-4.4-2.96-7.12-2.12c-2.34,0.72-3.25,2.62-2.31,4.89c0.76,1.86,2.16,3.04,4.07,3.61c6.5,1.93,12.96,4.02,19.51,5.73
			c8.7,2.26,15.25,13.59,7.11,23.73c-3.64,4.54-8.6,6.77-14.19,7.72C240.62,276.2,238.38,276.28,236.15,276.5z" fill="white"/>
		<path d="M279.63,247.59c0.17,5.8,0.41,10.76,2.18,15.46c0.66,1.76,1.61,3.5,2.77,4.98c2.16,2.72,6.13,3.28,9.27,1.58
			c2.81-1.52,4.32-5,3.49-8.07c-0.76-2.83-2.55-3.75-5.36-2.89c-0.61,0.19-1.57,0.16-1.97-0.21c-0.39-0.36-0.51-1.36-0.31-1.93
			c0.38-1.06,0.95-2.12,1.67-2.99c2.44-2.92,5.47-4.95,9.35-5.27c5.56-0.46,10.03,3.17,11.05,8.8c0.86,4.79-1.03,8.7-4.06,12.17
			c-3.3,3.77-7.62,5.76-12.5,6.5c-8.31,1.27-16.09-0.13-23-5.14c-5.93-4.3-8.89-10.32-9.67-17.49c-0.46-4.21-0.22-8.4,1.03-12.46
			c2.66-8.64,8.65-13.58,17.42-15.18c5.72-1.04,11.37-0.7,16.84,1.51c3.54,1.43,6.87,1.24,9.81-1.47c0.2-0.19,0.44-0.35,0.68-0.49
			c1.63-0.98,2.98-0.41,2.98,1.5c0.01,4.57-1.09,8.83-4.61,12.04c-3.09,2.82-7.65,2.7-10.63-0.23c-1.3-1.28-2.33-2.84-3.57-4.2
			c-1.04-1.15-2.08-2.37-3.34-3.23c-2.84-1.93-5.46-1.3-6.75,1.86c-1.07,2.63-1.73,5.47-2.24,8.27
			C279.74,243.44,279.75,245.95,279.63,247.59z" fill="white"/>
		<path d="M137.43,227.35c0.8,0.11,2.1,0.3,3.4,0.48c4.48,0.61,8.84-0.25,13.2-1.08c0.98-0.19,1.96-0.38,2.94-0.56
			c0.84-0.15,1.62-0.06,2.12,0.74c0.5,0.81,0.81,1.7,0.26,2.6c-0.48,0.78-1.04,1.51-1.59,2.24c-1.79,2.38-2.28,5.02-1.34,7.82
			c2.41,7.14,4.89,14.26,7.37,21.38c0.15,0.43,0.62,0.75,0.95,1.12c0.34-0.47,0.86-0.89,1-1.41c1.12-4.2,2.19-8.41,3.21-12.64
			c0.72-2.98,1.51-5.97,1.96-9c0.47-3.12-0.25-5.93-3.06-7.93c-1.46-1.04-1.81-2.21-1.29-3.13c0.51-0.9,1.96-1.2,3.49-0.62
			c2.83,1.07,5.62,0.98,8.42-0.08c0.97-0.37,1.94-0.74,2.95-0.97c1.14-0.26,2.23,0.35,2.82,1.36c0.6,1.02,0.19,1.83-0.49,2.59
			c-0.21,0.24-0.39,0.51-0.63,0.72c-3.34,2.99-5.11,6.85-6.35,11.05c-1.71,5.81-3.64,11.56-5.22,17.41
			c-0.98,3.64-0.36,7.19,1.74,10.45c0.7,1.08,1.23,2.35,1.51,3.6c0.47,2.17-0.59,3.23-2.78,2.94c-2.49-0.33-4.96-0.85-7.46-1.12
			c-4.03-0.43-8.05-0.35-12.01,0.72c-1.2,0.32-2.54,0.41-3.77,0.26c-1.79-0.22-2.53-2.13-1.56-3.68c0.21-0.34,0.47-0.65,0.75-0.93
			c1.67-1.65,1.94-3.54,1.17-5.72c-2.34-6.62-4.62-13.25-6.94-19.88c-0.76-2.18-1.65-4.33-2.31-6.54c-0.85-2.84-2.44-5.07-4.83-6.8
			c-0.51-0.37-0.97-1-1.14-1.59C133.29,228.84,134.53,227.32,137.43,227.35z" fill="white"/>
		<path d="M211.26,275.14c-1.8-0.37-3.87-0.8-5.94-1.21c-4.46-0.88-8.81-0.45-13.08,1.1c-1.08,0.39-2.22,0.7-3.36,0.8
			c-1.69,0.15-2.52-1.05-1.91-2.64c0.21-0.54,0.61-1.02,1-1.46c0.64-0.72,1.35-1.36,2.01-2.06c1.71-1.83,2.51-3.95,2.48-6.52
			c-0.1-6.91-0.08-13.83-0.01-20.75c0.03-3.45-1-6.42-3.35-8.95c-0.76-0.82-1.48-1.68-2.12-2.6c-0.94-1.33-0.98-2.38-0.26-3.31
			c0.79-1.03,2.56-1.62,3.77-1.26c0.15,0.05,0.31,0.08,0.45,0.15c4.46,2.39,9.26,1.73,13.96,1.34c1.74-0.14,3.42-1.01,5.14-1.54
			c1.24-0.38,2.5-0.81,3.53,0.42c0.87,1.04,0.88,2.79-0.07,4.13c-0.81,1.14-1.71,2.21-2.63,3.26c-2.38,2.69-3.61,5.71-3.48,9.39
			c0.16,4.55,0.19,9.12,0,13.67c-0.22,5.14,1.62,9.42,4.78,13.3c0.6,0.74,1.06,1.71,1.27,2.64
			C213.71,274.4,212.91,275.17,211.26,275.14z" fill="white"/>
	</g>
</g>
</svg>
