<?xml version="1.0" encoding="utf-8"?>
<svg version="1.1" viewBox="0 0 3839 789.4" xmlns="http://www.w3.org/2000/svg">
  <path class="st1" d="M 1600.2 366.2 C 1629.8 379.3 1659 360.8 1671 333.6 C 1683.8 304.7 1674.7 275.5 1650.7 264.9 C 1632.3 256.8 1596.2 262.8 1578.3 303.1 C 1566 331.1 1577.8 356.3 1600.2 366.2 Z" style="fill: rgb(255, 255, 255);"/>
  <path class="st1" d="M 925.6 366.2 C 955.2 379.3 984.4 360.8 996.4 333.6 C 1009.2 304.7 1000.1 275.5 976.1 264.9 C 957.7 256.8 921.6 262.8 903.7 303.1 C 891.4 331.1 903.2 356.3 925.6 366.2 Z" style="fill: rgb(255, 255, 255);"/>
  <path class="st1" d="M 2931.5 630.3 C 2898.2 672.6 2878.1 699.9 2883 680.7 C 2907.5 584.5 2825.9 503.7 2825.9 461.5 C 2825.9 422.3 2860.3 407.7 2853.6 396.5 C 2847.1 385.6 2814.2 409.8 2799.7 449.8 C 2747.2 510.2 2689.6 586 2641.3 650.8 C 2591.5 713 2562.6 754 2535.5 754 C 2530.3 754 2525 750.2 2525 744.4 C 2525 737.7 2539.9 701.3 2565.2 662 C 2595.8 614.1 2613.3 573.8 2613.3 533.6 C 2613.3 486.6 2591.4 458.9 2559.1 458.9 C 2502.3 458.9 2436.7 552.8 2356.3 658.2 C 2381.7 600.7 2405.3 559.5 2405.3 517.3 C 2405.3 483.8 2384.3 459.8 2360.7 459.8 C 2307.4 459.8 2244.4 531.7 2158.7 652.4 C 2183.2 598.7 2209.4 557.5 2209.4 513.5 C 2209.4 483.8 2193.7 463.7 2169.2 463.7 C 2115 463.7 2058.7 539.3 1976 651.7 C 1923.9 722.4 1895 755 1869.6 755 C 1863.5 755 1859.1 749.3 1859.1 742.5 C 1859.1 727.2 1887.9 679.3 1935.2 595.9 C 1950.1 570 1973.7 532.7 1999.9 479 C 1976.3 478 1949.2 476.1 1923.8 476.1 C 1918.6 476.1 1914.2 477.1 1908.9 477.1 L 1884.4 518.3 C 1871.3 480 1844.2 464.6 1818 464.6 C 1751.6 464.6 1657.6 522.7 1566.7 649.6 C 1513.8 721.7 1483.8 754 1459.3 754 C 1454.1 754 1449.7 752.1 1449.7 745.4 C 1449.7 730.1 1497.8 641.9 1593.1 470.4 L 1493.4 470.4 C 1440.9 536.5 1392.9 599.8 1357 641 C 1329 673.2 1245.1 759.8 1234.6 759.8 C 1228.5 759.8 1225 753.1 1225 747.3 C 1225 722.4 1284.5 625.6 1378.9 454.1 C 1465.1 298.4 1538.5 168.7 1538.5 168.7 L 1451.8 168.7 L 1275.8 434 C 1275.8 434 1185.3 573.1 1118.3 657.2 C 1060.8 729.3 1017.4 759.8 1006.9 759.8 C 1000.8 759.8 997.3 753.1 997.3 747.3 C 997.3 722.4 1056.8 625.6 1151.2 454.1 C 1237.4 298.4 1310.8 168.7 1310.8 168.7 L 1224 168.7 C 1224 168.7 1091.8 367.5 1048 434 C 1010.6 490.8 955.5 570.1 892.3 657.2 C 841.6 726.9 813.5 754 789 754 C 783.8 754 779.4 752.1 779.4 745.4 C 779.4 730.1 827.5 641.9 922.8 470.4 L 823.1 470.4 C 770.6 536.5 726.6 591.2 689 638.1 L 692.2 662.9 C 734.2 611.2 765.4 576.7 791.6 548.9 C 737.4 618.9 705 675.4 705 721.4 C 705 758.8 723.4 787.5 760.1 787.5 C 818.7 787.5 838.2 758.5 892.1 684.9 C 922.6 643.3 973.5 561.3 1051.3 467.4 C 1043.4 482.7 1006.7 544.1 948.1 657.1 C 940.2 672.4 934.1 698.3 934.1 715.6 C 934.1 753.9 957.7 786.5 988.3 786.5 C 1029.4 786.5 1059.9 759.8 1118 684.9 C 1149.7 644.1 1201.2 561.3 1279 467.4 C 1271.1 482.7 1234.4 544.1 1175.8 657.1 C 1167.9 672.4 1161.8 698.3 1161.8 715.6 C 1161.8 753.9 1185.4 786.5 1216 786.5 C 1257.1 786.5 1327.2 704.5 1356.8 669.6 C 1382.7 639.1 1435.5 576.7 1461.7 548.9 C 1407.5 618.9 1375.1 675.4 1375.1 721.4 C 1375.1 758.8 1393.5 787.5 1430.2 787.5 C 1488.8 787.5 1511.5 754.2 1566.4 678.3 C 1582.1 655.3 1606 626.9 1604.5 630.6 C 1594.9 652.7 1590.4 676.3 1590.4 693.6 C 1590.4 735.8 1616.6 784.6 1668.2 784.6 C 1716.3 784.6 1751.3 749.1 1802 694.5 C 1799.4 703.1 1798.5 719.4 1798.5 729 C 1798.5 761.6 1819.5 785.5 1850.1 785.5 C 1887.7 785.5 1950.3 712.4 1975.7 680.3 C 2013.6 632.3 2112.1 497.1 2137.5 497.1 C 2142.7 497.1 2146.2 500.9 2146.2 506.7 C 2146.2 536.4 2054.4 661.9 2000.2 779.8 L 2101 779.8 C 2158.7 684.9 2210.3 599.6 2272.4 536.4 C 2316.1 491.4 2345 480.8 2345 504.8 C 2345 520.1 2321.4 559.4 2287.3 623.6 C 2245.3 702.2 2214.7 753 2201.6 779.8 L 2299.5 779.8 C 2411.4 591 2511.9 489.4 2544.3 489.4 C 2547.8 489.4 2550.4 491.3 2550.4 496.1 C 2550.4 501.9 2544.3 515.3 2540.8 522 C 2485.7 623.6 2457.7 664.8 2457.7 710.8 C 2457.7 753.9 2483.1 784.6 2518 784.6 C 2560.8 784.6 2600.5 728.5 2655.9 662.5 C 2707.1 592.7 2737.9 549.4 2791.2 491 C 2791.9 492.3 2805.8 474.2 2806.4 475.8 C 2814.7 497.7 2811.2 564.3 2809.1 585 C 2805.1 623.9 2762.5 755.2 2722 755.2 C 2712.4 755.2 2696.4 748.2 2696.4 733.8 C 2721.8 731.9 2736.6 719.4 2736.6 694.5 C 2736.6 669.6 2720.9 652.3 2699.9 652.3 C 2676.3 652.3 2654.4 673.4 2654.4 705 C 2654.4 758.2 2757.2 825.4 2851.1 752.3 C 2903.3 711.6 2942.9 643.5 2942.9 643.5 L 2931.5 630.3 Z M 1800.5 659.1 C 1753.3 722.3 1714.8 757.8 1686 757.8 C 1673.8 757.8 1668.5 750.1 1668.5 736.7 C 1668.5 689.7 1751.6 549.8 1800.5 509.6 C 1812.7 500 1824.1 495.2 1832.8 495.2 C 1851.2 495.2 1861.6 511.5 1861.6 536.4 C 1861.7 570 1839 607.4 1800.5 659.1 Z" style="fill: rgb(255, 255, 255);"/>
  <path class="st1" d="M 876.5 281.2 C 878.7 279.6 880.1 278.3 879.9 277.9 C 878.3 274.8 868.9 262.7 868.9 262.7 C 851.4 271.9 771.7 346.6 732.9 395.5 C 661 486.1 613.3 578.1 564.9 660.3 C 603.6 501.6 657.3 380.2 693.3 287.4 C 707.4 250.1 723.2 201.4 742.6 147.8 C 738.2 144 728.5 138.2 724.1 136.3 C 674.8 215.7 581.6 320.8 468.1 470 C 425.9 525.5 317.7 634.4 231.4 685.1 C 387.2 537 482.2 418.4 482.2 291.3 C 482.2 209.1 420.6 141.2 329.1 141.2 C 174.3 141.2 0 319 0 451.9 C 0 507.4 31.7 550.4 88.9 550.4 C 194.5 550.4 288.6 448.1 288.6 317.1 C 288.6 278.9 277.2 249.2 267.5 222.5 C 263.1 224.4 255.2 227.3 249.9 230.2 C 252.5 238.8 253.4 251.2 253.4 260.8 C 253.4 365 168.1 529.4 80.1 529.4 C 44.9 529.4 22 498.8 22 452 C 22 317.2 200.7 162.3 319.4 162.3 C 366.9 162.3 391.5 199.6 391.5 239.7 C 391.5 307.6 358.9 385 307.9 483.5 C 219.1 653.6 142.6 718.6 94.2 770.2 C 96.8 777.9 99.5 782.6 106.5 789.3 C 336.1 674.6 484.8 477.6 642.3 283.5 C 542.9 442.2 475.1 556 475.1 652.5 C 475.1 699.3 491.8 757.7 520 789.2 L 533.2 789.2 C 578.1 666 637.6 570.2 705.6 468.1 C 778.1 359.4 859.2 294.3 876.5 281.2 Z" style="fill: rgb(255, 255, 255);"/>
  <path class="st1" d="M 3444.8 0 C 3227.1 0 3050.6 176.5 3050.6 394.2 C 3050.6 611.9 3227.1 788.4 3444.8 788.4 C 3662.5 788.4 3839 611.8 3839 394.2 C 3839 176.6 3662.5 0 3444.8 0 Z M 3562.1 625.4 L 3445 346.3 L 3327.6 625.9 L 3160 212.2 L 3327.6 389 L 3423.8 295.8 L 3394.5 226 L 3445.1 275.1 L 3495.2 226.5 L 3466.2 295.5 L 3562.1 388.4 L 3729.7 211.6 L 3562.1 625.4 Z" style="fill: rgb(255, 255, 255);"/>
</svg>