<svg id="Warstwa_1" data-name="Warstwa 1" xmlns="http://www.w3.org/2000/svg" viewBox="0 0 1168.62 370.12"><title>Sharp_X1_logo</title><path d="M-221.49,66h6.2q136.5,0,273-.1c4.19,0,6.41,1.2,8.53,4.89q96.69,168.5,193.56,336.91c1.93,3.35,3.92,4.5,7.74,4.47,28.17-.17,56.33-.12,84.49-.05,2.88,0,4.76-.46,6.37-3.33q71-126.51,142.21-252.9c.56-1,1-2,1.91-3.84H403.45c1.69-2,2.54-3.17,3.52-4.19q37.65-39.39,75.41-78.68a10.46,10.46,0,0,1,6.72-3.05q172.24-.22,344.47-.13h3.93c-1,1.91-1.68,3.3-2.44,4.63Q731.11,251.38,627.24,432.18c-1.81,3.16-3.84,3.84-7.12,3.84q-311.22-.09-622.45,0c-3.11,0-5.06-.65-6.77-3.59Q-114.13,251.14-219.36,70C-219.93,69-220.44,68-221.49,66Zm764.92,62.14L383.82,411.84c2,.1,3.22.23,4.47.23q109.48,0,219,.11c3.49,0,4.93-1.52,6.44-4.15q89.94-156.51,180-313c.87-1.51,1.66-3.08,2.68-5-1.56-.13-2.38-.26-3.2-.26q-147.21,0-294.42.1a9.31,9.31,0,0,0-5.9,2.7c-10.51,10.69-20.83,21.58-31.18,32.43a34,34,0,0,0-2.24,3.08ZM-180.19,89.82c1.3,2.36,2.18,4.08,3.15,5.76Q-86.56,251.47,3.85,407.4c2,3.39,4,4.79,8.09,4.78q108.45-.21,216.91-.1h5.9c-1.24-2.36-2-4-2.91-5.52q-89.75-156-179.41-312.09c-2-3.49-4.1-4.75-8.12-4.74q-109.45.18-218.92.09Z" transform="translate(331.12 -65.9)" fill="white"/><path d="M-153.81,261.57l103.07,174H-331.12Zm-5,38.15-114.12,112H-92.46Z" transform="translate(331.12 -65.9)" fill="white"/><path d="M109.4,66.23H366.85C311.92,121.93,257.6,177,202.72,232.63ZM208,193.49,309.86,90.18H150.06Z" transform="translate(331.12 -65.9)" fill="white"/></svg>