<?xml version="1.0" encoding="utf-8"?>
<svg version="1.1" id="Ebene_1" viewBox="0 0 264 45" xmlns="http://www.w3.org/2000/svg">
  <g transform="matrix(0.273268, 0, 0, 0.270137, 57.851688, 107.487778)" id="layer1-7">
    <path d="m 695.103,-245.537 c -10.654,0 -19.67,-3.51 -26.499,-10.352 -15.162,-15.148 -17.347,-43.203 -17.347,-58.569 0,-20.748 4.235,-68.922 43.845,-68.922 39.611,0 43.98,48.174 43.98,68.922 0,20.705 -4.369,68.921 -43.979,68.921 l 0,0 z m 0,-152.076 c -37.699,-0.028 -59.281,30.309 -59.281,83.154 0,52.818 21.581,83.141 59.281,83.141 21.443,0 37.424,-9.343 47.532,-27.755 9.698,-17.565 11.746,-39.815 11.746,-55.386 0,-25.023 -5.873,-83.154 -59.278,-83.154" id="path6959" style="fill: rgb(255, 255, 255);"/>
    <path d="m 567.801,-245.537 c -22.398,0 -40.02,-18.042 -40.02,-41.031 0,-23.875 17.21,-41.905 40.02,-41.905 10.381,0 20.08,4.017 27.318,11.31 7.924,7.88 12.429,19.053 12.429,30.595 0,22.988 -17.483,41.031 -39.747,41.031 z m 0,-97.168 c -17.073,0 -32.916,8.387 -42.478,22.236 1.911,-30.144 11.61,-62.912 44.255,-62.912 18.302,0 32.233,11.924 35.239,30.377 l 0.546,2.882 h 15.162 l -0.273,-3.825 c -3.006,-26.92 -22.401,-43.693 -50.674,-43.693 -49.582,0 -60.1,49.349 -60.1,90.748 0,49.444 20.216,75.574 58.322,75.574 31.416,0 55.046,-23.753 55.046,-55.251 10e-4,-32.52 -23.082,-56.136 -55.045,-56.136" id="path6961" style="fill: rgb(255, 255, 255);"/>
    <path d="m 472.055,-320.306 c 13.385,-6.159 21.852,-19.545 21.852,-35.306 0,-11.146 -3.686,-20.462 -10.925,-27.755 -9.152,-9.234 -24.451,-14.533 -41.524,-14.533 -28.137,0 -47.532,16.732 -50.538,43.709 l -0.41,3.796 h 15.162 l 0.546,-2.855 c 3.006,-18.494 16.937,-30.432 35.239,-30.432 18.441,0 37.153,9.643 37.153,28.07 0,7.866 -2.46,14.259 -7.375,18.93 -7.787,7.581 -22.401,9.466 -29.915,9.466 -2.731,0 -6.692,0.068 -10.654,0.081 -0.137,3.852 -0.137,11.269 0,14.997 2.46,0 10.654,0.014 10.654,0.014 14.206,0.123 25.27,3.073 32.236,9.575 5.737,5.34 8.604,12.798 8.604,22.181 0,22.674 -20.487,34.543 -40.703,34.543 -13.248,0 -24.039,-4.029 -31.277,-11.582 -7.238,-7.458 -10.791,-18.235 -10.245,-31.074 l 0.137,-3.593 h -15.299 l -0.137,3.305 c -0.819,17.02 3.825,31.279 13.251,41.236 9.969,10.422 25.131,15.941 43.57,15.941 34.01,0 56.001,-19.136 56.001,-48.776 10e-4,-18.753 -9.697,-33.586 -25.403,-39.938" id="path6963" style="fill: rgb(255, 255, 255);"/>
    <path d="m 347.077,-235.28 -61.055,-83.112 55.728,-75.534 h -20.899 l -45.347,61.615 -45.347,-61.615 h -20.76 l 55.589,75.546 -60.917,83.1 h 20.896 l 50.538,-68.785 50.674,68.785 h 20.9" id="path6965" style="fill: rgb(255, 255, 255);"/>
    <path d="m -68.696,-235.28 -60.918,-83.112 55.591,-75.534 h -20.762 l -45.347,61.615 -45.347,-61.615 h -20.898 l 55.728,75.546 -61.054,83.1 h 20.898 l 50.674,-68.785 50.537,68.785 h 20.898" id="path6967" style="fill: rgb(255, 255, 255);"/>
    <path d="m 4.379,-251.848 c 0,0 -39.338,0 -46.577,0 v -57.721 c 7.239,0 46.577,0 46.577,0 17.756,0 38.791,4.848 38.791,27.604 0,26.17 -24.313,30.117 -38.791,30.117 z m -46.577,-125.51 c 7.239,0 46.577,0 46.577,0 12.566,0 33.737,3.169 33.737,25.228 0,16.69 -12.293,26.607 -33.737,26.607 0,0 -39.338,0 -46.577,0 v -51.835 z m 89.465,64.976 c -3.278,-2.855 -6.83,-5.013 -10.381,-6.625 11.473,-6.255 18.986,-18.029 18.986,-31.757 0,-10.121 -3.689,-43.162 -51.494,-43.162 h -64.333 v 68.43 c 0,0 -20.762,0 -21.444,0 -2.868,3.606 -9.152,12.32 -11.61,15.884 2.322,0 33.054,0 33.054,0 v 74.331 H 4.379 c 34.966,0 56.684,-17.742 56.684,-46.316 0,-12.483 -4.781,-23.11 -13.796,-30.785" id="path6969" style="fill: rgb(255, 255, 255);"/>
    <path d="m 144.791,-248.569 c -34.01,0 -57.778,-27.168 -57.778,-66.123 0,-38.914 23.767,-66.081 57.778,-66.081 33.873,0 57.504,27.167 57.504,66.081 0,38.955 -23.632,66.123 -57.504,66.123 z m 0,-148.99 c -44.663,0 -75.807,34.066 -75.807,82.868 0,48.83 31.143,82.909 75.807,82.909 44.39,0 75.534,-34.079 75.534,-82.909 -10e-4,-48.803 -31.144,-82.868 -75.534,-82.868" id="path6971" style="fill: rgb(255, 255, 255);"/>
  </g>
</svg>