<?xml version="1.0" encoding="utf-8"?>
<svg viewBox="0 0 264 82" xmlns="http://www.w3.org/2000/svg">
  <path d="M 47.438 3.605 L 47.438 7.211 L 51.82 7.211 L 56.203 7.211 L 56.203 3.605 L 56.203 0 L 51.82 0 L 47.438 0 L 47.438 3.605 Z" style="fill: rgb(255, 255, 255);"/>
  <path d="M 209.344 3.605 L 209.344 7.211 L 213.727 7.211 L 218.109 7.211 L 218.109 3.605 L 218.109 0 L 213.727 0 L 209.344 0 L 209.344 3.605 Z" style="fill: rgb(255, 255, 255);"/>
  <path d="M 152.109 18.8 L 152.109 37.085 L 156.492 37.085 L 160.875 37.085 L 160.875 18.8 L 160.875 0.515 L 156.492 0.515 L 152.109 0.515 L 152.109 18.8 Z" style="fill: rgb(255, 255, 255);"/>
  <path d="M 0 17.512 L 0 26.269 L 18.202 26.372 C 35.939 26.526 36.352 26.526 36.352 27.556 C 36.352 28.586 35.939 28.586 18.202 28.741 L 0 28.844 L 0 32.707 L 0 36.57 L 22.688 36.57 L 45.375 36.57 L 45.375 27.814 L 45.375 19.058 L 27.328 19.058 L 9.281 19.058 L 9.281 17.77 L 9.281 16.482 L 27.328 16.482 L 45.375 16.482 L 45.375 12.619 L 45.375 8.757 L 22.688 8.757 L 0 8.757 L 0 17.512 Z" style="fill: rgb(255, 255, 255);"/>
  <path d="M 47.438 22.663 L 47.438 36.57 L 51.82 36.57 L 56.203 36.57 L 56.203 22.663 L 56.203 8.757 L 51.82 8.757 L 47.438 8.757 L 47.438 22.663 Z" style="fill: rgb(255, 255, 255);"/>
  <path d="M 58.266 22.663 L 58.266 36.57 L 62.906 36.57 L 67.547 36.57 L 67.547 26.526 L 67.547 16.482 L 80.953 16.482 L 94.359 16.482 L 94.359 26.526 L 94.359 36.57 L 99 36.57 L 103.641 36.57 L 103.641 22.663 L 103.641 8.757 L 80.953 8.757 L 58.266 8.757 L 58.266 22.663 Z" style="fill: rgb(255, 255, 255);"/>
  <path d="M 105.188 22.663 L 105.188 36.57 L 127.617 36.57 L 150.047 36.57 L 150.047 32.707 L 150.047 28.844 L 132 28.844 L 113.953 28.844 L 113.953 22.663 L 113.953 16.482 L 132 16.482 L 150.047 16.482 L 150.047 12.619 L 150.047 8.757 L 127.617 8.757 L 105.188 8.757 L 105.188 22.663 Z" style="fill: rgb(255, 255, 255);"/>
  <path d="M 162.938 12.619 L 162.938 16.482 L 180.623 16.585 C 197.845 16.74 198.258 16.74 198.258 17.77 C 198.258 18.8 197.845 18.8 180.623 18.955 L 162.938 19.058 L 162.938 27.814 L 162.938 36.57 L 185.367 36.57 L 207.797 36.57 L 207.797 22.663 L 207.797 8.757 L 185.367 8.757 L 162.938 8.757 L 162.938 12.619 Z M 198.258 27.556 C 198.258 28.535 197.845 28.586 185.006 28.741 C 172.373 28.844 171.703 28.792 171.703 27.917 C 171.703 27.402 171.858 26.783 172.064 26.577 C 172.27 26.424 178.2 26.32 185.316 26.372 C 197.845 26.526 198.258 26.577 198.258 27.556 Z" style="fill: rgb(255, 255, 255);"/>
  <path d="M 209.344 22.663 L 209.344 36.57 L 213.727 36.57 L 218.109 36.57 L 218.109 22.663 L 218.109 8.757 L 213.727 8.757 L 209.344 8.757 L 209.344 22.663 Z" style="fill: rgb(255, 255, 255);"/>
  <path d="M 219.656 22.663 L 219.656 36.57 L 224.297 36.57 L 228.938 36.57 L 229.041 26.629 L 229.195 16.74 L 246.623 16.585 L 264 16.482 L 264 12.619 L 264 8.757 L 241.828 8.757 L 219.656 8.757 L 219.656 22.663 Z" style="fill: rgb(255, 255, 255);"/>
  <path d="M 79.406 46.356 L 79.406 49.447 L 88.172 49.447 C 93.019 49.447 96.938 49.602 96.938 49.807 C 96.938 50.065 92.503 55.627 87.141 62.22 L 77.344 74.222 L 77.344 77.827 L 77.344 81.382 L 92.813 81.382 L 108.281 81.382 L 108.281 78.291 L 108.281 75.2 L 97.453 75.097 L 86.573 74.942 L 97.195 61.911 L 107.817 48.931 L 107.663 46.202 L 107.508 43.523 L 93.483 43.369 L 79.406 43.266 L 79.406 46.356 Z" style="fill: rgb(255, 255, 255);"/>
  <path d="M 111.323 44.244 C 111.633 44.811 114.211 48.829 117.047 53.155 C 119.934 57.482 122.152 61.396 122.048 61.809 C 121.945 62.22 119.161 66.701 115.861 71.75 C 112.509 76.797 109.828 81.021 109.828 81.124 C 109.828 81.279 111.839 81.382 114.366 81.382 L 118.852 81.382 L 123.08 74.84 L 127.256 68.299 L 131.484 74.84 L 135.713 81.382 L 140.353 81.382 C 143.911 81.382 144.839 81.227 144.581 80.763 C 144.375 80.403 141.436 75.973 138.084 70.977 L 132 61.861 L 137.93 52.691 L 143.808 43.523 L 139.889 43.369 C 137.723 43.266 135.661 43.317 135.352 43.472 C 134.991 43.575 133.134 46.253 131.227 49.395 C 129.319 52.538 127.617 55.113 127.411 55.113 C 127.256 55.113 125.452 52.486 123.492 49.292 L 119.883 43.523 L 115.345 43.369 C 110.963 43.215 110.808 43.266 111.323 44.244 Z" style="fill: rgb(255, 255, 255);"/>
  <path d="M 153.605 44.708 C 147.675 47.799 146.695 55.473 151.748 59.491 L 153.553 60.933 L 151.955 62.014 C 147.056 65.311 146.077 72.728 149.892 77.724 C 151.852 80.3 156.08 82.051 160.308 81.999 C 164.639 81.999 167.63 80.815 169.847 78.239 C 173.817 73.604 173.714 66.856 169.641 63.148 C 168.506 62.117 167.32 61.293 166.959 61.293 C 166.65 61.293 167.32 60.418 168.455 59.336 C 170.827 57.173 171.909 54.237 171.394 51.456 C 170.363 46.048 166.495 43.266 159.895 43.266 C 157.008 43.266 155.822 43.523 153.605 44.708 Z M 163.195 50.219 C 164.072 51.043 164.484 52.022 164.484 53.259 C 164.484 55.731 164.072 56.606 162.37 57.43 C 160.308 58.512 158.555 58.357 156.905 56.967 C 155.77 55.988 155.461 55.319 155.461 53.567 C 155.461 51.816 155.77 51.147 156.905 50.168 C 158.864 48.52 161.545 48.52 163.195 50.219 Z M 162.422 64.642 C 165.98 66.496 166.547 72.059 163.505 74.789 C 158.555 79.218 152.161 72.419 155.719 66.547 C 157.317 63.972 159.741 63.251 162.422 64.642 Z" style="fill: rgb(255, 255, 255);"/>
  <path d="M 178.922 62.324 L 178.922 81.382 L 182.789 81.382 L 186.656 81.382 L 186.656 62.324 L 186.656 43.266 L 182.789 43.266 L 178.922 43.266 L 178.922 62.324 Z" style="fill: rgb(255, 255, 255);"/>
</svg>