<?xml version="1.0" encoding="utf-8"?>
<svg width="8.75" height="10" viewBox="0 0 8.75 10" xmlns="http://www.w3.org/2000/svg">
  <path id="calendar-alt" d="M2.891,5.625H2.109a.235.235,0,0,1-.234-.234V4.609a.235.235,0,0,1,.234-.234h.781a.235.235,0,0,1,.234.234v.781A.235.235,0,0,1,2.891,5.625ZM5,5.391V4.609a.235.235,0,0,0-.234-.234H3.984a.235.235,0,0,0-.234.234v.781a.235.235,0,0,0,.234.234h.781A.235.235,0,0,0,5,5.391Zm1.875,0V4.609a.235.235,0,0,0-.234-.234H5.859a.235.235,0,0,0-.234.234v.781a.235.235,0,0,0,.234.234h.781A.235.235,0,0,0,6.875,5.391ZM5,7.266V6.484a.235.235,0,0,0-.234-.234H3.984a.235.235,0,0,0-.234.234v.781a.235.235,0,0,0,.234.234h.781A.235.235,0,0,0,5,7.266Zm-1.875,0V6.484a.235.235,0,0,0-.234-.234H2.109a.235.235,0,0,0-.234.234v.781a.235.235,0,0,0,.234.234h.781A.235.235,0,0,0,3.125,7.266Zm3.75,0V6.484a.235.235,0,0,0-.234-.234H5.859a.235.235,0,0,0-.234.234v.781a.235.235,0,0,0,.234.234h.781A.235.235,0,0,0,6.875,7.266ZM8.75,2.188V9.063A.938.938,0,0,1,7.813,10H.938A.938.938,0,0,1,0,9.063V2.188A.938.938,0,0,1,.938,1.25h.938V.234A.235.235,0,0,1,2.109,0h.781a.235.235,0,0,1,.234.234V1.25h2.5V.234A.235.235,0,0,1,5.859,0h.781a.235.235,0,0,1,.234.234V1.25h.938A.938.938,0,0,1,8.75,2.188ZM7.813,8.945V3.125H.938v5.82a.118.118,0,0,0,.117.117H7.7A.118.118,0,0,0,7.813,8.945Z" style="fill: rgb(255, 255, 255);"/>
</svg>