<?xml version="1.0" encoding="utf-8"?>
<svg viewBox="0 0 10 8" xmlns="http://www.w3.org/2000/svg">
  <path d="M 3.5 4 C 4.605 4 5.5 3.105 5.5 2 C 5.5 0.895 4.605 0 3.5 0 C 2.395 0 1.5 0.895 1.5 2 C 1.5 3.105 2.395 4 3.5 4 Z M 4.292 4.75 L 2.708 4.75 C 1.212 4.75 0 5.963 0 7.458 C 0 7.758 0.243 8 0.542 8 L 6.458 8 C 6.758 8 7 7.758 7 7.458 C 7 5.963 5.788 4.75 4.292 4.75 Z M 7.486 5 L 6.332 5 C 7.05 5.589 7.5 6.47 7.5 7.458 C 7.5 7.658 7.441 7.842 7.344 8 L 9.5 8 C 9.777 8 10 7.775 10 7.486 C 10 6.118 8.882 5 7.486 5 Z M 6.75 4 C 7.718 4 8.5 3.218 8.5 2.25 C 8.5 1.283 7.718 0.5 6.75 0.5 C 6.358 0.5 5.999 0.634 5.708 0.852 C 5.888 1.198 6 1.585 6 2 C 6 2.555 5.813 3.065 5.507 3.48 C 5.823 3.8 6.263 4 6.75 4 Z" style="fill: rgb(255, 255, 255);"/>
</svg>