<?xml version="1.0" encoding="utf-8"?>
<svg width="18px" height="20px" xmlns="http://www.w3.org/2000/svg">
  <path d="M 8.388 2 C 8.214 2 8.039 2.135 7.907 2.404 L 6.117 6.031 C 5.851 6.571 5.146 7.081 4.552 7.167 L 0.551 7.748 C -0.044 7.835 -0.178 8.249 0.253 8.669 L 3.149 11.491 C 3.58 11.912 3.848 12.739 3.747 13.33 L 3.062 17.318 C 2.987 17.747 3.152 18 3.452 18 C 3.589 17.994 3.724 17.956 3.844 17.887 L 7.424 16.004 C 7.691 15.864 8.04 15.796 8.389 15.796 C 8.74 15.796 9.093 15.865 9.356 16.004 L 12.937 17.887 C 13.081 17.963 13.216 18 13.329 18 C 13.629 18 13.792 17.747 13.719 17.318 L 13.034 13.33 C 12.934 12.739 13.202 11.911 13.631 11.491 L 16.528 8.669 C 16.958 8.249 16.824 7.835 16.228 7.748 L 12.227 7.168 C 11.633 7.082 10.928 6.572 10.663 6.032 L 8.873 2.404 C 8.739 2.135 8.566 2 8.388 2 Z" style="fill: rgb(255, 255, 255);"/>
</svg>