<?xml version="1.0" encoding="utf-8"?>
<svg width="18px" height="20px" xmlns="http://www.w3.org/2000/svg">
  <path fill="#fff" d="M 8.39 2.389 C 8.415 2.407 8.47 2.457 8.528 2.575 L 10.318 6.202 C 10.639 6.854 11.455 7.446 12.171 7.549 L 16.173 8.13 C 16.318 8.151 16.384 8.194 16.392 8.194 L 16.393 8.194 C 16.393 8.212 16.369 8.286 16.258 8.393 L 13.36 11.216 C 12.841 11.723 12.53 12.681 12.652 13.396 L 13.337 17.384 C 13.363 17.534 13.34 17.609 13.326 17.614 C 13.251 17.607 13.178 17.584 13.113 17.545 L 9.536 15.662 C 9.224 15.497 8.816 15.408 8.39 15.408 C 7.963 15.408 7.555 15.498 7.243 15.662 L 3.664 17.544 C 3.546 17.605 3.476 17.613 3.449 17.623 C 3.439 17.608 3.416 17.533 3.441 17.383 L 4.125 13.395 C 4.248 12.679 3.937 11.722 3.417 11.215 L 0.521 8.392 C 0.411 8.286 0.385 8.212 0.381 8.212 C 0.39 8.197 0.455 8.153 0.607 8.131 L 4.607 7.55 C 5.327 7.446 6.141 6.854 6.462 6.202 L 8.253 2.575 C 8.282 2.503 8.33 2.439 8.39 2.389 M 8.39 2 C 8.214 2 8.039 2.135 7.907 2.404 L 6.117 6.032 C 5.851 6.572 5.147 7.083 4.552 7.169 L 0.551 7.75 C -0.044 7.836 -0.178 8.25 0.252 8.669 L 3.149 11.492 C 3.579 11.912 3.848 12.74 3.746 13.331 L 3.062 17.318 C 2.988 17.748 3.153 18 3.452 18 C 3.59 17.994 3.724 17.955 3.844 17.887 L 7.425 16.004 C 7.69 15.865 8.041 15.796 8.391 15.796 C 8.741 15.796 9.093 15.865 9.358 16.004 L 12.938 17.887 C 13.083 17.963 13.216 18 13.33 18 C 13.63 18 13.793 17.748 13.72 17.318 L 13.035 13.331 C 12.934 12.74 13.203 11.912 13.632 11.492 L 16.53 8.669 C 16.96 8.25 16.826 7.836 16.23 7.75 L 12.229 7.169 C 11.635 7.083 10.93 6.572 10.665 6.032 L 8.874 2.404 C 8.74 2.135 8.566 2 8.39 2 Z"/>
</svg>