<?xml version="1.0" encoding="utf-8"?>
<svg viewBox="0 0 16.8 16" xmlns="http://www.w3.org/2000/svg">
  <path d="M 8.388 0 C 8.214 0 8.039 0.135 7.907 0.404 L 6.117 4.031 C 5.851 4.571 5.146 5.081 4.552 5.167 L 0.551 5.748 C -0.044 5.835 -0.178 6.249 0.253 6.669 L 3.149 9.491 C 3.58 9.912 3.848 10.739 3.747 11.33 L 3.062 15.318 C 2.987 15.747 3.152 16 3.452 16 C 3.589 15.994 3.724 15.956 3.844 15.887 L 7.424 14.004 C 7.691 13.864 8.04 13.796 8.389 13.796 C 8.74 13.796 9.093 13.865 9.356 14.004 L 12.937 15.887 C 13.081 15.963 13.216 16 13.329 16 C 13.629 16 13.792 15.747 13.719 15.318 L 13.034 11.33 C 12.934 10.739 13.202 9.911 13.631 9.491 L 16.528 6.669 C 16.958 6.249 16.824 5.835 16.228 5.748 L 12.227 5.168 C 11.633 5.082 10.928 4.572 10.663 4.032 L 8.873 0.404 C 8.739 0.135 8.566 0 8.388 0 Z" style="fill: rgb(255, 255, 255);"/>
</svg>