<?xml version="1.0" encoding="UTF-8" standalone="no"?><!-- Generator: Gravit.io --><svg xmlns="http://www.w3.org/2000/svg" xmlns:xlink="http://www.w3.org/1999/xlink" style="isolation:isolate" viewBox="0 0 18 24" width="18pt" height="24pt"><defs><clipPath id="_clipPath_WEIhq28Mf30EjeF4qYxT38lcRuXPcEu6"><rect width="18" height="24"/></clipPath></defs><g clip-path="url(#_clipPath_WEIhq28Mf30EjeF4qYxT38lcRuXPcEu6)"><rect width="18" height="24" style="fill:rgb(255,0,0)" fill-opacity="0"/><path d=" M 8.645 15.847 C 8.272 15.904 7.938 16.154 7.784 16.498 C 7.714 16.649 7.696 16.742 7.696 16.918 C 7.696 17.096 7.714 17.188 7.784 17.338 C 7.976 17.761 8.415 18.023 8.889 17.998 C 9.33 17.973 9.704 17.728 9.878 17.347 C 9.945 17.198 9.968 17.089 9.968 16.918 C 9.968 16.742 9.944 16.633 9.871 16.476 C 9.663 16.03 9.158 15.77 8.645 15.847 Z " fill="rgb(255,255,255)"/><path d=" M 8.544 12.735 C 7.706 12.803 6.874 13.172 6.113 13.81 C 5.865 14.017 5.433 14.441 5.44 14.467 C 5.442 14.474 5.739 14.772 6.098 15.13 L 6.752 15.78 L 6.88 15.649 C 7.599 14.913 8.294 14.576 8.96 14.637 C 9.368 14.675 9.751 14.823 10.19 15.115 C 10.415 15.266 10.736 15.529 10.928 15.727 L 11.015 15.813 L 11.087 15.736 C 11.126 15.692 11.408 15.384 11.712 15.054 C 12.018 14.721 12.272 14.445 12.272 14.437 C 12.272 14.427 12.209 14.361 12.135 14.29 C 11.184 13.391 10.266 12.897 9.295 12.76 C 9.152 12.738 8.681 12.723 8.544 12.735 Z " fill="rgb(255,255,255)"/><path d=" M 8.432 9.409 C 7.824 9.46 7.367 9.555 6.808 9.755 C 5.658 10.159 4.543 10.923 3.423 12.065 C 3.265 12.224 3.138 12.358 3.138 12.361 C 3.138 12.369 3.39 12.621 3.694 12.922 C 3.998 13.225 4.29 13.518 4.35 13.577 L 4.449 13.678 L 4.688 13.44 C 5.062 13.058 5.335 12.812 5.682 12.537 C 6.486 11.906 7.28 11.519 8.078 11.369 C 8.366 11.316 8.504 11.303 8.839 11.303 C 9.173 11.306 9.297 11.315 9.6 11.369 C 10.77 11.58 12 12.302 13.273 13.525 C 13.378 13.624 13.47 13.705 13.472 13.704 C 13.488 13.693 14.726 12.347 14.726 12.339 C 14.726 12.317 14.233 11.855 13.963 11.62 C 12.753 10.576 11.566 9.905 10.363 9.594 C 10.014 9.504 9.679 9.446 9.296 9.413 C 9.16 9.402 8.558 9.4 8.432 9.409 Z " fill="rgb(255,255,255)"/><path d=" M 8.384 6.008 C 6.136 6.157 4.021 7.195 1.914 9.185 C 1.801 9.292 1.55 9.543 1.353 9.744 L 1 10.108 L 1.659 10.765 L 2.32 11.424 L 2.657 11.076 C 2.846 10.887 3.078 10.654 3.177 10.561 C 5.513 8.371 7.803 7.544 10.17 8.036 C 11.867 8.388 13.664 9.459 15.438 11.166 C 15.529 11.257 15.633 11.357 15.67 11.392 L 15.735 11.452 L 16.295 10.846 C 16.603 10.511 16.889 10.202 16.928 10.158 L 17 10.079 L 16.784 9.871 C 14.331 7.502 12.001 6.26 9.576 6.026 C 9.334 6.003 8.616 5.992 8.384 6.008 Z " fill="rgb(255,255,255)"/></g></svg>