<?xml version="1.0" encoding="UTF-8" standalone="no"?><!-- Generator: Gravit.io --><svg xmlns="http://www.w3.org/2000/svg" xmlns:xlink="http://www.w3.org/1999/xlink" style="isolation:isolate" viewBox="0 0 24 24" width="24pt" height="24pt"><defs><clipPath id="_clipPath_PTHKI5EEeQY0X6qWGc847rzZs6S8MRuu"><rect width="24" height="24"/></clipPath></defs><g clip-path="url(#_clipPath_PTHKI5EEeQY0X6qWGc847rzZs6S8MRuu)"><rect width="24" height="24" style="fill:rgb(255,0,0)" fill-opacity="0"/><path d=" M 11.601 15.847 C 11.18 15.904 10.806 16.154 10.632 16.498 C 10.554 16.649 10.534 16.742 10.534 16.918 C 10.534 17.096 10.554 17.188 10.632 17.338 C 10.848 17.761 11.341 18.023 11.875 17.998 C 12.372 17.973 12.792 17.728 12.988 17.347 C 13.063 17.198 13.088 17.089 13.088 16.918 C 13.088 16.742 13.062 16.633 12.979 16.476 C 12.745 16.03 12.178 15.77 11.601 15.847 Z " fill="rgb(255,255,255)"/><path d=" M 11.488 12.735 C 10.544 12.803 9.608 13.172 8.753 13.81 C 8.473 14.017 7.987 14.441 7.996 14.467 C 7.998 14.474 8.331 14.772 8.736 15.13 L 9.472 15.78 L 9.616 15.649 C 10.423 14.913 11.206 14.576 11.956 14.637 C 12.414 14.675 12.845 14.823 13.338 15.115 C 13.591 15.266 13.952 15.529 14.17 15.727 L 14.267 15.813 L 14.347 15.736 C 14.392 15.692 14.71 15.384 15.052 15.054 C 15.396 14.721 15.68 14.445 15.682 14.437 C 15.682 14.427 15.611 14.361 15.527 14.29 C 14.456 13.391 13.424 12.897 12.331 12.76 C 12.17 12.738 11.641 12.723 11.488 12.735 Z " fill="rgb(255,255,255)"/><path d=" M 11.362 9.409 C 10.678 9.46 10.163 9.555 9.534 9.755 C 8.24 10.159 6.985 10.923 5.725 12.065 C 5.549 12.224 5.406 12.358 5.406 12.361 C 5.406 12.369 5.688 12.621 6.03 12.922 C 6.372 13.225 6.702 13.518 6.768 13.577 L 6.881 13.678 L 7.148 13.44 C 7.57 13.058 7.877 12.812 8.268 12.537 C 9.172 11.906 10.066 11.519 10.962 11.369 C 11.286 11.316 11.442 11.303 11.819 11.303 C 12.195 11.306 12.335 11.315 12.676 11.369 C 13.992 11.58 15.376 12.302 16.807 13.525 C 16.926 13.624 17.028 13.705 17.03 13.704 C 17.05 13.693 18.442 12.347 18.442 12.339 C 18.442 12.317 17.887 11.855 17.583 11.62 C 16.223 10.576 14.886 9.905 13.533 9.594 C 13.14 9.504 12.763 9.446 12.332 9.413 C 12.18 9.402 11.502 9.4 11.362 9.409 Z " fill="rgb(255,255,255)"/><path d=" M 11.306 6.008 C 8.778 6.157 6.399 7.195 4.028 9.185 C 3.901 9.292 3.618 9.543 3.397 9.744 L 3 10.108 L 3.741 10.765 L 4.486 11.424 L 4.865 11.076 C 5.076 10.887 5.338 10.654 5.449 10.561 C 8.077 8.371 10.653 7.544 13.316 8.036 C 15.225 8.388 17.248 9.459 19.242 11.166 C 19.345 11.257 19.463 11.357 19.504 11.392 L 19.577 11.452 L 20.207 10.846 C 20.553 10.511 20.875 10.202 20.92 10.158 L 21 10.079 L 20.758 9.871 C 17.997 7.502 15.377 6.26 12.648 6.026 C 12.376 6.003 11.568 5.992 11.306 6.008 Z " fill="rgb(255,255,255)"/></g></svg>