<?xml version="1.0" encoding="UTF-8" standalone="no"?><!-- Generator: Gravit.io --><svg xmlns="http://www.w3.org/2000/svg" xmlns:xlink="http://www.w3.org/1999/xlink" style="isolation:isolate" viewBox="0 0 54 54" width="54pt" height="54pt"><defs><clipPath id="_clipPath_eOmJEinDlorL0jfrd2Wyp5YyaVkxTsH7"><rect width="54" height="54"/></clipPath></defs><g clip-path="url(#_clipPath_eOmJEinDlorL0jfrd2Wyp5YyaVkxTsH7)"><rect width="54" height="54" style="fill:rgb(255,0,0)" fill-opacity="0"/><g><path d=" M 24.916 7.024 C 17.332 7.522 10.195 10.983 3.088 17.612 C 2.704 17.972 1.852 18.812 1.194 19.479 L 0 20.697 L 2.227 22.889 L 4.459 25.081 L 5.597 23.924 C 6.226 23.292 7.01 22.516 7.348 22.204 C 15.232 14.904 22.963 12.145 30.948 13.786 C 36.676 14.961 42.746 18.526 48.723 24.223 C 49.035 24.522 49.39 24.856 49.512 24.973 L 49.731 25.176 L 51.621 23.153 C 52.663 22.035 53.625 21.009 53.76 20.861 L 54 20.597 L 53.27 19.904 C 44.994 12.006 37.132 7.864 28.945 7.089 C 28.126 7.011 25.705 6.972 24.916 7.024 Z " fill="rgb(255,255,255)"/><path d=" M 25.085 18.361 C 23.031 18.53 21.487 18.855 19.601 19.518 C 15.721 20.87 11.954 23.413 8.175 27.217 C 7.647 27.745 7.221 28.192 7.221 28.209 C 7.221 28.231 8.061 29.071 9.086 30.076 C 10.115 31.086 11.11 32.065 11.3 32.255 L 11.646 32.598 L 12.443 31.8 C 13.709 30.527 14.628 29.704 15.805 28.794 C 18.513 26.693 21.196 25.397 23.883 24.899 C 24.857 24.721 25.325 24.678 26.456 24.678 C 27.582 24.682 28.008 24.717 29.029 24.899 C 32.977 25.605 37.123 28.01 41.422 32.082 C 41.78 32.416 42.08 32.689 42.088 32.684 C 42.147 32.645 46.323 28.157 46.323 28.127 C 46.323 28.057 44.661 26.515 43.75 25.735 C 39.671 22.252 35.656 20.016 31.602 18.981 C 30.417 18.678 29.286 18.487 27.995 18.374 C 27.54 18.335 25.503 18.327 25.085 18.361 Z " fill="rgb(255,255,255)"/><path d=" M 25.465 29.448 C 22.634 29.678 19.825 30.904 17.26 33.031 C 16.421 33.728 14.962 35.136 14.987 35.223 C 14.995 35.245 15.995 36.241 17.21 37.433 L 19.412 39.599 L 19.846 39.161 C 22.267 36.718 24.617 35.587 26.865 35.791 C 28.24 35.916 29.535 36.414 31.011 37.385 C 31.771 37.883 32.855 38.767 33.513 39.425 L 33.8 39.711 L 34.04 39.451 C 34.175 39.308 35.128 38.286 36.157 37.181 C 37.191 36.077 38.039 35.154 38.043 35.123 C 38.047 35.097 37.836 34.876 37.579 34.634 C 34.369 31.636 31.273 29.99 27.991 29.53 C 27.51 29.461 25.924 29.413 25.465 29.448 Z " fill="rgb(255,255,255)"/><path d=" M 25.802 39.824 C 24.541 40.01 23.419 40.846 22.896 41.99 C 22.664 42.493 22.601 42.8 22.601 43.394 C 22.601 43.987 22.664 44.295 22.896 44.798 C 23.545 46.21 25.022 47.081 26.625 46.994 C 28.118 46.916 29.375 46.097 29.961 44.819 C 30.189 44.33 30.265 43.966 30.265 43.394 C 30.265 42.805 30.185 42.441 29.936 41.921 C 29.231 40.431 27.531 39.568 25.802 39.824 Z " fill="rgb(255,255,255)"/></g></g></svg>