<?xml version="1.0" encoding="UTF-8" standalone="no"?><!-- Generator: Gravit.io --><svg xmlns="http://www.w3.org/2000/svg" xmlns:xlink="http://www.w3.org/1999/xlink" style="isolation:isolate" viewBox="0 0 54 54" width="54pt" height="54pt"><defs><clipPath id="_clipPath_5BYvVxY5nmAOg44WgUmx4DyOOJ3R7PhB"><rect width="54" height="54"/></clipPath></defs><g clip-path="url(#_clipPath_5BYvVxY5nmAOg44WgUmx4DyOOJ3R7PhB)"><rect width="54" height="54" style="fill:rgb(0,0,0)" fill-opacity="0"/><path d=" M 12 50 L 12 12 L 12 12 L 20 12 L 20 4 L 20 4 L 34 4 L 34 12 L 42 12 L 42 50 L 12 50 L 12 50 Z  M 28.522 28.875 L 32.009 28.875 C 32.425 28.875 32.8 29.167 32.919 29.603 C 33.091 30.042 32.981 30.538 32.669 30.847 L 24.662 38.722 C 24.309 39.066 23.792 39.095 23.414 38.785 C 23.036 38.476 22.898 37.913 23.083 37.432 L 25.488 31.125 L 21.973 31.125 C 21.584 31.125 21.211 30.833 21.064 30.397 C 20.917 29.958 21.028 29.462 21.342 29.153 L 29.347 21.278 C 29.701 20.932 30.217 20.906 30.595 21.215 C 30.974 21.524 31.111 22.085 30.927 22.568 L 28.522 28.875 Z " fill-rule="evenodd" fill="rgb(255,255,255)"/></g></svg>