<?xml version="1.0" encoding="UTF-8" standalone="no"?><!-- Generator: Gravit.io --><svg xmlns="http://www.w3.org/2000/svg" xmlns:xlink="http://www.w3.org/1999/xlink" style="isolation:isolate" viewBox="0 0 20 20" width="20pt" height="20pt"><path d=" M 7.032 11.25 L 5.468 11.25 C 5.21 11.249 5.001 11.04 5 10.782 L 5 9.218 C 5.001 8.96 5.21 8.751 5.468 8.75 L 7.03 8.75 C 7.288 8.751 7.497 8.96 7.498 9.218 L 7.498 10.78 C 7.498 11.038 7.29 11.248 7.032 11.25 L 7.032 11.25 Z  M 11.25 10.782 L 11.25 9.218 C 11.249 8.96 11.04 8.751 10.782 8.75 L 9.218 8.75 C 8.96 8.751 8.751 8.96 8.75 9.218 L 8.75 10.78 C 8.751 11.038 8.96 11.247 9.218 11.248 L 10.78 11.248 C 11.038 11.248 11.248 11.04 11.25 10.782 Z  M 15 10.782 L 15 9.218 C 14.999 8.96 14.79 8.751 14.532 8.75 L 12.968 8.75 C 12.71 8.751 12.501 8.96 12.5 9.218 L 12.5 10.78 C 12.501 11.038 12.71 11.247 12.968 11.248 L 14.53 11.248 C 14.788 11.248 14.998 11.04 15 10.782 Z  M 11.25 14.532 L 11.25 12.968 C 11.249 12.71 11.04 12.501 10.782 12.5 L 9.218 12.5 C 8.96 12.501 8.751 12.71 8.75 12.968 L 8.75 14.53 C 8.751 14.788 8.96 14.997 9.218 14.998 L 10.78 14.998 C 11.038 14.998 11.248 14.79 11.25 14.532 Z  M 7.5 14.532 L 7.5 12.968 C 7.499 12.71 7.29 12.501 7.032 12.5 L 5.468 12.5 C 5.21 12.501 5.001 12.71 5 12.968 L 5 14.53 C 5.001 14.788 5.21 14.997 5.468 14.998 L 7.03 14.998 C 7.288 14.998 7.498 14.79 7.5 14.532 Z  M 15 14.532 L 15 12.968 C 14.999 12.71 14.79 12.501 14.532 12.5 L 12.968 12.5 C 12.71 12.501 12.501 12.71 12.5 12.968 L 12.5 14.53 C 12.501 14.788 12.71 14.997 12.968 14.998 L 14.53 14.998 C 14.788 14.998 14.998 14.79 15 14.532 Z  M 18.75 4.376 L 18.75 18.126 C 18.749 19.161 17.911 19.999 16.876 20 L 3.126 20 C 2.091 20 1.251 19.161 1.25 18.126 L 1.25 4.376 C 1.25 3.878 1.448 3.401 1.799 3.049 C 2.151 2.698 2.628 2.5 3.126 2.5 L 5.002 2.5 L 5.002 0.468 C 5.003 0.211 5.211 0.002 5.468 0 L 7.03 0 C 7.288 0.001 7.497 0.21 7.498 0.468 L 7.498 2.5 L 12.498 2.5 L 12.498 0.468 C 12.499 0.209 12.709 0 12.968 0 L 14.53 0 C 14.788 0.001 14.997 0.21 14.998 0.468 L 14.998 2.5 L 16.874 2.5 C 17.372 2.5 17.849 2.698 18.201 3.049 C 18.552 3.401 18.75 3.878 18.75 4.376 Z  M 16.876 17.89 L 16.876 6.25 L 3.126 6.25 L 3.126 17.89 C 3.127 18.019 3.231 18.123 3.36 18.124 L 16.65 18.124 C 16.776 18.119 16.875 18.016 16.876 17.89 Z " fill="rgb(255,255,255)"/></svg>