<?xml version="1.0" encoding="utf-8"?>
<svg style="isolation:isolate" viewBox="0 0 20 20" width="20pt" height="20pt" xmlns="http://www.w3.org/2000/svg">
  <path d="M 9.998 1.419 C 9.811 1.419 9.624 1.563 9.481 1.852 L 7.562 5.743 C 7.276 6.322 6.52 6.869 5.882 6.961 L 1.59 7.585 C 0.952 7.678 0.808 8.122 1.271 8.573 L 4.378 11.6 C 4.84 12.051 5.127 12.939 5.019 13.572 L 4.284 17.851 C 4.204 18.311 4.381 18.582 4.703 18.582 C 4.849 18.575 4.994 18.535 5.123 18.461 L 8.964 16.441 C 9.25 16.29 9.625 16.217 9.999 16.217 C 10.375 16.217 10.754 16.292 11.036 16.441 L 14.878 18.461 C 15.032 18.542 15.177 18.582 15.298 18.582 C 15.619 18.582 15.795 18.311 15.717 17.851 L 14.981 13.572 C 14.874 12.939 15.161 12.051 15.622 11.6 L 18.73 8.573 C 19.191 8.122 19.047 7.678 18.408 7.585 L 14.115 6.962 C 13.478 6.87 12.722 6.323 12.438 5.743 L 10.518 1.852 C 10.374 1.563 10.189 1.419 9.998 1.419 Z" fill="rgb(255,255,255)"/>
</svg>