<?xml version="1.0" encoding="utf-8"?>
<svg viewBox="0 0 20 20" preserveAspectRatio="none" xmlns="http://www.w3.org/2000/svg">
  <path d="M 10 0 C 17.698 0 22.509 8.333 18.66 15 C 16.874 18.094 13.573 20 10 20 C 2.302 20 -2.509 11.667 1.34 5 C 3.126 1.906 6.427 0 10 0 Z M 9.063 4.688 L 9.063 10 C 9.063 10.313 9.219 10.605 9.48 10.781 L 13.23 13.281 C 13.66 13.57 14.242 13.453 14.531 13.02 C 14.82 12.586 14.703 12.008 14.27 11.719 L 10.938 9.5 L 10.938 4.688 C 10.938 4.168 10.52 3.75 10 3.75 C 9.48 3.75 9.063 4.168 9.063 4.688 Z" style="fill: rgb(255, 255, 255);"/>
</svg>