<?xml version="1.0" encoding="utf-8"?>
<svg viewBox="0 0 20 20" xmlns="http://www.w3.org/2000/svg">
  <path d="M 7 1.997 C 10.079 1.997 12.004 5.33 10.464 7.997 C 9.75 9.235 8.429 9.997 7 9.997 C 3.921 9.997 1.996 6.664 3.536 3.997 C 4.25 2.759 5.571 1.997 7 1.997 Z M 5.572 11.497 L 8.428 11.497 C 9.072 11.497 9.691 11.606 10.266 11.806 C 10.094 12.341 10 12.906 10 13.497 C 10 15.356 10.922 17 12.338 17.997 L 0.928 17.997 C 0.416 17.997 0 17.581 0 17.069 C 0 13.991 2.494 11.497 5.572 11.497 Z M 11 13.497 C 11 10.033 14.75 7.868 17.75 9.6 C 19.142 10.404 20 11.889 20 13.497 C 20 16.961 16.25 19.126 13.25 17.394 C 11.858 16.59 11 15.105 11 13.497 Z M 15.5 10.997 C 15.225 10.997 15 11.222 15 11.497 L 15 13.497 C 15 13.772 15.225 13.997 15.5 13.997 L 17 13.997 C 17.275 13.997 17.5 13.772 17.5 13.497 C 17.5 13.222 17.275 12.997 17 12.997 L 16 12.997 L 16 11.497 C 16 11.222 15.775 10.997 15.5 10.997 Z" style="fill: rgb(255, 255, 255);"/>
</svg>