<?xml version="1.0" encoding="UTF-8" standalone="no"?><!-- Generator: Gravit.io --><svg xmlns="http://www.w3.org/2000/svg" xmlns:xlink="http://www.w3.org/1999/xlink" style="isolation:isolate" viewBox="0 0 20 20" width="20pt" height="20pt"><path d=" M 6.875 0.938 C 6.875 0.418 6.457 0 5.938 0 C 5.418 0 5 0.418 5 0.938 L 5 2.5 C 3.621 2.5 2.5 3.621 2.5 5 L 0.938 5 C 0.418 5 0 5.418 0 5.938 C 0 6.457 0.418 6.875 0.938 6.875 L 2.5 6.875 L 2.5 9.063 L 0.938 9.063 C 0.418 9.063 0 9.48 0 10 C 0 10.52 0.418 10.938 0.938 10.938 L 2.5 10.938 L 2.5 13.125 L 0.938 13.125 C 0.418 13.125 0 13.543 0 14.063 C 0 14.582 0.418 15 0.938 15 L 2.5 15 C 2.5 16.379 3.621 17.5 5 17.5 L 5 19.063 C 5 19.582 5.418 20 5.938 20 C 6.457 20 6.875 19.582 6.875 19.063 L 6.875 17.5 L 9.063 17.5 L 9.063 19.063 C 9.063 19.582 9.48 20 10 20 C 10.52 20 10.938 19.582 10.938 19.063 L 10.938 17.5 L 13.125 17.5 L 13.125 19.063 C 13.125 19.582 13.543 20 14.063 20 C 14.582 20 15 19.582 15 19.063 L 15 17.5 C 16.379 17.5 17.5 16.379 17.5 15 L 19.063 15 C 19.582 15 20 14.582 20 14.063 C 20 13.543 19.582 13.125 19.063 13.125 L 17.5 13.125 L 17.5 10.938 L 19.063 10.938 C 19.582 10.938 20 10.52 20 10 C 20 9.48 19.582 9.063 19.063 9.063 L 17.5 9.063 L 17.5 6.875 L 19.063 6.875 C 19.582 6.875 20 6.457 20 5.938 C 20 5.418 19.582 5 19.063 5 L 17.5 5 C 17.5 3.621 16.379 2.5 15 2.5 L 15 0.938 C 15 0.418 14.582 0 14.063 0 C 13.543 0 13.125 0.418 13.125 0.938 L 13.125 2.5 L 10.938 2.5 L 10.938 0.938 C 10.938 0.418 10.52 0 10 0 C 9.48 0 9.063 0.418 9.063 0.938 L 9.063 2.5 L 6.875 2.5 L 6.875 0.938 Z  M 6.25 5 L 13.75 5 C 14.441 5 15 5.559 15 6.25 L 15 13.75 C 15 14.441 14.441 15 13.75 15 L 6.25 15 C 5.559 15 5 14.441 5 13.75 L 5 6.25 C 5 5.559 5.559 5 6.25 5 Z  M 13.75 6.25 L 6.25 6.25 L 6.25 13.75 L 13.75 13.75 L 13.75 6.25 Z " fill="rgb(255,255,255)"/></svg>