<?xml version="1.0" encoding="utf-8"?>
<svg viewBox="0 0 24 24" xmlns="http://www.w3.org/2000/svg">
  <path d="M 19.342 4.318 C 21.573 6.133 23 8.9 23 12.001 C 23 15.102 21.573 17.872 19.342 19.684 C 18.988 19.973 18.469 19.918 18.18 19.563 C 17.892 19.209 17.947 18.69 18.301 18.402 C 20.164 16.889 21.35 14.586 21.35 12.001 C 21.35 9.416 20.164 7.113 18.301 5.597 C 17.947 5.308 17.895 4.789 18.18 4.435 C 18.466 4.081 18.988 4.029 19.342 4.315 L 19.342 4.318 Z M 17.263 6.879 C 18.748 8.089 19.7 9.935 19.7 12.001 C 19.7 14.067 18.748 15.913 17.263 17.123 C 16.909 17.412 16.389 17.357 16.101 17.003 C 15.812 16.648 15.867 16.129 16.221 15.841 C 17.338 14.933 18.05 13.551 18.05 12.001 C 18.05 10.451 17.338 9.069 16.221 8.158 C 15.867 7.869 15.815 7.35 16.101 6.996 C 16.386 6.642 16.909 6.59 17.263 6.876 L 17.263 6.879 Z M 15.183 9.44 C 15.922 10.045 16.4 10.966 16.4 12.001 C 16.4 13.036 15.922 13.957 15.183 14.562 C 14.829 14.851 14.31 14.796 14.021 14.442 C 13.732 14.088 13.787 13.568 14.141 13.28 C 14.513 12.977 14.75 12.517 14.75 12.001 C 14.75 11.485 14.513 11.025 14.141 10.719 C 13.787 10.43 13.736 9.911 14.021 9.557 C 14.306 9.203 14.829 9.151 15.183 9.437 L 15.183 9.44 Z M 11.35 4.397 C 11.745 4.576 12 4.968 12 5.401 L 12 18.601 C 12 19.034 11.745 19.426 11.35 19.605 C 10.955 19.783 10.491 19.711 10.168 19.423 L 5.53 15.301 L 3.2 15.301 C 1.986 15.301 1 14.314 1 13.101 L 1 10.901 C 1 9.688 1.986 8.701 3.2 8.701 L 5.53 8.701 L 10.168 4.579 C 10.491 4.291 10.955 4.222 11.35 4.397 Z" style="transform-box: fill-box; transform-origin: 50% 50%; fill: rgb(255, 255, 255);"/>
</svg>