<?xml version="1.0" encoding="utf-8"?>
<svg viewBox="0 0 24 24" xmlns="http://www.w3.org/2000/svg">
  <path d="M 5.95 19.7 C 3.217 19.7 1 17.483 1 14.75 C 1 12.591 2.382 10.756 4.307 10.079 C 4.303 9.986 4.3 9.893 4.3 9.8 C 4.3 6.761 6.761 4.3 9.8 4.3 C 11.838 4.3 13.615 5.407 14.568 7.057 C 15.09 6.706 15.723 6.5 16.4 6.5 C 18.222 6.5 19.7 7.978 19.7 9.8 C 19.7 10.22 19.621 10.618 19.48 10.99 C 21.487 11.395 23 13.172 23 15.3 C 23 17.73 21.03 19.7 18.6 19.7 L 5.95 19.7 Z M 8.665 13.96 L 11.415 16.71 C 11.738 17.033 12.261 17.033 12.581 16.71 L 15.331 13.96 C 15.654 13.636 15.654 13.114 15.331 12.794 C 15.008 12.475 14.485 12.471 14.165 12.794 L 12.825 14.135 L 12.825 9.525 C 12.825 9.068 12.457 8.7 12 8.7 C 11.543 8.7 11.175 9.068 11.175 9.525 L 11.175 14.135 L 9.834 12.794 C 9.511 12.471 8.988 12.471 8.669 12.794 C 8.349 13.117 8.346 13.64 8.669 13.96 L 8.665 13.96 Z" style="transform-box: fill-box; transform-origin: 50% 50%; fill: rgb(255, 255, 255);"/>
</svg>