<?xml version="1.0" encoding="utf-8"?>
<svg viewBox="0 0 24 24" xmlns="http://www.w3.org/2000/svg">
  <path d="M 16.278 2.222 L 7.722 2.222 C 6.71 2.222 5.885 3.054 5.923 4.063 C 5.931 4.265 5.938 4.468 5.95 4.666 L 1.917 4.666 C 1.409 4.666 1 5.075 1 5.583 C 1 9.12 2.28 11.579 3.998 13.249 C 5.691 14.895 7.753 15.724 9.273 16.143 C 10.167 16.392 10.778 17.136 10.778 17.885 C 10.778 18.684 10.128 19.333 9.33 19.333 L 8.333 19.333 C 7.657 19.333 7.111 19.879 7.111 20.555 C 7.111 21.231 7.657 21.777 8.333 21.777 L 15.667 21.777 C 16.342 21.777 16.889 21.231 16.889 20.555 C 16.889 19.879 16.342 19.333 15.667 19.333 L 14.669 19.333 C 13.872 19.333 13.222 18.684 13.222 17.885 C 13.222 17.136 13.83 16.388 14.727 16.143 C 16.251 15.724 18.313 14.895 20.005 13.249 C 21.72 11.579 23 9.12 23 5.583 C 23 5.075 22.591 4.666 22.083 4.666 L 18.05 4.666 C 18.061 4.468 18.069 4.269 18.077 4.063 C 18.115 3.054 17.29 2.222 16.278 2.222 Z M 2.867 6.499 L 6.091 6.499 C 6.439 9.94 7.207 12.24 8.074 13.779 C 7.122 13.36 6.133 12.767 5.278 11.934 C 4.055 10.747 3.062 9.032 2.872 6.499 L 2.867 6.499 Z M 18.726 11.934 C 17.87 12.767 16.881 13.36 15.93 13.779 C 16.797 12.24 17.565 9.94 17.913 6.499 L 21.136 6.499 C 20.941 9.032 19.948 10.747 18.73 11.934 L 18.726 11.934 Z" style="transform-box: fill-box; transform-origin: 50% 50%; fill: rgb(255, 255, 255);"/>
</svg>