<?xml version="1.0" encoding="utf-8"?>
<svg viewBox="0 0 24 24" xmlns="http://www.w3.org/2000/svg">
  <path d="M 20.599 10.62 L 20.965 10.62 C 21.539 10.62 22 10.159 22 9.586 L 22 4.069 C 22 3.651 21.75 3.272 21.363 3.112 C 20.975 2.953 20.531 3.039 20.233 3.336 L 18.44 5.129 C 14.665 1.401 8.583 1.414 4.829 5.172 C 1.057 8.944 1.057 15.056 4.829 18.827 C 8.6 22.599 14.712 22.599 18.484 18.827 C 19.022 18.288 19.022 17.413 18.484 16.875 C 17.945 16.336 17.069 16.336 16.531 16.875 C 13.837 19.568 9.471 19.568 6.777 16.875 C 4.083 14.18 4.083 9.815 6.777 7.12 C 9.458 4.439 13.789 4.426 16.487 7.077 L 14.716 8.853 C 14.419 9.15 14.333 9.595 14.492 9.982 C 14.652 10.37 15.031 10.62 15.449 10.62 L 20.599 10.62 Z" style="transform-box: fill-box; transform-origin: 50% 50%; fill: rgb(255, 255, 255);"/>
</svg>