<?xml version="1.0" encoding="utf-8"?>
<svg viewBox="0 0 24 24" xmlns="http://www.w3.org/2000/svg">
  <path d="M 0.571 4.857 C 0.571 3.282 1.854 2 3.428 2 L 20.571 2 C 22.147 2 23.428 3.282 23.428 4.857 L 23.428 19.143 C 23.428 20.719 22.147 22 20.571 22 L 3.428 22 C 1.854 22 0.571 20.719 0.571 19.143 L 0.571 4.857 Z M 15.027 9.612 C 14.826 9.317 14.496 9.143 14.143 9.143 C 13.79 9.143 13.456 9.317 13.259 9.612 L 9.375 15.309 L 8.193 13.831 C 7.987 13.576 7.679 13.429 7.356 13.429 C 7.035 13.429 6.723 13.576 6.522 13.831 L 3.665 17.401 C 3.407 17.725 3.356 18.166 3.536 18.536 C 3.714 18.906 4.09 19.143 4.499 19.143 L 8.785 19.143 L 10.214 19.143 L 19.499 19.143 C 19.898 19.143 20.264 18.925 20.447 18.572 C 20.63 18.22 20.608 17.796 20.384 17.469 L 15.027 9.612 Z M 5.571 9.143 C 7.222 9.143 8.252 7.357 7.427 5.928 C 7.044 5.265 6.337 4.857 5.571 4.857 C 3.922 4.857 2.891 6.642 3.716 8.071 C 4.098 8.734 4.806 9.143 5.571 9.143 Z" style="fill: rgb(255, 255, 255); transform-box: fill-box; transform-origin: 50% 50%;"/>
</svg>