<?xml version="1.0" encoding="utf-8"?>
<svg viewBox="0 0 24 24" xmlns="http://www.w3.org/2000/svg">
  <path d="M 17.238 5.55 L 22.514 10.826 C 22.824 11.136 23 11.561 23 12 C 23 12.438 22.824 12.863 22.514 13.173 L 17.238 18.449 C 16.963 18.724 16.593 18.875 16.206 18.875 C 15.403 18.875 14.75 18.221 14.75 17.418 L 14.75 14.75 L 9.25 14.75 C 8.489 14.75 7.875 14.135 7.875 13.375 L 7.875 10.625 C 7.875 9.864 8.489 9.25 9.25 9.25 L 14.75 9.25 L 14.75 6.581 C 14.75 5.778 15.403 5.125 16.206 5.125 C 16.593 5.125 16.963 5.279 17.238 5.55 Z M 7.875 5.125 L 5.125 5.125 C 4.364 5.125 3.75 5.739 3.75 6.5 L 3.75 17.5 C 3.75 18.26 4.364 18.875 5.125 18.875 L 7.875 18.875 C 8.635 18.875 9.25 19.489 9.25 20.25 C 9.25 21.01 8.635 21.625 7.875 21.625 L 5.125 21.625 C 2.847 21.625 1 19.777 1 17.5 L 1 6.5 C 1 4.222 2.847 2.375 5.125 2.375 L 7.875 2.375 C 8.635 2.375 9.25 2.989 9.25 3.75 C 9.25 4.51 8.635 5.125 7.875 5.125 Z" style="transform-box: fill-box; transform-origin: 50% 50%; fill: rgb(255, 255, 255);"/>
</svg>