<?xml version="1.0" encoding="utf-8"?>
<svg viewBox="0 0 24 24" xmlns="http://www.w3.org/2000/svg">
  <path d="M 7.6 5.4 C 3.956 5.4 1 8.356 1 12 C 1 15.644 3.956 18.6 7.6 18.6 L 16.4 18.6 C 20.044 18.6 23 15.644 23 12 C 23 8.356 20.044 5.4 16.4 5.4 L 7.6 5.4 Z M 18.05 8.975 C 19.108 8.975 19.77 10.121 19.241 11.037 C 18.995 11.463 18.541 11.725 18.05 11.725 C 16.991 11.725 16.329 10.579 16.859 9.662 C 17.105 9.237 17.559 8.975 18.05 8.975 Z M 14.475 13.65 C 14.475 12.591 15.621 11.93 16.538 12.459 C 16.963 12.705 17.225 13.159 17.225 13.65 C 17.225 14.709 16.079 15.371 15.163 14.841 C 14.737 14.595 14.475 14.141 14.475 13.65 Z M 6.775 10.075 C 6.775 9.618 7.143 9.25 7.6 9.25 C 8.056 9.25 8.425 9.618 8.425 10.075 L 8.425 11.175 L 9.525 11.175 C 9.981 11.175 10.35 11.543 10.35 12 C 10.35 12.457 9.981 12.825 9.525 12.825 L 8.425 12.825 L 8.425 13.925 C 8.425 14.382 8.056 14.75 7.6 14.75 C 7.143 14.75 6.775 14.382 6.775 13.925 L 6.775 12.825 L 5.675 12.825 C 5.218 12.825 4.85 12.457 4.85 12 C 4.85 11.543 5.218 11.175 5.675 11.175 L 6.775 11.175 L 6.775 10.075 Z" style="transform-box: fill-box; transform-origin: 50% 50%; fill: rgb(255, 255, 255);"/>
</svg>