<?xml version="1.0" encoding="utf-8"?>
<svg viewBox="0 0 24 24" xmlns="http://www.w3.org/2000/svg">
  <path d="M 13.424 3.057 C 13.424 2.319 12.828 1.724 12.091 1.724 C 11.353 1.724 10.757 2.319 10.757 3.057 L 10.757 12.39 C 10.757 13.128 11.353 13.724 12.091 13.724 C 12.828 13.724 13.424 13.128 13.424 12.39 L 13.424 3.057 Z M 7.403 6.748 C 7.97 6.278 8.045 5.437 7.574 4.869 C 7.103 4.303 6.261 4.228 5.695 4.698 C 3.495 6.532 2.091 9.298 2.091 12.39 C 2.091 17.911 6.57 22.39 12.091 22.39 C 17.611 22.39 22.091 17.911 22.091 12.39 C 22.091 9.298 20.682 6.532 18.482 4.698 C 17.915 4.228 17.074 4.307 16.603 4.869 C 16.132 5.432 16.211 6.278 16.774 6.748 C 18.395 8.095 19.42 10.124 19.42 12.39 C 19.42 16.44 16.136 19.724 12.086 19.724 C 8.036 19.724 4.753 16.44 4.753 12.39 C 4.753 10.124 5.782 8.095 7.399 6.748 L 7.403 6.748 Z" style="transform-box: fill-box; transform-origin: 50% 50%; fill: rgb(255, 255, 255);"/>
</svg>