<?xml version="1.0" encoding="utf-8"?>
<svg viewBox="0 0 24 24" xmlns="http://www.w3.org/2000/svg">
  <path d="M 21.945 8.297 C 22.078 8.657 21.966 9.059 21.68 9.316 L 19.885 10.949 C 19.931 11.293 19.956 11.645 19.956 12.002 C 19.956 12.359 19.931 12.71 19.885 13.054 L 21.68 14.688 C 21.966 14.944 22.078 15.346 21.945 15.707 C 21.763 16.2 21.543 16.673 21.29 17.129 L 21.095 17.464 C 20.822 17.92 20.515 18.351 20.179 18.757 C 19.935 19.055 19.528 19.155 19.164 19.039 L 16.856 18.305 C 16.3 18.733 15.687 19.089 15.032 19.359 L 14.514 21.724 C 14.431 22.102 14.141 22.4 13.76 22.463 C 13.188 22.558 12.599 22.608 11.998 22.608 C 11.398 22.608 10.809 22.558 10.237 22.463 C 9.856 22.4 9.566 22.102 9.482 21.724 L 8.964 19.359 C 8.31 19.089 7.697 18.733 7.141 18.305 L 4.837 19.044 C 4.472 19.159 4.066 19.055 3.822 18.761 C 3.486 18.355 3.179 17.924 2.906 17.469 L 2.711 17.133 C 2.457 16.677 2.238 16.204 2.056 15.711 C 1.923 15.35 2.035 14.949 2.321 14.692 L 4.116 13.059 C 4.07 12.71 4.045 12.359 4.045 12.002 C 4.045 11.645 4.07 11.293 4.116 10.949 L 2.321 9.316 C 2.035 9.059 1.923 8.657 2.056 8.297 C 2.238 7.804 2.457 7.331 2.711 6.875 L 2.906 6.539 C 3.179 6.084 3.486 5.653 3.822 5.246 C 4.066 4.948 4.472 4.849 4.837 4.964 L 7.145 5.698 C 7.701 5.271 8.314 4.915 8.968 4.645 L 9.487 2.279 C 9.57 1.902 9.86 1.604 10.241 1.541 C 10.813 1.442 11.402 1.392 12.003 1.392 C 12.603 1.392 13.192 1.442 13.764 1.537 C 14.145 1.599 14.435 1.898 14.518 2.275 L 15.036 4.641 C 15.691 4.911 16.304 5.267 16.86 5.694 L 19.168 4.96 C 19.533 4.844 19.939 4.948 20.183 5.242 C 20.519 5.649 20.826 6.079 21.099 6.535 L 21.294 6.871 C 21.547 7.327 21.767 7.799 21.949 8.293 L 21.945 8.297 Z M 12.003 15.318 C 14.555 15.318 16.15 12.554 14.874 10.344 C 14.282 9.319 13.187 8.686 12.003 8.686 C 9.45 8.686 7.855 11.449 9.131 13.659 C 9.723 14.685 10.818 15.318 12.003 15.318 Z" style="transform-box: fill-box; transform-origin: 50% 50%; fill: rgb(255, 255, 255);"/>
</svg>