<?xml version="1.0" encoding="utf-8"?>
<svg viewBox="0 0 24 24" xmlns="http://www.w3.org/2000/svg">
  <path d="M 10.728 1.258 C 10.664 1.104 10.514 1 10.346 1 L 9.53 1 C 9.362 1 9.207 1.104 9.147 1.258 L 8.258 3.48 C 8.12 3.823 7.631 3.823 7.493 3.48 L 6.603 1.258 C 6.539 1.104 6.389 1 6.221 1 L 5.813 1 C 4.674 1 3.75 1.924 3.75 3.063 L 3.75 10.625 L 3.75 11.588 L 3.75 12 L 4.163 12 L 19.837 12 L 20.25 12 L 20.25 11.588 L 20.25 10.625 L 20.25 3.063 C 20.25 1.924 19.326 1 18.187 1 L 13.654 1 C 13.486 1 13.332 1.104 13.272 1.258 L 12.383 3.48 C 12.245 3.823 11.756 3.823 11.618 3.48 L 10.728 1.258 Z M 3.75 13.375 L 3.75 14.75 C 3.75 16.267 4.983 17.5 6.5 17.5 L 9.25 17.5 L 9.25 20.25 C 9.25 21.766 10.484 23 12 23 C 13.517 23 14.75 21.766 14.75 20.25 L 14.75 17.5 L 17.5 17.5 C 19.017 17.5 20.25 16.267 20.25 14.75 L 20.25 13.375 L 3.75 13.375 Z M 12 19.562 C 12.53 19.562 12.86 20.135 12.596 20.594 C 12.473 20.807 12.246 20.938 12 20.938 C 11.471 20.938 11.14 20.365 11.405 19.907 C 11.528 19.694 11.755 19.562 12 19.562 Z" style="transform-box: fill-box; transform-origin: 50% 50%; fill: rgb(255, 255, 255);"/>
</svg>