<?xml version="1.0" encoding="utf-8"?>
<svg viewBox="0 0 24 24" xmlns="http://www.w3.org/2000/svg">
  <path d="M 2 6.663 C 1.253 6.234 0.75 5.426 0.75 4.5 C 0.75 3.121 1.871 2 3.25 2 C 4.175 2 4.984 2.505 5.413 3.251 L 18.584 3.251 C 19.013 2.505 19.823 2 20.749 2 C 22.128 2 23.249 3.121 23.249 4.5 C 23.249 5.426 22.744 6.234 21.999 6.663 L 21.999 17.335 C 22.744 17.769 23.249 18.573 23.249 19.499 C 23.249 20.879 22.128 22 20.749 22 C 19.823 22 19.013 21.495 18.584 20.749 L 5.413 20.749 C 4.98 21.495 4.175 22 3.25 22 C 1.871 22 0.75 20.879 0.75 19.499 C 0.75 18.573 1.253 17.765 2 17.335 L 2 6.663 Z M 18.584 5.75 L 5.413 5.75 C 5.195 6.129 4.877 6.446 4.5 6.663 L 4.5 17.335 C 4.877 17.554 5.195 17.87 5.413 18.25 L 18.584 18.25 C 18.803 17.87 19.12 17.554 19.499 17.335 L 19.499 6.663 C 19.12 6.446 18.803 6.129 18.584 5.75 Z M 5.75 8.25 C 5.75 7.559 6.307 7.001 6.999 7.001 L 11.999 7.001 C 12.69 7.001 13.249 7.559 13.249 8.25 L 13.249 12 C 13.249 12.691 12.69 13.25 11.999 13.25 L 6.999 13.25 C 6.307 13.25 5.75 12.691 5.75 12 L 5.75 8.25 Z M 10.749 14.501 L 11.999 14.501 C 13.378 14.501 14.499 13.38 14.499 12 L 14.499 10.751 L 16.999 10.751 C 17.69 10.751 18.249 11.309 18.249 12 L 18.249 15.749 C 18.249 16.44 17.69 16.999 16.999 16.999 L 11.999 16.999 C 11.307 16.999 10.749 16.44 10.749 15.749 L 10.749 14.501 Z" style="fill: rgb(255, 255, 255); transform-box: fill-box; transform-origin: 50% 50%;"/>
</svg>