<?xml version="1.0" encoding="utf-8"?>
<svg viewBox="0 0 20 20" xmlns="http://www.w3.org/2000/svg">
  <path d="M 0 2.19 L 0 9.025 C 0 9.802 0.306 10.547 0.855 11.096 L 8.902 19.142 C 10.045 20.285 11.896 20.285 13.039 19.142 L 19.143 13.039 C 20.286 11.896 20.286 10.044 19.143 8.901 L 11.096 0.855 C 10.547 0.306 9.802 0 9.025 0 L 2.195 0 C 0.983 -0.005 0 0.978 0 2.19 Z M 5.121 3.653 C 6.247 3.653 6.951 4.872 6.388 5.847 C 6.126 6.3 5.643 6.579 5.121 6.579 C 3.994 6.579 3.29 5.36 3.854 4.384 C 4.115 3.931 4.598 3.653 5.121 3.653 Z" style="fill: rgb(255, 255, 255);"/>
</svg>