<?xml version="1.0" encoding="UTF-8" standalone="no"?><!-- Generator: Gravit.io --><svg xmlns="http://www.w3.org/2000/svg" xmlns:xlink="http://www.w3.org/1999/xlink" style="isolation:isolate" viewBox="0 0 20 20" width="20pt" height="20pt"><path d=" M 9.999 0.929 C 10.029 0.951 10.094 1.01 10.163 1.151 L 12.297 5.474 C 12.679 6.251 13.652 6.956 14.505 7.079 L 19.274 7.771 C 19.447 7.796 19.526 7.848 19.535 7.848 L 19.537 7.848 C 19.537 7.869 19.508 7.957 19.376 8.085 L 15.922 11.449 C 15.303 12.053 14.933 13.195 15.078 14.047 L 15.895 18.8 C 15.926 18.979 15.898 19.068 15.881 19.074 C 15.792 19.066 15.705 19.038 15.628 18.992 L 11.365 16.748 C 10.993 16.551 10.507 16.445 9.999 16.445 C 9.49 16.445 9.004 16.552 8.632 16.748 L 4.367 18.991 C 4.226 19.063 4.142 19.073 4.11 19.085 C 4.098 19.067 4.071 18.978 4.101 18.799 L 4.916 14.046 C 5.063 13.193 4.692 12.052 4.072 11.448 L 0.621 8.084 C 0.49 7.957 0.459 7.869 0.454 7.869 C 0.465 7.851 0.542 7.799 0.723 7.773 L 5.49 7.08 C 6.348 6.956 7.319 6.251 7.701 5.474 L 9.836 1.151 C 9.87 1.065 9.927 0.989 9.999 0.929 Z  M 9.999 0.466 C 9.789 0.466 9.581 0.627 9.423 0.947 L 7.29 5.271 C 6.973 5.915 6.134 6.524 5.425 6.626 L 0.657 7.319 C -0.053 7.421 -0.212 7.914 0.3 8.414 L 3.753 11.778 C 4.265 12.279 4.586 13.265 4.464 13.97 L 3.649 18.721 C 3.561 19.234 3.758 19.534 4.114 19.534 C 4.278 19.527 4.438 19.481 4.581 19.399 L 8.849 17.155 C 9.165 16.99 9.583 16.908 10 16.908 C 10.417 16.908 10.837 16.99 11.152 17.155 L 15.419 19.399 C 15.592 19.49 15.75 19.534 15.886 19.534 C 16.244 19.534 16.438 19.234 16.351 18.721 L 15.535 13.97 C 15.414 13.265 15.735 12.279 16.246 11.778 L 19.7 8.414 C 20.212 7.914 20.053 7.421 19.342 7.319 L 14.574 6.626 C 13.866 6.524 13.026 5.915 12.71 5.271 L 10.576 0.947 C 10.416 0.627 10.209 0.466 9.999 0.466 Z " fill="rgb(255,255,255)"/></svg>