<?xml version="1.0" encoding="UTF-8" standalone="no"?>
<!DOCTYPE svg PUBLIC "-//W3C//DTD SVG 1.1//EN" "http://www.w3.org/Graphics/SVG/1.1/DTD/svg11.dtd">
<svg width="100%" height="100%" viewBox="0 0 20 20" version="1.1" xmlns="http://www.w3.org/2000/svg" xmlns:xlink="http://www.w3.org/1999/xlink" xml:space="preserve" xmlns:serif="http://www.serif.com/" style="fill-rule:evenodd;clip-rule:evenodd;stroke-linejoin:round;stroke-miterlimit:2;">
    <g transform="matrix(0.0390625,0,0,0.0390625,0,0)">
        <path d="M176,24C176,10.7 165.3,0 152,0C138.7,0 128,10.7 128,24L128,64C92.7,64 64,92.7 64,128L24,128C10.7,128 0,138.7 0,152C0,165.3 10.7,176 24,176L64,176L64,232L24,232C10.7,232 0,242.7 0,256C0,269.3 10.7,280 24,280L64,280L64,336L24,336C10.7,336 0,346.7 0,360C0,373.3 10.7,384 24,384L64,384C64,419.3 92.7,448 128,448L128,488C128,501.3 138.7,512 152,512C165.3,512 176,501.3 176,488L176,448L232,448L232,488C232,501.3 242.7,512 256,512C269.3,512 280,501.3 280,488L280,448L336,448L336,488C336,501.3 346.7,512 360,512C373.3,512 384,501.3 384,488L384,448C419.3,448 448,419.3 448,384L488,384C501.3,384 512,373.3 512,360C512,346.7 501.3,336 488,336L448,336L448,280L488,280C501.3,280 512,269.3 512,256C512,242.7 501.3,232 488,232L448,232L448,176L488,176C501.3,176 512,165.3 512,152C512,138.7 501.3,128 488,128L448,128C448,92.7 419.3,64 384,64L384,24C384,10.7 373.3,0 360,0C346.7,0 336,10.7 336,24L336,64L280,64L280,24C280,10.7 269.3,0 256,0C242.7,0 232,10.7 232,24L232,64L176,64L176,24ZM160,128L352,128C369.7,128 384,142.3 384,160L384,352C384,369.7 369.7,384 352,384L160,384C142.3,384 128,369.7 128,352L128,160C128,142.3 142.3,128 160,128ZM352,160L160,160L160,352L352,352L352,160Z" style="fill:white;fill-rule:nonzero;"/>
    </g>
</svg>
