<?xml version="1.0" encoding="utf-8"?>
<svg viewBox="0 0 20 20" xmlns="http://www.w3.org/2000/svg">
  <path d="M 10.038 9.409 L 10.038 1.165 C 10.038 0.832 10.297 0.552 10.629 0.552 C 15.194 0.552 18.895 4.254 18.895 8.819 C 18.895 9.151 18.615 9.409 18.283 9.409 L 10.038 9.409 Z M 0 10.59 C 0 6.114 3.325 2.408 7.639 1.818 C 7.979 1.77 8.267 2.043 8.267 2.386 L 8.267 11.181 L 14.042 16.956 C 14.29 17.204 14.271 17.61 13.987 17.809 C 12.54 18.842 10.769 19.447 8.857 19.447 C 3.967 19.447 0 15.484 0 10.59 Z M 19.427 11.181 C 19.77 11.181 20.04 11.469 19.995 11.808 C 19.711 13.871 18.718 15.705 17.268 17.06 C 17.046 17.266 16.7 17.252 16.486 17.034 L 10.629 11.181 L 19.427 11.181 Z" style="fill: rgb(255, 255, 255);"/>
</svg>