<?xml version="1.0" encoding="UTF-8" standalone="no"?><!-- Generator: Gravit.io --><svg xmlns="http://www.w3.org/2000/svg" xmlns:xlink="http://www.w3.org/1999/xlink" style="isolation:isolate" viewBox="0 0 20 20" width="20pt" height="20pt"><path d=" M 17.813 1.25 L 5.938 1.25 C 4.73 1.25 3.75 2.232 3.75 3.438 L 3.75 15.938 C 3.75 16.454 3.329 16.875 2.813 16.875 C 2.296 16.875 1.875 16.453 1.875 15.938 L 1.875 4.375 C 1.875 3.857 1.455 3.438 0.938 3.438 C 0.42 3.438 0 3.857 0 4.375 L 0 15.938 C 0 17.488 1.262 18.75 2.813 18.75 L 16.563 18.75 C 18.458 18.75 20 17.208 20 15.313 L 20 3.438 C 20 2.232 19.02 1.25 17.813 1.25 Z  M 18.125 15.313 C 18.125 16.174 17.424 16.875 16.563 16.875 L 5.465 16.875 C 5.566 16.582 5.625 16.266 5.625 15.938 L 5.625 3.438 C 5.625 3.265 5.765 3.125 5.938 3.125 L 17.813 3.125 C 17.985 3.125 18.125 3.265 18.125 3.438 L 18.125 15.313 Z  M 10.313 10.625 L 7.813 10.625 C 7.297 10.625 6.875 11.047 6.875 11.563 C 6.875 12.078 7.297 12.5 7.813 12.5 L 10.313 12.5 C 10.832 12.5 11.25 12.082 11.25 11.563 C 11.25 11.043 10.832 10.625 10.313 10.625 Z  M 15.938 10.625 L 13.438 10.625 C 12.922 10.625 12.5 11.047 12.5 11.563 C 12.5 12.078 12.922 12.5 13.438 12.5 L 15.938 12.5 C 16.455 12.5 16.875 12.08 16.875 11.563 C 16.875 11.045 16.457 10.625 15.938 10.625 Z  M 10.313 13.75 L 7.813 13.75 C 7.295 13.75 6.875 14.17 6.875 14.688 C 6.875 15.205 7.295 15.625 7.813 15.625 L 10.313 15.625 C 10.83 15.625 11.25 15.205 11.25 14.688 C 11.25 14.17 10.832 13.75 10.313 13.75 Z  M 15.938 13.75 L 13.438 13.75 C 12.922 13.75 12.5 14.172 12.5 14.688 C 12.5 15.203 12.92 15.625 13.438 15.625 L 15.938 15.625 C 16.455 15.625 16.875 15.205 16.875 14.688 C 16.875 14.17 16.457 13.75 15.938 13.75 Z  M 15.625 4.375 L 8.125 4.375 C 7.435 4.375 6.875 4.935 6.875 5.625 L 6.875 8.125 C 6.875 8.815 7.435 9.375 8.125 9.375 L 15.625 9.375 C 16.315 9.375 16.875 8.815 16.875 8.125 L 16.875 5.625 C 16.875 4.934 16.316 4.375 15.625 4.375 Z " fill="rgb(255,255,255)"/></svg>