<?xml version="1.0" encoding="UTF-8" standalone="no"?><!-- Generator: Gravit.io --><svg xmlns="http://www.w3.org/2000/svg" xmlns:xlink="http://www.w3.org/1999/xlink" style="isolation:isolate" viewBox="0 0 20 20" width="20pt" height="20pt"><path d=" M 7 10 C 9.21 10 11 8.21 11 6 C 11 3.79 9.21 2 7 2 C 4.79 2 3 3.79 3 6 C 3 8.21 4.79 10 7 10 Z  M 8.584 11.5 L 5.416 11.5 C 2.424 11.5 0 13.926 0 16.916 C 0 17.516 0.486 18 1.084 18 L 12.916 18 C 13.516 18 14 17.516 14 16.916 C 14 13.926 11.576 11.5 8.584 11.5 Z  M 14.972 12 L 12.664 12 C 14.1 13.178 15 14.94 15 16.916 C 15 17.316 14.882 17.684 14.688 18 L 19 18 C 19.554 18 20 17.55 20 16.972 C 20 14.236 17.764 12 14.972 12 Z  M 13.5 10 C 15.436 10 17 8.436 17 6.5 C 17 4.566 15.436 3 13.5 3 C 12.716 3 11.998 3.268 11.416 3.704 C 11.776 4.396 12 5.17 12 6 C 12 7.11 11.626 8.13 11.014 8.96 C 11.646 9.6 12.526 10 13.5 10 Z " fill="rgb(255,255,255)"/></svg>