<?xml version="1.0" encoding="utf-8"?>
<svg viewBox="0 0 20 20" xmlns="http://www.w3.org/2000/svg">
  <path d="M 10.038 8.857 L 10.038 0.613 C 10.038 0.28 10.297 0 10.629 0 C 15.194 0 18.895 3.702 18.895 8.267 C 18.895 8.599 18.615 8.857 18.283 8.857 L 10.038 8.857 Z M 0 10.038 C 0 5.562 3.325 1.856 7.639 1.266 C 7.979 1.218 8.267 1.491 8.267 1.834 L 8.267 10.629 L 14.042 16.404 C 14.29 16.652 14.271 17.058 13.987 17.257 C 12.54 18.29 10.769 18.895 8.857 18.895 C 3.967 18.895 0 14.932 0 10.038 Z M 19.427 10.629 C 19.77 10.629 20.04 10.917 19.995 11.256 C 19.711 13.319 18.718 15.153 17.268 16.508 C 17.046 16.714 16.7 16.7 16.486 16.482 L 10.629 10.629 L 19.427 10.629 Z" style="fill: rgb(255, 255, 255);"/>
</svg>