<?xml version="1.0" encoding="utf-8"?>
<svg style="isolation:isolate" viewBox="0 0 20 20" width="20pt" height="20pt" xmlns="http://www.w3.org/2000/svg">
  <path d="M 9.999 1.836 C 10.026 1.855 10.085 1.909 10.147 2.035 L 12.067 5.926 C 12.411 6.625 13.287 7.26 14.054 7.371 L 18.347 7.993 C 18.502 8.016 18.573 8.063 18.581 8.063 L 18.583 8.063 C 18.583 8.082 18.557 8.161 18.438 8.276 L 15.33 11.304 C 14.773 11.847 14.44 12.875 14.57 13.642 L 15.305 17.92 C 15.333 18.081 15.308 18.161 15.293 18.166 C 15.213 18.159 15.134 18.134 15.065 18.092 L 11.228 16.073 C 10.894 15.895 10.456 15.8 9.999 15.8 C 9.541 15.8 9.104 15.896 8.769 16.073 L 4.93 18.091 C 4.803 18.156 4.728 18.165 4.699 18.176 C 4.688 18.16 4.664 18.08 4.691 17.919 L 5.424 13.641 C 5.557 12.873 5.223 11.846 4.665 11.303 L 1.559 8.275 C 1.441 8.161 1.413 8.082 1.409 8.082 C 1.418 8.065 1.488 8.019 1.651 7.995 L 5.941 7.372 C 6.713 7.26 7.587 6.625 7.931 5.926 L 9.852 2.035 C 9.883 1.958 9.934 1.89 9.999 1.836 Z M 9.999 1.419 C 9.81 1.419 9.623 1.564 9.481 1.852 L 7.561 5.743 C 7.276 6.323 6.521 6.871 5.882 6.963 L 1.591 7.587 C 0.952 7.678 0.809 8.122 1.27 8.572 L 4.378 11.6 C 4.838 12.051 5.127 12.938 5.018 13.573 L 4.284 17.848 C 4.205 18.31 4.382 18.58 4.703 18.58 C 4.85 18.574 4.994 18.532 5.123 18.459 L 8.964 16.439 C 9.248 16.291 9.625 16.217 10 16.217 C 10.375 16.217 10.753 16.291 11.037 16.439 L 14.877 18.459 C 15.033 18.541 15.175 18.58 15.297 18.58 C 15.62 18.58 15.794 18.31 15.716 17.848 L 14.981 13.573 C 14.873 12.938 15.161 12.051 15.621 11.6 L 18.73 8.572 C 19.191 8.122 19.048 7.678 18.408 7.587 L 14.117 6.963 C 13.479 6.871 12.723 6.323 12.439 5.743 L 10.518 1.852 C 10.374 1.564 10.188 1.419 9.999 1.419 Z" fill="rgb(255,255,255)"/>
</svg>