<?xml version="1.0" encoding="utf-8"?>
<svg width="100%" height="100%" viewBox="0 0 24 24" version="1.1" style="fill-rule:evenodd;clip-rule:evenodd;stroke-linejoin:round;stroke-miterlimit:2;" xmlns="http://www.w3.org/2000/svg">
  <path d="M 11.986 3 C 7.329 3 3.104 4.98 0 8.198 L 3.045 11.464 C 5.463 8.971 8.627 7.601 11.986 7.601 C 15.348 7.601 18.516 8.974 20.935 11.473 L 24 8.228 C 20.894 4.993 16.657 3 11.986 3 Z" style="fill:white;fill-rule:nonzero;"/>
  <path d="M 4.419 12.937 L 7.467 16.207 C 8.672 15.015 10.254 14.289 11.986 14.289 C 13.707 14.289 15.281 15.007 16.483 16.186 L 19.552 12.936 C 17.564 10.921 14.907 9.689 11.986 9.689 C 9.065 9.689 6.406 10.921 4.419 12.937 Z" style="fill:white;fill-rule:nonzero;"/>
  <path d="M 8.94 17.787 L 11.936 21 L 15 17.756 C 14.18 16.997 13.13 16.541 11.986 16.541 C 10.826 16.541 9.764 17.009 8.94 17.787 Z" style="fill:white;fill-rule:nonzero;"/>
</svg>