<?xml version="1.0" encoding="utf-8"?>
<svg xmlns="http://www.w3.org/2000/svg" viewBox="0 0 24 24">
  <path d="M 9.8 5.4 L 14.2 5.4 L 14.2 7.6 L 9.8 7.6 L 9.8 5.4 Z M 9.25 3.2 C 8.339 3.2 7.6 3.939 7.6 4.85 L 7.6 8.15 C 7.6 9.061 8.339 9.8 9.25 9.8 L 10.9 9.8 L 10.9 10.9 L 2.1 10.9 C 1.491 10.9 1 11.391 1 12 C 1 12.609 1.491 13.1 2.1 13.1 L 5.4 13.1 L 5.4 14.2 L 3.75 14.2 C 2.839 14.2 2.1 14.939 2.1 15.85 L 2.1 19.15 C 2.1 20.061 2.839 20.8 3.75 20.8 L 9.25 20.8 C 10.161 20.8 10.9 20.061 10.9 19.15 L 10.9 15.85 C 10.9 14.939 10.161 14.2 9.25 14.2 L 7.6 14.2 L 7.6 13.1 L 16.4 13.1 L 16.4 14.2 L 14.75 14.2 C 13.839 14.2 13.1 14.939 13.1 15.85 L 13.1 19.15 C 13.1 20.061 13.839 20.8 14.75 20.8 L 20.25 20.8 C 21.161 20.8 21.9 20.061 21.9 19.15 L 21.9 15.85 C 21.9 14.939 21.161 14.2 20.25 14.2 L 18.6 14.2 L 18.6 13.1 L 21.9 13.1 C 22.509 13.1 23 12.609 23 12 C 23 11.391 22.509 10.9 21.9 10.9 L 13.1 10.9 L 13.1 9.8 L 14.75 9.8 C 15.661 9.8 16.4 9.061 16.4 8.15 L 16.4 4.85 C 16.4 3.939 15.661 3.2 14.75 3.2 L 9.25 3.2 Z M 4.3 18.6 L 4.3 16.4 L 8.7 16.4 L 8.7 18.6 L 4.3 18.6 Z M 15.3 16.4 L 19.7 16.4 L 19.7 18.6 L 15.3 18.6 L 15.3 16.4 Z" style="fill: rgb(255, 255, 255);"/>
</svg>