<?xml version="1.0" encoding="utf-8"?>
<svg width="100%" height="100%" viewBox="0 0 420 420" version="1.1" xmlns="http://www.w3.org/2000/svg" style="fill-rule:evenodd;clip-rule:evenodd;stroke-linejoin:round;stroke-miterlimit:2;">
  <path d="M 65 288 L 24.385 288 C 19.205 288 15 283.795 15 278.615 L 15 67.385 C 15 62.205 19.205 58 24.385 58 L 395.614 58 C 400.794 58 404.999 62.205 404.999 67.385 L 404.999 278.615 C 404.999 283.795 400.794 288 395.614 288 L 354.999 288 L 354.999 333.212 C 354.999 336.958 351.957 340 348.211 340 L 310 340 L 310 391.201 C 310 397.161 305.16 402 299.2 402 L 120.799 402 C 114.839 402 109.999 397.161 109.999 391.201 L 109.999 340 L 71.788 340 C 68.042 340 65 336.958 65 333.212 L 65 288 Z M 298.499 93 L 262.499 93 L 262.499 163 L 298.499 163 L 298.499 93 Z M 86.999 93 L 51 93 L 51 163 L 86.999 163 L 86.999 93 Z M 228 93 L 191.999 93 L 191.999 163 L 228 163 L 228 93 Z M 368.999 93 L 333 93 L 333 163 L 368.999 163 L 368.999 93 Z M 157.5 93 L 121.5 93 L 121.5 163 L 157.5 163 L 157.5 93 Z" style="fill:white;"/>
</svg>