<?xml version="1.0" encoding="utf-8"?>
<svg width="100%" height="100%" viewBox="0 0 24 24" version="1.1" style="fill-rule:evenodd;clip-rule:evenodd;stroke-linejoin:round;stroke-miterlimit:2;" xmlns="http://www.w3.org/2000/svg">
  <path d="M 20.096 9.333 C 21.521 9.333 24 10.542 24 12 C 24 13.5 21.521 14.667 20.096 14.667 L 15.238 14.667 L 11.05 21.996 C 10.813 22.413 10.371 22.667 9.892 22.667 L 7.55 22.667 C 7.108 22.667 6.788 22.242 6.908 21.817 L 8.95 14.667 L 4.667 14.667 L 2.867 17.067 C 2.742 17.233 2.542 17.333 2.333 17.333 L 0.583 17.333 C 0.258 17.333 0 17.071 0 16.75 C 0 16.696 0.008 16.642 0.021 16.588 L 1.333 12 L 0.021 7.413 C 0.004 7.358 0 7.304 0 7.25 C 0 6.925 0.263 6.667 0.583 6.667 L 2.333 6.667 C 2.542 6.667 2.742 6.767 2.867 6.933 L 4.667 9.333 L 8.954 9.333 L 6.913 2.183 C 6.788 1.758 7.108 1.333 7.55 1.333 L 9.892 1.333 C 10.371 1.333 10.813 1.592 11.05 2.004 L 15.238 9.333 L 20.096 9.333 Z" style="fill:white;fill-rule:nonzero;"/>
</svg>