<?xml version="1.0" encoding="utf-8"?>
<svg width="100%" height="100%" viewBox="0 0 24 24" version="1.1" style="fill-rule:evenodd;clip-rule:evenodd;stroke-linejoin:round;stroke-miterlimit:2;" xmlns="http://www.w3.org/2000/svg">
  <path d="M 0 10.5 L 0 19.5 C 0 20.33 0.67 21 1.5 21 L 4.5 21 L 4.5 15.75 C 4.5 15.338 4.837 15 5.25 15 C 5.662 15 6 15.338 6 15.75 L 6 21 L 9 21 L 9 15.75 C 9 15.338 9.337 15 9.75 15 C 10.162 15 10.5 15.338 10.5 15.75 L 10.5 21 L 13.5 21 L 13.5 15.75 C 13.5 15.338 13.837 15 14.25 15 C 14.662 15 15 15.338 15 15.75 L 15 21 L 18 21 L 18 15.75 C 18 15.338 18.337 15 18.75 15 C 19.162 15 19.5 15.338 19.5 15.75 L 19.5 21 L 22.5 21 C 23.33 21 24 20.33 24 19.5 L 24 10.5 C 24 9.67 23.33 9 22.5 9 L 21 9 L 21 7.5 C 21 6.67 20.33 6 19.5 6 L 18 6 L 18 4.5 C 18 3.67 17.33 3 16.5 3 L 7.5 3 C 6.67 3 6 3.67 6 4.5 L 6 6 L 4.5 6 C 3.67 6 3 6.67 3 7.5 L 3 9 L 1.5 9 C 0.67 9 0 9.67 0 10.5 Z" style="fill: rgb(255, 255, 255);"/>
</svg>