<?xml version="1.0" encoding="UTF-8" standalone="no"?><!-- Generator: Gravit.io --><svg xmlns="http://www.w3.org/2000/svg" xmlns:xlink="http://www.w3.org/1999/xlink" style="isolation:isolate" viewBox="0 0 18 18" width="18pt" height="18pt"><defs><clipPath id="_clipPath_p5RoBRD1Nf4mMlViAuIwONn7ckW1ShFf"><rect width="18" height="18"/></clipPath></defs><g clip-path="url(#_clipPath_p5RoBRD1Nf4mMlViAuIwONn7ckW1ShFf)"><rect width="18" height="18" style="fill:rgb(0,0,0)" fill-opacity="0"/><path d=" M 7 4 L 4 4 L 4 17 L 14 17 L 14 4 L 11 4 L 11 1 L 7 1 L 7 4 Z  M 9.665 10.062 L 11.19 10.062 C 11.371 10.062 11.535 10.176 11.587 10.345 C 11.663 10.516 11.615 10.709 11.478 10.829 L 7.978 13.892 C 7.824 14.026 7.598 14.037 7.432 13.916 C 7.267 13.796 7.207 13.577 7.288 13.39 L 8.339 10.937 L 6.802 10.937 C 6.632 10.937 6.469 10.824 6.405 10.654 C 6.341 10.484 6.389 10.291 6.527 10.17 L 10.026 7.108 C 10.181 6.974 10.406 6.964 10.572 7.084 C 10.737 7.204 10.797 7.422 10.717 7.61 L 9.665 10.062 Z " fill-rule="evenodd" fill="rgb(255,255,255)"/></g></svg>