<?xml version="1.0" encoding="UTF-8" standalone="no"?><!-- Generator: Gravit.io --><svg xmlns="http://www.w3.org/2000/svg" xmlns:xlink="http://www.w3.org/1999/xlink" style="isolation:isolate" viewBox="0 0 24 24" width="24pt" height="24pt"><defs><clipPath id="_clipPath_FolhAge6B2k8z4GYLpfJdPUC3ZMwIIia"><rect width="24" height="24"/></clipPath></defs><g clip-path="url(#_clipPath_FolhAge6B2k8z4GYLpfJdPUC3ZMwIIia)"><rect width="24" height="24" style="fill:rgb(0,0,0)" fill-opacity="0"/><path d=" M 9 5 L 5 5 L 5 23 L 19 23 L 19 5 L 15 5 L 15 1 L 9 1 L 9 5 Z  M 12.95 13.375 L 15.128 13.375 C 15.388 13.375 15.622 13.537 15.696 13.779 C 15.804 14.023 15.735 14.299 15.54 14.471 L 10.54 18.846 C 10.319 19.037 9.997 19.053 9.761 18.881 C 9.525 18.709 9.439 18.396 9.554 18.129 L 11.056 14.625 L 8.86 14.625 C 8.618 14.625 8.385 14.463 8.293 14.221 C 8.201 13.976 8.271 13.701 8.467 13.529 L 13.466 9.155 C 13.687 8.962 14.009 8.948 14.245 9.119 C 14.481 9.291 14.567 9.603 14.452 9.871 L 12.95 13.375 Z " fill-rule="evenodd" fill="rgb(255,255,255)"/></g></svg>