<?xml version="1.0" encoding="UTF-8" standalone="no"?><!-- Generator: Gravit.io --><svg xmlns="http://www.w3.org/2000/svg" xmlns:xlink="http://www.w3.org/1999/xlink" style="isolation:isolate" viewBox="0 0 24 24" width="24pt" height="24pt"><defs><clipPath id="_clipPath_hZNw3Mf73CFIm3IQQNEDfILSqpM5k3GH"><rect width="24" height="24"/></clipPath></defs><g clip-path="url(#_clipPath_hZNw3Mf73CFIm3IQQNEDfILSqpM5k3GH)"><rect width="24" height="24" style="fill:rgb(255,0,0)" fill-opacity="0"/><g><path d=" M 11.074 2.677 C 7.703 2.902 4.531 4.459 1.372 7.442 C 1.202 7.604 0.823 7.982 0.531 8.282 L 0 8.83 L 0.99 9.817 L 1.982 10.803 L 2.488 10.283 C 2.767 9.998 3.116 9.649 3.266 9.509 C 6.77 6.224 10.206 4.982 13.755 5.721 C 16.301 6.249 18.998 7.853 21.655 10.417 C 21.793 10.552 21.951 10.702 22.005 10.754 L 22.103 10.846 L 22.943 9.936 C 23.406 9.433 23.833 8.971 23.893 8.904 L 24 8.785 L 23.676 8.473 C 19.998 4.919 16.503 3.056 12.864 2.707 C 12.501 2.671 11.424 2.654 11.074 2.677 Z " fill="rgb(255,255,255)"/><path d=" M 11.149 7.779 C 10.236 7.855 9.55 8.002 8.712 8.3 C 6.987 8.908 5.313 10.053 3.633 11.764 C 3.399 12.002 3.209 12.203 3.209 12.211 C 3.209 12.22 3.583 12.599 4.038 13.051 C 4.496 13.505 4.938 13.946 5.022 14.032 L 5.176 14.186 L 5.53 13.827 C 6.093 13.254 6.501 12.883 7.025 12.474 C 8.228 11.528 9.42 10.945 10.615 10.721 C 11.048 10.641 11.256 10.622 11.758 10.622 C 12.259 10.624 12.448 10.639 12.902 10.721 C 14.656 11.039 16.499 12.121 18.41 13.954 C 18.569 14.104 18.702 14.227 18.706 14.225 C 18.732 14.207 20.588 12.187 20.588 12.174 C 20.588 12.142 19.849 11.448 19.444 11.097 C 17.632 9.53 15.847 8.524 14.045 8.058 C 13.519 7.922 13.016 7.836 12.442 7.785 C 12.24 7.768 11.334 7.764 11.149 7.779 Z " fill="rgb(255,255,255)"/><path d=" M 11.318 12.768 C 10.06 12.872 8.811 13.423 7.671 14.381 C 7.298 14.694 6.65 15.328 6.661 15.367 C 6.665 15.377 7.109 15.825 7.649 16.361 L 8.627 17.336 L 8.82 17.139 C 9.897 16.04 10.941 15.531 11.94 15.622 C 12.551 15.679 13.127 15.903 13.783 16.34 C 14.12 16.564 14.602 16.962 14.895 17.258 L 15.022 17.387 L 15.129 17.27 C 15.189 17.205 15.613 16.745 16.07 16.248 C 16.529 15.751 16.906 15.336 16.908 15.322 C 16.91 15.31 16.816 15.211 16.702 15.102 C 15.275 13.753 13.899 13.012 12.441 12.805 C 12.227 12.774 11.522 12.753 11.318 12.768 Z " fill="rgb(255,255,255)"/><path d=" M 11.468 17.437 C 10.907 17.521 10.408 17.898 10.176 18.412 C 10.073 18.638 10.045 18.777 10.045 19.044 C 10.045 19.311 10.073 19.449 10.176 19.676 C 10.465 20.311 11.121 20.703 11.833 20.664 C 12.497 20.629 13.055 20.26 13.316 19.685 C 13.417 19.465 13.451 19.301 13.451 19.044 C 13.451 18.779 13.415 18.615 13.305 18.381 C 12.992 17.71 12.236 17.322 11.468 17.437 Z " fill="rgb(255,255,255)"/></g></g></svg>