<?xml version="1.0" encoding="UTF-8" standalone="no"?><!-- Generator: Gravit.io --><svg xmlns="http://www.w3.org/2000/svg" xmlns:xlink="http://www.w3.org/1999/xlink" style="isolation:isolate" viewBox="0 0 18 18" width="18pt" height="18pt"><defs><clipPath id="_clipPath_Sz1Fh0NC54qBVBtl1zuHVEs0nxrIDMGF"><rect width="18" height="18"/></clipPath></defs><g clip-path="url(#_clipPath_Sz1Fh0NC54qBVBtl1zuHVEs0nxrIDMGF)"><rect width="18" height="18" style="fill:rgb(255,0,0)" fill-opacity="0"/><g><path d=" M 8.305 2.675 C 5.777 2.841 3.398 3.994 1.029 6.204 C 0.901 6.324 0.617 6.604 0.398 6.826 L 0 7.232 L 0.742 7.963 L 1.486 8.694 L 1.866 8.308 C 2.075 8.097 2.337 7.839 2.449 7.735 C 5.077 5.301 7.654 4.382 10.316 4.929 C 12.225 5.32 14.249 6.509 16.241 8.408 C 16.345 8.507 16.463 8.619 16.504 8.658 L 16.577 8.725 L 17.207 8.051 C 17.554 7.678 17.875 7.336 17.92 7.287 L 18 7.199 L 17.757 6.968 C 14.998 4.335 12.377 2.955 9.648 2.696 C 9.375 2.67 8.568 2.657 8.305 2.675 Z " fill="rgb(255,255,255)"/><path d=" M 8.362 6.454 C 7.677 6.51 7.162 6.618 6.534 6.839 C 5.24 7.29 3.985 8.138 2.725 9.406 C 2.549 9.582 2.407 9.731 2.407 9.736 C 2.407 9.744 2.687 10.024 3.029 10.359 C 3.372 10.695 3.703 11.022 3.767 11.085 L 3.882 11.199 L 4.148 10.933 C 4.57 10.509 4.876 10.235 5.268 9.931 C 6.171 9.231 7.065 8.799 7.961 8.633 C 8.286 8.574 8.442 8.559 8.819 8.559 C 9.194 8.561 9.336 8.572 9.676 8.633 C 10.992 8.868 12.374 9.67 13.807 11.027 C 13.927 11.139 14.027 11.23 14.029 11.228 C 14.049 11.215 15.441 9.719 15.441 9.709 C 15.441 9.686 14.887 9.172 14.583 8.912 C 13.224 7.751 11.885 7.005 10.534 6.66 C 10.139 6.559 9.762 6.496 9.332 6.458 C 9.18 6.445 8.501 6.442 8.362 6.454 Z " fill="rgb(255,255,255)"/><path d=" M 8.488 10.149 C 7.545 10.226 6.608 10.635 5.753 11.344 C 5.474 11.576 4.987 12.045 4.996 12.074 C 4.998 12.082 5.332 12.414 5.737 12.811 L 6.471 13.533 L 6.615 13.387 C 7.422 12.573 8.206 12.196 8.955 12.264 C 9.413 12.305 9.845 12.471 10.337 12.795 C 10.59 12.961 10.952 13.256 11.171 13.475 L 11.267 13.57 L 11.347 13.484 C 11.392 13.436 11.709 13.095 12.052 12.727 C 12.397 12.359 12.68 12.051 12.681 12.041 C 12.682 12.032 12.612 11.959 12.526 11.878 C 11.456 10.879 10.424 10.33 9.33 10.177 C 9.17 10.154 8.641 10.138 8.488 10.149 Z " fill="rgb(255,255,255)"/><path d=" M 8.601 13.608 C 8.18 13.67 7.806 13.949 7.632 14.33 C 7.555 14.498 7.534 14.6 7.534 14.798 C 7.534 14.996 7.555 15.098 7.632 15.266 C 7.848 15.737 8.341 16.027 8.875 15.998 C 9.373 15.972 9.792 15.699 9.987 15.273 C 10.063 15.11 10.088 14.989 10.088 14.798 C 10.088 14.602 10.062 14.48 9.979 14.307 C 9.744 13.81 9.177 13.523 8.601 13.608 Z " fill="rgb(255,255,255)"/></g></g></svg>