<?xml version="1.0" encoding="utf-8"?>
<svg viewBox="0 0 264 32" xmlns="http://www.w3.org/2000/svg" xmlns:bx="https://boxy-svg.com">
  <path d="M 142.564 28.649 C 142.564 28.973 142.237 29.298 141.911 29.298 L 130.04 29.298 C 129.713 29.298 129.386 28.973 129.386 28.649 L 129.386 20.109 C 129.386 19.784 129.713 19.46 130.04 19.46 L 141.911 19.46 C 142.237 19.46 142.564 19.784 142.564 20.109 L 142.564 28.649 Z M 142.02 16.865 L 129.931 16.866 C 128.188 16.866 126.772 18.272 126.772 20.002 L 126.772 28.543 C 126.772 30.272 128.188 31.677 129.931 31.677 L 142.02 31.677 C 143.763 31.677 145.178 30.272 145.178 28.543 L 145.178 20.002 C 145.178 18.272 143.763 16.866 142.02 16.866" style="fill: rgb(255, 255, 255);" bx:origin="-6.888 -1.139"/>
  <path d="M 2.832 4.109 L 2.832 15.135 L 0 15.135 L 0 0.216 L 2.396 0.216 L 13.723 11.136 L 13.723 0.216 L 15.901 0.216 L 16.445 0.216 L 16.445 15.135 L 14.267 15.135 L 2.832 4.109 Z" style="fill: rgb(255, 255, 255);" bx:origin="0 -0.015"/>
  <path d="M 30.822 4.109 L 30.822 15.135 L 27.99 15.135 L 27.99 0.216 L 30.386 0.216 L 41.713 11.136 L 41.713 0.216 L 43.891 0.216 L 44.436 0.216 L 44.436 15.135 L 42.258 15.135 L 30.822 4.109 Z" style="fill: rgb(255, 255, 255);" bx:origin="-1.702 -0.015"/>
  <path d="M 88.653 4.109 L 88.653 15.135 L 85.822 15.135 L 85.822 0.216 L 88.218 0.216 L 99.545 11.136 L 99.545 0.216 L 101.723 0.216 L 102.267 0.216 L 102.267 15.135 L 100.089 15.135 L 88.653 4.109 Z" style="fill: rgb(255, 255, 255);" bx:origin="-5.219 -0.015"/>
  <path d="M 23.089 0.216 L 23.634 0.216 L 23.634 15.135 L 20.802 15.135 L 20.802 0.216 L 23.089 0.216 Z" style="fill: rgb(255, 255, 255);" bx:origin="-7.346 -0.015"/>
  <path d="M 63.386 0.216 L 63.931 0.216 L 63.931 2.811 L 57.178 2.811 L 57.178 15.135 L 54.237 15.135 L 54.237 2.811 L 47.485 2.811 L 47.485 0.216 L 63.277 0.216 Z" style="fill: rgb(255, 255, 255);" bx:origin="-2.887 -0.015"/>
  <path d="M 81.139 0.216 L 81.683 0.216 L 81.683 2.811 L 69.812 2.811 L 69.812 6.162 L 79.069 6.162 L 79.069 8.757 L 69.812 8.757 L 69.812 12.648 L 81.683 12.648 L 81.683 15.243 L 66.98 15.243 L 66.98 0.325 L 81.139 0.325 Z" style="fill: rgb(255, 255, 255);" bx:origin="-4.556 -0.015"/>
  <path d="M 117.733 12.541 L 109.237 12.541 L 109.237 2.811 L 109.347 2.811 L 117.842 2.811 C 120.564 2.811 121.436 5.405 121.436 7.676 C 121.436 9.946 120.455 12.541 117.842 12.541 M 122.416 2.378 C 121.327 0.973 119.693 0.216 117.733 0.216 L 106.624 0.216 L 106.624 15.135 L 117.733 15.135 C 119.693 15.135 121.327 14.379 122.416 12.973 C 123.396 11.677 123.941 9.838 123.941 7.676 C 123.941 5.514 123.396 3.676 122.416 2.378" style="fill: rgb(255, 255, 255);" bx:origin="-6.157 -0.015"/>
  <path d="M 142.564 12 C 142.564 12.325 142.237 12.648 141.911 12.648 L 130.04 12.648 C 129.713 12.648 129.386 12.325 129.386 12 L 129.386 3.459 C 129.386 3.135 129.713 2.811 130.04 2.811 L 141.911 2.811 C 142.237 2.811 142.564 3.135 142.564 3.459 L 142.564 12 Z M 142.02 0.216 L 129.931 0.216 C 128.188 0.216 126.772 1.622 126.772 3.351 L 126.772 12 C 126.772 13.73 128.188 15.135 129.931 15.135 L 142.02 15.135 C 143.763 15.135 145.178 13.73 145.178 12 L 145.178 3.351 C 145.178 1.622 143.763 0.216 142.02 0.216" style="fill: rgb(255, 255, 255);" bx:origin="-6.888 -0.015"/>
  <path d="M 232.416 25.622 C 235.248 26.703 241.347 27.676 246.139 27.676 C 251.366 27.676 253.545 25.947 253.545 23.677 C 253.545 21.73 251.584 20.541 245.812 18.379 C 238.079 15.568 232.525 13.298 232.525 8.324 C 232.525 3.135 239.277 0.108 249.624 0.108 C 255.178 0.108 257.03 0.433 260.624 1.081 L 260.624 6.054 C 257.139 5.405 254.089 4.324 249.297 4.324 C 244.178 4.324 242 5.946 242 7.568 C 242 9.946 245.376 11.136 251.258 13.189 C 259.426 16.109 264 18.379 264 23.244 C 264 28.324 258.337 31.893 245.376 31.893 C 240.148 31.893 236.445 31.568 232.416 30.919 L 232.416 25.622 Z" style="fill: rgb(255, 255, 255);" bx:origin="-7.359 -0.004"/>
  <path d="M 205.079 4.433 L 198.98 4.433 L 198.98 27.46 L 205.079 27.46 C 214.445 27.46 220.436 23.46 220.436 16 C 220.436 8.541 214.555 4.433 205.079 4.433 M 221.525 29.623 C 218.475 31.028 212.812 31.893 207.802 31.893 L 188.634 31.893 L 188.634 0.216 L 207.802 0.216 C 212.812 0.216 218.584 1.081 221.634 2.487 C 229.04 5.838 231.436 11.027 231.436 16.109 C 231.436 21.081 229.04 26.379 221.634 29.73" style="fill: rgb(255, 255, 255);" bx:origin="-4.407 -0.007"/>
  <path d="M 175.129 14.487 C 175.129 14.487 184.059 13.081 184.059 7.568 C 184.059 2.162 174.584 0 164.455 0 C 155.307 0 149.317 1.081 149.317 1.081 L 149.317 5.946 C 153.455 4.973 157.376 4.109 162.822 4.109 C 168.594 4.109 173.059 5.838 173.059 8.216 C 173.059 11.136 168.703 12.865 159.228 12.865 L 154.871 12.865 L 154.871 17.298 L 158.901 17.298 C 168.812 17.298 174.475 18.811 174.475 22.379 C 174.475 25.622 169.466 27.568 163.148 27.568 C 157.703 27.568 152.693 26.379 148.555 25.298 L 148.555 30.595 C 150.515 30.919 155.742 32 165.327 32 C 176 32 185.366 28.542 185.366 22.596 C 185.366 17.514 178.941 14.595 175.129 14.595" style="fill: rgb(255, 255, 255);" bx:origin="-4.036 0"/>
</svg>