<?xml version="1.0" encoding="utf-8"?>
<svg width="59.44017mm" height="16.39835mm" viewBox="0 0 59.44017 16.39835" version="1.1" id="svg5" xmlns="http://www.w3.org/2000/svg">
  <g id="g3484" transform="matrix(1, 0, 0, 1, -4.221581, -0.742486)">
    <path d="M 12.903204,12.99722 H 8.6368054 l -0.587043,2.00091 h -3.828182 l 4.555785,-12.1212 h 4.0844976 l 4.555785,12.1212 H 13.498516 Z M 12.117724,10.3762 10.778273,6.01885 9.4470904,10.3762 Z" id="path900" style="font-size: 16.9333px; font-family: &quot;Arial Black&quot;; stroke-width: 0.264583; fill: rgb(255, 255, 255);"/>
    <path d="m 17.969547,2.87693 h 7.011445 q 1.752861,0 2.687169,0.86816 0.942576,0.86816 0.942576,2.14974 0,1.07487 -0.669725,1.84381 -0.446484,0.51263 -1.306378,0.81028 1.306378,0.3142 1.918227,1.08314 0.620115,0.76068 0.620115,1.91823 0,0.94257 -0.438216,1.69498 -0.438215,0.75241 -1.198891,1.19062 -0.471288,0.27285 -1.422132,0.39688 -1.265037,0.16536 -1.678447,0.16536 h -6.465743 z m 3.778574,4.75422 h 1.628837 q 0.876431,0 1.215428,-0.29765 0.347265,-0.30593 0.347265,-0.87643 0,-0.52917 -0.347265,-0.82682 -0.338997,-0.29766 -1.190622,-0.29766 h -1.653643 z m 0,4.76249 h 1.909958 q 0.967379,0 1.364255,-0.33899 0.396874,-0.34727 0.396874,-0.92604 0,-0.53744 -0.396874,-0.8599 Q 24.633728,9.93798 23.64981,9.93798 h -1.901689 z" id="path902" style="font-size: 16.9333px; font-family: &quot;Arial Black&quot;; stroke-width: 0.264583; fill: rgb(255, 255, 255);"/>
    <path d="m 37.604484,2.87693 h 3.737232 v 7.22642 q 0,1.07487 -0.338997,2.03398 -0.330728,0.95084 -1.050064,1.67018 -0.711066,0.71106 -1.496547,1.00045 -1.091403,0.40514 -2.621023,0.40514 -0.884698,0 -1.934762,-0.12402 Q 32.858528,14.96506 32.15573,14.60126 31.452932,14.22919 30.865889,13.55119 30.287114,12.8732 30.072141,12.15387 29.724876,10.99632 29.724876,10.10335 V 2.87693 h 3.737233 v 7.40005 q 0,0.99219 0.545701,1.55442 0.55397,0.55398 1.529619,0.55398 0.967381,0 1.513083,-0.54571 0.553971,-0.55397 0.553971,-1.56269 z" id="path904" style="font-size: 16.9333px; font-family: &quot;Arial Black&quot;; stroke-width: 0.264583; fill: rgb(255, 255, 255);"/>
    <path d="m 41.893615,10.98805 3.5636,-0.22324 q 0.115755,0.86816 0.471288,1.32291 0.578775,0.73587 1.653643,0.73587 0.802017,0 1.231964,-0.37207 0.438215,-0.38034 0.438215,-0.87643 0,-0.47129 -0.41341,-0.84336 -0.41341,-0.37207 -1.918225,-0.7028 -2.463929,-0.55397 -3.513991,-1.47174 -1.058331,-0.91777 -1.058331,-2.3399 0,-0.93431 0.537433,-1.76113 0.545702,-0.83509 1.628838,-1.30638 1.091404,-0.47956 2.984826,-0.47956 2.323368,0 3.538795,0.86817 1.223695,0.85989 1.455205,2.74504 L 48.962937,6.49014 Q 48.822378,5.67159 48.367626,5.29952 47.921143,4.92745 47.127394,4.92745 q -0.653189,0 -0.983917,0.28112 -0.330729,0.27285 -0.330729,0.66972 0,0.28939 0.272851,0.5209 0.264584,0.23978 1.256769,0.44648 2.455659,0.52917 3.51399,1.07487 1.0666,0.53743 1.546157,1.33945 0.487825,0.80202 0.487825,1.7942 0,1.16582 -0.644921,2.14974 -0.644921,0.98392 -1.80247,1.49654 -1.15755,0.50437 -2.91868,0.50437 -3.092311,0 -4.282934,-1.19063 -1.190623,-1.19062 -1.34772,-3.02616 z" id="path906" style="font-size: 16.9333px; font-family: &quot;Arial Black&quot;; stroke-width: 0.264583; fill: rgb(255, 255, 255);"/>
    <path d="M 53.442239,2.87693 H 63.47985 v 2.58795 h -6.283842 v 1.92649 h 5.82909 v 2.4722 h -5.82909 v 2.38951 h 6.465742 v 2.74505 H 53.442239 Z" id="path908" style="font-size: 16.9333px; font-family: &quot;Arial Black&quot;; stroke-width: 0.264583; fill: rgb(255, 255, 255);"/>
  </g>
</svg>