<?xml version="1.0" encoding="utf-8"?>
<svg viewBox="0.2399 107.9331 799.2969 133.4005" width="799.2969" height="133.4005" xmlns="http://www.w3.org/2000/svg">
  <path d=" M 336.25 126.25 L 339.03 109.48 A 1.00 0.99 85.6 0 1 339.69 108.70 L 341.65 108.01 A 1.36 1.36 0.0 0 1 343.44 109.53 Q 342.17 116.61 341.16 123.14 C 340.67 126.25 339.29 127.05 336.25 126.25 Z" style="fill: rgb(255, 255, 255);"/>
  <path d=" M 697.27 205.46 Q 698.50 204.73 700.06 202.81 Q 712.72 187.34 725.49 171.85 A 2.15 2.14 51.0 0 0 725.73 169.48 L 705.78 131.70 A 0.64 0.64 0.0 0 1 706.35 130.76 L 739.63 130.75 A 1.59 1.57 -13.6 0 1 741.03 131.59 L 747.32 143.50 A 0.70 0.69 50.8 0 0 748.47 143.62 L 758.85 131.13 A 1.03 1.03 0.0 0 1 759.65 130.75 L 799.16 130.80 Q 799.78 130.80 799.38 131.28 L 764.10 173.74 A 1.03 1.03 0.0 0 0 763.98 174.88 L 786.26 217.27 A 0.65 0.65 0.0 0 1 785.69 218.22 Q 769.81 218.32 753.68 218.19 C 751.69 218.17 751.16 217.91 750.23 216.13 Q 746.32 208.65 743.00 202.04 A 1.28 1.28 0.0 0 0 740.87 201.80 C 738.21 205.04 728.51 218.24 725.65 218.24 Q 697.34 218.25 669.98 218.25 A 1.97 1.97 0.0 0 1 668.02 216.50 L 667.01 207.46 A 1.89 1.88 87.1 0 0 665.16 205.79 Q 655.95 205.71 647.00 205.84 C 641.80 205.92 643.22 218.15 638.19 218.16 Q 608.50 218.28 579.59 218.24 A 1.78 1.78 0.0 0 1 577.81 216.40 C 577.96 212.00 579.87 172.00 579.37 171.49 A 0.41 0.41 0.0 0 0 578.70 171.59 Q 567.66 194.12 556.82 216.47 C 556.23 217.70 555.48 218.09 554.18 218.13 Q 544.86 218.45 536.52 218.06 A 2.08 2.08 0.0 0 1 534.56 216.30 L 528.01 174.13 A 0.76 0.75 48.0 0 0 526.53 174.05 Q 526.42 174.47 526.50 174.87 Q 526.60 175.41 526.45 175.93 L 515.42 216.72 A 2.06 2.05 -82.4 0 1 513.44 218.24 L 479.96 218.26 A 1.11 1.10 -82.2 0 1 478.90 216.85 Q 492.90 166.70 506.81 117.56 Q 507.37 115.55 508.34 113.71 A 1.08 1.08 0.0 0 1 509.09 113.15 Q 509.82 113.00 511.25 113.00 Q 528.61 112.99 545.40 113.01 A 1.39 1.38 -4.3 0 1 546.77 114.18 L 553.89 158.88 A 0.51 0.51 0.0 0 0 554.86 159.02 Q 565.49 136.81 576.32 115.07 Q 576.82 114.08 577.59 113.34 A 1.28 1.28 0.0 0 1 578.47 112.99 L 615.01 113.00 A 1.18 1.18 0.0 0 1 616.19 114.22 C 615.47 137.60 614.39 161.09 613.67 184.57 Q 613.39 193.61 612.60 202.59 A 0.30 0.30 0.0 0 0 613.18 202.73 C 614.01 200.81 615.35 199.01 616.16 197.37 Q 632.05 164.90 648.39 132.66 C 649.52 130.42 650.55 130.73 652.75 130.74 Q 668.38 130.76 684.05 131.08 A 0.56 0.55 85.5 0 1 684.58 131.54 Q 690.38 166.35 696.20 201.21 Q 696.53 203.20 696.76 205.21 A 0.34 0.34 0.0 0 0 697.27 205.46 Z M 662.07 164.96 Q 657.88 174.86 653.64 184.84 A 0.69 0.69 0.0 0 0 654.29 185.80 L 664.63 185.63 A 0.45 0.44 87.0 0 0 665.06 185.14 L 663.25 163.96 A 0.37 0.37 0.0 0 0 662.64 163.71 C 662.18 164.12 662.26 164.52 662.07 164.96 Z" style="fill: rgb(255, 255, 255);"/>
  <path d=" M 24.50 170.41 C 33.91 152.61 42.75 134.52 52.13 116.61 A 2.08 2.07 13.7 0 1 53.97 115.50 L 93.25 115.50 A 1.17 1.17 0.0 0 1 94.41 116.50 Q 98.21 141.73 101.85 166.93 Q 102.16 169.04 102.23 170.95 A 0.77 0.77 0.0 0 1 101.46 171.75 L 24.87 171.75 A 1.60 1.58 -73.7 0 0 23.53 172.49 L 21.50 175.77 A 1.00 1.00 0.0 0 1 20.64 176.23 L 0.90 175.95 A 0.62 0.62 0.0 0 1 0.29 175.34 L 0.24 172.69 A 0.79 0.78 81.9 0 1 0.81 171.92 Q 2.42 171.47 4.00 171.49 Q 13.50 171.65 23.05 171.31 A 1.70 1.69 13.0 0 0 24.50 170.41 Z" style="fill: rgb(255, 255, 255);"/>
  <path d=" M 336.25 126.25 Q 332.81 146.79 329.34 167.32 Q 329.10 168.71 328.40 170.76 A 0.75 0.75 0.0 0 1 327.73 171.27 C 313.34 172.27 298.76 171.64 284.44 171.47 A 0.77 0.76 -84.3 0 1 283.70 170.56 C 288.60 145.01 309.78 125.75 336.25 126.25 Z" style="fill: rgb(255, 255, 255);"/>
  <path d=" M 340.27 127.35 A 1.03 1.02 10.1 0 1 341.48 126.51 C 362.62 130.56 379.90 147.54 378.19 170.60 A 0.93 0.93 0.0 0 1 377.70 171.35 C 376.36 172.05 375.17 171.49 374.14 171.52 Q 354.06 172.09 333.92 171.44 A 0.67 0.67 0.0 0 1 333.28 170.66 L 340.27 127.35 Z" style="fill: rgb(255, 255, 255);"/>
  <path d=" M 175.94 132.25 A 1.86 1.86 0.0 0 1 177.02 134.20 Q 175.24 147.17 172.41 159.94 A 0.98 0.98 0.0 0 1 170.83 160.49 C 159.89 151.58 143.07 156.91 138.85 170.15 A 2.39 2.38 8.9 0 1 136.56 171.81 L 106.58 171.55 A 0.44 0.44 0.0 0 1 106.16 171.03 C 112.24 139.26 145.27 118.30 175.94 132.25 Z" style="fill: rgb(255, 255, 255);"/>
  <path d=" M 194.88 156.48 L 178.47 156.25 A 0.69 0.69 0.0 0 1 177.80 155.44 L 181.87 132.06 A 1.57 1.57 0.0 0 1 183.42 130.75 L 251.01 130.75 A 1.09 1.08 5.3 0 1 252.08 132.03 L 247.72 155.51 A 1.29 1.29 0.0 0 1 246.43 156.56 L 230.22 156.20 A 1.41 1.41 0.0 0 0 228.80 157.35 L 226.46 170.13 A 1.06 1.03 -11.2 0 1 225.96 170.85 Q 224.77 171.59 222.57 171.64 Q 208.09 171.96 193.64 171.56 A 0.59 0.58 5.6 0 1 193.08 170.88 L 195.39 157.09 A 0.53 0.52 5.2 0 0 194.88 156.48 Z" style="fill: rgb(255, 255, 255);"/>
  <path d=" M 249.09 171.78 A 0.90 0.90 0.0 0 1 248.20 170.73 Q 251.29 152.03 254.83 133.47 C 255.22 131.43 256.24 130.67 258.26 130.68 Q 273.18 130.75 287.96 130.92 A 0.34 0.33 -86.2 0 1 288.29 131.30 Q 285.48 151.06 281.28 170.58 A 1.38 1.38 0.0 0 1 279.93 171.66 L 249.09 171.78 Z" style="fill: rgb(255, 255, 255);"/>
  <path d=" M 437.06 165.77 Q 438.47 168.75 439.02 165.49 L 444.68 132.05 A 1.52 1.52 0.0 0 1 446.18 130.78 L 476.57 130.74 A 0.57 0.56 -85.2 0 1 477.12 131.40 L 462.14 216.79 A 1.76 1.74 -84.9 0 1 460.42 218.24 L 431.25 218.26 A 2.53 2.51 78.2 0 1 428.94 216.74 L 412.98 179.57 A 0.45 0.45 0.0 0 0 412.12 179.67 L 405.41 216.80 A 1.76 1.76 0.0 0 1 403.68 218.25 L 374.65 218.25 A 1.40 1.40 0.0 0 1 373.27 216.61 L 380.07 177.37 A 1.78 1.77 -84.7 0 1 381.84 175.89 L 394.94 176.05 A 1.11 1.10 18.8 0 0 395.81 175.63 Q 397.19 173.86 396.08 171.98 A 0.98 0.97 -15.0 0 0 395.24 171.50 L 381.93 171.50 A 0.70 0.69 5.1 0 1 381.24 170.68 L 388.07 132.42 A 2.02 2.02 0.0 0 1 390.06 130.76 L 419.57 130.75 A 1.39 1.36 -12.4 0 1 420.82 131.53 L 437.06 165.77 Z" style="fill: rgb(255, 255, 255);"/>
  <path d=" M 47.96 204.22 A 2.49 2.49 0.0 0 0 45.59 205.94 L 41.98 217.08 A 1.69 1.69 0.0 0 1 40.37 218.25 L 0.92 218.23 A 0.35 0.35 0.0 0 1 0.61 217.72 L 21.15 177.08 A 1.43 1.39 1.9 0 1 21.90 176.40 Q 23.78 175.67 24.75 175.68 Q 62.62 175.95 102.15 175.99 A 1.05 1.05 0.0 0 1 103.19 176.89 L 108.89 216.42 A 1.56 1.56 0.0 0 1 107.35 218.20 L 73.07 218.28 A 1.79 1.78 89.8 0 1 71.29 216.50 L 71.23 205.50 A 1.24 1.24 0.0 0 0 69.99 204.26 L 47.96 204.22 Z" style="fill: rgb(255, 255, 255);"/>
  <path d=" M 137.99 176.83 C 141.48 190.58 155.56 194.31 166.88 187.36 A 0.58 0.58 0.0 0 1 167.76 187.96 L 162.31 218.03 A 1.49 1.48 -1.8 0 1 161.20 219.21 Q 142.70 223.62 127.82 215.77 C 113.62 208.28 105.79 194.26 105.66 178.17 C 105.64 174.58 107.48 175.99 109.70 175.99 Q 123.34 176.01 136.92 176.00 A 1.10 1.10 0.0 0 1 137.99 176.83 Z" style="fill: rgb(255, 255, 255);"/>
  <path d=" M 194.81 175.94 Q 209.74 176.11 224.41 175.92 A 0.91 0.90 4.8 0 1 225.31 176.98 L 218.38 216.68 A 1.88 1.88 0.0 0 1 216.53 218.24 L 185.96 218.25 A 0.99 0.99 0.0 0 1 184.98 217.09 Q 188.22 197.57 191.78 177.99 C 192.17 175.82 192.95 175.92 194.81 175.94 Z" style="fill: rgb(255, 255, 255);"/>
  <path d=" M 273.31 217.34 A 1.11 1.11 0.0 0 1 272.22 218.24 L 241.27 218.25 A 0.62 0.61 83.5 0 1 240.67 217.77 Q 240.30 216.10 240.62 214.17 Q 243.75 195.52 247.16 176.82 A 1.37 1.36 -84.2 0 1 248.52 175.70 L 279.74 176.06 A 0.47 0.47 0.0 0 1 280.20 176.54 Q 280.15 178.91 279.75 181.25 Q 276.69 199.29 273.31 217.34 Z" style="fill: rgb(255, 255, 255);"/>
  <path d=" M 283.44 176.72 A 0.75 0.74 0.8 0 1 284.19 176.00 L 326.72 175.95 A 0.91 0.91 0.0 0 1 327.62 177.00 Q 324.78 194.61 322.00 211.50 Q 321.14 216.71 320.20 219.76 A 0.67 0.66 -80.3 0 1 319.54 220.23 Q 317.24 220.18 315.24 219.58 C 295.91 213.78 282.71 197.65 283.44 176.72 Z" style="fill: rgb(255, 255, 255);"/>
  <path d=" M 332.09 177.15 A 1.50 1.49 -85.2 0 1 333.56 175.90 L 376.90 175.88 A 0.91 0.91 0.0 0 1 377.80 176.92 C 375.03 196.56 359.62 212.52 341.37 218.69 C 336.32 220.40 331.07 220.85 325.69 221.02 A 0.80 0.80 0.0 0 1 324.88 220.08 L 332.09 177.15 Z" style="fill: rgb(255, 255, 255);"/>
  <rect x="-2.25" y="-10.51" transform="matrix(0.9874140620231628, 0.15815800428390503, -0.15815800428390503, 0.9874140620231628, 320.8699951171875, 230.6000061035156)" width="4.5" height="21.02" rx="2.15" style="fill: rgb(255, 255, 255);"/>
</svg>