<?xml version="1.0" encoding="UTF-8" ?>
<!DOCTYPE svg PUBLIC "-//W3C//DTD SVG 1.1//EN" "http://www.w3.org/Graphics/SVG/1.1/DTD/svg11.dtd">
<svg width="370pt" height="184pt" viewBox="0 0 370 184" version="1.1" xmlns="http://www.w3.org/2000/svg">
<path fill="#ffffff" stroke="#ffffff" stroke-width="0.09375" opacity="1.00" d=" M 0.0 20.7 C 2.5 12.1 9.1 3.4 18.9 3.5 C 129.3 3.3 239.7 3.4 350.1 3.4 C 360.3 2.9 367.7 11.8 370.0 21.0 L 370.0 70.2 C 367.7 79.0 361.0 87.7 351.1 87.6 C 240.4 87.7 129.6 87.7 18.9 87.6 C 9.0 87.7 2.2 78.9 0.0 70.0 L 0.0 20.7 M 9.7 17.6 C 8.7 23.3 9.1 29.2 9.0 35.0 C 9.4 47.8 8.3 60.7 9.7 73.5 C 12.2 76.7 15.6 79.7 20.0 79.3 C 130.0 79.3 240.0 79.3 350.0 79.3 C 354.4 79.7 357.8 76.7 360.3 73.5 C 361.3 67.7 360.9 61.8 361.0 56.0 C 360.6 43.2 361.7 30.3 360.3 17.6 C 357.7 13.9 353.7 11.3 349.0 11.7 C 239.3 11.7 129.6 11.6 19.9 11.7 C 15.5 11.6 12.2 14.3 9.7 17.6 Z" />
<path fill="#ffffff" stroke="#ffffff" stroke-width="0.09375" opacity="1.00" d=" M 28.0 31.0 C 31.4 25.2 39.0 24.8 45.0 24.6 C 54.0 25.1 63.5 23.1 72.0 27.0 C 77.0 29.1 77.8 35.3 77.8 40.1 C 73.6 40.1 69.4 40.1 65.3 40.1 C 65.3 39.4 65.4 37.9 65.4 37.2 C 59.4 32.3 50.9 35.4 43.8 34.8 C 37.2 36.3 38.7 44.0 38.7 49.0 C 38.2 52.6 41.1 56.3 44.8 56.3 C 50.7 56.5 56.5 56.4 62.3 56.3 C 63.3 55.5 64.3 54.6 65.3 53.7 C 65.3 53.0 65.3 51.7 65.3 51.0 C 69.4 51.0 73.6 51.0 77.8 51.0 C 77.9 56.0 76.8 62.4 71.5 64.4 C 62.8 67.9 53.2 66.0 44.0 66.5 C 38.5 66.2 31.7 65.7 28.3 60.7 C 26.4 56.8 26.3 52.3 26.4 48.0 C 26.6 42.3 25.8 36.4 28.0 31.0 Z" />
<path fill="#ffffff" stroke="#ffffff" stroke-width="0.09375" opacity="1.00" d=" M 91.4 25.5 C 100.8 23.6 110.5 25.0 120.0 24.6 C 126.0 24.9 134.3 25.9 136.1 32.9 C 137.6 39.1 136.9 45.7 136.9 52.1 C 137.0 56.8 135.6 62.7 130.6 64.4 C 120.8 68.1 110.2 65.9 100.0 66.5 C 93.8 66.4 85.6 65.8 82.7 59.3 C 80.5 52.2 81.6 44.5 81.5 37.2 C 81.6 31.5 85.5 26.2 91.4 25.5 M 93.7 40.8 C 94.0 46.0 91.7 53.7 98.1 56.1 C 105.4 56.8 112.9 56.2 120.3 56.4 C 121.7 55.3 123.0 54.3 124.3 53.2 C 124.7 48.1 124.7 43.0 124.3 38.0 C 119.1 32.2 110.7 35.5 104.0 34.6 C 99.7 33.8 93.7 35.6 93.7 40.8 Z" />
<path fill="#ffffff" stroke="#ffffff" stroke-width="0.09375" opacity="1.00" d=" M 140.5 25.2 C 144.6 25.3 148.7 25.3 152.8 25.2 C 152.5 35.7 152.9 46.1 152.6 56.6 C 162.0 56.6 171.3 56.7 180.7 56.5 C 180.6 59.6 180.6 62.7 180.8 65.8 C 167.4 65.6 153.9 65.7 140.5 65.8 C 140.7 52.3 140.7 38.7 140.5 25.2 Z" />
<path fill="#ffffff" stroke="#ffffff" stroke-width="0.09375" opacity="1.00" d=" M 184.3 25.2 C 199.5 25.4 214.6 25.4 229.8 25.2 C 229.7 28.3 229.6 31.5 229.8 34.6 C 218.7 34.3 207.6 34.6 196.6 34.4 C 196.6 36.8 196.6 39.2 196.6 41.6 C 206.9 41.4 217.3 41.7 227.7 41.4 C 227.6 44.2 227.6 46.9 227.7 49.7 C 217.3 49.4 206.9 49.8 196.5 49.5 C 196.6 51.9 196.6 54.3 196.6 56.7 C 207.6 56.6 218.7 56.8 229.7 56.5 C 229.7 59.6 229.7 62.7 229.8 65.8 C 214.6 65.6 199.5 65.6 184.3 65.8 C 184.5 52.3 184.5 38.7 184.3 25.2 Z" />
<path fill="#ffffff" stroke="#ffffff" stroke-width="0.09375" opacity="1.00" d=" M 235.6 30.4 C 239.4 24.9 247.0 24.7 253.0 24.6 C 262.2 25.0 272.1 23.0 280.5 27.6 C 284.5 30.3 284.9 35.8 284.7 40.1 C 280.7 40.1 276.6 40.1 272.5 40.1 C 272.5 39.3 272.4 37.7 272.4 36.8 C 266.4 32.7 258.6 35.3 251.9 34.7 C 246.9 34.7 245.6 40.0 245.7 44.0 C 245.7 48.4 245.2 55.0 250.8 56.2 C 256.9 56.6 263.1 56.4 269.3 56.3 C 270.3 55.5 271.3 54.8 272.4 54.1 C 272.4 53.4 272.3 52.0 272.3 51.3 C 276.5 50.9 280.6 51.0 284.7 51.0 C 284.9 55.6 284.5 61.4 279.9 63.8 C 271.6 68.0 262.0 66.0 253.0 66.5 C 246.9 66.5 239.3 66.2 235.5 60.6 C 233.3 56.1 233.5 50.9 233.5 46.0 C 233.5 40.8 233.1 35.2 235.6 30.4 Z" />
<path fill="#ffffff" stroke="#ffffff" stroke-width="0.09375" opacity="1.00" d=" M 298.4 25.6 C 307.1 23.7 316.1 25.0 325.0 24.6 C 330.9 24.7 338.1 25.0 342.1 30.0 C 345.2 36.1 343.9 43.4 344.2 50.0 C 344.0 54.7 344.0 60.6 339.6 63.5 C 332.7 67.5 324.5 66.4 317.0 66.5 C 309.3 66.3 301.1 67.5 294.0 64.0 C 289.1 61.2 288.6 55.0 288.6 50.0 C 288.8 44.0 287.9 37.7 289.9 31.9 C 291.2 28.3 294.8 26.3 298.4 25.6 M 301.7 37.4 C 300.6 42.8 300.2 48.4 301.9 53.8 C 305.4 57.9 311.3 56.0 316.0 56.4 C 321.2 56.0 327.5 58.0 331.4 53.5 C 331.9 48.2 332.0 42.8 331.4 37.5 C 330.0 36.5 328.6 35.6 327.2 34.6 C 320.4 34.7 313.7 34.5 306.9 34.7 C 304.7 34.5 303.2 36.2 301.7 37.4 Z" />
<path fill="#ffffff" stroke="#ffffff" stroke-width="0.09375" opacity="1.00" d=" M 26.1 101.3 C 39.6 101.4 53.0 101.4 66.5 101.3 C 76.7 125.8 88.2 149.9 98.0 174.6 C 90.9 174.5 83.9 174.7 76.8 174.5 C 75.6 170.4 73.1 166.8 72.4 162.5 C 59.2 162.7 45.9 162.7 32.7 162.5 C 31.7 166.8 29.3 170.5 27.9 174.6 C 21.0 174.5 14.0 174.6 7.1 174.6 C 13.1 157.8 21.4 141.7 28.2 125.2 C 28.3 124.3 28.4 122.6 28.5 121.7 C 27.8 121.0 27.2 120.3 26.5 119.6 C 23.7 119.4 20.8 119.3 18.0 119.3 C 20.1 113.1 23.2 107.2 26.1 101.3 M 50.8 120.4 C 48.3 129.0 43.0 136.8 40.9 145.5 C 48.6 145.6 56.4 145.6 64.1 145.5 C 61.7 136.8 56.5 129.1 54.3 120.4 C 53.1 120.4 51.9 120.4 50.8 120.4 Z" />
<path fill="#ffffff" stroke="#ffffff" stroke-width="0.09375" opacity="1.00" d=" M 95.6 101.3 C 117.1 101.4 138.6 101.3 160.1 101.4 C 167.0 101.4 173.1 107.0 173.5 114.0 C 173.8 129.0 173.5 144.0 173.6 159.0 C 173.7 161.8 172.6 164.4 172.3 167.1 L 174.1 166.4 C 179.7 151.6 187.3 137.5 192.6 122.7 C 191.6 121.8 190.7 120.9 190.2 119.6 C 187.3 119.4 184.3 119.4 181.3 119.3 C 184.2 113.3 186.6 107.1 189.8 101.3 C 203.3 101.4 216.8 101.4 230.3 101.4 C 239.7 124.1 250.1 146.5 259.7 169.2 C 260.3 170.4 260.6 172.1 262.3 172.3 C 262.4 156.4 262.3 140.6 262.4 124.8 C 262.4 122.8 261.0 121.3 260.2 119.6 C 256.8 119.4 253.4 119.3 250.0 119.3 C 252.8 113.4 255.1 107.2 258.3 101.5 C 271.8 101.2 285.2 101.5 298.6 101.3 C 302.2 115.4 308.2 129.0 311.8 143.1 C 313.2 142.7 314.0 141.5 314.2 140.2 C 318.1 127.2 323.2 114.5 326.7 101.4 C 338.9 101.3 351.1 101.4 363.3 101.3 C 362.7 125.8 364.0 150.3 362.6 174.7 C 356.0 174.5 349.5 174.5 342.9 174.6 C 342.1 156.6 342.9 138.4 342.5 120.3 C 341.7 120.5 340.8 120.6 339.9 120.8 C 339.6 121.8 339.3 122.9 338.9 123.9 C 333.6 140.8 328.2 157.8 322.5 174.7 C 316.0 174.5 309.5 174.6 303.1 174.6 C 298.2 159.3 292.8 144.2 288.2 128.9 C 287.0 126.2 286.1 123.4 285.4 120.5 C 284.7 120.5 283.2 120.5 282.5 120.5 C 282.8 138.5 282.7 156.5 282.5 174.6 C 268.6 174.6 254.6 174.4 240.6 174.6 C 239.3 170.6 236.9 166.9 236.1 162.7 C 222.9 162.5 209.8 162.8 196.7 162.6 C 194.9 166.6 193.2 170.6 191.6 174.7 C 184.5 174.2 177.3 175.1 170.2 174.2 C 171.3 172.1 172.4 170.0 173.1 167.7 C 169.5 170.6 166.1 174.4 161.0 174.4 C 140.5 174.7 120.0 174.5 99.4 174.5 C 99.3 158.0 99.4 141.5 99.4 125.0 C 99.5 123.1 98.7 121.4 98.1 119.7 C 94.4 119.4 90.7 119.3 87.0 119.3 C 90.1 113.4 92.4 107.1 95.6 101.3 M 119.6 119.8 C 119.7 131.6 119.7 143.4 119.6 155.2 C 130.1 156.3 140.9 155.7 151.5 155.5 C 152.2 154.8 152.8 154.1 153.5 153.4 C 154.0 142.8 154.0 132.2 153.5 121.6 C 152.8 120.9 152.2 120.3 151.6 119.6 C 140.9 119.3 130.2 118.9 119.6 119.8 M 214.8 120.2 C 211.5 127.8 208.6 135.7 204.8 143.0 C 204.7 143.9 204.5 144.7 204.4 145.6 C 212.2 145.5 220.0 145.6 227.7 145.6 C 225.6 137.2 220.7 129.7 218.1 121.5 C 217.8 120.0 215.9 120.5 214.8 120.2 Z" />
</svg>
