<?xml version="1.0" encoding="utf-8"?>
<svg viewBox="3.713 0.585 823.8297 352.7314" width="823.8297" height="352.7314" xmlns="http://www.w3.org/2000/svg">
  <path d="M 328.7 124.26 C 331.39 159.95 332.44 195.82 335.45 231.5 C 335.98 237.76 337.5 241.72 343.71 243.25 L 345.79 245.5 L 345.62 248.86 C 345.6 249.247 345.41 249.513 345.05 249.66 C 343.903 250.107 342.47 250.35 340.75 250.39 C 319.71 250.883 302.96 251.017 290.5 250.79 C 285.59 248.36 288.83 244.1 292.75 243.53 C 302.18 242.15 304.93 240.57 305 230 C 305.02 227.193 304.757 222.61 304.21 216.25 C 304.363 213.81 304.053 211.383 303.28 208.97 C 303.173 208.63 302.94 208.457 302.58 208.45 C 292.087 208.183 281.587 208.14 271.08 208.32 C 267.21 208.39 266.2 208.03 264.21 211.19 C 258.577 220.143 254.933 226.253 253.28 229.52 C 251.59 232.86 249.7 237.25 253.43 239.57 C 255.937 241.137 257.96 241.997 259.5 242.15 C 263.087 242.83 265.837 244.21 267.75 246.29 C 267.28 249.18 265.79 250.79 262.68 250.88 C 257.14 251.04 251.17 250.46 246.11 250.55 C 236.823 250.73 227.537 250.843 218.25 250.89 C 215.08 245.18 217.93 243.73 223.16 242.89 C 232 241.46 237 234.33 242.4 226.6 C 265.887 192.947 289.387 159.303 312.9 125.67 C 317.433 119.177 322.7 118.707 328.7 124.26 L 328.7 124.26 Z M 285.96 198.5 C 291.4 199.087 296.847 199.217 302.3 198.89 C 302.653 198.87 302.84 198.683 302.86 198.33 C 303.327 190.583 302.973 182.77 301.8 174.89 L 300.95 157.07 C 300.923 156.51 300.753 156.463 300.44 156.93 L 272.74 198 C 272.5 198.36 272.593 198.557 273.02 198.59 C 277.373 198.957 281.687 198.927 285.96 198.5 L 285.96 198.5 Z" id="path150" style="fill: rgb(255, 255, 255);"/>
  <path d="M 805.93 123.26 C 807.97 146.09 808.86 170.54 810.7 194.53 C 811.64 206.69 811.93 221.37 813.34 234.42 C 813.84 239.1 816.393 241.78 821 242.46 C 823.41 244.01 825.66 243.45 827.54 246.25 C 827.613 249.077 826.187 250.483 823.26 250.47 C 812.687 250.423 795.43 250.633 771.49 251.1 C 770.23 251.13 769.12 250.77 767.79 250.75 C 766.87 249.863 766.277 248.803 766.01 247.57 C 765.937 247.23 765.983 246.907 766.15 246.6 C 769.83 239.8 780.63 247.05 782.18 235.15 C 783.007 228.87 782.85 222.57 781.71 216.25 C 781.917 213.71 781.763 211.187 781.25 208.68 C 781.183 208.367 780.99 208.21 780.67 208.21 L 744.38 208.34 C 744.053 208.34 743.797 208.473 743.61 208.74 C 738.11 216.327 733.433 224.383 729.58 232.91 C 727.16 238.27 732.86 241.58 737.21 242 C 740.27 243.09 742.69 243.26 745.04 245.75 C 745.85 252.07 737.23 251.06 732.41 250.82 C 721.77 250.28 711.15 250.56 700.5 250.84 C 700.167 250.847 699.87 250.743 699.61 250.53 C 699.243 250.23 698.943 250.213 698.71 250.48 C 698.357 250.88 698.043 250.853 697.77 250.4 C 693.43 243.27 703.42 242.31 707.32 241.16 C 710.52 238.847 713.573 235.617 716.48 231.47 C 740.46 197.283 764.41 163.08 788.33 128.86 C 792.59 122.77 798.2 116.98 805.93 123.26 L 805.93 123.26 Z M 763.93 198.52 C 769.523 199.093 774.913 199.217 780.1 198.89 C 780.773 198.85 781.087 198.497 781.04 197.83 L 779.54 175.1 L 778.84 157.13 C 778.82 156.71 778.667 156.65 778.38 156.95 C 777.827 157.523 777.18 158.357 776.44 159.45 C 767.813 172.19 759.223 184.99 750.67 197.85 C 750.43 198.21 750.527 198.413 750.96 198.46 C 755.353 198.913 759.677 198.933 763.93 198.52 L 763.93 198.52 Z" id="path152" style="fill: rgb(255, 255, 255);"/>
  <path d="M 725.04 127.75 C 723.287 135.63 720.793 143.65 717.56 151.81 C 716.333 154.903 714.147 156.813 711 157.54 C 704.79 150.88 709.51 145.69 707.25 138.46 C 708.37 133.63 702.42 130.59 698.48 130.85 C 664.68 133.11 634.59 155.92 625.02 188.78 C 620.05 205.84 620.58 227.91 636.04 239.71 C 642.67 244.87 648.39 245.91 657.26 245.67 C 661.173 245.563 663.63 243.87 664.63 240.59 C 667.497 231.19 670.2 221.743 672.74 212.25 C 673.02 211.21 673.053 210.203 672.84 209.23 C 673.393 205.75 671.853 203.533 668.22 202.58 C 665.42 201.84 663.09 201.563 661.23 201.75 C 659.09 200.177 658.377 198.09 659.09 195.49 C 659.183 195.163 659.39 194.95 659.71 194.85 C 660.6 194.57 661.86 194.2 662.79 194.19 C 681.837 193.943 700.883 193.923 719.93 194.13 C 721.943 194.157 723.563 194.947 724.79 196.5 C 720.67 205.91 710.24 197.54 705.88 210.27 C 703.6 216.93 701.57 223.687 699.79 230.54 C 698.99 233.6 697.987 235.92 696.78 237.5 C 689.39 247.21 672.31 251.96 661.48 253.12 C 646.32 254.75 624.15 253.55 611.64 243.56 C 611.4 243.373 611.157 243.363 610.91 243.53 L 610.5 243.79 C 597.13 232.66 587.7 220.85 588.36 202.34 C 589.37 174.34 609.29 153.35 632.68 140.67 C 660.02 125.84 690.71 119.55 721.5 125.15 C 722.493 125.33 723.673 126.197 725.04 127.75 L 725.04 127.75 Z" id="path154" style="fill: rgb(255, 255, 255);"/>
  <path d="M 533.04 127.75 C 531.76 137.58 518.84 129.69 515.9 141.68 C 509.753 166.693 503.727 191.737 497.82 216.81 C 496.17 223.81 494.63 230.15 494.76 237.4 C 494.767 237.733 494.873 238.033 495.08 238.3 C 496.86 240.587 499.237 241.653 502.21 241.5 L 508.04 245.5 C 507.28 251.04 502.12 250.96 498.06 250.68 C 477.24 249.21 462.75 250.01 446.25 250.69 C 444.137 249.203 443.387 247.197 444 244.67 C 444.08 244.35 444.257 244.097 444.53 243.91 C 448 241.54 453.99 241.91 458.24 240.06 C 458.567 239.92 458.82 239.7 459 239.4 C 460.52 236.88 461.747 233.893 462.68 230.44 C 466.58 216.013 470.283 201.537 473.79 187.01 C 474.017 186.07 474.043 185.047 473.87 183.94 C 476.923 173.8 479.49 163.997 481.57 154.53 C 481.91 153.003 481.647 152.89 480.78 154.19 C 460.74 184.337 440.567 214.35 420.26 244.23 C 417.453 248.357 413.617 250.043 408.75 249.29 C 406.937 247.997 405.98 246.213 405.88 243.94 C 404.673 215.113 404.017 196.467 403.91 188 C 403.863 184.313 403.603 181.593 403.13 179.84 L 402.12 154.14 C 402.067 152.847 401.817 152.807 401.37 154.02 C 395.697 169.32 389.997 184.98 384.27 201 C 381.77 207.97 373 232.04 377.28 238.08 C 378.76 240.18 380.987 240.987 383.96 240.5 C 383.573 241.46 383.837 241.96 384.75 242 C 388.05 242.153 390.73 242.987 392.79 244.5 L 392.8 247.81 C 392.807 248.157 392.703 248.467 392.49 248.74 C 391.47 250.073 390.053 250.697 388.24 250.61 C 376.373 249.997 365.443 249.877 355.45 250.25 C 355.123 250.263 354.807 250.323 354.5 250.43 L 353.5 250.79 C 351.81 249.66 347.78 245.8 351.27 243.99 C 355.71 241.67 359.04 240.73 361.39 236.33 C 363.717 231.97 365.42 228.277 366.5 225.25 C 374.313 203.37 382.077 181.473 389.79 159.56 C 393.057 150.287 395.113 143.933 395.96 140.5 C 397.073 138.053 396.647 136.15 394.68 134.79 C 392.253 133.103 389.107 132.407 385.24 132.7 C 381.12 129.43 380.67 125.03 387.04 125.01 C 400.933 124.99 414.837 124.99 428.75 125.01 C 430.41 125.017 431.59 125.68 432.29 127 L 435.25 205.43 C 435.263 205.757 435.38 205.797 435.6 205.55 C 438.7 202.017 440.973 198.283 442.42 194.35 C 443.813 193.657 444.713 192.99 445.12 192.35 C 467.187 157.663 481.25 135.897 487.31 127.05 C 488.74 124.97 524.72 124.93 529.7 124.89 C 530.053 124.883 530.357 125.007 530.61 125.26 L 533.04 127.75 Z" id="path156" style="fill: rgb(255, 255, 255);"/>
  <path d="M 608.79 127.25 C 607.88 135.25 596.16 131.54 592.52 137.04 C 591.133 139.127 589.827 142.35 588.6 146.71 C 581.027 173.503 573.493 200.307 566 227.12 C 564.24 233.4 561.93 242.46 572.25 242.21 C 574.777 242.917 577.04 244.097 579.04 245.75 C 578.593 247.517 577.713 248.98 576.4 250.14 C 576.133 250.367 575.827 250.483 575.48 250.49 C 555.24 250.73 534.997 250.843 514.75 250.83 C 513.697 250.83 512.773 250.093 511.98 248.62 C 511.9 248.473 511.92 248.343 512.04 248.23 L 512.25 248.04 L 514.74 244.63 C 514.953 244.337 515.24 244.163 515.6 244.11 C 520.88 243.29 524.667 242.33 526.96 241.23 C 529.97 239.79 530.6 236.87 531.73 233 C 540.243 203.76 548.64 174.487 556.92 145.18 C 557.093 144.547 557.19 143.32 557.21 141.5 C 560.34 134.87 552.36 134.36 548.4 133.69 C 548.187 133.657 547.99 133.703 547.81 133.83 L 547.5 134.04 C 545.4 132.313 544.98 130.337 546.24 128.11 C 546.407 127.81 546.653 127.617 546.98 127.53 C 548.76 127.063 550.037 126.82 550.81 126.8 C 569.043 126.26 587.273 125.647 605.5 124.96 C 606.62 124.92 607.717 125.683 608.79 127.25 L 608.79 127.25 Z" id="path158" style="fill: rgb(255, 255, 255);"/>
  <path d="M 673.85 276.81 C 676.137 282.143 677.737 287.06 678.65 291.56 C 682.93 312.53 681.28 355.8 648.49 353.03 C 645.957 352.817 643.32 351.823 640.58 350.05 C 639.98 349.66 639.46 349.72 638.79 349.75 C 633.01 343.85 629.337 337.02 627.77 329.26 C 624.32 312.2 624.11 277.99 643.43 269.22 C 654.85 264.02 665.59 267.7 673.85 276.81 L 673.85 276.81 Z M 647.21 343.75 C 647.65 344.25 647.973 344.533 648.18 344.6 C 658.23 347.86 665.92 340.6 668.18 331.68 C 671.967 316.687 671.837 301.627 667.79 286.5 C 667.43 285.16 666.5 283.813 665 282.46 L 665.12 281.67 C 665.173 281.343 665.087 281.057 664.86 280.81 C 652.21 267.27 639.65 278.49 637.06 292.32 C 634.39 306.53 632.93 331.69 645.3 343.19 C 645.58 343.45 646.217 343.637 647.21 343.75 L 647.21 343.75 Z" id="path166" style="fill: rgb(255, 255, 255);"/>
  <path d="M 737.99 276.51 C 740.69 282.337 742.417 287.267 743.17 291.3 C 746.18 307.39 746.5 340.73 728.15 350.39 C 721.69 353.8 713.71 354.24 706.74 350.93 C 705.7 350.443 704.623 350.05 703.51 349.75 C 697.39 343.797 693.633 337.133 692.24 329.76 C 688.64 310.75 688.05 266.8 718.15 266.99 C 725.883 267.043 732.497 270.217 737.99 276.51 Z M 711.75 343.46 C 713.03 344.573 714.207 345.167 715.28 345.24 C 739.56 347 735.88 304.77 733.49 291.26 C 732.923 288.087 731.743 285.19 729.95 282.57 C 727.71 278.023 724.313 275.423 719.76 274.77 C 700.76 272.05 699.89 301.53 700.15 312.92 C 700.35 321.54 701.3 341.09 711.75 343.46 L 711.75 343.46 Z" id="path168" style="fill: rgb(255, 255, 255);"/>
  <path d="M 802.04 276.14 C 804.787 281.82 806.633 286.92 807.58 291.44 C 811.39 309.66 810.76 346.14 786.78 352.55 C 780.753 354.163 774.833 353.23 769.02 349.75 C 768.813 349.623 768.59 349.59 768.35 349.65 L 767.75 349.79 C 760.09 341.71 755.91 332.047 755.21 320.8 C 754.05 302.23 754.65 270.53 779.45 267.18 C 788.76 265.93 795.46 269.51 802.04 276.14 L 802.04 276.14 Z M 775.71 343.25 C 779.31 347.32 787.53 345.18 790.6 342.32 C 800.9 332.75 800.01 312 798.94 298.91 C 798.62 295.11 797.66 289.03 796.3 286.24 C 795.687 284.993 795.01 283.593 794.27 282.04 C 790.463 276.167 785.507 273.88 779.4 275.18 C 762.76 278.72 763.5 308.97 764.77 321.11 C 765.37 326.88 768.4 341.99 775.71 343.25 L 775.71 343.25 Z" id="path170" style="fill: rgb(255, 255, 255);"/>
  <path d="M 606.04 274 L 605.99 322.33 C 605.99 322.697 606.17 322.92 606.53 323 C 608.63 323.453 610.5 323.44 612.14 322.96 C 613.46 322.98 614.493 323.207 615.24 323.64 C 615.54 323.813 615.717 324.077 615.77 324.43 L 616.5 329.04 C 616.68 329.727 616.66 330.38 616.44 331 C 616.293 331.4 616.01 331.603 615.59 331.61 L 606.5 331.8 C 606.167 331.807 606 331.977 606 332.31 L 606 351.03 C 606 351.45 605.79 351.673 605.37 351.7 L 601.45 351.97 L 597.76 351.98 C 597.387 351.98 597.19 351.797 597.17 351.43 L 596.48 338.23 C 596.813 336.543 596.753 334.637 596.3 332.51 C 596.213 332.097 595.963 331.89 595.55 331.89 L 563.85 331.72 C 563.577 331.713 563.32 331.783 563.08 331.93 L 562.54 332.25 C 560.39 331.42 557.4 333.04 556.95 329.53 C 556.52 326.14 557.12 323.74 559.52 321.08 C 573.853 305.14 585.957 287.65 595.83 268.61 C 596.023 268.243 596.327 268.06 596.74 268.06 L 604.43 268.06 C 605.203 268.06 605.62 268.443 605.68 269.21 L 606.04 274 Z M 569 322.21 C 569.03 323.69 578.88 322.85 580.25 322.71 C 585.237 323.143 590.297 323.2 595.43 322.88 C 595.75 322.86 595.93 322.69 595.97 322.37 C 596.883 315.177 597.013 307.92 596.36 300.6 C 596.86 295.32 596.73 290.02 595.97 284.7 L 595.98 283.19 C 595.983 283.005 595.785 282.887 595.623 282.976 C 595.584 282.998 595.552 283.031 595.53 283.07 C 588.03 296.243 579.433 308.66 569.74 320.32 C 569.533 320.567 569.383 320.85 569.29 321.17 L 569 322.21 Z" id="path172" style="fill: rgb(255, 255, 255);"/>
  <path style="fill: rgb(255, 255, 255);" d="M 192.868 248.888 L 146.857 248.888 L 59.097 117.204 L 105.532 117.204 L 192.868 248.888 Z" id="path52-1"/>
  <path style="fill: rgb(255, 255, 255);" d="M 193.348 248.888 L 149.468 248.888 L 311.359 0.587 L 357.37 0.587 L 193.348 248.888 Z" id="path77-3"/>
  <path style="fill: rgb(255, 255, 255);" d="M 137.486 248.886 L 91.475 248.886 L 3.713 117.204 L 50.151 117.204 L 137.486 248.886 Z" id="path96-0"/>
  <path style="fill: rgb(255, 255, 255);" d="M 137.966 248.886 L 94.084 248.886 L 255.973 0.585 L 301.984 0.585 L 137.966 248.886 Z" id="path121-1"/>
</svg>