<?xml version="1.0" encoding="utf-8"?>
<svg version="1.1" id="Layer_1" x="0px" y="0px" viewBox="0 0 3569.4 314.2" style="enable-background:new 0 0 3839 629.2;" xmlns="http://www.w3.org/2000/svg">
  <style type="text/css">
	.st0{fill:#C70A11;}
	.st1{fill:#2FBB37;}
	.st2{fill:#1E35A0;}
	.st3{fill:#FFFFFF;}
</style>
  <polygon class="st0" points="100 14.2 0 305.8 147 305.8 247 14.2" style="fill: rgb(255, 255, 255);"/>
  <polygon class="st1" points="301 14.2 201 305.8 348.1 305.8 448.1 14.2" style="fill: rgb(255, 255, 255);"/>
  <polygon class="st2" points="502.1 14.2 402.1 305.8 549.1 305.8 649.1 14.2" style="fill: rgb(255, 255, 255);"/>
  <path d="M 1100.7 203.9 C 1130 178.8 1150.9 154.4 1150.9 107.1 C 1150.9 60.2 1126.6 17.9 1030.3 17.9 L 1003.5 17.9 L 953.3 17.9 C 929.7 17.9 910.5 37 910.5 60.7 L 910.5 305.7 L 1003.5 305.7 L 1003.5 100.7 L 1030.3 100.7 C 1057.9 100.7 1069 135.2 1040.7 145 C 1011.4 155.2 1004.3 205.2 1022.9 235.3 L 1066.3 305.6 L 1163.6 305.6 L 1100.7 203.9 Z" style="fill: rgb(255, 255, 255);"/>
  <rect x="1957.5" y="18" width="93" height="287.8" style="fill: rgb(255, 255, 255);"/>
  <path d="M 2810.9 181.1 C 2838.3 159.6 2852.7 125.1 2847.6 90.6 C 2847.1 88 2846.6 86 2846.2 84.6 C 2812.1 -21.5 2650.3 -21.4 2616.3 84.8 C 2612.9 95.5 2610.7 107.4 2610.2 120.4 C 2610.2 120.9 2610.6 121.3 2611.1 121.3 L 2703.2 121.3 C 2702.7 118.2 2702.6 115.2 2702.9 112.2 C 2703.4 101.6 2709.9 93.6 2718.3 89.3 C 2743 76.7 2764.3 112.3 2742.4 129.5 L 2619.4 225.9 C 2586 252.1 2604.5 305.8 2647 305.8 L 2651.6 305.8 C 2651.7 305.8 2651.9 305.7 2652.1 305.7 L 2652 305.8 L 2848.6 305.8 L 2848.6 223 L 2757.6 223 L 2810.9 181.1 Z" style="fill: rgb(255, 255, 255);"/>
  <rect x="2403.7" y="133.8" width="132.2" height="82.8" style="fill: rgb(255, 255, 255);"/>
  <path d="M 3432.9 2.4 L 3432.9 85.3 L 3464.7 85.3 C 3471.2 85.3 3476.4 90.6 3476.4 97 L 3476.4 305.8 L 3569.4 305.8 L 3569.4 52.5 C 3569.4 24.9 3547 2.5 3519.4 2.5 L 3432.9 2.4 Z" style="fill: rgb(255, 255, 255);"/>
  <path d="M 1788.3 18.5 L 1773.5 18 L 1773.4 18 L 1766.6 18 L 1716.4 18 C 1692.8 18 1673.6 37.1 1673.6 60.8 L 1673.6 263.1 C 1673.6 286.7 1692.7 305.8 1716.4 305.8 L 1788.4 305.8 C 1984 293.1 1984 31.2 1788.3 18.5 Z M 1773.4 223 L 1766.6 223 L 1766.6 100.8 L 1773.4 100.8 C 1864.9 100.9 1864.9 223 1773.4 223 Z" style="fill: rgb(255, 255, 255);"/>
  <path d="M 1325.2 100.8 L 1360.5 100.8 L 1360.5 18 L 1325.2 18 C 1109.7 18 1109.7 305.8 1325.2 305.7 L 1325.2 305.8 L 1360.5 305.8 L 1360.5 223 L 1325.2 223 L 1325.2 222.9 C 1233.7 222.9 1233.7 100.8 1325.2 100.8 Z" style="fill: rgb(255, 255, 255);"/>
  <path d="M 802 305.8 L 895 305.8 L 809.7 56.9 C 789.9 -0.9 708.1 -0.9 688.4 56.9 L 603.1 305.8 L 696.1 305.8 L 705.6 266.8 L 792.4 266.8 L 802 305.8 Z M 721.8 200.6 L 743.4 112.1 C 744.5 105.8 753.5 105.8 754.6 112.1 L 776.2 200.6 L 721.8 200.6 Z" style="fill: rgb(255, 255, 255);"/>
  <path d="M 1570 305.8 L 1663 305.8 L 1577.7 56.9 C 1557.9 -0.9 1476.1 -0.9 1456.4 56.9 L 1371.1 305.8 L 1464.1 305.8 L 1473.6 266.8 L 1560.4 266.8 L 1570 305.8 Z M 1489.8 200.6 L 1511.4 112.1 C 1512.5 105.8 1521.5 105.8 1522.6 112.1 L 1544.2 200.6 L 1489.8 200.6 Z" style="fill: rgb(255, 255, 255);"/>
  <path d="M 2264.1 305.8 L 2357.1 305.8 L 2271.8 56.9 C 2252 -0.9 2170.2 -0.9 2150.5 56.9 L 2065.2 305.8 L 2158.2 305.8 L 2167.7 266.8 L 2254.5 266.8 L 2264.1 305.8 Z M 2184 200.6 L 2205.6 112.1 C 2206.7 105.8 2215.7 105.8 2216.8 112.1 L 2238.4 200.6 L 2184 200.6 Z" style="fill: rgb(255, 255, 255);"/>
  <path d="M 3005.1 0 C 2908.7 0 2873.1 70.3 2873.1 157.1 C 2873.1 243.9 2908.7 314.2 3005.1 314.2 C 3101.5 314.2 3137.1 243.9 3137.1 157.1 C 3137.1 70.3 3101.5 0 3005.1 0 Z M 3005.1 231.4 C 2983.5 231.4 2966 213.4 2966 157.1 C 2966 100.8 2983.4 82.8 3005.1 82.8 C 3026.7 82.8 3044.2 100.8 3044.2 157.1 C 3044.2 213.4 3026.6 231.4 3005.1 231.4 Z" style="fill: rgb(255, 255, 255);"/>
  <path d="M 3290.5 0 C 3194.1 0 3158.5 70.3 3158.5 157.1 C 3158.5 243.9 3194.1 314.2 3290.5 314.2 C 3386.9 314.2 3422.5 243.9 3422.5 157.1 C 3422.5 70.3 3387 0 3290.5 0 Z M 3290.5 231.4 C 3268.9 231.4 3251.4 213.4 3251.4 157.1 C 3251.4 100.8 3268.8 82.8 3290.5 82.8 C 3312.1 82.8 3329.6 100.8 3329.6 157.1 C 3329.6 213.4 3312.1 231.4 3290.5 231.4 Z" style="fill: rgb(255, 255, 255);"/>
  <polygon points="2848.4 223 2848.4 305.8 2651.9 305.8 2713.9 223" style="fill: rgb(255, 255, 255);"/>
  <rect x="1325.4" y="223" width="35.3" height="82.8" style="fill: rgb(255, 255, 255);"/>
  <rect x="1325.4" y="18" width="35.3" height="82.8" style="fill: rgb(255, 255, 255);"/>
</svg>