<?xml version="1.0" encoding="utf-8"?>
<svg version="1.1" viewBox="0 0 3840 569.9" xmlns="http://www.w3.org/2000/svg">
  <path class="st2" d="M 480.5 14.8 L 59.8 14.8 C 26.9 14.8 0 41.7 0 74.6 L 0 495.3 C 0 528.2 26.9 555.1 59.8 555.1 L 480.5 555.1 C 513.4 555.1 540.3 528.2 540.3 495.3 L 540.3 74.6 C 540.2 41.7 513.4 14.8 480.5 14.8 Z M 234.8 179.7 C 234.9 197.2 234.4 214.6 233.7 232 C 232.5 257.2 230.9 282.4 226.8 307.3 C 223.9 324.5 218 341 210.6 356.7 C 198.6 382 179.7 403.4 158.5 421.4 C 139.5 438.1 116.9 450.3 93 458.5 C 79.5 463.1 65.7 466.7 51.5 468.7 C 51.5 451.2 51.5 433.6 51.5 416.1 C 68.5 413.5 84.8 407.5 100 399.5 C 118 390 134.2 377.2 147.9 362.1 C 162 346.5 173.2 328.5 181.8 309.3 C 191.8 287.3 197.2 263.5 200.9 239.6 C 205.5 209.3 207.4 178.7 208.1 148 C 208.2 137.6 208.1 127.2 208.1 116.9 C 217 116.9 225.9 116.9 234.8 116.9 C 234.9 137.9 234.8 158.8 234.8 179.7 Z M 294.7 468.8 C 278.4 468.8 262 468.7 245.7 468.9 C 245.5 431.5 245.7 394.1 245.6 356.7 C 245.6 276.8 245.6 197 245.6 117.1 C 262 117 278.3 117.1 294.7 117.1 C 294.7 234.2 294.7 351.5 294.7 468.8 Z M 488.6 468.7 C 474.6 466.8 460.8 463.2 447.5 458.6 C 431.6 453.1 416.2 445.9 402 436.7 C 391.7 430.1 382.3 422.1 373.2 413.8 C 358.3 400.1 345 384.5 335 366.8 C 327.2 353.1 321.5 338.2 317 323 C 312.9 307.8 311.2 292 309.6 276.4 C 306.5 242.6 305.4 208.6 305.6 174.6 C 305.6 155.4 305.6 136.2 305.6 116.9 C 314.4 116.9 323.3 116.9 332.1 116.9 C 331.8 152.6 333 188.5 337.3 224 C 340.8 251.6 345.7 279.4 356.7 305.1 C 367.1 330 382.1 353.1 401.7 371.7 C 420.4 389.5 443 403.2 467.6 411.1 C 474.5 413.3 481.5 415 488.6 416.1 C 488.6 433.7 488.6 451.2 488.6 468.7 Z" style="fill: rgb(255, 255, 255);"/>
  <path class="st2" d="M 793.8 37.7 C 814.8 10.8 858.3 6.2 884.1 28.8 C 894.6 37.7 902 49.9 905.8 63.1 C 953.5 227.3 1001.5 391.4 1049.1 555.6 C 1020.9 555.6 992.8 555.5 964.6 555.6 C 951.3 510.3 938.3 465 925.2 419.7 C 870.7 419.6 816.3 419.7 761.9 419.6 C 748.6 464.9 735.4 510.2 722.3 555.6 C 694.3 555.5 666.3 555.6 638.3 555.5 C 683.6 399 729 242.4 774.6 85.8 C 780 69.4 782 51.1 793.8 37.7 M 843.6 138.3 C 823.6 206.3 804.1 274.5 784.2 342.5 C 823.8 342.7 863.3 342.6 902.9 342.6 C 883.1 274.5 863.4 206.4 843.6 138.3 Z" style="fill: rgb(255, 255, 255);"/>
  <path class="st2" d="M 1387.1 41.2 C 1401.8 19.9 1430.1 9.6 1455.1 16.2 C 1478 21.5 1495.5 41.2 1501.5 63.4 C 1549.2 227.5 1597 391.5 1644.7 555.6 C 1616.5 555.8 1588.3 555.6 1560.1 555.7 C 1547 510.4 1534 465 1520.8 419.7 C 1466.4 419.7 1412.1 419.6 1357.7 419.7 C 1344.7 465 1331.3 510.3 1318.3 555.6 C 1290.3 555.6 1262.4 555.6 1234.4 555.6 C 1279.7 398.1 1325.6 240.7 1371.2 83.3 C 1376 69.2 1377.9 53.5 1387.1 41.2 M 1380.2 342.6 C 1419.6 342.7 1459 342.6 1498.4 342.6 C 1478.8 274.3 1458.9 206.2 1439.3 138 C 1419.7 206.2 1399.8 274.4 1380.2 342.6 Z" style="fill: rgb(255, 255, 255);"/>
  <path class="st2" d="M 986.1 15.4 C 1088 15.4 1189.9 15.4 1291.7 15.4 C 1291.7 42.9 1291.7 70.3 1291.7 97.8 C 1254.2 97.8 1216.7 97.8 1179.2 97.8 C 1179.2 250.4 1179.2 403 1179.2 555.6 C 1152.3 555.6 1125.5 555.6 1098.6 555.6 C 1098.6 403 1098.6 250.4 1098.6 97.8 C 1061.1 97.7 1023.6 97.8 986.1 97.8 C 986.1 70.3 986 42.9 986.1 15.4 Z" style="fill: rgb(255, 255, 255);"/>
  <path class="st2" d="M 1734.3 18.7 C 1742 16 1750.3 15.1 1758.5 15.3 C 1790.6 15.4 1822.8 15.3 1854.9 15.3 C 1909 16.3 1960.6 49.9 1984 98.5 C 2000.2 130.1 2001.9 166.9 1997.8 201.6 C 1995 237.9 1979.7 274.2 1951.8 298.3 C 1937.1 311.4 1918.7 319.4 1902.9 331.1 C 1894.2 337.7 1893.8 350.5 1898.3 359.7 C 1940.9 425.5 1985.3 490.3 2028.8 555.6 C 1997 555.7 1965.1 555.5 1933.3 555.7 C 1891.6 493.1 1850.4 430.2 1808.9 367.5 C 1796.7 349.7 1793.4 326 1800.7 305.7 C 1806.4 290.1 1820.1 278.7 1835.3 272.8 C 1864.3 261.7 1892.9 244.3 1909 216.9 C 1921.2 196.3 1920.6 170.9 1915.1 148.4 C 1908.7 119.2 1880.2 96.2 1850.1 97.2 C 1829.3 97.3 1808.5 97.1 1787.7 97.3 C 1778.3 97.1 1769.4 105.3 1769.6 114.8 C 1769.5 261.8 1769.6 408.7 1769.6 555.7 C 1742.5 555.6 1715.5 555.7 1688.4 555.7 C 1688.3 397.5 1688.5 239.3 1688.3 81 C 1688.3 53.2 1708 27.1 1734.3 18.7 Z" style="fill: rgb(255, 255, 255);"/>
  <path class="st2" d="M 2071.3 15.4 C 2099.8 15.4 2128.2 15.4 2156.7 15.4 C 2156.7 195.5 2156.8 375.6 2156.6 555.7 C 2128.2 555.6 2099.7 555.7 2071.2 555.7 C 2071.3 375.5 2071.3 195.4 2071.3 15.4 Z" style="fill: rgb(255, 255, 255);"/>
  <path class="st2" d="M 2478.8 198.5 C 2507.8 198.5 2531.4 175 2531.4 145.9 C 2531.4 116.8 2507.9 93.3 2478.8 93.3 C 2449.8 93.3 2426.2 116.8 2426.2 145.9 C 2426.2 175 2449.7 198.5 2478.8 198.5 Z M 2478.8 128.1 C 2488.6 128.1 2496.6 136.1 2496.6 145.9 C 2496.6 155.7 2488.6 163.7 2478.8 163.7 C 2469 163.7 2461 155.7 2461 145.9 C 2461 136.1 2468.9 128.1 2478.8 128.1 Z" style="fill: rgb(255, 255, 255);"/>
  <path class="st2" d="M 2614.7 207.4 C 2622.8 188.9 2627 168.9 2627 148.3 C 2627 66.5 2560.5 0 2478.8 0 C 2397.1 0 2330.5 66.5 2330.5 148.3 C 2330.5 168.9 2334.7 188.9 2342.8 207.4 C 2297.9 246.4 2271.9 302.5 2271.9 363.1 C 2271.9 477.1 2364.7 569.9 2478.7 569.9 C 2592.7 569.9 2685.5 477.1 2685.5 363.1 C 2685.6 302.5 2659.6 246.3 2614.7 207.4 Z M 2478.8 535.1 C 2383.8 535.1 2306.7 458.1 2306.7 363 C 2306.7 301.1 2339.5 247.1 2388.5 216.7 C 2374 197.6 2365.3 173.9 2365.3 148.1 C 2365.3 85.4 2416.1 34.6 2478.8 34.6 C 2541.5 34.6 2592.3 85.4 2592.3 148.1 C 2592.3 173.9 2583.6 197.6 2569.1 216.7 C 2618.1 247 2650.9 301.1 2650.9 363 C 2650.8 458.1 2573.8 535.1 2478.8 535.1 Z" style="fill: rgb(255, 255, 255);"/>
  <path class="st2" d="M 2478.8 263.2 C 2422 263.2 2376 309.2 2376 366 C 2376 422.8 2422 468.8 2478.8 468.8 C 2535.6 468.8 2581.6 422.8 2581.6 366 C 2581.6 309.2 2535.5 263.2 2478.8 263.2 Z M 2478.8 433.9 C 2441.3 433.9 2410.8 403.4 2410.8 365.9 C 2410.8 328.4 2441.3 297.9 2478.8 297.9 C 2516.3 297.9 2546.8 328.4 2546.8 365.9 C 2546.8 403.4 2516.3 433.9 2478.8 433.9 Z" style="fill: rgb(255, 255, 255);"/>
  <path class="st2" d="M 2974.9 0 C 2817.8 0 2689.9 127.8 2689.9 285 C 2689.9 442.1 2817.7 570 2974.9 570 C 3132 570 3259.8 442.2 3259.8 285 C 3259.9 127.8 3132 0 2974.9 0 Z M 2974.9 535.2 C 2836.9 535.2 2724.7 422.9 2724.7 285 C 2724.7 147 2837 34.8 2974.9 34.8 C 3112.9 34.8 3225.1 147.1 3225.1 285 C 3225.1 422.9 3112.9 535.2 2974.9 535.2 Z" style="fill: rgb(255, 255, 255);"/>
  <path class="st2" d="M 2974.9 101 C 2873.5 101 2790.9 183.5 2790.9 285 C 2790.9 386.4 2873.4 469 2974.9 469 C 3076.3 469 3158.9 386.5 3158.9 285 C 3158.9 183.5 3076.3 101 2974.9 101 Z M 2974.9 434.2 C 2892.6 434.2 2825.6 367.2 2825.6 285 C 2825.6 202.7 2892.6 135.8 2974.9 135.8 C 3057.2 135.8 3124.1 202.8 3124.1 285 C 3124.1 367.3 3057.2 434.2 2974.9 434.2 Z" style="fill: rgb(255, 255, 255);"/>
  <path class="st2" d="M 3555.1 0 C 3398 0 3270.1 127.8 3270.1 285 C 3270.1 442.1 3397.9 570 3555.1 570 C 3712.2 570 3840 442.2 3840 285 C 3840 127.8 3712.2 0 3555.1 0 Z M 3555.1 535.2 C 3417.1 535.2 3304.9 422.9 3304.9 285 C 3304.9 147 3417.2 34.8 3555.1 34.8 C 3693.1 34.8 3805.3 147.1 3805.3 285 C 3805.3 422.9 3693 535.2 3555.1 535.2 Z" style="fill: rgb(255, 255, 255);"/>
  <path class="st2" d="M 3555.1 101 C 3453.7 101 3371.1 183.5 3371.1 285 C 3371.1 386.4 3453.6 469 3555.1 469 C 3656.5 469 3739.1 386.5 3739.1 285 C 3739 183.5 3656.5 101 3555.1 101 Z M 3555.1 434.2 C 3472.8 434.2 3405.8 367.2 3405.8 285 C 3405.8 202.7 3472.8 135.8 3555.1 135.8 C 3637.4 135.8 3704.3 202.8 3704.3 285 C 3704.3 367.3 3637.3 434.2 3555.1 434.2 Z" style="fill: rgb(255, 255, 255);"/>
</svg>