<?xml version="1.0" encoding="UTF-8" standalone="no"?>
<svg
   version="1.1"
   id="Layer_1"
   x="0px"
   y="0px"
   viewBox="0 0 4238.56 1717.2703"
   preserveAspectRatio="xMinYMin"
   sodipodi:docname="atarijaguarcd.svg"
   inkscape:version="1.3.2 (091e20e, 2023-11-25, custom)"
   width="4238.5601"
   height="1717.2704"
   xmlns:inkscape="http://www.inkscape.org/namespaces/inkscape"
   xmlns:sodipodi="http://sodipodi.sourceforge.net/DTD/sodipodi-0.dtd"
   xmlns="http://www.w3.org/2000/svg"
   xmlns:svg="http://www.w3.org/2000/svg">
  <defs
     id="defs22" />
  <sodipodi:namedview
     id="namedview22"
     pagecolor="#505050"
     bordercolor="#eeeeee"
     borderopacity="1"
     inkscape:showpageshadow="0"
     inkscape:pageopacity="0"
     inkscape:pagecheckerboard="0"
     inkscape:deskcolor="#505050"
     inkscape:zoom="0.11277308"
     inkscape:cx="1392.1762"
     inkscape:cy="2376.4536"
     inkscape:window-width="1278"
     inkscape:window-height="1000"
     inkscape:window-x="-7"
     inkscape:window-y="0"
     inkscape:window-maximized="0"
     inkscape:current-layer="Layer_1" />
  <style
     type="text/css"
     id="style1">
	.st0{fill-rule:evenodd;clip-rule:evenodd;}
	.st1{fill:#FFFFFF;}
	.st2{fill-rule:evenodd;clip-rule:evenodd;fill:#FFFFFF;}
</style>
  <g
     transform="translate(356.11532,-0.0295875)"
     id="g8"
     style="fill:#ffffff">
    <path
       class="st1"
       d="m 1266.6,0.7 c 7.5,0 15.1,0 22.6,0 0,17.7 0,35.4 0,53.1 0.1,14.8 -0.3,29.5 -0.9,44.3 -1,21.3 -2.3,42.7 -5.9,63.7 -2.4,14.5 -7.4,28.5 -13.7,41.8 -10.2,21.4 -26.1,39.6 -44.1,54.8 -16.1,14.1 -35.2,24.4 -55.4,31.4 -11.4,3.9 -23.1,7 -35.1,8.6 0,-14.8 0,-29.7 0,-44.5 14.4,-2.2 28.2,-7.3 41.1,-14 15.2,-8.1 29,-18.9 40.5,-31.7 11.9,-13.2 21.4,-28.5 28.7,-44.7 8.5,-18.7 13,-38.8 16.1,-59 3.9,-25.6 5.5,-51.6 6.1,-77.5 0,-8.8 0,-17.6 0,-26.3 z"
       id="path1"
       style="fill:#ffffff" />
    <path
       class="st1"
       d="m 1298.3,0.7 c 13.8,-0.1 27.7,0 41.6,0 0,99.3 0,198.5 0,297.8 -13.8,0 -27.7,-0.1 -41.5,0 -0.2,-31.7 0,-63.3 -0.1,-95 0,-67.6 0,-135.2 0,-202.8 z"
       id="path2"
       style="fill:#ffffff" />
    <path
       class="st1"
       d="m 1349.1,0.6 c 7.5,0 15,0 22.4,0 -0.2,30.3 0.8,60.6 4.4,90.7 2.9,23.4 7.1,46.9 16.4,68.6 8.8,21 21.5,40.6 38.1,56.4 15.8,15.1 35,26.7 55.8,33.4 5.8,1.9 11.8,3.3 17.8,4.2 0,14.8 0,29.7 0,44.5 -11.9,-1.6 -23.5,-4.7 -34.8,-8.5 -13.5,-4.7 -26.5,-10.8 -38.5,-18.6 -8.7,-5.6 -16.7,-12.4 -24.3,-19.4 -12.6,-11.6 -23.9,-24.8 -32.3,-39.8 -6.6,-11.6 -11.5,-24.2 -15.2,-37.1 -3.5,-12.9 -4.9,-26.2 -6.3,-39.5 -2.6,-28.6 -3.6,-57.4 -3.4,-86.2 -0.1,-16.1 -0.1,-32.4 -0.1,-48.7 z"
       id="path3"
       style="fill:#ffffff" />
    <path
       class="st1"
       d="m 1640.7,12.9 c 11.6,-14.8 35.6,-17.3 49.8,-4.9 5.8,4.9 9.9,11.6 12,18.9 26.3,90.5 52.7,181 79,271.6 -15.5,0 -31.1,0 -46.6,0 -7.3,-25 -14.5,-50 -21.7,-74.9 -30,-0.1 -60,0 -90.1,0 -7.3,25 -14.6,50 -21.8,75 -15.4,0 -30.9,0 -46.3,0 25,-86.4 50,-172.7 75.1,-259.1 3,-9.1 4.1,-19.2 10.6,-26.6 m 27.4,55.5 c -11,37.5 -21.8,75.1 -32.7,112.6 21.8,0.1 43.6,0 65.5,0 -11,-37.5 -21.9,-75 -32.8,-112.6 z"
       id="path4"
       style="fill:#ffffff" />
    <path
       class="st1"
       d="m 1967.8,14.9 c 8.1,-11.7 23.7,-17.4 37.5,-13.8 12.6,2.9 22.3,13.8 25.6,26 26.3,90.5 52.7,180.9 78.9,271.4 -15.5,0.1 -31.1,0 -46.6,0.1 -7.2,-25 -14.4,-50 -21.7,-75 -30,0 -59.9,-0.1 -89.9,0 -7.2,25 -14.6,49.9 -21.7,74.9 -15.4,0 -30.8,0 -46.3,0 25,-86.8 50.3,-173.6 75.4,-260.4 2.7,-7.8 3.8,-16.4 8.8,-23.2 m -3.8,166.2 c 21.7,0 43.5,0 65.2,0 -10.8,-37.6 -21.8,-75.2 -32.6,-112.8 -10.8,37.6 -21.7,75.1 -32.6,112.8 z"
       id="path5"
       style="fill:#ffffff" />
    <path
       class="st1"
       d="m 1746.7,0.6 c 56.2,0 112.3,0 168.5,0 0,15.2 0,30.3 0,45.4 -20.7,0 -41.4,0 -62,0 0,84.1 0,168.3 0,252.4 -14.8,0 -29.6,0 -44.4,0 0,-84.1 0,-168.3 0,-252.4 -20.7,0 -41.4,0 -62,0 -0.1,-15.1 -0.1,-30.2 -0.1,-45.4 z"
       id="path6"
       style="fill:#ffffff" />
    <path
       class="st1"
       d="m 2159.3,2.5 c 4.3,-1.5 8.8,-2 13.3,-1.9 17.7,0.1 35.4,0 53.1,0 29.8,0.5 58.3,19.1 71.2,45.9 8.9,17.4 9.9,37.7 7.6,56.8 -1.6,20 -9.9,40 -25.3,53.3 -8.1,7.2 -18.2,11.6 -27,18.1 -4.8,3.6 -5,10.7 -2.6,15.8 23.5,36.3 47.9,72 71.9,108 -17.5,0 -35.1,0 -52.7,0 -23,-34.5 -45.7,-69.2 -68.6,-103.8 -6.7,-9.8 -8.6,-22.9 -4.5,-34.1 3.1,-8.6 10.7,-14.9 19.1,-18.2 16,-6.1 31.8,-15.7 40.6,-30.8 6.7,-11.3 6.4,-25.3 3.4,-37.8 -3.6,-16.1 -19.3,-28.8 -35.9,-28.2 -11.5,0.1 -22.9,0 -34.4,0 -5.2,-0.1 -10.1,4.4 -10,9.6 -0.1,81 0,162.1 0,243.1 -14.9,0 -29.8,0 -44.8,0 0,-87.2 0,-174.5 0,-261.7 0.2,-15.1 11.1,-29.5 25.6,-34.1 z"
       id="path7"
       style="fill:#ffffff" />
    <path
       class="st1"
       d="m 2345.1,0.6 c 15.7,0 31.4,0 47.1,0 0,99.3 0,198.6 0,297.9 -15.7,0 -31.4,0 -47.1,0 0,-99.3 0,-198.6 0,-297.9 z"
       id="path8"
       style="fill:#ffffff" />
  </g>
  <path
     class="st1"
     d="m 1499.2653,531.87041 c 20.1,5.2 17.8,37.2 42.4,26.8 6.7,-1.5 14.9,6.7 8.9,14.9 -3.7,2.2 -8.2,4.5 -12.7,6.7 3.7,7.4 11.9,17.1 3.7,25.3 -22.3,11.9 -48.3,12.7 -72.9,19.3 -88.5,33.5 -184.4,101.2 -221.6,194.8 -18.6,62.5 -21.6,142.8 16.4,197.79999 31.2,32 67.7,66.2 112.3,73.6 39.4,8.9 73.6,-5.9 101.9,-30.5 0,-8.9 -17.8,-13.4 -7.4,-21.6 -20.8,-25.3 2.2,-52.79999 -3.7,-80.29999 7.4,-29 10.4,-52.8 21.6,-80.3 -16.4,-1.5 -32,9.7 -49.8,10.4 7.4,-3.7 0,-13.4 -5.2,-6.7 -33.5,15.6 -69.2,25.3 -100.4,46.1 -4.5,-0.7 -12.7,-4.4 -6.7,-10.4 32.8,-9.6 20.1,-53.5 57.3,-55.8 5.2,-22.3 32,-25.3 51.3,-29.7 -5.2,-22.3 20.1,-8.2 29,-14.9 26,-13.4 55.8,-20.1 78.1,-44.6 10.4,-5.2 20.1,-3 23.1,8.9 0.8,4.4 -0.8,8.9 3.7,11.2 11.9,-1.5 20.8,-20.1 32,-11.2 -0.8,115.3 -68.4,217.9 -40.9,336.09999 -1.5,11.1 2.2,24.5 3.7,37.2 -2.3,3.7 -6,3.7 -8.9,5.2 -3.7,-3 0,-8.9 -3.7,-12.7 -25.3,13.4 -12.7,-26.8 -33.5,-23.1 -10.4,-10.4 -15.6,-26 -32.7,-24.5 -20.8,22.3 -35,55 -67.7,60.2 -43.9,11.9 -95.2,4.5 -135.4,-19.3 -58.8,-23.1 -100.4,-77.3 -125,-132.4 -25.3,-101.89999 -20.1,-221.59999 37.2,-307.09999 10.4,-34.2 43.9,-54.3 58.7,-87 29.7,-16.4 42.4,-56.5 73.6,-73.6 5.2,0.8 12.7,0 12.7,-6.7 37.9,-21.6 80.3,-31.2 124.9,-37.9 9,23.9 46.9,4.6 35.7,35.8"
     id="path9"
     style="fill:#ffffff" />
  <path
     class="st1"
     d="m 2380.5653,638.97041 c -38.7,48.3 -81.1,95.2 -104.9,150.2 h 5.2 c 6.7,-10.4 32,-3.7 35.7,-23.1 18.6,-5.9 35,-28.3 57.3,-14.1 -7.4,-15.6 14.1,-20.1 1.5,-30.5 -1.5,-8.2 0.8,-20.1 10.4,-23.1 -2.2,-19.3 11.9,-35.7 11.2,-55.8 -0.8,3 -5.9,9.6 -11.2,8.9 -3.7,-2.8 -5.9,-6.5 -5.2,-12.5 m -515.4,-181.5 c -11.9,19.3 26,29 5.2,47.6 11.9,8.2 24.5,3.7 32,20.1 -12.7,36.4 -38.7,67.7 -53.5,103.4 -24.5,16.4 -13.4,47.6 -28.3,67.7 -26,37.2 -50.6,75.1 -61,118.2 -49.1,64.7 -72.9,140.5 -94.5,217.19999 -3.7,11.1 -3,26.8 8.9,32.7 33.5,4.4 56.5,-35 81.8,-48.3 9.7,-15.6 30.5,-20.09999 37.9,-37.89999 36.4,-33.5 92.2,-69.2 95.9,-121.2 16.4,-14.1 1.5,-40.9 21.6,-53.5 0,-19.3 0,-43.9 17.9,-51.3 -4.5,-14.1 -8.2,-29.7 3.7,-41.6 -2.2,-5.2 3.7,-8.2 1.5,-14.1 5.2,3 11.2,-4.4 16.4,-6.7 19.3,-13.4 -16.4,-23.1 3.7,-35.7 12.6,-16.4 16.3,-41.6 33.5,-50.6 -5.9,-10.4 11.9,-15.6 11.2,-26.8 14.9,-20.8 22.3,-46.9 44.6,-64 8.9,8.2 26,-1.5 32,14.1 14.9,-7.4 27.5,-8.2 42.4,0 5.2,8.9 13.4,18.6 8.9,29 -2.2,5.2 -8.2,8.9 -6.7,15.6 9.7,5.2 23.8,8.9 23.1,23.1 v 11.2 c -75.1,133.9 -133.1,274.4 -182.2,419.49999 -0.8,13.4 -6.7,27.5 -1.5,40.9 3.7,8.9 12.6,20.1 23,21.6 3,3 6.7,8.2 10.4,3.7 22.3,-43.9 62.5,-75.9 84,-119.69999 -14.9,2.2 -32,9.7 -48.4,14.1 -2.2,-11.9 14.1,-18.6 14.9,-31.9 3,-10.4 -15.6,-8.9 -5.9,-17.9 15.6,-8.9 37.2,-12.6 44.6,-29 14.9,-11.9 37.9,-10.4 44.6,-32 37.9,-8.2 35,-49.1 59.5,-71.4 3.7,-23.1 28.3,-35.7 37.2,-55.1 3,2.3 6.7,1.5 8.9,-2.2 -6,-27.5 42.4,-26.8 37.2,-58.8 21.6,-6.7 18.6,-29.7 35.7,-40.9 12.7,-17.1 25.3,-35.7 44.7,-48.4 -2.3,-4.4 4.4,-5.2 3.7,-8.9 25.3,-25.3 67.7,-40.9 64.7,-80.3 0.8,-10.4 1.5,-26.8 14.1,-33.5 12.6,0 24.5,5.9 33.5,10.4 0.8,5.9 -2.2,17.1 7.4,16.4 26,6.7 43.9,0 67.7,11.9 3.7,3 0,8.2 3.7,11.2 -50.6,208.2 -39.4,449.2 -71.4,665.59999 4.5,30.5 -7.4,63.2 -3.7,90.7 -5.2,3.7 -4.5,12.6 -10.4,8.9 1.5,-4.5 -3,-7.4 -5.2,-10.4 0,-10.4 3,-26.8 -6,-35.7 -1.5,3 -5.2,3.7 -8.9,3.7 -5.2,-3.7 -3,-10.4 -8.9,-14.1 17.1,-5.2 12.7,-23.8 11.2,-35.7 -11.2,-0.8 -8.9,-13.4 -14.1,-20.1 3,-4.5 17.8,-3.7 11.9,-15.6 -3.7,-9.7 -7.4,4.4 -14.1,0 -3.7,-8.2 -8.2,-17.1 -5.2,-25.3 -10.4,-14.9 1.5,-40.2 -12.6,-52.1 0,-8.9 8.2,-20.1 0,-28.3 -8.9,4.5 -4.5,20.8 -10.4,25.3 -3,-30.5 -18.6,-65.5 0,-92.99999 -3,-14.9 -16.4,-31.2 -8.9,-49.8 -3,-32.7 6.7,-69.9 3.7,-101.9 -17.9,-3 -32,13.4 -50.6,14.1 -4.5,10.4 -17.8,9.7 -26.8,14.1 -26,5.9 -37.9,35.7 -65.4,37.9 -4.5,4.5 -11.1,4.5 -16.4,6.7 0,-1.5 0.7,-4.5 -1.5,-5.2 -6.7,8.9 -26,1.5 -20.1,17.9 -8.9,0 -14.9,9.7 -19.3,16.3 -35.7,66.99999 -69.1,134.59999 -110.8,199.29999 -6.7,18.6 -21.6,34.2 -26.8,53.5 -3,3.7 -9.7,1.5 -10.4,-1.5 -6.7,-8.9 -14.9,5.9 -16.4,10.4 -17.1,34.2 -35,71.4 -62.5,98.2 -3,1.5 -5.2,-1.5 -7.4,-3 0.8,-8.2 6,-15.6 6,-21.6 -13.4,11.2 -21.6,24.6 -30.5,37.2 -17.1,4.4 -4.5,-14.9 -11.2,-21.6 -16.4,16.4 -21.6,48.4 -49.8,48.4 -1.5,-8.2 2.2,-18.6 3.7,-28.3 -6,-5.9 -12.7,7.4 -17.9,-2.2 3.7,-14.9 21.6,-27.5 25.3,-44.6 15.6,-5.9 11.2,-29 26.8,-37.2 -3,-13.4 10.4,-15.6 10.4,-26.8 15.6,-14.9 14.9,-37.2 32,-52.1 -36.5,5.2 -93.7,43.1 -119.7,-6.7 5.2,-10.4 0.8,-23.1 -8.9,-29 5.2,-31.2 -1.5,-53.5 11.2,-81.8 -1.5,-14.9 17.1,-20.8 8.9,-34.19999 -37.9,41.59999 -80.3,83.99999 -123.5,121.99999 -32,15.6 -68.4,21.6 -101.9,3 -12.6,-7.4 -11.9,-20.8 -20.8,-29.8 -13.4,-59.5 -11.1,-120.49999 14.1,-173.29999 14.1,-29.7 7.4,-68.4 28.3,-94.4 9.7,-61 42.4,-112.3 64.7,-168.1 13.4,-32 23.1,-66.2 46.1,-94.5 11.2,-35 24.6,-73.6 57.3,-94.4 5.2,-3 11.2,-11.9 17.8,-5.9 13.4,3.7 16.4,-21.6 32,-11.9 2.9,2.3 5.8,5.3 7.3,9"
     id="path10"
     style="fill:#ffffff" />
  <path
     class="st1"
     d="m 1099.1653,369.77041 c -3,5.9 -11.1,5.9 -16.4,10.4 -48.3,7.4 -98.9,10.4 -145.8,21.6 -7.4,19.3 13.4,18.6 24.5,17.8 3.7,5.2 10.4,-1.5 11.2,0 0,22.3 -35.7,13.4 -29,39.4 -18.6,17.1 -46.9,10.4 -66.2,26.8 1.5,1.5 3,2.2 3.7,3.7 -32,12.7 -65.4,28.3 -99.7,32 5.2,12.6 -14.1,23.1 -20.1,30.5 -21.5,-1.5 -37.2,9.7 -55,17.8 -21.4,133.9 -67.5,258.1 -105.4,385.3 -40.1,75.89999 -61.7,159.19999 -126.4,225.39999 -66.2,87 -160.6,188.2 -281.9,151.7 -71.4,-29.7 -162.899998,-55.8 -192.59999822,-139.8 -0.8,-7.4 5.90000002,-10.4 11.90000022,-11.9 5.2,-2.2 3.7,3 5.9,5.2 8.9,5.2 19.3,8.9 20.8,21.6 45.4,26.8 83.999998,69.2 142.799998,62.4 110.8,-11.9 181.5,-125.7 234.3,-211.2 72.1,-144.99999 110.8,-304.89999 146.5,-465.59999 -1.5,-1.5 -3,-2.2 -3.7,-3.7 -92.2,8.2 -181.5,28.2 -272.9,30.5 -5.2,-7.4 -6.7,-15.6 -11.2,-23.1 -9.7,-3.7 -23.1,8.2 -26.8,-3.7 5.2,-1.5 -0.8,-3.7 -1.5,-5.2 11.2,0.8 19.3,-7.4 24.6,-16.4 3,-11.2 -10.4,-12.7 -15.6,-19.3 -7.4,-1.5 -14.1,-3 -16.4,-11.2 0,-7.4 0,-14.9 7.4,-19.3 10.4,-6.7 39.4,7.4 33.4,-12.7 -6.7,-0.7 -23.8,3.7 -24.5,-10.4 0.8,-11.2 2.2,-21.6 15.6,-20.1 95.2,8.2 177.7,-19.3 271.4,-24.5 134.6,-18.6 262.5,-57.3 394.9,-75.1 44.6,-7.4 89.2,-14.1 133.9,-21.6 11.2,0.1 26.1,-1.4 28.3,12.7"
     id="path11"
     style="fill:#ffffff" />
  <path
     class="st1"
     d="m 977.9653,646.47041 c -1.5,3 -5.2,5.2 -5.2,8.9 -4.5,5.2 -13.4,25.3 -20.1,7.4 -37.2,59.5 -68.4,121.2 -99.7,183.7 -2.2,4.5 -2.2,9.7 0,14.2 17.8,3.7 15.6,-10.4 21.6,-19.4 10.4,-5.9 22.3,-12.6 35.7,-7.4 14.9,-22.3 42.4,-29 65.4,-39.4 -1.4,-50.6 4.5,-97.5 2.3,-148 m 116,-162.2 c 8.2,15.6 -12.6,53.5 17.8,51.3 15.6,27.5 0.8,60.2 1.5,91.5 -16.4,169.6 -20.1,351.8 -17.8,522.79999 -3.7,7.4 3,31.3 -14.1,21.6 -8.2,-8.2 -8.9,-24.6 -19.3,-26.8 -12.7,21.6 -6,49.1 -12.7,69.2 -14.1,-5.2 -14.9,-19.3 -16.4,-32 14.1,-23.8 -22.3,-35.7 -12.6,-62.5 -10.4,5.9 0,27.5 -8.9,37.2 -10.4,3 -11.9,-10.4 -17.9,-17.9 1.5,-16.3 -17.8,-34.2 -3,-46.1 10.4,-26.8 -17.8,-43.1 -7.4,-67.7 -1.5,-48.29999 -3.7,-105.59999 -5.2,-151.69999 l -3.7,-3.7 c -44.6,18.6 -93,35 -137.6,48.4 -9.7,4.4 -17.8,14.9 -30.5,14.1 -47.6,88.49999 -83.3,182.19999 -126.4,272.89999 2.2,24.5 -30.5,29.7 -25.3,55.8 -5.9,11.2 -8.9,25.3 -17.8,33.4 -7.4,-14.1 16.4,-32.7 0,-46.1 5.9,-14.9 11.9,-32 8.9,-48.3 -22.3,31.2 -35,68.4 -51.3,103.4 -7.4,2.2 -8.9,-9.7 -5.2,-14.1 4.4,-8.9 12.6,-21.6 6.7,-30.5 h -3.8 c -14.1,20.9 -17.1,50.6 -40.9,62.5 5.9,-19.4 -3,-28.3 -1.5,-46.1 0,-21.6 20.8,-29.7 19.3,-48.3 8.2,-4.5 -2.2,-17.9 11.2,-17.9 -0.8,-9.7 23.1,-16.3 10.4,-25.3 9.6,-28.3 27.5,-54.3 39.4,-80.3 10.4,-8.9 6.7,-23.8 19.3,-31.9 9.7,-25.3 22.3,-52.1 40.9,-75.09999 -8.2,-13.4 15.6,-14.1 7.4,-28.3 3,-8.2 10.4,-14.9 12.7,-23.1 -6.7,-5.2 -29.8,3.7 -26.8,-14.1 3.7,-5.2 -6,-5.2 -8.9,-7.4 10.4,-10.4 28.3,-16.4 42.4,-16.4 3,-8.2 13.4,-5.9 20.1,-8.9 7.4,-18.6 30.5,-34.2 23.1,-56.5 11.9,-8.2 23.1,-20.1 23.1,-32.7 0,-29 34.2,-52 37.9,-78.1 16.4,-11.9 19.3,-34.2 29.8,-48.3 14.9,-3 0.7,-17.1 16.4,-17.8 17.8,-32.7 21.6,-72.9 53.5,-98.2 11.9,-17.1 18.6,-35.7 23.1,-55 8.2,-4.4 12.6,0 21.6,-2.2 6.7,6.7 0,25.3 16.4,21.6 5.2,-11.2 0.7,-37.2 23,-37.2 17.9,-0.8 38.7,9.7 49.8,-7.4 10.3,-6.2 28.2,-12.2 39.3,-1.8"
     id="path12"
     style="fill:#ffffff" />
  <path
     class="st1"
     d="m 3062.5653,471.67041 c 38.7,-0.7 72.9,31.9 107.1,53.6 40.9,34.9 61,78.8 58.8,131.6 -4.5,100.4 -107.8,177.7 -188.9,217.9 6.7,11.1 20.8,20.8 32,29 35.7,35 60.2,83.3 101.9,115.99999 11.9,25.3 43.1,26.8 62.5,47.6 29,51.3 85.5,66.2 117.5,113 38.7,33.5 77.4,74.4 119.7,103.4 18.6,34.2 57.3,26.8 72.9,64 10.4,3.7 17.8,14.9 21.6,23.1 -23.8,21.5 -40.9,-23.1 -62.5,-32 -16.4,-10.4 -29,-25.3 -46.1,-37.2 -78.1,-61 -145.8,-123.5 -226.8,-177 -25.3,-12.7 -42.4,-41.7 -61,-64 -44.6,-12.6 -58,-60.99999 -94.4,-85.49999 -5.9,-11.2 -15.6,-22.3 -24.6,-30.5 -0.7,12.7 -14.9,8.2 -20.1,1.5 -13.4,-17.1 -36.4,-23.8 -51.3,-37.2 6,-18.6 -15.6,-6.7 -21.5,-12.6 -8.9,-11.1 -20.1,-23.8 -32,-30.5 -8.9,4.5 0,9.7 1.5,14.2 28.3,20.1 36.4,62.5 71.4,69.9 33.5,37.2 70.7,66.19999 107.1,96.69999 -3,3.7 -11.2,2.2 -16.4,5.2 70.7,34.2 124.9,107.8 193.4,148 26,24.5 52.8,47.6 74.4,71.4 1.5,2.2 -3,3 -1.5,5.2 91.5,61.7 164.4,160.6 262.5,212.7 3,7.4 -5.2,8.2 -8.9,5.2 -105.6,-66.9 -196.3,-159.2 -303.4,-223.1 -89.3,-66.2 -148.7,-161.4 -248.4,-210.5 -3,-17.1 -20.8,-16.3 -32,-23.1 -11.2,-16.4 -35,-30.5 -35.7,-52.09999 -15.6,-17.1 -44.6,-24.5 -52.1,-49.8 -14.1,-7.4 -26.8,-21.6 -44.6,-16.4 -12.6,-8.2 -18.6,-28.3 -35.7,-30.5 -3,-6.7 -12.7,-6 -11.9,-14.1 15.6,-2.2 10.4,-22.3 26.8,-24.6 13.4,7.4 28.3,6.7 42.4,1.5 11.9,-23.1 -21.6,-29 -30.5,-46.1 -6.7,-9.7 5.9,-19.3 7.4,-23.8 24.5,-0.7 38.7,48.3 66.2,29 6.7,0 9.6,8.2 17.8,5.2 17.8,-29.7 41.6,-57.3 63.9,-85.5 7.4,-17.9 23.1,-34.9 14.1,-57.3 -32,-40.9 -89.2,-48.4 -140.5,-39.4 -13.4,11.9 -40.2,4.4 -43.1,26.8 -2.3,19.3 -14.9,33.5 -23.1,49.8 -4.5,-0.7 -5.2,-4.4 -5.2,-8.9 3.7,-2.2 -3,-5.9 -5.2,-6.7 -23.1,28.3 -26,68.4 -41.6,101.9 -5.2,0 -3,-7.4 -8.9,-7.4 -40.2,121.2 -63.2,248.39999 -90.8,374.79999 -3,8.9 -8.9,12.6 -16.3,17.8 -11.2,-8.2 8.9,-28.3 -10.4,-34.2 -23.8,54.3 -45.4,109.3 -69.9,162.9 -7.4,-11.2 0.8,-21.6 -6.7,-32 -10.4,-2.2 -15.6,2.2 -17.8,10.4 -10.4,23.1 -7.4,55 -26.8,71.4 0.8,-5.2 6,-20.8 0,-28.3 -9.7,6.7 -8.9,29.7 -21.6,23.1 0,-15.6 -16.3,-33.5 0,-46.9 -21.5,-29.8 14.1,-66.2 25.3,-98.2 6.7,-5.2 20.8,-8.9 8.9,-19.3 7.4,-8.2 -4.5,-32 11.9,-30.5 9.6,-6.7 0.7,-11.2 -5.2,-14.1 12.7,-27.5 17.8,-58 30.5,-85.5 12.6,-4.5 22.3,-14.9 23.1,-29 -9.7,-1.5 -7.4,-13.4 -5.2,-19.3 23.8,-66.19999 37.2,-136.89999 67.7,-200.09999 3.7,-14.1 5.9,-33.4 17.8,-46.1 4.5,-24.6 18.6,-43.9 23.1,-67.7 -31.2,5.9 -61.7,46.9 -98.1,26.8 0.7,-37.2 -47.6,5.9 -46.1,-30.5 -3,-22.3 -29.8,-2.2 -35.7,-23.1 0,-14.9 8.2,-22.3 5.2,-35.7 13.4,6.7 21.5,-9.7 34.2,-8.9 14.1,-11.1 7.4,-31.2 19.3,-43.1 30.5,-7.4 56.5,-29.7 85.5,-34.2 3.7,-5.2 6.7,-12.7 14.9,-11.9 14.9,0.8 29.7,-8.9 44.6,-12.6 0,0.7 0.8,0.7 1.5,1.5 14.9,-9.6 35.7,-8.9 48.3,-21.5 30.5,-3 59.5,-20.8 89.2,-15.6 20.1,-3.7 48.4,1.5 64,-17.8 15.6,-11.1 34.2,7.4 49.8,-8.9 16.9,10.9 43.7,-7.7 60.8,8.7"
     id="path13"
     style="fill:#ffffff" />
  <path
     class="st1"
     d="m 2884.0653,923.07041 c 8.2,5.2 16.4,11.9 26.8,12.6 33.5,51.3 92.2,85.49999 125,139.09999 16.4,14.9 45.4,19.3 49.8,44.6 33.5,27.5 75.1,55 94.5,93 23.1,11.9 43.9,26.8 68.4,33.5 67.7,53.5 119,110.8 181.5,169.5 40.2,46.1 94.4,56.5 137.6,93 29.7,28.3 69.2,56.5 91.5,89.3 -1.5,3 -8.2,3 -11.2,0 -93,-80.3 -194.8,-142.1 -287.1,-224.6 -13.4,1.5 -25.3,-8.9 -35.7,-17.8 -61,-31.2 -99.7,-110.1 -168.1,-127.2 -20.8,-37.2 -58.8,-59.5 -94.5,-80.3 -28.3,-11.1 -31.2,-47.6 -58.8,-55 -8.2,-10.4 -23.1,-11.2 -26.8,-25.3 -26.8,-29.8 -53.5,-63.2 -87.8,-81.79999 -10.4,-10.4 -15.6,-22.3 -23.1,-34.2 -11.9,-2.2 -32.7,6.7 -40.9,-10.4 -11.9,0 -25.3,2.2 -32,-8.9 1.5,-12.6 13.4,-19.3 0,-30.5 14.1,-37.2 45.4,3 69.2,0 9.8,4.3 17.2,11.7 21.7,21.4"
     id="path14"
     style="fill:#ffffff" />
  <path
     class="st1"
     d="m 2912.3653,1019.7704 c 14.9,12.6 27.5,26.8 26.8,46.1 26,45.4 69.9,77.3 107.1,110.8 11.9,21.6 26,42.4 41.6,62.5 31.2,-13.4 49.8,22.3 69.2,40.9 -3.7,23.1 26,27.5 39.4,40.9 11.2,-4.5 17.9,6.7 19.3,16.3 25.3,10.4 36.4,43.1 64.7,46.1 11.2,22.3 43.1,12.7 44.6,39.4 23.8,18.6 50.6,32.7 72.9,49.8 -2.2,14.9 21.6,6.7 20.1,23.1 11.2,8.2 22.3,23.8 38.7,21.5 3,21.6 26.8,21.6 39.4,32 67.7,57.3 144.3,108.6 209,168.1 -9.7,0 -17.9,-6 -26.8,-8.9 -176.3,-138.3 -362.9,-260.3 -537,-406.8 -9.7,-5.2 -10.4,-16.3 -14.9,-25.3 -60.2,-8.2 -92.2,-73.6 -142.8,-107.1 -18.6,-50.6 -88.5,-61.7 -94.4,-117.5 -18.6,-17.1 -51.3,-10.4 -60.2,-39.4 -5.2,-2.2 -5.2,-9.7 -7.4,-14.09999 -10.4,-10.4 -40.9,-7.4 -32,-29 27.5,-14.1 49.8,17.1 76.6,21.6 12.6,12.59999 31.2,19.29999 46.1,28.99999"
     id="path15"
     style="fill:#ffffff" />
  <path
     class="st1"
     d="m 2686.2653,1198.2704 c -3.7,30.5 -17.1,58 -34.2,83.3 -7.4,-1.5 -6.7,-13.4 -16.4,-15.6 0.8,-3.7 5.2,-5.9 7.4,-8.9 3.7,0 6.7,-0.8 8.9,-3.7 11.2,-20.1 -2.2,-54.3 25.3,-62.5 3,1.4 6,4.4 9,7.4"
     id="path16"
     style="fill:#ffffff" />
  <path
     class="st1"
     d="m 3599.4653,1390.8704 c 8.9,3.7 15.6,13.4 26.8,12.7 22.3,11.2 32.7,37.9 55.8,47.6 -14.9,17.9 -30.5,-12.7 -48.3,-14.1 -16.4,-23.8 -50.6,-27.5 -57.3,-55 8.9,-8.3 17.8,-0.9 23,8.8"
     id="path17"
     style="fill:#ffffff" />
  <path
     class="st1"
     d="m 3733.3653,1483.7704 c 35,23.1 73.6,37.9 105.6,64 -43.1,-5.2 -80.3,-36.4 -119.7,-57.3 -11.1,-3 -22.3,-8.2 -28.3,-19.3 0.8,-5.2 -3,-11.9 3.7,-14.1 15.7,2.2 24.6,20.8 38.7,26.7"
     id="path18"
     style="fill:#ffffff" />
  <path
     class="st1"
     d="m 3742.2653,1565.5704 c -4.5,7.4 -12.6,1.5 -17.8,0 -27.5,-12.6 -52.8,-31.2 -78.1,-49.8 -5.2,-5.2 0.8,-11.9 6.7,-8.9 32,14.9 60.2,40.9 89.2,58.7"
     id="path19"
     style="fill:#ffffff" />
  <path
     class="st1"
     d="m 3710.3653,1631.8704 c -11.9,5.2 -25.3,-7.4 -35.7,-16.4 9.7,-18.6 22.3,11.9 35.7,12.6 v 3.8"
     id="path20"
     style="fill:#ffffff" />
  <path
     class="st1"
     d="m 3587.2603,599.67741 c 15.8,-3.3 59,-13.8 64.4,1.6 5.3,15 42.5,-7.7 45.9,24.1 2.4,22.5 -10.8,17.1 -12.3,40.2 -0.8,13.3 -18.9,27.7 -39.9,30.3 -66.6,5.5 -186.1,53.6 -186.1,165.9 0,0 -7.4,125.3 123.1,125.3 0,0 81.4,13.09999 146.5,-76.8 3.6,-5 14.2,-9.3 19.9,-7 3.5,1.4 6.3,4.5 6,10.9 -0.2,6.1 -3.4,11.7 -7.6,16.1 -3,3.3 -5.9,8.5 -2.8,14.8 5.5,11.1 4,26.6 -9.3,41 0,0 -61.6,61.79999 -151.6,61.79999 -90.1,0 -212.2,-30.4 -212.2,-192.29999 0,-161.9 121.5,-235.9 216,-255.9 z"
     id="path21"
     style="fill:#ffffff" />
  <path
     class="st1"
     d="m 4044.5603,664.57741 c -81,0 -95.5,22.9 -97.8,51.4 -3.9,48.2 -24,110.2 -39.9,150 -21.8,54.6 -72.4,142.99999 -72.4,205.79999 0,34.9 -13.5,32.2 -13.5,32.2 -7.9,0 -12.1,-7.8 -14.4,-15.8 -0.7,-2.7 -4.6,-2.6 -5.2,0.1 -3.5,15.9 -11.1,36.9 -27.1,36.9 -25.7,0 -28.9,-44.7 -28.9,-44.7 0,-89.39999 105.8,-357.79999 105.8,-357.79999 0,0 -80.9,40.9 -96.3,41.3 -29.2,0.9 -33.1,-37.4 -9.6,-45.6 1.7,-0.6 1.6,-3.1 -0.2,-3.6 -11.2,-3.1 -28,-10.1 -28,-24.9 0,-34.3 56.4,-63.5 163.5,-88.2 0,0 4.3,-71 26.9,-71 15.7,0 42.1,13.7 56.8,22 6.5,3.7 10.6,10.6 10.6,18 v 5.2 c 0,0 84.4,0 112.5,0 51.7,0 151.2,26.2 151.2,141.6 0,158 -215.2,283.29999 -376.3,353.79999 -4.1,1.8 -8.7,-0.6 -10.1,-4.8 -2.3,-6.8 -3.1,-16.2 8.4,-18.4 3,-0.6 4.8,-3.8 4.1,-6.7 -3.4,-14.6 -7.2,-51.69999 32.5,-73.59999 50.3,-27.7 233.9,-141.6 239.8,-218.3 5.8,-74.6 -45,-84.9 -92.4,-84.9 z"
     id="path22"
     style="fill:#ffffff" />
</svg>
