<?xml version="1.0" encoding="utf-8"?>
<svg version="1.1" id="Layer_1" x="0px" y="0px" viewBox="0 0 3839 1929.5" style="enable-background:new 0 0 3839 1929.5;" xmlns="http://www.w3.org/2000/svg">
  <style type="text/css">
	.st0{fill-rule:evenodd;clip-rule:evenodd;}
	.st1{fill:#FFFFFF;}
	.st2{fill-rule:evenodd;clip-rule:evenodd;fill:#FFFFFF;}
</style>
  <path class="st1" d="M 1266.6 0.7 C 1274.1 0.7 1281.7 0.7 1289.2 0.7 C 1289.2 18.4 1289.2 36.1 1289.2 53.8 C 1289.3 68.6 1288.9 83.3 1288.3 98.1 C 1287.3 119.4 1286 140.8 1282.4 161.8 C 1280 176.3 1275 190.3 1268.7 203.6 C 1258.5 225 1242.6 243.2 1224.6 258.4 C 1208.5 272.5 1189.4 282.8 1169.2 289.8 C 1157.8 293.7 1146.1 296.8 1134.1 298.4 C 1134.1 283.6 1134.1 268.7 1134.1 253.9 C 1148.5 251.7 1162.3 246.6 1175.2 239.9 C 1190.4 231.8 1204.2 221 1215.7 208.2 C 1227.6 195 1237.1 179.7 1244.4 163.5 C 1252.9 144.8 1257.4 124.7 1260.5 104.5 C 1264.4 78.9 1266 52.9 1266.6 27 C 1266.6 18.2 1266.6 9.4 1266.6 0.7 Z"/>
  <path class="st1" d="M 1298.3 0.7 C 1312.1 0.6 1326 0.7 1339.9 0.7 C 1339.9 100 1339.9 199.2 1339.9 298.5 C 1326.1 298.5 1312.2 298.4 1298.4 298.5 C 1298.2 266.8 1298.4 235.2 1298.3 203.5 C 1298.3 135.9 1298.3 68.3 1298.3 0.7 Z"/>
  <path class="st1" d="M 1349.1 0.6 C 1356.6 0.6 1364.1 0.6 1371.5 0.6 C 1371.3 30.9 1372.3 61.2 1375.9 91.3 C 1378.8 114.7 1383 138.2 1392.3 159.9 C 1401.1 180.9 1413.8 200.5 1430.4 216.3 C 1446.2 231.4 1465.4 243 1486.2 249.7 C 1492 251.6 1498 253 1504 253.9 C 1504 268.7 1504 283.6 1504 298.4 C 1492.1 296.8 1480.5 293.7 1469.2 289.9 C 1455.7 285.2 1442.7 279.1 1430.7 271.3 C 1422 265.7 1414 258.9 1406.4 251.9 C 1393.8 240.3 1382.5 227.1 1374.1 212.1 C 1367.5 200.5 1362.6 187.9 1358.9 175 C 1355.4 162.1 1354 148.8 1352.6 135.5 C 1350 106.9 1349 78.1 1349.2 49.3 C 1349.1 33.2 1349.1 16.9 1349.1 0.6 Z"/>
  <path class="st1" d="M 1640.7 12.9 C 1652.3 -1.9 1676.3 -4.4 1690.5 8 C 1696.3 12.9 1700.4 19.6 1702.5 26.9 C 1728.8 117.4 1755.2 207.9 1781.5 298.5 C 1766 298.5 1750.4 298.5 1734.9 298.5 C 1727.6 273.5 1720.4 248.5 1713.2 223.6 C 1683.2 223.5 1653.2 223.6 1623.1 223.6 C 1615.8 248.6 1608.5 273.6 1601.3 298.6 C 1585.9 298.6 1570.4 298.6 1555 298.6 C 1580 212.2 1605 125.9 1630.1 39.5 C 1633.1 30.4 1634.2 20.3 1640.7 12.9 M 1668.1 68.4 C 1657.1 105.9 1646.3 143.5 1635.4 181 C 1657.2 181.1 1679 181 1700.9 181 C 1689.9 143.5 1679 106 1668.1 68.4 Z"/>
  <path class="st1" d="M 1967.8 14.9 C 1975.9 3.2 1991.5 -2.5 2005.3 1.1 C 2017.9 4 2027.6 14.9 2030.9 27.1 C 2057.2 117.6 2083.6 208 2109.8 298.5 C 2094.3 298.6 2078.7 298.5 2063.2 298.6 C 2056 273.6 2048.8 248.6 2041.5 223.6 C 2011.5 223.6 1981.6 223.5 1951.6 223.6 C 1944.4 248.6 1937 273.5 1929.9 298.5 C 1914.5 298.5 1899.1 298.5 1883.6 298.5 C 1908.6 211.7 1933.9 124.9 1959 38.1 C 1961.7 30.3 1962.8 21.7 1967.8 14.9 M 1964 181.1 C 1985.7 181.1 2007.5 181.1 2029.2 181.1 C 2018.4 143.5 2007.4 105.9 1996.6 68.3 C 1985.8 105.9 1974.9 143.4 1964 181.1 Z"/>
  <path class="st1" d="M 1746.7 0.6 C 1802.9 0.6 1859 0.6 1915.2 0.6 C 1915.2 15.8 1915.2 30.9 1915.2 46 C 1894.5 46 1873.8 46 1853.2 46 C 1853.2 130.1 1853.2 214.3 1853.2 298.4 C 1838.4 298.4 1823.6 298.4 1808.8 298.4 C 1808.8 214.3 1808.8 130.1 1808.8 46 C 1788.1 46 1767.4 46 1746.8 46 C 1746.7 30.9 1746.7 15.8 1746.7 0.6 Z"/>
  <path class="st1" d="M 2159.3 2.5 C 2163.6 1 2168.1 0.5 2172.6 0.6 C 2190.3 0.7 2208 0.6 2225.7 0.6 C 2255.5 1.1 2284 19.7 2296.9 46.5 C 2305.8 63.9 2306.8 84.2 2304.5 103.3 C 2302.9 123.3 2294.6 143.3 2279.2 156.6 C 2271.1 163.8 2261 168.2 2252.2 174.7 C 2247.4 178.3 2247.2 185.4 2249.6 190.5 C 2273.1 226.8 2297.5 262.5 2321.5 298.5 C 2304 298.5 2286.4 298.5 2268.8 298.5 C 2245.8 264 2223.1 229.3 2200.2 194.7 C 2193.5 184.9 2191.6 171.8 2195.7 160.6 C 2198.8 152 2206.4 145.7 2214.8 142.4 C 2230.8 136.3 2246.6 126.7 2255.4 111.6 C 2262.1 100.3 2261.8 86.3 2258.8 73.8 C 2255.2 57.7 2239.5 45 2222.9 45.6 C 2211.4 45.7 2200 45.6 2188.5 45.6 C 2183.3 45.5 2178.4 50 2178.5 55.2 C 2178.4 136.2 2178.5 217.3 2178.5 298.3 C 2163.6 298.3 2148.7 298.3 2133.7 298.3 C 2133.7 211.1 2133.7 123.8 2133.7 36.6 C 2133.9 21.5 2144.8 7.1 2159.3 2.5 Z"/>
  <path class="st1" d="M 2345.1 0.6 C 2360.8 0.6 2376.5 0.6 2392.2 0.6 C 2392.2 99.9 2392.2 199.2 2392.2 298.5 C 2376.5 298.5 2360.8 298.5 2345.1 298.5 C 2345.1 199.2 2345.1 99.9 2345.1 0.6 Z"/>
  <path class="st1" d="M 1499.3 531.9 C 1519.4 537.1 1517.1 569.1 1541.7 558.7 C 1548.4 557.2 1556.6 565.4 1550.6 573.6 C 1546.9 575.8 1542.4 578.1 1537.9 580.3 C 1541.6 587.7 1549.8 597.4 1541.6 605.6 C 1519.3 617.5 1493.3 618.3 1468.7 624.9 C 1380.2 658.4 1284.3 726.1 1247.1 819.7 C 1228.5 882.2 1225.5 962.5 1263.5 1017.5 C 1294.7 1049.5 1331.2 1083.7 1375.8 1091.1 C 1415.2 1100 1449.4 1085.2 1477.7 1060.6 C 1477.7 1051.7 1459.9 1047.2 1470.3 1039 C 1449.5 1013.7 1472.5 986.2 1466.6 958.7 C 1474 929.7 1477 905.9 1488.2 878.4 C 1471.8 876.9 1456.2 888.1 1438.4 888.8 C 1445.8 885.1 1438.4 875.4 1433.2 882.1 C 1399.7 897.7 1364 907.4 1332.8 928.2 C 1328.3 927.5 1320.1 923.8 1326.1 917.8 C 1358.9 908.2 1346.2 864.3 1383.4 862 C 1388.6 839.7 1415.4 836.7 1434.7 832.3 C 1429.5 810 1454.8 824.1 1463.7 817.4 C 1489.7 804 1519.5 797.3 1541.8 772.8 C 1552.2 767.6 1561.9 769.8 1564.9 781.7 C 1565.7 786.1 1564.1 790.6 1568.6 792.9 C 1580.5 791.4 1589.4 772.8 1600.6 781.7 C 1599.8 897 1532.2 999.6 1559.7 1117.8 C 1558.2 1128.9 1561.9 1142.3 1563.4 1155 C 1561.1 1158.7 1557.4 1158.7 1554.5 1160.2 C 1550.8 1157.2 1554.5 1151.3 1550.8 1147.5 C 1525.5 1160.9 1538.1 1120.7 1517.3 1124.4 C 1506.9 1114 1501.7 1098.4 1484.6 1099.9 C 1463.8 1122.2 1449.6 1154.9 1416.9 1160.1 C 1373 1172 1321.7 1164.6 1281.5 1140.8 C 1222.7 1117.7 1181.1 1063.5 1156.5 1008.4 C 1131.2 906.5 1136.4 786.8 1193.7 701.3 C 1204.1 667.1 1237.6 647 1252.4 614.3 C 1282.1 597.9 1294.8 557.8 1326 540.7 C 1331.2 541.5 1338.7 540.7 1338.7 534 C 1376.6 512.4 1419 502.8 1463.6 496.1 C 1472.6 520 1510.5 500.7 1499.3 531.9"/>
  <path class="st1" d="M 2380.6 639 C 2341.9 687.3 2299.5 734.2 2275.7 789.2 L 2280.9 789.2 C 2287.6 778.8 2312.9 785.5 2316.6 766.1 C 2335.2 760.2 2351.6 737.8 2373.9 752 C 2366.5 736.4 2388 731.9 2375.4 721.5 C 2373.9 713.3 2376.2 701.4 2385.8 698.4 C 2383.6 679.1 2397.7 662.7 2397 642.6 C 2396.2 645.6 2391.1 652.2 2385.8 651.5 C 2382.1 648.7 2379.9 645 2380.6 639 M 1865.2 457.5 C 1853.3 476.8 1891.2 486.5 1870.4 505.1 C 1882.3 513.3 1894.9 508.8 1902.4 525.2 C 1889.7 561.6 1863.7 592.9 1848.9 628.6 C 1824.4 645 1835.5 676.2 1820.6 696.3 C 1794.6 733.5 1770 771.4 1759.6 814.5 C 1710.5 879.2 1686.7 955 1665.1 1031.7 C 1661.4 1042.8 1662.1 1058.5 1674 1064.4 C 1707.5 1068.8 1730.5 1029.4 1755.8 1016.1 C 1765.5 1000.5 1786.3 996 1793.7 978.2 C 1830.1 944.7 1885.9 909 1889.6 857 C 1906 842.9 1891.1 816.1 1911.2 803.5 C 1911.2 784.2 1911.2 759.6 1929.1 752.2 C 1924.6 738.1 1920.9 722.5 1932.8 710.6 C 1930.6 705.4 1936.5 702.4 1934.3 696.5 C 1939.5 699.5 1945.5 692.1 1950.7 689.8 C 1970 676.4 1934.3 666.7 1954.4 654.1 C 1967 637.7 1970.7 612.5 1987.9 603.5 C 1982 593.1 1999.8 587.9 1999.1 576.7 C 2014 555.9 2021.4 529.8 2043.7 512.7 C 2052.6 520.9 2069.7 511.2 2075.7 526.8 C 2090.6 519.4 2103.2 518.6 2118.1 526.8 C 2123.3 535.7 2131.5 545.4 2127 555.8 C 2124.8 561 2118.8 564.7 2120.3 571.4 C 2130 576.6 2144.1 580.3 2143.4 594.5 L 2143.4 605.7 C 2068.3 739.6 2010.3 880.1 1961.2 1025.2 C 1960.4 1038.6 1954.5 1052.7 1959.7 1066.1 C 1963.4 1075 1972.3 1086.2 1982.7 1087.7 C 1985.7 1090.7 1989.4 1095.9 1993.1 1091.4 C 2015.4 1047.5 2055.6 1015.5 2077.1 971.7 C 2062.2 973.9 2045.1 981.4 2028.7 985.8 C 2026.5 973.9 2042.8 967.2 2043.6 953.9 C 2046.6 943.5 2028 945 2037.7 936 C 2053.3 927.1 2074.9 923.4 2082.3 907 C 2097.2 895.1 2120.2 896.6 2126.9 875 C 2164.8 866.8 2161.9 825.9 2186.4 803.6 C 2190.1 780.5 2214.7 767.9 2223.6 748.5 C 2226.6 750.8 2230.3 750 2232.5 746.3 C 2226.5 718.8 2274.9 719.5 2269.7 687.5 C 2291.3 680.8 2288.3 657.8 2305.4 646.6 C 2318.1 629.5 2330.7 610.9 2350.1 598.2 C 2347.8 593.8 2354.5 593 2353.8 589.3 C 2379.1 564 2421.5 548.4 2418.5 509 C 2419.3 498.6 2420 482.2 2432.6 475.5 C 2445.2 475.5 2457.1 481.4 2466.1 485.9 C 2466.9 491.8 2463.9 503 2473.5 502.3 C 2499.5 509 2517.4 502.3 2541.2 514.2 C 2544.9 517.2 2541.2 522.4 2544.9 525.4 C 2494.3 733.6 2505.5 974.6 2473.5 1191 C 2478 1221.5 2466.1 1254.2 2469.8 1281.7 C 2464.6 1285.4 2465.3 1294.3 2459.4 1290.6 C 2460.9 1286.1 2456.4 1283.2 2454.2 1280.2 C 2454.2 1269.8 2457.2 1253.4 2448.2 1244.5 C 2446.7 1247.5 2443 1248.2 2439.3 1248.2 C 2434.1 1244.5 2436.3 1237.8 2430.4 1234.1 C 2447.5 1228.9 2443.1 1210.3 2441.6 1198.4 C 2430.4 1197.6 2432.7 1185 2427.5 1178.3 C 2430.5 1173.8 2445.3 1174.6 2439.4 1162.7 C 2435.7 1153 2432 1167.1 2425.3 1162.7 C 2421.6 1154.5 2417.1 1145.6 2420.1 1137.4 C 2409.7 1122.5 2421.6 1097.2 2407.5 1085.3 C 2407.5 1076.4 2415.7 1065.2 2407.5 1057 C 2398.6 1061.5 2403 1077.8 2397.1 1082.3 C 2394.1 1051.8 2378.5 1016.8 2397.1 989.3 C 2394.1 974.4 2380.7 958.1 2388.2 939.5 C 2385.2 906.8 2394.9 869.6 2391.9 837.6 C 2374 834.6 2359.9 851 2341.3 851.7 C 2336.8 862.1 2323.5 861.4 2314.5 865.8 C 2288.5 871.7 2276.6 901.5 2249.1 903.7 C 2244.6 908.2 2238 908.2 2232.7 910.4 C 2232.7 908.9 2233.4 905.9 2231.2 905.2 C 2224.5 914.1 2205.2 906.7 2211.1 923.1 C 2202.2 923.1 2196.2 932.8 2191.8 939.4 C 2156.1 1006.4 2122.7 1074 2081 1138.7 C 2074.3 1157.3 2059.4 1172.9 2054.2 1192.2 C 2051.2 1195.9 2044.5 1193.7 2043.8 1190.7 C 2037.1 1181.8 2028.9 1196.6 2027.4 1201.1 C 2010.3 1235.3 1992.4 1272.5 1964.9 1299.3 C 1961.9 1300.8 1959.7 1297.8 1957.5 1296.3 C 1958.3 1288.1 1963.5 1280.7 1963.5 1274.7 C 1950.1 1285.9 1941.9 1299.3 1933 1311.9 C 1915.9 1316.3 1928.5 1297 1921.8 1290.3 C 1905.4 1306.7 1900.2 1338.7 1872 1338.7 C 1870.5 1330.5 1874.2 1320.1 1875.7 1310.4 C 1869.7 1304.5 1863 1317.8 1857.8 1308.2 C 1861.5 1293.3 1879.4 1280.7 1883.1 1263.6 C 1898.7 1257.7 1894.3 1234.6 1909.9 1226.4 C 1906.9 1213 1920.3 1210.8 1920.3 1199.6 C 1935.9 1184.7 1935.2 1162.4 1952.3 1147.5 C 1915.8 1152.7 1858.6 1190.6 1832.6 1140.8 C 1837.8 1130.4 1833.4 1117.7 1823.7 1111.8 C 1828.9 1080.6 1822.2 1058.3 1834.9 1030 C 1833.4 1015.1 1852 1009.2 1843.8 995.8 C 1805.9 1037.4 1763.5 1079.8 1720.3 1117.8 C 1688.3 1133.4 1651.9 1139.4 1618.4 1120.8 C 1605.8 1113.4 1606.5 1100 1597.6 1091 C 1584.2 1031.5 1586.5 970.5 1611.7 917.7 C 1625.8 888 1619.1 849.3 1640 823.3 C 1649.7 762.3 1682.4 711 1704.7 655.2 C 1718.1 623.2 1727.8 589 1750.8 560.7 C 1762 525.7 1775.4 487.1 1808.1 466.3 C 1813.3 463.3 1819.3 454.4 1825.9 460.4 C 1839.3 464.1 1842.3 438.8 1857.9 448.5 C 1860.8 450.8 1863.7 453.8 1865.2 457.5"/>
  <path class="st1" d="M 1099.2 369.8 C 1096.2 375.7 1088.1 375.7 1082.8 380.2 C 1034.5 387.6 983.9 390.6 937 401.8 C 929.6 421.1 950.4 420.4 961.5 419.6 C 965.2 424.8 971.9 418.1 972.7 419.6 C 972.7 441.9 937 433 943.7 459 C 925.1 476.1 896.8 469.4 877.5 485.8 C 879 487.3 880.5 488 881.2 489.5 C 849.2 502.2 815.8 517.8 781.5 521.5 C 786.7 534.1 767.4 544.6 761.4 552 C 739.9 550.5 724.2 561.7 706.4 569.8 C 685 703.7 638.9 827.9 601 955.1 C 560.9 1031 539.3 1114.3 474.6 1180.5 C 408.4 1267.5 314 1368.7 192.7 1332.2 C 121.3 1302.5 29.8 1276.4 0.1 1192.4 C -0.7 1185 6 1182 12 1180.5 C 17.2 1178.3 15.7 1183.5 17.9 1185.7 C 26.8 1190.9 37.2 1194.6 38.7 1207.3 C 84.1 1234.1 122.7 1276.5 181.5 1269.7 C 292.3 1257.8 363 1144 415.8 1058.5 C 487.9 913.5 526.6 753.6 562.3 592.9 C 560.8 591.4 559.3 590.7 558.6 589.2 C 466.4 597.4 377.1 617.4 285.7 619.7 C 280.5 612.3 279 604.1 274.5 596.6 C 264.8 592.9 251.4 604.8 247.7 592.9 C 252.9 591.4 246.9 589.2 246.2 587.7 C 257.4 588.5 265.5 580.3 270.8 571.3 C 273.8 560.1 260.4 558.6 255.2 552 C 247.8 550.5 241.1 549 238.8 540.8 C 238.8 533.4 238.8 525.9 246.2 521.5 C 256.6 514.8 285.6 528.9 279.6 508.8 C 272.9 508.1 255.8 512.5 255.1 498.4 C 255.9 487.2 257.3 476.8 270.7 478.3 C 365.9 486.5 448.4 459 542.1 453.8 C 676.7 435.2 804.6 396.5 937 378.7 C 981.6 371.3 1026.2 364.6 1070.9 357.1 C 1082.1 357.2 1097 355.7 1099.2 369.8"/>
  <path class="st1" d="M 978 646.5 C 976.5 649.5 972.8 651.7 972.8 655.4 C 968.3 660.6 959.4 680.7 952.7 662.8 C 915.5 722.3 884.3 784 853 846.5 C 850.8 851 850.8 856.2 853 860.7 C 870.8 864.4 868.6 850.3 874.6 841.3 C 885 835.4 896.9 828.7 910.3 833.9 C 925.2 811.6 952.7 804.9 975.7 794.5 C 974.3 743.9 980.2 697 978 646.5 M 1094 484.3 C 1102.2 499.9 1081.4 537.8 1111.8 535.6 C 1127.4 563.1 1112.6 595.8 1113.3 627.1 C 1096.9 796.7 1093.2 978.9 1095.5 1149.9 C 1091.8 1157.3 1098.5 1181.2 1081.4 1171.5 C 1073.2 1163.3 1072.5 1146.9 1062.1 1144.7 C 1049.4 1166.3 1056.1 1193.8 1049.4 1213.9 C 1035.3 1208.7 1034.5 1194.6 1033 1181.9 C 1047.1 1158.1 1010.7 1146.2 1020.4 1119.4 C 1010 1125.3 1020.4 1146.9 1011.5 1156.6 C 1001.1 1159.6 999.6 1146.2 993.6 1138.7 C 995.1 1122.4 975.8 1104.5 990.6 1092.6 C 1001 1065.8 972.8 1049.5 983.2 1024.9 C 981.7 976.6 979.5 919.3 978 873.2 L 974.3 869.5 C 929.7 888.1 881.3 904.5 836.7 917.9 C 827 922.3 818.9 932.8 806.2 932 C 758.6 1020.5 722.9 1114.2 679.8 1204.9 C 682 1229.4 649.3 1234.6 654.5 1260.7 C 648.6 1271.9 645.6 1286 636.7 1294.1 C 629.3 1280 653.1 1261.4 636.7 1248 C 642.6 1233.1 648.6 1216 645.6 1199.7 C 623.3 1230.9 610.6 1268.1 594.3 1303.1 C 586.9 1305.3 585.4 1293.4 589.1 1289 C 593.5 1280.1 601.7 1267.4 595.8 1258.5 L 592 1258.5 C 577.9 1279.4 574.9 1309.1 551.1 1321 C 557 1301.6 548.1 1292.7 549.6 1274.9 C 549.6 1253.3 570.4 1245.2 568.9 1226.6 C 577.1 1222.1 566.7 1208.7 580.1 1208.7 C 579.3 1199 603.2 1192.4 590.5 1183.4 C 600.1 1155.1 618 1129.1 629.9 1103.1 C 640.3 1094.2 636.6 1079.3 649.2 1071.2 C 658.9 1045.9 671.5 1019.1 690.1 996.1 C 681.9 982.7 705.7 982 697.5 967.8 C 700.5 959.6 707.9 952.9 710.2 944.7 C 703.5 939.5 680.4 948.4 683.4 930.6 C 687.1 925.4 677.4 925.4 674.5 923.2 C 684.9 912.8 702.8 906.8 716.9 906.8 C 719.9 898.6 730.3 900.9 737 897.9 C 744.4 879.3 767.5 863.7 760.1 841.4 C 772 833.2 783.2 821.3 783.2 808.7 C 783.2 779.7 817.4 756.7 821.1 730.6 C 837.5 718.7 840.4 696.4 850.9 682.3 C 865.8 679.3 851.6 665.2 867.3 664.5 C 885.1 631.8 888.9 591.6 920.8 566.3 C 932.7 549.2 939.4 530.6 943.9 511.3 C 952.1 506.9 956.5 511.3 965.5 509.1 C 972.2 515.8 965.5 534.4 981.9 530.7 C 987.1 519.5 982.6 493.5 1004.9 493.5 C 1022.8 492.7 1043.6 503.2 1054.7 486.1 C 1065 479.9 1082.9 473.9 1094 484.3"/>
  <path class="st1" d="M 3062.6 471.7 C 3101.3 471 3135.5 503.6 3169.7 525.3 C 3210.6 560.2 3230.7 604.1 3228.5 656.9 C 3224 757.3 3120.7 834.6 3039.6 874.8 C 3046.3 885.9 3060.4 895.6 3071.6 903.8 C 3107.3 938.8 3131.8 987.1 3173.5 1019.8 C 3185.4 1045.1 3216.6 1046.6 3236 1067.4 C 3265 1118.7 3321.5 1133.6 3353.5 1180.4 C 3392.2 1213.9 3430.9 1254.8 3473.2 1283.8 C 3491.8 1318 3530.5 1310.6 3546.1 1347.8 C 3556.5 1351.5 3563.9 1362.7 3567.7 1370.9 C 3543.9 1392.4 3526.8 1347.8 3505.2 1338.9 C 3488.8 1328.5 3476.2 1313.6 3459.1 1301.7 C 3381 1240.7 3313.3 1178.2 3232.3 1124.7 C 3207 1112 3189.9 1083 3171.3 1060.7 C 3126.7 1048.1 3113.3 999.7 3076.9 975.2 C 3071 964 3061.3 952.9 3052.3 944.7 C 3051.6 957.4 3037.4 952.9 3032.2 946.2 C 3018.8 929.1 2995.8 922.4 2980.9 909 C 2986.9 890.4 2965.3 902.3 2959.4 896.4 C 2950.5 885.3 2939.3 872.6 2927.4 865.9 C 2918.5 870.4 2927.4 875.6 2928.9 880.1 C 2957.2 900.2 2965.3 942.6 3000.3 950 C 3033.8 987.2 3071 1016.2 3107.4 1046.7 C 3104.4 1050.4 3096.2 1048.9 3091 1051.9 C 3161.7 1086.1 3215.9 1159.7 3284.4 1199.9 C 3310.4 1224.4 3337.2 1247.5 3358.8 1271.3 C 3360.3 1273.5 3355.8 1274.3 3357.3 1276.5 C 3448.8 1338.2 3521.7 1437.1 3619.8 1489.2 C 3622.8 1496.6 3614.6 1497.4 3610.9 1494.4 C 3505.3 1427.5 3414.6 1335.2 3307.5 1271.3 C 3218.2 1205.1 3158.8 1109.9 3059.1 1060.8 C 3056.1 1043.7 3038.3 1044.5 3027.1 1037.7 C 3015.9 1021.3 2992.1 1007.2 2991.4 985.6 C 2975.8 968.5 2946.8 961.1 2939.3 935.8 C 2925.2 928.4 2912.5 914.2 2894.7 919.4 C 2882.1 911.2 2876.1 891.1 2859 888.9 C 2856 882.2 2846.3 882.9 2847.1 874.8 C 2862.7 872.6 2857.5 852.5 2873.9 850.2 C 2887.3 857.6 2902.2 856.9 2916.3 851.7 C 2928.2 828.6 2894.7 822.7 2885.8 805.6 C 2879.1 795.9 2891.7 786.3 2893.2 781.8 C 2917.7 781.1 2931.9 830.1 2959.4 810.8 C 2966.1 810.8 2969 819 2977.2 816 C 2995 786.3 3018.8 758.7 3041.1 730.5 C 3048.5 712.6 3064.2 695.6 3055.2 673.2 C 3023.2 632.3 2966 624.8 2914.7 633.8 C 2901.3 645.7 2874.5 638.2 2871.6 660.6 C 2869.3 679.9 2856.7 694.1 2848.5 710.4 C 2844 709.7 2843.3 706 2843.3 701.5 C 2847 699.3 2840.3 695.6 2838.1 694.8 C 2815 723.1 2812.1 763.2 2796.5 796.7 C 2791.3 796.7 2793.5 789.3 2787.6 789.3 C 2747.4 910.5 2724.4 1037.7 2696.8 1164.1 C 2693.8 1173 2687.9 1176.7 2680.5 1181.9 C 2669.3 1173.7 2689.4 1153.6 2670.1 1147.7 C 2646.3 1202 2624.7 1257 2600.2 1310.6 C 2592.8 1299.4 2601 1289 2593.5 1278.6 C 2583.1 1276.4 2577.9 1280.8 2575.7 1289 C 2565.3 1312.1 2568.3 1344 2548.9 1360.4 C 2549.7 1355.2 2554.9 1339.6 2548.9 1332.1 C 2539.2 1338.8 2540 1361.8 2527.3 1355.2 C 2527.3 1339.6 2511 1321.7 2527.3 1308.3 C 2505.8 1278.5 2541.4 1242.1 2552.6 1210.1 C 2559.3 1204.9 2573.4 1201.2 2561.5 1190.8 C 2568.9 1182.6 2557 1158.8 2573.4 1160.3 C 2583 1153.6 2574.1 1149.1 2568.2 1146.2 C 2580.9 1118.7 2586 1088.2 2598.7 1060.7 C 2611.3 1056.2 2621 1045.8 2621.8 1031.7 C 2612.1 1030.2 2614.4 1018.3 2616.6 1012.4 C 2640.4 946.2 2653.8 875.5 2684.3 812.3 C 2688 798.2 2690.2 778.9 2702.1 766.2 C 2706.6 741.6 2720.7 722.3 2725.2 698.5 C 2694 704.4 2663.5 745.4 2627.1 725.3 C 2627.8 688.1 2579.5 731.2 2581 694.8 C 2578 672.5 2551.2 692.6 2545.3 671.7 C 2545.3 656.8 2553.5 649.4 2550.5 636 C 2563.9 642.7 2572 626.3 2584.7 627.1 C 2598.8 616 2592.1 595.9 2604 584 C 2634.5 576.6 2660.5 554.3 2689.5 549.8 C 2693.2 544.6 2696.2 537.1 2704.4 537.9 C 2719.3 538.7 2734.1 529 2749 525.3 C 2749 526 2749.8 526 2750.5 526.8 C 2765.4 517.2 2786.2 517.9 2798.8 505.3 C 2829.3 502.3 2858.3 484.5 2888 489.7 C 2908.1 486 2936.4 491.2 2952 471.9 C 2967.6 460.8 2986.2 479.3 3001.8 463 C 3018.7 473.9 3045.5 455.3 3062.6 471.7"/>
  <path class="st1" d="M 2884.1 923.1 C 2892.3 928.3 2900.5 935 2910.9 935.7 C 2944.4 987 3003.1 1021.2 3035.9 1074.8 C 3052.3 1089.7 3081.3 1094.1 3085.7 1119.4 C 3119.2 1146.9 3160.8 1174.4 3180.2 1212.4 C 3203.3 1224.3 3224.1 1239.2 3248.6 1245.9 C 3316.3 1299.4 3367.6 1356.7 3430.1 1415.4 C 3470.3 1461.5 3524.5 1471.9 3567.7 1508.4 C 3597.4 1536.7 3636.9 1564.9 3659.2 1597.7 C 3657.7 1600.7 3651 1600.7 3648 1597.7 C 3555 1517.4 3453.2 1455.6 3360.9 1373.1 C 3347.5 1374.6 3335.6 1364.2 3325.2 1355.3 C 3264.2 1324.1 3225.5 1245.2 3157.1 1228.1 C 3136.3 1190.9 3098.3 1168.6 3062.6 1147.8 C 3034.3 1136.7 3031.4 1100.2 3003.8 1092.8 C 2995.6 1082.4 2980.7 1081.6 2977 1067.5 C 2950.2 1037.7 2923.5 1004.3 2889.2 985.7 C 2878.8 975.3 2873.6 963.4 2866.1 951.5 C 2854.2 949.3 2833.4 958.2 2825.2 941.1 C 2813.3 941.1 2799.9 943.3 2793.2 932.2 C 2794.7 919.6 2806.6 912.9 2793.2 901.7 C 2807.3 864.5 2838.6 904.7 2862.4 901.7 C 2872.2 906 2879.6 913.4 2884.1 923.1"/>
  <path class="st1" d="M 2912.4 1019.8 C 2927.3 1032.4 2939.9 1046.6 2939.2 1065.9 C 2965.2 1111.3 3009.1 1143.2 3046.3 1176.7 C 3058.2 1198.3 3072.3 1219.1 3087.9 1239.2 C 3119.1 1225.8 3137.7 1261.5 3157.1 1280.1 C 3153.4 1303.2 3183.1 1307.6 3196.5 1321 C 3207.7 1316.5 3214.4 1327.7 3215.8 1337.3 C 3241.1 1347.7 3252.2 1380.4 3280.5 1383.4 C 3291.7 1405.7 3323.6 1396.1 3325.1 1422.8 C 3348.9 1441.4 3375.7 1455.5 3398 1472.6 C 3395.8 1487.5 3419.6 1479.3 3418.1 1495.7 C 3429.3 1503.9 3440.4 1519.5 3456.8 1517.2 C 3459.8 1538.8 3483.6 1538.8 3496.2 1549.2 C 3563.9 1606.5 3640.5 1657.8 3705.2 1717.3 C 3695.5 1717.3 3687.3 1711.3 3678.4 1708.4 C 3502.1 1570.1 3315.5 1448.1 3141.4 1301.6 C 3131.7 1296.4 3131 1285.3 3126.5 1276.3 C 3066.3 1268.1 3034.3 1202.7 2983.7 1169.2 C 2965.1 1118.6 2895.2 1107.5 2889.3 1051.7 C 2870.7 1034.6 2838 1041.3 2829.1 1012.3 C 2823.9 1010.1 2823.9 1002.6 2821.7 998.2 C 2811.3 987.8 2780.8 990.8 2789.7 969.2 C 2817.2 955.1 2839.5 986.3 2866.3 990.8 C 2878.9 1003.4 2897.5 1010.1 2912.4 1019.8"/>
  <path class="st1" d="M 2686.3 1198.3 C 2682.6 1228.8 2669.2 1256.3 2652.1 1281.6 C 2644.7 1280.1 2645.4 1268.2 2635.7 1266 C 2636.5 1262.3 2640.9 1260.1 2643.1 1257.1 C 2646.8 1257.1 2649.8 1256.3 2652 1253.4 C 2663.2 1233.3 2649.8 1199.1 2677.3 1190.9 C 2680.3 1192.3 2683.3 1195.3 2686.3 1198.3"/>
  <path class="st1" d="M 3599.5 1390.9 C 3608.4 1394.6 3615.1 1404.3 3626.3 1403.6 C 3648.6 1414.8 3659 1441.5 3682.1 1451.2 C 3667.2 1469.1 3651.6 1438.5 3633.8 1437.1 C 3617.4 1413.3 3583.2 1409.6 3576.5 1382.1 C 3585.4 1373.8 3594.3 1381.2 3599.5 1390.9"/>
  <path class="st1" d="M 3733.4 1483.8 C 3768.4 1506.9 3807 1521.7 3839 1547.8 C 3795.9 1542.6 3758.7 1511.4 3719.3 1490.5 C 3708.2 1487.5 3697 1482.3 3691 1471.2 C 3691.8 1466 3688 1459.3 3694.7 1457.1 C 3710.4 1459.3 3719.3 1477.9 3733.4 1483.8"/>
  <path class="st1" d="M 3742.3 1565.6 C 3737.8 1573 3729.7 1567.1 3724.5 1565.6 C 3697 1553 3671.7 1534.4 3646.4 1515.8 C 3641.2 1510.6 3647.2 1503.9 3653.1 1506.9 C 3685.1 1521.8 3713.3 1547.8 3742.3 1565.6"/>
  <path class="st1" d="M 3710.4 1631.9 C 3698.5 1637.1 3685.1 1624.5 3674.7 1615.5 C 3684.4 1596.9 3697 1627.4 3710.4 1628.1 L 3710.4 1631.9"/>
  <path class="st1" d="M 2398.3 1403.9 C 2414.1 1400.6 2457.3 1390.1 2462.7 1405.5 C 2468 1420.5 2505.2 1397.8 2508.6 1429.6 C 2511 1452.1 2497.8 1446.7 2496.3 1469.8 C 2495.5 1483.1 2477.4 1497.5 2456.4 1500.1 C 2389.8 1505.6 2270.3 1553.7 2270.3 1666 C 2270.3 1666 2262.9 1791.3 2393.4 1791.3 C 2393.4 1791.3 2474.8 1804.4 2539.9 1714.5 C 2543.5 1709.5 2554.1 1705.2 2559.8 1707.5 C 2563.3 1708.9 2566.1 1712 2565.8 1718.4 C 2565.6 1724.5 2562.4 1730.1 2558.2 1734.5 C 2555.2 1737.8 2552.3 1743 2555.4 1749.3 C 2560.9 1760.4 2559.4 1775.9 2546.1 1790.3 C 2546.1 1790.3 2484.5 1852.1 2394.5 1852.1 C 2304.4 1852.1 2182.3 1821.7 2182.3 1659.8 C 2182.3 1497.9 2303.8 1423.9 2398.3 1403.9 Z"/>
  <path class="st1" d="M 2855.6 1468.8 C 2774.6 1468.8 2760.1 1491.7 2757.8 1520.2 C 2753.9 1568.4 2733.8 1630.4 2717.9 1670.2 C 2696.1 1724.8 2645.5 1813.2 2645.5 1876 C 2645.5 1910.9 2632 1908.2 2632 1908.2 C 2624.1 1908.2 2619.9 1900.4 2617.6 1892.4 C 2616.9 1889.7 2613 1889.8 2612.4 1892.5 C 2608.9 1908.4 2601.3 1929.4 2585.3 1929.4 C 2559.6 1929.4 2556.4 1884.7 2556.4 1884.7 C 2556.4 1795.3 2662.2 1526.9 2662.2 1526.9 C 2662.2 1526.9 2581.3 1567.8 2565.9 1568.2 C 2536.7 1569.1 2532.8 1530.8 2556.3 1522.6 C 2558 1522 2557.9 1519.5 2556.1 1519 C 2544.9 1515.9 2528.1 1508.9 2528.1 1494.1 C 2528.1 1459.8 2584.5 1430.6 2691.6 1405.9 C 2691.6 1405.9 2695.9 1334.9 2718.5 1334.9 C 2734.2 1334.9 2760.6 1348.6 2775.3 1356.9 C 2781.8 1360.6 2785.9 1367.5 2785.9 1374.9 L 2785.9 1380.1 C 2785.9 1380.1 2870.3 1380.1 2898.4 1380.1 C 2950.1 1380.1 3049.6 1406.3 3049.6 1521.7 C 3049.6 1679.7 2834.4 1805 2673.3 1875.5 C 2669.2 1877.3 2664.6 1874.9 2663.2 1870.7 C 2660.9 1863.9 2660.1 1854.5 2671.6 1852.3 C 2674.6 1851.7 2676.4 1848.5 2675.7 1845.6 C 2672.3 1831 2668.5 1793.9 2708.2 1772 C 2758.5 1744.3 2942.1 1630.4 2948 1553.7 C 2953.8 1479.1 2903 1468.8 2855.6 1468.8 Z"/>
</svg>