<?xml version="1.0" encoding="utf-8"?>
<svg version="1.1" id="Warstwa_1" x="0px" y="0px" viewBox="0 0 200 40" xmlns="http://www.w3.org/2000/svg">
  <path d="M 131.488 34.999 C 131.488 33.869 131.488 32.834 131.488 31.716 C 131.249 31.704 131.015 31.682 130.778 31.682 C 117.664 31.682 104.557 31.682 91.442 31.672 C 90.876 31.672 90.634 31.793 90.683 32.402 C 90.732 33.04 90.721 33.687 90.688 34.329 C 90.661 34.839 90.805 35.034 91.352 35.017 C 92.66 34.977 93.968 34.999 95.274 35.005 C 96.277 35.012 96.914 35.565 96.935 36.428 C 96.957 37.288 96.249 37.952 95.286 37.958 C 93.335 37.962 91.386 37.962 89.437 37.958 C 88.44 37.952 87.798 37.37 87.781 36.374 C 87.754 34.357 87.754 32.342 87.781 30.325 C 87.792 29.252 88.358 28.763 89.491 28.763 C 96.669 28.758 103.846 28.763 111.019 28.763 C 118.172 28.763 125.329 28.763 132.479 28.763 C 133.978 28.763 134.384 29.157 134.384 30.636 C 134.384 32.519 134.39 34.402 134.384 36.286 C 134.378 37.403 133.829 37.962 132.722 37.962 C 122.487 37.962 112.26 37.952 102.025 37.984 C 101.106 37.99 100.258 37.249 100.286 36.466 C 100.313 35.554 100.934 35.017 102.042 35.017 C 111.567 35.017 121.087 35.017 130.612 35.017 C 130.878 34.999 131.138 34.999 131.488 34.999 Z" style="fill: rgb(204, 204, 204);"/>
  <path d="M 116.731 12.354 C 116.708 6.673 121.283 2.061 126.994 2.016 C 132.659 1.972 137.316 6.57 137.368 12.25 C 137.42 17.931 132.741 22.639 127.046 22.647 C 121.38 22.655 116.76 18.034 116.731 12.354 Z M 127.06 5.932 C 123.508 5.932 120.683 8.735 120.653 12.287 C 120.624 15.832 123.523 18.754 127.075 18.739 C 130.583 18.724 133.46 15.825 133.46 12.325 C 133.445 8.801 130.575 5.932 127.06 5.932 Z" style="fill: rgb(204, 204, 204);"/>
  <path d="M 26.555 24.89 L 29.855 6.14 L 39.095 6.14 C 40.535 6.14 41.58 6.39 42.23 6.89 C 42.88 7.39 43.205 8.16 43.205 9.2 C 43.205 10.72 42.87 11.97 42.2 12.95 C 41.53 13.93 40.715 14.54 39.755 14.78 L 39.725 14.96 C 41.525 15.3 42.425 16.49 42.425 18.53 C 42.425 20.33 41.935 21.84 40.955 23.06 C 39.975 24.28 38.595 24.89 36.815 24.89 Z M 35.795 17.42 L 33.545 17.42 L 33.005 20.48 L 35.225 20.48 C 35.725 20.48 36.105 20.28 36.365 19.88 C 36.625 19.48 36.755 18.97 36.755 18.35 C 36.755 17.73 36.435 17.42 35.795 17.42 Z M 36.635 10.25 L 34.835 10.25 L 34.325 13.04 L 36.095 13.04 C 37.015 13.04 37.475 12.39 37.475 11.09 C 37.475 10.53 37.195 10.25 36.635 10.25 Z M 59.435 24.89 L 53.165 24.89 L 51.785 19.31 L 50.555 19.31 L 49.595 24.89 L 43.895 24.89 L 47.195 6.14 L 56.195 6.14 C 59.615 6.14 61.325 7.67 61.325 10.73 C 61.325 11.99 61.135 13.19 60.755 14.33 C 60.055 16.49 58.955 17.93 57.455 18.65 Z M 52.025 10.94 L 51.365 14.69 L 52.685 14.69 C 53.365 14.69 53.88 14.615 54.23 14.465 C 54.58 14.315 54.82 13.885 54.95 13.175 C 55.08 12.465 55.145 12.03 55.145 11.87 C 55.145 11.47 54.99 11.215 54.68 11.105 C 54.37 10.995 53.865 10.94 53.165 10.94 Z M 74.494 17.81 L 68.794 17.81 L 68.404 20.09 L 75.394 20.09 L 74.554 24.89 L 61.864 24.89 L 65.164 6.14 L 77.704 6.14 L 76.144 10.94 L 69.994 10.94 L 69.574 13.46 L 75.274 13.46 Z M 82.024 24.89 L 76.024 24.89 L 83.914 6.14 L 92.734 6.14 L 94.054 24.89 L 88.024 24.89 L 87.904 21.92 L 83.194 21.92 Z M 87.154 11.9 L 85.054 17.15 L 87.454 17.15 L 87.454 11.9 Z M 103.354 17.3 L 103.384 16.73 L 103.144 16.73 L 101.734 24.89 L 96.034 24.89 L 99.334 6.14 L 105.034 6.14 L 103.684 13.79 L 103.924 13.79 C 104.084 13.15 104.264 12.67 104.464 12.35 L 108.244 6.14 L 114.394 6.14 L 108.514 15.35 L 111.244 24.89 L 105.094 24.89 L 103.444 18.17 C 103.384 17.97 103.354 17.68 103.354 17.3 Z" style="white-space: pre; fill: rgb(255, 255, 255);"/>
  <path d="M 147.915 6.161 L 145.425 20.231 L 147.465 20.231 C 148.165 20.231 148.665 20.136 148.965 19.946 C 149.265 19.756 149.475 19.321 149.595 18.641 L 151.815 6.161 L 157.515 6.161 L 155.655 16.691 C 155.355 18.391 155.01 19.761 154.62 20.801 C 154.23 21.841 153.685 22.721 152.985 23.441 C 152.285 24.161 151.42 24.661 150.39 24.941 C 149.36 25.221 148.055 25.361 146.475 25.361 C 144.055 25.361 142.36 24.996 141.39 24.266 C 140.42 23.536 139.935 22.281 139.935 20.501 C 139.935 19.521 140.075 18.251 140.355 16.691 L 142.215 6.161 Z M 172.575 10.961 L 168.435 10.961 L 166.005 24.911 L 160.305 24.911 L 162.735 10.961 L 158.625 10.961 L 159.495 6.161 L 173.445 6.161 Z" style="white-space: pre; fill: rgb(255, 255, 255);"/>
</svg>