<?xml version="1.0" encoding="utf-8"?>
<svg viewBox="0 0 200 40" xmlns="http://www.w3.org/2000/svg">
  <path d="M 37.59 24.985 L 37.59 24.985 L 33.862 24.985 L 33.08 29.504 L 27.368 29.504 L 30.675 10.802 L 39.695 10.802 L 39.695 10.802 C 43.102 10.802 44.806 12.377 44.806 15.53 L 44.806 15.53 L 44.806 15.53 C 44.806 17.026 44.596 18.376 44.175 19.579 L 44.175 19.579 L 44.175 19.579 C 43.753 20.789 43.29 21.751 42.782 22.461 L 42.782 22.461 L 42.782 22.461 C 42.267 23.168 41.562 23.766 40.667 24.258 L 40.667 24.258 L 40.667 24.258 C 39.778 24.743 38.753 24.985 37.59 24.985 Z M 36.838 15.59 L 35.516 15.59 L 34.704 20.198 L 36.027 20.198 L 36.027 20.198 C 36.708 20.198 37.222 20.124 37.57 19.978 L 37.57 19.978 L 37.57 19.978 C 37.924 19.826 38.152 19.48 38.252 18.941 L 38.252 18.941 L 38.252 18.941 C 38.512 17.465 38.642 16.657 38.642 16.518 L 38.642 16.518 L 38.642 16.518 C 38.642 16.138 38.492 15.889 38.191 15.769 L 38.191 15.769 L 38.191 15.769 C 37.891 15.65 37.439 15.59 36.838 15.59 L 36.838 15.59 Z M 56.862 24.716 L 56.021 29.504 L 44.596 29.504 L 47.903 10.802 L 53.615 10.802 L 51.15 24.716 L 56.862 24.716 Z M 61.342 26.542 L 60.17 29.504 L 54.157 29.504 L 62.064 10.802 L 70.903 10.802 L 72.226 29.504 L 66.183 29.504 L 66.063 26.542 L 61.342 26.542 Z M 65.612 16.548 L 65.311 16.548 L 63.206 21.784 L 65.612 21.784 L 65.612 16.548 Z M 89.093 10.802 L 88.22 15.59 L 84.071 15.59 L 81.637 29.504 L 75.924 29.504 L 78.359 15.59 L 74.24 15.59 L 75.112 10.802 L 89.093 10.802 Z M 100.788 18.104 L 99.976 22.562 L 95.106 22.562 L 93.903 29.504 L 88.191 29.504 L 91.498 10.802 L 103.223 10.802 L 101.63 15.59 L 96.339 15.59 L 95.917 18.104 L 100.788 18.104 Z M 109.808 17.055 L 109.808 17.055 L 108.425 24.836 L 110.8 24.836 L 110.8 24.836 C 111.582 24.836 112.163 24.743 112.544 24.556 L 112.544 24.556 L 112.544 24.556 C 112.925 24.364 113.175 23.928 113.296 23.25 L 113.296 23.25 L 114.679 15.47 L 112.273 15.47 L 112.273 15.47 C 111.512 15.47 110.94 15.563 110.559 15.75 L 110.559 15.75 L 110.559 15.75 C 110.179 15.942 109.928 16.378 109.808 17.055 Z M 113.265 10.353 L 113.265 10.353 L 113.265 10.353 C 115.811 10.353 117.625 10.848 118.707 11.839 L 118.707 11.839 L 118.707 11.839 C 119.79 12.824 120.331 14.343 120.331 16.398 L 120.331 16.398 L 120.331 16.398 C 120.331 18.452 120.003 20.603 119.348 22.851 L 119.348 22.851 L 119.348 22.851 C 118.7 25.092 117.668 26.834 116.252 28.078 L 116.252 28.078 L 116.252 28.078 C 114.842 29.328 112.777 29.953 110.058 29.953 L 110.058 29.953 L 110.058 29.953 C 107.345 29.953 105.448 29.461 104.366 28.477 L 104.366 28.477 L 104.366 28.477 C 103.284 27.486 102.742 25.963 102.742 23.908 L 102.742 23.908 L 102.742 23.908 C 102.742 22.931 102.883 21.641 103.163 20.038 L 103.163 20.038 L 103.163 20.038 C 103.444 18.429 103.815 17.043 104.275 15.879 L 104.275 15.879 L 104.275 15.879 C 104.737 14.709 105.358 13.694 106.139 12.837 L 106.139 12.837 L 106.139 12.837 C 107.643 11.181 110.018 10.353 113.265 10.353 Z M 134.852 23.28 L 136.837 29.504 L 130.553 29.504 L 129.17 23.939 L 127.938 23.939 L 126.975 29.504 L 121.263 29.504 L 124.57 10.802 L 133.59 10.802 L 133.59 10.802 C 137.017 10.802 138.731 12.328 138.731 15.38 L 138.731 15.38 L 138.731 15.38 C 138.731 16.637 138.541 17.834 138.16 18.971 L 138.16 18.971 L 138.16 18.971 C 137.458 21.125 136.356 22.562 134.852 23.28 L 134.852 23.28 Z M 130.553 15.59 L 129.411 15.59 L 128.749 19.331 L 130.072 19.331 L 130.072 19.331 C 130.754 19.331 131.268 19.257 131.616 19.111 L 131.616 19.111 L 131.616 19.111 C 131.97 18.958 132.21 18.529 132.337 17.823 L 132.337 17.823 L 132.337 17.823 C 132.47 17.113 132.537 16.677 132.537 16.518 L 132.537 16.518 L 132.537 16.518 C 132.537 16.118 132.384 15.862 132.076 15.75 L 132.076 15.75 L 132.076 15.75 C 131.763 15.642 131.254 15.59 130.553 15.59 L 130.553 15.59 Z M 146.639 20.437 L 144.684 29.504 L 138.731 29.504 L 143.121 10.802 L 150.577 10.802 L 151.118 20.317 L 151.328 20.317 L 155.237 10.802 L 162.694 10.802 L 160.468 29.504 L 154.486 29.504 L 155.748 20.437 L 155.537 20.437 L 151.779 29.504 L 147.42 29.504 L 146.789 20.437 L 146.639 20.437 Z M 177.095 18.104 L 176.313 22.442 L 170.601 22.442 L 170.21 24.716 L 177.215 24.716 L 176.373 29.504 L 163.655 29.504 L 166.962 10.802 L 179.53 10.802 L 177.967 15.59 L 171.803 15.59 L 171.382 18.104 L 177.095 18.104 Z M 193.18 23.28 L 195.164 29.504 L 188.88 29.504 L 187.497 23.939 L 186.265 23.939 L 185.302 29.504 L 179.59 29.504 L 182.898 10.802 L 191.917 10.802 L 191.917 10.802 C 195.344 10.802 197.058 12.328 197.058 15.38 L 197.058 15.38 L 197.058 15.38 C 197.058 16.637 196.868 17.834 196.487 18.971 L 196.487 18.971 L 196.487 18.971 C 195.786 21.125 194.683 22.562 193.18 23.28 L 193.18 23.28 Z M 188.88 15.59 L 187.738 15.59 L 187.077 19.331 L 188.399 19.331 L 188.399 19.331 C 189.081 19.331 189.595 19.257 189.943 19.111 L 189.943 19.111 L 189.943 19.111 C 190.297 18.958 190.537 18.529 190.664 17.823 L 190.664 17.823 L 190.664 17.823 C 190.797 17.113 190.865 16.677 190.865 16.518 L 190.865 16.518 L 190.865 16.518 C 190.865 16.118 190.711 15.862 190.404 15.75 L 190.404 15.75 L 190.404 15.75 C 190.09 15.642 189.582 15.59 188.88 15.59 L 188.88 15.59 Z" style="white-space: pre; fill: rgb(255, 255, 255);"/>
  <g id="layer2" fill="#d4d4d4" stroke="none" transform="matrix(0.008971, 0, 0, 0.008929, 2.942215, 9.999518)">
    <path d="M0 1120 l0 -1120 1120 0 1120 0 0 1120 0 1120 -1120 0 -1120 0 0 -1120z m300 920 l0 -100 -100 0 -100 0 0 100 0 100 100 0 100 0 0 -100z m1840 0 l0 -100 -100 0 -100 0 0 100 0 100 100 0 100 0 0 -100z m-780 -285 l0 -155 -160 0 -160 0 0 155 0 155 160 0 160 0 0 -155z m0 -485 l0 -160 160 0 160 0 0 -315 0 -315 -85 0 -85 0 0 -80 0 -80 -400 0 -400 0 0 80 0 80 -75 0 -75 0 0 240 0 240 160 0 160 0 0 -240 0 -240 240 0 240 0 0 240 0 240 -85 0 -85 0 0 75 0 75 -75 0 -75 0 0 160 0 160 160 0 160 0 0 -160z m-1060 -1070 l0 -100 -100 0 -100 0 0 100 0 100 100 0 100 0 0 -100z m1840 0 l0 -100 -100 0 -100 0 0 100 0 100 100 0 100 0 0 -100z" style="fill: rgb(204, 204, 204);"/>
  </g>
</svg>