<?xml version="1.0" encoding="utf-8"?>
<svg viewBox="0 0 200 40" xmlns="http://www.w3.org/2000/svg">
  <g id="layer1" fill="#000000" stroke="none" transform="matrix(0.008665, 0, 0, 0.008616, 7.641223, 7.105177)">
    <path d="M1790 2655 c-19 -22 -8 -150 17 -206 l21 -46 406 -101 c394 -98 497 -130 543 -174 49 -46 48 -52 -36 -518 -43 -239 -77 -436 -76 -438 2 -2 68 39 149 89 l146 92 0 41 c0 23 -9 263 -20 533 -15 381 -23 499 -34 521 -16 31 -90 103 -125 121 -12 7 -219 30 -459 51 -240 21 -456 41 -479 44 -29 4 -45 1 -53 -9z" style="fill: rgb(204, 204, 204);"/>
    <path d="M936 2431 c-4 -6 -206 -739 -276 -1000 l-11 -43 -42 6 c-23 4 -43 9 -45 10 -2 2 49 197 112 433 64 236 116 436 116 445 0 34 -149 84 -281 95 -69 5 -78 4 -87 -13 -30 -57 -345 -958 -353 -1009 -10 -68 -12 -239 -3 -272 4 -14 44 -47 107 -88 l100 -65 89 1 c127 2 130 -1 216 -203 11 -25 31 -53 44 -61 12 -8 76 -29 140 -47 l117 -33 79 23 c79 23 80 23 118 4 33 -16 46 -33 81 -103 23 -46 46 -88 51 -93 15 -15 314 -80 339 -73 13 3 53 33 91 67 81 74 119 98 153 98 23 0 65 -24 145 -83 40 -30 319 -76 352 -58 26 14 99 124 147 221 35 71 42 108 160 765 122 684 123 690 103 707 -59 52 -417 120 -466 90 -7 -5 -63 -235 -128 -533 -64 -288 -117 -525 -119 -527 -5 -6 -85 19 -85 26 0 4 47 244 105 532 58 289 104 534 103 545 -4 24 -81 57 -218 91 -128 32 -320 57 -351 46 -23 -9 -31 -40 -149 -543 l-126 -534 -34 3 c-19 1 -39 7 -44 12 -6 6 35 209 108 537 134 604 133 537 5 578 -138 43 -348 70 -363 46z" style="fill: rgb(204, 204, 204);"/>
  </g>
  <path d="M 36.683 29.427 L 39.983 10.677 L 49.223 10.677 C 50.663 10.677 51.708 10.927 52.358 11.427 C 53.008 11.927 53.333 12.697 53.333 13.737 C 53.333 15.257 52.998 16.507 52.328 17.487 C 51.658 18.467 50.843 19.077 49.883 19.317 L 49.853 19.497 C 51.653 19.837 52.553 21.027 52.553 23.067 C 52.553 24.867 52.063 26.377 51.083 27.597 C 50.103 28.817 48.723 29.427 46.943 29.427 Z M 45.923 21.957 L 43.673 21.957 L 43.133 25.017 L 45.353 25.017 C 45.853 25.017 46.233 24.817 46.493 24.417 C 46.753 24.017 46.883 23.507 46.883 22.887 C 46.883 22.267 46.563 21.957 45.923 21.957 Z M 46.763 14.787 L 44.963 14.787 L 44.453 17.577 L 46.223 17.577 C 47.143 17.577 47.603 16.927 47.603 15.627 C 47.603 15.067 47.323 14.787 46.763 14.787 Z M 66.652 22.347 L 60.952 22.347 L 60.562 24.627 L 67.552 24.627 L 66.712 29.427 L 54.022 29.427 L 57.322 10.677 L 69.862 10.677 L 68.302 15.477 L 62.152 15.477 L 61.732 17.997 L 67.432 17.997 Z M 74.182 29.427 L 68.182 29.427 L 76.072 10.677 L 84.892 10.677 L 86.212 29.427 L 80.182 29.427 L 80.062 26.457 L 75.352 26.457 Z M 79.312 16.437 L 77.212 21.687 L 79.612 21.687 L 79.612 16.437 Z M 102.171 15.477 L 98.031 15.477 L 95.601 29.427 L 89.901 29.427 L 92.331 15.477 L 88.221 15.477 L 89.091 10.677 L 103.041 10.677 Z M 110.21 10.557 L 109.88 12.477 C 109.86 12.557 108.91 15.207 107.03 20.427 L 104.18 20.427 L 104.18 13.497 C 104.18 12.777 104.28 11.857 104.48 10.737 C 104.56 10.197 104.96 9.927 105.68 9.927 L 109.28 9.927 C 109.9 9.927 110.21 10.137 110.21 10.557 Z M 122.63 22.347 L 116.93 22.347 L 116.54 24.627 L 123.53 24.627 L 122.69 29.427 L 110 29.427 L 113.3 10.677 L 125.84 10.677 L 124.28 15.477 L 118.13 15.477 L 117.71 17.997 L 123.41 17.997 Z M 131.299 29.427 L 125.359 29.427 L 129.739 10.677 L 137.179 10.677 L 137.719 20.217 L 137.929 20.217 L 141.829 10.677 L 149.269 10.677 L 147.049 29.427 L 141.079 29.427 L 142.339 20.337 L 142.129 20.337 L 138.379 29.427 L 134.029 29.427 L 133.399 20.337 L 133.249 20.337 Z M 164.808 10.677 L 162.318 24.747 L 164.358 24.747 C 165.058 24.747 165.558 24.652 165.858 24.462 C 166.158 24.272 166.368 23.837 166.488 23.157 L 168.708 10.677 L 174.408 10.677 L 172.548 21.207 C 172.248 22.907 171.903 24.277 171.513 25.317 C 171.123 26.357 170.578 27.237 169.878 27.957 C 169.178 28.677 168.313 29.177 167.283 29.457 C 166.253 29.737 164.948 29.877 163.368 29.877 C 160.948 29.877 159.253 29.512 158.283 28.782 C 157.313 28.052 156.828 26.797 156.828 25.017 C 156.828 24.037 156.968 22.767 157.248 21.207 L 159.108 10.677 Z M 184.637 24.897 L 180.917 24.897 L 180.137 29.427 L 174.437 29.427 L 177.737 10.677 L 186.737 10.677 C 190.137 10.677 191.837 12.257 191.837 15.417 C 191.837 16.917 191.627 18.272 191.207 19.482 C 190.787 20.692 190.322 21.652 189.812 22.362 C 189.302 23.072 188.602 23.672 187.712 24.162 C 186.822 24.652 185.797 24.897 184.637 24.897 Z M 182.567 15.477 L 181.757 20.097 L 183.077 20.097 C 183.757 20.097 184.272 20.022 184.622 19.872 C 184.972 19.722 185.197 19.377 185.297 18.837 C 185.557 17.357 185.687 16.547 185.687 16.407 C 185.687 16.027 185.537 15.777 185.237 15.657 C 184.937 15.537 184.487 15.477 183.887 15.477 Z" style="white-space: pre; fill: rgb(255, 255, 255);"/>
</svg>