<?xml version="1.0" encoding="utf-8"?>
<svg height="166.847" viewBox="0 0 553.062 116.793" width="790.088" xmlns="http://www.w3.org/2000/svg">
  <path d="M 65.539 2.268 C 57.877 2.692 50.577 5.831 44.137 9.859 C 30.433 18.768 20.902 32.596 13.102 46.675 C 6.737 58.255 3.099 71.359 2.542 84.558 C 2.356 90.035 2.768 96.093 6.62 100.376 C 10.355 104.836 15.65 108.308 21.514 108.949 C 26.889 108.702 32.082 106.853 36.997 104.763 C 46.002 100.813 53.651 94.253 59.622 86.502 C 63.802 81.252 67.474 75.596 72.134 70.738 C 73.036 69.739 74.442 67.844 72.855 66.795 C 70.414 65.231 67.321 66.081 64.595 65.88 C 60.05 65.715 55.273 67.221 52.335 70.847 C 47.492 76.514 42.89 83.153 35.652 85.807 C 32.728 86.837 28.688 87.508 26.487 84.715 C 24.147 81.418 24.402 77.123 24.309 73.285 C 24.132 67.208 26.069 61.356 28.633 55.915 C 32.24 47.731 36.497 39.615 43.106 33.429 C 47.066 29.527 51.349 25.209 57.078 24.254 C 59.179 23.859 61.15 25.176 62.04 26.979 C 63.791 29.394 64.705 32.311 66.376 34.767 C 67.426 35.425 68.69 34.242 69.811 34.176 C 74.748 32.603 80.011 31.687 84.54 29.069 C 86.31 28.098 86.569 25.844 85.86 24.119 C 84.007 18.492 81.39 13.071 78.045 8.176 C 75.261 4.199 70.311 2.141 65.539 2.268 L 65.539 2.268 Z" opacity=".98" style="fill: rgb(255, 255, 255);"/>
  <path d="M 122.866 43.195 C 116.522 43.295 110.646 46.318 105.396 49.631 C 95.816 56.171 88.036 65.55 83.844 76.399 C 82.378 80.785 81.271 86.047 83.721 90.291 C 85.231 92.878 88.385 93.604 91.174 93.407 C 96.659 93.388 101.727 90.957 106.711 88.973 C 107.682 88.899 107.273 90.423 107.636 91 C 108.131 93.332 110.824 94.57 112.951 93.582 C 115.353 92.794 117.937 91.808 119.651 89.878 C 121.698 85.598 121.657 80.593 123.961 76.45 C 127.171 69.905 132.057 64.36 135.456 57.935 C 136.992 54.958 136.345 51.238 134.08 48.815 C 131.466 45.553 127.602 42.992 123.276 43.195 L 123.017 43.195 L 122.866 43.195 Z M 116.956 57.457 C 118.151 57.307 119.033 58.423 118.681 59.584 C 118.166 64.64 114.873 68.875 111.713 72.648 C 108.478 76.028 105.057 79.972 100.29 81.079 C 98.372 81.646 96.837 79.713 97.213 77.919 C 97.918 73.18 100.993 69.263 103.973 65.69 C 107.383 62.01 111.563 58.568 116.566 57.476 C 116.696 57.464 116.826 57.456 116.956 57.456 L 116.956 57.457 Z" opacity=".98" style="fill: rgb(255, 255, 255);"/>
  <path d="M 180.68 43.853 C 174.392 43.972 168.773 47.376 164.036 51.237 C 164.339 49.215 166.256 46.219 163.988 44.741 C 161.102 44.025 157.786 44.441 155.141 45.833 C 150.71 49.066 148.863 54.589 146.295 59.224 C 142.067 68.299 137.209 77.168 134.177 86.739 C 133.847 88.26 133.4 90.219 134.311 91.509 C 139.543 91.589 144.498 88.813 148.323 85.431 C 150.264 83.761 151.806 81.636 152.13 79.043 C 154.57 72.318 158.464 66.023 163.535 60.964 C 166.751 58.226 170.536 55.661 174.812 55.066 C 177.336 54.968 177.198 58.173 176.808 59.869 C 174.476 67.998 169.627 75.225 167.258 83.385 C 166.641 86.118 165.036 89.581 166.926 92.133 C 168.765 93.746 171.209 91.662 173.005 90.979 C 176.268 89.263 179.965 87.253 180.975 83.399 C 183.355 76.249 185.654 69.076 188.612 62.139 C 190.292 57.376 192.223 51.201 188.588 46.847 C 186.696 44.506 183.57 43.744 180.68 43.853 L 180.68 43.853 Z" opacity=".98" style="fill: rgb(255, 255, 255);"/>
  <path d="M 237.93 43.341 C 231.221 43.805 224.87 47.046 219.949 51.536 C 220.622 49.445 222.417 47.02 221.399 44.788 C 219.086 42.525 215.584 44.43 213.015 45.152 C 207.338 47.376 205.17 53.707 202.524 58.662 C 198.349 67.959 193.632 77.109 190.785 86.927 C 190.473 88.38 189.714 91.313 191.879 91.61 C 195.844 91.094 199.489 89.012 202.874 86.974 C 207.854 83.294 208.724 76.631 211.841 71.623 C 215.944 63.843 222.555 56.738 231.225 54.369 C 233.165 54.417 233.927 57.139 233.556 58.777 C 230.735 68.352 224.962 76.897 222.726 86.685 C 222.55 88.655 221.887 91.686 223.959 92.88 C 226.639 92.588 228.945 90.712 231.369 89.608 C 235.172 87.793 237.699 84.137 238.58 80.076 C 240.542 72.684 243.915 65.813 246.258 58.559 C 247.724 54.188 247.518 48.701 243.736 45.537 C 242.183 44.037 240.101 43.19 237.93 43.341 L 237.93 43.341 Z" opacity=".98" style="fill: rgb(255, 255, 255);"/>
  <path d="M 288.986 44.018 C 275.187 44.311 262.686 53.196 255.391 64.532 C 251.9 70.099 249.156 76.547 249.864 83.258 C 250.319 88.314 254.939 92.934 260.165 92.718 C 269.777 92.683 278.901 88.098 286.196 82.089 C 292.421 76.613 298.805 70.627 301.92 62.763 C 303.439 58.035 303.862 52.128 300.251 48.208 C 297.891 45.122 294.001 43.755 290.195 44.018 C 289.792 44.006 289.389 44.017 288.986 44.018 L 288.986 44.018 Z M 286.819 54.292 C 289.712 54.419 289.984 58.089 289.507 60.222 C 287.802 68.048 282.439 74.881 275.781 79.185 C 272.416 80.949 268.109 82.625 264.505 80.779 C 262.133 78.166 263.58 74.289 264.684 71.429 C 268.154 63.626 274.598 56.59 283.288 54.834 C 284.443 54.554 285.623 54.281 286.819 54.292 L 286.819 54.292 Z" opacity=".98" style="fill: rgb(255, 255, 255);"/>
  <path d="M 350.721 43.71 C 344.439 43.874 338.803 47.217 334.094 51.121 C 334.493 49.133 336.284 46.106 333.917 44.731 C 329.957 43.797 325.304 44.942 322.633 48.167 C 318.835 52.654 316.945 58.397 314.198 63.531 C 310.531 71.637 306.37 79.614 303.82 88.161 C 303.212 89.631 303.902 91.901 305.81 91.625 C 311.145 90.729 316.238 87.893 319.891 83.901 C 322.155 81.229 321.958 77.365 323.981 74.533 C 328.364 66.918 333.774 59.006 342.123 55.417 C 343.673 54.677 346.716 54.039 347.152 56.281 C 347.274 61.127 344.582 65.526 342.794 69.869 C 339.934 76.313 336.442 82.845 335.945 89.988 C 336.148 91.563 337.532 93.558 339.324 92.537 C 343.374 90.647 348.263 88.956 350.46 84.746 C 352.95 78.531 354.426 71.936 357.223 65.824 C 359.443 60.302 362.443 53.738 359.407 47.929 C 357.707 44.896 354.046 43.594 350.721 43.709 L 350.721 43.71 Z" opacity=".98" style="fill: rgb(255, 255, 255);"/>
  <path d="M 421.876 2.894 C 410.392 3.009 399.161 6.218 388.461 10.16 C 383.823 12.245 378.621 13.95 375.108 17.793 C 373.892 19.133 375.278 20.813 376.833 20.743 C 379.568 21.34 382.612 20.978 385.194 21.966 C 383.494 27.201 380.524 32.049 378.359 37.155 C 370.732 54.093 363.429 71.29 358.491 89.23 C 357.238 92.995 357.978 98.145 354.135 100.533 C 351.684 101.894 348.217 102.188 346.62 104.779 C 345.78 107.417 349.126 108.379 351.08 108.732 C 358.78 110.316 366.7 109.26 374.485 109.106 C 388.159 108.17 401.648 104.73 414.292 99.488 C 420.997 96.528 426.115 89.726 426.622 82.361 C 426.947 75.798 423.347 69.719 418.446 65.6 C 415.186 62.21 410.581 60.778 406.996 57.885 C 412.296 54.409 418.233 51.728 423.309 47.809 C 431.587 41.654 439.837 34.626 444.484 25.22 C 446.132 21.277 446.282 16.581 444.792 12.574 C 441.538 7.243 435.684 3.473 429.378 3.164 C 426.886 2.914 424.378 2.88 421.876 2.894 L 421.876 2.894 Z M 417.616 15.304 C 421.222 15.248 425.986 15.618 427.575 19.514 C 428.654 22.188 428.093 25.235 427.679 27.948 C 424.809 36.193 416.912 41.056 409.849 45.375 C 403.984 48.587 397.74 51.949 391.072 52.613 C 388.456 52.768 388.496 49.593 389.085 47.81 C 391.243 40.078 394.517 32.54 398.355 25.502 C 400.965 20.693 405.375 16.524 410.992 15.795 C 413.179 15.403 415.407 15.305 417.616 15.304 Z M 390.679 65.667 C 396.385 66.347 401.962 68.663 406.339 72.417 C 409.863 75.506 411.679 81.167 408.662 85.207 C 406.342 88.647 401.912 89.704 398.339 91.225 C 392.337 93.202 386.005 94.879 379.663 94.682 C 378.527 94.636 376.81 94.318 377.306 92.764 C 378.28 85.244 380.302 77.816 382.813 70.66 C 384.006 67.41 387.23 65.363 390.679 65.667 Z" opacity=".98" style="fill: rgb(255, 255, 255);"/>
  <path d="M 472.97 43.02 C 463.447 43.97 455.081 49.583 448.02 55.699 C 439.716 63.323 433.404 73.791 432.427 85.177 C 431.85 89.545 436.038 92.661 439.987 93.089 C 446.053 94.073 451.781 90.999 457.144 88.869 C 458.081 90.779 458.66 94.165 461.483 93.826 C 464.573 93.335 467.91 92.02 469.859 89.473 C 471.547 85.681 471.617 81.376 473.344 77.574 C 476.301 69.638 484.244 64.381 485.958 55.877 C 487.011 52.263 484.564 49.027 481.905 46.893 C 479.368 44.873 476.335 42.938 472.97 43.02 L 472.97 43.02 Z M 467.274 57.247 C 469.511 57.485 468.807 60.361 468.293 61.789 C 465.558 68.739 460.569 74.759 454.599 79.185 C 452.526 80.395 449.332 82.148 447.266 80.155 C 446.215 76.967 448.439 73.779 449.986 71.117 C 453.92 65.45 458.98 60.009 465.565 57.497 C 466.118 57.337 466.695 57.212 467.274 57.247 Z" opacity=".98" style="fill: rgb(255, 255, 255);"/>
  <path d="M 519.308 30.818 C 514.933 31.215 510.912 33.607 507.547 36.318 C 502.255 42.5 498.841 50.033 495.136 57.218 C 490.788 66.423 486.804 75.804 482.839 85.178 C 482.117 87.514 480.329 90.896 482.676 92.843 C 485.064 93.406 487.228 91.325 489.389 90.596 C 493.243 88.771 497.823 86.754 499.004 82.205 C 503.217 69.341 509.064 57.075 515.199 45.027 C 517.11 40.999 520.277 37.441 521.228 33.022 C 521.29 31.91 520.59 30.632 519.308 30.819 L 519.308 30.818 Z" opacity=".98" style="fill: rgb(255, 255, 255);"/>
  <path d="M 547.423 31.909 C 542.304 31.693 537.401 34.369 534.619 38.632 C 527.982 48.396 523.509 59.418 518.319 69.976 C 515.5 76.48 511.901 82.789 510.376 89.761 C 509.864 91.491 511.386 93.881 513.339 92.901 C 517.649 91.387 522.299 89.744 525.49 86.331 C 528.4 81.709 529.481 76.202 531.889 71.325 C 537.09 59.048 542.575 46.908 549.61 35.563 C 550.473 34.534 551.331 32.038 549.186 32.003 C 548.602 31.919 548.011 31.906 547.422 31.909 L 547.423 31.909 Z" opacity=".98" style="fill: rgb(255, 255, 255);"/>
</svg>