<?xml version="1.0" encoding="UTF-8" standalone="no"?>
<!-- Created with Inkscape (http://www.inkscape.org/) -->

<svg
   width="96.06263mm"
   height="27.632357mm"
   viewBox="0 0 96.062629 27.632356"
   version="1.1"
   id="svg5"
   xmlns="http://www.w3.org/2000/svg"
   xmlns:svg="http://www.w3.org/2000/svg">
  <defs
     id="defs2" />
  <g
     id="layer1"
     transform="translate(-43.644215,-130.22154)">
    <g
       aria-label="CATACOMB"
       id="text1516"
       style="font-size:16.9333px;font-family:'Pieces NFI';-inkscape-font-specification:'Pieces NFI, Normal';fill:#ffffff;stroke-width:0.264583">
      <path
         d="m 47.809806,144.22538 c 0.609599,0.0169 0.795866,0.49107 0.795866,0.99907 0,0.1016 0,0.2032 -0.01693,0.33866 -0.01693,0.38947 -0.118533,0.98213 -0.118533,1.1176 v 0.0339 c 0.01693,0.28786 0.06773,1.03293 0.524932,1.03293 0.507999,0 0.660399,-0.42333 0.660399,-0.9144 0,-0.508 -0.237066,-1.13453 -0.237066,-1.54093 0,-0.42333 0.08467,-0.79587 0.541866,-0.79587 0.609598,0 0.355599,0.94827 0.914398,0.94827 0.186266,0 0.389466,-0.33867 0.457199,-0.508 0.06773,-0.13547 0.186266,-0.5588 0.321733,-0.94826 0.169333,-0.4572 0.338666,-0.8128 0.745065,-0.8128 0.321732,0 0.186266,0.8636 0.643465,0.8636 0.135467,0 0.372533,-0.0508 0.423333,-0.254 0.135466,-0.54187 0.169333,-1.20227 0.169333,-1.8796 -0.01693,-0.89747 -0.01693,-1.40546 -0.01693,-1.86266 v -0.52494 l 0.1524,-0.60959 c -0.06773,-0.42334 -0.237066,-0.57574 -0.423332,-0.57574 -0.270933,0 -0.592666,0.3048 -0.677332,0.52494 -0.474133,1.28693 -2.09973,1.60866 -3.149594,1.60866 -1.066798,0 -1.74413,-0.762 -2.133596,-1.76106 0,-0.1524 -0.220133,-1.69333 -0.220133,-1.86267 0,-0.98213 0.118533,-1.49013 0.491066,-1.86266 0.08467,-0.0677 0.304799,-0.1524 0.457199,-0.254 0.135466,-0.1016 0.237066,-0.3048 0.338666,-0.37253 0.0508,-0.0339 0.08467,-0.0339 0.118533,-0.0339 0.08467,0 0.1016,0.11853 0.1016,0.27093 0,0.8128 0,1.13454 0.03387,1.23614 0.135467,0.23706 0.372533,0.25399 0.457199,0.25399 0.3048,0 0.321733,-0.25399 0.4572,-0.45719 0.135466,-0.22014 0.287866,-0.64347 0.287866,-0.64347 0.186266,-0.11853 0.592665,-0.254 0.880531,-0.254 0.220133,0 0.3556,0.1016 0.3556,0.32173 0,0.18627 -0.1016,0.4064 -0.1016,0.6096 0,0.33867 0.389466,0.8128 0.728132,0.8128 0.491065,0 0.677332,-0.44027 0.711198,-0.82973 0,-0.59267 -0.186266,-0.77893 -0.186266,-0.84667 0,-0.89746 0.778932,-1.21919 0.778932,-2.06586 0,-1.08373 -0.575732,-1.54093 -1.659464,-1.89653 -0.321732,-0.11853 -0.728132,-0.11853 -1.253064,-0.37253 -0.237066,-0.11853 -0.474132,-0.1524 -0.694265,-0.1524 -0.220133,0 -0.423333,0.0339 -0.575732,0.0339 -0.863599,0 -1.591731,0.32173 -2.472262,0.38946 -0.2032,0.59267 -0.965198,0.98213 -1.371597,1.38853 -0.4064,0.38947 -0.4572,0.67733 -0.677332,1.35467 -0.118534,0.4064 -0.507999,0.64346 -0.609599,1.10066 -0.08467,0.37253 -0.118533,0.77893 -0.118533,1.1684 0,0.42333 0.03387,0.79586 0.03387,1.03293 0,0.9144 0.118533,3.09879 0.338666,3.96239 0.254,1.04987 0.880532,1.91346 0.914398,3.048 0,0.22013 0.0508,0.66039 0.0508,1.20226 0,0.3048 -0.01693,0.64347 -0.06773,0.98213 -0.0508,0.33867 -0.1016,0.72813 -0.1016,1.1176 0,0.7112 0.1524,1.35466 0.728132,1.35466 0.609599,0 0.812799,-1.28693 0.812799,-1.76106 0,-0.64347 -0.423333,-1.1684 -0.507999,-1.8288 0,-0.42333 0.08467,-0.86359 0.220133,-1.03293 0.08467,-0.11853 0.169333,-0.1524 0.237066,-0.1524 0.08467,0 0.152399,0.0677 0.152399,0.1524 0,0.8128 0.06773,1.20227 0.4572,1.33773 0.08467,-0.0677 0.203199,-0.13546 0.287866,-0.254 0.169333,-0.28786 0.304799,-0.67733 0.609598,-0.67733 z"
         id="path1768" />
      <path
         d="m 63.760987,147.57818 c 0.06773,0.45719 0.372533,1.54093 1.015998,1.54093 0.457199,0 0.507999,-1.54093 0.507999,-1.69333 0,-3.33586 0.03387,-3.4544 0.08467,-3.4544 0.06773,0 0.1524,0.13547 0.253999,0.32174 0.2032,0.37253 0.237067,0.93133 0.237067,1.50706 0,1.50706 0.0508,2.08279 0.491065,2.08279 0.524933,0 0.626532,-0.37253 0.626532,-0.82973 0,-1.77799 -0.304799,-3.65759 -0.474132,-5.41865 -0.0508,-0.52494 -0.440266,-0.82973 -0.914398,-1.0668 -0.01693,-0.22013 -0.118533,-1.28693 -0.1524,-1.524 -0.01693,-0.11853 -0.118533,-0.54186 -0.1524,-0.6096 -0.06773,-0.1524 -0.694265,-1.35466 -0.761998,-1.52399 -0.06773,-0.16934 -0.254,-1.50707 -0.3048,-1.6764 -0.01693,-0.0339 -0.101599,-0.52493 -0.186266,-0.72813 -0.01693,-0.0339 -0.270933,-0.3048 -0.270933,-0.33867 -0.101599,-0.62653 -0.0508,-1.18533 -0.135466,-1.77799 -0.08467,-0.508 -0.304799,-1.0668 -0.474132,-1.5748 -0.1524,-0.47413 -0.948265,-0.54187 -1.591731,-0.54187 -0.270932,0 -0.507999,0.0169 -0.660398,0.0169 -0.965198,0 -2.252129,0.18626 -3.081861,0.67733 -0.08467,0.27093 -0.389466,1.55786 -0.457199,1.82879 -0.135466,0.59267 -0.355599,0.762 -0.609599,1.3716 -0.08467,0.2032 -0.389466,1.15147 -0.457199,1.3716 -0.440266,1.76106 -0.795865,3.55599 -1.134531,5.31706 -0.237066,1.23613 -0.541866,1.35466 -0.541866,2.30292 0,0.11854 0.1524,0.99907 0.1524,1.28693 -0.03387,0.18627 -0.0508,0.33867 -0.0508,0.508 0,0.32174 0.08467,0.64347 0.355599,0.64347 0.0508,0 0.1016,-0.0169 0.169333,-0.0339 0.1016,-0.0339 0.186267,-0.42333 0.287867,-0.57573 0.169333,0.2032 0.186266,0.74507 0.186266,0.94827 0,0.81279 -0.237066,1.43933 -0.237066,2.20132 0,0.33867 0.118533,0.89747 0.491065,0.89747 0.541866,0 0.643466,-0.77893 0.643466,-1.4732 0,-0.4572 -0.0508,-0.89746 -0.0508,-1.03293 -0.03387,-0.69426 -0.06773,-1.2192 -0.06773,-1.60866 0.01693,-1.10067 0.220133,-1.1684 0.321732,-1.1684 0.1524,0 0.4064,0.67733 0.4064,0.77893 0,0.33867 -0.254,0.5588 -0.254,0.94827 0,0.38946 0,0.91439 0.524932,0.91439 0.626532,0 0.643466,-1.26999 0.643466,-2.16746 0,-0.72813 -0.321733,-1.18533 -0.321733,-1.89653 0,-0.49106 0.389466,-0.67733 0.761999,-0.67733 0.270932,0 0.524932,0.1016 0.609598,0.28787 0.2032,0.4064 0.03387,1.11759 0.643466,1.11759 0.372532,-0.0339 0.558799,-0.3556 0.643465,-0.62653 0.220133,-0.6096 0.2032,-1.43933 1.151465,-1.43933 0.457199,0 0.524932,0.32173 0.524932,0.8636 0,0.47413 0.524932,1.15146 0.846665,1.30386 0.389466,0.23707 0.812798,-0.0677 1.083731,0.38947 0.287866,0.4572 0.287866,1.3208 0.287866,1.9304 z m -4.72439,-9.36412 c 0,-0.6096 0.253999,-1.13453 0.609598,-1.60866 0.06773,-0.0677 0.169333,-0.16934 0.220133,-0.16934 0.169333,0 0.3048,0.32174 0.474133,0.7112 0.203199,0.47413 0.406399,1.0668 0.541865,1.38853 0,0.1524 -0.06773,0.2032 -0.169333,0.2032 -0.118533,-0.1016 -0.389466,-0.32173 -0.711198,-0.37253 -0.440266,-0.0677 -0.965198,0.0339 -0.965198,-0.1524 z"
         id="path1770" />
      <path
         d="m 73.209774,140.43232 c 0,-3.38666 0.1016,-4.14866 0.118533,-4.28412 0.0508,-0.762 -0.03387,-1.89653 0.440266,-2.52306 0.406399,0.32173 0.406399,0.59266 0.626532,0.74506 0.1016,0.0847 0.287866,0.0339 0.592666,0.18627 0.474132,0.254 0.06773,1.2192 0.812798,1.2192 0.118533,0 0.507999,-0.0339 0.558799,-0.254 -0.03387,-0.1524 -0.1524,-0.8128 -0.169333,-1.1684 0,-0.32173 0.1016,-0.54187 0.2032,-0.89747 0.06773,-0.3556 0.135466,-0.89746 0.135466,-1.26999 0,-0.74507 0,-1.13454 -0.321733,-1.71027 -0.491065,-0.0677 -2.726261,-0.16933 -3.200393,-0.16933 -1.828797,0 -6.214522,0.1016 -6.248388,0.16933 l -0.457199,0.762 c -0.01693,0.0508 -0.118533,1.59173 -0.1524,2.21826 0,0.0677 -0.01693,0.72813 -0.01693,0.94827 v 0.94826 c 0.06773,0.27094 0.304799,0.5588 0.541865,0.5588 0.643466,0 0.491066,-1.6764 0.745066,-1.6764 0.457199,0 0.135466,1.13454 0.711198,1.27 0.491066,0 0.778932,-1.33773 0.931332,-1.57479 0.135466,0.18626 0.135466,0.27093 0.135466,0.38946 0,0.0677 0,0.13547 0.01693,0.23707 0.186267,2.87866 0.0508,5.89279 0.592666,8.68678 0.186266,0.1524 0.321733,0.254 0.541865,0.28787 0.575733,0.1016 0.694266,0.23706 0.694266,0.49106 l -0.643466,3.03106 c 0,0.254 0.0508,1.45627 0.660399,1.45627 0.541866,0 0.897465,-1.20227 0.897465,-1.7272 0,-0.57573 -0.338666,-1.0668 -0.338666,-1.65946 0,-0.6096 0.06773,-1.23613 0.338666,-1.23613 0.186266,0 0.2032,0.93133 0.643465,0.93133 0.135467,0 0.321733,-0.16934 0.372533,-0.3556 -0.03387,-0.27093 -0.08467,-0.54187 -0.08467,-0.8128 0,-0.38947 0.08467,-0.77893 0.338666,-1.04986 z"
         id="path1772" />
      <path
         d="m 84.826004,147.57818 c 0.06773,0.45719 0.372533,1.54093 1.015998,1.54093 0.457199,0 0.507999,-1.54093 0.507999,-1.69333 0,-3.33586 0.03387,-3.4544 0.08467,-3.4544 0.06773,0 0.152399,0.13547 0.253999,0.32174 0.2032,0.37253 0.237066,0.93133 0.237066,1.50706 0,1.50706 0.0508,2.08279 0.491066,2.08279 0.524932,0 0.626532,-0.37253 0.626532,-0.82973 0,-1.77799 -0.304799,-3.65759 -0.474132,-5.41865 -0.0508,-0.52494 -0.440266,-0.82973 -0.914398,-1.0668 -0.01693,-0.22013 -0.118534,-1.28693 -0.1524,-1.524 -0.01693,-0.11853 -0.118533,-0.54186 -0.1524,-0.6096 -0.06773,-0.1524 -0.694265,-1.35466 -0.761998,-1.52399 -0.06773,-0.16934 -0.254,-1.50707 -0.3048,-1.6764 -0.01693,-0.0339 -0.1016,-0.52493 -0.186266,-0.72813 -0.01693,-0.0339 -0.270933,-0.3048 -0.270933,-0.33867 -0.1016,-0.62653 -0.0508,-1.18533 -0.135466,-1.77799 -0.08467,-0.508 -0.3048,-1.0668 -0.474133,-1.5748 -0.152399,-0.47413 -0.948264,-0.54187 -1.59173,-0.54187 -0.270933,0 -0.507999,0.0169 -0.660399,0.0169 -0.965198,0 -2.252129,0.18626 -3.08186,0.67733 -0.08467,0.27093 -0.389466,1.55786 -0.457199,1.82879 -0.135467,0.59267 -0.3556,0.762 -0.609599,1.3716 -0.08467,0.2032 -0.389466,1.15147 -0.457199,1.3716 -0.440266,1.76106 -0.795865,3.55599 -1.134531,5.31706 -0.237067,1.23613 -0.541866,1.35466 -0.541866,2.30292 0,0.11854 0.1524,0.99907 0.1524,1.28693 -0.03387,0.18627 -0.0508,0.33867 -0.0508,0.508 0,0.32174 0.08467,0.64347 0.355599,0.64347 0.0508,0 0.1016,-0.0169 0.169333,-0.0339 0.1016,-0.0339 0.186266,-0.42333 0.287866,-0.57573 0.169333,0.2032 0.186267,0.74507 0.186267,0.94827 0,0.81279 -0.237067,1.43933 -0.237067,2.20132 0,0.33867 0.118533,0.89747 0.491066,0.89747 0.541866,0 0.643465,-0.77893 0.643465,-1.4732 0,-0.4572 -0.0508,-0.89746 -0.0508,-1.03293 -0.03387,-0.69426 -0.06773,-1.2192 -0.06773,-1.60866 0.01693,-1.10067 0.220133,-1.1684 0.321733,-1.1684 0.1524,0 0.406399,0.67733 0.406399,0.77893 0,0.33867 -0.253999,0.5588 -0.253999,0.94827 0,0.38946 0,0.91439 0.524932,0.91439 0.626532,0 0.643465,-1.26999 0.643465,-2.16746 0,-0.72813 -0.321732,-1.18533 -0.321732,-1.89653 0,-0.49106 0.389466,-0.67733 0.761998,-0.67733 0.270933,0 0.524933,0.1016 0.609599,0.28787 0.2032,0.4064 0.03387,1.11759 0.643466,1.11759 0.372532,-0.0339 0.558798,-0.3556 0.643465,-0.62653 0.220133,-0.6096 0.2032,-1.43933 1.151464,-1.43933 0.457199,0 0.524933,0.32173 0.524933,0.8636 0,0.47413 0.524932,1.15146 0.846665,1.30386 0.389466,0.23707 0.812798,-0.0677 1.083731,0.38947 0.287866,0.4572 0.287866,1.3208 0.287866,1.9304 z m -4.724391,-9.36412 c 0,-0.6096 0.254,-1.13453 0.609599,-1.60866 0.06773,-0.0677 0.169333,-0.16934 0.220133,-0.16934 0.169333,0 0.3048,0.32174 0.474133,0.7112 0.203199,0.47413 0.406399,1.0668 0.541865,1.38853 0,0.1524 -0.06773,0.2032 -0.169333,0.2032 -0.118533,-0.1016 -0.389466,-0.32173 -0.711198,-0.37253 -0.440266,-0.0677 -0.965199,0.0339 -0.965199,-0.1524 z"
         id="path1774" />
      <path
         d="m 93.055599,144.22538 c 0.609599,0.0169 0.795865,0.49107 0.795865,0.99907 0,0.1016 0,0.2032 -0.01693,0.33866 -0.01693,0.38947 -0.118533,0.98213 -0.118533,1.1176 v 0.0339 c 0.01693,0.28786 0.06773,1.03293 0.524932,1.03293 0.507999,0 0.660399,-0.42333 0.660399,-0.9144 0,-0.508 -0.237067,-1.13453 -0.237067,-1.54093 0,-0.42333 0.08467,-0.79587 0.541866,-0.79587 0.609599,0 0.355599,0.94827 0.914398,0.94827 0.186266,0 0.389466,-0.33867 0.457199,-0.508 0.06773,-0.13547 0.186267,-0.5588 0.321733,-0.94826 0.169333,-0.4572 0.338666,-0.8128 0.745065,-0.8128 0.321733,0 0.186266,0.8636 0.643466,0.8636 0.135466,0 0.372532,-0.0508 0.423332,-0.254 0.135466,-0.54187 0.169333,-1.20227 0.169333,-1.8796 -0.01693,-0.89747 -0.01693,-1.40546 -0.01693,-1.86266 v -0.52494 l 0.152399,-0.60959 c -0.06773,-0.42334 -0.237066,-0.57574 -0.423332,-0.57574 -0.270933,0 -0.592666,0.3048 -0.677332,0.52494 -0.474132,1.28693 -2.099729,1.60866 -3.149594,1.60866 -1.066798,0 -1.74413,-0.762 -2.133596,-1.76106 0,-0.1524 -0.220133,-1.69333 -0.220133,-1.86267 0,-0.98213 0.118534,-1.49013 0.491066,-1.86266 0.08467,-0.0677 0.3048,-0.1524 0.457199,-0.254 0.135467,-0.1016 0.237066,-0.3048 0.338666,-0.37253 0.0508,-0.0339 0.08467,-0.0339 0.118533,-0.0339 0.08467,0 0.1016,0.11853 0.1016,0.27093 0,0.8128 0,1.13454 0.03387,1.23614 0.135466,0.23706 0.372532,0.25399 0.457199,0.25399 0.304799,0 0.321733,-0.25399 0.457199,-0.45719 0.135466,-0.22014 0.287866,-0.64347 0.287866,-0.64347 0.186266,-0.11853 0.592666,-0.254 0.880532,-0.254 0.220133,0 0.355599,0.1016 0.355599,0.32173 0,0.18627 -0.1016,0.4064 -0.1016,0.6096 0,0.33867 0.389466,0.8128 0.728132,0.8128 0.491066,0 0.677332,-0.44027 0.711199,-0.82973 0,-0.59267 -0.186267,-0.77893 -0.186267,-0.84667 0,-0.89746 0.778932,-1.21919 0.778932,-2.06586 0,-1.08373 -0.575732,-1.54093 -1.659463,-1.89653 -0.321733,-0.11853 -0.728132,-0.11853 -1.253064,-0.37253 -0.237067,-0.11853 -0.474133,-0.1524 -0.694266,-0.1524 -0.220133,0 -0.423332,0.0339 -0.575732,0.0339 -0.863598,0 -1.59173,0.32173 -2.472262,0.38946 -0.203199,0.59267 -0.965198,0.98213 -1.371597,1.38853 -0.406399,0.38947 -0.457199,0.67733 -0.677332,1.35467 -0.118533,0.4064 -0.507999,0.64346 -0.609599,1.10066 -0.08467,0.37253 -0.118533,0.77893 -0.118533,1.1684 0,0.42333 0.03387,0.79586 0.03387,1.03293 0,0.9144 0.118533,3.09879 0.338666,3.96239 0.253999,1.04987 0.880531,1.91346 0.914398,3.048 0,0.22013 0.0508,0.66039 0.0508,1.20226 0,0.3048 -0.01693,0.64347 -0.06773,0.98213 -0.0508,0.33867 -0.1016,0.72813 -0.1016,1.1176 0,0.7112 0.152399,1.35466 0.728132,1.35466 0.609598,0 0.812798,-1.28693 0.812798,-1.76106 0,-0.64347 -0.423332,-1.1684 -0.507999,-1.8288 0,-0.42333 0.08467,-0.86359 0.220133,-1.03293 0.08467,-0.11853 0.169333,-0.1524 0.237066,-0.1524 0.08467,0 0.1524,0.0677 0.1524,0.1524 0,0.8128 0.06773,1.20227 0.457199,1.33773 0.08467,-0.0677 0.2032,-0.13546 0.287866,-0.254 0.169333,-0.28786 0.304799,-0.67733 0.609599,-0.67733 z"
         id="path1776" />
      <path
         d="m 104.73959,146.20658 c 0,0.0339 -0.0169,0.0677 -0.0169,0.11853 0,0.54187 0.49107,1.2192 1.016,1.4224 0.0339,0.0169 0.0677,0.0169 0.1016,0.0169 0.37253,0 0.82973,-0.64346 0.82973,-0.99906 0,-1.15147 -0.52493,-1.91347 -0.5588,-2.54 0,-0.82973 0.22014,-1.38853 0.762,-1.38853 0.27094,0 0.47414,0.0847 0.47414,0.37253 0,0.4064 -0.0847,0.74507 -0.16934,1.1684 0.11854,0.4064 0.3048,0.6096 0.508,0.6096 0.2032,0 0.42333,-0.23707 0.5588,-0.72813 0.0169,-0.0508 0.0169,-0.11853 0.0169,-0.18627 0,-0.254 -0.11853,-0.52493 -0.11853,-0.8636 0,-0.1524 0.0339,-0.32173 0.1016,-0.508 0.11853,-0.28786 0.38947,-0.38946 0.67733,-0.62653 0.3048,-0.23706 0.6096,-0.57573 0.9652,-0.57573 l -0.13547,1.43933 c 0,0.27093 0.16934,0.28787 0.16934,0.508 0,0.57573 -0.27094,1.18533 -0.27094,1.778 0,0.57573 0.13547,2.15053 0.94827,2.15053 0.42333,-0.16934 0.8636,-0.74507 0.8636,-1.60867 0,-0.7112 -0.1016,-1.3208 -0.28787,-1.76106 -0.18627,-0.44027 -0.44026,-0.69427 -0.44026,-1.03293 0,-0.1524 0.27093,-0.64347 0.40639,-0.72813 0.0339,-0.37254 0.1524,-2.20133 0.1524,-2.5908 0,-0.47413 -0.0339,-0.8636 -0.0339,-1.25306 0,-0.508 0.0677,-1.016 0.33866,-1.33773 v -2.286 c 0,-0.0339 -0.32173,-0.6604 -0.4572,-0.9144 -0.22013,-0.38946 -0.40639,-0.98213 -0.59266,-1.27 -0.18627,-0.30479 -0.3556,-0.30479 -0.52493,-0.50799 -0.3048,-0.38947 -0.49107,-0.8636 -0.89747,-1.15147 -0.3556,-0.23706 -0.93133,-0.3048 -1.50706,-0.64346 h -3.80999 c -0.22014,0.50799 -0.94827,0.3048 -1.35467,0.62653 l -1.30386,0.99906 c -0.13547,0.77893 -0.69427,1.8796 -0.98213,2.55693 -0.270937,0.64347 -0.304803,1.3716 -0.304803,2.0828 v 0.762 c 0,0.72813 0.304803,1.40546 0.389463,1.98119 0.0339,0.13547 0.13547,0.57573 0.13547,1.81186 v 0.762 c 0,0.52494 0.22013,0.79587 0.49106,0.79587 l 0.8128,-1.04987 c 0.3556,0 0.33867,0.44027 0.6096,0.62654 0.0677,0.37253 0.16933,0.79586 0.22013,1.16839 0,0.0847 -0.0169,0.27094 -0.0169,0.49107 0,0.22013 0.0169,0.47413 0.0508,0.7112 0.0508,0.3048 0.254,0.508 0.4572,0.508 0.2032,0 0.4064,-0.16934 0.508,-0.59267 0.0169,-0.0847 0.0339,-0.28786 0.0339,-0.54186 0,-0.4572 -0.0339,-1.03294 -0.1016,-1.23614 0.16933,-0.0339 0.33866,-0.0508 0.49106,-0.0508 0.54187,0 0.94827,0.254 1.1684,0.84667 0.13547,0.3048 0.254,0.67733 0.254,1.1684 0,0.2032 -0.11853,0.33866 -0.23707,0.508 -0.16933,0.28786 -0.32173,0.62653 -0.38946,0.98213 z m -1.2192,-7.92479 c -0.0508,-0.1524 -0.3048,-1.15146 -0.3048,-1.28693 0,-0.32173 0.22013,-0.6604 0.22013,-0.99906 0,-0.47413 -0.22013,-0.38947 -0.22013,-0.69427 0.16933,-0.0508 0.2032,-0.0677 0.22013,-0.0847 0.11854,-0.13547 0.1524,-0.57574 0.18627,-0.62654 0.2032,-0.2032 0.42333,-0.3556 0.59266,-0.3556 0,0.11854 -0.0339,0.4572 -0.0339,0.84667 0,0.6604 0.1016,1.4732 0.6096,1.4732 0.69426,0 0.84666,-0.8128 0.84666,-1.6256 0,-0.59267 -0.0847,-1.20226 -0.0847,-1.49013 0.84666,0 0.86359,0.79586 0.86359,1.49013 l -0.23706,1.50706 c 0,0.5588 0.18626,0.89747 0.69426,1.23613 0.4572,-0.20319 0.52494,-0.82973 0.52494,-1.21919 l -0.254,-1.49013 c 0.18626,0 0.33866,-0.0847 0.49106,-0.18627 0,0.3048 0.47413,1.71026 0.47413,2.06586 0,0.52494 -0.37253,1.13453 -0.62653,1.60867 -0.3556,0.62653 -0.69426,1.06679 -1.43933,1.06679 -0.3556,0 -0.74506,-0.11853 -1.10066,-0.2032 -0.23707,-0.0339 -0.44027,-0.0169 -0.64347,-0.11853 -0.18626,-0.1016 -0.254,-0.3556 -0.4064,-0.52493 -0.11853,-0.1016 -0.3048,-0.1016 -0.37253,-0.23707 z"
         id="path1778" />
      <path
         d="m 113.44331,148.03537 c 0,0.57574 0.13546,1.79493 0.82973,1.79493 0.54186,0 0.7112,-0.93133 0.7112,-1.23613 l -0.47414,-1.06679 c 0,-0.1016 0.1524,-0.3048 0.22014,-0.67734 0.0677,-0.3048 0.0508,-0.79586 0.1524,-1.10066 0.1524,-0.38947 0.3048,-0.67733 0.45719,-0.67733 0.33867,0 0.33867,0.8636 0.33867,0.88053 0,0.23706 -0.16933,0.59266 -0.16933,0.8636 0,0.33866 0.1016,0.57573 0.4572,0.57573 0.254,0 0.5588,-0.7112 0.5588,-0.98213 v -2.1844 c -0.13547,-0.0508 -0.2032,-0.3048 -0.2032,-0.42333 0,-0.16933 0.18626,-0.4064 0.37253,-0.69427 0.13547,-0.23706 0.16933,-0.38946 0.16933,-0.50799 0,-0.16934 -0.0677,-0.27094 -0.0677,-0.4064 l 0.1524,-0.3048 -0.1524,-0.74507 c 0,-0.54186 0.0677,-2.04893 0.0677,-2.40453 0.33867,0 0.4572,0.47414 0.59267,1.0668 0.18626,0.77893 0.38946,1.3208 0.5588,1.7272 0.18626,0.44026 0.42333,0.74506 0.81279,0.74506 0.23707,0 0.3556,-0.23706 0.5588,-0.23706 0.42334,0 0.49107,0.52493 0.49107,0.94826 0,0.2032 -0.0169,0.38947 -0.0169,0.47413 0,0.2032 -0.0169,0.8128 -0.0169,0.8636 l -0.1524,1.2192 c 0,0.28787 0.18627,0.9144 0.6096,0.9144 0.4572,0 0.5588,-0.2032 0.6096,-0.6096 0.0847,-0.8128 0.18627,-1.15147 0.27093,-1.28693 0.0169,-0.0339 0.0508,-0.0339 0.0677,-0.0339 0.0847,0 0.18626,0.1524 0.254,0.18627 0.1016,0 0.1016,-0.1016 0.1524,-0.33867 l 0.16933,-1.5748 c 0.0847,-0.44026 0.4572,-0.76199 0.74506,-1.21919 0.762,-1.27 0.82974,-1.5748 0.93134,-1.8288 0.18626,-0.44027 0.27093,-1.25306 0.57573,-1.76106 0.1016,-0.1524 0.2032,-0.28787 0.33866,-0.37254 0.11854,0.1016 0.13547,0.33867 0.1524,0.6096 v 4.2672 c 0.16934,0.25399 0.3048,0.59266 0.3048,0.91439 0,0.69427 -0.47413,0.98213 -0.47413,1.55787 0,0.28786 0.0847,0.72813 0.0847,1.33773 0,0.42333 0.33866,0.6604 0.72813,0.6604 0.44026,0 0.93133,-0.3048 1.03293,-0.9652 0,-0.54187 -0.62653,-1.03293 -0.62653,-1.524 0,-0.72813 0.23706,-0.44026 0.77893,-0.762 0.1016,-0.0677 0.4064,-0.47413 0.52493,-0.47413 0.22013,0 0.38947,0.37253 0.38947,0.5588 0,0.1524 -0.28787,1.1176 -0.3048,1.28693 0,0.37253 0.16933,0.77893 0.16933,1.13453 0,0.67733 -0.254,1.3716 -0.254,2.032 0,0.37253 0.13547,1.43933 0.69427,1.43933 0.18626,0 0.37253,-0.254 0.37253,-0.508 v -5.01226 c -0.0169,-0.0169 -0.0339,-0.0508 -0.0339,-0.11853 0,-0.13547 0.0508,-0.37253 0.0847,-0.44027 0.0677,-0.13546 0.4572,-0.64346 0.54187,-0.77893 -0.0169,-0.37253 -0.0169,-0.74506 -0.0169,-1.1176 0,-1.72719 0.1016,-3.40359 0.22014,-5.21545 0.0847,-1.3716 0.28786,-2.81093 0.28786,-4.40266 0,-0.49107 -0.1524,-0.88053 -0.3556,-1.1684 -0.2032,-0.27093 -0.42333,-0.4064 -0.8128,-0.52493 -0.37253,-0.1016 -0.88053,-0.18627 -1.37159,-0.18627 -0.3556,0 -0.67734,0.0508 -1.016,0.11854 -0.57573,0.11853 -1.04987,0.2032 -1.5748,0.23706 -0.37253,0.18627 -0.254,0.93133 -0.44026,1.25307 -0.0847,0.16933 -0.93134,1.38853 -1.10067,1.62559 0,0.0169 -0.0169,0.0169 -0.0169,0.0169 -0.0847,0.13546 -0.47413,0.82973 -0.77893,1.50706 -0.28787,0.6604 -0.54187,1.35466 -0.69427,1.778 -0.11853,0.32173 -0.254,0.44026 -0.37253,0.44026 -0.13547,0 -0.254,-0.13546 -0.3556,-0.3556 -0.23707,-0.54186 -0.54187,-0.8636 -0.79587,-1.50706 -0.13546,-0.33867 -0.38946,-1.3716 -0.76199,-2.35373 -0.33867,-0.9144 -0.79587,-1.74413 -0.9144,-2.06586 -0.0339,-0.0508 -0.23707,-0.1524 -0.3048,-0.1524 l -0.54187,0.1524 c -0.1524,0 -0.59266,-0.22013 -0.84666,-0.22013 -0.22014,0 -0.254,0.0677 -0.33867,0.0677 -0.0339,0 -0.32173,-0.13547 -0.44026,-0.13547 -0.38947,0 -0.9144,0.33867 -1.18534,0.44027 -0.74506,0.27093 -1.60866,0.23706 -1.60866,1.15146 0,0.62653 0.3556,0.99907 0.38947,1.59173 v 2.5908 c 0,1.15146 0.22013,1.15146 0.6096,2.28599 l -0.22014,2.91253 c 0,0.49107 0.0508,0.98213 0.13547,1.45626 v 1.55787 c 0.13547,0.5588 0.38946,0.98213 0.38946,1.54093 0,0.23706 -0.22013,1.40546 -0.30479,1.67639 z m 6.67172,-0.62653 c 0,0.3048 0.40639,1.04987 0.71119,1.04987 0.27094,0 0.32174,-0.44027 0.32174,-0.59267 0,-0.3556 -0.1016,-1.27 -0.62654,-1.27 -0.30479,0 -0.40639,0.5588 -0.40639,0.77894 z"
         id="path1780" />
      <path
         d="m 130.13953,140.00899 c -0.0847,0.22013 -0.11853,0.44027 -0.11853,0.69427 0,0.11853 0.0508,0.25399 0.1016,0.45719 -0.0339,0.28787 -0.1016,0.52494 -0.1016,0.62654 -0.0508,0.5588 -0.1016,1.16839 -0.1016,1.87959 0.11853,1.30387 0.32173,1.64253 0.5588,1.64253 0.23706,0 0.508,-0.33866 0.77893,-0.67733 l 0.254,-0.3048 v -0.0169 c 0.0169,0.0847 0.0339,0.16933 0.0339,0.254 l -0.28787,1.3208 c 0,0.40639 0.1524,0.62653 0.32173,0.66039 -0.0169,0.13547 -0.0339,0.23707 -0.0339,0.3556 0,0.54187 0.23706,0.89747 0.59266,0.93133 0.42333,0 0.762,-0.33866 0.762,-0.99906 0,-0.5588 -0.0677,-1.016 -0.16933,-1.50706 -0.0339,-0.1524 -0.0508,-0.32174 -0.0508,-0.4572 0,-0.18627 0.0339,-0.3556 0.1016,-0.4572 0.49106,0.0339 0.52493,1.15146 1.01599,1.15146 0.57574,0 0.3556,-0.9144 0.94827,-0.9144 0.0508,0 0.11853,0 0.18627,0.0169 0.42333,0.11853 0.71119,0.5588 0.71119,1.13453 0,0.1016 -0.0169,0.254 -0.0169,0.42333 0,0.42333 0.0677,0.98213 0.47413,0.98213 0.42334,0 0.44027,-0.42333 0.44027,-0.74506 0.0169,-0.49107 -0.0677,-1.64253 0.4572,-1.64253 0.38946,0 0.42333,0.7112 0.9144,0.7112 0.79586,0 0.64346,-1.016 1.25306,-1.91347 0.3556,-0.32173 0.3556,-0.8128 0.49107,-1.28693 0.0339,-0.11853 0.0508,-0.23706 0.0508,-0.3556 0,-0.3048 -0.0847,-0.64346 -0.0847,-1.03293 0,-0.77893 -0.22013,-1.524 -0.64347,-2.15053 -0.23706,-0.3556 -0.82973,-0.47413 -1.23613,-1.016 0.13547,-0.38946 0.69427,-0.54186 0.93134,-0.89746 0.42333,-0.62653 0.67733,-1.5748 0.67733,-2.35373 0,-0.54186 -0.16934,-0.89746 -0.28787,-1.30386 -0.0339,-0.1016 -0.0339,-0.2032 -0.0339,-0.32174 l 0.0169,-0.50799 c 0,-0.254 -0.0339,-0.47414 -0.254,-0.62654 -0.16933,-0.1016 -0.22013,-0.254 -0.3556,-0.28786 -0.2032,-0.0677 -0.38947,-0.0677 -0.54187,-0.0677 -0.1524,0 -0.28786,0 -0.3556,-0.0339 -0.13546,-0.0508 -0.1016,-0.22014 -0.16933,-0.28787 -0.1016,-0.0677 -0.3048,-0.0508 -0.4572,-0.1016 l -0.254,-0.27093 c -0.18626,-0.1016 -0.7112,-0.0339 -1.03293,-0.0847 -0.44026,-0.0677 -0.84666,-0.37253 -1.28693,-0.37253 h -1.94733 c -0.94826,0.0508 -1.08373,0.0339 -2.06586,0.1524 -0.3048,0.0847 -0.3556,0.49106 -0.3556,0.89746 v 0.6096 c 0.0508,0.94827 0.0508,1.89653 0.13547,2.77706 z m 3.16653,-0.8636 c 0.2032,0 0.254,0.37253 0.28787,0.69427 0.0508,0.38946 0.16933,0.54186 0.32173,0.54186 0.18626,0 0.38946,-0.22013 0.54186,-0.52493 0.1016,-0.2032 0.38947,-0.23707 0.6096,-0.23707 0.3556,0 0.82973,0.74507 0.82973,1.1176 0,0.27093 -0.0847,0.74507 -1.26999,0.74507 h -1.28693 z m 0.0339,-4.85986 c 0.27093,-0.13546 0.0677,-0.47413 0.45719,-0.47413 0.23707,0 0.27094,0.38947 0.27094,0.72813 v 0.38947 c 0.0169,0.1016 0.0677,0.13547 0.16933,0.13547 0.18627,0 0.47413,-0.16934 0.47413,-0.32174 -0.0169,-0.0508 -0.0169,-0.0847 -0.0169,-0.11853 0,-0.2032 0.16933,-0.37253 0.38947,-0.37253 0.3556,0 0.71119,0.27093 0.71119,0.64346 0,0.1016 -0.0847,0.27094 -0.2032,0.38947 -0.15239,0.16933 -0.89746,0.16933 -0.96519,0.47413 h -1.28693 z m 0.47413,13.27571 c -0.37253,0 -0.42333,1.25307 -0.4572,1.35467 0,0.33866 0.0508,0.82973 0.47413,0.82973 0.33867,0 0.508,-0.5588 0.508,-0.8636 0,-0.18627 -0.16933,-1.3208 -0.52493,-1.3208 z"
         id="path1782" />
    </g>
    <g
       aria-label="Adventure Series"
       id="text1630"
       style="font-size:5.64444px;font-family:'Pieces NFI';-inkscape-font-specification:'Pieces NFI, Normal';fill:#ffffff;stroke-width:0.264583">
      <path
         d="m 85.288797,156.67421 c 0.02258,0.1524 0.124177,0.51365 0.338666,0.51365 0.1524,0 0.169333,-0.51365 0.169333,-0.56445 0,-1.11195 0.01129,-1.15146 0.02822,-1.15146 0.02258,0 0.0508,0.0452 0.08467,0.10724 0.06773,0.12418 0.07902,0.31044 0.07902,0.50236 0,0.50235 0.01693,0.69426 0.163689,0.69426 0.174978,0 0.208844,-0.12418 0.208844,-0.27658 0,-0.59266 -0.1016,-1.2192 -0.158044,-1.80622 -0.01693,-0.17497 -0.146755,-0.27657 -0.3048,-0.3556 -0.0056,-0.0734 -0.03951,-0.42897 -0.0508,-0.508 -0.0056,-0.0395 -0.03951,-0.18062 -0.0508,-0.2032 -0.02258,-0.0508 -0.231422,-0.45155 -0.254,-0.508 -0.02258,-0.0564 -0.08467,-0.50235 -0.101599,-0.5588 -0.0056,-0.0113 -0.03387,-0.17497 -0.06209,-0.24271 -0.0056,-0.0113 -0.09031,-0.1016 -0.09031,-0.11289 -0.03387,-0.20884 -0.01693,-0.39511 -0.04516,-0.59266 -0.02822,-0.16933 -0.1016,-0.3556 -0.158044,-0.52493 -0.0508,-0.15805 -0.316089,-0.18063 -0.530578,-0.18063 -0.09031,0 -0.169333,0.006 -0.220133,0.006 -0.321733,0 -0.75071,0.0621 -1.027288,0.22578 -0.02822,0.0903 -0.129822,0.51928 -0.1524,0.60959 -0.04515,0.19756 -0.118533,0.254 -0.2032,0.4572 -0.02822,0.0677 -0.129822,0.38383 -0.152399,0.4572 -0.146756,0.58703 -0.265289,1.18534 -0.378178,1.77236 -0.07902,0.41204 -0.180622,0.45155 -0.180622,0.76764 0,0.0395 0.0508,0.33302 0.0508,0.42898 -0.01129,0.0621 -0.01693,0.11289 -0.01693,0.16933 0,0.10725 0.02822,0.21449 0.118533,0.21449 0.01693,0 0.03387,-0.006 0.05644,-0.0113 0.03387,-0.0113 0.06209,-0.14111 0.09596,-0.19191 0.05644,0.0677 0.06209,0.24836 0.06209,0.31609 0,0.27093 -0.07902,0.47978 -0.07902,0.73378 0,0.11289 0.03951,0.29915 0.163689,0.29915 0.180622,0 0.214489,-0.25964 0.214489,-0.49106 0,-0.1524 -0.01693,-0.29916 -0.01693,-0.34431 -0.01129,-0.23143 -0.02258,-0.4064 -0.02258,-0.53623 0.0056,-0.36688 0.07338,-0.38946 0.107244,-0.38946 0.0508,0 0.135467,0.22578 0.135467,0.25964 0,0.11289 -0.08467,0.18627 -0.08467,0.31609 0,0.12982 0,0.3048 0.174978,0.3048 0.208844,0 0.214489,-0.42333 0.214489,-0.72249 0,-0.24271 -0.107245,-0.39511 -0.107245,-0.63218 0,-0.16368 0.129822,-0.22577 0.254,-0.22577 0.09031,0 0.174978,0.0339 0.2032,0.096 0.06773,0.13547 0.01129,0.37254 0.214489,0.37254 0.124177,-0.0113 0.186266,-0.11854 0.214488,-0.20885 0.07338,-0.2032 0.06773,-0.47978 0.383822,-0.47978 0.1524,0 0.174978,0.10725 0.174978,0.28787 0,0.15804 0.174977,0.38382 0.282222,0.43462 0.129822,0.079 0.270933,-0.0226 0.361244,0.12982 0.09596,0.1524 0.09596,0.44027 0.09596,0.64347 z m -1.574799,-3.12137 c 0,-0.2032 0.08467,-0.37818 0.2032,-0.53623 0.02258,-0.0226 0.05644,-0.0564 0.07338,-0.0564 0.05644,0 0.1016,0.10724 0.158045,0.23707 0.06773,0.15804 0.135466,0.3556 0.180622,0.46284 0,0.0508 -0.02258,0.0677 -0.05644,0.0677 -0.03951,-0.0339 -0.129822,-0.10724 -0.237066,-0.12417 -0.146756,-0.0226 -0.321733,0.0113 -0.321733,-0.0508 z"
         id="path1737" />
      <path
         d="m 87.676399,155.53403 c 0.02258,-0.0564 0.05644,-0.11853 0.118533,-0.11853 0.01129,0 0.02822,0 0.03951,0.006 -0.01129,0.0621 -0.02822,0.15804 -0.02822,0.25964 0,0.17498 0.04516,0.34996 0.225777,0.34996 0.141111,0 0.163689,-0.16934 0.163689,-0.31609 l -0.05644,-0.34431 c 0.0056,-0.0565 0.09031,-0.0621 0.220133,-0.0621 0.05644,0 0.163689,0.0282 0.180622,0.11289 0.02258,0.16368 0.03387,0.24271 0.112889,0.24271 0.01693,0 0.03951,0 0.06773,-0.0113 0.04516,-0.006 0.07338,-0.079 0.124178,-0.254 0.04516,-0.0621 0.124177,-0.14111 0.158044,-0.20885 0.04516,-0.12982 -0.01129,-0.15804 0.141111,-0.15804 0.07902,0 0.09596,-0.0395 0.124178,-0.079 0.03951,-0.0621 0.09596,-0.0621 0.124177,-0.0621 h 0.0056 c 0.06209,0 0.06773,0.0734 0.06773,0.14111 0.0056,0.17498 0.02822,0.31609 0.04516,0.44027 0.01129,0.13546 0.112888,0.28786 0.231422,0.28786 0.06773,0 0.174977,-0.0564 0.186266,-0.26529 0,-0.14675 -0.03387,-0.34431 -0.03387,-0.42897 0,-0.18063 0,-0.38383 0.02822,-0.56445 0.03387,-0.2032 0.1016,-0.37253 0.141111,-0.57573 0.04515,-0.24836 0.05644,-0.53058 0.05644,-0.79022 v -0.4064 c -0.01129,-0.0169 -0.0508,-0.0847 -0.0508,-0.1016 -0.02258,-0.0508 -0.07902,-0.21449 -0.135466,-0.36689 -0.07338,-0.22013 -0.07338,-0.27658 -0.191911,-0.38382 -0.08467,-0.079 -0.220134,-0.2032 -0.321733,-0.3048 -0.03951,-0.0452 -0.06773,-0.079 -0.09031,-0.1016 -0.07338,-0.0847 -0.07902,-0.0903 -0.2032,-0.12418 -0.254,-0.0734 -0.445911,-0.17498 -0.671689,-0.21449 h -1.230488 c -0.186266,0 -0.553155,0.12418 -0.558799,0.1524 -0.01693,0.1016 -0.02258,0.18062 -0.02258,0.24836 0,0.18062 0.04516,0.24835 0.06209,0.27093 l 0.0056,0.006 -0.04515,0.15805 c 0,0.0113 -0.01129,0.24835 -0.01129,0.32173 0,0.27093 0.02822,0.49671 0.06209,0.76765 0.02822,0.21448 0.0056,0.53057 0.02822,0.76199 0.01693,0.15805 0.07338,0.22578 0.07338,0.37818 0,0.1524 -0.09596,0.21449 -0.09596,0.3048 0,0.0226 0.0056,0.0452 0.02258,0.0734 0.02258,0.0339 0.05644,0.0621 0.06209,0.0734 0,0.0451 -0.0508,0.0677 -0.06209,0.11289 -0.01693,0.0677 -0.02258,0.13546 -0.02258,0.20884 0,0.15804 0.03387,0.3048 0.0508,0.33302 0.02822,0.0395 0.09596,0.0452 0.169333,0.0452 0.197556,0 0.366889,0.0452 0.366889,0.14111 0,0.0339 -0.03951,0.1016 -0.03951,0.1524 0.03387,0.11853 0.04516,0.2032 0.04516,0.27093 0,0.079 -0.01693,0.13547 -0.03387,0.16934 -0.0508,0.10724 -0.09031,0.37817 -0.09031,0.52493 0,0.23142 0.02822,0.5588 0.293511,0.5588 0.152399,0 0.265288,-0.254 0.265288,-0.38947 0,-0.31044 -0.124177,-0.58138 -0.124177,-0.89746 0,-0.096 0,-0.24272 0.0508,-0.34432 z m 0.225777,-1.42804 v -1.6256 c 0.01129,-0.0282 0.06773,-0.0564 0.107245,-0.0564 0.08467,0 0.135466,0.079 0.163688,0.15804 0.02258,0.0734 0.02822,0.12982 0.04516,0.21449 0.02258,0.12418 0.07338,0.23707 0.186266,0.23707 0.09031,0 0.197556,-0.14111 0.197556,-0.22578 -0.0056,-0.0508 -0.03951,-0.10724 -0.03951,-0.12418 0,-0.006 0.0056,-0.006 0.0056,-0.006 0.05644,0 0.07338,0.0339 0.07338,0.0847 0,0.079 -0.04516,0.18627 -0.04516,0.22014 0,0.0903 0.01129,0.25964 0.1016,0.29351 0.09031,0.0395 0.1524,0.0847 0.1524,0.1524 0,0.20884 -0.129822,0.33302 -0.276577,0.44591 -0.09031,0.0677 -0.231423,0.12982 -0.231423,0.22578 h -0.440266 z"
         id="path1739" />
      <path
         d="m 91.480753,155.82755 c -0.02822,0.0959 -0.0508,0.19755 -0.0508,0.39511 0,0.22013 0.0056,0.64346 0.214489,0.64346 0.174978,0 0.174978,-0.17498 0.174978,-0.3048 0,-0.12982 -0.08467,-0.2032 -0.08467,-0.31609 0,-0.0339 0.08467,-0.25964 0.135467,-0.25964 0.03387,0 0.1016,0.0226 0.107244,0.33302 0,0.18627 -0.01129,0.36125 -0.02258,0.59267 0,0.0452 -0.01693,0.19191 -0.01693,0.34431 0,0.23142 0.03387,0.49106 0.214489,0.49106 0.124177,0 0.163688,-0.18626 0.163688,-0.29915 0,-0.254 -0.07902,-0.46284 -0.07902,-0.73378 0,-0.0677 0.0056,-0.24835 0.01129,-0.26529 l 0.0508,-0.0508 c 0.03387,0.0508 0.06209,0.18063 0.09596,0.19191 0.02258,0.006 0.03951,0.0113 0.05644,0.0113 0.09031,0 0.118533,-0.11289 0.118533,-0.21449 0,-0.0564 -0.01129,-0.10724 -0.01693,-0.14111 0,-0.0564 0,-0.0959 0.0056,-0.14111 0.03951,0.0169 0.09031,0.0282 0.141111,0.0282 0.07338,0 0.112889,-0.0452 0.135467,-0.12417 0.07902,-0.006 0.1524,-0.0113 0.220133,-0.0339 0,0.0565 0.01693,0.57009 0.169333,0.57009 0.214489,0 0.316089,-0.36125 0.338667,-0.51364 0,-0.2032 -0.146756,-0.42898 -0.191911,-0.61525 l 0.03951,-0.32173 c 0.02822,-0.19756 0.112889,-0.28222 0.146755,-0.49107 0,-0.0113 0.08467,-0.1016 0.09031,-0.11289 0.02822,-0.0677 0.05644,-0.23142 0.06209,-0.24271 l 0.163689,-0.24835 c 0.02258,-0.0565 0.124178,-0.254 0.146755,-0.3048 0.01129,-0.0226 0.04516,-0.16369 0.0508,-0.2032 0.01129,-0.079 0.08467,-0.37818 0.09031,-0.45156 0.158045,-0.079 0.265289,-0.58702 0.282222,-0.762 0.01693,-0.2032 0.146756,-0.99342 0.169334,-1.20226 -0.09596,-0.0282 -0.2032,-0.0339 -0.3048,-0.0339 -0.186267,0.006 -0.310444,0.0113 -0.395111,0.0113 -0.112889,0 -0.158044,-0.006 -0.2032,-0.006 -0.129822,0 -0.220133,0.0339 -0.276577,0.23707 -0.06209,0.22013 -0.146756,0.49671 -0.1524,0.508 -0.02822,0.0508 -0.03387,0.10724 -0.03387,0.15804 v 0.10725 c 0,0.0677 -0.0056,0.12418 -0.06209,0.15804 -0.09031,0.16369 -0.146755,0.33867 -0.163689,0.41205 l -0.310444,0.97649 c -0.03951,0.0734 -0.107244,0.27093 -0.174977,0.42897 -0.05644,0.12983 -0.1016,0.23707 -0.158045,0.23707 -0.01693,0 -0.0508,-0.0339 -0.07338,-0.0564 -0.118533,-0.15805 -0.118533,-0.43463 -0.118533,-0.63783 l -0.1524,-0.29351 c -0.02822,0 -0.09031,-0.1524 -0.09031,-0.27093 0.0056,-0.0621 0.0056,-0.079 0.0056,-0.096 0,-0.1524 -0.1016,-0.17497 -0.124178,-0.36688 l -0.107244,-0.29352 c 0,-0.10724 -0.1016,-0.63782 -0.1016,-0.81844 0,-0.0226 0,-0.0339 0.0056,-0.0452 -0.08467,-0.0734 -0.02822,-0.32174 -0.124177,-0.34432 -0.06209,-0.0113 -0.242711,-0.0169 -0.423333,-0.0169 -0.180623,0 -0.361245,0.006 -0.428978,0.0113 -0.146755,0.0169 -0.07338,0.0734 -0.220133,0.096 -0.0056,0.0564 -0.02258,0.41768 -0.02258,0.42897 0,0.31609 0.163689,0.90876 0.214489,1.16276 0.372533,1.38853 0.474133,1.70462 0.502355,1.77235 0.05644,0.14111 0.112889,0.20885 0.1524,0.3048 0.01693,0.0452 0.03387,0.0903 0.0508,0.1524 z"
         id="path1741" />
      <path
         d="m 96.295459,154.37692 c 0,-0.12417 0,-0.25964 0.135466,-0.32173 0.08467,-0.0282 0.158045,-0.0339 0.225778,-0.0339 0.1016,0 0.180622,0.0169 0.208844,0.0169 0.07902,0 0.112889,0.0734 0.169333,0.10724 0.01129,0.006 0.01693,0.006 0.02822,0.006 0.0508,0 0.118533,-0.0452 0.186266,-0.0452 0.321733,0 0.349955,-0.0226 0.349955,-0.23142 l -0.06209,-0.62653 c 0,-0.0565 0,-0.11289 0.0056,-0.18063 -0.01693,-0.11853 -0.146755,-0.16368 -0.248355,-0.16368 -0.124178,0 -0.124178,0.079 -0.282222,0.079 -0.129823,0 -0.191911,-0.0677 -0.321734,-0.1016 -0.118533,-0.0339 -0.304799,-0.0452 -0.440266,-0.0564 -0.01693,-0.0339 -0.0508,-0.14111 -0.0508,-0.17497 0,-0.0565 0.02258,-0.19192 0.07338,-0.19192 0.1016,0 0.02822,0.22014 0.208844,0.22014 0.265289,0 0.118533,-0.32174 0.3556,-0.32174 0.208844,0 0.141111,0.27658 0.338666,0.27658 0.197556,0 0.06773,-0.28222 0.316089,-0.28222 0.1016,0 0.141111,0.0621 0.174978,0.14676 0.05644,0.12982 0,0.27657 0.208844,0.27657 0.118533,0 0.1524,-0.18626 0.1524,-0.254 0,-0.0508 -0.03951,-0.44591 -0.0508,-0.54186 0,-0.42334 0.0056,-0.51929 0.0508,-0.77894 0.02822,-0.0226 0.06773,-0.0621 0.06773,-0.0959 0,-0.19756 -0.829733,-0.19756 -1.038577,-0.19756 -0.530577,0 -0.959555,0.0565 -1.518354,0.0565 h -0.197556 c -0.0508,0.0113 -0.412044,0.11289 -0.412044,0.23706 0,0.1524 -0.02822,0.254 -0.02822,0.31609 0.01129,0.13547 0.07902,0.12983 0.07902,0.14111 l -0.0508,0.1016 c 0,0.0169 -0.01129,0.18063 -0.01129,0.23707 0,0.0452 0.01129,0.15804 0.01129,0.16933 0,0.23707 0.06209,0.20885 0.06209,0.36689 0,0.16934 -0.05644,0.29916 -0.07338,0.44027 -0.0056,0.0564 -0.0056,0.11289 -0.0056,0.16369 0,0.1016 0.0056,0.18626 0.0056,0.21449 0,0.079 -0.02258,0.23706 -0.02258,0.40075 0,0.11289 0.01129,0.23142 0.04515,0.32738 0.01693,0.0452 0.02258,0.079 0.02258,0.10724 0,0.11854 -0.02258,0.12983 -0.02258,0.15805 0,0.0169 0.01693,0.0451 0.05644,0.14111 0.02258,0.0621 0.02822,0.15804 0.02822,0.22578 0,0.0734 0.08467,0.0508 0.09031,0.14111 0,0.006 -0.05644,0.079 -0.05644,0.096 0,0.0508 0.02822,0.0621 0.02822,0.0903 0,0.0452 -0.02258,0.0677 -0.02258,0.12983 0,0.25964 0.02822,0.67733 0.338666,0.67733 0.04516,0 0.07902,-0.0113 0.1016,-0.0113 0.03387,0 0.04516,0.0226 0.04516,0.10724 0,0.23143 -0.08467,0.54751 -0.08467,0.6096 0,0.14676 0.06209,0.49671 0.254,0.49671 0.248355,0 0.248355,-0.42333 0.248355,-0.63782 0,-0.14675 0,-0.25964 0.03387,-0.36124 0.03951,-0.16369 0.08467,-0.33867 0.197555,-0.33867 0.1524,0.006 0.1016,0.41769 0.242711,0.41769 0.174978,0 0.1016,-0.11853 0.2032,-0.22013 0.124178,0.0113 0.163689,0.11289 0.163689,0.24271 0,0.12418 -0.03951,0.27658 -0.06209,0.38946 -0.03951,0.18627 -0.129822,0.36125 -0.129822,0.51365 0.04515,0.254 0.158044,0.34995 0.270933,0.34995 0.135466,0 0.270933,-0.14111 0.270933,-0.31608 0,-0.22578 -0.08467,-0.49672 -0.08467,-0.75072 0,-0.14675 0.0056,-0.28222 0.06209,-0.40075 0.09031,0.0395 0.09031,0.17498 0.09031,0.31044 0,0.18627 0,0.36125 0.158045,0.36125 0.112888,0 0.129822,-0.19756 0.129822,-0.36689 0,-0.17498 0,-0.29351 0.118533,-0.45156 0.124178,0 0.06209,0.42898 0.158044,0.42898 0.07338,0 0.107245,-0.0564 0.135467,-0.14111 0.02822,-0.0847 0.03951,-0.19191 0.0508,-0.29915 0.01693,-0.18063 0.02258,-0.37254 0.02258,-0.508 0,-0.1016 -0.0056,-0.32174 -0.02258,-0.46849 -0.01693,-0.14111 -0.04516,-0.22578 -0.135467,-0.22578 -0.01129,0 -0.02822,0 -0.04515,0.006 -0.191911,0 -0.237067,0.0847 -0.434622,0.0847 -0.03387,0 -0.135467,-0.0113 -0.146756,-0.0113 -0.02258,-0.0169 -0.03387,-0.0621 -0.07902,-0.0734 -0.02258,-0.006 -0.0508,-0.0113 -0.08467,-0.0113 l -0.327378,0.0339 c -0.107244,0 -0.293511,-0.0508 -0.361244,-0.0508 h -0.01129 c -0.04515,-0.0564 -0.05644,-0.0903 -0.05644,-0.15804 z"
         id="path1743" />
      <path
         d="m 99.196703,156.49359 c 0,0.0677 0,0.13547 0.01129,0.19191 0.01693,0.10724 0.107245,0.17498 0.191911,0.17498 0.09031,0 0.174978,-0.0734 0.186267,-0.24836 0.01693,-0.31044 0.02258,-0.6096 0.02258,-0.90311 0,-0.59831 0,-0.75071 0.0056,-0.90875 0.0056,-0.18062 0.03951,-1.03858 0.0508,-1.2192 0.01129,-0.0169 0.07902,-0.0508 0.1016,-0.0508 0.09596,0 0.208844,0.68298 0.208844,0.79022 0,0.14676 -0.08467,0.23707 -0.08467,0.36689 0,0.0847 0.07338,0.25964 0.18062,0.25964 0.14111,0 0.14676,-0.32737 0.254,-0.40075 0.1524,0.079 0.0169,0.44026 0.1524,0.44026 h 0.23707 c -0.0169,0.0339 -0.0282,0.1016 -0.0282,0.16934 0,0.11289 0.0339,0.23142 0.14111,0.23142 0.12417,0 0.1016,-0.3048 0.16933,-0.38382 0.13547,0 0.14676,0.33302 0.14676,0.55315 l -0.0621,0.72249 c 0,0.23707 0.14675,0.44027 0.27657,0.44027 0.16369,0 0.19756,-0.33303 0.19756,-0.44027 0,-0.0903 -0.0621,-0.44591 -0.0621,-0.46284 l -0.0508,-0.3048 c 0,-0.0282 0.0339,-0.17498 0.0508,-0.2032 0.006,0.0395 0.0226,0.0169 0.0395,0.12982 0.0282,0.14675 0.0226,0.46284 0.0339,0.51364 0.0226,0.11289 0.1016,0.18062 0.16933,0.18062 0.0621,0 0.11853,-0.0564 0.11853,-0.18062 l -0.0621,-0.85231 c 0,-0.20884 0.0508,-0.31609 0.096,-0.508 0.0734,-0.28222 0.14676,-0.64911 0.14676,-0.95955 0,-0.0452 -0.0282,-0.24271 -0.0847,-0.3048 0.0847,-0.67733 0.1016,-1.43369 0.1016,-2.11102 0,-0.0452 -0.079,-0.3048 -0.22013,-0.3048 h -1.0668 c -0.0169,0 -0.11289,0.68298 -0.11289,0.8128 0,0.0564 0.006,0.22013 0.006,0.23706 l 0.0734,0.34996 -0.0508,0.1016 c -0.006,0.0339 -0.006,0.11853 -0.006,0.2032 0,0.0847 0,0.17498 0.006,0.2032 -0.0282,-0.0508 -0.0564,-0.11853 -0.0903,-0.11853 -0.0395,-0.096 -0.0621,-0.13547 -0.096,-0.22578 -0.16368,-0.44027 -0.40075,-0.82973 -0.626528,-1.23049 -0.03951,-0.0677 -0.146756,-0.22578 -0.1524,-0.22578 h -0.699911 c 0,-0.1016 -0.09596,-0.1016 -0.146755,-0.1016 h -0.0056 c -0.259645,0 -0.485422,0.14111 -0.485422,0.4064 0,0.0282 0.01693,0.16369 0.01693,0.17498 0,0.0339 0.03951,0.31044 0.03951,0.36124 l -0.03951,0.45156 c 0,0.0734 -0.01129,0.90311 -0.01129,1.19662 0,0.21449 0.01129,0.80716 0.01129,0.83538 l 0.1016,0.6096 c 0.186266,0.12417 0.07902,0.51929 0.327377,0.51929 0.02258,0 0.0508,-0.006 0.07902,-0.0113 0.02822,0.13546 0.02258,0.37253 0.208844,0.37253 0.09596,0 0.118533,-0.10724 0.124178,-0.17498 0.0056,-0.0452 0.02822,-0.0903 0.05644,-0.0903 0.02258,0 0.0508,0.0339 0.07902,0.12982 0.0056,0.0395 0.01129,0.0734 0.01129,0.1016 0,0.0847 -0.02822,0.14111 -0.09031,0.23707 -0.08467,0.12418 -0.09596,0.3048 -0.09596,0.44027 z"
         id="path1745" />
      <path
         d="m 104.69439,154.29226 c 0,-1.12889 0.0339,-1.38289 0.0395,-1.42805 0.0169,-0.254 -0.0113,-0.63217 0.14676,-0.84102 0.13546,0.10725 0.13546,0.19756 0.20884,0.24836 0.0339,0.0282 0.096,0.0113 0.19756,0.0621 0.15804,0.0847 0.0226,0.4064 0.27093,0.4064 0.0395,0 0.16933,-0.0113 0.18627,-0.0847 -0.0113,-0.0508 -0.0508,-0.27093 -0.0564,-0.38947 0,-0.10724 0.0339,-0.18062 0.0677,-0.29915 0.0226,-0.11854 0.0452,-0.29916 0.0452,-0.42333 0,-0.24836 0,-0.37818 -0.10724,-0.57009 -0.16369,-0.0226 -0.90876,-0.0565 -1.0668,-0.0565 -0.6096,0 -2.07151,0.0339 -2.0828,0.0565 l -0.1524,0.254 c -0.006,0.0169 -0.0395,0.53057 -0.0508,0.73942 0,0.0226 -0.006,0.24271 -0.006,0.31609 v 0.31609 c 0.0226,0.0903 0.1016,0.18626 0.18063,0.18626 0.21449,0 0.16369,-0.5588 0.24835,-0.5588 0.1524,0 0.0452,0.37818 0.23707,0.42334 0.16369,0 0.25964,-0.44592 0.31044,-0.52494 0.0452,0.0621 0.0452,0.0903 0.0452,0.12982 0,0.0226 0,0.0452 0.006,0.079 0.0621,0.95955 0.0169,1.96426 0.19756,2.89559 0.0621,0.0508 0.10724,0.0847 0.18062,0.096 0.19191,0.0339 0.23142,0.079 0.23142,0.16369 l -0.21449,1.01035 c 0,0.0847 0.0169,0.48543 0.22014,0.48543 0.18062,0 0.29915,-0.40076 0.29915,-0.57574 0,-0.19191 -0.11289,-0.3556 -0.11289,-0.55315 0,-0.2032 0.0226,-0.41205 0.11289,-0.41205 0.0621,0 0.0677,0.31045 0.21449,0.31045 0.0452,0 0.10724,-0.0564 0.12418,-0.11854 -0.0113,-0.0903 -0.0282,-0.18062 -0.0282,-0.27093 0,-0.12982 0.0282,-0.25964 0.11288,-0.34995 z"
         id="path1747" />
      <path
         d="m 107.22874,155.64128 c 0,0.13547 -0.0621,0.24835 -0.096,0.38382 -0.0395,0.16369 -0.0621,0.3556 -0.0621,0.53058 0,0.2032 0.13546,0.32738 0.26529,0.32738 0.16933,0 0.254,-0.19756 0.254,-0.38947 0,-0.20885 -0.0734,-0.41204 -0.0734,-0.62653 0,-0.096 0.0113,-0.31609 0.0113,-0.32738 0.0339,-0.0677 0.0621,-0.0903 0.0903,-0.0903 0.0282,0 0.0508,0.0282 0.0734,0.0564 0.0564,0.0734 0.0339,0.21449 0.0451,0.31609 0.0113,0.2032 0.096,0.23142 0.15805,0.23707 0.0677,0 0.10724,-0.10725 0.10724,-0.23707 0,-0.28222 0.096,-0.39511 0.25964,-0.39511 0.0226,0 0.10725,0.006 0.12983,0.0113 l 0.1016,0.33302 c 0.0169,0.0452 0.1016,0.25965 0.1016,0.27658 l -0.0847,0.34431 c 0,0.37253 0.0226,0.63782 0.25964,0.63782 0.25965,0 0.3048,-0.24271 0.3048,-0.47978 0,-0.3556 -0.18062,-0.60395 -0.18062,-0.95391 0,-0.1524 0,-0.51929 0.2032,-0.51929 0.0508,0 0.079,0.0677 0.0903,0.14112 0.0282,0.16368 0.0734,0.36124 0.16934,0.36124 0.0564,0 0.1016,-0.0508 0.1016,-0.12982 -0.006,-0.0621 -0.0113,-0.19756 -0.0113,-0.33867 0,-0.14111 0.006,-0.28222 0.0113,-0.33302 l 0.1016,-0.6096 c 0.0452,-0.42898 0.0847,-0.68298 0.12417,-1.14582 0.006,-0.0903 0.006,-0.18627 0.006,-0.28787 0,-0.1016 0,-0.19755 0.006,-0.3048 0.0282,-0.3556 0.0734,-0.72813 0.0734,-0.99342 0,-0.20884 -0.0508,-0.4572 -0.26529,-0.53622 h -0.51364 c -0.18627,0 -0.33867,0.006 -0.55316,0.0508 -0.15804,0.079 -0.17498,0.27093 -0.17498,0.42333 0,0.23142 0.1016,0.42898 0.10725,0.68298 0,0.0282 0.006,0.57573 0.006,0.78458 v 0.81844 c -0.0113,0.0282 -0.0169,0.0564 -0.0282,0.079 -0.096,0.26529 -0.1524,0.43462 -0.46849,0.43462 -0.254,0 -0.43462,-0.33302 -0.45155,-0.56444 -0.0282,-0.41204 -0.0282,-0.78458 -0.0282,-1.10631 0,-0.54187 0.0677,-0.9144 0.0677,-1.22484 0,-0.36689 -0.11854,-0.36125 -0.14676,-0.37818 -0.34995,-0.006 -0.41769,-0.006 -0.47977,-0.006 -0.59832,0 -0.75636,0.096 -0.75636,0.8128 0,0.0847 0.0226,0.31609 0.0226,0.32738 l 0.0508,0.2032 v 1.31516 c 0.0395,0.21448 0.079,0.57008 0.1524,0.76764 0,0.11853 0.1524,0.42333 0.1524,0.508 0,0.12982 0.0677,0.28787 0.1016,0.4572 0.0339,0.19191 0.0734,0.40075 0.1524,0.40075 0.0339,0 0.0734,-0.0395 0.12418,-0.12982 0.0621,-0.11853 0.10159,-0.27093 0.20319,-0.27093 0.13547,0 0.18627,0.27658 0.18627,0.3556 z"
         id="path1749" />
      <path
         d="m 113.19491,156.1267 c 0,0.68862 0.17498,0.78458 0.41204,0.86924 0.19756,-0.13546 0.16934,-0.46284 0.19192,-0.62653 0.0508,-0.38382 0.11288,-0.42898 0.11288,-0.44026 0,-0.0226 -0.096,-0.13547 -0.1016,-0.1524 -0.079,-0.23143 -0.0451,-0.40076 -0.1524,-0.6096 -0.079,-0.1524 -0.23142,-0.28223 -0.39511,-0.47978 -0.10724,-0.11289 -0.12417,-0.24271 -0.22013,-0.37253 -0.0903,-0.12418 -0.27093,-0.24272 -0.32738,-0.36125 -0.0339,-0.0734 -0.0621,-0.14111 -0.0734,-0.20884 0.0169,-0.0169 0.0847,-0.0452 0.13547,-0.096 0.0508,-0.0451 0.0847,-0.11289 0.0903,-0.11289 0.0621,0 0.0847,0.19756 0.20885,0.19756 0.15804,0 0.19191,-0.0903 0.19191,-0.24836 0,-0.32737 0.0169,-0.42333 0.0339,-0.47413 0.0734,-0.27093 0.20885,-0.41769 0.20885,-0.7112 0,-0.1016 -0.0508,-0.49107 -0.13547,-0.59267 -0.0677,-0.0734 -0.39511,-0.37817 -0.508,-0.47977 -0.0113,-0.006 -0.0169,-0.0169 -0.0226,-0.0226 -0.2032,-0.17498 -0.55879,-0.0621 -0.71119,-0.28222 h -0.5588 c -0.508,0 -0.762,0.0282 -1.26436,0.0677 l -0.15804,0.0113 c -0.079,0.0339 -0.0903,0.27093 -0.1016,0.3048 v 3.17782 c 0.0169,0 0.0226,0.2032 0.10724,0.3556 0.0677,0.11289 0.19756,0.16933 0.29916,0.22578 0.0113,0.079 0.0508,0.36124 0.0508,0.43462 0,0.0452 -0.0282,0.37818 -0.0508,0.42898 -0.0226,0.0564 -0.096,0.37253 -0.096,0.57573 0,0.19191 0.1524,0.4572 0.27658,0.4572 0.10724,0 0.18062,-0.19756 0.18062,-0.34431 0,-0.28787 -0.0734,-0.59831 -0.0734,-0.90311 0,-0.32738 0.11289,-0.39511 0.23707,-0.39511 0,0.0677 -0.0169,0.39511 -0.0169,0.51928 0.0113,0.20885 0.10724,0.63218 0.26528,0.63218 0.1016,0 0.13547,-0.079 0.13547,-0.18627 0,-0.14111 -0.0621,-0.33302 -0.0734,-0.41204 -0.0113,-0.11853 -0.0282,-0.23142 -0.0282,-0.34995 0,-0.22578 0.0847,-0.41769 0.0847,-0.64912 l -0.0282,-0.31608 c -0.0169,0 -0.0508,-0.0339 -0.0508,-0.0508 0,-0.0226 0.0226,-0.0508 0.0226,-0.10725 0.006,-0.0451 0,-0.11853 0.0169,-0.12418 0.2032,0.16369 0.33866,0.46849 0.49106,0.65476 0.14111,0.16933 0.29916,0.24271 0.55316,0.24271 0.0395,0 0.0903,0 0.13546,-0.006 0,0.32737 -0.0677,0.46284 -0.0677,0.63782 0,0.25964 0.14111,0.54186 0.39511,0.57009 0.11854,0 0.1524,-0.0564 0.1524,-0.13547 0,-0.12418 -0.079,-0.29916 -0.12982,-0.38382 -0.0395,-0.0734 -0.0508,-0.13547 -0.0508,-0.20885 0,-0.1016 0.0282,-0.20884 0.0395,-0.32737 h 0.16933 c 0.1524,0.1524 0.34432,0.18626 0.36125,0.28786 0,0.14676 -0.1524,0.3048 -0.15805,0.32174 z m -1.87395,-3.39795 c 0,-0.0282 0.006,-0.50236 0.0847,-0.53058 0.079,0.0226 0.0508,0.079 0.0734,0.19756 0.0339,0.15804 0.0903,0.19755 0.14111,0.19755 0.11853,0 0.18627,-0.11289 0.18627,-0.26529 0,-0.0564 -0.0169,-0.11853 -0.0508,-0.16369 0.24835,0 0.42898,0.16934 0.42898,0.29351 -0.0508,0.3556 -0.43463,0.47978 -0.72814,0.47978 -0.0226,0 -0.0847,-0.006 -0.0847,-0.006 -0.0169,-0.0113 -0.0508,-0.1524 -0.0508,-0.2032 z"
         id="path1751" />
      <path
         d="m 115.41881,154.37692 c 0,-0.12417 0,-0.25964 0.13547,-0.32173 0.0847,-0.0282 0.15804,-0.0339 0.22578,-0.0339 0.1016,0 0.18062,0.0169 0.20884,0.0169 0.079,0 0.11289,0.0734 0.16933,0.10724 0.0113,0.006 0.0169,0.006 0.0282,0.006 0.0508,0 0.11853,-0.0452 0.18626,-0.0452 0.32174,0 0.34996,-0.0226 0.34996,-0.23142 l -0.0621,-0.62653 c 0,-0.0565 0,-0.11289 0.006,-0.18063 -0.0169,-0.11853 -0.14675,-0.16368 -0.24835,-0.16368 -0.12418,0 -0.12418,0.079 -0.28222,0.079 -0.12983,0 -0.19191,-0.0677 -0.32174,-0.1016 -0.11853,-0.0339 -0.3048,-0.0452 -0.44026,-0.0564 -0.0169,-0.0339 -0.0508,-0.14111 -0.0508,-0.17497 0,-0.0565 0.0226,-0.19192 0.0734,-0.19192 0.1016,0 0.0282,0.22014 0.20885,0.22014 0.26529,0 0.11853,-0.32174 0.3556,-0.32174 0.20884,0 0.14111,0.27658 0.33867,0.27658 0.19755,0 0.0677,-0.28222 0.31608,-0.28222 0.1016,0 0.14111,0.0621 0.17498,0.14676 0.0565,0.12982 0,0.27657 0.20885,0.27657 0.11853,0 0.1524,-0.18626 0.1524,-0.254 0,-0.0508 -0.0395,-0.44591 -0.0508,-0.54186 0,-0.42334 0.006,-0.51929 0.0508,-0.77894 0.0282,-0.0226 0.0677,-0.0621 0.0677,-0.0959 0,-0.19756 -0.82973,-0.19756 -1.03858,-0.19756 -0.53058,0 -0.95955,0.0565 -1.51835,0.0565 h -0.19756 c -0.0508,0.0113 -0.41204,0.11289 -0.41204,0.23706 0,0.1524 -0.0282,0.254 -0.0282,0.31609 0.0113,0.13547 0.079,0.12983 0.079,0.14111 l -0.0508,0.1016 c 0,0.0169 -0.0113,0.18063 -0.0113,0.23707 0,0.0452 0.0113,0.15804 0.0113,0.16933 0,0.23707 0.0621,0.20885 0.0621,0.36689 0,0.16934 -0.0564,0.29916 -0.0734,0.44027 -0.006,0.0564 -0.006,0.11289 -0.006,0.16369 0,0.1016 0.006,0.18626 0.006,0.21449 0,0.079 -0.0226,0.23706 -0.0226,0.40075 0,0.11289 0.0113,0.23142 0.0452,0.32738 0.0169,0.0452 0.0226,0.079 0.0226,0.10724 0,0.11854 -0.0226,0.12983 -0.0226,0.15805 0,0.0169 0.0169,0.0451 0.0564,0.14111 0.0226,0.0621 0.0282,0.15804 0.0282,0.22578 0,0.0734 0.0847,0.0508 0.0903,0.14111 0,0.006 -0.0564,0.079 -0.0564,0.096 0,0.0508 0.0282,0.0621 0.0282,0.0903 0,0.0452 -0.0226,0.0677 -0.0226,0.12983 0,0.25964 0.0282,0.67733 0.33867,0.67733 0.0452,0 0.079,-0.0113 0.1016,-0.0113 0.0339,0 0.0452,0.0226 0.0452,0.10724 0,0.23143 -0.0847,0.54751 -0.0847,0.6096 0,0.14676 0.0621,0.49671 0.254,0.49671 0.24836,0 0.24836,-0.42333 0.24836,-0.63782 0,-0.14675 0,-0.25964 0.0339,-0.36124 0.0395,-0.16369 0.0847,-0.33867 0.19756,-0.33867 0.1524,0.006 0.1016,0.41769 0.24271,0.41769 0.17498,0 0.1016,-0.11853 0.2032,-0.22013 0.12418,0.0113 0.16369,0.11289 0.16369,0.24271 0,0.12418 -0.0395,0.27658 -0.0621,0.38946 -0.0395,0.18627 -0.12982,0.36125 -0.12982,0.51365 0.0452,0.254 0.15804,0.34995 0.27093,0.34995 0.13547,0 0.27093,-0.14111 0.27093,-0.31608 0,-0.22578 -0.0847,-0.49672 -0.0847,-0.75072 0,-0.14675 0.006,-0.28222 0.0621,-0.40075 0.0903,0.0395 0.0903,0.17498 0.0903,0.31044 0,0.18627 0,0.36125 0.15804,0.36125 0.11289,0 0.12982,-0.19756 0.12982,-0.36689 0,-0.17498 0,-0.29351 0.11853,-0.45156 0.12418,0 0.0621,0.42898 0.15805,0.42898 0.0734,0 0.10724,-0.0564 0.13547,-0.14111 0.0282,-0.0847 0.0395,-0.19191 0.0508,-0.29915 0.0169,-0.18063 0.0226,-0.37254 0.0226,-0.508 0,-0.1016 -0.006,-0.32174 -0.0226,-0.46849 -0.0169,-0.14111 -0.0452,-0.22578 -0.13547,-0.22578 -0.0113,0 -0.0282,0 -0.0452,0.006 -0.19191,0 -0.23706,0.0847 -0.43462,0.0847 -0.0339,0 -0.13546,-0.0113 -0.14675,-0.0113 -0.0226,-0.0169 -0.0339,-0.0621 -0.079,-0.0734 -0.0226,-0.006 -0.0508,-0.0113 -0.0847,-0.0113 l -0.32738,0.0339 c -0.10724,0 -0.29351,-0.0508 -0.36124,-0.0508 h -0.0113 c -0.0452,-0.0564 -0.0565,-0.0903 -0.0565,-0.15804 z"
         id="path1753" />
      <path
         d="m 120.13192,154.56319 c -0.0847,0 -0.2032,0.11289 -0.2032,0.22578 0,0.0226 0.0508,0.11289 0.0508,0.12982 0,0.16933 -0.0677,0.23707 -0.0677,0.49671 l 0.0734,0.75636 c 0,0.16933 -0.0903,0.25964 -0.0903,0.42333 0,0.14111 0.0621,0.22013 0.11853,0.22013 0.096,0 0.096,-0.22578 0.10724,-0.3048 0.0282,-0.25964 0.096,-0.4064 0.26529,-0.4064 0.2032,0 0.2032,0.29916 0.36125,0.29916 0.2032,0 0.16933,-0.34996 0.4064,-0.34996 0.16933,0 0.22577,0.13547 0.3048,0.254 0.0339,0.0564 0.0451,0.096 0.0451,0.12982 0,0.0565 -0.0282,0.10725 -0.0282,0.20885 0,0.0339 -0.006,0.0847 -0.006,0.14111 0,0.14111 0.0226,0.32738 0.15804,0.32738 0.14111,0 0.14676,-0.14111 0.14676,-0.24836 l 0.0226,-0.36689 c 0,-0.0847 -0.0169,-0.2032 -0.0169,-0.26529 0,-0.0621 0.079,-0.12982 0.10724,-0.12982 0.12983,0 0.11854,0.20885 0.28223,0.20885 0.3048,0 0.22013,-0.4064 0.60395,-0.4064 0.12982,0 0.16933,0.12418 0.16933,0.26529 0,0.17497 -0.0564,0.37817 -0.0621,0.44026 -0.0169,0.18627 -0.0339,0.38947 -0.0339,0.62654 0,0.29351 0.0677,0.55315 0.19755,0.55315 0.15805,0 0.19192,-0.23707 0.19192,-0.47978 0,-0.19191 -0.0226,-0.37817 -0.0226,-0.46284 -0.006,-0.12418 -0.0395,-0.24836 -0.0395,-0.34996 0,-0.22577 0.0734,-0.46284 0.0734,-0.88053 v -1.58609 c 0,-0.32173 -0.0169,-0.37817 -0.0451,-0.43462 -0.0903,-0.17498 -0.27658,-0.32738 -0.38382,-0.3556 l -0.096,0.0734 c -0.0226,-0.006 -0.10724,-0.15804 -0.12418,-0.16369 -0.0395,-0.0339 -0.1016,-0.0452 -0.18626,-0.0677 -0.0621,-0.0226 -0.11289,-0.11289 -0.17498,-0.12982 -0.0395,-0.0113 -0.0847,-0.0169 -0.13547,-0.0169 -0.12982,0 -0.16933,0 -0.19755,-0.0169 -0.1016,-0.0621 -0.0169,-0.12982 -0.2032,-0.14676 -0.11854,-0.0113 -0.29916,0 -0.41205,-0.0452 -0.10724,-0.0452 -0.14111,-0.1016 -0.14111,-0.22578 0,-0.0113 0.0339,-0.0508 0.0508,-0.0508 0.096,-0.0169 0.41769,-0.10724 0.51365,-0.10724 0.18062,0 0.16369,0.23706 0.3048,0.23706 0.17497,0 0.254,-0.13546 0.45155,-0.13546 0.20885,0.0113 0.28787,0.0508 0.34431,0.12417 0.0395,0.0508 0.0564,0.23143 0.12418,0.23143 0.0564,0 0.1524,-0.22578 0.1524,-0.25965 0,-0.0847 -0.0621,-0.254 -0.0621,-0.29351 0,-0.0564 0.0339,-0.19756 0.0339,-0.44591 0,-0.23142 -0.0169,-0.47978 -0.0169,-0.63782 -0.0395,-0.0621 -0.12982,-0.0282 -0.13546,-0.14111 0,-0.079 -0.0282,-0.0677 -0.11854,-0.0847 -0.0508,-0.0113 -0.22577,-0.0339 -0.26528,-0.0339 -0.19191,0 -0.31609,0.0226 -0.43463,0.0226 -0.22013,-0.006 -0.39511,-0.0395 -0.53057,-0.0395 -0.508,0 -0.53622,0.0282 -0.5588,0.0564 -0.1524,0.12983 -0.46285,0.14676 -0.6604,0.14676 -0.12982,0 -0.11289,0.0282 -0.19191,0.12418 -0.0903,0.1016 -0.24836,0.19755 -0.29351,0.26529 -0.0847,0.12982 -0.1016,0.34431 -0.1016,0.5588 0,0.2032 0.0169,0.41204 0.0169,0.54186 0,0.0677 -0.0169,0.31045 -0.0169,0.45156 0,0.0734 0.0169,0.0847 0.0508,0.12982 0.0508,0.079 0.0959,0.19755 0.17497,0.254 0.079,0.0508 0.1524,0.0621 0.22014,0.0959 0.079,0.0339 0.0734,0.12983 0.14675,0.1524 0.1016,0.0395 0.31609,0.006 0.44591,0.0565 0.079,0.0339 0.096,0.12418 0.17498,0.12418 0.079,-0.006 0.14676,-0.0169 0.2032,-0.0169 0.0508,0 0.0903,0.0113 0.11289,0.0452 0.0226,0.0339 0.0395,0.1016 0.079,0.12418 0.0564,0.0282 0.14676,0.006 0.18627,0.0452 0.0339,0.0282 0.0226,0.12982 0.0395,0.16934 0.0282,0.0451 0.0903,0.0226 0.1016,0.0677 0.0169,0.0508 0.0226,0.1016 0.0226,0.1524 0,0.1016 -0.006,0.14675 -0.0565,0.1524 -0.0451,0.0113 -0.22013,0.006 -0.34995,0.0169 l -0.20885,0.0339 c -0.0226,0 -0.22577,-0.0508 -0.254,-0.0508 l -0.23706,-0.0452 z m 0.68863,2.57951 c -0.12418,0 -0.14112,0.41769 -0.1524,0.49671 0,0.14111 0.0734,0.21449 0.14675,0.21449 0.0847,0 0.18062,-0.096 0.18062,-0.27093 0,-0.0621 -0.0564,-0.44027 -0.17497,-0.44027 z"
         id="path1755" />
      <path
         d="m 124.9297,154.37692 c 0,-0.12417 0,-0.25964 0.13547,-0.32173 0.0847,-0.0282 0.15804,-0.0339 0.22578,-0.0339 0.1016,0 0.18062,0.0169 0.20884,0.0169 0.079,0 0.11289,0.0734 0.16933,0.10724 0.0113,0.006 0.0169,0.006 0.0282,0.006 0.0508,0 0.11853,-0.0452 0.18626,-0.0452 0.32174,0 0.34996,-0.0226 0.34996,-0.23142 l -0.0621,-0.62653 c 0,-0.0565 0,-0.11289 0.006,-0.18063 -0.0169,-0.11853 -0.14675,-0.16368 -0.24835,-0.16368 -0.12418,0 -0.12418,0.079 -0.28222,0.079 -0.12983,0 -0.19192,-0.0677 -0.32174,-0.1016 -0.11853,-0.0339 -0.3048,-0.0452 -0.44026,-0.0564 -0.0169,-0.0339 -0.0508,-0.14111 -0.0508,-0.17497 0,-0.0565 0.0226,-0.19192 0.0734,-0.19192 0.1016,0 0.0282,0.22014 0.20885,0.22014 0.26529,0 0.11853,-0.32174 0.3556,-0.32174 0.20884,0 0.14111,0.27658 0.33866,0.27658 0.19756,0 0.0677,-0.28222 0.31609,-0.28222 0.1016,0 0.14111,0.0621 0.17498,0.14676 0.0564,0.12982 0,0.27657 0.20884,0.27657 0.11854,0 0.1524,-0.18626 0.1524,-0.254 0,-0.0508 -0.0395,-0.44591 -0.0508,-0.54186 0,-0.42334 0.006,-0.51929 0.0508,-0.77894 0.0282,-0.0226 0.0677,-0.0621 0.0677,-0.0959 0,-0.19756 -0.82973,-0.19756 -1.03858,-0.19756 -0.53058,0 -0.95955,0.0565 -1.51835,0.0565 h -0.19756 c -0.0508,0.0113 -0.41204,0.11289 -0.41204,0.23706 0,0.1524 -0.0282,0.254 -0.0282,0.31609 0.0113,0.13547 0.079,0.12983 0.079,0.14111 l -0.0508,0.1016 c 0,0.0169 -0.0113,0.18063 -0.0113,0.23707 0,0.0452 0.0113,0.15804 0.0113,0.16933 0,0.23707 0.0621,0.20885 0.0621,0.36689 0,0.16934 -0.0564,0.29916 -0.0734,0.44027 -0.006,0.0564 -0.006,0.11289 -0.006,0.16369 0,0.1016 0.006,0.18626 0.006,0.21449 0,0.079 -0.0226,0.23706 -0.0226,0.40075 0,0.11289 0.0113,0.23142 0.0452,0.32738 0.0169,0.0452 0.0226,0.079 0.0226,0.10724 0,0.11854 -0.0226,0.12983 -0.0226,0.15805 0,0.0169 0.0169,0.0451 0.0564,0.14111 0.0226,0.0621 0.0282,0.15804 0.0282,0.22578 0,0.0734 0.0847,0.0508 0.0903,0.14111 0,0.006 -0.0564,0.079 -0.0564,0.096 0,0.0508 0.0282,0.0621 0.0282,0.0903 0,0.0452 -0.0226,0.0677 -0.0226,0.12983 0,0.25964 0.0282,0.67733 0.33867,0.67733 0.0452,0 0.079,-0.0113 0.1016,-0.0113 0.0339,0 0.0452,0.0226 0.0452,0.10724 0,0.23143 -0.0847,0.54751 -0.0847,0.6096 0,0.14676 0.0621,0.49671 0.254,0.49671 0.24835,0 0.24835,-0.42333 0.24835,-0.63782 0,-0.14675 0,-0.25964 0.0339,-0.36124 0.0395,-0.16369 0.0847,-0.33867 0.19756,-0.33867 0.1524,0.006 0.1016,0.41769 0.24271,0.41769 0.17497,0 0.1016,-0.11853 0.2032,-0.22013 0.12417,0.0113 0.16369,0.11289 0.16369,0.24271 0,0.12418 -0.0395,0.27658 -0.0621,0.38946 -0.0395,0.18627 -0.12983,0.36125 -0.12983,0.51365 0.0452,0.254 0.15805,0.34995 0.27094,0.34995 0.13546,0 0.27093,-0.14111 0.27093,-0.31608 0,-0.22578 -0.0847,-0.49672 -0.0847,-0.75072 0,-0.14675 0.006,-0.28222 0.0621,-0.40075 0.0903,0.0395 0.0903,0.17498 0.0903,0.31044 0,0.18627 0,0.36125 0.15805,0.36125 0.11289,0 0.12982,-0.19756 0.12982,-0.36689 0,-0.17498 0,-0.29351 0.11853,-0.45156 0.12418,0 0.0621,0.42898 0.15805,0.42898 0.0734,0 0.10724,-0.0564 0.13546,-0.14111 0.0282,-0.0847 0.0395,-0.19191 0.0508,-0.29915 0.0169,-0.18063 0.0226,-0.37254 0.0226,-0.508 0,-0.1016 -0.006,-0.32174 -0.0226,-0.46849 -0.0169,-0.14111 -0.0451,-0.22578 -0.13546,-0.22578 -0.0113,0 -0.0282,0 -0.0452,0.006 -0.19191,0 -0.23706,0.0847 -0.43462,0.0847 -0.0339,0 -0.13547,-0.0113 -0.14675,-0.0113 -0.0226,-0.0169 -0.0339,-0.0621 -0.079,-0.0734 -0.0226,-0.006 -0.0508,-0.0113 -0.0847,-0.0113 l -0.32738,0.0339 c -0.10725,0 -0.29351,-0.0508 -0.36125,-0.0508 h -0.0113 c -0.0452,-0.0564 -0.0564,-0.0903 -0.0564,-0.15804 z"
         id="path1757" />
      <path
         d="m 130.15646,156.1267 c 0,0.68862 0.17498,0.78458 0.41204,0.86924 0.19756,-0.13546 0.16934,-0.46284 0.19191,-0.62653 0.0508,-0.38382 0.11289,-0.42898 0.11289,-0.44026 0,-0.0226 -0.0959,-0.13547 -0.1016,-0.1524 -0.079,-0.23143 -0.0452,-0.40076 -0.1524,-0.6096 -0.079,-0.1524 -0.23142,-0.28223 -0.39511,-0.47978 -0.10724,-0.11289 -0.12418,-0.24271 -0.22013,-0.37253 -0.0903,-0.12418 -0.27094,-0.24272 -0.32738,-0.36125 -0.0339,-0.0734 -0.0621,-0.14111 -0.0734,-0.20884 0.0169,-0.0169 0.0847,-0.0452 0.13547,-0.096 0.0508,-0.0451 0.0847,-0.11289 0.0903,-0.11289 0.0621,0 0.0847,0.19756 0.20884,0.19756 0.15805,0 0.19192,-0.0903 0.19192,-0.24836 0,-0.32737 0.0169,-0.42333 0.0339,-0.47413 0.0734,-0.27093 0.20885,-0.41769 0.20885,-0.7112 0,-0.1016 -0.0508,-0.49107 -0.13547,-0.59267 -0.0677,-0.0734 -0.39511,-0.37817 -0.508,-0.47977 -0.0113,-0.006 -0.0169,-0.0169 -0.0226,-0.0226 -0.2032,-0.17498 -0.5588,-0.0621 -0.7112,-0.28222 h -0.5588 c -0.508,0 -0.762,0.0282 -1.26435,0.0677 l -0.15805,0.0113 c -0.079,0.0339 -0.0903,0.27093 -0.1016,0.3048 v 3.17782 c 0.0169,0 0.0226,0.2032 0.10725,0.3556 0.0677,0.11289 0.19755,0.16933 0.29915,0.22578 0.0113,0.079 0.0508,0.36124 0.0508,0.43462 0,0.0452 -0.0282,0.37818 -0.0508,0.42898 -0.0226,0.0564 -0.0959,0.37253 -0.0959,0.57573 0,0.19191 0.1524,0.4572 0.27658,0.4572 0.10724,0 0.18062,-0.19756 0.18062,-0.34431 0,-0.28787 -0.0734,-0.59831 -0.0734,-0.90311 0,-0.32738 0.11289,-0.39511 0.23707,-0.39511 0,0.0677 -0.0169,0.39511 -0.0169,0.51928 0.0113,0.20885 0.10725,0.63218 0.26529,0.63218 0.1016,0 0.13547,-0.079 0.13547,-0.18627 0,-0.14111 -0.0621,-0.33302 -0.0734,-0.41204 -0.0113,-0.11853 -0.0282,-0.23142 -0.0282,-0.34995 0,-0.22578 0.0847,-0.41769 0.0847,-0.64912 l -0.0282,-0.31608 c -0.0169,0 -0.0508,-0.0339 -0.0508,-0.0508 0,-0.0226 0.0226,-0.0508 0.0226,-0.10725 0.006,-0.0451 0,-0.11853 0.0169,-0.12418 0.2032,0.16369 0.33867,0.46849 0.49107,0.65476 0.14111,0.16933 0.29916,0.24271 0.55316,0.24271 0.0395,0 0.0903,0 0.13546,-0.006 0,0.32737 -0.0677,0.46284 -0.0677,0.63782 0,0.25964 0.14111,0.54186 0.39511,0.57009 0.11853,0 0.1524,-0.0564 0.1524,-0.13547 0,-0.12418 -0.079,-0.29916 -0.12982,-0.38382 -0.0395,-0.0734 -0.0508,-0.13547 -0.0508,-0.20885 0,-0.1016 0.0282,-0.20884 0.0395,-0.32737 h 0.16933 c 0.1524,0.1524 0.34431,0.18626 0.36125,0.28786 0,0.14676 -0.1524,0.3048 -0.15805,0.32174 z m -1.87396,-3.39795 c 0,-0.0282 0.006,-0.50236 0.0847,-0.53058 0.079,0.0226 0.0508,0.079 0.0734,0.19756 0.0339,0.15804 0.0903,0.19755 0.14111,0.19755 0.11853,0 0.18627,-0.11289 0.18627,-0.26529 0,-0.0564 -0.0169,-0.11853 -0.0508,-0.16369 0.24835,0 0.42897,0.16934 0.42897,0.29351 -0.0508,0.3556 -0.43462,0.47978 -0.72813,0.47978 -0.0226,0 -0.0847,-0.006 -0.0847,-0.006 -0.0169,-0.0113 -0.0508,-0.1524 -0.0508,-0.2032 z"
         id="path1759" />
      <path
         d="m 131.11036,154.50675 c 0.0226,0.28786 0.19191,0.2032 0.2032,0.3556 0.0113,0.12417 -0.0339,0.44026 0.16369,0.44026 0.1016,0 0.14676,-0.12418 0.22578,-0.12418 0,0.10725 0.0169,0.5588 0.0169,0.80152 l -0.0734,0.56444 c 0,0.27658 0.12982,0.39511 0.26528,0.39511 0.15805,0 0.33303,-0.16369 0.33303,-0.42333 0,-0.19191 -0.12418,-0.31609 -0.12418,-0.49107 0,-0.21449 0.31044,-0.096 0.31044,-0.33302 l -0.0282,-0.53058 v -2.56257 c 0.0226,-0.0282 0.0226,-0.096 0.0339,-0.21449 0.006,-0.11289 0.0113,-0.254 0.0113,-0.41769 v -0.7112 c -0.0169,-0.1016 -0.0508,-0.17498 -0.10725,-0.22578 -0.0508,-0.0452 -0.1016,-0.0564 -0.15804,-0.0734 -0.0903,0 -0.2032,-0.0339 -0.25965,-0.0339 h -0.71684 c -0.22578,0.0903 -0.22578,0.508 -0.22578,0.71684 l 0.0565,0.52493 c 0.006,0.079 0.006,0.1524 0.006,0.22014 0,0.15804 0,0.27657 0.006,0.37253 0.0113,0.24836 0.0395,0.32738 0.0395,0.43462 v 0.3556 c 0,0.32738 0,0.70556 0.0226,0.95956 z"
         id="path1761" />
      <path
         d="m 134.13014,154.37692 c 0,-0.12417 0,-0.25964 0.13546,-0.32173 0.0847,-0.0282 0.15805,-0.0339 0.22578,-0.0339 0.1016,0 0.18062,0.0169 0.20885,0.0169 0.079,0 0.11288,0.0734 0.16933,0.10724 0.0113,0.006 0.0169,0.006 0.0282,0.006 0.0508,0 0.11853,-0.0452 0.18627,-0.0452 0.32173,0 0.34995,-0.0226 0.34995,-0.23142 l -0.0621,-0.62653 c 0,-0.0565 0,-0.11289 0.006,-0.18063 -0.0169,-0.11853 -0.14676,-0.16368 -0.24836,-0.16368 -0.12417,0 -0.12417,0.079 -0.28222,0.079 -0.12982,0 -0.19191,-0.0677 -0.32173,-0.1016 -0.11854,-0.0339 -0.3048,-0.0452 -0.44027,-0.0564 -0.0169,-0.0339 -0.0508,-0.14111 -0.0508,-0.17497 0,-0.0565 0.0226,-0.19192 0.0734,-0.19192 0.1016,0 0.0282,0.22014 0.20884,0.22014 0.26529,0 0.11854,-0.32174 0.3556,-0.32174 0.20885,0 0.14111,0.27658 0.33867,0.27658 0.19756,0 0.0677,-0.28222 0.31609,-0.28222 0.1016,0 0.14111,0.0621 0.17498,0.14676 0.0564,0.12982 0,0.27657 0.20884,0.27657 0.11853,0 0.1524,-0.18626 0.1524,-0.254 0,-0.0508 -0.0395,-0.44591 -0.0508,-0.54186 0,-0.42334 0.006,-0.51929 0.0508,-0.77894 0.0282,-0.0226 0.0677,-0.0621 0.0677,-0.0959 0,-0.19756 -0.82973,-0.19756 -1.03857,-0.19756 -0.53058,0 -0.95956,0.0565 -1.51836,0.0565 h -0.19755 c -0.0508,0.0113 -0.41205,0.11289 -0.41205,0.23706 0,0.1524 -0.0282,0.254 -0.0282,0.31609 0.0113,0.13547 0.079,0.12983 0.079,0.14111 l -0.0508,0.1016 c 0,0.0169 -0.0113,0.18063 -0.0113,0.23707 0,0.0452 0.0113,0.15804 0.0113,0.16933 0,0.23707 0.0621,0.20885 0.0621,0.36689 0,0.16934 -0.0564,0.29916 -0.0734,0.44027 -0.006,0.0564 -0.006,0.11289 -0.006,0.16369 0,0.1016 0.006,0.18626 0.006,0.21449 0,0.079 -0.0226,0.23706 -0.0226,0.40075 0,0.11289 0.0113,0.23142 0.0452,0.32738 0.0169,0.0452 0.0226,0.079 0.0226,0.10724 0,0.11854 -0.0226,0.12983 -0.0226,0.15805 0,0.0169 0.0169,0.0451 0.0564,0.14111 0.0226,0.0621 0.0282,0.15804 0.0282,0.22578 0,0.0734 0.0847,0.0508 0.0903,0.14111 0,0.006 -0.0564,0.079 -0.0564,0.096 0,0.0508 0.0282,0.0621 0.0282,0.0903 0,0.0452 -0.0226,0.0677 -0.0226,0.12983 0,0.25964 0.0282,0.67733 0.33867,0.67733 0.0452,0 0.079,-0.0113 0.1016,-0.0113 0.0339,0 0.0452,0.0226 0.0452,0.10724 0,0.23143 -0.0847,0.54751 -0.0847,0.6096 0,0.14676 0.0621,0.49671 0.254,0.49671 0.24836,0 0.24836,-0.42333 0.24836,-0.63782 0,-0.14675 0,-0.25964 0.0339,-0.36124 0.0395,-0.16369 0.0847,-0.33867 0.19755,-0.33867 0.1524,0.006 0.1016,0.41769 0.24271,0.41769 0.17498,0 0.1016,-0.11853 0.2032,-0.22013 0.12418,0.0113 0.16369,0.11289 0.16369,0.24271 0,0.12418 -0.0395,0.27658 -0.0621,0.38946 -0.0395,0.18627 -0.12982,0.36125 -0.12982,0.51365 0.0452,0.254 0.15804,0.34995 0.27093,0.34995 0.13547,0 0.27094,-0.14111 0.27094,-0.31608 0,-0.22578 -0.0847,-0.49672 -0.0847,-0.75072 0,-0.14675 0.006,-0.28222 0.0621,-0.40075 0.0903,0.0395 0.0903,0.17498 0.0903,0.31044 0,0.18627 0,0.36125 0.15804,0.36125 0.11289,0 0.12983,-0.19756 0.12983,-0.36689 0,-0.17498 0,-0.29351 0.11853,-0.45156 0.12418,0 0.0621,0.42898 0.15804,0.42898 0.0734,0 0.10725,-0.0564 0.13547,-0.14111 0.0282,-0.0847 0.0395,-0.19191 0.0508,-0.29915 0.0169,-0.18063 0.0226,-0.37254 0.0226,-0.508 0,-0.1016 -0.006,-0.32174 -0.0226,-0.46849 -0.0169,-0.14111 -0.0452,-0.22578 -0.13547,-0.22578 -0.0113,0 -0.0282,0 -0.0452,0.006 -0.19191,0 -0.23707,0.0847 -0.43462,0.0847 -0.0339,0 -0.13547,-0.0113 -0.14676,-0.0113 -0.0226,-0.0169 -0.0339,-0.0621 -0.079,-0.0734 -0.0226,-0.006 -0.0508,-0.0113 -0.0847,-0.0113 l -0.32738,0.0339 c -0.10724,0 -0.29351,-0.0508 -0.36124,-0.0508 h -0.0113 c -0.0451,-0.0564 -0.0564,-0.0903 -0.0564,-0.15804 z"
         id="path1763" />
      <path
         d="m 136.59111,154.56319 c -0.0847,0 -0.2032,0.11289 -0.2032,0.22578 0,0.0226 0.0508,0.11289 0.0508,0.12982 0,0.16933 -0.0677,0.23707 -0.0677,0.49671 l 0.0734,0.75636 c 0,0.16933 -0.0903,0.25964 -0.0903,0.42333 0,0.14111 0.0621,0.22013 0.11853,0.22013 0.096,0 0.096,-0.22578 0.10725,-0.3048 0.0282,-0.25964 0.096,-0.4064 0.26528,-0.4064 0.2032,0 0.2032,0.29916 0.36125,0.29916 0.2032,0 0.16933,-0.34996 0.4064,-0.34996 0.16933,0 0.22578,0.13547 0.3048,0.254 0.0339,0.0564 0.0451,0.096 0.0451,0.12982 0,0.0565 -0.0282,0.10725 -0.0282,0.20885 0,0.0339 -0.006,0.0847 -0.006,0.14111 0,0.14111 0.0226,0.32738 0.15804,0.32738 0.14111,0 0.14676,-0.14111 0.14676,-0.24836 l 0.0226,-0.36689 c 0,-0.0847 -0.0169,-0.2032 -0.0169,-0.26529 0,-0.0621 0.079,-0.12982 0.10724,-0.12982 0.12983,0 0.11854,0.20885 0.28223,0.20885 0.3048,0 0.22013,-0.4064 0.60395,-0.4064 0.12982,0 0.16934,0.12418 0.16934,0.26529 0,0.17497 -0.0565,0.37817 -0.0621,0.44026 -0.0169,0.18627 -0.0339,0.38947 -0.0339,0.62654 0,0.29351 0.0677,0.55315 0.19756,0.55315 0.15804,0 0.19191,-0.23707 0.19191,-0.47978 0,-0.19191 -0.0226,-0.37817 -0.0226,-0.46284 -0.006,-0.12418 -0.0395,-0.24836 -0.0395,-0.34996 0,-0.22577 0.0734,-0.46284 0.0734,-0.88053 v -1.58609 c 0,-0.32173 -0.0169,-0.37817 -0.0452,-0.43462 -0.0903,-0.17498 -0.27658,-0.32738 -0.38382,-0.3556 l -0.096,0.0734 c -0.0226,-0.006 -0.10724,-0.15804 -0.12418,-0.16369 -0.0395,-0.0339 -0.1016,-0.0452 -0.18626,-0.0677 -0.0621,-0.0226 -0.11289,-0.11289 -0.17498,-0.12982 -0.0395,-0.0113 -0.0847,-0.0169 -0.13547,-0.0169 -0.12982,0 -0.16933,0 -0.19755,-0.0169 -0.1016,-0.0621 -0.0169,-0.12982 -0.2032,-0.14676 -0.11853,-0.0113 -0.29916,0 -0.41205,-0.0452 -0.10724,-0.0452 -0.14111,-0.1016 -0.14111,-0.22578 0,-0.0113 0.0339,-0.0508 0.0508,-0.0508 0.096,-0.0169 0.41769,-0.10724 0.51365,-0.10724 0.18062,0 0.16369,0.23706 0.3048,0.23706 0.17497,0 0.254,-0.13546 0.45155,-0.13546 0.20885,0.0113 0.28787,0.0508 0.34431,0.12417 0.0395,0.0508 0.0564,0.23143 0.12418,0.23143 0.0565,0 0.1524,-0.22578 0.1524,-0.25965 0,-0.0847 -0.0621,-0.254 -0.0621,-0.29351 0,-0.0564 0.0339,-0.19756 0.0339,-0.44591 0,-0.23142 -0.0169,-0.47978 -0.0169,-0.63782 -0.0395,-0.0621 -0.12983,-0.0282 -0.13547,-0.14111 0,-0.079 -0.0282,-0.0677 -0.11853,-0.0847 -0.0508,-0.0113 -0.22578,-0.0339 -0.26529,-0.0339 -0.19191,0 -0.31609,0.0226 -0.43463,0.0226 -0.22013,-0.006 -0.39511,-0.0395 -0.53057,-0.0395 -0.508,0 -0.53622,0.0282 -0.5588,0.0564 -0.1524,0.12983 -0.46285,0.14676 -0.6604,0.14676 -0.12982,0 -0.11289,0.0282 -0.19191,0.12418 -0.0903,0.1016 -0.24836,0.19755 -0.29351,0.26529 -0.0847,0.12982 -0.1016,0.34431 -0.1016,0.5588 0,0.2032 0.0169,0.41204 0.0169,0.54186 0,0.0677 -0.0169,0.31045 -0.0169,0.45156 0,0.0734 0.0169,0.0847 0.0508,0.12982 0.0508,0.079 0.0959,0.19755 0.17497,0.254 0.079,0.0508 0.1524,0.0621 0.22014,0.0959 0.079,0.0339 0.0734,0.12983 0.14675,0.1524 0.1016,0.0395 0.31609,0.006 0.44591,0.0565 0.079,0.0339 0.096,0.12418 0.17498,0.12418 0.079,-0.006 0.14676,-0.0169 0.2032,-0.0169 0.0508,0 0.0903,0.0113 0.11289,0.0452 0.0226,0.0339 0.0395,0.1016 0.079,0.12418 0.0565,0.0282 0.14676,0.006 0.18627,0.0452 0.0339,0.0282 0.0226,0.12982 0.0395,0.16934 0.0282,0.0451 0.0903,0.0226 0.1016,0.0677 0.0169,0.0508 0.0226,0.1016 0.0226,0.1524 0,0.1016 -0.006,0.14675 -0.0565,0.1524 -0.0451,0.0113 -0.22013,0.006 -0.34995,0.0169 l -0.20885,0.0339 c -0.0226,0 -0.22577,-0.0508 -0.254,-0.0508 l -0.23706,-0.0452 z m 0.68863,2.57951 c -0.12418,0 -0.14112,0.41769 -0.1524,0.49671 0,0.14111 0.0734,0.21449 0.14675,0.21449 0.0847,0 0.18062,-0.096 0.18062,-0.27093 0,-0.0621 -0.0564,-0.44027 -0.17497,-0.44027 z"
         id="path1765" />
    </g>
  </g>
</svg>
