<?xml version="1.0" encoding="utf-8"?>
<svg width="269.828" height="169.159" viewBox="0 0 44.408 27.84" xmlns="http://www.w3.org/2000/svg">
  <path style="display: inline; opacity: 0.98; fill-opacity: 1; stroke-width: 1.28599; stroke-linejoin: bevel; stroke-miterlimit: 4; stroke-dasharray: none; stroke-opacity: 0.964435; fill: rgb(255, 255, 255);" d="M100.26 128.639H84.477c-8.337-.672-10.867 20.294-11.056 23.742-.12.953-.1 4.13.144 5.014.67 2.437 2.498 4.379 4.287 4.523 1.494.12 2.96-.02 3.697.04h18.736v-6.264H84.313c-1.877-.01-4.206-2.178-3.627-4.388l4.08-16.332h15.469z" transform="translate(-47.944 -83.626) scale(.65858)"/>
  <path style="display: inline; opacity: 0.98; fill-opacity: 1; stroke-width: 5.14595; stroke-linejoin: bevel; stroke-miterlimit: 4; stroke-dasharray: none; stroke-opacity: 1; fill: rgb(255, 255, 255);" d="M73.977 45.982c-14.065-.146-18.585 42.15-18.295 58.336l-.123 9.086s-.311 3.207 3.49 3.162l50.549-.027c7.726-.909 12.83-6.092 12.4-20.287V74.568c-6.691-24.234-34.56-28.03-34.56-28.03l-13.127-.546a7.072 7.072 0 0 0-.334-.01zm16.18 21.372c3.58-.005 6.871 2.1 9.204 4.708 3.035 3.433 5.222 7.798 5.537 12.409-.232 2.053-.139 4.162-.724 6.158-1.065 3.453-3.721 6.892-7.53 7.332-5.552.245-11.11.401-16.665.611 1.065-5.24 3.58-32.107 9.458-31.19.242-.019.48-.028.72-.028z" transform="translate(-1.668 -1.285) scale(.16458)"/>
  <path style="display: inline; opacity: 0.98; fill-opacity: 1; stroke-width: 5.14595; stroke-linejoin: bevel; stroke-miterlimit: 4; stroke-dasharray: none; stroke-opacity: 0.964435; fill: rgb(255, 255, 255);" d="M146.215 54.7c-13.104 0-23.654 12.408-23.654 27.82v5.765c0 15.412 10.55 27.819 23.654 27.819s23.652-12.407 23.652-27.819V82.52c0-15.412-10.548-27.82-23.652-27.82zm-.17 23.21c2.652 0 4.787 3.512 4.787 7.873v3.67c0 4.361-2.135 7.873-4.787 7.873s-4.787-3.512-4.787-7.873v-3.67c0-4.36 2.135-7.873 4.787-7.873z" transform="translate(-1.668 -1.285) scale(.16458)"/>
  <path style="display: inline; fill-opacity: 1; stroke-width: 5.14595; stroke-linejoin: bevel; stroke-miterlimit: 4; stroke-dasharray: none; stroke-opacity: 0.964435; fill: rgb(255, 255, 255);" d="M187.016 56.508a13.927 13.927 0 0 0-13.957 13.957v31.357a13.927 13.927 0 0 0 13.957 13.957h16.064a13.927 13.927 0 0 0 13.957-13.957V70.465a13.927 13.927 0 0 0-13.957-13.957zm1.293 20.482h7.19l.093 4.047c.119 3.75.058 7.502.07 11.254h3.676v4.512h-11.03V81.037Z" transform="translate(-1.668 -1.285) scale(.16458)"/>
  <path style="display: inline; opacity: 0.98; fill-opacity: 1; stroke-width: 1.28599; stroke-linejoin: bevel; stroke-miterlimit: 4; stroke-dasharray: none; stroke-opacity: 0.964435; fill: rgb(255, 255, 255);" d="M131.291 138.997c4.81-.06 4.885 5.845 1.01 5.684h-1.807c-.462-.04-.286.052-.046.24 1.77 1.386 4.496 3.684 4.582 4.996.227 2.677-.04 3.04-2.007 4.074-1.995.59-4.069.258-5.264.059-4.144-1.379-4.218-6.033-.163-5.602l1.405.068.916.916h.411c-1.977-1.854-4.035-3.692-5.62-5.62-.82-3.701 2.046-4.903 4.06-4.836-3-.006 1.982.018 2.523.021z" transform="translate(-47.944 -83.626) scale(.65858)"/>
  <path style="display: inline; opacity: 0.98; fill-opacity: 1; stroke-width: 1.28599; stroke-linejoin: bevel; stroke-miterlimit: 4; stroke-dasharray: none; stroke-opacity: 0.964435; fill: rgb(255, 255, 255);" d="m130.159 153.316-2.967 15.013 9.806.032c2.13.176 2.217-5.221-.38-4.794l-3.418.071 2.646-10.31z" transform="translate(-47.944 -83.626) scale(.65858)"/>
  <path style="display: inline; opacity: 0.98; fill-opacity: 1; stroke-width: 5.14595; stroke-linejoin: bevel; stroke-miterlimit: 4; stroke-dasharray: none; stroke-opacity: 0.964435; fill: rgb(255, 255, 255);" d="m198.742 112.52-15.283.076-10.764 60.697h52.084c30.826-27.774-12.495-61.26-26.037-60.773zm1.615 22.132 5.17.172c6.107 2.88 9.147 7.357 9.192 13.397l-.05 6.234-16.792-.1z" transform="translate(-1.668 -1.285) scale(.16458)"/>
  <path style="display: inline; opacity: 0.98; fill-opacity: 1; stroke-width: 1.28599; stroke-linejoin: bevel; stroke-miterlimit: 4; stroke-dasharray: none; stroke-opacity: 0.964435; fill: rgb(255, 255, 255);" d="M108.79 153.289c-1.773-.011-3.633-.171-3.853 2.51l.028 2.997 5.624 4.985-1.127-.02c-1.604-1.64-2.818-1.02-4.005-.244-2.295 1.834-.746 4.106 2.362 4.851 1.132.272 2.825.303 4.185.14 2.323-.784 2.78-1.675 3.008-2.578l.153-2.352-4.891-4.762-.02-.692.655.77 2.717-.064c3.287-2.532.538-5.853-1.66-5.522z" transform="translate(-47.944 -83.626) scale(.65858)"/>
</svg>