<?xml version="1.0" encoding="utf-8"?>
<svg viewBox="55 40 205 75" width="205" height="75" xmlns="http://www.w3.org/2000/svg">
  <path d="M 95 115 L 55 115 L 55 40 L 95 40 L 95 45 L 60 45 L 60 110 L 95 110 L 95 115 Z" style="fill:white;" transform="matrix(1, 0, 0, 1, 1.7763568394002505e-15, 8.881784197001252e-16)"/>
  <path d="M110,80L110,115L105,115L105,40L110,40L110,75L140,75L140,40L145,40L145,115L140,115L140,80L110,80Z" style="fill:white;" transform="matrix(1, 0, 0, 1, 1.7763568394002505e-15, 8.881784197001252e-16)"/>
  <path d="M 155 40 H 160 V 115 H 155 V 40 Z" style="fill:white;" transform="matrix(1, 0, 0, 1, 1.7763568394002505e-15, 8.881784197001252e-16)"/>
  <path d="M175,80L175,115L170,115L170,40L210,40L210,80L175,80ZM175,45L175,75L205,75L205,45L175,45Z" style="fill:white;" transform="matrix(1, 0, 0, 1, 1.7763568394002505e-15, 8.881784197001252e-16)"/>
  <path d="M220,115L220,40L260,40L260,115L220,115ZM255,45L225,45L225,75L255,75L255,45ZM255,110L255,80L225,80L225,110L255,110Z" style="fill:white;" transform="matrix(1, 0, 0, 1, 1.7763568394002505e-15, 8.881784197001252e-16)"/>
</svg>