<?xml version="1.0" encoding="utf-8"?>
<svg width="188.31461mm" height="22.284023mm" viewBox="0 0 188.31461 22.284023" version="1.1" id="svg4126" xmlns="http://www.w3.org/2000/svg">
  <path id="rect43-5" style="display:inline;fill:#ffffff;fill-opacity:1;fill-rule:evenodd;stroke:none;stroke-width:0.0205069" d="M 144.065 0.411 L 144.064 0.411 L 147.4 3.243 L 148.102 3.84 C 148.103 3.84 148.103 3.84 148.103 3.84 L 148.936 4.548 L 148.937 4.548 L 149.77 5.256 L 149.771 5.256 L 150.735 6.075 L 151.437 6.672 L 151.438 6.672 L 152.402 7.49 L 154.07 8.906 L 154.069 8.906 L 154.441 9.221 L 154.441 14.699 L 153.904 15.167 L 153.905 15.167 L 153.093 15.875 L 153.094 15.875 L 152.156 16.693 L 150.534 18.109 L 150.533 18.109 L 149.728 18.812 L 148.912 19.525 L 148.911 19.525 L 148.1 20.233 L 148.1 20.233 L 145.75 22.284 L 146.201 20.122 L 146.201 20.122 L 146.349 19.414 L 146.497 18.706 L 146.644 17.998 L 146.917 16.693 L 147.064 15.985 L 147.212 15.277 L 147.214 15.268 L 147.235 15.167 L 147.33 14.714 L 147.755 14.569 L 147.754 14.569 L 150.152 13.751 L 150.153 13.751 L 152.227 13.043 L 152.228 13.043 L 152.272 13.028 L 152.272 10.906 L 150.223 10.322 L 150.221 10.322 L 147.735 9.614 L 147.734 9.614 L 146.336 9.216 L 146.21 8.796 L 146.211 8.796 L 145.787 7.38 L 145.608 6.783 L 145.397 6.075 L 144.973 4.659 L 144.762 3.951 L 144.338 2.535 L 144.093 1.717 L 143.882 1.009 L 143.703 0.411 L 143.683 0.346 L 143.67 0.301 L 143.58 0 Z M 167.345 0.411 L 167.167 1.009 L 166.955 1.717 L 166.71 2.535 L 166.531 3.132 L 166.532 3.132 L 166.287 3.951 L 165.863 5.367 L 165.652 6.075 L 165.44 6.783 L 165.261 7.38 L 165.049 8.088 L 165.05 8.088 L 164.838 8.796 L 164.712 9.216 L 163.315 9.614 L 163.313 9.614 L 160.827 10.322 L 160.826 10.322 L 158.776 10.906 L 158.776 13.028 L 158.82 13.043 L 158.821 13.043 L 160.895 13.751 L 160.896 13.751 L 163.295 14.569 L 163.294 14.569 L 163.719 14.714 L 163.836 15.277 L 164.132 16.693 L 164.279 17.401 L 164.404 17.998 L 164.552 18.706 L 164.723 19.525 L 164.722 19.525 L 164.847 20.122 L 164.847 20.122 L 165.298 22.284 L 162.948 20.233 L 162.948 20.233 L 160.515 18.109 L 159.577 17.291 L 159.578 17.291 L 158.766 16.583 L 158.767 16.583 L 158.081 15.985 L 157.27 15.277 L 156.607 14.699 L 156.607 9.221 L 156.979 8.906 L 157.813 8.198 L 157.812 8.198 L 158.647 7.49 L 158.646 7.49 L 159.61 6.672 L 159.611 6.672 L 160.444 5.964 L 160.445 5.964 L 161.147 5.367 L 161.981 4.659 L 162.945 3.84 C 162.945 3.84 162.945 3.84 162.946 3.84 L 163.779 3.132 L 163.78 3.132 L 164.613 2.424 L 164.614 2.424 L 165.317 1.827 L 165.316 1.827 L 166.984 0.411 L 167.468 0 Z"/>
  <path id="path6442" style="font-weight:600;font-size:40.3016px;line-height:1.25;font-family:Conthrax;-inkscape-font-specification:'Conthrax Semi-Bold';white-space:pre;fill:#ffffff;stroke-width:0.398043" d="m 128.25381,6.79064 c -0.32084,0 -0.48125,0.16042 -0.48125,0.48125 v 10.39507 c 0,0.24063 0.12833,0.35292 0.36896,0.35292 h 1.73251 c 0.24063,0 0.35292,-0.11229 0.35292,-0.35292 v -3.19231 h 5.18149 l 2.5346,3.33669 c 0.0963,0.14437 0.17646,0.20854 0.44917,0.20854 h 2.06939 c 0.28875,0 0.30479,-0.28875 0.20854,-0.40104 L 137.927,14.21798 c 1.68439,-0.30479 2.39023,-1.37959 2.39023,-3.20836 v -0.91438 c 0,-2.16563 -0.99459,-3.3046 -3.44899,-3.3046 z m 1.97314,2.39022 c 0,-0.12833 0.0642,-0.1925 0.20854,-0.1925 h 5.93546 c 1.09084,0 1.49188,0.46521 1.49188,1.42772 v 0.67375 c 0,0.96251 -0.40104,1.42772 -1.49188,1.42772 h -6.144 z M 118.50043,6.79064 c -3.24044,0 -4.4917,1.15501 -4.4917,4.23503 v 2.75918 c 0,3.08002 1.25126,4.23503 4.4917,4.23503 h 7.05838 c 0.24063,0 0.36896,-0.11229 0.36896,-0.35292 V 16.143 c 0,-0.24063 -0.12833,-0.35293 -0.36896,-0.35293 h -7.01025 c -1.66835,0 -2.13356,-0.49729 -2.13356,-2.18168 v -0.2727 h 9.0636 c 0.24063,0 0.35292,-0.1123 0.35292,-0.35293 v -1.2673 c 0,-0.24062 -0.11229,-0.35291 -0.35292,-0.35291 h -9.0636 v -0.16042 c 0,-1.68439 0.46521,-2.18169 2.13356,-2.18169 h 7.01025 c 0.24063,0 0.36896,-0.11229 0.36896,-0.35291 V 7.14356 c 0,-0.24063 -0.12833,-0.35292 -0.36896,-0.35292 z m -18.784886,0 c -0.32084,0 -0.48126,0.16042 -0.48126,0.48125 v 10.26674 c 0,0.32083 0.16042,0.48125 0.48126,0.48125 h 7.507546 c 3.48106,0 4.90878,-1.39563 4.90878,-4.52378 v -2.18168 c 0,-3.12815 -1.42772,-4.52378 -4.90878,-4.52378 z m 1.973136,2.45439 c 0,-0.16042 0.0642,-0.22459 0.20854,-0.22459 h 5.2617 c 1.89293,0 2.51856,0.60959 2.51856,2.50252 v 1.7646 c 0,1.89293 -0.62563,2.50251 -2.51856,2.50251 h -5.2617 c -0.14438,0 -0.20854,-0.0642 -0.20854,-0.20854 z M 84.989214,6.79064 c -0.97855,0 -1.44376,0.36896 -1.44376,1.66834 v 9.20798 c 0,0.24063 0.12833,0.35292 0.36896,0.35292 h 1.68438 c 0.24063,0 0.35292,-0.11229 0.35292,-0.35292 v -8.3738 c 0,-0.1123 0.0321,-0.16042 0.12834,-0.16042 h 0.14437 c 0.0962,0 0.14438,0.0321 0.20855,0.11229 l 5.98358,7.82839 c 0.64167,0.85021 0.8823,0.94646 1.86085,0.94646 h 1.37959 c 0.97855,0 1.44376,-0.36896 1.44376,-1.66834 V 7.14356 c 0,-0.24063 -0.11229,-0.35292 -0.35292,-0.35292 h -1.68439 c -0.24062,0 -0.35292,0.11229 -0.35292,0.35292 v 8.3738 c 0,0.1123 -0.0481,0.16042 -0.12833,0.16042 h -0.14438 c -0.0962,0 -0.16041,-0.0321 -0.20854,-0.11229 l -5.96754,-7.82838 c -0.60959,-0.81814 -0.83417,-0.94647 -1.86085,-0.94647 z m -10.90839,0 c -0.67375,0 -1.155,0.25667 -1.68438,1.21917 l -5.26171,9.64111 c -0.11229,0.20854 -0.0642,0.36896 0.20855,0.36896 h 2.08543 c 0.1925,0 0.28875,-0.0481 0.36896,-0.20854 l 1.10688,-2.06939 h 7.53964 l 1.13896,2.06939 c 0.0802,0.16042 0.16042,0.20854 0.36896,0.20854 h 2.03731 c 0.25667,0 0.30479,-0.16042 0.1925,-0.36896 l -5.30983,-9.64111 c -0.52938,-0.9625 -1.02667,-1.21917 -1.8448,-1.21917 z m 0.35292,2.39022 c 0.0481,-0.0802 0.0963,-0.11229 0.17646,-0.11229 h 0.0962 c 0.0802,0 0.12834,0.0321 0.17646,0.11229 l 2.55064,4.70024 h -5.51837 z M 50.178614,6.79064 c -1.13897,0 -1.42772,0.44917 -1.42772,1.66834 v 9.20798 c 0,0.24063 0.12833,0.35292 0.36896,0.35292 h 1.63626 c 0.24063,0 0.35292,-0.11229 0.35292,-0.35292 v -8.3738 c 0,-0.1123 0.0321,-0.16042 0.12834,-0.16042 h 0.14437 c 0.11229,0 0.17646,0.0321 0.20854,0.12833 l 3.24044,7.18672 c 0.52938,1.155 0.97855,1.57209 2.05335,1.57209 h 0.77 c 1.0748,0 1.52397,-0.41709 2.05335,-1.57209 l 3.24044,-7.18672 c 0.0321,-0.0962 0.0962,-0.12833 0.20854,-0.12833 h 0.14438 c 0.0962,0 0.12833,0.0481 0.12833,0.16042 v 8.3738 c 0,0.24063 0.1123,0.35292 0.35292,0.35292 h 1.63626 c 0.24063,0 0.36896,-0.11229 0.36896,-0.35292 V 8.45898 c 0,-1.21917 -0.28875,-1.66834 -1.41167,-1.66834 h -1.71647 c -0.94647,0 -1.2673,0.20854 -1.70043,1.21917 l -3.33669,7.70006 c -0.0481,0.11229 -0.11229,0.14437 -0.22458,0.14437 h -0.1925 c -0.1123,0 -0.17647,-0.0321 -0.22459,-0.14437 l -3.33669,-7.70006 c -0.43313,-1.01063 -0.75396,-1.21917 -1.71647,-1.21917 z m -19.153853,0 c -1.138966,0 -1.427717,0.44917 -1.427717,1.66834 v 9.20798 c 0,0.24063 0.128334,0.35292 0.36896,0.35292 h 1.636261 c 0.240627,0 0.352919,-0.11229 0.352919,-0.35292 v -8.3738 c 0,-0.1123 0.03208,-0.16042 0.128335,-0.16042 h 0.144375 c 0.112293,0 0.17646,0.0321 0.208544,0.12833 l 3.240438,7.18672 c 0.529378,1.155 0.978548,1.57209 2.053347,1.57209 h 0.770005 c 1.074799,0 1.523969,-0.41709 2.053347,-1.57209 l 3.240439,-7.18672 c 0.0321,-0.0962 0.0962,-0.12833 0.20854,-0.12833 h 0.14438 c 0.0962,0 0.12833,0.0481 0.12833,0.16042 v 8.3738 c 0,0.24063 0.1123,0.35292 0.35292,0.35292 h 1.63626 c 0.24063,0 0.36896,-0.11229 0.36896,-0.35292 V 8.45898 c 0,-1.21917 -0.28875,-1.66834 -1.41167,-1.66834 h -1.71647 c -0.94647,0 -1.2673,0.20854 -1.70043,1.21917 l -3.336689,7.70006 c -0.04813,0.11229 -0.112293,0.14437 -0.224585,0.14437 h -0.192501 c -0.112293,0 -0.17646,-0.0321 -0.224585,-0.14437 L 34.489785,8.00981 C 34.056657,6.99918 33.735821,6.79064 32.773315,6.79064 Z m -12.865481,0 c -3.240441,0 -4.491698,1.15501 -4.491698,4.23503 v 2.75918 c 0,3.08002 1.251257,4.23503 4.491698,4.23503 h 4.956906 c 3.256482,0 4.491697,-1.15501 4.491697,-4.23503 v -2.75918 c 0,-3.08002 -1.235215,-4.23503 -4.491697,-4.23503 z m -2.037308,4.41149 c 0,-1.68439 0.481254,-2.18169 2.133554,-2.18169 h 4.764409 c 1.652305,0 2.133555,0.4973 2.133555,2.18169 v 2.40626 c 0,1.68439 -0.48125,2.18168 -2.133555,2.18168 h -4.764409 c -1.6523,0 -2.133554,-0.49729 -2.133554,-2.18168 z M 4.491698,6.79064 C 1.251256,6.79064 0,7.94565 0,11.02567 v 2.75918 c 0,3.08002 1.251256,4.23503 4.491698,4.23503 h 7.234839 c 0.240625,0 0.352921,-0.11229 0.352921,-0.35292 v -1.57209 c 0,-0.24063 -0.112296,-0.35292 -0.352921,-0.35292 H 4.587948 c -1.652304,0 -2.133558,-0.49729 -2.133558,-2.19772 v -2.27794 c 0,-1.70042 0.481254,-2.18168 2.133558,-2.18168 h 7.138589 c 0.240625,0 0.352921,-0.12833 0.352921,-0.36896 V 7.14356 c 0,-0.24063 -0.112296,-0.35292 -0.352921,-0.35292 z"/>
  <path id="path6405" style="font-weight:600;font-size:40.3016px;line-height:1.25;font-family:Conthrax;-inkscape-font-specification:'Conthrax Semi-Bold';white-space:pre;fill:#ffffff;stroke-width:0.398043" d="m 180.7108,6.79064 c -3.24044,0 -4.4917,1.15501 -4.4917,4.23503 v 2.75918 c 0,3.08002 1.25126,4.23503 4.4917,4.23503 h 4.6842 c 2.11751,0 2.9196,-1.01063 2.9196,-2.71106 v -1.17105 c 0,-1.71647 -0.73792,-2.71106 -2.80731,-2.71106 h -6.91401 v -0.30479 c 0,-1.70043 0.46522,-2.19773 2.11752,-2.19773 h 6.81775 c 0.24063,0 0.35292,-0.11229 0.35292,-0.35291 V 7.14356 c 0,-0.24063 -0.11229,-0.35292 -0.35292,-0.35292 z m 4.31523,6.40067 c 0.67376,0 0.93043,0.28875 0.93043,0.94646 v 0.85022 c 0,0.65771 -0.27271,0.9625 -0.94647,0.9625 h -4.29919 c -1.6523,0 -2.11752,-0.49729 -2.11752,-2.18168 v -0.5775 z M 170.60449,6.79064 c -0.24062,0 -0.36896,0.11229 -0.36896,0.35292 v 1.42772 c 0,0.24062 0.12834,0.35291 0.36896,0.35291 h 0.91438 c 0.24063,0 0.33688,0.1123 0.33688,0.33688 v 8.40589 c 0,0.24063 0.11229,0.35292 0.35292,0.35292 h 1.6523 c 0.24063,0 0.35292,-0.11229 0.35292,-0.35292 V 8.15419 c 0,-0.93042 -0.41709,-1.36355 -1.47584,-1.36355 z"/>
</svg>