<?xml version="1.0" encoding="utf-8"?>
<svg viewBox="61.9 203 720.2 148.0999" width="720.2" height="148.0999" xmlns="http://www.w3.org/2000/svg">
  <defs>
    <style type="text/css">
	.st0{fill-rule:evenodd;clip-rule:evenodd;fill:#1D1D1B;}
</style>
  </defs>
  <path class="st0" d="M727.3,203c15.8,0,29.4,6,39.2,17.3c9.6,10.9,15.3,27,15.6,47.5c-0.3,15.6-4.9,31.7-13.8,44.1 c-9.2,12.1-22.8,20.5-40.6,20.5c-14.8,0-28.9-6.4-38.6-17.6c-10.1-11.2-16.1-27.4-16.1-47c0-18.1,6-34.6,15.8-46.1 S712.3,203,727.3,203z M725,218.8c-0.6,0-1.2,0.1-1.7,0.3c-7.5,0.3-14.4,5.2-19.3,12.7c-5.2,7.8-8.3,18.4-8.3,30.8 c0,1.8,0.1,3.7,0.3,5.5c1.4,20.7,10.4,36.9,21.6,44.4c2.3,1.2,4.6,2.2,6.9,3.2c2.2,0.7,4.6,1.1,6.9,1.1c0.6,0,1.2-0.3,1.7-0.3 c8.6-0.6,15.5-6.3,20.5-14.7s7.5-19,7.5-29.1c0-1.5-0.1-3.1-0.3-4.6c-1.4-18.7-9.8-36-21.3-44.4c-2.2-1.4-4.5-2.5-6.9-3.5 C730.1,219.3,727.6,218.8,725,218.8L725,218.8z" style="fill: rgb(255, 255, 255);"/>
  <path class="st0" d="M105.3,226.8c-1.4,1.1-2.3,3.2-2.3,7.2v73.2c-0.1,2.4,0.5,4.8,1.7,6.9c0.9,1.5,2.6,2.4,4.3,2.3h16.2 c7.2,0,13.8-6.6,19-15.3c4.9-8.9,8.4-20.2,8.4-29.4c-0.1-11.1-2.8-21.9-8.1-31.7c-5.2-8.6-12.4-14.4-21-14.4h-12.1 C108.8,225.7,106.8,226,105.3,226.8L105.3,226.8z M74.8,210.7h52.1c18.4,0,30.5,8.9,38,20.8c7.2,11.5,10.1,25.9,10.1,37.7 c0,20.2-5.2,36.6-13.8,47.8c-8.5,11-21.7,17.4-35.7,17.3H96.1c-5.5,0-11,1-16.1,2.9c-1,0.2-2,0.6-2.9,1.1c-4.6,2.3-8.6,5.8-10.7,11 l-0.3,0.3l0,0c0,0.2-0.1,0.3-0.3,0.3c0,0,0,0,0,0c0,0.3,0,0.3-0.3,0.3c-0.5,0.6-1.2,0.9-2,0.9v-0.3c-0.5,0-0.9-0.2-1.2-0.6 c-0.4-0.4-0.5-0.9-0.3-1.4l0,0c0.7-3.8,1.8-7.6,3.2-11.2c1.1-2.6,2.4-5.1,4-7.5c2-3.5,4.6-5.5,6.6-7.5c3.8-3.2,6.6-5.8,6.6-14.7 v-79.2c0-1.2,0-2.3-0.3-3.5c0-0.6-0.3-1.4-0.3-2.3c-1.2-3.7-3.5-6.3-7.2-6.9h-0.3c-0.4,0-0.8-0.1-1.2-0.3c-0.3-0.3-0.3-0.6-0.6-0.9 c-0.3-0.6-0.6-1.1-0.3-1.7l0,0v-0.6l0.3-0.3C73.1,211.3,73.9,210.7,74.8,210.7z" style="fill: rgb(255, 255, 255);"/>
  <path class="st0" d="M228.1,236.6L228.1,236.6c0.4,0.7,0.9,1.4,1.4,2l1.7,1.7c3.1,3.1,7,5.3,11.2,6.6c2.9,0.9,5.9,1.5,8.9,1.7 c3.7,0.2,7.5,0.1,11.2-0.3h1.2c0.8,0.3,1.4,1,1.7,1.7v0.6c0,0.5-0.2,1-0.6,1.4c-0.2,0.6-0.8,0.9-1.4,0.9c-0.2,0.2-0.4,0.3-0.6,0.3 c-4-0.3-4.6,2.9-4.6,4.9v34c0,2.9,0.3,4.6,1.2,5.5c0.9,0.9,2.3,1.1,5.2,1.4h0.3c1.4,0,3.2,0.3,3.2,2.6c0.1,1-0.5,1.9-1.4,2.3 c-0.5,0.2-1.1,0.3-1.7,0.3h-32.3c-1.3-0.2-2.2-1.3-2-2.6c0-2.6,1.7-2.6,3.2-2.6h0.3c2.3,0,3.8-0.3,4.9-1.1s1.7-2.3,1.7-4.9v-34.8 c0-4-1.4-4.6-2.6-5.2c-0.3,0-0.3-0.3-0.6-0.3c-2.9-1.6-5.5-3.7-7.8-6c-2-2.3-3.7-4.6-5.8-7.2c-0.9-1.1-0.9-2.3-0.3-2.9 c0-0.4,0.2-0.9,0.6-1.1c0.3,0,0.9-0.3,1.1-0.3l0,0C226.5,235.3,227.4,235.8,228.1,236.6L228.1,236.6z" style="fill: rgb(255, 255, 255);"/>
  <path class="st0" d="M497.1,268.9L497.1,268.9c0,0.3-0.3,0.3-0.6,0.6c0.9,0.3,1.8,0.8,2.6,1.4l2.6,1.7c3.4,3.2,5.2,7.7,4.9,12.4l0,0 c0,1.3-0.2,2.5-0.6,3.7c-0.6,1.4-0.9,2.6-1.7,3.5c-3.2,5.8-10.4,9.5-20.5,9.5h-38.3c-1.2-0.1-2.1-1.1-2-2.3c0-0.3,0.3-0.6,0.3-0.9 s0.3-0.6,0.3-0.9c0.3-0.3,0.6-0.3,0.9-0.6c0.6-0.6,2-0.6,2.6-0.6c3.2,0,4.9-0.3,5.8-0.9c0.3-0.3,0.6-1.7,0.6-4v-35.5 c0-4-1.4-4.6-2.6-5.5c-0.3,0-0.3,0-0.6-0.3l-1.7-0.9c-1.4-0.7-2.7-1.4-4-2.3c-0.7-0.4-1.3-1-1.7-1.7c-0.3-0.3-0.3-0.6-0.6-0.9 c0-0.6,0.3-0.9,0.6-1.4c0.2-0.2,0.3-0.4,0.3-0.6h0.9c0-0.2,0.1-0.3,0.3-0.3c0,0,0,0,0,0c0.9,0.1,1.7,0.3,2.6,0.6 c1.6,0.9,3.4,1.5,5.2,2c2.7,0.7,5.5,1.1,8.4,1.2l0,0h26.5c1.2,0,2.3,0,3.5,0.3c1.2,0.3,2,0.6,3.2,0.9c5.2,2,8.4,6.3,8.6,11.2v0.3 l0,0 M470.3,277.5v10.4c-0.1,1.3,0.1,2.6,0.6,3.8c0.3,0.9,1.1,1.4,2.9,1.4h7.5c2,0,3.8-1,4.9-2.6c1.2-1.6,1.8-3.5,1.7-5.5v-0.3 c0-3.8-1.4-7.8-4.3-9.2l-1.7-0.9c-0.7-0.2-1.5-0.3-2.3-0.3h-5.2c-1-0.1-2,0.1-2.9,0.6C470.7,275.6,470.3,276.6,470.3,277.5z M470.6,253.3c0,0.3-0.3,0.6-0.3,1.1v8.9c0,0.9,0,1.7,0.3,2c0.6,0.4,1.3,0.7,2,0.6h8.1c1.2-0.1,2.2-0.8,2.9-1.7 c0.6-1,0.9-2.2,0.9-3.5v-1.1c-0.2-2.3-1.5-4.4-3.4-5.7c-0.6-0.3-0.9-0.3-1.4-0.6L470.6,253.3L470.6,253.3z" style="fill: rgb(255, 255, 255);"/>
  <path class="st0" d="M367.2,246.4v0.3l2.6,1.7c0.9,0.6,1.8,1.2,2.6,2c4.2,3.3,8,7.2,11.2,11.5c0.8,1,1.6,2.1,2.3,3.2 c0.6,1.3,1.2,2.6,2,3.7c3.3,6.3,5,13.3,5.2,20.5v4c-0.2,1.3-0.3,2.7-0.3,4c-0.9,7.1-2.9,14-6,20.5c-3.3,7-7.9,13.4-13.5,18.7 c-4.9,4.9-10.7,8.6-15.5,11.8c-0.6,0.5-1.3,0.8-2,0.9h-0.9c-0.3,0-0.6-0.3-0.9-0.6c0-0.2-0.1-0.4-0.3-0.6v-0.9 c0.3,0,0.3-0.3,0.3-0.6c0.3-0.5,0.7-1,1.1-1.4c4.4-4.1,8-8.8,10.9-14c3-4.8,5.3-10.1,6.9-15.6c1.2-4.2,2-8.4,2.6-12.7 c0.6-4.3,0.9-8.7,0.9-13v-1.4c0.1-0.5,0-1-0.3-1.4c0-2.9-0.2-5.8-0.6-8.6c-0.6-2.9-0.6-2.9-2.9-2.9h-16.4c-3.8,0-4.9,0-5.2,2.3v5.2 c0.2,1.6,0.3,3.3,0.3,4.9v1.5c0,5.8,0,8.4,4.6,8.4c0.3,0,0.3,0,0.6,0.3c0.6,0,0.9,0.3,1.4,0.6c0.9,0.7,1.4,1.8,1.4,2.9 c0,1.1-0.5,2-1.4,2.6c-0.6,0.2-1.3,0.3-2,0.3h-30.5c-1.7,0-3.5,0-3.5-2.9c-0.1-1,0.3-2,1.1-2.6c0.7-0.5,1.5-0.7,2.3-0.6 c2.1,0,4.1-0.6,5.8-1.7c1.4-0.9,2.3-2.9,2.3-5.8v-5.2c0-1.4,0.3-2.6,0.3-3.7c0.1-1.2,0.2-2.3,0.6-3.5c1.2-6,3.8-11.6,7.5-16.4 c0.6-0.9,1.4-2,2-2.9c0.6-0.9,1.4-1.7,2.3-2.3c3.8-4.3,8.3-8,13.2-10.9c0.6-0.3,0.9-0.6,1.5-0.9c0.5-0.2,1.1-0.3,1.7-0.3 c0.8-0.2,1.6-0.1,2.3,0.3C365.6,245.5,366.4,246,367.2,246.4L367.2,246.4z M371.8,265.4l-0.3-0.3c-0.1-0.4-0.3-0.8-0.6-1.1 c-0.2-0.5-0.5-1-0.9-1.4c-1.2-2.3-2.8-4.3-4.6-6c-0.9-0.6-1.4-1.1-2-1.4c-0.3-0.3-0.3-0.3-0.6-0.3s-0.3,0-0.6,0.3 c-0.6,0.3-1.2,0.9-2,1.4c-1.4,1.4-2.7,2.8-4,4.3c-1.2,1.7-2,3.2-2.9,4.6c-0.3,0.6-0.3,1.1-0.6,1.7c0.3,0,0.6-0.3,0.9-0.3h17.8 c0.3,0.2,0.6,0.3,0.9,0.3C372.3,266.5,372.1,266,371.8,265.4L371.8,265.4z" style="fill: rgb(255, 255, 255);"/>
  <path class="st0" d="M593.6,290.2h20.2c0.5-0.3,1-0.7,1.4-1.1l6.9-6.3c0.6-0.7,1.4-1.2,2.3-1.4h0.6c0.3,0,0.6,0.1,0.9,0.3l0,0 c0.6,0.5,0.9,1.3,0.6,2v0.6c-0.2,0-0.3,0.1-0.3,0.3c0,0,0,0,0,0v0.3L619,302c-0.2,0.2-0.3,0.4-0.3,0.6c-0.2,0.5-0.5,1-0.9,1.4 c-0.5,0.6-1.3,0.8-2,0.6c-0.6-0.3-1-0.7-1.4-1.1l-2.3-2c-0.9-0.9-0.9-1.2-1.7-1.2h-41.8c-1.4,0-2.6-0.3-2.6-2.3 c0-2.6,2.9-2.6,4.6-2.9l0,0c1.5,0.1,3-0.2,4.3-0.9c0.6-0.9,0.9-2.3,0.9-4.9v-32.9c0-2.6-0.6-4-1.4-4.6c-1.5-0.9-3.2-1.3-4.9-1.1 h-0.3c-1.4,0-3.2,0-3.2-2.9c0-2,0.9-2.6,2-2.9h32c0.7,0,1.4,0.1,2,0.3c0.8,0.6,1.2,1.6,1.2,2.6c0,1.3-1,2.5-2.3,2.6 c-0.7,0.2-1.5,0.3-2.3,0.3c-2.6,0-4,0.3-4.3,0.9c-0.6,0.6-0.6,2.3-0.6,4.9L593.6,290.2L593.6,290.2z" style="fill: rgb(255, 255, 255);"/>
</svg>