<?xml version="1.0" encoding="utf-8"?>
<svg width="100%" height="100%" viewBox="0 0 188 60" version="1.1" xmlns="http://www.w3.org/2000/svg" style="fill-rule:evenodd;clip-rule:evenodd;stroke-linejoin:round;stroke-miterlimit:2;">
  <path d="M 16 60 L 0 60 L 0 4 L 16 4 L 16 12 L 8 12 L 8 52 L 16 52 L 16 60 Z M 16 12 L 24 12 L 24 52 L 16 52 L 16 12 Z M 40 12 L 32 12 L 32 4 L 56 4 L 56 12 L 48 12 L 48 52 L 56 52 L 56 60 L 32 60 L 32 52 L 40 52 L 40 12 Z M 64 60 L 64 4 L 88 4 L 88 12 L 72 12 L 72 52 L 88 52 L 88 60 L 64 60 Z M 120 60 L 96 60 L 96 4 L 120 4 L 120 12 L 104 12 L 104 28 L 112 28 L 112 36 L 104 36 L 104 52 L 120 52 L 120 60 Z M 128 56 L 128 16 L 132 16 L 132 12 L 136 12 L 136 16 L 172 16 L 172 52 L 176 52 L 176 56 L 172 56 L 172 60 L 132 60 L 132 56 L 168 56 L 168 20 L 132 20 L 132 56 L 128 56 Z M 136 12 L 136 8 L 140 8 L 140 12 L 136 12 Z M 140 8 L 140 4 L 144 4 L 144 8 L 140 8 Z M 144 4 L 144 0 L 184 0 L 184 4 L 188 4 L 188 44 L 184 44 L 184 8 L 180 8 L 180 4 L 144 4 Z M 184 44 L 184 48 L 180 48 L 180 44 L 184 44 Z M 180 48 L 180 52 L 176 52 L 176 48 L 180 48 Z M 172 16 L 172 12 L 176 12 L 176 16 L 172 16 Z M 176 12 L 176 8 L 180 8 L 180 12 L 176 12 Z M 180 20 L 180 24 L 176 24 L 176 20 L 180 20 Z M 180 36 L 180 40 L 176 40 L 176 36 L 180 36 Z M 164 36 L 164 52 L 160 52 L 160 36 L 164 36 Z M 152 36 L 152 40 L 148 40 L 148 36 L 152 36 Z M 140 24 L 140 40 L 136 40 L 136 24 L 140 24 Z M 160 8 L 160 12 L 156 12 L 156 8 L 160 8 Z" style="fill:white;"/>
</svg>