<?xml version="1.0" encoding="UTF-8" standalone="no"?>
<svg
   width="40.431702"
   height="20"
   viewBox="0 0 3.1173812 1.542048"
   version="1.1"
   id="svg6142"
   xmlns="http://www.w3.org/2000/svg"
   xmlns:svg="http://www.w3.org/2000/svg">
  <defs
     id="defs6146" />
  <path
     fill="#ffffff"
     d="m 2.7249529,0 h 0.3355822 l 0.018017,0.13451833 -0.1067789,0.0651803 0.141448,0.13033984 0.00416,0.0943056 H 2.6348258 v -0.092899 H 2.899684 L 2.7776391,0.18997637 2.9579139,0.08181147 H 2.6736527 l -0.00416,-0.0374409 z M 1.4727099,0.18583926 H 1.647441 V 0.81679084 L 1.4727099,0.95825952 Z m -1.28273353,0 h 0.1788889 v 0.63374413 l -0.1788889,0.141448 z M 0,0.00138593 c 0.01524527,0.0166519 0.01524527,0.03466904 0.01524527,0.05545805 V 1.3867406 c 0,0.00829 0.0013859,0.049914 -0.00692967,0.081811 L 0.55606978,1.0483659 C 0.54359637,1.0358925 0.53389484,1.0247843 0.53248822,0.99983754 V 0.06379433 l -0.0790396,-0.0624084 z m 2.1674558,0 0.090168,0.33560286 0.1039864,-0.33560286 h 0.226052 C 2.5682389,0.01942376 2.5682389,0.03189717 2.5682389,0.0624084 v 1.3271041 c 0,0.067952 0,0.1150946 0.016652,0.1525355 -0.06516,-0.0513 -0.1303398,-0.1039864 -0.1969267,-0.1566933 0.013859,-0.00693 0.018017,-0.018017 0.018017,-0.042985 V 0.58244389 L 2.2493087,1.1537796 2.0884369,0.38828903 V 1.1579374 C 2.0329582,1.1135462 1.9775001,1.0678104 1.9220214,1.0233984 1.9372874,1.010925 1.9372874,0.990136 1.9372874,0.96655444 V 0.07210993 c 0,-0.04714243 -0.011108,-0.07070331 -0.026374,-0.07070331 H 2.1674558 Z M 0.8112471,0.18583926 h 0.1913623 v 0.7821218 L 0.8112471,0.82096932 Z M 0.70031033,0.00138593 0.62265666,0.05684398 V 0.97071224 L 0.90000893,1.1939717 1.1732034,0.9735048 V 0.05684398 L 1.1038653,0.00138593 Z m 0.65314717,0 -0.0513,0.05268618 v 0.919412 L 1.5684428,1.1814983 1.8346869,0.96794037 V 0.0624084 l -0.06516,-0.06102247 z"
     id="path6138"
     style="clip-rule:evenodd;fill-rule:evenodd;stroke-width:0.0206856" />
</svg>
