<?xml version="1.0" encoding="utf-8"?>
<svg style="shape-rendering:geometricPrecision;text-rendering:geometricPrecision;image-rendering:optimizeQuality;fill-rule:evenodd;clip-rule:evenodd" viewBox="0 0 373 161" xmlns="http://www.w3.org/2000/svg">
  <path style="opacity:1" fill="#fcfcfc" d="M 352 0.12 C 359.187 -0.205 366.187 0.129 373 1.12 C 370.411 2.398 368.047 4.086 366 6.12 C 361.817 7.707 358.15 10.04 355 13.12 C 353.044 19.032 352.377 25.365 353 32.12 C 359.854 31.796 366.521 32.13 373 33.12 C 366.421 37.334 359.92 41.668 353.5 46.12 C 353.333 74.125 352.833 102.127 352 130.12 C 346.278 134.522 340.264 138.532 334 142.12 C 332.005 99.466 331.339 56.466 332 13.12 C 338.327 8.286 345.013 3.94 352 0.12 Z"/>
  <path style="opacity:1" fill="#fdfdfd" d="M 323 18.12 C 324 61.446 324.333 104.784 324 148.12 L 304 161.12 C 303 117.795 302.666 74.456 303 31.12 C 309.63 26.8 316.297 22.467 323 18.12 Z"/>
  <path style="opacity:1" fill="#fefefe" d="M 295 32.12 L 295 129.12 L 245 129.12 L 245 32.12 L 295 32.12 Z M 267 107.12 L 273 107.12 L 273 54.12 L 267 54.12 L 267 107.12 Z"/>
  <path style="opacity:1" fill="#fdfdfd" d="M 182 124.12 L 186 122.12 C 186.999 92.131 187.333 62.124 187 32.12 L 208 32.12 L 208 125.12 C 209.291 125.357 210.291 125.024 211 124.12 C 212.105 123.02 213.438 122.353 215 122.12 C 215.999 92.131 216.333 62.124 216 32.12 L 237 32.12 C 237.333 64.794 237 97.46 236 130.12 C 220.006 140.464 204.006 150.797 188 161.12 C 187.315 155.456 186.649 149.789 186 144.12 C 185.393 144.244 185.06 144.577 185 145.12 L 159 161.12 L 157 46.12 C 150.009 42.306 143.323 37.96 137 33.12 C 150.976 32.121 164.992 31.787 179 32.12 L 179 125.12 C 180.291 125.357 181.291 125.024 182 124.12 Z"/>
  <path style="opacity:1" fill="#fdfdfd" d="M 128 68.12 C 121.701 64.966 115.68 61.286 110 57.12 C 109.071 55.931 108.738 54.598 109 53.12 L 103 53.12 C 102 71.102 101.666 89.114 102 107.12 L 109 107.12 L 109 104.12 C 115.125 99.006 121.839 94.641 129 91.12 C 129.999 103.427 130.333 115.778 130 128.12 L 81 128.12 L 81 32.12 L 130 32.12 C 130.646 44.5 129.979 56.5 128 68.12 Z M 75 31.12 L 75 57.12 L 44 57.12 C 43.554 59.63 44.22 61.63 46 63.12 C 46.838 63.462 47.172 64.128 47 65.12 C 55.94 67.092 65.273 67.759 75 67.12 L 75 92.12 L 43 92.12 C 42.763 93.411 43.096 94.411 44 95.12 C 43.927 96.647 44.594 97.647 46 98.12 C 47.406 98.593 48.073 99.593 48 101.12 C 56.818 102.113 65.818 102.447 75 102.12 L 75 128.12 L 38 128.12 C 25.594 108.287 12.926 88.618 0 69.12 C 6.587 67.159 13.587 66.492 21 67.12 C 21.343 65.137 20.676 63.803 19 63.12 L 18 63.12 C 13.06 54.218 7.721 45.542 2 37.12 C 0.87 35.305 0.204 33.305 0 31.12 L 75 31.12 Z"/>
</svg>