<?xml version="1.0" encoding="utf-8"?>
<svg version="1.0" width="507.86414" height="94.512497" viewBox="0 0 507.86414 94.512497" preserveAspectRatio="xMidYMid" id="svg72" xmlns="http://www.w3.org/2000/svg">
  <path d="M 36.123 93.262 C 20.223 89.162 7.323 77.162 2.323 61.812 C -1.277 50.712 -0.577 37.862 4.223 27.512 C 5.223 25.412 8.023 20.562 8.573 20.012 C 8.723 19.862 9.473 18.912 10.273 17.812 C 12.323 15.062 15.623 11.862 18.923 9.412 C 21.873 7.262 28.823 3.462 31.073 2.812 C 34.773 1.712 36.123 1.412 39.323 0.712 C 45.423 -0.538 52.873 -0.088 60.073 1.962 C 61.023 2.212 62.373 2.612 63.073 2.812 C 65.323 3.462 72.273 7.262 75.323 9.512 C 83.723 15.662 90.373 25.512 93.123 35.762 C 94.573 41.212 94.973 51.862 93.873 56.762 C 92.623 62.512 92.273 63.612 90.723 67.362 C 85.973 78.662 75.473 88.312 63.873 92.112 C 58.173 93.962 54.473 94.512 47.573 94.512 C 42.123 94.462 39.923 94.212 36.123 93.262 Z M 58.573 72.262 C 59.973 71.562 61.073 70.762 61.073 70.462 C 61.073 70.162 59.123 66.862 56.773 63.162 L 52.523 56.412 L 54.273 54.762 C 55.223 53.912 56.123 52.662 56.273 51.962 C 56.373 51.312 56.623 50.162 56.823 49.412 L 57.073 48.012 L 65.873 48.012 C 73.223 48.012 74.673 47.912 74.873 47.262 C 75.373 45.962 74.173 39.212 72.823 35.912 C 72.123 34.162 70.573 31.412 69.323 29.762 C 67.173 26.862 62.323 22.512 61.323 22.512 C 61.073 22.512 58.823 26.262 56.373 30.812 C 52.823 37.412 51.773 39.012 51.123 38.712 C 48.373 37.562 46.673 37.462 44.773 38.262 C 42.423 39.212 43.123 39.962 37.223 29.862 C 34.873 25.812 32.723 22.362 32.523 22.262 C 31.823 21.812 26.323 26.362 24.223 29.062 C 20.623 33.712 18.123 40.762 18.073 46.162 L 18.073 48.012 L 37.573 48.012 L 37.823 49.412 C 38.023 50.162 38.273 51.312 38.373 51.962 C 38.523 52.662 39.423 53.962 40.373 54.812 L 42.073 56.462 L 37.573 63.612 C 35.123 67.512 33.073 70.962 33.073 71.312 C 33.073 72.062 36.423 73.412 40.323 74.262 C 46.523 75.612 53.423 74.862 58.573 72.262 Z M 44.323 72.212 C 40.123 71.162 38.073 70.412 38.323 70.012 C 38.523 69.712 42.423 69.512 47.723 69.512 C 55.873 69.562 56.723 69.612 55.823 70.312 C 55.273 70.712 54.073 71.262 53.073 71.512 C 50.773 72.112 45.573 72.512 44.323 72.212 Z M 44.173 51.262 C 41.423 48.912 41.973 44.762 45.223 43.212 C 48.673 41.562 52.073 43.812 52.073 47.712 C 52.073 49.562 51.823 50.112 50.523 51.212 C 48.523 52.912 46.123 52.912 44.173 51.262 Z M 20.923 45.662 C 19.823 44.562 21.273 38.512 23.723 33.862 C 25.423 30.612 30.223 25.512 31.523 25.512 C 31.973 25.512 32.873 26.362 33.423 27.362 L 34.473 29.212 L 31.773 31.912 C 28.873 34.812 26.223 39.562 25.723 42.762 C 25.573 43.862 25.223 45.062 24.923 45.412 C 24.423 46.062 21.473 46.262 20.923 45.662 Z M 69.873 45.812 C 69.023 46.162 68.973 46.012 68.073 42.262 C 67.223 38.662 64.873 34.512 62.073 31.762 C 59.923 29.612 59.723 29.262 60.173 28.212 C 60.473 27.562 61.023 27.012 61.323 27.012 C 61.823 27.012 65.673 30.862 69.173 34.862 C 70.673 36.562 72.273 45.512 71.123 45.512 C 70.873 45.512 70.323 45.662 69.873 45.812 Z" id="path6" style="fill: rgb(255, 255, 255);"/>
  <path d="M 105.923 72.162 C 105.723 72.012 105.573 71.212 105.573 70.362 C 105.573 68.312 113.423 32.612 114.273 30.712 C 114.773 29.612 115.423 29.062 116.573 28.812 C 117.473 28.662 127.473 28.512 138.873 28.512 C 156.973 28.512 159.623 28.612 160.273 29.312 C 160.723 29.712 161.073 30.262 161.073 30.512 C 161.073 31.212 156.573 51.612 155.973 53.512 C 155.723 54.462 155.123 55.562 154.673 55.912 C 154.073 56.362 150.023 56.512 138.273 56.512 L 122.623 56.512 L 122.123 58.362 C 121.823 59.362 121.723 60.362 121.873 60.612 C 122.023 60.812 129.223 61.012 137.873 61.012 L 153.573 61.012 L 153.573 63.412 C 153.573 66.562 152.323 71.112 151.223 71.862 C 150.573 72.362 145.223 72.512 128.323 72.512 C 116.173 72.512 106.073 72.362 105.923 72.162 L 105.923 72.162 Z M 143.473 44.412 C 143.723 44.062 144.123 43.012 144.323 42.112 L 144.673 40.512 L 135.223 40.612 L 125.823 40.762 L 125.673 42.912 L 125.523 45.012 L 134.223 45.012 C 140.623 45.012 143.073 44.862 143.473 44.412 L 143.473 44.412 Z" id="path56" fill="#ffffff"/>
  <path d="M 159.923 72.162 C 159.723 72.012 159.573 71.312 159.573 70.662 C 159.573 69.012 167.873 31.262 168.523 30.112 C 168.823 29.562 169.773 29.012 170.673 28.812 C 171.573 28.612 178.723 28.512 186.523 28.512 C 194.323 28.562 200.873 28.412 201.073 28.162 C 201.273 27.962 201.723 26.662 202.023 25.262 C 202.373 23.912 202.873 22.512 203.173 22.162 C 203.523 21.712 205.523 21.512 209.873 21.512 C 215.973 21.512 216.073 21.512 216.373 22.712 C 216.523 23.412 215.123 30.962 213.073 40.562 C 207.723 65.512 206.623 70.112 205.823 71.362 L 205.073 72.512 L 182.623 72.512 C 170.323 72.512 160.073 72.362 159.923 72.162 L 159.923 72.162 Z M 196.423 51.262 C 197.573 46.062 198.523 41.462 198.573 41.162 C 198.573 40.662 196.423 40.512 189.323 40.512 C 184.223 40.512 180.073 40.612 180.073 40.762 C 180.073 41.412 176.073 59.162 175.823 59.562 C 175.023 60.812 176.473 61.012 185.223 60.912 L 194.273 60.762 L 196.423 51.262 Z" id="path58" fill="#ffffff"/>
  <path d="M 215.423 72.162 C 215.223 72.012 215.073 71.412 215.073 70.912 C 215.073 70.012 221.773 38.512 223.173 32.962 C 224.123 29.012 224.373 28.862 230.223 28.612 C 236.273 28.362 237.573 28.762 237.573 31.012 C 237.573 31.812 236.223 38.562 234.573 45.912 C 232.923 53.312 231.573 59.762 231.573 60.212 C 231.573 60.912 232.573 61.012 240.573 61.012 C 249.473 61.012 249.623 61.012 250.073 59.912 C 250.323 59.262 251.773 52.812 253.373 45.512 C 254.923 38.212 256.473 31.562 256.823 30.712 C 257.573 28.912 259.023 28.512 264.973 28.512 C 269.323 28.512 270.573 29.062 270.573 30.862 C 270.573 31.562 269.173 38.462 267.473 46.112 C 264.773 58.412 264.473 60.162 265.073 61.262 C 265.623 62.312 265.623 63.112 264.823 66.612 C 264.273 68.862 263.473 71.112 262.973 71.612 C 262.123 72.462 260.473 72.512 238.923 72.512 C 226.173 72.512 215.573 72.362 215.423 72.162 L 215.423 72.162 Z" id="path60" fill="#ffffff"/>
  <path d="M 272.223 71.712 C 271.823 70.662 281.923 24.112 282.873 22.612 C 283.573 21.512 283.823 21.462 289.723 21.612 L 295.823 21.762 L 295.973 23.662 C 296.073 24.762 295.473 28.612 294.623 32.262 C 293.773 35.962 293.073 39.312 293.073 39.712 C 293.073 40.362 293.773 40.512 297.073 40.512 L 301.023 40.512 L 306.073 34.812 C 308.873 31.662 311.623 28.962 312.223 28.812 C 313.673 28.412 323.523 28.412 325.523 28.812 C 326.373 29.012 327.073 29.312 327.073 29.562 C 327.073 29.762 325.173 32.162 322.823 34.862 C 320.523 37.562 318.573 39.912 318.573 40.112 C 318.573 40.312 319.973 40.512 321.723 40.612 L 324.823 40.762 L 324.723 43.262 C 324.623 47.112 319.273 70.462 318.273 71.612 C 317.473 72.462 316.773 72.512 311.373 72.412 L 305.323 72.262 L 305.173 70.862 C 305.073 70.112 305.823 65.862 306.773 61.362 C 307.773 56.912 308.573 52.962 308.573 52.612 C 308.573 51.662 290.623 51.762 290.273 52.712 C 290.123 53.062 289.173 57.212 288.123 61.912 C 286.923 67.362 285.923 70.862 285.323 71.512 C 284.523 72.412 283.823 72.512 278.473 72.512 C 273.473 72.512 272.473 72.412 272.223 71.712 L 272.223 71.712 Z" id="path62" fill="#ffffff"/>
  <path d="M 327.823 71.562 C 327.473 70.412 335.873 31.712 336.823 30.212 C 337.223 29.612 338.223 29.012 339.123 28.812 C 339.973 28.662 349.873 28.512 361.123 28.512 C 380.623 28.512 381.623 28.562 382.523 29.462 C 383.473 30.412 383.473 30.512 382.073 37.112 C 379.123 50.962 378.173 54.562 377.323 55.512 C 376.473 56.462 375.773 56.512 360.723 56.512 L 345.073 56.512 L 344.573 57.812 C 344.273 58.512 344.073 59.512 344.073 60.062 C 344.073 60.962 344.673 61.012 359.923 61.112 C 375.323 61.262 375.823 61.312 376.023 62.262 C 376.323 64.012 375.023 69.962 373.973 71.262 L 373.023 72.512 L 350.573 72.512 C 328.923 72.512 328.123 72.462 327.823 71.562 L 327.823 71.562 Z M 365.973 44.162 C 366.223 43.662 366.573 42.662 366.773 41.862 L 367.073 40.512 L 357.723 40.612 L 348.373 40.762 L 347.973 42.262 C 347.223 45.012 347.323 45.012 356.773 45.012 C 364.623 45.012 365.573 44.912 365.973 44.162 Z" id="path64" fill="#ffffff"/>
  <path d="M 383.923 72.162 C 382.923 71.212 384.323 63.062 385.873 60.662 L 386.573 59.512 L 403.123 59.512 C 415.873 59.512 419.673 59.362 419.823 58.912 C 419.923 58.562 420.123 57.612 420.173 56.762 L 420.323 55.262 L 407.623 55.012 C 396.523 54.812 394.873 54.662 394.423 53.912 C 394.023 53.312 394.223 51.612 395.023 47.662 C 396.273 41.812 397.073 39.812 398.323 39.312 C 398.773 39.162 404.723 39.012 411.573 39.012 C 425.173 39.012 424.573 39.162 424.573 35.962 L 424.573 34.512 L 408.523 34.412 C 394.373 34.262 392.373 34.162 391.923 33.462 C 391.223 32.362 392.923 24.312 394.173 22.712 L 395.123 21.512 L 419.073 21.512 C 442.273 21.512 443.073 21.562 443.573 22.462 C 444.123 23.562 443.973 24.212 437.573 53.462 C 434.123 69.212 433.523 71.362 432.373 72.112 C 431.673 72.612 384.373 72.612 383.923 72.162 L 383.923 72.162 Z" id="path66" fill="#ffffff"/>
  <path d="M 442.423 72.162 C 442.223 72.012 442.073 71.112 442.073 70.162 C 442.073 67.712 448.023 41.462 448.873 40.162 L 449.573 39.012 L 466.073 39.012 L 482.573 39.012 L 482.823 37.912 C 483.573 34.462 485.123 34.762 467.273 34.612 C 453.673 34.512 451.073 34.362 450.573 33.762 C 449.723 32.762 451.373 24.412 452.723 22.712 L 453.623 21.512 L 477.573 21.512 C 495.173 21.512 501.623 21.662 501.873 22.112 C 502.523 23.162 502.123 25.662 499.323 38.512 C 496.323 52.412 495.873 53.812 494.523 54.512 C 494.023 54.812 487.023 55.012 477.973 55.012 C 466.423 55.012 462.123 55.162 461.673 55.612 C 461.323 55.962 461.073 56.962 461.073 57.862 L 461.073 59.512 L 476.973 59.512 C 485.723 59.512 493.123 59.712 493.573 60.012 C 494.873 60.812 492.673 71.012 490.923 72.112 C 490.173 72.562 442.873 72.662 442.423 72.162 L 442.423 72.162 Z" id="path68" fill="#ffffff"/>
</svg>