<?xml version="1.0" encoding="UTF-8" standalone="no"?>
<!-- Created with Inkscape (http://www.inkscape.org/) -->

<svg
   width="73.67804mm"
   height="45.389679mm"
   viewBox="0 0 73.678039 45.389679"
   version="1.1"
   id="svg5"
   xml:space="preserve"
   xmlns="http://www.w3.org/2000/svg"
   xmlns:svg="http://www.w3.org/2000/svg"><defs
     id="defs2" /><g
     id="layer1"
     transform="translate(-23.724589,-117.68013)"><g
       id="g7326"
       transform="translate(-43.867821,-4.846411)"><path
         id="path7314"
         style="font-size:16.9333px;font-family:'Cyberwar Hollow';-inkscape-font-specification:'Cyberwar Hollow, Normal';fill:#ffffff;stroke-width:0.264583"
         d="m 117.81363,153.81074 -4.11758,3.89434 0.0248,8.19381 h 4.49792 l 4.23333,-4.00182 v -8.08633 z m -0.95912,2.43913 h 2.42259 v 7.10241 h -2.42259 z" /><path
         id="path7237-2"
         style="font-size:16.9333px;font-family:'Cyberwar Hollow';-inkscape-font-specification:'Cyberwar Hollow, Normal';fill:#ffffff;stroke-width:0.264583"
         d="m 126.5861,153.81063 c -0.94258,0.71657 -1.89067,1.43592 -2.84427,2.158 v 11.8153 l 3.10058,-2.28202 v -4.53927 h 1.9017 v 3.14193 l 3.15019,-2.30684 v -3.38997 h -2.48874 l 1.27331,-1.24851 0.24805,-0.23977 v -3.10885 z m 0.25631,2.43912 h 1.14929 v 2.2407 l -1.18236,1.05833 z" /><path
         id="path7237"
         style="font-size:16.9333px;font-family:'Cyberwar Hollow';-inkscape-font-specification:'Cyberwar Hollow, Normal';fill:#ffffff;stroke-width:0.264583"
         d="m 95.572091,153.81074 c -0.942576,0.71658 -1.890672,1.43592 -2.844271,2.15801 v 11.8153 l 3.100586,-2.28203 v -4.53926 h 1.901692 v 3.14193 l 3.150192,-2.30684 v -3.38997 h -2.488733 l 1.273307,-1.24851 0.248047,-0.23977 v -3.10886 z m 0.256315,2.43913 h 1.149283 v 2.24069 l -1.182356,1.05833 z" /><path
         id="path7229"
         style="font-size:16.9333px;font-family:'Cyberwar Hollow';-inkscape-font-specification:'Cyberwar Hollow, Normal';fill:#ffffff;stroke-width:0.264583"
         d="m 86.667208,153.81074 c -0.942575,0.71658 -1.890671,1.43592 -2.844271,2.15801 v 11.8153 l 3.100586,-2.28203 v -4.53926 h 1.901692 v 3.14193 l 3.150196,-2.30684 v -3.38997 h -2.488737 l 1.273307,-1.24851 0.248047,-0.23977 v -3.10886 z m 0.256315,2.43913 h 1.149284 v 2.24069 l -1.182357,1.05833 z" /><path
         style="font-size:16.9333px;font-family:'Cyberwar Hollow';-inkscape-font-specification:'Cyberwar Hollow, Normal';fill:#ffffff;stroke-width:0.264583"
         d="m 73.396689,156.18362 0.01654,5.34954 0.01654,3.66281 q -1.207159,1.08314 -2.381246,2.1332 -0.206705,0.19017 -0.628384,0.57051 V 156.30765 H 67.59241 v -2.50527 h 8.268213 q -0.926039,0.90123 -1.637106,1.57923 -0.429947,0.42167 -0.826821,0.80201 z"
         id="path7219" /><path
         style="font-size:16.9333px;font-family:'Cyberwar Hollow';-inkscape-font-specification:'Cyberwar Hollow, Normal';fill:#ffffff;stroke-width:0.264583"
         d="m 75.38106,155.60485 q 0.438215,-0.38034 0.83509,-0.72761 l 1.223695,-1.0666 h 6.283842 l -2.63756,2.6293 H 78.48164 v 2.0009 h 4.803832 l -2.720242,2.76159 h -2.08359 v 2.00917 h 4.332543 l -3.14192,2.72851 h -2.248954 q -0.950845,-0.80201 -1.868616,-1.57923 -0.06615,-0.0579 -0.173633,-0.14882 z"
         id="path7223" /><path
         style="font-size:16.9333px;font-family:'Cyberwar Hollow';-inkscape-font-specification:'Cyberwar Hollow, Normal';fill:#ffffff;stroke-width:0.264583"
         d="m 101.78146,153.79411 h 3.06751 v 11.0794 l -2.76158,2.48874 h -0.30593 z"
         id="path7243" /><path
         style="font-size:16.9333px;font-family:'Cyberwar Hollow';-inkscape-font-specification:'Cyberwar Hollow, Normal';fill:#ffffff;stroke-width:0.264583"
         d="m 111.90175,156.18362 0.0165,5.34954 0.0165,3.66281 q -1.20716,1.08314 -2.38125,2.1332 -0.2067,0.19017 -0.62838,0.57051 v -11.59203 h -2.82773 v -2.50527 h 8.26821 q -0.92604,0.90123 -1.6371,1.57923 -0.42995,0.42167 -0.82683,0.80201 z"
         id="path7247" /><path
         style="font-size:16.9333px;font-family:'Cyberwar Hollow';-inkscape-font-specification:'Cyberwar Hollow, Normal';fill:#ffffff;stroke-width:0.264583"
         d="m 135.71421,161.10321 h -3.0427 v -7.26776 h 3.07578 v 4.54752 h 2.38124 v -4.54752 h 3.14192 v 3.33209 l -3.79511,3.52226 v 4.77902 l -1.28984,0.96739 q -0.8847,0.66972 -1.9761,1.48001 v -5.59758 z"
         id="path7267" /></g><g
       id="g2035"
       transform="matrix(0.33333333,0,0,0.33333333,34.069648,117.68013)"
       style="fill:#ffffff"><path
         d="m 22,9 v 25 l -2,1 V 9 h -6 v 25 l -2,1 V 9 H 0 l 6,4 v 32 l 8,-5 v 5 L 28,36 V 9 h -6"
         id="path1993"
         style="fill:#ffffff" /><path
         d="m 52,5 -6,4 v 36 l 6,-4 V 5"
         id="path1995"
         style="fill:#ffffff" /><path
         d="m 60,4 6,-4 h -6 l -6,4 v 36 l 6,-4 V 13 L 66,9 H 60 V 4"
         id="path1997"
         style="fill:#ffffff" /><path
         d="m 70,28 6,-4 V 9 h -6 l -8,5 V 36 H 76 V 30 H 68 V 17 l 2,-1.25 V 28"
         id="path1999"
         style="fill:#ffffff" /><path
         d="m 78,9 v 27 h 6 V 15 h 2 v 21 h 6 V 9 H 78"
         id="path2001"
         style="fill:#ffffff" /><path
         d="m 94,30 v 6 h 14 V 24 l -8,-5 v -4 h 2 v 4 l 6,-4 V 9 H 94 v 12 l 8,5 v 4 h -2 v -4 l -6,4"
         id="path2003"
         style="fill:#ffffff" /><path
         d="m 110,9 v 31 l 6,-4 V 13 l 6,-4 h -6 V 5 l -6,4"
         id="path2005"
         style="fill:#ffffff" /><path
         d="m 126,28 6,-4 V 9 h -6 l -8,5 v 22 h 14 v -6 h -8 V 17 l 2,-1.25 V 28"
         id="path2007"
         style="fill:#ffffff" /><path
         d="m 140,11 -6,4 v 21 h 6 V 11"
         id="path2009"
         style="fill:#ffffff" /><path
         d="m 140,5 -6,4 v 4 l 6,-4 V 5"
         id="path2011"
         style="fill:#ffffff" /><path
         d="m 142,9 v 27 h 6 V 15 h 2 v 21 h 6 V 9 h -14"
         id="path2013"
         style="fill:#ffffff" /><path
         d="M 30,9 V 36 H 44 V 9 Z m 8,21 H 36 V 15 h 2 z"
         id="path2015"
         style="fill:#ffffff" /></g><g
       id="g7333"
       transform="matrix(1.036561,0,0,1.036561,-1.3187404,-4.4354292)"><path
         style="font-size:16.9333px;font-family:'Cyberwar Hollow';-inkscape-font-specification:'Cyberwar Hollow, Normal';fill:#ffffff;stroke:none;stroke-width:0.264583;stroke-opacity:1"
         d="m 36.069317,134.79319 q 0.438215,-0.38034 0.835089,-0.7276 l 1.223696,-1.0666 h 6.283842 l -2.63756,2.62929 h -2.604487 v 2.00091 h 4.803831 l -2.720242,2.76158 h -2.083589 v 2.00918 h 4.332543 l -3.141921,2.72851 h -2.248954 q -0.950844,-0.80202 -1.868616,-1.57923 -0.06615,-0.0579 -0.173632,-0.14883 z"
         id="path5459" /><path
         style="font-size:16.9333px;font-family:'Cyberwar Hollow';-inkscape-font-specification:'Cyberwar Hollow, Normal';fill:#ffffff;stroke:none;stroke-width:0.264583;stroke-opacity:1"
         d="m 48.471635,133.01553 h 4.134107 v 8.0367 l -3.084044,2.21588 v -7.59022 h -2.282026 v 9.21906 l -3.001362,2.158 v -10.00454 q 0.256315,-0.23977 0.46302,-0.44648 1.868616,-1.77767 3.770305,-3.5884 z"
         id="path5463" /><path
         style="font-size:16.9333px;font-family:'Cyberwar Hollow';-inkscape-font-specification:'Cyberwar Hollow, Normal';fill:#ffffff;stroke:none;stroke-width:0.264583;stroke-opacity:1"
         d="m 53.77156,134.79319 q 0.438216,-0.38034 0.83509,-0.7276 l 1.223696,-1.0666 h 6.283841 l -2.63756,2.62929 H 56.87214 v 2.00091 h 4.803832 l -2.720242,2.76158 h -2.08359 v 2.00918 h 4.332544 l -3.141921,2.72851 h -2.248954 q -0.950844,-0.80202 -1.868616,-1.57923 -0.06615,-0.0579 -0.173633,-0.14883 z"
         id="path5467" /><path
         style="font-size:16.9333px;font-family:'Cyberwar Hollow';-inkscape-font-specification:'Cyberwar Hollow, Normal';fill:#ffffff;stroke:none;stroke-width:0.264583;stroke-opacity:1"
         d="m 69.687874,141.2672 -3.026169,2.33991 v -8.07805 h -1.777666 v 9.45884 l -2.951752,2.28203 v -10.18644 q 1.207159,-1.11621 2.381245,-2.20762 1.000454,-0.92604 2.033981,-1.89342 h 3.356891 v 1.0666 l 1.0418,-1.0666 h 3.63801 v 8.04497 q -1.37252,1.29811 -2.91868,2.76159 v -8.25995 h -1.77766 z"
         id="path5471" /><path
         style="font-size:16.9333px;font-family:'Cyberwar Hollow';-inkscape-font-specification:'Cyberwar Hollow, Normal';fill:#ffffff;stroke:none;stroke-width:0.264583;stroke-opacity:1"
         d="m 78.749834,140.29155 h -3.04271 v -7.26776 h 3.07578 v 4.54752 h 2.38125 v -4.54752 h 3.14192 v 3.33209 l -3.79511,3.52226 v 4.77903 l -1.28984,0.96738 q -0.8847,0.66973 -1.97611,1.48001 v -5.59758 z"
         id="path5475" /></g></g></svg>
