<?xml version="1.0" encoding="UTF-8" standalone="no"?>
<svg
   version="1.1"
   width="609.64203"
   height="262.40103"
   viewBox="0 0 609.64205 262.40102"
   id="svg7425"
   xmlns="http://www.w3.org/2000/svg"
   xmlns:svg="http://www.w3.org/2000/svg"
   xmlns:rdf="http://www.w3.org/1999/02/22-rdf-syntax-ns#"
   xmlns:cc="http://creativecommons.org/ns#"
   xmlns:dc="http://purl.org/dc/elements/1.1/">
  <defs
     id="defs7429" />
  <title
     id="title7419">Fallout logo</title>
  <g
     aria-label="Community   Edition"
     id="text7509"
     style="font-size:64px;font-family:'Swiss 911 Compressed';-inkscape-font-specification:'Swiss 911 Compressed, Normal';fill:#ffffff;stroke-width:1.00157"
     transform="matrix(1.1258841,0,0,1.1258841,-836.74774,-3984.7727)">
    <path
       d="m 791.88291,3731.405 v 19.2 c 0,9.92 3.328,14.464 13.504,14.464 8.768,0 13.568,-4.16 13.568,-11.648 v -7.232 h -10.816 v 7.232 c 0,2.752 -0.704,3.968 -2.752,3.968 -2.048,0 -2.688,-1.216 -2.688,-3.968 v -25.472 c 0,-2.752 0.64,-3.968 2.688,-3.968 2.048,0 2.752,1.216 2.752,3.968 v 6.272 h 10.816 v -6.528 c 0,-6.784 -4.928,-10.816 -13.568,-10.816 -10.176,0 -13.504,4.608 -13.504,14.528 z"
       id="path337" />
    <path
       d="m 821.45086,3739.341 v 12.416 c 0,8.96 3.072,13.12 12.288,13.12 9.28,0 12.352,-4.16 12.352,-13.12 v -12.416 c 0,-8.96 -3.136,-13.12 -12.352,-13.12 -9.28,0 -12.288,4.16 -12.288,13.12 z m 10.176,-3.456 c 0,-2.048 0.704,-3.072 2.112,-3.072 1.408,0 2.112,1.024 2.112,3.072 v 19.008 c 0,2.048 -0.576,3.072 -2.112,3.072 -1.536,0 -2.112,-1.024 -2.112,-3.072 z"
       id="path339" />
    <path
       d="m 848.52292,3763.981 h 10.112 v -26.048 c 0,-2.048 0.512,-3.136 2.112,-3.136 1.6,0 2.112,0.96 2.112,3.136 v 26.048 h 9.984 v -26.048 c 0,-2.048 0.512,-3.136 2.112,-3.136 1.6,0 2.112,0.96 2.112,3.136 v 26.048 h 10.048 v -27.136 c 0,-6.656 -0.896,-10.496 -7.232,-10.496 -3.392,0 -5.952,1.728 -7.232,5.056 h -0.064 c -0.832,-3.328 -3.136,-5.056 -6.912,-5.056 -3.392,0 -5.952,1.792 -7.232,5.056 h -0.064 v -4.288 h -9.856 z"
       id="path341" />
    <path
       d="m 889.73886,3763.981 h 10.112 v -26.048 c 0,-2.048 0.512,-3.136 2.112,-3.136 1.6,0 2.112,0.96 2.112,3.136 v 26.048 h 9.984 v -26.048 c 0,-2.048 0.512,-3.136 2.112,-3.136 1.6,0 2.112,0.96 2.112,3.136 v 26.048 h 10.048 v -27.136 c 0,-6.656 -0.896,-10.496 -7.232,-10.496 -3.392,0 -5.952,1.728 -7.232,5.056 h -0.064 c -0.832,-3.328 -3.136,-5.056 -6.912,-5.056 -3.392,0 -5.952,1.792 -7.232,5.056 h -0.064 v -4.288 h -9.856 z"
       id="path343" />
    <path
       d="m 930.9548,3727.117 v 27.072 c 0,6.72 1.088,10.56 6.784,10.56 3.392,0 5.888,-1.664 7.808,-5.056 h 0.128 v 4.288 h 9.984 v -36.864 h -10.24 v 26.048 c 0,2.048 -0.512,3.136 -2.112,3.136 -1.6,0 -2.112,-0.96 -2.112,-3.136 v -26.048 z"
       id="path345" />
    <path
       d="m 982.92284,3763.981 v -27.136 c 0,-6.784 -1.152,-10.496 -6.848,-10.496 -3.392,0 -5.824,1.664 -7.744,5.056 h -0.128 v -4.288 h -9.984 v 36.864 h 10.24 v -26.048 c 0,-2.048 0.512,-3.136 2.112,-3.136 1.6,0 2.112,0.96 2.112,3.136 v 26.048 z"
       id="path347" />
    <path
       d="m 995.72288,3724.557 v -6.656 h -10.24 v 6.656 z m 0,39.424 v -36.864 h -10.24 v 36.864 z"
       id="path349" />
    <path
       d="m 1011.0189,3754.765 v -20.928 h 4.544 v -6.72 h -4.544 v -6.72 h -10.24 v 6.72 h -3.32797 v 6.72 h 3.32797 v 20.928 c 0,6.528 1.92,9.216 8.192,9.216 h 6.592 v -6.464 h -0.832 c -3.328,0 -3.712,-0.448 -3.712,-2.752 z"
       id="path351" />
    <path
       d="m 1016.651,3772.301 h 9.024 c 5.376,0 6.976,-2.752 8.128,-8.256 l 7.808,-36.928 h -8.64 l -2.304,14.016 c -0.448,2.624 -0.768,6.72 -1.088,12.224 h -0.256 c -0.256,-4.928 -0.512,-8.512 -0.896,-10.944 l -2.368,-15.296 h -10.368 l 7.808,35.456 c 0.192,0.768 0.32,1.344 0.32,1.728 0,0.96 -0.576,1.472 -1.728,1.472 h -5.44 z"
       id="path353" />
    <path
       d="m 1087.4989,3763.981 h 22.208 v -7.232 h -11.392 v -14.592 h 11.392 v -7.232 h -11.392 v -9.728 h 11.392 v -7.296 h -22.208 z"
       id="path355" />
    <path
       d="m 1122.3789,3752.973 v -15.04 c 0,-2.176 0.512,-3.136 2.112,-3.136 1.6,0 2.112,1.088 2.112,3.136 v 15.04 c 0,2.048 -0.512,3.072 -2.112,3.072 -1.6,0 -2.112,-0.896 -2.112,-3.072 z m 4.288,11.008 h 10.176 v -46.08 h -10.048 v 8 c 0,0.512 0.064,2.496 0.192,5.952 -1.344,-3.648 -3.904,-5.504 -7.424,-5.504 -5.888,0 -7.424,3.456 -7.424,10.496 v 17.472 c 0,7.04 1.536,10.496 7.424,10.496 3.648,0 6.208,-1.92 7.104,-5.568 z"
       id="path357" />
    <path
       d="m 1149.6428,3724.557 v -6.656 h -10.24 v 6.656 z m 0,39.424 v -36.864 h -10.24 v 36.864 z"
       id="path359" />
    <path
       d="m 1164.9389,3754.765 v -20.928 h 4.544 v -6.72 h -4.544 v -6.72 h -10.24 v 6.72 h -3.328 v 6.72 h 3.328 v 20.928 c 0,6.528 1.92,9.216 8.192,9.216 h 6.592 v -6.464 h -0.832 c -3.328,0 -3.712,-0.448 -3.712,-2.752 z"
       id="path361" />
    <path
       d="m 1181.7069,3724.557 v -6.656 h -10.24 v 6.656 z m 0,39.424 v -36.864 h -10.24 v 36.864 z"
       id="path363" />
    <path
       d="m 1184.2029,3739.341 v 12.416 c 0,8.96 3.072,13.12 12.288,13.12 9.28,0 12.352,-4.16 12.352,-13.12 v -12.416 c 0,-8.96 -3.136,-13.12 -12.352,-13.12 -9.28,0 -12.288,4.16 -12.288,13.12 z m 10.176,-3.456 c 0,-2.048 0.704,-3.072 2.112,-3.072 1.408,0 2.112,1.024 2.112,3.072 v 19.008 c 0,2.048 -0.576,3.072 -2.112,3.072 -1.536,0 -2.112,-1.024 -2.112,-3.072 z"
       id="path365" />
    <path
       d="m 1235.979,3763.981 v -27.136 c 0,-6.784 -1.152,-10.496 -6.848,-10.496 -3.392,0 -5.824,1.664 -7.744,5.056 h -0.128 v -4.288 h -9.984 v 36.864 h 10.24 v -26.048 c 0,-2.048 0.512,-3.136 2.112,-3.136 1.6,0 2.112,0.96 2.112,3.136 v 26.048 z"
       id="path367" />
  </g>
  <metadata
     id="metadata453">
    <rdf:RDF>
      <cc:Work
         rdf:about="">
        <dc:title>Fallout logo</dc:title>
      </cc:Work>
    </rdf:RDF>
  </metadata>
  <text
     xml:space="preserve"
     style="font-size:64px;font-family:'Swiss 911 Compressed';-inkscape-font-specification:'Swiss 911 Compressed, Normal';fill:#ffffff;stroke-width:1.00157"
     x="757.17804"
     y="146.39091"
     id="text1560"><tspan
       id="tspan1558"
       x="757.17804"
       y="146.39091"></tspan></text>
  <g
     id="g1781">
    <path
       d="m 263.28204,200.00002 27.90698,-25.48314 c 19.32525,-2.42384 28.56207,-10.94006 32.16508,-24.69702 l 13.49493,-49.19751 z"
       id="path7447"
       style="fill:#ffffff;stroke-width:0.0655093" />
    <path
       d="m 500.55687,0.3275467 -34.71995,14.3465453 -9.62988,35.7681 h -11.07107 l -4.32362,16.770391 h 10.94006 l -15.72224,58.565347 c -6.2889,22.86276 -11.59516,35.70259 -3.60302,44.02228 6.02686,6.2889 15.78775,5.43727 36.29218,4.58565 l 5.30625,-20.50442 h -6.15787 c -10.15395,0 -5.10973,-13.95349 -2.22732,-24.30397 l 16.8359,-62.364887 h 14.15002 l 4.32361,-16.770391 h -13.88798 z"
       id="path7451"
       style="fill:#ffffff;stroke-width:0.0655093" />
    <path
       d="m 406.0924,50.442192 c -1.3757,6.223387 -23.64887,89.420248 -25.2211,95.054048 -2.35833,4.78219 -5.56829,8.3852 -9.89191,8.3852 -10.28496,0 -5.24074,-14.80511 -2.35833,-25.09008 l 20.56993,-78.349168 h -29.02064 l -19.91484,75.335738 c -6.28889,22.86276 -10.48149,35.11301 -3.20996,44.02228 6.87848,8.4507 24.69703,8.12316 39.63315,-8.58172 l -3.5375,13.16737 h 29.08615 c 0,0 30.06878,-112.348515 33.08221,-124.009178 z"
       id="path7449"
       style="fill:#ffffff;stroke-width:0.0655093" />
    <path
       d="m 293.80939,119.227 h -37.27481 l -8.25418,30.52735 c -2.75139,10.61251 4.12709,23.05929 24.50049,25.15559 z"
       id="path7445"
       style="fill:#ffffff;stroke-width:0.0655093" />
    <path
       d="m 299.57421,99.24665 h 37.66787 c 3.20996,-11.791681 5.37177,-21.356045 7.0095,-27.841469 2.29283,-9.695383 -3.47199,-19.521784 -13.03636,-22.404195 l 7.6646,-26.662301 z"
       id="path7443"
       style="fill:#ffffff;stroke-width:0.0655093" />
    <path
       d="M 256.86212,117.78579 318.4409,46.118575 c -1.50671,-0.131018 -3.14445,-0.196528 -4.78218,-0.196528 -27.90698,0 -40.15723,8.97478 -44.48084,25.352115 z"
       id="path7441"
       style="fill:#ffffff;stroke-width:0.0655093" />
    <path
       d="M 248.08387,0.06550934 202.35835,174.38586 H 231.4445 L 277.17002,0.06550934 h -29.08615"
       id="path7439"
       style="fill:#ffffff;stroke-width:0.0655093" />
    <path
       d="M 208.45072,0 162.7252,174.32035 h 29.08615 L 237.53687,0 h -29.08615"
       id="path7437"
       style="fill:#ffffff;stroke-width:0.0655093" />
    <path
       d="m 148.50967,45.987557 c -27.90698,0 -40.35375,9.040289 -44.67737,25.417624 L 99.96725,86.34131 h 29.21717 c 0,0 1.11366,-4.9132 3.60301,-14.150017 2.42385,-9.236817 5.76482,-9.826401 10.15395,-9.826401 1.89977,0 8.12316,0.131018 5.50278,11.595153 -0.7206,3.144448 -3.01343,12.774321 -5.89584,24.172946 -3.93056,0.131019 -6.48542,0 -14.01899,0 -12.25025,0 -33.21324,3.734029 -39.50214,26.596789 -6.2889,22.92827 -11.72617,36.16116 -4.45463,45.07043 6.87848,8.38519 26.40026,8.12316 41.33639,-8.3852 l -3.40648,12.97085 h 29.61022 L 179.10254,71.47069 C 182.11597,59.810027 173.66526,45.987557 148.50967,45.987557 Z M 129.83951,146.41337 c -2.35833,4.32362 -5.43727,7.46807 -9.49885,7.46807 -10.74353,0 -5.43728,-14.019 -2.48936,-24.30397 0.98264,-3.60301 2.22732,-15.19816 13.95349,-15.19816 l 6.41992,-0.13102 z"
       id="path7435"
       style="fill:#ffffff;stroke-width:0.0655093" />
    <path
       d="M 93.2853,71.405181 H 56.07599 L 67.73666,26.989848 h 48.14936 L 122.83001,0.06550934 H 45.72552 L 0,174.38586 H 29.08614 L 49.06649,98.329519 H 86.2758 l 7.0095,-26.924338"
       id="path7421"
       style="fill:#ffffff;stroke-width:0.0655093" />
    <path
       d="m 509.69223,174.97407 h 99.94978 v -27.94804 h -58.02772 c 1.65794,-13.26348 13.97402,-26.05326 29.60598,-45.00109 17.76359,-21.553151 28.42174,-32.921847 28.42174,-62.054129 0,-27.474348 -16.10565,-39.31673962 -50.44859,-39.31673962 -31.97445,0 -49.97489,14.92141262 -49.97489,40.02728262 v 24.158479 h 40.02728 V 41.628745 c 0,-10.184456 2.36848,-14.684565 9.94761,-14.684565 6.86859,0 10.18446,2.842174 10.18446,9.237065 v 10.895001 c 0,12.316087 -16.8162,25.579565 -38.6062,52.817065 -12.55293,15.868809 -21.07945,27.948039 -21.07945,46.659019 z"
       id="path1710"
       style="font-size:64px;font-family:'Swiss 911 Compressed';-inkscape-font-specification:'Swiss 911 Compressed, Normal';fill:#ffffff;stroke-width:3.70656" />
  </g>
</svg>
