<?xml version="1.0" encoding="UTF-8" standalone="no"?>
<svg
   version="1.1"
   width="500.94992"
   height="262.40118"
   viewBox="0 0 500.94992 262.40118"
   id="svg7425"
   sodipodi:docname="fallout1-ce.svg"
   inkscape:version="1.2.2 (b0a8486541, 2022-12-01)"
   xmlns:inkscape="http://www.inkscape.org/namespaces/inkscape"
   xmlns:sodipodi="http://sodipodi.sourceforge.net/DTD/sodipodi-0.dtd"
   xmlns="http://www.w3.org/2000/svg"
   xmlns:svg="http://www.w3.org/2000/svg"
   xmlns:rdf="http://www.w3.org/1999/02/22-rdf-syntax-ns#"
   xmlns:cc="http://creativecommons.org/ns#"
   xmlns:dc="http://purl.org/dc/elements/1.1/">
  <sodipodi:namedview
     id="namedview1439"
     pagecolor="#505050"
     bordercolor="#eeeeee"
     borderopacity="1"
     inkscape:showpageshadow="0"
     inkscape:pageopacity="0"
     inkscape:pagecheckerboard="0"
     inkscape:deskcolor="#505050"
     showgrid="false"
     inkscape:zoom="1.3863661"
     inkscape:cx="565.14653"
     inkscape:cy="121.90142"
     inkscape:window-width="2560"
     inkscape:window-height="1008"
     inkscape:window-x="0"
     inkscape:window-y="0"
     inkscape:window-maximized="1"
     inkscape:current-layer="svg7425" />
  <defs
     id="defs7429" />
  <title
     id="title7419">Fallout logo</title>
  <g
     id="g7535"
     transform="scale(0.06550934)"
     style="fill:#ffffff">
    <path
       d="m 7641,5 -530,219 -147,546 h -169 l -66,256 h 167 l -240,894 c -96,349 -177,545 -55,672 92,96 241,83 554,70 l 81,-313 h -94 c -155,0 -78,-213 -34,-371 l 257,-952 h 216 l 66,-256 h -212 z"
       id="path7451"
       style="fill:#ffffff" />
    <path
       d="m 6199,770 c -21,95 -361,1365 -385,1451 -36,73 -85,128 -151,128 -157,0 -80,-226 -36,-383 L 5941,770 h -443 l -304,1150 c -96,349 -160,536 -49,672 105,129 377,124 605,-131 l -54,201 h 444 c 0,0 459,-1715 505,-1893 z"
       id="path7449"
       style="fill:#ffffff" />
    <path
       d="m 4019,3053 426,-389 c 295,-37 436,-167 491,-377 l 206,-751 z"
       id="path7447"
       style="fill:#ffffff" />
    <path
       d="m 4485,1820 h -569 l -126,466 c -42,162 63,352 374,384 z"
       id="path7445"
       style="fill:#ffffff" />
    <path
       d="m 4573,1515 h 575 c 49,-180 82,-326 107,-425 35,-148 -53,-298 -199,-342 l 117,-407 z"
       id="path7443"
       style="fill:#ffffff" />
    <path
       d="M 3921,1798 4861,704 c -23,-2 -48,-3 -73,-3 -426,0 -613,137 -679,387 z"
       id="path7441"
       style="fill:#ffffff" />
    <path
       d="m 3787,1 -698,2661 h 444 L 4231,1 h -444"
       id="path7439"
       style="fill:#ffffff" />
    <path
       d="m 3182,0 -698,2661 h 444 L 3626,0 h -444"
       id="path7437"
       style="fill:#ffffff" />
    <path
       d="m 2267,702 c -426,0 -616,138 -682,388 l -59,228 h 446 c 0,0 17,-75 55,-216 37,-141 88,-150 155,-150 29,0 124,2 84,177 -11,48 -46,195 -90,369 -60,2 -99,0 -214,0 -187,0 -507,57 -603,406 -96,350 -179,552 -68,688 105,128 403,124 631,-128 l -52,198 h 452 l 412,-1571 c 46,-178 -83,-389 -467,-389 z m -285,1533 c -36,66 -83,114 -145,114 -164,0 -83,-214 -38,-371 15,-55 34,-232 213,-232 l 98,-2 z"
       id="path7435"
       style="fill:#ffffff" />
    <path
       d="M 1424,1090 H 856 l 178,-678 h 735 L 1875,1 H 698 L 0,2662 H 444 L 749,1501 h 568 l 107,-411"
       id="path7421"
       style="fill:#ffffff" />
  </g>
  <g
     aria-label="Community   Edition"
     id="text7509"
     style="font-size:64px;font-family:'Swiss 911 Compressed';-inkscape-font-specification:'Swiss 911 Compressed, Normal';fill:#ffffff;stroke-width:1.00157"
     transform="matrix(1.1258841,0,0,1.1258841,-891.09378,-3984.7725)">
    <path
       d="m 791.88291,3731.405 v 19.2 c 0,9.92 3.328,14.464 13.504,14.464 8.768,0 13.568,-4.16 13.568,-11.648 v -7.232 h -10.816 v 7.232 c 0,2.752 -0.704,3.968 -2.752,3.968 -2.048,0 -2.688,-1.216 -2.688,-3.968 v -25.472 c 0,-2.752 0.64,-3.968 2.688,-3.968 2.048,0 2.752,1.216 2.752,3.968 v 6.272 h 10.816 v -6.528 c 0,-6.784 -4.928,-10.816 -13.568,-10.816 -10.176,0 -13.504,4.608 -13.504,14.528 z"
       id="path337" />
    <path
       d="m 821.45086,3739.341 v 12.416 c 0,8.96 3.072,13.12 12.288,13.12 9.28,0 12.352,-4.16 12.352,-13.12 v -12.416 c 0,-8.96 -3.136,-13.12 -12.352,-13.12 -9.28,0 -12.288,4.16 -12.288,13.12 z m 10.176,-3.456 c 0,-2.048 0.704,-3.072 2.112,-3.072 1.408,0 2.112,1.024 2.112,3.072 v 19.008 c 0,2.048 -0.576,3.072 -2.112,3.072 -1.536,0 -2.112,-1.024 -2.112,-3.072 z"
       id="path339" />
    <path
       d="m 848.52292,3763.981 h 10.112 v -26.048 c 0,-2.048 0.512,-3.136 2.112,-3.136 1.6,0 2.112,0.96 2.112,3.136 v 26.048 h 9.984 v -26.048 c 0,-2.048 0.512,-3.136 2.112,-3.136 1.6,0 2.112,0.96 2.112,3.136 v 26.048 h 10.048 v -27.136 c 0,-6.656 -0.896,-10.496 -7.232,-10.496 -3.392,0 -5.952,1.728 -7.232,5.056 h -0.064 c -0.832,-3.328 -3.136,-5.056 -6.912,-5.056 -3.392,0 -5.952,1.792 -7.232,5.056 h -0.064 v -4.288 h -9.856 z"
       id="path341" />
    <path
       d="m 889.73886,3763.981 h 10.112 v -26.048 c 0,-2.048 0.512,-3.136 2.112,-3.136 1.6,0 2.112,0.96 2.112,3.136 v 26.048 h 9.984 v -26.048 c 0,-2.048 0.512,-3.136 2.112,-3.136 1.6,0 2.112,0.96 2.112,3.136 v 26.048 h 10.048 v -27.136 c 0,-6.656 -0.896,-10.496 -7.232,-10.496 -3.392,0 -5.952,1.728 -7.232,5.056 h -0.064 c -0.832,-3.328 -3.136,-5.056 -6.912,-5.056 -3.392,0 -5.952,1.792 -7.232,5.056 h -0.064 v -4.288 h -9.856 z"
       id="path343" />
    <path
       d="m 930.9548,3727.117 v 27.072 c 0,6.72 1.088,10.56 6.784,10.56 3.392,0 5.888,-1.664 7.808,-5.056 h 0.128 v 4.288 h 9.984 v -36.864 h -10.24 v 26.048 c 0,2.048 -0.512,3.136 -2.112,3.136 -1.6,0 -2.112,-0.96 -2.112,-3.136 v -26.048 z"
       id="path345" />
    <path
       d="m 982.92284,3763.981 v -27.136 c 0,-6.784 -1.152,-10.496 -6.848,-10.496 -3.392,0 -5.824,1.664 -7.744,5.056 h -0.128 v -4.288 h -9.984 v 36.864 h 10.24 v -26.048 c 0,-2.048 0.512,-3.136 2.112,-3.136 1.6,0 2.112,0.96 2.112,3.136 v 26.048 z"
       id="path347" />
    <path
       d="m 995.72288,3724.557 v -6.656 h -10.24 v 6.656 z m 0,39.424 v -36.864 h -10.24 v 36.864 z"
       id="path349" />
    <path
       d="m 1011.0189,3754.765 v -20.928 h 4.544 v -6.72 h -4.544 v -6.72 h -10.24 v 6.72 h -3.32797 v 6.72 h 3.32797 v 20.928 c 0,6.528 1.92,9.216 8.192,9.216 h 6.592 v -6.464 h -0.832 c -3.328,0 -3.712,-0.448 -3.712,-2.752 z"
       id="path351" />
    <path
       d="m 1016.651,3772.301 h 9.024 c 5.376,0 6.976,-2.752 8.128,-8.256 l 7.808,-36.928 h -8.64 l -2.304,14.016 c -0.448,2.624 -0.768,6.72 -1.088,12.224 h -0.256 c -0.256,-4.928 -0.512,-8.512 -0.896,-10.944 l -2.368,-15.296 h -10.368 l 7.808,35.456 c 0.192,0.768 0.32,1.344 0.32,1.728 0,0.96 -0.576,1.472 -1.728,1.472 h -5.44 z"
       id="path353" />
    <path
       d="m 1087.4989,3763.981 h 22.208 v -7.232 h -11.392 v -14.592 h 11.392 v -7.232 h -11.392 v -9.728 h 11.392 v -7.296 h -22.208 z"
       id="path355" />
    <path
       d="m 1122.3789,3752.973 v -15.04 c 0,-2.176 0.512,-3.136 2.112,-3.136 1.6,0 2.112,1.088 2.112,3.136 v 15.04 c 0,2.048 -0.512,3.072 -2.112,3.072 -1.6,0 -2.112,-0.896 -2.112,-3.072 z m 4.288,11.008 h 10.176 v -46.08 h -10.048 v 8 c 0,0.512 0.064,2.496 0.192,5.952 -1.344,-3.648 -3.904,-5.504 -7.424,-5.504 -5.888,0 -7.424,3.456 -7.424,10.496 v 17.472 c 0,7.04 1.536,10.496 7.424,10.496 3.648,0 6.208,-1.92 7.104,-5.568 z"
       id="path357" />
    <path
       d="m 1149.6428,3724.557 v -6.656 h -10.24 v 6.656 z m 0,39.424 v -36.864 h -10.24 v 36.864 z"
       id="path359" />
    <path
       d="m 1164.9389,3754.765 v -20.928 h 4.544 v -6.72 h -4.544 v -6.72 h -10.24 v 6.72 h -3.328 v 6.72 h 3.328 v 20.928 c 0,6.528 1.92,9.216 8.192,9.216 h 6.592 v -6.464 h -0.832 c -3.328,0 -3.712,-0.448 -3.712,-2.752 z"
       id="path361" />
    <path
       d="m 1181.7069,3724.557 v -6.656 h -10.24 v 6.656 z m 0,39.424 v -36.864 h -10.24 v 36.864 z"
       id="path363" />
    <path
       d="m 1184.2029,3739.341 v 12.416 c 0,8.96 3.072,13.12 12.288,13.12 9.28,0 12.352,-4.16 12.352,-13.12 v -12.416 c 0,-8.96 -3.136,-13.12 -12.352,-13.12 -9.28,0 -12.288,4.16 -12.288,13.12 z m 10.176,-3.456 c 0,-2.048 0.704,-3.072 2.112,-3.072 1.408,0 2.112,1.024 2.112,3.072 v 19.008 c 0,2.048 -0.576,3.072 -2.112,3.072 -1.536,0 -2.112,-1.024 -2.112,-3.072 z"
       id="path365" />
    <path
       d="m 1235.979,3763.981 v -27.136 c 0,-6.784 -1.152,-10.496 -6.848,-10.496 -3.392,0 -5.824,1.664 -7.744,5.056 h -0.128 v -4.288 h -9.984 v 36.864 h 10.24 v -26.048 c 0,-2.048 0.512,-3.136 2.112,-3.136 1.6,0 2.112,0.96 2.112,3.136 v 26.048 z"
       id="path367" />
  </g>
  <metadata
     id="metadata453">
    <rdf:RDF>
      <cc:Work
         rdf:about="">
        <dc:title>Fallout logo</dc:title>
      </cc:Work>
    </rdf:RDF>
  </metadata>
</svg>
