<?xml version="1.0" encoding="UTF-8" standalone="no"?>
<!-- Created with Inkscape (http://www.inkscape.org/) -->

<svg
   width="100mm"
   height="20mm"
   viewBox="0 0 100 20"
   version="1.1"
   id="svg1403"
   xmlns="http://www.w3.org/2000/svg"
   xmlns:svg="http://www.w3.org/2000/svg">
  <defs
     id="defs1400" />
  <g
     id="layer1"
     transform="translate(-46.55227,-137.98435)">
    <g
       aria-label="Applications"
       id="text1961"
       style="font-size:16.9333px;font-family:'Swiss 911 Compressed';-inkscape-font-specification:'Swiss 911 Compressed, Normal';fill:#ffffff;stroke-width:0.264999">
      <path
         d="m 60.11179,152.97968 h 2.438395 l 0.440266,-2.9972 h 1.574797 l 0.220133,2.9972 h 2.98026 L 66.004578,140.7877 h -3.793059 z m 3.149594,-4.9276 0.253999,-2.26906 c 0.135467,-1.21919 0.270933,-2.38759 0.372533,-3.48826 h 0.1016 c 0.118533,1.76107 0.203199,2.77706 0.220132,3.06493 l 0.1524,2.69239 z"
         style="stroke-width:0.265"
         id="path1963" />
      <path
         d="m 68.155092,155.181 h 2.709328 v -3.33586 c 0.372533,0.88054 0.999065,1.33773 1.913463,1.33773 1.473197,0 1.89653,-0.96519 1.89653,-2.79399 v -4.58892 c 0,-1.86267 -0.389466,-2.77707 -1.94733,-2.77707 -0.846665,0 -1.507064,0.47414 -1.930396,1.40547 v -1.20227 h -2.641595 z m 2.709328,-9.09318 c 0,-0.54186 0.135467,-0.82973 0.558799,-0.82973 0.423333,0 0.558799,0.254 0.558799,0.82973 v 4.01319 c 0,0.57574 -0.135466,0.82974 -0.558799,0.82974 -0.423332,0 -0.558799,-0.28787 -0.558799,-0.82974 z"
         style="stroke-width:0.265"
         id="path1965" />
      <path
         d="m 75.351731,155.181 h 2.709328 v -3.33586 c 0.372533,0.88054 0.999065,1.33773 1.913463,1.33773 1.473197,0 1.89653,-0.96519 1.89653,-2.79399 v -4.58892 c 0,-1.86267 -0.389466,-2.77707 -1.94733,-2.77707 -0.846665,0 -1.507063,0.47414 -1.930396,1.40547 v -1.20227 h -2.641595 z m 2.709328,-9.09318 c 0,-0.54186 0.135467,-0.82973 0.558799,-0.82973 0.423333,0 0.558799,0.254 0.558799,0.82973 v 4.01319 c 0,0.57574 -0.135466,0.82974 -0.558799,0.82974 -0.423332,0 -0.558799,-0.28787 -0.558799,-0.82974 z"
         style="stroke-width:0.265"
         id="path1967" />
      <path
         d="M 85.240766,152.97968 V 140.7877 h -2.709328 v 12.19198 z"
         style="stroke-width:0.265"
         id="path1969" />
      <path
         d="m 88.627439,142.54876 v -1.76106 h -2.709328 v 1.76106 z m 0,10.43092 v -9.75359 h -2.709328 v 9.75359 z"
         style="stroke-width:0.265"
         id="path1971" />
      <path
         d="m 95.807171,149.20355 h -2.709328 v 1.3716 c 0,0.54186 -0.169333,0.8128 -0.558799,0.8128 -0.406399,0 -0.558799,-0.27094 -0.558799,-0.8128 v -5.02919 c 0,-0.54187 0.186267,-0.8128 0.558799,-0.8128 0.372533,0 0.558799,0.27093 0.558799,0.8128 v 1.13453 h 2.709328 v -0.98213 c 0,-1.74413 -1.168398,-2.70933 -3.268127,-2.70933 -2.455328,0 -3.268127,1.10066 -3.268127,3.47132 v 3.28506 c 0,2.37067 0.829732,3.47133 3.268127,3.47133 2.184396,0 3.268127,-0.9652 3.268127,-2.92946 z"
         style="stroke-width:0.265"
         id="path1973" />
      <path
         d="m 100.24371,151.87901 h 0.0508 l 0.0847,1.10067 h 2.67546 c -0.0508,-0.3556 -0.0847,-0.64347 -0.0847,-0.89747 v -6.29919 c 0,-1.87959 -1.03293,-2.79399 -3.200393,-2.79399 -2.099729,0 -3.318927,0.89746 -3.318927,2.43839 v 1.25307 h 2.709328 v -1.08373 c 0,-0.54187 0.186267,-0.8128 0.558799,-0.8128 0.372533,0 0.558803,0.254 0.558803,0.762 0,0.89746 -0.643469,1.06679 -1.9812,1.81186 -1.69333,0.93133 -1.84573,1.23613 -1.84573,3.16653 0,1.74413 0.423333,2.65852 1.94733,2.65852 0.931331,0 1.65946,-0.50799 1.84573,-1.30386 z m 0.0169,-1.71026 c 0,0.54186 -0.13546,0.8128 -0.558796,0.8128 -0.423333,0 -0.558799,-0.254 -0.558799,-0.8128 v -0.762 c 0,-0.5588 0.423332,-0.74507 1.117595,-1.33773 z"
         style="stroke-width:0.265"
         id="path1975" />
      <path
         d="m 107.01702,150.54128 v -5.53719 h 1.20226 v -1.778 h -1.20226 v -1.77799 h -2.70933 v 1.77799 h -0.88053 v 1.778 h 0.88053 v 5.53719 c 0,1.7272 0.508,2.4384 2.16746,2.4384 h 1.74413 v -1.71027 h -0.22013 c -0.88053,0 -0.98213,-0.11853 -0.98213,-0.72813 z"
         style="stroke-width:0.265"
         id="path1977" />
      <path
         d="m 111.45355,142.54876 v -1.76106 h -2.70932 v 1.76106 z m 0,10.43092 v -9.75359 h -2.70932 v 9.75359 z"
         style="stroke-width:0.265"
         id="path1979" />
      <path
         d="m 112.11397,146.46035 v 3.28506 c 0,2.37067 0.81279,3.47133 3.25119,3.47133 2.45533,0 3.26813,-1.10066 3.26813,-3.47133 v -3.28506 c 0,-2.37066 -0.82974,-3.47132 -3.26813,-3.47132 -2.45533,0 -3.25119,1.10066 -3.25119,3.47132 z m 2.69239,-0.91439 c 0,-0.54187 0.18627,-0.8128 0.5588,-0.8128 0.37253,0 0.5588,0.27093 0.5588,0.8128 v 5.02919 c 0,0.54186 -0.1524,0.8128 -0.5588,0.8128 -0.4064,0 -0.5588,-0.27094 -0.5588,-0.8128 z"
         style="stroke-width:0.265"
         id="path1981" />
      <path
         d="m 125.81302,152.97968 v -7.17972 c 0,-1.79493 -0.3048,-2.77707 -1.81186,-2.77707 -0.89747,0 -1.54093,0.44027 -2.04893,1.33774 h -0.0339 v -1.13454 h -2.6416 v 9.75359 h 2.70933 v -6.89186 c 0,-0.54186 0.13547,-0.82973 0.5588,-0.82973 0.42333,0 0.5588,0.254 0.5588,0.82973 v 6.89186 z"
         style="stroke-width:0.265"
         id="path1983" />
      <path
         d="m 132.97582,146.68049 v -1.08373 c 0,-1.65947 -1.15147,-2.60773 -3.23427,-2.60773 -2.11666,0 -3.30199,0.9652 -3.30199,2.72626 0,1.6256 0.762,2.0828 2.30293,3.04799 0.99906,0.62654 1.5748,0.77894 1.5748,1.778 0,0.5588 -0.22014,0.8636 -0.6096,0.8636 -0.38947,0 -0.5588,-0.254 -0.5588,-0.82973 v -1.3716 h -2.67546 v 1.08373 c 0,1.99813 1.03293,2.92946 3.23426,2.92946 2.11666,0 3.28506,-1.016 3.28506,-2.84479 0,-1.65947 -0.59267,-2.1336 -2.15053,-3.11573 -1.20226,-0.762 -1.71026,-0.89747 -1.71026,-1.7272 0,-0.59266 0.18626,-0.8636 0.60959,-0.8636 0.42334,0 0.5588,0.28787 0.5588,0.88054 v 1.13453 z"
         style="stroke-width:0.265"
         id="path1985" />
    </g>
  </g>
</svg>
