<?xml version="1.0" encoding="UTF-8" ?>
<!DOCTYPE svg PUBLIC "-//W3C//DTD SVG 1.1//EN" "http://www.w3.org/Graphics/SVG/1.1/DTD/svg11.dtd">
<svg width="300pt" height="143pt" viewBox="0 0 300 143" version="1.1" xmlns="http://www.w3.org/2000/svg">
<path fill="#ffffff" stroke="#ffffff" stroke-width="0.09375" opacity="1.00" d=" M 130.1 5.0 C 131.5 2.8 133.9 1.9 135.9 0.7 C 142.1 -0.5 149.1 4.4 148.8 11.0 C 149.5 18.4 140.7 24.1 134.1 20.9 C 130.7 19.5 129.0 15.9 126.2 13.7 C 124.4 12.8 122.4 13.3 120.6 13.4 C 119.5 14.8 118.0 16.1 117.8 18.0 C 117.7 20.1 118.9 22.2 120.7 23.3 C 122.5 24.0 124.5 24.0 126.4 23.4 C 127.8 22.6 128.8 21.1 129.9 19.9 C 129.9 21.3 129.9 22.6 129.8 24.0 C 129.1 25.0 128.0 25.6 127.1 26.4 C 124.9 26.7 122.6 27.1 120.4 26.5 C 116.7 25.1 114.1 21.0 114.9 17.1 C 115.6 12.5 120.6 8.9 125.1 10.1 C 129.9 10.8 131.6 16.4 135.7 18.3 C 138.4 19.1 141.6 18.7 143.5 16.6 C 146.2 14.3 146.4 10.1 144.7 7.2 C 143.8 5.4 141.7 4.7 140.1 3.6 C 135.6 3.0 131.3 6.0 130.3 10.4 C 130.2 8.6 130.1 6.8 130.1 5.0 Z" />
<path fill="#ffffff" stroke="#ffffff" stroke-width="0.09375" opacity="1.00" d=" M 84.3 29.6 C 88.0 29.7 91.7 29.6 95.4 29.7 C 94.9 30.0 94.1 30.5 93.6 30.7 C 93.4 31.2 93.0 32.3 92.8 32.9 C 92.8 40.9 92.8 49.0 92.8 57.0 C 92.8 60.3 95.1 62.9 97.7 64.5 C 99.2 64.5 100.7 64.5 102.3 64.5 C 104.0 63.2 106.0 62.0 106.7 59.8 C 107.4 58.0 107.2 55.9 107.3 54.0 C 107.2 47.3 107.3 40.6 107.2 33.9 C 107.5 32.0 106.2 30.4 104.7 29.6 C 108.4 29.7 112.1 29.7 115.8 29.6 C 114.3 30.6 113.3 32.1 113.6 34.0 C 113.4 42.7 113.9 51.4 113.3 60.2 C 110.7 67.3 101.9 70.0 95.1 67.7 C 90.3 66.5 86.4 62.1 86.5 57.1 C 86.4 48.7 86.5 40.2 86.4 31.8 C 85.7 31.1 85.0 30.3 84.3 29.6 Z" />
<path fill="#ffffff" stroke="#ffffff" stroke-width="0.09375" opacity="1.00" d=" M 175.7 31.8 C 179.1 29.1 183.7 28.5 187.9 29.0 C 189.4 29.2 190.9 29.5 192.4 29.7 C 192.5 31.7 192.5 33.6 192.6 35.5 C 189.6 32.4 184.7 31.9 181.0 33.9 C 178.0 35.7 177.4 40.5 180.3 42.7 C 184.7 46.1 190.7 47.4 194.1 52.0 C 197.2 56.2 195.8 62.7 191.6 65.6 C 186.4 69.1 179.5 69.0 173.7 67.5 C 173.2 65.4 172.5 63.3 171.8 61.2 C 173.5 62.3 175.3 63.2 177.1 64.1 C 179.1 64.4 181.1 64.8 183.1 64.4 C 186.2 63.8 189.6 61.5 189.6 58.0 C 189.6 55.3 186.9 53.9 184.9 52.8 C 180.5 50.2 174.9 48.3 172.7 43.3 C 171.3 39.3 172.3 34.5 175.7 31.8 Z" />
<path fill="#ffffff" stroke="#ffffff" stroke-width="0.09375" opacity="1.00" d=" M 196.6 29.6 C 200.2 29.7 203.8 29.6 207.4 29.8 C 206.9 30.0 206.0 30.4 205.5 30.6 C 204.3 35.0 205.0 39.5 204.8 44.0 C 204.9 48.7 204.7 53.4 205.0 58.1 C 205.3 61.8 208.9 65.1 212.6 64.6 C 216.1 64.4 218.3 61.3 219.3 58.2 C 219.3 49.7 219.1 41.1 219.4 32.6 C 218.7 31.5 217.8 30.5 216.8 29.6 C 220.6 29.7 224.3 29.6 228.0 29.6 C 226.5 30.3 225.7 31.4 225.7 33.0 C 225.5 41.0 225.7 49.0 225.6 57.1 C 225.7 61.3 222.9 65.3 219.0 67.0 C 213.8 69.3 207.2 69.0 202.5 65.4 C 200.7 64.1 199.8 62.0 198.7 60.1 C 198.1 51.1 198.7 42.0 198.4 33.0 C 198.6 31.5 197.2 30.7 196.6 29.6 Z" />
<path fill="#ffffff" stroke="#ffffff" stroke-width="0.09375" opacity="1.00" d=" M 59.8 29.6 C 67.5 29.7 75.2 29.6 82.8 29.6 C 82.8 31.7 82.7 33.7 82.5 35.8 C 82.2 35.2 81.6 34.2 81.3 33.6 C 76.9 33.4 72.5 33.5 68.1 33.5 C 68.2 37.4 68.1 41.3 68.1 45.2 C 72.0 45.2 75.9 45.2 79.8 45.2 C 79.8 47.0 79.9 48.8 79.9 50.6 C 76.7 47.7 72.2 49.1 68.3 48.8 C 68.2 54.6 67.9 60.5 68.5 66.2 C 68.9 66.5 69.9 67.0 70.4 67.3 C 66.8 67.5 63.2 67.4 59.6 67.4 C 60.2 66.7 60.8 66.0 61.5 65.3 C 61.6 54.8 61.5 44.4 61.5 34.0 C 61.7 32.3 60.8 30.9 59.8 29.6 Z" />
<path fill="#ffffff" stroke="#ffffff" stroke-width="0.09375" opacity="1.00" d=" M 119.1 29.6 C 122.5 29.7 125.9 29.7 129.4 29.5 C 128.1 30.7 127.1 32.2 127.4 34.0 C 127.4 45.6 127.4 57.3 127.4 69.0 C 127.5 71.1 126.9 73.1 126.3 75.1 C 124.0 79.0 120.0 81.2 115.7 82.5 C 118.5 79.7 120.7 76.1 120.7 72.1 C 120.8 59.4 120.8 46.7 120.8 34.0 C 121.0 32.3 120.1 30.8 119.1 29.6 Z" />
<path fill="#ffffff" stroke="#ffffff" stroke-width="0.09375" opacity="1.00" d=" M 132.7 29.6 C 136.2 29.7 139.7 29.7 143.1 29.6 C 140.6 31.3 141.4 34.4 141.2 37.0 C 141.4 46.7 140.9 56.4 141.5 66.1 C 142.0 66.4 142.9 67.0 143.4 67.3 C 139.8 67.5 136.2 67.4 132.6 67.5 C 133.5 66.4 134.8 65.5 134.6 64.0 C 134.7 54.0 134.6 44.0 134.6 34.0 C 134.9 32.2 133.9 30.8 132.7 29.6 Z" />
<path fill="#ffffff" stroke="#ffffff" stroke-width="0.09375" opacity="1.00" d=" M 144.4 35.7 C 145.1 33.7 145.8 31.6 146.5 29.6 C 155.0 29.7 163.5 29.6 172.1 29.7 C 171.5 31.9 170.9 34.1 170.3 36.3 C 169.6 35.4 169.5 33.6 168.0 33.6 C 165.9 33.4 163.7 33.5 161.6 33.5 C 161.6 43.7 161.5 53.8 161.6 64.0 C 161.4 65.5 162.8 66.4 163.5 67.5 C 159.9 67.4 156.2 67.6 152.6 67.2 C 153.1 67.0 154.1 66.6 154.5 66.4 C 155.0 64.6 155.2 62.8 155.2 61.0 C 155.1 51.8 155.2 42.7 155.1 33.5 C 151.4 33.6 147.2 32.6 144.4 35.7 Z" />
<path fill="#ffffff" stroke="#ffffff" stroke-width="0.09375" opacity="1.00" d=" M 211.4 73.0 C 240.7 73.0 270.0 73.0 299.3 73.0 C 299.3 96.1 299.3 119.2 299.3 142.3 C 270.0 142.3 240.7 142.3 211.4 142.3 C 211.4 119.2 211.4 96.1 211.4 73.0 M 214.4 76.0 C 214.4 97.4 214.4 118.7 214.4 140.1 C 241.7 140.2 269.1 140.2 296.4 140.1 C 296.4 118.7 296.4 97.4 296.4 76.0 C 269.1 76.0 241.7 76.0 214.4 76.0 Z" />
<path fill="#ffffff" stroke="#ffffff" stroke-width="0.09375" opacity="1.00" d=" M 2.9 78.0 C 26.2 78.0 49.5 78.0 72.9 78.0 C 72.9 86.1 72.9 94.2 72.9 102.2 C 67.9 102.2 62.9 102.3 57.9 102.2 C 57.9 98.2 57.9 94.1 57.9 90.1 C 48.1 90.0 38.3 90.1 28.6 90.0 C 28.6 94.4 28.6 98.7 28.6 103.0 C 35.5 103.0 42.4 103.0 49.3 103.0 C 49.3 107.3 49.3 111.5 49.3 115.8 C 42.4 115.8 35.5 115.8 28.6 115.8 C 28.6 119.4 28.6 123.0 28.6 126.6 C 31.2 126.6 33.8 126.6 36.4 126.6 C 36.4 130.1 36.4 133.7 36.4 137.2 C 25.0 137.3 13.6 137.2 2.1 137.3 C 2.1 133.7 2.1 130.1 2.1 126.5 C 4.8 126.6 7.4 126.6 10.0 126.6 C 10.0 114.4 10.0 102.2 10.0 90.0 C 7.6 90.0 5.2 90.0 2.9 90.0 C 2.9 86.0 2.9 82.0 2.9 78.0 Z" />
<path fill="#ffffff" stroke="#ffffff" stroke-width="0.09375" opacity="1.00" d=" M 77.1 78.0 C 86.1 78.0 95.1 78.0 104.0 78.0 C 106.1 82.5 108.5 86.9 110.6 91.4 C 113.3 97.9 116.7 104.1 119.8 110.4 C 125.5 99.6 130.4 88.5 136.6 78.0 C 145.8 78.0 155.0 78.0 164.3 78.0 C 164.3 81.5 164.3 85.1 164.3 88.7 C 161.9 88.7 159.5 88.7 157.1 88.7 C 157.1 100.8 157.1 113.0 157.1 125.1 C 159.3 125.1 161.4 125.1 163.6 125.1 C 163.6 129.2 163.6 133.2 163.6 137.3 C 153.1 137.3 142.6 137.3 132.1 137.3 C 132.1 133.2 132.1 129.2 132.1 125.1 C 134.0 125.1 136.0 125.1 137.9 125.1 C 137.8 118.5 137.9 111.9 137.8 105.3 C 132.4 115.9 127.1 126.7 121.7 137.3 C 119.1 137.3 116.4 137.3 113.8 137.3 C 110.1 130.6 106.4 124.0 103.1 117.1 C 100.9 112.9 99.2 108.5 96.6 104.6 C 96.3 111.4 96.5 118.2 96.4 125.1 C 98.3 125.1 100.2 125.1 102.1 125.1 C 102.1 129.2 102.2 133.2 102.1 137.3 C 93.8 137.3 85.5 137.3 77.1 137.3 C 77.1 133.2 77.1 129.2 77.1 125.1 C 79.5 125.1 81.9 125.1 84.3 125.1 C 84.3 113.0 84.3 100.8 84.3 88.7 C 81.9 88.7 79.5 88.7 77.1 88.7 C 77.2 85.1 77.1 81.5 77.1 78.0 Z" />
<path fill="#ffffff" stroke="#ffffff" stroke-width="0.09375" opacity="1.00" d=" M 222.0 78.6 C 244.3 78.6 266.5 78.5 288.8 78.6 C 288.8 83.1 288.7 87.6 288.8 92.2 C 286.7 93.3 284.6 94.4 282.4 95.4 C 277.8 98.4 274.5 102.8 271.9 107.5 C 271.0 110.1 269.5 112.4 268.8 115.0 C 268.3 117.9 267.2 120.8 266.5 123.7 C 266.5 124.9 266.5 126.1 266.5 127.3 C 265.0 130.2 266.0 133.5 266.0 136.6 C 258.3 136.6 250.5 136.5 242.8 136.6 C 242.9 135.2 242.7 133.6 243.4 132.3 C 243.3 128.8 244.7 125.7 245.5 122.4 C 247.7 114.6 251.5 107.0 257.5 101.5 C 260.1 98.9 262.5 96.2 265.5 94.1 C 266.4 93.5 267.3 92.9 268.2 92.2 C 260.5 92.3 252.7 92.2 245.0 92.2 C 242.7 92.2 240.6 92.9 238.4 93.2 C 237.2 93.9 236.1 94.6 235.0 95.3 C 234.7 96.9 234.4 98.5 234.2 100.1 C 230.2 100.0 226.1 100.1 222.1 100.0 C 222.2 92.9 222.3 85.7 222.0 78.6 Z" />
<path fill="#ffffff" stroke="#ffffff" stroke-width="0.09375" opacity="1.00" d=" M 170.7 101.5 C 180.7 101.5 190.7 101.5 200.7 101.5 C 200.7 105.3 200.7 109.2 200.7 113.0 C 190.7 113.0 180.7 113.0 170.7 113.0 C 170.7 109.2 170.7 105.3 170.7 101.5 Z" />
</svg>
