<?xml version="1.0" encoding="UTF-8" standalone="no"?>
<!-- Created with Inkscape (http://www.inkscape.org/) -->

<svg
   version="1.1"
   id="svg2058"
   width="1382"
   height="304.19705"
   viewBox="0 0 1382 304.19705"
   sodipodi:docname="furry.svg"
   inkscape:version="1.2.2 (b0a8486541, 2022-12-01)"
   xmlns:inkscape="http://www.inkscape.org/namespaces/inkscape"
   xmlns:sodipodi="http://sodipodi.sourceforge.net/DTD/sodipodi-0.dtd"
   xmlns="http://www.w3.org/2000/svg"
   xmlns:svg="http://www.w3.org/2000/svg">
  <sodipodi:namedview
     id="namedview2095"
     pagecolor="#505050"
     bordercolor="#eeeeee"
     borderopacity="1"
     inkscape:showpageshadow="0"
     inkscape:pageopacity="0"
     inkscape:pagecheckerboard="0"
     inkscape:deskcolor="#505050"
     showgrid="false"
     inkscape:zoom="0.71068836"
     inkscape:cx="825.95977"
     inkscape:cy="187.1425"
     inkscape:window-width="1920"
     inkscape:window-height="1048"
     inkscape:window-x="2560"
     inkscape:window-y="0"
     inkscape:window-maximized="1"
     inkscape:current-layer="svg2058" />
  <defs
     id="defs2062" />
  <path
     style="fill:#ffffff"
     d="M 1200,98.391208 V 26.391207 h 33.5 33.5 v 38.500001 38.500002 h 21.5 21.5 v 33.5 33.5 h -55 -55 z"
     id="path2235" />
  <path
     style="fill:#ffffff"
     d="m 696.00002,146.39121 v -34.01939 l 47.74996,0.25969 47.75,0.2597 v 33.5 33.5 l -47.75,0.2597 -47.74996,0.25969 z"
     id="path2233" />
  <path
     style="fill:#ffffff"
     d="m 527.45134,235.84808 c -0.85074,-6.80911 -3.00536,-6.92244 -2.58803,-0.13613 0.26627,4.33002 0.11418,4.67401 -2.03778,4.60897 -4.93403,-0.14912 -6.28197,-1.42702 -7.32905,-6.94829 -1.408,-7.42434 -3.9895,-8.20157 -2.98511,-0.89874 l 0.73209,5.32292 -2.37173,-1.55527 c -1.30445,-0.85539 -3.37079,-3.01826 -4.59187,-4.80637 -2.07626,-3.04042 -2.12487,-3.47915 -0.75,-6.76966 2.13213,-5.10292 1.82688,-7.84853 -1.13131,-10.17544 -5.48127,-4.31157 -15.75815,-3.53206 -19.0176,1.44249 -1.71121,2.61163 -5.38095,3.37115 -5.38095,1.11369 0,-0.73973 -1.8,-4.12992 -4,-7.53375 -4.82145,-7.45972 -4.99028,-10.22939 -0.90702,-14.87997 3.84637,-4.38078 3.68514,-5.92145 -2.17057,-20.74132 l -4.34638,-11 -0.0122,-13.5 c -0.0107,-11.80598 0.27928,-14.2306 2.31089,-19.32232 2.99226,-7.49933 10.19495,-16.85304 17.84763,-23.17768 5.73638,-4.74088 6.06877,-5.25888 6.41379,-9.995482 0.35375,-4.85624 0.51441,-5.08527 5.76385,-8.21666 2.96997,-1.77164 5.89497,-3.40735 6.5,-3.63491 1.69313,-0.63682 -2.63531,-7.70644 -6.77224,-11.06106 -3.3639,-2.72777 -4.23282,-2.92912 -14.01171,-3.24697 C 473.55735,70.311678 467.8569,68.570498 479,68.409858 l 7.5,-0.10813 -7,-2.2796 c -6.90099,-2.24736 -13.94902,-5.524113 -12,-5.579013 0.9171,-0.0258 7.3698,1.586613 13.5,3.373473 1.375,0.40079 -1.55,-1.76987 -6.5,-4.823683 -15.11583,-9.32545 -17.51709,-12.23752 -5.82836,-7.06821 3.15077,1.39342 5.5261,2.33381 5.27852,2.08976 -0.24759,-0.24405 -4.77051,-3.74662 -10.05093,-7.78349 -11.47582,-8.77323 -19.57277,-15.83976 -18.14946,-15.83976 1.41379,0 16.73734,10.21985 28.21386,18.81688 5.205,3.89905 9.62522,6.9276 9.82271,6.73012 0.19748,-0.19749 -3.16844,-4.56385 -7.47983,-9.70304 -10.08872,-12.02576 -20.07495,-26.421498 -24.67401,-35.568998 -5.57728,-11.09320039 -4.91715,-11.8466904 3.67202,-4.1912904 5.72023,5.0983604 12.81607,13.3560304 22.69965,26.4163284 2.91355,3.85 5.03724,6.325 4.71932,5.5 -0.31792,-0.825 -2.68413,-6.675 -5.25825,-12.999998 -5.3099,-13.04727 -8.75879,-23.6193504 -8.22635,-25.21669039 0.50079,-1.50236001 5.6713,6.86928999 11.36741,18.40513039 2.63115,5.32864 5.08867,9.50008 5.46116,9.26987 0.37249,-0.23021 1.78754,2.159988 3.14455,5.311558 5.06465,11.76226 4.64416,11.34226 4.73562,4.73013 0.0589,-4.2615 0.36387,-5.56537 1.05237,-4.5 0.68163,1.05474 0.97392,-0.40471 0.98469,-4.916668 0.0188,-7.88703 1.054,-7.20171 2.57957,1.707748 1.13434,6.62461 1.15826,6.66179 1.90355,2.95892 0.41512,-2.0625 1.12712,-3.749998 1.58221,-3.749998 1.55728,0 2.23498,9.383598 1.62086,22.442778 l -0.61403,13.057223 3.94832,2.72394 c 2.22178,1.5328 5.29514,5.11039 7.02831,8.18139 l 3.07999,5.45745 8.89452,-0.57626 8.89452,-0.57625 3.12117,5.02091 3.12117,5.02091 8.37275,1.08082 c 10.82278,1.39708 22.31418,5.28992 29.37379,9.950712 8.73484,5.76678 18.15661,15.80532 22.25923,23.71638 8.01252,15.4505 7.94,31.19214 -0.23824,51.71994 C 598.76057,182.01229 597,187.48549 597,188.7738 c 0,1.28832 1.35,4.04115 3,6.11741 3.84509,4.83842 3.77479,6.8762 -0.45385,13.15536 -1.89961,2.82077 -3.74839,6.30226 -4.1084,7.73665 -0.84443,3.36447 -3.85827,3.42202 -6.02507,0.11506 -3.25914,-4.97406 -13.32045,-5.72726 -18.81123,-1.40821 -2.90476,2.28489 -3.13001,3.89622 -1.43208,10.24457 1.06208,3.971 0.96395,4.6606 -1.06955,7.51638 -1.2314,1.72934 -3.17654,3.64606 -4.32253,4.25938 -2.01597,1.07891 -2.06394,0.94896 -1.47757,-4.00203 0.46703,-3.94334 0.2943,-5.11716 -0.753,-5.11716 -0.86486,0 -1.59899,1.74461 -2.01891,4.79782 -0.86762,6.30836 -1.50294,7.16161 -5.85873,7.86845 L 550,240.65289 v -5.13084 c 0,-2.82196 -0.39375,-5.13084 -0.875,-5.13084 -0.94563,0 -2.125,4.78687 -2.125,8.625 0,2.09867 -0.45902,2.375 -3.94521,2.375 h -3.94521 l -0.30479,-4.67183 C 538.36952,230.04763 536,229.69998 536,236.30788 v 5.08333 h -3.92804 -3.92805 z M 534,210.89121 c 1.60593,-1.93503 3.97817,-1.90402 6.82387,0.0892 1.24789,0.87406 2.97955,1.31649 3.84812,0.98318 2.44682,-0.93893 1.27844,-9.93178 -1.70265,-13.105 -2.9454,-3.13524 -3.58272,-3.09742 -4.76271,0.28263 l -0.96004,2.75 -0.7317,-2.75 c -0.40244,-1.5125 -1.30617,-2.75 -2.00829,-2.75 -1.56067,0 -4.42055,4.21316 -5.56237,8.19445 -1.5981,5.57227 1.97051,10.02306 5.05577,6.30555 z m -15.74797,-17.92675 c 4.27356,-1.52509 10.62342,-6.08511 11.44123,-8.21629 0.7739,-2.01673 -1.4247,-4.13458 -11.1508,-10.74126 l -8.50021,-5.77396 -10.42707,-0.74424 c -6.91343,-0.49344 -11.27001,-1.29654 -12.92857,-2.38327 -3.46176,-2.26824 -4.01767,-0.40588 -2.08932,6.99954 2.96583,11.38968 7.58203,16.69545 17.63337,20.26749 6.2848,2.23348 10.93964,2.40548 16.02137,0.59199 z m 57.92359,-2.38189 C 585.01362,186.17161 591,176.789 591,167.34792 v -4.00282 l -2.59405,1.69969 c -1.77021,1.15989 -5.94129,1.9386 -13.13357,2.45195 -10.43658,0.74491 -10.60903,0.79898 -17.65595,5.53582 C 549.27857,178.63716 545,182.31962 545,183.89121 c 0,1.84301 5.18042,6.23346 10,8.47507 6.18157,2.87509 12.99014,2.30157 21.17562,-1.78371 z"
     id="path2231" />
  <path
     style="fill:#ffffff"
     d="m 1205,232.89121 v -33.5 h 43.2656 43.2657 L 1303.2656,187.62619 1315,175.86117 V 101.12619 26.391207 h 33.5 33.5 v 88.755953 88.75596 l -31.2559,31.24404 -31.2558,31.24405 H 1262.2441 1205 Z"
     id="path2229" />
  <path
     style="fill:#ffffff"
     d="M 997.99998,146.39121 V 26.391207 H 1094 h 96 v 45.737491 45.737492 l -14.2371,14.26251 -14.237,14.26251 14.237,14.26251 14.2371,14.26251 v 45.73749 45.73749 H 1156.5 1123 V 234.6249 202.85859 l -11.25,-11.20972 -11.25,-11.20972 -15,-0.27397 -15,-0.27397 v -33.5 -33.5 l 15,-0.27533 15,-0.27533 8.75,-8.70382 c 4.8125,-4.787102 8.75,-9.050702 8.75,-9.474672 0,-0.42397 -11.925,-0.77085 -26.5,-0.77085 H 1065 v 86.500002 86.5 h -33.5 -33.50002 z"
     id="path2227" />
  <path
     style="fill:#ffffff"
     d="m 837.24398,235.13535 -31.244,-31.25586 V 115.13535 26.391207 h 33.5 33.5 v 74.734983 74.73498 l 11.7344,11.76502 11.7343,11.76502 h 12.2657 12.2656 v -86.5 -86.500003 h 34 34 v 120.000003 120 h -60.256 -60.2559 z"
     id="path2225" />
  <path
     style="fill:#ffffff"
     d="M 624,146.39121 V 26.391207 h 86.50002 86.49996 v 33.499998 33.500003 h -53 -52.99996 v 86.500002 86.5 H 657.5 624 Z"
     id="path2223" />
  <path
     style="fill:#ffffff"
     d="M 268,146.39121 V 26.391207 h 60.24414 60.24414 L 419.74414,57.635255 451,88.879298 v 88.755962 88.75595 H 417.5 384 V 191.65623 116.92125 L 372.26563,105.15623 360.53126,93.391208 H 348.26563 336 v 86.500002 86.5 h -34 -34 z"
     id="path2221" />
  <path
     style="fill:#ffffff"
     d="M 107.74395,235.63526 77,204.8793 V 115.63526 26.391207 h 59.74414 59.74414 L 227.74414,57.635255 259,88.879298 v 88.755962 88.75595 H 198.74395 138.4879 Z M 192,158.12558 V 116.85995 L 180.23498,105.12558 168.46996,93.391208 H 156.23498 144 v 41.234982 41.23498 l 11.73437,11.76502 11.73437,11.76502 H 179.73437 192 Z"
     id="path2219" />
  <path
     style="fill:#ffffff"
     d="M 0,146.39121 V 26.391207 H 33.5 67 v 120.000003 120 H 33.5 0 Z"
     id="path2217" />
  <path
     style="fill:#ffffff"
     d="M 317.5,303.31554 C 144.80329,301.80244 13.6681,298.45931 10.70291,295.49412 6.18229,290.9735 153.58917,288.03164 475.25,286.22294 c 386.95248,-2.17583 851.313,1.88091 892.5752,7.7977 26.8632,3.85205 -92.9247,7.35519 -320.8252,9.3824 -123.73962,1.10068 -600.41344,1.0435 -729.5,-0.0875 z"
     id="path2068" />
</svg>
