<?xml version="1.0" encoding="utf-8"?>
<svg width="100%" height="100%" viewBox="0 0 401 58" version="1.1" xmlns="http://www.w3.org/2000/svg" style="fill-rule:evenodd;clip-rule:evenodd;stroke-linejoin:round;stroke-miterlimit:2;">
  <path d="M 32.688 49.032 L 32.688 57.168 L 8.136 57.168 L 8.136 49.032 L 0 49.032 L 0 8.136 L 8.136 8.136 L 8.136 49.032 L 32.688 49.032 Z M 32.688 49.032 L 32.688 32.688 L 16.344 32.688 L 16.344 24.48 L 40.896 24.48 L 40.896 49.032 L 32.688 49.032 Z M 8.136 8.136 L 8.136 0 L 32.688 0 L 32.688 8.136 L 40.896 8.136 L 40.896 16.344 L 32.688 16.344 L 32.688 8.136 L 8.136 8.136 Z" style="fill: white; fill-rule: nonzero; stroke-width: 1;"/>
  <path d="M 73.512 16.272 L 65.376 16.272 L 65.376 0 L 73.512 0 L 73.512 16.272 L 81.72 16.272 L 81.72 32.616 L 89.928 32.616 L 89.928 57.168 L 81.72 57.168 L 81.72 40.824 L 57.24 40.824 L 57.24 57.168 L 49.032 57.168 L 49.032 32.688 L 57.168 32.688 L 57.168 16.272 L 65.376 16.272 L 65.376 32.616 L 73.512 32.616 L 73.512 16.272 Z" style="fill: white; fill-rule: nonzero; stroke-width: 1;"/>
  <path d="M 130.752 24.48 L 130.752 32.688 L 122.544 32.688 L 122.544 24.48 L 114.408 24.48 L 114.408 16.272 L 106.272 16.272 L 106.272 57.168 L 98.064 57.168 L 98.064 0 L 106.2 0 L 106.2 8.136 L 114.408 8.136 L 114.408 16.272 L 122.544 16.272 L 122.544 24.48 L 130.752 24.48 Z M 147.096 57.168 L 147.096 16.272 L 138.888 16.272 L 138.888 8.136 L 147.096 8.136 L 147.096 0 L 155.304 0 L 155.304 57.168 L 147.096 57.168 Z M 138.888 16.272 L 138.888 24.48 L 130.752 24.48 L 130.752 16.272 L 138.888 16.272 Z" style="fill: white; fill-rule: nonzero; stroke-width: 1;"/>
  <path d="M 171.648 57.168 L 171.648 0 L 204.336 0 L 204.336 8.136 L 179.784 8.136 L 179.784 24.48 L 196.2 24.48 L 196.2 32.688 L 179.784 32.688 L 179.784 49.032 L 204.336 49.032 L 204.336 57.168 L 171.648 57.168 Z" style="fill: white; fill-rule: nonzero; stroke-width: 1;"/>
  <path d="M 237.096 8.136 L 237.096 57.168 L 228.888 57.168 L 228.888 8.136 L 212.544 8.136 L 212.544 0 L 253.44 0 L 253.44 8.136 L 237.096 8.136 Z" style="fill: white; fill-rule: nonzero; stroke-width: 1;"/>
  <path d="M 277.92 16.272 L 269.784 16.272 L 269.784 0 L 277.92 0 L 277.92 16.272 L 286.128 16.272 L 286.128 32.616 L 294.336 32.616 L 294.336 57.168 L 286.128 57.168 L 286.128 40.824 L 261.648 40.824 L 261.648 57.168 L 253.44 57.168 L 253.44 32.688 L 261.576 32.688 L 261.576 16.272 L 269.784 16.272 L 269.784 32.616 L 277.92 32.616 L 277.92 16.272 Z" style="fill: white; fill-rule: nonzero; stroke-width: 1;"/>
  <path d="M 335.088 57.168 L 335.088 49.032 L 326.952 49.032 L 326.952 32.688 L 318.816 32.688 L 318.816 16.272 L 310.68 16.272 L 310.68 57.168 L 302.472 57.168 L 302.472 0 L 318.816 0 L 318.816 16.272 L 326.952 16.272 L 326.952 32.688 L 335.088 32.688 L 335.088 0 L 343.296 0 L 343.296 57.168 L 335.088 57.168 Z" style="fill: white; fill-rule: nonzero; stroke-width: 1;"/>
  <path d="M 392.4 57.168 L 392.4 49.032 L 384.192 49.032 L 384.192 40.824 L 376.056 40.824 L 376.056 32.688 L 367.92 32.688 L 367.92 57.168 L 359.712 57.168 L 359.712 0 L 367.848 0 L 367.848 24.48 L 376.056 24.48 L 376.056 32.688 L 384.192 32.688 L 384.192 40.824 L 392.4 40.824 L 392.4 49.032 L 400.608 49.032 L 400.608 57.168 L 392.4 57.168 Z M 392.4 8.136 L 392.4 0 L 400.608 0 L 400.608 8.136 L 392.4 8.136 Z M 384.192 16.272 L 384.192 8.136 L 392.4 8.136 L 392.4 16.272 L 384.192 16.272 Z M 376.056 24.48 L 376.056 16.272 L 384.192 16.272 L 384.192 24.48 L 376.056 24.48 Z" style="fill: white; fill-rule: nonzero; stroke-width: 1;"/>
</svg>