<?xml version="1.0" encoding="utf-8"?>
<svg width="100%" height="100%" viewBox="0 0 668 101" version="1.1" xmlns="http://www.w3.org/2000/svg" style="fill-rule:evenodd;clip-rule:evenodd;stroke-linejoin:round;stroke-miterlimit:2;">
  <path d="M 122 2.7 C 121.9 8.3 121.1 9 114.5 9 C 108.5 9 108.2 9.1 107.7 11.7 C 107 15.6 107.5 16 113.1 16 C 117.3 16 118 16.3 118 17.9 C 118 22.2 117 23 111.5 23 C 106.9 23 106.2 23.3 105.6 25.2 C 104.4 29.8 104.7 30 111.6 30 C 117.2 30 118.1 30.2 117.6 31.6 C 117.3 32.5 117 34 117 35.1 C 117 36.9 116.2 37 106.4 37 L 95.8 37 L 96.3 34.2 C 96.6 32.7 97.8 25.2 99 17.5 C 100.2 9.8 101.3 2.9 101.5 2.2 C 101.8 1.4 104.8 1 112 1 C 120.9 1 122 1.2 122 2.7 Z M 180.9 3.8 C 186 7.6 187.5 10.7 187.5 17.8 C 187.5 29.4 181.7 36.9 172.2 37.7 C 157.8 38.9 151.7 19.1 162.7 6.9 C 168.1 0.9 175.3 -0.3 180.9 3.8 Z M 170.8 9.6 C 167 11.6 165 15.9 165 22 C 165 29.7 169.5 33.1 174.8 29.4 C 180.4 25.5 181.9 14.8 177.5 10.5 C 174.7 7.6 174.4 7.6 170.8 9.6 Z M 153.2 4.7 C 156.4 7.8 156.8 11.5 154.5 16 C 153.1 18.7 153.1 19.3 154.5 22 C 155.3 23.6 156 25.7 156 26.7 C 156 29.2 152.6 34.1 149.8 35.6 C 147.3 37 128 37.6 128 36.2 C 128 35.8 129.2 28 130.7 18.7 L 133.3 2 L 141.9 2 C 149.8 2 150.6 2.2 153.2 4.7 Z M 137.7 23.7 C 137.3 24 137 25.6 137 27.2 C 137 30 137.1 30.1 141.6 29.8 C 147.3 29.4 149.7 26.8 146.6 24.4 C 144.6 23 138.9 22.5 137.7 23.7 Z M 139.6 10.6 C 138.1 14.4 138.9 16 142.3 16 C 145.9 16 148 14.5 148 11.9 C 148 8.9 140.7 7.7 139.6 10.6 Z M 194.5 6.7 C 195.6 9.6 196.8 12 197.2 12 C 197.5 12 199.3 9.5 201 6.5 C 204.1 1.1 204.2 1 208.7 1 C 213.2 1 213.2 1 211.8 3.2 C 199.9 21.8 199.6 22.2 198.6 29.4 L 197.5 36.5 L 189.7 37.1 L 190.4 33.8 C 192.6 22.7 192.4 19.9 188.1 10.7 C 185.8 5.9 184 1.7 184 1.4 C 184 1.1 185.9 1 188.2 1.2 C 192.3 1.5 192.5 1.7 194.5 6.7 Z M 32.3 1.7 C 33.1 2.2 33.2 5.2 32.4 7.4 C 31.9 8.6 30.9 8.8 27.6 8.4 C 21.3 7.5 15.8 9.4 11.6 14 C 7.2 18.8 6.8 23.5 10.3 27.4 C 12.7 30.2 17.7 31.6 19.9 30.1 C 21.8 28.9 20.5 26 18 26 C 16.4 26 16 25.3 16 23 L 16 20 L 30.2 20 L 29.6 25.2 C 29 30.1 29.4 29.5 35.4 16 L 41.9 1.5 L 46.4 1.2 C 51.6 0.8 51 -0.2 53.5 15 C 56.1 31.1 55.8 31 60.9 15.5 L 65.5 1.5 L 69.1 1.2 L 72.8 0.9 L 74.5 10.5 C 75.5 15.8 76.5 19.8 76.9 19.5 C 77.2 19.1 79.1 15 81.1 10.2 L 84.7 1.5 L 93.7 0.9 L 94.3 13.7 C 94.7 20.7 95 28.9 95 31.7 L 95 37 L 88.3 37 L 87.6 30.9 C 87.3 27.5 87 22.6 87 20.1 L 86.9 15.5 L 82.3 26.2 C 78 36.1 77.3 37 74.9 37 C 72 37 71.4 35.3 69.4 23 C 69 20.7 68.4 19.2 68 19.7 C 67.6 20.1 66 24.2 64.5 28.7 L 61.8 37 L 49.1 37 L 48.5 33.2 C 47.5 27.1 47.3 27 42.8 27 C 38.6 27 38.4 27.2 36.3 32.1 L 34.1 37.1 L 28.8 37 C 25.9 36.9 21.4 37.2 18.8 37.6 C 15 38.1 13.2 37.8 9.5 36 C 3.3 33 1 29.1 1 21.6 C 1 11.6 7 4.4 17.8 1.4 C 22 0.2 30.2 0.4 32.3 1.7 Z M 43.2 16.5 C 41.6 19.9 41.7 20 44 20 C 46.1 20 46.7 17.6 45.2 15.2 C 44.6 14.3 44 14.7 43.2 16.5 Z M 230.2 41.7 C 231.8 43.2 232 45.2 232 63 C 232 86 232.3 86.8 241.2 89.5 C 252.7 92.9 261.5 90.6 273.5 81 C 285 71.9 292 60.6 292.8 50 C 293.4 41 294.5 40 303.6 40 C 310.4 40 311.1 40.2 312.6 42.5 C 313.9 44.5 314.1 46.5 313.7 51.2 C 312.3 66.5 294.8 90 278.6 98 L 272.7 101 L 248.2 101 C 221.3 101 217.4 100.4 213.4 95.7 L 210.9 92.7 L 211.2 67.8 C 211.5 38.7 211.1 40 221.9 40 C 226.5 40 228.9 40.5 230.2 41.7 Z M 658.2 41.1 C 661.5 41.8 664.4 43.3 666.2 45 L 669 47.8 L 669 70.8 C 669 96.9 668.8 97.5 660.8 100 C 655.5 101.6 582.8 101.5 576.6 99.9 C 574.5 99.3 571.7 97.8 570.4 96.5 C 568 94.1 568 94 568 70.6 L 568 47.2 L 571.1 44.6 C 572.8 43.2 575.4 41.7 576.8 41.4 C 578.3 41.1 580 40.7 580.5 40.5 C 583.3 39.5 653.4 40.1 658.2 41.1 Z M 596.8 53.2 C 594.7 53.7 591.9 55.5 590.5 57.2 C 588.2 60 588 60.9 588 71 C 588 81.1 588.2 82.1 590.5 84.8 C 594.1 89.1 599.3 90 620.2 90 C 647.8 89.9 649.6 88.6 648.9 68.6 C 648.5 59.4 648.3 58.7 645.7 56.5 C 644.2 55.2 641.3 53.6 639.2 53.1 C 634.5 51.7 601.8 51.9 596.8 53.2 Z M 338.8 41.7 C 340.8 43.4 340.9 44.6 341.1 70.7 C 341.3 91.7 341 98.2 340 99.4 C 338.2 101.7 324.8 101.6 322.6 99.4 C 321.2 98.1 321 94 321 70.5 C 321 43.3 321 43.1 323.2 41.6 C 326.4 39.3 336.1 39.5 338.8 41.7 Z M 555.7 42.4 C 560.4 45.3 561.2 48.3 560.8 60.5 C 560.5 70.7 560.4 71.3 557.8 73.5 C 553.4 77.3 546.9 78 516.2 78 C 491.8 78 487.1 77.8 485.2 76.4 C 482.8 74.7 482.3 70.8 484.3 69.2 C 484.9 68.7 494.8 68 506.5 67.7 C 518.1 67.4 529.2 66.7 531.2 66 C 541.3 63 542.7 56.6 534.2 52.7 C 530 50.7 527.5 50.5 510.9 50.2 C 490.8 49.8 485.8 50.5 481.3 54.4 C 478.5 56.8 478.5 56.9 478.5 70 C 478.5 83.1 478.5 83.2 481.3 85.5 C 486 89.6 489.9 90 524.2 90 C 552.5 90 557.1 90.2 558.4 91.6 C 560.3 93.4 560.5 98.1 558.8 99.8 C 557.9 100.7 546.4 101 513 101 C 471.5 101 468.2 100.8 464.3 99.1 C 462 98 459.7 96.3 459.1 95.2 C 458.4 93.9 458 84.7 458 70.2 C 458 49.8 458.2 47 459.8 45.1 C 463.6 40.3 466.5 40 511 40.3 C 550.1 40.5 552.7 40.6 555.7 42.4 Z M 449.4 21.6 C 450.8 22.9 451 27.7 451 58.1 L 451 93.2 L 448.2 96 C 446.6 97.5 443.6 99.3 441.4 99.9 C 436.1 101.4 363.4 101.4 357.5 99.9 C 355.1 99.3 352.1 97.7 350.8 96.3 C 348.5 93.9 348.5 93.6 348.5 70.5 C 348.5 49 348.6 47.1 350.4 45.1 C 354.3 40.8 360.4 40 389.2 40 C 417.9 40 423.2 40.6 427.5 44.6 L 430 46.9 L 430 35.7 C 430 20.8 430.5 20 440.5 20 C 445.9 20 448.3 20.4 449.4 21.6 Z M 380.7 51 C 375.5 52.4 371.2 54.7 370 56.9 C 369.5 58 369 63.7 369 69.5 C 369 86.9 369.7 87.3 397.1 87.8 C 418.4 88.2 423.6 87.5 427.6 83.5 C 429.8 81.2 430 80.4 430 70 C 430 63.9 429.5 58 428.9 56.8 C 428.3 55.7 425.7 53.9 423.2 52.7 C 419.1 50.8 416.4 50.5 401.5 50.3 C 392.2 50.2 382.8 50.5 380.7 51 Z M 391.8 8.2 C 392.5 8.9 393 10.9 393 12.7 C 393 15.8 392.8 16 389.5 16 C 387.1 16 386 15.5 386 14.5 C 386 13.3 384.6 13 379 13 L 372 13 L 372 26 L 379 26 C 385.3 26 386 25.8 386 24 C 386 22.4 386.7 22 389.5 22 C 392.9 22 393 22.1 393 26 C 393 28.9 392.5 30.2 391.1 31 C 388.3 32.4 367.7 32.3 366.2 30.8 C 364.6 29.2 364.6 9.8 366.2 8.2 C 367.9 6.5 390.1 6.5 391.8 8.2 Z M 325 16.8 L 330.5 26 L 331.1 7 L 333.9 7 C 335.9 7 339.5 9.1 345.8 14 C 350.8 17.8 355.1 21 355.4 21 C 355.7 21 356 17.8 356 14 L 356 7 L 362 7 L 362 19.5 C 362 32 362 32 359.6 32 C 358.2 32 353.6 29.1 347.9 24.5 L 338.5 17 L 337.9 32 L 325.5 32 L 321.6 24.7 C 315.1 12.7 315.7 13.1 312.1 19.3 C 310.4 22.3 309 25 309 25.4 C 309 25.7 310.4 26 312 26 C 314.7 26 315 26.3 315 29 L 315 32 L 306.5 32 C 301.8 32 298 31.7 298 31.4 C 298 31.1 301.2 25.5 305.2 18.9 C 312.3 6.9 312.3 6.9 315.9 7.2 C 319.2 7.5 319.8 8.1 325 16.8 Z M 240.8 17.2 L 247 27.5 L 247 7 L 257.9 7 C 263.9 7 270 7.4 271.4 8 C 273.1 8.6 274 8.6 274 8 C 274 7.4 275.7 7 277.9 7 C 281.6 7 281.8 7.2 286.5 15.1 L 291.2 23.3 L 295.5 15.4 C 299.7 7.7 299.8 7.5 303.9 7.2 L 308 6.9 L 300.7 19.4 C 291.6 35.3 290.6 35.6 283.8 24.5 L 279.3 17 L 278.7 21.1 C 277.5 29.8 272.8 32 254.6 32 L 241.2 32 L 237 24.2 C 230.8 12.9 231.2 13.1 227.4 19.7 L 224.1 25.5 L 227.3 26 C 229.9 26.4 230.6 27 230.8 29.2 L 231.1 32 L 222 32 C 217 32 213.1 31.7 213.3 31.2 C 217 25.1 225.5 11 226.6 9.2 C 227.6 7.7 229 7 231.3 7 C 234.4 7 235 7.6 240.8 17.2 Z M 254 26 L 260.3 26 C 268.3 26 271 24.3 271 19.1 C 271 13.8 269.7 13 261.3 13 L 254 13 L 254 26 Z M 422.8 9.7 L 422.5 12.5 L 412.8 12.8 C 405 13 403 13.4 403 14.5 C 403 15.6 404.3 16 408.5 16 C 413.9 16 414 16 414 19 C 414 22 413.9 22 408.5 22 C 403.7 22 403 22.2 403 24 C 403 25.9 403.7 26 413 26 L 423 26 L 423 32 L 396 32 L 396 7 L 423.1 7 L 422.8 9.7 Z" style="fill:white;"/>
</svg>