<?xml version="1.0" encoding="UTF-8" ?>
<!DOCTYPE svg PUBLIC "-//W3C//DTD SVG 1.1//EN" "http://www.w3.org/Graphics/SVG/1.1/DTD/svg11.dtd">
<svg width="2674pt" height="374pt" viewBox="0 0 2674 374" version="1.1" xmlns="http://www.w3.org/2000/svg">
<path fill="#ffffff" stroke="#ffffff" stroke-width="0.09375" opacity="1.00" d=" M 283.5 0.0 L 294.5 0.0 C 305.0 1.1 315.7 1.5 326.0 4.3 C 341.6 7.8 356.7 13.9 369.5 23.5 C 383.4 34.0 393.9 48.8 399.8 65.1 C 403.9 75.5 405.8 86.7 407.3 97.7 C 375.2 109.8 343.1 121.8 311.0 133.8 C 310.4 122.4 308.0 110.8 302.1 100.9 C 298.0 94.5 292.8 88.5 286.0 85.0 C 272.9 77.9 257.4 77.3 243.0 79.2 C 217.2 83.2 193.9 97.4 175.7 115.7 C 162.0 128.8 151.3 144.6 141.9 161.0 C 137.6 169.2 133.9 177.7 130.5 186.4 C 124.2 204.1 120.7 223.0 121.9 241.9 C 122.9 251.6 125.1 261.3 130.2 269.8 C 135.9 279.4 144.2 287.6 154.4 292.4 C 164.9 296.9 176.6 297.9 188.0 297.2 C 203.1 296.9 218.0 292.4 231.3 285.3 C 238.6 281.7 245.3 276.8 251.0 271.0 C 261.3 261.6 268.4 249.5 274.2 237.0 C 250.2 237.0 226.1 237.0 202.0 237.0 C 210.2 213.2 218.4 189.4 226.8 165.7 C 280.7 165.8 334.6 165.8 388.6 165.7 C 406.7 113.8 424.7 61.8 442.8 9.9 C 485.6 10.1 528.3 10.0 571.0 10.0 C 580.9 9.9 590.7 10.0 600.5 10.6 C 618.2 12.5 636.5 15.3 651.7 25.3 C 661.0 32.1 668.0 42.4 670.0 53.9 C 672.6 66.6 670.4 79.7 666.9 92.1 C 664.7 100.2 661.5 108.1 658.0 115.8 C 663.9 108.7 669.4 101.4 675.9 94.9 C 681.4 88.8 687.1 82.7 693.3 77.3 C 699.8 71.0 707.0 65.6 713.9 59.9 C 719.3 55.4 725.3 51.9 731.0 47.9 C 736.9 43.8 743.4 40.4 749.6 36.6 C 755.9 32.7 762.8 29.8 769.4 26.4 C 775.5 23.2 782.0 21.1 788.4 18.5 C 794.9 15.8 801.7 13.8 808.4 11.5 C 817.2 8.4 826.4 6.7 835.4 4.6 C 844.6 3.2 853.7 1.2 863.0 1.2 C 884.5 0.0 906.3 1.6 926.9 8.2 C 936.6 10.5 945.7 14.7 955.0 18.2 C 946.4 44.1 937.6 69.8 928.9 95.7 C 931.4 92.0 933.9 88.2 936.9 84.9 C 941.8 79.2 946.3 73.0 951.9 67.9 C 968.8 50.2 989.0 35.5 1011.4 25.4 C 1035.8 14.0 1063.2 9.4 1090.0 12.0 C 1105.4 13.6 1120.5 18.8 1133.0 28.0 C 1141.2 33.9 1147.1 42.4 1151.9 51.1 C 1155.5 58.5 1158.0 66.5 1158.5 74.8 C 1165.5 53.8 1173.1 33.0 1180.2 12.0 C 1221.8 12.0 1263.4 12.0 1305.0 12.0 C 1318.4 12.2 1332.0 13.1 1345.0 17.0 C 1352.0 19.1 1359.1 21.6 1365.3 25.6 C 1366.8 21.3 1368.3 16.9 1369.7 12.5 C 1400.2 12.5 1430.6 12.5 1461.0 12.5 C 1430.0 103.2 1399.0 194.0 1368.0 284.8 C 1398.0 284.7 1428.0 284.8 1458.0 284.8 C 1459.2 284.8 1460.6 284.7 1461.2 283.5 C 1522.5 199.4 1583.8 115.2 1645.0 31.0 C 1649.5 24.8 1654.1 18.7 1658.4 12.5 C 1686.3 12.5 1714.1 12.5 1742.0 12.5 C 1747.3 12.5 1752.6 12.7 1758.0 12.3 C 1758.2 13.8 1758.4 15.2 1758.8 16.6 C 1759.2 21.1 1759.3 25.6 1759.5 30.1 C 1764.1 131.5 1768.5 232.9 1773.1 334.4 C 1788.4 288.2 1803.8 242.1 1819.1 196.0 C 1819.6 194.7 1819.6 193.3 1819.1 192.0 C 1800.3 136.7 1781.7 81.3 1763.0 25.9 C 1761.7 22.2 1760.7 18.3 1758.8 14.8 C 1758.8 13.6 1758.9 12.3 1758.9 11.0 L 1759.0 12.5 C 1793.3 12.5 1827.5 12.5 1861.7 12.5 C 1863.1 18.1 1865.1 23.6 1866.8 29.1 C 1875.0 55.3 1883.5 81.4 1891.7 107.6 C 1908.0 90.9 1924.5 74.4 1940.6 57.6 C 1955.4 42.6 1970.3 27.7 1985.0 12.5 C 1995.0 12.5 2005.0 12.5 2015.0 12.5 C 2036.0 12.0 2057.0 12.4 2078.0 12.2 C 2084.7 12.1 2091.3 12.6 2098.0 12.5 C 2133.0 12.5 2168.0 12.5 2203.0 12.5 C 2216.3 12.1 2229.7 12.7 2243.0 12.5 C 2275.3 12.5 2307.7 12.5 2340.0 12.5 C 2359.4 12.6 2379.2 14.9 2397.0 23.0 C 2411.5 29.7 2423.8 42.3 2428.2 57.9 C 2431.0 66.6 2431.3 75.8 2431.2 84.9 C 2436.0 76.7 2442.5 69.8 2448.6 62.5 C 2459.0 52.2 2469.8 42.0 2482.4 34.3 C 2509.7 16.5 2542.3 6.8 2575.0 7.4 C 2585.7 7.8 2596.4 9.0 2606.9 10.9 C 2617.0 13.4 2627.1 15.9 2636.9 19.3 C 2648.2 23.7 2659.2 29.0 2669.2 36.0 C 2649.0 59.6 2628.5 82.9 2608.3 106.5 C 2593.5 88.6 2568.4 80.1 2545.7 84.5 C 2534.3 87.2 2523.3 92.5 2515.2 101.2 C 2510.4 105.9 2507.8 112.5 2506.8 119.1 C 2505.9 123.8 2508.4 128.2 2511.2 131.8 C 2515.1 136.4 2520.5 139.5 2526.0 142.0 C 2541.6 148.4 2558.1 152.4 2573.3 159.7 C 2581.7 164.3 2590.5 168.8 2597.6 175.4 C 2606.0 183.8 2612.5 194.9 2613.1 207.0 C 2615.0 222.0 2611.1 237.0 2605.8 250.9 C 2602.8 258.4 2600.1 266.0 2596.1 273.1 C 2592.3 281.0 2587.6 288.5 2583.1 296.0 C 2573.7 311.5 2560.9 324.7 2546.6 335.6 C 2527.1 350.3 2504.7 361.2 2481.1 367.3 C 2476.3 368.4 2471.5 369.5 2466.7 370.6 C 2460.3 372.1 2453.7 372.5 2447.3 374.0 L 2408.9 374.0 C 2392.8 371.8 2376.8 368.6 2361.9 362.1 C 2359.3 361.2 2356.6 361.5 2354.0 361.5 C 2322.1 361.6 2290.2 361.4 2258.2 361.6 C 2249.3 327.6 2240.3 293.7 2231.3 259.7 C 2228.3 248.7 2225.6 237.5 2222.5 226.5 C 2220.3 230.6 2219.0 235.0 2217.4 239.3 C 2205.1 273.5 2192.9 307.6 2180.6 341.7 C 2178.3 348.3 2175.7 354.8 2173.6 361.6 C 2147.8 361.4 2121.9 361.5 2096.0 361.5 C 2088.3 362.0 2080.7 361.4 2073.0 361.5 C 2014.2 361.5 1955.4 361.4 1896.6 361.6 C 1900.6 351.1 1904.2 340.6 1908.0 330.1 C 1933.9 258.2 1959.7 186.3 1985.4 114.4 C 1959.4 140.7 1933.1 166.7 1906.9 192.9 C 1904.6 195.4 1904.2 199.0 1903.1 202.1 C 1885.4 255.2 1867.8 308.4 1849.9 361.5 C 1825.9 361.5 1802.0 361.5 1778.0 361.5 C 1772.0 361.8 1766.0 361.8 1760.0 361.5 C 1732.1 361.5 1704.1 361.4 1676.2 361.5 C 1675.5 341.4 1674.6 321.2 1673.8 301.0 C 1631.5 301.0 1589.2 301.0 1547.0 301.0 C 1531.9 321.2 1517.0 341.5 1501.8 361.5 C 1486.2 361.5 1470.6 361.5 1455.0 361.5 C 1446.3 361.9 1437.7 361.7 1429.0 361.7 C 1419.0 361.7 1409.0 361.9 1399.0 361.5 C 1349.5 361.5 1300.1 361.4 1250.6 361.6 C 1252.7 356.2 1254.4 350.7 1256.3 345.3 C 1269.2 307.7 1281.9 270.1 1294.8 232.5 C 1287.0 235.4 1279.2 238.6 1271.0 240.3 C 1263.1 242.7 1254.8 243.4 1246.6 244.4 C 1225.0 246.2 1203.4 245.3 1181.7 245.5 C 1168.6 283.1 1155.4 320.6 1142.3 358.2 C 1141.6 359.1 1141.7 361.3 1140.1 361.0 C 1114.1 361.1 1088.1 361.0 1062.2 361.0 C 1061.9 361.5 1061.4 362.5 1061.2 363.0 C 977.7 363.0 894.3 363.0 810.9 363.0 C 812.7 361.6 814.4 360.3 816.1 359.0 C 801.9 362.5 787.6 365.9 772.9 367.1 C 758.0 368.8 743.0 368.2 728.1 366.2 C 715.7 365.0 703.6 361.4 691.9 357.2 C 684.9 355.0 678.5 351.3 672.0 348.0 C 666.9 344.8 662.0 341.4 657.2 337.8 C 653.1 334.2 648.8 330.9 644.9 327.1 C 636.8 318.6 629.1 309.6 623.7 299.1 C 620.1 303.0 616.9 307.4 612.9 310.8 C 608.6 314.5 604.7 318.7 600.0 321.9 C 595.8 324.8 591.9 328.0 587.6 330.6 C 580.9 334.3 574.3 338.4 567.1 341.2 C 559.8 344.6 552.2 347.0 544.6 349.5 C 520.7 356.4 495.8 358.4 471.0 359.0 C 421.1 359.0 371.2 359.0 321.2 359.0 C 332.4 327.1 343.4 295.3 354.6 263.5 C 340.6 284.1 322.7 301.6 303.9 317.8 C 291.1 327.9 277.8 337.6 263.3 345.3 C 256.6 349.2 249.4 352.0 242.3 355.2 C 219.5 364.1 195.4 369.8 171.0 371.5 C 152.3 372.4 133.3 372.0 114.9 367.9 C 95.8 363.7 77.2 355.6 62.2 342.8 C 52.2 335.0 44.3 324.8 38.4 313.6 C 28.1 294.5 24.7 272.5 25.3 251.0 C 26.0 234.2 28.6 217.4 33.4 201.3 C 35.5 194.9 37.5 188.3 40.0 182.0 C 42.7 175.1 45.1 168.0 48.4 161.4 C 51.5 155.1 54.1 148.6 57.6 142.6 C 61.1 136.8 64.3 130.7 68.0 125.0 C 72.8 117.8 77.1 110.4 82.8 103.9 C 94.5 88.7 108.0 74.9 122.4 62.3 C 128.4 57.7 133.8 52.4 140.2 48.2 C 145.8 44.5 151.2 40.4 157.0 37.1 C 162.8 33.8 168.3 30.1 174.4 27.4 C 181.2 24.2 187.9 20.6 195.1 18.1 C 215.6 10.0 237.0 4.0 259.0 1.7 C 267.1 0.4 275.3 0.6 283.5 0.0 M 255.0 17.1 C 247.0 17.9 239.2 19.6 231.4 21.4 C 227.1 22.6 222.9 24.2 218.5 25.3 C 216.5 26.0 214.5 26.6 212.5 27.2 C 209.6 28.6 206.5 29.5 203.6 30.7 C 200.5 31.9 197.4 33.0 194.4 34.2 C 186.2 38.4 177.6 41.8 169.8 46.8 C 161.0 51.6 152.6 57.4 144.4 63.3 C 138.6 68.2 132.6 72.9 127.0 78.0 C 122.0 82.4 117.5 87.2 112.8 91.8 C 108.9 95.6 105.7 100.0 101.8 103.8 C 96.4 110.8 90.4 117.3 85.8 124.9 C 82.4 130.1 78.8 135.3 75.8 140.8 C 71.5 148.2 67.1 155.7 63.7 163.6 C 61.8 167.5 60.1 171.5 58.3 175.5 C 56.9 179.5 55.2 183.5 53.7 187.6 C 51.2 193.7 49.4 200.1 47.2 206.3 C 43.8 216.2 42.5 226.6 41.1 237.0 C 41.3 242.0 39.8 246.9 40.0 252.0 C 40.1 257.3 39.6 262.7 40.7 267.9 C 41.2 275.6 42.1 283.3 44.8 290.5 C 44.9 291.0 45.0 292.0 45.1 292.5 C 46.0 294.5 46.9 296.5 47.7 298.4 C 52.8 310.9 60.4 322.5 71.0 330.9 C 76.2 335.6 82.2 339.4 88.4 342.7 C 102.5 350.2 118.1 354.7 134.0 356.0 C 138.3 356.2 142.6 357.2 147.0 357.0 C 157.0 356.7 167.1 357.7 177.0 356.1 C 191.4 354.9 205.6 351.9 219.5 347.7 C 220.8 347.2 222.1 346.8 223.5 346.3 C 228.8 344.4 234.3 342.8 239.4 340.3 C 242.1 339.1 244.8 337.9 247.6 336.8 C 251.8 334.9 255.8 332.4 259.9 330.2 C 267.3 326.4 274.0 321.4 281.0 316.8 C 287.9 311.5 295.2 306.6 301.3 300.3 C 308.7 294.1 315.3 287.0 322.2 280.2 C 326.0 275.7 330.2 271.5 333.8 266.7 C 337.9 261.8 341.3 256.4 345.3 251.4 C 348.8 248.1 354.1 246.4 358.8 247.8 C 364.3 248.4 368.7 253.3 369.5 258.7 C 370.7 262.7 368.6 266.7 367.8 270.6 C 359.3 295.1 350.8 319.6 342.2 344.0 C 384.8 344.0 427.4 344.0 470.0 344.0 C 478.0 344.2 486.0 343.2 494.0 343.0 C 507.8 341.7 521.7 340.4 535.1 336.8 C 559.3 329.9 583.0 319.0 601.1 301.2 C 607.6 296.1 611.5 288.0 619.4 284.7 C 623.5 283.6 627.6 284.8 631.6 285.7 C 634.8 287.8 638.0 290.5 638.7 294.4 L 639.8 294.3 C 639.7 294.8 639.4 295.8 639.3 296.2 L 640.4 296.4 C 641.1 299.2 643.7 301.0 644.8 303.6 L 645.5 303.2 C 646.2 307.3 651.5 308.7 652.8 312.7 C 654.5 314.6 656.3 316.4 658.1 318.2 C 659.3 318.4 660.3 319.1 661.0 320.1 C 662.7 321.8 664.5 323.5 666.3 325.2 C 668.3 326.0 669.6 327.9 671.6 328.9 C 673.2 330.0 675.0 331.0 676.3 332.6 L 677.7 332.0 L 677.3 333.4 C 678.4 333.8 679.5 334.2 680.6 334.6 C 680.7 334.8 680.9 335.4 681.0 335.7 L 682.5 335.2 C 682.6 335.6 682.8 336.3 682.9 336.7 L 684.5 336.2 C 684.6 336.6 684.8 337.4 684.9 337.7 L 686.5 337.2 C 686.6 337.6 686.8 338.4 686.8 338.8 L 688.5 338.1 C 688.6 338.6 688.8 339.4 688.8 339.8 L 690.5 339.1 C 690.6 339.6 690.7 340.4 690.8 340.8 L 692.5 340.1 L 692.7 341.3 C 693.7 341.6 694.8 341.9 695.8 342.2 C 700.3 343.7 704.8 345.3 709.3 346.8 C 710.7 347.4 712.2 347.5 713.7 347.5 L 713.6 348.6 C 715.0 348.5 716.4 348.4 717.7 348.4 L 717.6 349.4 C 724.1 349.9 730.5 351.2 737.0 351.6 C 763.0 354.6 789.1 350.3 814.2 343.8 C 816.9 342.8 819.7 344.2 822.4 344.7 C 823.0 344.9 824.1 345.4 824.7 345.6 L 824.8 346.7 C 825.4 346.5 826.4 346.2 826.9 346.1 L 826.1 347.6 C 838.7 347.9 851.4 347.7 864.0 347.7 C 926.7 347.7 989.3 347.7 1052.0 347.7 C 1055.1 347.8 1058.0 346.8 1060.9 345.8 C 1064.3 345.9 1067.6 346.1 1071.0 346.0 C 1090.9 345.9 1110.9 346.1 1130.8 345.9 C 1142.8 310.7 1155.4 275.8 1167.5 240.7 C 1169.1 236.5 1172.5 232.7 1177.0 231.7 C 1179.6 231.0 1182.3 230.3 1185.0 230.3 C 1198.7 230.4 1212.3 230.4 1226.0 230.4 C 1241.5 229.9 1257.1 229.1 1272.1 224.8 C 1279.5 222.6 1286.5 218.8 1294.2 217.8 C 1298.3 218.1 1302.7 219.2 1305.4 222.5 C 1308.3 225.3 1308.8 229.5 1309.5 233.4 C 1309.1 237.0 1307.8 240.4 1306.7 243.8 C 1295.9 275.3 1285.2 306.8 1274.5 338.4 C 1273.5 341.1 1272.6 343.9 1271.4 346.6 C 1275.6 346.2 1279.8 346.4 1284.0 346.4 C 1321.7 346.3 1359.3 346.4 1397.0 346.4 C 1417.3 346.8 1437.7 346.8 1458.0 346.3 C 1470.2 346.4 1482.5 346.3 1494.7 346.4 C 1508.1 328.2 1521.6 310.1 1535.1 292.0 C 1538.4 287.7 1543.8 286.1 1549.0 286.0 C 1587.3 286.0 1625.7 286.0 1664.0 286.0 C 1668.3 286.0 1672.7 285.6 1676.9 286.9 C 1681.5 287.6 1685.5 290.8 1687.2 295.0 C 1688.8 299.2 1689.2 303.6 1689.1 308.0 C 1689.8 320.8 1690.2 333.6 1690.7 346.4 C 1712.5 346.3 1734.2 346.4 1756.0 346.4 C 1759.4 346.4 1762.9 346.1 1766.3 347.1 C 1761.5 344.4 1759.0 339.2 1758.2 334.0 C 1756.9 322.7 1757.2 311.4 1756.4 300.1 C 1752.5 209.2 1748.2 118.4 1744.4 27.6 C 1718.3 27.7 1692.1 27.6 1666.0 27.6 C 1602.8 114.2 1539.9 201.0 1476.7 287.6 C 1473.9 291.4 1471.5 295.9 1467.0 297.9 C 1463.8 299.0 1460.4 299.9 1457.0 300.0 C 1428.3 300.0 1399.7 300.0 1371.0 300.0 C 1365.8 299.7 1360.0 298.6 1356.7 294.2 C 1354.4 291.4 1353.7 287.8 1353.2 284.3 C 1354.3 277.7 1356.8 271.5 1358.9 265.1 C 1386.0 186.0 1413.0 106.8 1440.1 27.6 C 1420.2 27.6 1400.3 27.7 1380.4 27.6 C 1379.1 33.1 1375.1 38.5 1369.3 39.5 C 1363.9 41.4 1358.2 39.2 1353.7 36.3 C 1345.5 32.4 1336.7 29.4 1327.6 28.5 C 1318.1 27.4 1308.6 26.9 1299.0 27.0 C 1263.0 27.0 1226.9 27.0 1190.9 27.0 C 1184.8 44.2 1178.9 61.5 1172.8 78.7 C 1171.3 83.7 1167.5 88.5 1162.0 89.4 C 1158.9 90.6 1155.7 89.3 1152.6 89.1 C 1149.2 87.5 1146.6 84.6 1144.8 81.4 C 1144.6 79.9 1144.4 78.5 1144.0 77.1 C 1143.3 73.8 1142.9 70.4 1142.0 67.1 C 1140.9 64.1 1139.8 61.1 1138.5 58.2 C 1135.9 54.0 1133.6 49.5 1130.1 45.9 C 1122.2 37.1 1111.0 32.3 1099.9 28.9 C 1086.5 26.1 1072.6 26.1 1059.0 27.5 C 1054.0 28.3 1049.0 28.6 1044.1 30.0 C 1042.7 30.3 1041.3 30.5 1040.0 31.2 C 1039.4 31.2 1038.1 31.3 1037.5 31.3 L 1037.5 32.2 C 1033.2 32.6 1029.2 34.4 1025.2 36.1 C 1022.9 37.0 1020.6 38.1 1018.3 39.1 C 1014.0 40.6 1010.1 42.9 1006.2 45.1 C 1003.1 47.0 999.7 48.5 996.6 50.5 C 989.6 55.4 982.3 60.1 976.2 66.1 C 971.0 69.9 966.8 74.8 962.2 79.2 C 956.7 84.4 952.2 90.6 947.2 96.2 C 942.5 101.5 940.0 108.9 933.4 112.2 C 931.6 112.4 929.8 112.7 928.1 113.1 C 928.6 115.3 929.6 117.6 929.3 120.0 C 929.0 122.0 928.4 123.8 927.9 125.8 C 945.9 125.7 963.9 125.8 981.8 125.7 C 981.8 125.2 981.6 124.1 981.5 123.5 C 981.8 123.5 982.3 123.4 982.5 123.4 C 983.3 119.9 985.2 116.9 986.7 113.7 C 989.5 107.2 993.9 101.7 997.8 95.8 C 1002.5 91.0 1006.9 86.0 1012.5 82.3 C 1016.2 79.1 1020.8 77.4 1024.9 74.9 C 1027.3 74.4 1029.6 73.7 1031.9 72.9 C 1033.2 72.6 1034.5 72.3 1035.9 72.0 C 1040.0 71.0 1044.2 70.3 1048.4 70.4 C 1051.7 70.4 1054.9 71.4 1058.2 71.9 C 1061.2 73.1 1064.3 74.1 1066.9 76.1 C 1070.1 78.4 1073.7 80.5 1075.9 83.8 C 1078.7 87.4 1081.0 91.4 1082.1 95.8 C 1082.8 100.6 1084.7 105.1 1084.3 110.0 C 1084.6 114.4 1083.7 118.8 1083.1 123.2 C 1081.5 130.1 1079.1 136.8 1076.1 143.3 C 1069.3 158.5 1059.1 171.8 1048.7 184.7 C 1046.3 187.6 1043.4 190.1 1041.0 193.0 C 1031.2 204.3 1019.6 213.7 1008.3 223.4 C 960.0 262.3 911.6 301.4 863.3 340.4 C 860.7 342.4 858.1 344.5 855.3 346.3 C 851.4 347.0 847.5 347.0 843.7 346.3 C 841.0 344.8 838.8 342.7 836.7 340.6 C 836.4 340.1 835.9 339.0 835.7 338.4 C 835.3 336.2 834.4 334.1 834.5 331.9 C 835.2 327.7 836.9 323.7 837.5 319.4 L 838.3 319.3 C 838.4 316.1 840.4 313.5 840.5 310.3 L 841.6 310.3 C 841.5 309.6 841.4 308.0 841.4 307.2 L 842.6 307.4 C 842.5 306.6 842.4 305.0 842.4 304.2 L 843.6 304.4 C 843.6 303.6 843.4 302.0 843.4 301.2 L 844.6 301.5 C 844.6 300.6 844.4 299.0 844.4 298.2 L 845.6 298.5 C 845.6 297.6 845.4 296.0 845.3 295.2 L 846.6 295.5 C 846.6 294.7 846.4 293.0 846.3 292.2 L 847.6 292.5 C 847.6 291.7 847.4 290.0 847.3 289.2 L 848.7 289.5 C 848.6 288.7 848.4 287.0 848.3 286.1 L 849.4 286.6 C 849.9 284.5 850.4 282.5 850.6 280.4 L 851.8 280.4 C 851.8 280.1 851.7 279.4 851.7 279.1 C 848.5 280.8 845.3 282.7 841.8 283.7 C 841.7 283.9 841.7 284.2 841.6 284.4 C 838.9 284.9 836.3 286.1 833.5 286.7 L 833.8 287.6 C 833.0 287.6 831.4 287.4 830.6 287.4 L 830.8 288.4 C 823.5 289.5 816.4 292.1 809.1 293.4 C 802.1 294.3 795.1 295.7 788.0 295.6 C 782.7 295.5 777.2 295.9 771.9 294.8 C 763.2 294.2 754.8 291.3 746.3 289.4 L 746.3 288.4 C 745.6 288.5 744.0 288.6 743.2 288.7 L 743.4 287.6 C 741.6 287.5 739.9 286.6 738.5 285.5 L 737.4 285.8 C 737.4 285.5 737.3 285.0 737.2 284.7 C 733.7 283.5 730.7 281.1 727.5 279.2 C 725.6 278.1 724.6 275.4 722.1 275.5 L 722.8 274.7 C 719.9 273.6 717.6 271.1 716.3 268.3 C 713.6 265.7 711.0 262.9 709.3 259.5 C 708.3 257.6 706.7 255.9 706.3 253.6 L 705.1 253.6 L 705.7 251.9 C 705.5 251.8 704.9 251.7 704.6 251.6 C 702.9 245.4 700.5 239.4 699.6 233.0 C 697.1 219.0 698.1 204.4 701.8 190.7 C 702.8 186.9 704.3 183.2 704.6 179.2 L 705.6 179.4 C 705.5 178.6 705.4 177.0 705.4 176.2 L 706.3 176.5 C 706.8 174.8 707.4 173.1 707.5 171.3 L 708.4 171.4 C 708.8 169.7 709.2 168.0 709.5 166.3 L 710.7 166.3 C 710.6 165.9 710.4 164.9 710.2 164.5 C 710.6 164.4 711.3 164.2 711.7 164.1 L 711.2 162.5 C 711.6 162.4 712.4 162.2 712.7 162.1 L 712.2 160.5 C 712.6 160.4 713.4 160.3 713.8 160.2 L 713.2 158.4 L 714.7 158.3 C 714.6 157.8 714.3 156.8 714.2 156.3 L 715.8 156.3 C 715.6 155.8 715.3 154.8 715.1 154.3 L 716.3 154.5 C 716.2 152.9 717.2 151.7 718.2 150.6 C 719.2 148.9 720.3 147.3 721.3 145.6 C 721.8 144.5 722.5 143.5 723.2 142.6 C 724.0 141.1 725.4 140.0 725.5 138.2 L 726.2 138.5 C 727.0 137.1 728.4 135.9 728.5 134.2 L 729.2 134.7 C 730.3 132.7 731.4 130.6 733.1 129.0 C 739.1 122.7 745.4 116.8 751.4 110.5 C 751.7 110.5 752.3 110.5 752.6 110.5 C 753.7 109.3 754.9 108.2 756.0 107.0 C 757.6 105.4 759.6 104.3 761.6 103.2 L 761.2 102.5 C 762.9 102.4 764.2 100.9 765.7 100.2 C 766.6 99.5 767.4 98.2 768.9 98.5 L 768.1 97.1 L 769.6 97.5 C 770.1 97.2 771.1 96.5 771.6 96.2 L 771.2 95.1 L 772.4 95.5 C 772.9 95.2 774.0 94.5 774.6 94.2 L 774.3 93.1 C 774.8 93.3 775.8 93.6 776.3 93.8 L 776.4 92.2 L 778.1 92.7 C 778.2 92.4 778.3 91.8 778.4 91.6 C 779.5 91.2 780.5 90.8 781.7 90.4 L 781.3 89.1 C 781.8 89.3 782.8 89.6 783.3 89.8 L 783.4 88.2 L 785.1 88.7 C 785.2 88.3 785.4 87.5 785.5 87.1 L 787.2 87.8 C 787.3 87.5 787.3 86.9 787.3 86.6 C 789.3 86.3 791.2 85.7 792.8 84.4 C 793.2 84.5 793.9 84.7 794.3 84.7 L 794.3 83.6 C 796.0 83.2 797.7 82.7 799.4 82.3 L 799.3 81.5 C 802.2 81.6 804.8 80.2 807.6 79.5 C 816.8 76.8 826.3 75.1 835.8 73.7 C 844.2 73.1 852.5 73.1 860.9 73.7 C 865.0 74.5 869.2 75.0 873.3 75.8 C 876.1 76.4 878.8 77.5 881.7 77.5 L 881.6 78.3 C 884.0 78.6 886.3 79.5 888.7 79.5 L 888.6 80.3 C 891.0 80.8 893.2 82.3 895.7 82.6 L 895.6 83.8 C 896.1 83.6 897.1 83.3 897.6 83.2 C 897.6 83.6 897.8 84.4 897.8 84.7 L 899.5 84.1 C 899.6 84.6 899.7 85.4 899.8 85.8 L 901.7 85.0 L 901.3 86.3 C 903.1 87.0 904.9 87.9 906.4 89.2 C 907.8 90.0 909.1 91.4 910.8 91.5 L 910.4 92.1 C 912.1 92.6 912.8 94.1 913.5 95.5 C 913.6 94.8 913.7 93.4 913.7 92.8 C 918.1 79.2 922.7 65.7 927.2 52.1 C 928.0 49.6 929.3 47.1 929.5 44.3 L 930.6 44.3 C 930.5 43.5 930.4 42.0 930.3 41.3 L 931.6 41.3 C 931.5 40.5 931.4 39.0 931.3 38.3 L 932.3 38.3 C 932.6 34.5 934.6 31.1 935.6 27.4 C 932.7 25.9 929.5 24.5 926.2 24.5 L 926.5 23.7 C 923.5 23.5 920.9 22.3 918.0 21.6 C 908.1 18.5 897.6 17.6 887.2 16.6 C 873.8 16.6 860.3 15.7 847.0 18.4 C 837.7 19.2 828.8 22.0 819.6 23.7 L 819.8 24.7 C 819.0 24.6 817.4 24.5 816.6 24.4 L 816.8 25.7 C 816.0 25.6 814.4 25.5 813.6 25.4 L 813.8 26.7 C 813.0 26.6 811.4 26.5 810.6 26.4 L 810.8 27.7 C 810.0 27.6 808.4 27.5 807.6 27.4 L 807.7 28.5 C 803.8 28.7 800.4 31.0 796.6 31.7 L 796.7 32.5 C 794.9 32.6 793.2 33.2 791.5 33.6 L 791.8 34.7 C 791.0 34.6 789.5 34.5 788.7 34.4 L 788.7 35.4 C 786.9 35.8 785.3 36.3 783.6 36.7 L 783.7 37.5 C 781.8 37.4 780.1 38.4 778.5 39.2 C 778.0 39.5 777.0 40.0 776.5 40.3 C 776.0 40.5 775.0 41.0 774.5 41.2 C 773.0 41.9 771.6 42.7 770.3 43.5 C 769.9 43.5 769.2 43.5 768.9 43.5 L 768.6 44.7 C 768.2 44.7 767.3 44.5 766.9 44.4 L 766.7 45.3 C 765.2 45.8 763.8 46.6 762.4 47.3 C 761.4 47.8 760.4 48.2 759.4 48.7 L 759.7 49.9 C 759.2 49.7 758.2 49.4 757.7 49.2 L 757.6 50.4 C 754.9 51.1 752.8 53.1 750.3 54.3 C 748.9 55.2 747.5 56.4 745.8 56.7 C 745.7 57.0 745.6 57.5 745.6 57.8 L 744.6 57.5 C 744.0 57.8 742.9 58.5 742.4 58.8 L 742.7 59.9 L 741.5 59.5 C 740.9 59.8 739.9 60.5 739.4 60.8 L 739.7 62.0 L 738.3 61.4 C 736.7 63.4 734.4 64.5 732.4 65.8 C 731.4 66.5 730.5 67.4 729.3 67.7 C 728.7 68.2 728.2 68.7 727.7 69.2 C 725.6 69.8 724.3 71.8 722.8 73.2 C 720.8 74.0 719.4 75.5 718.0 76.9 C 716.5 78.5 714.5 79.5 712.9 80.8 C 712.4 81.9 711.4 82.5 710.3 82.8 C 706.7 86.0 703.6 89.7 699.9 92.8 C 699.1 94.2 697.6 94.6 696.5 95.5 C 695.6 96.6 695.1 98.1 693.9 98.9 C 690.0 103.2 685.7 107.1 681.8 111.3 C 680.9 113.8 678.4 115.3 676.8 117.3 C 675.9 119.8 673.5 121.3 671.8 123.3 C 671.4 125.1 669.8 126.2 668.4 127.2 L 668.9 128.7 L 667.8 128.4 C 667.0 129.7 666.2 131.0 665.4 132.3 C 663.5 133.5 661.7 135.0 659.5 135.6 C 659.4 137.9 658.8 140.1 658.3 142.4 C 657.3 144.5 656.3 146.5 655.4 148.6 C 655.1 148.7 654.6 148.8 654.3 148.9 L 654.6 150.1 C 653.0 152.5 651.3 154.9 650.3 157.7 L 649.4 157.9 C 649.5 158.2 649.5 158.9 649.6 159.3 C 648.7 160.6 647.9 162.0 647.3 163.5 C 646.0 166.6 643.8 169.4 643.4 172.7 L 642.1 172.6 C 642.3 173.1 642.7 174.1 642.9 174.6 L 641.7 174.6 C 640.3 178.9 639.5 183.6 636.8 187.4 C 635.7 189.7 633.7 191.5 631.6 192.9 C 627.8 194.6 623.6 194.9 619.5 194.5 C 619.2 194.2 618.6 193.6 618.3 193.2 C 615.1 192.5 612.2 191.1 609.0 190.2 C 603.6 188.3 597.8 188.3 592.4 186.5 C 588.3 184.5 584.3 181.0 583.5 176.2 C 581.8 170.4 584.3 163.9 589.1 160.3 C 594.7 156.1 601.7 154.4 607.4 150.5 C 618.1 144.7 626.9 135.9 634.3 126.3 C 635.9 124.7 637.9 123.7 639.9 122.7 C 640.4 114.7 645.5 108.3 648.1 100.9 C 652.9 89.3 656.5 76.8 656.0 64.0 C 656.6 52.2 649.6 40.3 638.9 35.2 C 629.6 30.3 619.3 27.7 608.9 26.7 C 598.7 25.2 588.3 24.9 578.0 25.0 C 536.4 25.0 494.8 25.0 453.2 25.0 C 436.6 73.4 419.6 121.7 402.8 170.0 C 401.5 173.7 398.9 176.9 395.5 178.7 C 390.9 180.4 385.9 181.3 381.0 180.8 C 333.1 180.7 285.1 180.8 237.2 180.7 C 233.2 191.6 229.5 202.5 225.8 213.5 C 225.2 214.8 224.8 216.2 224.2 217.5 C 223.8 219.0 223.3 220.5 222.8 222.0 C 238.9 222.0 254.9 222.0 271.0 222.0 C 273.4 221.9 275.8 222.6 278.2 223.1 C 283.3 224.4 287.3 228.9 288.2 234.1 C 289.7 238.7 287.6 243.5 285.5 247.6 C 280.1 259.2 272.7 269.8 264.1 279.1 C 260.8 281.8 257.8 284.9 254.6 287.8 C 249.1 291.7 243.7 295.9 237.5 298.7 C 234.9 300.1 232.2 301.4 229.6 302.8 C 225.9 304.1 222.2 305.3 218.5 306.7 C 212.5 308.6 206.2 309.6 200.0 310.9 C 197.7 311.4 195.4 312.0 193.0 312.0 C 186.0 312.0 178.9 312.3 171.9 311.9 C 164.6 310.6 157.4 309.3 150.4 306.8 C 142.4 303.8 135.7 298.3 129.2 292.8 C 126.8 290.4 125.0 287.6 122.8 285.1 C 118.8 280.4 116.1 274.9 113.4 269.5 C 109.6 258.4 106.5 246.8 107.0 235.0 C 106.4 218.1 110.6 201.6 115.3 185.5 C 116.0 183.1 116.7 180.8 117.7 178.6 C 118.4 176.9 119.0 175.2 119.7 173.6 C 120.6 171.2 121.6 168.8 122.7 166.5 C 129.0 151.8 138.0 138.4 147.4 125.5 C 152.0 120.0 156.0 114.1 161.2 109.2 C 171.3 98.3 183.0 89.2 195.5 81.3 C 201.4 78.1 207.2 74.7 213.5 72.3 C 215.1 71.6 216.8 70.9 218.5 70.2 C 227.2 67.8 236.0 65.3 245.0 64.1 C 250.6 63.9 256.3 62.9 261.9 63.8 C 267.9 63.7 273.6 65.5 279.3 66.7 C 282.5 67.3 285.4 68.6 288.4 69.7 C 295.8 72.7 302.2 77.7 307.5 83.5 C 309.9 86.4 312.1 89.5 314.3 92.5 C 316.8 95.8 317.9 99.8 319.8 103.4 C 321.0 106.7 321.8 110.1 322.5 113.6 C 323.8 113.2 325.1 112.7 326.4 112.3 C 329.1 111.3 331.8 110.3 334.4 109.3 C 337.1 108.3 339.8 107.3 342.4 106.3 C 358.7 100.2 375.0 94.2 391.2 87.9 C 390.3 84.5 389.5 81.0 388.8 77.5 C 387.5 74.9 386.6 72.2 385.8 69.5 C 382.6 62.2 379.2 55.0 374.2 48.8 C 372.3 46.7 370.5 44.5 368.7 42.4 C 360.3 33.7 349.6 27.8 338.5 23.3 C 330.5 20.6 322.5 17.6 314.0 16.9 C 294.4 14.1 274.5 14.4 255.0 17.1 M 2553.7 23.5 C 2549.5 24.2 2545.4 24.8 2541.3 25.5 C 2524.8 29.1 2509.0 35.9 2494.5 44.5 C 2488.9 48.2 2482.9 51.4 2478.0 56.0 C 2472.3 60.3 2467.5 65.6 2462.2 70.2 C 2459.7 72.4 2457.7 75.1 2455.6 77.6 C 2452.1 81.8 2448.2 85.8 2445.4 90.5 C 2442.8 94.6 2439.0 98.5 2434.0 99.4 C 2427.4 101.3 2419.5 97.6 2417.2 91.0 C 2415.4 85.9 2416.1 80.4 2416.0 75.0 C 2415.9 64.6 2412.0 53.9 2404.5 46.5 C 2398.8 40.0 2390.7 36.3 2382.7 33.4 C 2374.2 30.2 2365.1 29.2 2356.1 28.2 C 2341.7 27.4 2327.4 27.7 2313.0 27.6 C 2282.0 27.6 2251.0 27.7 2220.0 27.6 C 2213.7 27.0 2207.3 27.8 2201.0 27.6 C 2164.3 27.6 2127.7 27.7 2091.0 27.6 C 2084.0 27.2 2077.0 27.4 2070.0 27.3 C 2055.0 27.4 2040.0 27.3 2025.0 27.4 C 2013.8 28.1 2002.4 27.2 1991.2 27.8 C 1978.1 40.8 1965.2 54.0 1952.3 67.3 C 1937.4 82.7 1922.2 97.8 1907.2 113.2 C 1904.0 116.6 1900.7 120.3 1896.0 121.4 C 1888.8 124.0 1879.6 119.8 1877.6 112.2 C 1868.7 84.0 1859.5 55.9 1850.7 27.6 C 1826.9 27.6 1803.1 27.8 1779.2 27.5 C 1785.6 45.7 1791.6 64.1 1797.8 82.3 C 1809.1 115.9 1820.4 149.4 1831.8 183.0 C 1833.0 186.6 1834.2 190.2 1834.7 194.0 C 1834.2 197.8 1833.0 201.4 1831.8 205.0 C 1816.9 249.7 1802.1 294.4 1787.2 339.1 C 1786.3 342.2 1784.1 345.0 1781.2 346.6 C 1783.1 346.4 1785.0 346.3 1787.0 346.3 C 1804.4 346.4 1821.9 346.3 1839.4 346.4 C 1856.5 294.3 1874.0 242.4 1891.2 190.3 C 1892.9 184.9 1897.3 181.1 1901.2 177.2 C 1925.5 153.2 1949.6 129.0 1973.9 104.9 C 1979.3 99.3 1988.8 98.1 1994.9 103.2 C 1998.5 105.9 1999.9 110.5 2000.2 114.8 C 1999.4 120.5 1997.3 125.9 1995.3 131.2 C 1969.6 202.9 1943.8 274.7 1918.1 346.4 C 1972.4 346.3 2026.7 346.4 2081.0 346.4 C 2088.0 347.0 2095.0 346.2 2102.0 346.4 C 2122.3 346.4 2142.6 346.4 2163.0 346.3 C 2177.8 305.3 2192.5 264.2 2207.3 223.2 C 2208.7 218.6 2212.4 214.6 2217.2 213.4 C 2219.7 212.8 2222.4 211.7 2225.1 212.7 C 2230.7 213.4 2235.5 217.6 2237.0 223.0 C 2245.9 256.9 2254.9 290.8 2263.9 324.7 C 2265.7 331.9 2267.9 339.1 2269.5 346.4 C 2298.3 346.2 2327.1 346.4 2356.0 346.3 C 2360.2 346.2 2364.4 347.2 2368.4 348.5 C 2382.1 354.6 2397.1 357.8 2412.0 359.0 C 2420.7 359.0 2429.3 359.0 2438.0 359.0 C 2441.2 359.0 2444.5 359.2 2447.8 358.6 C 2454.9 357.4 2462.1 356.6 2469.2 354.9 C 2494.6 349.4 2518.7 338.0 2539.4 322.3 C 2546.4 316.4 2553.1 310.1 2559.4 303.4 C 2566.9 294.6 2572.6 284.4 2578.5 274.4 C 2582.1 267.0 2586.4 259.8 2589.2 252.0 C 2592.3 244.5 2595.3 236.9 2597.2 228.9 C 2598.2 223.4 2598.5 217.7 2598.3 212.0 C 2598.0 207.6 2598.0 203.1 2596.1 199.1 C 2593.0 192.8 2588.8 186.8 2582.9 182.8 C 2577.9 179.1 2572.1 176.4 2566.7 173.3 C 2551.1 165.7 2533.9 161.8 2518.0 154.9 C 2509.5 150.7 2501.2 145.0 2496.3 136.7 C 2493.5 132.5 2492.6 127.4 2491.6 122.5 C 2491.3 118.3 2492.7 114.1 2493.6 110.0 C 2495.8 100.6 2501.7 92.2 2509.2 86.2 C 2522.3 74.7 2539.8 69.0 2557.0 68.1 C 2563.2 68.4 2569.3 68.9 2575.3 70.6 C 2586.8 72.9 2597.9 77.5 2607.1 84.9 C 2620.1 69.8 2633.1 54.8 2646.1 39.8 C 2633.0 32.9 2618.6 28.8 2604.3 25.6 C 2599.6 24.8 2594.9 24.2 2590.3 23.6 C 2585.5 22.8 2580.7 23.1 2576.0 22.6 C 2572.6 22.3 2569.3 22.4 2566.0 22.7 C 2561.9 23.1 2557.7 22.9 2553.7 23.5 M 1013.5 101.5 C 1009.1 105.5 1006.0 110.7 1002.8 115.7 C 998.5 123.8 994.5 132.3 992.6 141.3 C 962.9 141.2 933.1 141.2 903.4 141.3 C 907.1 133.9 910.4 126.3 914.4 119.1 C 905.7 105.1 890.7 96.1 875.1 92.1 C 854.7 86.6 833.1 88.1 813.0 94.0 C 796.6 98.3 781.7 107.1 768.3 117.4 C 755.9 127.5 743.9 138.7 735.5 152.4 C 726.5 166.0 719.8 181.2 716.0 197.0 C 712.9 211.6 712.4 227.1 717.6 241.2 C 720.3 249.1 725.4 255.9 731.2 261.7 C 740.2 270.3 751.9 275.7 764.1 278.1 C 785.7 282.3 808.4 279.6 829.0 272.2 C 835.8 269.9 842.2 266.6 848.7 263.7 C 859.8 257.8 870.1 250.8 880.1 243.2 C 870.1 272.5 860.2 301.8 850.3 331.2 C 853.7 328.7 856.9 325.9 860.3 323.3 C 902.3 289.3 944.4 255.4 986.5 221.4 C 998.9 211.3 1011.5 201.3 1022.8 189.7 C 1027.7 185.0 1032.2 179.9 1037.0 175.0 C 1046.2 163.8 1054.9 152.1 1061.3 139.0 C 1064.4 132.0 1067.9 124.8 1068.7 117.0 C 1069.6 108.9 1069.3 99.7 1063.8 93.1 C 1059.9 89.1 1054.7 85.7 1048.9 85.6 C 1035.5 85.5 1022.5 91.7 1013.5 101.5 M 627.7 154.8 C 623.7 158.3 619.2 161.0 614.6 163.7 C 609.1 167.2 602.9 169.3 597.2 172.5 C 606.1 174.3 615.2 175.8 623.5 179.7 C 625.4 175.2 626.8 170.5 628.8 166.0 C 632.5 158.1 636.3 150.2 640.6 142.5 C 636.1 146.5 632.6 151.3 627.7 154.8 Z" />
<path fill="#ffffff" stroke="#ffffff" stroke-width="0.09375" opacity="1.00" d=" M 516.3 64.4 C 521.8 63.5 527.4 64.4 532.9 64.7 C 537.5 65.2 542.1 64.7 546.7 65.5 C 551.6 66.1 556.6 67.2 561.4 68.5 C 570.3 71.2 578.1 77.1 582.8 85.1 C 585.2 88.5 585.6 92.7 586.5 96.6 C 587.6 101.0 586.7 105.5 585.6 109.8 C 584.6 113.9 583.9 118.1 582.2 122.0 C 579.3 129.5 574.4 136.1 569.0 142.0 C 562.8 147.5 555.8 152.3 548.0 155.2 C 540.6 157.9 533.0 159.7 525.2 160.9 C 517.8 161.2 510.4 162.2 503.0 162.0 C 499.0 161.9 494.9 162.4 491.0 161.3 C 482.5 160.0 477.1 150.2 479.8 142.3 C 481.3 136.9 483.4 131.6 485.2 126.3 C 490.6 110.4 496.3 94.7 501.6 78.8 C 503.0 74.6 504.6 70.0 508.4 67.3 C 510.7 65.6 513.6 65.0 516.3 64.4 M 517.3 79.2 C 509.5 101.8 501.7 124.4 493.7 147.0 C 503.5 147.2 513.2 146.6 523.0 146.0 C 531.3 145.2 539.6 143.1 547.0 139.2 C 561.8 132.1 571.6 116.2 571.9 99.9 C 571.9 93.0 566.7 87.2 560.8 84.3 C 555.4 81.3 549.1 80.7 543.1 80.2 C 534.5 79.8 525.9 79.2 517.3 79.2 Z" />
<path fill="#ffffff" stroke="#ffffff" stroke-width="0.09375" opacity="1.00" d=" M 2272.3 67.4 C 2274.1 66.9 2276.0 67.0 2278.0 67.0 C 2292.5 66.9 2307.3 67.8 2321.1 72.6 C 2326.8 74.5 2331.6 78.1 2336.0 82.0 C 2340.3 86.8 2343.8 92.6 2345.2 99.0 C 2346.3 103.9 2347.6 109.0 2346.7 114.0 C 2344.5 127.5 2339.7 140.7 2331.7 151.9 C 2328.6 155.4 2326.1 159.5 2322.3 162.3 C 2315.7 167.6 2308.8 172.7 2301.0 175.7 C 2285.1 181.8 2268.0 184.4 2251.0 184.0 C 2246.0 184.1 2240.8 184.2 2236.1 182.1 C 2230.0 179.0 2226.6 171.4 2228.6 164.8 C 2229.5 160.9 2231.2 157.2 2232.5 153.3 C 2241.6 127.9 2250.7 102.5 2259.8 77.1 C 2261.9 72.0 2266.6 67.9 2272.3 67.4 M 2274.0 82.0 C 2263.5 111.0 2253.2 140.0 2242.7 169.0 C 2252.9 169.1 2263.0 169.0 2273.1 167.8 C 2284.9 166.0 2296.7 162.6 2306.5 155.5 C 2315.3 149.6 2322.2 140.9 2326.2 131.0 C 2329.0 124.3 2331.9 117.4 2331.8 110.0 C 2332.0 103.9 2329.7 97.9 2325.9 93.2 C 2320.2 87.4 2312.1 84.8 2304.2 83.6 C 2294.2 82.4 2284.1 81.9 2274.0 82.0 Z" />
<path fill="#ffffff" stroke="#ffffff" stroke-width="0.09375" opacity="1.00" d=" M 1237.2 70.3 C 1248.7 69.5 1260.4 70.3 1272.0 71.0 C 1279.2 71.4 1286.2 73.1 1293.0 75.1 C 1301.4 77.8 1307.8 84.9 1311.5 92.6 C 1313.7 99.8 1316.1 107.4 1314.6 115.0 C 1311.4 131.3 1306.3 147.7 1296.1 161.0 C 1292.7 166.3 1287.7 170.2 1282.6 173.7 C 1277.9 177.3 1272.8 180.4 1267.0 182.0 C 1258.6 184.8 1249.8 186.4 1241.0 187.0 C 1230.0 186.9 1219.0 187.6 1207.9 187.3 C 1204.0 186.8 1199.9 185.9 1197.1 182.9 C 1194.0 180.1 1193.2 175.9 1192.7 172.0 C 1193.0 168.5 1194.1 165.3 1195.2 162.0 C 1204.4 135.3 1213.6 108.7 1222.7 82.0 C 1223.8 77.9 1226.6 74.2 1230.4 72.2 C 1232.5 71.3 1234.9 70.8 1237.2 70.3 M 1237.4 85.2 C 1233.9 96.2 1229.8 107.0 1226.2 118.0 C 1219.9 136.1 1213.8 154.3 1207.4 172.3 C 1218.9 172.2 1230.5 172.2 1242.0 171.8 C 1253.4 171.0 1265.2 168.4 1274.3 161.3 C 1282.3 155.9 1287.8 147.6 1291.8 139.0 C 1295.3 130.7 1298.5 122.1 1299.7 113.1 C 1300.7 105.0 1298.2 95.6 1291.2 90.8 C 1284.8 87.0 1277.2 86.5 1270.0 86.0 C 1259.1 85.1 1248.2 85.3 1237.4 85.2 Z" />
<path fill="#ffffff" stroke="#ffffff" stroke-width="0.09375" opacity="1.00" d=" M 2082.5 74.6 C 2085.6 74.1 2088.8 74.4 2092.0 74.4 C 2121.0 74.4 2150.0 74.4 2179.0 74.3 C 2184.1 74.6 2189.7 75.7 2193.3 79.7 C 2195.9 82.4 2196.8 86.4 2197.0 90.0 C 2196.3 95.6 2194.0 100.7 2192.2 106.0 C 2186.7 121.3 2181.2 136.5 2175.8 151.8 C 2174.2 156.4 2170.6 160.4 2165.8 161.6 C 2163.2 162.3 2160.7 163.0 2158.0 163.0 C 2128.7 163.0 2099.3 163.0 2070.0 163.0 C 2064.8 163.2 2059.4 162.6 2054.8 160.3 C 2050.2 157.7 2047.9 152.5 2047.6 147.4 C 2048.1 143.5 2049.4 139.7 2050.8 136.0 C 2057.1 118.6 2063.3 101.1 2069.6 83.7 C 2071.8 78.4 2077.0 75.1 2082.5 74.6 M 2083.3 89.5 C 2082.4 92.7 2081.2 95.8 2080.1 99.0 C 2074.1 115.2 2068.4 131.6 2062.4 147.8 C 2095.4 147.6 2128.4 147.9 2161.4 147.7 C 2168.3 128.3 2175.2 108.9 2182.2 89.5 C 2149.2 89.5 2116.3 89.6 2083.3 89.5 Z" />
<path fill="#ffffff" stroke="#ffffff" stroke-width="0.09375" opacity="1.00" d=" M 1672.4 105.5 C 1676.0 105.9 1679.8 106.8 1682.6 109.4 C 1686.4 112.7 1687.5 118.1 1687.6 123.0 C 1687.6 158.3 1687.6 193.7 1687.7 229.0 C 1687.6 232.0 1687.0 235.1 1686.0 237.9 C 1684.3 241.7 1680.8 244.7 1676.8 245.6 C 1673.3 246.7 1669.6 246.7 1666.0 246.7 C 1643.3 246.6 1620.6 246.7 1598.0 246.6 C 1593.6 246.2 1588.9 245.4 1585.6 242.3 C 1580.4 237.7 1579.7 229.2 1583.3 223.4 C 1608.5 186.6 1633.7 149.8 1658.8 112.9 C 1660.3 110.6 1662.3 108.4 1665.0 107.3 C 1667.4 106.4 1669.8 105.8 1672.4 105.5 M 1606.7 215.8 C 1603.0 221.0 1599.7 226.5 1595.7 231.6 C 1621.4 231.5 1647.0 231.4 1672.6 231.6 C 1672.3 194.3 1672.6 157.0 1672.5 119.7 C 1650.4 151.6 1628.7 183.8 1606.7 215.8 Z" />
<path fill="#ffffff" stroke="#ffffff" stroke-width="0.09375" opacity="1.00" d=" M 2394.4 146.3 C 2400.9 142.2 2410.5 143.8 2414.7 150.4 C 2418.2 156.3 2417.0 163.4 2417.8 169.9 C 2418.0 174.7 2420.4 179.0 2422.9 183.0 C 2429.5 192.0 2440.1 196.7 2450.2 200.7 C 2458.9 204.5 2468.1 206.9 2477.0 210.2 C 2483.9 212.9 2491.2 214.7 2497.9 217.8 C 2507.9 223.0 2517.9 230.2 2522.3 241.0 C 2524.3 246.6 2525.9 252.8 2524.6 258.8 C 2523.4 264.0 2522.4 269.3 2519.9 274.1 C 2517.9 279.3 2514.0 283.5 2510.8 288.0 C 2499.1 301.9 2481.6 309.7 2463.8 312.1 C 2453.9 313.8 2443.7 313.1 2433.9 311.0 C 2425.2 309.2 2416.5 306.9 2408.9 302.2 C 2404.4 299.9 2400.6 296.5 2396.5 293.6 C 2392.7 290.9 2389.3 287.7 2385.8 284.6 C 2376.7 294.9 2367.6 305.2 2358.4 315.5 C 2351.7 322.9 2337.5 321.3 2333.3 311.9 C 2322.9 285.8 2312.8 259.6 2302.4 233.4 C 2300.7 229.0 2298.6 224.6 2297.9 219.8 C 2297.2 212.8 2301.9 205.5 2309.0 204.2 C 2317.8 202.5 2326.5 200.4 2334.6 196.5 C 2349.3 190.5 2362.5 180.9 2373.6 169.6 C 2379.0 164.3 2384.4 158.8 2388.7 152.5 C 2390.3 150.2 2392.0 147.9 2394.4 146.3 M 2367.7 194.7 C 2351.6 206.8 2332.8 215.3 2312.9 218.4 C 2314.1 222.3 2315.7 226.1 2317.2 229.9 C 2327.1 255.3 2337.1 280.5 2346.9 305.9 C 2359.8 291.2 2372.8 276.6 2385.8 262.0 C 2389.5 266.1 2392.7 270.5 2396.9 274.2 C 2406.2 282.9 2416.7 291.2 2429.2 294.7 C 2442.1 298.3 2455.8 299.0 2468.9 296.1 C 2481.0 292.9 2493.0 286.8 2500.6 276.5 C 2505.1 271.2 2508.2 264.8 2509.7 258.0 C 2511.5 250.3 2507.3 242.4 2501.2 237.7 C 2493.7 231.2 2484.0 228.3 2474.8 225.3 C 2466.6 222.2 2458.2 219.7 2450.0 216.8 C 2440.3 212.9 2430.3 209.4 2422.0 202.9 C 2413.2 196.8 2406.3 187.6 2404.0 177.1 C 2402.6 171.1 2401.9 164.9 2402.6 158.7 C 2393.2 172.7 2381.0 184.6 2367.7 194.7 Z" />
<path fill="#ffffff" stroke="#ffffff" stroke-width="0.09375" opacity="1.00" d=" M 1116.6 164.8 C 1118.1 164.7 1119.5 164.4 1120.9 163.8 C 1121.7 163.8 1123.3 163.8 1124.2 163.7 C 1128.8 165.1 1133.6 167.5 1135.6 172.2 C 1136.3 175.0 1137.5 177.9 1136.6 180.8 C 1135.7 184.6 1134.7 188.3 1133.3 192.0 C 1121.6 225.7 1109.8 259.3 1098.1 293.0 C 1096.6 296.5 1094.0 299.8 1090.5 301.6 C 1086.2 303.3 1081.6 303.8 1077.0 303.8 C 1051.0 303.8 1025.0 303.8 999.0 303.8 C 994.3 303.7 989.5 304.0 984.8 303.2 C 983.7 302.8 982.7 302.5 981.6 302.2 C 978.8 300.5 976.5 298.2 974.9 295.4 C 974.5 294.3 974.2 293.2 973.8 292.2 C 973.4 289.7 973.4 287.3 973.8 284.8 C 974.2 283.8 974.5 282.7 974.8 281.6 C 976.0 279.9 977.1 278.1 978.8 276.8 C 1005.1 257.8 1031.5 238.8 1057.7 219.6 C 1063.8 215.2 1069.6 210.3 1075.5 205.6 C 1082.1 199.5 1089.1 193.8 1095.3 187.3 C 1100.9 181.9 1105.6 175.6 1110.6 169.7 C 1112.3 167.7 1114.4 166.1 1116.6 164.8 M 1105.6 198.6 C 1099.8 204.9 1093.1 210.1 1086.9 215.9 C 1081.8 220.1 1076.6 224.2 1071.4 228.3 C 1045.5 247.5 1019.2 266.2 993.1 285.2 C 991.4 286.5 989.6 287.6 987.7 288.7 C 993.1 288.3 998.6 288.6 1004.0 288.5 C 1030.6 288.4 1057.1 288.6 1083.7 288.4 C 1083.9 288.0 1084.3 287.1 1084.5 286.6 C 1096.9 251.0 1109.3 215.4 1121.8 179.9 C 1116.8 186.5 1111.5 192.8 1105.6 198.6 Z" />
<path fill="#ffffff" stroke="#ffffff" stroke-width="0.09375" opacity="1.00" d=" M 470.5 199.6 C 483.2 199.3 495.9 199.4 508.6 199.5 C 516.5 199.5 524.2 200.9 531.8 202.9 C 541.6 204.9 551.3 209.4 557.7 217.4 C 559.8 219.9 561.8 222.7 562.9 225.9 C 564.7 231.8 566.1 238.0 564.9 244.2 C 562.9 254.5 559.7 264.9 553.3 273.3 C 547.7 282.0 539.1 288.3 530.1 292.8 C 519.3 298.8 506.9 300.4 495.0 302.7 C 490.7 303.0 486.4 303.7 482.0 304.0 C 469.7 303.9 457.4 304.9 445.0 304.5 C 439.2 304.1 432.9 301.4 430.4 295.7 C 429.7 293.0 428.5 290.1 429.4 287.3 C 430.5 282.1 432.6 277.3 434.2 272.4 C 441.2 252.2 448.2 232.1 455.1 212.0 C 456.5 207.6 459.4 203.5 463.5 201.3 C 465.8 200.4 468.1 199.9 470.5 199.6 M 470.0 214.5 C 461.3 239.5 452.7 264.5 444.0 289.5 C 450.0 289.5 456.0 289.6 462.0 289.4 C 475.1 289.1 488.4 289.3 501.4 286.5 C 508.5 285.3 515.6 283.6 522.0 280.1 C 528.1 277.2 533.9 273.5 538.4 268.4 C 543.8 261.8 547.5 253.9 549.5 245.7 C 550.7 240.4 550.9 234.6 548.2 229.8 C 544.4 223.3 537.3 219.6 530.2 217.6 C 523.3 215.8 516.2 214.5 509.0 214.6 C 496.0 214.4 483.0 214.6 470.0 214.5 Z" />
<path fill="#ffffff" stroke="#ffffff" stroke-width="0.09375" opacity="1.00" d=" M 2034.5 209.6 C 2037.3 209.2 2040.2 209.4 2043.0 209.4 C 2072.3 209.4 2101.7 209.4 2131.0 209.4 C 2135.8 209.6 2141.2 210.6 2144.5 214.4 C 2147.2 217.3 2148.0 221.3 2148.5 225.1 C 2148.1 229.2 2146.6 233.1 2145.3 237.0 C 2139.1 254.3 2132.9 271.5 2126.7 288.8 C 2125.2 293.4 2121.5 297.3 2116.8 298.6 C 2114.2 299.3 2111.7 300.0 2109.0 300.0 C 2078.3 300.0 2047.7 300.0 2017.0 300.0 C 2013.6 300.0 2010.3 299.2 2007.1 298.2 C 2001.6 295.9 1998.6 290.1 1998.4 284.4 C 1998.9 280.4 2000.3 276.6 2001.6 272.8 C 2007.7 255.9 2013.8 238.9 2019.9 222.0 C 2021.4 217.6 2024.3 213.5 2028.5 211.3 C 2030.4 210.5 2032.5 210.0 2034.5 209.6 M 2035.1 224.5 C 2027.5 244.5 2020.6 264.8 2013.1 284.8 C 2046.1 284.6 2079.2 284.9 2112.3 284.7 C 2119.5 264.6 2126.7 244.5 2133.9 224.5 C 2100.9 224.5 2068.0 224.5 2035.1 224.5 Z" />
</svg>
