<?xml version="1.0" encoding="utf-8"?>
<svg version="1.1" viewBox="0 0 264 74.1" xmlns="http://www.w3.org/2000/svg">
  <g transform="translate(-208.50401,-398.761)" id="g3">
    <path d="M 212.402 429.325 L 227.216 420.748 L 300.116 420.748 L 313.293 401.879 L 366.391 401.879 L 379.723 420.748 L 453.716 420.748 L 468.606 429.404 L 468.606 449.517 L 452.856 458.64 L 228.151 458.64 L 212.402 449.517 Z M 453.792 461.762 L 472.504 450.923 L 472.504 427.999 L 454.573 417.63 L 381.281 417.63 L 368.104 398.761 L 311.734 398.761 L 298.479 417.63 L 226.359 417.63 L 208.504 427.921 L 208.504 450.923 L 227.295 461.762 Z" id="polygon9" style="fill-rule: evenodd; fill: rgb(255, 255, 255);"/>
    <path d="M 330.066 416.168 C 330.066 417.156 330.871 417.939 331.837 417.929 L 339.07 417.929 L 339.07 415.726 L 332.277 415.726 L 332.277 415.109 L 337.63 415.109 L 337.63 412.917 L 330.077 412.917 L 330.066 416.168 L 330.066 416.168 Z" id="path11" style="fill-rule: evenodd; fill: rgb(255, 255, 255);"/>
    <path d="M 330.077 408.907 C 330.077 407.996 330.861 407.151 331.837 407.155 L 339.07 407.155 L 339.07 409.347 L 332.277 409.347 L 332.277 409.964 L 337.63 409.964 L 337.63 412.186 L 330.066 412.186 L 330.077 408.907 L 330.077 408.907 Z" id="path13" style="fill-rule: evenodd; fill: rgb(255, 255, 255);"/>
    <polygon points="378.397 437.122 401.32 437.122 401.32 446.244 393.134 451.78 367.832 451.78 376.214 446.165 391.027 446.165 391.027 442.735 368.104 442.735 368.104 433.806 376.566 428.077 376.566 428.077 401.827 428.077 393.483 433.689 378.397 433.689" id="polygon15" style="fill-rule: evenodd; fill: rgb(255, 255, 255);"/>
    <polygon points="404.518 428.077 404.518 428.077 414.809 428.077 414.809 451.78 404.518 451.78" id="polygon17" style="fill-rule: evenodd; fill: rgb(255, 255, 255);"/>
    <polygon points="429.077 437.122 452 437.122 452 446.244 443.811 451.78 418.512 451.78 426.894 446.165 441.708 446.165 441.708 442.735 418.785 442.735 418.785 433.806 427.244 428.077 427.244 428.077 452.507 428.077 444.163 433.689 429.077 433.689" id="polygon19" style="fill-rule: evenodd; fill: rgb(255, 255, 255);"/>
    <polygon points="345.807 446.165 345.807 442.735 355.668 442.735 364.05 437.122 345.807 437.122 345.807 433.689 360.658 433.689 369.002 428.077 344.481 428.077 335.515 433.575 335.515 433.575 335.515 451.78 360.465 451.78 368.885 446.165" id="polygon21" style="fill-rule: evenodd; fill: rgb(255, 255, 255);"/>
    <polygon points="273.764 446.165 273.764 442.735 283.627 442.735 292.008 437.122 273.764 437.122 273.764 433.689 288.616 433.689 296.959 428.077 272.437 428.077 263.473 433.575 263.473 433.575 263.473 451.78 288.422 451.78 296.843 446.165" id="polygon23" style="fill-rule: evenodd; fill: rgb(255, 255, 255);"/>
    <polygon points="322.338 443.905 309.551 435.951 309.551 451.78 299.258 451.78 299.258 428.077 309.706 428.077 322.338 435.016 322.338 428.077 322.338 428.077 332.63 428.077 332.63 451.78 322.338 451.78" id="polygon25" style="fill-rule: evenodd; fill: rgb(255, 255, 255);"/>
    <polygon points="237.742 433.689 237.742 446.165 250.528 446.165 250.528 442.735 240.081 442.735 248.424 437.122 260.821 437.122 260.821 446.479 252.945 451.78 227.451 451.78 227.451 433.848 227.451 433.848 235.988 428.077 263.901 428.077 255.597 433.689" id="polygon27" style="fill-rule: evenodd; fill: rgb(255, 255, 255);"/>
    <path d="M 331.579 404.2 C 329.124 404.2 327.133 406.191 327.133 408.645 L 327.133 416.426 C 327.133 418.881 329.124 420.871 331.579 420.871 L 339.072 420.871 L 339.072 418.68 L 331.765 418.68 C 330.476 418.68 329.333 417.458 329.333 416.17 L 329.333 408.899 C 329.333 407.61 330.476 406.419 331.765 406.419 L 339.072 406.419 L 339.072 404.197 L 331.579 404.197 L 331.579 404.2 Z" id="path29" style="fill-rule: evenodd; fill: rgb(255, 255, 255);"/>
    <path d="M 345.765 415.786 L 345.765 409.347 L 352.91 409.347 L 352.91 407.155 L 345.364 407.155 C 344.388 407.151 343.604 407.996 343.604 408.907 L 343.595 416.168 C 343.595 417.156 344.398 417.939 345.364 417.929 L 349.967 417.929 L 349.955 412.878 L 346.492 412.878 L 346.492 415.05 L 347.772 415.05 L 347.772 415.785 L 345.765 415.785 L 345.765 415.786 Z" id="path31" style="fill-rule: evenodd; fill: rgb(255, 255, 255);"/>
    <path d="M 325.014 404.179 L 317.836 404.179 C 314.812 404.179 312.359 406.631 312.359 409.655 C 312.359 412.68 314.812 415.073 317.836 415.047 L 320.023 415.047 L 320.023 415.786 L 312.407 415.786 L 312.407 417.93 L 319.775 417.93 C 321.16 417.93 322.284 416.806 322.284 415.423 C 322.284 414.038 321.16 412.934 319.775 412.934 L 317.866 412.926 C 316.069 412.926 314.612 411.469 314.612 409.673 C 314.612 407.876 316.068 406.419 317.866 406.419 L 325.019 406.419 L 325.014 404.179 L 325.014 404.179 Z" id="path33" style="fill-rule: evenodd; fill: rgb(255, 255, 255);"/>
    <path d="M 325.014 409.288 L 317.553 409.288 L 317.553 410.023 L 319.791 410.027 C 322.817 410.027 325.268 412.42 325.268 415.444 C 325.268 418.469 322.817 420.868 319.791 420.868 L 312.407 420.853 L 312.407 418.674 L 319.775 418.674 C 321.572 418.674 323.029 417.218 323.029 415.421 C 323.029 413.625 321.572 412.187 319.775 412.187 L 317.866 412.18 C 316.481 412.18 315.357 411.056 315.357 409.671 C 315.357 408.286 316.481 407.163 317.866 407.163 L 325.019 407.163 L 325.014 409.288 L 325.014 409.288 Z" id="path35" style="fill-rule: evenodd; fill: rgb(255, 255, 255);"/>
    <path d="M 361.257 406.78 C 361.168 406.571 361.137 406.521 360.897 406.521 C 360.656 406.521 360.598 406.646 360.506 406.855 L 355.956 420.871 L 358.35 420.874 L 360.924 413.104 L 361.771 415.728 L 360.072 415.728 L 360.072 417.939 L 364.907 417.939 L 361.257 406.78 L 361.257 406.78 Z" id="path37" style="fill-rule: evenodd; fill: rgb(255, 255, 255);"/>
    <path d="M 345.106 420.873 C 342.651 420.873 340.659 418.882 340.659 416.428 L 340.659 408.647 C 340.659 406.192 342.651 404.202 345.106 404.202 L 352.91 404.202 L 352.91 406.424 L 345.294 406.424 C 344.003 406.424 342.86 407.615 342.86 408.904 L 342.86 416.174 C 342.86 417.463 344.002 418.684 345.294 418.684 L 350.689 418.684 L 350.689 412.148 L 346.494 412.148 L 346.494 409.966 L 352.919 409.966 L 352.919 420.361 L 357.496 406.198 C 357.988 404.795 359.324 403.789 360.897 403.789 C 362.501 403.789 363.863 404.839 364.326 406.291 L 369.079 420.874 L 360.072 420.874 L 360.072 418.683 L 365.923 418.683 L 361.956 406.52 C 361.724 405.851 361.31 405.772 360.897 405.772 C 360.465 405.772 360.066 405.949 359.841 406.56 L 355.184 420.874 L 345.106 420.874 L 345.106 420.873 Z" id="path39" style="fill-rule: evenodd; fill: rgb(255, 255, 255);"/>
  </g>
  <path d="M 83.597 73.893 L 81.133 73.893 L 81.133 71.167 L 79.285 71.167 L 79.285 73.893 L 76.821 73.893 L 76.821 66.185 L 79.285 66.185 L 79.285 68.912 L 81.133 68.912 L 81.133 66.185 L 83.597 66.185 L 83.597 73.893 Z M 86.95 72.673 L 86.664 73.893 L 84.063 73.893 L 86.061 66.185 L 89.867 66.185 L 91.865 73.893 L 89.264 73.893 L 88.983 72.673 L 86.95 72.673 Z M 88.032 68.554 L 87.896 68.554 L 87.39 70.713 L 88.525 70.713 L 88.032 68.554 Z M 97.444 71.687 L 97.629 73.757 C 97.113 73.971 96.465 74.078 95.684 74.078 C 94.904 74.078 94.278 73.996 93.805 73.832 C 93.333 73.667 92.961 73.408 92.688 73.056 C 92.418 72.701 92.229 72.285 92.12 71.81 C 92.015 71.331 91.962 70.743 91.962 70.044 C 91.962 69.344 92.015 68.756 92.12 68.277 C 92.229 67.796 92.418 67.377 92.688 67.022 C 93.213 66.34 94.178 66 95.583 66 C 95.897 66 96.265 66.031 96.687 66.093 C 97.11 66.154 97.424 66.23 97.629 66.322 L 97.259 68.207 C 96.726 68.092 96.237 68.035 95.794 68.035 C 95.352 68.035 95.044 68.076 94.87 68.158 C 94.697 68.241 94.611 68.405 94.611 68.652 L 94.611 71.885 C 94.931 71.949 95.255 71.982 95.583 71.982 C 96.281 71.982 96.902 71.883 97.444 71.687 Z M 101.004 70.536 L 100.955 70.536 L 100.955 73.893 L 98.491 73.893 L 98.491 66.185 L 100.955 66.185 L 100.955 69.33 L 101.004 69.33 C 101.021 69.083 101.062 68.887 101.127 68.74 L 102.337 66.185 L 104.995 66.185 L 103.147 69.973 L 105.056 73.893 L 102.399 73.893 L 101.127 71.131 C 101.062 70.982 101.021 70.784 101.004 70.536 Z M 105.489 73.757 L 105.832 71.722 C 106.589 71.912 107.269 72.008 107.874 72.008 C 108.478 72.008 108.965 71.983 109.334 71.933 L 109.334 71.316 L 108.226 71.215 C 107.222 71.127 106.535 70.888 106.162 70.497 C 105.787 70.106 105.599 69.528 105.599 68.762 C 105.599 67.711 105.828 66.987 106.285 66.591 C 106.74 66.197 107.513 66 108.604 66 C 109.698 66 110.684 66.103 111.561 66.308 L 111.253 68.282 C 110.49 68.158 109.879 68.097 109.418 68.097 C 108.957 68.097 108.567 68.117 108.248 68.158 L 108.248 68.762 L 109.136 68.85 C 110.213 68.956 110.957 69.212 111.367 69.621 C 111.778 70.026 111.983 70.591 111.983 71.316 C 111.983 71.833 111.913 72.271 111.772 72.629 C 111.631 72.987 111.465 73.259 111.275 73.443 C 111.081 73.629 110.807 73.77 110.452 73.867 C 110.1 73.967 109.791 74.026 109.524 74.047 C 109.257 74.068 108.902 74.078 108.459 74.078 C 107.391 74.078 106.401 73.971 105.489 73.757 Z M 116.935 70.933 L 115.026 70.933 L 115.026 69.158 L 116.935 69.158 L 116.935 67.247 L 118.709 67.247 L 118.709 69.158 L 120.631 69.158 L 120.631 70.933 L 118.709 70.933 L 118.709 72.858 L 116.935 72.858 L 116.935 70.933 Z M 130.769 73.893 L 128.305 73.893 L 128.305 71.167 L 126.457 71.167 L 126.457 73.893 L 123.993 73.893 L 123.993 66.185 L 126.457 66.185 L 126.457 68.912 L 128.305 68.912 L 128.305 66.185 L 130.769 66.185 L 130.769 73.893 Z M 131.631 70.044 C 131.631 68.64 131.893 67.616 132.418 66.969 C 132.943 66.323 133.892 66 135.265 66 C 136.638 66 137.587 66.323 138.112 66.969 C 138.637 67.616 138.899 68.64 138.899 70.044 C 138.899 70.743 138.843 71.331 138.732 71.81 C 138.621 72.285 138.43 72.701 138.16 73.056 C 137.89 73.408 137.516 73.667 137.038 73.832 C 136.563 73.996 135.972 74.078 135.265 74.078 C 134.558 74.078 133.967 73.996 133.492 73.832 C 133.013 73.667 132.639 73.408 132.37 73.056 C 132.1 72.701 131.909 72.285 131.798 71.81 C 131.686 71.331 131.631 70.743 131.631 70.044 Z M 134.279 68.762 L 134.279 71.968 L 135.3 71.968 C 135.638 71.968 135.882 71.93 136.035 71.854 C 136.188 71.775 136.264 71.596 136.264 71.316 L 136.264 68.11 L 135.23 68.11 C 134.901 68.11 134.661 68.148 134.508 68.224 C 134.355 68.304 134.279 68.483 134.279 68.762 Z M 142.177 70.158 L 142.027 73.893 L 139.453 73.893 L 139.92 66.185 L 143.136 66.185 L 144.1 70.105 L 144.183 70.105 L 145.147 66.185 L 148.359 66.185 L 148.83 73.893 L 146.256 73.893 L 146.106 70.158 L 146.018 70.158 L 145.085 73.893 L 143.198 73.893 L 142.252 70.158 L 142.177 70.158 Z M 154.68 69.193 L 154.68 70.982 L 152.216 70.982 L 152.216 71.92 L 155.235 71.92 L 155.235 73.893 L 149.752 73.893 L 149.752 66.185 L 155.173 66.185 L 154.865 68.158 L 152.216 68.158 L 152.216 69.193 L 154.68 69.193 Z M 160.704 73.893 L 156.282 73.893 L 156.282 66.185 L 160.272 66.185 C 161.012 66.185 161.54 66.329 161.856 66.617 C 162.173 66.905 162.332 67.324 162.332 67.877 C 162.332 68.425 162.23 68.85 162.028 69.149 C 161.829 69.452 161.56 69.648 161.223 69.736 L 161.223 69.81 C 162.217 69.983 162.714 70.662 162.714 71.845 C 162.714 72.461 162.55 72.958 162.222 73.333 C 161.893 73.707 161.387 73.893 160.704 73.893 Z M 159.705 70.823 L 158.746 70.823 L 158.746 72.078 L 159.696 72.078 C 160.039 72.078 160.211 71.87 160.211 71.453 C 160.211 71.033 160.042 70.823 159.705 70.823 Z M 159.52 67.877 L 158.746 67.877 L 158.746 69.022 L 159.511 69.022 C 159.822 69.022 159.978 68.831 159.978 68.449 C 159.978 68.067 159.825 67.877 159.52 67.877 Z M 168.961 71.329 L 170.289 73.893 L 167.579 73.893 L 166.567 71.599 L 166.039 71.599 L 166.039 73.893 L 163.575 73.893 L 163.575 66.185 L 167.456 66.185 C 169.221 66.185 170.105 67.085 170.105 68.885 C 170.105 70.118 169.723 70.933 168.961 71.329 Z M 166.607 68.158 L 166.039 68.158 L 166.039 69.7 L 166.607 69.7 C 166.903 69.7 167.118 69.67 167.253 69.608 C 167.388 69.545 167.456 69.403 167.456 69.18 L 167.456 68.679 C 167.456 68.454 167.388 68.312 167.253 68.251 C 167.118 68.189 166.903 68.158 166.607 68.158 Z M 176.079 69.193 L 176.079 70.982 L 173.615 70.982 L 173.615 71.92 L 176.634 71.92 L 176.634 73.893 L 171.151 73.893 L 171.151 66.185 L 176.572 66.185 L 176.264 68.158 L 173.615 68.158 L 173.615 69.193 L 176.079 69.193 Z M 184.012 70.488 L 184.606 66.185 L 187.18 66.185 L 185.97 73.893 L 182.758 73.893 L 182.19 71.057 L 182.041 71.057 L 181.486 73.893 L 178.27 73.893 L 177.064 66.185 L 179.638 66.185 L 180.219 70.488 L 180.294 70.488 L 181.178 66.185 L 183.066 66.185 L 183.937 70.488 L 184.012 70.488 Z" style="fill: rgb(255, 255, 255); white-space: pre; transform-box: fill-box; transform-origin: 50% 50%;"/>
</svg>