<?xml version="1.0" encoding="utf-8"?>
<svg width="2503pt" height="529pt" viewBox="0 0 2503 529" version="1.1" xmlns="http://www.w3.org/2000/svg">
  <path fill="#ffffff" stroke="#ffffff" stroke-width="0.09375" opacity="1.00" d=" M 203.1 7.7 C 234.4 0.2 267.1 -1.7 299.1 2.2 C 350.5 8.4 399.8 30.3 438.9 64.1 C 467.3 88.5 490.6 118.8 506.4 152.8 C 526.2 194.6 534.3 241.9 530.1 288.0 C 526.8 325.6 515.2 362.5 496.3 395.3 C 494.8 397.8 493.6 400.6 492.0 403.1 C 480.7 421.2 467.3 438.1 451.9 452.9 C 449.1 455.8 446.3 458.7 443.2 461.1 C 413.9 487.4 378.7 506.8 341.0 518.0 C 305.9 528.2 268.8 531.1 232.6 526.6 C 185.9 520.8 140.8 502.2 103.5 473.4 C 76.7 452.6 53.7 426.8 36.6 397.4 C 35.3 395.1 33.1 393.6 32.1 391.1 C 31.3 389.6 30.5 388.0 29.7 386.4 C 27.6 381.8 24.8 377.5 23.2 372.7 L 22.5 372.6 C 22.4 370.1 20.9 368.1 20.2 365.7 L 19.5 365.6 C 19.5 363.7 18.6 362.0 17.7 360.3 C 16.5 356.6 15.4 352.8 13.7 349.3 C 12.8 344.9 11.2 340.6 9.6 336.4 C 6.2 321.4 2.6 306.4 1.5 291.0 C -0.2 277.1 0.2 263.0 0.5 249.0 C 1.5 231.4 4.5 213.9 8.8 196.8 C 12.5 183.2 17.3 169.9 22.9 157.0 C 35.9 128.7 53.4 102.5 75.4 80.4 C 109.9 44.7 154.8 19.3 203.1 7.7 M 240.0 33.3 C 185.7 39.1 133.8 64.5 95.9 103.9 C 59.8 141.0 36.6 190.5 31.8 242.1 C 29.6 265.7 30.8 289.8 36.0 313.0 C 36.7 317.1 37.8 321.1 39.0 325.1 C 44.4 345.2 52.8 364.6 63.6 382.5 C 65.6 386.0 68.1 389.3 70.3 392.8 C 72.0 395.4 74.1 397.8 75.7 400.6 C 79.5 404.5 82.4 409.0 86.0 413.0 C 88.4 415.0 90.2 417.5 92.0 420.0 C 97.4 425.4 102.7 430.7 108.2 436.0 C 110.7 437.0 112.3 439.3 114.2 441.0 C 116.7 441.9 118.3 444.3 120.2 446.0 C 121.8 446.6 123.0 447.8 124.2 449.0 C 125.8 449.7 127.0 450.8 128.2 451.9 C 129.3 452.5 130.3 453.2 131.4 453.9 C 132.4 454.5 133.4 455.2 134.3 455.9 C 135.3 456.5 136.3 457.2 137.3 457.9 C 143.4 461.5 149.2 465.5 155.6 468.5 C 156.1 468.7 157.1 469.3 157.6 469.5 C 158.9 470.2 160.2 470.8 161.6 471.5 C 162.9 472.2 164.2 472.8 165.6 473.5 C 167.8 474.7 170.0 476.0 172.5 476.5 C 174.8 477.6 177.0 478.9 179.5 479.5 C 183.0 481.3 186.8 482.2 190.5 483.5 C 191.5 483.8 192.5 484.2 193.5 484.5 C 194.5 484.8 195.5 485.2 196.5 485.5 C 198.8 486.3 201.1 487.1 203.5 487.4 C 207.3 488.9 211.3 490.0 215.4 490.4 C 218.3 491.4 221.3 492.1 224.4 492.5 C 226.3 493.3 228.4 493.3 230.4 493.4 C 232.9 494.6 235.7 494.2 238.4 494.4 C 241.2 495.9 244.4 495.0 247.4 495.6 C 249.2 496.0 251.1 496.3 253.0 496.3 C 261.3 496.4 269.7 496.3 278.0 496.4 C 283.4 496.6 288.6 495.2 293.9 495.2 C 297.1 494.2 300.6 494.9 303.6 493.6 C 309.5 493.0 315.3 491.9 321.0 490.4 C 330.7 488.0 340.5 485.7 349.6 481.6 C 353.2 480.7 356.4 479.2 359.8 477.9 C 362.7 476.8 365.3 474.9 368.3 474.2 L 368.3 473.5 C 371.4 473.3 374.1 471.4 376.7 469.9 C 380.0 467.6 383.8 466.3 387.1 464.1 C 393.6 460.4 399.4 455.8 405.8 452.0 C 407.0 450.8 408.2 449.7 409.8 449.0 C 411.0 447.8 412.2 446.6 413.8 446.0 C 415.4 444.5 416.7 442.8 418.8 442.0 C 421.5 439.8 423.5 436.5 426.8 435.0 C 431.9 430.0 437.0 424.9 442.0 419.8 C 443.5 416.5 446.7 414.5 449.0 411.8 C 449.9 409.3 452.3 407.7 454.0 405.8 C 454.5 404.7 455.2 403.7 455.9 402.7 C 456.7 401.2 457.8 400.0 458.9 398.7 C 459.6 397.2 460.8 396.0 461.9 394.7 C 462.5 393.7 463.2 392.6 463.9 391.7 C 465.7 389.1 467.0 386.2 468.9 383.7 C 470.4 381.4 471.8 379.1 472.9 376.6 C 474.4 373.5 476.6 370.8 477.9 367.6 C 479.4 364.2 481.6 361.1 482.5 357.5 C 483.6 355.2 484.9 353.0 485.5 350.5 C 486.9 348.0 487.7 345.2 488.5 342.5 C 490.3 338.7 491.7 334.7 492.4 330.6 C 492.8 329.5 493.1 328.5 493.5 327.5 C 495.2 322.3 496.7 317.0 497.4 311.6 C 498.9 306.0 499.8 300.3 500.4 294.6 C 501.7 291.8 501.1 288.6 501.4 285.6 C 503.0 281.9 502.0 277.8 502.3 273.9 C 438.9 273.4 375.4 273.2 312.0 273.2 C 307.5 273.2 303.0 273.1 298.5 273.3 C 298.7 290.8 298.7 308.2 298.5 325.7 C 326.6 325.7 354.6 325.8 382.7 325.5 C 382.6 326.4 382.5 327.3 382.5 328.2 C 380.8 330.1 379.5 332.1 378.3 334.3 C 374.7 340.5 369.9 345.8 365.4 351.4 C 361.2 355.9 356.7 360.1 352.5 364.5 C 351.6 365.5 350.4 366.3 349.2 366.9 C 345.3 370.3 341.0 373.3 336.4 375.7 C 335.7 376.2 335.0 376.8 334.3 377.3 C 332.0 378.2 330.2 380.3 327.7 380.7 L 327.6 381.6 C 327.2 381.6 326.5 381.6 326.1 381.6 C 325.5 381.8 324.3 382.4 323.7 382.7 L 323.6 383.3 C 322.2 383.6 320.9 384.1 319.6 384.6 C 316.9 386.2 313.9 386.9 311.2 388.3 C 302.8 391.2 294.1 393.4 285.4 394.6 C 279.6 395.9 273.7 395.4 268.0 396.1 C 263.0 396.8 258.0 395.6 253.0 395.6 C 247.2 395.5 241.6 393.9 235.9 393.2 C 234.6 392.7 233.2 392.4 231.8 392.2 C 211.4 386.8 192.1 376.8 176.1 362.9 C 168.1 355.5 160.5 347.7 154.4 338.6 C 139.7 317.7 131.5 292.5 130.8 267.0 C 130.3 241.4 137.2 215.6 151.0 194.0 C 151.5 192.9 152.5 192.3 153.4 191.7 C 154.9 195.8 157.9 199.1 160.3 202.6 C 161.5 204.5 163.7 205.3 165.2 206.8 C 167.9 209.4 171.2 211.1 174.5 212.9 C 175.0 213.0 176.0 213.2 176.5 213.3 C 177.5 213.7 178.5 214.0 179.5 214.4 C 181.1 215.0 182.8 215.1 184.4 215.3 C 184.8 215.4 185.6 215.8 186.0 215.9 C 189.5 215.9 193.3 216.8 196.6 215.2 C 198.2 215.0 200.0 215.2 201.5 214.3 C 202.1 214.2 203.1 214.0 203.6 213.9 C 204.5 213.3 205.5 212.7 206.4 212.2 C 207.0 212.1 208.0 212.0 208.6 211.9 C 209.7 210.8 211.0 210.0 212.4 209.3 C 215.6 207.7 217.7 204.6 220.3 202.3 C 223.7 199.4 225.8 195.4 227.9 191.5 C 228.0 191.0 228.1 190.0 228.2 189.4 C 228.7 188.5 229.3 187.5 229.9 186.6 C 230.0 185.2 230.1 183.9 230.2 182.6 C 231.5 180.6 230.9 178.2 231.1 176.0 C 231.0 173.8 231.4 171.5 230.3 169.5 C 230.1 168.1 229.8 166.8 229.4 165.5 C 229.1 164.5 228.7 163.5 228.2 162.5 C 228.2 162.0 228.0 160.9 227.9 160.4 C 225.2 156.4 223.0 152.0 219.3 148.7 C 217.3 146.8 215.5 144.4 212.8 143.5 C 213.1 142.2 213.5 140.9 215.0 140.8 C 234.6 132.9 256.0 130.0 277.0 131.7 C 308.6 134.4 339.3 148.7 361.4 171.6 C 371.8 181.9 380.2 194.3 386.7 207.4 C 423.0 207.4 459.2 207.1 495.5 207.2 C 492.9 201.0 492.1 194.1 489.3 187.9 C 486.9 181.7 484.9 175.2 481.6 169.4 C 480.0 163.9 476.8 159.0 474.0 154.1 C 473.6 153.2 473.1 152.4 472.7 151.5 C 465.6 138.9 457.4 127.0 448.0 116.0 C 445.4 113.9 444.0 110.7 441.5 108.4 C 435.4 102.3 429.3 96.0 423.0 90.0 C 419.0 86.7 415.0 83.2 410.8 80.2 C 394.1 67.3 375.6 56.8 356.1 49.0 C 348.5 45.9 340.8 43.2 332.9 41.1 C 302.9 32.3 271.1 29.8 240.0 33.3 Z"/>
  <path fill="#ffffff" stroke="#ffffff" stroke-width="0.09375" opacity="1.00" d=" M 1232.2 133.6 C 1348.2 133.5 1464.1 133.6 1580.0 133.6 C 1582.6 133.7 1585.3 133.1 1587.8 134.3 C 1599.1 139.5 1608.7 148.5 1613.9 159.9 C 1619.9 172.8 1620.2 187.6 1617.4 201.3 C 1614.1 217.2 1606.7 232.0 1597.2 245.2 C 1581.3 267.3 1559.6 284.8 1535.7 297.7 C 1533.4 299.1 1530.5 298.5 1528.0 298.6 C 1468.0 298.6 1408.1 298.6 1348.1 298.6 C 1353.7 279.8 1359.2 261.0 1364.9 242.2 C 1404.0 242.2 1443.0 242.2 1482.0 242.2 C 1483.5 242.3 1484.9 241.9 1486.1 240.9 C 1493.9 234.8 1501.6 227.1 1503.9 217.1 C 1505.8 209.1 1503.0 201.0 1498.8 194.2 C 1445.5 194.2 1392.2 194.2 1339.0 194.2 C 1334.2 194.2 1329.4 194.1 1324.6 194.3 C 1322.8 200.0 1320.7 205.5 1318.8 211.1 C 1298.0 270.8 1277.2 330.6 1256.3 390.4 C 1217.9 390.4 1179.5 390.4 1141.2 390.4 C 1171.4 304.8 1202.0 219.3 1232.2 133.6 Z"/>
  <path fill="#ffffff" stroke="#ffffff" stroke-width="0.09375" opacity="1.00" d=" M 1681.5 134.3 C 1686.0 134.1 1690.5 134.2 1695.0 134.2 C 1801.7 134.2 1908.3 134.2 2015.0 134.2 C 2017.9 134.3 2021.2 133.6 2023.9 135.3 C 2032.7 139.9 2041.3 145.5 2048.1 152.9 C 2053.2 158.3 2057.2 164.9 2059.2 172.1 C 2061.3 179.8 2061.1 188.1 2059.2 195.9 C 2056.8 206.2 2052.1 215.7 2046.7 224.7 C 2040.1 235.5 2032.3 245.6 2024.2 255.3 C 2026.0 271.5 2026.1 288.0 2022.2 303.9 C 2018.8 318.9 2011.8 333.1 2002.0 345.0 C 1986.7 363.8 1965.6 376.8 1944.0 387.1 C 1941.0 388.3 1938.2 390.0 1935.1 390.9 C 1932.4 391.1 1929.7 391.0 1927.0 391.0 C 1815.6 391.0 1704.2 391.0 1592.9 391.0 C 1600.8 371.0 1608.8 351.0 1616.9 331.0 C 1711.7 331.0 1806.4 331.0 1901.2 331.0 C 1905.7 326.9 1908.8 321.6 1910.7 315.9 C 1914.2 305.3 1914.7 294.1 1915.0 283.0 C 1830.0 283.0 1745.0 283.1 1660.0 283.0 C 1667.6 265.8 1675.1 248.6 1682.6 231.4 L 1682.1 230.1 C 1685.7 228.2 1690.1 229.8 1694.0 229.2 C 1770.7 229.2 1847.3 229.2 1924.0 229.2 C 1927.9 229.4 1931.9 228.9 1935.9 229.5 C 1933.6 229.9 1931.3 229.8 1929.0 229.8 C 1850.7 229.8 1772.3 229.8 1694.0 229.8 C 1690.3 230.0 1686.2 228.9 1683.0 231.0 C 1764.0 230.8 1845.0 231.0 1926.0 230.9 C 1929.6 230.8 1933.2 231.2 1936.8 230.7 C 1942.1 227.1 1946.0 221.4 1947.0 215.0 C 1947.9 208.5 1946.6 202.0 1946.3 195.5 C 1941.5 195.3 1936.8 195.4 1932.0 195.4 C 1841.2 195.4 1750.3 195.4 1659.5 195.4 C 1666.7 175.0 1674.3 154.7 1681.5 134.3 Z"/>
  <path fill="#ffffff" stroke="#ffffff" stroke-width="0.09375" opacity="1.00" d=" M 2132.6 137.6 C 2135.4 135.7 2138.4 133.6 2142.0 133.6 C 2251.7 133.6 2361.3 133.6 2471.0 133.6 C 2472.5 133.6 2474.0 133.8 2475.2 134.7 C 2483.2 139.9 2490.5 146.2 2495.9 154.1 C 2498.8 158.3 2501.0 163.0 2503.0 167.8 L 2503.0 205.0 C 2497.5 222.0 2487.6 237.4 2475.0 250.0 C 2462.8 262.4 2448.2 272.4 2432.2 279.2 C 2429.2 280.4 2426.3 281.9 2423.0 281.8 C 2346.3 281.8 2269.7 281.8 2193.0 281.8 C 2189.6 281.8 2186.3 281.6 2182.9 281.9 C 2181.8 282.9 2181.3 284.4 2180.6 285.6 C 2175.6 295.8 2169.6 305.6 2166.5 316.6 C 2164.8 322.3 2165.0 328.4 2167.3 333.9 C 2173.5 334.1 2179.8 334.0 2186.0 334.0 C 2269.7 334.0 2353.3 334.0 2437.0 334.0 C 2442.6 334.0 2448.2 333.9 2453.8 334.2 C 2448.5 351.8 2443.5 369.6 2438.5 387.3 C 2437.8 388.4 2437.9 390.9 2436.0 390.4 C 2303.0 390.4 2169.9 390.4 2036.8 390.4 C 2046.6 361.4 2053.5 331.3 2066.4 303.3 C 2074.5 285.6 2085.3 269.0 2099.4 255.4 C 2109.9 245.2 2122.1 236.8 2135.0 230.0 C 2136.6 229.2 2138.2 228.3 2140.0 228.4 C 2220.6 228.4 2301.3 228.4 2382.0 228.4 C 2387.3 222.8 2392.1 215.9 2392.6 208.0 C 2393.0 203.1 2390.1 198.3 2385.7 196.2 C 2382.5 195.7 2379.2 196.1 2376.0 196.0 C 2287.3 196.0 2198.6 196.0 2110.0 196.0 C 2112.6 183.7 2114.4 171.2 2118.4 159.3 C 2121.2 151.1 2125.4 142.9 2132.6 137.6 Z"/>
  <path fill="#ffffff" stroke="#ffffff" stroke-width="0.09375" opacity="1.00" d=" M 827.2 135.4 C 829.7 134.5 832.4 134.8 835.0 134.8 C 950.2 134.8 1065.4 134.7 1180.6 134.8 C 1172.4 154.9 1163.8 174.8 1155.6 194.8 C 1063.4 194.9 971.2 194.8 879.0 194.8 C 874.0 194.8 869.1 194.7 864.2 194.9 C 859.3 202.2 855.9 210.3 852.4 218.2 C 843.0 240.1 834.8 262.4 827.3 284.9 C 823.7 296.4 820.0 307.9 817.5 319.7 C 816.8 323.0 816.4 326.4 816.9 329.8 C 880.0 329.8 943.0 329.8 1006.1 329.8 C 1011.0 317.9 1015.8 305.8 1020.7 293.8 C 1022.2 290.0 1023.9 286.3 1025.1 282.4 C 1004.4 282.4 983.6 282.4 962.9 282.4 C 963.0 269.2 969.9 257.5 977.3 247.0 C 1031.5 247.0 1085.7 247.0 1139.9 247.0 C 1130.3 274.1 1121.2 301.6 1107.7 327.1 C 1100.8 340.4 1092.4 353.1 1082.1 364.1 C 1071.3 375.5 1058.1 384.8 1043.4 390.5 C 1040.7 391.4 1037.8 390.9 1035.0 391.0 C 939.7 391.0 844.3 391.0 749.0 391.0 C 745.6 390.9 742.1 391.5 739.0 390.0 C 728.2 385.8 717.7 379.1 712.5 368.4 C 706.8 356.7 708.2 343.1 711.2 330.9 C 717.1 307.5 728.2 285.9 734.5 262.6 C 735.6 258.8 736.0 254.7 737.3 250.9 C 747.1 225.0 757.6 198.7 774.3 176.3 C 787.6 158.0 805.9 143.2 827.2 135.4 Z"/>
</svg>