<?xml version="1.0" encoding="utf-8"?>
<svg version="1.1" viewBox="0 0 3839 933.2" xmlns="http://www.w3.org/2000/svg">
  <path class="st3" d="M 1977.7 10 L 1977.7 923.2 L 10 923.2 L 10 10 L 1977.7 10 M 1987.7 0 L 0 0 L 0 933.2 L 1987.7 933.2 L 1987.7 0 L 1987.7 0 Z" style="fill: rgb(255, 255, 255);"/>
  <path class="st3" d="M 3320.8 137 C 3302.5 137 3287.6 196.3 3287.6 269.5 L 3287.6 663.5 C 3287.6 736.6 3302.5 796 3320.8 796 C 3339.1 796 3354 736.7 3354 663.5 L 3354 269.5 C 3354 196.4 3339.1 137 3320.8 137 Z" style="fill: rgb(255, 255, 255);"/>
  <path class="st3" d="M 3050.9 137 C 3032.6 137 3017.7 196.3 3017.7 269.5 L 3017.7 663.5 C 3017.7 736.6 3032.6 796 3050.9 796 C 3069.2 796 3084.1 736.7 3084.1 663.5 L 3084.1 269.5 C 3084.1 196.4 3069.2 137 3050.9 137 Z" style="fill: rgb(255, 255, 255);"/>
  <path class="st3" d="M 1987.7 0 L 1987.7 933.2 L 3839 933.2 L 3839 0 L 1987.7 0 Z M 2337.5 816.7 L 2330.6 816.7 L 2306.4 737.8 L 2306.1 737.8 C 2291.8 788.9 2280.5 819.7 2252.6 819.7 C 2189.4 819.7 2138.2 661.7 2138.2 466.6 C 2138.2 271.5 2189.4 113.5 2252.6 113.5 C 2270.6 113.5 2285.7 125.2 2297.6 147.8 L 2319.7 116.2 L 2326.6 116.2 L 2326.6 331.4 C 2326.6 331.4 2322.7 331.4 2320.8 331.4 C 2320.4 331.4 2320.2 331.4 2320 331.4 C 2319.7 331.4 2319.6 331.4 2319.6 331.4 C 2303.6 232.3 2274.1 137 2252.6 137 C 2231.1 137 2213.8 196.3 2213.8 269.5 L 2213.8 663.6 C 2213.8 736.7 2231.2 796.1 2252.6 796.1 C 2270.7 796.1 2277.9 754 2282.3 697 L 2282.3 451.5 L 2248.2 427.6 L 2248.2 420.7 L 2337.5 420.7 L 2337.5 816.7 Z M 2660 816.6 L 2541 816.6 L 2541 809.7 L 2571.8 788.1 L 2512.6 521.2 L 2447.5 791.1 L 2474.1 809.7 L 2474.1 816.6 L 2387.9 816.6 L 2387.9 809.7 L 2420.9 786.7 L 2499.3 461.2 L 2430.8 152.2 L 2399.1 130 L 2399.1 123.1 L 2518.1 123.1 L 2518.1 130 L 2487.4 151.6 L 2538.9 383.9 L 2595.5 149.2 L 2567.9 130 L 2567.9 123.1 L 2654.2 123.1 L 2654.2 130 L 2622.4 152.2 L 2552.1 443.9 L 2628.3 787.6 L 2660 809.7 L 2660 816.6 Z M 2889 608.7 L 2841.2 608.7 L 2841.2 787.5 L 2873 809.7 L 2873 816.6 L 2754.1 816.6 L 2754.1 809.7 L 2785.8 787.5 L 2785.8 608.7 L 2679.3 608.7 L 2782.1 123.1 L 2850.9 123.1 L 2715 581.7 L 2785.8 581.7 L 2785.8 457 L 2841.2 418 L 2841.2 581.7 L 2889 581.7 L 2889 608.7 Z M 3050.9 819.6 C 2996.7 819.6 2952.9 661.6 2952.9 466.5 C 2952.9 271.4 2996.8 113.4 3050.9 113.4 C 3105 113.4 3148.9 271.4 3148.9 466.5 C 3148.9 661.6 3105 819.6 3050.9 819.6 Z M 3320.7 819.6 C 3266.5 819.6 3222.7 661.6 3222.7 466.5 C 3222.7 271.4 3266.6 113.4 3320.7 113.4 C 3374.8 113.4 3418.7 271.4 3418.7 466.5 C 3418.7 661.6 3374.9 819.6 3320.7 819.6 Z M 3590.5 819.6 C 3536.3 819.6 3492.5 661.6 3492.5 466.5 C 3492.5 271.4 3536.4 113.4 3590.5 113.4 C 3644.5 113.4 3688.5 271.4 3688.5 466.5 C 3688.5 661.6 3644.7 819.6 3590.5 819.6 Z" style="fill: rgb(255, 255, 255);"/>
  <path class="st3" d="M 3590.5 137 C 3572.2 137 3557.3 196.3 3557.3 269.5 L 3557.3 663.6 C 3557.3 736.7 3572.2 796.1 3590.5 796.1 C 3608.8 796.1 3623.7 736.7 3623.7 663.5 L 3623.7 269.5 C 3623.7 196.4 3608.8 137 3590.5 137 Z" style="fill: rgb(255, 255, 255);"/>
  <path class="st3" d="M 347.1 710.2 L 250.3 710.2 L 242.3 614.1 L 203 614.1 L 195.7 710.2 L 99.6 710.2 L 160.8 224.7 L 286.7 224.7 L 347.1 710.2 Z M 222.6 345.4 L 208.8 534 L 236.5 534 L 222.6 345.4 Z" style="fill: rgb(255, 255, 255);"/>
  <path class="st3" d="M 673.3 710.2 L 580.9 710.2 L 580.9 435 L 544.5 710.2 L 484.8 710.2 L 446.2 433.5 L 446.2 710.2 L 353.8 710.2 L 353.8 224.6 L 489.3 224.6 L 513.4 439.3 L 538.9 224.6 L 673.6 224.6 L 673.6 710.2 L 673.3 710.2 Z" style="fill: rgb(255, 255, 255);"/>
  <path class="st3" d="M 824.6 391.3 L 824.6 333.7 C 824.6 318.4 823.9 313.3 822.5 309.6 C 819.6 304.5 815.2 300.8 810.1 300.8 C 805 300.8 799.2 304.4 797 309.6 C 795.5 314 794.9 317.6 794.9 333.7 L 794.9 369.3 C 794.9 385.4 799.3 391.1 818.2 401.3 L 861.9 425.4 C 919.5 457.4 927.4 470.5 927.4 536 L 927.4 614 C 927.4 656.3 924.5 670.1 912.8 685.4 C 896.8 707.2 879.3 711.6 803.6 711.6 C 743.1 711.6 726.5 708 710.4 689.8 C 701 679.6 696.6 668 694.4 649.8 C 692.9 640.4 692.9 629.4 692.9 596.6 L 692.9 509.3 L 794.9 509.3 L 794.9 590.8 L 794.9 603.2 C 794.9 622.9 799.3 630.9 810.2 630.9 C 819.6 630.9 824.7 622.9 824.7 609.1 L 824.7 596.7 L 824.7 542.8 L 824 532.6 C 823.3 514.4 821.1 510.8 803.6 501.3 C 797.1 497.7 791.9 495.5 791.2 494.8 L 748.1 470.7 C 700.8 443.7 692.8 428.4 692.8 368.1 L 692.8 311.3 C 692.8 271.3 697.2 253.7 712.5 239.9 C 728.5 225.4 747.5 221.7 818.1 221.7 C 879.9 221.7 896.7 226.1 912 246.4 C 924.4 262.5 927.3 277.7 927.3 322.8 L 927.3 391.3 L 824.6 391.3 L 824.6 391.3 Z" style="fill: rgb(255, 255, 255);"/>
  <path class="st3" d="M 1088 710.2 L 985.3 710.2 L 985.3 303.2 L 933.6 303.2 L 933.6 224.6 L 1138.2 224.6 L 1138.2 303.2 L 1088 303.2 L 1088 710.2 Z" style="fill: rgb(255, 255, 255);"/>
  <path class="st3" d="M 1253.8 224.6 L 1290.2 225.3 C 1361.6 226.8 1379 245.7 1379 319.2 L 1379 370.1 C 1379 437.8 1368.8 461.2 1333.1 470.6 C 1350.5 476.4 1360.8 484.4 1368.1 497.6 C 1377.5 514.3 1379 527.5 1379 584.3 L 1379 710.2 L 1277 710.2 L 1277 564.6 C 1277 516.6 1277 517.3 1251.5 516.6 C 1250 516.6 1249.4 516.6 1247.1 516.6 L 1247.1 710.3 L 1144.5 710.3 L 1144.5 224.6 L 1253.8 224.6 Z M 1254.4 427.7 C 1274.1 427.7 1277 423.3 1277 392.1 L 1277 339.7 L 1276.3 326.6 C 1276.3 309.2 1271.9 304 1258.1 304 L 1251.6 304 L 1247.2 304 L 1247.2 427.8 C 1250.8 427.7 1253.1 427.7 1254.4 427.7 Z" style="fill: rgb(255, 255, 255);"/>
  <path class="st3" d="M 1629.4 710.2 L 1532.6 710.2 L 1524.6 614.1 L 1485.3 614.1 L 1478 710.2 L 1381.9 710.2 L 1443.1 224.7 L 1569 224.7 L 1629.4 710.2 Z M 1504.9 345.4 L 1491.1 534 L 1518.8 534 L 1504.9 345.4 Z" style="fill: rgb(255, 255, 255);"/>
  <path class="st3" d="M 1735.6 224.6 C 1823.7 224.6 1836.1 226.7 1852.8 246.4 C 1868.1 263.8 1871.7 282.8 1871.7 349.8 L 1871.7 589.4 C 1871.7 649.1 1869.6 665.2 1857.9 682.6 C 1844.1 703 1823.7 709.6 1773.5 709.6 L 1721.8 710.3 L 1635.9 710.3 L 1635.9 224.6 L 1735.6 224.6 Z M 1748.1 630.9 C 1764.1 630.9 1767.8 625.8 1767.8 605.4 C 1767.8 602.5 1767.8 600.3 1767.8 595.2 C 1767.8 587.2 1767.8 578.5 1767.8 571.1 L 1767.8 343.3 L 1767.8 330.9 C 1767.8 309.1 1764.2 303.9 1748.1 303.9 C 1746 303.9 1742.3 304.6 1738.7 304.6 L 1738.7 630.7 C 1742.2 630.9 1745.8 630.9 1748.1 630.9 Z" style="fill: rgb(255, 255, 255);"/>
  <polygon class="st3" points="1227 933.2 1675.4 0 1664.3 0 1215.9 933.2" style="fill: rgb(255, 255, 255);"/>
  <polygon class="st3" points="841.2 933.2 1303.3 0 1292.1 0 830 933.2" style="fill: rgb(255, 255, 255);"/>
</svg>