<?xml version="1.0" encoding="UTF-8" standalone="no"?>
<!-- Created with Inkscape (http://www.inkscape.org/) -->

<svg
   width="114.29978mm"
   height="23.868401mm"
   viewBox="0 0 114.29978 23.8684"
   version="1.1"
   id="svg5"
   xmlns="http://www.w3.org/2000/svg"
   xmlns:svg="http://www.w3.org/2000/svg">
  <defs
     id="defs2" />
  <g
     id="layer1"
     transform="translate(-14.332938,-82.100289)">
    <g
       aria-label="HYDRA CASTLE"
       id="text236"
       style="font-size:16.9333px;font-family:'04b03';-inkscape-font-specification:'04b03, Normal';fill:#ffffff;stroke-width:0.264999">
      <path
         d="m 20.682926,86.333614 h -4.233325 v -4.233325 h -2.116663 v 10.583312 h 2.116663 v -4.233325 h 4.233325 v 4.233325 h 2.116662 V 82.100289 h -2.116662 z"
         id="path1007" />
      <path
         d="m 27.032914,82.100289 h -2.116663 v 4.233325 h 2.116663 z m 4.233325,4.233325 h -4.233325 v 2.116662 h 4.233325 v 2.116663 h 2.116662 v -8.46665 h -2.116662 z m -4.233325,4.233325 v 2.116662 h 4.233325 v -2.116662 z"
         id="path1009" />
      <path
         d="m 41.849552,90.550006 v -6.316121 h -4.233325 v 6.316121 z m 0,2.133595 H 35.499564 V 82.100289 h 6.349988 v 2.116662 h 2.116662 v 6.349988 h -2.116662 z"
         id="path1011" />
      <path
         d="M 54.549527,92.683601 H 52.432865 V 90.566939 H 48.19954 v 2.116662 H 46.082877 V 82.100289 h 6.349988 v 2.099729 H 48.19954 v 4.233325 h 4.233325 v -4.216392 h 2.116662 v 4.233325 h -2.116662 v 2.116663 h 2.116662 z"
         id="path1013" />
      <path
         d="m 58.782853,84.216951 v -2.116662 h 4.233325 v 2.116662 h 2.116662 v 8.46665 h -2.116662 v -2.116662 h -4.233325 v 2.116662 H 56.66619 v -8.46665 z m 4.233325,4.233325 v -4.216391 h -4.233325 v 4.216391 z"
         id="path1015" />
      <path
         d="m 82.066143,84.216951 v -2.116662 h -4.233325 v 2.116662 z m -4.233325,0 h -2.116663 v 6.349988 h 2.116663 z m 4.233325,8.46665 v -2.116662 h -4.233325 v 2.116662 z"
         id="path1017" />
      <path
         d="m 86.299469,84.216951 v -2.116662 h 4.233325 v 2.116662 h 2.116663 v 8.46665 h -2.116663 v -2.116662 h -4.233325 v 2.116662 h -2.116662 v -8.46665 z m 4.233325,4.233325 v -4.216391 h -4.233325 v 4.216391 z"
         id="path1019" />
      <path
         d="m 94.76612,86.333614 h 2.116662 V 84.216951 H 94.76612 Z m 2.116662,-4.233325 v 2.116662 h 6.349988 v -2.116662 z m 4.233328,6.349987 v -2.116662 h -4.233328 v 2.116662 z m 2.11666,2.116663 v -2.116663 h -2.11666 v 2.116663 z m -8.46665,0 v 2.116662 h 6.34999 v -2.116662 z"
         id="path1021" />
      <path
         d="m 107.4661,92.683601 h 2.11666 v -8.46665 h 2.11666 v -2.116662 h -6.34999 v 2.116662 h 2.11667 z"
         id="path1023" />
      <path
         d="m 120.16606,92.683601 v -2.116662 h -4.23332 v -8.46665 h -2.11666 v 10.583312 z"
         id="path1025" />
      <path
         d="m 128.63272,92.683601 v -2.116662 h -4.23333 v -2.116663 h 4.23333 v -2.116662 h -4.23333 v -2.116663 h 4.23333 v -2.116662 h -6.34999 v 10.583312 z"
         id="path1027" />
    </g>
    <g
       aria-label="LABYRINTH"
       id="text406"
       style="font-size:16.9333px;font-family:'04b03';-inkscape-font-specification:'04b03, Normal';fill:#ffffff;stroke-width:0.264999"
       transform="translate(0,-1.5875)">
      <path
         d="m 34.441233,107.55619 v -2.11666 h -4.233325 v -8.466652 h -2.116662 v 10.583312 z"
         id="path988" />
      <path
         d="m 38.674558,99.08954 v -2.116662 h 4.233325 v 2.116662 h 2.116663 v 8.46665 h -2.116663 v -2.11666 h -4.233325 v 2.11666 h -2.116662 v -8.46665 z m 4.233325,4.23333 v -4.216396 h -4.233325 v 4.216396 z"
         id="path990" />
      <path
         d="m 49.257871,101.18927 h 4.233325 v -2.082796 h -4.233325 z m 4.233325,2.15053 h -4.233325 v 2.08279 h 4.233325 z m 2.116663,2.09973 h -2.116663 v 2.11666 H 47.141209 V 96.972878 h 6.349987 v 2.116662 h 2.116663 v 2.11666 h -2.116663 v 2.11667 h 2.116663 z"
         id="path992" />
      <path
         d="m 59.841184,96.972878 h -2.116662 v 4.233322 h 2.116662 z m 4.233325,4.233322 h -4.233325 v 2.11667 h 4.233325 v 2.11666 h 2.116663 v -8.466652 h -2.116663 z m -4.233325,4.23333 v 2.11666 h 4.233325 v -2.11666 z"
         id="path994" />
      <path
         d="m 76.774487,107.55619 h -2.116663 v -2.11666 h -4.233325 v 2.11666 H 68.307837 V 96.972878 h 6.349987 v 2.099729 h -4.233325 v 4.233323 h 4.233325 v -4.21639 h 2.116663 v 4.23333 h -2.116663 v 2.11666 h 2.116663 z"
         id="path996" />
      <path
         d="m 83.124475,99.08954 h 2.116662 V 96.972878 H 78.89115 v 2.116662 h 2.116662 v 6.34999 H 78.89115 v 2.11666 h 6.349987 v -2.11666 h -2.116662 z"
         id="path998" />
      <path
         d="m 93.707785,103.32287 v 4.23332 h 2.116663 V 96.972878 h -2.116663 v 4.233322 h -2.116662 v 2.11667 z M 89.47446,101.2062 h 2.116663 V 99.08954 H 89.47446 v -2.116662 h -2.116662 v 10.583312 h 2.116662 z"
         id="path1000" />
      <path
         d="m 100.05778,107.55619 h 2.11666 v -8.46665 h 2.11666 v -2.116662 h -6.349986 v 2.116662 h 2.116666 z"
         id="path1002" />
      <path
         d="m 112.75775,101.2062 h -4.23333 v -4.233322 h -2.11666 v 10.583312 h 2.11666 v -4.23332 h 4.23333 v 4.23332 h 2.11666 V 96.972878 h -2.11666 z"
         id="path1004" />
    </g>
  </g>
</svg>
