<?xml version="1.0" encoding="UTF-8" standalone="no"?>
<!-- Created with Inkscape (http://www.inkscape.org/) -->

<svg
   width="77.774658mm"
   height="11.17612mm"
   viewBox="0 0 77.774658 11.17612"
   version="1.1"
   id="svg5"
   xmlns="http://www.w3.org/2000/svg"
   xmlns:svg="http://www.w3.org/2000/svg">
  <defs
     id="defs2" />
  <g
     id="layer1"
     transform="translate(-27.126849,-133.96185)">
    <g
       aria-label="HURRICAN"
       id="text790"
       style="font-size:16.9333px;font-family:'Victory Comics Condensed Italic';-inkscape-font-specification:'Victory Comics Condensed Italic, Normal';fill:#ffffff;stroke-width:0.264999">
      <path
         d="M 33.121241,141.36174 H 32.03751 q -0.08467,0 -0.186266,0.0847 -0.1016,0.0677 -0.1524,0.16934 l -1.236131,3.04799 q -0.08467,0.18627 -0.304799,0.33867 -0.2032,0.13546 -0.321733,0.13546 h -2.421462 q -0.1016,0 -0.2032,-0.0847 -0.08467,-0.1016 -0.08467,-0.23707 0,0.0169 0.03387,-0.1524 l 2.709328,-6.70559 0.01693,-0.1524 q 0,-0.1524 -0.118533,-0.22013 h -0.1524 q -0.1016,-0.0169 -0.1524,-0.11853 -0.03387,-0.1016 -0.03387,-0.23707 0,-0.0847 0.03387,-0.22013 l 0.999065,-2.4892 q 0.06773,-0.16933 0.254,-0.3556 0.186266,-0.20319 0.355599,-0.20319 h 3.28506 q 0.08467,0 0.169333,0.10159 0.1016,0.0847 0.1016,0.22014 0,-0.0169 -0.03387,0.1524 l -1.202264,2.99719 q -0.03387,0.13547 -0.03387,0.13547 0,0.16933 0.1524,0.16933 h 1.083731 q 0.118533,0 0.220133,-0.1016 0.1016,-0.11853 0.135467,-0.2032 l 1.202264,-2.99719 q 0.08467,-0.18627 0.304799,-0.32174 0.220133,-0.15239 0.338666,-0.15239 h 2.421462 q 0.1016,0 0.186266,0.0847 0.08467,0.0847 0.08467,0.22013 0,0.0339 -0.03387,0.16934 l -4.131725,10.22771 q -0.08467,0.2032 -0.287866,0.33867 -0.2032,0.13546 -0.338666,0.13546 h -2.421462 q -0.08467,0 -0.186266,-0.1016 -0.1016,-0.1016 -0.1016,-0.23706 0,0 0,-0.0339 0.01693,-0.0339 0.03387,-0.1016 l 1.236131,-3.04799 q 0,-0.0339 0,-0.0508 0.01693,-0.0169 0.01693,-0.0339 0,-0.16933 -0.1524,-0.16933 z"
         style="stroke-width:0.265"
         id="path900" />
      <path
         d="m 46.041356,133.96189 q -0.135466,0 -0.355599,0.13546 -0.203199,0.13547 -0.287866,0.33867 l -2.726261,6.77332 q -0.169333,0.28786 -0.3556,0.32173 h -1.117597 q -0.1016,0 -0.1016,-0.18627 0,-0.0169 0,-0.0508 0.01693,-0.0508 0.03387,-0.13546 l 2.709328,-6.72252 q 0.03387,-0.16934 0.03387,-0.1524 0,-0.13547 -0.1016,-0.22014 -0.08467,-0.10159 -0.186266,-0.10159 h -2.404529 q -0.135466,0 -0.355599,0.13546 -0.2032,0.13547 -0.287866,0.33867 l -3.352793,8.33118 q -0.287867,0.77893 -0.287867,1.23613 0,0.52493 0.270933,0.82973 0.270933,0.3048 0.778932,0.3048 h 4.707457 q 0.372533,0 0.761999,-0.16933 0.389466,-0.18627 0.745065,-0.49107 0.355599,-0.32173 0.660399,-0.74506 0.304799,-0.44027 0.524932,-0.9652 l 3.352794,-8.33118 q 0.03387,-0.16934 0.03387,-0.1524 0,-0.13547 -0.1016,-0.22014 -0.08467,-0.10159 -0.169333,-0.10159 z"
         style="stroke-width:0.265"
         id="path902" />
      <path
         d="m 50.359341,133.96189 q -0.169333,0 -0.355599,0.20319 -0.169333,0.18627 -0.254,0.3556 l -0.999064,2.4892 q -0.0508,0.1016 -0.0508,0.23707 0,0.30479 0.186266,0.33866 h 0.169333 q 0.1016,0.1016 0.1016,0.16933 l -0.03387,0.2032 -2.709328,6.70559 q -0.03387,0.16933 -0.03387,0.1524 0,0.13547 0.08467,0.23707 0.1016,0.0847 0.220133,0.0847 h 2.404529 q 0.135466,0 0.338666,-0.13546 0.203199,-0.1524 0.287866,-0.33867 l 0.812798,-2.01506 q 0.06773,-0.1524 0.254,-0.3048 0.186266,-0.16933 0.338666,-0.18627 l 0.287866,2.54 q 0,0.13546 0.135466,0.28786 0.135467,0.1524 0.372533,0.1524 h 2.319862 q 0.135466,0 0.321733,-0.13546 0.203199,-0.1524 0.287866,-0.33867 L 54.5588,141.86974 q 0.152399,0 0.423332,-0.18627 0.287866,-0.18627 0.575732,-0.47413 0.3048,-0.28787 0.558799,-0.62653 0.270933,-0.3556 0.406399,-0.67734 l 1.439331,-3.57292 q 0.270933,-0.6096 0.270933,-1.23613 0,-1.13453 -1.049865,-1.13453 z m 3.572926,3.60679 q 0.1016,0 0.1016,0.18626 0,0.0169 -0.01693,0.0677 0,0.0339 -0.01693,0.11853 l -0.1524,0.37253 q -0.06773,0.13547 -0.169333,0.254 -0.1016,0.1016 -0.186266,0.11854 h -1.185331 q -0.1016,0 -0.118533,-0.11854 l 0.338666,-0.8636 q 0.08467,-0.11853 0.203199,-0.13546 z"
         style="stroke-width:0.265"
         id="path904" />
      <path
         d="m 60.63786,133.96189 q -0.169333,0 -0.355599,0.20319 -0.169333,0.18627 -0.254,0.3556 l -0.999065,2.4892 q -0.0508,0.1016 -0.0508,0.23707 0,0.30479 0.186267,0.33866 h 0.169333 q 0.1016,0.1016 0.1016,0.16933 l -0.03387,0.2032 -2.709328,6.70559 q -0.03387,0.16933 -0.03387,0.1524 0,0.13547 0.08467,0.23707 0.1016,0.0847 0.220133,0.0847 h 2.404528 q 0.135467,0 0.338666,-0.13546 0.2032,-0.1524 0.287866,-0.33867 l 0.812799,-2.01506 q 0.06773,-0.1524 0.253999,-0.3048 0.186267,-0.16933 0.338666,-0.18627 l 0.287866,2.54 q 0,0.13546 0.135467,0.28786 0.135466,0.1524 0.372532,0.1524 h 2.319863 q 0.135466,0 0.321732,-0.13546 0.2032,-0.1524 0.287866,-0.33867 l -0.287866,-2.79399 q 0.1524,0 0.423333,-0.18627 0.287866,-0.18627 0.575732,-0.47413 0.304799,-0.28787 0.558799,-0.62653 0.270933,-0.3556 0.406399,-0.67734 l 1.439331,-3.57292 q 0.270932,-0.6096 0.270932,-1.23613 0,-1.13453 -1.049864,-1.13453 z m 3.572926,3.60679 q 0.1016,0 0.1016,0.18626 0,0.0169 -0.01693,0.0677 0,0.0339 -0.01693,0.11853 l -0.152399,0.37253 q -0.06773,0.13547 -0.169333,0.254 -0.1016,0.1016 -0.186267,0.11854 h -1.185331 q -0.101599,0 -0.118533,-0.11854 l 0.338666,-0.8636 q 0.08467,-0.11853 0.2032,-0.13546 z"
         style="stroke-width:0.265"
         id="path906" />
      <path
         d="m 76.707567,133.96189 q 0.1016,0 0.1524,0.10159 0.0508,0.0847 0.0508,0.2032 0,0.13547 -0.0508,0.254 l -0.999065,2.4892 q -0.06773,0.1524 -0.270933,0.3556 -0.186266,0.2032 -0.338666,0.2032 h -1.015998 q -0.08467,0 -0.186266,0.1016 -0.1016,0.0847 -0.169333,0.22013 l -1.337731,3.30199 q -0.01693,0.0169 -0.01693,0.1524 0,0.18627 0.1016,0.18627 h 1.015998 q 0.1016,0 0.152399,0.1016 0.0508,0.1016 0.0508,0.23707 0,0.0847 -0.03387,0.22013 l -1.015998,2.48919 q -0.06773,0.16934 -0.254,0.37254 -0.186266,0.18626 -0.355599,0.18626 h -5.791189 q -0.101599,0 -0.152399,-0.0847 -0.0508,-0.1016 -0.0508,-0.22014 0,-0.11853 0.0508,-0.254 l 1.015998,-2.48919 q 0.06773,-0.1524 0.253999,-0.3556 0.186266,-0.2032 0.338666,-0.2032 h 1.015998 q 0.08467,0 0.2032,-0.11853 0.135466,-0.11854 0.186266,-0.254 l 1.303864,-3.21733 q 0.03387,-0.16933 0.03387,-0.16933 0,-0.2032 -0.118533,-0.2032 h -1.015998 q -0.2032,0 -0.2032,-0.32173 0,-0.13547 0.0508,-0.23707 l 0.999065,-2.4892 q 0.06773,-0.16933 0.253999,-0.3556 0.186266,-0.20319 0.355599,-0.20319 z"
         style="stroke-width:0.265"
         id="path908" />
      <path
         d="m 80.907039,140.26107 q -0.135466,0 -0.338666,0.13547 -0.203199,0.13547 -0.287866,0.33867 l -0.186266,0.47413 q -0.169333,0.28786 -0.355599,0.32173 h -1.117598 q -0.1016,0 -0.1016,-0.18627 0,-0.0169 0,-0.0508 0.01693,-0.0508 0.03387,-0.13546 l 1.303864,-3.21733 q 0.169333,-0.3048 0.355599,-0.37253 h 1.117598 q 0.118533,0 0.118533,0.2032 0,0.11853 -0.01693,0.13546 l -0.2032,0.47414 q -0.03387,0.16933 -0.03387,0.1524 0,0.13546 0.08467,0.23706 0.1016,0.0847 0.2032,0.0847 h 2.421462 q 0.118533,0 0.321732,-0.13547 0.220133,-0.1524 0.3048,-0.33866 l 0.829731,-2.04893 q 0.270933,-0.6096 0.270933,-1.23613 0,-0.52494 -0.270933,-0.82974 -0.253999,-0.30479 -0.761998,-0.30479 h -4.707458 q -0.389465,0 -0.778931,0.18626 -0.389466,0.16933 -0.745066,0.49107 -0.355599,0.3048 -0.660398,0.74506 -0.3048,0.42333 -0.507999,0.94827 l -2.590795,6.43465 q -0.287866,0.77893 -0.287866,1.23613 0,0.52493 0.270933,0.82973 0.270932,0.3048 0.778931,0.3048 h 4.707458 q 0.372532,0 0.761998,-0.16933 0.389466,-0.18627 0.745065,-0.49107 0.3556,-0.32173 0.660399,-0.74506 0.3048,-0.44027 0.524932,-0.9652 l 0.812799,-2.03199 q 0.01693,-0.0677 0.01693,-0.1016 0.01693,-0.0339 0.01693,-0.0339 0,-0.13547 -0.101599,-0.23707 -0.1016,-0.1016 -0.186267,-0.1016 z"
         style="stroke-width:0.265"
         id="path910" />
      <path
         d="m 90.40661,138.56774 q -0.118533,0.11854 -0.220133,0.11854 h -1.168398 q -0.118533,-0.0169 -0.118533,-0.16934 0,-0.1016 0.0508,-0.2032 l 0.169333,-0.4064 q 0.1016,-0.23706 0.3556,-0.33866 h 1.117597 q 0.08467,0 0.1016,0.0847 0.01693,0.0677 0.01693,0.16934 z m 2.353729,-4.60585 q -0.135467,0 -0.389466,0.22013 -0.237066,0.2032 -0.321733,0.4064 l -0.1016,0.0847 q -0.0508,-0.0508 -0.118533,-0.16933 -0.0508,-0.11853 -0.169333,-0.23707 -0.1016,-0.11853 -0.304799,-0.2032 -0.186266,-0.10159 -0.491066,-0.10159 h -1.727196 q -0.389466,0 -0.778932,0.18626 -0.389466,0.16933 -0.745065,0.49107 -0.3556,0.3048 -0.660399,0.74506 -0.3048,0.42333 -0.507999,0.94827 l -3.369727,8.33118 q -0.03387,0.16933 -0.03387,0.1524 0,0.13547 0.08467,0.23707 0.1016,0.0847 0.2032,0.0847 h 2.404528 q 0.135467,0 0.338666,-0.13546 0.220133,-0.1524 0.3048,-0.33867 l 0.778931,-1.91346 q 0.06773,-0.16934 0.220133,-0.32173 0.1524,-0.16934 0.372533,-0.16934 h 0.761998 q 0.237067,0.0339 0.237067,0.33867 0,-0.0169 -0.03387,0.1524 l -0.778932,1.91346 q -0.01693,0.0677 -0.03387,0.1016 0,0.0339 0,0.0339 0,0.13546 0.101599,0.23706 0.1016,0.1016 0.186267,0.1016 h 2.421462 q 0.135466,0 0.338666,-0.13546 0.203199,-0.13547 0.287866,-0.33867 l 4.131725,-10.22771 q 0.03387,-0.13547 0.03387,-0.16934 0,-0.13546 -0.08467,-0.22013 -0.08467,-0.0847 -0.186266,-0.0847 z"
         style="stroke-width:0.265"
         id="path912" />
      <path
         d="m 97.027527,133.96189 h 6.824123 q 1.04986,0 1.04986,1.13453 0,0.62653 -0.27093,1.23613 l -3.36973,8.33118 q -0.0847,0.18627 -0.3048,0.33867 -0.2032,0.13546 -0.33866,0.13546 h -2.404532 q -0.118533,0 -0.220133,-0.0847 -0.08467,-0.1016 -0.08467,-0.23707 0,0.0169 0.03387,-0.1524 l 2.743195,-6.77332 q 0.0339,-0.16933 0.0339,-0.1524 0,-0.13547 -0.1016,-0.16933 h -1.134535 q -0.06773,0 -0.1524,0.0847 -0.08467,0.0677 -0.169333,0.16934 l -2.777061,6.84105 q -0.08467,0.18627 -0.287866,0.33867 -0.2032,0.13546 -0.338666,0.13546 H 93.35303 q -0.118533,0 -0.220133,-0.0847 -0.08467,-0.1016 -0.08467,-0.23707 0,0.0169 0.03387,-0.1524 l 2.709328,-6.70559 0.01693,-0.18626 q 0,-0.1016 -0.1016,-0.18627 h -0.1524 q -0.186266,-0.0339 -0.186266,-0.33866 0,-0.13547 0.0508,-0.23707 l 0.999065,-2.4892 q 0.06773,-0.16933 0.253999,-0.3556 0.186266,-0.20319 0.355599,-0.20319 z"
         style="stroke-width:0.265"
         id="path914" />
    </g>
  </g>
</svg>
