<?xml version="1.0" encoding="UTF-8" ?>
<!DOCTYPE svg PUBLIC "-//W3C//DTD SVG 1.1//EN" "http://www.w3.org/Graphics/SVG/1.1/DTD/svg11.dtd">
<svg width="2517pt" height="360pt" viewBox="0 0 2517 360" version="1.1" xmlns="http://www.w3.org/2000/svg">
<path fill="#ffffff" stroke="#ffffff" stroke-width="0.09375" opacity="1.00" d=" M 0.0 0.0 L 125.5 0.0 C 128.5 2.4 133.3 4.4 132.9 9.0 C 132.9 122.7 132.9 236.3 132.9 350.0 C 133.3 354.5 129.2 357.3 126.3 360.0 L 0.0 360.0 L 0.0 0.0 M 10.1 24.9 C 8.9 28.5 9.4 32.3 9.3 36.0 C 9.3 139.9 9.3 243.8 9.3 347.7 C 15.2 347.4 21.1 347.6 27.0 347.6 C 57.2 347.6 87.4 347.5 117.5 347.6 C 117.3 341.1 117.5 334.5 117.4 328.0 C 117.5 223.9 117.3 119.7 117.5 15.6 C 115.0 15.7 112.5 15.7 110.0 15.7 C 77.5 15.6 45.0 15.8 12.5 15.6 C 11.8 18.7 11.0 21.8 10.1 24.9 Z" />
<path fill="#ffffff" stroke="#ffffff" stroke-width="0.09375" opacity="1.00" d=" M 273.4 0.0 L 403.0 0.0 C 403.5 1.6 403.7 3.3 403.8 5.0 C 404.5 38.0 405.4 71.0 406.2 104.0 C 406.3 110.7 406.7 117.4 406.6 124.0 C 411.9 116.0 417.9 108.4 423.5 100.6 C 446.0 70.1 468.4 39.5 490.9 9.0 C 493.1 6.0 495.2 2.9 497.7 0.0 L 584.9 0.0 C 585.8 5.0 586.6 10.0 587.1 15.1 C 587.3 16.9 585.7 18.3 584.7 19.7 C 572.7 33.8 560.9 47.9 549.0 62.0 C 534.9 78.7 521.1 95.5 507.0 112.2 C 518.0 133.8 528.8 155.5 540.0 177.0 C 548.3 193.7 556.8 210.3 565.2 227.0 C 574.8 245.1 583.7 263.6 593.3 281.7 C 603.9 302.8 614.7 323.6 625.4 344.6 C 626.2 346.3 627.1 348.0 627.3 349.8 C 625.3 353.6 622.1 356.6 619.6 360.0 L 476.5 360.0 C 472.9 354.8 470.4 349.0 467.6 343.3 C 452.4 311.3 437.8 279.0 423.2 246.8 C 420.9 241.8 418.5 236.8 416.6 231.7 C 413.2 236.2 409.4 240.5 406.0 245.1 C 405.0 246.2 405.4 247.7 405.3 249.0 C 405.3 282.3 405.2 315.7 405.3 349.0 C 405.2 350.6 405.3 352.3 404.7 353.8 C 403.0 356.1 400.8 358.1 398.7 360.0 L 276.2 360.0 C 274.0 358.0 271.9 355.8 269.8 353.6 C 267.6 355.6 265.4 357.7 263.4 360.0 L 146.2 360.0 C 144.1 357.4 141.6 354.9 139.9 351.9 C 139.2 348.7 139.7 345.3 139.7 342.0 C 140.2 314.0 140.9 286.0 141.3 258.0 C 141.4 256.1 141.4 254.1 142.5 252.5 C 143.7 251.5 145.5 251.7 147.0 251.5 C 184.3 250.9 221.7 250.3 259.0 250.0 C 260.6 250.1 262.4 250.1 263.5 251.3 C 265.9 254.1 267.9 257.2 269.7 260.3 C 269.4 255.6 269.6 250.8 269.6 246.0 C 269.5 172.0 269.6 98.0 269.5 24.0 C 269.6 20.0 269.2 15.9 270.2 12.0 C 271.2 8.0 272.4 4.0 273.4 0.0 M 285.1 15.7 C 284.9 35.8 285.3 55.9 284.7 76.0 C 284.7 157.3 284.7 238.7 284.7 320.0 C 285.2 329.2 284.9 338.4 285.0 347.6 C 320.0 347.6 354.9 347.5 389.9 347.6 C 389.8 333.1 389.9 318.5 390.0 304.0 C 390.5 298.0 390.4 292.0 390.0 286.0 C 389.9 272.3 390.0 258.7 389.9 245.0 C 389.6 241.4 392.2 238.6 394.2 236.0 C 400.6 227.2 408.1 219.4 414.9 210.9 C 415.9 209.8 417.0 208.4 418.7 208.4 C 420.1 208.6 421.1 209.8 421.9 211.0 C 427.5 219.4 431.2 228.8 435.3 238.0 C 451.6 274.6 468.9 310.8 484.8 347.6 C 526.6 347.6 568.3 347.5 610.1 347.6 C 603.3 332.8 595.9 318.2 588.3 303.8 C 579.5 286.4 570.5 269.2 561.7 251.9 C 560.8 250.2 558.6 249.9 557.7 248.3 C 555.4 244.8 555.2 240.5 553.2 236.9 C 534.8 199.7 516.0 162.6 497.5 125.4 C 497.0 125.2 496.1 124.6 495.6 124.4 C 493.8 120.5 491.7 116.8 489.9 112.9 C 489.3 111.7 489.2 110.2 490.0 109.0 C 492.6 105.4 495.8 102.1 498.7 98.7 C 521.5 72.0 544.2 45.3 565.8 17.6 C 566.3 17.1 567.3 16.0 567.8 15.5 C 546.9 15.9 525.9 15.6 505.0 15.7 C 468.6 63.9 432.8 112.6 396.8 161.1 C 395.9 162.7 393.8 162.2 392.4 161.8 C 389.7 154.8 389.9 147.3 389.9 140.0 C 389.9 122.3 389.8 104.7 389.9 87.0 C 390.6 81.7 390.2 76.3 389.8 71.0 C 389.8 52.6 389.8 34.1 389.8 15.7 C 354.9 15.7 320.0 15.7 285.1 15.7 M 152.7 303.0 C 153.6 317.9 154.8 332.7 155.6 347.6 C 189.5 347.5 223.5 347.6 257.5 347.6 C 256.5 335.1 256.8 322.5 256.3 310.0 C 256.5 294.5 255.3 279.1 255.4 263.6 C 249.6 263.8 243.8 263.6 238.0 263.7 C 209.8 263.7 181.6 263.8 153.4 263.6 C 151.8 276.7 152.5 289.9 152.7 303.0 Z" />
<path fill="#ffffff" stroke="#ffffff" stroke-width="0.09375" opacity="1.00" d=" M 779.4 0.0 L 1042.0 0.0 C 1042.9 3.6 1042.7 7.3 1042.9 11.0 C 1043.3 29.3 1044.0 47.7 1044.5 66.0 C 1044.8 68.9 1042.4 70.8 1040.6 72.6 C 1038.2 74.9 1036.0 77.4 1033.5 79.5 C 1032.0 81.0 1029.9 80.8 1028.0 80.9 C 989.1 80.8 950.2 80.9 911.2 80.9 C 911.2 99.4 911.3 118.0 911.2 136.6 C 952.5 136.8 993.8 137.4 1035.1 138.1 C 1037.3 138.0 1039.5 139.7 1039.3 142.1 C 1040.0 161.7 1040.5 181.4 1041.2 201.0 C 1041.1 203.3 1041.6 206.0 1039.9 207.8 C 1037.5 210.5 1035.4 213.4 1032.9 216.0 C 1031.7 217.3 1029.6 216.9 1028.0 217.1 C 989.1 217.0 950.1 217.1 911.2 217.0 C 911.2 238.8 911.2 260.6 911.2 282.4 C 950.8 282.3 990.4 282.5 1030.0 282.4 C 1032.4 282.4 1034.9 282.2 1037.2 282.6 C 1039.3 283.3 1040.8 285.2 1042.4 286.6 C 1044.6 289.0 1047.9 291.3 1047.4 295.0 C 1047.5 313.0 1047.4 331.0 1047.5 349.0 C 1047.3 350.8 1047.6 352.9 1046.4 354.4 C 1044.7 356.4 1042.7 358.2 1040.8 360.0 L 782.2 360.0 C 779.8 357.5 776.2 355.4 775.6 351.8 C 775.9 325.9 775.6 299.9 775.8 274.0 C 775.8 269.3 775.5 264.7 775.5 260.0 C 775.5 181.3 775.5 102.7 775.5 24.0 C 775.5 20.0 775.1 15.9 776.1 12.0 C 777.1 8.0 778.3 4.0 779.4 0.0 M 791.0 15.7 C 791.0 23.8 791.2 31.9 790.7 40.0 C 790.7 138.0 790.7 236.0 790.7 334.0 C 790.7 338.5 790.7 343.1 790.6 347.6 C 871.1 347.5 951.5 347.6 1032.0 347.6 C 1032.0 340.4 1031.9 333.2 1032.0 326.0 C 1032.6 316.5 1032.0 307.0 1032.4 297.6 C 1023.9 297.9 1015.5 297.6 1007.0 297.6 C 989.3 297.3 971.7 297.5 954.0 296.7 C 937.3 296.8 920.7 296.5 904.0 296.2 C 902.6 296.2 900.9 296.2 900.0 295.0 C 898.5 293.8 898.8 291.7 898.7 290.0 C 898.6 279.0 898.3 268.0 898.3 257.0 C 898.3 251.0 898.5 245.0 898.0 239.0 C 897.7 228.7 897.7 218.3 897.5 208.0 C 897.6 206.0 897.3 203.5 899.1 202.1 C 901.0 201.6 903.0 201.6 905.0 201.6 C 945.2 201.7 985.5 201.5 1025.7 201.7 C 1025.3 194.1 1025.8 186.6 1025.3 179.0 C 1024.9 168.8 1026.2 158.7 1025.8 148.6 C 984.2 148.7 942.6 148.6 901.0 148.6 C 899.5 148.6 897.5 148.6 896.8 146.9 C 895.3 144.0 898.1 141.3 899.4 138.8 C 897.9 131.6 895.7 124.4 895.8 117.0 C 895.8 105.0 895.8 93.0 895.8 81.0 C 895.7 78.0 896.5 75.0 896.2 71.9 C 896.1 70.3 895.6 68.7 896.1 67.1 C 897.5 65.3 900.0 65.4 902.0 65.4 C 944.3 65.5 986.5 65.3 1028.8 65.5 C 1028.7 48.9 1028.7 32.3 1028.7 15.6 C 949.5 15.8 870.3 15.7 791.0 15.7 Z" />
<path fill="#ffffff" stroke="#ffffff" stroke-width="0.09375" opacity="1.00" d=" M 1195.9 0.0 L 1356.2 0.0 C 1357.9 4.2 1358.9 8.7 1360.2 13.0 C 1374.2 61.6 1388.0 110.3 1402.4 158.8 C 1404.1 152.3 1406.5 146.0 1408.5 139.6 C 1423.4 93.2 1437.4 46.5 1452.2 0.0 L 1609.9 0.0 C 1610.3 6.0 1610.1 12.0 1610.2 18.0 C 1610.9 128.4 1611.4 238.7 1611.8 349.0 C 1612.2 353.8 1607.8 356.6 1605.3 360.0 L 1485.2 360.0 C 1482.5 357.3 1479.6 354.8 1477.1 352.0 C 1476.0 350.9 1476.1 349.4 1476.0 348.0 C 1475.9 289.7 1475.5 231.3 1475.8 173.0 C 1474.8 176.3 1473.9 179.7 1472.8 183.0 C 1455.6 238.3 1438.7 293.6 1421.7 349.0 C 1421.0 351.5 1420.4 354.0 1419.3 356.4 C 1418.2 358.3 1416.0 359.0 1414.2 360.0 L 1326.1 360.0 C 1323.4 354.8 1319.5 350.2 1317.5 344.7 C 1303.3 296.4 1289.3 248.2 1274.9 200.0 C 1272.0 190.0 1268.9 180.1 1266.1 170.2 C 1265.7 224.4 1265.1 278.7 1264.9 333.0 C 1264.7 340.0 1264.9 347.1 1264.7 354.1 C 1264.8 357.3 1261.3 358.4 1259.2 360.0 L 1199.4 360.0 C 1197.5 358.8 1195.4 357.8 1194.3 355.9 C 1193.7 353.0 1193.9 350.0 1193.8 347.0 C 1193.8 324.0 1193.8 301.0 1193.8 278.0 C 1193.8 273.7 1194.3 269.5 1194.2 265.2 C 1194.4 180.8 1195.0 96.4 1195.4 12.0 C 1195.4 8.0 1195.4 4.0 1195.9 0.0 M 1209.7 15.7 C 1208.5 22.1 1206.5 28.4 1206.1 35.0 C 1206.0 138.3 1206.0 241.6 1206.1 344.9 C 1207.0 345.9 1208.0 346.8 1209.0 347.8 C 1223.1 347.4 1237.1 346.4 1251.2 346.2 C 1251.7 312.5 1251.6 278.7 1252.3 245.0 C 1252.2 197.7 1252.7 150.3 1252.8 103.0 C 1252.8 100.7 1252.7 98.4 1253.1 96.2 C 1253.9 94.8 1255.5 95.1 1256.9 94.8 C 1257.6 95.9 1258.7 96.8 1259.0 98.1 C 1278.2 162.4 1297.4 226.8 1316.9 291.0 C 1322.4 309.3 1328.3 327.6 1333.7 346.0 C 1358.3 345.9 1382.9 346.0 1407.5 345.9 C 1408.4 342.2 1409.6 338.6 1410.7 335.0 C 1435.2 255.1 1459.6 175.1 1483.9 95.1 C 1484.0 93.7 1485.3 92.5 1486.9 92.8 C 1489.0 92.9 1489.3 95.4 1489.6 97.0 C 1489.9 102.7 1489.5 108.4 1489.8 114.0 C 1490.2 120.3 1489.9 126.7 1490.1 133.0 C 1490.5 174.7 1490.8 216.3 1490.7 258.0 C 1490.6 262.3 1491.1 266.7 1491.0 271.0 C 1491.0 296.6 1491.5 322.1 1491.3 347.7 C 1526.4 347.4 1561.4 347.6 1596.4 347.6 C 1596.3 343.1 1596.4 338.5 1596.3 334.0 C 1596.3 232.3 1596.4 130.7 1596.4 29.0 C 1596.4 24.5 1596.2 20.0 1596.4 15.6 C 1593.9 15.7 1591.5 15.7 1589.0 15.7 C 1546.8 15.6 1504.7 15.8 1462.5 15.6 C 1444.6 73.8 1426.5 131.9 1408.3 190.0 C 1407.3 192.8 1406.8 195.8 1405.5 198.4 C 1404.2 199.2 1402.4 200.1 1401.0 199.1 C 1398.9 197.9 1398.4 195.4 1397.6 193.3 C 1393.0 179.6 1389.0 165.8 1384.9 151.9 C 1371.4 106.6 1358.6 61.1 1345.7 15.7 C 1300.4 15.7 1255.0 15.7 1209.7 15.7 Z" />
<path fill="#ffffff" stroke="#ffffff" stroke-width="0.09375" opacity="1.00" d=" M 1766.1 0.0 L 2028.1 0.0 C 2028.5 3.0 2028.7 6.0 2028.8 9.0 C 2029.2 25.6 2029.7 42.3 2030.2 59.0 C 2030.2 63.4 2030.9 67.9 2029.7 72.1 C 2025.9 74.2 2022.6 76.7 2019.2 79.3 C 2016.6 81.4 2013.1 80.8 2010.0 80.9 C 1972.4 80.8 1934.8 80.9 1897.2 80.9 C 1897.2 99.4 1897.2 118.0 1897.2 136.5 C 1938.5 136.8 1979.8 137.4 2021.1 138.1 C 2023.3 138.0 2025.5 139.7 2025.3 142.0 C 2026.0 160.7 2026.4 179.3 2027.1 198.0 C 2027.0 200.2 2027.4 202.5 2026.9 204.7 C 2024.9 207.7 2022.0 209.9 2019.6 212.6 C 2017.4 214.6 2015.4 217.5 2012.0 217.0 C 1973.7 217.1 1935.4 217.0 1897.1 217.0 C 1897.2 238.8 1897.2 260.6 1897.2 282.4 C 1938.5 282.4 1979.8 282.4 2021.0 282.4 C 2024.2 282.1 2026.3 284.7 2028.3 286.7 C 2030.6 289.0 2033.8 291.3 2033.4 295.0 C 2033.4 313.3 2033.4 331.7 2033.4 350.0 C 2033.9 354.6 2029.5 357.1 2026.8 360.0 L 1768.1 360.0 C 1766.1 358.1 1763.9 356.2 1762.2 353.9 C 1760.8 350.8 1761.8 347.3 1761.7 344.0 C 1761.8 320.3 1761.7 296.7 1761.7 273.0 C 1761.8 268.7 1761.4 264.3 1761.4 260.0 C 1761.5 176.7 1761.4 93.3 1761.4 10.0 C 1761.4 6.1 1764.1 3.1 1766.1 0.0 M 1777.0 15.7 C 1777.1 21.5 1776.5 27.2 1776.7 33.0 C 1776.6 137.9 1776.8 242.7 1776.6 347.6 C 1857.1 347.5 1937.5 347.6 2017.9 347.6 C 2017.9 333.4 2018.0 319.2 2018.0 305.0 C 2017.9 302.5 2018.2 300.0 2018.5 297.6 C 2005.0 297.9 1991.5 297.4 1978.0 297.4 C 1965.7 297.2 1953.3 297.4 1941.0 296.7 C 1924.0 296.8 1907.0 296.5 1890.0 296.2 C 1888.5 296.1 1886.9 296.3 1885.7 295.3 C 1884.7 294.1 1884.7 292.5 1884.6 291.0 C 1884.4 277.0 1884.2 263.0 1884.3 249.0 C 1883.7 236.0 1883.7 223.0 1883.4 210.0 C 1883.5 207.5 1883.0 204.7 1884.5 202.5 C 1885.7 201.5 1887.5 201.7 1889.0 201.6 C 1929.9 201.7 1970.8 201.6 2011.7 201.7 C 2011.4 184.0 2011.4 166.3 2011.7 148.5 C 1970.4 148.7 1929.2 148.5 1888.0 148.6 C 1886.2 148.6 1883.7 148.9 1882.8 146.9 C 1881.2 143.9 1884.0 141.0 1885.6 138.6 C 1884.4 129.7 1881.6 121.0 1881.7 112.0 C 1881.8 97.0 1881.6 82.0 1882.1 67.0 C 1883.5 65.3 1886.0 65.4 1888.0 65.4 C 1930.3 65.5 1972.5 65.3 2014.7 65.5 C 2014.7 48.9 2014.7 32.3 2014.7 15.6 C 1935.5 15.8 1856.2 15.7 1777.0 15.7 Z" />
<path fill="#ffffff" stroke="#ffffff" stroke-width="0.09375" opacity="1.00" d=" M 2181.9 0.0 L 2343.7 0.0 C 2347.2 0.6 2347.9 4.2 2349.2 7.0 C 2379.6 78.2 2410.2 149.4 2441.0 220.5 C 2441.8 150.6 2442.1 80.8 2442.5 11.0 C 2442.3 6.3 2446.4 3.2 2449.1 0.0 L 2517.0 0.0 L 2517.0 356.1 C 2515.1 357.5 2513.0 358.7 2511.1 360.0 L 2357.5 360.0 C 2354.4 357.3 2350.2 355.3 2348.6 351.3 C 2319.3 282.1 2289.7 213.0 2260.1 144.0 C 2258.4 140.1 2256.6 136.2 2255.2 132.2 C 2255.4 137.1 2255.2 142.1 2255.2 147.0 C 2254.3 213.3 2253.3 279.7 2252.4 346.1 C 2252.3 349.0 2252.6 352.0 2251.9 354.9 C 2250.2 357.2 2247.4 358.4 2245.1 360.0 L 2189.0 360.0 C 2186.4 357.5 2183.9 354.9 2181.4 352.3 C 2178.8 354.8 2176.3 357.5 2173.6 360.0 L 2056.3 360.0 C 2054.4 357.2 2051.8 355.0 2050.1 352.0 C 2049.6 349.7 2049.8 347.3 2049.9 345.0 C 2050.5 316.0 2051.1 287.0 2051.6 258.0 C 2051.7 256.2 2051.6 254.2 2052.6 252.6 C 2055.4 251.1 2058.9 251.6 2062.0 251.5 C 2097.7 250.9 2133.4 250.3 2169.0 250.0 C 2170.8 250.1 2173.1 249.9 2174.2 251.7 C 2176.2 254.4 2178.0 257.2 2180.2 259.8 C 2180.4 178.9 2180.9 97.9 2181.4 17.0 C 2181.5 11.3 2181.1 5.6 2181.9 0.0 M 2196.4 15.1 C 2196.1 23.1 2196.2 31.0 2195.8 39.0 C 2195.0 141.9 2195.3 244.8 2195.2 347.7 C 2209.7 347.5 2224.2 347.5 2238.6 347.7 C 2238.6 346.4 2238.5 345.2 2238.5 344.0 C 2238.5 259.7 2238.6 175.3 2238.5 91.0 C 2237.9 85.0 2239.1 79.0 2240.2 73.1 C 2241.1 71.3 2243.3 72.0 2245.0 72.1 C 2245.5 72.8 2246.0 73.7 2246.4 74.6 C 2252.5 89.1 2258.7 103.5 2264.9 118.0 C 2295.8 190.4 2326.5 262.9 2358.1 335.1 C 2359.8 339.3 2361.9 343.3 2363.4 347.6 C 2410.4 347.5 2457.5 347.5 2504.6 347.6 C 2504.3 332.8 2504.6 317.9 2504.5 303.0 C 2504.5 207.2 2504.4 111.4 2504.5 15.6 C 2489.5 15.8 2474.5 15.8 2459.5 15.2 C 2459.5 29.8 2459.2 44.4 2459.0 59.0 C 2458.4 67.3 2458.8 75.7 2458.7 84.0 C 2458.4 104.3 2458.4 124.7 2457.7 145.0 C 2457.7 173.0 2457.4 201.0 2456.7 229.0 C 2456.8 245.0 2456.6 261.0 2456.3 277.0 C 2456.3 278.7 2456.1 281.2 2453.8 281.2 C 2451.7 281.6 2450.6 279.5 2450.0 278.0 C 2423.1 215.8 2396.4 153.7 2369.4 91.7 C 2358.4 66.4 2347.5 41.1 2336.0 16.1 C 2330.3 16.1 2324.7 15.5 2319.0 15.7 C 2298.7 15.6 2278.3 15.2 2258.0 15.0 C 2243.0 14.4 2228.0 14.8 2213.0 14.7 C 2207.4 14.5 2201.9 15.1 2196.4 15.1 M 2063.5 263.6 C 2064.8 279.7 2064.6 295.9 2064.7 312.0 C 2065.2 323.9 2065.3 335.8 2065.3 347.7 C 2099.4 347.5 2133.5 347.6 2167.5 347.6 C 2167.1 326.4 2166.2 305.2 2166.3 284.0 C 2165.9 277.2 2165.7 270.4 2165.6 263.6 C 2131.6 263.7 2097.6 263.8 2063.5 263.6 Z" />
<path fill="#ffffff" stroke="#ffffff" stroke-width="0.09375" opacity="1.00" d=" M 659.0 251.4 C 693.0 250.8 727.0 250.4 761.0 250.0 C 762.6 250.1 764.7 249.7 765.9 251.0 C 768.0 253.3 769.6 256.0 771.6 258.4 C 773.0 260.4 774.9 262.4 775.0 265.0 C 775.4 269.3 775.2 273.7 775.3 278.0 C 775.3 297.7 775.2 317.3 775.3 337.0 C 775.2 341.3 775.5 345.6 774.9 349.9 C 774.7 351.4 773.5 352.5 772.5 353.5 C 770.3 355.7 768.1 357.9 765.9 360.0 L 649.0 360.0 C 646.2 356.4 641.5 353.1 642.2 348.0 C 642.9 317.6 643.5 287.3 644.1 257.0 C 644.1 254.9 644.6 252.0 647.1 251.8 C 651.1 251.3 655.0 251.5 659.0 251.4 M 656.7 285.0 C 657.4 305.9 657.8 326.7 658.0 347.6 C 692.0 347.6 725.9 347.5 759.8 347.6 C 759.6 336.1 759.2 324.5 759.3 313.0 C 758.8 296.5 758.1 280.1 758.4 263.6 C 724.4 263.8 690.4 263.7 656.4 263.6 C 656.6 270.7 656.8 277.9 656.7 285.0 Z" />
<path fill="#ffffff" stroke="#ffffff" stroke-width="0.09375" opacity="1.00" d=" M 1068.0 251.5 C 1105.3 250.9 1142.7 250.3 1180.0 250.0 C 1181.5 250.1 1183.3 250.0 1184.5 251.3 C 1186.5 253.4 1188.0 255.9 1189.8 258.2 C 1191.5 260.5 1193.7 262.9 1193.4 266.0 C 1193.0 293.7 1193.3 321.3 1193.2 349.0 C 1193.1 350.4 1192.9 351.9 1191.8 352.8 C 1189.4 355.2 1186.9 357.6 1184.4 360.0 L 1067.2 360.0 C 1065.2 357.3 1062.6 354.9 1060.9 352.0 C 1060.3 348.3 1060.8 344.7 1060.8 341.0 C 1061.3 313.0 1061.9 285.0 1062.5 257.0 C 1062.6 255.3 1062.5 253.2 1064.1 252.1 C 1065.3 251.8 1066.6 251.6 1068.0 251.5 M 1074.4 263.6 C 1072.9 276.0 1073.6 288.5 1073.7 301.0 C 1074.5 316.5 1075.9 332.1 1076.6 347.6 C 1110.6 347.5 1144.5 347.6 1178.4 347.6 C 1177.8 333.4 1177.6 319.2 1177.3 305.0 C 1177.5 291.2 1176.4 277.4 1176.5 263.6 C 1170.6 263.8 1164.8 263.6 1159.0 263.7 C 1130.8 263.6 1102.6 263.8 1074.4 263.6 Z" />
<path fill="#ffffff" stroke="#ffffff" stroke-width="0.09375" opacity="1.00" d=" M 1635.0 251.6 C 1672.3 250.9 1709.7 250.4 1747.0 250.0 C 1748.4 250.1 1750.1 249.9 1751.4 250.6 C 1753.5 252.6 1754.9 255.1 1756.7 257.3 C 1758.3 259.7 1760.7 261.9 1761.0 265.0 C 1761.4 269.0 1761.3 273.0 1761.3 277.0 C 1761.2 299.7 1761.3 322.3 1761.3 345.0 C 1761.0 347.5 1761.5 350.5 1759.5 352.5 C 1757.0 355.0 1754.4 357.5 1751.9 360.0 L 1634.9 360.0 C 1632.4 356.6 1628.0 353.7 1628.2 349.0 C 1628.8 320.0 1629.4 291.0 1629.9 262.0 C 1630.1 259.2 1629.6 256.3 1630.6 253.6 C 1631.2 251.8 1633.4 251.7 1635.0 251.6 M 1642.7 290.0 C 1643.5 309.2 1643.6 328.4 1643.6 347.6 C 1677.7 347.6 1711.7 347.5 1745.8 347.6 C 1745.6 341.1 1745.5 334.6 1745.4 328.0 C 1745.4 306.6 1743.9 285.1 1744.4 263.6 C 1710.4 263.7 1676.3 263.7 1642.3 263.6 C 1642.6 272.4 1642.8 281.2 1642.7 290.0 Z" />
</svg>
