<?xml version="1.0" encoding="UTF-8" standalone="no"?>
<svg
   id="svg112"
   version="1.1"
   width="205.75064"
   height="60.344131"
   xmlns="http://www.w3.org/2000/svg"
   xmlns:svg="http://www.w3.org/2000/svg"
   xmlns:rdf="http://www.w3.org/1999/02/22-rdf-syntax-ns#"
   xmlns:cc="http://creativecommons.org/ns#"
   xmlns:dc="http://purl.org/dc/elements/1.1/">
  <defs
     id="defs116" />
  <metadata
     id="metadata2">
    <rdf:RDF>
      <cc:Work
         rdf:about="">
        <dc:format>image/svg+xml</dc:format>
        <dc:type
           rdf:resource="http://purl.org/dc/dcmitype/StillImage" />
      </cc:Work>
    </rdf:RDF>
  </metadata>
  <g
     id="g66"
     transform="matrix(0.125,0,0,-0.125,-14.14421,122.41647)" />
  <path
     id="path12"
     d="M 63.5984,0.08789 H 60.60827 V 5.80614 H 58.76052 V 0.08789 h -2.81488 v 6.59812 h 7.65275 V 0.08789 m 11.524,4.66162 -1.31988,-1.231 1.31988,-1.31925 V 0.08788 h -7.56501 v 9.1485 L 70.10826,6.686 V 4.04688 h 2.11175 v 2.55075 h 2.90238 z M 70.10826,0.96776 h 2.11175 V 3.07914 H 70.10826 V 0.96776 M 85.94176,1e-5 h -2.815 v 1.935 L 81.19176,1e-5 H 78.28938 V 9.67626 L 81.19176,6.77338 V 0.7915 l 1.935,1.84712 V 6.686 h 2.815 V 0 M 28.14926,3.43012 29.46851,2.19924 V 0.08786 h -7.56538 v 9.06012 l 2.55075,-2.462 V 4.04686 h 2.11138 v 2.46188 h 2.90325 V 4.74949 L 28.14926,3.43011 Z M 24.45388,0.96774 h 2.11138 V 3.07912 H 24.45388 V 0.96774 m 11.0845,-0.08837 h 4.66163 v -0.7915 h -7.565 v 6.59812 h 7.565 v -0.7925 h -4.66163 v -1.935 h 4.66163 V 3.079115 h -4.66163 v -2.19975 m 8.708,0 h 2.28713 v 8.53275 l 2.99075,-2.99075 v -5.542 h 2.3755 v -0.7915 h -7.65338 v 0.7915 m 87.7894,0.08837 V 0.08786 h -7.65375 v 6.59812 h 7.65375 V 5.71773 h -4.6625 v -4.75 h 4.6625 m 8.79625,2.90188 v 2.81638 h 2.99125 V 0.08787 h -7.74125 v 6.59812 h 2.90375 V 3.86961 Z m 0,-2.99025 v 2.3755 h -1.84625 v -2.3755 h 1.84625 m 8.9725,0 h 4.75 v -0.7915 h -7.6525 v 3.78175 h 4.75 v 1.9365 h -4.75 v 0.96725 h 7.6525 V 3.07911 h -4.75 V 0.87936 m -52.3394,0.08837 v 8.44438 l 2.99075,-2.90338 v -5.541 h 2.46338 v -0.7925 h -7.65338 v 0.7925 h 2.19925 m 16.1856,-0.879875 h -7.5645 v 6.59812 h 7.5645 z m -3.07875,0.879875 v 4.75 h -1.58337 v -4.75 h 1.58337 m 55.6825,-0.7925 h -7.65375 v 0.7925 h 2.2875 v 8.44438 l 2.99,-2.90338 v -5.541 h 2.37625 v -0.7925 m 10.7312,6.51075 V 5.71773 h -4.6625 v -5.5425 h -2.99 v 6.51075 h 7.6525 m 11.6112,-5.80662 v -0.7915 h -7.4775 v 6.59812 h 7.4775 v -0.7925 h -4.57375 v -1.935 h 4.57375 V 3.079105 h -4.57375 v -2.19975 h 4.57375"
     style="fill:#ffffff" />
  <g
     id="g16"
     transform="matrix(0.125,0,0,-0.125,-14.14421,122.41647)" />
  <g
     id="g22"
     transform="matrix(0.125,0,0,-0.125,-14.14421,122.41647)"
     style="fill:#ffffff">
    <path
       id="path20"
       style="fill:#ffffff;stroke:#ffffff;stroke-width:7.03763;stroke-linecap:round;stroke-linejoin:round;stroke-miterlimit:2.6131"
       d="m 1432.63,717.547 v -35.188 l 34.48,35.188 z m 71.07,34.484 v -35.887 l -71.07,-70.371 v -52.078 h 71.07 v -34.484 h -129.48 v 118.234 l 75.3,74.586 z" />
  </g>
  <g
     id="g26"
     transform="matrix(0.125,0,0,-0.125,-14.14421,122.41647)"
     style="fill:#ffffff">
    <path
       id="path24"
       d="M 1670.48,717.547 V 561.324 l -58.4,-59.113 v 216.742 l 33.07,33.078 h 110.49 v -192.82 h -59.11 v 158.336 z"
       style="fill:#ffffff;stroke:#ffffff;stroke-width:7.03763;stroke-linecap:round;stroke-linejoin:round;stroke-miterlimit:2.6131" />
  </g>
  <g
     id="g30"
     transform="matrix(0.125,0,0,-0.125,-14.14421,122.41647)"
     style="fill:#ffffff">
    <path
       id="path28"
       d="M 1583.93,772.445 V 559.211 h -52.78 v 160.453 z"
       style="fill:#ffffff;stroke:#ffffff;stroke-width:7.03763;stroke-linecap:round;stroke-linejoin:round;stroke-miterlimit:2.6131" />
  </g>
  <g
     id="g34"
     transform="matrix(0.125,0,0,-0.125,-14.14421,122.41647)"
     style="fill:#ffffff">
    <path
       id="path32"
       d="M 116.672,787.222 H 267.973 V 593.695 h 24.629 v 135.816 l 57.707,57.008 V 593.695 h 24.629 v 193.527 h 158.336 l -35.883,-35.191 h -64.043 v -191.41 l -58.41,-58.41 v 57 h -25.332 l -58.411,-59.114 1.407,59.114 h -24.629 l -58.41,-58.406 1.41,251.226 h -59.11 z"
       style="fill:#ffffff;stroke:#ffffff;stroke-width:7.03763;stroke-linecap:round;stroke-linejoin:round;stroke-miterlimit:2.6131" />
  </g>
  <g
     id="g38"
     transform="matrix(0.125,0,0,-0.125,-14.14421,122.41647)"
     style="fill:#ffffff">
    <path
       id="path36"
       d="m 980.836,752.031 h 110.494 v -192.82 h -59.11 v 158.336 h -25.34 V 561.324 l -59.11,-59.113 v 216.742 z"
       style="fill:#ffffff;stroke:#ffffff;stroke-width:7.03763;stroke-linecap:round;stroke-linejoin:round;stroke-miterlimit:2.6131" />
  </g>
  <g
     id="g42"
     transform="matrix(0.125,0,0,-0.125,-14.14421,122.41647)"
     style="fill:#ffffff">
    <path
       id="path40"
       d="m 1583.93,806.922 -52.78,-52.075 v 54.883 l 52.78,52.078 z"
       style="fill:#ffffff;stroke:#ffffff;stroke-width:7.03763;stroke-linecap:round;stroke-linejoin:round;stroke-miterlimit:2.6131" />
  </g>
  <path
     id="path44"
     d="m 97.1135,32.72299 h -4.31013 v 4.3985 l 4.31013,-4.3985"
     style="fill:#231f20" />
  <g
     id="g48"
     transform="matrix(0.125,0,0,-0.125,-14.14421,122.41647)">
    <path
       id="path46"
       d="M 890.063,717.547 H 855.582 V 682.359 Z"
       style="fill:none;stroke:#ffffff;stroke-width:7.03763;stroke-linecap:round;stroke-linejoin:round;stroke-miterlimit:2.6131" />
  </g>
  <g
     id="g52"
     transform="matrix(0.125,0,0,-0.125,-14.14421,122.41647)"
     style="fill:#ffffff">
    <path
       id="path50"
       d="m 1108.22,718.25 34.47,33.781 h 98.53 l -34.49,-34.484 h -47.85 l 97.82,-97.821 v -30.25 l -30.26,-30.265 h -118.22 v 34.484 h 95 l -95,94.301 z"
       style="fill:#ffffff;stroke:#ffffff;stroke-width:7.03763;stroke-linecap:round;stroke-linejoin:round;stroke-miterlimit:2.6131" />
  </g>
  <g
     id="g56"
     transform="matrix(0.125,0,0,-0.125,-14.14421,122.41647)"
     style="fill:#ffffff">
    <path
       id="path54"
       d="m 1289.07,810.441 v -58.41 h -14.77 l -34.49,-34.484 h 49.26 V 505.73 l 55.6,55.594 v 156.223 h 28.15 l 34.48,34.484 h -62.63 v 113.297 z"
       style="fill:#ffffff;stroke:#ffffff;stroke-width:7.03763;stroke-linecap:round;stroke-linejoin:round;stroke-miterlimit:2.6131" />
  </g>
  <g
     id="g60"
     transform="matrix(0.125,0,0,-0.125,-14.14421,122.41647)"
     style="fill:#ffffff">
    <path
       id="path58"
       style="fill:#ffffff;stroke:#ffffff;stroke-width:7.03763;stroke-linecap:round;stroke-linejoin:round;stroke-miterlimit:2.6131"
       d="m 537.496,752.031 h 64.742 v -121.75 l -71.074,-71.07 h -70.375 v 116.113 z m -17.59,-42.223 V 576.804 l 23.223,23.227 v 132.996 z" />
  </g>
  <g
     id="g70"
     transform="matrix(0.125,0,0,-0.125,-14.14421,122.41647)"
     style="fill:#ffffff">
    <path
       id="path68"
       d="m 771.137,831.55 v -79.519 h 68.254 l -35.184,-34.484 h -33.07 V 558.512 L 716.946,504.32 v 213.227 h -16.184 v 34.484 h 16.184 v 58.41 l 54.89,54.887 h 64.742 L 802.801,831.55 Z"
       style="fill:#ffffff;stroke:#ffffff;stroke-width:7.03763;stroke-linecap:round;stroke-linejoin:round;stroke-miterlimit:2.6131" />
  </g>
  <g
     id="g74"
     transform="matrix(0.125,0,0,-0.125,-14.14421,122.41647)"
     style="fill:#ffffff">
    <path
       id="path72"
       d="M 629.684,811.851 V 503.613 l 57.004,57.008 v 308.226 z"
       style="fill:#ffffff;stroke:#ffffff;stroke-width:7.03763;stroke-linecap:round;stroke-linejoin:round;stroke-miterlimit:2.6131" />
  </g>
  <g
     id="g110"
     transform="matrix(0.125,0,0,-0.125,-14.14421,122.41647)"
     style="fill:#ffffff">
    <path
       id="path108"
       d="m 926.653,752.031 v -35.887 l -71.071,-70.371 v -52.078 h 71.071 V 559.211 H 797.875 v 118.234 l 74.594,74.586 z"
       style="fill:#ffffff;stroke:#ffffff;stroke-width:7.03763;stroke-linecap:round;stroke-linejoin:round;stroke-miterlimit:2.6131" />
  </g>
</svg>
