<?xml version="1.0" encoding="utf-8"?>
<svg width="100%" height="100%" viewBox="0 0 399 227" version="1.1" xmlns="http://www.w3.org/2000/svg" style="fill-rule:evenodd;clip-rule:evenodd;">
  <path d="M 43.32 207.455 L 43.32 71.883 L 18.67 71.883 L 18.67 207.455 L 43.32 207.455 Z M 30.995 18.384 C 22.03 18.384 15.59 25.108 15.59 33.793 C 15.59 42.195 21.75 48.915 30.432 48.915 C 40.236 48.915 46.4 42.195 46.121 33.793 C 46.121 25.108 40.236 18.384 30.995 18.384 Z" style="fill: white; fill-rule: nonzero; stroke: white; stroke-width: 7.559;"/>
  <path d="M 161.521 15.583 C 111.102 15.583 73.847 54.8 73.847 114.739 C 73.847 171.882 108.861 210.535 158.72 210.535 C 206.898 210.535 246.39 176.081 246.39 111.099 C 246.39 55.079 213.059 15.583 161.521 15.583 Z M 160.402 35.471 C 201.017 35.471 220.622 74.687 220.622 112.218 C 220.622 155.074 198.776 190.647 160.119 190.647 C 121.745 190.647 99.9 154.515 99.9 114.18 C 99.9 72.726 120.067 35.471 160.402 35.471 Z" style="fill: white; fill-rule: nonzero; stroke: white; stroke-width: 7.559;"/>
  <path d="M 268.52 198.21 C 278.603 204.934 298.491 210.535 316.697 210.535 C 361.231 210.535 382.801 185.046 382.801 155.917 C 382.801 128.187 366.557 112.781 334.624 100.456 C 308.575 90.372 297.089 81.687 297.089 64.04 C 297.089 51.156 306.893 35.751 332.662 35.751 C 349.749 35.751 362.354 41.352 368.515 44.716 L 375.238 24.828 C 366.837 20.066 352.83 15.583 333.505 15.583 C 296.809 15.583 272.443 37.433 272.443 66.845 C 272.443 93.453 291.488 109.418 322.299 120.344 C 347.788 130.144 357.871 140.228 357.871 157.875 C 357.871 176.924 343.305 190.088 318.379 190.088 C 301.572 190.088 285.607 184.487 274.68 177.763 L 268.52 198.21 Z" style="fill: white; fill-rule: nonzero; stroke: white; stroke-width: 7.559;"/>
</svg>