<?xml version="1.0" encoding="utf-8"?>
<svg version="1.1" viewBox="0 0 264 128" xmlns="http://www.w3.org/2000/svg">
  <path style=" stroke:none;fill-rule:nonzero;fill:rgb(100%,100%,100%);fill-opacity:1;" d="M 264 98.604 C 261.945 98.604 260.002 98.644 258.059 98.584 C 256.908 98.551 256.309 97.964 256.076 96.79 C 255.95 96.164 255.977 95.51 255.857 94.883 C 255.651 93.81 255.065 93.516 254.107 94.017 C 253.548 94.337 253.023 94.697 252.53 95.103 C 246.975 99.438 240.787 100.771 233.961 99.098 C 228.505 97.764 224.959 93.296 224.56 87.542 C 223.928 78.434 229.889 72.672 236.762 70.759 C 239.457 70.005 242.324 69.832 245.125 69.505 C 247.6 69.212 250.095 69.078 252.57 68.845 C 253.947 68.712 254.393 68.232 254.273 66.878 C 254.074 64.598 254.007 62.27 253.482 60.063 C 252.63 56.443 250.049 54.609 246.436 54.242 C 241.02 53.682 235.764 54.482 230.661 56.376 C 230.255 56.529 229.823 56.803 229.424 56.763 C 229.064 56.729 228.559 56.429 228.412 56.109 C 228.04 55.256 227.827 54.322 227.547 53.422 C 227.161 52.202 227.421 51.515 228.585 51.082 C 234.952 48.714 241.433 46.914 248.305 47.574 C 250.481 47.761 252.63 48.208 254.706 48.895 C 259.789 50.648 262.171 54.622 263.448 59.69 C 264.06 62.097 263.954 64.424 263.967 66.785 C 264.02 76.9 263.987 87.022 263.987 97.144 Z M 249.536 74.653 C 246.502 74.72 243.488 74.866 240.548 75.753 C 236.689 76.927 234.507 79.414 234.107 83.515 C 233.608 88.656 236.689 92.503 241.765 92.89 C 244.393 93.096 246.802 92.256 249.15 91.196 C 251.918 89.956 253.695 87.855 253.967 84.815 C 254.233 81.828 254.194 78.807 254.24 75.8 C 254.247 75.046 253.734 74.653 252.969 74.653 C 251.825 74.646 250.681 74.653 249.536 74.653 Z M 249.536 74.653"/>
  <path style=" stroke:none;fill-rule:nonzero;fill:rgb(100%,100%,100%);fill-opacity:1;" d="M 168.287 78.234 C 168.287 84.195 168.287 90.156 168.287 96.117 C 168.287 98.197 167.881 98.604 165.812 98.624 C 165.206 98.624 164.601 98.644 163.995 98.624 C 161.84 98.531 160.922 97.624 160.669 95.457 C 160.602 94.857 160.356 94.283 160.19 93.69 C 159.571 93.97 158.859 94.137 158.34 94.543 C 154.901 97.237 151.075 99.051 146.724 99.644 C 142.372 100.238 138.261 99.484 134.522 97.111 C 131.84 95.404 130.576 92.716 129.931 89.736 C 128.421 82.741 130.516 75.106 139.944 71.546 C 143.776 70.119 147.815 69.352 151.893 69.278 C 153.437 69.238 154.974 69.218 156.511 69.178 C 157.841 69.145 158.573 68.685 158.853 67.511 C 159.611 64.271 159.425 61.124 157.728 58.183 C 156.191 55.522 153.683 54.589 150.815 54.222 C 146.085 53.609 141.574 54.649 137.083 55.943 C 136.278 56.169 135.486 56.449 134.688 56.723 C 133.843 57.009 133.417 56.636 133.211 55.843 C 133.031 55.162 132.865 54.476 132.619 53.815 C 132.013 52.188 132.306 51.375 133.969 50.862 C 136.764 49.988 139.571 49.121 142.412 48.454 C 147.801 47.194 153.211 46.987 158.6 48.554 C 164.614 50.295 168.121 54.869 168.207 61.17 C 168.24 64.017 168.207 66.858 168.207 69.705 L 168.207 78.24 Z M 159.132 80.787 L 159.065 80.787 C 159.065 79.267 159.079 77.74 159.065 76.226 C 159.052 74.953 158.759 74.639 157.515 74.653 C 155.765 74.666 154.009 74.626 152.266 74.78 C 150.163 74.96 148.028 75.133 145.985 75.626 C 141.647 76.68 139.611 78.967 139.092 83.174 C 138.72 86.202 139.192 89.029 141.787 91.023 C 144.076 92.776 146.717 93.316 149.525 92.73 C 152.625 92.083 155.24 90.383 157.775 88.589 C 158.919 87.775 159.139 86.482 159.139 85.148 C 159.132 83.695 159.132 82.241 159.132 80.787 Z M 159.132 80.787"/>
  <path style=" stroke:none;fill-rule:nonzero;fill:rgb(100%,100%,100%);fill-opacity:1;" d="M 198.785 89.222 C 200.109 85.255 201.6 81.334 202.731 77.313 C 204.567 70.745 206.237 64.124 207.834 57.496 C 208.379 55.209 208.532 52.822 208.792 50.461 C 208.978 48.801 209.131 48.561 210.814 48.548 C 213.043 48.521 215.265 48.521 217.481 48.588 C 218.672 48.621 218.971 49.075 218.705 50.241 C 215.705 63.351 212.624 76.44 207.767 89.029 C 206.822 91.483 205.785 93.903 204.733 96.324 C 203.915 98.204 202.957 98.677 200.914 98.624 C 198.459 98.557 195.998 98.571 193.543 98.624 C 191.819 98.657 191.26 98.331 190.742 96.664 C 185.958 81.314 181.181 65.964 176.404 50.608 C 176.304 50.288 176.224 49.955 176.171 49.621 C 176.058 48.915 176.331 48.521 177.089 48.528 C 179.012 48.528 180.935 48.514 182.851 48.528 C 184.76 48.541 186.137 49.501 186.776 51.315 C 187.821 54.276 188.872 57.236 189.764 60.257 C 192.365 69.065 194.887 77.9 197.448 86.715 C 197.694 87.549 198.073 88.342 198.393 89.156 Z M 198.785 89.222"/>
  <path style=" stroke:none;fill-rule:nonzero;fill:rgb(100%,100%,100%);fill-opacity:1;" d="M 120.956 63.817 C 120.956 71.332 121.042 78.84 120.922 86.348 C 120.856 90.469 120.736 94.617 120.124 98.677 C 119 106.179 115.068 111.84 108.308 115.501 C 105.547 117.001 102.007 115.041 101.076 112.994 C 100.73 112.24 100.67 111.64 101.561 111.133 C 107.223 107.879 109.978 102.738 110.663 96.404 C 110.949 93.757 110.982 91.069 110.989 88.395 C 111.042 76.08 111.069 63.764 111.062 51.442 C 111.062 45.547 110.969 39.666 110.936 33.778 C 110.923 30.711 111.561 30.084 114.628 30.191 C 115.906 30.231 117.183 30.311 118.454 30.464 C 119.891 30.644 120.443 31.204 120.676 32.651 C 120.783 33.392 120.829 34.132 120.809 34.878 C 120.823 44.52 120.823 54.169 120.809 63.817 Z M 120.956 63.817"/>
  <path style=" stroke:none;fill-rule:nonzero;fill:rgb(100%,100%,100%);fill-opacity:1;" d="M 62.247 0.012 C 62.367 0.158 62.547 0.285 62.593 0.452 C 63.758 5.059 64.077 9.654 62.42 14.234 C 61.229 17.515 59.28 20.282 56.818 22.703 C 52.727 26.73 48.588 30.704 44.523 34.758 C 43.159 36.119 41.942 37.619 40.698 39.086 C 36.799 43.667 36.04 48.741 38.602 54.189 C 39.873 56.876 41.416 59.43 42.82 62.05 C 42.986 62.357 43.113 62.691 43.252 63.017 L 42.96 63.251 C 42.56 62.797 42.168 62.324 41.749 61.884 C 38.196 58.216 35.089 54.149 32.474 49.755 C 30.452 46.354 30.405 42.953 32.64 39.739 C 34.237 37.459 36 35.212 38.036 33.331 C 42.048 29.624 46.326 26.197 50.445 22.609 C 52.381 20.929 54.33 19.235 56.073 17.362 C 59.866 13.268 61.689 8.28 62.101 2.746 C 62.141 2.219 61.975 1.679 61.935 1.145 C 61.908 0.785 61.935 0.418 61.935 0.052 Z M 62.247 0.012"/>
  <path style=" stroke:none;fill-rule:nonzero;fill:rgb(100%,100%,100%);fill-opacity:1;" d="M 73.285 25.443 C 69.593 28.217 65.98 30.711 62.613 33.518 C 60.518 35.279 58.648 37.379 56.965 39.553 C 54.623 42.573 54.616 45.854 56.672 49.108 C 57.929 51.108 59.227 53.089 60.391 55.142 C 61.622 57.309 62.533 59.617 62.154 62.197 C 62.074 62.904 61.881 63.584 61.582 64.231 C 59.999 67.345 57.537 69.632 54.709 71.546 L 54.476 71.392 C 54.649 71.112 54.809 70.819 54.995 70.545 C 57.191 67.318 57.238 64.044 55.142 60.763 C 54.423 59.623 53.545 58.583 52.753 57.49 C 50.97 55.042 49.433 52.462 48.841 49.435 C 47.93 44.84 49.26 40.873 52.347 37.446 C 55.661 33.778 59.673 31.071 64.117 29.011 C 66.792 27.77 69.573 26.717 72.314 25.59 C 72.56 25.49 72.859 25.503 73.285 25.443 Z M 73.285 25.443"/>
  <path style=" stroke:none;fill-rule:nonzero;fill:rgb(100%,100%,100%);fill-opacity:1;" d="M 89.193 110.673 C 89.938 111.487 89.765 112.14 89.18 112.567 C 87.803 113.58 86.445 114.694 84.915 115.414 C 81.136 117.174 77.084 118.115 72.999 118.841 C 64.383 120.375 55.667 120.882 46.945 121.148 C 37.77 121.422 28.609 121.235 19.46 120.655 C 14.271 120.322 9.128 119.655 4.111 118.235 C 3.014 117.908 1.956 117.461 0.971 116.888 C -0.127 116.261 -0.3 115.307 0.485 114.314 C 1.051 113.56 1.749 112.914 2.548 112.413 C 5.628 110.646 9.001 109.76 12.594 109.52 C 12.262 109.673 11.922 109.813 11.596 109.973 C 10.651 110.426 9.693 110.846 8.789 111.36 C 8.043 111.773 7.558 112.427 7.631 113.347 C 7.704 114.267 8.33 114.767 9.101 114.974 C 11.57 115.627 14.031 116.394 16.54 116.788 C 27.85 118.515 39.221 118.815 50.624 118.128 C 58.023 117.674 65.421 117.228 72.806 116.588 C 77.503 116.181 82.181 115.487 86.585 113.607 C 87.842 113.06 88.907 112.353 89.193 110.673 Z M 89.193 110.673"/>
  <path style=" stroke:none;fill-rule:nonzero;fill:rgb(100%,100%,100%);fill-opacity:1;" d="M 66.971 105.019 C 63.518 105.879 60.098 106.926 56.605 107.573 C 47.923 109.2 39.24 109.019 30.658 106.826 C 29.068 106.406 27.551 105.746 26.154 104.872 C 24.184 103.638 24.251 101.925 26.18 100.591 C 26.939 100.071 27.797 99.691 28.808 99.138 C 28.895 101.711 30.505 102.338 32.414 102.538 C 40.964 103.472 49.6 103.258 58.096 101.905 C 60.365 101.538 62.181 101.665 64.011 102.972 C 64.929 103.625 65.98 104.105 66.965 104.665 Z M 66.971 105.019"/>
  <path style=" stroke:none;fill-rule:nonzero;fill:rgb(100%,100%,100%);fill-opacity:1;" d="M 68.615 90.989 C 64.769 91.803 60.943 92.75 57.084 93.43 C 49.453 94.75 41.775 94.31 34.104 93.75 C 30.392 93.483 26.732 92.996 23.239 91.616 C 22.215 91.209 21.217 90.803 21.064 89.502 C 20.904 88.195 21.516 87.195 22.594 86.528 C 23.532 85.948 24.53 85.475 25.575 84.901 C 25.235 87.949 25.768 88.462 28.768 89.282 C 30.531 89.769 32.421 89.869 34.264 89.969 C 44.171 90.489 53.977 89.496 63.744 87.935 C 64.396 87.869 65.048 88.009 65.607 88.342 C 66.659 88.982 67.61 89.796 68.615 90.549 Z M 68.615 90.989"/>
  <path style=" stroke:none;fill-rule:nonzero;fill:rgb(100%,100%,100%);fill-opacity:1;" d="M 72.666 74.893 C 70.777 77.147 68.295 77.273 65.9 77.6 C 56.486 78.88 47.058 80.167 37.537 80.127 C 29.347 80.094 21.15 79.901 13.133 77.973 C 12.534 77.853 11.962 77.653 11.417 77.393 C 11.071 77.213 10.585 76.793 10.605 76.513 C 10.632 76.093 10.951 75.513 11.31 75.32 C 12.907 74.453 14.51 73.546 16.22 72.952 C 19.048 71.966 21.942 71.192 24.816 70.359 C 25.116 70.265 25.462 70.345 25.854 70.532 C 25.249 70.819 24.623 71.099 24.011 71.386 C 22.88 71.919 21.742 72.426 20.638 73.013 C 19.86 73.419 19.267 74.026 19.427 75.033 C 19.587 76.04 20.418 76.2 21.217 76.393 C 25.741 77.5 30.365 77.447 34.969 77.573 C 45.954 77.887 56.838 76.687 67.716 75.453 Z M 72.666 74.893"/>
  <path style=" stroke:none;fill-rule:nonzero;fill:rgb(100%,100%,100%);fill-opacity:1;" d="M 25.555 125.656 C 27.624 125.656 29.706 125.529 31.769 125.676 C 41.802 126.369 51.828 126.523 61.862 125.743 C 70.444 125.069 78.98 124.116 87.117 121.082 C 89.286 120.268 91.349 119.161 93.458 118.188 C 93.691 118.081 93.924 117.968 94.156 117.861 L 94.363 118.101 C 93.604 118.775 92.912 119.528 92.087 120.108 C 88.188 122.822 83.771 124.229 79.18 125.149 C 68.255 127.323 57.224 128.137 46.107 127.996 C 39.287 127.91 32.501 127.53 25.828 125.976 C 25.734 125.956 25.641 125.916 25.548 125.889 Z M 25.555 125.656"/>
  <path style=" stroke:none;fill-rule:nonzero;fill:rgb(100%,100%,100%);fill-opacity:1;" d="M 79.785 91.463 C 80.763 90.703 81.761 89.949 82.719 89.189 C 85.048 87.329 87.357 85.422 88.894 82.828 C 89.739 81.407 90.51 79.814 90.843 78.207 C 91.794 73.619 89.007 69.945 84.296 69.292 C 83.465 69.178 82.62 69.138 81.788 69.058 L 81.748 68.772 C 82.986 68.605 84.21 68.318 85.447 68.292 C 88.707 68.218 91.422 69.539 93.611 71.892 C 95.853 74.299 96.292 78.174 94.622 81.167 C 93.937 82.441 93.079 83.615 92.074 84.655 C 89.073 87.655 85.434 89.922 81.429 91.289 C 80.93 91.463 80.404 91.563 79.885 91.696 Z M 79.785 91.463"/>
</svg>