<?xml version="1.0" encoding="UTF-8" standalone="no"?>
<!-- Created with Inkscape (http://www.inkscape.org/) -->

<svg
   width="252.77039mm"
   height="97.527473mm"
   viewBox="0 0 252.77038 97.527474"
   version="1.1"
   id="svg2471"
   xml:space="preserve"
   xmlns="http://www.w3.org/2000/svg"
   xmlns:svg="http://www.w3.org/2000/svg"><defs
     id="defs2468" /><g
     id="layer1"
     transform="translate(-15.691397,-203.56077)"><path
       style="fill:#ffffff;stroke-width:0.264583"
       d="m 28.787254,301.00466 c -2.936774,-0.57162 -6.243678,-2.37148 -8.101871,-4.40963 -0.70996,-0.77873 -2.123814,-2.63777 -3.141897,-4.13121 -1.834439,-2.69097 -1.85107,-2.73119 -1.852084,-4.47935 -8.46e-4,-1.45951 0.110421,-1.91256 0.644605,-2.62465 0.999197,-1.33198 2.476279,-1.91748 4.837348,-1.91748 h 2.008612 l 1.17997,-1.31241 c 0.648983,-0.72182 1.255329,-1.6892 1.347435,-2.14973 0.09211,-0.46054 0.167466,-4.18251 0.167466,-8.27107 v -7.43373 l -1.429183,-1.46288 c -1.571957,-1.60902 -5.018027,-6.42164 -5.606215,-7.82937 -0.488803,-1.16987 -0.475554,-3.50974 0.02668,-4.71176 0.235435,-0.56347 0.84262,-1.24958 1.477888,-1.66998 0.974207,-0.6447 1.388895,-0.72917 4.29674,-0.87519 2.195529,-0.11025 3.470746,-0.29736 4.012216,-0.58871 1.18708,-0.63874 2.415467,-2.039 3.008719,-3.4297 0.502618,-1.17824 0.531989,-1.94147 0.611708,-15.89572 l 0.08374,-14.65806 0.723916,-0.94898 c 0.488517,-0.64039 1.133786,-1.08354 1.984375,-1.36279 1.632698,-0.53603 18.314838,-4.12908 19.170858,-4.12908 0.853347,0 6.161947,3.56365 7.062391,4.74097 0.675542,0.88326 0.693748,1.01222 0.774993,5.4901 0.04576,2.52208 0.124309,4.5856 0.174554,4.5856 0.05024,0 3.613428,-0.59532 7.918188,-1.32292 4.304757,-0.7276 8.424037,-1.32292 9.153956,-1.32292 1.175888,0 1.567495,0.16556 3.436408,1.45281 2.868364,1.97564 4.574204,3.29407 4.925798,3.80711 0.16156,0.23574 1.74048,3.82191 3.508711,7.96925 1.768232,4.14734 3.335414,7.71922 3.482629,7.9375 0.275881,0.40907 0.984617,-0.26696 4.78491,-4.56406 l 1.345462,-1.52136 -1.547535,-0.004 c -0.851143,-0.002 -1.68161,-0.0915 -1.845485,-0.19844 -0.163872,-0.10692 -0.967544,-1.12964 -1.785937,-2.27271 l -1.487985,-2.07834 v -5.82794 c 0,-5.42326 0.03786,-5.8892 0.545195,-6.71008 0.37583,-0.60811 0.807342,-0.92854 1.389063,-1.03149 2.668042,-0.47216 29.694034,-4.36617 30.290114,-4.36431 0.45025,0.001 1.53813,0.59097 2.92926,1.5875 1.21715,0.8719 2.31848,1.58527 2.44739,1.58527 0.12892,0 0.23439,-0.60006 0.23439,-1.33346 0,-1.47479 0.7506,-3.24573 1.55907,-3.67841 0.56756,-0.30374 29.70605,-4.77771 31.11675,-4.77771 0.93787,0 1.12286,0.11237 3.30708,2.0088 0.68589,0.59552 1.48612,1.25037 1.77829,1.45521 0.29216,0.20485 0.78513,0.78916 1.09548,1.29849 0.50905,0.83541 0.56323,1.3015 0.55365,4.7625 -0.007,2.38217 -0.13656,4.18846 -0.34285,4.76506 -0.34874,0.97476 -1.32692,2.45072 -4.38205,6.61202 -1.01496,1.38245 -1.75841,2.6017 -1.65211,2.70944 0.10631,0.10774 0.78378,0.27362 1.50551,0.36861 2.76056,0.36334 6.17555,2.82377 7.2956,5.25632 0.37237,0.80874 0.48867,1.70572 0.49311,3.80339 l 0.006,2.74505 0.7276,-0.15337 c 12.58606,-2.65301 13.8685,-2.76887 16.80104,-1.5178 1.27635,0.5445 1.78594,0.66182 1.78594,0.41116 0,-0.61398 0.88592,-1.9215 1.57921,-2.33074 0.36836,-0.21743 2.63428,-0.75576 5.03537,-1.19627 2.4011,-0.44052 8.5555,-1.58259 13.67645,-2.53795 5.12095,-0.95535 9.77655,-1.73701 10.34576,-1.73701 1.30101,0 2.67802,0.88836 3.28915,2.12194 0.25088,0.50643 0.87596,1.36029 1.38906,1.89748 0.6011,0.62932 0.93698,1.241 0.94436,1.71979 0.0111,0.72147 0.0495,0.70076 1.32,-0.71212 0.7197,-0.80037 1.30986,-1.53606 1.31146,-1.63487 0.002,-0.0988 -0.62216,-0.36188 -1.38614,-0.58457 -0.76399,-0.2227 -2.04391,-0.80539 -2.84427,-1.29487 -0.80037,-0.48948 -2.40771,-1.46516 -3.57188,-2.16819 -3.97196,-2.3986 -4.36788,-3.05664 -4.36103,-7.24825 0.006,-3.75166 0.47824,-5.77388 2.10461,-9.01481 3.59677,-7.1674 6.46612,-9.19388 15.02926,-10.61448 4.51135,-0.74841 8.23127,-0.63737 10.53664,0.31452 3.42446,1.41396 7.65416,4.96963 10.87922,9.14555 4.72083,6.11269 5.52239,8.23544 5.32599,14.10462 -0.0986,2.94613 -0.13719,3.11489 -1.22182,5.34284 -0.69801,1.43378 -1.67757,2.90284 -2.59979,3.89895 l -1.47978,1.59835 0.78972,0.99583 c 0.43435,0.54771 1.05627,1.23396 1.38206,1.525 1.20312,1.07482 3.6344,4.5706 4.87637,7.01146 0.70343,1.38245 1.57466,3.02562 1.93606,3.65148 0.51945,0.89958 0.62641,1.37067 0.5106,2.24896 -0.19962,1.51391 -1.2384,2.41872 -4.41748,3.84769 -1.14817,0.5161 -27.00935,5.33312 -28.63194,5.33312 -1.79163,0 -2.64166,-0.37686 -6.79942,-3.01454 -1.51542,-0.96138 -2.85487,-1.74796 -2.97656,-1.74796 -0.12169,0 -0.22125,0.17299 -0.22125,0.38443 0,0.7377 -0.56445,1.61381 -1.4036,2.1786 -0.94961,0.63913 -6.67531,1.6703 -9.27455,1.6703 -1.29581,0 -1.61148,-0.10092 -2.15706,-0.68961 -0.35151,-0.37928 -0.79161,-1.03413 -0.978,-1.45521 -0.44586,-1.00728 -0.73749,-0.97035 -0.74468,0.0943 -0.005,0.7791 -0.86156,3.10886 -1.14265,3.10886 -0.0638,0 -1.05189,0.17233 -2.19575,0.38296 -4.07027,0.74948 -8.52691,1.27002 -9.42732,1.1011 -0.50279,-0.0943 -1.12758,-0.40733 -1.38843,-0.69556 -0.47176,-0.52129 -0.47861,-0.52083 -1.2931,0.0881 -2.27658,1.70209 -3.31359,2.0422 -10.69665,3.5082 -3.97761,0.78981 -7.52354,1.43601 -7.87986,1.43601 -0.35631,0 -1.08458,-0.18248 -1.61836,-0.40551 -0.93661,-0.39134 -1.0218,-0.37861 -2.4389,0.36454 -2.19077,1.14887 -3.51955,1.49542 -10.33192,2.6946 -3.41974,0.60197 -6.62399,1.27049 -7.12055,1.48559 -0.49657,0.2151 -2.95897,0.70432 -5.47202,1.08715 l -4.56916,0.69605 -1.3586,-0.84454 c -0.74722,-0.4645 -1.51956,-0.84455 -1.7163,-0.84455 -0.19674,0 -0.60151,0.39448 -0.89949,0.87662 -0.33193,0.53706 -1.03205,1.0995 -1.80752,1.45206 -2.23205,1.01476 -9.73645,2.00913 -15.28865,2.02582 -3.44442,0.0103 -3.73601,0.0504 -4.15823,0.57063 -0.24972,0.30772 -0.7855,0.6884 -1.19062,0.84596 -1.49227,0.58036 -8.1127,1.68344 -9.1888,1.53101 -0.59003,-0.0836 -2.20386,-0.1517 -3.58631,-0.1514 -1.65378,2.7e-4 -3.18609,-0.17692 -4.47976,-0.51832 -2.086817,-0.55071 -2.399409,-0.52352 -2.399409,0.20871 0,0.49827 -1.618506,2.16925 -2.576917,2.66046 -0.950524,0.48716 -5.361781,1.33771 -6.961312,1.34222 -0.80764,0.002 -1.603539,-0.13095 -1.768663,-0.29608 -0.223909,-0.22391 -0.567504,-0.19328 -1.351724,0.12051 -1.199809,0.48007 -4.221827,1.27146 -7.317425,1.91625 -1.575546,0.32818 -2.806004,0.40019 -4.813099,0.28169 l -2.696435,-0.1592 -0.563113,0.79082 c -0.820192,1.15186 -1.241972,1.30532 -5.788593,2.10622 -4.49036,0.79098 -4.98262,0.76088 -6.669117,-0.40787 -1.140336,-0.79025 -1.958729,-0.69578 -2.402086,0.27728 -0.606991,1.3322 -1.657704,1.75373 -6.515182,2.61381 l -4.638587,0.82132 -1.383477,1.87074 c -0.760915,1.02891 -1.807353,2.24291 -2.32542,2.69778 -1.184558,1.04005 -4.316065,2.87913 -5.795279,3.40346 -1.133526,0.40179 -5.587124,0.70995 -6.812736,0.4714 z m 3.722291,-6.34349 c 4.811201,-1.41562 8.652949,-6.13419 10.423162,-12.80208 0.615437,-2.31817 0.688052,-3.22499 0.953418,-11.90625 l 0.287243,-9.39695 0.707464,-0.52314 c 5.03696,-3.72463 8.593595,-10.28168 9.943637,-18.33219 0.489368,-2.91817 0.899109,-30.21472 0.469968,-31.30878 -0.148214,-0.37787 -0.675888,-0.87988 -1.172604,-1.11559 -0.885565,-0.42023 -1.072433,-0.38711 -9.613122,1.70386 -6.646762,1.62729 -8.819679,2.25888 -9.173019,2.66625 -0.426961,0.49226 -0.463021,1.51119 -0.463021,13.08339 0,13.84526 -0.117036,15.17912 -1.601596,18.25346 -1.640515,3.39728 -5.310023,5.37839 -9.973925,5.38475 -1.431269,0.002 -2.182812,0.69022 -2.182812,1.99904 0,1.17742 0.512588,2.18643 2.180895,4.29303 1.227469,1.54994 4.260731,4.02821 4.930309,4.02821 0.214275,0 0.297129,2.65325 0.297129,9.51507 0,9.0479 -0.02755,9.58871 -0.561128,11.01483 -0.617082,1.6493 -1.891956,3.22138 -3.336229,4.11399 -0.682864,0.42203 -1.58429,0.63207 -3.335017,0.77709 -1.858296,0.15393 -2.478394,0.30703 -2.750419,0.67904 -1.391941,1.90359 3.445812,7.04466 7.536495,8.00901 1.640429,0.38672 4.890041,0.318 6.433172,-0.13604 z m 14.061842,-8.71902 c 4.316246,-0.5936 4.831424,-0.76597 5.456674,-1.82569 1.083297,-1.83605 3.277679,-2.28746 5.496682,-1.13074 1.767075,0.92115 2.312228,1.00757 4.460618,0.70715 1.805977,-0.25254 4.372726,-0.96211 4.372726,-1.20882 0,-0.92034 -7.017538,-18.71591 -7.557026,-19.16365 -0.314561,-0.26106 -1.368944,-0.13143 -5.347086,0.65742 -2.725394,0.54044 -5.584399,1.16207 -6.353345,1.38142 l -1.398082,0.39882 0.07517,2.6866 0.07516,2.68661 0.978324,0.15851 c 1.024845,0.16605 1.799801,0.64725 1.799801,1.11757 0,0.15251 -1.190625,3.26698 -2.645833,6.92105 -1.455208,3.65407 -2.645833,6.72939 -2.645833,6.83406 0,0.24147 -0.249145,0.25845 3.232049,-0.22031 z m 7.094151,-8.08913 c 0.0041,-0.0546 0.220051,-0.74 0.479896,-1.52317 l 0.472445,-1.42395 0.474168,1.24159 c 0.260792,0.68287 0.423111,1.29264 0.360707,1.35505 -0.153348,0.15335 -1.796611,0.4756 -1.787216,0.35048 z m 21.707903,2.78272 c 1.371712,-0.23394 3.38699,-0.69994 4.478396,-1.03555 1.091406,-0.33561 2.371328,-0.68944 2.844271,-0.78629 l 0.859896,-0.1761 v -3.41856 c 0,-1.88021 -0.09488,-3.41856 -0.210831,-3.41856 -0.115956,0 -1.628426,0.47625 -3.361044,1.05833 -1.732619,0.58209 -3.369837,1.05834 -3.638262,1.05834 -0.268425,0 -0.780018,-0.31505 -1.136872,-0.7001 -0.515975,-0.55674 -0.648824,-0.98213 -0.648824,-2.07754 0,-2.53633 1.356407,-3.70426 6.614583,-5.69542 l 2.513541,-0.95183 0.0763,-2.28902 c 0.04197,-1.25896 -0.02723,-2.68047 -0.153765,-3.15891 -0.221607,-0.8379 -0.273058,-0.86654 -1.399217,-0.77875 -2.07707,0.16191 -5.996644,1.33102 -8.560732,2.55344 -5.733526,2.73345 -8.297399,6.99655 -8.044555,13.37615 0.07876,1.98727 0.19263,2.44385 0.891048,3.5729 0.921519,1.4897 2.627328,2.66208 4.370519,3.00379 1.698726,0.33299 1.765705,0.33096 4.505548,-0.13632 z m 14.79767,-2.47915 c 1.52768,-0.28779 3.056186,-0.5904 3.396681,-0.67246 0.607518,-0.14643 0.6174,-0.20089 0.529167,-2.91663 -0.04945,-1.52208 -0.01503,-2.76728 0.07647,-2.76712 0.09151,1.6e-4 0.865415,0.42201 1.719791,0.93743 2.311916,1.39473 4.60915,2.01302 7.1303,1.91909 l 2.09602,-0.0781 0.0742,-3.22977 c 0.0863,-3.75466 0.24338,-3.51615 -3.1169,-4.73144 -1.09141,-0.39472 -2.09091,-0.81218 -2.221116,-0.92768 -0.130461,-0.11573 0.569056,-1.07772 1.558166,-2.14285 2.68306,-2.88924 3.74682,-4.42535 3.93631,-5.68416 0.26999,-1.79367 -0.18071,-2.04665 -3.26136,-1.83058 -2.444317,0.17145 -2.54664,0.20449 -3.181526,1.02744 -1.014688,1.31525 -4.064254,4.15285 -4.465748,4.15535 -0.282258,0.002 -0.338953,-0.48675 -0.264584,-2.27986 0.124021,-2.99028 0.03572,-3.05236 -3.266781,-2.29662 -1.352672,0.30954 -2.786825,0.68953 -3.187007,0.84442 l -0.727604,0.28162 v 10.45759 c 0,5.75167 0.08953,10.45759 0.198961,10.45759 0.109429,0 1.448883,-0.23547 2.976563,-0.52326 z m 20.306129,-3.32137 c 1.27337,-0.22277 2.97006,-0.55254 3.77043,-0.73281 l 1.45521,-0.32777 0.0775,-1.59772 0.0775,-1.59772 1.57319,0.77974 c 1.31683,0.65268 1.97249,0.79694 4.02359,0.88526 1.47894,0.0637 3.0273,-0.0318 3.9056,-0.24081 l 1.45521,-0.34632 0.0754,-2.70632 0.0754,-2.70632 h -0.9353 c -0.92557,0 -1.99363,-0.72541 -1.99363,-1.35405 0,-0.16264 0.46088,-0.75659 1.02418,-1.31989 2.17481,-2.17481 2.78698,-6.72277 1.25644,-9.33444 -0.52808,-0.90111 -1.05357,-1.35887 -2.21412,-1.92876 -1.44024,-0.70723 -1.70586,-0.74635 -4.96129,-0.73078 -2.89614,0.0139 -4.02222,0.1511 -7.1272,0.86866 -2.02819,0.46871 -3.84604,0.98368 -4.03967,1.14438 -0.28269,0.23462 -0.34898,2.36341 -0.33646,10.80587 0.009,5.78253 0.0901,10.5882 0.18116,10.67927 0.20946,0.20947 -0.0352,0.23152 2.65695,-0.23947 z m 5.53432,-10.88385 c -0.097,-0.097 -0.17639,-1.64856 -0.17639,-3.44788 0,-3.62742 0.084,-3.79604 1.66851,-3.34919 1.72799,0.48731 2.16513,3.01413 0.94169,5.44326 -0.63059,1.25203 -1.85469,1.93294 -2.43381,1.35381 z m 16.88691,7.1664 2.9081,-0.41609 1.32524,-1.40307 c 1.78413,-1.88892 2.75689,-2.07951 5.00295,-0.98023 2.08253,1.01925 2.33185,1.06322 4.53153,0.79929 1.71306,-0.20555 4.62305,-0.95952 4.62305,-1.19782 0,-0.23288 -4.31195,-11.59332 -5.74832,-15.14476 -0.84797,-2.09663 -1.7368,-3.93508 -1.97517,-4.08544 -0.31706,-0.2 -1.93427,0.0273 -6.02396,0.84649 -3.07481,0.61593 -5.88712,1.23263 -6.24959,1.37044 -0.65047,0.24731 -0.65806,0.28581 -0.58361,2.96159 l 0.0754,2.71102 0.93503,0.15147 c 1.273,0.20622 1.57851,0.43779 1.57851,1.19648 0,0.35602 -1.13109,3.47192 -2.51354,6.92423 -1.38245,3.45231 -2.51354,6.4336 -2.51354,6.6251 0,0.24626 0.25172,0.30562 0.8599,0.20279 0.47294,-0.08 2.16854,-0.33264 3.76799,-0.56149 z m 5.62882,-7.9667 c -0.0618,-0.11766 0.14434,-0.73918 0.45815,-1.38115 l 0.57057,-1.16722 0.45378,1.1341 c 0.24957,0.62375 0.41903,1.16486 0.37656,1.20245 -0.24593,0.21772 -1.765,0.39079 -1.85906,0.21182 z m 20.83184,3.3205 c 6.51129,-1.06046 9.6336,-2.03248 11.20439,-3.48808 1.51298,-1.40203 2.30284,-4.61586 1.63314,-6.64506 -0.37045,-1.12246 -1.73133,-2.794 -2.27474,-2.794 -0.24776,0 -0.0998,-0.43996 0.46718,-1.38906 0.69754,-1.16769 0.84841,-1.7264 0.94668,-3.50573 0.10497,-1.90044 0.0555,-2.19427 -0.48419,-2.87634 -1.19689,-1.51261 -3.29364,-1.84148 -6.9111,-1.08399 -1.06454,0.22292 -3.92982,0.89244 -6.3673,1.48783 l -4.43177,1.08252 v 10.02386 10.02386 l 1.52135,-0.15935 c 0.83675,-0.0876 2.95011,-0.39206 4.69636,-0.67646 z m 1.71979,-7.59447 c 0,-1.66369 0.0592,-1.89309 0.48816,-1.89309 0.26849,0 0.69522,0.2288 0.94829,0.50844 0.43124,0.47652 0.43264,0.56638 0.0223,1.43116 -0.24082,0.50749 -0.66755,1.13058 -0.94829,1.38465 -0.49967,0.45219 -0.51044,0.42202 -0.51044,-1.43116 z m 0,-7.9375 c 0,-1.87699 0.0888,-2.04546 0.91175,-1.72967 1.14494,0.43935 0.97693,1.91353 -0.35549,3.11936 l -0.55626,0.5034 z m 16.4944,12.06178 c -0.0919,-0.14873 0.0674,-0.18216 0.38606,-0.081 1.12348,0.35658 9.48196,-1.38815 11.56225,-2.41347 1.65661,-0.81651 2.4183,-1.51685 3.10361,-2.85363 0.65032,-1.26852 0.91033,-3.95998 0.50207,-5.19703 -0.30308,-0.91832 -1.26956,-2.12823 -2.04805,-2.5639 -0.38648,-0.21628 -0.35312,-0.3784 0.31113,-1.51185 0.60676,-1.03536 0.76486,-1.66643 0.85692,-3.42055 0.1061,-2.02143 0.0707,-2.20108 -0.58745,-2.98327 -1.52952,-1.81774 -3.70824,-1.80709 -11.66323,0.057 -2.91042,0.682 -5.4405,1.285 -5.6224,1.34 -0.25693,0.0777 -0.33073,2.31463 -0.33073,10.02451 v 9.92451 l 1.84316,-0.034 c 1.09808,-0.0203 1.7799,-0.1364 1.68666,-0.28726 z m 4.41544,-7.95343 c -0.008,-2.02293 0.005,-2.06443 0.58756,-1.88983 1.5181,0.45524 1.59041,1.57269 0.20064,3.10033 l -0.78044,0.85785 -0.008,-2.06835 z m -5.3e-4,-7.78737 c -0.006,-1.72064 0.0454,-1.91823 0.50311,-1.91823 0.65672,0 1.34181,0.68707 1.34181,1.3457 0,0.28278 -0.41349,0.95889 -0.91888,1.50245 l -0.91888,0.9883 -0.007,-1.91822 z m 18.77819,11.57337 c 5.14842,-0.82693 4.68063,-0.61605 4.86999,-2.1954 0.0906,-0.75588 0.18181,-5.22085 0.20262,-9.92216 0.0325,-7.35328 -0.0187,-8.60439 -0.36688,-8.95255 -0.36324,-0.36323 -0.75397,-0.33427 -3.812,0.28248 -1.874,0.37796 -3.85376,0.81056 -4.39946,0.96134 l -0.99219,0.27414 v 10.04173 10.04173 l 0.59532,-5e-5 c 0.32742,-3e-5 2.08359,-0.2391 3.9026,-0.53126 z m -138.641666,-0.5281 c 5.015296,-0.71499 5.428128,-0.86043 6.262568,-2.20627 1.410838,-2.27549 2.72256,-3.18886 5.016696,-3.49319 1.658599,-0.22002 3.14851,0.18295 4.809744,1.30088 0.720754,0.48503 1.592535,0.95593 1.93729,1.04644 0.826897,0.21709 4.965716,-0.23386 8.422394,-0.91767 3.711215,-0.73417 4.073204,-0.88476 3.896492,-1.62092 -0.416928,-1.73687 -6.386158,-17.26012 -9.883656,-25.70288 -2.656734,-6.4132 -2.410444,-6.20551 -6.460265,-5.44778 -6.451793,1.20716 -17.060119,3.50461 -17.3747,3.76285 -0.239184,0.19635 -0.33073,1.42909 -0.33073,4.45354 0,4.85802 0.06535,5.01358 2.106253,5.01358 1.579346,0 2.479858,0.63726 2.479858,1.75492 0,0.42847 -1.924844,5.60896 -4.277429,11.51218 -2.352588,5.90322 -4.277432,10.88695 -4.277432,11.07496 0,0.41589 2.007138,0.27708 7.672917,-0.53064 z m 9.459378,-13.3819 c -0.0846,-0.0846 0.07154,-0.65015 0.346967,-1.25677 0.275431,-0.60663 0.503398,-1.24404 0.506595,-1.41646 0.0032,-0.17243 0.132757,-0.64741 0.287917,-1.05551 0.280572,-0.73796 0.286287,-0.73266 1.050925,0.97497 1.02371,2.2862 1.004585,2.53724 -0.208553,2.73776 -1.251154,0.2068 -1.788716,0.21114 -1.983851,0.016 z m 158.815618,12.18793 c 2.03407,-0.19822 15.4443,-2.61836 21.78555,-3.93164 4.74705,-0.98312 6.12536,-1.57295 8.4446,-3.61378 1.45221,-1.27788 1.42141,-2.18561 -0.19721,-5.81161 -1.64996,-3.69621 -2.08557,-4.3588 -3.21936,-4.89681 -1.5895,-0.75428 -2.71565,-0.43114 -7.26209,2.08379 -2.76404,1.52896 -4.40777,2.28385 -4.97296,2.28385 -1.09266,0 -2.14311,-1.01678 -2.14311,-2.07441 0,-0.66071 0.5191,-1.24035 3.50573,-3.91463 1.92815,-1.7265 4.24987,-3.77595 5.15937,-4.55433 2.3705,-2.02874 4.68136,-5.20184 5.37886,-7.38584 0.73561,-2.3033 0.79379,-6.53622 0.12451,-9.05829 -1.20748,-4.55014 -4.16635,-8.16564 -8.44943,-10.32449 l -2.35076,-1.18488 -3.47008,0.0233 c -6.15452,0.0413 -11.43736,1.51194 -14.70224,4.09268 -3.51555,2.77888 -6.96952,11.00699 -6.49107,15.46317 0.26376,2.45659 0.60992,3.49596 1.36113,4.08686 1.00079,0.78722 2.36303,0.68398 5.18099,-0.39264 1.34743,-0.5148 3.18932,-1.18486 4.0931,-1.48902 2.25766,-0.7598 2.53539,-1.13176 2.58695,-3.46462 0.0539,-2.43901 0.58119,-3.50302 2.07122,-4.17952 1.91752,-0.87058 4.14698,-0.53836 5.33585,0.79512 0.71797,0.80531 0.70011,3.16061 -0.0362,4.77611 -0.56779,1.24572 -2.79499,4.07068 -7.55126,9.57793 -3.62315,4.19521 -8.84958,10.69462 -9.42535,11.72103 -0.35776,0.63777 -0.43553,1.41766 -0.39576,3.96875 0.0707,4.53259 0.26891,5.81927 1.03725,6.73239 0.65254,0.7755 1.36387,1.05158 2.35283,0.91317 0.29105,-0.0407 1.30308,-0.14947 2.24896,-0.24165 z m -14.20715,-0.78361 c 2.00872,-0.35942 3.76489,-0.72313 3.9026,-0.80824 0.14723,-0.091 0.25039,-3.03281 0.25039,-7.14039 v -6.98565 l 0.99218,-0.24974 c 0.54571,-0.13736 1.42718,-0.32378 1.95883,-0.41427 0.53166,-0.0905 1.03772,-0.34975 1.12459,-0.57613 0.0869,-0.22638 0.2335,-1.56445 0.32584,-2.97348 0.23513,-3.58793 0.48648,-3.47675 -5.52251,-2.44281 -2.65763,0.45729 -6.32034,1.15568 -8.13935,1.55199 l -3.30729,0.72055 -0.0746,3.10779 c -0.0714,2.97864 -0.052,3.10779 0.46662,3.10779 0.29763,0 0.75813,-0.13551 1.02334,-0.30113 0.33146,-0.207 0.80587,-0.22462 1.51776,-0.0564 l 1.03558,0.24478 0.0709,6.58336 c 0.0465,4.31497 0.17157,6.70471 0.36313,6.93552 0.16074,0.19368 0.30745,0.35165 0.32601,0.35103 0.0186,-5.3e-4 1.67725,-0.2952 3.68597,-0.65462 z M 100.36325,251.5556 c 6.95559,-0.87633 15.69682,-2.30913 22.0865,-3.62027 6.60397,-1.3551 6.29187,-1.27781 6.58263,-1.6301 0.20086,-0.24335 0.43238,-5.7244 0.32324,-7.65214 -0.0375,-0.66184 -0.97681,-0.93556 -2.33794,-0.68127 -2.32799,0.43491 -8.58636,1.28511 -9.45981,1.28511 -0.49375,0 -0.97407,-0.12354 -1.06739,-0.27453 -0.0933,-0.151 1.99636,-3.56113 4.64374,-7.57808 2.64737,-4.01694 4.96497,-7.67363 5.15021,-8.12598 0.18525,-0.45235 0.47814,-2.60648 0.65088,-4.78696 0.30864,-3.89588 0.30447,-3.97229 -0.24096,-4.41395 -0.35947,-0.29108 -0.85545,-0.40844 -1.40763,-0.33306 -0.46893,0.064 -2.75759,0.3593 -5.08593,0.65621 -8.01628,1.02225 -20.985575,3.26547 -22.688016,3.92421 l -0.727604,0.28154 v 4.90965 c 0,4.29889 0.05378,4.93028 0.432306,5.07553 0.23777,0.0912 1.998427,-0.0911 3.912574,-0.40518 5.21701,-0.85605 7.82595,-0.71313 7.82595,0.4287 0,0.26635 -2.1023,2.67626 -4.67848,5.36304 -6.035025,6.29412 -9.820291,10.50195 -10.330175,11.48337 -0.562018,1.08177 -0.270897,5.9315 0.385942,6.42934 0.537811,0.40763 -0.184552,0.44778 6.029963,-0.33518 z m 40.34275,-6.89679 c 9.19972,-1.22776 25.67651,-4.23847 26.20862,-4.78895 0.27671,-0.28628 0.63011,-6.73007 0.4159,-7.58354 -0.0921,-0.36687 -0.38449,-0.73594 -0.64981,-0.82014 -0.26532,-0.0842 -2.65666,0.14597 -5.31408,0.51153 -5.16721,0.71079 -6.78244,0.80803 -7.02062,0.42265 -0.0823,-0.1331 0.90127,-1.82974 2.18563,-3.77032 4.42895,-6.69186 7.37039,-11.20287 7.66669,-11.75767 0.16345,-0.30603 0.43996,-2.41461 0.61447,-4.68572 0.39719,-5.16904 0.44303,-5.07959 -2.48682,-4.85366 -4.73337,0.36501 -23.3597,3.34884 -26.18718,4.19504 -0.54743,0.16383 -1.11579,0.44301 -1.263,0.62041 -0.16474,0.19849 -0.23985,2.1407 -0.1953,5.0504 l 0.0724,4.72788 1.00489,0.0829 c 0.55268,0.0456 1.92109,-0.1066 3.04089,-0.33818 2.78947,-0.57688 6.36405,-0.79336 7.26516,-0.44 0.45628,0.17893 0.7276,0.48276 0.7276,0.81477 0,0.32168 -1.47959,2.06527 -3.77031,4.44306 -4.74557,4.92592 -9.57078,10.20612 -10.55531,11.55061 -0.72566,0.99096 -0.75563,1.15046 -0.75563,4.02175 0,2.56264 0.0662,3.03054 0.46302,3.27456 0.53557,0.3293 1.65673,0.2403 8.53281,-0.67736 z m -6.3829,-12.29562 c 1.90987,-2.04531 3.47249,-3.80557 3.47249,-3.9117 0,-0.10613 -0.32948,-0.38759 -0.73217,-0.62547 -0.40268,-0.23787 -1.28416,-0.91839 -1.95883,-1.51225 -0.67466,-0.59387 -1.33717,-1.07976 -1.47223,-1.07976 -0.13507,0 -0.64765,0.62508 -1.13909,1.38907 -0.49143,0.76398 -1.89343,2.93053 -3.11555,4.81456 -1.22212,1.88403 -2.28158,3.58067 -2.35435,3.77031 -0.097,0.25279 0.21064,0.34978 1.15276,0.36341 0.7068,0.0102 1.52321,0.12092 1.81425,0.24599 0.29104,0.12506 0.60366,0.23576 0.6947,0.24598 0.091,0.0102 1.72815,-1.65483 3.63802,-3.70014 z"
       id="path2547" /></g><path
     style="font-variation-settings:'wght' 800;fill:#e6e6e6;stroke:#000000;stroke-width:1.49981"
     d="m 42.65873,345.21309 c -8.300759,-1.13272 -17.16935,-6.17789 -24.738692,-14.07336 -4.121504,-4.29908 -6.455069,-7.82587 -7.471463,-11.29184 -0.5570133,-1.89945 -0.5680649,-2.37843 -0.08698,-3.76984 0.822163,-2.37789 2.276152,-2.91353 10.380667,-3.82421 9.710734,-1.09116 12.05494,-1.85321 16.27461,-5.29053 4.391355,-3.57717 8.927454,-10.53338 10.382346,-15.92156 1.102987,-4.0849 1.525577,-20.17714 1.228884,-46.79572 -0.148395,-13.31349 -0.391495,-25.09728 -0.540224,-26.1862 -0.230695,-1.68903 -0.445288,-2.06239 -1.460893,-2.54177 -3.852779,-1.81853 -12.697235,-9.15884 -16.763042,-13.9122 -3.042117,-3.55656 -7.272547,-9.87127 -8.161019,-12.18185 -1.577065,-4.10136 -1.170622,-8.05155 1.057715,-10.27989 1.492028,-1.49202 4.05711,-2.15922 8.310481,-2.16159 6.171536,-0.004 15.887246,-2.42826 20.913008,-5.2194 8.464917,-4.70114 13.750746,-11.28034 17.302734,-21.53651 2.741302,-7.91535 2.954548,-11.89075 3.343472,-62.329795 0.208155,-26.995309 0.501818,-45.301321 0.747984,-46.626984 0.479469,-2.582056 1.395957,-3.529833 4.556913,-4.712499 3.63198,-1.358897 16.116492,-4.660894 34.745759,-9.189817 20.26295,-4.926082 26.72987,-6.335779 29.06512,-6.335779 2.14884,0 4.68013,1.247707 6.40529,3.157253 1.23764,1.369918 1.40594,1.837832 1.66876,4.639511 0.16076,1.713764 0.18609,19.008792 0.0563,38.433395 -0.31511,47.152705 -1.11426,70.974085 -2.66423,79.416595 -5.22209,28.44423 -18.68775,52.8159 -36.56033,66.17106 l -3.0386,2.27057 -0.23049,4.04708 c -0.12677,2.22589 -0.50498,13.51136 -0.84045,25.07882 -1.04422,36.00521 -1.49363,42.42199 -3.53498,50.47323 -6.781014,26.74475 -23.112415,46.12855 -42.094661,49.9623 -3.508023,0.70849 -14.591961,1.03125 -18.253968,0.53153 z"
     id="path304"
     transform="scale(0.26458333)" /><path
     style="font-variation-settings:'wght' 800;fill:#e6e6e6;stroke:#000000;stroke-width:1.49981"
     d="m 146.98723,208.97634 c -0.22934,-0.59764 3.4574,-10.38177 13.34102,-35.4054 13.17976,-33.36888 18.20067,-46.91891 18.51242,-49.95983 0.16762,-1.63509 0.0396,-2.22845 -0.72794,-3.37301 -1.50079,-2.2381 -3.95786,-3.20056 -9.02423,-3.53489 -4.6389,-0.30613 -5.2246,-0.54742 -6.27937,-2.58701 -0.8181,-1.58193 -1.31596,-11.38824 -1.05915,-20.862232 0.23534,-8.681889 0.46287,-10.96568 1.16215,-11.664969 1.69683,-1.696827 68.34891,-15.715983 74.71941,-15.715983 4.97771,0 6.54883,1.906872 11.93384,14.484127 12.47815,29.143977 40.51399,102.016087 40.51399,105.305917 0,1.21679 -2.26412,2.16851 -8.62803,3.62677 -11.26706,2.58179 -26.73776,4.75779 -33.82651,4.75779 -4.52087,0 -4.90761,-0.14243 -11.99023,-4.41586 -5.72364,-3.45345 -8.99933,-4.46857 -14.40444,-4.46382 -9.70278,0.009 -15.51599,3.30225 -21.59803,12.23737 -1.65724,2.43465 -3.35709,4.4574 -4.16594,4.9573 -2.13508,1.31955 -7.89487,2.59354 -18.81029,4.16058 -19.95927,2.86541 -29.21674,3.63086 -29.66867,2.45315 z m 72.45081,-52.67692 c 2.00566,-0.44186 3.18101,-1.31826 3.18101,-2.37193 0,-1.02259 -2.18969,-6.7971 -3.89691,-10.2767 -1.89068,-3.85349 -2.52452,-3.98041 -3.57552,-0.71593 -0.44297,1.37591 -0.92058,3.07841 -1.06134,3.78334 -0.14077,0.70493 -0.86428,2.7585 -1.60779,4.56349 -1.42007,3.44741 -1.69915,5.24945 -0.87035,5.61994 0.63449,0.28362 5.51288,-0.0915 7.8309,-0.60221 z"
     id="path306"
     transform="scale(0.26458333)" /><path
     style="font-variation-settings:'wght' 800;fill:#e6e6e6;stroke:#000000;stroke-width:1.49981"
     d="m 104.7619,312.35815 c 0,-0.50748 2.84765,-7.93643 9.83277,-25.6518 7.41694,-18.81052 10.0085,-25.71898 10.0085,-26.68017 0,-1.78307 -3.46229,-3.76878 -7.50674,-4.3053 -1.05349,-0.13975 -2.13886,-0.39217 -2.41194,-0.56094 -0.36204,-0.22376 -0.57461,-2.92517 -0.78495,-9.97546 -0.15865,-5.31773 -0.18131,-9.78362 -0.0504,-9.9242 1.20467,-1.29313 41.16915,-9.46663 46.28728,-9.46663 h 2.55052 l 1.1512,2.28175 c 3.94573,7.8207 22.35107,54.26702 26.44379,66.73156 1.01826,3.10114 1.04844,3.37367 0.42422,3.83012 -1.98528,1.45167 -16.6903,4.53943 -21.59881,4.53531 -3.35974,-0.003 -4.85222,-0.41525 -9.98041,-2.75797 -5.12248,-2.34011 -7.63285,-2.95213 -11.09337,-2.70454 -4.6671,0.33394 -7.93436,2.34537 -11.12885,6.8513 -2.65385,3.74334 -4.02697,4.20545 -18.8492,6.3434 -12.29647,1.77363 -13.29366,1.88267 -13.29366,1.45357 z m 44.34524,-32.22298 c 0.95968,-0.33553 1.28969,-0.68877 1.28969,-1.3805 0,-0.89352 -1.29574,-4.81136 -2.64231,-7.98935 l -0.64375,-1.51929 -1.73431,5.15873 c -0.95387,2.8373 -1.84245,5.49884 -1.97462,5.91454 -0.22326,0.70219 -0.0752,0.73846 2.08766,0.51129 1.28038,-0.13448 2.90832,-0.44742 3.61764,-0.69542 z"
     id="path308"
     transform="scale(0.26458333)" /><path
     style="font-variation-settings:'wght' 800;fill:#e6e6e6;stroke:#000000;stroke-width:1.49981"
     d="m 209.12698,291.68066 c -1.85515,-0.3981 -4.21716,-1.09173 -5.24889,-1.5414 -6.56781,-2.86253 -12.09856,-8.71188 -14.02373,-14.83157 -0.88807,-2.82298 -1.23739,-14.4021 -0.58972,-19.54764 2.99475,-23.79226 19.20208,-38.4404 51.80679,-46.82284 6.28108,-1.61483 12.5598,-2.47213 13.83847,-1.88953 1.28497,0.58547 1.86355,2.98044 2.12035,8.77696 0.32022,7.22824 -0.17444,14.32244 -1.01957,14.62218 -3.8107,1.35155 -14.9145,5.71081 -17.71703,6.95556 -12.47064,5.53887 -16.68216,10.77045 -15.94297,19.80445 0.33945,4.1486 2.30996,7.10222 5.68067,8.51483 1.52527,0.63921 2.69525,0.34607 17.12352,-4.29024 7.43343,-2.38863 10.15157,-3.10911 10.4822,-2.77848 0.30292,0.30293 0.5061,4.38465 0.63217,12.69977 l 0.18577,12.25337 -2.53306,0.49567 c -1.39318,0.27261 -5.30092,1.29855 -8.68385,2.27987 -11.41982,3.31264 -25.4054,6.10647 -30.28948,6.05078 -1.34674,-0.0154 -3.96648,-0.35364 -5.82164,-0.75174 z"
     id="path310"
     transform="scale(0.26458333)" /><path
     style="font-variation-settings:'wght' 800;fill:#e6e6e6;stroke:#000000;stroke-width:1.49981"
     d="m 270.10253,278.67063 c -0.14192,-2.78273 -0.25877,-20.53176 -0.25965,-39.44228 l -0.002,-34.38277 3.86905,-1.23453 c 3.66186,-1.16843 13.80841,-3.61034 17.45169,-4.19999 2.45636,-0.39755 3.98695,0.0592 4.67822,1.39593 0.45889,0.88739 0.58834,2.78436 0.58834,8.62127 0,9.01891 0.1918,9.59884 2.63411,7.96441 2.77889,-1.85968 10.24952,-8.88374 13.97796,-13.14239 2.36841,-2.70522 4.11441,-4.34394 4.93522,-4.632 1.79227,-0.629 8.0044,-1.18356 13.37335,-1.19386 6.70806,-0.0129 7.92121,0.93883 7.41754,5.81893 -0.48389,4.68843 -3.74236,9.72323 -13.1881,20.37751 -5.44846,6.14556 -7.72151,9.05994 -7.72151,9.90013 0,0.57552 3.48738,2.14015 10.62888,4.7687 6.62906,2.43993 8.5908,3.6859 9.18772,5.83542 0.45673,1.64469 0.57179,15.27875 0.16914,20.0421 l -0.25236,2.98538 -5.20399,0.27003 c -7.91123,0.4105 -14.60691,-0.59395 -21.15111,-3.17297 -1.48702,-0.58602 -5.21887,-2.47121 -8.29301,-4.18932 -3.07413,-1.7181 -5.78531,-3.12382 -6.02485,-3.12382 -0.8288,0 -0.95839,1.68906 -0.82319,10.72964 0.11978,8.00993 0.0589,9.15736 -0.51628,9.73387 -0.35864,0.35945 -2.32292,0.99802 -4.36508,1.41903 -3.07654,0.63426 -20.4734,3.91111 -20.76416,3.91111 -0.0485,0 -0.2044,-2.27679 -0.34632,-5.05953 z"
     id="path312"
     transform="scale(0.26458333)" /><path
     style="font-variation-settings:'wght' 800;fill:#e6e6e6;stroke:#000000;stroke-width:1.49981"
     d="m 348.56412,270.18163 c -0.46119,-0.72004 -0.86196,-21.04582 -0.89087,-45.18163 -0.0247,-20.58076 0.38268,-33.90936 1.0759,-35.20465 0.48677,-0.90953 4.44241,-2.1747 13.99239,-4.47531 13.0004,-3.13182 14.95593,-3.36115 28.72671,-3.36878 l 12.30159,-0.007 2.77361,1.10926 c 5.40701,2.16245 8.56606,4.40435 10.66773,7.57067 4.4739,6.7402 5.0667,17.81503 1.45216,27.12929 -1.43399,3.69521 -3.14089,6.33829 -6.41926,9.94 -1.45028,1.59332 -2.72633,3.23901 -2.83566,3.65711 -0.35658,1.36356 1.07067,3.3045 3.28161,4.46272 1.69857,0.88981 2.59877,1.09127 4.87624,1.09127 h 2.79311 l -0.28301,10.01073 c -0.15566,5.5059 -0.34542,10.07314 -0.4217,10.14941 -0.43994,0.43995 -6.56552,1.71138 -10.13086,2.10277 -4.88043,0.53577 -13.94131,0.21442 -18.05556,-0.64035 -1.65395,-0.34363 -4.75818,-1.54415 -7.6728,-2.96737 -2.69227,-1.31464 -5.05834,-2.28933 -5.25794,-2.16597 -0.1996,0.12336 -0.37855,1.95482 -0.39767,4.06992 -0.0191,2.11509 -0.15305,4.73787 -0.29762,5.82839 l -0.26285,1.98275 -4.96032,1.07769 c -4.57128,0.99316 -18.23627,3.54476 -22.07318,4.12162 -1.16352,0.17493 -1.73643,0.0903 -1.98175,-0.29272 z m 35.84538,-42.07286 c 3.77513,-2.29212 6.65516,-8.90077 6.62931,-15.21194 -0.0249,-6.07222 -1.9547,-9.15796 -6.61215,-10.57262 -5.68973,-1.7282 -6.02695,-1.0025 -6.0194,12.95357 0.006,11.52372 0.18299,13.16339 1.47575,13.69064 1.12312,0.45807 2.91744,0.1173 4.52649,-0.85965 z"
     id="path314"
     transform="scale(0.26458333)" /><path
     style="font-variation-settings:'wght' 800;fill:#e6e6e6;stroke:#000000;stroke-width:1.49981"
     d="m 298.53504,183.3181 c -2.09998,-0.81829 -3.16917,-4.81904 -3.54865,-13.27842 -0.32575,-7.26168 0.15295,-10.38495 2.00327,-13.07045 2.98442,-4.33148 12.25166,-14.6066 32.59136,-36.1359 13.19662,-13.96845 19.17701,-20.55272 21.71628,-23.909124 1.46831,-1.940813 1.54311,-2.164182 1.09059,-3.256662 -0.86912,-2.098246 -3.0558,-2.601846 -11.11805,-2.56052 -5.85249,0.03 -8.47318,0.265206 -16.66667,1.495825 -5.34722,0.803127 -11.26488,1.571369 -13.15035,1.707207 -3.32035,0.23921 -3.44512,0.217131 -3.96826,-0.702175 -0.42816,-0.752405 -0.56589,-4.654528 -0.66444,-18.824895 l -0.12431,-17.875744 2.70368,-0.871921 c 10.52695,-3.394872 55.94427,-11.072196 95.67426,-16.172736 l 11.22455,-1.441008 1.87069,0.9281 c 3.15382,1.564695 3.2495,2.176527 2.26572,14.488163 -0.64171,8.030652 -1.53415,15.593379 -2.2144,18.765279 -0.49656,2.315387 -4.19505,8.424726 -16.82585,27.793711 -14.72225,22.57618 -20.44208,31.89404 -20.44208,33.30109 0,1.8882 5.20595,1.67317 24.00794,-0.99166 3.92857,-0.5568 9.82143,-1.4497 13.09524,-1.98421 6.49934,-1.06116 8.67907,-0.98753 10.38029,0.35065 l 1.04559,0.82246 -0.2676,12.32623 c -0.31238,14.38909 -0.54249,16.71826 -1.7481,17.69451 -0.96408,0.78067 -2.12348,1.06091 -18.14034,4.38479 -29.29522,6.07946 -63.2997,11.64709 -95.43651,15.62606 -14.66639,1.81589 -14.34022,1.78633 -15.35385,1.39135 z"
     id="path316"
     transform="scale(0.26458333)" /><path
     style="font-variation-settings:'wght' 800;fill:#e6e6e6;stroke:#000000;stroke-width:1.49981"
     d="m 441.05765,157.98513 c -1.93999,-0.85696 -1.97035,-1.05279 -1.97035,-12.70882 V 134.3254 l 1.06163,-1.8058 c 2.04067,-3.47112 16.14012,-19.28588 32.66853,-36.642929 17.05211,-17.907004 22.22709,-23.737203 22.68344,-25.555453 0.33144,-1.320539 -0.53075,-2.703603 -2.20517,-3.537389 -2.9398,-1.463889 -16.92341,-0.697615 -28.41478,1.557072 -3.03369,0.595234 -5.93853,0.863885 -9.52381,0.880797 l -5.15873,0.02433 -0.11924,-15.873016 c -0.0656,-8.730159 -0.006,-16.993522 0.13185,-18.36303 l 0.25109,-2.490014 1.89129,-0.958391 c 3.30052,-1.672494 11.72126,-3.460867 34.55136,-7.337918 39.50884,-6.709465 70.72136,-10.79906 74.73397,-9.791957 0.61117,0.153394 1.33272,0.795537 1.73747,1.546273 0.87354,1.620225 0.85027,7.201778 -0.074,17.752188 -0.97015,11.07419 -1.6795,15.365265 -2.8863,17.460317 -1.4965,2.59798 -7.28371,11.52658 -19.41924,29.960318 -16.02359,24.339662 -17.67374,27.110122 -16.78515,28.180802 1.00236,1.20777 8.00288,0.70415 29.95517,-2.155 8.78064,-1.14362 15.24635,-1.71497 16.32993,-1.44301 0.52612,0.13205 1.30753,0.81566 1.73645,1.51912 0.69544,1.14059 0.77904,2.00924 0.77233,8.02507 -0.009,8.47614 -0.87281,20.48789 -1.55154,21.58609 -0.4294,0.69478 -4.84789,1.84375 -15.50146,4.03093 -43.52093,8.93486 -110.7266,18.93155 -114.89473,17.09033 z"
     id="path318"
     transform="scale(0.26458333)" /><path
     style="font-variation-settings:'wght' 800;fill:#e6e6e6;stroke:#000000;stroke-width:1.49981"
     d="m 425.94558,256.9664 c -0.27075,-0.70556 0.83442,-3.74815 7.8636,-21.64894 7.86737,-20.03533 10.73312,-28.05373 10.7518,-30.08357 0.0223,-2.42497 -1.15479,-3.48814 -4.69139,-4.23728 -1.52153,-0.3223 -3.14333,-0.5891 -3.604,-0.59289 -0.71282,-0.006 -0.87486,-0.31723 -1.08782,-2.09023 -0.13763,-1.14583 -0.25179,-5.58244 -0.25369,-9.85913 -0.004,-9.1009 -0.1736,-8.72198 4.42852,-9.89591 7.28567,-1.85846 30.52924,-6.53113 37.43311,-7.5252 1.74604,-0.25141 3.97396,-0.39924 4.95096,-0.32851 l 1.77635,0.12859 1.82644,3.60509 c 2.40083,4.73882 4.6171,10.05277 10.49537,25.16475 6.1767,15.87923 15.97524,42.01572 16.14147,43.05556 0.10591,0.66254 -0.332,0.94776 -2.6509,1.72655 -5.6631,1.90191 -13.9025,3.35544 -19.24603,3.39524 l -4.96032,0.0369 -4.16667,-1.92483 c -6.72384,-3.10613 -9.35553,-3.9367 -11.89217,-3.75322 -3.6012,0.26049 -5.66418,1.55551 -10.72688,6.73374 l -4.56349,4.66762 -13.47521,1.99946 c -7.41136,1.0997 -13.62232,1.99945 -13.80213,1.99945 -0.17981,0 -0.42593,-0.25797 -0.54692,-0.57328 z m 44.49536,-31.96808 c 0.54319,-0.20653 0.98763,-0.65451 0.98763,-0.99552 0,-0.74126 -2.6838,-7.79293 -3.14098,-8.25293 -0.31539,-0.31733 -2.75572,4.3964 -3.85525,7.44675 -0.87991,2.44111 -0.57042,2.75005 2.44542,2.44107 1.41655,-0.14513 3.01997,-0.43285 3.56318,-0.63937 z"
     id="path320"
     transform="scale(0.26458333)" /><path
     style="font-variation-settings:'wght' 800;fill:#e6e6e6;stroke:#000000;stroke-width:1.49981"
     d="m 519.84127,202.9954 v -37.7292 l 14.38492,-3.47722 c 28.77127,-6.95479 35.18981,-8.11415 41.18521,-7.43913 5.15844,0.58079 8.96075,2.59027 11.29495,5.96926 l 1.19048,1.72333 -0.0189,6.57799 c -0.0221,7.67634 -0.40574,9.38214 -3.35357,14.91132 -2.67397,5.01549 -2.71027,5.2091 -1.10275,5.88077 2.83301,1.1837 7.44317,7.72221 8.28073,11.74441 0.73412,3.5254 0.26383,9.94357 -1.00562,13.72402 -3.10138,9.23597 -7.7753,13.03025 -20.98246,17.03353 -8.28525,2.51136 -31.01002,6.67438 -45.21026,8.28219 l -4.6627,0.52793 z m 32.51992,10.62334 c 1.74095,-1.97782 3.98802,-6.25638 3.98802,-7.59344 0,-2.01379 -4.0263,-4.90056 -5.74366,-4.11807 -1.07095,0.48795 -1.40173,2.37929 -1.39378,7.96958 0.009,6.2559 0.46232,6.79464 3.14942,3.74193 z m 0.23004,-29.97677 c 2.22761,-2.46723 3.34037,-4.70387 3.35244,-6.73838 0.0129,-2.17443 -0.71041,-3.38401 -2.55856,-4.27869 -3.62395,-1.75432 -3.92385,-1.228 -4.11771,7.22667 -0.17814,7.76873 -0.22247,7.71818 3.32383,3.7904 z"
     id="path322"
     transform="scale(0.26458333)" /><path
     style="font-variation-settings:'wght' 800;fill:#e6e6e6;stroke:#000000;stroke-width:1.49981"
     d="m 598.89245,189.21398 c 0.0969,-26.32849 0.26228,-36.92433 0.58798,-37.66444 0.35977,-0.81752 0.88953,-1.12039 2.56972,-1.46914 1.16408,-0.24162 7.38437,-1.68742 13.82287,-3.21289 21.12087,-5.00415 29.05027,-6.41664 36.05738,-6.42299 7.18176,-0.007 11.47806,1.99948 14.18871,6.62485 0.95773,1.63424 1.02452,2.07283 0.98763,6.48528 -0.0684,8.17874 -0.72245,11.16858 -3.58386,16.38221 -1.91593,3.49093 -2.04269,4.70181 -0.57447,5.48757 1.68078,0.89953 5.45068,5.28025 6.69696,7.78203 1.0052,2.01787 1.17093,2.8497 1.31278,6.5891 0.54517,14.37197 -5.25273,22.56884 -19.17244,27.10536 -11.20926,3.65316 -30.58423,7.46299 -36.82771,7.24168 -2.00051,-0.0709 -3.19652,0.0503 -3.37699,0.34234 -0.40523,0.65567 -1.63109,0.83696 -7.53947,1.11501 l -5.28386,0.24865 z m 32.2625,10.68681 c 2.76984,-3.04871 4.16251,-5.67974 4.16251,-7.86379 0,-1.32749 -0.25043,-1.89061 -1.31365,-2.95383 -1.49162,-1.49162 -4.45808,-2.51779 -5.18295,-1.79292 -0.59079,0.59079 -0.90425,15.0907 -0.32624,15.0907 0.22388,0 1.42102,-1.11607 2.66033,-2.48016 z m 0.42577,-30.45635 c 3.22928,-3.66329 4.2873,-5.6081 3.96798,-7.29379 -0.33415,-1.76402 -1.76793,-3.36629 -3.56097,-3.97943 -1.77209,-0.60598 -2.8436,-0.44117 -3.24309,0.49884 -0.50848,1.19645 -0.7222,14.06605 -0.23083,13.90021 0.24383,-0.0823 1.62395,-1.48892 3.06691,-3.12583 z"
     id="path324"
     transform="scale(0.26458333)" /><path
     style="font-variation-settings:'wght' 800;fill:#e6e6e6;stroke:#000000;stroke-width:1.49981"
     d="m 682.63688,172.9819 0.10122,-37.85033 4.16666,-1.05862 c 5.97849,-1.51895 23.20377,-5.02053 26.21509,-5.32905 3.06145,-0.31366 4.18072,0.33402 4.72129,2.73201 0.68005,3.01675 0.86614,22.7814 0.43034,45.70663 -0.24479,12.87698 -0.5902,24.27265 -0.76757,25.3237 -0.17738,1.05105 -0.57719,2.16568 -0.88846,2.47695 -0.31127,0.31127 -1.98959,0.91891 -3.72959,1.35032 -3.7399,0.92725 -22.858,3.91185 -27.27279,4.25766 l -3.07741,0.24106 z"
     id="path328"
     transform="scale(0.26458333)" /><path
     style="font-variation-settings:'wght' 800;fill:#e6e6e6;stroke:#000000;stroke-width:1.49981"
     d="m 743.0545,200.64932 c -0.93892,-1.43297 -1.34168,-9.14555 -1.64358,-31.47391 l -0.26924,-19.91189 -2.76237,-0.62382 c -3.65024,-0.82433 -5.39382,-0.78679 -7.4828,0.16111 -0.95141,0.43171 -2.30392,0.78886 -3.00556,0.79365 -2.16832,0.0148 -2.25119,-0.50605 -1.95019,-12.25806 0.14796,-5.77712 0.33809,-10.57293 0.42252,-10.65735 0.27953,-0.27954 16.12985,-3.64111 26.61291,-5.64413 16.35536,-3.12506 29.11425,-5.19201 32.27657,-5.22883 4.73789,-0.0552 5.25786,1.04157 4.73523,9.98756 -0.30892,5.28785 -0.97238,11.50962 -1.32544,12.42969 -0.35425,0.92316 -2.04614,1.50759 -8.70223,3.00604 l -6.34921,1.42935 -0.24346,23.61111 c -0.23539,22.82972 -0.49531,29.55853 -1.15758,29.96783 -0.64611,0.39932 -26.5945,5.34963 -28.04151,5.34963 -0.27471,0 -0.77604,-0.42209 -1.11406,-0.93798 z"
     id="path330"
     transform="scale(0.26458333)" /><path
     style="font-variation-settings:'wght' 800;fill:#e6e6e6;stroke:#000000;stroke-width:1.49981"
     d="m 797.8021,202.4582 c -0.88146,-0.41636 -2.34504,-1.60041 -3.25239,-2.63121 -3.07142,-3.48932 -3.65828,-6.91047 -3.95532,-23.05808 -0.26301,-14.29705 -0.16173,-14.99034 2.838,-19.42764 4.12002,-6.09445 21.02733,-26.85157 38.30234,-47.02381 15.59842,-18.214456 23.2257,-28.306115 24.94775,-33.008377 1.1922,-3.255428 1.72147,-8.140198 1.24557,-11.495706 -0.48307,-3.406123 -1.08931,-4.618222 -3.22346,-6.444976 -2.47832,-2.121353 -5.41956,-3.11175 -9.86584,-3.322095 -3.31131,-0.156655 -4.15358,-0.0505 -6.89139,0.868555 -5.37048,1.80281 -7.8058,4.135881 -9.21914,8.832056 -0.30624,1.017559 -0.72523,4.511353 -0.93109,7.763988 -0.57169,9.032968 -1.34038,10.064266 -9.7215,13.042575 -1.97533,0.701953 -7.3415,2.653365 -11.92484,4.336476 -10.33602,3.795635 -14.6231,4.91456 -17.74514,4.631461 -2.83728,-0.257274 -5.53327,-1.75377 -6.80523,-3.777465 -3.4635,-5.510404 -4.38724,-18.209015 -2.06431,-28.377773 2.82378,-12.361258 9.5904,-27.267122 16.39201,-36.109215 8.63964,-11.231515 23.95948,-18.4328465 45.78653,-21.5226736 2.98161,-0.4220754 8.77637,-0.7126517 17.0587,-0.8554021 l 12.54318,-0.2161889 5.9092,3.0238974 c 7.36865,3.7707442 10.85186,5.9984102 15.55516,9.9482132 9.85768,8.278421 16.96741,20.332244 19.79221,33.555666 1.10308,5.163691 1.01756,21.30706 -0.14094,26.606861 -1.37641,6.296671 -3.6191,10.971441 -8.61699,17.961655 -3.97217,5.555608 -7.9373,9.839348 -14.31849,15.468988 -28.19125,24.87107 -31.16335,27.79987 -31.16335,30.70939 0,2.86664 1.9943,5.83915 4.93037,7.34872 3.3849,1.74033 6.54725,0.62605 22.3875,-7.88837 17.73639,-9.53364 21.17172,-10.5369 26.8488,-7.84097 2.13928,1.0159 3.54466,2.18303 5.0956,4.23176 1.21034,1.5988 5.04798,9.2664 7.70076,15.38609 5.63757,13.00533 5.52142,16.10709 -0.80317,21.44752 -6.28702,5.30869 -11.0038,7.74229 -19.57445,10.09931 -11.22724,3.08762 -76.14011,15.19934 -93.60922,17.46601 -8.27551,1.07377 -11.66359,1.14169 -13.50742,0.27076 z"
     id="path332"
     transform="scale(0.26458333)" /></svg>
