<?xml version="1.0" encoding="UTF-8" ?>
<!DOCTYPE svg PUBLIC "-//W3C//DTD SVG 1.1//EN" "http://www.w3.org/Graphics/SVG/1.1/DTD/svg11.dtd">
<svg width="1419pt" height="487pt" viewBox="0 0 1419 487" version="1.1" xmlns="http://www.w3.org/2000/svg">
<path fill="#ffffff" stroke="#ffffff" stroke-width="0.09375" opacity="1.00" d=" M 148.7 22.7 C 149.2 20.5 151.0 19.0 152.6 17.5 C 154.7 17.8 156.9 18.1 159.0 18.4 C 166.7 17.8 174.3 18.2 182.0 17.9 C 185.3 17.7 188.7 18.1 192.0 18.4 C 200.0 18.1 208.0 17.7 216.0 17.9 C 224.2 18.2 232.4 17.3 240.5 18.7 C 240.5 22.3 240.2 25.9 239.4 29.4 C 237.9 36.7 236.9 44.0 235.4 51.3 C 229.7 77.4 225.3 103.8 220.1 130.1 C 216.5 148.3 212.3 166.5 208.9 184.8 C 205.0 204.7 200.7 224.4 197.4 244.4 C 209.6 245.4 221.8 244.5 234.0 244.8 C 263.7 244.6 293.4 244.8 323.0 244.6 C 325.0 244.9 327.9 244.0 328.8 246.4 C 329.5 250.7 328.0 255.0 327.3 259.2 C 324.3 272.2 322.5 285.4 319.5 298.4 C 317.6 306.8 316.6 315.4 313.4 323.3 C 306.6 323.2 299.7 323.7 292.9 323.5 C 280.0 323.2 267.0 323.5 254.0 323.3 C 253.6 323.5 252.7 324.0 252.2 324.2 C 236.8 323.0 221.3 324.0 205.9 323.6 C 193.1 323.5 180.3 323.8 167.6 323.6 C 158.7 323.4 149.9 324.0 141.0 323.5 C 138.4 323.8 135.9 324.1 133.3 324.5 C 126.6 323.1 119.8 323.9 113.0 323.8 C 105.6 323.7 98.2 323.9 90.8 323.8 C 90.5 318.0 91.3 312.3 92.9 306.8 C 99.7 275.7 104.6 244.3 111.0 213.2 C 113.7 201.4 116.0 189.5 118.8 177.7 C 121.3 165.8 123.4 153.9 126.0 142.0 C 128.4 128.2 130.9 114.5 133.8 100.8 C 135.6 90.0 138.0 79.3 140.4 68.7 C 142.2 58.1 144.2 47.7 146.1 37.2 C 147.0 32.4 147.4 27.5 148.7 22.7 Z" />
<path fill="#ffffff" stroke="#ffffff" stroke-width="0.09375" opacity="1.00" d=" M 1240.9 21.6 C 1242.3 21.3 1243.8 21.0 1245.3 20.7 C 1244.7 22.3 1244.1 23.9 1243.6 25.5 C 1242.6 24.2 1241.8 22.9 1240.9 21.6 Z" />
<path fill="#ffffff" stroke="#ffffff" stroke-width="0.09375" opacity="1.00" d=" M 485.0 71.0 C 504.0 70.7 523.0 70.6 542.0 71.1 C 542.9 71.6 543.7 72.0 544.5 72.5 C 549.2 88.3 551.0 104.7 554.2 120.7 C 555.7 130.5 557.7 140.2 559.0 150.0 C 560.8 162.7 563.7 175.1 565.3 187.8 C 569.2 208.5 572.3 229.3 576.0 250.1 C 576.3 252.9 577.5 255.5 578.9 257.9 C 606.1 257.4 633.3 258.0 660.4 257.6 C 665.1 257.4 669.9 257.8 674.6 257.4 C 686.7 256.0 698.8 257.6 710.9 256.6 C 714.0 256.5 716.0 253.9 718.2 252.1 C 718.4 249.3 719.0 246.4 718.3 243.7 C 717.1 241.1 714.6 239.5 712.4 237.7 C 709.1 236.5 705.2 236.1 703.1 232.8 C 700.3 231.6 697.5 230.4 694.6 229.3 C 692.9 228.1 691.2 226.9 689.6 225.6 C 686.5 224.3 682.9 223.9 680.5 221.4 C 676.7 219.1 672.6 217.3 668.7 215.2 L 668.5 214.6 C 662.3 212.5 657.0 208.4 651.1 205.8 C 648.5 205.1 646.5 203.0 644.0 202.0 C 635.5 198.0 627.6 192.7 620.3 186.7 C 612.8 178.0 607.4 166.8 607.3 155.1 C 606.6 145.7 607.5 136.2 610.0 127.1 C 611.8 119.1 615.7 111.9 619.7 104.8 C 623.2 101.2 625.9 97.0 629.2 93.2 C 632.0 91.0 634.7 88.7 637.4 86.4 C 643.0 82.4 649.3 79.4 655.6 76.5 C 661.8 74.4 668.3 73.0 674.8 71.8 C 682.8 70.3 691.0 72.4 699.1 71.6 C 705.5 71.8 711.9 71.9 718.3 71.5 C 722.2 72.0 726.1 72.2 730.0 72.0 C 745.9 71.2 761.9 72.2 777.9 71.6 C 784.9 71.0 792.0 70.7 799.1 71.0 C 805.6 71.4 812.1 70.8 818.6 71.5 C 818.9 75.0 819.0 78.7 818.2 82.2 C 814.7 99.3 812.0 116.6 807.6 133.5 C 804.0 134.8 799.7 134.0 795.9 134.5 C 787.2 134.1 778.6 134.5 769.9 134.3 C 765.1 134.1 760.2 134.6 755.4 134.6 C 751.6 134.1 747.7 134.9 743.9 134.2 C 740.6 134.7 737.3 134.5 734.0 134.6 C 732.1 134.4 730.1 134.0 728.3 134.6 C 713.3 133.7 698.2 134.5 683.2 136.0 C 681.5 139.7 678.9 144.0 681.0 148.1 C 682.7 150.2 684.5 153.1 687.6 153.3 C 692.9 156.0 698.3 158.7 703.8 161.1 C 711.2 165.2 719.3 168.0 726.6 172.3 C 732.8 175.9 739.8 177.5 746.0 181.0 C 751.9 183.2 757.4 186.3 763.0 189.0 C 767.4 191.1 771.5 193.8 775.5 196.6 L 775.7 197.2 C 777.1 198.2 778.9 198.7 779.8 200.2 C 784.1 205.3 788.7 210.2 791.8 216.2 C 797.3 225.8 799.7 237.0 799.4 248.0 C 799.2 256.0 799.0 264.3 796.0 271.9 C 792.8 282.3 785.4 290.6 779.3 299.3 C 776.1 302.0 773.2 305.2 769.8 307.8 C 766.4 310.5 762.5 312.6 758.7 314.9 L 758.8 315.4 C 752.9 317.2 747.1 319.2 741.3 321.4 C 728.9 322.9 716.4 323.0 704.0 322.8 C 699.3 323.3 694.7 323.3 690.0 323.3 C 651.6 323.4 613.3 323.3 574.9 323.4 C 559.6 323.6 544.2 323.9 528.8 323.6 C 525.9 323.8 523.0 324.1 520.0 324.0 C 517.7 324.1 515.8 322.5 513.9 321.3 C 513.2 315.2 511.9 309.1 511.1 302.9 C 510.5 298.3 509.4 293.7 508.0 289.3 C 483.3 289.5 458.6 289.3 434.0 289.4 C 429.3 289.4 424.6 289.7 419.9 290.1 C 419.7 290.3 419.2 290.8 419.0 291.0 C 411.5 301.4 405.7 312.9 398.5 323.6 C 391.6 324.2 384.8 323.4 377.9 323.8 C 372.3 324.2 366.7 323.6 361.1 323.8 C 349.5 324.2 337.9 324.1 326.3 324.3 C 325.9 320.7 326.9 317.3 328.2 314.1 C 330.3 314.0 330.0 311.4 331.1 310.1 C 334.7 304.6 337.2 298.5 341.3 293.4 C 344.5 287.5 347.9 281.7 350.9 275.6 L 351.4 275.5 C 351.7 274.4 352.1 273.4 352.5 272.3 C 355.6 270.0 356.5 265.7 358.6 262.6 C 363.5 255.6 367.3 248.1 371.8 240.9 C 373.2 236.6 375.9 233.0 378.3 229.3 C 379.8 225.1 382.4 221.5 384.6 217.7 C 391.5 205.3 398.3 192.9 405.8 180.8 C 412.5 169.4 418.7 157.7 425.1 146.1 C 427.3 144.0 428.4 141.3 429.7 138.6 C 433.0 132.9 436.1 127.1 439.3 121.4 C 448.2 105.0 458.1 89.3 466.9 73.0 C 468.0 72.3 469.0 71.6 470.1 71.0 C 475.0 71.4 480.0 71.3 485.0 71.0 M 484.4 176.3 C 483.4 178.9 482.6 181.6 480.9 183.9 C 472.8 196.9 465.5 210.5 457.7 223.7 C 456.0 226.3 454.9 229.3 454.2 232.3 C 465.7 232.6 477.3 232.0 488.9 232.6 C 490.7 232.1 492.5 232.5 494.3 232.6 C 495.4 231.8 496.5 230.9 497.5 230.1 C 496.4 219.8 494.7 209.5 492.7 199.3 C 491.2 191.2 490.2 183.0 488.0 175.0 C 486.8 175.4 485.6 175.8 484.4 176.3 Z" />
<path fill="#ffffff" stroke="#ffffff" stroke-width="0.09375" opacity="1.00" d=" M 861.8 70.2 C 865.1 70.5 868.3 70.6 871.6 70.5 C 918.8 70.5 965.9 70.3 1013.0 70.4 C 1023.0 70.7 1033.0 69.4 1043.0 70.3 C 1050.4 70.1 1057.9 70.6 1065.3 70.2 C 1065.8 74.1 1065.9 78.2 1065.1 82.1 C 1063.1 91.8 1061.3 101.6 1059.3 111.3 C 1057.5 120.1 1056.6 129.1 1053.7 137.6 C 1045.1 137.8 1036.6 137.3 1028.0 137.6 C 1012.0 137.7 996.0 137.6 980.0 137.7 C 960.4 137.4 940.7 138.1 921.1 138.3 C 920.4 138.9 919.8 139.5 919.1 140.2 C 917.2 147.5 915.8 155.0 915.2 162.6 C 923.2 163.2 931.3 162.1 939.3 163.5 C 947.6 162.3 956.0 162.9 964.3 163.5 C 969.2 163.3 974.1 162.7 979.0 162.8 C 989.2 163.0 999.5 162.4 1009.7 163.5 C 1014.1 163.1 1018.4 163.3 1022.8 164.2 C 1022.6 174.4 1020.1 184.3 1018.2 194.2 C 1016.1 203.5 1014.9 213.0 1012.2 222.2 C 1007.0 222.3 1001.7 222.2 996.5 222.6 C 989.4 221.8 982.3 222.9 975.2 222.4 C 972.8 222.4 970.2 223.4 967.9 222.1 C 965.9 222.4 963.9 223.0 961.8 222.7 C 955.9 222.2 950.0 223.0 944.2 222.1 C 943.7 222.5 942.6 223.2 942.1 223.6 C 941.4 223.2 940.1 222.4 939.4 222.0 C 937.1 223.1 934.5 223.4 931.9 223.3 C 931.4 223.0 930.4 222.3 929.9 222.0 C 927.4 223.3 924.7 222.8 922.0 222.9 C 915.6 222.6 909.1 223.0 902.7 223.7 C 902.0 226.3 901.3 229.0 900.8 231.7 C 899.5 238.7 897.8 245.6 897.7 252.8 C 919.8 253.1 941.9 252.5 964.0 252.9 C 971.3 253.5 978.5 253.4 985.8 253.6 C 990.5 253.2 995.3 252.7 1000.0 253.0 C 1009.3 254.0 1018.7 251.9 1027.8 254.3 C 1027.8 261.4 1025.8 268.3 1024.3 275.2 C 1022.8 281.8 1021.7 288.6 1020.3 295.2 C 1018.6 303.2 1017.5 311.4 1015.2 319.2 C 994.0 319.6 972.8 318.9 951.6 319.5 C 942.4 319.2 933.2 319.3 923.9 319.4 C 900.6 319.9 877.3 319.4 854.0 319.7 C 843.7 319.8 833.3 319.4 823.0 320.1 C 819.2 320.3 815.3 320.0 811.5 319.6 C 811.3 318.4 811.0 317.1 810.8 315.9 C 812.3 306.3 814.7 296.9 816.6 287.4 C 819.1 278.0 820.5 268.3 822.7 258.8 C 824.7 250.1 826.0 241.4 827.8 232.7 C 833.0 205.5 839.3 178.6 844.4 151.3 C 845.8 142.4 848.0 133.5 849.6 124.6 C 851.8 112.2 854.2 99.9 856.7 87.5 C 857.9 81.7 858.5 75.4 861.8 70.2 Z" />
<path fill="#ffffff" stroke="#ffffff" stroke-width="0.09375" opacity="1.00" d=" M 1092.0 70.3 C 1107.0 70.2 1122.0 70.4 1136.9 70.2 C 1171.0 70.4 1205.0 70.1 1239.0 70.3 C 1254.0 70.0 1267.7 76.8 1280.7 83.5 C 1281.2 84.2 1281.7 85.0 1282.2 85.7 C 1285.7 88.6 1289.2 91.5 1292.2 94.8 C 1296.2 98.9 1299.2 103.9 1302.8 108.2 C 1306.4 114.5 1308.7 121.3 1311.5 128.0 C 1311.5 129.1 1311.5 130.2 1311.4 131.4 C 1314.5 141.8 1315.2 153.0 1312.6 163.6 C 1312.0 164.5 1313.0 165.5 1312.4 166.4 C 1310.7 173.2 1308.3 179.9 1305.2 186.2 C 1302.2 192.2 1297.7 197.4 1293.8 202.8 C 1290.9 204.6 1289.3 207.6 1286.8 209.7 C 1282.1 213.7 1277.3 217.4 1271.8 220.0 C 1269.4 220.0 1267.6 221.6 1265.7 222.8 C 1265.5 222.7 1265.0 222.5 1264.7 222.4 C 1263.5 223.1 1262.3 223.7 1261.0 224.4 C 1260.9 225.6 1260.7 226.8 1260.6 228.0 C 1260.3 227.1 1260.1 226.3 1259.9 225.4 C 1258.4 225.3 1257.0 225.2 1255.6 225.1 C 1254.8 227.2 1254.1 229.6 1255.3 231.7 C 1259.9 241.9 1264.2 252.1 1268.7 262.3 C 1273.2 271.6 1277.5 280.8 1281.9 290.1 C 1284.5 295.4 1286.3 301.1 1288.6 306.5 C 1290.3 310.3 1291.8 314.2 1293.2 318.1 C 1290.9 318.7 1288.6 319.2 1286.2 319.7 C 1275.8 318.7 1265.4 319.1 1255.0 319.4 C 1243.2 319.2 1231.3 319.2 1219.5 319.5 C 1217.9 318.0 1216.7 316.4 1216.7 314.2 C 1213.4 306.5 1210.7 298.6 1208.3 290.6 C 1208.0 290.2 1207.6 289.3 1207.3 288.9 C 1204.9 281.2 1201.4 273.9 1198.5 266.3 C 1195.6 259.0 1192.5 251.6 1189.8 244.2 C 1188.7 240.5 1187.0 237.1 1185.5 233.6 C 1183.4 227.5 1180.9 221.4 1178.6 215.3 C 1174.8 205.6 1169.9 196.2 1167.4 186.1 C 1167.9 185.6 1168.9 184.7 1169.4 184.3 C 1183.6 184.4 1197.9 184.0 1212.2 184.1 C 1212.7 183.9 1213.8 183.5 1214.3 183.3 C 1216.2 184.0 1218.0 182.4 1219.9 182.0 C 1223.4 180.4 1226.5 177.9 1229.5 175.5 C 1231.9 171.8 1234.9 168.3 1235.7 163.8 C 1236.9 156.3 1235.6 148.2 1231.0 141.9 C 1228.9 137.9 1224.1 136.8 1220.4 134.6 C 1216.0 133.7 1211.5 133.3 1207.0 133.5 C 1192.1 133.8 1177.2 132.7 1162.3 134.2 C 1159.4 147.8 1157.3 161.6 1154.4 175.3 C 1151.7 190.9 1148.1 206.4 1145.1 222.0 C 1143.6 230.1 1141.5 238.0 1140.1 246.1 C 1136.6 266.3 1131.5 286.3 1127.5 306.5 C 1126.8 311.2 1126.0 316.1 1123.3 320.2 C 1114.9 320.1 1106.6 320.3 1098.2 320.4 C 1082.1 319.9 1066.0 320.8 1050.0 320.3 C 1047.8 321.2 1045.5 320.2 1043.3 320.3 C 1042.5 316.7 1042.7 313.0 1043.6 309.5 C 1046.0 298.5 1047.6 287.4 1050.3 276.4 C 1054.5 257.6 1057.9 238.7 1061.9 219.9 C 1070.0 173.1 1080.9 126.9 1089.1 80.1 C 1089.7 76.8 1090.8 73.5 1092.0 70.3 Z" />
<path fill="#ffffff" stroke="#ffffff" stroke-width="0.09375" opacity="1.00" d=" M 1317.6 75.4 C 1317.9 75.6 1318.6 76.0 1318.9 76.1 C 1320.1 75.8 1321.2 75.5 1322.4 75.2 C 1323.8 75.9 1325.2 76.5 1326.6 77.1 C 1324.2 78.6 1321.9 80.0 1319.5 81.4 C 1319.3 85.7 1318.6 89.9 1319.4 94.2 C 1318.5 96.2 1317.4 98.3 1315.0 98.6 C 1313.0 92.7 1314.5 86.2 1313.3 80.1 C 1311.4 79.6 1309.4 79.1 1307.5 78.7 C 1307.8 78.1 1308.3 76.9 1308.6 76.3 C 1311.6 75.8 1314.6 75.6 1317.6 75.4 Z" />
<path fill="#ffffff" stroke="#ffffff" stroke-width="0.09375" opacity="1.00" d=" M 1331.2 95.8 C 1332.6 88.9 1330.9 81.5 1334.1 75.0 C 1336.2 75.4 1338.4 75.8 1340.6 76.3 C 1342.0 79.7 1343.4 83.0 1344.5 86.5 C 1345.5 87.4 1346.6 88.3 1347.7 89.2 C 1348.6 86.6 1349.5 84.0 1350.4 81.4 C 1351.6 79.4 1352.9 77.5 1354.1 75.6 C 1356.0 76.1 1358.1 76.2 1359.8 77.3 C 1360.6 78.3 1360.4 79.8 1360.6 81.0 C 1360.9 87.1 1361.1 93.1 1360.2 99.1 C 1358.8 99.1 1357.4 99.0 1356.0 99.0 C 1355.8 94.4 1355.1 89.7 1355.7 85.1 C 1351.7 86.6 1351.4 91.3 1349.6 94.7 C 1348.8 96.7 1346.9 98.0 1345.3 99.4 C 1344.3 97.9 1343.3 96.4 1342.3 94.9 C 1341.3 91.5 1340.2 88.2 1339.0 85.0 C 1338.3 85.1 1337.0 85.4 1336.4 85.5 C 1336.8 89.9 1336.6 94.4 1334.9 98.5 C 1333.6 97.6 1332.4 96.7 1331.2 95.8 Z" />
<path fill="#ffffff" stroke="#ffffff" stroke-width="0.09375" opacity="1.00" d=" M 1246.4 336.2 C 1256.7 333.8 1267.9 336.3 1276.6 342.4 C 1280.3 345.1 1282.9 349.1 1285.0 353.1 C 1286.8 356.6 1286.6 360.7 1287.7 364.5 C 1288.4 365.9 1289.6 367.2 1290.6 368.5 C 1291.2 367.2 1291.8 365.8 1292.4 364.5 C 1292.2 366.2 1291.9 367.9 1291.8 369.7 C 1290.3 368.7 1288.8 367.8 1287.3 366.9 C 1286.9 370.9 1286.6 374.9 1285.9 378.8 C 1283.0 394.1 1278.7 409.0 1275.1 424.0 C 1272.0 435.9 1265.6 447.3 1255.4 454.4 C 1248.2 459.0 1239.6 461.9 1231.0 461.4 C 1222.6 460.8 1213.9 458.3 1207.7 452.3 C 1203.0 447.7 1199.6 441.6 1199.0 435.0 C 1198.5 429.1 1199.2 423.2 1200.4 417.4 C 1202.8 406.0 1205.5 394.6 1208.2 383.2 C 1210.1 375.0 1211.2 366.5 1214.9 358.9 C 1217.0 354.3 1220.4 350.5 1223.9 346.9 C 1230.4 341.7 1238.1 337.9 1246.4 336.2 M 1242.5 351.5 C 1236.7 354.0 1232.3 358.8 1229.0 364.1 C 1225.5 370.0 1224.4 377.0 1222.5 383.6 C 1219.4 394.5 1217.5 405.8 1214.8 416.9 C 1213.5 422.4 1212.0 428.2 1213.1 433.9 C 1213.9 438.6 1217.5 442.3 1221.6 444.4 C 1230.0 448.9 1240.7 447.7 1248.3 442.4 C 1251.5 439.2 1254.8 436.0 1257.1 432.1 C 1260.3 426.8 1261.2 420.5 1262.6 414.6 C 1265.1 403.0 1268.2 391.6 1271.2 380.1 C 1271.5 379.9 1272.1 379.4 1272.3 379.1 C 1272.5 374.7 1273.2 370.4 1273.2 366.0 C 1273.2 360.1 1270.0 354.1 1264.6 351.5 C 1257.7 348.2 1249.4 348.3 1242.5 351.5 Z" />
<path fill="#ffffff" stroke="#ffffff" stroke-width="0.09375" opacity="1.00" d=" M 1028.1 350.1 C 1034.5 344.0 1042.9 339.9 1051.6 338.5 C 1056.4 337.8 1061.3 337.7 1066.2 337.6 C 1073.6 339.2 1081.0 342.0 1086.4 347.6 C 1092.9 354.6 1095.3 364.7 1094.2 374.0 C 1093.6 379.5 1090.9 384.5 1088.4 389.4 C 1085.2 394.3 1079.4 397.1 1076.4 402.2 C 1077.1 405.3 1078.9 408.0 1080.1 410.8 C 1082.7 416.1 1082.8 422.2 1081.9 427.9 C 1080.4 435.5 1076.0 442.2 1071.3 448.3 C 1065.3 456.2 1056.3 461.4 1046.8 463.9 C 1041.0 465.4 1034.9 465.0 1029.0 464.4 C 1022.9 462.8 1017.3 460.2 1011.9 457.1 C 1008.5 453.7 1004.5 450.5 1003.4 445.6 C 1002.6 442.8 1004.6 440.4 1005.9 438.0 C 1007.4 437.7 1008.9 437.3 1010.4 436.8 C 1016.2 440.4 1021.6 444.8 1028.2 446.8 C 1034.0 448.6 1040.1 447.6 1046.0 447.2 C 1052.1 445.2 1058.1 442.2 1062.3 437.3 C 1066.6 432.1 1069.4 425.1 1067.6 418.4 C 1066.5 414.7 1064.0 411.0 1060.2 409.9 C 1056.3 408.8 1052.3 408.3 1048.3 407.7 C 1046.9 405.7 1044.9 403.6 1044.9 401.0 C 1044.7 398.5 1046.3 396.5 1047.4 394.4 C 1058.1 392.6 1069.5 389.4 1076.6 380.7 C 1080.8 376.0 1081.4 369.2 1079.5 363.4 C 1077.4 357.7 1071.9 353.7 1066.0 352.9 C 1057.0 351.6 1048.2 355.1 1040.8 359.8 C 1037.0 362.2 1033.5 365.4 1028.9 366.2 C 1025.8 366.6 1023.1 363.8 1023.0 360.9 C 1022.6 356.7 1025.3 353.0 1028.1 350.1 Z" />
<path fill="#ffffff" stroke="#ffffff" stroke-width="0.09375" opacity="1.00" d=" M 1164.8 341.8 C 1167.8 340.3 1171.0 341.3 1174.0 342.0 C 1175.0 346.3 1175.5 350.9 1174.2 355.2 C 1171.4 364.4 1168.9 373.7 1165.9 382.8 C 1162.2 395.2 1158.9 407.7 1155.0 420.1 C 1152.4 428.7 1149.3 437.3 1147.1 446.1 C 1145.9 450.6 1144.8 455.3 1142.4 459.4 C 1140.7 462.4 1137.7 465.1 1134.0 465.3 C 1131.4 465.5 1129.5 463.1 1129.0 460.8 C 1127.9 456.0 1129.3 451.2 1130.6 446.7 C 1133.0 439.0 1135.5 431.4 1137.7 423.7 C 1141.3 412.4 1143.8 400.8 1147.5 389.6 C 1149.4 384.2 1150.9 378.7 1152.2 373.2 C 1151.6 372.7 1150.4 371.9 1149.8 371.5 C 1146.5 373.2 1143.5 375.4 1140.1 377.0 C 1137.0 378.4 1132.7 378.3 1130.6 375.3 C 1128.5 372.8 1129.8 369.4 1130.3 366.5 C 1137.9 359.2 1146.7 353.2 1155.4 347.4 C 1157.9 344.6 1161.5 343.3 1164.8 341.8 Z" />
<path fill="#ffffff" stroke="#ffffff" stroke-width="0.09375" opacity="1.00" d=" M 897.5 358.6 C 910.4 358.6 923.2 358.8 936.1 358.1 C 939.9 358.1 943.6 358.9 947.3 359.6 C 950.5 363.0 952.9 367.3 952.8 372.1 C 953.5 377.5 951.3 382.6 948.4 387.1 C 949.8 389.3 951.6 391.4 951.9 394.0 C 952.3 397.6 951.9 401.2 951.7 404.8 C 947.9 404.9 944.1 405.0 940.3 404.8 C 939.5 400.5 938.9 395.8 935.1 393.2 C 927.8 393.5 920.6 393.2 913.4 393.4 C 912.3 393.8 911.3 394.1 910.2 394.4 C 909.5 398.1 908.9 401.7 908.2 405.3 C 904.6 405.3 901.0 405.3 897.5 405.4 C 896.6 402.3 896.0 399.2 896.1 396.0 C 896.1 386.7 895.9 377.3 895.9 367.9 C 895.9 364.8 896.6 361.6 897.5 358.6 M 911.3 370.4 C 910.9 370.8 910.1 371.6 909.6 372.0 C 909.8 374.9 909.9 377.7 910.2 380.6 C 919.3 382.1 928.6 380.5 937.8 380.6 C 938.4 378.9 939.6 377.2 939.5 375.3 C 939.0 373.0 937.6 370.2 934.9 370.3 C 927.0 370.0 919.2 370.4 911.3 370.4 Z" />
<path fill="#ffffff" stroke="#ffffff" stroke-width="0.09375" opacity="1.00" d=" M 836.6 359.5 C 845.4 358.6 854.2 358.9 863.0 358.9 C 869.9 358.9 876.9 358.5 883.8 359.1 C 885.4 362.4 885.1 366.0 884.5 369.5 C 877.6 369.3 870.6 369.1 863.6 369.7 C 859.0 370.2 854.4 370.3 849.7 370.4 C 849.8 372.5 849.9 374.5 850.0 376.6 C 858.7 376.9 867.4 376.6 876.1 376.9 C 878.2 377.1 880.8 377.0 882.4 378.7 C 883.8 380.8 883.0 383.4 882.9 385.8 C 877.2 387.1 871.5 386.2 865.8 386.7 C 860.4 387.1 855.1 386.8 849.7 387.1 C 849.6 389.6 849.7 392.1 850.3 394.5 C 862.1 394.9 874.0 394.1 885.8 395.2 C 885.9 398.6 885.8 402.0 885.4 405.4 C 869.4 405.4 853.4 405.2 837.4 405.5 C 836.2 401.8 835.8 397.9 835.9 394.0 C 836.1 382.5 834.8 371.0 836.6 359.5 Z" />
<path fill="#ffffff" stroke="#ffffff" stroke-width="0.09375" opacity="1.00" d=" M 756.3 360.4 C 760.1 360.2 763.8 360.0 767.6 359.7 C 769.2 365.3 769.1 371.2 769.0 377.0 C 768.9 384.0 769.8 391.3 767.1 398.0 C 765.8 401.5 763.2 404.6 759.6 405.8 C 753.6 407.8 747.2 407.3 741.0 407.3 C 732.7 407.4 723.9 407.6 716.3 403.7 C 713.1 402.1 711.4 398.6 710.9 395.1 C 709.9 388.5 710.2 381.7 710.0 375.0 C 709.8 370.2 710.0 365.3 711.5 360.6 C 715.2 360.7 718.8 360.7 722.5 360.6 C 725.6 371.4 722.0 382.8 725.4 393.5 C 733.1 395.9 741.3 396.5 749.2 395.0 C 751.5 394.6 753.3 392.9 755.2 391.4 C 755.4 381.1 754.8 370.7 756.3 360.4 Z" />
<path fill="#ffffff" stroke="#ffffff" stroke-width="0.09375" opacity="1.00" d=" M 775.7 360.7 C 792.9 361.0 810.2 359.3 827.5 360.7 C 828.0 364.3 828.1 368.0 827.8 371.7 C 821.6 371.5 815.3 372.1 809.1 372.4 C 808.2 382.6 809.5 392.8 808.6 402.9 C 808.4 404.3 808.2 406.2 806.5 406.6 C 803.0 407.7 799.2 406.7 795.7 406.3 C 794.1 395.2 796.0 383.9 794.1 372.8 C 789.7 372.4 785.4 372.3 781.0 372.2 C 779.2 372.1 777.3 372.0 775.8 371.1 C 773.3 368.1 775.0 364.0 775.7 360.7 Z" />
<path fill="#ffffff" stroke="#ffffff" stroke-width="0.09375" opacity="1.00" d=" M 514.0 361.5 C 523.0 360.8 532.0 361.0 541.0 361.6 C 543.9 363.1 547.2 364.1 549.6 366.4 C 552.5 369.5 553.0 374.0 553.3 378.0 C 553.6 383.6 553.7 389.3 553.0 395.0 C 552.5 398.9 550.3 402.2 548.5 405.6 C 540.1 409.1 530.9 408.6 522.0 408.7 C 514.3 408.6 506.5 409.2 498.9 407.3 C 497.3 406.2 496.0 404.7 494.7 403.3 C 491.7 400.0 491.1 395.4 491.0 391.1 C 490.9 383.0 490.0 374.5 493.9 367.0 C 495.7 365.7 497.5 364.4 499.2 363.0 C 504.1 361.9 509.0 361.7 514.0 361.5 M 505.7 377.6 C 504.6 381.3 504.8 385.3 505.0 389.1 C 505.3 391.3 505.4 394.1 507.5 395.6 C 510.2 397.1 513.5 397.2 516.6 397.6 C 522.3 396.8 528.1 397.0 533.9 396.6 C 536.2 396.6 538.0 394.8 538.6 392.6 C 540.2 386.8 539.5 380.7 538.1 375.0 C 537.3 374.4 536.5 373.8 535.7 373.2 C 527.8 372.7 519.9 372.2 512.1 373.2 C 509.4 373.5 506.5 374.8 505.7 377.6 Z" />
<path fill="#ffffff" stroke="#ffffff" stroke-width="0.09375" opacity="1.00" d=" M 562.8 361.8 C 569.2 360.9 575.8 360.6 582.3 361.6 C 588.5 370.0 592.6 379.7 598.1 388.6 C 599.2 388.4 600.3 388.3 601.4 388.2 C 608.1 380.2 610.8 369.5 617.9 361.8 C 624.3 360.7 630.9 360.4 637.4 361.7 C 639.6 370.3 638.7 379.2 638.8 388.0 C 638.6 394.5 639.4 401.1 637.4 407.4 C 634.0 407.3 629.8 408.6 627.0 406.1 C 624.2 396.5 627.8 386.2 624.9 376.5 C 623.0 377.8 621.5 379.5 620.5 381.5 C 616.7 388.6 612.6 395.5 608.4 402.4 C 607.0 404.4 605.6 406.9 602.9 407.2 C 599.6 407.6 595.2 408.1 593.2 404.8 C 590.3 400.5 588.2 395.9 585.4 391.6 C 582.1 386.4 580.2 380.1 575.1 376.3 C 572.9 386.7 575.6 397.4 573.2 407.8 C 569.5 407.7 565.7 407.6 562.0 407.7 C 560.4 397.2 561.2 386.6 561.0 376.0 C 560.9 371.2 561.4 366.4 562.8 361.8 Z" />
<path fill="#ffffff" stroke="#ffffff" stroke-width="0.09375" opacity="1.00" d=" M 648.7 362.8 C 649.7 362.1 650.8 361.4 651.9 360.7 C 660.3 360.8 668.7 360.6 677.0 361.0 C 683.0 361.3 689.1 360.7 695.0 361.9 C 698.4 362.6 701.3 365.1 702.6 368.4 C 704.0 372.1 703.9 376.1 703.8 380.0 C 703.6 384.4 702.9 389.3 699.7 392.7 C 696.8 395.3 692.7 395.7 689.0 396.1 C 680.3 396.7 671.7 396.1 663.0 396.2 C 662.3 399.9 661.6 403.7 660.6 407.3 C 657.5 407.3 654.5 407.4 651.4 407.6 C 649.7 405.8 648.3 403.6 648.6 401.1 C 648.6 388.3 647.9 375.5 648.7 362.8 M 662.8 373.3 C 662.4 376.8 662.4 380.3 662.9 383.7 C 669.0 383.7 675.0 383.9 681.1 383.9 C 683.6 383.8 686.4 384.0 688.4 382.3 C 690.2 379.5 688.9 376.2 688.2 373.3 C 679.7 372.7 671.2 371.4 662.8 373.3 Z" />
<path fill="#ffffff" stroke="#ffffff" stroke-width="0.09375" opacity="1.00" d=" M 164.0 362.6 C 174.3 362.7 184.6 362.4 195.0 362.7 C 198.0 363.6 200.7 365.2 203.6 366.6 C 208.2 374.3 207.1 383.5 207.0 392.1 C 207.0 396.9 205.9 401.9 202.7 405.6 C 200.5 408.3 196.6 407.1 194.0 409.1 C 185.0 409.7 176.0 409.6 167.0 409.7 C 164.1 409.7 161.3 409.8 158.5 409.3 C 155.2 408.8 152.5 406.8 149.8 405.2 C 145.0 396.2 145.9 385.5 146.6 375.7 C 146.7 371.1 149.5 367.5 152.5 364.4 C 156.3 363.4 160.1 362.6 164.0 362.6 M 162.1 375.2 C 158.5 381.8 159.0 389.8 161.3 396.8 C 170.6 399.0 180.5 399.2 189.8 396.8 C 191.9 396.4 193.2 394.6 193.6 392.6 C 194.9 386.4 195.1 379.4 191.1 374.1 C 181.4 373.3 171.6 373.3 162.1 375.2 Z" />
<path fill="#ffffff" stroke="#ffffff" stroke-width="0.09375" opacity="1.00" d=" M 272.3 365.3 C 277.9 361.9 284.7 361.7 291.0 361.7 C 299.1 361.7 307.2 361.3 315.3 362.5 C 318.8 363.1 322.6 364.1 324.7 367.3 C 327.4 371.3 328.0 376.3 328.2 381.0 C 328.4 388.9 327.8 397.1 324.6 404.5 C 321.0 406.6 317.3 409.0 313.0 409.2 C 305.3 409.6 297.7 409.2 290.0 409.3 C 283.7 409.5 277.0 409.0 271.8 405.2 C 268.2 402.5 266.9 397.9 266.5 393.6 C 266.1 387.8 266.2 381.9 266.9 376.1 C 267.4 372.1 268.6 367.6 272.3 365.3 M 287.1 374.2 C 284.7 374.6 281.6 375.4 281.1 378.2 C 280.0 383.4 280.7 388.8 281.0 394.1 C 281.8 394.9 282.5 395.8 283.3 396.6 C 292.5 398.4 301.8 397.8 311.0 396.6 C 312.7 394.2 314.4 391.8 314.6 388.9 C 314.9 385.0 315.1 380.9 313.7 377.3 C 312.5 374.1 308.8 373.7 305.9 373.4 C 299.6 373.1 293.3 373.3 287.1 374.2 Z" />
<path fill="#ffffff" stroke="#ffffff" stroke-width="0.09375" opacity="1.00" d=" M 432.7 364.5 C 436.3 363.2 440.0 361.8 443.9 361.7 C 449.6 361.4 455.3 361.7 461.0 361.6 C 465.7 361.6 470.4 361.3 475.0 361.9 C 478.7 362.3 482.1 365.0 483.6 368.4 C 484.7 371.5 484.1 374.7 484.0 377.9 C 480.7 378.1 477.5 378.6 474.2 378.0 C 472.4 377.1 471.3 375.2 470.0 373.8 C 462.5 372.1 454.7 372.5 447.1 373.4 C 445.2 373.6 442.9 374.0 442.0 376.0 C 440.3 379.7 440.6 384.0 440.8 388.1 C 441.0 390.9 441.4 394.3 444.0 395.9 C 447.2 397.2 450.7 396.8 454.0 396.9 C 458.7 396.8 463.6 397.3 468.2 396.2 C 470.6 395.0 472.6 393.0 473.7 390.6 C 477.3 390.6 480.9 390.6 484.5 390.6 C 484.8 393.6 485.3 396.7 484.8 399.8 C 484.2 402.2 482.5 404.1 481.1 406.2 C 479.4 406.7 477.6 407.3 475.9 407.9 C 465.0 409.3 453.9 408.3 442.9 408.4 C 436.4 408.7 429.9 404.3 428.1 398.0 C 426.4 392.1 426.9 386.0 426.9 380.0 C 426.8 375.0 428.2 370.1 430.8 365.9 L 431.7 365.8 C 432.0 365.5 432.4 364.8 432.7 364.5 Z" />
<path fill="#ffffff" stroke="#ffffff" stroke-width="0.09375" opacity="1.00" d=" M 217.5 362.6 C 221.1 362.7 224.7 362.7 228.4 362.7 C 231.4 373.4 228.3 384.7 230.3 395.6 C 239.9 397.3 249.8 396.5 259.5 396.5 C 260.2 398.6 261.1 400.7 261.1 403.0 C 260.9 405.2 260.2 407.3 259.6 409.4 C 245.5 409.3 231.5 409.0 217.4 409.4 C 216.5 406.4 215.9 403.2 215.9 400.1 C 215.8 391.0 216.1 382.0 215.9 373.0 C 215.8 369.4 216.4 365.9 217.5 362.6 Z" />
<path fill="#ffffff" stroke="#ffffff" stroke-width="0.09375" opacity="1.00" d=" M 337.1 363.0 C 340.1 362.7 343.0 362.5 346.0 362.6 C 357.0 362.7 368.0 362.6 379.0 362.6 C 382.7 362.5 386.2 363.2 389.7 364.2 C 392.4 368.3 394.1 373.0 393.8 378.0 C 394.1 383.5 390.3 387.8 389.1 393.0 C 389.7 393.1 391.0 393.4 391.7 393.5 C 393.1 398.5 393.2 403.7 392.7 408.8 C 388.8 409.0 384.4 410.4 380.9 408.1 C 379.0 405.2 379.6 401.2 377.6 398.3 C 374.7 396.7 371.2 397.3 368.0 397.1 C 362.1 397.4 356.1 396.5 350.3 398.2 C 349.6 401.6 349.0 405.0 348.4 408.5 C 344.7 408.7 340.9 408.8 337.2 408.8 C 336.3 405.3 335.9 401.7 335.9 398.0 C 336.1 389.0 336.0 380.0 335.9 370.9 C 335.9 368.2 336.4 365.6 337.1 363.0 M 351.5 374.5 C 351.1 374.9 350.3 375.6 349.9 376.0 C 349.9 378.9 350.1 381.8 350.5 384.6 C 356.9 386.0 363.5 385.3 370.0 385.5 C 373.6 385.7 376.9 384.5 380.0 382.9 C 379.9 380.5 380.0 378.1 379.3 375.8 C 377.6 373.7 374.5 373.9 372.1 373.7 C 365.2 373.7 358.4 374.2 351.5 374.5 Z" />
<path fill="#ffffff" stroke="#ffffff" stroke-width="0.09375" opacity="1.00" d=" M 89.0 365.9 C 93.6 364.8 98.2 363.7 103.0 363.7 C 113.1 363.6 123.4 363.2 133.3 365.7 C 136.6 369.8 138.7 375.1 137.6 380.4 C 134.5 380.6 131.4 381.2 128.4 380.5 C 125.3 379.1 123.4 375.7 119.8 375.4 C 112.3 374.5 104.7 375.3 97.3 376.3 C 93.3 382.1 94.7 389.4 95.2 395.9 C 95.9 396.7 96.7 397.6 97.5 398.4 C 106.5 399.5 115.8 400.5 124.5 397.6 C 125.1 396.2 125.8 394.7 126.4 393.3 C 130.3 393.0 134.1 392.9 138.0 393.2 C 138.8 398.2 139.0 404.2 134.8 407.8 C 130.7 411.1 125.0 410.5 120.1 410.7 C 110.8 410.4 101.4 411.6 92.3 409.9 C 88.2 409.2 85.5 406.0 83.0 403.0 C 81.4 393.6 80.2 383.9 82.5 374.5 C 83.2 370.7 86.1 368.2 89.0 365.9 Z" />
</svg>
