<?xml version="1.0" encoding="UTF-8" standalone="no"?>
<!-- Created with Inkscape (http://www.inkscape.org/) -->

<svg
   width="186.96426mm"
   height="42.765781mm"
   viewBox="0 0 186.96426 42.765781"
   version="1.1"
   id="svg1"
   inkscape:version="1.3.2 (091e20e, 2023-11-25, custom)"
   sodipodi:docname="lindbergh.svg"
   xmlns:inkscape="http://www.inkscape.org/namespaces/inkscape"
   xmlns:sodipodi="http://sodipodi.sourceforge.net/DTD/sodipodi-0.dtd"
   xmlns="http://www.w3.org/2000/svg"
   xmlns:svg="http://www.w3.org/2000/svg">
  <sodipodi:namedview
     id="namedview1"
     pagecolor="#505050"
     bordercolor="#eeeeee"
     borderopacity="1"
     inkscape:showpageshadow="0"
     inkscape:pageopacity="0"
     inkscape:pagecheckerboard="0"
     inkscape:deskcolor="#505050"
     inkscape:document-units="mm"
     inkscape:zoom="0.72426347"
     inkscape:cx="439.06674"
     inkscape:cy="34.517825"
     inkscape:window-width="1278"
     inkscape:window-height="1000"
     inkscape:window-x="-7"
     inkscape:window-y="0"
     inkscape:window-maximized="0"
     inkscape:current-layer="layer1" />
  <defs
     id="defs1" />
  <g
     inkscape:label="Camada 1"
     inkscape:groupmode="layer"
     id="layer1"
     transform="translate(-2.6458334,-170.48841)">
    <g
       id="g1"
       transform="translate(-30.015929,28.142577)"
       style="fill:#ffffff">
      <path
         d="m 84.93235,167.34583 h 10.888949 c 4.451321,0 8.072561,-3.62232 8.072561,-8.07255 0,-4.44914 -3.62124,-8.05006 -8.072561,-8.05006 h -2.838902 c -0.223444,0 -0.403516,-0.17845 -0.403516,-0.40242 0,-0.24594 0.178966,-0.42437 0.403516,-0.42437 h 10.867543 l 0.0225,-3.39944 H 92.982401 c -2.102685,0 -3.801852,1.69972 -3.801852,3.80186 0,2.12465 1.699167,3.84632 3.801852,3.84632 h 2.838905 c 2.549574,0 4.629754,2.08019 4.629754,4.62865 0,2.54959 -2.08018,4.6067 -4.629754,4.6067 H 84.932354 Z"
         id="path5"
         style="fill:#ffffff;fill-opacity:1;stroke-width:0.549004" />
      <path
         d="m 84.93235,163.09765 h 10.888949 c 2.124644,0 3.824913,-1.72223 3.824913,-3.82437 0,-2.1016 -1.699719,-3.82327 -3.824913,-3.82327 h -2.838902 c -2.549025,0 -4.606692,-2.10214 -4.606692,-4.65172 0,-2.54903 2.057667,-4.60558 4.606692,-4.60558 h 10.889493 l -0.0225,-3.44392 H 92.981295 c -4.449679,0 -8.050047,3.59983 -8.050047,8.07201 0,4.45024 3.600368,8.05006 8.050047,8.05006 h 2.817492 c 0.223444,0 0.402969,0.17948 0.402969,0.40242 0,0.22399 -0.179532,0.40242 -0.402969,0.40242 H 84.931252 Z"
         id="path7"
         style="fill:#ffffff;fill-opacity:1;stroke-width:0.549004" />
      <path
         d="m 112.32436,163.90247 c -1.87759,0 -3.42029,-1.49821 -3.42029,-3.42139 v -10.93506 c 0,-1.83312 1.5427,-3.37638 3.42029,-3.37638 h 11.62846 v -3.42085 h -11.62846 c -3.77824,0 -6.84224,3.06345 -6.84224,6.84226 v 10.89003 c 0,3.77934 3.06345,6.84279 6.84224,6.84279 h 11.584 v -3.42084 z"
         id="path9"
         style="fill:#ffffff;fill-opacity:1;stroke-width:0.549004" />
      <path
         d="m 109.73032,149.59049 c 0,-1.4307 1.16279,-2.61655 2.59404,-2.61655 h 11.62846 v 3.42195 h -10.01768 c -0.80593,0 -0.80593,0.80482 -0.80593,0.80482 h 8.36352 v 3.42141 h -11.76241 z"
         id="path11"
         style="fill:#ffffff;fill-opacity:1;stroke-width:0.549004" />
      <path
         d="m 112.32436,163.07567 c -1.43125,0 -2.59404,-1.16333 -2.59404,-2.59459 v -5.03217 h 11.76187 v 3.42139 h -8.36298 c 0,0.8054 0.80483,0.8054 0.80483,0.8054 h 9.97322 v 3.39887 z"
         id="path13"
         style="fill:#ffffff;fill-opacity:1;stroke-width:0.549004" />
      <path
         d="m 132.11431,163.90247 c -1.9001,0 -3.4439,-1.54378 -3.4439,-3.42139 v -10.89003 c 0,-1.87815 1.5438,-3.42141 3.42195,-3.42141 h 11.2705 v -3.42085 h -11.29302 c -3.77934,0 -6.84223,3.06345 -6.84223,6.84226 v 10.89003 c 0,3.77934 3.08486,6.84279 6.86475,6.84279 h 11.2705 v -16.1226 h -9.68278 v 3.42139 h 6.26139 v 9.27981 z"
         id="path15"
         style="fill:#ffffff;fill-opacity:1;stroke-width:0.549004" />
      <path
         d="m 129.47471,160.48108 c 0,1.43072 1.18638,2.61657 2.6171,2.61657 h 7.04372 v -7.67015 h -5.45601 v 3.44336 h 2.03516 v 0.80484 h -2.01211 c -0.44798,0 -0.80538,-0.37883 -0.80538,-0.80484 v -7.66959 c 0,0 0,-0.80538 0.80538,-0.80538 h 9.65975 v -3.42195 h -11.27051 c -1.43072,0 -2.61656,1.18529 -2.61656,2.61655 z"
         id="path17"
         style="fill:#ffffff;fill-opacity:1;stroke-width:0.549004" />
      <path
         d="m 153.93942,146.93057 c 0.15584,-0.44745 0.5589,-0.76037 1.05079,-0.76037 0.49192,0 0.89544,0.31347 1.0519,0.76037 l 5.456,16.18957 h -7.98196 v -3.80185 h 2.68352 l -1.2078,-3.60036 -3.93637,11.60594 h -4.02475 z"
         id="path19"
         style="fill:#ffffff;fill-opacity:1;stroke-width:0.549004" />
      <path
         d="m 162.6159,163.90247 h -9.10141 v 3.42085 h 13.84205 l -7.20073,-21.35516 c -0.62642,-2.07909 -2.70604,-3.62233 -5.16614,-3.62233 -2.45899,0 -4.53861,1.52075 -5.16503,3.62233 l -7.2688,21.35516 h 3.62287 l 7.04317,-20.77321 c 0.29097,-0.6934 0.96131,-1.1628 1.76614,-1.1628 0.78344,0 1.45487,0.4694 1.7453,1.1628 z"
         id="path21"
         style="fill:#ffffff;fill-opacity:1;stroke-width:0.549004" />
    </g>
    <g
       id="g2"
       style="fill:#ffffff">
      <path
         inkscape:connector-curvature="0"
         id="path388"
         style="fill:#ffffff;fill-opacity:1;fill-rule:nonzero;stroke:none;stroke-width:0.264583"
         d="m 5.7450048,200.02511 c -0.08286,0 -0.1589749,0.0494 -0.191254,0.12839 -1.5815759,3.75306 -2.5123139,6.39087 -2.5209896,6.41689 0,0 -0.2567649,0.78091 -0.2567649,0.78091 -0.023627,0.0667 -0.5188452,1.64566 0.5925476,3.17786 1.3127619,1.80751 4.2292692,2.725 8.6642441,2.725 0,0 8.455647,0 8.455647,0 0.06648,0 0.126219,-0.0308 0.165724,-0.0812 0,0 0.534736,-0.69083 0.534736,-0.69083 0.04913,-0.0631 0.05781,-0.14886 0.02363,-0.2204 -0.03611,-0.072 -0.109357,-0.11682 -0.189325,-0.11682 0,0 -6.964153,0 -6.964153,0 -0.04045,0 -4.3164655,-0.0903 -5.7352142,-2.08621 -0.5063226,-0.71106 -0.5872533,-1.59893 -0.2456948,-2.63782 0,0 0.082378,-0.25364 0.082378,-0.25364 0,0 0.1531991,-0.45717 0.1531991,-0.45717 0.7910327,-2.25844 2.4940149,-6.35426 2.5118379,-6.39425 0.02506,-0.0658 0.01929,-0.13875 -0.01929,-0.198 -0.03852,-0.0585 -0.105987,-0.0927 -0.174882,-0.0927 0,0 -4.8863699,0 -4.8863699,0 z" />
      <path
         inkscape:connector-curvature="0"
         id="path390"
         style="fill:#ffffff;fill-opacity:1;fill-rule:nonzero;stroke:none;stroke-width:0.264583"
         d="m 33.277407,200.02511 c 0,0 -5.614295,0 -5.614295,0 -0.05973,0 -0.116578,0.0257 -0.158012,0.0706 0,0 -0.609412,0.69107 -0.609412,0.69107 -0.05396,0.0624 -0.06649,0.15006 -0.03276,0.22497 0.03276,0.0752 0.107434,0.12236 0.191739,0.12236 0,0 0.879189,0 0.879189,0 0.118028,0 0.211489,0.0414 0.263038,0.11587 0.03903,0.0573 0.04001,0.11369 0.0294,0.13777 -0.528001,1.36937 -1.283381,3.38019 -1.878824,5.18675 -0.721656,2.18184 -1.417304,4.6997 -1.720318,5.82193 -0.09876,0.36854 0.159938,0.85775 0.683599,0.85775 0,0 5.535288,0 5.535288,0 0.06455,0 0.124296,-0.0284 0.162832,-0.0773 0,0 0.561237,-0.69107 0.561237,-0.69107 0.05155,-0.0631 0.06022,-0.1491 0.027,-0.22256 -0.03516,-0.072 -0.108874,-0.11827 -0.188844,-0.11827 0,0 -0.969761,0 -0.969761,0 -0.167646,0 -0.290013,-0.0342 -0.335296,-0.0932 -0.04336,-0.0588 -0.02125,-0.15657 -0.01302,-0.19559 0.348787,-1.27712 0.898456,-3.20941 1.54015,-5.15157 0.774647,-2.34467 1.685634,-4.70524 2.111018,-5.78556 0.148863,-0.37673 0.02313,-0.89389 -0.463926,-0.89389" />
      <path
         inkscape:connector-curvature="0"
         id="path392"
         style="fill:#ffffff;fill-opacity:1;fill-rule:nonzero;stroke:none;stroke-width:0.264583"
         d="m 40.178455,200.02511 c -0.454769,0 -0.807411,0.3524 -0.948079,0.71131 -0.435502,1.11548 -1.409115,3.64659 -2.132703,5.83806 -0.956268,2.8941 -1.869665,6.38197 -1.878333,6.41834 -0.01638,0.0607 -0.0028,0.12742 0.03761,0.18017 0.03951,0.0503 0.09972,0.0812 0.166685,0.0812 0,0 4.885409,0 4.885409,0 0.0949,0 0.177766,-0.0655 0.202814,-0.15825 0.0077,-0.0316 0.823788,-3.22362 1.86967,-6.39135 0.641207,-1.9441 1.370573,-3.88217 1.868702,-5.16579 0.04479,-0.11514 0.322768,-0.40468 0.712988,-0.40468 0,0 2.86062,0 2.86062,0 0.04721,0 0.09297,-0.0161 0.132,-0.0453 0,0 0.85462,-0.69155 0.85462,-0.69155 0.06889,-0.0554 0.09635,-0.14862 0.066,-0.23245 -0.0294,-0.0833 -0.108395,-0.1397 -0.197999,-0.1397 0,0 -8.499969,0 -8.499969,0 z" />
      <path
         inkscape:connector-curvature="0"
         id="path394"
         style="fill:#ffffff;fill-opacity:1;fill-rule:nonzero;stroke:none;stroke-width:0.264583"
         d="m 56.230312,200.02511 c -0.08672,0 -0.162827,0.0523 -0.194624,0.13128 -0.01445,0.0361 -1.405261,3.52278 -2.361534,6.41809 -0.594476,1.80101 -1.165828,3.80629 -1.542555,5.17085 -0.03469,0.12573 -0.244726,0.39961 -0.646509,0.39961 0,0 -3.186279,0 -3.186279,0 -0.0482,0 -0.09443,0.0166 -0.132004,0.0462 0,0 -0.582914,0.68962 -0.582914,0.68962 -0.06841,0.0564 -0.09539,0.15103 -0.06745,0.23293 0.03082,0.0843 0.109844,0.14043 0.198482,0.14043 0,0 8.600176,0 8.600176,0 0.459102,0 0.826677,-0.36685 0.918209,-0.71564 0.280858,-1.05575 0.937962,-3.45124 1.724658,-5.83397 1.046358,-3.16509 2.33985,-6.35932 2.352381,-6.39136 0.02601,-0.0646 0.01879,-0.13705 -0.01974,-0.19631 -0.03951,-0.0576 -0.104058,-0.0918 -0.174395,-0.0918 0,0 -4.885893,0 -4.885893,0 z" />
      <path
         inkscape:connector-curvature="0"
         id="path396"
         style="fill:#ffffff;fill-opacity:1;fill-rule:nonzero;stroke:none;stroke-width:0.264583"
         d="m 171.55269,200.02511 c -0.0862,0 -0.16377,0.0523 -0.1951,0.13128 -0.0143,0.0361 -1.40381,3.52278 -2.36059,6.41809 -0.95673,2.8941 -1.86915,6.38197 -1.87882,6.41834 -0.0153,0.0607 -0.005,0.12742 0.0375,0.18017 0.0395,0.0503 0.10068,0.0812 0.1657,0.0812 0,0 4.88738,0 4.88738,0 0.0939,0 0.17774,-0.0655 0.20087,-0.15825 0.009,-0.0316 0.8262,-3.22362 1.87014,-6.39135 0,0 0.2987,-0.87655 0.37433,-1.09767 0.28468,0 6.49684,-0.002 6.49684,-0.002 0.0488,0 0.0949,-0.0152 0.13152,-0.0448 0,0 0.85511,-0.69058 0.85511,-0.69058 0.0506,-0.0414 0.0785,-0.10117 0.0785,-0.16332 0,-0.0243 -0.005,-0.048 -0.0123,-0.0691 -0.0301,-0.0853 -0.10839,-0.14067 -0.19753,-0.14067 0,0 -6.96076,0 -6.96076,0 0.81944,-2.28638 1.5787,-4.16495 1.58832,-4.18374 0.0104,-0.0256 0.0148,-0.0523 0.0148,-0.0778 0,-0.0414 -0.0128,-0.0819 -0.037,-0.11852 -0.0365,-0.0575 -0.10413,-0.0917 -0.17443,-0.0917 0,0 -4.88446,0 -4.88446,0 z" />
      <path
         inkscape:connector-curvature="0"
         id="path398"
         style="fill:#ffffff;fill-opacity:1;fill-rule:nonzero;stroke:none;stroke-width:0.264583"
         d="m 184.51511,200.02511 c -0.0848,0 -0.16383,0.0523 -0.19466,0.13128 -0.0153,0.0361 -1.40667,3.52278 -2.36153,6.41809 -0.95578,2.8941 -1.87013,6.38197 -1.87832,6.41834 -0.0168,0.0607 0,0.12742 0.036,0.18017 0.0405,0.0503 0.10118,0.0812 0.16669,0.0812 0,0 4.88589,0 4.88589,0 0.0935,0 0.17922,-0.0655 0.20236,-0.15825 0.009,-0.0316 0.82378,-3.22362 1.87014,-6.39135 1.04636,-3.16509 2.33937,-6.35933 2.35284,-6.39136 0.0262,-0.0646 0.0193,-0.13802 -0.0202,-0.19631 -0.0404,-0.0576 -0.1031,-0.0918 -0.17439,-0.0918 0,0 -4.8849,0 -4.8849,0 z" />
      <path
         inkscape:connector-curvature="0"
         id="path400"
         style="fill:#ffffff;fill-opacity:1;fill-rule:nonzero;stroke:none;stroke-width:0.264583"
         d="m 65.028965,200.02511 c -0.08575,0 -0.161385,0.0523 -0.195106,0.13128 -0.01302,0.0361 -1.403332,3.52278 -2.360089,6.41809 -0.957236,2.8941 -1.869181,6.38197 -1.878333,6.41834 -0.01685,0.0607 -0.0019,0.12742 0.03516,0.18017 0.04045,0.0503 0.102132,0.0812 0.167167,0.0812 0,0 14.23711,0 14.23711,0 3.58758,0 5.171569,-3.47484 5.187466,-3.50929 0.0035,-0.007 0.632055,-1.29157 1.208227,-3.04031 0.317471,-0.95893 0.835351,-3.1227 0.857512,-3.21327 0.220157,-0.97386 0.08864,-1.76874 -0.389255,-2.36514 -0.868592,-1.08875 -2.561455,-1.10104 -2.632271,-1.10104 0,0 -14.237591,0 -14.237591,0 z m 10.648569,1.10898 c 0.67637,0 1.140777,0.16886 1.382136,0.5003 0.346858,0.48007 0.126698,1.17354 0.126698,1.18101 -0.01151,0.039 -0.373354,1.74032 -1.038651,3.76053 -0.666258,2.01563 -1.357567,3.50399 -1.365755,3.51917 -0.679265,2.05417 -2.744523,2.0508 -2.831235,2.04984 0,0 -5.811814,0 -5.811814,0 0.325663,-1.2063 0.914361,-3.30672 1.617713,-5.44038 0.728885,-2.20208 1.561825,-4.3856 2.027195,-5.57047 0,0 5.893713,0 5.893713,0 z" />
      <path
         inkscape:connector-curvature="0"
         id="path402"
         style="fill:#ffffff;fill-opacity:1;fill-rule:nonzero;stroke:none;stroke-width:0.264583"
         d="m 128.1255,200.02511 c -0.0858,0 -0.16383,0.0523 -0.1956,0.13128 -0.0143,0.0361 -1.40672,3.52278 -2.36153,6.41809 -0.95677,2.8941 -1.8692,6.38197 -1.87788,6.41834 -0.0163,0.0607 -0.005,0.12742 0.0365,0.18017 0.0395,0.0503 0.10217,0.0812 0.1667,0.0812 0,0 4.88495,0 4.88495,0 0.0963,0 0.18016,-0.0655 0.20231,-0.15825 0.0103,-0.0316 0.82526,-3.22362 1.87162,-6.39135 0.726,-2.20208 1.56182,-4.3856 2.02573,-5.57047 0,0 6.10279,0 6.10279,0 0.36179,0 0.62532,0.10262 0.78333,0.30303 0.32277,0.40731 0.16284,1.10802 0.15993,1.11524 -0.005,0.0248 -0.052,0.37552 -0.15609,0.68818 -0.10117,0.3129 -0.25435,0.57088 -0.25534,0.57328 -0.79102,1.53365 -2.1823,1.55629 -2.24012,1.55629 0,0 -3.28164,0 -3.28164,0 -0.44127,0 -0.61038,0.19848 -0.67446,0.36613 -0.0684,0.17656 -0.0404,0.44538 0.0559,0.53329 -0.0242,-0.0207 -0.0424,-0.0455 -0.0525,-0.0759 0,0 2.5181,6.10255 2.5181,6.10255 0.0335,0.0633 0.55789,0.95795 2.00022,0.95795 0,0 4.36659,0 4.36659,0 0.052,0 0.10118,-0.0195 0.13921,-0.0532 0,0 0.78141,-0.69059 0.78141,-0.69059 0.066,-0.0583 0.0891,-0.14886 0.0563,-0.22979 -0.0301,-0.0824 -0.1069,-0.13561 -0.19362,-0.13561 0,0 -0.92496,0 -0.92496,0 -0.5049,0 -0.69276,-0.32373 -0.7005,-0.33698 0,0 -2.11196,-5.08366 -2.11196,-5.08366 -0.005,-0.0142 -0.0251,-0.11345 0.0163,-0.16813 0.0341,-0.048 0.13102,-0.0754 0.26402,-0.0754 0,0 1.76512,0 1.76512,0 2.28106,0 3.27972,-1.93446 3.32022,-2.01732 0.0123,-0.0212 0.24083,-0.49668 0.41236,-1.01962 0.16185,-0.48946 0.23605,-0.9329 0.2399,-0.95121 0.0978,-0.64506 -0.0326,-1.1839 -0.38923,-1.59917 -0.73611,-0.85896 -2.16405,-0.86835 -2.22379,-0.86835 0,0 -14.53046,0 -14.53046,0 z" />
      <path
         inkscape:connector-curvature="0"
         id="path404"
         style="fill:#ffffff;fill-opacity:1;fill-rule:nonzero;stroke:none;stroke-width:0.264583"
         d="m 87.342587,200.02511 c -0.08527,0 -0.162833,0.0523 -0.194625,0.13128 -0.01302,0.0361 -1.404779,3.52278 -2.362496,6.41809 -0.954826,2.8941 -1.867257,6.38197 -1.877854,6.41834 -0.0154,0.0607 0,0.12742 0.03757,0.18017 0.03951,0.0503 0.101169,0.0812 0.166682,0.0812 0,0 4.886375,0 4.886375,0 0.09394,0 0.178732,-0.0655 0.201854,-0.15825 0.0077,-0.0316 0.824269,-3.22362 1.870146,-6.39135 0.730335,-2.21099 1.563756,-4.38898 2.026235,-5.57047 0,0 4.398364,0 4.398364,0 0.370946,0 0.634945,0.0952 0.784283,0.28135 0.231722,0.2876 0.1426,0.72166 0.1426,0.72551 -0.0039,0.0178 -0.07756,0.4938 -0.235577,0.97193 -0.160422,0.48247 -0.436462,1.06539 -0.441759,1.07189 -0.60026,1.16366 -1.738635,1.18534 -1.787289,1.18534 0,0 -3.080298,0 -3.080298,0 -0.07419,0 -0.142116,0.039 -0.180655,0.1031 -0.0371,0.0633 -0.04045,0.14211 -0.0035,0.20691 0,0 0.375764,0.69106 0.375764,0.69106 0.03757,0.0665 0.107907,0.1096 0.183544,0.1096 0,0 3.780284,0 3.780284,0 0.01061,0 1.152819,0.009 1.662507,0.60604 0.209079,0.24617 0.280863,0.55666 0.220162,0.94663 -0.0019,0.008 -0.103094,0.68674 -0.272671,1.1998 -0.171503,0.5186 -0.545822,1.27832 -0.549193,1.28651 -0.03133,0.0706 -0.738039,1.56833 -3.417522,1.56833 0,0 -2.066216,0.0568 -2.066216,0.0568 -0.07612,0.002 -0.145011,0.0462 -0.180179,0.1149 -0.03516,0.0689 -0.02841,0.1515 0.01445,0.2151 0,0 0.488011,0.68962 0.488011,0.68962 0.03952,0.0556 0.103095,0.0896 0.172466,0.0896 0,0 6.752188,0 6.752188,0 2.258432,0 3.322132,-2.05995 3.367422,-2.14811 0.0212,-0.0475 0.45959,-1.00348 0.63109,-1.52546 0.28134,-0.84595 0.39022,-1.55292 0.39214,-1.58206 0.003,-0.004 0.005,-0.033 0.005,-0.0814 0,-0.36589 -0.15031,-1.84726 -2.12452,-2.3584 0.58581,-0.52293 0.84114,-1.0755 0.85462,-1.10368 0.009,-0.0193 0.26207,-0.56629 0.41912,-1.03745 0.1561,-0.47741 0.2245,-0.90809 0.22739,-0.92736 0.0251,-0.14742 0.0366,-0.2905 0.0366,-0.42659 0,-0.45284 -0.13536,-0.8445 -0.40563,-1.16438 -0.73322,-0.86475 -2.18521,-0.87414 -2.24398,-0.87414 0,0 -12.672879,0 -12.672879,0 z" />
      <path
         inkscape:connector-curvature="0"
         id="path406"
         style="fill:#ffffff;fill-opacity:1;fill-rule:nonzero;stroke:none;stroke-width:0.264583"
         d="m 108.86807,200.02511 c -0.0858,0 -0.16187,0.0523 -0.19463,0.13321 -0.0154,0.0376 -1.49872,3.82821 -2.85869,7.94378 -0.0289,0.0894 -0.67156,2.15342 0.42972,3.6625 0.72165,0.98855 2.00889,1.48956 3.83086,1.48956 0,0 8.84682,0 8.84682,0 0.0646,0 0.12624,-0.0308 0.16571,-0.0848 0,0 0.51935,-0.69011 0.51935,-0.69011 0.0493,-0.0626 0.0539,-0.14789 0.0193,-0.21943 -0.0345,-0.0701 -0.10789,-0.1149 -0.185,-0.1149 0,0 -6.03725,0 -6.03725,0 -0.0154,0 -1.4886,-0.01 -2.2011,-0.99458 -0.26256,-0.36154 -0.39456,-0.81342 -0.39456,-1.34985 0,-0.46055 0.0973,-0.98349 0.28905,-1.56761 0.006,-0.0147 0.33289,-1.08128 0.86329,-2.62601 0,0 8.9056,0 8.9056,0 0.0578,0 0.11272,-0.0226 0.15125,-0.0641 0,0 0.66967,-0.69107 0.66967,-0.69107 0.0375,-0.039 0.0587,-0.0913 0.0587,-0.14501 0,-0.0282 -0.005,-0.0564 -0.0153,-0.0819 -0.0335,-0.0776 -0.1108,-0.12791 -0.19367,-0.12791 0,0 -9.18598,0 -9.18598,0 0.41911,-1.18197 0.84305,-2.31143 1.26507,-3.36285 0,0 9.51262,0 9.51262,0 0.0583,0 0.11174,-0.0226 0.15219,-0.0626 0,0 0.67061,-0.69155 0.67061,-0.69155 0.037,-0.039 0.0588,-0.0923 0.0588,-0.14452 0,-0.0292 -0.006,-0.0573 -0.0163,-0.0819 -0.0355,-0.079 -0.10986,-0.12839 -0.19367,-0.12839 0,0 -14.93229,0 -14.93229,0 z" />
      <path
         inkscape:connector-curvature="0"
         id="path408"
         style="fill:#ffffff;fill-opacity:1;fill-rule:nonzero;stroke:none;stroke-width:0.264583"
         d="m 151.2542,200.02511 c -0.58625,0 -1.34116,0.34734 -1.58974,0.92761 -0.74238,1.74465 -2.57399,6.27381 -3.53605,10.64953 -0.0473,0.21053 0.0306,0.49909 0.1956,0.73442 0.19846,0.2787 0.49716,0.45695 0.84208,0.49982 1.98868,0.25147 10.64569,0.75682 15.64623,0.0221 0.38828,-0.0556 1.27807,-0.49716 1.5262,-1.09863 0.41236,-0.99986 1.20531,-2.98707 1.88988,-5.05546 0.0202,-0.0626 0.009,-0.1332 -0.0306,-0.18788 -0.0395,-0.0537 -0.10212,-0.0857 -0.1696,-0.0857 0,0 -8.51488,0 -8.51488,0 -0.0795,0 -0.14888,0.0429 -0.18593,0.11249 -0.035,0.0689 -0.0311,0.15367 0.0148,0.2175 0,0 0.48561,0.69011 0.48561,0.69011 0.0395,0.0556 0.10404,0.0886 0.17054,0.0886 0,0 1.69575,0 1.69575,0 0.16477,0 0.2433,0.0785 0.27655,0.12646 0.0414,0.0597 0.0464,0.11538 0.0404,0.1385 -0.31601,0.90039 -0.81608,2.2688 -1.4154,3.67526 -0.14642,0.27532 -0.41621,0.45718 -0.7486,0.4962 -1.27279,0.14597 -3.72538,0.33939 -5.84844,-0.004 -0.1474,-0.0366 -0.26496,-0.11056 -0.32085,-0.2086 -0.0464,-0.079 -0.0474,-0.16379 -0.0345,-0.21125 1.31324,-4.71559 1.40574,-4.99621 3.31055,-10.01361 0.0335,-0.0889 0.28618,-0.40468 0.70628,-0.40468 0,0 10.50016,0 10.50016,0 0.054,0 0.10601,-0.0193 0.14355,-0.0566 0,0 0.73133,-0.69179 0.73133,-0.69179 0.0626,-0.0585 0.0819,-0.14838 0.0501,-0.22835 -0.0306,-0.08 -0.10887,-0.13224 -0.19268,-0.13224 0,0 -15.63853,0 -15.63853,0 z" />
      <path
         inkscape:connector-curvature="0"
         id="path410"
         style="fill:#ffffff;fill-opacity:1;fill-rule:nonzero;stroke:none;stroke-width:0.264583"
         d="m 51.487982,211.17253 c 0,0 -1.659626,-8.51996 -1.659626,-8.51996 -0.0067,-0.039 -0.181618,-0.94375 -1.398992,-0.94375 0,0 -3.270594,0 -3.270594,0 0,0 -0.274595,0.0226 -0.274595,0.27532 0.261107,1.51101 1.471263,8.51949 1.471263,8.51949 0.01254,0.0561 0.256289,0.95169 1.311318,0.95169 0,0 3.608294,0 3.608294,0 0.212932,0 0.212932,-0.28279 0.212932,-0.28279" />
    </g>
  </g>
</svg>
