<?xml version="1.0" encoding="utf-8"?>
<svg viewBox="0 0 816 96" style="enable-background:new 0 0 816 96" xmlns="http://www.w3.org/2000/svg">
  <style>
    .st2{fill:#222}
  </style>
  <path style="fill: rgb(255, 255, 255);" d="M 576 78 L 558 96 L 258 96 L 240 78 L 222 96 L 0 96 L 0 0 L 48 0 L 72 24 L 72 60 L 96 60 L 96 18 L 114 0 L 174.1 0 L 192 18 L 192.1 0 L 366 0 L 384 18 L 384 0 L 480 0 L 480 18 L 498 0 L 576 0 L 576 78 Z M 36 72 L 36 12 L 12 12 L 12 84 L 84 84 L 84 72 L 36 72 Z M 372 36 L 372 24 L 360 12 L 300 12 L 300 84 L 324 84 L 324 54 L 354 84 L 372 84 L 372 72 L 348 48 L 360 48 L 372 36 Z M 348 36 L 324 36 L 324 24 L 348 24 L 348 36 Z M 468 24 L 468 12 L 396 12 L 396 84 L 468 84 L 468 72 L 420 72 L 420 48 L 444 48 L 444 36 L 420 36 L 420 24 L 468 24 Z M 564 24 L 564 12 L 504 12 L 492 24 L 492 36 L 504 48 L 540 48 L 540 72 L 492 72 L 492 84 L 552 84 L 564 72 L 564 48 L 552 36 L 516 36 L 516 24 L 564 24 Z M 168 12 L 120 12 L 108 24 L 108 72 L 120 84 L 168 84 L 180 72 L 180 24 L 168 12 Z M 132 72 L 132 24 L 156 24 L 156 72 L 132 72 Z M 252 12 L 252 47.9 L 240.1 35.9 L 228 48 L 228 12 L 204 12 L 204 84 L 216 84 L 240 60 L 264 84 L 276 84 L 276 12 L 252 12 Z"/>
  <path style="fill: rgb(255, 255, 255);" d="M 816 30 L 804 42 L 816 54 L 816 96 L 624 96 L 624 0 L 816 0 L 816 30 Z M 684 12 L 684 36 L 660 12 L 636 12 L 636 84 L 660 84 L 660 48 L 684 72 L 684 84 L 708 84 L 708 12 L 684 12 Z M 804 12 L 780 12 L 768.1 24 L 756 12 L 732 12 L 732 24 L 750 42 L 732 60 L 732 84 L 756 84 L 756 65.9 L 768 54 L 780 65.9 L 780 84 L 804 84 L 804 60 L 786 42 L 804 24 L 804 12 Z"/>
</svg>