<?xml version="1.0" encoding="utf-8"?>
<svg version="1.1" viewBox="0 0 3840 1002.2" xmlns="http://www.w3.org/2000/svg">
  <path class="st1" d="M 554.1 159.9 C 572.3 137.6 586.5 113.3 595.9 86.3 C 606 56.7 609.4 28.3 606 0 C 581 1.3 554.7 8.8 527 22.9 C 499.3 37 477.1 54.6 458.8 75.5 C 440.5 96.4 427.1 120 417 145.7 C 405.5 176.1 401.5 203.7 405.5 230.7 C 432.5 232.7 459.5 226.7 487.8 212.5 C 513.6 199.8 535.9 182.2 554.1 159.9 Z" style="fill: rgb(255, 255, 255);"/>
  <path class="st1" d="M 263.9 1002.2 C 277.4 1001.5 291.6 998.8 305.1 994.8 C 311.8 992.8 323.3 988.1 340.9 980.6 C 355.7 974.5 367.9 969.8 378.7 967.1 C 394.2 963.1 410.4 961 427.3 961 C 444.2 961 460.4 963 475.9 967.1 C 485.3 969.8 498.2 974.5 513.7 981.3 C 529.2 988 541.4 992.1 549.5 994.8 C 563.7 998.8 577.8 1000.9 592.7 1000.2 C 614.3 1000.2 634.5 994.1 653.4 982 C 669.6 971.2 685.8 956.4 702.7 936.1 C 713.5 923.3 727.7 903.7 745.9 877.4 C 765.5 847.7 783 816 797.9 780.9 C 803.3 768.1 809.4 752.6 814.8 735 C 804 731 792.5 724.9 779.7 716.1 C 753.4 698.6 731.8 677 715.6 652 C 692.7 617.6 681.2 577.8 680.5 532.5 C 680.5 495.4 689.3 459.6 707.5 427.2 C 720.3 404.3 737.9 383.3 758.8 364.4 C 768.2 355.6 778.4 348.2 789.2 341.5 C 763.6 303.7 729.1 276.7 686.6 259.8 C 662.3 250.4 635.3 244.3 605.6 242.3 C 590.1 241 573.9 241.6 557.7 244.3 C 544.2 246.3 529.4 250.4 513.8 255.1 C 503.7 259.1 490.9 263.9 474.7 269.9 C 458.5 276.6 447 280.7 441 282.7 C 430.2 286.1 420.8 288.1 414 288.1 C 405.2 288.1 393.8 286.1 380.3 281.4 C 376.3 280.1 363.4 274.7 340.5 265.9 C 323 259.2 308.1 253.8 296 250.4 C 279.1 246.4 263.6 244.3 248.8 244.3 C 206.3 245 167.1 256.4 130 279.4 C 92.9 301.7 63.9 332 42.3 370.5 C 14.2 418.4 0 475.8 0 541.3 C 0 600 10.1 660 31 722.8 C 49.9 780.2 74.9 830.8 105.2 874.6 C 122.7 900.9 137.6 921.2 149.7 935.3 C 167.2 956.9 184.8 972.4 201.7 983.2 C 222 996.1 242.3 1002.2 263.9 1002.2 Z" style="fill: rgb(255, 255, 255);"/>
  <defs>
    <path id="SVGID_37_" d="M263.9,1002.2c13.5-0.7,27.7-3.4,41.2-7.4c6.7-2,18.2-6.7,35.8-14.2c14.8-6.1,27-10.8,37.8-13.5 c15.5-4,31.7-6.1,48.6-6.1c16.9,0,33.1,2,48.6,6.1c9.4,2.7,22.3,7.4,37.8,14.2c15.5,6.7,27.7,10.8,35.8,13.5 c14.2,4,28.3,6.1,43.2,5.4c21.6,0,41.8-6.1,60.7-18.2c16.2-10.8,32.4-25.6,49.3-45.9c10.8-12.8,25-32.4,43.2-58.7 c19.6-29.7,37.1-61.4,52-96.5c5.4-12.8,11.5-28.3,16.9-45.9c-10.8-4-22.3-10.1-35.1-18.9c-26.3-17.5-47.9-39.1-64.1-64.1 c-22.9-34.4-34.4-74.2-35.1-119.5c0-37.1,8.8-72.9,27-105.3c12.8-22.9,30.4-43.9,51.3-62.8c9.4-8.8,19.6-16.2,30.4-22.9 c-25.6-37.8-60.1-64.8-102.6-81.7c-24.3-9.4-51.3-15.5-81-17.5c-15.5-1.3-31.7-0.7-47.9,2c-13.5,2-28.3,6.1-43.9,10.8 c-10.1,4-22.9,8.8-39.1,14.8c-16.2,6.7-27.7,10.8-33.7,12.8c-10.8,3.4-20.2,5.4-27,5.4c-8.8,0-20.2-2-33.7-6.7 c-4-1.3-16.9-6.7-39.8-15.5c-17.5-6.7-32.4-12.1-44.5-15.5c-16.9-4-32.4-6.1-47.2-6.1c-42.5,0.7-81.7,12.1-118.8,35.1 c-37.1,22.3-66.1,52.6-87.7,91.1C14.2,418.4,0,475.8,0,541.3C0,600,10.1,660,31,722.8c18.9,57.4,43.9,108,74.2,151.8 c17.5,26.3,32.4,46.6,44.5,60.7c17.5,21.6,35.1,37.1,52,47.9C222,996.1,242.3,1002.2,263.9,1002.2z"/>
  </defs>
  <path d="M 263.9 1002.2 C 277.4 1001.5 291.6 998.8 305.1 994.8 C 311.8 992.8 323.3 988.1 340.9 980.6 C 355.7 974.5 367.9 969.8 378.7 967.1 C 394.2 963.1 410.4 961 427.3 961 C 444.2 961 460.4 963 475.9 967.1 C 485.3 969.8 498.2 974.5 513.7 981.3 C 529.2 988 541.4 992.1 549.5 994.8 C 563.7 998.8 577.8 1000.9 592.7 1000.2 C 614.3 1000.2 634.5 994.1 653.4 982 C 669.6 971.2 685.8 956.4 702.7 936.1 C 713.5 923.3 727.7 903.7 745.9 877.4 C 765.5 847.7 783 816 797.9 780.9 C 803.3 768.1 809.4 752.6 814.8 735 C 804 731 792.5 724.9 779.7 716.1 C 753.4 698.6 731.8 677 715.6 652 C 692.7 617.6 681.2 577.8 680.5 532.5 C 680.5 495.4 689.3 459.6 707.5 427.2 C 720.3 404.3 737.9 383.3 758.8 364.4 C 768.2 355.6 778.4 348.2 789.2 341.5 C 763.6 303.7 729.1 276.7 686.6 259.8 C 662.3 250.4 635.3 244.3 605.6 242.3 C 590.1 241 573.9 241.6 557.7 244.3 C 544.2 246.3 529.4 250.4 513.8 255.1 C 503.7 259.1 490.9 263.9 474.7 269.9 C 458.5 276.6 447 280.7 441 282.7 C 430.2 286.1 420.8 288.1 414 288.1 C 405.2 288.1 393.8 286.1 380.3 281.4 C 376.3 280.1 363.4 274.7 340.5 265.9 C 323 259.2 308.1 253.8 296 250.4 C 279.1 246.4 263.6 244.3 248.8 244.3 C 206.3 245 167.1 256.4 130 279.4 C 92.9 301.7 63.9 332 42.3 370.5 C 14.2 418.4 0 475.8 0 541.3 C 0 600 10.1 660 31 722.8 C 49.9 780.2 74.9 830.8 105.2 874.6 C 122.7 900.9 137.6 921.2 149.7 935.3 C 167.2 956.9 184.8 972.4 201.7 983.2 C 222 996.1 242.3 1002.2 263.9 1002.2 Z" style="overflow: visible; fill: rgb(255, 255, 255);"/>
  <defs>
    <path id="SVGID_39_" d="M263.9,1002.2c13.5-0.7,27.7-3.4,41.2-7.4c6.7-2,18.2-6.7,35.8-14.2c14.8-6.1,27-10.8,37.8-13.5 c15.5-4,31.7-6.1,48.6-6.1c16.9,0,33.1,2,48.6,6.1c9.4,2.7,22.3,7.4,37.8,14.2c15.5,6.7,27.7,10.8,35.8,13.5 c14.2,4,28.3,6.1,43.2,5.4c21.6,0,41.8-6.1,60.7-18.2c16.2-10.8,32.4-25.6,49.3-45.9c10.8-12.8,25-32.4,43.2-58.7 c19.6-29.7,37.1-61.4,52-96.5c5.4-12.8,11.5-28.3,16.9-45.9c-10.8-4-22.3-10.1-35.1-18.9c-26.3-17.5-47.9-39.1-64.1-64.1 c-22.9-34.4-34.4-74.2-35.1-119.5c0-37.1,8.8-72.9,27-105.3c12.8-22.9,30.4-43.9,51.3-62.8c9.4-8.8,19.6-16.2,30.4-22.9 c-25.6-37.8-60.1-64.8-102.6-81.7c-24.3-9.4-51.3-15.5-81-17.5c-15.5-1.3-31.7-0.7-47.9,2c-13.5,2-28.3,6.1-43.9,10.8 c-10.1,4-22.9,8.8-39.1,14.8c-16.2,6.7-27.7,10.8-33.7,12.8c-10.8,3.4-20.2,5.4-27,5.4c-8.8,0-20.2-2-33.7-6.7 c-4-1.3-16.9-6.7-39.8-15.5c-17.5-6.7-32.4-12.1-44.5-15.5c-16.9-4-32.4-6.1-47.2-6.1c-42.5,0.7-81.7,12.1-118.8,35.1 c-37.1,22.3-66.1,52.6-87.7,91.1C14.2,418.4,0,475.8,0,541.3C0,600,10.1,660,31,722.8c18.9,57.4,43.9,108,74.2,151.8 c17.5,26.3,32.4,46.6,44.5,60.7c17.5,21.6,35.1,37.1,52,47.9C222,996.1,242.3,1002.2,263.9,1002.2z"/>
  </defs>
  <path d="M 263.9 1002.2 C 277.4 1001.5 291.6 998.8 305.1 994.8 C 311.8 992.8 323.3 988.1 340.9 980.6 C 355.7 974.5 367.9 969.8 378.7 967.1 C 394.2 963.1 410.4 961 427.3 961 C 444.2 961 460.4 963 475.9 967.1 C 485.3 969.8 498.2 974.5 513.7 981.3 C 529.2 988 541.4 992.1 549.5 994.8 C 563.7 998.8 577.8 1000.9 592.7 1000.2 C 614.3 1000.2 634.5 994.1 653.4 982 C 669.6 971.2 685.8 956.4 702.7 936.1 C 713.5 923.3 727.7 903.7 745.9 877.4 C 765.5 847.7 783 816 797.9 780.9 C 803.3 768.1 809.4 752.6 814.8 735 C 804 731 792.5 724.9 779.7 716.1 C 753.4 698.6 731.8 677 715.6 652 C 692.7 617.6 681.2 577.8 680.5 532.5 C 680.5 495.4 689.3 459.6 707.5 427.2 C 720.3 404.3 737.9 383.3 758.8 364.4 C 768.2 355.6 778.4 348.2 789.2 341.5 C 763.6 303.7 729.1 276.7 686.6 259.8 C 662.3 250.4 635.3 244.3 605.6 242.3 C 590.1 241 573.9 241.6 557.7 244.3 C 544.2 246.3 529.4 250.4 513.8 255.1 C 503.7 259.1 490.9 263.9 474.7 269.9 C 458.5 276.6 447 280.7 441 282.7 C 430.2 286.1 420.8 288.1 414 288.1 C 405.2 288.1 393.8 286.1 380.3 281.4 C 376.3 280.1 363.4 274.7 340.5 265.9 C 323 259.2 308.1 253.8 296 250.4 C 279.1 246.4 263.6 244.3 248.8 244.3 C 206.3 245 167.1 256.4 130 279.4 C 92.9 301.7 63.9 332 42.3 370.5 C 14.2 418.4 0 475.8 0 541.3 C 0 600 10.1 660 31 722.8 C 49.9 780.2 74.9 830.8 105.2 874.6 C 122.7 900.9 137.6 921.2 149.7 935.3 C 167.2 956.9 184.8 972.4 201.7 983.2 C 222 996.1 242.3 1002.2 263.9 1002.2 Z" style="overflow: visible; fill: rgb(255, 255, 255);"/>
  <defs>
    <path id="SVGID_41_" d="M263.9,1002.2c13.5-0.7,27.7-3.4,41.2-7.4c6.7-2,18.2-6.7,35.8-14.2c14.8-6.1,27-10.8,37.8-13.5 c15.5-4,31.7-6.1,48.6-6.1c16.9,0,33.1,2,48.6,6.1c9.4,2.7,22.3,7.4,37.8,14.2c15.5,6.7,27.7,10.8,35.8,13.5 c14.2,4,28.3,6.1,43.2,5.4c21.6,0,41.8-6.1,60.7-18.2c16.2-10.8,32.4-25.6,49.3-45.9c10.8-12.8,25-32.4,43.2-58.7 c19.6-29.7,37.1-61.4,52-96.5c5.4-12.8,11.5-28.3,16.9-45.9c-10.8-4-22.3-10.1-35.1-18.9c-26.3-17.5-47.9-39.1-64.1-64.1 c-22.9-34.4-34.4-74.2-35.1-119.5c0-37.1,8.8-72.9,27-105.3c12.8-22.9,30.4-43.9,51.3-62.8c9.4-8.8,19.6-16.2,30.4-22.9 c-25.6-37.8-60.1-64.8-102.6-81.7c-24.3-9.4-51.3-15.5-81-17.5c-15.5-1.3-31.7-0.7-47.9,2c-13.5,2-28.3,6.1-43.9,10.8 c-10.1,4-22.9,8.8-39.1,14.8c-16.2,6.7-27.7,10.8-33.7,12.8c-10.8,3.4-20.2,5.4-27,5.4c-8.8,0-20.2-2-33.7-6.7 c-4-1.3-16.9-6.7-39.8-15.5c-17.5-6.7-32.4-12.1-44.5-15.5c-16.9-4-32.4-6.1-47.2-6.1c-42.5,0.7-81.7,12.1-118.8,35.1 c-37.1,22.3-66.1,52.6-87.7,91.1C14.2,418.4,0,475.8,0,541.3C0,600,10.1,660,31,722.8c18.9,57.4,43.9,108,74.2,151.8 c17.5,26.3,32.4,46.6,44.5,60.7c17.5,21.6,35.1,37.1,52,47.9C222,996.1,242.3,1002.2,263.9,1002.2z"/>
  </defs>
  <path d="M 263.9 1002.2 C 277.4 1001.5 291.6 998.8 305.1 994.8 C 311.8 992.8 323.3 988.1 340.9 980.6 C 355.7 974.5 367.9 969.8 378.7 967.1 C 394.2 963.1 410.4 961 427.3 961 C 444.2 961 460.4 963 475.9 967.1 C 485.3 969.8 498.2 974.5 513.7 981.3 C 529.2 988 541.4 992.1 549.5 994.8 C 563.7 998.8 577.8 1000.9 592.7 1000.2 C 614.3 1000.2 634.5 994.1 653.4 982 C 669.6 971.2 685.8 956.4 702.7 936.1 C 713.5 923.3 727.7 903.7 745.9 877.4 C 765.5 847.7 783 816 797.9 780.9 C 803.3 768.1 809.4 752.6 814.8 735 C 804 731 792.5 724.9 779.7 716.1 C 753.4 698.6 731.8 677 715.6 652 C 692.7 617.6 681.2 577.8 680.5 532.5 C 680.5 495.4 689.3 459.6 707.5 427.2 C 720.3 404.3 737.9 383.3 758.8 364.4 C 768.2 355.6 778.4 348.2 789.2 341.5 C 763.6 303.7 729.1 276.7 686.6 259.8 C 662.3 250.4 635.3 244.3 605.6 242.3 C 590.1 241 573.9 241.6 557.7 244.3 C 544.2 246.3 529.4 250.4 513.8 255.1 C 503.7 259.1 490.9 263.9 474.7 269.9 C 458.5 276.6 447 280.7 441 282.7 C 430.2 286.1 420.8 288.1 414 288.1 C 405.2 288.1 393.8 286.1 380.3 281.4 C 376.3 280.1 363.4 274.7 340.5 265.9 C 323 259.2 308.1 253.8 296 250.4 C 279.1 246.4 263.6 244.3 248.8 244.3 C 206.3 245 167.1 256.4 130 279.4 C 92.9 301.7 63.9 332 42.3 370.5 C 14.2 418.4 0 475.8 0 541.3 C 0 600 10.1 660 31 722.8 C 49.9 780.2 74.9 830.8 105.2 874.6 C 122.7 900.9 137.6 921.2 149.7 935.3 C 167.2 956.9 184.8 972.4 201.7 983.2 C 222 996.1 242.3 1002.2 263.9 1002.2 Z" style="overflow: visible; fill: rgb(255, 255, 255);"/>
  <defs>
    <path id="SVGID_43_" d="M263.9,1002.2c13.5-0.7,27.7-3.4,41.2-7.4c6.7-2,18.2-6.7,35.8-14.2c14.8-6.1,27-10.8,37.8-13.5 c15.5-4,31.7-6.1,48.6-6.1c16.9,0,33.1,2,48.6,6.1c9.4,2.7,22.3,7.4,37.8,14.2c15.5,6.7,27.7,10.8,35.8,13.5 c14.2,4,28.3,6.1,43.2,5.4c21.6,0,41.8-6.1,60.7-18.2c16.2-10.8,32.4-25.6,49.3-45.9c10.8-12.8,25-32.4,43.2-58.7 c19.6-29.7,37.1-61.4,52-96.5c5.4-12.8,11.5-28.3,16.9-45.9c-10.8-4-22.3-10.1-35.1-18.9c-26.3-17.5-47.9-39.1-64.1-64.1 c-22.9-34.4-34.4-74.2-35.1-119.5c0-37.1,8.8-72.9,27-105.3c12.8-22.9,30.4-43.9,51.3-62.8c9.4-8.8,19.6-16.2,30.4-22.9 c-25.6-37.8-60.1-64.8-102.6-81.7c-24.3-9.4-51.3-15.5-81-17.5c-15.5-1.3-31.7-0.7-47.9,2c-13.5,2-28.3,6.1-43.9,10.8 c-10.1,4-22.9,8.8-39.1,14.8c-16.2,6.7-27.7,10.8-33.7,12.8c-10.8,3.4-20.2,5.4-27,5.4c-8.8,0-20.2-2-33.7-6.7 c-4-1.3-16.9-6.7-39.8-15.5c-17.5-6.7-32.4-12.1-44.5-15.5c-16.9-4-32.4-6.1-47.2-6.1c-42.5,0.7-81.7,12.1-118.8,35.1 c-37.1,22.3-66.1,52.6-87.7,91.1C14.2,418.4,0,475.8,0,541.3C0,600,10.1,660,31,722.8c18.9,57.4,43.9,108,74.2,151.8 c17.5,26.3,32.4,46.6,44.5,60.7c17.5,21.6,35.1,37.1,52,47.9C222,996.1,242.3,1002.2,263.9,1002.2z"/>
  </defs>
  <path d="M 263.9 1002.2 C 277.4 1001.5 291.6 998.8 305.1 994.8 C 311.8 992.8 323.3 988.1 340.9 980.6 C 355.7 974.5 367.9 969.8 378.7 967.1 C 394.2 963.1 410.4 961 427.3 961 C 444.2 961 460.4 963 475.9 967.1 C 485.3 969.8 498.2 974.5 513.7 981.3 C 529.2 988 541.4 992.1 549.5 994.8 C 563.7 998.8 577.8 1000.9 592.7 1000.2 C 614.3 1000.2 634.5 994.1 653.4 982 C 669.6 971.2 685.8 956.4 702.7 936.1 C 713.5 923.3 727.7 903.7 745.9 877.4 C 765.5 847.7 783 816 797.9 780.9 C 803.3 768.1 809.4 752.6 814.8 735 C 804 731 792.5 724.9 779.7 716.1 C 753.4 698.6 731.8 677 715.6 652 C 692.7 617.6 681.2 577.8 680.5 532.5 C 680.5 495.4 689.3 459.6 707.5 427.2 C 720.3 404.3 737.9 383.3 758.8 364.4 C 768.2 355.6 778.4 348.2 789.2 341.5 C 763.6 303.7 729.1 276.7 686.6 259.8 C 662.3 250.4 635.3 244.3 605.6 242.3 C 590.1 241 573.9 241.6 557.7 244.3 C 544.2 246.3 529.4 250.4 513.8 255.1 C 503.7 259.1 490.9 263.9 474.7 269.9 C 458.5 276.6 447 280.7 441 282.7 C 430.2 286.1 420.8 288.1 414 288.1 C 405.2 288.1 393.8 286.1 380.3 281.4 C 376.3 280.1 363.4 274.7 340.5 265.9 C 323 259.2 308.1 253.8 296 250.4 C 279.1 246.4 263.6 244.3 248.8 244.3 C 206.3 245 167.1 256.4 130 279.4 C 92.9 301.7 63.9 332 42.3 370.5 C 14.2 418.4 0 475.8 0 541.3 C 0 600 10.1 660 31 722.8 C 49.9 780.2 74.9 830.8 105.2 874.6 C 122.7 900.9 137.6 921.2 149.7 935.3 C 167.2 956.9 184.8 972.4 201.7 983.2 C 222 996.1 242.3 1002.2 263.9 1002.2 Z" style="overflow: visible; fill: rgb(255, 255, 255);"/>
  <defs>
    <path id="SVGID_45_" d="M263.9,1002.2c13.5-0.7,27.7-3.4,41.2-7.4c6.7-2,18.2-6.7,35.8-14.2c14.8-6.1,27-10.8,37.8-13.5 c15.5-4,31.7-6.1,48.6-6.1c16.9,0,33.1,2,48.6,6.1c9.4,2.7,22.3,7.4,37.8,14.2c15.5,6.7,27.7,10.8,35.8,13.5 c14.2,4,28.3,6.1,43.2,5.4c21.6,0,41.8-6.1,60.7-18.2c16.2-10.8,32.4-25.6,49.3-45.9c10.8-12.8,25-32.4,43.2-58.7 c19.6-29.7,37.1-61.4,52-96.5c5.4-12.8,11.5-28.3,16.9-45.9c-10.8-4-22.3-10.1-35.1-18.9c-26.3-17.5-47.9-39.1-64.1-64.1 c-22.9-34.4-34.4-74.2-35.1-119.5c0-37.1,8.8-72.9,27-105.3c12.8-22.9,30.4-43.9,51.3-62.8c9.4-8.8,19.6-16.2,30.4-22.9 c-25.6-37.8-60.1-64.8-102.6-81.7c-24.3-9.4-51.3-15.5-81-17.5c-15.5-1.3-31.7-0.7-47.9,2c-13.5,2-28.3,6.1-43.9,10.8 c-10.1,4-22.9,8.8-39.1,14.8c-16.2,6.7-27.7,10.8-33.7,12.8c-10.8,3.4-20.2,5.4-27,5.4c-8.8,0-20.2-2-33.7-6.7 c-4-1.3-16.9-6.7-39.8-15.5c-17.5-6.7-32.4-12.1-44.5-15.5c-16.9-4-32.4-6.1-47.2-6.1c-42.5,0.7-81.7,12.1-118.8,35.1 c-37.1,22.3-66.1,52.6-87.7,91.1C14.2,418.4,0,475.8,0,541.3C0,600,10.1,660,31,722.8c18.9,57.4,43.9,108,74.2,151.8 c17.5,26.3,32.4,46.6,44.5,60.7c17.5,21.6,35.1,37.1,52,47.9C222,996.1,242.3,1002.2,263.9,1002.2z"/>
  </defs>
  <path d="M 263.9 1002.2 C 277.4 1001.5 291.6 998.8 305.1 994.8 C 311.8 992.8 323.3 988.1 340.9 980.6 C 355.7 974.5 367.9 969.8 378.7 967.1 C 394.2 963.1 410.4 961 427.3 961 C 444.2 961 460.4 963 475.9 967.1 C 485.3 969.8 498.2 974.5 513.7 981.3 C 529.2 988 541.4 992.1 549.5 994.8 C 563.7 998.8 577.8 1000.9 592.7 1000.2 C 614.3 1000.2 634.5 994.1 653.4 982 C 669.6 971.2 685.8 956.4 702.7 936.1 C 713.5 923.3 727.7 903.7 745.9 877.4 C 765.5 847.7 783 816 797.9 780.9 C 803.3 768.1 809.4 752.6 814.8 735 C 804 731 792.5 724.9 779.7 716.1 C 753.4 698.6 731.8 677 715.6 652 C 692.7 617.6 681.2 577.8 680.5 532.5 C 680.5 495.4 689.3 459.6 707.5 427.2 C 720.3 404.3 737.9 383.3 758.8 364.4 C 768.2 355.6 778.4 348.2 789.2 341.5 C 763.6 303.7 729.1 276.7 686.6 259.8 C 662.3 250.4 635.3 244.3 605.6 242.3 C 590.1 241 573.9 241.6 557.7 244.3 C 544.2 246.3 529.4 250.4 513.8 255.1 C 503.7 259.1 490.9 263.9 474.7 269.9 C 458.5 276.6 447 280.7 441 282.7 C 430.2 286.1 420.8 288.1 414 288.1 C 405.2 288.1 393.8 286.1 380.3 281.4 C 376.3 280.1 363.4 274.7 340.5 265.9 C 323 259.2 308.1 253.8 296 250.4 C 279.1 246.4 263.6 244.3 248.8 244.3 C 206.3 245 167.1 256.4 130 279.4 C 92.9 301.7 63.9 332 42.3 370.5 C 14.2 418.4 0 475.8 0 541.3 C 0 600 10.1 660 31 722.8 C 49.9 780.2 74.9 830.8 105.2 874.6 C 122.7 900.9 137.6 921.2 149.7 935.3 C 167.2 956.9 184.8 972.4 201.7 983.2 C 222 996.1 242.3 1002.2 263.9 1002.2 Z" style="overflow: visible; fill: rgb(255, 255, 255);"/>
  <defs>
    <path id="SVGID_47_" d="M263.9,1002.2c13.5-0.7,27.7-3.4,41.2-7.4c6.7-2,18.2-6.7,35.8-14.2c14.8-6.1,27-10.8,37.8-13.5 c15.5-4,31.7-6.1,48.6-6.1c16.9,0,33.1,2,48.6,6.1c9.4,2.7,22.3,7.4,37.8,14.2c15.5,6.7,27.7,10.8,35.8,13.5 c14.2,4,28.3,6.1,43.2,5.4c21.6,0,41.8-6.1,60.7-18.2c16.2-10.8,32.4-25.6,49.3-45.9c10.8-12.8,25-32.4,43.2-58.7 c19.6-29.7,37.1-61.4,52-96.5c5.4-12.8,11.5-28.3,16.9-45.9c-10.8-4-22.3-10.1-35.1-18.9c-26.3-17.5-47.9-39.1-64.1-64.1 c-22.9-34.4-34.4-74.2-35.1-119.5c0-37.1,8.8-72.9,27-105.3c12.8-22.9,30.4-43.9,51.3-62.8c9.4-8.8,19.6-16.2,30.4-22.9 c-25.6-37.8-60.1-64.8-102.6-81.7c-24.3-9.4-51.3-15.5-81-17.5c-15.5-1.3-31.7-0.7-47.9,2c-13.5,2-28.3,6.1-43.9,10.8 c-10.1,4-22.9,8.8-39.1,14.8c-16.2,6.7-27.7,10.8-33.7,12.8c-10.8,3.4-20.2,5.4-27,5.4c-8.8,0-20.2-2-33.7-6.7 c-4-1.3-16.9-6.7-39.8-15.5c-17.5-6.7-32.4-12.1-44.5-15.5c-16.9-4-32.4-6.1-47.2-6.1c-42.5,0.7-81.7,12.1-118.8,35.1 c-37.1,22.3-66.1,52.6-87.7,91.1C14.2,418.4,0,475.8,0,541.3C0,600,10.1,660,31,722.8c18.9,57.4,43.9,108,74.2,151.8 c17.5,26.3,32.4,46.6,44.5,60.7c17.5,21.6,35.1,37.1,52,47.9C222,996.1,242.3,1002.2,263.9,1002.2z"/>
  </defs>
  <path d="M 263.9 1002.2 C 277.4 1001.5 291.6 998.8 305.1 994.8 C 311.8 992.8 323.3 988.1 340.9 980.6 C 355.7 974.5 367.9 969.8 378.7 967.1 C 394.2 963.1 410.4 961 427.3 961 C 444.2 961 460.4 963 475.9 967.1 C 485.3 969.8 498.2 974.5 513.7 981.3 C 529.2 988 541.4 992.1 549.5 994.8 C 563.7 998.8 577.8 1000.9 592.7 1000.2 C 614.3 1000.2 634.5 994.1 653.4 982 C 669.6 971.2 685.8 956.4 702.7 936.1 C 713.5 923.3 727.7 903.7 745.9 877.4 C 765.5 847.7 783 816 797.9 780.9 C 803.3 768.1 809.4 752.6 814.8 735 C 804 731 792.5 724.9 779.7 716.1 C 753.4 698.6 731.8 677 715.6 652 C 692.7 617.6 681.2 577.8 680.5 532.5 C 680.5 495.4 689.3 459.6 707.5 427.2 C 720.3 404.3 737.9 383.3 758.8 364.4 C 768.2 355.6 778.4 348.2 789.2 341.5 C 763.6 303.7 729.1 276.7 686.6 259.8 C 662.3 250.4 635.3 244.3 605.6 242.3 C 590.1 241 573.9 241.6 557.7 244.3 C 544.2 246.3 529.4 250.4 513.8 255.1 C 503.7 259.1 490.9 263.9 474.7 269.9 C 458.5 276.6 447 280.7 441 282.7 C 430.2 286.1 420.8 288.1 414 288.1 C 405.2 288.1 393.8 286.1 380.3 281.4 C 376.3 280.1 363.4 274.7 340.5 265.9 C 323 259.2 308.1 253.8 296 250.4 C 279.1 246.4 263.6 244.3 248.8 244.3 C 206.3 245 167.1 256.4 130 279.4 C 92.9 301.7 63.9 332 42.3 370.5 C 14.2 418.4 0 475.8 0 541.3 C 0 600 10.1 660 31 722.8 C 49.9 780.2 74.9 830.8 105.2 874.6 C 122.7 900.9 137.6 921.2 149.7 935.3 C 167.2 956.9 184.8 972.4 201.7 983.2 C 222 996.1 242.3 1002.2 263.9 1002.2 Z" style="overflow: visible; fill: rgb(255, 255, 255);"/>
  <path class="st1" d="M 1169.2 351.9 C 1172.1 351.9 1174.5 352.3 1176.5 353.2 C 1178.5 354.1 1180.1 356.2 1181.2 359.7 L 1295.7 707.6 C 1298 714.5 1300 717.9 1301.7 717.9 C 1304 717.9 1306.3 714.8 1308.6 708.4 L 1421.4 366.5 C 1422.5 361.9 1424.1 358.3 1426.1 355.7 C 1428.1 353.1 1431.4 351.8 1436 351.8 L 1547.1 351.8 C 1555.1 351.8 1559.2 355.5 1559.2 362.9 C 1559.2 367.5 1557.9 370.5 1555.3 371.9 C 1552.7 373.3 1549.4 374.3 1545.4 374.9 C 1541.4 375.5 1536.9 375.9 1532 376.2 C 1527.1 376.5 1522.1 377.8 1516.9 380.1 C 1510.6 383 1506.7 386.5 1505.3 390.8 C 1503.9 395.1 1503.1 402.9 1503.1 414.3 L 1503.1 434.8 L 1512.6 809.5 C 1513.2 824.9 1514.2 836 1515.6 842.9 C 1517 849.7 1522.3 855.2 1531.5 859.2 C 1536.7 861.5 1541.8 862.8 1547 863 C 1552.2 863.3 1556.6 863.6 1560.3 863.8 C 1564 864.1 1567 865.1 1569.3 866.8 C 1571.6 868.5 1572.7 872 1572.7 877.1 C 1572.7 880.5 1571.1 883.6 1568 886.1 C 1564.8 888.7 1560.4 890 1554.7 890 C 1545.5 890 1534.5 889 1521.5 887 C 1508.6 885 1493.5 884 1476.3 884 C 1457.4 884 1440.8 885 1426.8 887 C 1412.7 889 1401.7 890 1393.6 890 C 1382.1 890 1376.4 885.4 1376.4 876.2 C 1376.4 867.6 1380.7 863.3 1389.3 863.3 C 1400.2 863.3 1408.7 862.5 1414.7 860.7 C 1420.7 859 1425.3 856 1428.5 851.7 C 1431.7 847.4 1433.5 841.9 1434.1 835 C 1434.7 828.2 1435 819.6 1435 809.3 L 1435 789.6 L 1429 473.1 C 1429 466.8 1427.6 463.7 1424.7 463.7 C 1423 463.7 1421.3 466.6 1419.5 472.3 L 1292.9 859.8 C 1290 868.4 1285.4 872.7 1279.1 872.7 C 1271.6 872.7 1267 869.3 1265.3 862.4 L 1137 473.2 C 1134.1 465.8 1132.1 462.1 1131 462.1 C 1128.1 462.1 1126.4 467.5 1125.8 478.4 L 1111.2 740.1 C 1110.6 749.8 1110.2 758.6 1109.9 766.6 C 1109.6 774.6 1109.5 781.7 1109.5 788 C 1109.5 814.8 1111.8 834.3 1116.4 846.6 C 1121 858.9 1131.6 865 1148.3 865 C 1150 865 1151.7 864.9 1153.5 864.6 C 1155.2 864.3 1157.2 864.2 1159.5 864.2 C 1170.4 864.2 1175.9 868.5 1175.9 877.1 C 1175.9 886.3 1168.7 890.9 1154.4 890.9 C 1148.1 890.9 1139.9 890.3 1129.9 889.2 C 1119.9 888.1 1108.2 887.5 1095 887.5 C 1083.5 887.5 1073.3 888.1 1064.4 889.2 C 1055.5 890.4 1047.9 890.9 1041.6 890.9 C 1027.8 890.9 1020.9 886.3 1020.9 877.1 C 1020.9 868.5 1024.9 864.2 1033 864.2 C 1036.4 864.2 1039.5 864.3 1042 864.6 C 1044.6 864.9 1046.7 865 1048.5 865 C 1056 865 1062 862.6 1066.6 857.7 C 1071.2 852.9 1074.6 845 1076.9 834.2 C 1079.2 823.4 1080.9 809.3 1082.1 791.9 C 1083.2 774.5 1084.4 753 1085.5 727.3 L 1100.1 434.9 C 1100.1 433.8 1100.2 431.8 1100.5 428.9 C 1100.8 426 1100.9 422.3 1100.9 417.8 C 1100.9 404.7 1099.7 395.6 1097.5 390.4 C 1095.2 385.3 1090 381.3 1082 378.4 C 1076.8 376.7 1072 375.7 1067.4 375.4 C 1062.8 375.1 1058.8 374.8 1055.3 374.5 C 1051.9 374.2 1049.1 373.4 1047.1 371.9 C 1045.1 370.5 1044.1 367.5 1044.1 362.9 C 1044.1 355.4 1048.1 351.7 1056.2 351.7 L 1169.2 351.7 Z" style="fill: rgb(255, 255, 255);"/>
  <path class="st1" d="M 1826.8 794.6 C 1826.8 813 1827.9 826.8 1830.2 835.9 C 1832.5 845.1 1838.5 849.7 1848.3 849.7 C 1854.6 849.7 1860.4 846.8 1865.5 841.1 C 1870.7 835.4 1875.8 832.5 1881 832.5 C 1887.9 832.5 1891.3 836.8 1891.3 845.4 C 1891.3 850 1888.7 855.6 1883.5 862.2 C 1878.3 868.8 1872.2 875.3 1865 881.6 C 1857.8 887.9 1850.1 893.4 1841.7 898 C 1833.4 902.6 1825.8 904.9 1818.8 904.9 C 1803.8 904.9 1791.4 900 1781.6 890.3 C 1771.8 880.5 1763.7 865.9 1757.4 846.4 L 1752.2 846.4 L 1734 861.9 C 1719 874.5 1704.9 885.3 1691.7 894.2 C 1678.4 903.1 1663.8 907.5 1647.6 907.5 C 1629.2 907.5 1614.3 901.3 1603.1 889 C 1591.9 876.7 1586.3 859.6 1586.3 837.8 C 1586.3 818.9 1589.5 802.2 1595.8 787.9 C 1602.1 773.6 1611.3 760.5 1623.5 748.7 C 1635.6 736.9 1650.1 725.9 1667.1 715.5 C 1684.1 705.1 1703 694.8 1723.7 684.5 L 1745.3 673.3 C 1749.9 671 1752.6 668.6 1753.5 666 C 1754.4 663.4 1754.8 659 1754.8 652.7 L 1754.8 591.6 C 1754.8 567.5 1752.9 550 1749.2 539.1 C 1745.5 528.2 1736.1 522.7 1721.1 522.7 C 1706.1 522.7 1694.3 527.7 1685.7 537.8 C 1677.1 547.8 1668.7 562.1 1660.6 580.4 C 1654.2 594.8 1647.2 607 1639.4 617 C 1631.6 627.1 1619.1 632.1 1601.8 632.1 C 1597.2 632.1 1593.3 630.7 1590.1 627.8 C 1586.9 624.9 1585.4 621.2 1585.4 616.6 C 1585.4 604 1589.3 590.5 1597.1 576.1 C 1604.9 561.8 1615.8 548.7 1629.9 536.9 C 1644 525.1 1660.7 515.4 1680 507.6 C 1699.3 499.9 1720.2 496 1742.7 496 C 1761.1 496 1776 498.2 1787.2 502.5 C 1798.4 506.8 1806.9 513.1 1812.7 521.4 C 1818.5 529.7 1822.2 540.1 1823.9 552.4 C 1825.6 564.8 1826.5 579 1826.5 595 L 1826.5 794.6 Z M 1751 697.3 C 1749.3 697.3 1746.4 698.5 1742.4 700.7 L 1714 714.5 C 1680.1 731.7 1663.2 760.4 1663.2 800.6 C 1663.2 817.3 1666.2 829.9 1672.2 838.5 C 1678.2 847.1 1686.1 851.4 1695.9 851.4 C 1702.8 851.4 1709.7 849.5 1716.6 845.8 C 1723.5 842.1 1729.8 836.9 1735.5 830.3 C 1741.2 823.7 1746 815.8 1749.7 806.6 C 1753.4 797.4 1755.3 787.1 1755.3 775.6 L 1755.3 707.6 C 1755.3 700.7 1753.8 697.3 1751 697.3 Z" style="fill: rgb(255, 255, 255);"/>
  <path class="st1" d="M 2089.6 500.8 C 2101.7 503.9 2112.1 507.9 2121 512.9 C 2129.9 517.9 2137.1 523.5 2142.5 529.8 C 2147.9 536.1 2150.7 543 2150.7 550.5 C 2150.7 572.3 2148.5 589.4 2144.2 601.7 C 2139.9 614.1 2134.3 620.2 2127.4 620.2 C 2119.3 620.2 2111.6 611.9 2104.1 595.2 C 2098.9 584.3 2094.3 574.1 2090.3 564.6 C 2086.3 555.1 2082 547.2 2077.4 540.9 C 2072.8 534.6 2067.8 529.6 2062.3 525.8 C 2056.8 522.1 2050.1 520.2 2042.1 520.2 C 2031.8 520.2 2021.1 524.1 2010.2 531.8 C 1999.3 539.5 1989.5 550.6 1980.9 565.2 C 1972.3 579.8 1965.2 597.3 1959.8 617.9 C 1954.3 638.5 1951.6 661.9 1951.6 688.2 C 1951.6 715.1 1954.6 739.1 1960.6 760.2 C 1966.6 781.3 1974.9 799.2 1985.6 813.8 C 1996.2 828.4 2008.7 839.5 2023.1 847.2 C 2037.4 854.9 2053.2 858.8 2070.5 858.8 C 2081.4 858.8 2091.3 856.9 2100.2 853.2 C 2109.1 849.5 2116.6 845.3 2122.6 840.7 C 2128.6 836.1 2133.5 832 2137.2 828.2 C 2140.9 824.5 2143.7 822.6 2145.4 822.6 C 2152.8 822.6 2156.6 826.3 2156.6 833.8 C 2156.6 839 2153.6 845.7 2147.6 854 C 2141.6 862.3 2133.2 870.4 2122.6 878.1 C 2112 885.9 2099.2 892.6 2084.3 898.3 C 2069.4 904 2053.3 906.9 2036.1 906.9 C 2013.1 906.9 1991.9 902.2 1972.4 892.7 C 1952.9 883.2 1935.9 869.7 1921.6 852.2 C 1907.2 834.7 1896.1 813.5 1888 788.5 C 1880 763.5 1875.9 735.5 1875.9 704.5 C 1875.9 672.4 1880.3 643.5 1889.3 618 C 1898.2 592.5 1910.4 570.6 1925.9 552.5 C 1941.4 534.4 1959.8 520.5 1981 510.7 C 2002.2 500.9 2025.5 496.1 2050.8 496.1 C 2064.6 496.2 2077.5 497.7 2089.6 500.8 Z" style="fill: rgb(255, 255, 255);"/>
  <path class="st1" d="M 2276.8 824.4 C 2276.8 834.7 2277.8 842.5 2279.8 847.7 C 2281.8 852.9 2285.4 856.9 2290.6 859.8 C 2295.2 862.1 2299.6 863.5 2303.9 864.1 C 2308.2 864.7 2311.9 865.4 2315.1 866.3 C 2318.2 867.2 2320.8 868.5 2322.9 870.2 C 2324.9 871.9 2325.9 874.8 2325.9 878.8 C 2325.9 888 2320.7 892.6 2310.4 892.6 C 2301.8 892.6 2291.5 891.6 2279.5 889.6 C 2267.5 887.6 2254.7 886.6 2241.1 886.6 C 2226.4 886.6 2213.8 887.6 2203.6 889.6 C 2193.3 891.6 2185 892.6 2178.7 892.6 C 2170.1 892.6 2165.8 887.7 2165.8 878 C 2165.8 874 2166.5 871.1 2168 869.4 C 2169.4 867.7 2171.4 866.5 2174 866 C 2176.6 865.4 2179.3 865 2182.2 864.7 C 2185.1 864.4 2188.2 863.4 2191.7 861.7 C 2198 858.3 2201.9 854.1 2203.3 849.2 C 2204.7 844.3 2205.5 836.1 2205.5 824.7 L 2205.5 621.2 C 2205.5 605.7 2203.6 595.4 2199.9 590.2 C 2196.2 585 2192.1 581.7 2187.8 580.3 C 2183.5 578.9 2179.5 578 2175.7 577.7 C 2172 577.4 2170.1 574.4 2170.1 568.7 C 2170.1 562.4 2174 557.2 2181.7 553.2 C 2189.5 549.2 2200.5 543.2 2214.7 535.1 C 2223.2 529.9 2230.4 524.8 2236.4 519.6 C 2242.3 514.4 2247.3 509.8 2251.3 505.8 C 2255.3 501.8 2258.5 498.5 2261.1 495.9 C 2263.7 493.3 2266.1 492 2268.3 492 C 2274 492 2276.8 498 2276.8 510.1 L 2276.8 824.4 Z M 2271.6 359.4 C 2279.1 369.2 2282.8 380.1 2282.8 392.1 C 2282.8 404.2 2279.1 415.1 2271.6 424.8 C 2264.1 434.6 2255.2 439.4 2244.9 439.4 C 2234.6 439.4 2225.7 434.5 2218.2 424.8 C 2210.7 415 2207 404.1 2207 392.1 C 2207 380 2210.7 369.1 2218.2 359.4 C 2225.7 349.6 2234.6 344.8 2244.9 344.8 C 2255.2 344.7 2264.1 349.6 2271.6 359.4 Z" style="fill: rgb(255, 255, 255);"/>
  <path class="st1" d="M 2451.7 548.3 C 2451.7 555.8 2452.5 559.5 2454.3 559.5 C 2456 559.5 2458.3 557.8 2461.2 554.3 L 2470.6 543.1 C 2482.6 528.2 2496.5 516.7 2512.2 508.7 C 2527.9 500.7 2544.4 496.6 2561.6 496.6 C 2597.1 496.6 2624.7 508.8 2644.4 533.2 C 2664.2 557.6 2674 593.6 2674 641.3 L 2674 826.4 C 2674 844.2 2678.3 856 2686.9 861.7 C 2690.9 864 2695.1 865.4 2699.4 866 C 2703.7 866.6 2707.6 867.2 2711 867.7 C 2714.4 868.3 2717.2 869.4 2719.2 871.1 C 2721.2 872.8 2722.2 876 2722.2 880.6 C 2722.2 889.8 2717 894.4 2706.7 894.4 C 2698.6 894.4 2688.9 893.4 2677.5 891.4 C 2666.1 889.4 2653 888.4 2638.2 888.4 C 2623.5 888.4 2610.8 889.4 2600.2 891.4 C 2589.6 893.4 2581.5 894.4 2575.7 894.4 C 2566.5 894.4 2561.9 889.5 2561.9 879.8 C 2561.9 875.8 2562.6 872.9 2564.1 871.2 C 2565.5 869.5 2567.5 868.3 2570.1 867.8 C 2572.7 867.2 2575.5 866.8 2578.7 866.5 C 2581.8 866.2 2585.2 865.2 2588.6 863.5 C 2595.5 860.1 2599.5 855.6 2600.7 850.1 C 2601.8 844.7 2602.4 836.8 2602.4 826.4 L 2602.4 652.4 C 2602.4 618 2596 592 2583.3 574.5 C 2570.6 557 2552.4 548.2 2528.7 548.2 C 2506.8 548.2 2488.9 555.7 2475 570.6 C 2461.1 585.5 2454.2 608.5 2454.2 639.5 L 2454.2 826.4 C 2454.2 836.2 2454.9 843.8 2456.4 849.2 C 2457.8 854.7 2461.4 858.8 2467.2 861.7 C 2472.4 864.6 2477 866.2 2481 866.4 C 2485 866.7 2488.6 867.1 2491.8 867.7 C 2494.9 868.3 2497.4 869.4 2499.1 871.1 C 2500.8 872.8 2501.7 876.3 2501.7 881.4 C 2501.7 890 2496.5 894.3 2486.2 894.3 C 2478.2 894.3 2468.4 893.3 2457 891.3 C 2445.6 889.3 2432.8 888.3 2418.6 888.3 C 2403.9 888.3 2391.3 889.3 2381.1 891.3 C 2370.8 893.3 2362.5 894.3 2356.2 894.3 C 2347 894.3 2342.4 889.4 2342.4 879.7 C 2342.4 875.7 2343.1 872.8 2344.6 871.1 C 2346 869.4 2347.9 868.2 2350.2 867.7 C 2352.5 867.1 2355.2 866.7 2358.4 866.4 C 2361.5 866.1 2364.9 865.1 2368.3 863.4 C 2374.6 860.5 2378.6 856.5 2380.4 851.3 C 2382.1 846.1 2383 837.8 2383 826.3 L 2383 623.2 C 2383 607.7 2381.1 597.4 2377.4 592.2 C 2373.7 587 2369.5 583.9 2364.9 582.7 C 2360.3 581.6 2356.1 580.8 2352.4 580.5 C 2348.7 580.2 2346.8 577.2 2346.8 571.5 C 2346.8 565.8 2350.5 560.7 2358 556.4 C 2365.5 552.1 2376.4 545.6 2390.7 537 C 2407.3 527.2 2419 517.8 2425.9 508.6 C 2432.8 499.4 2438.8 494.8 2443.9 494.8 C 2445.6 494.8 2447.3 496.2 2449 499.1 C 2450.7 502 2451.6 506.6 2451.6 512.9 L 2451.6 548.3 Z" style="fill: rgb(255, 255, 255);"/>
  <path class="st1" d="M 2798.4 500.9 C 2798.4 508.4 2802.1 512.1 2809.6 512.1 L 2874.2 512.1 C 2879.4 512.1 2882.5 512.7 2883.7 513.8 C 2884.8 515 2885.4 517.2 2885.4 520.7 L 2885.4 538 C 2885.4 542.6 2884.8 545.7 2883.7 547.5 C 2882.5 549.2 2879.4 550.1 2874.2 550.1 L 2808.8 550.1 C 2801.9 550.1 2798.5 553.8 2798.5 561.3 L 2798.5 779.2 C 2798.5 806.2 2800.9 825.9 2805.8 838.2 C 2810.7 850.6 2819.7 856.7 2832.9 856.7 C 2839.2 856.7 2844.8 855.6 2849.7 853.3 C 2854.6 851 2859 848.3 2863 845.1 C 2867 842 2870.6 839.2 2873.8 836.9 C 2876.9 834.6 2880 833.5 2882.8 833.5 C 2888.5 833.5 2891.4 837.5 2891.4 845.6 C 2891.4 849.6 2888.8 855.1 2883.6 862 C 2878.4 868.9 2871.4 875.8 2862.5 882.7 C 2853.6 889.6 2843.3 895.5 2831.5 900.4 C 2819.7 905.3 2807.3 907.7 2794.1 907.7 C 2749.2 907.7 2726.8 871.3 2726.8 798.3 L 2726.8 762.1 L 2730.2 577 C 2730.2 569 2729.6 562.5 2728.5 557.6 C 2727.4 552.7 2723.9 550.3 2718.2 550.3 L 2702.7 550.3 C 2692.4 550.3 2687.2 546.6 2687.2 539.1 C 2687.2 535.7 2688.6 532.5 2691.5 529.6 C 2694.4 526.7 2698.4 523.6 2703.6 520.1 C 2708.8 516.7 2714.6 512.4 2721.2 507.2 C 2727.8 502 2735 495.1 2742.8 486.5 C 2756.3 470.4 2766.2 456.7 2772.7 445.2 C 2779.1 433.7 2784.9 428 2789.9 428 C 2793.8 428 2796.2 429.9 2797 433.6 C 2797.8 437.3 2798.3 442.4 2798.3 448.7 L 2798.3 500.9 Z" style="fill: rgb(255, 255, 255);"/>
  <path class="st1" d="M 2884.8 617.2 C 2893.4 591.9 2905.8 570.4 2921.8 552.6 C 2937.9 534.8 2957.1 521 2979.5 511.3 C 3001.9 501.5 3026.9 496.7 3054.4 496.7 C 3080.8 496.7 3104.9 501.7 3126.7 511.8 C 3148.5 521.8 3167 535.9 3182.2 554 C 3197.4 572.1 3209.2 593.8 3217.5 619 C 3225.8 644.3 3230 672.4 3230 703.4 C 3230 733.8 3225.7 761.7 3217.1 786.9 C 3208.5 812.2 3196.3 833.7 3180.5 851.5 C 3164.7 869.3 3145.3 883.1 3122.4 892.8 C 3099.4 902.6 3073.6 907.4 3044.9 907.4 C 3019.1 907.4 2995.5 902.4 2974.3 892.3 C 2953 882.3 2934.8 868.2 2919.6 850.1 C 2904.4 832 2892.6 810.4 2884.3 785.1 C 2876 759.8 2871.8 732 2871.8 701.6 C 2871.9 670.6 2876.2 642.4 2884.8 617.2 Z M 2975.3 564.6 C 2957.5 593.9 2948.6 635.5 2948.6 689.5 C 2948.6 750.4 2958.2 797.9 2977.5 832 C 2996.7 866.2 3021.8 883.2 3052.8 883.2 C 3084.4 883.2 3109.2 868.4 3127.3 838.8 C 3145.4 809.2 3154.4 767.8 3154.4 714.4 C 3154.4 653.6 3144.8 606 3125.6 571.9 C 3106.4 537.8 3081.5 520.7 3051.1 520.7 C 3018.3 520.7 2993 535.4 2975.3 564.6 Z" style="fill: rgb(255, 255, 255);"/>
  <path class="st1" d="M 3438.3 507.7 C 3451.5 515.1 3458.1 526.3 3458.1 541.4 C 3458.1 561.5 3457.2 576.3 3455.5 585.7 C 3453.8 595.2 3450 599.9 3444.3 599.9 C 3438 599.9 3434.3 595.9 3433.1 587.8 C 3431.9 579.8 3427.9 569.7 3421 557.7 C 3406.6 533 3387.7 520.7 3364.2 520.7 C 3347.5 520.7 3334.2 525.4 3324.2 534.9 C 3314.2 544.3 3309.1 556.5 3309.1 571.3 C 3309.1 581 3311.1 589.2 3315.1 595.7 C 3319.1 602.3 3324.9 608.4 3332.3 614.1 C 3339.8 619.8 3348.8 625.4 3359.4 630.8 C 3370 636.2 3381.9 642.4 3395.1 649.2 C 3423.2 664.1 3443.9 680.8 3457.1 699.4 C 3470.3 718 3476.9 741.3 3476.9 769.3 C 3476.9 791 3473.6 810.5 3467 827.6 C 3460.4 844.7 3451.1 859.2 3439 870.9 C 3426.9 882.6 3412.7 891.6 3396.4 897.9 C 3380 904.2 3362.1 907.3 3342.6 907.3 C 3323.1 907.3 3305.6 905.1 3290.1 900.8 C 3274.6 896.5 3262.8 891.8 3254.8 886.6 C 3249.6 883.7 3246.5 880 3245.3 875.4 C 3244.1 870.8 3243.6 864.5 3243.6 856.5 L 3243.6 835 C 3243.6 811.5 3244.2 794.4 3245.3 783.8 C 3246.4 773.2 3250.2 767.9 3256.5 767.9 C 3260.5 767.9 3263.4 769.3 3265.1 772.2 C 3266.8 775.1 3268.4 779.2 3269.8 784.7 C 3271.2 790.2 3272.9 796.8 3275 804.5 C 3277 812.2 3280.3 821 3284.9 830.8 C 3301 865.8 3323.9 883.3 3353.8 883.3 C 3372.2 883.3 3387.2 877 3399 864.4 C 3410.8 851.8 3416.7 834.8 3416.7 813.6 C 3416.7 802.7 3414.8 793.1 3411.1 784.8 C 3407.4 776.5 3401.9 769 3394.7 762.4 C 3387.5 755.8 3378.8 749.5 3368.4 743.5 C 3358.1 737.5 3346.6 731 3334 724.1 C 3319.6 716.6 3307 709.3 3296.1 702.1 C 3285.2 694.9 3276 687.2 3268.5 678.8 C 3261 670.5 3255.4 661 3251.7 650.4 C 3248 639.8 3246.1 627.3 3246.1 612.9 C 3246.1 577.3 3257.1 549 3279.3 528.1 C 3301.4 507.1 3329.7 496.7 3364.1 496.7 C 3400.4 496.6 3425.1 500.3 3438.3 507.7 Z" style="fill: rgb(255, 255, 255);"/>
  <path class="st1" d="M 3588.5 548.3 C 3588.5 555.8 3589.1 559.5 3590.2 559.5 C 3591.9 559.5 3594.2 557.8 3597.1 554.3 L 3605.7 543.1 C 3616.6 528.8 3629.5 517.4 3644.5 509.1 C 3659.4 500.8 3674.9 496.6 3691 496.6 C 3725.4 496.6 3752.3 508.4 3771.5 531.9 C 3790.7 555.4 3800.3 589 3800.3 632.7 L 3800.3 825.6 C 3800.3 834.8 3800.9 842 3802 847.1 C 3803.1 852.3 3806 856.3 3810.6 859.2 C 3815.2 862.6 3819.2 864.8 3822.7 865.7 C 3826.1 866.6 3829.2 867.4 3831.7 868.3 C 3834.3 869.2 3836.3 870.5 3837.7 872.2 C 3839.1 873.9 3839.9 877.1 3839.9 881.7 C 3839.9 889.7 3835.6 893.8 3827 893.8 C 3820.7 893.8 3812.2 892.9 3801.7 891.2 C 3791.1 889.5 3778.8 888.6 3764.6 888.6 C 3749.9 888.6 3736.6 889.5 3724.9 891.2 C 3713.2 892.9 3703.3 893.8 3695.3 893.8 C 3685 893.8 3679.8 889.2 3679.8 880 C 3679.8 876 3680.7 873.1 3682.4 871.4 C 3684.1 869.7 3686.4 868.5 3689.3 868 C 3692.2 867.4 3695.5 866.9 3699.2 866.3 C 3702.9 865.7 3706.8 864.6 3710.8 862.9 C 3719.4 858.9 3724.6 854.3 3726.3 849.1 C 3728 843.9 3728.9 836.2 3728.9 825.8 L 3728.9 651.8 C 3728.9 582.3 3706.1 547.6 3660.5 547.6 C 3639.7 547.6 3622.5 555.1 3608.9 570 C 3595.3 584.9 3588.5 607.9 3588.5 638.9 L 3588.5 825.8 C 3588.5 834.4 3589.4 841.6 3591.1 847.3 C 3592.8 853 3596.3 857.6 3601.4 861.1 C 3605.4 864 3609.4 865.6 3613.5 865.8 C 3617.5 866.1 3621.1 866.7 3624.3 867.5 C 3627.5 868.4 3630 869.7 3632.1 871.4 C 3634.1 873.1 3635.1 876.6 3635.1 881.7 C 3635.1 889.7 3630.2 893.8 3620.5 893.8 C 3614.8 893.8 3606.2 892.9 3594.7 891.2 C 3583.3 889.5 3569.3 888.6 3552.9 888.6 C 3536.4 888.6 3522.5 889.5 3511.1 891.2 C 3499.7 892.9 3490.5 893.8 3483.6 893.8 C 3473.3 893.8 3468.1 889.2 3468.1 880 C 3468.1 876 3469 873.3 3470.7 871.8 C 3472.4 870.4 3474.6 869.4 3477.2 868.8 C 3479.8 868.2 3482.9 867.7 3486.7 867.1 C 3490.4 866.5 3494.6 865.4 3499.2 863.7 C 3508.4 860.3 3513.7 855.8 3515.1 850.3 C 3516.5 844.9 3517.3 836.7 3517.3 825.8 L 3517.3 395.9 C 3517.3 383.3 3515.3 374.4 3511.3 369.2 C 3507.3 364 3503 360.5 3498.4 358.4 C 3493.8 356.4 3489.5 355 3485.5 354.1 C 3481.5 353.2 3479.5 350.5 3479.5 345.9 C 3479.5 339.6 3483.4 335.4 3491.1 333.4 C 3498.8 331.4 3508.2 328.4 3519.1 324.4 C 3539 316.9 3553.6 309.9 3562.9 303.3 C 3572.3 296.7 3578.4 293.4 3581.2 293.4 C 3585.7 293.4 3588.6 294.8 3589.7 297.7 C 3590.8 300.6 3591.4 304.6 3591.4 309.8 C 3591.4 317.8 3591 326.7 3590.1 336.5 C 3589.2 346.3 3588.8 356.9 3588.8 368.4 L 3588.8 548.3 Z" style="fill: rgb(255, 255, 255);"/>
</svg>