<?xml version="1.0" encoding="utf-8"?>
<svg version="1.1" viewBox="0 0 264 74.1" xmlns="http://www.w3.org/2000/svg">
  <path d="M 83.597 73.893 L 81.133 73.893 L 81.133 71.167 L 79.285 71.167 L 79.285 73.893 L 76.821 73.893 L 76.821 66.185 L 79.285 66.185 L 79.285 68.912 L 81.133 68.912 L 81.133 66.185 L 83.597 66.185 L 83.597 73.893 Z M 86.95 72.673 L 86.664 73.893 L 84.063 73.893 L 86.061 66.185 L 89.867 66.185 L 91.865 73.893 L 89.264 73.893 L 88.983 72.673 L 86.95 72.673 Z M 88.032 68.554 L 87.896 68.554 L 87.39 70.713 L 88.525 70.713 L 88.032 68.554 Z M 97.444 71.687 L 97.629 73.757 C 97.113 73.971 96.465 74.078 95.684 74.078 C 94.904 74.078 94.278 73.996 93.805 73.832 C 93.333 73.667 92.961 73.408 92.688 73.056 C 92.418 72.701 92.229 72.285 92.12 71.81 C 92.015 71.331 91.962 70.743 91.962 70.044 C 91.962 69.344 92.015 68.756 92.12 68.277 C 92.229 67.796 92.418 67.377 92.688 67.022 C 93.213 66.34 94.178 66 95.583 66 C 95.897 66 96.265 66.031 96.687 66.093 C 97.11 66.154 97.424 66.23 97.629 66.322 L 97.259 68.207 C 96.726 68.092 96.237 68.035 95.794 68.035 C 95.352 68.035 95.044 68.076 94.87 68.158 C 94.697 68.241 94.611 68.405 94.611 68.652 L 94.611 71.885 C 94.931 71.949 95.255 71.982 95.583 71.982 C 96.281 71.982 96.902 71.883 97.444 71.687 Z M 101.004 70.536 L 100.955 70.536 L 100.955 73.893 L 98.491 73.893 L 98.491 66.185 L 100.955 66.185 L 100.955 69.33 L 101.004 69.33 C 101.021 69.083 101.062 68.887 101.127 68.74 L 102.337 66.185 L 104.995 66.185 L 103.147 69.973 L 105.056 73.893 L 102.399 73.893 L 101.127 71.131 C 101.062 70.982 101.021 70.784 101.004 70.536 Z M 105.489 73.757 L 105.832 71.722 C 106.589 71.912 107.269 72.008 107.874 72.008 C 108.478 72.008 108.965 71.983 109.334 71.933 L 109.334 71.316 L 108.226 71.215 C 107.222 71.127 106.535 70.888 106.162 70.497 C 105.787 70.106 105.599 69.528 105.599 68.762 C 105.599 67.711 105.828 66.987 106.285 66.591 C 106.74 66.197 107.513 66 108.604 66 C 109.698 66 110.684 66.103 111.561 66.308 L 111.253 68.282 C 110.49 68.158 109.879 68.097 109.418 68.097 C 108.957 68.097 108.567 68.117 108.248 68.158 L 108.248 68.762 L 109.136 68.85 C 110.213 68.956 110.957 69.212 111.367 69.621 C 111.778 70.026 111.983 70.591 111.983 71.316 C 111.983 71.833 111.913 72.271 111.772 72.629 C 111.631 72.987 111.465 73.259 111.275 73.443 C 111.081 73.629 110.807 73.77 110.452 73.867 C 110.1 73.967 109.791 74.026 109.524 74.047 C 109.257 74.068 108.902 74.078 108.459 74.078 C 107.391 74.078 106.401 73.971 105.489 73.757 Z M 116.935 70.933 L 115.026 70.933 L 115.026 69.158 L 116.935 69.158 L 116.935 67.247 L 118.709 67.247 L 118.709 69.158 L 120.631 69.158 L 120.631 70.933 L 118.709 70.933 L 118.709 72.858 L 116.935 72.858 L 116.935 70.933 Z M 130.769 73.893 L 128.305 73.893 L 128.305 71.167 L 126.457 71.167 L 126.457 73.893 L 123.993 73.893 L 123.993 66.185 L 126.457 66.185 L 126.457 68.912 L 128.305 68.912 L 128.305 66.185 L 130.769 66.185 L 130.769 73.893 Z M 131.631 70.044 C 131.631 68.64 131.893 67.616 132.418 66.969 C 132.943 66.323 133.892 66 135.265 66 C 136.638 66 137.587 66.323 138.112 66.969 C 138.637 67.616 138.899 68.64 138.899 70.044 C 138.899 70.743 138.843 71.331 138.732 71.81 C 138.621 72.285 138.43 72.701 138.16 73.056 C 137.89 73.408 137.516 73.667 137.038 73.832 C 136.563 73.996 135.972 74.078 135.265 74.078 C 134.558 74.078 133.967 73.996 133.492 73.832 C 133.013 73.667 132.639 73.408 132.37 73.056 C 132.1 72.701 131.909 72.285 131.798 71.81 C 131.686 71.331 131.631 70.743 131.631 70.044 Z M 134.279 68.762 L 134.279 71.968 L 135.3 71.968 C 135.638 71.968 135.882 71.93 136.035 71.854 C 136.188 71.775 136.264 71.596 136.264 71.316 L 136.264 68.11 L 135.23 68.11 C 134.901 68.11 134.661 68.148 134.508 68.224 C 134.355 68.304 134.279 68.483 134.279 68.762 Z M 142.177 70.158 L 142.027 73.893 L 139.453 73.893 L 139.92 66.185 L 143.136 66.185 L 144.1 70.105 L 144.183 70.105 L 145.147 66.185 L 148.359 66.185 L 148.83 73.893 L 146.256 73.893 L 146.106 70.158 L 146.018 70.158 L 145.085 73.893 L 143.198 73.893 L 142.252 70.158 L 142.177 70.158 Z M 154.68 69.193 L 154.68 70.982 L 152.216 70.982 L 152.216 71.92 L 155.235 71.92 L 155.235 73.893 L 149.752 73.893 L 149.752 66.185 L 155.173 66.185 L 154.865 68.158 L 152.216 68.158 L 152.216 69.193 L 154.68 69.193 Z M 160.704 73.893 L 156.282 73.893 L 156.282 66.185 L 160.272 66.185 C 161.012 66.185 161.54 66.329 161.856 66.617 C 162.173 66.905 162.332 67.324 162.332 67.877 C 162.332 68.425 162.23 68.85 162.028 69.149 C 161.829 69.452 161.56 69.648 161.223 69.736 L 161.223 69.81 C 162.217 69.983 162.714 70.662 162.714 71.845 C 162.714 72.461 162.55 72.958 162.222 73.333 C 161.893 73.707 161.387 73.893 160.704 73.893 Z M 159.705 70.823 L 158.746 70.823 L 158.746 72.078 L 159.696 72.078 C 160.039 72.078 160.211 71.87 160.211 71.453 C 160.211 71.033 160.042 70.823 159.705 70.823 Z M 159.52 67.877 L 158.746 67.877 L 158.746 69.022 L 159.511 69.022 C 159.822 69.022 159.978 68.831 159.978 68.449 C 159.978 68.067 159.825 67.877 159.52 67.877 Z M 168.961 71.329 L 170.289 73.893 L 167.579 73.893 L 166.567 71.599 L 166.039 71.599 L 166.039 73.893 L 163.575 73.893 L 163.575 66.185 L 167.456 66.185 C 169.221 66.185 170.105 67.085 170.105 68.885 C 170.105 70.118 169.723 70.933 168.961 71.329 Z M 166.607 68.158 L 166.039 68.158 L 166.039 69.7 L 166.607 69.7 C 166.903 69.7 167.118 69.67 167.253 69.608 C 167.388 69.545 167.456 69.403 167.456 69.18 L 167.456 68.679 C 167.456 68.454 167.388 68.312 167.253 68.251 C 167.118 68.189 166.903 68.158 166.607 68.158 Z M 176.079 69.193 L 176.079 70.982 L 173.615 70.982 L 173.615 71.92 L 176.634 71.92 L 176.634 73.893 L 171.151 73.893 L 171.151 66.185 L 176.572 66.185 L 176.264 68.158 L 173.615 68.158 L 173.615 69.193 L 176.079 69.193 Z M 184.012 70.488 L 184.606 66.185 L 187.18 66.185 L 185.97 73.893 L 182.758 73.893 L 182.19 71.057 L 182.041 71.057 L 181.486 73.893 L 178.27 73.893 L 177.064 66.185 L 179.638 66.185 L 180.219 70.488 L 180.294 70.488 L 181.178 66.185 L 183.066 66.185 L 183.937 70.488 L 184.012 70.488 Z" style="fill: rgb(255, 255, 255); white-space: pre; transform-box: fill-box; transform-origin: 50% 50%;"/>
  <g transform="matrix(1, 0, 0, 1, 2.998231, -1.874479)">
    <path d="M 156.237 36.237 L 156.237 21.512 L 146.412 21.512 L 146.412 16.062 L 161.758 16.062 L 161.758 37.059 L 162.02 37.112 C 162.387 36.062 162.772 35.012 163.131 33.953 C 166.083 25.257 169.031 16.561 171.976 7.864 C 174.103 1.474 182.35 -0.218 186.821 4.819 C 187.622 5.721 188.227 6.779 188.599 7.926 C 192.256 18.786 195.919 29.64 199.587 40.489 C 199.719 40.882 199.832 41.276 199.972 41.748 L 177.987 41.748 L 177.987 36.359 L 192.422 36.359 C 191.818 34.609 191.276 32.938 190.716 31.294 L 183.183 9.063 C 182.767 7.325 180.921 6.345 179.246 6.972 C 178.254 7.37 177.517 8.225 177.269 9.264 L 169.868 31.206 C 168.678 34.706 167.479 38.205 166.272 41.783 L 144.339 41.783 C 137.777 41.783 133.097 37.514 132.895 30.961 C 132.712 24.837 132.755 18.783 132.939 12.702 C 133.18 7.157 137.662 2.736 143.21 2.571 C 149.229 2.44 155.248 2.571 161.268 2.571 C 161.422 2.583 161.574 2.605 161.723 2.641 L 161.723 8.039 L 144.339 8.039 C 140.673 8.039 138.381 10.332 138.381 13.997 L 138.381 30.62 C 138.234 33.85 140.89 36.511 144.12 36.368 L 155.248 36.368 C 155.555 36.298 155.861 36.263 156.237 36.237 Z" fill="white" style=""/>
    <path d="M 68.749 35.056 L 68.749 29.579 L 85.022 29.579 C 85.297 29.638 85.579 29.638 85.853 29.579 C 86.132 29.385 86.382 29.152 86.597 28.888 C 86.343 28.704 86.098 28.372 85.836 28.363 C 84.401 28.31 82.966 28.363 81.531 28.363 C 71.631 28.372 65.435 17.659 70.378 9.081 C 71.719 6.756 73.752 4.908 76.194 3.796 C 77.723 3.108 79.368 2.716 81.041 2.641 C 86.807 2.501 92.581 2.589 98.355 2.589 C 98.517 2.598 98.677 2.615 98.836 2.641 L 98.836 8.057 C 98.434 8.057 98.023 8.127 97.62 8.127 C 92.275 8.127 86.92 8.127 81.566 8.127 C 75.923 8.108 72.375 14.206 75.18 19.103 C 76.172 20.835 77.828 22.087 79.764 22.571 C 81.422 22.801 83.095 22.895 84.768 22.851 C 85.745 22.841 86.72 22.92 87.682 23.087 C 92.21 24.401 93.618 30.123 90.216 33.388 C 89.12 34.441 87.67 35.048 86.151 35.091 C 82.406 35.161 78.662 35.091 74.917 35.091 L 68.749 35.056 Z" fill="white" style=""/>
    <path d="M 68.749 41.783 L 68.749 36.237 L 70.035 36.237 C 75.39 36.237 80.744 36.237 86.098 36.237 C 91.729 36.232 95.243 30.135 92.424 25.261 C 91.362 23.425 89.556 22.141 87.472 21.74 C 85.594 21.559 83.705 21.509 81.82 21.591 C 79.785 21.675 77.844 20.728 76.658 19.072 C 75.271 17.278 75.03 14.849 76.037 12.816 C 76.907 10.687 78.986 9.3 81.286 9.317 C 87.052 9.22 92.826 9.317 98.6 9.317 C 98.692 9.338 98.78 9.37 98.863 9.413 L 98.863 14.793 L 82.397 14.793 C 82.086 14.755 81.769 14.77 81.461 14.837 C 81.2 14.964 81.006 15.197 80.927 15.476 C 80.927 15.616 81.225 15.966 81.426 16.001 C 81.945 16.074 82.469 16.103 82.992 16.088 C 85.433 16.088 87.874 15.931 90.262 16.762 C 95.954 18.752 99.505 24.421 98.81 30.41 C 97.883 36.884 92.913 41.626 86.64 41.783 C 80.7 41.888 74.751 41.783 68.749 41.783 Z" fill="white" style=""/>
    <path d="M 130.804 2.528 L 130.804 8.004 L 112.852 8.004 C 109.169 8.004 106.885 10.279 106.885 13.945 L 106.885 30.524 C 106.695 33.799 109.412 36.504 112.686 36.298 L 130.708 36.298 L 130.708 41.775 L 112.493 41.775 C 106.36 41.885 101.354 36.895 101.443 30.76 C 101.443 25.021 101.443 19.285 101.443 13.551 C 101.349 7.414 106.357 2.418 112.493 2.528 L 130.866 2.528 L 130.804 2.528 Z" fill="white" style=""/>
    <path d="M 190.637 35.003 L 177.925 35.003 L 177.925 31.101 L 177.707 31.049 C 177.479 31.687 177.243 32.317 177.024 32.956 C 176.149 35.633 175.196 38.31 174.321 40.996 C 174.246 41.522 173.751 41.881 173.227 41.792 C 171.381 41.748 169.535 41.792 167.584 41.792 C 168.73 38.406 169.833 35.134 170.944 31.871 C 173.458 24.423 175.974 16.978 178.494 9.535 C 178.652 8.683 179.378 8.052 180.244 8.013 C 181.163 7.995 181.954 8.661 182.09 9.57 C 182.09 9.667 182.169 9.763 182.204 9.859 L 187.269 24.96 C 188.284 27.975 189.296 30.987 190.305 33.997 C 190.436 34.312 190.524 34.644 190.637 35.003 Z M 180.296 23.306 L 178.415 28.94 L 182.169 28.94 C 181.556 27.112 180.979 25.371 180.296 23.306 Z" fill="white" style=""/>
    <path d="M 149.509 29.579 L 149.509 28.31 L 146.421 28.31 L 146.421 22.764 L 154.995 22.764 L 154.995 35.012 C 154.689 35.012 154.417 35.073 154.12 35.073 C 150.795 35.073 147.471 35.073 144.146 35.073 C 141.347 35.073 139.614 33.323 139.606 30.567 C 139.606 24.968 139.606 19.369 139.606 13.77 C 139.606 10.979 141.355 9.299 144.155 9.299 L 161.653 9.299 L 161.653 14.802 L 147.025 14.802 C 145.406 14.802 145.109 15.091 145.1 16.683 L 145.1 27.698 C 145.1 29.133 145.546 29.579 146.972 29.596 C 147.777 29.588 148.573 29.579 149.509 29.579 Z" fill="white" style=""/>
    <path d="M 130.804 9.404 L 130.804 14.785 L 129.536 14.785 C 124.785 14.785 120.026 14.785 115.275 14.785 C 114.47 14.785 113.823 14.925 113.639 16.001 L 114.82 16.001 C 118.53 16.001 122.231 16.001 125.94 16.001 C 126.736 16.001 126.972 16.237 126.946 17.016 C 126.894 18.468 126.946 19.929 126.946 21.451 L 108.162 21.451 L 108.162 15.695 C 108.162 14.89 108.162 14.085 108.162 13.28 C 108.224 11.154 109.906 9.43 112.029 9.317 C 118.154 9.317 124.339 9.317 130.489 9.317 C 130.598 9.333 130.704 9.363 130.804 9.404 Z" fill="white" style=""/>
    <path d="M 108.162 22.842 L 126.841 22.842 L 126.841 28.258 L 113.718 28.258 L 113.525 28.547 C 113.813 28.886 114.149 29.181 114.523 29.421 C 114.919 29.558 115.34 29.606 115.756 29.561 L 130.691 29.561 L 130.691 35.003 L 112.843 35.003 C 109.764 35.003 108.127 33.358 108.127 30.27 L 108.162 22.842 Z" fill="white" style=""/>
    <path d="M 71.321 48.896 L 76.903 48.896 C 76.903 50.296 76.903 51.643 76.903 52.991 C 76.903 54.872 77.227 55.204 79.081 55.204 L 87.367 55.204 C 87.783 55.244 88.202 55.175 88.583 55.003 C 88.933 54.775 89.344 54.277 89.3 53.944 C 89.128 53.531 88.754 53.237 88.311 53.166 C 86.465 53.087 84.611 53.166 82.756 53.122 L 81.522 53.122 L 81.522 50.27 C 81.872 50.27 82.24 50.226 82.607 50.226 L 90.892 50.226 C 93.631 50.226 95.083 51.53 95.162 54.023 C 95.404 56.397 93.514 58.447 91.129 58.397 C 89.379 58.494 87.699 58.441 85.993 58.441 C 82.738 58.441 79.484 58.441 76.238 58.441 C 75.437 58.438 74.638 58.341 73.858 58.152 C 72.411 57.9 71.351 56.648 71.339 55.178 C 71.269 53.113 71.321 51.057 71.321 48.896 Z" fill="white" style=""/>
    <path d="M 223.839 48.721 C 225.703 48.721 227.339 48.721 228.983 48.721 C 229.158 48.721 229.438 48.826 229.491 48.966 C 229.928 49.937 230.786 49.911 231.634 49.911 L 241.494 49.964 L 242.701 49.964 L 242.701 52.886 L 231.267 52.886 C 230.922 52.828 230.569 52.852 230.234 52.956 C 229.884 53.166 229.456 53.568 229.438 53.909 C 229.421 54.25 229.867 54.627 230.199 54.784 C 230.558 54.925 230.946 54.976 231.328 54.933 C 235.212 54.933 239.088 54.985 242.973 54.933 C 243.848 54.933 244.206 55.125 244.136 56.096 C 243.987 58.24 244.031 58.249 241.888 58.257 C 237.513 58.257 233.078 58.257 228.668 58.257 C 225.957 58.423 223.704 56.194 223.839 53.481 C 223.83 52.002 223.839 50.436 223.839 48.721 Z" fill="white" style=""/>
    <path d="M 53.815 53.087 C 53.588 54.609 53.946 55.064 55.364 55.082 C 59.213 55.143 63.062 55.178 66.903 55.222 L 68.224 55.222 L 68.224 58.292 C 67.944 58.292 67.638 58.345 67.349 58.345 C 62.45 58.345 57.551 58.284 52.66 58.222 C 49.467 58.222 48.058 56.735 48.067 53.568 L 48.067 48.747 C 49.817 48.747 51.479 48.747 53.115 48.747 C 53.336 48.79 53.523 48.932 53.623 49.132 C 53.885 50.069 54.576 50.235 55.372 50.235 L 66.501 50.235 C 66.702 50.235 66.912 50.235 67.209 50.287 L 67.209 53.069 L 53.815 53.087 Z" fill="white" style=""/>
    <path d="M 208.73 54.198 C 209.369 53.323 209.858 52.684 210.34 52.02 C 211.11 50.935 211.652 49.395 212.693 48.887 C 213.734 48.38 215.318 48.739 216.604 48.73 L 218.782 48.73 C 218.537 49.176 218.415 49.439 218.257 49.684 C 216.42 52.361 214.609 55.055 212.719 57.698 C 212.387 58.105 211.905 58.361 211.381 58.406 C 209.57 58.485 207.75 58.467 205.93 58.406 C 205.5 58.416 205.084 58.244 204.784 57.934 C 202.868 54.977 201.022 51.976 198.992 48.747 C 200.009 48.828 201.03 48.828 202.046 48.747 C 204.32 48.363 205.79 49.229 206.761 51.285 C 207.35 52.3 208.008 53.273 208.73 54.198 Z" fill="white" style=""/>
    <path d="M 120.857 58.362 L 115.118 58.362 L 114.987 55.615 L 104.847 55.615 L 104.847 51.67 L 115.057 51.67 L 115.057 48.844 L 120.857 48.844 L 120.857 58.362 Z" fill="white" style=""/>
    <path d="M 168.73 51.652 L 176.359 51.652 C 178.407 51.652 178.713 51.355 178.835 49.325 C 178.85 49.169 178.874 49.014 178.905 48.861 L 184.881 48.861 C 185.187 51.162 184.671 53.026 182.58 54.364 L 186.482 58.135 L 186.307 58.45 C 185.983 58.45 185.651 58.502 185.327 58.502 C 184.628 58.46 183.927 58.46 183.227 58.502 C 180.602 58.844 178.459 58.17 176.893 55.878 C 176.58 55.575 176.156 55.414 175.721 55.432 C 173.411 55.432 171.11 55.432 168.722 55.432 L 168.73 51.652 Z" fill="white" style=""/>
    <path d="M 13.929 47.636 C 13.929 46.762 13.929 45.93 13.929 45.108 C 13.929 44.907 14.27 44.679 14.507 44.566 C 14.711 44.522 14.924 44.522 15.128 44.566 C 23.206 44.566 31.282 44.566 39.353 44.566 C 40.295 44.549 41.238 44.608 42.17 44.741 C 43.612 44.932 44.681 46.174 44.655 47.628 L 13.929 47.636 Z" fill="white" style=""/>
    <path d="M 157.724 48.826 C 157.817 51.02 157.8 53.215 157.672 55.405 C 157.499 57.138 156.053 58.463 154.312 58.485 C 149.85 58.564 145.38 58.485 140.83 58.485 L 140.83 55.195 L 143.053 55.195 C 145.494 55.195 147.943 55.195 150.384 55.195 C 151.88 55.195 152.344 54.732 152.37 53.262 C 152.396 51.792 152.37 50.349 152.37 48.826 L 157.724 48.826 Z" fill="white" style=""/>
    <path d="M 157.497 47.803 L 134.418 47.803 L 134.418 44.609 L 152.064 44.609 C 152.904 44.601 153.744 44.654 154.575 44.767 C 156.101 45.045 157.278 46.268 157.497 47.803 Z" fill="white" style=""/>
    <path d="M 71.663 47.794 C 71.712 46.258 72.861 44.979 74.383 44.767 C 75.177 44.645 75.979 44.592 76.781 44.609 C 82.275 44.609 87.76 44.653 93.255 44.679 C 93.51 44.692 93.764 44.719 94.016 44.758 L 94.016 47.794 L 71.663 47.794 Z" fill="white" style=""/>
    <path d="M 184.539 47.776 L 162.029 47.776 C 162.343 46.125 163.708 44.879 165.38 44.714 C 166.491 44.601 167.619 44.618 168.739 44.609 C 172.615 44.609 176.499 44.609 180.375 44.609 C 182.351 44.503 184.114 45.844 184.539 47.776 Z" fill="white" style=""/>
    <path d="M 98.338 47.803 C 98.414 46.029 99.897 44.644 101.671 44.688 C 104.532 44.601 107.393 44.609 110.262 44.601 C 112.458 44.601 114.637 44.601 116.859 44.679 C 118.638 44.772 120.128 46.057 120.481 47.803 L 98.338 47.803 Z" fill="white" style=""/>
    <path d="M 223.9 47.558 L 223.9 44.644 L 243.926 44.644 L 243.926 47.558 L 223.9 47.558 Z" fill="white" style=""/>
    <path d="M 48.19 47.698 C 47.892 44.609 47.892 44.627 50.814 44.636 C 56.195 44.636 61.575 44.636 66.956 44.636 L 68.285 44.636 L 68.285 47.654 L 48.19 47.698 Z" fill="white" style=""/>
    <path d="M 161.556 58.319 C 161.556 55.222 161.556 52.265 161.556 49.299 C 161.654 49.039 161.879 48.846 162.151 48.791 C 163.901 48.747 165.651 48.791 167.401 48.791 L 167.401 58.319 L 161.556 58.319 Z" fill="white" style=""/>
    <path d="M 188.284 58.336 L 188.284 48.756 L 193.997 48.756 L 193.997 58.336 L 188.284 58.336 Z" fill="white" style=""/>
    <path d="M 103.744 58.327 C 101.995 58.327 100.411 58.327 98.81 58.327 C 98.583 58.327 98.171 58.039 98.163 57.881 C 98.163 54.889 98.163 51.888 98.163 48.87 L 103.744 48.87 L 103.744 58.327 Z" fill="white" style=""/>
    <path d="M 26.484 48.73 L 31.926 48.73 L 31.926 58.056 L 26.484 58.056 L 26.484 48.73 Z" fill="white" style=""/>
    <path d="M 44.664 48.826 L 44.664 58.135 L 39.414 58.135 L 39.414 48.826 L 44.664 48.826 Z" fill="white" style=""/>
    <path d="M 139.676 58.354 L 134.426 58.354 L 134.426 48.887 L 139.676 48.887 L 139.676 58.354 Z" fill="white" style=""/>
    <path d="M 19.109 58.056 L 13.859 58.056 C 13.859 55.055 13.859 52.203 13.859 49.307 C 13.927 49.041 14.13 48.828 14.393 48.747 C 15.924 48.704 17.455 48.747 19.047 48.747 L 19.109 58.056 Z" fill="white" style=""/>
    <path d="M 213.375 47.488 C 213.944 46.613 214.504 45.738 215.125 44.863 C 215.267 44.676 215.479 44.552 215.711 44.522 C 217.61 44.522 219.517 44.522 221.731 44.522 C 220.917 45.694 220.287 46.63 219.631 47.549 C 219.499 47.704 219.31 47.798 219.106 47.811 C 217.225 47.811 215.353 47.811 213.472 47.811 L 213.375 47.488 Z" fill="white" style=""/>
    <path d="M 196.368 44.566 C 198.284 44.566 199.92 44.566 201.556 44.566 C 201.859 44.573 202.144 44.706 202.343 44.933 C 202.964 45.808 203.524 46.683 204.198 47.75 C 202.264 47.75 200.506 47.75 198.747 47.75 C 198.545 47.725 198.363 47.617 198.24 47.453 C 197.645 46.578 197.076 45.668 196.368 44.566 Z" fill="white" style=""/>
    <path d="M 188.38 47.706 L 188.38 44.636 L 193.979 44.636 L 193.979 47.706 L 188.38 47.706 Z" fill="white" style=""/>
  </g>
</svg>