<?xml version="1.0" encoding="utf-8"?>
<svg viewBox="0 0 272.67 135" width="272.67" height="135" xmlns="http://www.w3.org/2000/svg">
  <g transform="matrix(0.9999999999999999, 0, 0, 0.9999999999999999, 0, 0)">
    <g>
      <path d="m0 0h272.67v135h-272.67zm262.67 9.0829h-253.25v116.92h253.25zm-90.275 112.98c-2.5357-1.7749-3.7662-4.1983-3.9525-9.4624-0.16732-4.7276 0.46384-7.0857 1.8145-9.2154 1.3268-2.0921 3.192-2.822 5.6954-2.6409 1.2353 0.0893 2.2824 0.37321 2.9606 0.85614 1.0831 0.77125 2.1574 2.7341 2.6951 4.4958 0.10103 0.33102 0.29409 1.0463 0.29409 1.0463s-0.80492 0.35708-1.9479 0.78589l-1.7844 0.66946-0.29349-0.88331c-0.43224-1.3009-1.2972-2.0345-2.2061-2.0345-2.2168 0-2.9419 1.5085-2.9419 6.3174 0 3.8404 0.69012 5.2724 2.1199 5.7712 1.5502 0.54075 2.3391-0.67375 2.916-1.9094 0.28697-0.61469 0.39515-1.3972 0.46049-2.0723l3.8389 1.7099c-0.588 3.7894-1.5114 4.9494-2.5202 5.916-0.87167 0.83512-1.6372 1.24-3.7477 1.3191-1.8558 0.0695-2.6251-0.12604-3.4007-0.66894zm-158.73-21.088h5.628l2.2696 12.543 2.2001-12.543h5.569v21.331h-3.3886v-15.557l-2.7533 15.557h-3.1312l-2.6926-15.809v15.809h-3.7009zm18.667 0h11.333v4.4279h-7.1667v3.5229h6.8333v4.747h-6.8333v3.919h7.5v4.7145h-11.667zm14 0 4.6856-0.0296c3.8612 0.0998 3.9175 0.2922 4.9405 1.0219 0.66532 0.47451 1.4837 1.5657 2 2.6667 0.82891 1.7676 1.2659 2.138 1.2659 7.1968 0 5.1821-0.76596 6.2687-1.3369 7.2576-1.3773 2.3856-1.8497 3.1901-6.9973 3.2178h-4.5577zm7.2169 16.2c1.8427-1.2907 1.9322-9.0341 0.12338-10.671-0.32501-0.29413-1.1345-0.62299-1.7989-0.73081l-1.208-0.0218v11.913h1.0925c0.60088 0 1.4069-0.22019 1.7911-0.4893zm8.1164-16.2h4.3333v21.331h-4.3333zm11.359 0h4.5843l5.1656 21.331h-4.368l-0.83696-3.332-4.7341 0.0181-0.68605 3.3139h-4.4026zm3.6278 13.214-1.3987-7.2877-1.4818 7.2877zm28.346-13.224 3.9933 0.0142 5.3123 11.597 0.0278-11.58h3.6666v21.333l-3.8333-0.01-5-11.482-0.1824 11.492h-3.9843zm16.333 0.0318h4.1339v7.5979h4.8662v-7.5979h4.3334v21.333h-4.3334v-8.598h-4.8662v8.5979h-4.1339zm129.33 5.3333h-4.3333v-5.3333h13v5.3333h-4.6667v16h-4zm-159.68-5.3639h11.333v4.4279h-7.1667v3.5229h6.8333v4.747h-6.8333v3.919h7.5v4.7145h-11.667zm50.408 0.0727h4.5843l5.1656 21.331h-4.368l-0.83695-3.332-4.7341 0.0181-0.68605 3.3139h-4.4026zm3.6278 13.214-1.3987-7.2877-1.4818 7.2877zm7.7201-13.295 3.9933 0.0142 5.3123 11.597 0.0278-11.58h3.6666v21.333l-3.8333-0.01-5-11.482-0.1824 11.492h-3.9843zm31.649-0.0533h11.333v4.4279h-7.1667v3.5229h6.8333v4.747h-6.8333v3.919h7.5v4.7145h-11.667zm32.394 0.14531h11.333v4.4279h-7.1667v3.5229h6.8333v4.747h-6.8333v3.919h7.5v4.7145h-11.667zm-18.504 1e-3h5.628l2.2696 12.543 2.2001-12.543h5.569v21.331h-3.3886v-15.557l-2.7533 15.557h-3.1312l-2.6926-15.809v15.809h-3.7009zm32.54-0.0364 3.9933 0.0142 5.3123 11.597 0.0278-11.58h3.6666v21.333l-3.8333-0.01-5-11.482-0.1824 11.492h-3.9843z" fill="#fdfdfd"/>
      <path d="m114.67 73.358h34.704c3.668 0 5.4352-0.9225 6.5944-1.5924 4.7261-2.7312 6.975-6.7979 6.9538-11.734-0.0211-4.9337-2.6877-9.8955-7.8466-12.301-1.8611-0.86787-1.9922-1.0636-10.073-1.0636-1.5492 0-3.5873 0.02965-5.1476 0-6.4629-0.12283-11.716-5.0959-11.676-10.282 0.0437-5.6015 2.4675-10.908 12.784-10.908h32.373v9.1887h-33.49c-1.8543 0-2.0796 0.67625-2.0796 1.2971 0 0.68335 0.25732 1.7219 2.0202 1.7219h6.1975c7.6131 0 9.116 0.18604 13.001 1.7551 6.0406 2.4399 11.515 8.2996 13.445 14.392 0.97855 3.0884 1.0417 8.7597 0.12806 11.5-2.4725 7.416-8.1954 13.289-14.953 15.943-1.7094 0.67154-5.1564 1.0685-8.825 1.0706h-34.11zm0-12.348h33.529c1.1224 0 2.0991-0.30683 2.0991-1.4964 0-0.93342-0.91527-1.5068-1.9515-1.5068h-6.751c-7.7782 0-9.4204-0.25533-13.151-1.9916-6.5962-3.0698-11.775-9.0789-13.262-15.387-0.65417-2.7752-0.64641-6.8445 0.018-9.4139 0.62436-2.4146 2.4035-6.0802 4.0198-8.282 1.7952-2.4456 5.5416-5.7234 8.0247-7.0211 4.3626-2.2799 9.1638-2.6374 13.601-2.6434h32.491v8.7318h-32.354c-9.9584 0-15.397 6.4609-15.438 13.605 0.16422 6.4098 4.5496 13.395 13.806 13.395 1.6603 0 7.9384-0.02755 9.702 0 4.2604 0.06656 8.1736 2.5413 10.173 5.9164 1.5466 2.6109 1.5255 6.3554 0.23243 9.1006-1.3714 2.9118-4.1456 5.3305-7.5988 5.9573-0.3613 0.06559-1.2184 0.26557-2.5254 0.26557h-34.664z" style="fill: rgb(255, 255, 255);"/>
      <path d="m209.83 83.297c-7.7715-0.99235-15.354-4.7666-21.009-10.457-4.5073-4.5359-10.483-14.005-10.492-24.318v-35.529l27.107 0.17418v30.88c0 4.6626 3.4304 10.585 11.568 12.034l-0.174 27.449-2.3333 0.01732c-1.2836 0.0095-3.3833-0.08642-4.6667-0.25029zm9.5-27.244c0.52344-0.03857 1.7467-0.20522 2.1765-0.32092l6.0611 27.475c-2.3298 0.26134-6.0002 0.32349-8.0428 0.32349zm3.0905-0.61358c0.78241-0.23692 1.9176-0.78881 2.3877-1.0878l14.986 24.72c-2.0467 1.2641-6.2654 2.9484-8.9666 3.5946zm3.5053-1.8534c0.42977-0.35263 1.4566-1.2978 1.7484-1.6395l21.156 20.093c-1.7205 1.9165-4.896 4.5651-7.1174 5.9589zm2.6915-2.8095c0.46663-0.569 1.017-1.4735 1.1818-1.9308l25.159 14.015c-0.47912 1.2849-3.5647 6.2316-4.8278 7.6472zm1.7444-3.5888c0.17635-0.4585 0.3876-1.5778 0.44188-2.0413l26.943 7.572c-0.26134 2.1778-1.2888 6.3404-2.1381 8.3001zm0.51683-3.9918c0.0386-0.37713 0.0671-0.99643 0.0709-1.3417l27.297-0.02092-0.0396 2.5c-0.0321 2.0272-0.15251 5.1121-0.26572 6.0309zm0.11809-30.196h27.25v27.333h-27.25z" style="fill: rgb(255, 255, 255);"/>
      <path d="m13.333 87h246v9.6667h-246zm0.0618-4.5833 52.508-68.417v56l43.283-56v68.417z" style="fill: rgb(255, 255, 255);"/>
    </g>
  </g>
</svg>