<?xml version="1.0" encoding="utf-8"?>
<svg version="1.1" viewBox="0 0 3839 2006.5" xmlns="http://www.w3.org/2000/svg">
  <path class="st0" d="M 1270.7 1464.2 C 1265.7 1436.2 1260.6 1407.5 1254.4 1378 C 1211.6 1380.5 1175.8 1389 1135.4 1398.6 C 1078.8 1412.1 1014.6 1427.3 918.9 1427.3 C 889.5 1427.3 858 1425.8 825 1422.9 C 802.8 1452.7 783.4 1480.4 756 1519.7 C 739.1 1544 719.9 1571.5 695.2 1606.3 C 685.1 1620.5 675.6 1634 666.6 1646.8 C 581.5 1767.6 538.8 1828.2 475.8 1864.5 C 433 1889.1 388.9 1901.1 340.8 1901.1 C 319.4 1901.1 300.4 1898.9 283.6 1896.9 L 278.8 1896.3 C 257.4 1893.8 236.7 1876.4 226 1852 C 215.3 1827.6 217.3 1802.5 231.5 1783 C 300.6 1688 363.2 1611.3 423.7 1537 C 454.1 1499.7 483.4 1463.7 512.2 1427.2 C 503.4 1427.5 494.1 1427.7 484.6 1427.7 C 444 1427.7 409.9 1424 383.3 1416.7 C 371.6 1413.5 361.3 1409.6 352.1 1404.9 C 351.6 1405.1 351 1405.2 350.5 1405.4 C 347.7 1406.3 345 1407.1 342.2 1407.9 C 253.5 1435.2 57.4 1487.7 11.2 1524 C 5.1 1528.8 1.6 1533.3 1.3 1537.4 C -6.3 1636.4 21.5 1725.2 58.2 1800 C 98.5 1882.1 149.4 1947.4 175.9 1990.6 C 176.5 1991.6 177.2 1992.6 177.9 1993.5 C 178 1993.7 178.2 1993.9 178.3 1994.1 C 179 1995 179.7 1995.8 180.5 1996.6 C 180.6 1996.7 180.8 1996.9 180.9 1997 C 181.6 1997.7 182.3 1998.4 183.1 1999 C 183.2 1999.1 183.3 1999.2 183.5 1999.3 C 184.3 2000 185.2 2000.5 186.1 2001.1 C 186.3 2001.2 186.5 2001.4 186.7 2001.5 C 187.6 2002 188.5 2002.5 189.5 2003 C 189.6 2003 189.7 2003.1 189.8 2003.1 C 190.7 2003.5 191.6 2003.9 192.6 2004.2 C 192.8 2004.3 193 2004.3 193.2 2004.4 C 194.2 2004.7 195.2 2005 196.3 2005.3 C 196.5 2005.4 196.7 2005.4 197 2005.4 C 198.1 2005.6 199.1 2005.8 200.2 2006 C 200.3 2006 200.3 2006 200.4 2006 C 201.6 2006.2 202.8 2006.3 204 2006.4 C 204.2 2006.4 204.5 2006.4 204.7 2006.4 C 205.9 2006.5 207.1 2006.5 208.4 2006.5 C 208.6 2006.5 208.8 2006.5 209 2006.5 C 210.1 2006.5 211.3 2006.4 212.4 2006.4 C 212.7 2006.4 213 2006.4 213.3 2006.3 C 214.7 2006.2 216 2006.1 217.4 2005.9 L 217.5 2005.9 C 218.9 2005.7 220.3 2005.5 221.7 2005.3 C 222 2005.2 222.3 2005.2 222.6 2005.1 C 225.5 2004.6 228.6 2004 231.7 2003.2 C 232 2003.1 232.3 2003.1 232.6 2003 C 234.1 2002.6 235.6 2002.3 237.1 2001.8 C 237.2 2001.8 237.3 2001.7 237.4 2001.7 C 239.1 2001.2 240.7 2000.8 242.5 2000.2 C 242.7 2000.1 242.9 2000.1 243.2 2000 C 244.8 1999.5 246.3 1999 247.9 1998.5 C 248.1 1998.4 248.3 1998.4 248.4 1998.3 C 250.2 1997.7 252 1997.1 253.8 1996.5 C 253.9 1996.5 253.9 1996.5 254 1996.4 C 255.8 1995.8 257.5 1995.2 259.3 1994.5 C 259.5 1994.4 259.7 1994.4 259.8 1994.3 C 263.6 1992.9 267.4 1991.5 271.4 1989.9 C 271.5 1989.9 271.6 1989.8 271.8 1989.8 C 286.4 1984.1 301.9 1977.5 318.1 1970.8 C 319.3 1970.3 320.4 1969.8 321.6 1969.4 C 322.8 1968.9 324 1968.4 325.2 1967.9 C 326.5 1967.4 327.9 1966.8 329.2 1966.3 C 329.9 1966 330.7 1965.7 331.4 1965.4 C 333.2 1964.7 335.1 1963.9 336.9 1963.2 C 337.1 1963.1 337.2 1963.1 337.4 1963 C 361.6 1953.3 428.9 1926.3 523.6 1890.6 C 523.7 1890.6 523.8 1890.5 523.9 1890.5 C 526.1 1889.7 528.3 1888.9 530.5 1888 C 530.6 1888 530.6 1888 530.7 1887.9 C 532.8 1887.1 534.9 1886.3 537.1 1885.5 C 537.4 1885.4 537.6 1885.3 537.9 1885.2 C 540 1884.4 542 1883.7 544.1 1882.9 C 544.4 1882.8 544.6 1882.7 544.9 1882.6 C 547.1 1881.8 549.3 1881 551.5 1880.1 C 551.6 1880.1 551.8 1880 551.9 1880 C 554 1879.2 556.1 1878.4 558.3 1877.6 C 558.7 1877.5 559 1877.3 559.4 1877.2 C 561.4 1876.4 563.4 1875.7 565.5 1874.9 C 565.9 1874.8 566.3 1874.6 566.7 1874.5 C 568.7 1873.8 570.7 1873 572.7 1872.3 C 573.2 1872.1 573.8 1871.9 574.3 1871.7 C 576.2 1871 578.2 1870.3 580.1 1869.5 C 580.7 1869.3 581.2 1869.1 581.8 1868.9 C 583.7 1868.2 585.6 1867.5 587.5 1866.8 C 588.2 1866.6 588.8 1866.3 589.5 1866.1 C 591.4 1865.4 593.3 1864.7 595.2 1864 C 595.8 1863.8 596.4 1863.6 597 1863.4 C 598.9 1862.7 600.8 1862 602.7 1861.3 C 603.4 1861 604.1 1860.8 604.9 1860.5 C 606.7 1859.8 608.5 1859.2 610.2 1858.5 C 611.1 1858.2 611.9 1857.9 612.8 1857.5 C 614.5 1856.9 616.2 1856.2 618 1855.6 C 618.9 1855.3 619.8 1854.9 620.7 1854.6 C 622.5 1854 624.2 1853.3 626 1852.7 C 626.9 1852.4 627.8 1852.1 628.7 1851.7 C 630.4 1851.1 632.1 1850.5 633.8 1849.8 C 634.8 1849.4 635.9 1849 637 1848.6 C 638.6 1848 640.3 1847.4 641.9 1846.8 C 642.9 1846.4 644 1846 645 1845.7 C 646.6 1845.1 648.3 1844.5 649.9 1843.9 C 651 1843.5 652.1 1843.1 653.2 1842.7 C 654.8 1842.1 656.4 1841.5 658 1841 C 659.2 1840.5 660.5 1840.1 661.7 1839.6 C 663.1 1839.1 664.6 1838.6 666 1838 C 667.3 1837.5 668.7 1837 670 1836.5 C 671.5 1836 673 1835.4 674.5 1834.9 C 675.8 1834.4 677 1834 678.3 1833.5 C 679.8 1833 681.3 1832.4 682.9 1831.9 C 684.2 1831.4 685.5 1830.9 686.9 1830.5 C 688.4 1830 689.9 1829.4 691.4 1828.9 C 692.8 1828.4 694.2 1827.9 695.6 1827.4 C 697 1826.9 698.4 1826.4 699.7 1825.9 C 701.2 1825.4 702.8 1824.8 704.3 1824.3 C 705.6 1823.8 707 1823.3 708.3 1822.9 C 709.8 1822.4 711.4 1821.8 712.9 1821.3 C 714.2 1820.8 715.6 1820.3 716.9 1819.9 C 718.5 1819.3 720.1 1818.8 721.6 1818.2 C 722.9 1817.7 724.3 1817.3 725.6 1816.8 C 727.2 1816.2 728.9 1815.6 730.5 1815.1 C 731.8 1814.6 733.1 1814.2 734.4 1813.7 C 736 1813.1 737.7 1812.5 739.3 1812 C 740.6 1811.5 741.9 1811.1 743.2 1810.6 C 745 1810 746.7 1809.4 748.5 1808.7 C 749.6 1808.3 750.8 1807.9 751.9 1807.5 C 753.7 1806.9 755.6 1806.2 757.4 1805.6 C 758.6 1805.2 759.8 1804.8 761 1804.4 C 762.8 1803.8 764.6 1803.1 766.4 1802.5 C 767.6 1802.1 768.8 1801.7 770 1801.2 C 771.9 1800.6 773.7 1799.9 775.6 1799.3 C 776.8 1798.9 777.9 1798.5 779.1 1798.1 C 780.9 1797.5 782.8 1796.8 784.6 1796.2 C 785.8 1795.8 787.1 1795.3 788.3 1794.9 C 790.1 1794.3 791.9 1793.6 793.8 1793 C 795 1792.6 796.2 1792.2 797.5 1791.7 C 799.4 1791 801.3 1790.4 803.2 1789.7 C 804.3 1789.3 805.5 1788.9 806.6 1788.5 C 808.6 1787.8 810.6 1787.1 812.6 1786.4 C 813.6 1786 814.7 1785.7 815.7 1785.3 C 817.8 1784.6 819.8 1783.9 821.9 1783.2 C 823 1782.8 824 1782.5 825.1 1782.1 C 827.2 1781.4 829.3 1780.7 831.4 1779.9 C 832.4 1779.6 833.4 1779.2 834.3 1778.9 C 836.5 1778.2 838.6 1777.4 840.8 1776.7 C 841.8 1776.4 842.8 1776 843.8 1775.7 C 845.9 1775 848 1774.3 850.2 1773.5 C 851.3 1773.1 852.3 1772.8 853.4 1772.4 C 855.5 1771.7 857.6 1771 859.7 1770.3 C 860.7 1770 861.8 1769.6 862.8 1769.3 C 865 1768.5 867.3 1767.8 869.5 1767 C 870.4 1766.7 871.3 1766.4 872.2 1766.1 C 874.5 1765.3 876.7 1764.6 879 1763.8 C 879.9 1763.5 880.9 1763.2 881.8 1762.9 C 884 1762.2 886.2 1761.4 888.4 1760.7 C 889.4 1760.4 890.5 1760 891.5 1759.6 C 893.7 1758.9 895.9 1758.1 898.1 1757.4 C 899.1 1757.1 900.1 1756.7 901.1 1756.4 C 903.4 1755.6 905.6 1754.9 907.9 1754.1 C 908.9 1753.8 909.9 1753.5 910.8 1753.1 C 913.1 1752.3 915.3 1751.6 917.6 1750.8 C 918.6 1750.5 919.5 1750.2 920.5 1749.8 C 922.8 1749 925.1 1748.3 927.5 1747.5 C 928.4 1747.2 929.4 1746.9 930.3 1746.6 C 932.6 1745.8 935 1745.1 937.4 1744.3 C 938.3 1744 939.2 1743.7 940.2 1743.4 C 942.5 1742.6 944.9 1741.9 947.2 1741.1 C 948.1 1740.8 949.1 1740.5 950 1740.2 C 952.3 1739.4 954.7 1738.7 957 1737.9 C 958 1737.6 958.9 1737.3 959.9 1737 C 962.3 1736.2 964.7 1735.5 967 1734.7 C 967.9 1734.4 968.8 1734.1 969.7 1733.8 C 972.1 1733 974.5 1732.3 976.9 1731.5 C 977.8 1731.2 978.7 1730.9 979.7 1730.6 C 982 1729.9 984.4 1729.1 986.7 1728.4 C 987.7 1728.1 988.7 1727.8 989.7 1727.4 C 992 1726.7 994.3 1725.9 996.6 1725.2 C 997.7 1724.9 998.7 1724.5 999.8 1724.2 C 1002.2 1723.4 1004.6 1722.7 1007 1721.9 C 1007.9 1721.6 1008.8 1721.3 1009.7 1721 C 1012.2 1720.2 1014.7 1719.4 1017.1 1718.7 C 1018 1718.4 1018.8 1718.2 1019.7 1717.9 C 1022.2 1717.1 1024.6 1716.4 1027.1 1715.6 C 1028 1715.3 1028.9 1715 1029.8 1714.8 C 1032.2 1714 1034.6 1713.3 1037 1712.5 C 1037.9 1712.2 1038.9 1711.9 1039.8 1711.6 C 1042.3 1710.8 1044.7 1710.1 1047.2 1709.3 C 1048.1 1709 1048.9 1708.8 1049.8 1708.5 C 1052.2 1707.7 1054.7 1707 1057.1 1706.2 C 1058 1705.9 1059 1705.6 1059.9 1705.3 C 1062.4 1704.5 1064.8 1703.8 1067.3 1703 C 1068.2 1702.7 1069.1 1702.5 1070 1702.2 C 1072.4 1701.5 1074.8 1700.7 1077.2 1700 C 1078.2 1699.7 1079.2 1699.4 1080.2 1699.1 C 1082.5 1698.4 1084.9 1697.7 1087.2 1697 C 1088.2 1696.7 1089.3 1696.4 1090.3 1696 C 1092.7 1695.3 1095.1 1694.6 1097.4 1693.8 C 1098.4 1693.5 1099.4 1693.2 1100.4 1692.9 C 1102.8 1692.2 1105.2 1691.4 1107.7 1690.7 C 1108.7 1690.4 1109.6 1690.1 1110.6 1689.8 C 1113 1689.1 1115.4 1688.4 1117.8 1687.7 C 1118.8 1687.4 1119.8 1687.1 1120.8 1686.8 C 1123.2 1686.1 1125.7 1685.3 1128.1 1684.6 C 1129 1684.3 1130 1684 1130.9 1683.8 C 1133.4 1683.1 1135.8 1682.4 1138.3 1681.6 C 1139.2 1681.3 1140.2 1681 1141.1 1680.8 C 1143.5 1680.1 1145.8 1679.4 1148.2 1678.7 C 1149.3 1678.4 1150.3 1678.1 1151.4 1677.8 C 1153.6 1677.2 1155.8 1676.5 1158 1675.9 C 1159.2 1675.5 1160.4 1675.2 1161.6 1674.8 C 1163.9 1674.1 1166.1 1673.5 1168.4 1672.8 C 1169.5 1672.5 1170.6 1672.2 1171.8 1671.8 C 1174 1671.2 1176.2 1670.5 1178.4 1669.9 C 1179.6 1669.6 1180.8 1669.2 1182 1668.9 C 1184.2 1668.3 1186.4 1667.7 1188.5 1667 C 1189.7 1666.7 1190.9 1666.3 1192.1 1666 C 1194.3 1665.4 1196.5 1664.8 1198.7 1664.1 C 1199.9 1663.8 1201.1 1663.4 1202.3 1663.1 C 1204.5 1662.5 1206.8 1661.8 1209 1661.2 C 1210.2 1660.9 1211.3 1660.6 1212.5 1660.2 C 1214.6 1659.6 1216.6 1659 1218.7 1658.5 C 1220 1658.1 1221.4 1657.7 1222.7 1657.4 C 1224.6 1656.9 1226.6 1656.3 1228.5 1655.8 C 1230 1655.4 1231.4 1655 1232.9 1654.6 C 1234.6 1654.1 1236.4 1653.7 1238.1 1653.2 C 1239.8 1652.7 1241.5 1652.3 1243.1 1651.8 C 1244.5 1651.4 1245.9 1651.1 1247.2 1650.7 C 1249.2 1650.2 1251.2 1649.6 1253.2 1649.1 C 1254.2 1648.8 1255.2 1648.6 1256.2 1648.3 C 1275.4 1643.1 1294.6 1638.1 1313.6 1633.2 C 1292.3 1586 1282.1 1528.7 1270.7 1464.2 Z" style="fill: rgb(255, 255, 255);"/>
  <path class="st0" d="M 1839.1 209.7 C 1762 264.8 1724.5 322.1 1695.9 403.6 C 1671.6 472.8 1679.5 549.5 1711.2 609.5 C 1721.8 629.5 1735 647.7 1750.5 663.2 L 1767.5 596.4 C 1735.6 536.9 1746.6 511.6 1746.6 511.6 L 1746.6 511.6 L 1746.6 511.6 L 1764.8 525.6 L 1789.6 544.7 L 1827.1 473.1 C 1818.7 449.6 1816.8 430.7 1816.9 418.4 C 1816.9 417.4 1816.9 416.4 1816.9 415.4 L 1816.9 415.3 C 1817.2 407 1818.3 402.5 1818.3 402.5 L 1818.3 402.5 L 1818.3 402.5 L 1864.6 435.5 C 1871.3 429.7 1878 424.7 1884.6 420.4 C 1917.4 398.9 1945.1 395.8 1945.1 395.8 C 1945.1 395.8 1876.8 480.6 1884.5 594.1 C 1885.5 608.9 1887.8 623 1891 636.1 C 1907.9 704.3 1952 748.8 1993.6 757.1 L 1995.8 692.1 C 1969.4 662.4 1969.4 615 1969.4 615 L 1969.4 615 L 1969.4 615 L 2002 633 L 2005.8 606.2 C 1982.7 580.9 1982.2 525.9 1982.2 525.9 L 1982.2 525.9 L 1982.2 525.9 L 2022.2 549.4 L 2055.4 496 C 2047.7 458.5 2052.1 424.4 2052.1 424.4 L 2052.1 424.4 L 2052.1 424.4 L 2090.7 461.9 C 2091.6 461.5 2092.5 461.1 2093.5 460.7 C 2098.8 458.4 2105.3 455.8 2112.6 453.1 C 2127.6 447.4 2145.9 441 2164.1 435.1 L 2164.1 435.1 L 2164.1 435.1 C 2161.7 437 2159.3 439.1 2157 441.2 C 2156.1 442.1 2155.1 443 2154.2 443.9 C 2154 444.1 2153.8 444.3 2153.6 444.5 C 2145.8 452.3 2138.8 461.2 2133 470.8 L 2133 470.8 C 2132.3 471.9 2131.7 473 2131.1 474.2 C 2130.9 474.5 2130.8 474.7 2130.6 475 C 2130.2 475.8 2129.8 476.6 2129.4 477.3 C 2129.1 477.9 2128.7 478.6 2128.4 479.2 C 2128.3 479.4 2128.2 479.7 2128.1 479.9 C 2125.4 485.4 2123.2 491.2 2121.4 497.1 C 2115.4 517.5 2117.9 539.9 2127.9 559 C 2139.2 580.7 2160.2 598.3 2189.1 604.5 C 2189.8 604.6 2190.5 604.8 2191.1 604.9 C 2192 605.1 2193 605.3 2193.9 605.4 C 2194.6 605.5 2195.3 605.6 2196 605.7 C 2196.9 605.8 2197.8 606 2198.6 606.1 C 2199.3 606.2 2200 606.2 2200.7 606.3 C 2201.5 606.4 2202.4 606.5 2203.2 606.5 C 2203.9 606.5 2204.6 606.6 2205.2 606.6 C 2206 606.6 2206.8 606.7 2207.6 606.7 C 2208.5 606.7 2209.3 606.7 2210.2 606.7 C 2210.6 606.7 2211 606.7 2211.4 606.7 C 2212.6 606.7 2213.7 606.6 2214.8 606.5 C 2214.9 606.5 2215 606.5 2215.1 606.5 C 2216.3 606.4 2217.5 606.2 2218.7 606.1 C 2219.1 606 2219.4 606 2219.8 605.9 C 2220.6 605.8 2221.4 605.6 2222.2 605.5 C 2222.6 605.4 2223.1 605.3 2223.5 605.2 C 2224.2 605 2224.9 604.9 2225.6 604.7 C 2226 604.6 2226.5 604.5 2226.9 604.3 C 2227.6 604.1 2228.2 603.9 2228.9 603.7 C 2229.3 603.6 2229.7 603.4 2230.1 603.3 C 2230.8 603.1 2231.4 602.8 2232.1 602.6 C 2232.5 602.5 2232.8 602.3 2233.2 602.2 C 2234 601.9 2234.7 601.6 2235.4 601.2 C 2235.7 601.1 2235.9 601 2236.2 600.9 C 2237.2 600.4 2238.1 600 2239.1 599.5 C 2239.3 599.4 2239.4 599.3 2239.6 599.2 C 2240.4 598.8 2241.1 598.4 2241.9 597.9 C 2242.2 597.7 2242.5 597.5 2242.8 597.4 C 2243.4 597 2244 596.6 2244.6 596.2 C 2244.9 596 2245.2 595.8 2245.5 595.6 C 2246.1 595.2 2246.6 594.8 2247.1 594.4 C 2247.4 594.2 2247.7 593.9 2248 593.7 C 2248.5 593.3 2249.1 592.8 2249.6 592.4 C 2249.9 592.2 2250.1 592 2250.4 591.7 C 2251 591.2 2251.6 590.7 2252.1 590.2 C 2252.3 590 2252.5 589.8 2252.7 589.7 C 2254.2 588.3 2255.7 586.8 2257.1 585.2 C 2257.2 585 2257.4 584.9 2257.5 584.7 C 2258.1 584.1 2258.6 583.5 2259.1 582.8 C 2259.3 582.6 2259.5 582.3 2259.7 582.1 C 2260.2 581.5 2260.6 580.9 2261.1 580.4 C 2261.3 580.1 2261.5 579.9 2261.7 579.6 C 2262.1 579 2262.6 578.4 2263 577.8 C 2263.2 577.6 2263.4 577.3 2263.5 577.1 C 2263.9 576.5 2264.4 575.8 2264.8 575.2 C 2264.9 575 2265.1 574.8 2265.2 574.6 C 2265.7 573.8 2266.3 573 2266.8 572.1 L 2266.9 572 C 2268 570.2 2269 568.4 2270 566.5 C 2270.1 566.3 2270.2 566.1 2270.3 565.9 C 2270.7 565.2 2271 564.5 2271.4 563.8 C 2271.5 563.5 2271.7 563.3 2271.8 563 C 2272.1 562.3 2272.4 561.7 2272.7 561 C 2272.8 560.7 2273 560.4 2273.1 560.2 C 2273.4 559.5 2273.7 558.9 2274 558.2 C 2274.1 557.9 2274.2 557.7 2274.3 557.4 C 2274.6 556.7 2274.9 555.9 2275.2 555.2 C 2275.3 555 2275.4 554.8 2275.4 554.6 C 2275.8 553.7 2276.1 552.7 2276.5 551.8 C 2277.1 550.3 2277.5 548.8 2278 547.3 C 2278.2 546.8 2278.4 546.3 2278.5 545.8 C 2278.6 545.6 2278.6 545.3 2278.7 545 C 2287.6 514.6 2282.1 479.5 2270.9 453.4 C 2270.9 453.5 2271 453.5 2271 453.6 L 2271 453.5 C 2336.4 535.4 2432 681.2 2490.1 813.9 C 2495.7 806.3 2500.6 798.6 2503.8 791 C 2509.2 778.3 2523.9 748.7 2554.2 719.2 C 2547.9 707.4 2541.1 695.4 2534 683.2 C 2533.9 683 2533.8 682.8 2533.6 682.6 C 2532 679.8 2530.3 677.1 2528.6 674.3 C 2528.3 673.9 2528.1 673.4 2527.8 673 C 2526.2 670.3 2524.6 667.7 2522.9 665 C 2522.6 664.4 2522.2 663.9 2521.9 663.3 C 2520.3 660.7 2518.6 658.1 2517 655.4 C 2516.6 654.8 2516.3 654.2 2515.9 653.7 C 2514.2 651 2512.5 648.4 2510.8 645.7 C 2510.5 645.2 2510.2 644.7 2509.8 644.2 C 2508 641.4 2506.2 638.6 2504.3 635.8 C 2504.2 635.7 2504.1 635.5 2504 635.3 C 2496 623.3 2487.5 611.1 2478.6 598.8 C 2478.1 598.2 2477.7 597.5 2477.2 596.9 C 2475.5 594.5 2473.7 592.2 2471.9 589.8 C 2471.1 588.8 2470.4 587.7 2469.6 586.7 C 2467.9 584.5 2466.3 582.3 2464.6 580.1 C 2463.7 578.9 2462.7 577.7 2461.8 576.4 C 2460.2 574.3 2458.5 572.2 2456.9 570.1 C 2455.9 568.8 2454.8 567.5 2453.8 566.2 C 2452.2 564.1 2450.5 562.1 2448.9 560 C 2447.8 558.6 2446.7 557.2 2445.6 555.9 C 2443.9 553.9 2442.3 551.8 2440.6 549.8 C 2439.4 548.4 2438.2 547 2437.1 545.6 C 2435.4 543.6 2433.7 541.6 2432 539.6 C 2430.8 538.2 2429.5 536.7 2428.3 535.3 C 2426.6 533.3 2424.9 531.3 2423.1 529.3 C 2421.9 527.9 2420.6 526.5 2419.4 525.1 C 2413.1 518 2406.7 510.8 2400 503.7 C 2398.4 502 2396.9 500.4 2395.3 498.7 C 2393.6 496.9 2391.9 495.2 2390.3 493.4 C 2388.7 491.7 2387 490 2385.4 488.2 C 2383.7 486.5 2382 484.7 2380.3 483 C 2378.6 481.3 2376.9 479.5 2375.2 477.8 C 2373.5 476.1 2371.7 474.3 2370 472.6 C 2368.2 470.8 2366.4 469.1 2364.7 467.3 C 2363 465.6 2361.2 463.9 2359.4 462.2 C 2357.6 460.4 2355.7 458.6 2353.8 456.9 C 2352 455.2 2350.2 453.5 2348.5 451.8 C 2346.6 450 2344.6 448.2 2342.7 446.4 C 2340.9 444.7 2339.1 443.1 2337.3 441.4 C 2335.3 439.5 2333.2 437.7 2331.1 435.8 C 2329.3 434.2 2327.6 432.6 2325.8 431 C 2323.6 429 2321.3 427 2319 425 C 2317.3 423.5 2315.7 422.1 2314 420.6 C 2310.9 417.9 2307.8 415.2 2304.6 412.6 C 2303.7 411.9 2302.9 411.1 2302 410.4 C 2301.4 409.8 2300.9 409.4 2300.4 408.8 C 2300.4 408.8 2300.4 408.8 2300.5 408.8 L 2300.5 408.8 C 2303.7 408.7 2306.8 408.7 2310 408.7 C 2310.1 408.7 2310.3 408.7 2310.4 408.7 C 2310.6 408.7 2310.9 408.7 2311.1 408.7 C 2312.6 408.7 2314.2 408.7 2315.7 408.7 C 2316.2 408.7 2316.7 408.7 2317.2 408.7 C 2318.7 408.7 2320.1 408.8 2321.6 408.8 C 2322.1 408.8 2322.6 408.8 2323.1 408.9 C 2324.5 409 2326 409 2327.4 409.1 C 2327.8 409.1 2328.3 409.2 2328.7 409.2 C 2330.2 409.3 2331.6 409.4 2333.1 409.5 C 2333.3 409.5 2333.4 409.5 2333.6 409.5 C 2338.1 409.9 2342.5 410.3 2346.8 410.9 C 2347.5 411 2348.3 411.1 2349 411.2 C 2349.9 411.3 2350.8 411.5 2351.7 411.6 C 2352.6 411.7 2353.4 411.9 2354.2 412 C 2355 412.1 2355.8 412.3 2356.6 412.4 C 2357.5 412.6 2358.4 412.7 2359.3 412.9 C 2360.1 413 2360.8 413.2 2361.5 413.4 C 2362.4 413.6 2363.3 413.8 2364.2 414 C 2364.9 414.2 2365.6 414.3 2366.3 414.5 C 2367.2 414.7 2368.1 414.9 2369 415.2 C 2369.6 415.4 2370.3 415.5 2370.9 415.7 C 2371.8 415.9 2372.7 416.2 2373.6 416.5 C 2374.2 416.7 2374.8 416.8 2375.4 417 C 2376.3 417.3 2377.3 417.6 2378.2 417.9 C 2378.7 418.1 2379.2 418.2 2379.8 418.4 C 2380.8 418.7 2381.8 419.1 2382.8 419.4 C 2383.2 419.5 2383.6 419.7 2384 419.8 C 2385.4 420.3 2386.7 420.8 2388.1 421.4 L 2407.9 397.3 L 2423.4 378.4 L 2423.4 378.4 L 2423.4 378.4 C 2423.4 378.4 2431.2 398.3 2433.1 421.6 C 2433.7 429.8 2433.7 438.4 2432.2 446.7 L 2445 460.2 L 2455.3 471 L 2502.7 434.6 L 2502.7 434.6 L 2502.7 434.6 C 2502.7 434.6 2508.2 479.2 2493.3 509 L 2495.3 511.3 L 2511.5 530.5 L 2534 510.1 L 2547.9 497.5 L 2547.9 497.5 L 2547.9 497.5 C 2547.9 497.5 2545.8 511.9 2543.6 529.2 C 2542 542.3 2540.3 557.1 2539.6 568.5 L 2551.2 606.5 C 2567.7 583.8 2577.2 559.8 2581.5 533.8 C 2582.3 528.9 2583 523.9 2583.4 518.9 C 2583.4 518.6 2583.5 518.3 2583.5 518 C 2583.9 513.6 2584.2 509.1 2584.3 504.5 C 2584.4 500.8 2584.5 497.1 2584.5 493.3 C 2584.5 492.9 2584.5 492.6 2584.5 492.2 C 2584.1 444.7 2572.4 390.8 2559.4 327.2 L 2559.4 327.2 L 2559.4 327.2 L 2559.4 327.2 L 2559.4 327.2 L 2559.5 327.2 C 2559.5 327.2 2559.6 327.2 2559.7 327.2 C 2559.7 327.2 2559.8 327.2 2559.8 327.3 C 2559.9 327.3 2560 327.4 2560.2 327.5 C 2560.3 327.5 2560.3 327.6 2560.4 327.6 C 2560.6 327.7 2560.8 327.8 2561 327.9 C 2561.1 327.9 2561.1 328 2561.2 328 C 2561.4 328.1 2561.7 328.3 2561.9 328.4 C 2562 328.5 2562.1 328.5 2562.2 328.6 C 2562.5 328.7 2562.7 328.9 2563 329.1 C 2563.1 329.2 2563.3 329.3 2563.4 329.4 C 2563.7 329.6 2564 329.7 2564.3 329.9 C 2564.5 330 2564.7 330.1 2564.9 330.3 C 2565.2 330.5 2565.5 330.6 2565.8 330.8 C 2566.1 331 2566.4 331.1 2566.7 331.3 C 2567 331.5 2567.2 331.6 2567.5 331.8 C 2567.9 332 2568.3 332.3 2568.7 332.5 C 2568.9 332.6 2569.1 332.8 2569.3 332.9 C 2569.8 333.2 2570.3 333.5 2570.7 333.8 C 2570.9 333.9 2571.1 334 2571.3 334.1 C 2571.8 334.4 2572.4 334.8 2572.9 335.1 C 2573.1 335.2 2573.2 335.3 2573.4 335.4 C 2574 335.8 2574.6 336.1 2575.2 336.5 C 2575.4 336.6 2575.5 336.7 2575.7 336.8 C 2576.4 337.2 2577.1 337.7 2577.8 338.1 C 2577.9 338.2 2578 338.2 2578.1 338.3 C 2578.8 338.8 2579.6 339.2 2580.4 339.7 C 2580.5 339.8 2580.6 339.8 2580.6 339.9 C 2581.3 340.4 2582.1 340.8 2582.8 341.3 C 2582.9 341.4 2583.1 341.5 2583.2 341.6 C 2583.9 342 2584.6 342.5 2585.4 343 C 2585.6 343.1 2585.7 343.2 2585.9 343.3 C 2586.5 343.7 2587.2 344.1 2587.9 344.5 C 2588.2 344.7 2588.5 344.9 2588.8 345.1 C 2589.4 345.5 2589.9 345.8 2590.5 346.2 C 2590.9 346.4 2591.2 346.7 2591.6 346.9 C 2592.1 347.2 2592.6 347.5 2593.1 347.8 C 2593.6 348.1 2594.1 348.4 2594.6 348.7 C 2595 348.9 2595.3 349.2 2595.7 349.4 C 2596.3 349.8 2596.9 350.2 2597.5 350.6 C 2597.8 350.8 2598.1 351 2598.4 351.2 C 2599.1 351.6 2599.8 352.1 2600.5 352.5 C 2600.7 352.6 2600.8 352.7 2601 352.8 C 2601.8 353.3 2602.6 353.9 2603.4 354.4 C 2603.4 354.4 2603.5 354.4 2603.5 354.5 C 2612.9 360.7 2622.2 367 2629.2 372.2 C 2631 370 2633.2 367.4 2635.5 364.6 C 2642.2 356.5 2650.2 346.6 2655 340.7 C 2657.6 337.5 2659.2 335.5 2659.2 335.5 C 2659.2 335.5 2660 337 2661.1 339.7 C 2664.8 348.3 2672.3 368.7 2671.1 389.6 C 2671 392.1 2670.7 394.5 2670.3 397 L 2688.9 421.4 L 2723 466.1 C 2730.1 442 2740.1 399.9 2733.2 354.9 C 2729.3 329.3 2720 302.8 2701.7 278 C 2671.4 237.2 2634.7 212.3 2591.7 189.6 C 2576.8 181.7 2561.2 174.1 2544.8 166.2 L 2544.8 166.2 L 2544.8 166.2 C 2544.8 166.2 2544.8 166.2 2544.8 166.1 C 2544.2 163.7 2543.6 161.3 2543 159 C 2542.9 158.7 2542.8 158.4 2542.8 158.1 C 2542.2 155.9 2541.5 153.7 2540.8 151.6 C 2540.7 151.2 2540.6 150.9 2540.4 150.5 C 2539.7 148.4 2538.9 146.4 2538.1 144.4 C 2538 144 2537.8 143.7 2537.7 143.3 C 2536.9 141.3 2536.1 139.3 2535.2 137.4 C 2535.1 137.1 2535 136.9 2534.8 136.6 C 2533.9 134.6 2532.9 132.7 2531.9 130.8 C 2531.9 130.7 2531.8 130.7 2531.8 130.6 C 2530.8 128.7 2529.8 126.9 2528.7 125.1 C 2528.6 124.9 2528.5 124.7 2528.3 124.5 C 2527.3 122.8 2526.2 121.1 2525.1 119.4 C 2524.9 119.1 2524.7 118.8 2524.5 118.6 C 2523.4 117 2522.3 115.4 2521.2 113.9 C 2521 113.6 2520.8 113.4 2520.6 113.1 C 2519.4 111.6 2518.3 110.1 2517 108.7 C 2516.8 108.5 2516.6 108.3 2516.4 108.1 C 2515.1 106.6 2513.8 105.2 2512.5 103.8 C 2512.4 103.7 2512.3 103.6 2512.3 103.6 C 2511 102.2 2509.7 100.9 2508.3 99.6 C 2508.2 99.5 2508 99.3 2507.9 99.2 C 2506.6 97.9 2505.2 96.7 2503.8 95.5 C 2503.6 95.3 2503.3 95.1 2503.1 94.9 C 2501.7 93.7 2500.4 92.6 2499 91.5 C 2498.7 91.3 2498.5 91.1 2498.2 90.9 C 2496.8 89.8 2495.4 88.8 2493.9 87.8 C 2493.7 87.6 2493.4 87.5 2493.2 87.3 C 2491.7 86.3 2490.2 85.3 2488.7 84.3 C 2488.6 84.2 2488.4 84.1 2488.3 84 C 2486.8 83.1 2485.3 82.2 2483.7 81.3 C 2483.5 81.2 2483.4 81.1 2483.2 81 C 2481.7 80.1 2480.1 79.3 2478.5 78.5 C 2478.2 78.4 2477.9 78.2 2477.6 78.1 C 2476.1 77.3 2474.5 76.6 2473 75.9 C 2472.7 75.8 2472.3 75.6 2472 75.5 C 2470.5 74.8 2468.9 74.1 2467.3 73.5 C 2467 73.4 2466.7 73.2 2466.4 73.1 C 2464.8 72.5 2463.2 71.8 2461.6 71.2 C 2461.4 71.1 2461.1 71 2460.9 71 C 2459.3 70.4 2457.7 69.9 2456.2 69.4 C 2456 69.3 2455.8 69.3 2455.6 69.2 C 2454 68.7 2452.3 68.2 2450.7 67.7 C 2450.4 67.6 2450 67.5 2449.7 67.4 C 2448.1 67 2446.5 66.5 2444.9 66.1 C 2444.5 66 2444.1 65.9 2443.7 65.8 C 2442.1 65.4 2440.5 65 2439 64.7 C 2438.6 64.6 2438.2 64.5 2437.9 64.5 C 2436.3 64.2 2434.7 63.8 2433.1 63.5 C 2432.8 63.4 2432.5 63.4 2432.2 63.3 C 2430.7 63 2429.1 62.8 2427.6 62.5 C 2427.4 62.5 2427.1 62.4 2426.9 62.4 C 2425.3 62.2 2423.7 61.9 2422.1 61.7 C 2421.7 61.7 2421.4 61.6 2421 61.6 C 2419.4 61.4 2417.9 61.2 2416.3 61.1 C 2415.9 61.1 2415.5 61 2415.1 61 C 2413.6 60.9 2412 60.7 2410.5 60.6 C 2410.1 60.6 2409.7 60.5 2409.3 60.5 C 2407.8 60.4 2406.2 60.3 2404.7 60.2 C 2404.4 60.2 2404 60.2 2403.7 60.2 C 2402.2 60.1 2400.8 60.1 2399.4 60 C 2399.1 60 2398.8 60 2398.5 60 C 2397 60 2395.6 60 2394.1 60 C 2393.8 60 2393.5 60 2393.1 60 C 2390.2 60 2387.2 60.1 2384.4 60.2 C 2384.3 60.2 2384.1 60.2 2384 60.2 C 2381.1 60.3 2378.2 60.5 2375.4 60.7 L 2375.3 60.7 L 2375.3 60.6 C 2375.3 60 2375.2 59.4 2375.1 58.8 C 2375.1 58.7 2375.1 58.5 2375 58.4 C 2374.9 57.8 2374.8 57.2 2374.7 56.5 C 2374.7 56.3 2374.6 56.2 2374.6 56 C 2374.5 55.4 2374.4 54.7 2374.2 54.1 C 2374.2 54 2374.1 53.8 2374.1 53.7 C 2374 53.1 2373.8 52.5 2373.6 51.9 C 2373.6 51.8 2373.5 51.6 2373.5 51.5 C 2373.3 50.8 2373.1 50.2 2372.9 49.5 C 2372.8 49.3 2372.8 49.1 2372.7 49 C 2372.5 48.3 2372.2 47.6 2372 47 C 2371.9 46.8 2371.9 46.7 2371.8 46.5 C 2371.5 45.8 2371.2 45.2 2370.9 44.5 C 2370.9 44.4 2370.8 44.3 2370.8 44.2 C 2370.5 43.5 2370.1 42.8 2369.8 42.1 C 2369.7 41.9 2369.6 41.8 2369.5 41.6 C 2369.1 40.9 2368.7 40.2 2368.3 39.5 C 2368.2 39.3 2368.1 39.1 2368 39 C 2367.6 38.3 2367.1 37.6 2366.6 36.9 C 2366.5 36.8 2366.4 36.7 2366.3 36.5 C 2365.8 35.8 2365.4 35.2 2364.9 34.5 C 2364.8 34.4 2364.7 34.2 2364.6 34.1 C 2364.1 33.4 2363.5 32.7 2362.9 32 C 2362.7 31.8 2362.6 31.6 2362.4 31.5 C 2361.8 30.8 2361.2 30.1 2360.5 29.4 C 2360.4 29.2 2360.2 29.1 2360.1 28.9 C 2359.4 28.2 2358.7 27.6 2358 26.9 C 2357.9 26.8 2357.8 26.8 2357.8 26.7 C 2357 26 2356.2 25.3 2355.4 24.6 C 2355.2 24.4 2355 24.3 2354.9 24.1 C 2354.1 23.4 2353.2 22.8 2352.4 22.1 C 2352.2 21.9 2352 21.8 2351.8 21.6 C 2350.9 20.9 2349.9 20.3 2349 19.6 C 2348.9 19.5 2348.7 19.4 2348.6 19.3 C 2347.7 18.7 2346.7 18.1 2345.7 17.5 C 2345.5 17.4 2345.3 17.3 2345.1 17.2 C 2344 16.6 2342.9 16 2341.8 15.4 C 2341.5 15.3 2341.3 15.1 2341 15 C 2339.9 14.4 2338.7 13.8 2337.5 13.3 C 2337.3 13.2 2337 13.1 2336.8 13 C 2335.6 12.5 2334.3 11.9 2333 11.4 C 2332.9 11.4 2332.8 11.3 2332.7 11.3 C 2331.3 10.8 2329.9 10.2 2328.5 9.7 C 2328.2 9.6 2327.9 9.5 2327.6 9.4 C 2326.2 8.9 2324.7 8.4 2323.2 8 C 2322.9 7.9 2322.5 7.8 2322.2 7.7 C 2320.7 7.2 2319.1 6.8 2317.4 6.4 C 2317.2 6.3 2317 6.3 2316.8 6.3 C 2315.2 5.9 2313.6 5.5 2312 5.1 C 2311.7 5 2311.4 5 2311.1 4.9 C 2309.4 4.5 2307.6 4.2 2305.8 3.8 C 2305.4 3.7 2305 3.7 2304.6 3.6 C 2302.8 3.3 2300.9 3 2299 2.7 C 2298.7 2.6 2298.3 2.6 2297.9 2.6 C 2296 2.3 2294 2.1 2292 1.8 C 2291.8 1.8 2291.7 1.8 2291.5 1.7 C 2289.4 1.5 2287.2 1.3 2285 1.1 C 2284.6 1.1 2284.1 1 2283.7 1 C 2281.5 0.8 2279.3 0.7 2277.1 0.5 C 2276.6 0.5 2276.2 0.5 2275.7 0.4 C 2273.4 0.3 2271 0.2 2268.5 0.1 C 2268.3 0.1 2268 0.1 2267.8 0.1 C 2265.4 0 2263 0 2260.5 0 C 2260.1 0 2259.6 0 2259.2 0 C 2257.8 0 2256.3 0 2254.9 0 C 2254.5 0 2254 0 2253.6 0 C 2251.7 0 2249.7 0.1 2247.8 0.1 C 2247.3 0.1 2246.7 0.1 2246.2 0.2 C 2244.7 0.3 2243.2 0.3 2241.7 0.4 C 2241 0.4 2240.3 0.5 2239.6 0.5 C 2238.2 0.6 2236.8 0.6 2235.4 0.7 C 2234.6 0.7 2233.9 0.8 2233.1 0.8 C 2231.7 0.9 2230.3 1 2228.8 1.1 C 2228 1.2 2227.3 1.2 2226.5 1.3 C 2225 1.4 2223.4 1.6 2221.9 1.7 C 2221.2 1.8 2220.5 1.8 2219.9 1.9 C 2218.1 2.1 2216.3 2.3 2214.4 2.4 C 2213.9 2.4 2213.5 2.5 2213 2.5 C 2210.6 2.8 2208.2 3 2205.8 3.3 C 2075.8 18.7 2091.2 104.7 2089 144.3 C 2088.9 144.2 2088.7 144.1 2088.6 144 C 2087.5 143.2 2086.5 142.3 2085.4 141.5 C 2085 141.2 2084.6 140.9 2084.2 140.6 C 2083.1 139.8 2082 139 2080.9 138.1 C 2080.7 138 2080.5 137.8 2080.4 137.7 C 2079.2 136.8 2077.9 135.9 2076.6 135 C 2076.2 134.7 2075.8 134.5 2075.4 134.2 C 2074.3 133.4 2073.2 132.7 2072.1 131.9 C 2071.9 131.7 2071.6 131.6 2071.4 131.4 C 2070.1 130.5 2068.8 129.7 2067.4 128.8 C 2067 128.6 2066.6 128.3 2066.3 128.1 C 2065.2 127.4 2064 126.7 2062.9 126 C 2062.6 125.8 2062.3 125.6 2062 125.5 C 2060.6 124.7 2059.2 123.9 2057.8 123.1 C 2057.4 122.9 2057 122.7 2056.6 122.4 C 2055.4 121.8 2054.3 121.1 2053.1 120.5 C 2052.8 120.3 2052.4 120.1 2052.1 120 C 2050.7 119.2 2049.2 118.5 2047.8 117.8 C 2047.4 117.6 2047 117.4 2046.6 117.2 C 2045.4 116.6 2044.2 116.1 2043 115.5 C 2042.6 115.3 2042.2 115.1 2041.8 115 C 2040.3 114.3 2038.8 113.7 2037.3 113 C 2036.9 112.8 2036.5 112.7 2036.1 112.5 C 2034.9 112 2033.6 111.5 2032.3 111 C 2031.9 110.8 2031.4 110.7 2031 110.5 C 2029.4 109.9 2027.9 109.4 2026.3 108.8 C 2025.9 108.7 2025.6 108.6 2025.2 108.4 C 2023.9 108 2022.6 107.5 2021.2 107.1 C 2020.7 107 2020.3 106.8 2019.8 106.7 C 2018.2 106.2 2016.5 105.7 2014.9 105.3 C 2014.6 105.2 2014.3 105.1 2013.9 105.1 C 2012.5 104.7 2011 104.4 2009.6 104.1 C 2009.1 104 2008.6 103.9 2008.2 103.8 C 2006.5 103.4 2004.8 103.1 2003 102.7 C 2002.8 102.7 2002.5 102.6 2002.3 102.6 C 2000.7 102.3 1999.2 102.1 1997.6 101.8 C 1997.1 101.7 1996.6 101.7 1996.1 101.6 C 1994.3 101.3 1992.5 101.1 1990.6 100.9 C 1990.5 100.9 1990.4 100.9 1990.3 100.9 C 1988.6 100.7 1986.8 100.6 1985 100.4 C 1984.5 100.4 1984 100.3 1983.6 100.3 C 1981.7 100.2 1979.8 100.1 1977.9 100 C 1977.9 100 1977.9 100 1977.8 100 C 1975.8 99.9 1973.9 99.9 1971.9 100 C 1971.5 100 1971.1 100 1970.6 100 C 1968.6 100 1966.6 100.1 1964.6 100.2 L 1964.5 100.2 C 1962.5 100.3 1960.5 100.5 1958.5 100.6 C 1958.1 100.6 1957.7 100.7 1957.3 100.7 C 1955.3 100.9 1953.2 101.1 1951.1 101.4 C 1950.9 101.4 1950.7 101.5 1950.4 101.5 C 1948.5 101.8 1946.5 102.1 1944.6 102.4 C 1944.2 102.5 1943.8 102.5 1943.4 102.6 C 1941.3 103 1939.2 103.4 1937.1 103.8 C 1936.8 103.9 1936.4 104 1936.1 104 C 1934.2 104.4 1932.2 104.9 1930.2 105.4 C 1929.9 105.5 1929.6 105.6 1929.2 105.6 C 1927 106.1 1924.8 106.7 1922.6 107.4 C 1922.2 107.5 1921.7 107.7 1921.3 107.8 C 1919.2 108.4 1917.1 109.1 1915 109.8 C 1914.8 109.9 1914.6 109.9 1914.4 110 C 1912.1 110.7 1909.9 111.6 1907.6 112.4 C 1907.1 112.6 1906.7 112.8 1906.2 112.9 C 1903.9 113.8 1901.6 114.7 1899.2 115.6 C 1884.2 121.8 1870.9 131.2 1860.7 143 C 1860.6 143.2 1860.4 143.3 1860.3 143.5 C 1860.2 143.6 1860.2 143.6 1860.2 143.7 C 1849.2 156.7 1841.9 172.5 1839.8 190.4 C 1839.5 192.7 1839.4 195 1839.3 197.3 C 1839.3 197.6 1839.3 197.9 1839.3 198.2 C 1838.6 201.5 1838.7 205.6 1839.1 209.7 L 1839.1 209.7 L 1839.1 209.7 Z" style="fill: rgb(255, 255, 255);"/>
  <path class="st0" d="M 3839 1166.2 C 3840 1155.4 3820.3 1141.7 3787.8 1135.2 C 3784.2 1134.5 3779.1 1133.3 3772.5 1131.8 C 3725.5 1120.9 3600.3 1091.2 3379.1 1073.4 C 3353.3 1084 3298 1106 3230.6 1132.8 C 3142.2 1168 3032.2 1211.8 2940.1 1249.1 C 2892 1268.6 2843.4 1290.2 2797.2 1311.4 C 2814.9 1308.5 2832.6 1305.7 2850.2 1302.9 C 2850.5 1302.9 2850.8 1302.8 2851.1 1302.8 C 2854.3 1302.3 2857.5 1301.8 2860.7 1301.3 C 2861.1 1301.2 2861.6 1301.2 2862 1301.1 C 2865.2 1300.6 2868.3 1300.1 2871.5 1299.6 C 2872 1299.5 2872.4 1299.5 2872.9 1299.4 C 2875.9 1298.9 2879 1298.5 2882 1298 C 2882.6 1297.9 2883.3 1297.8 2883.9 1297.7 C 2886.9 1297.2 2889.8 1296.8 2892.8 1296.3 C 2893.4 1296.2 2894.1 1296.1 2894.7 1296 C 2897.7 1295.5 2900.6 1295.1 2903.6 1294.6 C 2904.2 1294.5 2904.8 1294.4 2905.4 1294.3 C 2908.4 1293.8 2911.4 1293.4 2914.4 1292.9 C 2915 1292.8 2915.5 1292.7 2916.1 1292.6 C 2919.2 1292.1 2922.2 1291.7 2925.3 1291.2 C 2925.8 1291.1 2926.3 1291.1 2926.7 1291 C 2929.9 1290.5 2933 1290.1 2936.2 1289.6 C 2936.4 1289.6 2936.7 1289.5 2936.9 1289.5 C 2940.3 1289 2943.7 1288.5 2947 1288 C 2947 1288 2947 1288 2947.1 1288 C 3000.2 1280.2 3052.8 1272.9 3104.2 1266.1 L 3104.2 1266.1 C 3276.8 1243.3 3436.8 1225.8 3563.6 1211.8 C 3563.7 1211.8 3563.7 1211.8 3563.8 1211.8 C 3566 1211.6 3568.1 1211.3 3570.2 1211.1 C 3571.3 1211 3572.3 1210.9 3573.3 1210.8 C 3574.8 1210.6 3576.3 1210.5 3577.8 1210.3 C 3579.1 1210.2 3580.4 1210 3581.7 1209.9 C 3582.8 1209.8 3583.8 1209.7 3584.9 1209.6 C 3586.4 1209.4 3588 1209.3 3589.5 1209.1 C 3590.4 1209 3591.3 1208.9 3592.3 1208.8 C 3594 1208.6 3595.7 1208.4 3597.3 1208.2 C 3597.8 1208.1 3598.4 1208.1 3598.9 1208 C 3603.3 1207.5 3607.7 1207 3612 1206.5 C 3612.4 1206.5 3612.7 1206.4 3613.1 1206.4 C 3710.8 1195.5 3783.5 1186.9 3819.2 1179.4 C 3832.1 1176.8 3838.4 1171.9 3839 1166.2 Z" style="fill: rgb(255, 255, 255);"/>
  <path class="st0" d="M 2384.6 1066.2 C 2388.2 1053.7 2391.8 1040.8 2395 1028 C 2395 1028 2395 1028 2395 1027.9 C 2395.5 1025.8 2396 1023.7 2396.5 1021.6 L 2396.5 1021.5 C 2397 1019.4 2397.5 1017.3 2397.9 1015.3 L 2397.9 1015.3 C 2399.3 1009.1 2400.5 1002.9 2401.6 996.9 C 2401.6 996.8 2401.6 996.7 2401.7 996.6 C 2402 994.7 2402.3 992.8 2402.6 991 C 2402.6 990.8 2402.7 990.7 2402.7 990.5 C 2403 988.7 2403.2 986.8 2403.5 985 C 2403.5 984.8 2403.5 984.7 2403.6 984.5 C 2403.8 982.7 2404 980.9 2404.2 979.1 C 2404.2 979 2404.2 978.9 2404.2 978.9 C 2404.6 975.2 2404.8 971.7 2405 968.2 C 2405 968.1 2405 968 2405 967.9 C 2405.1 966.3 2405.1 964.6 2405.1 963 C 2405.1 962.8 2405.1 962.6 2405.1 962.4 C 2405.1 960.9 2405.1 959.3 2405 957.8 C 2405 957.6 2405 957.4 2405 957.2 C 2404.9 955.7 2404.8 954.2 2404.7 952.8 C 2404.7 952.6 2404.7 952.4 2404.6 952.3 C 2404.5 950.8 2404.3 949.4 2404.1 948 C 2404.1 947.9 2404.1 947.8 2404.1 947.7 C 2403.9 946.3 2403.6 944.9 2403.4 943.5 C 2403.4 943.4 2403.4 943.4 2403.4 943.3 C 2403.1 942 2402.8 940.7 2402.4 939.4 C 2402.4 939.2 2402.3 939.1 2402.3 938.9 C 2401.9 937.7 2401.6 936.6 2401.1 935.4 C 2401 935.2 2401 935 2400.9 934.8 C 2400.5 933.7 2400 932.6 2399.5 931.6 C 2399.4 931.4 2399.3 931.2 2399.2 931.1 C 2398.7 930.1 2398.1 929.1 2397.5 928.1 C 2397.4 928 2397.3 927.8 2397.2 927.7 C 2396.6 926.7 2395.9 925.8 2395.2 924.9 C 2395.1 924.8 2395.1 924.8 2395 924.7 C 2394.3 923.8 2393.6 923 2392.8 922.3 C 2392.7 922.2 2392.6 922.1 2392.5 922 C 2391.7 921.2 2390.9 920.5 2390 919.9 C 2389.8 919.8 2389.7 919.6 2389.5 919.5 C 2388.6 918.9 2387.7 918.3 2386.8 917.7 C 2386.6 917.6 2386.4 917.5 2386.2 917.4 C 2385.2 916.9 2384.2 916.4 2383.2 915.9 C 2383 915.8 2382.8 915.7 2382.5 915.6 C 2381.4 915.2 2380.3 914.8 2379.1 914.4 C 2378.9 914.3 2378.7 914.3 2378.5 914.2 C 2377.3 913.9 2376.1 913.6 2374.8 913.3 C 2374.7 913.3 2374.7 913.3 2374.6 913.3 C 2374.2 913.2 2373.8 913.2 2373.3 913.1 C 2373.2 913.1 2373.1 913.1 2373 913.1 C 2372.7 913.1 2372.3 913.1 2372 913 C 2371.8 913 2371.6 913 2371.4 913 C 2371.3 913 2371.1 913 2371 913 C 2370.1 913 2369.1 913.1 2368.1 913.2 C 2368 913.2 2367.9 913.2 2367.8 913.3 C 2366.8 913.4 2365.8 913.6 2364.7 913.9 C 2364.6 913.9 2364.5 914 2364.4 914 C 2363.3 914.3 2362.3 914.6 2361.2 914.9 C 2361.1 914.9 2361 915 2360.9 915 C 2359.8 915.4 2358.6 915.8 2357.4 916.3 C 2357.2 916.4 2357.1 916.4 2356.9 916.5 C 2355.7 917 2354.6 917.5 2353.4 918.1 C 2353.2 918.2 2353 918.3 2352.8 918.4 C 2351.6 919 2350.4 919.6 2349.2 920.2 C 2349 920.3 2348.7 920.4 2348.5 920.6 C 2347.3 921.3 2346.1 922 2344.8 922.7 C 2344.5 922.8 2344.3 923 2344 923.1 C 2342.8 923.8 2341.5 924.6 2340.2 925.4 C 2339.9 925.6 2339.7 925.7 2339.4 925.9 C 2338.1 926.7 2336.8 927.6 2335.5 928.5 C 2335.2 928.7 2334.9 928.9 2334.6 929.1 C 2333.3 930 2332 930.9 2330.6 931.9 C 2330.3 932.1 2330 932.3 2329.7 932.5 C 2328.4 933.5 2327 934.5 2325.6 935.5 C 2325.3 935.7 2325 935.9 2324.7 936.2 C 2323.3 937.3 2321.9 938.3 2320.5 939.4 C 2320.2 939.6 2319.9 939.8 2319.7 940.1 C 2318.3 941.2 2316.9 942.4 2315.4 943.6 C 2315.1 943.8 2314.9 944 2314.6 944.3 C 2313.1 945.5 2311.7 946.7 2310.2 948 C 2310 948.2 2309.7 948.4 2309.5 948.6 C 2308 949.9 2306.5 951.2 2305 952.5 C 2304.8 952.7 2304.6 952.9 2304.4 953.1 C 2302.9 954.5 2301.3 955.9 2299.7 957.3 C 2299.5 957.5 2299.4 957.6 2299.2 957.8 C 2297.6 959.2 2296 960.7 2294.5 962.2 C 2294.4 962.3 2294.2 962.4 2294.1 962.6 C 2292.5 964.1 2291 965.6 2289.4 967.1 C 2289.2 967.3 2289.1 967.4 2288.9 967.6 C 2287.3 969.1 2285.8 970.6 2284.2 972.2 C 2284 972.4 2283.8 972.6 2283.5 972.8 C 2282 974.3 2280.5 975.8 2278.9 977.3 C 2278.6 977.6 2278.4 977.8 2278.1 978.1 C 2276.6 979.6 2275.2 981.1 2273.7 982.6 C 2273.4 982.9 2273.1 983.2 2272.8 983.5 C 2271.4 985 2269.9 986.4 2268.5 987.9 C 2268.2 988.2 2267.8 988.6 2267.5 988.9 C 2266.1 990.4 2264.7 991.8 2263.3 993.3 C 2262.9 993.7 2262.6 994.1 2262.2 994.4 C 2260.9 995.8 2259.5 997.3 2258.2 998.7 C 2257.8 999.1 2257.4 999.6 2257 1000 C 2255.7 1001.4 2254.4 1002.8 2253.2 1004.2 C 2252.8 1004.7 2252.4 1005.1 2252 1005.6 C 2250.8 1007 2249.5 1008.4 2248.3 1009.7 C 2247.9 1010.2 2247.4 1010.7 2247 1011.2 C 2245.8 1012.5 2244.6 1013.9 2243.4 1015.2 C 2242.9 1015.7 2242.5 1016.2 2242 1016.8 C 2240.9 1018.1 2239.7 1019.4 2238.6 1020.7 C 2238.1 1021.3 2237.7 1021.8 2237.2 1022.4 C 2236.1 1023.6 2235.1 1024.9 2234 1026.1 C 2233.5 1026.7 2233 1027.3 2232.5 1027.9 C 2231.6 1029 2230.7 1030 2229.9 1031 C 2229.3 1031.8 2228.6 1032.5 2228 1033.3 C 2227.3 1034.2 2226.5 1035.1 2225.8 1036 C 2225.1 1036.9 2224.3 1037.8 2223.6 1038.7 C 2223 1039.5 2222.3 1040.3 2221.7 1041 C 2221.3 1041.5 2220.9 1042 2220.6 1042.4 C 2213.6 1051.3 2204.9 1062.4 2195.4 1074.6 C 2195.1 1075 2194.8 1075.4 2194.5 1075.8 C 2194 1076.4 2193.5 1077.1 2193 1077.7 C 2192.4 1078.5 2191.8 1079.3 2191.2 1080.1 C 2191.1 1080.3 2191 1080.4 2190.8 1080.6 C 2151.1 1132.1 2101 1198.9 2101 1198.9 C 2101 1198.9 2115.2 1148.1 2128.5 1099 C 2128.9 1097.6 2129.2 1096.2 2129.6 1094.8 C 2130.2 1092.6 2130.8 1090.4 2131.4 1088.2 C 2131.7 1087.1 2132 1086.1 2132.2 1085.1 C 2133.6 1080.1 2134.9 1075.1 2136.2 1070.3 C 2136.5 1069.3 2136.7 1068.3 2137 1067.4 C 2137.3 1066.3 2137.6 1065.1 2137.9 1064 C 2147 1029.8 2169.9 968.2 2179.4 930.1 C 2183.3 914.6 2184.9 903 2182.5 898.7 C 2179.2 892.8 2177.4 886.6 2176 880.3 C 2175.6 878.3 2175.2 876.3 2174.8 874.2 C 2173.1 864.9 2171.7 855.6 2167.6 847.5 C 2167 846.3 2166.3 845.1 2165.7 844 L 2165.7 844 C 2165.4 843.6 2165.2 843.1 2164.9 842.7 C 2164.8 842.6 2164.7 842.4 2164.6 842.3 C 2164.4 841.9 2164.1 841.6 2163.9 841.3 C 2163.8 841.1 2163.6 840.9 2163.5 840.8 C 2163.3 840.5 2163 840.2 2162.8 839.9 C 2162.6 839.7 2162.5 839.5 2162.3 839.3 C 2162.1 839 2161.9 838.8 2161.6 838.5 C 2161.4 838.3 2161.2 838.1 2161 837.9 C 2160.8 837.7 2160.6 837.4 2160.3 837.2 C 2160.1 837 2159.9 836.8 2159.7 836.6 C 2159.5 836.4 2159.3 836.2 2159 836 C 2158.8 835.8 2158.6 835.6 2158.3 835.4 C 2158.1 835.2 2157.9 835.1 2157.6 834.9 C 2157.4 834.7 2157.1 834.6 2156.9 834.4 C 2156.7 834.2 2156.4 834.1 2156.2 834 C 2155.9 833.8 2155.7 833.7 2155.4 833.5 C 2155.2 833.4 2154.9 833.2 2154.7 833.1 C 2154.4 833 2154.2 832.8 2153.9 832.7 C 2153.7 832.6 2153.4 832.5 2153.2 832.4 C 2152.9 832.3 2152.6 832.2 2152.4 832.1 C 2152.2 832 2151.9 831.9 2151.7 831.8 C 2151.4 831.7 2151.1 831.6 2150.8 831.5 C 2150.5 831.4 2150.3 831.4 2150 831.3 C 2149.7 831.2 2149.4 831.2 2149.1 831.1 C 2148.8 831.1 2148.6 831 2148.3 831 C 2148 831 2147.7 830.9 2147.3 830.9 C 2147 830.9 2146.8 830.8 2146.5 830.8 C 2146.2 830.8 2145.8 830.8 2145.5 830.8 C 2145.2 830.8 2145 830.8 2144.7 830.8 C 2144.5 830.8 2144.3 830.8 2144.1 830.8 C 2143.7 830.8 2143.3 830.8 2142.9 830.9 C 2142.7 830.9 2142.4 830.9 2142.2 831 C 2141.8 831 2141.4 831.1 2141 831.1 C 2140.8 831.1 2140.5 831.2 2140.3 831.2 C 2139.9 831.3 2139.5 831.3 2139.1 831.4 C 2138.9 831.5 2138.6 831.5 2138.4 831.6 C 2138 831.7 2137.6 831.8 2137.1 831.9 C 2136.8 832 2136.6 832 2136.3 832.1 C 2135.9 832.2 2135.4 832.4 2135 832.5 C 2134.7 832.6 2134.5 832.7 2134.2 832.8 C 2133.7 833 2133.3 833.1 2132.8 833.3 C 2132.5 833.4 2132.3 833.5 2132 833.6 C 2131.5 833.8 2131 834 2130.6 834.2 C 2130.3 834.3 2130.1 834.4 2129.8 834.5 C 2129.3 834.7 2128.8 835 2128.3 835.2 C 2128.1 835.3 2127.8 835.4 2127.6 835.6 C 2127.1 835.9 2126.5 836.2 2126 836.4 C 2125.8 836.5 2125.5 836.7 2125.3 836.8 C 2124.7 837.1 2124.1 837.5 2123.5 837.8 C 2123.3 837.9 2123.1 838 2122.8 838.2 C 2122.2 838.6 2121.5 839 2120.9 839.4 C 2120.7 839.5 2120.5 839.6 2120.4 839.7 C 2119.7 840.2 2118.9 840.7 2118.2 841.2 C 2118.1 841.3 2118 841.4 2117.9 841.4 C 2115.3 843.2 2112.5 845.3 2109.6 847.6 C 2066.5 882.1 1967.7 1001 1873.7 1121.1 L 1873.7 1121.1 C 1775.5 1246.6 1682.7 1373.4 1664.5 1406.1 C 1645.2 1440.9 1620.8 1421.4 1621 1472.6 C 1621.1 1485.8 1632.1 1495.7 1644.9 1495.7 C 1646.2 1495.7 1647.5 1495.6 1648.9 1495.4 C 1660.9 1493.4 1672.2 1490.9 1684.3 1487.8 C 1690 1486.3 1694.9 1482.8 1698.1 1477.8 C 1755.1 1388.6 1858.1 1225.1 1977.1 1074.4 C 1977.3 1074.2 1977.4 1074 1977.6 1073.8 C 1982.8 1067.2 1988 1060.7 1993.3 1054.2 C 1993.4 1054 1993.6 1053.8 1993.7 1053.6 C 2004.5 1040.3 2015.3 1027.1 2026.3 1014.1 C 2026.4 1014 2026.4 1014 2026.5 1013.9 C 2031.9 1007.5 2037.2 1001.2 2042.6 995 C 2042.9 994.7 2043.1 994.4 2043.4 994.1 C 2048.7 987.9 2054.1 981.8 2059.5 975.8 C 2059.7 975.6 2059.8 975.4 2060 975.2 C 2065.5 969 2071.1 962.8 2076.7 956.7 L 2076.7 956.7 L 2076.7 956.7 C 2076.3 957.8 2075.9 959 2075.5 960.1 C 2074.8 962 2074.1 963.9 2073.4 965.8 C 2072.9 967.3 2072.3 968.9 2071.8 970.4 C 2071.2 972 2070.6 973.7 2070.1 975.3 C 2069.5 976.9 2069 978.6 2068.4 980.2 C 2067.9 981.8 2067.3 983.4 2066.8 985 C 2066.2 986.7 2065.7 988.4 2065.1 990.1 C 2064.6 991.7 2064.1 993.3 2063.5 994.9 C 2062.9 996.7 2062.3 998.4 2061.8 1000.2 C 2061.3 1001.7 2060.8 1003.2 2060.4 1004.7 C 2058.1 1012 2055.8 1019.4 2053.6 1027 C 2053.3 1028 2053 1029 2052.7 1030 C 2052 1032.4 2051.3 1034.8 2050.6 1037.2 C 2050.3 1038.2 2050 1039.2 2049.7 1040.3 C 2049 1042.8 2048.3 1045.3 2047.6 1047.8 C 2047.4 1048.7 2047.1 1049.5 2046.9 1050.4 C 2046.1 1053.1 2045.4 1055.8 2044.6 1058.6 C 2044.5 1058.9 2044.4 1059.2 2044.3 1059.6 C 2039.8 1075.8 2035.5 1092.2 2031.3 1108.6 L 2031.3 1108.6 C 2028.8 1118.3 2026.4 1127.9 2024 1137.4 C 2013.7 1178.8 2004.3 1234.1 1999.3 1266 C 1996 1286.8 2004.4 1308.2 2022.1 1319.6 C 2027.4 1323 2033.2 1325.3 2039 1325.3 C 2040.6 1325.3 2042.2 1325.1 2043.9 1324.7 C 2090.2 1313.7 2132 1254.2 2202.5 1152.8 C 2218.9 1129.2 2234.7 1107.9 2249 1089.3 C 2249.2 1089 2249.5 1088.7 2249.7 1088.4 C 2250.8 1086.9 2252 1085.5 2253.1 1084.1 C 2253.3 1083.9 2253.4 1083.7 2253.6 1083.5 C 2257.1 1079 2260.4 1074.7 2263.7 1070.6 C 2263.9 1070.3 2264.1 1070.1 2264.3 1069.8 C 2265.3 1068.5 2266.4 1067.2 2267.4 1066 C 2267.6 1065.8 2267.8 1065.5 2268 1065.3 C 2271.1 1061.4 2274.1 1057.8 2276.9 1054.3 C 2277.2 1054 2277.4 1053.6 2277.7 1053.3 C 2278.5 1052.3 2279.4 1051.3 2280.2 1050.3 C 2280.5 1049.9 2280.9 1049.5 2281.2 1049.1 C 2283.6 1046.2 2286 1043.3 2288.2 1040.7 C 2288.7 1040.1 2289.2 1039.5 2289.7 1039 C 2290.2 1038.4 2290.8 1037.7 2291.3 1037.1 C 2291.9 1036.4 2292.5 1035.7 2293.1 1035 C 2293.5 1034.5 2293.9 1034.1 2294.3 1033.6 C 2295.3 1032.5 2296.2 1031.4 2297.1 1030.3 C 2297.3 1030.1 2297.4 1029.9 2297.6 1029.7 C 2298.4 1028.7 2299.2 1027.8 2300 1026.9 C 2300.2 1026.7 2300.3 1026.5 2300.5 1026.4 C 2311 1014.2 2317.2 1007.6 2317.2 1007.6 L 2317.2 1007.6 L 2317.2 1007.6 C 2317.2 1007.6 2310 1030.6 2297.8 1065.1 C 2297.7 1065.4 2297.6 1065.8 2297.4 1066.1 C 2297.1 1066.9 2296.8 1067.8 2296.5 1068.7 C 2296.3 1069.2 2296.2 1069.6 2296 1070.1 C 2295.7 1071 2295.4 1071.8 2295.1 1072.7 C 2294.8 1073.4 2294.6 1074.2 2294.3 1074.9 C 2294 1075.7 2293.7 1076.5 2293.4 1077.3 C 2293.1 1078.1 2292.8 1078.9 2292.5 1079.7 C 2292.3 1080.1 2292.2 1080.5 2292 1081 C 2291.7 1081.9 2291.4 1082.8 2291 1083.7 C 2290.9 1084 2290.8 1084.2 2290.7 1084.5 C 2289.9 1086.7 2289.1 1089 2288.2 1091.3 L 2288.2 1091.3 C 2278.3 1118.3 2266.3 1149.4 2252.9 1180.9 C 2215.4 1269 2210.2 1307.7 2230.6 1335.4 C 2239.3 1347.1 2248 1350.3 2256.5 1350.3 C 2266.6 1350.3 2276.4 1345.8 2285 1345.8 C 2288.5 1345.8 2291.9 1346.5 2295 1348.6 C 2296.3 1349.5 2298.1 1349.9 2300.2 1349.9 C 2328.7 1349.9 2421.6 1273.8 2390.3 1245.7 C 2387.2 1242.9 2384.4 1241.8 2381.9 1241.8 C 2368.9 1241.8 2360.5 1270.9 2337.8 1270.9 C 2336.7 1270.9 2335.7 1270.8 2334.6 1270.7 C 2318.9 1268.9 2330 1228.6 2344.2 1189.3 C 2359.1 1148.5 2372.6 1107.6 2384.6 1066.2 Z" style="fill: rgb(255, 255, 255);"/>
  <path class="st0" d="M 1628.7 1558 C 1629.2 1557.9 1629.8 1557.8 1630.3 1557.6 C 1635 1556.5 1639.8 1555.4 1644.5 1554.4 C 1645.3 1554.2 1646.1 1554 1646.9 1553.8 C 1651.4 1552.8 1655.9 1551.7 1660.4 1550.7 C 1661.3 1550.5 1662.2 1550.3 1663.1 1550.1 C 1667.5 1549.1 1672 1548.1 1676.4 1547.1 C 1677.2 1546.9 1678.1 1546.7 1678.9 1546.5 C 1683.4 1545.5 1687.9 1544.5 1692.3 1543.5 C 1693.2 1543.3 1694.2 1543.1 1695.1 1542.9 C 1699.5 1541.9 1704 1540.9 1708.4 1539.9 C 1709.3 1539.7 1710.2 1539.5 1711.1 1539.3 C 1715.8 1538.2 1720.4 1537.2 1725.1 1536.1 C 1725.6 1536 1726 1535.9 1726.5 1535.8 C 1731.5 1534.7 1736.4 1533.6 1741.4 1532.5 C 1741.8 1532.4 1742.2 1532.3 1742.6 1532.2 C 1747.7 1531 1752.9 1529.9 1758 1528.7 C 1758.2 1528.7 1758.3 1528.6 1758.5 1528.6 C 2031.9 1467.4 2302.9 1410.8 2437.8 1380.7 C 2430.1 1367.9 2424.9 1353.5 2422.9 1338.2 C 2418.5 1304.8 2428.9 1271.3 2451.4 1246.2 C 2464.9 1231.1 2481.9 1214.7 2501.6 1195.8 C 2532.7 1165.8 2573.3 1126.8 2622.8 1070.8 C 2622.7 1070.8 2622.6 1070.8 2622.5 1070.8 C 2598 1072.2 2574.1 1073.6 2550.7 1075 L 2550.7 1075 C 2502.3 1077.8 2456.3 1080.6 2412.5 1083.2 C 2411.8 1085.7 2411 1088.2 2410.3 1090.6 C 2404.9 1108.9 2376.6 1192 2370 1211.4 C 2373.6 1210.3 2377.6 1209.6 2381.9 1209.6 C 2389.3 1209.6 2400.4 1211.7 2411.5 1221.6 C 2428.2 1236.6 2432.9 1259.5 2423.9 1282.9 C 2413.2 1310.9 2385.8 1335.6 2370.4 1347.9 C 2354.8 1360.4 2324.9 1381.2 2300.2 1381.2 C 2294 1381.2 2288 1379.9 2282.7 1377.5 C 2281.5 1377.8 2280.2 1378.1 2279.1 1378.3 C 2273 1379.8 2265.4 1381.6 2256.4 1381.6 C 2242.3 1381.6 2221.9 1376.8 2204.9 1353.7 C 2175.8 1314.2 2184.4 1265.3 2213.6 1192.1 C 2148.2 1285.8 2105.7 1342.3 2051.1 1355.3 C 2047.1 1356.2 2043 1356.7 2038.9 1356.7 C 2027.4 1356.7 2016 1353.1 2004.9 1346 C 1977 1328.2 1962.5 1294.7 1967.8 1260.7 C 1972.6 1230.2 1982.3 1172.5 1993.1 1129.4 C 1994.6 1123.3 1996.2 1117.1 1997.8 1110.8 C 1997.5 1110.8 1997.1 1110.9 1996.8 1110.9 C 1994 1111.1 1991.2 1111.3 1988.5 1111.5 C 1882.8 1247.5 1790.9 1391.7 1734.9 1479.4 C 1731.5 1484.7 1728.3 1489.8 1725.2 1494.7 C 1717.7 1506.5 1706.1 1514.9 1692.6 1518.4 C 1678.1 1522.2 1666.3 1524.7 1654.4 1526.7 C 1651.4 1527.2 1648.3 1527.4 1645.3 1527.4 C 1614.8 1527.4 1589.8 1502.8 1589.6 1472.6 C 1589.5 1452.5 1592.7 1437.7 1599.6 1425.9 C 1607.2 1413.1 1617.6 1406.7 1624.5 1402.5 C 1630.6 1398.8 1633.4 1397.1 1637.1 1390.5 C 1655.2 1357.9 1739 1243.1 1830.8 1124.8 C 1830.7 1124.8 1830.5 1124.8 1830.4 1124.8 C 1728.9 1134.1 1640.4 1144 1551.7 1155.4 C 1552 1174.7 1552.5 1192.9 1553.3 1209.3 C 1566.1 1214 1577.6 1220.6 1587.2 1228.8 C 1604.6 1243.6 1614.7 1262.9 1615.7 1283.2 C 1616.9 1308.9 1608 1330.7 1589.8 1346.3 C 1581.1 1353.8 1571.4 1359 1562.2 1363 C 1566.5 1441.8 1574.5 1503.4 1595.9 1565.3 C 1601.4 1564 1607 1562.7 1612.6 1561.5 C 1612.7 1561.5 1612.8 1561.5 1612.9 1561.4 C 1618.4 1560.4 1623.5 1559.2 1628.7 1558 Z" style="fill: rgb(255, 255, 255);"/>
  <path class="st0" d="M 2840.5 717.7 C 2840 717.2 2839.5 716.7 2839 716.3 C 2838.2 715.5 2837.3 714.8 2836.5 714.1 C 2836 713.6 2835.5 713.2 2834.9 712.7 C 2834 712 2833.1 711.3 2832.3 710.6 C 2831.7 710.2 2831.2 709.7 2830.6 709.3 C 2829.7 708.6 2828.8 708 2827.8 707.3 C 2827.2 706.9 2826.6 706.5 2826 706 C 2825.1 705.4 2824.1 704.7 2823.1 704.1 C 2822.5 703.7 2821.9 703.3 2821.2 702.9 C 2820.2 702.3 2819.2 701.7 2818.2 701.1 C 2817.5 700.7 2816.9 700.3 2816.2 700 C 2815.2 699.4 2814.1 698.9 2813.1 698.4 C 2812.4 698 2811.7 697.7 2811 697.3 C 2809.9 696.8 2808.9 696.3 2807.8 695.8 C 2807 695.5 2806.3 695.1 2805.5 694.8 C 2804.4 694.3 2803.3 693.9 2802.2 693.4 C 2801.4 693.1 2800.6 692.7 2799.8 692.4 C 2798.7 692 2797.6 691.6 2796.4 691.2 C 2795.5 690.9 2794.7 690.6 2793.8 690.3 C 2792.7 689.9 2791.5 689.6 2790.4 689.2 C 2789.5 688.9 2788.6 688.6 2787.6 688.4 C 2786.5 688.1 2785.3 687.8 2784.1 687.5 C 2783.1 687.2 2782.1 687 2781.2 686.7 C 2780 686.4 2778.9 686.2 2777.7 685.9 C 2776.7 685.7 2775.6 685.4 2774.6 685.2 C 2773.4 685 2772.2 684.7 2771.1 684.5 C 2770 684.3 2768.9 684.1 2767.8 683.9 C 2766.6 683.7 2765.4 683.5 2764.2 683.4 C 2763 683.2 2761.8 683.1 2760.6 682.9 C 2759.4 682.8 2758.2 682.6 2757 682.5 C 2755.7 682.4 2754.5 682.2 2753.2 682.1 C 2752 682 2750.8 681.9 2749.6 681.8 C 2748.3 681.7 2746.9 681.6 2745.6 681.5 C 2744.4 681.4 2743.2 681.4 2742 681.3 C 2740.6 681.2 2739.2 681.2 2737.7 681.2 C 2736.5 681.2 2735.3 681.2 2734.2 681.1 C 2732.2 681.1 2730.2 681.1 2728.1 681.1 C 2725.9 681.1 2723.7 681.2 2721.6 681.3 C 2721.1 681.3 2720.6 681.3 2720.1 681.4 C 2718.4 681.5 2716.8 681.6 2715.1 681.7 C 2714.5 681.7 2714 681.8 2713.4 681.8 C 2711.7 681.9 2710 682.1 2708.4 682.2 C 2708 682.2 2707.6 682.3 2707.2 682.3 C 2705.1 682.5 2703 682.7 2701 683 C 2700.9 683 2700.8 683 2700.7 683 C 2698.8 683.2 2696.9 683.5 2695 683.8 C 2694.5 683.9 2694 684 2693.5 684 C 2692 684.2 2690.5 684.5 2689.1 684.7 C 2688.6 684.8 2688 684.9 2687.5 685 C 2685.9 685.3 2684.2 685.6 2682.6 685.9 C 2682.3 686 2682 686 2681.8 686.1 C 2679.9 686.5 2678 686.9 2676.1 687.4 C 2675.8 687.5 2675.6 687.5 2675.3 687.6 C 2673.7 688 2672.2 688.4 2670.7 688.8 C 2670.2 688.9 2669.7 689.1 2669.2 689.2 C 2667.8 689.6 2666.5 689.9 2665.1 690.3 C 2664.6 690.4 2664.2 690.6 2663.7 690.7 C 2662 691.2 2660.4 691.7 2658.7 692.2 C 2658.6 692.2 2658.6 692.2 2658.5 692.3 C 2656.7 692.9 2655 693.5 2653.3 694.1 C 2653 694.2 2652.7 694.3 2652.3 694.4 C 2650.9 694.9 2649.6 695.4 2648.2 695.9 C 2647.8 696.1 2647.3 696.2 2646.9 696.4 C 2645.6 696.9 2644.3 697.4 2643 697.9 C 2642.7 698 2642.3 698.2 2642 698.3 C 2638.8 699.7 2635.6 701.1 2632.5 702.5 C 2632.2 702.6 2631.9 702.8 2631.6 702.9 C 2630.4 703.5 2629.1 704.1 2627.9 704.7 C 2627.6 704.9 2627.2 705 2626.9 705.2 C 2625.6 705.9 2624.3 706.5 2623.1 707.2 C 2622.9 707.3 2622.7 707.4 2622.5 707.5 C 2619.5 709.1 2616.6 710.8 2613.8 712.5 C 2613.6 712.6 2613.3 712.8 2613.1 712.9 C 2611.9 713.6 2610.8 714.4 2609.6 715.1 C 2609.4 715.3 2609.1 715.4 2608.9 715.6 C 2604.8 718.3 2600.8 721 2597.1 723.9 C 2596.9 724 2596.8 724.1 2596.6 724.3 C 2595.5 725.2 2594.3 726 2593.2 726.9 C 2593.1 727 2593 727.1 2592.9 727.2 C 2589.2 730.1 2585.6 733.1 2582.2 736.2 C 2582.1 736.3 2582.1 736.3 2582 736.4 C 2577.5 740.5 2573.2 744.7 2569.3 748.9 C 2550.9 768.6 2539 788.7 2532.8 803.4 C 2526.1 819.2 2515.1 833.9 2503.8 847.4 L 2503.8 847.4 C 2503.8 847.4 2503.8 847.4 2503.8 847.5 C 2497.4 855.1 2490.9 862.2 2485 868.9 C 2484.4 869.6 2483.7 870.3 2483.1 871 C 2482.7 871.4 2482.3 871.9 2482 872.3 C 2481.3 873.1 2480.7 873.8 2480 874.6 C 2479.7 875 2479.3 875.4 2479 875.7 C 2478.2 876.6 2477.4 877.5 2476.7 878.5 C 2476.5 878.7 2476.4 878.9 2476.2 879.1 C 2475.3 880.2 2474.4 881.3 2473.6 882.4 C 2473.4 882.6 2473.3 882.8 2473.1 883 C 2472.4 883.9 2471.8 884.7 2471.2 885.5 C 2471 885.8 2470.8 886.1 2470.6 886.4 C 2470 887.2 2469.5 887.9 2469 888.7 C 2468.8 889 2468.6 889.2 2468.4 889.5 C 2467.8 890.5 2467.2 891.4 2466.6 892.3 L 2466.5 892.4 C 2465.9 893.4 2465.4 894.3 2464.9 895.3 C 2464.8 895.5 2464.7 895.7 2464.6 896 C 2464.2 896.7 2463.9 897.4 2463.6 898.1 C 2463.5 898.4 2463.4 898.7 2463.3 898.9 C 2463 899.6 2462.8 900.2 2462.6 900.8 C 2462.5 901.1 2462.4 901.3 2462.4 901.6 C 2462.2 902.5 2462 903.3 2461.8 904.2 C 2461.7 904.9 2461.6 905.6 2461.6 906.3 C 2461.6 906.5 2461.6 906.7 2461.6 906.9 C 2461.6 907.4 2461.6 907.9 2461.6 908.4 C 2461.6 908.6 2461.6 908.9 2461.6 909.1 C 2461.6 909.6 2461.6 910 2461.7 910.5 C 2461.7 910.7 2461.7 911 2461.8 911.2 C 2461.9 911.7 2461.9 912.2 2462 912.8 C 2462 913 2462 913.1 2462.1 913.3 C 2462.2 914 2462.4 914.7 2462.5 915.3 C 2462.5 915.4 2462.6 915.6 2462.6 915.7 C 2462.7 916.2 2462.9 916.8 2463 917.3 C 2463.1 917.5 2463.1 917.7 2463.2 918 C 2463.3 918.4 2463.5 918.9 2463.7 919.3 C 2463.8 919.5 2463.9 919.8 2464 920 C 2464.2 920.4 2464.4 920.9 2464.6 921.3 C 2464.7 921.5 2464.8 921.7 2464.9 921.9 C 2465.2 922.5 2465.5 923 2465.8 923.6 C 2465.8 923.7 2465.9 923.7 2465.9 923.8 C 2466.2 924.4 2466.6 925 2467 925.6 C 2467.1 925.8 2467.2 925.9 2467.3 926.1 C 2467.6 926.5 2467.9 926.9 2468.2 927.3 C 2468.3 927.5 2468.5 927.7 2468.6 927.9 C 2468.9 928.3 2469.2 928.6 2469.5 929 C 2469.7 929.2 2469.8 929.4 2470 929.6 C 2470.3 930 2470.7 930.4 2471 930.8 C 2471.1 930.9 2471.3 931.1 2471.4 931.2 C 2471.9 931.7 2472.4 932.2 2472.9 932.7 C 2473 932.8 2473.1 932.9 2473.2 932.9 C 2473.6 933.3 2474.1 933.7 2474.6 934.1 C 2474.8 934.3 2475 934.4 2475.2 934.6 C 2475.6 934.9 2476 935.2 2476.4 935.5 C 2476.6 935.7 2476.8 935.8 2477 936 C 2477.4 936.3 2477.8 936.6 2478.2 936.8 C 2478.4 936.9 2478.6 937.1 2478.8 937.2 C 2479.3 937.5 2479.8 937.8 2480.3 938.1 C 2480.4 938.2 2480.6 938.3 2480.7 938.3 C 2481.3 938.7 2482 939 2482.6 939.3 C 2482.8 939.4 2483 939.5 2483.2 939.6 C 2483.7 939.8 2484.1 940 2484.6 940.2 C 2484.9 940.3 2485.1 940.4 2485.4 940.5 C 2485.8 940.7 2486.3 940.8 2486.7 941 C 2487 941.1 2487.2 941.2 2487.5 941.3 C 2488 941.5 2488.4 941.6 2488.9 941.7 C 2489.1 941.8 2489.4 941.8 2489.6 941.9 C 2490.3 942.1 2491 942.3 2491.8 942.4 C 2491.9 942.4 2492 942.4 2492.2 942.5 C 2492.8 942.6 2493.4 942.7 2494.1 942.8 C 2494.4 942.8 2494.7 942.9 2494.9 942.9 C 2495.4 943 2495.9 943 2496.3 943.1 C 2496.6 943.1 2496.9 943.2 2497.2 943.2 C 2497.7 943.2 2498.2 943.3 2498.6 943.3 C 2498.9 943.3 2499.2 943.3 2499.5 943.3 C 2499.8 943.3 2500 943.3 2500.3 943.3 C 2501.2 943.3 2502.1 943.2 2503 943.2 C 2503.3 943.2 2503.5 943.2 2503.8 943.1 C 2504.9 943 2506 942.8 2507.1 942.6 C 2507.3 942.6 2507.4 942.5 2507.6 942.5 C 2508.6 942.3 2509.5 942.1 2510.5 941.8 C 2510.8 941.7 2511.1 941.6 2511.4 941.5 C 2512.5 941.2 2513.6 940.8 2514.8 940.3 C 2515.5 940 2516.2 939.7 2516.9 939.3 C 2517.1 939.2 2517.3 939 2517.6 938.9 C 2518.1 938.6 2518.7 938.2 2519.2 937.9 C 2519.4 937.7 2519.7 937.6 2519.9 937.4 C 2520.6 936.9 2521.3 936.3 2522.1 935.8 C 2522.4 935.5 2522.7 935.3 2523.1 935 C 2523.6 934.6 2524 934.2 2524.5 933.8 C 2524.9 933.4 2525.3 933.1 2525.8 932.7 C 2526.2 932.4 2526.6 932 2526.9 931.6 C 2528.1 930.5 2529.2 929.4 2530.5 928.1 L 2530.5 928.1 C 2550.7 907.8 2579.6 868.7 2619.1 846.5 C 2619.3 846.4 2619.4 846.3 2619.6 846.2 C 2621.2 845.3 2622.9 844.4 2624.6 843.6 C 2624.9 843.4 2625.3 843.3 2625.6 843.1 C 2627.1 842.3 2628.7 841.6 2630.3 840.9 C 2630.8 840.7 2631.3 840.4 2631.9 840.2 C 2633.3 839.6 2634.8 839 2636.2 838.4 C 2636.9 838.1 2637.6 837.9 2638.3 837.6 C 2639.6 837.1 2640.9 836.6 2642.3 836.2 C 2643.2 835.9 2644.2 835.6 2645.1 835.3 C 2646.3 834.9 2647.5 834.6 2648.6 834.2 C 2649.8 833.9 2651 833.6 2652.2 833.3 C 2653.2 833.1 2654.1 832.8 2655.1 832.6 C 2657.1 832.2 2659 831.8 2661 831.5 C 2661.3 831.5 2661.5 831.4 2661.8 831.4 C 2665.3 830.9 2668.6 830.5 2671.9 830.2 C 2672.1 830.2 2672.3 830.2 2672.5 830.1 C 2673.9 830 2675.2 829.9 2676.5 829.9 C 2676.9 829.9 2677.2 829.8 2677.6 829.8 C 2678.8 829.7 2680 829.7 2681.2 829.7 C 2681.6 829.7 2682.1 829.7 2682.5 829.7 C 2682.6 829.7 2682.6 829.7 2682.7 829.7 C 2685.8 829.7 2688.7 829.8 2691.6 830.1 C 2691.8 830.1 2692.1 830.2 2692.3 830.2 C 2693.5 830.3 2694.7 830.4 2695.8 830.6 C 2696.2 830.6 2696.5 830.7 2696.9 830.8 C 2697.9 830.9 2698.9 831.1 2699.8 831.3 C 2700.2 831.4 2700.6 831.5 2701.1 831.5 C 2702 831.7 2702.9 831.9 2703.7 832.1 C 2704.1 832.2 2704.6 832.3 2705 832.4 C 2705.8 832.6 2706.6 832.8 2707.5 833.1 C 2707.9 833.2 2708.4 833.4 2708.8 833.5 C 2709.6 833.7 2710.4 834 2711.1 834.3 C 2711.5 834.4 2711.9 834.6 2712.3 834.8 C 2713 835.1 2713.8 835.4 2714.5 835.7 C 2714.9 835.9 2715.3 836 2715.7 836.2 C 2716.4 836.5 2717.1 836.8 2717.8 837.2 C 2718.2 837.4 2718.5 837.6 2718.9 837.8 C 2719.6 838.2 2720.3 838.5 2720.9 838.9 C 2721.2 839.1 2721.6 839.3 2721.9 839.5 C 2722.6 839.9 2723.2 840.3 2723.9 840.7 C 2724.2 840.9 2724.5 841.1 2724.8 841.3 C 2725.5 841.8 2726.1 842.2 2726.7 842.7 C 2727 842.9 2727.2 843.1 2727.5 843.3 C 2728.2 843.8 2728.8 844.4 2729.5 844.9 C 2729.7 845.1 2729.9 845.2 2730.1 845.4 C 2730.8 846 2731.5 846.7 2732.2 847.4 C 2732.3 847.5 2732.4 847.6 2732.5 847.7 C 2734.9 850.1 2737 852.7 2738.9 855.5 L 2738.9 855.5 C 2739.5 856.4 2740.1 857.3 2740.6 858.3 C 2740.7 858.5 2740.8 858.6 2740.9 858.8 C 2741.4 859.6 2741.8 860.4 2742.3 861.3 C 2742.4 861.5 2742.5 861.8 2742.6 862 C 2743 862.8 2743.4 863.6 2743.7 864.4 C 2743.8 864.7 2743.9 865 2744.1 865.2 C 2744.4 866 2744.8 866.8 2745.1 867.6 C 2745.2 867.9 2745.3 868.2 2745.4 868.5 C 2745.7 869.3 2746 870.1 2746.2 870.9 C 2746.3 871.2 2746.4 871.6 2746.5 871.9 C 2746.7 872.7 2747 873.5 2747.2 874.3 C 2747.3 874.6 2747.4 875 2747.5 875.3 C 2747.7 876.1 2747.9 877 2748.1 877.8 C 2748.2 878.1 2748.3 878.5 2748.3 878.8 C 2748.5 879.7 2748.6 880.5 2748.8 881.4 C 2748.9 881.7 2748.9 882.1 2749 882.4 C 2749.1 883.3 2749.3 884.2 2749.4 885.2 C 2749.4 885.5 2749.5 885.9 2749.5 886.2 C 2749.6 887.2 2749.7 888.2 2749.8 889.2 C 2749.8 889.5 2749.9 889.8 2749.9 890.1 C 2750 891.2 2750 892.3 2750.1 893.4 C 2750.1 893.6 2750.1 893.8 2750.1 894 C 2750.2 895.3 2750.2 896.6 2750.2 897.9 L 2750.2 898 C 2750.2 902.1 2750 906.4 2749.6 910.8 C 2749.6 910.9 2749.6 911 2749.6 911.1 C 2749.5 912.4 2749.3 913.7 2749.1 915.1 C 2749.1 915.4 2749 915.7 2749 916 C 2748.8 917.2 2748.7 918.3 2748.5 919.5 C 2748.4 919.9 2748.4 920.3 2748.3 920.7 C 2748.1 921.8 2747.9 922.9 2747.7 924 C 2747.6 924.5 2747.5 924.9 2747.4 925.4 C 2747.2 926.4 2747 927.5 2746.8 928.6 C 2746.7 929.1 2746.6 929.6 2746.5 930.1 C 2746.3 931.1 2746 932.2 2745.8 933.2 C 2745.7 933.7 2745.5 934.3 2745.4 934.8 C 2745.1 935.8 2744.9 936.9 2744.6 937.9 C 2744.5 938.4 2744.3 939 2744.2 939.5 C 2743.9 940.5 2743.6 941.6 2743.3 942.6 C 2743.1 943.2 2743 943.7 2742.8 944.3 C 2742.5 945.3 2742.2 946.4 2741.8 947.4 C 2741.6 948 2741.4 948.5 2741.3 949.1 C 2741 950.2 2740.6 951.2 2740.2 952.3 C 2740 952.9 2739.8 953.4 2739.6 954 C 2739.2 955.1 2738.8 956.2 2738.4 957.3 C 2738.2 957.8 2738 958.4 2737.8 958.9 C 2737.4 960.1 2736.9 961.2 2736.4 962.4 C 2736.2 962.9 2736 963.3 2735.9 963.8 C 2735.4 965.1 2734.8 966.5 2734.2 967.8 C 2734.1 968.1 2734 968.4 2733.8 968.7 C 2732.4 972 2730.9 975.4 2729.2 978.8 C 2729.1 979 2729 979.3 2728.9 979.5 C 2728.2 980.9 2727.5 982.4 2726.8 983.8 C 2726.6 984.3 2726.3 984.8 2726 985.3 C 2725.4 986.5 2724.8 987.7 2724.2 988.9 C 2723.9 989.5 2723.6 990.1 2723.3 990.7 C 2722.7 991.8 2722.1 992.9 2721.5 994 C 2721.1 994.7 2720.8 995.3 2720.4 996 C 2719.8 997 2719.2 998.1 2718.7 999.1 C 2718.3 999.8 2717.9 1000.5 2717.5 1001.1 C 2716.9 1002.1 2716.3 1003.1 2715.7 1004.1 C 2715.3 1004.8 2714.9 1005.5 2714.4 1006.2 C 2713.8 1007.2 2713.2 1008.2 2712.6 1009.2 C 2712.2 1009.9 2711.7 1010.6 2711.3 1011.3 C 2710.7 1012.3 2710 1013.3 2709.4 1014.3 C 2708.9 1015 2708.5 1015.7 2708 1016.4 C 2707.3 1017.4 2706.7 1018.4 2706 1019.4 C 2705.5 1020.1 2705.1 1020.8 2704.6 1021.5 C 2703.9 1022.5 2703.2 1023.5 2702.5 1024.5 C 2702 1025.2 2701.5 1025.9 2701.1 1026.6 C 2700.4 1027.6 2699.6 1028.6 2698.9 1029.7 C 2698.4 1030.4 2697.9 1031 2697.5 1031.7 C 2696.7 1032.8 2695.9 1033.8 2695.1 1034.9 C 2694.6 1035.5 2694.2 1036.1 2693.7 1036.8 C 2692.8 1037.9 2692 1039.1 2691.1 1040.2 C 2690.7 1040.7 2690.3 1041.3 2689.9 1041.8 C 2688.9 1043.1 2687.8 1044.5 2686.7 1045.8 C 2686.4 1046.1 2686.2 1046.5 2685.9 1046.8 C 2684.5 1048.5 2683.1 1050.2 2681.7 1051.9 C 2581.5 1171.4 2513.1 1225.6 2475.1 1268.1 C 2447.9 1298.5 2446.7 1344.4 2471.2 1374 C 2472.3 1375.3 2473.4 1376.5 2474.5 1377.7 C 2474.8 1378 2475.2 1378.4 2475.5 1378.7 C 2476.3 1379.6 2477.2 1380.4 2478.1 1381.2 C 2478.5 1381.6 2478.9 1381.9 2479.3 1382.3 C 2480.2 1383.1 2481.1 1383.9 2482.1 1384.6 C 2482.5 1384.9 2482.9 1385.2 2483.3 1385.5 C 2484.7 1386.5 2486.1 1387.5 2487.5 1388.5 C 2492 1391.5 2496.7 1393.9 2501.5 1395.6 C 2502 1395.8 2502.6 1396 2503.2 1396.1 C 2503.4 1396.1 2503.6 1396.2 2503.8 1396.2 C 2504.2 1396.3 2504.7 1396.4 2505.1 1396.4 C 2505.3 1396.4 2505.6 1396.5 2505.9 1396.5 C 2506.3 1396.5 2506.8 1396.6 2507.3 1396.6 C 2507.6 1396.6 2507.9 1396.6 2508.1 1396.6 C 2508.6 1396.6 2509.1 1396.6 2509.6 1396.6 C 2509.9 1396.6 2510.3 1396.6 2510.6 1396.6 C 2511.1 1396.6 2511.7 1396.6 2512.2 1396.5 C 2512.5 1396.5 2512.9 1396.4 2513.2 1396.4 C 2513.8 1396.3 2514.4 1396.3 2515 1396.2 C 2515.3 1396.2 2515.6 1396.1 2516 1396.1 C 2516.7 1396 2517.4 1395.9 2518.1 1395.8 C 2518.4 1395.8 2518.7 1395.7 2519 1395.6 C 2519.8 1395.5 2520.6 1395.3 2521.4 1395.2 C 2521.7 1395.1 2521.9 1395.1 2522.2 1395 C 2523.1 1394.8 2524 1394.6 2524.9 1394.4 C 2525.1 1394.3 2525.3 1394.3 2525.6 1394.2 C 2526.6 1394 2527.6 1393.7 2528.7 1393.4 C 2528.9 1393.4 2529 1393.3 2529.2 1393.3 C 2530.4 1393 2531.5 1392.7 2532.8 1392.3 C 2532.9 1392.3 2532.9 1392.3 2533 1392.2 C 2539.6 1390.4 2546.9 1387.9 2555 1385 L 2555 1385 C 2634.5 1356.3 2782.4 1279.1 2927.9 1220.1 C 3103.1 1149 3342.3 1055 3377.4 1040 C 3378.9 1039.3 3380.4 1038.7 3381.9 1038 C 3382 1037.9 3382.1 1037.9 3382.2 1037.8 C 3383.2 1037.3 3384.2 1036.9 3385.2 1036.4 C 3385.8 1036.1 3386.4 1035.8 3387 1035.6 C 3387.9 1035.2 3388.7 1034.8 3389.5 1034.4 C 3390.2 1034.1 3390.9 1033.7 3391.5 1033.4 C 3392.3 1033 3393 1032.6 3393.7 1032.3 C 3394.4 1031.9 3395.1 1031.6 3395.7 1031.2 C 3396.4 1030.8 3397 1030.5 3397.7 1030.1 C 3398.4 1029.7 3399 1029.4 3399.7 1029 C 3400.3 1028.7 3400.9 1028.3 3401.5 1028 C 3402.1 1027.6 3402.8 1027.2 3403.4 1026.9 C 3403.9 1026.6 3404.5 1026.3 3405 1025.9 C 3405.6 1025.5 3406.2 1025.1 3406.8 1024.7 C 3407.3 1024.4 3407.7 1024.1 3408.2 1023.8 C 3408.8 1023.4 3409.4 1023 3409.9 1022.6 C 3410.3 1022.3 3410.7 1022.1 3411 1021.8 C 3411.6 1021.3 3412.2 1020.9 3412.8 1020.4 C 3413.1 1020.2 3413.3 1020 3413.6 1019.8 C 3414.4 1019.1 3415.2 1018.5 3415.9 1017.9 C 3416 1017.8 3416 1017.8 3416.1 1017.7 C 3416.7 1017.1 3417.3 1016.6 3417.8 1016 C 3418 1015.8 3418.2 1015.6 3418.3 1015.4 C 3418.7 1015 3419 1014.6 3419.4 1014.2 C 3419.6 1014 3419.7 1013.7 3419.9 1013.5 C 3420.2 1013.1 3420.4 1012.8 3420.7 1012.4 C 3420.9 1012.2 3421 1011.9 3421.1 1011.7 C 3421.3 1011.4 3421.5 1011 3421.6 1010.7 C 3421.7 1010.5 3421.8 1010.2 3421.9 1010 C 3422 1009.7 3422.1 1009.4 3422.2 1009.1 C 3422.3 1008.9 3422.3 1008.7 3422.4 1008.4 C 3422.5 1008.1 3422.5 1007.8 3422.5 1007.5 C 3422.5 1007.3 3422.5 1007.1 3422.5 1006.9 C 3422.5 1006.6 3422.4 1006.3 3422.4 1006 C 3422.4 1005.8 3422.3 1005.6 3422.3 1005.4 C 3422.2 1005.1 3422.1 1004.8 3422 1004.6 C 3421.9 1004.4 3421.9 1004.3 3421.8 1004.1 C 3421.6 1003.8 3421.4 1003.5 3421.2 1003.2 C 3421.1 1003.1 3421 1002.9 3420.9 1002.8 C 3420.5 1002.4 3420.1 1002 3419.6 1001.6 C 3419.5 1001.5 3419.3 1001.4 3419.2 1001.3 C 3418.8 1001 3418.4 1000.7 3417.9 1000.5 C 3417.7 1000.4 3417.4 1000.3 3417.1 1000.1 C 3416.7 999.9 3416.3 999.7 3415.8 999.5 C 3415.5 999.4 3415.1 999.3 3414.8 999.1 C 3414.3 998.9 3413.9 998.8 3413.4 998.6 C 3413 998.5 3412.6 998.4 3412.2 998.3 C 3411.7 998.2 3411.2 998 3410.6 997.9 C 3410.2 997.8 3409.7 997.7 3409.2 997.6 C 3408.6 997.5 3408 997.4 3407.4 997.3 C 3406.9 997.2 3406.4 997.1 3405.8 997 C 3405.2 996.9 3404.5 996.8 3403.8 996.7 C 3403.2 996.6 3402.7 996.6 3402 996.5 C 3401.3 996.4 3400.6 996.4 3399.8 996.3 C 3399.2 996.2 3398.5 996.2 3397.9 996.2 C 3397.1 996.2 3396.3 996.1 3395.4 996.1 C 3394.7 996.1 3394.1 996 3393.4 996 C 3392.5 996 3391.5 996 3390.6 996 C 3389.9 996 3389.2 996 3388.5 996 C 3387 996 3385.4 996 3383.8 996.1 C 3383.2 996.1 3382.5 996.1 3381.9 996.2 C 3380.8 996.2 3379.6 996.3 3378.4 996.3 C 3377.7 996.3 3377 996.4 3376.3 996.4 C 3374.8 996.5 3373.3 996.6 3371.8 996.7 C 3371.4 996.7 3371.1 996.7 3370.7 996.8 C 3359.5 997.6 3307 1006.9 3239.4 1021.5 C 3239.1 1021.6 3238.9 1021.6 3238.6 1021.7 C 3236.8 1022.1 3235 1022.5 3233.1 1022.9 C 3232.7 1023 3232.3 1023.1 3231.9 1023.2 C 3230.1 1023.6 3228.3 1024 3226.6 1024.4 C 3226.2 1024.5 3225.9 1024.6 3225.5 1024.6 C 3223.4 1025.1 3221.3 1025.5 3219.2 1026 C 3219.1 1026 3219.1 1026 3219 1026 C 3216.9 1026.5 3214.7 1027 3212.6 1027.4 C 3212 1027.5 3211.4 1027.7 3210.7 1027.8 C 3209.2 1028.1 3207.7 1028.5 3206.2 1028.8 C 3205.4 1029 3204.6 1029.2 3203.8 1029.3 C 3202.5 1029.6 3201.1 1029.9 3199.8 1030.2 C 3198.9 1030.4 3197.9 1030.6 3197 1030.8 C 3195.8 1031.1 3194.6 1031.4 3193.3 1031.6 C 3192.3 1031.8 3191.3 1032.1 3190.3 1032.3 C 3189.2 1032.6 3188 1032.8 3186.9 1033.1 C 3184.8 1033.6 3182.7 1034.1 3180.6 1034.6 C 3179.7 1034.8 3178.7 1035 3177.8 1035.3 C 3176.5 1035.6 3175.2 1035.9 3173.9 1036.2 C 3173 1036.4 3172.2 1036.6 3171.3 1036.8 C 3169.9 1037.1 3168.6 1037.4 3167.2 1037.8 C 3166.4 1038 3165.6 1038.2 3164.8 1038.4 C 3163.4 1038.7 3161.9 1039.1 3160.5 1039.4 C 3159.9 1039.6 3159.2 1039.7 3158.6 1039.9 C 3157 1040.3 3155.4 1040.7 3153.8 1041.1 C 3153.7 1041.1 3153.6 1041.1 3153.6 1041.2 C 3147.8 1042.6 3142.1 1044 3136.3 1045.5 C 3136 1045.6 3135.7 1045.7 3135.3 1045.7 C 3133.6 1046.1 3131.8 1046.6 3130.1 1047 C 3129.7 1047.1 3129.3 1047.2 3128.9 1047.3 C 3127.1 1047.8 3125.3 1048.2 3123.6 1048.7 C 3123.4 1048.7 3123.2 1048.8 3123 1048.8 C 3113 1051.4 3102.9 1054 3092.9 1056.7 C 3092.8 1056.7 3092.8 1056.7 3092.7 1056.7 C 3088.7 1057.8 3084.6 1058.9 3080.6 1060 L 3080.6 1060 C 3054.1 1067.2 3028.1 1074.8 3003.7 1082.7 C 2840 1135.4 2623.6 1228.1 2623.6 1228.1 C 2623.6 1228.1 2727.7 1124.7 2767.4 1066.1 C 2778.7 1049.5 2789.3 1034 2799.1 1019.2 C 2799.2 1019 2799.3 1018.9 2799.4 1018.7 C 2801.1 1016.2 2802.7 1013.8 2804.3 1011.3 C 2804.7 1010.7 2805.1 1010.2 2805.4 1009.6 C 2806.8 1007.4 2808.2 1005.3 2809.6 1003.2 C 2810.1 1002.4 2810.6 1001.6 2811.1 1000.8 C 2812.3 998.9 2813.6 997 2814.8 995 C 2815.4 994 2816 993.1 2816.6 992.1 C 2817.7 990.3 2818.8 988.6 2819.9 986.8 C 2820.6 985.7 2821.2 984.7 2821.9 983.6 C 2822.9 982 2823.9 980.3 2824.9 978.7 C 2825.6 977.5 2826.3 976.4 2827 975.2 C 2827.9 973.7 2828.8 972.2 2829.7 970.6 C 2830.4 969.4 2831.1 968.1 2831.8 966.9 C 2832.6 965.4 2833.4 964 2834.3 962.5 C 2835 961.2 2835.7 960 2836.4 958.7 C 2837.2 957.3 2837.9 955.9 2838.7 954.5 C 2839.4 953.2 2840.1 951.9 2840.8 950.6 C 2841.5 949.3 2842.2 947.9 2842.9 946.6 C 2843.6 945.2 2844.3 943.9 2845 942.5 C 2845.6 941.2 2846.3 939.9 2846.9 938.6 C 2847.6 937.2 2848.3 935.8 2848.9 934.4 C 2849.5 933.1 2850 931.9 2850.6 930.6 C 2851.2 929.2 2851.9 927.7 2852.5 926.3 C 2853 925.1 2853.5 923.8 2854 922.6 C 2854.6 921.1 2855.2 919.7 2855.8 918.2 C 2856.3 917 2856.7 915.8 2857.2 914.6 C 2857.8 913.1 2858.4 911.6 2858.9 910.1 C 2859.3 908.9 2859.7 907.7 2860.2 906.5 C 2860.7 905 2861.3 903.4 2861.8 901.9 C 2862.2 900.7 2862.5 899.5 2862.9 898.3 C 2863.4 896.7 2863.9 895.2 2864.4 893.6 C 2864.7 892.4 2865 891.2 2865.4 890 C 2865.8 888.4 2866.3 886.8 2866.7 885.2 C 2867 884 2867.3 882.8 2867.6 881.6 C 2868 880 2868.4 878.4 2868.7 876.7 C 2869 875.5 2869.2 874.3 2869.4 873.1 C 2869.7 871.4 2870.1 869.8 2870.4 868.1 C 2870.6 866.9 2870.8 865.7 2871 864.4 C 2871.3 862.7 2871.6 861 2871.8 859.3 C 2872 858.1 2872.1 856.8 2872.3 855.6 C 2872.5 853.9 2872.8 852.1 2872.9 850.4 C 2873 849.2 2873.1 847.9 2873.2 846.6 C 2873.4 844.8 2873.5 843 2873.7 841.2 C 2873.8 839.9 2873.8 838.6 2873.9 837.4 C 2874 835.6 2874.1 833.7 2874.2 831.9 C 2874.2 830.6 2874.2 829.3 2874.3 828 C 2874.3 826.1 2874.4 824.3 2874.4 822.4 C 2874.4 821.1 2874.3 819.7 2874.3 818.3 C 2874.3 816.4 2874.3 814.5 2874.2 812.6 C 2874.2 811.3 2874.1 810 2874 808.7 C 2873.9 806.7 2873.8 804.6 2873.7 802.6 C 2873.6 801.6 2873.5 800.5 2873.4 799.5 C 2873 793.7 2872.4 787.8 2871.6 781.7 C 2871.4 779.8 2871.1 778 2870.8 776.2 C 2870.8 775.9 2870.7 775.6 2870.6 775.3 C 2870.3 773.8 2870 772.3 2869.7 770.8 C 2869.6 770.2 2869.4 769.6 2869.3 769 C 2869 767.8 2868.8 766.7 2868.4 765.6 C 2868.2 764.8 2868 764.1 2867.7 763.4 C 2867.4 762.4 2867.1 761.4 2866.8 760.5 C 2866.5 759.7 2866.2 758.9 2866 758.1 C 2865.7 757.2 2865.4 756.3 2865.1 755.5 C 2864.8 754.6 2864.4 753.8 2864.1 753 C 2863.8 752.2 2863.5 751.4 2863.1 750.6 C 2862.7 749.7 2862.3 748.9 2861.9 748 C 2861.6 747.3 2861.2 746.5 2860.9 745.8 C 2860.5 744.9 2860 744.1 2859.5 743.2 C 2859.1 742.5 2858.8 741.8 2858.4 741.2 C 2857.9 740.3 2857.4 739.4 2856.8 738.6 C 2856.4 738 2856.1 737.3 2855.7 736.7 C 2855.1 735.8 2854.6 735 2854 734.1 C 2853.6 733.5 2853.2 732.9 2852.8 732.3 C 2852.2 731.4 2851.5 730.6 2850.9 729.7 C 2850.5 729.1 2850.1 728.6 2849.6 728 C 2848.9 727.2 2848.2 726.3 2847.5 725.5 C 2847.1 725 2846.6 724.4 2846.2 723.9 C 2845.5 723.1 2844.7 722.3 2844 721.5 C 2843.5 721 2843.1 720.5 2842.6 720 C 2842.1 719.2 2841.3 718.4 2840.5 717.7 Z" style="fill: rgb(255, 255, 255);"/>
  <path class="st0" d="M 2651.9 1037.4 C 2653.8 1035.2 2655.6 1033 2657.5 1030.8 C 2660.2 1027.5 2662.9 1024.2 2665.5 1020.9 C 2665.1 1019.3 2664.8 1017.7 2664.4 1016.1 C 2664 1014.2 2663.5 1012.3 2663.1 1010.4 C 2662.6 1008.3 2662.1 1006.2 2661.6 1004.2 C 2661.2 1002.6 2660.8 1001 2660.5 999.4 C 2660 997.2 2659.5 995.1 2658.9 992.9 C 2658.6 991.6 2658.3 990.4 2658 989.1 C 2656.9 984.8 2655.9 980.5 2654.8 976.3 C 2654.5 975.2 2654.3 974.2 2654 973.1 C 2653.4 970.7 2652.8 968.4 2652.1 966 C 2651.8 965 2651.6 963.9 2651.3 962.9 C 2649.1 954.7 2646.9 946.6 2644.6 938.7 C 2644.5 938.3 2644.4 937.9 2644.3 937.5 C 2643.5 934.9 2642.8 932.3 2642 929.7 C 2641.9 929.2 2641.7 928.7 2641.6 928.2 C 2639.1 920 2636.6 911.9 2634.1 904.1 C 2634.1 904 2634 903.9 2634 903.8 C 2633.1 901.2 2632.3 898.6 2631.4 896 C 2631.3 895.8 2631.3 895.6 2631.2 895.5 C 2629.4 890.3 2627.6 885.1 2625.8 880.1 C 2604.2 894.6 2585.7 915.3 2570.6 932.1 C 2558.3 945.8 2548.6 956.6 2538.3 963.8 C 2541.5 981.9 2544.2 1001.5 2546.5 1022.2 C 2546.5 1022.2 2546.5 1022.2 2546.5 1022.3 C 2546.9 1025.6 2547.2 1028.9 2547.5 1032.2 C 2547.5 1032.5 2547.6 1032.9 2547.6 1033.2 C 2547.9 1036.3 2548.2 1039.4 2548.5 1042.5 C 2548.5 1042.8 2548.5 1043 2548.6 1043.3 C 2572.1 1041.9 2596.3 1040.5 2621.1 1039.1 C 2631.3 1038.5 2641.6 1037.9 2651.9 1037.4 Z" style="fill: rgb(255, 255, 255);"/>
  <path class="st0" d="M 2794.1 1083.9 C 2782.3 1101.3 2765.5 1122.1 2747.3 1143 C 2815 1116.1 2898.1 1084.3 2972.7 1059.4 C 2920.7 1059.7 2866 1060.7 2808.5 1062.5 C 2807.1 1064.5 2805.7 1066.6 2804.3 1068.7 C 2801 1073.6 2797.6 1078.7 2794.1 1083.9 Z" style="fill: rgb(255, 255, 255);"/>
  <path class="st0" d="M 3105.4 1738.7 C 3013.3 1665.9 2867.8 1573.9 2745.9 1563.2 L 2741.4 1563.2 C 2739 1531.8 2732.4 1453.3 2720.8 1356.6 C 2709.2 1358.6 2697.7 1360.7 2686.1 1362.8 C 2627.9 1389.6 2585.4 1408.3 2554.1 1418.6 C 2553.2 1446.5 2552.1 1472 2551.1 1494.1 C 2551.1 1494.5 2551.1 1495 2551 1495.4 C 2550.9 1496.7 2550.9 1498.1 2550.8 1499.4 C 2550.8 1500 2550.7 1500.6 2550.7 1501.2 C 2550.6 1502.3 2550.6 1503.3 2550.5 1504.4 C 2550.5 1505.1 2550.4 1505.9 2550.4 1506.6 C 2550.4 1507.4 2550.3 1508.2 2550.3 1509 C 2550.3 1509.9 2550.2 1510.9 2550.2 1511.8 C 2550.2 1511.9 2550.2 1511.9 2550.2 1512 C 2549.1 1534.5 2548 1552.2 2547.3 1563.6 L 2547.3 1563.6 L 2547.3 1563.6 C 2316.2 1572.2 2078.5 1619.9 1852.7 1708.3 C 1828.1 1718 1803.6 1728.1 1779.2 1738.7 L 3105.4 1738.7 Z" style="fill: rgb(255, 255, 255);"/>
  <path class="st0" d="M 1599.7 1665.1 C 1599.4 1658.2 1597.7 1651 1594.8 1643.7 C 1593 1639.1 1590.7 1634.4 1588.1 1629.8 C 1588 1629.5 1587.9 1629.3 1587.8 1629 C 1586.7 1626.6 1585.6 1624.2 1584.5 1621.8 C 1584 1620.7 1583.5 1619.5 1583 1618.4 C 1582.4 1616.9 1581.7 1615.5 1581.1 1614 C 1580.5 1612.6 1579.9 1611.2 1579.3 1609.8 C 1578.8 1608.7 1578.4 1607.6 1577.9 1606.5 C 1577.2 1604.9 1576.6 1603.2 1575.9 1601.6 C 1575.6 1600.9 1575.4 1600.3 1575.1 1599.6 C 1542.5 1517.8 1534.1 1441.4 1529.7 1341.9 C 1552.8 1332.8 1586.1 1324.5 1584.2 1284.9 C 1583.1 1261.8 1559.4 1240.3 1523.1 1234.2 C 1521.7 1212.9 1520.8 1187.5 1520.3 1159.7 L 1520.3 1159.7 C 1520.3 1159.5 1520.3 1159.4 1520.3 1159.2 C 1520.2 1156.4 1520.2 1153.5 1520.2 1150.7 C 1520.2 1150.2 1520.2 1149.7 1520.2 1149.1 C 1520.2 1146.3 1520.1 1143.6 1520.1 1140.8 C 1520.1 1140.6 1520.1 1140.4 1520.1 1140.1 C 1520.1 1137.1 1520 1134.1 1520 1131 C 1520 1130.5 1520 1130 1520 1129.5 C 1519.9 1123.3 1519.9 1117.1 1519.9 1110.8 C 1519.9 1110.3 1519.9 1109.8 1519.9 1109.4 C 1519.9 1106.2 1519.9 1103 1519.9 1099.8 C 1519.9 1099.6 1519.9 1099.5 1519.9 1099.3 C 1519.9 1096.1 1519.9 1093 1519.9 1089.8 C 1519.9 1089.5 1519.9 1089.2 1519.9 1088.9 C 1519.9 1085.6 1519.9 1082.3 1519.9 1079 C 1519.9 1078.7 1519.9 1078.4 1519.9 1078.1 C 1519.9 1071.4 1519.9 1064.7 1520 1058 C 1520 1057.6 1520 1057.3 1520 1056.9 C 1520 1050.2 1520.1 1043.4 1520.1 1036.6 C 1520.1 1036.3 1520.1 1036 1520.1 1035.7 C 1520.7 964.6 1522.2 893.4 1522.7 842.2 C 1523.3 787.3 1529 726.7 1537.4 666.3 C 1548.6 586.2 1564.6 506.6 1580.1 441.5 C 1582.8 430.2 1585.5 419.3 1588.1 408.9 C 1588.9 405.9 1589.6 402.9 1590.3 399.8 C 1602.6 344.8 1602.5 276.4 1544.1 272.3 C 1543.6 272.3 1543 272.3 1542.4 272.3 C 1542 272.3 1541.6 272.3 1541.2 272.4 C 1540.8 272.5 1540.3 272.6 1539.8 272.7 C 1539.4 272.8 1538.9 272.9 1538.4 273 C 1537.9 273.1 1537.4 273.3 1536.9 273.5 C 1536.4 273.7 1535.9 273.8 1535.4 274 C 1534.9 274.2 1534.3 274.4 1533.8 274.7 C 1533.2 274.9 1532.7 275.2 1532.1 275.4 C 1531.5 275.7 1531 276 1530.4 276.3 C 1529.8 276.6 1529.2 276.9 1528.5 277.3 C 1527.9 277.6 1527.3 278 1526.7 278.3 C 1526 278.7 1525.4 279.1 1524.7 279.5 C 1524.1 279.9 1523.5 280.3 1522.8 280.7 C 1522.1 281.2 1521.3 281.6 1520.5 282.2 C 1519.9 282.6 1519.2 283.1 1518.6 283.5 C 1517.8 284.1 1517 284.6 1516.1 285.2 C 1515.5 285.6 1514.8 286.1 1514.2 286.6 C 1513.3 287.3 1512.4 287.9 1511.5 288.6 C 1510.9 289.1 1510.3 289.6 1509.6 290 C 1508.6 290.8 1507.6 291.5 1506.6 292.3 C 1506 292.8 1505.4 293.3 1504.8 293.8 C 1503.7 294.7 1502.6 295.5 1501.5 296.4 C 1500.9 296.9 1500.3 297.4 1499.7 297.9 C 1498.5 298.9 1497.3 299.9 1496.1 300.9 C 1495.6 301.4 1495 301.8 1494.5 302.3 C 1493.2 303.4 1491.9 304.5 1490.6 305.7 C 1490.1 306.1 1489.6 306.6 1489.1 307.1 C 1487.7 308.3 1486.3 309.6 1484.9 310.8 C 1484.4 311.2 1484 311.6 1483.5 312 C 1482 313.4 1480.5 314.8 1478.9 316.2 C 1478.5 316.6 1478.1 316.9 1477.7 317.3 C 1476.1 318.8 1474.4 320.4 1472.7 322 C 1472.4 322.3 1472.1 322.6 1471.8 322.9 C 1470 324.6 1468.2 326.3 1466.4 328.1 C 1466.2 328.3 1466 328.5 1465.8 328.7 C 1463.9 330.6 1461.9 332.5 1459.9 334.4 C 1459.8 334.5 1459.7 334.6 1459.5 334.8 C 1359.2 432.5 1198 624.1 1081.3 752.8 C 1030.8 808.5 979 866.3 927.2 925.1 C 848 1015.1 769 1107.3 695.7 1198 L 695.7 1198 L 695.7 1198 C 695.5 1198 695.3 1198 695.1 1198 C 692.3 1198.1 689.5 1198.1 686.7 1198.1 C 686.4 1198.1 686.1 1198.1 685.8 1198.1 C 685.7 1198.1 685.5 1198.1 685.4 1198.1 C 682.2 1198.1 679.1 1198.1 676 1198 C 675.6 1198 675.2 1198 674.8 1198 C 671.7 1197.9 668.6 1197.8 665.5 1197.7 C 665.1 1197.7 664.6 1197.7 664.2 1197.7 C 661.2 1197.6 658.2 1197.5 655.2 1197.3 C 654.7 1197.3 654.2 1197.2 653.7 1197.2 C 650.8 1197 647.9 1196.9 645.1 1196.7 C 644.5 1196.7 644 1196.6 643.4 1196.6 C 640.7 1196.4 637.9 1196.2 635.2 1196 C 634.5 1196 633.9 1195.9 633.2 1195.8 C 630.7 1195.6 628.1 1195.4 625.6 1195.2 C 624.7 1195.1 623.9 1195.1 623 1195 C 620.9 1194.8 618.7 1194.6 616.6 1194.4 C 615.2 1194.3 613.8 1194.2 612.4 1194 C 611.4 1193.9 610.5 1193.8 609.5 1193.7 C 595.8 1192.5 582.7 1191.2 570.1 1190.2 L 570 1190.2 C 567.2 1190 564.5 1189.8 561.7 1189.6 C 561.6 1189.6 561.5 1189.6 561.3 1189.6 C 558.6 1189.4 556 1189.3 553.4 1189.2 C 553.2 1189.2 553.1 1189.2 552.9 1189.2 C 550.4 1189.1 547.8 1189 545.3 1188.9 C 545.1 1188.9 544.9 1188.9 544.7 1188.9 C 542.2 1188.8 539.8 1188.8 537.4 1188.8 C 537.1 1188.8 536.7 1188.8 536.4 1188.8 C 535.7 1188.8 535 1188.8 534.4 1188.8 C 533.8 1188.8 533.3 1188.8 532.7 1188.8 C 532.1 1188.8 531.4 1188.8 530.8 1188.8 C 530.2 1188.8 529.6 1188.8 529.1 1188.8 C 528.5 1188.8 527.9 1188.8 527.3 1188.9 C 526.7 1188.9 526.1 1189 525.5 1189 C 524.9 1189 524.3 1189.1 523.8 1189.1 C 523.2 1189.1 522.5 1189.2 521.9 1189.2 C 521.4 1189.2 520.8 1189.3 520.3 1189.3 C 519.6 1189.4 518.9 1189.4 518.2 1189.5 C 517.7 1189.5 517.3 1189.6 516.8 1189.6 C 515.8 1189.7 514.8 1189.8 513.9 1189.9 C 513.7 1189.9 513.6 1189.9 513.4 1190 C 512.3 1190.1 511.1 1190.3 510 1190.4 C 509.7 1190.4 509.4 1190.5 509.2 1190.5 C 508.4 1190.6 507.5 1190.7 506.7 1190.9 C 506.3 1191 506 1191 505.6 1191.1 C 504.9 1191.2 504.1 1191.3 503.4 1191.5 C 503 1191.6 502.6 1191.7 502.2 1191.7 C 501.5 1191.8 500.8 1192 500.1 1192.1 C 499.7 1192.2 499.3 1192.3 498.9 1192.4 C 498.2 1192.5 497.6 1192.7 496.9 1192.8 C 496.5 1192.9 496.1 1193 495.7 1193.1 C 495 1193.3 494.4 1193.4 493.7 1193.6 C 493.3 1193.7 492.9 1193.8 492.5 1193.9 C 491.8 1194.1 491.2 1194.3 490.5 1194.5 C 490.1 1194.6 489.7 1194.7 489.3 1194.9 C 488.6 1195.1 488 1195.3 487.3 1195.5 C 486.9 1195.6 486.5 1195.7 486.2 1195.9 C 485.5 1196.1 484.9 1196.4 484.2 1196.6 C 483.9 1196.7 483.5 1196.8 483.2 1197 C 482.5 1197.3 481.8 1197.6 481 1197.8 C 480.7 1197.9 480.4 1198 480.2 1198.1 C 479.3 1198.5 478.5 1198.8 477.6 1199.2 C 477.5 1199.3 477.4 1199.3 477.2 1199.4 C 476.2 1199.8 475.2 1200.3 474.2 1200.8 C 474.1 1200.8 474.1 1200.9 474 1200.9 C 473.1 1201.3 472.2 1201.8 471.3 1202.3 C 471 1202.4 470.8 1202.6 470.5 1202.8 C 469.8 1203.2 469.2 1203.5 468.5 1203.9 C 468.2 1204.1 467.8 1204.3 467.5 1204.5 C 466.9 1204.9 466.3 1205.2 465.7 1205.6 C 465.3 1205.8 465 1206.1 464.6 1206.3 C 464.1 1206.7 463.5 1207 463 1207.4 C 462.6 1207.7 462.3 1207.9 461.9 1208.2 C 461.4 1208.6 460.9 1208.9 460.4 1209.3 C 460 1209.6 459.7 1209.9 459.3 1210.2 C 458.8 1210.6 458.3 1211 457.8 1211.4 C 457.4 1211.7 457.1 1212 456.7 1212.3 C 456.2 1212.7 455.7 1213.1 455.3 1213.5 C 454.9 1213.8 454.6 1214.1 454.2 1214.5 C 453.7 1214.9 453.3 1215.4 452.8 1215.8 C 452.4 1216.1 452.1 1216.5 451.7 1216.8 C 451.2 1217.3 450.8 1217.7 450.3 1218.2 C 450 1218.5 449.6 1218.9 449.3 1219.2 C 448.8 1219.7 448.3 1220.2 447.8 1220.8 C 447.5 1221.1 447.2 1221.5 446.9 1221.8 C 446.3 1222.5 445.6 1223.2 445 1224 C 444.9 1224.2 444.7 1224.3 444.6 1224.5 C 435.8 1235 423.4 1243.5 410.1 1251.4 C 370.4 1275.1 322.6 1293.7 337.2 1345.1 C 337.2 1345.1 337.2 1345.1 337.2 1345.2 C 337.5 1346.4 337.9 1347.5 338.3 1348.6 C 338.4 1348.8 338.4 1349 338.5 1349.2 C 338.9 1350.3 339.4 1351.3 339.9 1352.3 C 340 1352.5 340.1 1352.7 340.2 1352.9 C 340.7 1353.9 341.3 1354.9 341.9 1355.8 C 342 1356 342.1 1356.1 342.2 1356.3 C 342.8 1357.2 343.5 1358.2 344.1 1359.1 C 344.2 1359.2 344.2 1359.2 344.2 1359.3 C 344.9 1360.2 345.7 1361.1 346.5 1362 C 346.7 1362.2 346.8 1362.4 347 1362.5 C 347.8 1363.3 348.6 1364.1 349.4 1364.9 C 349.6 1365.1 349.8 1365.3 350 1365.5 C 350.8 1366.3 351.7 1367.1 352.6 1367.8 C 352.8 1368 353 1368.1 353.2 1368.3 C 354.1 1369 354.9 1369.7 355.9 1370.3 C 356.1 1370.4 356.2 1370.5 356.4 1370.7 C 357.4 1371.4 358.4 1372.1 359.4 1372.7 C 359.7 1372.9 360 1373.1 360.3 1373.3 C 361.3 1373.9 362.3 1374.5 363.4 1375.1 C 363.7 1375.3 364.1 1375.5 364.5 1375.7 C 365.6 1376.3 366.6 1376.8 367.7 1377.4 C 368 1377.6 368.4 1377.7 368.8 1377.9 C 369.7 1378.3 370.7 1378.8 371.6 1379.2 C 372 1379.4 372.5 1379.6 372.9 1379.8 C 373.9 1380.2 375 1380.7 376.1 1381.1 C 376.6 1381.3 377.1 1381.5 377.6 1381.7 C 378.7 1382.1 379.8 1382.5 381 1382.9 C 381.6 1383.1 382.1 1383.3 382.7 1383.5 C 383.7 1383.8 384.6 1384.1 385.6 1384.4 C 386.4 1384.6 387.1 1384.9 387.9 1385.1 C 388.7 1385.3 389.5 1385.6 390.3 1385.8 C 391.2 1386.1 392.1 1386.3 393.1 1386.6 C 394 1386.8 394.8 1387 395.7 1387.3 C 396.4 1387.5 397.2 1387.7 398 1387.9 C 399.1 1388.2 400.2 1388.4 401.4 1388.7 C 402.2 1388.9 403.1 1389.1 403.9 1389.2 C 428.9 1394.4 457.7 1396.2 484.7 1396.2 C 536.2 1396.2 581.2 1390 581.2 1390 C 482.1 1522.2 378.4 1635.5 257.3 1802 C 239.7 1826.2 263.7 1862.9 282.6 1865.1 C 299.9 1867.1 319.4 1869.6 340.9 1869.6 C 375.4 1869.6 415.2 1863.1 460.1 1837.2 C 523.3 1800.8 568.1 1731.4 669.4 1588.2 C 740.4 1487.8 768.5 1445 810.4 1389.9 C 851.1 1394.1 886.9 1395.8 919 1395.8 C 1089.9 1395.8 1153.6 1345.8 1279.8 1345.8 C 1305.7 1455.1 1311.9 1555.7 1345.1 1625.9 L 1345.1 1625.9 C 1345.7 1627.3 1346.4 1628.6 1347.1 1629.9 C 1347.5 1630.7 1347.9 1631.5 1348.3 1632.3 C 1348.9 1633.5 1349.5 1634.7 1350.1 1635.8 C 1350.7 1636.8 1351.2 1637.9 1351.8 1638.9 C 1352.3 1639.9 1352.9 1640.8 1353.4 1641.8 C 1354.3 1643.4 1355.3 1645 1356.3 1646.6 C 1356.5 1646.9 1356.7 1647.3 1356.9 1647.6 C 1357.9 1649.2 1358.9 1650.8 1360 1652.3 C 1360.2 1652.6 1360.4 1652.8 1360.5 1653.1 C 1361.3 1654.3 1362.2 1655.5 1363 1656.7 C 1363.3 1657.1 1363.6 1657.5 1363.9 1657.9 C 1364.6 1658.9 1365.4 1659.8 1366.1 1660.8 C 1366.5 1661.3 1366.8 1661.7 1367.2 1662.1 C 1367.9 1663 1368.6 1663.8 1369.3 1664.7 C 1369.7 1665.1 1370.1 1665.6 1370.4 1666 C 1371.1 1666.8 1371.8 1667.6 1372.5 1668.4 C 1372.9 1668.8 1373.3 1669.2 1373.6 1669.7 C 1374.3 1670.5 1375.1 1671.2 1375.8 1672 C 1376.2 1672.4 1376.5 1672.7 1376.9 1673.1 C 1377.7 1673.9 1378.5 1674.7 1379.4 1675.5 C 1379.7 1675.8 1380 1676 1380.2 1676.3 C 1382.4 1678.4 1384.7 1680.3 1386.9 1682.1 C 1387.2 1682.4 1387.5 1682.6 1387.9 1682.8 C 1388.7 1683.4 1389.5 1684 1390.3 1684.6 C 1390.7 1684.9 1391.1 1685.2 1391.5 1685.5 C 1392.2 1686 1392.9 1686.5 1393.6 1687 C 1394.1 1687.3 1394.5 1687.6 1395 1687.9 C 1395.7 1688.3 1396.4 1688.8 1397 1689.2 C 1397.5 1689.5 1397.9 1689.8 1398.4 1690.1 C 1399.1 1690.5 1399.7 1690.9 1400.4 1691.3 C 1400.9 1691.6 1401.3 1691.8 1401.8 1692.1 C 1402.5 1692.5 1403.1 1692.8 1403.8 1693.2 C 1404.2 1693.4 1404.7 1693.7 1405.1 1693.9 C 1405.8 1694.3 1406.5 1694.6 1407.2 1695 C 1407.6 1695.2 1408 1695.4 1408.4 1695.6 C 1409.3 1696 1410.3 1696.5 1411.2 1696.9 C 1411.5 1697 1411.8 1697.2 1412.1 1697.3 C 1413 1697.7 1414 1698.1 1414.9 1698.5 C 1415.3 1698.7 1415.8 1698.8 1416.2 1699 C 1416.8 1699.2 1417.5 1699.5 1418.1 1699.7 C 1418.6 1699.9 1419.1 1700 1419.5 1700.2 C 1420.1 1700.4 1420.6 1700.6 1421.2 1700.8 C 1421.7 1701 1422.2 1701.1 1422.7 1701.3 C 1423.2 1701.5 1423.8 1701.6 1424.3 1701.8 C 1424.8 1701.9 1425.3 1702.1 1425.8 1702.2 C 1426.3 1702.3 1426.8 1702.5 1427.3 1702.6 C 1427.8 1702.7 1428.3 1702.9 1428.8 1703 C 1429.3 1703.1 1429.8 1703.2 1430.2 1703.3 C 1430.7 1703.4 1431.2 1703.5 1431.7 1703.6 C 1432.2 1703.7 1432.6 1703.8 1433.1 1703.9 C 1433.6 1704 1434.1 1704.1 1434.6 1704.2 C 1435 1704.3 1435.4 1704.3 1435.8 1704.4 C 1436.8 1704.6 1437.8 1704.7 1438.8 1704.8 C 1439.1 1704.8 1439.4 1704.9 1439.7 1704.9 C 1440.2 1705 1440.7 1705 1441.2 1705.1 C 1441.5 1705.1 1441.9 1705.2 1442.2 1705.2 C 1442.7 1705.2 1443.2 1705.3 1443.6 1705.3 C 1443.9 1705.3 1444.3 1705.3 1444.6 1705.4 C 1445.1 1705.4 1445.5 1705.4 1446 1705.5 C 1446.3 1705.5 1446.6 1705.5 1446.9 1705.5 C 1447.3 1705.5 1447.8 1705.5 1448.2 1705.5 C 1448.5 1705.5 1448.8 1705.5 1449.1 1705.5 C 1449.5 1705.5 1449.9 1705.5 1450.3 1705.5 C 1450.6 1705.5 1450.8 1705.5 1451.1 1705.5 C 1451.5 1705.5 1451.9 1705.5 1452.3 1705.4 C 1452.5 1705.4 1452.7 1705.4 1453 1705.3 C 1453.4 1705.3 1453.8 1705.2 1454.2 1705.2 C 1454.3 1705.2 1454.5 1705.2 1454.6 1705.2 C 1455 1705.2 1455.4 1705.1 1455.8 1705.1 C 1457.7 1704.8 1459.4 1704.6 1461.2 1704.5 C 1461.6 1704.5 1462.1 1704.4 1462.5 1704.4 C 1463.8 1704.3 1465.1 1704.2 1466.3 1704.1 C 1466.8 1704.1 1467.3 1704 1467.7 1704 C 1469 1703.9 1470.2 1703.9 1471.4 1703.9 C 1471.7 1703.9 1472.1 1703.9 1472.4 1703.9 C 1472.6 1703.9 1472.7 1703.9 1472.9 1703.9 C 1474.2 1703.9 1475.5 1703.9 1476.7 1704 C 1477 1704 1477.2 1704 1477.5 1704 C 1478.8 1704.1 1480 1704.1 1481.2 1704.2 C 1481.4 1704.2 1481.5 1704.2 1481.7 1704.2 C 1483 1704.3 1484.3 1704.5 1485.6 1704.6 C 1485.9 1704.6 1486.1 1704.7 1486.3 1704.7 C 1487.4 1704.9 1488.6 1705 1489.7 1705.2 C 1489.8 1705.2 1489.9 1705.2 1490 1705.3 C 1491.2 1705.5 1492.3 1705.8 1493.5 1706 C 1493.7 1706.1 1494 1706.1 1494.2 1706.2 C 1495.3 1706.4 1496.3 1706.7 1497.3 1707 L 1497.4 1707 C 1498.5 1707.3 1499.5 1707.6 1500.5 1707.9 C 1500.7 1708 1500.9 1708 1501.1 1708.1 C 1503.1 1708.7 1505.1 1709.4 1506.9 1710.1 C 1507.1 1710.2 1507.2 1710.2 1507.4 1710.3 C 1509.3 1711 1511.2 1711.8 1513 1712.5 C 1513.1 1712.5 1513.1 1712.6 1513.2 1712.6 C 1514.4 1713.1 1515.6 1713.6 1516.7 1714.1 C 1517.1 1714.3 1517.5 1714.4 1517.9 1714.6 C 1518.3 1714.8 1518.6 1714.9 1519 1715 C 1519.7 1715.3 1520.5 1715.6 1521.2 1715.9 C 1521.4 1716 1521.6 1716.1 1521.8 1716.1 C 1522.4 1716.3 1523 1716.6 1523.6 1716.8 C 1523.8 1716.9 1524.1 1717 1524.3 1717.1 C 1525.1 1717.4 1525.8 1717.6 1526.6 1717.9 C 1526.8 1718 1527 1718 1527.1 1718.1 C 1527.7 1718.3 1528.4 1718.5 1529 1718.7 C 1529.2 1718.8 1529.4 1718.8 1529.6 1718.9 C 1530.4 1719.1 1531.2 1719.3 1531.9 1719.5 C 1532.1 1719.5 1532.3 1719.6 1532.5 1719.6 C 1533.2 1719.7 1533.9 1719.9 1534.5 1720 C 1534.7 1720 1534.9 1720.1 1535.1 1720.1 C 1535.9 1720.2 1536.7 1720.3 1537.6 1720.4 C 1537.8 1720.4 1538 1720.4 1538.2 1720.4 C 1538.9 1720.5 1539.7 1720.5 1540.4 1720.5 C 1540.6 1720.5 1540.7 1720.5 1540.9 1720.5 C 1541.4 1720.5 1542 1720.5 1542.5 1720.5 C 1543 1720.5 1543.5 1720.5 1543.9 1720.4 C 1544.5 1720.4 1545.1 1720.3 1545.7 1720.2 C 1546.2 1720.1 1546.6 1720.1 1547.1 1720 C 1547.7 1719.9 1548.4 1719.8 1549.1 1719.6 C 1549.5 1719.5 1550 1719.5 1550.4 1719.3 C 1551.2 1719.1 1551.9 1718.9 1552.7 1718.7 C 1553.1 1718.6 1553.5 1718.5 1553.9 1718.4 C 1554.8 1718.1 1555.7 1717.8 1556.7 1717.5 C 1557 1717.4 1557.3 1717.3 1557.6 1717.2 C 1558.8 1716.8 1560 1716.3 1561.2 1715.8 C 1561.3 1715.8 1561.4 1715.7 1561.5 1715.7 C 1564.2 1714.6 1567 1713.2 1570.1 1711.5 C 1579.9 1706.1 1587 1699.9 1591.7 1693 C 1597.8 1684.4 1600.1 1675 1599.7 1665.1 Z M 1279 1076.1 C 1278.6 1080.4 1278.3 1084.8 1278 1089.2 C 1277.6 1094.8 1277.1 1100.4 1276.7 1106 C 1276.4 1110.2 1276.1 1114.4 1275.8 1118.6 C 1275.4 1124.4 1275 1130.2 1274.7 1136 C 1274.5 1139.9 1274.3 1143.8 1274 1147.7 C 1273.7 1153.8 1273.3 1160 1273 1166.1 C 1272.8 1169.2 1272.7 1172.4 1272.6 1175.5 C 1272.3 1182.4 1272 1189.3 1271.7 1196.2 L 1271.7 1196.2 C 1271.3 1206.3 1271 1216.4 1270.7 1226.5 C 1253.2 1227.2 1236.7 1227.6 1221.1 1227.6 C 1179.4 1227.6 1144.1 1225.3 1111.7 1222.3 L 1111.7 1222.3 L 1111.6 1222.3 C 1107.8 1222 1104 1221.6 1100.2 1221.2 C 1099.9 1221.2 1099.5 1221.1 1099.2 1221.1 C 1095.6 1220.7 1091.9 1220.4 1088.4 1220 C 1088.4 1220 1088.4 1220 1088.3 1220 C 1080.1 1219.2 1072 1218.3 1063.9 1217.5 C 1061 1217.2 1058.2 1216.9 1055.3 1216.6 C 1054.4 1216.5 1053.5 1216.4 1052.7 1216.3 C 1050.3 1216.1 1047.8 1215.8 1045.4 1215.6 C 1044.3 1215.5 1043.2 1215.4 1042.2 1215.3 C 1039 1215 1035.8 1214.7 1032.6 1214.4 C 1032.4 1214.4 1032.1 1214.4 1031.9 1214.3 C 1028.8 1214 1025.8 1213.8 1022.7 1213.5 C 1021.8 1213.4 1020.9 1213.3 1019.9 1213.3 C 1017 1213.1 1014.1 1212.8 1011.1 1212.6 C 1010.7 1212.6 1010.2 1212.5 1009.8 1212.5 C 1006.5 1212.3 1003.2 1212.1 999.9 1211.9 C 999.1 1211.8 998.2 1211.8 997.4 1211.8 C 994.6 1211.6 991.7 1211.5 988.9 1211.4 C 988.3 1211.4 987.6 1211.3 987 1211.3 C 983.6 1211.1 980.2 1211 976.7 1210.9 C 975.9 1210.9 975.2 1210.9 974.4 1210.8 C 971.5 1210.7 968.6 1210.6 965.6 1210.6 C 964.8 1210.6 964 1210.6 963.2 1210.6 C 959.7 1210.6 956.2 1210.5 952.6 1210.5 C 950 1210.5 947.3 1210.5 944.7 1210.6 C 943.1 1210.6 941.5 1210.6 939.9 1210.7 C 936 1210.8 932 1210.9 928 1211 C 927.6 1211 927.3 1211 926.9 1211 L 926.9 1211 L 926.9 1211 C 1052.5 1050.1 1189.1 891.5 1330.1 737.3 C 1328 747.2 1325.9 757.1 1323.8 767 C 1323.2 769.9 1322.6 772.9 1322 775.8 C 1320.6 782.7 1319.2 789.6 1317.9 796.4 C 1317.1 800.3 1316.4 804.2 1315.7 808.1 C 1314.6 814 1313.5 819.9 1312.4 825.7 C 1311.6 830 1310.8 834.4 1310.1 838.7 C 1309.1 844.1 1308.2 849.5 1307.2 854.9 C 1306.4 859.5 1305.7 864.1 1304.9 868.6 C 1304 873.8 1303.2 878.9 1302.3 884.1 C 1301.5 888.8 1300.8 893.6 1300.1 898.3 C 1299.3 903.3 1298.6 908.3 1297.8 913.2 C 1297.1 918.1 1296.4 923 1295.7 927.8 C 1295 932.6 1294.3 937.5 1293.6 942.3 C 1292.9 947.3 1292.2 952.3 1291.6 957.3 C 1291 962 1290.4 966.8 1289.8 971.5 C 1289.2 976.6 1288.5 981.7 1287.9 986.8 C 1287.3 991.4 1286.8 996.1 1286.3 1000.7 C 1285.7 1005.9 1285.1 1011.1 1284.6 1016.3 C 1284.1 1020.9 1283.6 1025.4 1283.2 1030 C 1282.7 1035.3 1282.1 1040.6 1281.6 1045.9 C 1281.2 1050.4 1280.8 1054.8 1280.4 1059.3 C 1279.9 1065.2 1279.4 1070.6 1279 1076.1 Z" style="fill: rgb(255, 255, 255);"/>
</svg>