<?xml version="1.0" encoding="utf-8"?>
<svg version="1.1" viewBox="0 0 3839 1292.4" xmlns="http://www.w3.org/2000/svg">
  <path class="st1" d="M 1490 274.7 C 1490 240.7 1461.7 212.5 1427.8 212.5 L 1382.5 212.5 C 1341.5 212.5 1307.5 178.5 1307.5 137.5 C 1307.5 96.5 1341.5 62.5 1382.5 62.5 L 1557.9 62.5 L 1557.9 7.3 L 1381.1 7.3 C 1308.9 7.3 1250.9 65.3 1250.9 137.5 C 1250.9 209.7 1308.9 267.7 1381.1 267.7 L 1426.4 267.7 C 1430.6 267.7 1433.5 270.5 1433.5 274.8 C 1433.5 279 1430.7 281.9 1427.8 281.9 L 1250.9 281.9 L 1250.9 337 L 1427.7 337 C 1461.7 337 1490 308.7 1490 274.7 Z M 1427.7 144.8 L 1382.4 144.8 C 1378.2 144.8 1375.3 142 1375.3 137.7 C 1375.3 134.9 1378.1 132 1381 132 L 1557.9 132 L 1557.9 75.4 L 1381.1 75.5 C 1347.1 75.5 1318.9 103.8 1318.9 137.8 C 1318.9 171.8 1347.2 200 1381.2 200 L 1426.5 200 C 1467.5 200 1501.5 233.9 1501.5 274.9 C 1501.5 315.9 1467.6 349.9 1426.6 349.9 L 1251.2 350 L 1251.2 405.2 L 1428 405.1 C 1500.2 405.1 1558.1 347 1558.1 274.9 C 1558.1 202.8 1499.9 144.8 1427.7 144.8 Z M 2043.2 130.4 L 2200.2 130.4 L 2200.2 75.2 L 2016.3 75.2 C 1992.2 75.2 1973.9 93.6 1973.9 117.6 L 1973.9 294.4 C 1973.9 318.5 1992.3 336.8 2016.3 336.8 L 2130.9 336.8 L 2130.9 212.5 L 2043.2 212.5 L 2043.2 267.7 L 2075.7 267.7 L 2075.7 280.4 L 2043.2 280.4 C 2036.1 280.4 2030.5 274.7 2030.5 267.7 L 2030.5 143.1 C 2030.5 136.1 2036.1 130.4 2043.2 130.4 Z M 2493.1 337 L 2405.4 76.7 C 2402.6 69.6 2396.9 64 2388.4 64 C 2381.3 64 2374.3 69.7 2371.4 75.3 L 2258.2 404.9 L 2323.3 404.9 L 2362.9 287.5 L 2362.9 337 L 2493.1 337 Z M 2387 218.1 L 2405.4 274.7 L 2367.2 274.7 L 2387 218.1 Z M 2473.2 65 C 2461.9 28.3 2427.9 0 2386.9 0 C 2345.9 0 2311.9 26.9 2302 63.7 L 2198.9 366.5 L 2198.8 144.4 L 2043.2 144.5 L 2043.2 199.7 L 2145.1 199.6 L 2145.2 349.6 L 2017.9 349.7 C 1986.8 349.7 1962.7 324.3 1962.7 294.6 L 1962.6 117.8 C 1962.6 86.7 1988 62.6 2017.7 62.6 L 2200.2 62.5 L 2200.2 7.3 L 2016.3 7.4 C 1955.5 7.4 1906 57 1906 117.8 L 1906.1 294.6 C 1906.1 355.4 1955.7 404.9 2016.5 404.9 L 2244.3 404.8 L 2358.7 72.3 C 2362.9 59.6 2374.3 51.1 2388.4 51.1 C 2402.5 51.1 2413.9 59.6 2418.1 72.3 L 2511.6 349.5 L 2364.5 349.6 L 2364.5 404.8 L 2588 404.7 L 2473.2 65 Z M 1640 294.5 L 1640 117.7 C 1640 86.6 1665.5 62.5 1695.2 62.5 L 1884.8 62.5 L 1884.8 7.3 L 1695.2 7.3 C 1634.4 7.3 1584.8 56.8 1584.8 117.7 L 1584.8 294.5 C 1584.8 355.3 1634.3 404.9 1695.2 404.9 L 1884.8 404.9 L 1884.8 349.7 L 1695.2 349.7 C 1664 349.7 1640 324.2 1640 294.5 Z M 1720.7 283.3 C 1713.6 281.9 1708 276.2 1708 269.2 L 1845.2 269.1 L 1845.2 213.9 L 1652.8 214 L 1652.8 296.1 C 1652.8 320.2 1671.2 338.5 1695.3 338.5 L 1884.9 338.4 L 1884.9 283.2 L 1720.7 283.3 Z M 1720.6 131.8 L 1883.3 131.8 L 1883.3 75.2 L 1695.1 75.2 C 1671 75.2 1652.7 93.6 1652.7 117.6 L 1652.7 199.7 L 1845.1 199.7 L 1845.1 144.5 L 1707.9 144.5 C 1707.9 137.5 1713.6 131.8 1720.6 131.8 Z" style="fill: rgb(255, 255, 255);"/>
  <path class="st1" d="M 3820.7 663.8 C 3808.6 634.6 3792.5 609.4 3772.2 588.1 C 3752 566.8 3728.6 550 3702 537.7 C 3675.5 525.4 3648 519.2 3619.6 519.2 L 3044.6 519.2 L 3044.6 624 L 3606.9 624 C 3626.9 624 3644.7 627.9 3660.5 635.8 C 3676.3 643.7 3689.5 653.9 3700.3 666.5 C 3711.1 679.1 3719.4 693.4 3725.1 709.5 C 3730.9 725.5 3733.8 741.4 3733.8 757.2 L 3733.8 1054.4 C 3733.8 1070.2 3730.9 1086.1 3725.1 1102.1 C 3719.3 1118.1 3711 1132.4 3700.3 1145.1 C 3689.5 1157.7 3676.3 1168 3660.5 1175.8 C 3644.7 1183.7 3626.9 1187.6 3606.9 1187.6 L 3267.8 1187.6 L 3267.8 1187.6 L 2981.7 1187.6 C 2961.7 1187.6 2943.9 1183.7 2928.1 1175.8 C 2912.3 1167.9 2899.1 1157.7 2888.3 1145.1 C 2877.5 1132.5 2869.2 1118.2 2863.5 1102.1 C 2857.7 1086.1 2854.8 1070.2 2854.8 1054.4 L 2854.8 519.2 L 2750 519.2 L 2750 1054.4 C 2750 1087.5 2756 1118.6 2768.1 1147.8 C 2780.2 1177 2796.3 1202.2 2816.6 1223.5 C 2836.8 1244.8 2860.2 1261.6 2886.8 1273.9 C 2913.3 1286.3 2940.8 1292.4 2969.2 1292.4 L 3232.2 1292.4 L 3232.2 1292.4 L 3619.8 1292.4 C 3648.2 1292.4 3675.6 1286.2 3702.2 1273.9 C 3728.7 1261.6 3752.1 1244.7 3772.4 1223.5 C 3792.6 1202.2 3808.8 1177 3820.9 1147.8 C 3833 1118.6 3839 1087.5 3839 1054.4 L 3839 757.2 C 3838.8 724.1 3832.8 693 3820.7 663.8 Z M 3604.3 762.8 C 3607.7 766.5 3609.4 771.5 3609.4 777.8 L 3609.4 788.8 L 3380.8 788.8 L 3380.8 892.8 L 3705.5 892.8 L 3705.5 773 C 3705.5 759.3 3703.3 745.3 3698.8 730.8 C 3694.3 716.4 3687.6 703.3 3678.7 691.8 C 3669.8 680.2 3658.5 670.8 3644.8 663.4 C 3631.1 656 3615.1 652.4 3596.7 652.4 L 3044.6 652.4 L 3044.6 757.2 L 3594.3 757.2 C 3597.6 757.2 3600.9 759.1 3604.3 762.8 Z M 1500.7 572.8 C 1482.8 553.9 1460.1 540.2 1432.5 531.8 C 1404.9 523.4 1371.9 519.2 1333.6 519.2 L 1232.7 519.2 C 1194.9 519.2 1162.3 523.4 1135 531.8 C 1107.7 540.2 1084.9 553.9 1066.8 572.8 C 1048.7 591.7 1035.3 616.3 1026.6 646.5 C 1017.9 676.7 1013.6 713.6 1013.6 757.2 L 1013.6 1054.4 C 1013.6 1096.4 1017.9 1132.6 1026.6 1162.8 C 1035.3 1193 1048.7 1217.7 1066.8 1236.9 C 1084.9 1256.1 1107.7 1270.1 1135 1279.1 C 1162.3 1288 1194.9 1292.5 1232.7 1292.5 L 1333.6 1292.5 C 1372 1292.5 1404.9 1288 1432.5 1279.1 C 1460.1 1270.2 1482.8 1256.1 1500.7 1236.9 C 1518.6 1217.7 1531.7 1193 1540.1 1162.8 C 1548.5 1132.6 1552.7 1096.5 1552.7 1054.4 L 1552.7 757.2 C 1552.7 713.6 1548.5 676.7 1540.1 646.5 C 1531.7 616.3 1518.5 591.7 1500.7 572.8 Z M 1453.4 1076.4 C 1453.4 1092.2 1451.4 1106.9 1447.5 1120.5 C 1443.6 1134.2 1437.3 1146 1428.6 1156 C 1419.9 1166 1408.8 1173.7 1395.1 1179.3 C 1381.4 1184.8 1364.6 1187.6 1344.7 1187.6 L 1283.2 1187.6 L 1221.7 1187.6 C 1201.7 1187.6 1184.9 1184.8 1171.3 1179.3 C 1157.6 1173.8 1146.5 1166 1137.8 1156 C 1129.1 1146 1122.8 1134.2 1118.9 1120.5 C 1115 1106.8 1113 1092.1 1113 1076.4 L 1113 735.2 C 1113 719.4 1115 704.7 1118.9 691.1 C 1122.8 677.4 1129.1 665.6 1137.8 655.6 C 1146.5 645.6 1157.8 637.9 1171.7 632.3 C 1185.6 626.8 1202.6 624 1222.5 624 L 1343.9 624 C 1363.9 624 1380.8 626.8 1394.7 632.3 C 1408.6 637.8 1419.9 645.6 1428.6 655.6 C 1437.3 665.6 1443.6 677.4 1447.5 691.1 C 1451.4 704.8 1453.4 719.5 1453.4 735.2 L 1453.4 1076.4 L 1453.4 1076.4 Z M 1406.9 680.8 C 1400.1 671.9 1390.7 664.9 1378.9 659.9 C 1367.1 654.9 1352 652.4 1333.6 652.4 L 1283.2 652.4 L 1232.8 652.4 C 1214.4 652.4 1199.3 654.9 1187.5 659.9 C 1175.7 664.9 1166.3 671.9 1159.5 680.8 C 1152.7 689.7 1147.9 700.2 1145.3 712.3 C 1142.7 724.4 1141.4 737.3 1141.4 750.9 L 1141.4 1060.7 C 1141.4 1079.1 1142.7 1094.5 1145.3 1106.8 C 1147.9 1119.2 1152.5 1129.3 1159.1 1137.1 C 1165.7 1145 1174.9 1150.6 1186.7 1154 C 1198.5 1157.4 1213.6 1159.1 1232 1159.1 L 1334.5 1159.1 C 1352.9 1159.1 1368 1157.4 1379.8 1154 C 1391.6 1150.6 1400.8 1144.9 1407.4 1137.1 C 1414 1129.2 1418.6 1119.1 1421.2 1106.8 C 1423.8 1094.5 1425.1 1079.1 1425.1 1060.7 L 1425.1 750.9 C 1425.1 737.2 1423.8 724.4 1421.2 712.3 C 1418.4 700.2 1413.7 689.7 1406.9 680.8 Z M 1323.3 1033.8 C 1323.3 1040.1 1322.4 1045.1 1320.5 1048.8 C 1318.7 1052.5 1314.6 1054.3 1308.3 1054.3 L 1257.9 1054.3 C 1251.6 1054.3 1247.5 1052.5 1245.7 1048.8 C 1243.9 1045.1 1242.9 1040.1 1242.9 1033.8 L 1242.9 777.7 C 1242.9 771.4 1243.8 766.4 1245.7 762.7 C 1247.5 759 1251.6 757.2 1257.9 757.2 L 1308.3 757.2 C 1314.6 757.2 1318.7 759 1320.5 762.7 C 1322.3 766.4 1323.3 771.4 1323.3 777.7 L 1323.3 1033.8 Z M 2076.9 572.8 C 2059 553.9 2036.3 540.2 2008.7 531.8 C 1981.1 523.4 1948.1 519.2 1909.8 519.2 L 1606.3 519.2 L 1606.3 624 L 1920 624 C 1940 624 1956.9 626.8 1970.8 632.3 C 1984.7 637.8 1996 645.6 2004.7 655.6 C 2013.4 665.6 2019.7 677.4 2023.6 691.1 C 2027.5 704.8 2029.5 719.5 2029.5 735.2 L 2029.5 1076.5 C 2029.5 1092.3 2027.5 1107 2023.6 1120.6 C 2019.7 1134.3 2013.4 1146.1 2004.7 1156.1 C 1996 1166.1 1984.9 1173.8 1971.2 1179.4 C 1957.5 1184.9 1940.7 1187.7 1920.8 1187.7 L 1705.6 1187.7 L 1705.6 782.5 L 1606.3 782.5 L 1606.3 1292.5 L 1909.8 1292.5 C 1948.2 1292.5 1981.1 1288 2008.7 1279.1 C 2036.3 1270.2 2059 1256.1 2076.9 1236.9 C 2094.8 1217.7 2107.9 1193 2116.3 1162.8 C 2124.7 1132.6 2128.9 1096.5 2128.9 1054.4 L 2128.9 757.2 C 2128.9 713.6 2124.7 676.7 2116.3 646.5 C 2107.9 616.3 2094.7 591.7 2076.9 572.8 Z M 1896.8 762.7 C 1900.7 766.4 1902.7 771.4 1902.7 777.7 L 1902.7 1033.9 C 1902.7 1040.2 1900.7 1045.2 1896.8 1048.9 C 1892.9 1052.6 1887.7 1054.4 1881.4 1054.4 L 1864.1 1054.4 C 1851 1054.4 1844.4 1047.6 1844.4 1033.9 L 1844.4 782.5 L 1734 782.5 L 1734 1159.3 L 1910.6 1159.3 C 1929 1159.3 1944.1 1157.6 1955.9 1154.2 C 1967.7 1150.8 1976.9 1145.1 1983.5 1137.3 C 1990.1 1129.4 1994.7 1119.3 1997.3 1107 C 1999.9 1094.7 2001.2 1079.3 2001.2 1060.9 L 2001.2 750.9 C 2001.2 737.2 1999.9 724.4 1997.3 712.3 C 1994.7 700.2 1989.9 689.7 1983.1 680.8 C 1976.3 671.9 1966.9 664.9 1955.1 659.9 C 1943.3 654.9 1928.2 652.4 1909.8 652.4 L 1606.3 652.4 L 1606.3 757.2 L 1881.4 757.2 C 1887.7 757.2 1892.8 759.1 1896.8 762.7 Z M 2315.3 537.7 C 2288.8 550.1 2265.4 566.9 2245.1 588.1 C 2224.9 609.4 2208.7 634.6 2196.6 663.8 C 2184.5 693 2178.5 724.1 2178.5 757.2 L 2178.5 1054.4 C 2178.5 1087.5 2184.5 1118.6 2196.6 1147.8 C 2208.7 1177 2224.8 1202.2 2245.1 1223.5 C 2265.3 1244.8 2288.7 1261.6 2315.3 1273.9 C 2341.8 1286.3 2369.3 1292.4 2397.7 1292.4 L 2696.4 1292.4 L 2696.4 1187.6 L 2410.3 1187.6 C 2390.3 1187.6 2372.5 1183.7 2356.7 1175.8 C 2340.9 1167.9 2327.7 1157.7 2316.9 1145.1 C 2306.1 1132.5 2297.8 1118.2 2292.1 1102.1 C 2286.3 1086.1 2283.4 1070.2 2283.4 1054.4 L 2283.4 757.2 C 2283.4 741.4 2286.3 725.5 2292.1 709.5 C 2297.9 693.5 2306.2 679.2 2316.9 666.5 C 2327.7 653.9 2340.9 643.6 2356.7 635.8 C 2372.5 627.9 2390.3 624 2410.3 624 L 2696.4 624 L 2696.4 519.2 L 2397.7 519.2 C 2369.3 519.2 2341.8 525.4 2315.3 537.7 Z M 2372.5 663.4 C 2358.8 670.8 2347.5 680.2 2338.6 691.8 C 2329.7 703.4 2323 716.4 2318.5 730.8 C 2314 745.3 2311.8 759.3 2311.8 773 L 2311.8 892.8 L 2636.6 892.8 L 2636.6 788.8 L 2407.9 788.8 L 2407.9 777.8 C 2407.9 771.5 2409.6 766.5 2413 762.8 C 2416.4 759.1 2419.7 757.3 2422.9 757.3 L 2696.4 757.3 L 2696.4 652.4 L 2420.5 652.4 C 2402.1 652.4 2386.1 656.1 2372.5 663.4 Z M 2413.1 1048.8 C 2409.7 1045.1 2408 1040.1 2408 1033.8 L 2408 1023.6 L 2636.6 1023.6 L 2636.6 918.8 L 2311.8 918.8 L 2311.8 1038.6 C 2311.8 1052.3 2314 1066.3 2318.5 1080.8 C 2323 1095.3 2329.7 1108.3 2338.6 1119.8 C 2347.5 1131.4 2358.8 1140.8 2372.5 1148.2 C 2386.2 1155.6 2402.2 1159.2 2420.6 1159.2 L 2696.5 1159.2 L 2696.5 1054.4 L 2422.9 1054.4 C 2419.8 1054.3 2416.5 1052.5 2413.1 1048.8 Z M 2909.9 1119.7 C 2918.8 1131.3 2930.1 1140.7 2943.8 1148.1 C 2957.5 1155.5 2973.5 1159.1 2991.9 1159.1 L 3232 1159.1 L 3232 1159.1 L 3596.8 1159.1 C 3615.2 1159.1 3631.2 1155.4 3644.9 1148.1 C 3658.6 1140.7 3669.9 1131.3 3678.8 1119.7 C 3687.7 1108.1 3694.4 1095.1 3698.9 1080.7 C 3703.4 1066.3 3705.6 1052.2 3705.6 1038.5 L 3705.6 918.8 L 3380.8 918.8 L 3380.8 1023.6 L 3609.4 1023.6 L 3609.4 1033.8 C 3609.4 1040.1 3607.7 1045.1 3604.3 1048.8 C 3600.9 1052.5 3597.6 1054.3 3594.4 1054.3 L 3267.8 1054.3 L 3267.8 1054.3 L 3006.1 1054.3 L 3006.1 1053.5 C 3002.9 1053.5 2999.7 1051.8 2996.2 1048.4 C 2992.8 1045 2991.1 1040.1 2991.1 1033.8 L 2991.1 519.2 L 2883.1 519.2 L 2883.1 1038.6 C 2883.1 1052.3 2885.3 1066.3 2889.8 1080.8 C 2894.3 1095.2 2901 1108.2 2909.9 1119.7 Z M 776 573.2 C 768.9 563 760.2 553.8 750 545.6 C 739.8 537.5 727.7 531 713.7 526.3 C 699.8 521.6 684.1 519.2 666.8 519.2 C 648.9 519.2 633.4 521.6 620.3 526.3 C 607.2 531 595.7 537.5 586 545.6 C 576.3 553.8 567.9 562.9 560.8 573.2 C 553.7 583.4 547.3 594.1 541.5 605.1 L 517.9 652.4 L 494.3 605.1 C 489 594.1 482.9 583.4 475.8 573.2 C 468.7 563 460.2 553.8 450.2 545.6 C 440.2 537.5 428.6 531 415.5 526.3 C 402.4 521.6 386.9 519.2 369 519.2 C 351.1 519.2 335.4 521.6 321.7 526.3 C 308 531 296.1 537.5 285.8 545.6 C 275.6 553.8 267 562.9 260.2 573.2 C 253.4 583.4 247.8 594.1 243.6 605.1 L 0 1292.3 L 104.8 1292.3 L 331.8 644.4 C 333.4 639.2 338.1 634.4 346 630.2 C 353.9 626 361.5 623.9 368.9 623.9 C 377.3 623.9 384.9 626 391.8 630.2 C 398.6 634.4 403.1 639.1 405.2 644.4 L 517.9 946.3 L 630.6 644.4 C 632.7 639.2 637.2 634.4 644 630.2 C 650.8 626 658.4 623.9 666.9 623.9 C 674.3 623.9 681.9 626 689.8 630.2 C 697.7 634.4 702.4 639.1 704 644.4 L 931 1292.3 L 1035.8 1292.3 L 792.2 605.1 C 788.5 594.1 783.1 583.4 776 573.2 Z M 678.7 655.9 C 674.5 653.5 670.5 652.4 666.9 652.4 C 663.2 652.4 659.4 653.6 655.5 655.9 C 651.6 658.3 649.1 661 648 664.2 L 517.9 1022.8 L 387.8 664.2 C 386.7 661 384.3 658.3 380.3 655.9 C 376.4 653.5 372.5 652.4 368.9 652.4 C 365.2 652.4 361.3 653.6 357.1 655.9 C 352.9 658.3 350.3 661 349.2 664.2 L 133.2 1292.4 L 238 1292.4 L 368.8 895.1 L 517.8 1292.4 L 666.8 895.1 L 801.6 1292.4 L 902.5 1292.4 L 686.5 664.2 C 685.5 661.1 682.9 658.3 678.7 655.9 Z" style="fill: rgb(255, 255, 255);"/>
</svg>