<?xml version="1.0" encoding="utf-8"?>
<svg width="386.64349mm" height="105.25655mm" viewBox="0 0 386.64349 105.25655" version="1.1" id="svg8" xmlns="http://www.w3.org/2000/svg">
  <path style="display: inline; fill-opacity: 1; stroke-width: 1.30421; stroke-miterlimit: 4; stroke-dasharray: none; stroke-opacity: 1; paint-order: fill markers; stroke: rgb(255, 255, 255); fill: rgb(255, 255, 255);" d="M 364.32 0.941 L 344.995 8.187 L 344.995 15.57 L 349.217 13.987 L 349.217 21.991 L 357.671 25.161 L 357.671 10.819 L 364.32 8.326 Z" id="path8969"/>
  <path style="display: inline; fill: none; fill-opacity: 1; stroke-width: 1.30421; stroke-miterlimit: 4; stroke-dasharray: none; stroke-opacity: 1; paint-order: fill markers; stroke: rgb(255, 255, 255);" d="M 365.608 0.941 L 384.933 8.187 L 384.933 15.57 L 380.712 13.987 L 380.712 13.993 L 372.258 10.824 L 372.258 10.82 L 365.608 8.326 Z" id="path9172"/>
  <path style="display: inline; fill-opacity: 1; stroke-width: 0.778924; stroke-miterlimit: 4; stroke-dasharray: none; stroke-opacity: 1; paint-order: fill markers; fill: rgb(255, 255, 255); stroke: rgb(255, 255, 255);" d="M 365.345 0.562 L 366.278 0.911 L 366.278 8.296 L 365.345 7.947 Z" id="path8969-9-3"/>
  <path style="display: inline; fill-opacity: 1; stroke-width: 1.30421; stroke-miterlimit: 4; stroke-dasharray: none; stroke-opacity: 1; paint-order: fill markers; stroke: rgb(255, 255, 255); fill: rgb(255, 255, 255);" d="M 365.608 35.582 L 384.933 28.336 L 384.933 20.953 L 380.712 22.536 L 380.712 14.533 L 372.258 11.363 L 372.258 25.704 L 365.608 28.198 Z" id="path8969-3"/>
  <path style="display: inline; fill: none; fill-opacity: 1; stroke-width: 1.30421; stroke-miterlimit: 4; stroke-dasharray: none; stroke-opacity: 1; paint-order: fill markers; stroke: rgb(255, 255, 255);" d="M 364.32 35.582 L 344.995 28.336 L 344.995 20.953 L 349.217 22.536 L 349.217 22.53 L 357.671 25.7 L 357.671 25.704 L 364.32 28.197 Z" id="path9172-8"/>
  <path style="display: inline; fill-opacity: 1; stroke-width: 0.778924; stroke-miterlimit: 4; stroke-dasharray: none; stroke-opacity: 1; paint-order: fill markers; stroke: rgb(255, 255, 255); fill: rgb(255, 255, 255);" d="M 364.583 35.961 L 363.65 35.612 L 363.65 28.227 L 364.583 28.577 Z" id="path8969-9-3-6"/>
  <path d="M 0.299 2.303 L 0.299 10.438 L 14.511 10.438 L 14.511 34.221 L 24.704 34.221 L 24.704 10.438 L 38.917 10.438 L 38.917 2.303 Z" style="font: bold 32.5088px / 1.25 &quot;Microgramma D Extended&quot;; font-feature-settings: normal; text-align: start; writing-mode: lr-tb; text-anchor: start; fill-opacity: 1; stroke-width: 0.40636; letter-spacing: 0px; word-spacing: 0px; display: inline; fill: rgb(255, 255, 255);" id="path854"/>
  <path d="M 39.757 2.303 L 39.757 34.221 L 49.95 34.221 L 49.95 22.688 L 71.915 22.688 L 71.915 34.221 L 82.107 34.221 L 82.107 2.303 L 71.915 2.303 L 71.915 13.739 L 49.95 13.739 L 49.95 2.303 Z" style="font: bold 32.5088px / 1.25 &quot;Microgramma D Extended&quot;; font-feature-settings: normal; text-align: start; writing-mode: lr-tb; text-anchor: start; fill-opacity: 1; stroke-width: 0.40636; letter-spacing: 0px; word-spacing: 0px; display: inline; fill: rgb(255, 255, 255);" id="path856"/>
  <path d="M 107.829 1.824 C 94.478 1.824 91.511 2.159 89.071 4.025 C 86.63 5.892 85.913 9.146 85.913 18.046 C 85.913 27.425 86.582 30.584 89.071 32.498 C 91.511 34.364 94.478 34.699 107.925 34.699 C 121.132 34.699 124.147 34.364 126.588 32.498 C 129.028 30.632 129.746 27.425 129.746 18.238 C 129.746 9.098 129.028 5.892 126.588 4.025 C 124.147 2.159 121.18 1.824 107.829 1.824 Z M 107.829 10.103 C 116.73 10.103 117.783 10.246 118.883 11.538 C 119.745 12.591 120.032 14.409 120.032 19.147 C 120.032 23.023 119.697 24.411 118.596 25.272 C 117.304 26.229 115.725 26.421 107.925 26.421 C 99.886 26.421 98.354 26.277 97.062 25.272 C 95.914 24.363 95.627 23.071 95.627 19.099 C 95.627 15.032 95.818 13.213 96.392 12.112 C 97.349 10.246 98.259 10.103 107.829 10.103 Z" style="font: bold 32.5088px / 1.25 &quot;Microgramma D Extended&quot;; font-feature-settings: normal; text-align: start; writing-mode: lr-tb; text-anchor: start; fill-opacity: 1; stroke-width: 0.40636; letter-spacing: 0px; word-spacing: 0px; display: inline; fill: rgb(255, 255, 255);" id="path858"/>
  <path d="M 133.594 2.303 L 133.594 34.221 L 143.165 34.221 L 142.926 10.342 L 144.648 10.342 L 156.66 34.221 L 164.747 34.221 L 176.758 10.342 L 178.385 10.342 L 178.146 34.221 L 187.716 34.221 L 187.716 2.303 L 170.202 2.303 L 160.679 23.023 L 151.204 2.303 Z" style="font: bold 32.5088px / 1.25 &quot;Microgramma D Extended&quot;; font-feature-settings: normal; text-align: start; writing-mode: lr-tb; text-anchor: start; fill-opacity: 1; stroke-width: 0.40636; letter-spacing: 0px; word-spacing: 0px; display: inline; fill: rgb(255, 255, 255);" id="path860"/>
  <path d="M 191.047 23.645 L 191.047 25.176 C 191.047 29.579 191.765 31.445 193.966 32.833 C 196.215 34.268 200.092 34.699 209.997 34.699 C 219.52 34.699 223.54 34.46 225.454 33.742 C 228.756 32.498 230.095 29.77 230.095 24.219 C 230.095 19.769 229.282 17.616 227.081 16.18 C 225.023 14.888 222.965 14.649 212.438 14.314 C 205.69 14.122 203.058 13.979 202.197 13.739 C 201.192 13.5 200.761 12.878 200.761 11.682 C 200.761 9.337 201.431 9.146 209.662 9.146 C 216.553 9.146 217.749 9.241 218.563 9.72 C 219.281 10.15 219.424 10.581 219.52 12.352 L 228.899 12.352 C 228.947 11.73 228.947 11.06 228.947 10.868 C 228.947 7.088 228.181 5.078 226.267 3.786 C 224.018 2.255 220.668 1.824 211.385 1.824 C 203.728 1.824 199.326 2.015 197.46 2.398 C 193.057 3.355 191.334 6.083 191.334 12.16 C 191.334 19.195 193.536 21.205 201.431 21.444 L 204.015 21.539 L 209.184 21.779 L 216.84 22.066 C 219.951 22.114 220.668 22.592 220.668 24.506 C 220.668 27.33 220.668 27.33 210.236 27.33 C 203.393 27.33 202.341 27.234 201.431 26.66 C 200.666 26.181 200.474 25.559 200.474 23.645 Z" style="font: bold 32.5088px / 1.25 &quot;Microgramma D Extended&quot;; font-feature-settings: normal; text-align: start; writing-mode: lr-tb; text-anchor: start; fill-opacity: 1; stroke-width: 0.40636; letter-spacing: 0px; word-spacing: 0px; display: inline; fill: rgb(255, 255, 255);" id="path862"/>
  <path d="M 254.753 1.824 C 241.402 1.824 238.435 2.159 235.995 4.025 C 233.554 5.892 232.836 9.146 232.836 18.046 C 232.836 27.425 233.506 30.584 235.995 32.498 C 238.435 34.364 241.402 34.699 254.849 34.699 C 268.056 34.699 271.071 34.364 273.512 32.498 C 275.952 30.632 276.67 27.425 276.67 18.238 C 276.67 9.098 275.952 5.892 273.512 4.025 C 271.071 2.159 268.104 1.824 254.753 1.824 Z M 254.753 10.103 C 263.654 10.103 264.707 10.246 265.807 11.538 C 266.669 12.591 266.956 14.409 266.956 19.147 C 266.956 23.023 266.621 24.411 265.52 25.272 C 264.228 26.229 262.649 26.421 254.849 26.421 C 246.81 26.421 245.278 26.277 243.986 25.272 C 242.838 24.363 242.551 23.071 242.551 19.099 C 242.551 15.032 242.742 13.213 243.316 12.112 C 244.273 10.246 245.183 10.103 254.753 10.103 Z" style="font: bold 32.5088px / 1.25 &quot;Microgramma D Extended&quot;; font-feature-settings: normal; text-align: start; writing-mode: lr-tb; text-anchor: start; fill-opacity: 1; stroke-width: 0.40636; letter-spacing: 0px; word-spacing: 0px; display: inline; fill: rgb(255, 255, 255);" id="path864"/>
  <path d="M 280.518 2.303 L 280.518 34.221 L 290.424 34.221 L 290.185 10.39 L 291.237 10.39 L 308.034 34.221 L 324.926 34.221 L 324.926 2.303 L 315.02 2.303 L 315.26 26.086 L 314.255 26.086 L 297.554 2.303 Z" style="font: bold 32.5088px / 1.25 &quot;Microgramma D Extended&quot;; font-feature-settings: normal; text-align: start; writing-mode: lr-tb; text-anchor: start; fill-opacity: 1; stroke-width: 0.40636; letter-spacing: 0px; word-spacing: 0px; display: inline; fill: rgb(255, 255, 255);" id="path866"/>
  <path d="M 18.916 53.883 L 18.916 99.53 L 32.603 99.53 L 32.261 65.38 L 34.725 65.38 L 51.902 99.53 L 63.468 99.53 L 80.645 65.38 L 82.972 65.38 L 82.63 99.53 L 96.317 99.53 L 96.317 53.883 L 71.27 53.883 L 57.651 83.516 L 44.1 53.883 Z" style="font: bold 46.4917px / 1.25 &quot;Microgramma D Extended&quot;; font-feature-settings: normal; text-align: start; writing-mode: lr-tb; text-anchor: start; fill: none; fill-opacity: 1; stroke-width: 1.26019; stroke-miterlimit: 4; stroke-dasharray: none; stroke-opacity: 1; letter-spacing: 0px; word-spacing: 0px; display: inline; stroke: rgb(255, 255, 255);" id="path869"/>
  <path d="M 133.109 53.199 C 114.015 53.199 109.772 53.678 106.282 56.347 C 102.792 59.016 101.765 63.669 101.765 76.399 C 101.765 89.812 102.723 94.329 106.282 97.066 C 109.772 99.735 114.015 100.214 133.246 100.214 C 152.134 100.214 156.446 99.735 159.936 97.066 C 163.426 94.397 164.453 89.812 164.453 76.672 C 164.453 63.601 163.426 59.016 159.936 56.347 C 156.446 53.678 152.203 53.199 133.109 53.199 Z M 133.109 65.038 C 145.838 65.038 147.344 65.243 148.918 67.091 C 150.15 68.597 150.56 71.197 150.56 77.973 C 150.56 83.516 150.081 85.501 148.507 86.732 C 146.659 88.101 144.401 88.375 133.246 88.375 C 121.749 88.375 119.559 88.17 117.711 86.732 C 116.068 85.432 115.658 83.584 115.658 77.904 C 115.658 72.087 115.932 69.487 116.753 67.913 C 118.121 65.243 119.422 65.038 133.109 65.038 Z" style="font: bold 46.4917px / 1.25 &quot;Microgramma D Extended&quot;; font-feature-settings: normal; text-align: start; writing-mode: lr-tb; text-anchor: start; fill: none; fill-opacity: 1; stroke-width: 1.26019; stroke-miterlimit: 4; stroke-dasharray: none; stroke-opacity: 1; letter-spacing: 0px; word-spacing: 0px; display: inline; stroke: rgb(255, 255, 255);" id="path871"/>
  <path style="font: bold 46.4917px / 1.25 &quot;Microgramma D Extended&quot;; font-feature-settings: normal; text-align: start; writing-mode: lr-tb; text-anchor: start; fill-opacity: 1; stroke-width: 0.498746; stroke-opacity: 1; letter-spacing: 0px; word-spacing: 0px; display: inline; fill: rgb(255, 255, 255);" d="M 213.859 48.524 L 181.627 104.84 L 185.93 104.84 L 185.901 104.889 L 193.33 104.889 L 225.62 48.574 L 221.318 48.574 L 221.347 48.524 Z" id="path873"/>
  <path d="M 242.795 53.883 L 242.795 65.517 L 263.12 65.517 L 263.12 99.53 L 277.697 99.53 L 277.697 65.517 L 298.023 65.517 L 298.023 53.883 Z" style="font: bold 46.4917px / 1.25 &quot;Microgramma D Extended&quot;; font-feature-settings: normal; text-align: start; writing-mode: lr-tb; text-anchor: start; fill-opacity: 1; stroke-width: 0.581147; stroke-opacity: 1; letter-spacing: 0px; word-spacing: 0px; display: inline; fill: rgb(255, 255, 255);" id="path875"/>
  <path d="M 332.536 53.199 C 313.442 53.199 309.199 53.678 305.709 56.347 C 302.219 59.016 301.192 63.669 301.192 76.399 C 301.192 89.812 302.15 94.329 305.709 97.066 C 309.199 99.735 313.442 100.214 332.673 100.214 C 351.561 100.214 355.872 99.735 359.363 97.066 C 362.853 94.397 363.879 89.812 363.879 76.672 C 363.879 63.601 362.853 59.016 359.363 56.347 C 355.872 53.678 351.629 53.199 332.536 53.199 Z M 332.536 65.038 C 345.265 65.038 346.77 65.243 348.344 67.091 C 349.576 68.597 349.987 71.197 349.987 77.973 C 349.987 83.516 349.508 85.501 347.934 86.732 C 346.086 88.101 343.828 88.375 332.673 88.375 C 321.175 88.375 318.985 88.17 317.138 86.732 C 315.495 85.432 315.085 83.584 315.085 77.904 C 315.085 72.087 315.358 69.487 316.179 67.913 C 317.548 65.243 318.848 65.038 332.536 65.038 Z" style="font: bold 46.4917px / 1.25 &quot;Microgramma D Extended&quot;; font-feature-settings: normal; text-align: start; writing-mode: lr-tb; text-anchor: start; fill-opacity: 1; stroke-width: 0.581147; stroke-opacity: 1; letter-spacing: 0px; word-spacing: 0px; display: inline; fill: rgb(255, 255, 255);" id="path877"/>
</svg>