<?xml version="1.0" encoding="utf-8"?>
<svg viewBox="0 0 200 40" xmlns="http://www.w3.org/2000/svg">
  <path d="M 12.67 29.375 L 6.73 29.375 L 11.11 10.625 L 18.55 10.625 L 19.09 20.165 L 19.3 20.165 L 23.2 10.625 L 30.64 10.625 L 28.42 29.375 L 22.45 29.375 L 23.71 20.285 L 23.5 20.285 L 19.75 29.375 L 15.4 29.375 L 14.77 20.285 L 14.62 20.285 Z M 44.225 22.295 L 38.525 22.295 L 38.135 24.575 L 45.125 24.575 L 44.285 29.375 L 31.595 29.375 L 34.895 10.625 L 47.435 10.625 L 45.875 15.425 L 39.725 15.425 L 39.305 17.945 L 45.005 17.945 Z M 47.499 29.375 L 50.799 10.625 L 58.779 10.625 C 61.359 10.625 63.194 11.08 64.284 11.99 C 65.374 12.9 65.919 14.375 65.919 16.415 C 65.919 17.455 65.799 18.655 65.559 20.015 C 64.959 23.375 63.934 25.775 62.484 27.215 C 61.034 28.655 58.699 29.375 55.479 29.375 Z M 57.999 15.425 L 55.629 15.425 L 54.039 24.575 L 56.409 24.575 C 57.189 24.575 57.769 24.48 58.149 24.29 C 58.529 24.1 58.779 23.665 58.899 22.985 L 59.949 17.015 C 59.969 16.895 59.979 16.735 59.979 16.535 C 59.979 16.075 59.819 15.775 59.499 15.635 C 59.179 15.495 58.679 15.425 57.999 15.425 Z M 66.606 29.375 L 69.906 10.625 L 75.606 10.625 L 72.306 29.375 Z M 80.109 29.375 L 74.109 29.375 L 81.999 10.625 L 90.819 10.625 L 92.139 29.375 L 86.109 29.375 L 85.989 26.405 L 81.279 26.405 Z M 85.239 16.385 L 83.139 21.635 L 85.539 21.635 L 85.539 16.385 Z M 110.318 24.845 L 106.598 24.845 L 105.818 29.375 L 100.118 29.375 L 103.418 10.625 L 112.418 10.625 C 115.818 10.625 117.518 12.205 117.518 15.365 C 117.518 16.865 117.308 18.22 116.888 19.43 C 116.468 20.64 116.003 21.6 115.493 22.31 C 114.983 23.02 114.283 23.62 113.393 24.11 C 112.503 24.6 111.478 24.845 110.318 24.845 Z M 117.306 29.375 L 120.606 10.625 L 126.306 10.625 L 123.846 24.575 L 128.866 24.575 L 134.736 10.625 L 143.556 10.625 L 144.876 29.375 L 138.846 29.375 L 138.726 26.405 L 134.016 26.405 L 132.846 29.375 L 126.846 29.375 L 128.866 24.575 L 129.546 24.575 L 128.706 29.375 Z M 137.976 16.385 L 135.876 21.635 L 138.276 21.635 L 138.276 16.385 Z M 152.47 10.625 L 152.86 17.225 L 153.07 17.225 L 155.83 10.625 L 162.13 10.625 L 154.57 24.275 L 153.7 29.375 L 148 29.375 L 148.87 24.275 L 146.17 10.625 Z M 172.57 22.295 L 166.87 22.295 L 166.48 24.575 L 173.47 24.575 L 172.63 29.375 L 159.94 29.375 L 163.24 10.625 L 175.78 10.625 L 174.22 15.425 L 168.07 15.425 L 167.65 17.945 L 173.35 17.945 Z M 191.379 29.375 L 185.109 29.375 L 183.729 23.795 L 182.499 23.795 L 181.539 29.375 L 175.839 29.375 L 179.139 10.625 L 188.139 10.625 C 191.559 10.625 193.269 12.155 193.269 15.215 C 193.269 16.475 193.079 17.675 192.699 18.815 C 191.999 20.975 190.899 22.415 189.399 23.135 Z M 183.969 15.425 L 183.309 19.175 L 184.629 19.175 C 185.309 19.175 185.824 19.1 186.174 18.95 C 186.524 18.8 186.764 18.37 186.894 17.66 C 187.024 16.95 187.089 16.515 187.089 16.355 C 187.089 15.955 186.934 15.7 186.624 15.59 C 186.314 15.48 185.809 15.425 185.109 15.425 Z M 109.457 12.82 C 106.903 12.82 104.833 14.89 104.833 17.444 C 104.833 19.998 106.903 22.068 109.457 22.068 C 112.011 22.068 114.081 19.998 114.081 17.444 C 114.081 14.89 112.011 12.82 109.457 12.82 Z" style="fill: rgb(255, 255, 255);"/>
  <path id="path4426" d="M 107.957 15.123 L 107.957 20.093 L 111.957 17.548 L 107.957 15.123 Z" style="fill-opacity: 1; fill-rule: evenodd; stroke: none; stroke-width: 0.1; stroke-linecap: butt; stroke-linejoin: miter; stroke-miterlimit: 4; stroke-dasharray: none; stroke-opacity: 1; fill: rgb(255, 255, 255);"/>
</svg>