<?xml version="1.0" encoding="UTF-8" standalone="no"?>
<svg
   version="1.1"
   id="Layer_1"
   x="0px"
   y="0px"
   viewBox="0 0 163.56866 40.000002"
   xml:space="preserve"
   data-inject-url="https://cdn.shopify.com/s/files/1/0014/1962/t/53/assets/logo-bomberman.svg?v=13568267671547782128"
   class="injectable"
   sodipodi:docname="Bomberman_logo_black.svg"
   width="163.56865"
   height="40"
   inkscape:version="1.3.2 (091e20e, 2023-11-25, custom)"
   xmlns:inkscape="http://www.inkscape.org/namespaces/inkscape"
   xmlns:sodipodi="http://sodipodi.sourceforge.net/DTD/sodipodi-0.dtd"
   xmlns="http://www.w3.org/2000/svg"
   xmlns:svg="http://www.w3.org/2000/svg"><defs
   id="defs9">
	
	
</defs><sodipodi:namedview
   id="namedview9"
   pagecolor="#505050"
   bordercolor="#eeeeee"
   borderopacity="1"
   inkscape:showpageshadow="0"
   inkscape:pageopacity="0"
   inkscape:pagecheckerboard="0"
   inkscape:deskcolor="#505050"
   showgrid="false"
   inkscape:zoom="7.4800966"
   inkscape:cx="89.30366"
   inkscape:cy="15.173601"
   inkscape:window-width="2560"
   inkscape:window-height="1009"
   inkscape:window-x="-8"
   inkscape:window-y="-8"
   inkscape:window-maximized="1"
   inkscape:current-layer="Layer_1" />

<path
   class="st0"
   d="m 152.33513,12.723041 2.07914,9.650892 4.90302,-0.217223 4.25135,-15.8882849 -3.16524,-0.031032 -3.38247,12.3816919 -2.79285,-12.3816919 h -3.25834 L 146.8425,19.674165 146.03568,6.1132661 h -3.07214 L 133.5609,20.108611 132.75408,6.0512025 127.01319,14.833204 126.57875,5.9891388 114.6315,23.584174 l -0.93095,-6.889061 0.21722,-0.0931 c 3.3204,-1.551591 6.23739,-4.747867 5.64778,-7.5717611 -0.37238,-1.7377811 -1.98603,-2.8238945 -4.80992,-2.9169898 h -5.05818 l -6.98216,20.0775799 4.03414,-0.310319 3.01009,-8.440651 0.52753,8.161365 7.38556,-0.589604 5.70987,-8.875097 -0.6827,8.285492 2.76182,-0.310317 4.65478,-8.06827 0.18619,7.91311 4.28239,-0.279286 2.38945,-3.506594 6.39255,-0.0931 0.0931,3.010086 5.865,-0.403414 z M 112.24204,9.2785104 c 1.95501,-0.2172226 3.04112,0.3413499 3.35143,0.7447636 0.43445,0.589604 0.40343,1.21024 0,2.048099 -0.55857,1.179209 -1.98604,2.23429 -4.56167,2.327386 0,0 0,0 0,0 -0.0931,0 -0.24825,0 -0.37237,-0.06207 z m 31.03181,7.7269196 h -4.03414 l 3.97207,-5.989138 z M 52.909232,5.802948 c 0.03103,0.031032 0.0931,0.062064 0.155159,0.062064 0.06207,0 0.155158,-0.031032 0.18619,-0.093095 L 53.74709,5.1512808 c 0.0931,-0.093095 0.06207,-0.2482545 -0.03103,-0.3413499 -0.0931,-0.093095 -0.248254,-0.062063 -0.341351,0.031032 l -0.496508,0.6206362 c -0.0931,0.1241272 -0.06207,0.2792863 0.03103,0.3413499 z m -6.920093,3.4134987 c 1.365399,-0.062064 3.351435,0.031032 5.430566,0.7757953 l 0.52754,-1.4274632 c 0.372383,0.1551591 0.744764,0.3103181 1.055082,0.496509 L 52.53685,10.457719 c 0.682699,0.310318 1.365399,0.713732 2.048099,1.210241 l 0.15516,-1.396432 4.809929,-1.7688128 -3.44453,-0.961986 L 60.480993,2.4825446 55.45384,4.7478665 55.671062,0 52.257564,3.9410395 50.302559,0.62063614 49.681923,5.3685027 45.244375,3.7548487 46.920093,8.0372381 Z m 0.434445,-4.3444529 3.599689,1.3343676 c 0.06207,0.031032 0.0931,0 0.155159,0 0.03103,-0.031032 0.06207,-0.062064 0.06207,-0.1241272 l 0.403414,-3.4755624 1.303335,2.2963537 c 0.03103,0.062064 0.06207,0.093095 0.124127,0.093095 0.06207,0 0.0931,-0.031032 0.15516,-0.062063 l 2.823894,-3.5376261 -0.18619,3.9410395 c 0,0.062063 0.03103,0.1241273 0.06207,0.1551591 0.03103,0.031032 0.0931,0.031032 0.155159,0 l 3.475558,-1.5515906 -3.351436,3.723817 c -0.03103,0.031032 -0.06207,0.093095 -0.03103,0.1551589 0.03103,0.062064 0.06207,0.093095 0.124127,0.1241273 l 2.451513,0.6826997 -2.885957,1.0550815 C 54.460822,8.8440652 53.622963,8.1923971 52.53685,7.7889837 c 0.310318,-0.5896044 0.744763,-1.3033359 1.086113,-1.4895268 0.03103,-0.031032 0.06207,-0.062064 0.0931,-0.093095 l 0.558572,-0.2482544 c 0.124124,-0.062064 0.186188,-0.1861912 0.124124,-0.3103184 -0.06206,-0.1241272 -0.18619,-0.1861908 -0.310317,-0.1241272 l -0.775796,0.3413499 c -0.06207,0.031032 -0.124127,0.093095 -0.124127,0.155159 l -0.558573,-0.155159 c 0.03103,-0.031032 0.03103,-0.062064 0.06207,-0.093095 l 0.248255,-0.7137315 c 0.03103,-0.1241272 -0.03103,-0.2482545 -0.15516,-0.3103181 -0.124127,-0.031032 -0.248254,0.031032 -0.310318,0.155159 l -0.18619,0.5896044 c -0.06207,0 -0.0931,0 -0.15516,0.031032 C 51.636935,5.8029489 51.078362,6.7959667 50.768044,7.385571 50.457726,7.354539 50.147407,7.323507 49.83709,7.323507 c -0.775795,0 -1.551591,0.093095 -2.296354,0.3103181 z m 50.799071,13.4057402 6.237395,-0.372381 1.24127,-3.972072 -6.423585,0.248255 1.3654,-4.12723 6.671835,-0.1861912 1.17921,-3.7858806 H 97.160585 l -7.23041,21.3188518 11.233515,-1.086113 1.30334,-4.12723 -6.640805,0.496508 z M 57.68813,19.332816 c -0.279286,-2.606672 -1.489527,-4.871994 -3.320403,-6.485647 v -0.03103 C 50.892164,10.054308 46.795966,10.116371 45.058184,10.302562 39.813809,11.233516 34.569433,14.988365 32.11792,20.3879 c -0.0931,0.18619 -0.18619,0.403413 -0.248254,0.620636 -0.279286,0.651668 -0.496509,1.334368 -0.682699,2.017067 -0.434446,1.644685 -0.527541,3.227308 -0.372383,4.654771 0.03103,0.279287 0.06207,0.527541 0.124128,0.775796 0.279286,1.613653 0.930954,3.041116 1.830876,4.251357 1.830877,2.420481 4.778899,3.878976 8.316525,3.878976 4.003103,0 7.91311,-1.675718 10.923196,-4.344453 0.248255,-0.217223 0.527541,-0.465477 0.775795,-0.713732 2.172227,-2.141194 3.785881,-4.80993 4.561676,-7.664856 0.34135,-1.241273 0.465477,-2.451513 0.434445,-3.59969 -0.03103,-0.310318 -0.06207,-0.620636 -0.0931,-0.930954 z M 44.65477,17.191622 c -0.806826,1.396431 -2.76183,2.358416 -4.31342,2.172226 -1.551591,-0.217222 -2.172227,-1.520558 -1.334369,-2.91699 0.83786,-1.396432 2.761832,-2.358417 4.313422,-2.172226 1.551591,0.217222 2.141195,1.520558 1.334367,2.91699 z M 27.897595,19.425911 C 27.866563,19.301784 37.393328,14.119473 36.276183,8.8750969 35.686578,6.0822342 31.000776,5.0271528 24.080683,5.7719161 L 20.139643,6.1753297 0,40 6.640807,39.069046 c 11.078355,-1.551591 18.836307,-5.740885 22.83941,-9.837083 -0.465478,-2.0481 -0.403413,-4.251358 0.18619,-6.578744 0.217224,-0.86889 0.49651,-1.675717 0.868892,-2.513576 -0.465478,-0.434445 -2.637704,-0.713732 -2.637704,-0.713732 z m -7.509697,-2.141194 3.723817,-6.392553 c 0.06207,-0.0931 0.124127,-0.155159 0.248254,-0.155159 4.189294,-0.465477 4.965089,0.775795 5.058184,1.582623 0.217223,1.986035 -3.59969,4.871994 -8.688906,5.461597 0,0 -0.03103,0 -0.03103,0 -0.0931,0 -0.217222,-0.06207 -0.248254,-0.155159 -0.124127,-0.124127 -0.124127,-0.248254 -0.06207,-0.341349 z m -3.878977,6.920093 c 4.28239,-0.527541 6.826998,0.0931 7.044221,1.737781 0.279286,2.265322 -5.275408,5.647789 -12.133437,6.578743 z M 76.989914,23.925523 76.276182,6.6718386 68.518231,17.191622 68.114817,6.5787431 59.115593,18.463926 c 0.310318,1.861908 0.06207,4.499612 -0.465477,6.516679 l 4.623739,-5.647789 V 29.54228 l 3.692785,-0.217222 5.368503,-9.930178 -0.403414,9.868115 6.702871,-0.651668 c 5.120245,-0.49651 12.381695,-4.406517 12.474785,-9.619861 0.031,-1.489527 -0.71373,-2.637704 -2.91699,-2.91699 l 0.46548,-0.310318 c 2.69977,-1.613653 4.25136,-4.499612 3.56866,-6.7028702 -0.62064,-2.0791311 -3.07215,-3.1652444 -6.70287,-2.9790536 h -1.98604 z m 5.802951,-5.771916 c 3.44453,-0.18619 3.66175,1.117146 3.69278,1.675718 0.12413,1.923972 -2.82389,3.785881 -5.3685,3.972071 0,0 -0.03103,0 -0.341351,0 z m 3.2273,-8.9992239 c 2.17223,-0.031032 2.79287,0.8688909 2.79287,1.7688129 0.031,1.458495 -1.61366,3.010085 -4.15827,3.10318 0,0 0,0 -0.31031,-0.03103 z"
   id="path1"
   style="fill:#ffffff;stroke-width:0.310318" />
</svg>
