<?xml version="1.0" encoding="utf-8"?>
<svg viewBox="0 0 1152.4 161.9" xmlns="http://www.w3.org/2000/svg">
  <path id="rect1682" style="fill-opacity: 1; stroke: none; stroke-width: 1.077; stroke-linecap: square; stroke-miterlimit: 4; stroke-dasharray: none; stroke-opacity: 0.998405; stop-color: rgb(0, 0, 0); fill: rgb(255, 255, 255);" d="M 431.576 0.002 C 425.221 0.029 418.833 0.42 418.104 1.149 C 417.172 2.081 417.063 8.673 417.063 63.765 C 417.063 102.946 416.823 125.969 416.404 127.072 C 415.075 130.567 413.625 130.729 383.765 130.729 C 353.097 130.729 352.895 130.699 350.592 126.088 C 349.513 123.93 349.432 119.524 349.432 62.98 C 349.432 8.603 349.321 2.081 348.389 1.149 C 347.475 0.235 343.936 0.108 319.561 0.108 L 291.775 0.108 L 290.722 1.716 C 289.773 3.163 289.694 9.344 289.93 63.545 C 290.182 121.361 290.247 124.006 291.552 129.735 C 295.72 148.032 304.631 157.768 320.065 160.889 C 323.665 161.616 333.728 161.77 370.317 161.657 C 411.622 161.529 416.454 161.403 420.046 160.358 C 433.223 156.524 439.796 149.381 443.71 134.642 C 445.183 129.094 445.19 128.814 445.407 65.517 C 445.569 17.984 445.43 1.728 444.855 1.035 C 444.254 0.311 437.931 -0.025 431.576 0.002 Z M 1138.038 0.044 C 1131.573 0.068 1125.132 0.393 1124.629 1 C 1124.099 1.639 1123.84 18.583 1123.719 60.676 L 1123.55 119.461 L 1097.071 60.704 C 1082.508 28.388 1070.179 1.534 1069.673 1.028 C 1068.911 0.266 1062.564 0.108 1032.701 0.108 L 996.65 0.108 L 995.617 1.581 C 994.697 2.895 994.585 11.54 994.585 81.148 C 994.585 158.357 994.6 159.256 995.911 160.567 C 997.138 161.794 998.122 161.894 1009.046 161.894 C 1018.197 161.894 1021.143 161.681 1022.141 160.952 C 1023.394 160.036 1023.437 158.447 1023.76 100.85 L 1024.091 41.689 L 1050.913 101.176 C 1066.541 135.836 1078.214 160.92 1078.883 161.278 C 1079.548 161.634 1094.845 161.894 1115.171 161.894 C 1146.231 161.894 1150.43 161.772 1151.351 160.851 C 1152.286 159.916 1152.393 151.739 1152.393 80.754 C 1152.393 20.151 1152.207 1.513 1151.597 0.903 C 1150.994 0.3 1144.504 0.021 1138.038 0.044 Z M 682.21 0.106 L 624.668 0.108 C 569.944 0.108 566.88 0.17 562.11 1.39 C 555.282 3.136 550.769 5.556 546.643 9.682 C 540.929 15.396 537.134 24.541 535.764 35.895 C 534.876 43.263 534.869 118.748 535.756 125.824 C 537.068 136.29 540.401 145.199 545.13 150.885 C 549.204 155.784 557.053 159.91 564.767 161.209 L 564.767 161.205 C 569.649 162.029 684.771 162.028 686.307 161.205 C 687.557 160.537 687.59 159.292 687.59 112.123 L 687.59 63.727 L 685.889 63.08 C 684.85 62.685 668.251 62.433 643.269 62.433 C 607.308 62.433 602.172 62.559 600.877 63.466 C 599.434 64.476 599.403 64.79 599.403 78.252 C 599.403 88.065 599.631 92.233 600.199 92.801 C 600.767 93.369 604.943 93.597 614.786 93.597 L 628.578 93.597 L 628.578 110.137 C 628.578 126.66 628.574 126.678 626.979 128.536 L 625.38 130.397 L 612.434 130.601 C 598.062 130.829 595.908 130.374 594.937 126.904 C 594.275 124.538 594.275 37.459 594.937 35.094 C 596.02 31.223 595.461 31.27 640.48 31.27 C 680.738 31.27 681.651 31.241 682.948 29.944 C 684.183 28.709 684.274 27.734 684.274 15.836 C 684.274 5.34 684.09 2.79 683.242 1.58 L 682.21 0.106 Z M 2.064 0.108 L 1.032 1.581 C 0.112 2.895 0 11.54 0 81.148 C 0 158.357 0.014 159.256 1.325 160.567 C 2.552 161.794 3.535 161.894 14.46 161.894 C 23.61 161.894 26.558 161.681 27.555 160.952 C 28.806 160.038 28.851 158.505 29.174 106.607 L 29.505 53.203 L 45.997 106.719 C 55.516 137.609 62.928 160.586 63.529 161.065 C 64.307 161.684 69.362 161.894 83.545 161.894 C 97.699 161.894 102.798 161.683 103.615 161.065 C 104.288 160.556 111.307 139.459 121.81 106.381 L 138.91 52.527 L 139.241 106.571 C 139.53 153.645 139.702 160.697 140.568 161.244 C 141.152 161.614 152.839 161.877 168.913 161.883 C 195.387 161.893 196.307 161.851 197.591 160.567 C 198.902 159.256 198.917 158.357 198.917 81.148 C 198.917 11.54 198.805 2.895 197.885 1.581 L 196.852 0.108 L 162.095 0.108 L 127.337 0.108 L 126.377 1.599 C 125.849 2.42 119.684 20.845 112.677 42.543 C 105.669 64.242 99.739 82.218 99.499 82.491 C 99.259 82.764 93.578 64.926 86.874 42.85 C 80.171 20.775 74.276 2.128 73.773 1.411 C 72.885 0.143 71.902 0.108 37.462 0.108 L 2.064 0.108 Z M 780.493 0.108 L 779.46 1.581 C 778.54 2.895 778.428 11.54 778.428 81.148 C 778.428 158.357 778.443 159.256 779.754 160.567 C 781.061 161.874 781.965 161.894 842.457 161.894 C 883.498 161.894 904.258 161.666 905.116 161.207 C 906.322 160.561 906.399 159.682 906.399 146.421 C 906.399 136.338 906.172 132.094 905.603 131.525 C 905.005 130.928 896.511 130.729 871.455 130.729 L 838.104 130.729 L 838.104 112.164 L 838.104 93.599 L 868.952 93.599 L 899.8 93.599 L 900.485 91.798 C 901.513 89.093 901.008 64.732 899.901 63.627 C 899.225 62.952 892.461 62.726 868.571 62.581 L 838.104 62.396 L 838.104 46.834 L 838.104 31.271 L 870.968 31.271 C 892.355 31.271 904.281 31.032 905.116 30.585 C 906.322 29.939 906.399 29.06 906.399 15.798 C 906.399 5.716 906.172 1.472 905.603 0.903 C 904.995 0.295 890.111 0.108 842.65 0.108 L 780.493 0.108 Z M 162.557 5.411 L 193.612 5.411 L 193.612 5.42 L 162.804 5.42 L 162.557 5.411 Z M 244.336 115.479 C 220.894 115.479 217.448 115.609 216.535 116.521 C 215.631 117.425 215.493 120.368 215.493 138.686 C 215.493 157.005 215.631 159.948 216.535 160.851 C 217.448 161.764 220.894 161.894 244.336 161.894 C 267.779 161.894 271.224 161.764 272.137 160.851 C 273.04 159.948 273.179 157.005 273.179 138.686 C 273.179 120.368 273.04 117.425 272.137 116.521 C 271.224 115.609 267.779 115.479 244.336 115.479 Z M 491.656 115.479 C 468.214 115.479 464.768 115.609 463.855 116.521 C 462.951 117.425 462.813 120.368 462.813 138.686 C 462.813 157.005 462.951 159.948 463.855 160.851 C 464.768 161.764 468.214 161.894 491.656 161.894 C 515.099 161.894 518.545 161.764 519.458 160.851 C 520.361 159.948 520.499 157.005 520.499 138.686 C 520.499 120.368 520.361 117.425 519.458 116.521 C 518.545 115.609 515.099 115.479 491.656 115.479 Z M 733.009 115.479 C 709.566 115.479 706.121 115.609 705.208 116.521 C 704.305 117.425 704.166 120.368 704.166 138.686 C 704.166 157.005 704.305 159.948 705.208 160.851 C 706.121 161.764 709.566 161.894 733.009 161.894 C 756.451 161.894 759.897 161.764 760.81 160.851 C 761.714 159.948 761.852 157.005 761.852 138.686 C 761.852 120.368 761.714 117.425 760.81 116.521 C 759.897 115.609 756.451 115.479 733.009 115.479 Z M 949.165 115.479 C 925.723 115.479 922.278 115.609 921.365 116.521 C 920.461 117.425 920.323 120.368 920.323 138.686 C 920.323 157.005 920.461 159.948 921.365 160.851 C 922.278 161.764 925.723 161.894 949.165 161.894 C 972.608 161.894 976.054 161.764 976.967 160.851 C 977.87 159.948 978.009 157.005 978.009 138.686 C 978.009 120.368 977.87 117.425 976.967 116.521 C 976.054 115.609 972.608 115.479 949.165 115.479 Z"/>
</svg>