<?xml version="1.0" encoding="utf-8"?>
<svg version="1.1" viewBox="27.95 78.93 944.54 170.41" xmlns="http://www.w3.org/2000/svg">
  <path fill="#ffffff" stroke="#ffffff" stroke-width="0.09375" opacity="1.00" d=" M 908.6 79.8 C 918.9 78.5 929.8 78.4 939.7 82.1 C 951.3 86.0 961.2 95.3 965.2 106.9 C 968.5 115.2 969.0 124.3 968.0 133.0 C 967.0 143.0 962.6 152.2 957.8 160.8 C 946.2 179.6 930.1 195.1 914.4 210.4 C 910.2 214.6 905.5 218.5 901.7 223.1 C 905.5 223.4 909.2 223.4 913.0 223.4 C 932.7 223.3 952.4 223.5 972.1 223.3 C 972.6 229.2 972.5 235.1 972.2 240.9 C 938.5 241.0 904.8 241.0 871.0 240.9 C 871.0 237.0 870.6 233.0 871.1 229.1 C 871.2 227.3 872.8 226.1 873.9 224.9 C 884.7 215.0 895.2 204.9 905.6 194.6 C 917.8 182.0 930.2 169.4 939.3 154.3 C 944.3 145.4 947.7 135.2 946.9 124.9 C 946.5 115.8 942.7 106.1 934.5 101.5 C 926.6 96.4 916.7 96.1 907.8 97.6 C 898.2 99.2 889.7 104.3 882.0 110.1 C 879.9 105.1 876.8 100.5 875.5 95.3 C 884.6 87.0 896.5 82.0 908.6 79.8 Z"/>
  <path fill="#ffffff" stroke="#ffffff" stroke-width="0.09375" opacity="1.00" d=" M 430.4 80.8 C 447.0 78.7 464.2 80.7 479.5 87.5 C 488.6 91.8 497.2 97.4 504.1 104.9 C 510.6 110.6 515.2 118.0 519.5 125.4 C 524.2 134.3 526.7 144.2 528.1 154.1 C 528.9 163.8 529.0 173.8 526.6 183.3 C 525.2 188.8 523.7 194.4 521.5 199.7 C 518.8 206.2 514.4 211.7 510.4 217.4 C 506.4 223.3 500.7 227.7 495.2 232.3 C 487.2 238.6 477.8 242.9 468.1 246.1 C 458.3 248.7 447.9 250.1 437.8 248.8 C 427.9 248.0 418.1 245.8 409.1 241.8 C 400.2 237.5 392.1 231.7 385.0 224.9 C 378.5 218.9 373.7 211.3 369.4 203.6 C 365.9 196.4 362.2 189.0 361.5 180.9 C 360.8 174.3 359.4 167.7 359.9 161.0 C 360.2 155.3 360.4 149.5 362.1 143.9 C 365.1 134.3 369.0 124.9 374.6 116.5 C 383.3 104.2 395.1 94.0 408.9 87.8 C 415.8 84.6 422.9 81.6 430.4 80.8 M 437.4 105.8 C 428.5 107.1 419.7 110.0 412.3 115.3 C 395.0 126.4 383.7 147.3 385.7 168.0 C 386.8 180.3 390.7 192.7 398.8 202.3 C 405.2 210.4 414.0 216.4 423.5 220.3 C 433.3 224.2 444.2 224.6 454.6 223.3 C 468.0 221.0 480.6 213.8 489.3 203.2 C 501.9 188.9 506.1 168.2 501.9 149.8 C 498.7 138.3 492.0 127.8 483.1 119.9 C 476.3 114.5 468.8 109.8 460.3 107.6 C 452.9 105.3 445.0 105.2 437.4 105.8 Z"/>
  <path fill="#ffffff" stroke="#ffffff" stroke-width="0.09375" opacity="1.00" d=" M 776.2 81.3 C 784.8 81.4 793.3 81.4 801.8 81.3 C 802.0 84.8 802.0 88.4 802.0 92.0 C 801.9 141.6 802.1 191.3 801.9 240.9 C 793.3 240.8 784.8 240.9 776.2 240.8 C 776.2 187.6 776.1 134.5 776.2 81.3 Z"/>
  <path fill="#ffffff" stroke="#ffffff" stroke-width="0.09375" opacity="1.00" d=" M 146.2 83.9 C 154.8 83.5 163.3 83.5 171.8 83.9 C 171.7 135.3 171.8 186.7 171.7 238.1 C 170.1 236.8 168.4 235.6 166.7 234.3 C 133.3 207.0 99.9 179.8 66.4 152.6 C 61.3 148.6 56.5 144.0 51.0 140.5 C 50.6 145.4 50.6 150.2 50.7 155.0 C 50.7 183.3 50.6 211.6 50.7 239.9 C 43.2 240.3 35.6 240.2 28.1 240.0 C 28.1 236.7 28.0 233.3 28.0 230.0 C 28.1 181.7 27.9 133.3 28.1 85.0 C 39.4 94.0 50.3 103.5 61.5 112.5 C 82.4 130.0 103.4 147.3 124.4 164.6 C 131.7 170.4 138.4 176.9 146.1 182.3 C 146.4 177.5 146.4 172.8 146.4 168.0 C 146.3 140.0 146.4 111.9 146.2 83.9 Z"/>
  <path fill="#ffffff" stroke="#ffffff" stroke-width="0.09375" opacity="1.00" d=" M 721.3 90.3 C 723.0 88.2 725.0 86.3 727.0 84.4 C 727.6 90.3 727.4 96.1 727.4 102.0 C 727.4 143.0 727.4 184.0 727.4 225.0 C 727.4 230.3 727.4 235.6 727.2 240.9 C 718.2 240.9 709.2 240.9 700.3 240.8 C 700.4 220.5 700.3 200.3 700.2 180.0 C 700.1 172.3 700.3 164.6 699.9 156.9 C 698.7 158.1 697.6 159.3 696.5 160.5 C 680.2 180.2 663.9 199.9 647.6 219.6 C 645.3 222.6 642.8 225.4 640.1 228.1 C 624.1 209.3 608.5 190.3 592.5 171.4 C 588.6 166.8 585.1 161.8 580.7 157.5 C 580.1 162.6 580.3 167.8 580.3 173.0 C 580.3 189.7 580.3 206.3 580.3 223.0 C 580.4 229.0 580.4 234.9 580.1 240.9 C 571.7 240.9 563.4 240.9 555.1 240.8 C 554.8 235.2 554.8 229.6 554.9 224.0 C 554.9 183.3 554.9 142.7 554.9 102.0 C 554.8 96.6 554.7 91.2 555.2 85.8 C 559.2 89.5 562.2 94.0 565.9 98.1 C 587.9 123.4 609.6 149.0 631.5 174.4 C 634.5 178.1 637.6 181.7 641.0 185.0 C 661.5 160.8 682.0 136.7 702.4 112.5 C 708.9 105.2 715.0 97.7 721.3 90.3 Z"/>
  <path fill="#ffffff" stroke="#ffffff" stroke-width="0.09375" opacity="1.00" d=" M 253.3 122.4 C 260.4 110.2 266.7 97.5 274.0 85.5 C 277.7 91.0 280.8 97.0 284.0 102.8 C 307.4 144.8 330.7 186.8 354.0 228.9 C 356.3 232.7 358.6 236.6 360.3 240.7 C 350.0 240.9 339.7 241.0 329.4 240.7 C 326.2 233.7 322.7 226.9 318.9 220.2 C 316.6 216.2 315.2 211.5 312.3 207.8 C 309.3 206.9 306.1 207.3 303.0 207.2 C 280.4 207.4 257.9 207.2 235.3 207.4 C 229.1 218.5 223.4 229.8 216.8 240.7 C 207.4 241.0 198.1 240.9 188.7 240.7 C 194.4 229.4 201.5 218.8 207.6 207.7 C 201.7 207.0 195.8 207.4 189.9 207.1 C 189.7 199.4 189.7 191.6 189.9 183.8 C 199.9 183.4 209.8 183.7 219.7 183.7 C 230.9 163.2 242.2 142.8 253.3 122.4 M 268.2 142.2 C 263.8 150.4 259.2 158.6 254.8 166.9 C 252.0 172.2 248.6 177.3 246.6 183.0 C 255.7 183.5 264.9 183.1 274.0 183.2 C 283.0 183.1 292.0 183.6 301.0 183.0 C 292.4 166.1 282.7 149.8 274.3 132.8 C 271.1 135.1 270.0 139.0 268.2 142.2 Z"/>
</svg>