<?xml version="1.0" encoding="utf-8"?>
<svg xmlns="http://www.w3.org/2000/svg" viewBox="0 -0.4002 4434.9199 785.4072" width="466.986px" height="83.0431px">
  <path style="fill-opacity: 1; fill: rgb(255, 255, 255);" id="path845" d="m 2709.4,53.099856 -85.4,484.500004 -0.3,1.8 c -1.9,11.6 -12.4,49.4 -34.6,69.1 -4.7,4 -18.6,16.6 -52.4,16.9 -66.4,0.4 -67.1,-63.6 -63.8,-93.6 l 45.4,-257.5 0.3,-2.3 -45.6,258.7 84.3,-477.500004 h -153.9 l -38.6,218.800004 v -0.1 l -29.1,165.6 -1,5.4 30.1,-170.9 -0.4,2.3 -45.2,256.6 c -6.9,29.5 -29.8,95 -96.8,94.6 -33.8,-0.3 -43.4,-12.8 -46.6,-16.9 -15.2,-19.7 -12.3,-57.5 -10.2,-69.1 l 0.3,-1.8 85.5,-484.400004 -153.7,-1.1 -85.3,484.100004 c -3.5,18.5 -18.4,113.4 33.2,182.2 22.4,30.1 66.6,66.1 148.7,66.5 68.8,0.5 124.6,-25.3 168.1,-62.5 30.4,37.2 77.2,63 146.3,62.5 82.2,-0.4 138.9,-36.4 172.1,-66.5 76,-68.8 94.4,-163.7 97.5,-182.2 l 85.3,-484.100004 z" class="A"/>
  <path style="fill-opacity: 1; fill: rgb(255, 255, 255);" id="path847" d="m 3140.1,757.49986 c -32.4,20.4 -66.3,27.5 -109,27.5 -101.2,0 -215,-96.2 -181.5,-280.6 29.4,-161.2 162.7,-282.8 317,-282.8 150.1,0 258,90.6 227,260.8 l -52.6,289.2 h -159.1 l 44.9,-247.5 c 17.3,-94.9 4,-152.5 -81.9,-152.5 -74.5,0 -123.8,64.6 -135.6,128.2 -15,83.5 23.4,123.8 83.1,123.8 29.1,0 55.3,-6.5 74.3,-13.6 z" class="A"/>
  <path style="fill-opacity: 1; fill: rgb(255, 255, 255);" id="path849" d="m 3781.8,266.29986 c -43.4,0 -82.9,11.9 -119,34.4 l 13.7,-76.2 h -159 l -100.1,548 h 159.1 l 53.2,-291 c 11.5,-29.6 42.7,-74.1 126.5,-74.1 h 112.7 l 25.5,-141.1 h -112.1" class="A"/>
  <path style="fill-opacity: 1; fill: rgb(255, 255, 255);" id="path851" d="m 4041.1,498.79986 c -21,119.7 37.7,160.3 102,160.3 54.1,0 95.3,-27.7 129.7,-65.2 l 100.8,85 c -64.8,67.4 -158.9,106.1 -245.1,106.1 -165.5,0 -278.7,-110.5 -248.5,-281.8 30.2,-171.1 163.6,-281.5 329.4,-281.5 132.3,0 250.9,110.4 220.8,281.5 l -9.1,52 h -339.8 l 19.8,-112.6 h 174.1 c 10.9,-55.2 -24,-101.7 -83.8,-101.7 -72.9,-0.1 -129.1,38.3 -150.3,157.9" class="A"/>
  <path id="path853" d="m 853.1,640.29986 c 56.1,22.2 174.3,40.1 266.8,40.1 101.1,0 143,-34.7 143,-78.1 0,-39.1 -38.9,-62.1 -150.6,-103 -149.3,-55 -258.8,-98.5 -258.8,-196.5 0,-101.4 131.7,-161.3 332.6,-161.3 107.8,0 144.9,6.8 213.3,19.5 l 0.4,96.3 c -67,-12.9 -126.8,-34.8 -219.4,-34.8 -99.3,0 -141.5,31.5 -141.4,63.9 0,47.2 65,69.7 179.3,110.4 159,57 247.7,101 247.7,196.8 -0.3,98.8 -110.9,170 -360.8,170 -102.7,0 -173.5,-6.8 -252.1,-19.4 z" style="fill: rgb(255, 255, 255);"/>
  <path id="path855" d="M 320.5,226.59986 H 201.4 v 450.2 h 119.1 c 183,0 298.3,-78.1 298.3,-224.1 0.1,-146 -115.3,-226.1 -298.3,-226.1 m 319.8,492.2 c -58.9,26.5 -170.2,43.4 -267.8,43.4 H 0 v -619.3 h 372.59999 c 97.40001,0 208.80001,17.2 267.80001,43.6 143.3,64.7 190,168.1 190,266.2 -0.1,98.1 -46.4,201.3 -190.1,266.1" style="fill: rgb(255, 255, 255);"/>
  <path id="path857" d="m 1709.6,-0.40014526 c -118.6,0 -214.8,96.20000126 -214.8,214.90000526 0,118.7 96.2,214.9 214.8,214.9 118.6,0 215.2,-96.2 215.2,-214.9 0,-118.700004 -96.6,-214.90000526 -215.2,-214.90000526 M 1741.9,368.49986 h -64.3 v -196.2 h 64.3 z m -32.7,-232.9 c -20.7,0 -37.7,-16.3 -37.7,-36.500004 0,-20 17,-36.3 37.7,-36.3 21.7,0 38.7,16 38.7,36.3 0.1,20.500004 -17,36.500004 -38.7,36.500004" style="fill: rgb(255, 255, 255);"/>
</svg>