<svg id="Warstwa_1" data-name="Warstwa 1" xmlns="http://www.w3.org/2000/svg" viewBox="0 0 1098.83 303.36"><title>neogeocd</title><path d="M187.44,98.48c.45.55.84,1.14,1.34,1.64q20.76,20.46,41.54,40.92c1.93,1.89,3.94,3.7,6.06,5.67.85-.75,1.59-1.33,2.26-2,10.65-10.5,21.32-21,31.89-31.57a7.21,7.21,0,0,1,5.61-2.37q30,.14,60,0a5.51,5.51,0,0,1,4.24,1.66q19.75,19.1,39.64,38.05a5,5,0,0,1,1.7,4q-.07,30.36,0,60.71a4.39,4.39,0,0,1-1.34,3.61q-20.33,19-40.56,38.13c-.34.33-.72.61-1.28,1.08l-33.59-33.6c-.7.67-1.33,1.24-1.92,1.84Q285.69,244,268.39,261.86a4.74,4.74,0,0,1-3.74,1.63q-34.8-.08-69.59,0a5,5,0,0,1-3.8-1.53q-23.32-22.81-46.75-45.54a4.51,4.51,0,0,1-1.44-3.58c0-9.52-.1-19-.13-28.55,0-13.68,0-27.36-.08-41a4.19,4.19,0,0,1,1.43-3.33q20.69-20,41.29-40.14a8.1,8.1,0,0,0,.9-1.3ZM299.28,220.05c-.78-.88-1.48-1.74-2.26-2.53q-13.5-13.64-27-27.28a3.88,3.88,0,0,0-3-1.18c-11.27-.17-22.55-.4-33.82-.62-1.09,0-2.18-.12-3.46-.19,0-1.11,0-2,0-2.84,0-10.64.08-21.28.19-31.91a5.43,5.43,0,0,0-1.57-4c-13-14.16-26.75-27.53-40.34-41.09a7.13,7.13,0,0,0-.91-.67c-.46.42-.83.72-1.17,1Q168.32,125.88,150.65,143a5,5,0,0,0-1.67,4q.08,30.84,0,61.67a5.56,5.56,0,0,0,1.88,4.35Q173,234.59,195,256.34a5.16,5.16,0,0,0,4,1.64c15.44-.05,30.87,0,46.31,0q7.68,0,15.36.06a3.44,3.44,0,0,0,2.8-1q17.13-17.64,34.32-35.23C298.28,221.29,298.71,220.72,299.28,220.05ZM322,202c.59,2.61,1.06,5,1.68,7.41a17.49,17.49,0,0,0,5.8,8.9c1.78,1.54,3.54,2.39,6.08,1.73a93,93,0,0,1,9.44-1.59,3.21,3.21,0,0,0,3.08-3c.29-2.29.77-4.56,1.19-6.84.78-4.14,1.1-4.43,5.37-5,1-.13,2.06-.26,3.08-.44.85-.16,1.67-.4,2.41-.59,1.46-7.31,1.6-9,.23-14.9-.39-1.71-.72-3.44-1.17-5.14-.75-2.86-1.49-5.72-2.4-8.53-.65-2-1.16-2.24-3.23-1.83-4.23.83-8.46,1.68-12.65,2.67-3.49.81-3.65,1.19-2.95,4.59.15.71.34,1.41.42,2.12.22,1.9.5,3.81.54,5.72.11,4.9-1.45,8.77-6.69,10.23a19.12,19.12,0,0,0-2.63,1.16ZM282.14,153.1c-.65,4.2-1.27,8.06-1.79,11.93a2.13,2.13,0,0,0,.51,1.67c2.19,2,4.42,3.92,6.76,5.73a3.74,3.74,0,0,0,2.62.77,61.72,61.72,0,0,0,6.46-1.75,2.69,2.69,0,0,0,2-2.19c.54-3,1.06-6,1.52-9a4.16,4.16,0,0,0-2.09-4.49,62.43,62.43,0,0,0-5.67-3.11,6.33,6.33,0,0,0-3-.52C287.06,152.35,284.69,152.76,282.14,153.1Zm27.45-12.16c0,4.25,2.19,6.76,5.37,7a2.58,2.58,0,0,0,1.76-.49,56.31,56.31,0,0,0,4.19-4.55,2.05,2.05,0,0,0,.3-1.77c-1.18-2.79-2.88-5.18-5.85-6.3-1.73-.65-3.05-.29-3.89,1.33A40.15,40.15,0,0,0,309.59,140.94Z" transform="translate(298.06 -98.48)" fill="white"/><path d="M327.12,401.84c-.78-.09-1.57-.25-2.36-.27-16-.27-32-.47-48-.82-5.2-.11-10.38-.58-15.57-.9a5.69,5.69,0,0,1-.88-.19c-.53-2.07-.17-2.81,1.77-3.38,1.46-.43,3-.69,4.43-1.06,1.08-.28,2.14-.65,3.22-1,3.36-.94,5-3.08,5.05-6.63.05-4,.43-8,.43-12q0-35-.09-70.07c0-3-.3-6.08-.3-9.11a5.93,5.93,0,0,0-3.7-5.92,72.48,72.48,0,0,0-7.74-2.44c-.9-.27-1.85-.41-2.8-.62.13-1.06.83-1.24,1.54-1.33,1.34-.17,2.7-.38,4.05-.42,9.11-.26,18.23-.57,27.34-.68,17.6-.23,35.2-.34,52.79-.51,3.12,0,6.24-.12,9.36-.18h3a15.87,15.87,0,0,1,.2,1.8c0,7.36,0,14.72-.12,22.07a63.84,63.84,0,0,1-.51,7.18,25.63,25.63,0,0,1-1.1,3.91,3.87,3.87,0,0,1-2.73-2.17,23.38,23.38,0,0,1-2.18-4.78c-3-10.25-10-16.19-20.11-18.45a126.68,126.68,0,0,0-15-1.93c-3.58-.35-7.18-.43-10.74-.63-.57,1.75-.79,39.36-.28,44a16.2,16.2,0,0,0,11.82-2.4,18.89,18.89,0,0,0,6.71-8c1.19-2.61,2-5.39,3-8.09.63-1.72,1.23-3.45,2-5.12.22-.47.95-.72,1.44-1.07.32.5.85,1,.92,1.5.34,2.62.69,5.24.79,7.87.57,14.07.61,28.15,0,42.22-.1,2.47-.43,4.94-.76,7.39-.08.55-.6,1-.92,1.54-.55-.37-1.4-.63-1.61-1.14a56.37,56.37,0,0,1-2.36-6.76,29.11,29.11,0,0,0-10.28-15.79,16.27,16.27,0,0,0-4.35-2.46c-3.21-1.22-5.39.07-5.84,3.49a63.61,63.61,0,0,0-.55,8.61c.05,7.84.14,15.68.45,23.51a42.36,42.36,0,0,0,1.42,7.5,2.78,2.78,0,0,0,2.73,2.29c2.79.19,5.58.54,8.37.56,4.63,0,9.27-.12,13.91-.2a18.38,18.38,0,0,0,10.72-3.66c6.79-5,12.59-10.85,16.38-18.5a32.39,32.39,0,0,1,2.51-4.08,5,5,0,0,1,1.56-1.45,1.28,1.28,0,0,1,2.11,1,15.55,15.55,0,0,1,0,3.34c-1,10.93-3.2,21.66-5.25,32.42-.12.62-.17,1.26-.25,1.89Z" transform="translate(298.06 -98.48)" fill="white"/><path d="M-105.84,401.84c-.78-.09-1.57-.25-2.35-.27-16-.27-32-.47-48-.81-5.2-.12-10.38-.59-15.57-.9a7.23,7.23,0,0,1-.88-.17c-.58-2.07-.42-2.58,1.25-3.21,1-.39,2.17-.53,3.24-.83,1.77-.49,3.58-.9,5.29-1.55a6.8,6.8,0,0,0,4.75-6.55c.28-7.75.77-15.5.81-23.25.1-18,0-36-.07-54,0-4.55-.38-9.11-.67-13.65a7.6,7.6,0,0,0-5.59-7.07c-1.95-.67-4-1-6-1.49-.92-.22-1.84-.42-3.37-.76a8.78,8.78,0,0,1,2-1.14,27.43,27.43,0,0,1,4.05-.45c9.19-.26,18.38-.57,27.58-.69,17.59-.23,35.19-.34,52.79-.51,3.12,0,6.23-.12,9.35-.18h3c.08.75.19,1.29.19,1.82,0,7.44,0,14.88-.15,22.32a67.1,67.1,0,0,1-.87,8.09,16.93,16.93,0,0,1-1.17,3.08,14.08,14.08,0,0,1-2.11-2.33,33.12,33.12,0,0,1-2.26-5c-3.56-10.67-11.07-16.75-21.93-18.83a119.11,119.11,0,0,0-23.4-1.9,2.88,2.88,0,0,0-.66.15c-.49,1.73-.64,40.4-.16,43.67,5.87.75,11-.56,15.11-5.15A27.35,27.35,0,0,0-106.29,320c.71-2.29,1.4-4.58,2.21-6.83a18.15,18.15,0,0,1,1.47-2.64,2.4,2.4,0,0,1,1.62,2.4c.47,3.81,1.07,7.61,1.28,11.43a337.66,337.66,0,0,1-.45,41.72c-.13,1.94,0,4-1.52,5.59-1.48,0-1.8-1.14-2.14-2-1-2.69-1.9-5.43-2.74-8.17a26.81,26.81,0,0,0-10.12-14.2,16.22,16.22,0,0,0-5.16-2.4c-2.25-.62-3.29.07-4,2.3a18.5,18.5,0,0,0-1,4.91,234.64,234.64,0,0,0,1.19,34.25c.3,2.66,1.73,4.2,4.16,4.53a72.34,72.34,0,0,0,10.49.73,126.71,126.71,0,0,0,12.91-.93,21.87,21.87,0,0,0,10.88-4.71A47.55,47.55,0,0,0-73.09,369.2a41,41,0,0,1,2.56-4.33,6,6,0,0,1,1.69-1.67,1.3,1.3,0,0,1,2.13,1,17,17,0,0,1-.05,3.34A261.32,261.32,0,0,1-72,400.43c-.1.46-.16.94-.24,1.41Z" transform="translate(298.06 -98.48)" fill="white"/><path d="M685.6,286.62a12.72,12.72,0,0,1,5.07-.9c16.38-.93,32.77-1.22,49.16-.55,6.95.28,13.89.85,20.81,1.47a19.14,19.14,0,0,1,5.76,1.54,58.77,58.77,0,0,1,30.91,29.41,30.4,30.4,0,0,1,3,11.53,188.16,188.16,0,0,1,.24,22.78c-1,15.81-8.25,28-21.18,36.86C770.22,395,760,398.11,749,399c-17.39,1.38-34.82,1.86-52.24,2.52a86.54,86.54,0,0,1-9.08-.53,4.41,4.41,0,0,1-1.39-.33,2,2,0,0,1-.52-3.61,6.7,6.7,0,0,1,2.16-1c1.67-.51,3.44-.79,5-1.45,3.26-1.33,5.39-3.68,5.74-7.33.19-2,.4-4,.41-6q.14-31.44.21-62.87c0-6-.15-12-.28-18,0-1.35-.27-2.7-.31-4.06a5.86,5.86,0,0,0-3.64-5.48c-2.38-1.1-4.91-1.86-7.38-2.77-.77-.28-1.54-.58-2.31-.87Zm43.3,4.84c0,1.25,0,2.2,0,3.15,0,15.67,0,31.34.11,47,.06,9.75.15,19.51.46,29.25.17,5.18.69,10.37,1.34,15.51.47,3.67,1.66,4.54,5.33,5a25.56,25.56,0,0,0,26.7-14.66,48.57,48.57,0,0,0,4-12.77A130.27,130.27,0,0,0,768.17,329a55.43,55.43,0,0,0-3.81-16.28c-2-4.77-4.52-9.23-8.58-12.54C748.06,293.92,738.94,291.78,728.9,291.46Z" transform="translate(298.06 -98.48)" fill="white"/><path d="M10.31,400.5C4.61,400.33-.18,400.23-5,400a31.61,31.61,0,0,1-14.8-4.42c-14.93-8.74-25.79-20.85-30.11-38a64.6,64.6,0,0,1,.38-33,48.73,48.73,0,0,1,4.44-10.57,63.74,63.74,0,0,1,22.49-23.46A43.2,43.2,0,0,1-.15,283.81c8.64-.17,17.28-.45,25.88.49a32.19,32.19,0,0,1,8.37,1.89A61,61,0,0,1,67.21,316.6,46.5,46.5,0,0,1,71.54,334c.64,8.64.4,17.26-1.81,25.71-2.56,9.79-8,17.88-15,25-2,2-4,3.93-6.07,5.79a33.37,33.37,0,0,1-19,8.44C23,399.66,16.2,400,10.31,400.5Zm-27.89-58.41c0,5.91.29,11.85-.09,17.74a28,28,0,0,0,3.85,16.22,56.72,56.72,0,0,0,6.24,9.34c7.92,9,25.88,13,36.63-.66,5.82-7.36,9.42-15.42,9.66-25,.34-12.87.35-25.73-.51-38.59-.7-10.37-5.31-18.77-13-25.58a16.86,16.86,0,0,0-9.39-4.47,72.55,72.55,0,0,0-8.6-.27c-4.53.07-8.31,2-11.66,5A39.08,39.08,0,0,0-13.6,307.7c-1.12,2.21-2.2,4.44-3.14,6.73a10.18,10.18,0,0,0-.81,3.67C-17.62,326.09-17.58,334.09-17.58,342.09Z" transform="translate(298.06 -98.48)" fill="white"/><path d="M443.44,283.51c5.19.25,10.38.45,15.57.76a30.32,30.32,0,0,1,11,3.09,63.69,63.69,0,0,1,27.36,24.05A47.67,47.67,0,0,1,504,330.53a71.75,71.75,0,0,1-2.18,31.8,41.34,41.34,0,0,1-6.36,12.56,120.59,120.59,0,0,1-13.88,15.23c-5.13,4.86-11.33,7.44-18.08,8.76a67.16,67.16,0,0,1-11.89,1.36c-7.75.12-15.51-.08-23.26-.3a34,34,0,0,1-16.57-5.08c-15-9-25.33-21.61-29.19-38.95a63.3,63.3,0,0,1,2.32-35.66,47.82,47.82,0,0,1,5-9.79,65.79,65.79,0,0,1,16.29-17.11c8.14-6,17.14-9.54,27.37-9.52h9.84Zm28,58.73q0-12,0-24a6.7,6.7,0,0,0-.27-2.59c-2.57-5.86-5.26-11.64-9.51-16.56-5.68-6.57-12.79-9.24-21.38-8.31A19.32,19.32,0,0,0,430,294.58a41.56,41.56,0,0,0-12.18,15.49c-2.07,4.49-2.31,9.28-2.34,14.07-.09,12.71,0,25.42-.17,38.13a21.41,21.41,0,0,0,2.6,11.19c2.1,3.78,3.94,7.68,6.69,11.05a22.88,22.88,0,0,0,16.59,8.92c7.9.6,14.67-1.52,19.92-7.75a52.08,52.08,0,0,0,7.07-10.8c.77-1.57,1.46-3.2,2.26-4.76a8.47,8.47,0,0,0,.93-4.14C471.38,358.07,471.4,350.15,471.4,342.24Z" transform="translate(298.06 -98.48)" fill="white"/><path d="M240.62,323.13a4.09,4.09,0,0,1-2.68-2.3c-1.54-2.52-3.07-5.06-4.43-7.68A39.63,39.63,0,0,0,218,296.59c-8.54-4.95-17.65-6.93-27.44-5.21a29.58,29.58,0,0,0-18.82,11.4,44.38,44.38,0,0,0-8.69,21.3,121.59,121.59,0,0,0,.4,38.92,47.82,47.82,0,0,0,4.79,14.26,30.76,30.76,0,0,0,15.36,14.21,15.52,15.52,0,0,0,4.36,1.24,102.69,102.69,0,0,0,23.44-.45c1.18-.14,2.34-.47,3.66-.74a15.65,15.65,0,0,0,.11-1.89c-.43-7.58-.86-15.17-1.36-22.75a25.22,25.22,0,0,0-.77-5c-1.24-4.58-4.2-6.92-8.92-7.28a14.41,14.41,0,0,1-2.61-.38,16.29,16.29,0,0,1-2.21-1,5.11,5.11,0,0,1,3.61-1.32c6.87-.33,13.73-.84,20.6-.89,8.15-.05,16.31.23,24.46.49a25.93,25.93,0,0,1,8.15,1.15c-3.74,3.24-8.13,4.66-12.05,7-.5,11.06.24,22.2-1.64,33.26-8.34,3.07-16.67,5.82-25.54,6.35-11.9.72-23.81.93-35.73.92a43,43,0,0,1-23.29-7.05c-11.46-7.2-20.56-16.56-25.54-29.34-6.08-15.62-4.81-31,2.11-46.09a42,42,0,0,1,7.74-11.48,138.37,138.37,0,0,1,14.5-13.63,39.28,39.28,0,0,1,22-8.45,178.87,178.87,0,0,1,33.53.56,66.75,66.75,0,0,1,10.67,2.63c2.92.83,5.78,1.86,8.63,2.89a2,2,0,0,0,2.67-.77,46.82,46.82,0,0,1,3.11-3.65,9.31,9.31,0,0,1,2-1.68c1.41-.85,2.42-.45,3,1.11a5.72,5.72,0,0,1,.3,1.64,244.37,244.37,0,0,1-.38,32.36A5,5,0,0,1,240.62,323.13Z" transform="translate(298.06 -98.48)" fill="white"/><path d="M-195.7,401.05c-1.32-1.16-2.28-1.85-3.06-2.7-4.74-5.2-9.6-10.31-14.13-15.69q-26-30.93-51.92-62c-1.54-1.84-3.15-3.62-4.78-5.38a20.66,20.66,0,0,0-2-1.69,7.09,7.09,0,0,0-1.27,4.26c-.37,6.14-1,12.29-1,18.44,0,12.79.22,25.59.56,38.38a103.32,103.32,0,0,0,1.38,12.37,7.81,7.81,0,0,0,6.1,6.91,62.7,62.7,0,0,1,7.18,2.68c1,.41,2.35.88,2.14,2.23s-1.66,1.37-2.73,1.45a239.41,239.41,0,0,1-32.36.48,17.4,17.4,0,0,1-5.09-1.24c-1.79-.7-1.85-2-.19-2.91a17.57,17.57,0,0,1,4.2-1.71c5.6-1.39,8-5.25,8.28-10.66.36-6,.82-12,.89-18,.25-22.47.35-44.95.51-67.42,0-1,0-1.91,0-2.92-2.45-1.69-4.74-3.45-7.21-4.91s-5-2.58-7.73-3.93a3.86,3.86,0,0,1,3.16-1.43c4.06-.36,8.12-.83,12.19-.91,8.4-.17,16.8-.1,25.2-.2a3.61,3.61,0,0,1,3.2,1.58q24.67,31,49.41,61.87c.58.73,1.18,1.44,2.14,2.6.31-2.51.7-4.44.77-6.39.24-6.63.59-13.27.5-19.9-.1-8.07-.62-16.13-.93-24.2-.2-5-2.8-8.38-7.32-10.29-1.68-.71-3.5-1.1-5.24-1.69-.86-.3-1.67-.72-2.6-1.12.75-1.41,1.86-1.34,2.84-1.36,7.36-.18,14.71-.41,22.06-.46,3.6,0,7.19.28,10.78.5a5.33,5.33,0,0,1,4,1.51c-1,.48-1.68.92-2.46,1.22-1.78.69-3.58,1.37-5.4,2a7.22,7.22,0,0,0-5.29,5.94,80.58,80.58,0,0,0-1.29,10.69c-.45,17.19-.71,34.38-1.09,51.57-.26,11.27-.61,22.54-.95,33.81a42.06,42.06,0,0,1-.49,5A34.35,34.35,0,0,1-195.7,401.05Z" transform="translate(298.06 -98.48)" fill="white"/><path d="M669.16,372.39a13.45,13.45,0,0,1-.2,9.46,18.06,18.06,0,0,1-5.66,7.33A48.28,48.28,0,0,1,637,400.37c-2.7.28-5.39.7-8.1.89a44.76,44.76,0,0,1-7.41.1c-5.88-.6-11.79-.94-17.56-2.4A63.47,63.47,0,0,1,589,393.2a45.33,45.33,0,0,1-18.23-17.57c-3.21-5.64-6.37-11.36-7.56-17.79a67.27,67.27,0,0,1,6.28-44c3.09-6.06,7.64-11,12.77-15.43A72.48,72.48,0,0,1,602,286.29c8.49-3.49,17.4-3.83,26.41-3.25,10.54.67,20.64,3.31,30.56,6.74.76.26,1.53.48,2.29.7a2.7,2.7,0,0,0,.67,0l7.71-8.18a10.05,10.05,0,0,1,1.61,4.85c.23,7.27.48,14.53.54,21.8,0,3.51-.33,7-.58,10.53-.1,1.42-.28,2.89-2,3.82A9.73,9.73,0,0,1,666,318a11.38,11.38,0,0,0-.78-2.5,58.09,58.09,0,0,0-12.35-16.38,26.73,26.73,0,0,0-16.53-6.8,61,61,0,0,0-14.1.42A22.51,22.51,0,0,0,612,297.2c-8.06,6.14-13.54,14-15.52,24a102,102,0,0,0,.41,43.07,37.92,37.92,0,0,0,11.27,19.95,25.41,25.41,0,0,0,15,6.91,55.28,55.28,0,0,0,18.36-1c6.78-1.6,12.5-5.18,17.73-9.66,2.3-2,4.6-4,6.93-5.91C667,373.93,667.91,373.31,669.16,372.39Z" transform="translate(298.06 -98.48)" fill="white"/><path d="M100.37,356.32c-6.93.44-13.67-5.13-13.75-14.33-.07-8.44,5.67-14.22,14.3-14.34,8-.11,14.83,6.4,14.89,14.18C115.88,350.31,109.61,356.2,100.37,356.32Z" transform="translate(298.06 -98.48)" fill="white"/><path d="M198.94,228.73a7.84,7.84,0,0,1,1.1.35,25.26,25.26,0,0,0,14.05,1.9,36,36,0,0,0,14.71-4.67,18.22,18.22,0,0,0,7.92-9.3c1.23-3.29,2.35-6.62,3.54-9.92.86-2.41,1.72-4.82,2.65-7.19a14.2,14.2,0,0,1,1.25-2.12l.57.12a21.43,21.43,0,0,1,.64,2.69c1.16,10.61-1.15,20.34-7.64,28.9a28.68,28.68,0,0,1-5,4.8c-2.66,2.13-5.93,2.72-9.24,2.83-3.75.13-7.5.08-11.26.06C206.12,237.14,202.07,233.65,198.94,228.73Z" transform="translate(298.06 -98.48)" fill="white"/><path d="M217.63,165.14c-1.53,2.25-2.89,4.22-4.22,6.2a4.82,4.82,0,0,1-3.83,2,8.36,8.36,0,0,1-8.92-4.65c-.08-.14-.18-.26-.26-.4-3.31-5.85-2.85-5.37.46-10.68,2.15-3.46,9.36-3.39,11.36-.29C213.9,160,215.75,162.47,217.63,165.14Z" transform="translate(298.06 -98.48)" fill="white"/><path d="M177.22,178.11c3.69,0,7,2.6,7.7,5.44a2.36,2.36,0,0,1-.33,1.77,10.76,10.76,0,0,1-6.16,3.89,2.9,2.9,0,0,1-2.05-.38,27.45,27.45,0,0,1-4.32-3.33c-1.37-1.38-1.31-3-.08-4.55A7.2,7.2,0,0,1,177.22,178.11Z" transform="translate(298.06 -98.48)" fill="white"/></svg>