<?xml version="1.0" encoding="utf-8"?>
<svg id="Warstwa_1" data-name="Warstwa 1" viewBox="0 0 264.07 95.8" xmlns="http://www.w3.org/2000/svg">
  <title>nesh</title>
  <path d="M143.82,167.57h99.47a32.54,32.54,0,0,1,3.81,64.86,30.63,30.63,0,0,1-3.7.23H44.1a32.56,32.56,0,0,1-4.77-64.75,30.26,30.26,0,0,1,4.66-.34Zm-.06,7.7q-49.56,0-99.11,0a28.45,28.45,0,0,0-5.12.48A24.83,24.83,0,0,0,44.65,225q99.1,0,198.2,0a29.29,29.29,0,0,0,5.12-.48,24.83,24.83,0,0,0-5-49.2Z" transform="translate(-11.72 -167.57)" fill="white"/>
  <path d="M269,251.5h-3.34v-5.93c0-1.69-.18-1.86-1.85-1.86s-1.76.19-1.77,1.81v5.94h-3.21v-10c.44,0,.83-.05,1.22-.05h12.36c2.29,0,3.35,1.07,3.35,3.38v6.66h-3.14c0-2.07,0-4.09,0-6.12,0-.52-.34-1.39-.67-1.46a6.24,6.24,0,0,0-2.54.11c-.2,0-.35.75-.36,1.16C269,247.22,269,249.3,269,251.5Z" transform="translate(-11.72 -167.57)" fill="white"/>
  <path d="M131.22,251.5h-3v-10c.34,0,.69-.09,1-.09h12.48c2.25,0,3.4,1.16,3.41,3.39s0,4.38,0,6.66h-3.26v-5.82c0-1.77-1.33-2.64-2.91-1.81a1.74,1.74,0,0,0-.61,1.28c-.06,2.07,0,4.15,0,6.42-1,0-1.9.05-2.79,0-.2,0-.5-.55-.51-.85,0-1.76,0-3.52,0-5.28,0-1.41-.3-1.66-1.83-1.66s-1.78.21-1.79,1.68c0,1.92,0,3.84,0,5.76A2.09,2.09,0,0,1,131.22,251.5Z" transform="translate(-11.72 -167.57)" fill="white"/>
  <path d="M78,251.49H75.37c-.08-.12-.15-.18-.15-.25-.08-2.54.11-2.52-2.68-2.49h-.36c-3,0-2.74-.35-3,2.8H66.09V241.42h3.7a42.07,42.07,0,0,0,5.27,0,3.14,3.14,0,0,1,3.29,4.1c-.67,1.66-.3,3.16-.36,4.74C78,250.6,78,251,78,251.49Zm-5.74-5H74c.9,0,1.16-.48,1.14-1.29S75,243.72,74,243.71s-2.15,0-3.22,0-1.5.4-1.51,1.48.61,1.32,1.53,1.28C71.29,246.44,71.77,246.46,72.25,246.46Z" transform="translate(-11.72 -167.57)" fill="white"/>
  <path d="M105.14,251.48h-3.23v-2.64H96v2.61H92.69c0-2.2-.07-4.42,0-6.64a4.27,4.27,0,0,1,.88-2.37,3.09,3.09,0,0,1,2-1c2.19-.12,4.39-.05,6.59,0a3,3,0,0,1,2.91,2.64C105.19,246.49,105.14,248.93,105.14,251.48Zm-3.4-5.1c.43-2.23.08-2.67-2-2.67H97.2a1.07,1.07,0,0,0-1.2,1.17c0,.48,0,1,0,1.5Z" transform="translate(-11.72 -167.57)" fill="white"/>
  <path d="M147.51,241.34h10.91v2.37h-6.14a2.71,2.71,0,0,0-1.07,0,4.3,4.3,0,0,0-1,.86c.33.26.66.75,1,.76,1.76.08,3.52,0,5.27,0h1.4v2.1h-5.47a2.93,2.93,0,0,0-1.07,0,5.91,5.91,0,0,0-1.13.82c.37.32.74.91,1.13.93,1.83.1,3.67.05,5.51.05h1.51v2.12c-3,0-5.93.1-8.86-.05-1.5-.07-2.12-1-2.13-2.54,0-2.36,0-4.71,0-7.07A2.7,2.7,0,0,1,147.51,241.34Z" transform="translate(-11.72 -167.57)" fill="white"/>
  <path d="M22.27,245.41v2.1H18c-.64,0-1.27,0-1.91,0s-1.5,0-1.48.94.74.89,1.42.89h6.75v2.13c-.33,0-.67.07-1,.07-2.28,0-4.56,0-6.83,0s-3.19-.85-3.19-3.14v-7h11v2.33c-2.08,0-4.19,0-6.29,0-.75,0-1.86-.26-1.84.91s1.12.75,1.81.77C18.32,245.44,20.23,245.41,22.27,245.41Z" transform="translate(-11.72 -167.57)" fill="white"/>
  <path d="M256.49,241.35v2.36h-6a2.67,2.67,0,0,0-1.06,0,5.49,5.49,0,0,0-1.11.82c.36.28.71.79,1.08.81,1.75.09,3.51,0,5.27,0H256v2.1c-2.1,0-4.17,0-6.24,0-.67,0-1.42,0-1.44.85s.74,1,1.46,1h6.67v2.09c-3,0-5.95.06-8.93,0a2,2,0,0,1-2-1.87c-.08-2.7,0-5.41,0-8.18Z" transform="translate(-11.72 -167.57)" fill="white"/>
  <path d="M63.72,241.49v2.38H57.58a2.87,2.87,0,0,0-1.06,0,5.1,5.1,0,0,0-1.05.78c.36.3.7.83,1.07.85,1.83.09,3.67,0,5.51,0h1.16v2c-.49,0-1,.09-1.56.1-1.64,0-3.28-.05-4.92,0-.43,0-.83.54-1.25.83.42.33.82.93,1.25.95,1.87.11,3.75.05,5.63.05h1.36v2.09c-3,0-6,.07-9,0a2,2,0,0,1-2-1.87c-.1-2.7,0-5.41,0-8.19Z" transform="translate(-11.72 -167.57)" fill="white"/>
  <path d="M163.63,251.49H160.4v-10c.31,0,.65-.09,1-.09h9a3,3,0,0,1,3.33,3.34c0,2.19,0,4.39,0,6.68h-3.26v-5.95c0-1.58-.2-1.78-1.81-1.78-1.2,0-2.4,0-3.59,0-1,0-1.44.43-1.43,1.44C163.65,247.21,163.63,249.28,163.63,251.49Z" transform="translate(-11.72 -167.57)" fill="white"/>
  <path d="M231.08,241.5v2.28c-2.41,0-4.75,0-7.1,0-.74,0-1.9-.3-1.9.84s1.16.84,1.91.86c1.31,0,2.63,0,3.95,0a3,3,0,1,1,0,6.09h-8.69v-2.34c2.42,0,4.81,0,7.19,0,.79,0,2,.29,2-.92s-1.2-.91-2-.93c-1.39,0-2.8,0-4.19,0a2.93,2.93,0,0,1-.36-5.85C224.9,241.45,227.93,241.5,231.08,241.5Z" transform="translate(-11.72 -167.57)" fill="white"/>
  <path d="M204.44,241.5v2.28c-2.46,0-4.85,0-7.23,0-.7,0-1.78-.29-1.8.82s1,.87,1.76.88c1.4,0,2.8,0,4.2,0a3,3,0,0,1,3.14,3,3,3,0,0,1-3.11,3.06c-2.91,0-5.83,0-8.83,0v-2.34h4.85a22.91,22.91,0,0,0,3,0c.5-.06,1.28-.49,1.33-.83.09-.78-.65-1-1.33-1-1.64,0-3.28,0-4.92,0a3,3,0,0,1-3-3.17,3,3,0,0,1,2.74-2.68C198.27,241.46,201.3,241.5,204.44,241.5Z" transform="translate(-11.72 -167.57)" fill="white"/>
  <path d="M28.35,251.48H25.08v-10c.4,0,.78-.09,1.16-.09h8.88c2.19,0,3.3,1.14,3.31,3.33v6.7H35.25v-5.69c0-1.87-.18-2-2-2-1.12,0-2.24,0-3.36,0s-1.51.47-1.5,1.52C28.37,247.28,28.35,249.35,28.35,251.48Z" transform="translate(-11.72 -167.57)" fill="white"/>
  <path d="M115.78,251.47h-3.25v-9.95a9.6,9.6,0,0,1,1-.1h9a3,3,0,0,1,3.29,3.24c0,1.92,0,3.84,0,5.75,0,.89-.24,1.25-1.15,1.15a20.28,20.28,0,0,0-2.08,0v-5.89c0-1.74-.2-1.95-1.9-1.95-1.2,0-2.4,0-3.6,0-1,0-1.38.41-1.37,1.37,0,1.68,0,3.35,0,5Z" transform="translate(-11.72 -167.57)" fill="white"/>
  <path d="M214.7,241.56h3.15c0,1.57.08,3.08,0,4.58a2.64,2.64,0,0,1-2.53,2.13h-1.88v3.23H210v-3.23h-1.74a2.62,2.62,0,0,1-2.8-2.85v-3.86h3.17c0,1,0,2,0,2.94s.37,1.5,1.39,1.48,2.16,0,3.24,0,1.43-.5,1.41-1.48S214.7,242.6,214.7,241.56Z" transform="translate(-11.72 -167.57)" fill="white"/>
  <path d="M240,251.49h-3.26c0-2.21,0-4.36,0-6.5,0-1-.22-1.39-1.26-1.3s-1.82,0-2.81,0v-2.18H244v2.18a20,20,0,0,1-2.57,0c-1.28-.17-1.56.38-1.51,1.55C240,247.27,240,249.31,240,251.49Z" transform="translate(-11.72 -167.57)" fill="white"/>
  <path d="M51.25,241.51v2.2c-.61,0-1.22,0-1.84,0-2.56,0-2.25-.36-2.26,2.33,0,1.78,0,3.57,0,5.43H43.93c0-2.23,0-4.41,0-6.6,0-.88-.24-1.24-1.15-1.18s-1.9,0-2.92,0v-2.2Z" transform="translate(-11.72 -167.57)" fill="white"/>
  <path d="M182.83,251.48h-3.17v-6.13c0-1.64,0-1.64-1.64-1.64h-2.45v-2.19h11.35v2.19c-1,0-2,0-3,0-.83,0-1.13.28-1.12,1.1C182.85,247,182.83,249.18,182.83,251.48Z" transform="translate(-11.72 -167.57)" fill="white"/>
  <path d="M84,251.47c0-2.14,0-4.24,0-6.34,0-1.07-.24-1.56-1.39-1.44a26.61,26.61,0,0,1-2.69,0v-2.18H91.19v2.18a25.21,25.21,0,0,1-2.61,0c-1.19-.12-1.5.38-1.45,1.5.08,2.07,0,4.14,0,6.28Z" transform="translate(-11.72 -167.57)" fill="white"/>
  <path d="M107.5,241.42h3.07v10.06H107.5Z" transform="translate(-11.72 -167.57)" fill="white"/>
  <path d="M69.77,215.21c-2.9,0-5.77,0-8.63,0-.34,0-.74-.54-1-.91q-6.26-9.64-12.49-19.32c-.21-.32-.44-.63-.84-1.21v21.4h-9v-30h1.26c2.47,0,5,0,7.43,0A1.54,1.54,0,0,1,48,186c3.89,6.18,7.82,12.35,11.73,18.52.25.38.52.76,1,1.44V185.21h9Z" transform="translate(-11.72 -167.57)" fill="white"/>
  <path d="M211.31,196V185.2h9v30c-.43,0-.85.07-1.27.07a37.05,37.05,0,0,1-5.87-.06c-2.08-.33-3.94.22-5.9.57-5.93,1.07-11.3-2.93-12.54-9.26a10.58,10.58,0,0,1,8.39-12.1,10.26,10.26,0,0,1,6.74,1Zm-7,9.35v4c.06,1.81.76,2.62,2.57,2.85a8.24,8.24,0,0,0,1.79,0c1.79-.17,2.6-1,2.62-2.79,0-2.72.06-5.43,0-8.15,0-2.26-1.44-3.69-3.42-3.68s-3.47,1.43-3.55,3.71C204.31,202.67,204.35,204,204.34,205.39Z" transform="translate(-11.72 -167.57)" fill="white"/>
  <path d="M89.56,194.93h9l.15,1.9c1-.52,1.83-1,2.69-1.45,5.18-2.87,11.17-.63,14.24,4a3,3,0,0,1,.55,1.56c0,4.71,0,9.42,0,14.2-.38,0-.68.11-1,.11-2.4,0-4.8,0-7.2,0-.89,0-1.17-.24-1.16-1.15,0-4,0-8.07,0-12.11a3.76,3.76,0,0,0-4.72-3.49,7.31,7.31,0,0,0-2.52,1.31,3.13,3.13,0,0,0-1,2c-.09,4,0,8,0,12v1.35h-9Z" transform="translate(-11.72 -167.57)" fill="white"/>
  <path d="M191.77,215.88h-9.23v-13.2a3.84,3.84,0,0,0-4.76-3.5,10.91,10.91,0,0,0-1.86.81,2.92,2.92,0,0,0-1.72,3c.1,3.84,0,7.68,0,11.52v1.37h-9V195.67h9l.09,1.9c1-.57,2-1.1,2.9-1.59a10.82,10.82,0,0,1,14.15,4.28,3.89,3.89,0,0,1,.51,1.93c0,4.36,0,8.72,0,13.08A5.7,5.7,0,0,1,191.77,215.88Z" transform="translate(-11.72 -167.57)" fill="white"/>
  <path d="M237.27,216.59a14.82,14.82,0,0,1-8.37-2.48c-6.5-4.39-6.57-12.88-.14-17.38a15.46,15.46,0,0,1,17.83.58c5.31,4.26,5.49,11.28.39,15.8A14.7,14.7,0,0,1,237.27,216.59Zm-3.52-11.29c0,1.92,0,3.84,0,5.76a2.43,2.43,0,0,0,2.36,2.66,8.53,8.53,0,0,0,2,.05,2.49,2.49,0,0,0,2.57-2.73c0-3.8.06-7.6,0-11.4a3.2,3.2,0,0,0-3.53-3.37,3.25,3.25,0,0,0-3.41,3.52C233.73,201.62,233.75,203.46,233.75,205.3Z" transform="translate(-11.72 -167.57)" fill="white"/>
  <path d="M151.89,208.23h9.25a11.44,11.44,0,0,1-.4,1.21,11.21,11.21,0,0,1-4.11,4.73,15.33,15.33,0,0,1-17.62-.75c-5.53-4.49-5.44-11.93.2-16.26,6.22-4.78,16.07-3.66,20.49,2.33a8.37,8.37,0,0,1,1.78,5.78H145c0,2.25,0,4.43,0,6.6a1.72,1.72,0,0,0,.32.77c.66,1.06,2.53,1.5,4.4,1a2.58,2.58,0,0,0,2.14-2.67C151.92,210.11,151.89,209.2,151.89,208.23Zm-6.95-6.42h6.89c.13-1.94.3-3.82-1.57-5a3.41,3.41,0,0,0-3.95,0C144.52,198.1,144.94,200,144.94,201.81Z" transform="translate(-11.72 -167.57)" fill="white"/>
  <path d="M130.88,192.15h4.68v2.73h-4.63v20.23h-9.31v-20.2h-4.71v-2.76h4.66V187.9h9.31Z" transform="translate(-11.72 -167.57)" fill="white"/>
  <path d="M75.58,194.91h8.84v20.21H75.58Z" transform="translate(-11.72 -167.57)" fill="white"/>
  <path d="M75.57,190.55v-5.42h8.88v5.42Z" transform="translate(-11.72 -167.57)" fill="white"/>
  <path d="M 83.632 95.616 L 81.168 95.616 L 81.168 92.892 L 79.32 92.892 L 79.32 95.616 L 76.856 95.616 L 76.856 87.916 L 79.32 87.916 L 79.32 90.639 L 81.168 90.639 L 81.168 87.916 L 83.632 87.916 L 83.632 95.616 Z M 86.984 94.397 L 86.698 95.616 L 84.098 95.616 L 86.095 87.916 L 89.901 87.916 L 91.899 95.616 L 89.299 95.616 L 89.017 94.397 L 86.984 94.397 Z M 88.067 90.283 L 87.93 90.283 L 87.424 92.439 L 88.559 92.439 L 88.067 90.283 Z M 97.479 93.411 L 97.664 95.479 C 97.147 95.693 96.499 95.8 95.719 95.8 C 94.939 95.8 94.312 95.718 93.84 95.554 C 93.368 95.39 92.995 95.132 92.722 94.78 C 92.453 94.425 92.263 94.01 92.155 93.534 C 92.049 93.056 91.996 92.468 91.996 91.77 C 91.996 91.072 92.049 90.484 92.155 90.006 C 92.263 89.525 92.453 89.107 92.722 88.752 C 93.248 88.071 94.213 87.731 95.618 87.731 C 95.932 87.731 96.3 87.762 96.722 87.823 C 97.144 87.885 97.458 87.961 97.664 88.052 L 97.294 89.935 C 96.76 89.821 96.272 89.764 95.829 89.764 C 95.386 89.764 95.078 89.805 94.905 89.887 C 94.732 89.969 94.645 90.133 94.645 90.38 L 94.645 93.609 C 94.965 93.674 95.289 93.706 95.618 93.706 C 96.316 93.706 96.936 93.608 97.479 93.411 Z M 101.038 92.263 L 100.99 92.263 L 100.99 95.616 L 98.526 95.616 L 98.526 87.916 L 100.99 87.916 L 100.99 91.057 L 101.038 91.057 C 101.056 90.811 101.097 90.614 101.162 90.468 L 102.372 87.916 L 105.029 87.916 L 103.181 91.7 L 105.091 95.616 L 102.433 95.616 L 101.162 92.857 C 101.097 92.707 101.056 92.509 101.038 92.263 Z M 105.523 95.479 L 105.866 93.446 C 106.623 93.637 107.304 93.732 107.908 93.732 C 108.512 93.732 108.999 93.707 109.369 93.658 L 109.369 93.042 L 108.26 92.94 C 107.257 92.852 106.569 92.613 106.196 92.223 C 105.821 91.833 105.633 91.255 105.633 90.49 C 105.633 89.439 105.862 88.716 106.32 88.32 C 106.774 87.927 107.547 87.731 108.638 87.731 C 109.733 87.731 110.718 87.833 111.595 88.039 L 111.287 90.01 C 110.525 89.887 109.913 89.825 109.452 89.825 C 108.992 89.825 108.602 89.846 108.282 89.887 L 108.282 90.49 L 109.171 90.578 C 110.248 90.683 110.991 90.94 111.402 91.348 C 111.812 91.752 112.018 92.317 112.018 93.042 C 112.018 93.558 111.947 93.995 111.806 94.353 C 111.666 94.711 111.5 94.982 111.309 95.167 C 111.116 95.352 110.842 95.492 110.486 95.589 C 110.134 95.689 109.825 95.749 109.558 95.77 C 109.291 95.79 108.936 95.8 108.493 95.8 C 107.425 95.8 106.435 95.693 105.523 95.479 Z M 116.97 92.659 L 115.06 92.659 L 115.06 90.886 L 116.97 90.886 L 116.97 88.976 L 118.743 88.976 L 118.743 90.886 L 120.666 90.886 L 120.666 92.659 L 118.743 92.659 L 118.743 94.582 L 116.97 94.582 L 116.97 92.659 Z M 130.803 95.616 L 128.339 95.616 L 128.339 92.892 L 126.491 92.892 L 126.491 95.616 L 124.027 95.616 L 124.027 87.916 L 126.491 87.916 L 126.491 90.639 L 128.339 90.639 L 128.339 87.916 L 130.803 87.916 L 130.803 95.616 Z M 131.665 91.77 C 131.665 90.368 131.928 89.344 132.453 88.699 C 132.977 88.053 133.927 87.731 135.299 87.731 C 136.672 87.731 137.621 88.053 138.146 88.699 C 138.671 89.344 138.934 90.368 138.934 91.77 C 138.934 92.468 138.878 93.056 138.767 93.534 C 138.655 94.01 138.464 94.425 138.195 94.78 C 137.925 95.132 137.551 95.39 137.073 95.554 C 136.597 95.718 136.006 95.8 135.299 95.8 C 134.592 95.8 134.001 95.718 133.526 95.554 C 133.048 95.39 132.674 95.132 132.404 94.78 C 132.134 94.425 131.943 94.01 131.832 93.534 C 131.721 93.056 131.665 92.468 131.665 91.77 Z M 134.314 90.49 L 134.314 93.693 L 135.335 93.693 C 135.672 93.693 135.917 93.655 136.069 93.578 C 136.222 93.499 136.298 93.32 136.298 93.042 L 136.298 89.838 L 135.264 89.838 C 134.935 89.838 134.695 89.877 134.543 89.953 C 134.39 90.032 134.314 90.211 134.314 90.49 Z M 142.211 91.884 L 142.062 95.616 L 139.488 95.616 L 139.954 87.916 L 143.171 87.916 L 144.134 91.832 L 144.218 91.832 L 145.181 87.916 L 148.393 87.916 L 148.864 95.616 L 146.29 95.616 L 146.141 91.884 L 146.053 91.884 L 145.12 95.616 L 143.232 95.616 L 142.286 91.884 L 142.211 91.884 Z M 154.715 90.921 L 154.715 92.707 L 152.251 92.707 L 152.251 93.644 L 155.269 93.644 L 155.269 95.616 L 149.787 95.616 L 149.787 87.916 L 155.208 87.916 L 154.9 89.887 L 152.251 89.887 L 152.251 90.921 L 154.715 90.921 Z M 160.738 95.616 L 156.316 95.616 L 156.316 87.916 L 160.307 87.916 C 161.046 87.916 161.574 88.059 161.891 88.347 C 162.208 88.634 162.366 89.054 162.366 89.605 C 162.366 90.154 162.265 90.578 162.062 90.877 C 161.863 91.179 161.595 91.374 161.257 91.462 L 161.257 91.537 C 162.252 91.71 162.749 92.387 162.749 93.57 C 162.749 94.186 162.585 94.681 162.256 95.057 C 161.928 95.429 161.422 95.616 160.738 95.616 Z M 159.739 92.549 L 158.78 92.549 L 158.78 93.803 L 159.73 93.803 C 160.074 93.803 160.245 93.595 160.245 93.178 C 160.245 92.759 160.077 92.549 159.739 92.549 Z M 159.554 89.605 L 158.78 89.605 L 158.78 90.749 L 159.546 90.749 C 159.857 90.749 160.012 90.559 160.012 90.177 C 160.012 89.796 159.86 89.605 159.554 89.605 Z M 168.995 93.055 L 170.324 95.616 L 167.613 95.616 L 166.601 93.323 L 166.073 93.323 L 166.073 95.616 L 163.609 95.616 L 163.609 87.916 L 167.49 87.916 C 169.256 87.916 170.139 88.815 170.139 90.613 C 170.139 91.845 169.758 92.659 168.995 93.055 Z M 166.641 89.887 L 166.073 89.887 L 166.073 91.427 L 166.641 91.427 C 166.937 91.427 167.153 91.396 167.288 91.334 C 167.422 91.273 167.49 91.131 167.49 90.908 L 167.49 90.406 C 167.49 90.183 167.422 90.041 167.288 89.979 C 167.153 89.918 166.937 89.887 166.641 89.887 Z M 176.114 90.921 L 176.114 92.707 L 173.65 92.707 L 173.65 93.644 L 176.668 93.644 L 176.668 95.616 L 171.186 95.616 L 171.186 87.916 L 176.607 87.916 L 176.299 89.887 L 173.65 89.887 L 173.65 90.921 L 176.114 90.921 Z M 184.047 92.214 L 184.641 87.916 L 187.215 87.916 L 186.005 95.616 L 182.793 95.616 L 182.225 92.782 L 182.075 92.782 L 181.521 95.616 L 178.305 95.616 L 177.099 87.916 L 179.673 87.916 L 180.254 92.214 L 180.329 92.214 L 181.213 87.916 L 183.101 87.916 L 183.972 92.214 L 184.047 92.214 Z" style="fill: rgb(255, 255, 255); white-space: pre; transform-box: fill-box; transform-origin: 50% 50%;"/>
</svg>