<?xml version="1.0" encoding="UTF-8" standalone="no"?>
<!-- Created with Inkscape (http://www.inkscape.org/) -->

<svg
   width="100mm"
   height="20mm"
   viewBox="0 0 100 20"
   version="1.1"
   id="svg1403"
   xmlns="http://www.w3.org/2000/svg"
   xmlns:svg="http://www.w3.org/2000/svg">
  <defs
     id="defs1400" />
  <g
     aria-label="OD Commander"
     id="text909"
     style="font-size:16.9333px;font-family:'Swiss 911 Compressed';-inkscape-font-specification:'Swiss 911 Compressed, Normal';fill:#ffffff"
     transform="matrix(0.98033259,0,0,0.98033259,0.1849248,-0.38502355)">
    <path
       id="path1028"
       d="m 90.218233,16.680889 h 2.709328 V 9.789036 c 0,-0.5418656 0.135467,-0.8297317 0.558799,-0.8297317 0.389466,0 0.524932,0.2709328 0.524932,0.8297317 v 2.387595 h 2.692395 V 9.5011699 c 0,-1.7779965 -0.287866,-2.7770612 -1.79493,-2.7770612 -0.897465,0 -1.574797,0.4402658 -2.031996,1.3377307 h -0.01693 V 6.9273083 H 90.218236 Z M 86.865426,10.432501 H 85.747828 V 9.2471704 c 0,-0.5418656 0.186266,-0.8127984 0.558799,-0.8127984 0.372533,0 0.558799,0.2709328 0.558799,0.8127984 z m 2.709328,2.472262 h -2.709328 v 1.371598 c 0,0.541865 -0.169333,0.812798 -0.558799,0.812798 -0.406399,0 -0.558799,-0.270933 -0.558799,-0.812798 v -2.184396 h 3.826926 V 9.4842366 c 0,-1.8457297 -1.117598,-2.7939945 -3.268127,-2.7939945 -2.438395,0 -3.268127,1.1006645 -3.268127,3.4713269 v 3.28506 c 0,2.370662 0.829732,3.471326 3.268127,3.471326 2.184396,0 3.268127,-0.965198 3.268127,-2.929461 z M 78.568121,13.768362 V 9.789036 c 0,-0.5757322 0.135467,-0.8297317 0.558799,-0.8297317 0.423333,0 0.558799,0.2878661 0.558799,0.8297317 v 3.979326 c 0,0.541865 -0.135466,0.812798 -0.558799,0.812798 -0.423332,0 -0.558799,-0.237066 -0.558799,-0.812798 z m 1.134532,2.912527 h 2.692394 V 4.4889131 h -2.658528 v 2.1166625 c 0,0.1354664 0.01693,0.6603987 0.0508,1.5747969 -0.355599,-0.9651981 -1.032931,-1.4562638 -1.964263,-1.4562638 -1.557863,0 -1.964263,0.9143982 -1.964263,2.7770612 v 4.6227911 c 0,1.862663 0.4064,2.777061 1.964263,2.777061 0.965198,0 1.64253,-0.507999 1.879597,-1.473197 z m -4.504269,0 V 9.5011699 c 0,-1.7949298 -0.304799,-2.7770612 -1.811863,-2.7770612 -0.897465,0 -1.54093,0.4402658 -2.048929,1.3377307 h -0.03387 V 6.9273083 H 68.66213 v 9.7535807 h 2.709328 V 9.789036 c 0,-0.5418656 0.135467,-0.8297317 0.558799,-0.8297317 0.423333,0 0.558799,0.2539995 0.558799,0.8297317 v 6.891853 z M 65.25855,15.580225 h 0.0508 l 0.08467,1.100664 h 2.675461 c -0.0508,-0.355599 -0.08467,-0.643465 -0.08467,-0.897465 V 9.4842366 c 0,-1.8795963 -1.032931,-2.7939945 -3.200394,-2.7939945 -2.099729,0 -3.318927,0.8974649 -3.318927,2.4383952 v 1.2530647 h 2.709328 V 9.2979703 c 0,-0.5418656 0.186267,-0.8127984 0.558799,-0.8127984 0.372533,0 0.558799,0.2539995 0.558799,0.7619985 0,0.8974646 -0.643465,1.0667976 -1.981196,1.8118636 -1.69333,0.931331 -1.84573,1.23613 -1.84573,3.166527 0,1.74413 0.423333,2.658528 1.94733,2.658528 0.931331,0 1.659463,-0.507999 1.84573,-1.303864 z m 0.01693,-1.710264 c 0,0.541866 -0.135467,0.812799 -0.558799,0.812799 -0.423333,0 -0.558799,-0.254 -0.558799,-0.812799 v -0.761998 c 0,-0.558799 0.423333,-0.745065 1.117598,-1.337731 z m -14.715019,2.810928 h 2.675461 V 9.789036 c 0,-0.5418656 0.135467,-0.8297317 0.558799,-0.8297317 0.423333,0 0.558799,0.2539995 0.558799,0.8297317 v 6.891853 h 2.641595 V 9.789036 c 0,-0.5418656 0.135466,-0.8297317 0.558799,-0.8297317 0.423332,0 0.558799,0.2539995 0.558799,0.8297317 v 6.891853 h 2.658528 V 9.5011699 c 0,-1.7610632 -0.237066,-2.7770612 -1.913463,-2.7770612 -0.897465,0 -1.574797,0.4571991 -1.913463,1.3377307 h -0.01693 c -0.220136,-0.8805316 -0.829735,-1.3377307 -1.8288,-1.3377307 -0.897464,0 -1.574796,0.4741324 -1.913462,1.3377307 h -0.01693 V 6.9273083 h -2.607728 z m -10.905029,0 h 2.675461 V 9.789036 c 0,-0.5418656 0.135467,-0.8297317 0.558799,-0.8297317 0.423333,0 0.558799,0.2539995 0.558799,0.8297317 v 6.891853 h 2.641595 V 9.789036 c 0,-0.5418656 0.135466,-0.8297317 0.558799,-0.8297317 0.423332,0 0.558799,0.2539995 0.558799,0.8297317 v 6.891853 h 2.658528 V 9.5011699 c 0,-1.7610632 -0.237067,-2.7770612 -1.913463,-2.7770612 -0.897465,0 -1.574797,0.4571991 -1.913463,1.3377307 h -0.01693 c -0.220136,-0.8805316 -0.829735,-1.3377307 -1.8288,-1.3377307 -0.897465,0 -1.574797,0.4741324 -1.913463,1.3377307 H 42.26316 V 6.9273083 h -2.607728 z m -7.162802,-6.51932 v 3.28506 c 0,2.370662 0.812799,3.471326 3.251194,3.471326 2.455328,0 3.268127,-1.100664 3.268127,-3.471326 v -3.28506 c 0,-2.3706624 -0.829732,-3.4713269 -3.268127,-3.4713269 -2.455329,0 -3.251194,1.1006645 -3.251194,3.4713269 z m 2.692395,-0.9143986 c 0,-0.5418656 0.186266,-0.8127984 0.558799,-0.8127984 0.372532,0 0.558799,0.2709328 0.558799,0.8127984 v 5.0291906 c 0,0.541865 -0.1524,0.812798 -0.558799,0.812798 -0.406399,0 -0.558799,-0.270933 -0.558799,-0.812798 z M 24.669457,8.0618394 v 5.0799896 c 0,2.624662 0.880531,3.826926 3.572926,3.826926 2.319862,0 3.589859,-1.100664 3.589859,-3.08186 v -1.913463 h -2.861727 v 1.913463 c 0,0.728132 -0.186267,1.049864 -0.728132,1.049864 -0.541866,0 -0.711199,-0.321732 -0.711199,-1.049864 V 7.1474412 c 0,-0.7281319 0.169333,-1.0498646 0.711199,-1.0498646 0.541865,0 0.728132,0.3217327 0.728132,1.0498646 v 1.6594634 h 2.861727 V 7.079708 c 0,-1.7949298 -1.303864,-2.8617277 -3.589859,-2.8617277 -2.692395,0 -3.572926,1.2191976 -3.572926,3.8438591 z M 15.999626,4.4889131 h -3.13266 V 16.680889 h 2.438395 c 3.471327,0 4.741324,-0.609599 4.741324,-3.657593 V 8.1465059 c 0,-3.0141274 -1.015998,-3.6575928 -4.047059,-3.6575928 z m -0.270932,1.7271966 h 0.491065 c 0.711199,0 0.965198,0.2370662 0.965198,0.9990647 v 6.6378536 c 0,0.795865 -0.270932,1.015998 -1.049864,1.015998 -0.135467,0 -0.254,0 -0.406399,-0.01693 z M 4.9252412,8.0618394 v 5.0799896 c 0,2.624662 0.8974649,3.826926 3.5898596,3.826926 2.6923952,0 3.5898592,-1.202264 3.5898592,-3.826926 V 8.0618394 c 0,-2.6246615 -0.897464,-3.8438591 -3.5898592,-3.8438591 -2.6923947,0 -3.5898596,1.2191976 -3.5898596,3.8438591 z M 7.7869689,7.1474412 c 0,-0.7281319 0.1862663,-1.0498646 0.7281319,-1.0498646 0.5418656,0 0.7111986,0.3217327 0.7111986,1.0498646 v 6.7394538 c 0,0.728132 -0.169333,1.049864 -0.7111986,1.049864 -0.5418656,0 -0.7281319,-0.321732 -0.7281319,-1.049864 z" />
  </g>
</svg>
