<?xml version="1.0" encoding="UTF-8" standalone="no"?>
<!-- Created with Inkscape (http://www.inkscape.org/) -->

<svg
   width="50mm"
   height="22.356205mm"
   viewBox="0 0 50 22.356205"
   version="1.1"
   id="svg5"
   xml:space="preserve"
   xmlns="http://www.w3.org/2000/svg"
   xmlns:svg="http://www.w3.org/2000/svg"><defs
     id="defs2" /><g
     id="layer1"
     transform="translate(-79.778177,-129.45931)"><path
       style="fill:#ffffff;stroke-width:0.100424"
       d="m 82.738712,151.70432 c -1.09965,-0.31207 -1.726906,-0.78083 -2.392299,-1.7878 -0.559658,-0.84696 -0.64308,-1.08323 -0.517163,-1.46477 0.144688,-0.4384 0.433351,-0.60582 1.146168,-0.66474 0.525763,-0.0434 0.630109,-0.0894 0.877999,-0.38631 0.371689,-0.44522 0.403314,-0.66854 0.365269,-2.57933 l -0.03231,-1.62269 -0.313478,-0.33167 c -0.494037,-0.52271 -1.22801,-1.58846 -1.351354,-1.96219 -0.06187,-0.18747 -0.08372,-0.49421 -0.04856,-0.68164 0.09343,-0.49799 0.463203,-0.71354 1.326541,-0.77327 0.843767,-0.0584 1.209766,-0.27035 1.591553,-0.92183 l 0.251448,-0.42906 v -3.21488 c 0,-2.08822 0.03889,-3.32644 0.110985,-3.53325 0.133681,-0.38347 0.364872,-0.52618 1.094104,-0.67533 0.303784,-0.0622 1.272439,-0.28024 2.152568,-0.48467 0.886233,-0.20585 1.706816,-0.34494 1.839108,-0.31173 0.174745,0.0439 1.530683,0.94243 1.645296,1.09033 0.0072,0.009 0.04116,0.53674 0.07532,1.17193 0.0577,1.07306 0.07634,1.15398 0.262955,1.14213 0.269053,-0.0171 1.596463,-0.22403 2.159123,-0.33664 1.766978,-0.35365 1.753303,-0.35304 2.171699,-0.0987 1.331719,0.8096 1.322017,0.7968 2.233236,2.94437 0.460334,1.08492 0.877698,1.97257 0.927475,1.97257 0.04978,0 0.09063,-0.0339 0.09078,-0.0753 2e-4,-0.0414 0.292608,-0.36906 0.649893,-0.72808 0.357284,-0.35901 0.650897,-0.69914 0.652474,-0.75584 0.0017,-0.0597 -0.163217,-0.0873 -0.391281,-0.0655 -0.379583,0.0362 -0.407523,0.0174 -0.756128,-0.5076 l -0.36198,-0.54518 0.02805,-1.38716 c 0.02728,-1.34928 0.03491,-1.39216 0.279112,-1.56942 0.161583,-0.11731 0.66266,-0.23989 1.405939,-0.344 1.552036,-0.21738 3.033596,-0.43255 3.765916,-0.54694 2.24515,-0.35068 2.04522,-0.36236 2.77218,0.16181 0.25434,0.1834 0.49158,0.30429 0.52722,0.26864 0.0357,-0.0356 0.0648,-0.1958 0.0648,-0.35592 0,-0.35077 0.14382,-0.64215 0.37889,-0.76757 0.18705,-0.0998 1.1015,-0.25031 4.64232,-0.764 0.57995,-0.0841 1.29159,-0.20521 1.58142,-0.26905 0.65447,-0.14415 1.18869,-0.007 1.76059,0.45236 0.55788,0.448 0.77539,0.926 0.77539,1.70409 0,0.70516 -0.13513,1.2167 -0.40295,1.52535 -0.0958,0.11043 -0.39178,0.51719 -0.65762,0.90382 -0.26585,0.38664 -0.5201,0.71804 -0.565,0.73645 -0.21796,0.0893 -0.0395,0.21758 0.30283,0.21758 0.39528,0 1.08135,0.37008 1.64911,0.88956 0.25267,0.23119 0.27618,0.31466 0.27618,0.98115 0,0.40066 0.0396,0.75297 0.0881,0.78291 0.0485,0.0299 0.73554,-0.0804 1.52687,-0.24513 1.63668,-0.34079 1.93372,-0.35912 2.43369,-0.15021 0.35001,0.14623 0.36231,0.14334 0.5897,-0.13884 0.18377,-0.22805 0.36845,-0.31354 0.88499,-0.40963 0.35901,-0.0668 0.87871,-0.16382 1.15489,-0.21562 0.27616,-0.0518 0.61509,-0.11268 0.75318,-0.1353 0.13807,-0.0226 0.477,-0.0903 0.75318,-0.15035 0.43807,-0.0952 0.9965,-0.18992 2.71146,-0.45953 0.22092,-0.0348 0.46947,-0.0891 0.55232,-0.12064 0.21064,-0.0804 0.4006,-0.0433 0.77829,0.15222 0.17951,0.0929 0.32639,0.23481 0.32639,0.31534 0,0.0805 0.10141,0.25439 0.22537,0.38633 0.19309,0.20554 0.22404,0.34425 0.21611,0.9682 -0.0128,1.00455 -0.0868,1.23162 -0.46805,1.4347 -0.1787,0.0952 -0.36435,0.16197 -0.41256,0.14836 -0.0481,-0.0136 -0.0614,0.0434 -0.0295,0.12677 0.032,0.0834 0.0149,0.17824 -0.0378,0.21088 -0.0531,0.0329 -0.0961,0.64432 -0.0961,1.3696 0,1.3027 -0.001,1.31148 -0.27069,1.52554 -0.5996,0.47695 -2.26299,0.64414 -2.64163,0.26551 -0.11042,-0.11043 -0.20084,-0.26863 -0.20084,-0.35148 0,-0.0829 -0.0679,-0.15064 -0.15064,-0.15064 -0.0983,0 -0.15063,0.0985 -0.15063,0.28377 0,0.58524 -0.58045,0.84779 -2.1669,0.98009 -0.67112,0.056 -0.82229,0.0404 -0.93585,-0.0964 -0.1463,-0.17629 -0.4121,-0.22153 -0.4121,-0.0701 0,0.21801 -1.12675,0.61713 -2.41018,0.85373 -0.74565,0.13746 -1.50531,0.2806 -1.68811,0.3181 -0.20657,0.0423 -0.42492,0.0186 -0.57679,-0.0626 -0.21404,-0.11458 -0.30995,-0.0994 -0.77228,0.12233 -0.52056,0.24963 -0.85573,0.33055 -2.6368,0.6366 -0.4971,0.0854 -1.12977,0.21722 -1.40593,0.29287 -0.67677,0.18537 -1.65077,0.35701 -2.0261,0.35701 -0.16874,0 -0.42169,-0.0904 -0.56212,-0.20085 -0.33622,-0.26447 -0.36772,-0.25847 -0.72324,0.13782 -0.28291,0.31535 -0.3764,0.34958 -1.35827,0.4973 -2.33106,0.35071 -2.6469,0.38475 -2.98372,0.32155 -0.25498,-0.0478 -0.40018,-0.0207 -0.53302,0.0995 -0.10046,0.0908 -0.57125,0.25016 -1.04631,0.35398 -0.75051,0.16401 -1.02477,0.17614 -2.09201,0.0926 -0.67553,-0.0529 -1.352519,-0.12419 -1.50441,-0.1584 -0.23262,-0.0524 -0.276167,-0.0293 -0.276167,0.14643 0,0.11481 -0.09159,0.29398 -0.203545,0.39827 -0.247473,0.23056 -1.789754,0.57196 -2.161891,0.47855 -0.145663,-0.0365 -0.497764,-2e-4 -0.782445,0.0808 -1.00952,0.2872 -2.304809,0.4787 -2.7882,0.41222 -0.40696,-0.056 -0.490093,-0.0374 -0.57967,0.13006 -0.143641,0.26839 -0.5124,0.39268 -1.551844,0.52308 -0.827153,0.10379 -0.911012,0.0973 -1.237907,-0.0956 -0.372008,-0.21949 -0.480418,-0.19677 -0.763603,0.16003 -0.214161,0.26983 -0.55163,0.37754 -1.707645,0.54503 -0.825623,0.11962 -0.893197,0.14779 -1.080226,0.45042 -0.267876,0.43343 -0.993458,1.09147 -1.468608,1.3319 -0.39051,0.1976 -1.30699,0.42985 -1.621714,0.41095 -0.09394,-0.006 -0.328968,-0.0551 -0.522285,-0.10995 z m 1.355728,-1.52295 c 0.622217,-0.2916 1.334973,-1.04365 1.679233,-1.77184 0.453169,-0.95855 0.559859,-1.61837 0.63415,-3.92195 l 0.06983,-2.16513 0.353374,-0.24215 c 0.839144,-0.57498 1.724654,-2.20128 2.040543,-3.74758 0.176275,-0.86289 0.193798,-1.31647 0.170092,-4.40276 l -0.02643,-3.44076 -0.281357,-0.0989 c -0.22524,-0.0792 -0.675915,-0.002 -2.259547,0.38807 -1.088004,0.26784 -2.034677,0.53146 -2.103719,0.58583 -0.09512,0.075 -0.12553,0.78481 -0.12553,2.93021 0,3.02293 -0.07196,3.72525 -0.460249,4.49148 -0.31307,0.61783 -0.887027,0.95947 -1.910424,1.13719 -0.423261,0.0735 -0.806781,0.19386 -0.852269,0.26746 -0.240012,0.38834 0.494292,1.51513 1.339986,2.05618 l 0.376591,0.24094 -0.0023,2.18297 c -0.0019,1.90731 -0.02562,2.23369 -0.187602,2.58466 -0.323987,0.70199 -0.862848,1.05446 -1.612072,1.05446 -0.728842,0 -0.781446,0.44765 -0.140585,1.19635 0.768841,0.89822 2.198072,1.19084 3.298192,0.67529 z m 3.358427,-1.93384 c 0.436071,-0.0553 0.608616,-0.13475 0.853607,-0.39337 0.404758,-0.42728 0.727626,-0.49355 1.191996,-0.24467 0.203301,0.10901 0.55315,0.19812 0.777441,0.19812 0.44209,0 1.27719,-0.1829 1.346397,-0.29488 0.07911,-0.12801 -1.593616,-4.4769 -1.761995,-4.58096 -0.08924,-0.0552 -0.947282,0.0945 -2.431148,0.42414 l -0.682247,0.15155 0.02949,0.66881 c 0.02644,0.59964 0.05211,0.67204 0.248149,0.69995 0.454268,0.0647 0.436146,0.21901 -0.216797,1.84619 -0.347833,0.86682 -0.604246,1.60422 -0.569806,1.63866 0.03443,0.0344 0.19891,0.0385 0.365492,0.009 0.166581,-0.0294 0.54882,-0.0846 0.849422,-0.12269 z m 1.285943,-2.06101 c 0.07086,-0.27094 0.194973,-0.31683 0.253336,-0.0937 0.03284,0.12559 -0.01056,0.20687 -0.126488,0.2372 -0.132828,0.0348 -0.164188,-7e-4 -0.126848,-0.14354 z m 5.046573,0.87584 c 0.193317,-0.0305 0.701715,-0.15491 1.129773,-0.2764 l 0.778289,-0.2209 v -0.78466 c 0,-0.90947 -0.02682,-0.92633 -0.927848,-0.58388 -0.89121,0.33873 -1.181062,0.23954 -1.181062,-0.40421 0,-0.51851 0.529679,-0.94076 1.623861,-1.29449 0.552914,-0.17875 0.619582,-0.31014 0.539035,-1.06227 -0.06708,-0.62632 -0.08125,-0.6534 -0.342153,-0.6534 -0.400957,0 -1.391601,0.27527 -2.014575,0.5598 -1.269921,0.57998 -1.884282,1.43923 -1.985445,2.77687 -0.06479,0.85659 0.103547,1.35063 0.574421,1.68592 0.306859,0.2185 0.940464,0.39248 1.25337,0.34415 0.110463,-0.0171 0.359018,-0.056 0.552334,-0.0865 z m 4.016972,-0.70027 0.351485,-0.11624 -0.0172,-0.62146 -0.01719,-0.62147 0.555408,0.31346 c 0.439624,0.2481 0.708382,0.32326 1.289224,0.36054 l 0.733818,0.0471 0.0335,-0.7842 c 0.0386,-0.90385 0.006,-0.9584 -0.71836,-1.19896 -0.276908,-0.0919 -0.503466,-0.18865 -0.503466,-0.21483 0,-0.0262 0.270341,-0.36171 0.600766,-0.74561 0.59728,-0.69399 0.77918,-1.06117 0.66852,-1.34954 -0.043,-0.11221 -0.22055,-0.15086 -0.69183,-0.15086 h -0.633957 l -0.596258,0.60255 c -0.327941,0.3314 -0.623986,0.60254 -0.657876,0.60254 -0.03389,0 -0.04106,-0.24785 -0.01594,-0.55077 0.05734,-0.69147 -0.01882,-0.72851 -0.998718,-0.48566 l -0.737643,0.18282 -0.02688,2.49517 -0.02688,2.49517 0.529003,-0.0718 c 0.290952,-0.0395 0.687172,-0.12407 0.880489,-0.18799 z m 4.878565,-0.79251 c 0.45419,-0.11209 0.49668,-0.14833 0.5256,-0.44832 0.0364,-0.37811 0.0323,-0.37651 0.43936,-0.16596 0.36524,0.18888 1.66182,0.21583 1.98789,0.0413 0.18609,-0.0996 0.20818,-0.18878 0.18205,-0.73498 -0.0276,-0.57711 -0.0477,-0.62415 -0.2808,-0.65687 -0.3853,-0.0541 -0.4152,-0.22415 -0.10213,-0.58077 0.17341,-0.19748 0.33521,-0.54658 0.41164,-0.88812 0.1128,-0.50405 0.10569,-0.61155 -0.0681,-1.03084 -0.28917,-0.69776 -0.66397,-0.88035 -1.79805,-0.87597 -0.83693,0.004 -2.14301,0.23846 -2.58592,0.46573 -0.16008,0.0822 -0.17575,0.30768 -0.17575,2.5303 0,1.34207 0.0336,2.47373 0.0747,2.51481 0.083,0.083 0.63893,0.0149 1.38947,-0.17033 z m 0.60438,-2.45535 c -0.033,-0.033 -0.06,-0.39144 -0.06,-0.79648 0,-0.6604 0.02,-0.73644 0.19367,-0.73644 0.46775,0 0.65748,0.62721 0.36236,1.1979 -0.14797,0.28617 -0.38485,0.44617 -0.496,0.33502 z m 3.9408,1.74423 c 0.63339,-0.11114 0.77212,-0.1741 0.98642,-0.44793 0.20009,-0.25568 0.32286,-0.31862 0.62144,-0.31862 0.20464,0 0.47705,0.0735 0.60536,0.16341 0.18048,0.12641 0.38447,0.15172 0.90106,0.11185 0.36727,-0.0283 0.78774,-0.0992 0.9344,-0.15731 l 0.26663,-0.10568 -0.37905,-1.03545 c -0.63484,-1.73414 -1.31868,-3.37879 -1.45034,-3.48805 -0.0874,-0.0725 -0.55836,-0.0141 -1.5734,0.19501 -0.7968,0.16417 -1.46002,0.29867 -1.47383,0.2989 -0.0138,2e-4 -0.0251,0.31675 -0.0251,0.70337 0,0.68522 0.006,0.70298 0.25422,0.70298 0.13989,0 0.2818,0.0719 0.31557,0.15993 0.0338,0.088 -0.19203,0.79973 -0.50174,1.58169 -0.30971,0.78195 -0.59214,1.50083 -0.6276,1.59749 -0.0791,0.21566 0.10141,0.22172 1.14596,0.0384 z m 1.36392,-2.03739 c 0.032,-0.0834 0.0581,-0.17042 0.0581,-0.19353 0,-0.10533 0.18508,-0.027 0.23336,0.0988 0.0325,0.0848 -0.0263,0.16174 -0.14782,0.19353 -0.15005,0.0393 -0.18692,0.0139 -0.1437,-0.0987 z m 5.33043,0.8575 c 1.40783,-0.25258 2.0938,-0.57129 2.36226,-1.09754 0.32264,-0.63241 0.21648,-1.41319 -0.24409,-1.79543 -0.13436,-0.11149 -0.13635,-0.16363 -0.0152,-0.39786 0.34731,-0.67161 0.27479,-1.49425 -0.15184,-1.72258 -0.33991,-0.18191 -1.34892,-0.0912 -2.65408,0.23868 l -1.30552,0.32996 -0.027,2.25104 c -0.0149,1.23806 -0.005,2.30927 0.0225,2.38043 0.056,0.14584 0.27044,0.12595 2.01301,-0.1867 z m -0.15064,-1.72347 c 0,-0.26872 0.0432,-0.37379 0.15378,-0.37379 0.25798,0 0.29249,0.30133 0.061,0.5328 l -0.21479,0.21479 z m 0.0402,-1.82218 c 0,-0.26796 0.0395,-0.35858 0.14734,-0.33764 0.22592,0.0439 0.23993,0.22562 0.0368,0.47657 l -0.18406,0.22731 z m 4.59447,2.75797 c 1.51989,-0.2624 2.11518,-0.4522 2.4763,-0.78954 0.58719,-0.54852 0.6658,-1.55326 0.16102,-2.05804 -0.24976,-0.24976 -0.25153,-0.26168 -0.0861,-0.58157 0.2556,-0.49426 0.23589,-1.24888 -0.0399,-1.52391 -0.32061,-0.31984 -1.32596,-0.28347 -2.87799,0.10414 l -1.20509,0.30091 -0.0269,2.37242 -0.0269,2.37242 h 0.24291 c 0.13359,0 0.75578,-0.0886 1.38264,-0.19678 z m 0.28838,-1.79397 c -0.002,-0.35898 0.028,-0.42834 0.17237,-0.40054 0.24728,0.0477 0.25881,0.29042 0.0277,0.58365 l -0.19785,0.25106 -0.002,-0.43417 z m 0.001,-1.85784 c -0.002,-0.30543 0.0308,-0.37732 0.16407,-0.35149 0.25046,0.0486 0.26472,0.2245 0.0401,0.49428 l -0.20081,0.24116 -0.004,-0.38395 z m 5.53235,2.29126 c 0.0354,-0.16529 0.0696,-1.23966 0.0762,-2.38748 0.0107,-1.79373 -0.009,-2.0953 -0.14276,-2.1463 -0.1495,-0.0574 -1.0033,0.0756 -1.77853,0.27686 l -0.37659,0.0977 v 2.33937 c 0,1.28665 0.0218,2.36115 0.0484,2.38778 0.0267,0.0266 0.51205,-0.0227 1.0787,-0.1096 1.016,-0.15577 1.03119,-0.16213 1.09458,-0.45848 z m -33.947316,0.39324 c 1.508224,-0.19567 1.6493,-0.24696 1.914176,-0.69589 0.115753,-0.19618 0.338348,-0.42284 0.494658,-0.50366 0.447966,-0.23166 1.182376,-0.18649 1.649903,0.10153 0.282929,0.17425 0.550159,0.2484 0.903819,0.25075 0.630417,0.005 2.195357,-0.27819 2.40016,-0.4331 0.190114,-0.14379 0.03979,-0.58707 -1.566265,-4.61895 -0.84474,-2.12066 -1.165421,-2.81909 -1.328477,-2.89337 -0.159058,-0.0725 -0.814365,0.0231 -2.520459,0.36788 -1.268033,0.2562 -2.368188,0.51784 -2.44479,0.58141 -0.110664,0.0918 -0.125064,0.32191 -0.07011,1.11985 0.03804,0.55233 0.08982,1.02491 0.115065,1.05015 0.02525,0.0253 0.237124,0.0714 0.47084,0.10259 0.360656,0.0482 0.429176,0.0947 0.452953,0.30778 0.01566,0.14028 -0.415081,1.35409 -0.976193,2.75092 -0.552314,1.37491 -0.98027,2.53858 -0.951012,2.58591 0.06829,0.11055 0.01467,0.11316 1.455727,-0.0738 z m 2.653455,-3.39641 c 0.03618,-0.11529 0.08999,-0.31133 0.119581,-0.43561 0.07505,-0.31509 0.170598,-0.2821 0.311496,0.10758 0.161637,0.447 0.164038,0.44071 -0.188125,0.4924 -0.275289,0.0404 -0.3016,0.0227 -0.242952,-0.16435 z m 33.942741,2.8475 c 0.38664,-0.0682 0.73617,-0.17385 0.77676,-0.23482 0.0406,-0.061 0.0745,-0.81622 0.0753,-1.6783 l 0.001,-1.56741 0.42237,-0.0896 c 0.47478,-0.1007 0.55473,-0.25057 0.57186,-1.07188 0.0125,-0.59924 -0.0788,-0.64201 -1.02883,-0.48215 -1.09375,0.18402 -2.28212,0.41361 -2.70626,0.52281 l -0.38089,0.0981 0.0294,0.72306 0.0294,0.72304 0.47701,-0.0162 0.47702,-0.0163 v 1.52766 c 0,1.56287 0.0587,1.81826 0.39698,1.72762 0.0854,-0.0229 0.47169,-0.0974 0.85832,-0.1656 z m -26.71285,-1.15339 c 2.4952,-0.3214 5.90295,-0.96556 6.13741,-1.16016 0.0993,-0.0824 0.1391,-0.36912 0.1391,-1.00198 0,-1.08294 -0.0349,-1.11449 -1.03838,-0.94078 -0.39547,0.0684 -1.03042,0.15756 -1.411,0.198 -0.57508,0.0611 -0.67801,0.0501 -0.60942,-0.0652 0.0454,-0.0763 0.42759,-0.65844 0.84936,-1.29363 1.4904,-2.24453 1.49285,-2.24965 1.59153,-3.314 0.11963,-1.2906 0.13435,-1.27754 -1.26196,-1.11914 -1.19503,0.13554 -4.38444,0.65038 -5.250244,0.84747 l -0.552333,0.12573 v 1.20274 1.20275 l 0.602546,-0.0416 c 1.245821,-0.086 2.090511,-0.0614 2.132081,0.062 0.0224,0.0664 -0.49521,0.67656 -1.15018,1.35573 -0.654979,0.67915 -1.44889,1.52497 -1.764249,1.8796 l -0.57338,0.64477 v 0.71597 c 0,0.83157 0.09309,0.97299 0.595779,0.90521 0.197038,-0.0266 0.900542,-0.11814 1.56334,-0.20355 z m 8.74108,-1.50647 c 2.47216,-0.31913 6.01952,-0.98473 6.24724,-1.17217 0.0833,-0.0686 0.12554,-0.40431 0.12554,-0.998 0,-0.72621 -0.0301,-0.90625 -0.16014,-0.95613 -0.1421,-0.0546 -1.48096,0.0722 -2.48735,0.23561 -0.24042,0.039 -0.36524,0.0203 -0.36524,-0.0548 0,-0.0627 0.52599,-0.90338 1.16888,-1.86813 l 1.16889,-1.75409 0.0931,-1.02864 c 0.12,-1.32514 0.15325,-1.29753 -1.34795,-1.11909 -1.3367,0.15888 -4.53392,0.6839 -5.25058,0.8622 l -0.50212,0.12492 -0.0283,1.18191 c -0.0331,1.38209 -0.0483,1.36305 0.93763,1.17703 0.85938,-0.16215 1.71226,-0.17845 1.85569,-0.0355 0.0856,0.0854 -0.27067,0.51586 -1.413,1.70722 -2.06539,2.15403 -2.10519,2.21165 -2.10519,3.04754 0,0.36913 0.0301,0.70129 0.0669,0.73811 0.10556,0.10556 0.69878,0.0794 1.99592,-0.0881 z"
       id="path1647" /></g><path
     style="font-variation-settings:'wght' 800;fill:#e6e6e6;stroke:#000000;stroke-width:0.377953"
     d="M 9.7285008,79.002163 C 7.138632,78.456063 5.1715792,77.300585 3.6813998,75.45 2.7597436,74.305438 2.3419165,73.522399 2.2797101,72.82313 2.236477,72.337142 2.2620938,72.207884 2.4481921,71.973002 2.817844,71.50645 3.1785065,71.38986 4.5537369,71.292349 6.7545311,71.136303 7.996259,70.595415 9.218917,69.260231 9.9625424,68.448166 10.701864,67.073114 10.90553,66.123324 11.135637,65.050228 11.246455,61.49819 11.248292,55.136756 L 11.25,49.223513 9.9374717,48.349228 C 7.3632554,46.634524 5.2722862,44.078003 4.6926496,41.936652 4.441985,41.010623 4.5777871,40.59861 5.2253727,40.320412 5.7795944,40.082322 6.9416146,39.778627 8.1677815,39.551409 12.884425,38.67738 15.038836,36.865474 16.099416,32.880738 16.724089,30.533761 16.83832,28.501027 16.95532,17.65 17.041997,9.6112965 17.093055,8.0520247 17.289918,7.4317653 17.341095,7.2705203 17.58203,7.1503564 18.328279,6.9138929 19.705795,6.4774004 23.053488,5.5892322 26.15,4.8387314 31.725079,3.4875012 33.009127,3.3037028 34.171541,3.6905295 l 0.654868,0.2179261 0.07141,4.8207722 c 0.09988,6.7425262 0.0099,21.0783402 -0.13949,22.2207722 -0.657623,5.029491 -2.672383,10.218694 -5.389792,13.881915 -0.945589,1.274707 -1.983352,2.299538 -3.103485,3.064812 -0.514221,0.351315 -0.950616,0.687021 -0.969767,0.746014 C 25.276136,48.701733 25.189824,51 25.103483,53.75 c -0.336634,10.721887 -0.615116,13.208591 -1.825412,16.3 -1.574502,4.021685 -4.661277,7.400198 -7.811647,8.549941 -1.674762,0.611212 -3.980324,0.77283 -5.7379232,0.402222 z"
     id="path1584"
     transform="scale(0.26458333)" /><path
     style="font-variation-settings:'wght' 800;fill:#e6e6e6;stroke:#000000;stroke-width:0.377953"
     d="M 24.502114,71.40342 C 24.377939,71.202502 25.042576,69.296933 26.77042,64.9 28.634375,60.156699 28.90788,59.047511 28.335038,58.554772 28.190809,58.430712 27.876423,58.297862 27.636402,58.25955 26.971,58.153339 26.780429,57.981221 26.660015,57.377708 26.580823,56.980799 26.342254,53.214381 26.391356,53.136244 26.39611,53.128679 27.885,52.800042 29.7,52.405941 33.730781,51.530715 36.469421,51.024216 37.4,50.98186 L 38.1,50.95 38.568549,51.9 c 0.863138,1.750041 3.125879,7.441942 4.830074,12.15 1.030624,2.847233 1.384894,4.039122 1.249171,4.202658 C 44.387768,68.56597 41.748762,69.167128 40.2,69.265853 39.073016,69.337691 37.982336,69.097544 36.634103,68.48071 35.8012,68.099647 35.618745,68.053165 34.95,68.051673 c -0.989608,-0.0022 -1.439878,0.223775 -2.627992,1.318946 -1.383445,1.275222 -1.465688,1.306391 -4.691853,1.778189 -2.534644,0.37067 -3.031328,0.411098 -3.128041,0.254612 z m 10.012131,-7.648811 c 0.333293,-0.0953 0.469999,-0.534103 0.314589,-1.009775 -0.172913,-0.529247 -0.494812,-0.587832 -0.767362,-0.139659 -0.3926,0.645579 -0.347646,1.372186 0.07765,1.255017 0.08848,-0.02438 0.257292,-0.07189 0.375127,-0.105583 z"
     id="path1586"
     transform="scale(0.26458333)" /><path
     style="font-variation-settings:'wght' 800;fill:#e6e6e6;stroke:#000000;stroke-width:0.377953"
     d="M 49.1,66.688002 C 45.288965,65.812338 43.810447,63.806106 43.986951,59.75 c 0.155265,-3.568027 1.181877,-6.118156 3.301097,-8.2 0.503887,-0.495 1.275212,-1.139795 1.714055,-1.432879 2.294445,-1.532354 6.518131,-3.066157 9.45147,-3.432238 1.456364,-0.181755 1.556869,-0.07763 1.800336,1.865117 0.06203,0.495 0.117271,1.3275 0.122748,1.85 0.01709,1.63035 -0.292434,1.985775 -2.344789,2.69251 C 57.35434,53.325818 56.26,53.776228 55.6,54.093419 c -2.471334,1.187707 -3.45085,2.321902 -3.449442,3.994154 7.2e-4,0.850354 0.141214,1.344103 0.495205,1.740288 0.261464,0.292629 0.340388,0.320061 1.018828,0.354119 0.88212,0.04428 1.513131,-0.105493 3.385409,-0.803556 1.070134,-0.398991 1.48475,-0.505937 2,-0.51588 0.648764,-0.01252 0.650328,-0.01187 0.822329,0.339627 0.142519,0.29125 0.184127,0.786366 0.240528,2.862121 l 0.0682,2.509948 -0.340527,0.107677 C 59.653237,64.741138 58.78,64.991016 57.9,65.2372 c -4.807527,1.344926 -7.400379,1.772393 -8.8,1.450802 z"
     id="path1588"
     transform="scale(0.26458333)" /><path
     style="font-variation-settings:'wght' 800;fill:#e6e6e6;stroke:#000000;stroke-width:0.377953"
     d="m 34.293949,47.47029 c -0.122124,-0.318248 0.76227,-2.793864 3.253617,-9.107605 2.25915,-5.725292 3.422296,-8.885451 3.797059,-10.316252 0.235222,-0.898055 0.16091,-1.439912 -0.232861,-1.69792 -0.12671,-0.08302 -0.850775,-0.259735 -1.609032,-0.392691 -0.758257,-0.132957 -1.415165,-0.278658 -1.459795,-0.32378 -0.207637,-0.209928 -0.654921,-6.064844 -0.54326,-7.111242 0.09299,-0.871448 0.279618,-1.05254 1.400323,-1.358792 3.54999,-0.970097 13.516429,-2.975369 16.209714,-3.261435 1.106947,-0.117574 1.425532,-0.05822 1.74855,0.325779 0.708928,0.842756 2.413346,4.830667 6.606893,15.458474 3.846585,9.748494 4.554483,11.899293 4.097623,12.449775 -0.578157,0.696637 -7.841319,1.921532 -9.870215,1.664561 C 56.645716,43.666573 56.413307,43.587918 55,42.887897 c -1.375714,-0.6814 -2.176989,-0.883618 -3.511351,-0.886161 -2.270633,-0.0043 -3.371194,0.604184 -4.72973,2.615106 -1.04239,1.542961 -1.469048,1.685252 -7.458919,2.487573 -3.771425,0.505168 -4.920376,0.589141 -5.006051,0.365875 z M 51.446,34.78641 c 0.256898,-0.08955 0.304,-0.157765 0.304,-0.440233 0,-0.372948 -0.410553,-1.595185 -0.729305,-2.171177 -0.231748,-0.418774 -0.504066,-0.48635 -0.674742,-0.167438 -0.199614,0.372982 -0.811379,2.708 -0.750827,2.865797 0.04916,0.128108 0.183508,0.142571 0.802956,0.08644 C 50.807237,34.92272 51.2788,34.844696 51.446,34.78641 Z"
     id="path1590"
     transform="scale(0.26458333)" /><path
     style="font-variation-settings:'wght' 800;fill:#e6e6e6;stroke:#000000;stroke-width:0.377953"
     d="m 62.887951,59.733001 c 0.03462,-2.795651 0.09068,-7.022017 0.12458,-9.391925 l 0.06164,-4.308923 2.162915,-0.524261 c 2.466394,-0.59782 3.260013,-0.71779 3.731688,-0.564112 0.549914,0.17917 0.600447,0.396752 0.528942,2.27752 -0.06299,1.656746 -0.02897,2.0787 0.167598,2.0787 0.05601,0 1.153536,-1.040708 2.43895,-2.312684 l 2.337116,-2.312683 2.029311,0.04647 c 2.266981,0.05191 2.695212,0.14813 2.888636,0.649063 0.231204,0.598774 -0.106529,1.647668 -0.912848,2.835025 -0.232135,0.341833 -1.081981,1.414257 -1.888548,2.383163 C 74.868242,52.618127 74.55,53.028109 74.55,53.175107 c 0,0.114394 0.894927,0.499748 2.374439,1.022429 1.13105,0.399576 1.759053,0.785473 1.988278,1.221764 0.22845,0.434813 0.28103,1.564225 0.188148,4.041387 l -0.07355,1.961657 -1.063656,-0.06477 C 73.957173,61.113606 73.321738,60.944954 70.597514,59.402508 69.915101,59.016128 69.340056,58.7 69.319634,58.7 c -0.02042,0 -0.03319,1.064137 -0.02838,2.364748 l 0.0087,2.364748 -0.55,0.190181 c -1.254281,0.433709 -3.063744,0.809907 -5.437495,1.130488 l -0.487496,0.06584 z"
     id="path1592"
     transform="scale(0.26458333)" /><path
     style="font-variation-settings:'wght' 800;fill:#e6e6e6;stroke:#000000;stroke-width:0.377953"
     d="M 70.25,41.421113 C 69.714195,41.355928 69.45724,41.178114 69.228812,40.714447 69.01263,40.275636 68.998156,40.114767 68.966593,37.8 l -0.03341,-2.45 1.426496,-1.6 c 1.692873,-1.898775 3.249761,-3.572511 6.650841,-7.15 2.639525,-2.776434 3.941422,-4.226051 4.691267,-5.223566 0.490278,-0.652213 0.50872,-0.701726 0.319781,-0.858532 C 81.609496,20.17591 78.1404,20.099744 74.4,20.350566 c -1.21,0.08114 -2.30125,0.147955 -2.425,0.14848 L 71.75,20.5 v -4.48438 -4.48438 l 1.375,-0.309443 C 76.43459,10.476977 83.444965,9.2831966 89.95,8.3567082 95.576023,7.5554143 97.582652,7.4299398 98.053447,7.85 c 0.559105,0.4988532 0.614385,1.3084837 0.298873,4.377282 -0.389928,3.792586 -0.445777,3.907136 -6.023284,12.353969 -1.75456,2.657188 -3.214532,4.894892 -3.24438,4.972675 -0.03318,0.08647 0.0443,0.186335 0.199385,0.256998 0.403288,0.18375 3.674706,-0.174522 7.912495,-0.866543 2.29349,-0.374522 2.859584,-0.309378 3.210624,0.369469 0.24384,0.47154 0.36849,2.145952 0.29643,3.981906 -0.0718,1.827905 -0.17682,2.479677 -0.4572,2.836114 -0.666725,0.847609 -13.114168,3.187138 -25.34639,4.763919 -4.616978,0.595147 -4.336514,0.563462 -4.65,0.525324 z"
     id="path1594"
     transform="scale(0.26458333)" /><path
     style="font-variation-settings:'wght' 800;fill:#e6e6e6;stroke:#000000;stroke-width:0.377953"
     d="m 81.359588,61.417915 c -0.249742,-0.466646 -0.398325,-11.56582 -0.214101,-15.993328 0.108444,-2.606271 0.159064,-2.757635 1.038672,-3.105824 1.38858,-0.549663 4.391339,-1.169156 6.899118,-1.423342 1.621414,-0.164345 5.102435,-0.07371 5.916723,0.15406 0.863581,0.241554 1.706397,0.720293 2.144715,1.218249 0.755723,0.858547 1.605285,2.858562 1.605285,3.779117 0,0.564403 -0.237477,1.778823 -0.518819,2.653153 -0.303933,0.944539 -0.727959,1.744946 -1.39351,2.630437 -0.322624,0.429241 -0.613063,0.885914 -0.645418,1.014829 -0.158453,0.631323 0.168941,0.989325 1.056976,1.155791 0.721176,0.135188 0.890472,0.321847 1.003948,1.106908 0.152519,1.055177 0.12159,3.254072 -0.05045,3.58676 -0.351427,0.679585 -1.824349,0.967793 -4.452728,0.871267 -1.967973,-0.07227 -2.797618,-0.226744 -3.797179,-0.706998 -1.194754,-0.574038 -1.307791,-0.516605 -1.445919,0.734654 -0.128585,1.164812 -0.29933,1.313067 -2.006902,1.742556 -1.674323,0.421126 -3.051525,0.669375 -4.063764,0.732519 -0.909597,0.05674 -0.970107,0.04827 -1.076647,-0.150808 z m 8.280534,-9.762807 C 90.530341,51.194758 91.263562,49.678186 91.2605,48.30357 91.257032,46.74732 90.555794,45.8 89.407271,45.8 c -0.693284,0 -0.76954,0.181778 -0.828417,1.974772 -0.05393,1.642284 0.08849,3.655146 0.274481,3.879247 0.153832,0.185356 0.429715,0.185738 0.786787,0.0011 z"
     id="path1596"
     transform="scale(0.26458333)" /><path
     style="font-variation-settings:'wght' 800;fill:#e6e6e6;stroke:#000000;stroke-width:0.377953"
     d="M 99.516667,58.533333 C 99.48,58.496667 99.45,58.388584 99.45,58.29315 c 0,-0.09543 0.70168,-1.966684 1.55929,-4.158333 2.23515,-5.711968 2.89251,-7.764327 2.63875,-8.238475 C 103.50322,45.625739 102.9685,45.4 102.47232,45.4 c -0.518,0 -0.72587,-0.177242 -0.8279,-0.705926 -0.10095,-0.523031 -0.10953,-3.446434 -0.012,-4.090357 l 0.0676,-0.446282 4.05,-0.81837 c 4.32157,-0.873245 6.17627,-1.174821 6.9,-1.121943 0.4375,0.03196 0.45895,0.04954 0.77223,0.632878 0.91035,1.695087 3.09241,7.059989 5.24049,12.884498 0.71024,1.925794 1.25662,3.536158 1.21419,3.578587 -0.183,0.183004 -1.45121,0.577559 -2.32691,0.723932 -1.45895,0.243862 -3.4587,0.372673 -4.17441,0.268887 -0.37065,-0.05375 -0.83799,-0.211783 -1.15,-0.388879 C 111.45619,55.480303 110.73366,55.3 109.75299,55.3 c -1.11546,0 -1.41475,0.153402 -2.4246,1.242741 -0.64121,0.691683 -0.88521,0.882858 -1.34765,1.055876 -1.48112,0.554159 -6.167039,1.231751 -6.464073,0.934716 z m 10.293913,-7.781068 c 0.35298,-0.231282 0.32079,-0.666021 -0.0739,-0.99814 -0.17233,-0.14501 -0.38001,-0.25026 -0.46152,-0.233889 -0.16589,0.03332 -0.55199,1.151202 -0.47233,1.367561 0.0635,0.172454 0.6602,0.0922 1.00777,-0.135532 z"
     id="path1598"
     transform="scale(0.26458333)" /><path
     style="font-variation-settings:'wght' 800;fill:#e6e6e6;stroke:#000000;stroke-width:0.377953"
     d="m 102.83539,35.394864 c -0.14554,-0.05753 -0.29579,-0.203663 -0.3339,-0.324734 -0.0381,-0.121072 -0.0935,-0.997222 -0.12303,-1.947002 -0.0642,-2.062306 0.0309,-2.670282 0.58261,-3.723128 0.65383,-1.247835 1.94344,-2.730391 6.72838,-7.735084 4.60334,-4.814745 5.99943,-6.448719 5.94091,-6.953186 -0.0491,-0.422984 -0.57062,-0.543188 -2.33036,-0.537083 -1.68012,0.0058 -2.46296,0.08765 -5.19129,0.542593 -1.73426,0.289183 -1.92523,0.303635 -2.3,0.174064 -0.77667,-0.268519 -0.84875,-0.962378 -0.69287,-6.6695721 l 0.0658,-2.410654 1.45915,-0.352065 C 111.51229,4.2836324 127.50835,1.8 130.20706,1.8 c 1.09423,0 1.44787,0.1295933 1.71012,0.6266927 0.23191,0.4395924 0.20607,1.7092841 -0.10281,5.0513631 l -0.24289,2.6280552 -3.19844,4.821945 c -2.92451,4.408967 -4.25736,6.47223 -5.25515,8.135025 -0.70936,1.182136 -0.52846,1.263201 2.00654,0.89915 3.05644,-0.438936 5.17466,-0.6633 6.88849,-0.729634 l 1.61292,-0.06243 0.16664,0.254315 c 0.52006,0.793712 0.38818,6.735384 -0.15733,7.088703 -1.29362,0.837847 -16.91469,3.673421 -25.83515,4.689658 -2.16224,0.246327 -4.58973,0.340217 -4.96461,0.192021 z"
     id="path1600"
     transform="scale(0.26458333)" /><path
     style="font-variation-settings:'wght' 800;fill:#e6e6e6;stroke:#000000;stroke-width:0.377953"
     d="m 121.6,54.567557 c -0.19767,-0.149997 -0.19968,-0.25293 -0.17296,-8.828369 0.0149,-4.772132 0.0449,-8.69445 0.0667,-8.716264 0.0903,-0.09034 6.03529,-1.555978 7.60626,-1.87521 3.3483,-0.680399 6.0492,-0.824355 7.0564,-0.376103 1.00249,0.446156 1.48646,1.35058 1.56702,2.928389 0.0584,1.143513 -0.16926,2.233284 -0.71659,3.43054 -0.46887,1.025614 -0.46342,1.277296 0.0378,1.748472 1.00457,0.944262 1.54292,2.25635 1.54723,3.770988 0.006,2.086206 -0.85995,3.760363 -2.4813,4.797526 -1.70331,1.089595 -4.10721,1.752003 -10.01061,2.758482 -2.81396,0.479757 -4.19772,0.590933 -4.5,0.361549 z m 8.2478,-7.559402 c 0.20222,-0.750981 -0.14222,-1.25487 -0.81344,-1.190019 -0.49012,0.04735 -0.58174,0.321132 -0.57956,1.731864 l 0.002,1.2 0.64163,-0.670591 c 0.4339,-0.45348 0.67657,-0.80031 0.74952,-1.071254 z m -0.14205,-6.669876 c 0.30829,-0.619321 0.25654,-0.975075 -0.17424,-1.197838 -0.73204,-0.378555 -0.96922,0.02639 -0.97202,1.659559 l -0.002,1.05 0.44667,-0.5 c 0.24567,-0.275 0.5613,-0.730274 0.7014,-1.011721 z"
     id="path1602"
     transform="scale(0.26458333)" /><path
     style="font-variation-settings:'wght' 800;fill:#e6e6e6;stroke:#000000;stroke-width:0.377953"
     d="m 139.88748,51.025 c 0.0309,-0.26125 0.0859,-4.285793 0.12204,-8.943428 l 0.0658,-8.468428 3.06234,-0.753885 c 3.65179,-0.898991 5.10852,-1.197787 6.91235,-1.417823 1.79318,-0.218736 3.72178,-0.15798 4.49199,0.14151 1.11651,0.434148 1.59853,1.271156 1.67988,2.917054 0.0591,1.194659 -0.12186,2.090434 -0.66643,3.299847 -0.22299,0.495235 -0.40544,1.011968 -0.40544,1.148297 0,0.163074 0.20792,0.477299 0.60777,0.918519 0.97628,1.077293 1.39223,2.119478 1.39223,3.488351 0,1.531603 -0.60247,3.016512 -1.69436,4.176058 -1.13915,1.209743 -2.9756,1.921852 -7.00396,2.715875 -3.1237,0.615708 -7.30273,1.253053 -8.2162,1.253053 h -0.40426 z m 7.88167,-6.192735 c 0.9919,-1.381247 0.97526,-2.232152 -0.0469,-2.398027 -0.5842,-0.0948 -0.67224,0.146688 -0.67224,1.843914 0,0.788508 0.0354,1.411765 0.0787,1.385015 0.0433,-0.02675 0.33148,-0.400656 0.64045,-0.830902 z m -0.40635,-6.617046 c 0.0755,-0.101629 0.35095,-0.466579 0.6122,-0.811 0.39845,-0.525301 0.475,-0.696554 0.475,-1.062652 0,-0.38215 -0.0367,-0.455407 -0.29503,-0.588999 -0.47162,-0.24388 -0.89168,-0.20054 -1.00745,0.103942 -0.12132,0.319102 -0.12982,2.54349 -0.01,2.54349 0.0483,0 0.14954,-0.08315 0.225,-0.184781 z"
     id="path1604"
     transform="scale(0.26458333)" /><path
     style="font-variation-settings:'wght' 800;fill:#e6e6e6;stroke:#000000;stroke-width:0.377953"
     d="m 159.78226,47.575 c -0.0438,-0.06875 -0.0963,-4.066556 -0.11674,-8.884014 l -0.0372,-8.759013 1.68583,-0.412614 c 2.22921,-0.545607 4.26441,-0.914736 5.44911,-0.988315 0.95256,-0.05916 0.96513,-0.05698 1.13123,0.196531 0.30506,0.465577 0.38218,2.523679 0.31561,8.422425 -0.0719,6.370161 -0.17009,8.400108 -0.43227,8.936301 -0.24805,0.507296 -0.65468,0.673458 -2.35148,0.960904 -3.46493,0.586975 -5.48616,0.775986 -5.6441,0.527795 z"
     id="path1606"
     transform="scale(0.26458333)" /><path
     style="font-variation-settings:'wght' 800;fill:#e6e6e6;stroke:#000000;stroke-width:0.377953"
     d="M 174.08077,45.582722 C 173.46482,45.278907 173.35,44.115237 173.35,38.176515 v -4.878732 l -1.8383,0.06641 -1.8383,0.06641 -0.0861,-2.490298 C 169.54,29.570634 169.50099,28.36 169.50064,28.25 c -5.3e-4,-0.166663 0.14104,-0.2378 0.84936,-0.426771 2.18204,-0.582143 11.31491,-2.274805 12.84924,-2.381442 0.65492,-0.04552 0.86451,-0.02252 1.15076,0.12628 0.53038,0.275697 0.63199,0.694582 0.56563,2.331933 -0.11531,2.844995 -0.39372,3.233815 -2.65029,3.701293 l -1.09349,0.226531 -0.0541,5.761088 c -0.0297,3.168598 -0.0916,5.941088 -0.13758,6.161088 -0.12943,0.619739 -0.53869,0.752746 -4.93022,1.602268 -0.7425,0.143633 -1.44,0.278574 -1.55,0.299868 -0.11,0.02129 -0.29865,-0.0099 -0.41923,-0.06941 z"
     id="path1608"
     transform="scale(0.26458333)" /></svg>
