<?xml version="1.0" encoding="utf-8"?>
<svg version="1.1" viewBox="0 0 3839 1416.7" xmlns="http://www.w3.org/2000/svg">
  <path d="M 2266.10009765625 175 L 1987.4000244140625 300.79998779296875 L 1898.5 219.8000030517578 L 1930.800048828125 335.70001220703125 L 1693 527.9000244140625 L 1971.699951171875 402 L 2060.60009765625 483 L 2028.300048828125 367.20001220703125 Z" class="st0" style="fill: rgb(255, 255, 255);"/>
  <path d="M 2266.10009765625 175 L 1987.4000244140625 300.79998779296875 L 1898.5 219.8000030517578 L 1930.800048828125 335.70001220703125 L 1693 527.9000244140625 L 1971.699951171875 402 L 2060.60009765625 483 L 2028.300048828125 367.20001220703125 Z" class="st0" style="fill: rgb(255, 255, 255);"/>
  <path class="st0" d="M 1990.3 286.8 L 1992.8 285.7 C 1994 281 1994.9 276.3 1995.7 271.5 L 2000.3 241.7 L 1951.5 251.4 L 1990.3 286.8 Z" style="fill: rgb(255, 255, 255);"/>
  <path class="st0" d="M 1763.7 426.3 L 1812.3 416.6 L 1917.1 331.9 L 1897.7 262.1 L 1883.5 264.9 L 1879.5 291.1 C 1878.4 298 1873.2 303.5 1866.3 304.9 L 1804.3 317.2 C 1798.2 318.4 1792.7 313.2 1793.7 307 L 1819.9 136.6 C 1821 129.7 1826.2 124.2 1833.1 122.8 L 1895.1 110.5 C 1901.2 109.3 1906.7 114.5 1905.7 120.7 L 1901.9 145.7 L 2018.7 122.5 L 2024.3 86.2 C 2032.2 34.9 1986.7 -8.7 1935.8 1.5 L 1832.3 22.1 C 1765.3 35.4 1714 89 1703.6 156.3 L 1675.1 341.6 C 1667.2 392.9 1712.7 436.4 1763.7 426.3 Z" style="fill: rgb(255, 255, 255);"/>
  <path class="st0" d="M 950 631.2 C 905 595.2 881.9 557.5 881.3 519.2 C 879.9 411.6 1060.9 305.1 1344 246 L 1347 226.6 C 1057 286 861.3 396 863 519.5 C 864 592.7 934.2 659.4 1052.1 712.3 L 1055 693.4 C 1012.9 674.2 977.8 653.4 950 631.2 Z" style="fill: rgb(255, 255, 255);"/>
  <path class="st0" d="M 1835 180 L 1832.2 198.4 C 1940.9 198.3 2046.4 204.6 2145.1 216.9 L 2176.8 202.6 C 2071.3 188 1956 180 1835 180 Z" style="fill: rgb(255, 255, 255);"/>
  <path class="st0" d="M 2238.4 212.2 L 2219.3 227.6 C 2306.6 241.7 2387.4 260.8 2458.7 284.5 C 2543.4 312.6 2609.7 345.6 2655.9 382.5 C 2700.9 418.5 2724 456.2 2724.6 494.5 C 2726.1 604.3 2537.7 713 2244.6 771.3 C 2134.9 793.1 2013.1 807.2 1888.3 812.7 C 1885.1 819.1 1881.7 825.4 1878 831.6 C 2011.2 826.4 2136.5 811.7 2248.2 789.4 C 2544.1 730.5 2744.6 619.3 2743 494.3 C 2741.3 369.1 2537 263 2238.4 212.2 Z" style="fill: rgb(255, 255, 255);"/>
  <path class="st0" d="M 2438.8 409.2 L 2342.8 428.3 C 2337.1 429.4 2332.8 434 2331.9 439.7 L 2328.9 459.1 L 2444.2 436.2 C 2449.9 435.1 2454.2 430.5 2455.1 424.8 C 2456.5 415.4 2448.2 407.3 2438.8 409.2 Z" style="fill: rgb(255, 255, 255);"/>
  <path class="st0" d="M 1705.2 562.6 L 1690.5 658.4 C 1689.3 666 1696 672.4 1703.5 670.9 L 1812.8 649.1 L 1831.1 530.2 L 1714 553.4 C 1709.4 554.3 1705.9 558 1705.2 562.6 Z M 1744.6 591.5 L 1779 584.7 L 1774.7 612.6 L 1740.3 619.4 L 1744.6 591.5 Z" style="fill: rgb(255, 255, 255);"/>
  <path class="st0" d="M 2538.7 342.7 C 2521.5 316.7 2490.6 304.5 2461.2 310.3 L 2340.5 334.3 C 2308.6 340.6 2281.2 359.1 2263.1 384.6 C 2262.5 384 2261.9 383.4 2261.3 382.8 C 2243.6 365.8 2218.6 358.6 2194.5 363.3 L 2048.1 392.4 L 2059.7 434.2 L 2202.9 405.7 C 2224.7 401.4 2244.2 420 2240.8 442 L 2213.5 619.5 L 2165.1 629.1 L 2189 474 C 2190.2 466.4 2183.5 460 2176 461.5 L 2066.7 483.3 L 2040.4 654.1 L 1992 663.7 L 2022.6 464.9 L 1968.9 416 L 1824.7 481.1 L 1839.2 478.2 L 1887.6 468.6 L 1847.3 730.4 C 1835.5 807.4 1776.7 868.7 1700.4 883.9 L 1646.5 894.6 L 1654.5 842.7 L 1692.2 835.2 C 1749.2 823.9 1793 778.1 1801.9 720.6 L 1804.9 700.9 L 1676.6 726.4 C 1654.8 730.7 1635.3 712.1 1638.7 690.1 L 1657.3 569 C 1660.6 547.4 1672.3 528.7 1689 516.2 L 1689.1 516.1 L 1774.8 446.8 L 1713.5 459 C 1681.6 465.3 1654.2 483.8 1636.1 509.3 C 1635.5 508.7 1634.9 508.1 1634.3 507.5 C 1616.6 490.5 1591.6 483.3 1567.5 488 L 1437.8 514 L 1441.4 490.5 L 1456.4 393.1 L 1547.9 374.9 C 1614.7 361.6 1666 308 1676.4 240.7 L 1689.9 152.8 C 1697.8 101.5 1652.3 57.9 1601.4 68.1 L 1386.7 110.8 L 1346.7 370.8 L 1128.9 414.1 C 1123.2 415.2 1118.9 419.8 1118 425.5 L 1048.6 876.8 C 1047.1 886.2 1055.5 894.2 1064.9 892.4 L 1357.3 834.2 L 1451.8 815.4 L 1478.1 644.6 L 1512.5 637.7 L 1486 808.5 L 1624.7 780.9 L 1628.3 757.5 C 1644.8 768.6 1665.2 772.8 1685 768.9 L 1740 757.9 C 1726.3 775.5 1706.5 788.2 1683.7 792.7 L 1625.7 804.2 C 1620 805.3 1615.7 809.9 1614.8 815.6 L 1597.3 929.6 C 1595.8 939 1604.2 947 1613.6 945.2 L 1708.8 926.3 C 1803 907.6 1875.4 831.9 1890.1 736.9 L 1891.5 727.8 L 1985.1 709.2 L 2078.7 690.6 L 2105 519.8 L 2139.4 512.9 L 2113 683.8 L 2251.7 656.2 L 2255.3 632.8 C 2271.8 643.9 2292.2 648.1 2312 644.2 L 2509 605 C 2514.7 603.9 2519 599.3 2519.9 593.6 L 2540.4 460.2 L 2534.9 461.3 C 2540 450.6 2543.6 439 2545.5 426.9 L 2550.1 397.1 C 2553 378.1 2549.3 358.6 2538.7 342.7 Z M 1487.4 191.7 L 1560.8 177.1 C 1566.9 175.9 1572.4 181.1 1571.4 187.3 L 1560.2 260.3 C 1559.1 267.2 1553.9 272.7 1547 274.1 L 1472.5 288.9 L 1487.4 191.7 Z M 1319.1 797.6 L 1298.1 801.8 L 1273.4 806.7 L 1135.7 834.1 L 1097.7 841.7 L 1157.6 452.5 L 1173.6 449.3 L 1291.9 425.8 L 1345.5 415.1 L 1337.5 467 L 1322.1 470.1 L 1198 494.8 L 1180.4 609.4 L 1238.5 597.8 L 1248.9 595.7 L 1286.9 588.1 L 1278.9 640 L 1258.5 644.1 L 1230.5 649.7 L 1172.4 661.3 L 1154 780.1 L 1281.3 754.8 L 1288.3 753.4 L 1327.1 745.7 L 1319.1 797.6 Z M 1206.2 725.6 L 1210.5 697.7 L 1317 676.5 L 1339 533.6 L 1232.5 554.8 L 1236.1 531.3 L 1324.6 513.7 L 1364.8 505.7 L 1359.1 543 L 1334.9 700 L 1206.2 725.6 Z M 1586.6 744.4 L 1538.2 754 L 1562.1 598.7 C 1563.3 591.1 1556.6 584.7 1549.1 586.2 L 1439.7 608 L 1413.4 778.8 L 1365 788.4 L 1399.3 565.7 L 1576 530.5 C 1597.8 526.2 1617.3 544.8 1613.9 566.8 L 1586.6 744.4 Z M 1946.8 672.7 L 1898.4 682.3 L 1932.7 459.6 L 1981.1 450 L 1946.8 672.7 Z M 2507.5 389 L 2502.7 420.2 C 2497.5 454.1 2471.7 481 2438.1 487.7 L 2320.9 511 L 2317.4 533.5 C 2316.2 541.1 2322.9 547.5 2330.4 546 L 2439.7 524.2 L 2461.4 519.9 L 2488.1 514.6 L 2480.1 566.5 L 2471 568.3 L 2303.4 601.6 C 2281.6 605.9 2262.1 587.3 2265.5 565.3 L 2284.1 444.2 C 2289.3 410.3 2315.1 383.4 2348.7 376.7 L 2469.4 352.7 C 2491.4 348.4 2510.9 367.1 2507.5 389 Z" style="fill: rgb(255, 255, 255);"/>
  <path class="st0" d="M 201.4 1416.6 L 587.3 1416.6 L 587.3 1322.3 L 201.4 1322.3 C 58.6 1322.3 58.6 1108.1 201.4 1108.1 L 587.3 1108.1 L 587.3 1013.8 L 201.4 1013.8 C -67.1 1013.9 -67.1 1416.6 201.4 1416.6 Z" style="fill: rgb(255, 255, 255);"/>
  <path class="st0" d="M 1047.4 1013.9 L 661.5 1013.9 L 661.5 1414.5 L 661.5 1416.7 L 1047.4 1416.7 C 1315.9 1416.6 1315.9 1013.9 1047.4 1013.9 Z M 1047.4 1322.4 L 755.8 1322.4 L 755.8 1108.2 L 1047.4 1108.2 C 1190.2 1108.1 1190.2 1322.4 1047.4 1322.4 Z" style="fill: rgb(255, 255, 255);"/>
  <path class="st0" d="M 2611.2 1013.9 L 2361.8 1013.9 C 2093.3 1013.9 2093.3 1416.6 2361.8 1416.6 L 2611.2 1416.6 C 2879.7 1416.6 2879.7 1013.9 2611.2 1013.9 Z M 2611.2 1322.4 L 2361.8 1322.4 C 2219 1322.4 2219 1108.2 2361.8 1108.2 C 2361.8 1096.8 2361.8 1108.2 2361.8 1108.2 L 2611.2 1108.2 C 2754 1108.1 2754 1322.4 2611.2 1322.4 Z" style="fill: rgb(255, 255, 255);"/>
  <path class="st0" d="M 1383.4 1164.6 L 1362.8 1164.6 C 1336.8 1164.6 1315.7 1185.7 1315.7 1211.7 C 1315.7 1237.7 1336.8 1258.8 1362.8 1258.8 L 1383.4 1258.8 C 1409.4 1258.8 1430.5 1237.7 1430.5 1211.7 C 1430.5 1185.7 1409.4 1164.6 1383.4 1164.6 Z" style="fill: rgb(255, 255, 255);"/>
  <path class="st0" d="M 2048.5 1238 C 2068.4 1213.2 2078.5 1181.4 2078.5 1149.6 C 2078.5 1081.7 2033.3 1013.9 1942.8 1013.9 C 1942.8 1013.9 1942.8 1013.9 1942.8 1013.9 L 1596.7 1013.9 L 1502.4 1013.9 L 1502.4 1416.6 L 1596.7 1416.6 L 1596.7 1285.3 L 1942.8 1285.3 C 1963.5 1285.3 1984.3 1299.1 1984.3 1326.8 L 1984.3 1416.7 L 2078.6 1416.7 L 2078.6 1326.8 C 2078.5 1289.4 2066.9 1259.9 2048.5 1238 Z M 1942.8 1191 C 1942.8 1191 1942.8 1191 1942.8 1191 L 1596.7 1191 L 1596.7 1108.1 L 1942.8 1108.1 C 1970.4 1108.1 1984.3 1128.8 1984.3 1149.6 C 1984.3 1170.3 1970.5 1191 1942.8 1191 Z" style="fill: rgb(255, 255, 255);"/>
  <path class="st0" d="M 3372.3 1013.9 L 3025.9 1013.9 C 2935.4 1013.9 2890.2 1081.8 2890.2 1149.6 L 2890.2 1416.6 L 2984.5 1416.6 L 2984.5 1149.6 C 2984.5 1128.9 2998.3 1108.1 3026 1108.1 L 3155.9 1108.1 L 3155.9 1416.6 L 3250.2 1416.6 L 3250.2 1108.1 L 3372.4 1108.1 C 3400 1108.1 3413.9 1128.8 3413.9 1149.6 L 3413.9 1416.6 L 3508.2 1416.6 L 3508.2 1149.6 C 3508 1081.7 3462.7 1013.9 3372.3 1013.9 Z" style="fill: rgb(255, 255, 255);"/>
  <path class="st0" d="M 3656.6 1102.4 C 3656.6 1089.7 3665.1 1077 3682 1077 L 3702.2 1077 L 3711.9 1077 L 3762.2 1077 C 3864.6 1077 3864.6 923.3 3762.2 923.3 L 3615.5 923.3 L 3615.5 974.7 L 3762.2 974.7 C 3796.1 974.7 3796.1 1025.5 3762.2 1025.5 L 3711.9 1025.5 L 3682 1025.5 C 3630.8 1025.5 3605.2 1063.9 3605.2 1102.3 L 3605.2 1108 L 3605.2 1132.2 L 3605.2 1159.4 L 3831.7 1159.4 L 3831.7 1108 L 3656.6 1108 L 3656.6 1102.4 Z" style="fill: rgb(255, 255, 255);"/>
</svg>