<?xml version="1.0" encoding="utf-8"?>
<svg version="1.1" viewBox="0 0 264 86.6" xmlns="http://www.w3.org/2000/svg" preserveAspectRatio="xMidYMin">
  <path d="M 18.712 61.816 C 23.445 61.814 28.159 61.525 32.605 59.834 C 44.499 55.74 52.378 43.183 51.985 30.787 C 51.64 24.711 49.579 18.698 45.903 13.829 C 40.429 6.097 30.894 1.712 21.488 1.946 L 0.332 1.937 L 0.332 19.798 L 0.275 20.043 L 0.332 20.04 L 0.332 85.3 L 8.941 85.3 L 8.941 61.816 M 8.856 9.64 C 13.704 9.631 18.55 9.528 23.389 9.751 C 30.594 10.229 37.594 14.248 41.12 20.624 C 45.537 28.169 45.033 38.379 39.587 45.269 C 35.787 50.383 29.602 53.655 23.211 53.758 C 18.457 53.824 13.8 53.788 8.941 53.788 L 8.856 9.64 Z" style="fill: rgb(255, 255, 255);"/>
  <path style="fill: rgb(255, 255, 255);"/>
  <path d="M 145.552 49.885 L 145.552 33.685 L 132.887 33.685 C 133.747 36.743 134.218 39.967 134.218 43.301 C 134.218 45.552 133.998 47.75 133.597 49.885 L 145.552 49.885 Z" style="fill: rgb(255, 255, 255);"/>
  <path d="M 130.5 59.102 C 124.683 70.763 112.636 78.776 98.708 78.776 C 79.097 78.776 63.199 62.893 63.199 43.299 C 63.199 23.707 79.097 7.822 98.708 7.822 C 111.393 7.822 122.516 14.471 128.796 24.466 L 137.725 24.466 C 130.714 9.991 115.885 0 98.707 0 C 74.772 0 55.368 19.386 55.368 43.299 C 55.368 67.214 74.772 86.6 98.707 86.6 C 117.058 86.6 132.733 75.199 139.053 59.102 L 130.5 59.102 Z" style="fill: rgb(255, 255, 255);"/>
  <polygon points="194.078 18.465 194.078 1.937 168.186 1.937 160.886 1.937 152.333 1.937 152.333 85.328 168.186 85.328 168.186 49.885 192.886 49.885 192.886 33.685 168.186 33.685 168.186 18.465" style="fill: rgb(255, 255, 255);"/>
  <polygon points="260.543 85.328 235.746 41.999 258.672 1.937 239.593 1.937 226.205 25.329 212.82 1.937 193.741 1.937 216.667 41.999 191.869 85.328 210.949 85.328 226.205 58.669 241.464 85.328" style="fill: rgb(255, 255, 255);"/>
</svg>