<?xml version="1.0" encoding="utf-8"?>
<svg xmlns="http://www.w3.org/2000/svg" viewBox="20 17.5 216 28" width="216px" height="28px">
  <path style="fill-opacity: 1; stroke-width: 0.0647398; fill: rgb(255, 255, 255);" d="m 20,39.5463 v -4.02778 -6.02778 h 5.98152 5.98153 v 4.01852 4.01852 H 39.98152 48 V 41.51389 45.5 H 36.00462 26.00924 Z m 8.01848,-4.02778 v -2.00926 h -2.00462 -2.00462 v 2.00926 2.00926 h 2.00462 2.00462 z m 8.01847,-6.02778 V 25.47222 H 28.01848 20 V 21.48611 17.5 h 11.99538 9.99538 L 48,23.4537 v 4.02778 6.02778 h -5.98152 -5.98153 z m 7.95381,-2.00926 v -2.00926 h -2.00462 -2.00462 v 2.00926 2.00926 h 2.00462 2.00462 z" id="path1" transform="matrix(1, 0, 0, 1, 1.4210854715202004e-14, 0)"/>
  <path style="display: inline; fill-opacity: 1; stroke: none; stroke-width: 0.064; fill: rgb(255, 255, 255);" d="m 59.936001,33.502349 v -7.98165 l 1.99864,-2.00235 1.99864,-2.002349 h 8.01736 8.01736 v 5.984 5.984 h -5.984 -5.984 v 4 4 h -4.032 -4.032 z M 71.968001,27.5 v -2.016 h -1.984 -1.984 v 2.016 2.016 h 1.984 1.984 z m 11.968,12 v -1.984 h 2.016 2.016 V 31.5 25.484 h -2.016 -2.016 V 23.5 21.516 h 8.032 H 100 v 1.984 1.984 h -2.015998 -2.016 v 6.016 6.016 h 2.016 H 100 v 1.984 1.984 h -8.031999 -8.032 z M 103.968,33.500375 V 25.51675 l 1.99962,-2.000375 1.99962,-2.000375 h 6.00037 6.00039 v 1.984 1.984 h -4 -4 v 6.016 6.016 h 4 4 v 1.984 1.984 h -8 -8 z m 19.968,0.002 v -7.98165 l 1.99864,-2.00235 1.99864,-2.002349 h 8.01736 8.01736 v 7.984381 7.984381 l -2.00038,1.99959 -2.00037,1.999622 H 131.95162 123.936 V 33.502349 Z M 135.968,31.5 V 25.484 H 133.984 132 v 6.016 6.016 h 1.984 1.984 z m 16,1.984 v -8 h -2.016 -2.016 V 23.5 21.516 h 8.032 8.032 v 1.984 1.984 h -2.016 -2.016 v 8 8 h -4 -4 z m 16,0.01637 v -7.98362 l 1.99961,-2.000375 1.99962,-2.000375 H 179.98361 188 v 2.989651 2.98965 l -1.99865,2.00235 -1.99863,2.002349 1.99863,2.002349 1.99865,2.00235 v 2.98965 2.989651 h -4.032 -4.032 v -4 -4 h -1.984 -1.984 v 4 4 h -4 -4 z M 179.936,27.5 v -2.016 h -1.984 -1.984 v 2.016 2.016 h 1.984 1.984 z m 12.032,6.000375 V 25.51675 l 1.99961,-2.000375 1.99963,-2.000375 H 203.98361 212 v 7.981651 7.98165 l -1.99865,2.00235 -1.99863,2.002349 H 199.98535 191.968 Z M 203.936,31.5 v -6.016 h -1.984 -1.984 v 6.016 6.016 h 1.984 1.984 z m 12.032,2.000375 V 25.51675 l 1.99961,-2.000375 1.99963,-2.000375 H 227.98361 236 v 9.984 9.984 h -4.032 -4.032 v -8 -8 h -1.984 -1.984 v 8 8 h -4 -4 z" id="path13127" transform="matrix(1, 0, 0, 1, 1.4210854715202004e-14, 0)"/>
</svg>