<?xml version="1.0" encoding="UTF-8" standalone="no"?>
<!-- Created with Inkscape (http://www.inkscape.org/) -->

<svg
   width="79.763145mm"
   height="17.05266mm"
   viewBox="0 0 79.763145 17.05266"
   version="1.1"
   id="svg1"
   xmlns="http://www.w3.org/2000/svg"
   xmlns:svg="http://www.w3.org/2000/svg">
  <defs
     id="defs1">
			
			
		</defs>
  <g
     id="layer1"
     transform="translate(-65.0875,-174.625)">
    <path
       d="m 105.98229,187.07074 v -7.93089 c 0,-1.61793 0.75513,-2.77654 2.36564,-2.77654 h 9.93431 c 0.0609,0 0.11933,-0.0603 0.11933,-0.12012 v -1.57797 c 0,-0.0138 -0.004,-0.0273 -0.009,-0.0402 h -12.14675 c -2.63287,0.3347 -3.91901,2.16958 -3.91901,4.51485 v 7.93062 c 0,1.61793 -0.77629,2.7768 -2.365378,2.7768 H 89.469914 c -0.05953,0 -0.119327,0.04 -0.119327,0.11986 v 1.57824 c 0,0.0653 0.04022,0.11536 0.08731,0.13203 h 11.911283 c 3.10462,-0.0815 4.63311,-2.06349 4.63311,-4.60666 z"
       id="path3"
       style="stroke-width:0.264583;fill:#ffffff" />
    <path
       d="m 65.168464,191.67766 h 3.488002 c 0.0471,-0.0167 0.08731,-0.0667 0.08731,-0.13203 v -5.05433 c 0,-1.61793 0.91387,-2.73685 2.245254,-2.73685 h 14.367139 c 3.239029,0 4.809067,-1.99761 4.809067,-4.6146 0,-2.34527 -1.285081,-4.18015 -3.919273,-4.51485 h -21.14206 c -0.0061,0.0132 -0.0164,0.0236 -0.0164,0.0402 v 1.57797 c 0,0.0799 0.03969,0.12012 0.119062,0.12012 h 18.937287 c 1.609725,0 2.364846,1.15861 2.364846,2.77654 0,1.61819 -0.755121,2.7768 -2.364846,2.7768 H 69.161027 c -2.324894,0 -4.073525,1.97803 -4.073525,4.57465 v 5.05433 c -2.65e-4,0.0654 0.02778,0.1151 0.08096,0.13203 z"
       id="path4"
       style="stroke-width:0.264583;fill:#ffffff" />
    <path
       fill="none"
       d="m 121.42153,188.00948 h 15.99803 c 0.0585,0 0.11932,-0.0601 0.11932,-0.11986 v -9.84832 c 0,-0.2196 -0.19896,-0.23971 -0.29924,-0.1598 l -15.91627,9.84858 c -0.10081,0.0601 -0.1405,0.11986 -0.11933,0.19976 0.0185,0.0399 0.0796,0.0796 0.21749,0.0796 z"
       id="path5"
       style="stroke-width:0.264583" />
    <path
       d="m 118.34336,189.84754 h 19.07646 c 0.0585,0 0.0982,0.04 0.0982,0.0799 v 1.61819 c 0,0.0799 0.0609,0.11985 0.11933,0.11985 h 3.43852 c 0.0609,0 0.1188,-0.04 0.1188,-0.11985 v -1.57824 c 0,-0.0601 0.0609,-0.11986 0.11933,-0.11986 h 3.41736 c 0.0796,0 0.11932,-0.0601 0.11932,-0.11959 v -1.59835 c 0,-0.0601 -0.0397,-0.11985 -0.11932,-0.11985 H 141.314 c -0.0585,0 -0.11933,-0.0601 -0.11933,-0.11986 v -11.52657 c 0,-0.9406 -0.34951,-1.53961 -0.93715,-1.73832 h -0.99484 c -0.31009,0.0796 -0.64717,0.22225 -1.00859,0.43948 l -20.54648,12.68544 c -0.79481,0.49927 -1.07341,1.05834 -0.87445,1.47797 0.15875,0.35983 0.61463,0.61965 1.51024,0.61965 z m 2.98001,-2.11746 15.91654,-9.84858 c 0.10027,-0.0799 0.29924,-0.0598 0.29924,0.1598 v 9.84859 c 0,0.0601 -0.0609,0.11986 -0.11933,0.11986 h -15.99803 c -0.13785,0 -0.19897,-0.0397 -0.21749,-0.0799 -0.0214,-0.0799 0.0183,-0.13996 0.11907,-0.19976 z"
       id="path6"
       style="stroke-width:0.264583;fill:#ffffff" />
  </g>
</svg>
