<?xml version="1.0" encoding="UTF-8" standalone="no"?>
<svg
   viewBox="0 0 46.513427 10"
   version="1.1"
   id="svg9"
   style="fill:#ffffff"
   width="46.513428"
   height="10"
   xmlns="http://www.w3.org/2000/svg"
   xmlns:svg="http://www.w3.org/2000/svg">
  <defs
     id="defs4">
    <style
       id="style2">.cls-1{fill-rule:evenodd;}</style>
  </defs>
  <g
     id="g863"
     transform="matrix(0.07739339,0,0,0.07739339,-27.017259,-3.3232722)">
    <path
       style="fill:#ffffff"
       d="m 349.09,42.94 v 13.81 h 139.2 a 26.28,26.28 0 0 1 11.22,2.41 c 5.52,2.59 11.72,7.92 11.72,18.73 0,10.5 -6.2,15.75 -11.72,18.35 a 26.78,26.78 0 0 1 -11.4,2.44 H 384.87 a 39.28,39.28 0 0 0 -17.64,4 c -8.59,4.31 -18.14,14.46 -18.14,31.2 v 38 h 26.79 v -37.83 a 19.66,19.66 0 0 1 1.31,-7.2 c 2.21,-5.67 7.8,-14.77 20.87,-14.77 h 104.1 a 37.78,37.78 0 0 0 10.36,-1.39 c 9.56,-2.72 25.5,-10.58 25.5,-32.8 0,-34.53 -34.37,-34.95 -34.37,-34.95 z"
       id="path858" />
    <path
       style="fill:#ffffff"
       d="m 529.41,158.1 v 14 h 78.1 a 38.71,38.71 0 0 0 25.5,-9.23 32.27,32.27 0 0 0 11.38,-25.36 V 78 a 21.5,21.5 0 0 1 8,-17 20,20 0 0 1 12.61,-4.25 h 68.09 V 42.94 H 652 c 0,0 -35,0.56 -35,37.58 v 55.57 a 24.12,24.12 0 0 1 -3.54,12.91 18.78,18.78 0 0 1 -16.7,9.13 z"
       id="path856" />
    <path
       style="fill:#ffffff"
       d="M 945,42.94 H 761 v 49.88 c 0,0 -0.56,19.26 23.26,19.26 h 112.47 a 31.57,31.57 0 0 1 12.83,2.61 c 6.28,2.8 13.34,8.5 13.34,20 0,10.32 -5,16.18 -9.95,19.46 a 25,25 0 0 1 -13.76,4 H 761 v 14 h 154.09 c 0,0 35,-1.42 35,-37.39 0,-18.29 -10.68,-27.35 -20.29,-31.79 A 47,47 0 0 0 910,98.68 H 798.53 a 11.24,11.24 0 0 1 -5.34,-1.27 c -2.38,-1.29 -5,-3.85 -5,-8.89 V 56.75 H 945 Z"
       id="path854" />
  </g>
</svg>
