<?xml version="1.0" encoding="utf-8"?>
<svg xmlns="http://www.w3.org/2000/svg" viewBox="0 -0.001 264 45.4403" width="264px" height="45.4403px">
  <path id="path6945" d="M 0 0.002 L 186.936 0.002 L 186.936 55.436 L 7.386 55.436 L 7.386 103.484 L 0 103.484 L 0 48.047 L 179.55 48.047 L 179.55 7.385 L 0 7.385 L 0 0.002" style="fill-opacity: 1; fill: rgb(255, 255, 255);" transform="matrix(0.4399999976158142, 0, 0, 0.4390999972820282, 0, -0.0005610000225733103)"/>
  <path id="path6947" d="M 420.453 55.436 L 420.453 103.484 L 413.067 103.484 L 413.067 48.047 L 592.614 48.047 L 592.614 7.385 L 413.067 7.385 L 413.067 -0.001 L 600 -0.001 L 600 55.436 L 420.453 55.436" style="fill-opacity: 1; fill: rgb(255, 255, 255);" transform="matrix(0.4399999976158142, 0, 0, 0.4390999972820282, 0, -0.0005610000225733103)"/>
  <path id="path6949" d="M 282.252 0.002 L 282.252 96.095 L 186.936 96.095 L 186.936 103.484 L 290.049 103.484 L 290.049 7.385 L 385.365 7.385 L 385.365 -0.001 L 282.252 -0.001" style="fill-opacity: 1; fill: rgb(255, 255, 255);" transform="matrix(0.4399999976158142, 0, 0, 0.4390999972820282, 0, -0.0005610000225733103)"/>
</svg>