<?xml version="1.0" encoding="utf-8"?>
<svg version="1.1" viewBox="0 0 3839 639.2" xmlns="http://www.w3.org/2000/svg">
  <g>
    <path class="st0" d="M0,443.2v191c0,2.6,2.2,4.7,4.5,4.7h122.8c2.4,0,4.5-2.1,4.5-4.7v-191c0-55.6,29.3-94.3,70.4-94.3h324 c103.3,0,167.3-66.3,167.3-174c0-107.5-64-174.7-167.3-174.7H4.7C2.2,0.2,0,2.2,0,4.9v69.6c0,2.6,2.2,4.8,4.7,4.8h480.8 c47.1,0,74.3,34.6,74.3,95.4c0,60.7-27.3,95.8-74.3,95.8H140.9C61.3,270.5,0,344.5,0,443.2" style="fill: rgb(255, 255, 255);"/>
    <path class="st0" d="M1138.3,79.3h245.5c2.7,0,5-2.2,5-4.8V4.9c0-2.8-2.4-4.9-5-4.9l-285.9,0.2C994.5,0.2,930.6,67,930.6,174.7 v289.6c0,60.8-26.4,95.5-74.1,95.5h-252c-2.6,0-4.7,2.4-4.7,5v69.4c0,2.6,2.1,4.7,4.7,4.7h293.2c102.5,0,166.4-66.9,166.4-174.3 V174.7C1064.2,113.8,1091.5,79.3,1138.3,79.3" style="fill: rgb(255, 255, 255);"/>
    <path class="st0" d="M2321.6,634.2c0,2.6,2.2,4.7,4.7,4.7h124.3c2.5,0,4.5-2.1,4.5-4.7V5.2c0-3-2-4.8-4.5-4.8h-124.3 c-2.5,0-4.7,1.9-4.7,4.8V634.2z" style="fill: rgb(255, 255, 255);"/>
    <path class="st0" d="M1933.4,568.6l299.9-563c1.5-2.8,0-5.6-2.6-5.6H2154c-2.6,0-5.5,2-6.8,4.3l-242.5,450.9 c-17.5,33.5-47.5,37.4-65.7,4l-243.9-455c-1-2.4-4.4-4.3-7-4.3h-136c-3.3,0-4.4,3-2.8,6l300.2,562.6c17.5,32.3,38.3,53.4,60.6,63.2 c35.5,16.6,74.3,4.4,105.3-35.7C1921.8,587.9,1927.7,578.9,1933.4,568.6" style="fill: rgb(255, 255, 255);"/>
    <path class="st0" d="M3167,0.4h-620.2c-2.9,0-4.7,1.9-4.7,4.8v68.7c0,2.4,1.9,4.6,4.7,4.6h236c4.5,0,8.5,3.7,8.5,8.5v547.1 c0,2.6,2.1,4.7,4.7,4.7h121.7c2.9,0,5-2.1,5-4.7V87.1c0-4.8,3.7-8.5,8.5-8.5H3167c2.7,0,4.9-2.2,4.9-4.6V5.2 C3171.9,2.2,3169.7,0.4,3167,0.4" style="fill: rgb(255, 255, 255);"/>
    <path class="st0" d="M3838.3,633.4L3538.5,70.7c-17.2-32.5-38.6-53.4-60.6-63.8c-35.8-16.1-74.1-4-105.5,36 c-6.5,7.9-12.4,17.4-17.7,27.8L3052,633.8c-1.4,2.7,0,5.3,3.2,5.3h79c2.4,0,5.6-1.8,6.9-4.1l64.6-120.5l0.1-0.3 c2.1-4.1,7.7-7.5,12.3-7.5h395c4.4,0,9.5,3.2,12.2,7.1l0.2,0.6l64.7,120.6c0.9,2.3,4.2,4.1,6.7,4.1h138.5 C3838.9,639.2,3839.8,636.2,3838.3,633.4 M3570.1,428.4h-308.7c-5.4,0-7.5-3.7-5.2-8.2h0.1l126.6-236.4c18-33,47.6-37.2,65.8-4.1 l127,241.4C3577.4,425.1,3575.3,428.4,3570.1,428.4" style="fill: rgb(255, 255, 255);"/>
  </g>
</svg>