<?xml version="1.0" encoding="utf-8"?>
<svg width="100%" height="100%" viewBox="0 0 1309.3 266.5" version="1.1" style="fill-rule:evenodd;clip-rule:evenodd;stroke-linecap:round;stroke-linejoin:round;stroke-miterlimit:1.5;" xmlns="http://www.w3.org/2000/svg">
  <path d="M 2.701 87.945 C 0.305 85.957 -0.715 83.504 0.548 66.028 C 0.942 60.568 1.824 53.91 3.194 48.53 C 11.784 14.802 46.967 -0.507 108.01 2.922 C 172.014 6.518 202.778 23.358 209.576 52.283 C 210.868 57.779 210.519 62.368 210.532 67.893 C 210.535 68.973 210.177 72.99 210.2 79.808 C 210.213 83.406 210.306 88.089 210.336 88.576 C 209.363 88.854 203.644 92.707 202.229 92.412 C 200.813 92.117 197.901 90.484 195.759 88.781 C 188.487 83.002 176.896 86.438 169.891 96.449 C 162.079 107.613 155.149 105.032 152.09 89.819 C 151.519 86.98 143.827 83.961 143.827 82.125 C 143.827 75.542 135.105 68.481 132.695 67.261 C 125.513 63.629 115.988 61.472 106.655 62.284 C 91.776 63.576 75.795 74.255 75.795 98.433 C 75.795 104.821 66.792 90.211 67.55 88.096 C 68.482 85.497 64.764 87.005 61.143 90.695 C 56.236 95.694 45.006 103.035 43.278 102.373 C 40.344 101.246 42.934 92.888 47.631 88.325 C 52.214 83.876 50.973 81.447 45.739 84.62 C 43.918 85.724 39.613 87.638 36.172 88.876 C 31.663 90.496 29.109 92.141 27.032 94.764 C 21.354 101.933 4.076 98.668 4.076 90.425 C 4.076 89.689 3.458 88.573 2.701 87.945 Z M 85.776 260.73 C 75.966 266.492 59.871 267.243 43.88 266.083 C 36.39 265.539 20.334 261.436 18.058 255.815 C 14.445 246.982 8.666 220.495 5.453 194.934 C 4.115 185.03 5.211 183.645 7.353 180.835 C 12.037 174.946 22.475 166.782 25.419 166.782 C 27.159 166.782 30.371 168.523 32.78 170.798 C 39.204 176.686 42.416 176.954 49.776 172.672 C 53.256 170.663 56.334 168.255 56.735 167.318 C 57.137 166.247 58.208 165.445 59.144 165.445 C 59.947 165.445 61.821 164.24 63.16 162.768 C 66.371 159.155 72.661 159.288 74.535 162.901 C 75.471 164.374 75.873 168.121 75.606 171.199 L 75.204 176.82 L 81.762 176.686 C 86.579 176.686 88.72 176.017 90.46 173.876 C 92.869 170.798 97.42 168.121 100.498 168.121 C 101.569 168.121 103.174 170.262 104.111 172.805 C 106.118 178.292 107.59 178.159 116.691 172.002 C 125.523 166.114 131.145 167.318 132.617 175.482 C 133.553 180.032 133.687 180.166 140.111 180.166 C 146.133 180.166 147.204 179.63 152.825 174.278 C 158.713 168.523 163.665 165.713 165.136 167.318 C 165.538 167.72 166.207 169.995 166.743 172.404 C 167.412 175.482 168.483 176.954 170.891 177.489 L 174.482 178.69 C 174.482 178.69 172.477 180.069 170.058 181.16 C 166.376 182.82 161.671 184.465 161.122 184.716 C 153.493 188.196 138.371 190.47 120.572 190.738 C 97.821 191.14 90.995 193.706 85.91 198.768 C 85.524 201.22 87.382 210.277 90.059 221.117 C 92.736 232.092 94.876 243.333 95.011 246.01 C 95.278 251.63 91.798 257.251 85.776 260.73 Z M 42.202 265.442 C 30.827 263.971 22.529 261.294 19.586 257.948 C 14.767 252.461 6.738 213.249 4.061 181.665 C 3.525 176.58 2.991 172.03 2.723 171.629 C 1.385 169.487 0.046 132.417 0.046 100.03 C 0.046 62.29 -2.43 35.288 28.931 15.344 C 41.656 7.248 71.27 0.053 116.416 3.686 C 164.962 7.594 187.005 19.599 195.705 28.565 C 203.734 36.862 205.303 39.331 209.575 52.282 C 211.203 57.214 210.044 77.916 210.291 87.365 C 210.512 95.707 211.188 104.044 210.291 112.342 C 209.243 122.045 207.883 130.409 203.199 145.531 C 200.924 152.758 191.288 165.338 182.188 172.565 C 179.11 174.974 176.031 177.517 175.229 178.185 C 171.882 180.862 160.641 185.279 150.871 187.688 C 144.18 189.294 128.997 190.752 119.109 190.851 C 109.6 190.945 97.174 191.969 91.866 193.946 C 89.481 194.833 87.665 195.831 86.006 198.518 C 85.506 199.33 86.395 204.042 86.79 205.908 C 87.991 211.578 88.49 214.657 89.563 218.981 C 91.588 227.142 96.68 246.769 93.74 252.54 C 88.438 262.948 75.124 265.442 64.016 265.978 C 56.79 266.245 47.02 265.978 42.202 265.442 Z M 119.422 128.669 C 134.678 123.048 143.912 107.658 143.912 87.985 C 143.912 79.019 143.644 78.082 139.228 72.996 C 133.608 66.438 126.247 63.227 114.336 62.29 C 91.719 60.416 77.265 73.13 75.927 96.282 C 75.392 104.847 75.794 106.721 78.872 111.941 C 87.303 126.394 105.503 133.888 119.422 128.669 Z" style="fill-rule: nonzero; fill: rgb(255, 255, 255);"/>
  <path d="M 210.898 90.413 C 210.824 89.695 210.765 88.95 210.724 88.182 C 209.901 72.518 210.772 48.409 210.772 47.272 C 210.772 42.588 214.518 32.016 218.534 25.725 C 222.281 19.569 236.333 9.666 244.497 7.258 C 247.174 6.455 263.768 3.912 269.657 6.588 C 277.151 9.934 281.166 13.681 284.645 20.373 C 287.857 26.663 287.322 32.15 281.567 50.617 C 279.426 57.577 277.686 64.269 277.686 65.473 C 277.686 68.818 283.976 75.777 289.597 78.589 C 303.381 85.547 329.745 84.744 342.058 77.116 C 348.616 73.235 352.63 67.748 352.63 63.198 C 352.63 61.859 350.489 56.372 347.946 51.02 C 341.79 38.707 340.72 30.142 344.467 24.254 C 350.355 14.885 372.437 1.636 384.481 0.164 C 397.329 -1.307 409.24 7.123 420.348 25.86 C 426.37 35.763 435.663 56.908 435.663 63.198 C 435.728 65.443 437.422 95.798 437.422 95.798 C 437.422 95.798 428.776 103.287 426.442 104.388 C 422.425 106.281 420.327 103.953 418.742 99.199 C 416.333 91.839 413.122 89.028 406.163 88.225 C 401.077 87.69 399.873 88.091 396.393 91.437 C 391.441 96.255 385.82 99.869 383.144 99.869 C 379.397 99.869 375.649 94.247 375.649 88.894 C 375.649 86.084 374.981 83.809 374.177 83.809 C 373.509 83.809 370.029 85.95 366.683 88.492 C 359.59 93.979 357.583 94.247 353.434 90.366 L 350.356 87.556 L 344.735 93.712 C 338.178 100.938 332.021 102.143 328.274 96.924 C 327.203 95.184 324.794 92.107 323.055 90.098 C 319.842 86.352 319.842 86.352 314.757 88.359 C 311.947 89.563 308.735 91.704 307.798 93.311 C 306.192 95.585 304.586 95.853 297.092 95.585 C 290.133 95.318 288.126 95.72 287.188 97.593 C 284.913 101.474 281.836 100.136 273.003 91.704 C 263.234 82.336 261.36 82.203 253.866 90.5 C 249.181 95.585 242.223 99.869 238.743 99.869 C 237.806 99.869 235.129 97.86 232.72 95.585 C 226.431 88.894 220.141 85.95 214.519 87.02 C 212.138 87.474 210.724 88.359 210.724 88.359 C 210.724 88.359 210.886 90.032 210.898 90.413 Z M 217.938 173.359 C 218.008 173.238 225.889 167.877 229.642 168.79 C 231.516 169.191 235.932 172.403 239.411 175.749 C 245.166 181.504 245.836 181.772 249.717 180.433 C 251.992 179.63 256.676 176.82 260.021 174.277 C 267.65 168.388 271.129 168.255 275.01 173.474 C 276.75 175.749 278.758 177.488 279.561 177.488 C 280.497 177.488 283.442 179.095 286.252 180.968 C 293.078 185.786 300.572 186.991 313.419 185.385 C 331.084 183.243 332.691 182.842 336.036 179.764 C 337.91 178.158 341.256 175.348 343.531 173.474 C 345.94 171.6 350.222 168.121 353.166 165.845 C 361.063 159.289 368.958 160.225 368.958 167.586 C 368.958 169.191 369.493 170.797 370.296 171.065 C 370.965 171.333 371.768 172.804 372.036 174.411 C 372.839 179.764 375.649 181.637 382.207 181.369 C 389.568 180.968 391.709 179.898 400.274 172.403 C 410.847 163.17 415.932 163.571 418.074 173.875 C 418.877 177.891 423.025 181.504 426.906 181.504 C 427.973 181.504 429.249 182.238 429.806 183.15 C 431.338 182.531 432.804 183.833 432.734 184.118 C 430.194 194.524 426.902 204.408 423.158 212.551 C 415.798 228.878 414.861 230.216 406.028 238.514 C 385.017 257.919 361.731 266.083 327.47 266.083 C 284.244 266.083 247.307 252.432 224.556 228.209 C 213.984 216.834 210.236 207.599 211.173 194.752 C 211.676 187.478 214.216 179.923 217.938 173.359 Z M 214.026 102.389 C 213.807 102.021 211.16 96.482 210.725 88.182 C 209.902 72.519 210.772 48.41 210.772 47.272 C 210.772 42.588 214.519 32.016 218.534 25.725 C 222.282 19.57 236.333 9.666 244.497 7.258 C 247.174 6.455 263.769 3.912 269.657 6.588 C 277.151 9.934 281.166 13.681 284.645 20.373 C 287.858 26.663 287.322 32.15 281.567 50.618 C 279.426 57.578 277.686 64.269 277.686 65.473 C 277.686 68.819 283.977 75.777 289.597 78.589 C 303.382 85.548 329.746 84.745 342.058 77.116 C 348.616 73.235 352.631 67.748 352.631 63.198 C 352.631 61.86 350.489 56.372 347.946 51.02 C 341.791 38.707 340.72 30.142 344.467 24.254 C 350.356 14.886 372.438 1.636 384.482 0.165 C 397.33 -1.307 409.24 7.124 420.348 25.86 C 426.371 35.763 435.663 56.908 435.663 63.198 C 435.797 67.882 440.05 140.172 439.515 140.172 C 439.114 140.172 438.281 145.235 437.879 151.391 C 436.542 172.135 430.787 195.956 423.158 212.551 C 415.798 228.878 414.861 230.216 406.028 238.514 C 385.017 257.919 361.731 266.083 327.471 266.083 C 284.244 266.083 247.307 252.433 224.557 228.209 C 213.984 216.834 210.237 207.599 211.173 194.752 C 212.378 177.354 225.225 158.35 238.073 155.139 C 247.174 152.863 263.634 155.808 272.334 161.295 C 276.215 163.704 281.567 169.726 281.701 171.734 C 281.701 174.812 290.132 182.975 294.682 184.581 C 307.128 188.596 334.564 180.834 345.404 170.261 C 356.378 159.421 357.448 152.194 349.017 147.911 C 341.389 144.03 334.832 144.165 314.891 148.447 C 292.809 153.131 280.631 153.666 264.437 150.455 C 241.552 146.038 230.98 138.009 220.809 117.131 C 217.463 110.305 214.189 102.659 214.026 102.389 Z" style="fill-rule: nonzero; fill: rgb(255, 255, 255);"/>
  <path id="g-mid" d="M 439.533 140.184 C 439.132 140.184 436.141 95.318 436.141 95.318 L 435.605 79.928 C 434.802 60.656 436.141 50.619 440.691 44.062 C 442.564 41.251 445.642 36.032 447.516 32.285 C 451.665 23.987 457.687 17.563 464.646 13.816 C 472.944 9.4 497.167 9.801 523.531 14.887 C 534.639 17.028 546.282 18.768 549.628 18.768 C 555.248 18.902 555.65 18.634 555.65 15.288 C 555.65 9.935 558.996 7.526 568.497 6.188 C 578.401 4.716 589.509 6.589 593.657 10.337 C 597.672 14.218 604.096 38.173 607.709 63.734 C 617.077 130.247 613.33 209.34 599.68 236.642 C 593.122 249.489 573.851 260.731 552.304 264.076 C 533.836 266.887 497.702 265.816 484.051 261.801 C 465.315 256.448 453.271 246.946 445.91 231.824 C 439.62 218.708 437.613 205.326 439.62 190.203 C 441.628 174.545 444.037 169.861 451.129 167.987 C 459.025 165.712 469.063 165.177 476.022 166.649 C 479.367 167.452 484.854 168.389 488.334 168.79 C 493.152 169.459 495.962 170.798 499.576 174.277 C 504.393 178.827 504.527 178.961 503.724 186.991 C 502.654 195.958 504.527 201.98 509.613 206.798 C 513.36 210.277 520.051 210.411 530.624 207.467 C 545.613 203.184 553.642 197.43 557.925 188.062 C 561.271 180.433 563.546 160.894 562.341 149.787 L 561.271 140.686 L 559.665 145.236 C 557.791 150.857 553.241 154.471 546.148 156.076 C 536.111 158.352 500.512 160.359 478.698 159.824 C 451.665 159.288 448.185 158.084 442.832 147.11 C 440.958 143.229 440.068 140.184 439.533 140.184 Z M 533.434 107.229 C 549.36 99.065 551.367 67.348 536.78 55.839 C 529.687 50.218 505.999 52.894 500.111 59.987 C 496.497 64.404 493.553 73.638 492.616 83.809 C 491.278 97.727 496.096 104.954 509.479 109.37 C 514.297 110.976 528.75 109.772 533.434 107.229 Z M 558.981 187.315 C 560.193 184.951 561.386 184.181 563.546 184.181 C 566.089 184.181 569.167 181.504 576.392 172.939 C 581.613 166.783 586.832 161.296 587.903 160.894 C 592.988 158.887 594.994 160.091 596.6 165.846 C 598.875 174.545 602.756 180.166 606.637 180.166 C 606.988 180.166 607.301 180.174 607.581 180.198 C 610.094 178.087 611.544 178.178 611.101 183.145 C 609.016 206.517 605.139 225.721 599.678 236.642 C 593.122 249.489 573.851 260.731 552.303 264.076 C 544.838 265.213 534.483 265.715 523.894 265.644 C 522.385 265.701 521.119 265.717 520.185 265.682 C 519.646 265.653 518.894 265.606 517.986 265.545 C 504.357 265.183 491.158 263.892 484.051 261.801 C 465.315 256.448 453.271 246.946 445.91 231.824 C 439.62 218.708 437.613 205.326 439.62 190.203 C 439.858 188.347 440.101 186.646 440.358 185.083 C 440.529 184.047 444.49 184.061 445.303 183.548 C 446.886 182.548 449.7 180.602 452.066 178.426 C 461.836 169.192 466.118 166.515 470.801 167.05 C 475.219 167.452 476.691 169.058 477.895 175.08 C 478.832 179.497 484.185 181.504 495.427 181.504 L 504.094 181.639 C 504.094 181.639 504.083 182.644 504.008 183.786 C 503.925 185.04 503.776 186.465 503.724 186.991 C 502.652 195.958 504.527 201.98 509.611 206.798 C 513.36 210.277 520.051 210.411 530.624 207.467 C 545.613 203.184 553.642 197.43 557.925 188.062 C 558.146 187.556 558.503 187.327 558.981 187.315 Z M 546.309 85.712 C 546.309 85.712 548.797 64.774 536.864 55.994 C 527.073 48.64 503.339 55.515 500.056 59.927 C 493.587 68.622 492.959 84.594 492.485 85.305 C 492.485 85.305 483.459 91.976 480.514 97.731 C 475.964 106.831 469.287 107.095 467.012 97.861 C 466.611 96.121 463.44 93.846 460.765 92.642 C 458.356 91.571 455.745 88.704 454.807 87.5 C 452.266 84.422 450.193 85.95 442.832 91.972 L 436.34 96.565 L 436.141 95.318 L 435.605 79.928 C 434.802 60.656 436.141 50.619 440.691 44.062 C 442.564 41.251 445.642 36.032 447.515 32.285 C 451.665 23.987 457.687 17.563 464.646 13.816 C 472.944 9.4 497.167 9.801 523.531 14.887 C 534.639 17.028 546.282 18.768 549.626 18.768 C 555.248 18.902 555.65 18.634 555.65 15.288 C 555.65 9.935 558.996 7.526 568.497 6.188 C 578.401 4.716 589.509 6.589 593.657 10.337 C 597.672 14.218 604.096 38.173 607.709 63.734 C 609.465 76.206 610.761 89.119 611.616 102.05 C 611.245 97.81 610.763 95.333 610.175 95.421 C 604.286 96.09 599.947 95.452 596.468 91.571 L 592.587 87.422 C 592.587 87.422 587.43 92.873 581.408 93.758 C 577.799 94.288 572.511 90.634 572.511 90.634 C 570.419 91.663 569.95 94.372 568.267 95.857 C 562.74 100.741 560.735 103.749 554.847 92.508 C 551.678 78.978 547.981 80.93 546.309 85.712" style="fill-rule: nonzero; fill: rgb(255, 255, 255);"/>
  <path id="a-mid" d="M 719.59 265.682 C 706.877 264.344 688.81 260.195 678.773 256.181 C 640.364 241.192 619.486 221.519 615.204 196.091 C 611.724 175.883 617.077 160.091 635.144 136.136 C 640.364 129.311 655.352 117.935 666.326 112.582 C 674.758 108.433 677.836 107.63 689.077 106.961 C 701.524 106.292 702.594 106.426 713.167 110.441 C 719.323 112.85 727.62 116.597 731.903 118.738 C 736.051 120.879 742.074 123.021 745.286 123.422 C 750.639 124.225 751.442 123.824 757.063 118.872 C 762.817 113.787 763.085 113.251 762.951 106.292 C 762.817 102.277 761.747 96.924 760.542 94.381 C 757.732 88.493 746.356 75.779 739.799 71.229 C 734.847 67.749 734.178 67.616 726.817 68.954 C 722.535 69.757 716.646 71.63 713.702 73.236 C 707.412 76.448 699.092 83.809 694.163 87.824 C 690.591 90.733 689.613 92.642 684.126 97.326 C 675.695 104.552 672.75 106.158 666.326 107.497 C 658.564 108.969 647.323 108.032 642.237 105.355 C 633.405 100.537 628.185 87.556 628.051 69.757 C 627.918 62.798 628.453 60.924 632.334 55.303 C 639.427 45.132 647.055 38.976 661.375 31.749 C 675.427 24.656 696.136 17.412 705.538 15.021 C 709.03 14.132 717.99 11.969 724.274 10.872 C 754.837 5.538 772.319 8.865 782.356 17.028 C 785.434 19.571 790.386 24.79 793.33 28.671 C 799.754 37.103 807.297 48.026 811.932 58.917 C 817.041 70.917 820.899 84.879 823.977 100.671 C 826.52 113.92 826.787 119.274 826.252 146.842 C 825.717 180.701 825.048 185.787 817.286 208.404 C 810.594 227.541 805.776 235.972 795.338 246.545 C 780.483 261.4 770.579 265.415 746.356 266.352 C 737.925 266.753 725.88 266.485 719.59 265.682 Z M 713.909 206.296 C 724.288 210.042 734.781 210.313 740.868 207.706 C 742.982 206.8 745.237 204.171 746.655 198.785 C 746.926 197.755 746.79 196.913 746.763 196.655 C 746.272 191.825 742.527 186.148 735.393 179.838 C 720.939 166.856 708.897 165.699 698.191 175.602 C 693.424 180.002 691.535 183.695 691.812 187.231 C 691.939 188.855 692.667 190.769 693.539 192.336 C 697.46 199.378 703.93 202.693 713.909 206.296 Z M 719.59 265.682 C 706.877 264.344 688.81 260.195 678.773 256.181 C 640.364 241.192 619.486 221.519 615.204 196.091 C 614.054 189.415 614.788 177.054 614.788 177.054 C 614.788 177.054 616.977 180.085 625.118 169.969 C 633.241 159.872 638.673 182.365 647.952 182.553 C 651.425 182.624 660.148 183.489 673.845 168.784 C 679.644 162.558 687.67 165.028 687.095 170.911 C 686.066 181.468 691.731 187.224 691.731 187.224 C 691.731 187.224 693.049 194.481 698.546 198.512 C 707.192 204.853 723.275 211.652 738.802 208.471 C 743.982 207.411 745.994 201.91 746.649 198.492 C 747.681 193.124 741.363 185.922 741.363 185.922 C 741.363 185.922 746.406 186.958 750.977 184.411 C 757.757 180.634 765.557 166.265 774.985 156.604 C 782.589 148.815 792.835 159.694 790.426 170.596 C 789.997 172.536 794.98 178.592 796.456 178.829 C 798.004 179.076 804.168 171.474 811.745 169.58 C 819.684 167.596 825.487 171.783 825.428 172.631 C 824.503 185.969 822.486 193.252 817.286 208.404 C 810.594 227.541 805.776 235.972 795.338 246.545 C 780.483 261.4 770.579 265.415 746.356 266.352 C 737.925 266.753 725.88 266.485 719.59 265.682 Z M 807.761 91.626 C 803.428 95.619 799.536 106.81 794.294 107.964 C 792.55 108.348 789.924 102.714 789.369 101.704 C 785.966 95.522 782.714 85.743 770.918 87.217 C 765.713 87.868 765.803 92.646 764.382 93.934 C 762.151 95.96 760.65 94.609 760.542 94.381 C 757.732 88.493 746.356 75.779 739.799 71.229 C 734.847 67.749 734.178 67.616 726.817 68.954 C 722.535 69.757 716.646 71.63 713.702 73.236 C 707.412 76.448 694.163 87.824 694.163 87.824 C 694.163 87.824 690.258 85.759 682.81 91.382 C 678.177 94.882 677.163 92.418 674.722 93.648 C 673.001 94.515 671.773 98.349 668.549 99.021 C 667.06 99.304 664.972 95.417 661.768 95.208 C 657.863 94.955 657.518 100.339 650.049 99.2 C 646.908 98.721 647.43 96.155 644.717 94.99 C 642.401 93.996 639.871 94.508 639.765 94.143 C 638.212 88.758 633.767 88.015 631.943 88.268 C 631.566 88.32 630.234 87.45 630.116 86.998 C 628.812 81.985 628.1 76.185 628.051 69.757 C 627.918 62.798 628.453 60.924 632.334 55.303 C 639.427 45.132 647.055 38.976 661.375 31.749 C 675.427 24.656 696.581 17.281 705.538 15.021 C 708.44 14.289 720.637 11.532 724.274 10.872 C 754.799 5.332 772.319 8.865 782.356 17.028 C 785.434 19.571 790.386 24.79 793.33 28.671 C 803.432 41.986 807.438 49.694 811.932 58.917 C 815.793 66.841 820.291 84.006 820.291 84.006 C 820.291 84.006 811.499 88.182 807.761 91.626 Z" style="fill-rule: nonzero; fill: rgb(255, 255, 255);"/>
  <path id="m-mid" d="M 1086.282 100.404 C 1087.973 113.682 1087.797 124.21 1086.931 145.685 C 1086.045 167.671 1083.079 187.624 1082.267 190.738 C 1078.118 207.065 1073.033 217.236 1065.405 224.731 C 1055.234 234.5 1046.802 237.578 1034.624 235.705 C 1029.271 234.902 1027.263 233.563 1019.501 225.935 C 1008.527 214.961 1003.843 205.727 1002.773 192.879 C 1001.836 183.244 1002.906 174.545 1009.196 142.292 C 1010.936 132.79 1012.944 119.274 1013.345 112.047 C 1014.282 99.734 1014.148 98.664 1010.802 92.106 C 1004.78 80.195 998.089 80.195 995.947 92.24 C 993.137 107.898 981.895 150.723 979.085 156.746 C 972.661 170.396 962.758 173.608 952.587 165.578 C 947.501 161.563 936.661 146.039 921.271 121.281 C 917.925 115.66 912.839 108.567 910.163 105.355 C 905.747 100.27 905.077 99.868 903.204 101.742 C 900.527 104.418 898.018 117.437 901.598 128.775 C 903.204 133.861 917.791 161.43 921.003 165.445 C 922.743 167.586 928.631 178.961 933.851 190.203 C 939.739 202.783 938.401 224.597 930.906 239.452 C 926.892 247.348 918.059 256.181 911.1 259.259 C 903.07 262.872 885.94 263.407 878.445 260.062 C 871.62 257.117 859.04 244.136 853.955 235.036 C 842.847 215.229 834.282 185.519 831.873 158.753 C 827.457 111.244 839.635 59.318 859.709 39.11 C 870.817 28.002 886.877 20.909 901.33 20.909 C 909.36 20.909 911.367 21.445 918.862 25.995 C 923.546 28.671 929.836 33.891 932.914 37.504 C 941.077 47.274 942.516 50.352 945.761 50.352 C 949.007 50.352 950.989 43.014 953.838 34.645 C 956.444 26.993 956.03 22.819 961.821 17.028 C 973.196 5.653 1009.063 1.504 1028.735 9.132 C 1048.274 16.76 1067.412 39.511 1076.78 66.01 C 1080.26 75.779 1084.779 88.605 1086.282 100.404 Z M 1004.308 168.956 C 1004.606 167.087 1010.019 176.663 1018.212 180.538 C 1019.964 181.366 1029.641 167 1042.869 166.954 C 1047.726 166.938 1051.249 167.689 1060.189 180.421 C 1061.92 182.885 1067.879 183.344 1075.861 180.498 C 1082.331 178.19 1084.739 173.838 1084.668 174.457 C 1083.682 183.02 1082.687 189.128 1082.267 190.738 C 1078.118 207.065 1073.033 217.236 1065.405 224.731 C 1055.234 234.5 1046.802 237.578 1034.624 235.705 C 1029.271 234.902 1027.263 233.563 1019.501 225.935 C 1008.527 214.961 1003.843 205.727 1002.773 192.879 C 1002.17 186.686 1002.398 180.879 1004.308 168.956 Z M 853.955 235.036 C 845.837 220.561 835.046 180.508 835.046 180.508 C 840.611 182.94 843.641 184.005 846.767 181.574 C 850.4 178.747 853.209 167.787 858.319 169.985 C 862.429 171.756 867.608 181.947 871.118 183.61 C 876.43 186.128 880.237 173.947 885.441 173.596 C 896.674 172.836 903.67 175.876 907.688 169.346 C 910.639 164.551 916.545 167.141 917.317 167.784 C 920.872 170.741 921.566 180.768 926.894 181.899 C 928.84 182.311 929.238 180.575 929.238 180.575 C 929.238 180.575 932.33 186.928 933.851 190.203 C 939.739 202.783 938.401 224.597 930.906 239.452 C 926.892 247.348 918.059 256.181 911.1 259.259 C 903.07 262.872 885.94 263.407 878.445 260.062 C 871.62 257.117 859.04 244.136 853.955 235.036 Z M 1084.004 88.744 C 1084.086 89.116 1080.476 91.169 1079.28 92.565 C 1074.864 97.72 1077.97 107.585 1073.56 110.109 C 1069.695 112.321 1066.6 109.475 1065.988 108.93 C 1060.308 103.874 1054.663 89.799 1042.233 90.546 C 1031.891 91.167 1025.687 103.016 1018.769 101.611 C 1014.513 100.746 1011.405 93.285 1010.802 92.106 C 1007.379 85.337 1004.369 82.958 1001.349 83.371 C 1000.385 83.504 998.119 84.813 996.74 88.987 C 996.603 89.747 994.245 87.189 992.917 88.744 C 988.287 94.167 986.903 90.895 986.064 91.979 C 983.003 95.931 980.143 95.998 977.013 95.39 C 973.388 94.686 970.959 88.552 970.959 88.552 C 970.294 94.764 969.927 105.145 960.808 98.415 C 955.567 94.546 951.737 89.167 945.666 88.949 C 936.531 88.623 926.718 94.159 926.569 98.48 C 926.222 108.546 921.758 108.583 920.909 108.552 C 915.848 108.372 910.02 100.017 908.05 97.485 C 905.656 94.408 894.47 85.04 890.823 86.894 C 878.025 93.399 887.302 100.883 881.486 108.674 C 879.958 110.72 874.89 111.356 871.073 109.009 C 865.334 105.48 860.585 97.66 860.261 97.316 C 856.77 93.618 854.164 93.6 851.048 91.908 C 848.834 90.706 846.649 88.383 846.005 86.018 C 845.501 84.163 837.325 85.723 837.325 85.723 C 837.325 85.723 842.475 68.087 845.81 60.659 C 849.809 51.757 854.493 44.361 859.709 39.11 C 870.817 28.002 886.877 20.909 901.33 20.909 C 909.36 20.909 911.367 21.445 918.862 25.995 C 923.546 28.671 929.836 33.891 932.914 37.504 C 941.077 47.274 942.452 50.352 945.761 50.352 C 949.071 50.352 950.983 43.028 953.913 34.431 C 956.512 26.804 956.183 22.666 961.821 17.028 C 973.196 5.653 1009.063 1.504 1028.735 9.132 C 1048.274 16.76 1067.412 39.511 1076.78 66.01 C 1080.26 75.779 1081.198 75.958 1084.004 88.744 Z" style="fill-rule: nonzero; fill: rgb(255, 255, 255);"/>
  <path id="e-mid" d="M 1179.159 261.801 C 1146.103 254.039 1120.676 238.381 1104.349 215.63 C 1097.256 205.593 1089.15 189.048 1087.754 184.448 C 1082.602 167.476 1087.219 102.143 1088.958 93.578 C 1097.256 53.563 1122.683 24.121 1160.423 11.14 C 1171.531 7.392 1174.074 6.991 1188.661 6.991 C 1221.315 7.125 1245.538 17.831 1271.367 43.928 C 1281.538 54.099 1285.419 59.184 1288.631 66.143 C 1290.906 71.095 1294.118 77.251 1295.724 79.794 C 1300.141 87.021 1304.423 106.56 1305.36 123.958 C 1306.029 137.34 1305.895 139.749 1303.888 141.623 C 1298.535 147.11 1277.925 149.385 1234.832 149.385 C 1206.059 149.519 1162.297 147.511 1160.022 146.173 C 1159.486 145.772 1157.747 146.307 1156.408 147.378 C 1154.267 148.85 1153.866 150.723 1153.999 158.352 C 1154.267 169.192 1156.141 173.34 1164.17 180.969 C 1171.932 188.329 1177.286 191.407 1189.866 195.422 C 1203.516 199.972 1210.208 199.972 1216.765 195.422 C 1223.189 191.14 1225.598 188.062 1230.817 178.694 C 1235.635 169.593 1237.91 168.523 1254.237 167.586 C 1260.929 167.05 1271.903 166.114 1278.728 165.311 C 1294.52 163.303 1305.494 164.24 1307.903 167.452 C 1313.256 174.813 1302.563 204.533 1291.843 218.976 C 1280.133 234.745 1256.423 254.932 1237.642 262.069 C 1219.419 268.995 1194.282 265.281 1179.159 261.801 Z M 1229.882 99.594 C 1239.248 94.843 1239.384 91.832 1231.22 84.204 C 1227.74 81.126 1220.781 76.308 1215.696 73.631 C 1202.982 66.94 1193.748 66.806 1182.64 73.096 C 1170.194 80.055 1162.7 89.289 1165.911 93.705 C 1168.454 97.185 1176.216 101.334 1182.105 102.404 C 1185.584 103.074 1196.291 103.475 1205.793 103.207 C 1221.183 102.94 1223.993 102.538 1229.882 99.594 Z M 1179.159 261.801 C 1146.103 254.039 1120.676 238.381 1104.349 215.63 C 1097.256 205.593 1089.819 190.756 1087.753 184.189 C 1086.705 180.855 1086.232 176.776 1086.08 174.36 C 1086.08 174.36 1091.682 172.311 1094.54 169.637 C 1097.647 166.731 1101.699 160.517 1104.243 159.856 C 1109.897 158.385 1115.006 175.012 1116.157 175.711 C 1117.309 176.409 1129.278 176.815 1130.464 175.443 C 1136.342 168.638 1145.739 162.962 1149.758 168.441 C 1152.181 171.744 1155.253 177.513 1158.76 178.963 C 1160.03 179.487 1161.664 178.87 1161.664 178.87 C 1161.664 178.87 1164.893 181.649 1165.125 181.863 C 1172.389 188.586 1177.808 191.573 1189.866 195.422 C 1203.516 199.972 1210.208 199.972 1216.765 195.422 C 1221.643 192.17 1224.206 189.613 1227.442 184.468 C 1228.468 182.838 1235.662 185.65 1245.877 180.856 C 1260.761 173.873 1262.183 168.191 1267.287 171.886 C 1273.276 176.223 1275.798 174.823 1284.14 175.246 C 1298.24 175.962 1299.485 164.391 1304.329 165.916 C 1305.935 166.424 1307.3 166.649 1307.903 167.452 C 1313.256 174.813 1302.563 204.533 1291.843 218.976 C 1280.133 234.745 1256.423 254.932 1237.642 262.069 C 1219.419 268.995 1194.282 265.281 1179.159 261.801 Z M 1300.81 93.685 C 1301.158 95.045 1292.753 86.956 1284.347 88.862 C 1267.33 92.718 1269.879 99.894 1263.066 101.037 C 1254.861 102.414 1248.86 86.532 1248.025 90.249 C 1246.717 96.07 1243.979 102.24 1235.476 96.157 C 1235.002 95.819 1238.19 94.792 1236.674 90.815 C 1233.889 83.513 1209.653 66.628 1195.824 68.563 C 1180.534 70.702 1163.152 85.863 1165.46 92.889 C 1166.48 95.994 1166.093 101.636 1158.6 101.332 C 1145.179 100.972 1144.344 87.39 1134.684 88.93 C 1125.608 90.378 1120.531 104.113 1114.688 108.943 C 1111.1 111.91 1107.907 97.32 1098.009 97.204 C 1093.911 97.156 1092.235 100.41 1090.42 102.101 C 1089.409 103.041 1088.155 102.846 1088.186 102.285 C 1088.422 98.032 1088.681 94.942 1088.958 93.578 C 1097.256 53.563 1122.683 24.121 1160.423 11.14 C 1171.531 7.392 1174.074 6.991 1188.661 6.991 C 1221.315 7.125 1245.538 17.831 1271.367 43.928 C 1281.538 54.099 1285.419 59.184 1288.631 66.143 C 1290.906 71.095 1294.118 77.251 1295.724 79.794 C 1297.518 82.722 1299.284 87.674 1300.81 93.685 Z" style="fill-rule: nonzero; fill: rgb(255, 255, 255);"/>
</svg>