<?xml version="1.0" encoding="UTF-8" standalone="no"?>
<!-- Created with Inkscape (http://www.inkscape.org/) -->

<svg
   width="419.94278mm"
   height="344.25354mm"
   viewBox="0 0 419.94278 344.25354"
   version="1.1"
   id="svg3581"
   xml:space="preserve"
   xmlns="http://www.w3.org/2000/svg"
   xmlns:svg="http://www.w3.org/2000/svg"><defs
     id="defs3578" /><g
     id="layer1"
     transform="translate(-108.34107,-209.67942)"><g
       id="g7480"
       transform="matrix(3.4315836,0,0,3.4315836,108.34107,449.23534)"
       style="fill:#ffffff"><path
         style="clip-rule:evenodd;fill:#ffffff;fill-rule:evenodd"
         d="m 108.4188,19.057 -0.357,-0.357 c -0.895,-0.984 -1.699,-2.326 -1.699,-3.58 V 3.491 c -0.09,-0.18 -0.359,-1.434 -2.059,-2.238 h 6.711 c -0.627,0.27 -1.611,1.074 -1.611,2.326 v 5.547 c 0,1.074 0.537,1.521 0.627,1.611 0.268,0.18 1.699,0.357 2.684,0.447 -1.699,0.18 -2.684,0.715 -2.684,0.805 -0.359,0.27 -0.537,0.805 -0.627,1.254 0,0.178 0.09,0.178 0.09,0.178 h -0.09 v 1.699 c 0,0 0,1.432 0.447,2.953 0.09,0.27 1.342,2.773 3.758,3.043 -2.954,-0.09 -4.474,-1.342 -5.19,-2.059 z"
         id="path873" /><path
         style="clip-rule:evenodd;fill:#ffffff;fill-rule:evenodd"
         d="m 119.1548,20.847 c -0.09,0.09 -1.072,0.27 -3.488,0.27 3.131,-0.357 5.904,-5.189 6.709,-6.979 v 7.336 c -1.252,-1.342 -3.131,-0.627 -3.221,-0.627 z"
         id="path871" /><path
         style="clip-rule:evenodd;fill:#ffffff;fill-rule:evenodd"
         d="m 114.6818,1.253 h 6.709 v 6.264 c -0.982,-4.026 -5.099,-5.817 -6.709,-6.264 z"
         id="path869" /><path
         style="clip-rule:evenodd;fill:#ffffff;fill-rule:evenodd"
         d="m 83.1878,12.616 c -0.179,0.357 -0.358,0.715 -0.358,1.074 l -0.089,0.088 v 5.279 c 0,1.432 1.074,2.059 1.342,2.148 v -0.09 h -5.815 c 0.984,-0.357 1.074,-0.717 1.252,-1.164 0.179,-0.178 0.179,-0.447 0.179,-0.625 0.09,-0.18 0.09,-0.18 0.09,-0.27 V 3.49 c 0,-1.434 -0.895,-2.059 -1.163,-2.148 h 5.458 c -0.805,0.357 -0.984,0.895 -1.163,1.699 -0.09,0.18 -0.09,0.27 -0.09,0.359 v 5.457 c 0,1.432 1.432,1.969 2.506,2.326 -1.164,0.359 -1.791,0.896 -2.149,1.433 z"
         id="path867" /><path
         style="clip-rule:evenodd;fill:#ffffff;fill-rule:evenodd"
         d="m 97.3248,1.7 a 960.031,960.031 0 0 0 -6.531,8.5 c 1.789,0.805 6.621,3.668 5.994,11.453 h -0.268 c -0.627,-6.801 -8.857,-10.021 -10.201,-10.469 l 0.27,-0.18 L 98.4868,0 c -0.535,0.985 -0.805,1.253 -1.162,1.7 z"
         id="path865" /><path
         style="clip-rule:evenodd;fill:#ffffff;fill-rule:evenodd"
         d="m 65.8298,21.206 h -0.089 c 1.073,-0.09 1.073,-1.254 1.073,-1.432 -0.268,-0.627 -0.626,-1.701 -1.163,-2.686 -0.448,-0.984 -1.163,-1.969 -1.968,-2.146 -0.09,0 -0.448,0 -0.716,-0.09 h -0.895 c -0.269,-0.09 -0.269,-0.09 -0.358,-0.09 0,0 0.358,-0.178 0.448,-0.268 0.805,-0.18 1.968,-0.537 1.342,-1.879 -0.447,-0.895 -0.984,-2.236 -1.521,-3.49 -0.447,-1.252 -0.984,-2.146 -1.342,-2.326 -0.09,-0.088 -0.358,0.09 -0.537,0.447 -0.089,0.18 -0.269,0.627 -0.447,0.984 -0.447,0.895 -0.984,1.879 -1.163,2.416 l -0.448,0.895 c -0.179,0.447 -0.357,0.895 -0.447,1.252 -0.179,0.896 0,1.791 1.253,1.791 0.268,0 0.268,0.088 0.537,0.178 -0.269,0.09 -0.269,0.09 -0.537,0.09 -0.985,0 -1.7,0.18 -2.058,0.447 -0.269,0.09 -0.447,0.27 -0.626,0.537 0,0 -0.806,1.252 -1.432,3.311 l -0.09,0.805 c 0.09,0.717 0.716,1.164 0.984,1.254 h -4.562 c 1.252,-0.807 2.505,-2.506 3.489,-4.117 0.984,-1.789 1.7,-3.398 1.7,-3.398 1.432,-3.043 2.147,-4.742 2.147,-4.742 0.895,-1.969 1.611,-3.848 1.611,-3.848 l 1.61,-4.025 3.758,8.768 c 0.269,0.715 0.537,1.162 0.537,1.252 0.09,0.09 0.716,1.521 1.432,3.043 0.716,1.52 1.521,3.311 1.968,4.205 0.716,1.609 2.147,2.504 2.953,2.863 h -6.443 z"
         id="path863" /><path
         style="clip-rule:evenodd;fill:#ffffff;fill-rule:evenodd"
         d="m 30.6688,19.595 c -0.09,-0.09 -2.147,-2.059 -2.147,-4.832 V 3.491 c 0,-0.27 0,-0.717 -0.09,-0.984 -0.089,-0.449 0,-0.537 -0.715,-1.074 h 4.921 c -0.626,0.537 -1.164,0.895 -0.984,2.146 v 12.795 c 0,0.09 0.089,1.432 0.358,2.236 0,0 1.163,2.596 3.847,2.773 h 0.089 c -3.221,-0.089 -4.564,-0.984 -5.279,-1.788 z"
         id="path861" /><path
         style="clip-rule:evenodd;fill:#ffffff;fill-rule:evenodd"
         d="m 45.3418,2.595 c -0.09,0.27 0,0.627 0,0.896 v 0.088 l -0.09,11.184 c 0,1.611 -0.447,2.773 -0.984,3.58 -0.268,0.447 -0.715,0.895 -1.074,1.252 -0.537,0.447 -1.163,0.895 -1.789,1.252 -0.806,0.447 -1.969,0.537 -3.489,0.627 2.773,-0.268 3.847,-2.863 3.847,-2.863 0.358,-0.627 0.358,-1.969 0.358,-1.969 V 3.58 c 0,-1.342 -0.537,-1.969 -1.074,-2.146 h 5.189 c -0.805,0.536 -0.626,0.536 -0.894,1.161 z"
         id="path859" /><path
         style="clip-rule:evenodd;fill:#ffffff;fill-rule:evenodd"
         d="m 11.3428,21.473 v 2.416 c 0,0.09 -0.089,0.357 -0.089,0.627 -0.089,0.268 -0.179,0.447 -0.179,0.625 -0.179,0.717 -0.357,1.969 -0.895,5.369 -1.252,-5.816 -1.432,-6.264 -1.521,-6.531 v -2.506 c -3.668,-0.537 -6.71,-3.221 -8.052,-6.711 -1.342,-3.578 -0.358,-8.23 1.968,-10.824 0.895,-1.074 2.327,-1.791 3.4,-2.238 -2.237,1.432 -5.458,4.922 -4.474,9.842 0.537,2.953 3.132,5.637 5.726,6.264 0.089,0.09 0.806,0.357 1.432,0.447 v -2.506 -0.805 c -0.089,-0.537 -0.179,-0.805 -0.805,-0.895 0.269,-0.18 1.61,-0.27 2.058,-0.27 0.447,0 1.878,0.09 2.326,0.27 -0.626,0.178 -0.715,0.537 -0.805,0.895 0,0.09 -0.09,0.447 -0.09,0.895 v 2.416 c 0.805,-0.09 1.521,-0.447 1.521,-0.447 2.595,-0.627 5.189,-3.311 5.726,-6.264 0.984,-4.92 -2.416,-8.41 -4.652,-9.932 1.163,0.447 2.595,1.254 3.579,2.328 2.327,2.594 3.311,7.246 1.968,10.824 -1.253,3.491 -4.384,6.174 -8.142,6.711 z"
         id="path857" /></g><path
       style="fill:#ffffff;fill-opacity:1;stroke-width:0.143163"
       id="path2"
       d="m 310.10555,361.02927 c -39.89421,-4.18767 -71.06907,-38.22551 -71.06907,-79.20706 0,-32.04027 19.00639,-59.64247 46.36077,-72.14279 l -0.003,2.47416 c -21.49143,11.74155 -36.06862,34.54934 -36.06862,60.76515 0,29.96298 26.51717,63.75844 60.77948,68.60738 0,-6.97894 0,-23.65633 0,-28.31945 -1.62347,-5.61359 -11.22674,-5.77078 -11.22674,-5.77078 v -1.75618 h 39.02378 v 1.75618 c 0,0 -9.59696,0.15719 -11.22716,5.77078 0,4.66298 0.0152,21.34667 0.0152,28.31945 33.62795,-4.14286 61.03345,-33.23139 61.03345,-68.60738 0,-26.40163 -14.71793,-49.07329 -36.37684,-60.76502 v -2.47429 c 27.28896,12.5268 46.24165,40.17683 46.24165,72.16957 0,43.22134 -31.02238,75.25546 -70.90055,79.18014 v 0.0237 l -4.3e-4,25.15397 -8.71594,43.47258 -7.86641,-43.47258 z" /></g></svg>
