<?xml version="1.0" encoding="utf-8"?>
<svg width="2214.9739" height="1479.6083" viewBox="0 0 170.7798 114.08135" version="1.1" id="svg4321" xmlns="http://www.w3.org/2000/svg">
  <path d="m 80.0568,33.55735 c 0,0 0,-0.089 -0.089,-0.089 0,-0.089 0,-0.089 -0.09,-0.179 -0.179,-0.09 -0.447,-0.09 -0.715,0 v 0.179 c -0.269,0.089 -0.537,0.179 -0.806,0 -0.089,0 -0.269,-0.089 -0.357,-0.089 -0.09,-0.269 -0.537,-0.179 -0.805,-0.089 0,0 -0.09,0 -0.09,0.089 h -0.358 c -0.179,-0.089 -0.358,-0.179 -0.537,-0.179 -0.268,-0.09 -0.626,0.626 -0.984,0.805 -0.089,0 -0.269,-0.805 -0.358,-0.805 -0.089,-0.09 -0.179,-0.09 -0.269,-0.09 h -0.357 c -0.537,-0.089 -1.074,-0.089 -1.611,-0.089 -0.358,-0.089 -0.715,-0.089 -0.984,0 -0.089,0 -0.179,-0.089 -0.179,0 h -0.269 c -0.09,0 -0.179,-0.089 -0.268,-0.089 h -0.179 c -0.269,-0.089 -0.448,-0.089 -0.716,-0.089 -0.447,-0.09 -0.984,-0.09 -1.431,-0.09 0,0 -0.09,0 -0.09,0.09 -0.179,0 -0.358,0 -0.626,-0.09 -0.179,0 -0.268,0 -0.447,-0.089 0,0 -0.09,-0.09 -0.18,-0.09 h -0.178 c -0.895,-0.179 -1.7,-0.268 -2.595,-0.358 h -0.358 c -0.447,-0.089 -0.895,-0.089 -1.343,-0.089 -0.088,0 -0.088,0 -0.178,0.089 -0.179,-0.089 -0.269,0.358 -0.358,0.358 -0.089,-0.089 -0.179,-0.625 -0.269,-0.537 h -0.089 c -0.09,0 -0.269,-0.089 -0.448,-0.089 0,0 -0.089,0 -0.089,-0.09 -0.089,-0.09 -0.268,0 -0.358,0 h -0.268 c -0.089,0 -0.179,-0.09 -0.269,-0.179 -0.09,0 -0.09,0.089 -0.179,0.089 v 0.09 h -0.089 c -0.269,0 -0.447,-0.358 -0.717,-0.358 -0.625,-0.179 -1.252,-0.269 -1.878,-0.358 -0.358,-0.09 -0.715,-0.179 -1.163,-0.179 -0.09,0 -0.09,0.089 -0.179,0.179 h -0.089 c -0.269,0 -0.627,-0.09 -0.895,-0.269 h -0.09 -0.09 a 2.942,2.942 0 0 0 -0.715,-0.537 c -0.179,-0.09 -0.357,-0.179 -0.626,-0.179 -0.089,0 -0.269,-0.089 -0.447,-0.089 h -0.089 c -0.09,-0.089 -0.269,-0.179 -0.358,-0.269 -0.179,0 -0.269,-0.089 -0.447,-0.089 -0.09,0 -0.179,-0.089 -0.269,-0.089 h -0.269 l -0.537,-0.537 c -0.269,-0.09 -0.358,-0.179 -0.537,-0.269 -0.179,0 -0.269,1.61 -0.358,1.61 -0.089,0 -0.179,-1.7 -0.179,-1.7 -0.179,-0.09 -0.179,0 -0.269,0 h -0.089 c -0.357,-0.267 -0.626,-0.536 -0.536,-0.984 -0.537,-0.447 -0.358,-0.805 -0.179,-1.163 0.089,-0.179 0.536,-0.448 0.715,-0.626 0.269,-0.357 0.626,-0.537 0.984,-0.716 0.179,-0.179 0.537,-0.269 0.805,-0.358 0.537,-0.179 0.895,-0.447 1.431,-0.626 0.537,-0.179 1.074,-0.179 1.521,-0.448 0.179,-0.089 0.447,-0.179 0.627,-0.268 0.626,-0.269 1.252,-0.179 1.878,-0.269 0.537,-0.179 1.074,-0.268 1.611,-0.358 0.089,0 0.268,-0.179 0.268,-0.269 0.089,-0.089 0.269,-0.268 0.089,-0.268 0.09,-0.089 -0.179,-0.179 -0.179,-0.179 0,-0.089 -0.178,-0.179 -0.268,-0.089 -0.358,0.089 -0.716,0 -0.984,0.089 -0.09,0.09 -0.179,0.269 -0.269,0.179 -0.358,-0.089 -0.626,0 -0.984,0.179 -0.179,0 -0.448,-0.089 -0.716,0.179 0,0 -0.09,-0.09 -0.18,-0.09 -0.715,-0.089 -1.431,0.179 -2.147,0.358 -0.089,0 -0.179,0.357 -0.269,0.268 -0.358,-0.268 -0.626,-0.179 -0.805,0.179 h -0.178 c -0.089,0 -0.179,-0.09 -0.179,-0.09 a 2.673,2.673 0 0 0 -1.7,0.358 c -0.179,0.089 0,0.358 -0.089,0.447 h -0.448 c -0.089,-0.089 -0.179,-0.089 -0.269,-0.089 -0.357,-0.179 -0.715,0.179 -1.073,0.537 h -0.09 c -0.089,-0.179 -0.357,-0.179 -0.537,-0.089 -0.895,0.447 -1.789,0.984 -2.415,1.789 a 2.204,2.204 0 0 0 -0.358,0.805 c -0.179,0.179 0.179,0.537 0,0.716 0,0.09 -0.089,0.179 -0.179,0.179 0,0.358 0.179,0.625 0.268,0.895 0.09,0.268 0.269,0.447 0.447,0.716 0.089,0.269 0.358,0.447 0.626,0.537 0.179,0.089 0.269,0.179 0.537,0.269 0,0.089 0,0.179 0.09,0.268 0.179,0.358 0.626,0.537 0.984,0.806 0.269,0.179 0.448,0.268 0.626,0.448 0.179,0.089 0.358,0.089 0.447,0.178 0.09,0.089 0.179,0.179 0.269,0.179 0.09,0.089 0.179,0.089 0.179,0 l 0.537,0.268 c 0.179,0.179 0.447,0.358 0.716,0.448 0,0.089 0.089,0.089 0.089,0.179 0.269,0.09 0.447,0 0.716,0.09 h 0.089 c 0.089,0.089 0.269,0.179 0.358,0.179 0.089,0.089 0.269,0.179 0.447,0.269 0.089,0.089 0.269,0.179 0.448,0.268 0,0 0.089,0 0.179,0.089 0.268,0.09 0.715,0 0.984,0.179 0.089,0.089 0.179,0.268 0.268,0.268 0.179,0.09 0.358,0.179 0.447,0.179 0.716,0.537 1.611,0.626 2.416,0.895 0.448,0.179 0.984,0.089 1.432,0.179 v 0.09 c 0.179,0 0.358,0.089 0.537,0.179 0.269,0.089 0.537,0.269 0.806,0.358 1.073,0.268 2.057,0.447 3.041,0.715 0.716,0.18 1.343,0.18 2.058,0.358 0.448,0.09 0.806,0.269 1.342,0.269 0.179,-0.09 0.447,-0.269 0.626,-0.179 0.09,0.089 0.18,0.089 0.269,0.179 0.089,0 0.089,0 0.089,0.089 h 0.179 c 0.984,0.358 2.147,0.537 3.221,0.537 0.18,-0.089 0.358,-0.089 0.537,-0.179 0.269,-0.179 0.358,-0.716 0.716,-0.806 l 0.09,0.269 c 0.089,0.09 0.089,0.09 0.089,0.179 0,0.09 0,0.179 0.09,0.179 0.089,0.089 0.179,0.269 0.269,0.358 h 0.089 l 0.09,0.089 c 0.358,0.089 0.716,0.179 1.074,0.179 0.358,-0.09 0.626,-0.179 0.895,-0.09 h 0.537 c 0,0.09 0.09,0.09 0.09,0.09 0.179,0 0.358,0 0.537,0.179 0.089,0.179 0.179,0.269 0.269,0.448 v 0.447 c 0,0.089 0.089,0.178 0.089,0.268 v 0.179 c 0,0.179 -0.089,0.269 -0.089,0.358 0.089,0.089 0.089,0.089 0.179,0.089 0,0.179 0,0.358 0.089,0.627 -0.089,0.268 -0.089,0.537 -0.179,0.805 0,0.179 -0.089,0.358 -0.089,0.537 v 1.521 l 0.089,0.089 v 0.09 c 0,0.089 0.089,0.179 0.089,0.179 0.089,0.09 0.089,0.179 0.179,0.269 0,0 0,0.089 0.089,0.089 0,0.09 0.089,0.18 0.089,0.269 0.089,0.09 0,0.179 0,0.179 -0.089,0.089 -0.179,0.179 -0.179,0.269 h -0.09 c -0.089,0 -0.089,0.089 -0.179,0.268 v 0.179 c -0.089,0.358 0,0.625 0,0.984 0.089,0.626 0.089,1.252 0.179,1.878 v 0.447 l 0.09,0.09 c 0,0.447 0.089,0.984 0.089,1.432 0,0.269 -0.089,0.447 0,0.716 l 0.089,0.089 c 0,0.179 0.089,0.358 0.089,0.537 -0.089,0.09 -0.089,0.09 -0.089,0.179 v 0.269 c 0.089,0 0.089,0.089 0.179,0.089 0,0.179 0.626,0.269 0.715,0.358 0,0.179 -0.626,0.447 -0.626,0.626 h -0.089 c 0.179,0.269 -0.09,0.448 0,0.626 v 0.269 c 0,0.268 0,0.537 0.089,0.805 v 0.537 c 0,0.537 0.089,1.074 0.089,1.611 0.089,0.178 0.089,0.268 0.089,0.447 0.09,1.074 0.179,2.236 0.358,3.4 0,0.537 0.089,0.984 0.089,1.431 0.09,0.805 0.179,1.699 0.358,2.506 0,0.357 0,0.805 0.089,1.162 -0.089,0.09 -0.089,0.18 -0.089,0.27 0.089,0.088 0.089,0.268 0.089,0.357 0.089,0.447 0.089,0.895 0.179,1.342 0,0.537 0,0.984 0.179,1.432 v 0.537 c 0.089,0 0.089,0 0.089,0.09 l -0.089,0.09 c 0,0.268 0,0.982 0.179,1.252 0,0.09 0.09,-0.447 0.179,-0.537 0,-0.18 0.09,-0.447 0.09,-0.627 0.089,-0.088 0.089,-0.178 0.089,-0.268 0.089,-0.537 0.179,-1.164 0.269,-1.699 0.089,-0.627 -0.089,-1.164 0.089,-1.791 0.09,-1.252 0.179,-2.326 0.269,-3.488 -0.269,-0.447 -0.358,-0.984 -0.179,-1.432 0.089,-0.089 0.089,-0.179 0.089,-0.269 0.09,-0.089 0.179,-0.268 0.179,-0.357 0.089,-2.953 0.358,-5.815 0.447,-8.768 a 18.2,18.2 0 0 0 0,-3.132 c 0,0 -0.089,0 -0.089,-0.089 0,-0.09 -0.09,-0.09 -0.09,-0.179 -0.089,-0.358 -0.089,-0.716 0,-0.984 0.09,-0.179 0.269,-0.447 0.269,-0.626 0.089,-0.358 0.089,-0.626 0.089,-0.985 -0.089,-0.357 -0.447,-0.805 -0.358,-1.252 0.09,-0.269 0.269,-0.537 0.269,-0.805 0.089,-0.537 0.179,-1.074 0.089,-1.61 0,-0.269 -0.089,-0.537 -0.089,-0.806 0.089,-0.358 0.179,-0.626 0.179,-0.984 -0.089,-0.448 0.179,-0.895 0,-1.253 -0.179,-0.447 -0.269,-0.895 0,-1.342 0.004,-1.613 0.451,-3.313 -0.085,-5.013 z m 7.069,-0.089 c 0.088,-0.895 0.178,-1.79 0.178,-2.684 0,-0.537 -0.178,-1.074 -0.178,-1.611 a 6.72,6.72 0 0 0 0,-1.879 v -0.179 c 0,-0.089 -0.09,-0.269 -0.09,-0.447 -0.09,-0.179 -0.09,-0.447 0,-0.716 0,-0.179 0.09,-0.537 0.09,-0.805 0,-0.179 0,-0.358 -0.09,-0.537 v -0.269 c 0,-0.09 -0.09,-0.089 -0.09,-0.179 v -0.089 c 0,-0.626 0.18,-1.163 0.09,-1.789 -0.09,-2.147 -0.18,-4.206 -0.27,-6.263 -0.09,-0.626 -0.357,-1.164 -0.268,-1.789 0.09,-0.358 0,-0.626 0,-0.895 0,-0.537 -0.09,-0.984 -0.18,-1.432 -0.088,-1.521 0.09,-2.8629997 -0.178,-4.3839997 -0.09,-0.178 -0.09,-0.358 -0.18,-0.537 0,-0.358 -0.09,-0.626 -0.178,-0.895 0,-0.357 0.178,-0.715 0.088,-1.074 0,-0.089 -0.447,-0.179 -0.447,-0.268 0,-0.179 0.359,-0.268 0.359,-0.358 -0.09,-0.716 0,-1.521 -0.18,-2.326 v -0.179 c -0.09,-0.269 -0.09,-0.537 -0.18,-0.805 -0.088,-0.09 -0.178,-1.07399996 -0.357,-1.07399996 -0.178,-0.09 -0.27,0.984 -0.27,1.07399996 0,0.268 -0.088,0.537 -0.088,0.805 -0.27,1.163 -0.18,2.326 -0.27,3.489 0,0.179 0,0.269 -0.088,0.447 0,0.179 0,0.447 -0.09,0.626 -0.09,0.358 -0.09,0.805 -0.18,1.163 -0.09,0.984 0.09,1.878 -0.09,2.8629997 v 0.09 c 0,0.179 -0.088,0.268 -0.088,0.357 0,0.269 0,0.447 0.088,0.716 v 0.627 l -0.178,0.178 v 0.538 c -0.18,0.894 0.09,1.7 0,2.505 0,0.179 -0.09,0.358 -0.09,0.537 -0.09,0 -0.09,0.089 -0.09,0.089 0,0.09 0.357,0.805 0.447,0.895 h -0.447 c 0,0.089 -0.179,0 -0.179,0 0,0.268 0.179,0.179 0.089,0.358 -0.089,0.447 -0.268,0.895 -0.089,1.431 0.089,0.358 0,0.716 0,1.074 v 0.269 c -0.179,1.252 -0.447,2.505 -0.268,3.758 0.089,0.358 0.089,0.716 0,0.984 v 0.269 c -0.09,0.089 -0.09,0.179 0,0.268 0,0.448 0,0.806 -0.09,1.164 -0.089,0.358 -0.178,0.715 -0.089,1.074 0.089,0.805 0.179,1.61 0.089,2.505 0,0.269 -0.089,0.626 -0.178,0.895 -0.09,2.863 -0.09,5.727 0,8.59 0.178,1.789 0,3.668 0.178,5.457 0.179,2.058 0,4.116 0.09,6.174 0.179,2.684 0.268,5.368 0.447,7.963 0,0.537 0.27,0.984 0.18,1.432 -0.09,0.447 -0.18,0.984 0,1.431 0,0.089 0.268,0.089 0.268,0.179 0,0 0.27,0 0.357,0.09 l -0.535,0.358 c 0.088,0.446 0.088,0.894 0.088,1.253 0,0.088 0.09,0.268 0.09,0.357 0,0.178 0,0.357 0.09,0.447 0.09,0.895 -0.09,1.699 0.09,2.594 v 0.18 c 0.09,0.447 0.09,0.895 0.09,1.342 -0.09,0.357 -0.09,0.805 0,1.254 0,0.447 0.088,0.895 0.268,1.252 v 0.447 h 0.09 c 0.088,0.537 -0.18,0.984 -0.09,1.521 0,0.088 0,0.268 0.09,0.357 0,0.268 0.088,1.432 0.357,1.521 0.18,0.088 0.447,-0.984 0.357,-1.254 v -0.178 c 0.18,-0.447 0.27,-0.807 0.09,-1.254 0,-0.088 0,-0.268 -0.09,-0.357 0.09,0 0.09,0 0.09,-0.09 h -0.09 c 0,-0.09 0,-0.268 0.09,-0.357 v -0.09 c 0,-0.09 0,-0.09 0.09,-0.09 0.09,-0.178 0.09,-0.447 0.18,-0.625 v -0.09 c 0.178,-0.537 -0.09,-1.074 0.088,-1.611 0.18,-0.984 0.18,-1.789 0.27,-2.773 0,-0.178 -0.09,-0.357 -0.09,-0.537 0.09,-0.178 0.09,-0.268 0.09,-0.357 0.268,-0.895 0.357,-1.699 0.178,-2.506 0,-0.356 -0.178,-0.625 -0.088,-0.894 0,-0.357 0.178,-0.626 0.178,-1.073 0.18,-0.805 0,-1.61 0.09,-2.505 0,-0.268 0.178,-0.626 0.178,-0.895 0.09,-1.789 0.359,-3.399 0.27,-5.189 0,-0.268 -0.09,-0.626 0,-0.895 0,-0.269 0,-0.626 0.09,-0.895 0.09,-0.269 0.09,-0.536 0.09,-0.805 -0.09,-0.268 -0.18,-0.537 -0.18,-0.805 0.18,-0.626 -0.715,-1.074 -0.805,-1.7 0,-0.089 0.984,-0.179 0.984,-0.269 h -0.09 v -0.268 c 0,-0.179 -0.09,-0.448 0,-0.626 0.268,-1.342 0.178,-2.505 0.09,-3.758 v -0.089 -0.179 c 0,-0.716 -0.09,-1.521 0,-2.327 0.088,-0.357 0.088,-0.805 0.088,-1.163 0,-0.805 0,-1.7 -0.088,-2.505 0.088,-0.089 0.088,-0.179 0,-0.179 0,-0.179 -0.359,-0.358 -0.359,-0.537 0,-0.089 0.537,-0.268 0.447,-0.357 -0.088,0 -0.088,-0.09 -0.088,-0.09 0.002,-0.539 0.002,-1.076 0.002,-1.612 z m 38.113,-6.263 c 0,-0.179 -0.357,-0.179 -0.357,-0.269 0.09,-0.716 -0.357,-1.163 -0.895,-1.521 -0.18,0 -0.357,0 -0.537,-0.089 -0.09,-0.089 -0.09,-0.268 -0.268,-0.447 -0.27,-0.179 -0.447,-0.089 -0.627,0.089 h -0.18 c -0.268,-0.089 -0.537,0 -0.537,-0.268 -0.088,0 0.18,-0.269 0,-0.358 -0.268,-0.089 -0.625,-0.269 -0.893,-0.358 -0.18,0 -0.359,-0.179 -0.449,0 l -0.088,0.089 c -0.09,0 -0.27,0.089 -0.449,0.089 0,-0.089 0,-0.089 -0.088,-0.089 0,-0.269 -0.09,-0.537 -0.27,-0.447 -0.178,0 -0.268,0.179 -0.447,0.179 h -0.09 c -0.268,-0.179 -0.268,-0.447 -0.537,-0.537 -0.805,-0.268 -1.609,-0.179 -2.414,-0.447 -0.357,-0.089 -0.717,-0.089 -1.074,-0.179 -0.178,0 -0.268,-0.089 -0.357,-0.089 -0.357,-0.179 -0.717,-0.089 -0.984,0.089 v 0.09 c -0.09,0 -0.268,0.089 -0.357,0.089 0.178,-0.089 0,-0.269 -0.09,-0.447 -0.18,-0.089 -0.357,-0.089 -0.537,-0.089 -0.09,0.089 -0.18,0.179 -0.18,0.268 h -0.178 c -0.09,0.089 -0.18,0.089 -0.18,0.179 0.09,0.179 0.18,0.269 0.27,0.269 0.268,0.179 0.535,-0.09 0.805,0 0.18,0.089 0.357,0.268 0.537,0.357 0.627,0.09 1.162,0.447 1.699,0.358 0.27,0 0.447,-0.179 0.717,0 0.268,0.089 0.357,0.358 0.535,0.447 1.164,0.448 2.236,0.895 3.311,1.611 0.537,0.357 0.984,0.984 0.717,1.7 -0.357,0.895 -1.254,1.431 -2.148,1.878 -0.178,0.089 -0.357,0.358 -0.535,0.537 -0.18,0.179 -0.447,0.268 -0.717,0.357 h -0.09 c 0,-0.089 -0.09,-0.179 -0.178,-0.179 -0.18,0 -0.359,0 -0.537,0.089 -0.09,0 -0.27,0 -0.357,0.089 -0.717,0.179 -1.432,0.358 -2.148,0.716 h -0.625 c -0.18,0 -0.27,0.089 -0.449,0.089 -0.178,0.179 -0.357,0.269 -0.625,0.358 0,-0.09 -0.09,-0.09 -0.09,-0.09 -0.18,-0.089 -0.357,0 -0.537,0.09 h -0.268 c -0.18,0.089 -0.27,0.268 -0.359,0.268 h -0.357 c -0.178,0 -0.357,0.089 -0.537,0.089 v -0.089 c -0.895,0 -1.789,0.269 -2.684,0.358 v 0.089 c -0.268,0 -0.357,0.447 -0.627,0.537 -0.088,0.089 -0.268,-0.358 -0.357,-0.269 0,-0.089 -0.09,-0.089 -0.09,-0.089 -0.088,-0.179 -0.268,0 -0.357,0.089 h -0.268 c -0.09,-0.089 -0.18,-0.089 -0.27,-0.089 h -0.625 l -1.611,0.268 h -0.18 c -0.088,0 -0.088,0.09 -0.088,0.09 -0.18,0.089 -0.27,0.089 -0.447,0.089 -0.09,0.09 -0.18,0.09 -0.27,0.09 -0.09,-0.09 -0.268,-0.179 -0.447,-0.09 -0.09,0 -0.09,0.09 -0.09,0.09 h -0.537 l -0.088,-0.09 h -1.074 c -0.357,0 -0.805,0 -1.164,0.09 -0.535,0.089 -0.895,0.447 -1.43,0.447 -0.09,0 -0.09,0 -0.18,-0.09 0,-0.09 0,-0.09 -0.09,-0.179 -0.268,-0.089 -0.447,0.089 -0.715,0.179 -0.18,0.09 -0.359,0.09 -0.447,0.179 h -0.449 c 0,-0.089 0,-0.179 -0.088,-0.179 -0.18,-0.09 -0.359,-0.09 -0.627,0 -0.09,-0.09 -0.18,-0.09 -0.268,0 -1.344,0.09 -2.596,0 -3.938,0 -0.178,0 -0.27,0 -0.447,0.09 -0.09,0.089 0.27,0.357 0.27,0.357 -0.092,0.09 -0.449,0 -0.449,0.09 -0.178,0.984 -0.178,1.879 -0.178,2.773 0.088,0.716 0.268,1.521 0.178,2.237 0,1.252 0.27,2.505 0.09,3.847 0,0.179 -0.09,0.358 -0.09,0.537 0.09,0.268 0.18,0.447 0.18,0.626 0.178,0.984 -0.18,1.969 0,2.862 0,0.359 0.178,0.717 0.178,1.075 -0.178,1.252 -0.088,2.505 -0.088,3.757 0,0.179 0.088,0.358 0.088,0.626 0.182,0.358 -0.088,0.716 0,1.074 0,0.089 0.092,0.179 0.092,0.269 0.178,0.447 0.178,0.895 0.178,1.342 -0.178,0.358 -0.27,0.626 -0.27,0.984 0.182,0.448 0.182,0.895 0.359,1.253 0.178,0.448 0.178,0.984 0.09,1.432 0,0.179 -0.09,0.358 -0.09,0.537 -0.268,2.058 0.268,3.937 0.357,5.906 0,0.178 -0.09,0.537 -0.09,0.805 0.18,0.627 0,1.162 0.27,1.789 0,0.09 0.088,0.27 0.178,0.357 0,0.09 0.09,0.18 0.09,0.18 v 0.18 c -0.09,0.088 -0.09,0.268 -0.18,0.357 -0.088,0.09 -0.088,0.268 0,0.447 0,0.09 0,0.18 0.09,0.357 v 0.09 c 0,0.18 -0.178,0.357 -0.09,0.537 0,0.09 0,0.09 0.09,0.18 0,0.178 0,0.715 0.09,0.805 0.09,0.178 0.09,0.715 0.18,0.715 0.357,0 0.357,-1.252 0.268,-1.609 0.09,-0.18 0,-0.359 0,-0.627 0.09,0 0.09,-0.09 0.09,-0.18 0,-0.178 0,-0.268 -0.09,-0.357 0,-0.09 0.09,-0.178 0.09,-0.268 -0.09,-0.09 -0.18,-0.27 -0.18,-0.359 h 0.18 c 0,-0.088 0.178,-0.088 0.178,-0.178 0,-0.27 0.09,-0.537 0.09,-0.805 0,-0.359 -0.09,-0.717 0,-1.074 0,0 0.09,-0.09 0.09,-0.18 0,-0.09 0,-0.18 -0.09,-0.18 0.09,-0.178 0.09,-0.268 0,-0.445 v -0.537 c 0.09,0 0.18,0 0.18,-0.09 0.09,-0.18 0.18,-0.357 0.18,-0.627 0.088,-0.09 0.088,-0.268 0.088,-0.537 0,-0.268 -0.268,-0.537 -0.178,-0.894 0.09,-0.09 0.178,-0.179 0.268,-0.358 v -0.447 -0.358 -0.447 c 0.09,-0.179 0.09,-0.358 0,-0.626 0,-0.09 0.09,-0.269 0.09,-0.358 l 0.09,-0.089 v -0.448 c 0,-0.179 0.09,-0.447 0.09,-0.626 v -0.089 c 0.088,-0.269 0.088,-0.537 0.178,-0.805 0,-0.179 0.09,-0.358 0.09,-0.537 0.09,-0.537 -0.09,-0.895 -0.18,-1.432 -0.088,-0.179 0,-0.358 0.09,-0.626 0.18,-0.269 0.27,-0.537 0.27,-0.716 v -0.089 a 0.58,0.58 0 0 0 0,-0.537 v -0.448 c 0,-0.09 0,-0.089 -0.09,-0.089 -0.09,-0.358 -0.18,-0.626 -0.18,-0.895 0,-0.179 0.09,-0.358 0.18,-0.537 0.09,0 0.268,-0.089 0.268,-0.179 0,-0.179 0,-0.269 0.09,-0.358 v -0.089 -0.269 c 0,-0.269 0,-0.447 -0.09,-0.626 -0.09,-0.09 -0.09,-0.18 -0.09,-0.269 -0.088,-0.09 -0.088,-0.179 0,-0.358 l 0.09,0.09 c 0,-0.179 0.09,-0.358 0.09,-0.537 0.09,-0.357 0.18,-0.716 0.18,-1.074 v -1.521 a 0.76,0.76 0 0 1 0,-0.626 c 0.09,-0.269 0.09,-0.447 0.09,-0.716 0.088,-0.179 0.088,-0.269 0.088,-0.447 0.09,-0.716 -0.088,-1.342 -0.088,-1.969 0.088,-0.089 0.088,-0.179 0.088,-0.268 v -0.895 c 0.09,-0.179 0.09,-0.358 0,-0.448 0,-0.179 -0.088,-0.357 -0.088,-0.537 -0.09,-0.179 0,-0.358 0.088,-0.537 v -0.358 c 0.09,-0.179 0.09,-0.269 0,-0.447 v -0.358 c 0,0 0.09,-0.089 0,-0.179 v -0.089 c 0,-0.09 0,-0.269 0.09,-0.358 0,-0.179 0.18,-0.179 0.27,-0.179 0.895,0 1.699,0.09 2.684,0 0.09,-0.089 0.18,-0.089 0.357,-0.179 0.627,-0.269 1.164,0.179 1.789,0 0.27,0 0.627,-0.089 0.895,-0.089 1.342,-0.269 2.506,-0.269 3.848,-0.626 0.09,0 0.09,0 0.18,-0.089 h 0.09 l 0.088,-0.09 c 0.18,-0.089 0.359,-0.178 0.447,-0.268 0,-0.09 -0.088,-0.179 0,-0.179 0,-0.089 0,-0.089 0.09,-0.179 0,-0.089 0,-0.089 0.09,-0.179 0,-0.089 -0.268,-0.268 -0.268,-0.447 0.088,0 0.178,-0.447 0.178,-0.626 0,0.089 0.359,0.357 0.359,0.537 a 0.76,0.76 0 0 0 0,0.626 c 0.088,0.357 0.447,0.537 0.535,0.537 0.807,0.178 1.432,-0.269 2.148,-0.448 0.178,0 0.268,-0.089 0.447,-0.089 0.268,-0.179 0.537,-0.179 0.805,-0.269 0.09,0 0.18,-0.089 0.18,-0.089 h 0.088 c 0.09,0 0.09,0 0.18,-0.089 0.268,-0.09 0.537,-0.09 0.895,-0.179 h 0.09 c 0.447,-0.089 0.895,-0.089 1.342,-0.179 0.18,-0.089 0.357,-0.179 0.447,-0.268 h 0.27 c 0.088,0 0.178,-0.179 0.178,-0.269 v -0.089 h 0.18 c 0.268,-0.179 0.537,0.089 0.895,0 0.18,0 0.447,-0.179 0.627,-0.269 0.268,-0.09 0.447,-0.268 0.625,-0.447 0.18,-0.09 0.27,-0.09 0.359,-0.179 0.447,-0.09 0.805,-0.09 1.162,-0.179 0.18,0 0.268,-0.089 0.357,-0.179 0.18,0 0.27,-0.089 0.447,-0.179 0.09,0 0.18,-0.089 0.18,-0.179 0.09,-0.09 0.268,0.089 0.357,0 0.09,0 0.18,-0.09 0.268,-0.179 0.27,0 0.447,-0.179 0.717,-0.448 0.09,0 0.18,-0.089 0.268,-0.089 h 0.18 v -0.089 c 0.357,-0.089 0.627,-0.179 0.984,-0.269 0,-0.09 0.09,-0.09 0.09,-0.09 0.268,-0.089 0.537,-0.268 0.715,-0.537 0,-0.089 0.09,-0.179 0.09,-0.269 h 0.09 c 0.178,0 0.447,-0.089 0.627,-0.179 h 0.088 c 0.627,-0.269 1.164,-0.716 1.611,-1.252 0.09,-0.09 0.09,-0.179 0.09,-0.269 v -0.089 c 0.09,-0.089 0,-0.626 0.09,-0.716 0,-0.179 0.447,0.179 0.715,0.089 0.357,0 0,-0.447 0.09,-0.626 0,-0.179 0.18,-0.179 0.357,-0.179 0.09,-0.089 0.09,-0.179 0.09,-0.179 0.079,-0.443 -0.01,-0.801 -0.19,-1.159 z m -8.768,-4.026 h 0.09 z" id="path4315" style="clip-rule: evenodd; fill-rule: evenodd; fill: rgb(255, 255, 255);"/>
  <path style="clip-rule: evenodd; fill-rule: evenodd; fill: rgb(255, 255, 255);" d="m 170.5998,104.77735 -5.547,0.088 c 1.521,-0.625 1.432,-1.967 1.432,-2.146 v -15.746 c 0,-1.254 -0.535,-1.791 -1.432,-2.148 h 5.727 c -0.805,0.357 -0.984,0.895 -1.252,1.701 -0.09,0.178 -0.09,0.268 -0.09,0.357 v 15.836 c 0,1.162 0.715,1.879 1.342,2.146 z" id="path4834"/>
  <path style="clip-rule: evenodd; fill-rule: evenodd; fill: rgb(255, 255, 255);" d="m 157.0898,104.77735 -5.547,0.088 c 1.521,-0.625 1.432,-1.967 1.521,-2.146 v -15.746 c 0,-1.254 -0.627,-1.791 -1.521,-2.148 h 5.816 c -0.807,0.357 -1.074,0.895 -1.342,1.701 0,0.178 0,0.268 -0.09,0.357 l 0.09,15.836 c 0,1.162 0.715,1.879 1.342,2.146 z" id="path4832"/>
  <path style="clip-rule: evenodd; fill-rule: evenodd; fill: rgb(255, 255, 255);" d="m 143.6708,104.77735 -5.547,0.088 c 1.52,-0.625 1.432,-1.967 1.432,-2.146 v -15.746 c 0.088,-1.254 -0.537,-1.791 -1.432,-2.148 h 5.816 c -0.896,0.357 -1.074,0.895 -1.344,1.701 -0.09,0.178 -0.09,0.268 -0.09,0.357 v 15.836 c 0,1.162 0.807,1.879 1.434,2.146 z" id="path4830"/>
  <path style="clip-rule: evenodd; fill-rule: evenodd; fill: rgb(255, 255, 255);" d="m 108.4188,102.62835 -0.357,-0.357 c -0.895,-0.984 -1.699,-2.326 -1.699,-3.58 v -11.629 c -0.09,-0.18 -0.359,-1.434 -2.059,-2.238 h 6.711 c -0.627,0.27 -1.611,1.074 -1.611,2.326 v 5.547 c 0,1.074 0.537,1.521 0.627,1.611 0.268,0.18 1.699,0.357 2.684,0.447 -1.699,0.18 -2.684,0.715 -2.684,0.805 -0.359,0.27 -0.537,0.805 -0.627,1.254 0,0.178 0.09,0.178 0.09,0.178 h -0.09 v 1.699 c 0,0 0,1.432 0.447,2.953 0.09,0.27 1.342,2.773 3.758,3.043 -2.954,-0.09 -4.474,-1.342 -5.19,-2.059 z" id="path4828"/>
  <path style="clip-rule: evenodd; fill-rule: evenodd; fill: rgb(255, 255, 255);" d="m 119.1548,104.41835 c -0.09,0.09 -1.072,0.27 -3.488,0.27 3.131,-0.357 5.904,-5.189 6.709,-6.979 v 7.336 c -1.252,-1.342 -3.131,-0.627 -3.221,-0.627 z" id="path4826"/>
  <path style="clip-rule: evenodd; fill-rule: evenodd; fill: rgb(255, 255, 255);" d="m 114.6818,84.82435 h 6.709 v 6.264 c -0.982,-4.026 -5.099,-5.817 -6.709,-6.264 z" id="path4824"/>
  <path style="clip-rule: evenodd; fill-rule: evenodd; fill: rgb(255, 255, 255);" d="m 83.1878,96.18735 c -0.179,0.357 -0.358,0.715 -0.358,1.074 l -0.089,0.088 v 5.279 c 0,1.432 1.074,2.059 1.342,2.148 v -0.09 h -5.815 c 0.984,-0.357 1.074,-0.717 1.252,-1.164 0.179,-0.178 0.179,-0.447 0.179,-0.625 0.09,-0.18 0.09,-0.18 0.09,-0.27 v -15.566 c 0,-1.434 -0.895,-2.059 -1.163,-2.148 h 5.458 c -0.805,0.357 -0.984,0.895 -1.163,1.699 -0.09,0.18 -0.09,0.27 -0.09,0.359 v 5.457 c 0,1.432 1.432,1.969 2.506,2.326 -1.164,0.359 -1.791,0.896 -2.149,1.433 z" id="path4822"/>
  <path style="clip-rule: evenodd; fill-rule: evenodd; fill: rgb(255, 255, 255);" d="m 97.3248,85.27135 a 960.031,960.031 0 0 0 -6.531,8.5 c 1.789,0.805 6.621,3.668 5.994,11.453 h -0.268 c -0.627,-6.801 -8.857,-10.021 -10.201,-10.469 l 0.27,-0.18 11.898,-11.004 c -0.535,0.985 -0.805,1.253 -1.162,1.7 z" id="path4820"/>
  <path style="clip-rule: evenodd; fill-rule: evenodd; fill: rgb(255, 255, 255);" d="m 65.8298,104.77735 h -0.089 c 1.073,-0.09 1.073,-1.254 1.073,-1.432 -0.268,-0.627 -0.626,-1.701 -1.163,-2.686 -0.448,-0.984 -1.163,-1.969 -1.968,-2.146 -0.09,0 -0.448,0 -0.716,-0.09 h -0.895 c -0.269,-0.09 -0.269,-0.09 -0.358,-0.09 0,0 0.358,-0.178 0.448,-0.268 0.805,-0.18 1.968,-0.537 1.342,-1.879 -0.447,-0.895 -0.984,-2.236 -1.521,-3.49 -0.447,-1.252 -0.984,-2.146 -1.342,-2.326 -0.09,-0.088 -0.358,0.09 -0.537,0.447 -0.089,0.18 -0.269,0.627 -0.447,0.984 -0.447,0.895 -0.984,1.879 -1.163,2.416 l -0.448,0.895 c -0.179,0.447 -0.357,0.895 -0.447,1.252 -0.179,0.896 0,1.791 1.253,1.791 0.268,0 0.268,0.088 0.537,0.178 -0.269,0.09 -0.269,0.09 -0.537,0.09 -0.985,0 -1.7,0.18 -2.058,0.447 -0.269,0.09 -0.447,0.27 -0.626,0.537 0,0 -0.806,1.252 -1.432,3.311 l -0.09,0.805 c 0.09,0.717 0.716,1.164 0.984,1.254 h -4.562 c 1.252,-0.807 2.505,-2.506 3.489,-4.117 0.984,-1.789 1.7,-3.398 1.7,-3.398 1.432,-3.043 2.147,-4.742 2.147,-4.742 0.895,-1.969 1.611,-3.848 1.611,-3.848 l 1.61,-4.025 3.758,8.768 c 0.269,0.715 0.537,1.162 0.537,1.252 0.09,0.09 0.716,1.521 1.432,3.043 0.716,1.52 1.521,3.311 1.968,4.205 0.716,1.609 2.147,2.504 2.953,2.863 h -6.443 z" id="path4818"/>
  <path style="clip-rule: evenodd; fill-rule: evenodd; fill: rgb(255, 255, 255);" d="m 30.6688,103.16635 c -0.09,-0.09 -2.147,-2.059 -2.147,-4.832 v -11.272 c 0,-0.27 0,-0.717 -0.09,-0.984 -0.089,-0.449 0,-0.537 -0.715,-1.074 h 4.921 c -0.626,0.537 -1.164,0.895 -0.984,2.146 v 12.795 c 0,0.09 0.089,1.432 0.358,2.236 0,0 1.163,2.596 3.847,2.773 h 0.089 c -3.221,-0.089 -4.564,-0.984 -5.279,-1.788 z" id="path4816"/>
  <path style="clip-rule: evenodd; fill-rule: evenodd; fill: rgb(255, 255, 255);" d="m 45.3418,86.16635 c -0.09,0.27 0,0.627 0,0.896 v 0.088 l -0.09,11.184 c 0,1.611 -0.447,2.773 -0.984,3.58 -0.268,0.447 -0.715,0.895 -1.074,1.252 -0.537,0.447 -1.163,0.895 -1.789,1.252 -0.806,0.447 -1.969,0.537 -3.489,0.627 2.773,-0.268 3.847,-2.863 3.847,-2.863 0.358,-0.627 0.358,-1.969 0.358,-1.969 v -13.062 c 0,-1.342 -0.537,-1.969 -1.074,-2.146 h 5.189 c -0.805,0.536 -0.626,0.536 -0.894,1.161 z" id="path4814"/>
  <path style="clip-rule: evenodd; fill-rule: evenodd; fill: rgb(255, 255, 255);" d="m 11.3428,105.04435 v 2.416 c 0,0.09 -0.089,0.357 -0.089,0.627 -0.089,0.268 -0.179,0.447 -0.179,0.625 -0.179,0.717 -0.357,1.969 -0.895,5.369 -1.252,-5.816 -1.432,-6.264 -1.521,-6.531 v -2.506 c -3.668,-0.537 -6.71,-3.221 -8.052,-6.711 -1.342,-3.578 -0.358,-8.23 1.968,-10.824 0.895,-1.074 2.327,-1.791 3.4,-2.238 -2.237,1.432 -5.458,4.922 -4.474,9.842 0.537,2.953 3.132,5.637 5.726,6.264 0.089,0.09 0.806,0.357 1.432,0.447 v -2.506 -0.805 c -0.089,-0.537 -0.179,-0.805 -0.805,-0.895 0.269,-0.18 1.61,-0.27 2.058,-0.27 0.447,0 1.878,0.09 2.326,0.27 -0.626,0.178 -0.715,0.537 -0.805,0.895 0,0.09 -0.09,0.447 -0.09,0.895 v 2.416 c 0.805,-0.09 1.521,-0.447 1.521,-0.447 2.595,-0.627 5.189,-3.311 5.726,-6.264 0.984,-4.92 -2.416,-8.41 -4.652,-9.932 1.163,0.447 2.595,1.254 3.579,2.328 2.327,2.594 3.311,7.246 1.968,10.824 -1.253,3.491 -4.384,6.174 -8.142,6.711 z" id="path4812"/>
  <path style="clip-rule: evenodd; fill-rule: evenodd; fill: rgb(255, 255, 255);" d="m 108.2388,22.01635 c 1.344,0.179 2.596,0.537 3.938,0.626 0.18,0 0.27,-0.357 0.09,-0.357 -0.447,-0.269 -0.984,-0.179 -1.521,-0.269 -1.074,-0.179 -1.969,-0.358 -2.953,-0.179 0.089,0.179 0.268,0.089 0.446,0.179 z" id="path4317"/>
</svg>