<?xml version="1.0" encoding="UTF-8" standalone="no"?>
<!-- Created with Inkscape (http://www.inkscape.org/) -->

<svg
   width="539.98987mm"
   height="341.83237mm"
   viewBox="0 0 539.98987 341.83237"
   version="1.1"
   id="svg13424"
   xml:space="preserve"
   xmlns="http://www.w3.org/2000/svg"
   xmlns:svg="http://www.w3.org/2000/svg"><defs
     id="defs13421" /><g
     id="layer1"
     transform="translate(101.02391,-68.246976)"><path
       style="fill:#ffffff;stroke-width:0.445741"
       d="m 158.02845,287.71028 c -0.4596,-1.14849 -2.38504,-12.05884 -2.93873,-16.65262 -1.74417,-14.47089 -2.35308,-19.1341 -3.12246,-23.91378 -0.47961,-2.97852 -0.87177,-6.83978 -0.87177,-8.58048 0,-2.86781 0.0837,-3.165 0.89151,-3.165 1.10805,0 1.10679,-0.0316 -0.0853,-2.05037 -0.8543,-1.44794 -1.00803,-2.52409 -1.22577,-8.57917 l -0.24902,-6.92354 -4.01166,-1.15649 c -5.62344,-1.62109 -5.44549,-1.51085 -5.79675,-3.59002 l -0.31378,-1.85763 -3.85367,0.29903 -3.85367,0.29904 -3.56596,-2.16909 c -11.10556,-6.75523 -11.16711,-6.80351 -12.71123,-9.97009 -1.12748,-2.31208 -1.36928,-3.26019 -1.13695,-4.45742 l 0.29534,-1.52075 -0.94969,1.22582 c -0.52225,0.67414 -1.28399,1.22077 -1.69258,1.21471 -2.98453,-0.0421 -15.611107,-14.8411 -17.447367,-20.44611 l -0.64176,-1.95892 1.52443,-1.27268 1.52449,-1.27267 -1.54328,-0.002 c -2.29781,-0.003 -4.33439,-1.45979 -5.34952,-3.82793 -1.54954,-3.61492 -2.611212,-8.74158 -3.317942,-16.02175 -0.38011,-3.9138 -0.89078,-8.59654 -1.13527,-10.40611 -0.31535,-2.33303 -0.30272,-3.46119 0.0421,-3.87815 0.2685,-0.32325 0.55089,-2.35298 0.62786,-4.51028 0.0769,-2.1573 0.47803,-5.22611 0.8911,-6.81967 1.476102,-5.69335 4.763612,-15.83386 5.346462,-16.49152 0.32641,-0.368 0.79796,-1.42272 1.04808,-2.34335 0.63945,-2.35356 3.73543,-7.598314 7.657177,-12.971514 1.83867,-2.51919 3.84451,-5.32436 4.45742,-6.23372 0.61285,-0.90936 1.58539,-1.77524 2.16114,-1.92423 0.57568,-0.14899 1.24187,-0.79575 1.48031,-1.4373 0.47329,-1.2731 4.88712,-5.14398 7.72493,-6.77455 0.98059,-0.56342 2.47101,-1.61372 3.31199,-2.33398 2.27264,-1.94634 5.93199,-4.1965 8.35937,-5.14019 2.55825,-0.99455 6.82683,-1.62488 6.82683,-1.00808 0,1.03856 -2.46202,3.18111 -5.44807,4.74108 -8.21291,4.29064 -16.57007,11.62224 -21.29788,18.68419 -4.0363,6.02908 -9.2023,18.010164 -10.197367,23.649864 -1.60519,9.09779 -1.76697,11.17007 -1.40955,18.05249 0.40801,7.85665 0.0742,9.80215 -1.76377,10.28334 -1.21897,0.31903 -1.11284,0.3959 2.00583,1.45499 1.69459,0.57532 1.795457,0.71367 2.034367,2.79116 0.27429,2.38288 5.31461,13.6913 8.47035,19.00323 2.38652,4.01703 7.74283,10.02726 11.55612,12.96688 6.08167,4.68828 8.73184,7.16424 10.19657,9.52633 1.15112,1.85632 1.671,2.34304 2.22869,2.08654 1.44641,-0.66508 3.7151,-0.19479 7.5336,1.56187 3.77555,1.73691 3.91606,1.85615 4.71181,3.99929 l 0.82029,2.20899 2.61948,-1.18228 c 2.44727,-1.10458 2.62048,-1.28263 2.63422,-2.70729 0.0105,-0.83877 0.34694,-1.89186 0.75242,-2.34014 0.68646,-0.75853 0.68646,-0.87183 0,-1.63031 -0.60517,-0.66876 -0.73926,-1.84947 -0.74647,-6.57465 -0.0105,-5.70051 -0.43065,-10.06512 -1.35902,-14.06604 l -0.47961,-2.06611 -3.86804,-1.09305 -3.86805,-1.09304 -0.14056,-1.6719 c -0.12109,-1.43888 -0.0263,-1.63804 0.66861,-1.42919 0.44486,0.13319 3.66598,0.46276 7.15755,0.73141 4.8369,0.37222 7.64912,0.35747 11.81214,-0.0632 3.00512,-0.30377 7.46964,-0.47013 9.92123,-0.36958 5.38979,0.22059 13.49541,0.21375 19.83547,-0.0158 4.82221,-0.17584 6.6861,0.11371 6.6861,1.03745 0,0.79817 -1.30974,1.46452 -4.46947,2.27401 -4.96125,1.27099 -5.75874,2.74109 -6.29679,11.60755 -0.20848,3.43966 -0.38748,6.45452 -0.39695,6.69969 -0.0105,0.24534 0.12003,2.89209 0.2885,5.88204 l 0.30588,5.43628 1.38418,-0.25218 c 7.79826,-1.41914 19.90106,-8.11825 28.37762,-15.70751 3.70863,-3.32041 11.2176,-11.54458 12.73429,-13.94716 0.5878,-0.9311 1.37334,-1.6929 1.74571,-1.6929 0.37221,0 0.75953,-0.2506 0.86045,-0.55721 0.10108,-0.3064 1.40493,-3.85009 2.89777,-7.87481 2.94794,-7.94752 4.80794,-15.53683 5.22664,-21.32594 0.26323,-3.63935 0.28482,-3.69373 1.87127,-4.68027 l 1.60498,-0.99813 -1.4472,-0.13951 c -1.73065,-0.16689 -1.65673,0.0811 -2.54799,-8.55237 -0.36694,-3.5548 -0.98275,-7.46617 -1.36844,-8.69194 -0.3859,-1.22582 -1.10858,-3.9337 -1.6064,-6.0175 -0.49804,-2.08385 -1.27373,-4.18997 -1.72428,-4.68027 -0.45065,-0.49014 -1.66684,-2.395894 -2.70282,-4.234574 -2.38067,-4.22509 -7.77404,-11.29515 -11.04881,-14.48347 -3.87973,-3.77739 -11.96655,-9.86827 -15.55146,-11.71317 -1.77635,-0.91415 -3.2306,-1.87274 -3.23165,-2.13013 -0.004,-0.84966 1.04798,-1.5378 2.34961,-1.5378 2.26812,0 13.87425,7.35977 19.80703,12.56024 6.07704,5.32688 13.52141,15.11287 17.4192,22.898444 3.70205,7.39452 5.43307,12.03262 6.0871,16.30963 0.35115,2.29465 1.05129,5.35683 1.55654,6.80487 0.50541,1.44804 0.92153,3.45387 0.92516,4.45742 0.004,1.00355 0.3064,3.0973 0.6733,4.6528 0.56789,2.40899 0.57837,3.13573 0.0706,4.90312 -0.48383,1.68369 -0.4912,2.41116 -0.0369,3.85794 0.88662,2.83733 0.74679,3.45835 -1.44126,6.40286 l -2.0669,2.78142 1.15012,1.20245 1.15017,1.2025 -2.01442,6.15564 c -2.33455,7.13407 -7.23984,17.16013 -10.94536,22.37176 -1.39445,1.96124 -4.16639,5.36015 -6.1598,7.55314 -1.99341,2.19299 -3.81814,4.34923 -4.05494,4.79173 -0.2606,0.48645 -0.93253,0.80449 -1.70011,0.80449 -1.31647,0 -1.79977,-0.80196 -1.81314,-3.00875 -0.004,-0.55163 -0.17216,-1.00291 -0.37485,-1.00291 -0.39326,0 -1.41429,4.91523 -1.41429,6.8093 0,1.38881 -1.33154,2.55804 -6.68311,5.8684 -7.4659,4.6182 -15.45617,8.13441 -24.74153,10.88771 l -3.1202,0.92521 -0.12688,11.71322 c -0.12583,11.62482 -0.36537,14.24335 -2.51835,27.53701 -1.74297,10.76216 -2.46822,15.84986 -2.92288,20.50403 -0.27534,2.81932 -0.82413,6.12894 -1.2194,7.35471 l -0.71868,2.22874 -0.63217,-1.54186 c -0.98139,-2.39341 -1.74924,-7.02231 -3.00438,-18.11055 -0.63576,-5.6167 -1.55286,-12.51892 -2.03795,-15.33825 -0.48487,-2.81927 -1.14622,-7.33239 -1.46915,-10.02915 -0.54731,-4.57009 -0.52862,-5.07729 0.27534,-7.4676 0.80981,-2.40805 0.81907,-2.69149 0.15215,-4.64821 -0.46013,-1.34975 -0.70999,-3.62603 -0.70999,-6.46178 v -4.37803 H 169.175 c -1.57908,0 -2.96679,0.15478 -3.08382,0.34431 -0.11687,0.18953 -0.34273,6.0564 -0.50225,13.03791 -0.2606,11.43066 -0.41748,13.35884 -1.57507,19.3797 -1.44478,7.51313 -2.40174,14.34054 -3.34253,23.84713 -0.61586,6.22324 -1.31064,10.25048 -1.98867,11.52658 -0.25007,0.47066 -0.3959,0.42065 -0.65366,-0.22269 z m 14.45168,-99.44887 c -0.0105,-9.83305 -0.17268,-11.77429 -1.3636,-16.26956 -0.38379,-1.44905 -0.61612,-1.67153 -1.74497,-1.67153 -1.21345,0 -1.36296,0.1969 -2.19551,2.8925 -1.14143,3.69563 -1.28679,5.17621 -1.60836,16.38581 l -0.26533,9.24909 h 3.59433 3.59434 l -0.0105,-10.58631 z"
       id="path19702" /><g
       id="g19774"><path
         style="clip-rule:evenodd;fill:#ffffff;fill-rule:evenodd;stroke-width:3.43158"
         d="m 438.04287,378.15188 -19.03499,0.30198 c 5.21944,-2.14474 4.91402,-6.74993 5.21944,-7.36418 v -54.03371 c 0,-4.30321 -2.15161,-6.14597 -5.21944,-7.37105 h 19.95809 c -2.76929,1.22508 -3.68552,3.07127 -4.60519,5.83713 0,0.61082 0,0.91966 -0.30884,1.22507 l 0.30884,54.34256 c 0,3.9875 2.45358,6.44795 4.60519,7.36418 z"
         id="path4832" /><path
         style="clip-rule:evenodd;fill:#ffffff;fill-rule:evenodd;stroke-width:3.43158"
         d="m 391.99445,378.15188 -19.03499,0.30198 c 5.216,-2.14474 4.91402,-6.74993 4.91402,-7.36418 v -54.03371 c 0.30198,-4.30321 -1.84276,-6.14597 -4.91402,-7.37105 h 19.95809 c -3.0747,1.22508 -3.68552,3.07127 -4.61205,5.83713 -0.30884,0.61082 -0.30884,0.91966 -0.30884,1.22507 v 54.34256 c 0,3.9875 2.76928,6.44795 4.92089,7.36418 z"
         id="path4830" /><path
         style="clip-rule:evenodd;fill:#ffffff;fill-rule:evenodd;stroke-width:3.43158"
         d="m 271.02427,370.77741 -1.22508,-1.22508 c -3.07127,-3.37668 -5.83026,-7.98186 -5.83026,-12.28507 v -39.90588 c -0.30884,-0.61769 -1.23194,-4.92089 -7.06563,-7.67989 h 23.02936 c -2.15161,0.92653 -5.52828,3.68552 -5.52828,7.98187 v 19.03499 c 0,3.68552 1.84276,5.21944 2.1516,5.52828 0.91966,0.61769 5.83026,1.22508 9.21037,1.53392 -5.83026,0.61768 -9.21037,2.45358 -9.21037,2.76242 -1.23194,0.92653 -1.84276,2.76243 -2.1516,4.30321 0,0.61082 0.30884,0.61082 0.30884,0.61082 h -0.30884 v 5.83026 c 0,0 0,4.91403 1.53391,10.13347 0.30885,0.92653 4.60519,9.51578 12.89589,10.44231 -10.13689,-0.30885 -15.3529,-4.60519 -17.80991,-7.06563 z"
         id="path4828" /><path
         style="clip-rule:evenodd;fill:#ffffff;fill-rule:evenodd;stroke-width:3.43158"
         d="m 307.86575,376.91994 c -0.30884,0.30884 -3.67866,0.92653 -11.96937,0.92653 10.74429,-1.22508 20.26007,-17.80649 23.0225,-23.94902 v 25.17409 c -4.29634,-4.60518 -10.74429,-2.1516 -11.05313,-2.1516 z"
         id="path4826" /><path
         style="clip-rule:evenodd;fill:#ffffff;fill-rule:evenodd;stroke-width:3.43158"
         d="m 292.51627,309.68149 h 23.0225 v 21.49544 c -3.36982,-13.81555 -17.49765,-19.96152 -23.0225,-21.49544 z"
         id="path4824" /><path
         style="clip-rule:evenodd;fill:#ffffff;fill-rule:evenodd;stroke-width:3.43158"
         d="m 184.44198,348.67458 c -0.61425,1.22507 -1.22851,2.45358 -1.22851,3.68552 l -0.30541,0.30198 v 18.11533 c 0,4.91402 3.68552,7.06563 4.60519,7.37104 v -0.30884 h -19.95466 c 3.37668,-1.22508 3.68552,-2.46045 4.29634,-3.99437 0.61426,-0.61082 0.61426,-1.53392 0.61426,-2.14474 0.30884,-0.61768 0.30884,-0.61768 0.30884,-0.92652 v -53.41604 c 0,-4.92089 -3.07127,-7.06563 -3.99093,-7.37104 h 18.72958 c -2.76243,1.22508 -3.37668,3.07127 -3.99093,5.83026 -0.30885,0.61769 -0.30885,0.92653 -0.30885,1.23194 v 18.72615 c 0,4.91403 4.91403,6.75679 8.59955,7.98187 -3.99436,1.23194 -6.14596,3.0747 -7.37447,4.91746 z"
         id="path4822" /><path
         style="clip-rule:evenodd;fill:#ffffff;fill-rule:evenodd;stroke-width:3.43158"
         d="m 232.95428,311.21541 a 3294.4266,3294.4266 0 0 0 -22.41167,29.16846 c 6.1391,2.76243 22.72051,12.58705 20.56891,39.30193 h -0.91967 c -2.1516,-23.3382 -30.39353,-34.3879 -35.00558,-35.92525 l 0.92653,-0.61769 40.82898,-37.76114 c -1.8359,3.38011 -2.76243,4.29977 -3.9875,5.83369 z"
         id="path4820" /><path
         style="clip-rule:evenodd;fill:#ffffff;fill-rule:evenodd;stroke-width:3.43158"
         d="m 124.87655,378.15188 h -0.30541 c 3.68209,-0.30884 3.68209,-4.30321 3.68209,-4.91403 -0.91966,-2.1516 -2.14817,-5.83712 -3.99093,-9.21723 -1.53735,-3.37668 -3.99093,-6.75679 -6.75336,-7.36418 -0.30884,0 -1.53735,0 -2.45701,-0.30884 h -3.07127 c -0.9231,-0.30884 -0.9231,-0.30884 -1.22851,-0.30884 0,0 1.22851,-0.61083 1.53735,-0.91967 2.76243,-0.61768 6.75336,-1.84276 4.60519,-6.44794 -1.53392,-3.07127 -3.37668,-7.67303 -5.21944,-11.97623 -1.53392,-4.29634 -3.37668,-7.36418 -4.60519,-7.98187 -0.30884,-0.30197 -1.2285,0.30885 -1.84276,1.53392 -0.30541,0.61769 -0.92309,2.15161 -1.53391,3.37668 -1.53392,3.07127 -3.37668,6.44795 -3.990935,8.29071 l -1.53735,3.07126 c -0.614253,1.53392 -1.225075,3.07127 -1.533918,4.29635 -0.614253,3.0747 0,6.14596 4.299773,6.14596 0.91967,0 0.91967,0.30198 1.84276,0.61083 -0.92309,0.30884 -0.92309,0.30884 -1.84276,0.30884 -3.380108,0 -5.83369,0.61768 -7.062197,1.53392 -0.923096,0.30884 -1.533918,0.92652 -2.148172,1.84276 0,0 -2.765856,4.29634 -4.914027,11.36197 l -0.308843,2.76242 c 0.308843,2.46045 2.457014,3.99437 3.376678,4.30321 H 74.219515 c 4.296343,-2.76929 8.596117,-8.59955 11.972795,-14.12783 3.376678,-6.1391 5.833692,-11.66052 5.833692,-11.66052 4.914028,-10.44231 7.36761,-16.27257 7.36761,-16.27257 3.071268,-6.75679 5.528278,-13.20473 5.528278,-13.20473 l 5.52485,-13.81213 12.89589,30.08813 c 0.9231,2.45358 1.84276,3.9875 1.84276,4.29634 0.30885,0.30884 2.45702,5.21944 4.91403,10.44231 2.45702,5.21601 5.21944,11.36197 6.75336,14.42981 2.45701,5.52142 7.36761,8.59268 10.13347,9.82462 h -22.1097 z"
         id="path4818" /><path
         style="clip-rule:evenodd;fill:#ffffff;fill-rule:evenodd;stroke-width:3.43158"
         d="m 4.2186411,372.6236 c -0.3088425,-0.30884 -7.36761,-7.06563 -7.36761,-16.58141 v -38.68081 c 0,-0.92653 0,-2.46045 -0.3088425,-3.37668 -0.3054109,-1.54078 0,-1.84276 -2.4535823,-3.68552 H 10.975429 c -2.1481711,1.84276 -3.9943631,3.07126 -3.376678,7.36418 v 43.90711 c 0,0.30884 0.3054109,4.91403 1.2285069,7.67302 0,0 3.9909321,8.90839 13.2013021,9.51578 h 0.305411 C 11.28084,378.45386 6.6722234,375.38259 4.2186411,372.6236 Z"
         id="path4816" /><path
         style="clip-rule:evenodd;fill:#ffffff;fill-rule:evenodd;stroke-width:3.43158"
         d="m 54.570267,314.28668 c -0.308842,0.92653 0,2.1516 0,3.0747 v 0.30198 l -0.308842,38.37883 c 0,5.52828 -1.533918,9.51578 -3.376679,12.28507 -0.919664,1.53391 -2.453582,3.07126 -3.68552,4.29634 -1.842761,1.53392 -3.990932,3.07127 -6.139103,4.29634 -2.765857,1.53392 -6.756788,1.84276 -11.972796,2.1516 9.515782,-0.91966 13.201303,-9.82462 13.201303,-9.82462 1.228506,-2.1516 1.228506,-6.75679 1.228506,-6.75679 v -44.82334 c 0,-4.60519 -1.84276,-6.75679 -3.68552,-7.36418 h 17.806487 c -2.762425,1.83933 -2.148171,1.83933 -3.067836,3.98407 z"
         id="path4814" /><path
         style="clip-rule:evenodd;fill:#ffffff;fill-rule:evenodd;stroke-width:3.43158"
         d="m -62.100144,379.06811 v 8.29071 c 0,0.30884 -0.30541,1.22507 -0.30541,2.1516 -0.305411,0.91967 -0.614254,1.53392 -0.614254,2.14474 -0.614253,2.46045 -1.225075,6.75679 -3.071267,18.42417 -4.296343,-19.95809 -4.914028,-21.49544 -5.219439,-22.41167 v -8.59955 c -12.587049,-1.84276 -23.025926,-11.05313 -27.631111,-23.02935 -4.605185,-12.27821 -1.228505,-28.24194 6.753356,-37.14347 3.071268,-3.68552 7.985295,-6.14596 11.667385,-7.67988 -7.676453,4.91403 -18.729584,16.89025 -15.352905,33.77365 1.84276,10.13346 10.74772,19.34383 19.649247,21.49544 0.305411,0.30884 2.765857,1.22507 4.914028,1.53391 v -8.59954 -2.76243 c -0.305411,-1.84276 -0.614253,-2.76242 -2.762425,-3.07127 0.923096,-0.61768 5.52485,-0.92652 7.062199,-0.92652 1.533918,0 6.444514,0.30884 7.981864,0.92652 -2.148172,0.61082 -2.453582,1.84276 -2.762425,3.07127 0,0.30884 -0.308843,1.53392 -0.308843,3.07127 v 8.2907 c 2.762425,-0.30884 5.219439,-1.53391 5.219439,-1.53391 8.90496,-2.15161 17.806487,-11.36198 19.649248,-21.49544 3.376678,-16.8834 -8.290706,-28.85962 -15.963727,-34.08249 3.990932,1.53392 8.904959,4.3032 12.281638,7.98872 7.985295,8.90153 11.361973,24.86526 6.753356,37.14347 -4.299774,11.97965 -15.044062,21.18659 -27.939954,23.02935 z"
         id="path4812" /></g></g></svg>
