<?xml version="1.0" encoding="UTF-8" standalone="no"?>
<!-- Created with Inkscape (http://www.inkscape.org/) -->

<svg
   width="456.10672mm"
   height="40.000099mm"
   viewBox="0 0 456.10672 40.0001"
   version="1.1"
   id="svg1"
   inkscape:version="1.3.2 (091e20e, 2023-11-25, custom)"
   sodipodi:docname="recordings.svg"
   xmlns:inkscape="http://www.inkscape.org/namespaces/inkscape"
   xmlns:sodipodi="http://sodipodi.sourceforge.net/DTD/sodipodi-0.dtd"
   xmlns="http://www.w3.org/2000/svg"
   xmlns:svg="http://www.w3.org/2000/svg">
  <sodipodi:namedview
     id="namedview1"
     pagecolor="#505050"
     bordercolor="#eeeeee"
     borderopacity="1"
     inkscape:showpageshadow="0"
     inkscape:pageopacity="0"
     inkscape:pagecheckerboard="0"
     inkscape:deskcolor="#505050"
     inkscape:document-units="mm"
     showgrid="false"
     inkscape:zoom="0.25606581"
     inkscape:cx="964.5958"
     inkscape:cy="-164.02034"
     inkscape:window-width="1278"
     inkscape:window-height="1000"
     inkscape:window-x="-7"
     inkscape:window-y="0"
     inkscape:window-maximized="0"
     inkscape:current-layer="layer1" />
  <defs
     id="defs1" />
  <g
     inkscape:label="Camada 1"
     inkscape:groupmode="layer"
     id="layer1"
     transform="translate(-60.325001,-136.13801)">
    <path
       d="m 155.9233,146.60845 q 0,4.61628 -2.81103,7.76257 -2.81103,3.14628 -7.63363,4.74522 l 8.87152,16.22147 h -11.06361 l -7.221,-14.08093 h -5.57048 l -3.24945,14.08093 h -9.90309 l 8.87152,-38.40025 h 14.98357 q 7.04047,0 10.88308,2.3984 3.8426,2.37262 3.8426,7.27259 z m -10.67676,1.65052 q 0,-2.32103 -1.49578,-3.27526 -1.46999,-0.97998 -4.35839,-0.97998 h -4.89996 l -2.39841,10.34149 h 4.87418 q 3.94576,0 6.11206,-1.59891 2.1663,-1.62473 2.1663,-4.48734 z m 50.10858,-11.32151 -1.6763,7.27259 h -17.92356 l -1.59893,6.85994 h 16.63409 l -1.70209,7.29839 h -16.6341 l -2.24366,9.69674 h 17.92355 l -1.65051,7.27259 h -27.82664 l 8.87151,-38.40025 z m 17.14988,39.14815 q -7.78836,0 -12.01781,-3.81683 -4.22944,-3.84259 -4.22944,-10.98624 0,-5.64783 1.85683,-10.23834 1.88262,-4.59049 5.15786,-7.94311 3.19787,-3.24943 7.65941,-5.08046 4.48734,-1.83106 9.41309,-1.83106 3.97156,0 7.37574,0.82528 3.40419,0.79945 6.13785,2.3726 l -2.26946,9.30994 h -1.13473 q -2.44998,-2.63051 -4.87417,-3.86841 -2.42419,-1.23788 -5.69943,-1.23788 -5.75101,0 -9.49046,4.61628 -3.71366,4.61629 -3.71366,11.75993 0,4.59049 2.06315,6.65361 2.06314,2.06316 6.03469,2.06316 3.55892,0 6.67942,-1.41841 3.12051,-1.4442 5.90575,-3.66209 h 1.03157 l -2.24367,9.181 q -1.16051,0.46419 -2.70787,1.13473 -1.54736,0.64471 -2.96577,1.05737 -1.85683,0.54157 -3.48155,0.82525 -1.59894,0.28352 -4.48734,0.28352 z m 62.95165,-24.86088 q 0,4.71943 -1.59894,9.28415 -1.59893,4.56469 -4.64207,7.9689 -3.32682,3.71365 -7.76258,5.69942 -4.43575,1.95997 -10.21255,1.95997 -7.86574,0 -12.32728,-4.04889 -4.43576,-4.07472 -4.43576,-11.19257 0,-5.00311 1.70209,-9.51624 1.7021,-4.51314 4.87418,-7.94311 3.09471,-3.32681 7.65942,-5.31258 4.5647,-1.98577 9.95466,-1.98577 7.89152,0 12.32728,4.07468 4.46155,4.07472 4.46155,11.01204 z m -14.15832,13.10095 q 1.75367,-2.29524 2.73366,-5.31259 1.00579,-3.04314 1.00579,-6.98888 0,-4.1263 -1.98578,-6.44734 -1.95999,-2.3468 -5.62206,-2.3468 -2.39841,0 -4.5905,1.10893 -2.1663,1.08313 -3.99734,3.32682 -1.77946,2.1405 -2.86261,5.33838 -1.08315,3.17208 -1.08315,7.14362 0,4.40998 2.01157,6.65364 2.03735,2.24368 5.62206,2.24368 2.47577,0 4.77102,-1.21211 2.29525,-1.23787 3.99734,-3.50735 z m 55.13748,-17.71723 q 0,4.61628 -2.81101,7.76257 -2.81105,3.14628 -7.63363,4.74522 l 8.8715,16.22147 h -11.06359 l -7.22101,-14.08093 h -5.57048 l -3.24945,14.08093 h -9.90309 l 8.87152,-38.40025 h 14.98356 q 7.0405,0 10.88309,2.3984 3.84259,2.37262 3.84259,7.27259 z m -10.67676,1.65052 q 0,-2.32103 -1.49576,-3.27526 -1.47,-0.97998 -4.3584,-0.97998 h -4.89996 l -2.39841,10.34149 h 4.87418 q 3.94575,0 6.11205,-1.59891 2.1663,-1.62473 2.1663,-4.48734 z m 54.77643,3.66206 q 0,6.5247 -3.42997,12.04361 -3.42997,5.51892 -8.79414,8.45888 -3.24944,1.75368 -6.78258,2.34683 -3.53312,0.56736 -8.45888,0.56736 h -13.90043 l 8.87153,-38.40025 h 12.4304 q 5.49312,0 8.84574,0.85105 3.35261,0.85104 5.41577,2.29524 2.83681,1.96 4.3068,4.89996 1.49576,2.9142 1.49576,6.93732 z m -10.36729,0.90264 q 0,-2.63052 -0.97998,-4.51314 -0.97999,-1.90838 -2.99155,-3.0689 -0.92843,-0.5158 -1.90842,-0.77369 -0.95419,-0.28352 -2.19209,-0.41262 -1.18632,-0.10325 -2.70787,-0.10325 -1.52155,0 -2.65631,0 h -0.33524 l -5.67365,24.34508 h 0.90263 q 1.49576,0 3.19788,0 1.70208,0 2.75942,-0.12882 1.36685,-0.12881 2.44999,-0.41262 1.10896,-0.28384 2.42421,-0.95422 3.71365,-1.90842 5.69942,-5.69942 2.01156,-3.79103 2.01156,-8.27837 z m 33.62923,22.51404 h -22.48825 l 1.57314,-6.80837 h 6.26681 l 5.72522,-24.7835 h -6.26681 l 1.57317,-6.80838 h 22.48825 l -1.57314,6.80838 H 384.829 l -5.72521,24.7835 h 6.26678 z m 43.01654,0 h -8.43308 l -11.26992,-26.58876 -6.13784,26.58876 h -9.12942 l 8.8715,-38.40025 h 11.08942 l 9.64519,22.23037 5.10626,-22.23037 h 9.12942 z m 28.7035,0.79946 q -8.17522,0 -12.8173,-3.86839 -4.61628,-3.86839 -4.61628,-10.98624 0,-11.08939 7.14365,-18.07827 7.14361,-7.0147 18.12985,-7.0147 4.1521,0 7.68522,0.7221 3.55891,0.6963 7.37574,2.6821 l -2.1921,9.00044 h -1.10893 q -3.09473,-2.93996 -5.85418,-4.07468 -2.75943,-1.16052 -6.08625,-1.16052 -3.37841,0 -6.11207,1.39261 -2.73366,1.36682 -4.66787,3.71365 -1.83103,2.21789 -2.86261,5.26103 -1.03157,3.04314 -1.03157,6.36996 0,4.61628 2.52736,6.80834 2.52734,2.1663 8.22678,2.1663 0.56737,0 1.23788,-0.0249 0.67054,-0.025 1.2379,-0.0773 l 1.75365,-7.53048 h -7.65939 l 1.67629,-7.24676 h 17.71723 l -4.38416,18.9551 q -3.43,1.18632 -7.32418,2.08895 -3.86839,0.9026 -7.99466,0.9026 z m 37.9876,-0.10324 q -4.92576,0 -8.79415,-0.85105 -3.84259,-0.85104 -6.65364,-2.11471 l 1.98577,-9.20677 h 1.08316 q 2.65628,2.42419 6.24102,3.76521 3.58471,1.31526 7.71098,1.31526 4.22945,0 6.21522,-1.13473 1.98577,-1.16052 1.98577,-3.30102 0,-0.79945 -0.33524,-1.36682 -0.30942,-0.59315 -1.23791,-1.16052 -0.92839,-0.56736 -2.55313,-1.10896 -1.59893,-0.56736 -4.15206,-1.28946 -2.81105,-0.77366 -5.05471,-1.67629 -2.21789,-0.90263 -3.79103,-2.14051 -1.57314,-1.2637 -2.39839,-2.91419 -0.79949,-1.65053 -0.79949,-3.94577 0,-5.7768 5.0805,-9.20677 5.10629,-3.45577 13.95199,-3.45577 4.25525,0 8.02049,0.69631 3.791,0.69631 6.42152,1.88262 l -1.88262,8.84573 h -1.05734 q -2.0116,-1.85682 -5.31262,-3.09472 -3.27523,-1.26367 -7.16941,-1.26367 -3.81683,0 -5.90575,1.10893 -2.08894,1.10896 -2.08894,3.06893 0,0.90263 0.30941,1.49579 0.30941,0.59316 1.2637,1.16052 0.82525,0.51577 2.60469,1.13472 1.77947,0.59316 4.17789,1.23788 6.44731,1.72788 9.20677,4.04892 2.75946,2.32104 2.75946,6.2926 0,3.32679 -1.49579,5.85416 -1.49579,2.52733 -4.12628,4.10051 -2.75945,1.67629 -6.26681,2.44998 -3.50735,0.77366 -7.9431,0.77366 z"
       id="text1"
       style="font-style:italic;font-weight:bold;font-size:16.9333px;font-family:Verdana;-inkscape-font-specification:'Verdana, Bold Italic';fill:#ffffff;stroke-width:0.825258"
       aria-label="RECORDINGS" />
    <path
       style="fill:#ffffff;stroke-width:0.420505"
       d="m 104.10523,174.62576 c -1.43802,-0.83108 -3.29047,-1.90158 -4.116568,-2.37889 -0.826094,-0.4773 -2.293743,-1.32669 -3.261438,-1.88752 -0.967699,-0.56083 -1.831344,-1.04728 -1.919213,-1.08099 -0.131853,-0.0506 -0.159758,0.12129 -0.159758,0.98417 0,1.11577 -0.188028,2.03925 -0.566087,2.78031 -0.56203,1.10168 -1.839628,2.0429 -3.139168,2.31269 -0.40633,0.0844 -4.614975,0.11184 -13.876102,0.0906 l -13.292881,-0.0304 -0.811284,-0.38021 c -1.022724,-0.4793 -1.991048,-1.46596 -2.376614,-2.42161 l -0.261116,-0.6472 v -8.73379 -8.73379 l 0.359132,-0.75824 c 0.48471,-1.02336 1.319466,-1.83072 2.324991,-2.24869 0.42069,-0.17486 0.785479,-0.33308 0.810641,-0.35159 0.02516,-0.0185 -0.167511,-0.24671 -0.428165,-0.50711 -1.785975,-1.78424 -2.72628,-4.63881 -2.347453,-7.12638 0.306313,-2.01141 1.084034,-3.52545 2.556601,-4.97711 0.777173,-0.76614 1.165709,-1.05064 2.01444,-1.47502 1.489274,-0.74468 2.20329,-0.90928 3.94427,-0.90928 1.725491,0 2.437986,0.16208 3.926958,0.89332 0.845212,0.41509 1.213386,0.6845 2.01444,1.47406 0.602408,0.59376 1.16282,1.27707 1.454008,1.77287 l 0.473805,0.80673 0.384829,-0.63984 c 1.26259,-2.09927 3.063569,-3.50365 5.263868,-4.1047 1.024631,-0.27989 3.328984,-0.28021 4.420021,-4.2e-4 2.321484,0.59494 4.497099,2.39119 5.526293,4.56268 0.59469,1.25472 0.750605,1.89908 0.811355,3.35313 0.06485,1.55218 -0.08792,2.45591 -0.63891,3.77944 -0.339024,0.81436 -1.350745,2.31658 -1.868408,2.77423 -0.131853,0.11658 -0.239738,0.24815 -0.239738,0.2924 0,0.0443 0.306674,0.19514 0.681495,0.33531 0.965273,0.36099 1.869669,1.22488 2.394917,2.28765 0.387676,0.78441 0.409294,0.88835 0.460343,2.21345 0.02948,0.76471 0.06535,1.39039 0.07975,1.39039 0.01442,0 0.595931,-0.33218 1.29227,-0.73817 1.231662,-0.7181 3.496677,-2.02667 6.328336,-3.65608 0.7649,-0.44014 2.05253,-1.18355 2.8614,-1.65202 1.53792,-0.89071 1.96605,-1.01165 2.29488,-0.6483 0.16903,0.18678 0.18413,1.22639 0.18413,12.67717 v 12.47369 l -0.24727,0.1732 c -0.136,0.0953 -0.34878,0.17273 -0.47285,0.17216 -0.12407,-4.2e-4 -1.40214,-0.68101 -2.84015,-1.51209 z m -16.330646,-3.72092 c 0.530365,-0.1473 1.076756,-0.60803 1.270243,-1.07111 0.122094,-0.29221 0.15176,-1.59129 0.15176,-6.64565 0,-4.16832 -0.03982,-6.38783 -0.118338,-6.59564 -0.161036,-0.42622 -0.641156,-0.92046 -1.07412,-1.10571 -0.531598,-0.22746 -20.892812,-0.22746 -21.42441,0 -0.432961,0.18525 -0.913082,0.67949 -1.074119,1.10571 -0.07851,0.20781 -0.118336,2.42732 -0.118336,6.59564 0,6.76897 -0.0045,6.71315 0.587034,7.25829 0.625441,0.57637 0.391402,0.56454 11.261998,0.56912 6.636287,0.003 10.267079,-0.0353 10.538288,-0.11065 z M 66.7267,169.55365 c -0.222616,-0.23895 -0.226851,-0.35817 -0.226851,-6.38504 0,-5.88123 0.009,-6.15267 0.212694,-6.40419 l 0.212694,-0.26266 h 10.3667 10.366701 l 0.212683,0.26266 c 0.203663,0.25151 0.212678,0.52313 0.212678,6.40578 v 6.14312 l -0.2575,0.24192 -0.257504,0.24191 H 77.261274 66.953551 Z m 12.679135,-18.50447 c 0,-0.0311 -0.291569,-0.4038 -0.64793,-0.82822 -0.356361,-0.42442 -0.798707,-1.05267 -0.982989,-1.3961 l -0.335058,-0.62442 -0.429717,0.73478 c -0.236348,0.40414 -0.695196,1.02815 -1.019666,1.3867 -0.32447,0.35855 -0.589945,0.68159 -0.589945,0.71785 0,0.0362 0.901194,0.0659 2.002652,0.0659 1.101461,0 2.002653,-0.0254 2.002653,-0.0565 z"
       id="path1" />
  </g>
</svg>
