<?xml version="1.0" encoding="utf-8"?>
<svg version="1.1" id="svg387" xmlns="http://www.w3.org/2000/svg" viewBox="0 0 50 5.6">
  <path d="M 2.0425064,1.1491922 C 2.2240741,1.0967912 2.5540468,1.0967912 2.9715473,1.0967912 L 4.728272,1.0908512 4.722332,0.01082978 3.0873615,0.01144252 c -1.0097751,0 -1.7499337,0.14218928 -2.19852773,0.42288543 C 0.5106948,0.66715854 0.24812784,1.0237657 0.10876543,1.496495 0.03569038,1.7627505 2.8493784e-4,1.9972788 0,2.2145237 L 0.00678789,5.8318272 H 1.2510927 L 1.2448623,3.4258986 V 3.347722 l 3.483359,-0.00651 -0.00651,-0.9593471 -3.4992533,0.00623 c 0,-0.2781531 0.049286,-0.5211688 0.1509692,-0.7435214 0.1345383,-0.2923011 0.338762,-0.3996581 0.6690289,-0.4953953" id="path482" style="fill:#ffffff;stroke-width:0.154316"/>
  <path id="path510" d="m 29.741332,0.00520888 -3.520156,0.00687184 0.0069,5.61950098 v 0.1883789 h 3.07e-4 v 0.00625 h 3.659483 c 0.422478,0 0.789749,-0.1538213 1.091847,-0.4579824 0.30091,-0.3050427 0.452963,-0.681236 0.452963,-1.1180915 C 31.432983,3.9386339 31.346516,3.666092 31.176818,3.4391391 31.011527,3.2160088 30.78095,3.0465278 30.492655,2.9358582 30.775097,2.8031556 30.991575,2.6189432 31.133082,2.3875914 31.278116,2.151553 31.351764,1.8751074 31.351766,1.5659721 V 1.4653787 c -3.06e-4,-0.03347 -0.0028,-0.066794 -0.0078,-0.099969 C 31.300463,0.96084826 31.124248,0.6296788 30.821269,0.38071644 30.518293,0.13204221 30.155242,0.00520827 29.741293,0.00520827 Z m -0.49141,1.10965462 c 0.01158,-2e-5 0.02334,7.64e-5 0.03468,6.281e-4 0.01135,5.514e-4 0.02234,0.00139 0.03343,0.0025 0.01109,0.0011 0.02196,0.00269 0.0328,0.00437 0.01083,0.00168 0.02159,0.00369 0.03217,0.00593 0.01058,0.00224 0.02122,0.00469 0.03155,0.0075 0.01033,0.00281 0.02053,0.00568 0.03061,0.00906 0.01008,0.00336 0.01985,0.00701 0.02968,0.010935 0.0098,0.00393 0.01949,0.00832 0.02905,0.01281 0.0096,0.00449 0.01913,0.00933 0.02842,0.014371 0.0093,0.00504 0.01846,0.010335 0.02749,0.015932 0.009,0.0056 0.01779,0.011342 0.02656,0.017495 0.0087,0.00615 0.01744,0.012664 0.02593,0.019368 0.0085,0.0067 0.01707,0.013675 0.0253,0.020931 0.0082,0.00726 0.01611,0.014687 0.02405,0.022493 0.008,0.0078 0.01575,0.016013 0.02343,0.024367 0.0077,0.00835 0.01542,0.017029 0.02281,0.025929 0.0074,0.00881 0.01456,0.017507 0.02156,0.026555 0.007,0.00905 0.01377,0.018207 0.02031,0.027492 0.0065,0.00928 0.01266,0.018909 0.01874,0.028429 0.006,0.00952 0.01189,0.01899 0.0175,0.028741 0.0056,0.00975 0.01109,0.019697 0.01624,0.029678 0.0052,0.00998 0.01,0.020094 0.01468,0.030303 0.0047,0.01021 0.0092,0.020494 0.01343,0.030928 0.0042,0.010433 0.0081,0.020896 0.01187,0.031553 0.0037,0.010658 0.0073,0.021614 0.01063,0.03249 0.0033,0.010878 0.0062,0.021708 0.009,0.032802 0.0028,0.011094 0.0055,0.022429 0.0078,0.03374 0.0023,0.01131 0.0044,0.022529 0.0062,0.034052 0.0019,0.011522 0.0035,0.023256 0.005,0.034989 0.0013,0.011732 0.0028,0.023673 0.0037,0.035614 9.19e-4,0.011941 0.0013,0.02378 0.0018,0.035926 4.59e-4,0.012147 9.18e-4,0.024513 9.18e-4,0.036863 0,0.022789 -7.65e-4,0.044985 -0.0025,0.066855 -0.0016,0.02187 -0.0042,0.043373 -0.0075,0.064355 -0.0034,0.020982 -0.0076,0.041728 -0.0125,0.061856 -0.005,0.020127 -0.01086,0.03974 -0.0175,0.059045 -0.0066,0.019304 -0.01388,0.038032 -0.02218,0.056544 -0.0083,0.018513 -0.01751,0.036605 -0.0275,0.054359 -0.01,0.017753 -0.02084,0.035145 -0.03248,0.052171 -0.01166,0.017026 -0.02417,0.033966 -0.03748,0.050296 -0.0066,0.00803 -0.0134,0.015575 -0.02031,0.023118 -0.0069,0.00754 -0.0138,0.014819 -0.02093,0.021868 -0.0071,0.00705 -0.01452,0.014067 -0.02187,0.020619 -0.0074,0.00655 -0.0146,0.012688 -0.02218,0.018744 -0.0076,0.00606 -0.0153,0.011938 -0.02311,0.017494 -0.0078,0.00556 -0.0157,0.010876 -0.02374,0.015932 -0.0081,0.00506 -0.01611,0.00981 -0.02437,0.014372 -0.0082,0.00455 -0.01683,0.00907 -0.0253,0.013122 -0.0084,0.00406 -0.01692,0.0077 -0.02562,0.011247 -0.0087,0.00356 -0.01764,0.00695 -0.02656,0.010001 -0.0089,0.00305 -0.01774,0.0059 -0.02686,0.00844 -0.0091,0.00254 -0.01845,0.00484 -0.0278,0.00687 -0.0094,0.00203 -0.01887,0.00378 -0.02843,0.00531 -0.0096,0.00153 -0.01929,0.00273 -0.02905,0.00375 -0.0098,0.00103 -0.0197,0.00168 -0.02967,0.00219 -0.01,5.054e-4 -0.01981,9.345e-4 -0.02999,9.345e-4 L 27.475842,2.49694 V 1.1151766 Z m -1.806314,2.3689504 1.895037,3.063e-4 c 0.179384,-3.217e-4 0.329188,0.0698 0.444861,0.2083727 0.118315,0.1426832 0.176195,0.3057357 0.176195,0.4989074 -3.07e-4,0.1743934 -0.05447,0.3249104 -0.163385,0.4470484 -0.106869,0.1238939 -0.24776,0.1861919 -0.418621,0.1861919 l -1.933774,0.00687 z" style="fill:#ffffff;stroke-width:0.15995"/>
  <path d="m 25.249503,0.0123344 h -3.06e-4 V 0.00520827 l -1.309611,0.00655168 0.0068,2.36074435 h -2.185019 l -0.0063,-2.21994092 V 0.01237161 h -6.14e-4 V 0.00524548 l -1.36061,0.00655017 0.0062,5.81422715 1.318448,-0.00627 h 0.03648 v -3.067e-4 h 0.0065 l -0.0065,-2.169643 v -0.00456 h 2.184706 l -3.06e-4,2.1809753 1.273707,-0.00655 h 0.03562 V 5.819362 h 0.0068 l -0.0061,-5.6558873 z" id="path492" style="fill:#ffffff;stroke-width:0.155241"/>
  <path d="m 17.960551,2.2793675 h -1.668559 c -0.191911,0 -0.350003,-0.063124 -0.484418,-0.1938771 -0.145694,-0.1394925 -0.215018,-0.238969 -0.202905,-0.4162187 0.02902,-0.4204566 0.504438,-0.5111926 0.619693,-0.5111926 l 3.073355,-3.063e-4 0.0013,-1.14694328 h -3.485554 c -0.524441,0 -0.952499,0.15781315 -1.272916,0.47004626 -0.320966,0.31223329 -0.483862,0.72423022 -0.483862,1.22415322 -3.06e-4,0.4508859 0.168514,0.8820431 0.496545,1.1756839 0.328585,0.2936407 0.716063,0.4415822 1.151733,0.4415822 h 1.516107 c 0.306044,0 0.537675,0.060589 0.690424,0.178386 0.152172,0.1180751 0.227129,0.244327 0.226852,0.4793501 0,0.211917 -0.280115,0.5306292 -0.735792,0.568674 H 14.39537 V 5.830908 l 3.645715,9.189e-4 c 0.461879,-9.189e-4 0.847392,-0.170771 1.144688,-0.505266 0.29955,-0.3381643 0.45116,-0.9612339 0.45116,-1.4504408 0,-0.4779377 -0.150765,-0.8673962 -0.448351,-1.1590565 C 18.893821,2.4273685 18.480411,2.2794274 17.960483,2.2794274" id="path488" style="fill:#ffffff;stroke-width:0.153531"/>
  <path d="m 10.732045,3.5601326 0.703678,-1.721541 0.692887,1.721541 z M 11.99566,0.17787614 C 11.820381,0.06679843 11.631742,0.01082952 11.430337,0.01082952 c -0.196592,0 -0.383514,0.05596447 -0.557943,0.16704662 -0.178128,0.11079433 -0.3017,0.25879619 -0.375849,0.44289867 L 8.3633071,5.8318303 H 9.8010708 L 10.324084,4.5525842 h 2.216966 l 0.521586,1.2792461 H 14.49017 L 12.370551,0.62077481 C 12.298393,0.4366878 12.172536,0.28867813 11.995553,0.17787614" id="path484" style="fill:#ffffff;stroke-width:0.154774"/>
  <path d="m 40.04611,4.7044886 c -0.345257,0 -0.616989,-0.1801169 -0.807841,-0.5352655 C 39.072,3.867514 38.988581,3.4928622 38.988581,3.0554345 c 0,-0.5191517 0.06616,-0.9421601 0.195674,-1.2585656 0.164282,-0.4088667 0.433193,-0.6161422 0.799374,-0.6161422 l 2.284728,-0.00708 -0.0074,-1.16779865 H 40.069 c -0.357689,0 -0.714256,0.07379957 -1.058375,0.21828998 -0.443083,0.18634004 -0.789189,0.62660225 -1.028693,1.13923757 -0.218859,0.4657113 -0.330269,1.0063533 -0.329699,1.6078298 0,0.6223505 0.123849,1.2814728 0.368445,1.7517134 0.27173,0.5188588 0.64441,0.8545052 1.10758,0.9984349 0.23525,0.06956 0.480977,0.1051877 0.730938,0.1051877 l 2.424916,3.063e-4 -0.0074,-1.122276 z" id="path474" style="fill:#ffffff;stroke-width:0.154051"/>
  <path d="m 33.975165,3.5691791 0.704044,-1.7217198 0.692387,1.7217198 z M 35.238633,0.18703611 C 35.064464,0.07509413 34.875528,0.01969352 34.673804,0.01969352 c -0.196037,0 -0.383547,0.05568538 -0.558848,0.16734259 -0.177001,0.11023612 -0.300601,0.25854434 -0.375318,0.44237185 L 31.605871,5.8406942 h 1.438191 l 0.523065,-1.2785271 h 2.217509 l 0.521919,1.2785271 h 1.427404 L 35.61412,0.62940796 C 35.541101,0.44558045 35.416654,0.29727698 35.238526,0.18703611" id="path472" style="fill:#ffffff;stroke-width:0.15479"/>
  <path d="M 46.127693,0.06066601 43.969933,2.9213599 46.051451,5.879 h 1.711773 L 45.402792,2.9310862 47.843074,0.05799922 Z" id="path470" style="fill:#ffffff;stroke-width:0.156871"/>
  <path d="m 42.67545,5.8693 h 0.07218 V 5.87591 L 43.970043,5.8693 V 0.05491287 H 42.67545 Z" id="path385" style="fill:#ffffff;stroke-width:0.156701"/>
  <path d="m 13.412747,4.5524822 v 0.071341 h -0.0037 l 0.0037,1.2079011 h 3.29607 V 4.5524852 Z" id="path385-6" style="fill:#ffffff;stroke-width:0.117282"/>
  <path d="m 17.748008,0.01082952 v 0.06389977 h -0.0034 l 0.0034,1.08191821 H 20.7003 V 0.01083227 Z" id="path385-6-7" style="fill:#ffffff;stroke-width:0.105049"/>
  <path d="m 22.973092,2.3719046 v 0.071007 h -0.0037 l 0.0037,1.2022684 h 3.280653 V 2.3719077 Z" id="path385-6-7-5" style="fill:#ffffff;stroke-width:0.116734"/>
  <path d="m 31.241112,3.5691791 v 0.055377 h -0.0079 l 0.0079,0.9376129 h 6.867769 V 3.5691815 Z" id="path385-6-7-5-3" style="fill:#ffffff;stroke-width:0.149154"/>
  <path d="m 41.498712,0 v 0.06517608 h -0.0029 l 0.0029,1.10353412 h 2.471339 V 2.8844591e-6 Z" id="path385-6-7-5-3-5" style="fill:#ffffff;stroke-width:0.0970677"/>
  <path d="M 48.287573,0.060666 46.129814,2.9213599 48.21133,5.879 h 1.711773 L 47.56267,2.9310862 50.002952,0.05799921 Z" id="path395" style="fill:#ffffff;stroke-width:0.156871"/>
  <path d="m 7.253262,4.6720654 c -0.2479792,0 -0.4551608,-0.026826 -0.617256,-0.079333 C 6.4724971,4.5385119 6.328668,4.4235169 6.2079603,4.2519998 6.1189252,4.1347134 6.0567139,4.0148583 6.0227621,3.8944295 5.9888013,3.7745748 5.9708249,3.631029 5.9708249,3.4683737 L 5.9648355,0.01082952 4.6170303,0.01768604 V 3.7443531 c 0,0.1914794 0.013695,0.3658413 0.040809,0.5176599 0.027682,0.1506758 0.077051,0.3079126 0.1458222,0.468002 C 4.9865918,5.1515 5.2939286,5.4534268 5.7159893,5.6275091 6.0450152,5.7624884 6.4916255,5.8312707 7.0432402,5.8318304 L 8.9347131,5.82442 8.9287228,4.6723873 Z" id="path486" style="fill:#ffffff;stroke-width:0.155473"/>
</svg>