<?xml version="1.0" encoding="UTF-8" standalone="no"?>
<svg
   width="312.94962"
   height="38.378624"
   version="1.1"
   id="svg387"
   xmlns="http://www.w3.org/2000/svg"
   xmlns:svg="http://www.w3.org/2000/svg">
  <defs
     id="defs391" />
  <path
     id="path510"
     d="M 194.77988,0.034004 171.8,0.078864 l 0.0449,36.684592 v 1.229754 h 0.002 V 38.034 h 23.88943 c 2.75797,0 5.15556,-1.004159 7.12768,-2.989749 1.9645,-1.991332 2.95712,-4.447155 2.95712,-7.298986 0.002,-2.033517 -0.56245,-3.812694 -1.67027,-5.294263 -1.07903,-1.456614 -2.58425,-2.563001 -4.46627,-3.285461 1.8438,-0.866294 3.25699,-2.068849 4.18076,-3.579134 0.94679,-1.540879 1.42758,-3.34554 1.42759,-5.363603 V 9.56612 c -0.002,-0.218492 -0.0184,-0.436034 -0.051,-0.652605 C 204.95829,6.272501 203.8079,4.110598 201.83004,2.48535 199.85218,0.861983 197.48216,0.034 194.77986,0.034 Z m -3.20797,7.243922 c 0.0756,-1.3e-4 0.15239,4.99e-4 0.22637,0.0041 0.0741,0.0036 0.14584,0.0091 0.21822,0.01631 0.0724,0.0072 0.14339,0.01758 0.21414,0.02856 0.0707,0.01097 0.14094,0.02409 0.21005,0.03876 0.0691,0.01466 0.13852,0.03062 0.20599,0.04895 0.0674,0.01834 0.13406,0.03714 0.19985,0.05913 0.0658,0.02199 0.12965,0.04573 0.19375,0.07138 0.0642,0.02565 0.12725,0.05432 0.18966,0.08362 0.0624,0.02929 0.12489,0.06088 0.18559,0.09381 0.0607,0.03292 0.1205,0.06746 0.17945,0.104005 0.059,0.03655 0.11615,0.07404 0.17335,0.114208 0.0572,0.04016 0.11382,0.08267 0.16929,0.126441 0.0554,0.04377 0.11148,0.08927 0.16518,0.13664 0.0538,0.04737 0.10517,0.09588 0.15704,0.146836 0.0519,0.05095 0.10283,0.104535 0.15294,0.159073 0.0501,0.05453 0.10064,0.11117 0.14888,0.169269 0.0485,0.0575 0.0951,0.114287 0.14073,0.173348 0.0456,0.05906 0.0899,0.118859 0.13256,0.179467 0.0426,0.0606 0.0827,0.123443 0.12235,0.185585 0.0397,0.06215 0.0776,0.123966 0.1142,0.187624 0.0366,0.06365 0.0724,0.128583 0.10603,0.193742 0.0337,0.06515 0.0653,0.131178 0.0958,0.197821 0.0305,0.06665 0.0602,0.133787 0.0877,0.2019 0.0275,0.06811 0.0529,0.136414 0.0775,0.205979 0.0245,0.06957 0.0478,0.141094 0.0694,0.212096 0.0215,0.07101 0.0407,0.141713 0.0591,0.214137 0.0184,0.07242 0.0356,0.146425 0.0509,0.220255 0.0153,0.07383 0.0285,0.147075 0.0408,0.222293 0.0122,0.07522 0.0234,0.15182 0.0326,0.228412 0.009,0.07659 0.0183,0.154541 0.0245,0.232491 0.006,0.07795 0.009,0.15524 0.0122,0.23453 0.003,0.07929 0.006,0.160031 0.006,0.240647 0,0.148769 -0.005,0.293664 -0.0163,0.436432 -0.0107,0.142767 -0.0273,0.283139 -0.049,0.420114 -0.0216,0.136974 -0.0492,0.272408 -0.0816,0.4038 -0.0324,0.131392 -0.0709,0.259427 -0.11421,0.385445 -0.0432,0.126018 -0.0906,0.248277 -0.1448,0.369129 -0.0543,0.120855 -0.11437,0.238958 -0.17948,0.354856 -0.0651,0.115896 -0.13607,0.229429 -0.21208,0.340577 -0.0761,0.11115 -0.15777,0.221733 -0.24473,0.328343 -0.0435,0.05247 -0.0875,0.101671 -0.13256,0.150915 -0.045,0.04925 -0.0901,0.09674 -0.13665,0.142757 -0.0465,0.04602 -0.0948,0.09183 -0.14275,0.1346 -0.048,0.04277 -0.0953,0.08283 -0.1448,0.122364 -0.0496,0.03953 -0.0999,0.07793 -0.15091,0.114206 -0.0509,0.03628 -0.10251,0.071 -0.155,0.104005 -0.0524,0.03302 -0.10517,0.06406 -0.15907,0.09382 -0.0539,0.02976 -0.10986,0.05918 -0.1652,0.08566 -0.0553,0.02647 -0.11044,0.05023 -0.16722,0.07342 -0.0568,0.02319 -0.11516,0.04535 -0.17335,0.06526 -0.0581,0.0199 -0.11579,0.03846 -0.17539,0.05506 -0.0596,0.0166 -0.1205,0.03158 -0.18151,0.04487 -0.0611,0.01329 -0.12319,0.02468 -0.18558,0.03467 -0.0624,0.01 -0.1259,0.01781 -0.18966,0.02447 -0.0638,0.0067 -0.12862,0.01094 -0.19374,0.01427 -0.0651,0.0033 -0.1293,0.0061 -0.19578,0.0061 l -12.05077,-0.01427 V 7.27997 Z m -11.79177,15.464714 12.37097,0.002 c 1.17103,-0.0021 2.14895,0.45566 2.90409,1.360275 0.77237,0.931449 1.15021,1.995869 1.15021,3.25691 -0.002,1.138456 -0.35559,2.121045 -1.06659,2.918371 -0.69765,0.808791 -1.61741,1.215478 -2.73279,1.215478 l -12.62385,0.04487 z"
     style="fill:#ffffff;stroke-width:1.04417" />
  <path
     d="m 165.45683,0.08052 h -0.002 V 0.034 l -8.54925,0.04277 0.0446,15.411144 h -14.26399 l -0.041,-14.491967 V 0.080763 h -0.004 v -0.04652 l -8.88219,0.04276 0.0409,37.95578 8.60694,-0.04094 h 0.23812 v -0.002 h 0.0428 l -0.0428,-14.163618 v -0.0298 h 14.26195 l -0.002,14.237597 8.31486,-0.04277 h 0.23253 v -0.002 h 0.0447 L 165.4561,1.067166 Z"
     id="path492"
     style="fill:#ffffff;stroke-width:1.01343" />
  <path
     d="m 117.87392,14.87991 h -10.8925 c -1.25282,0 -2.28485,-0.412077 -3.16232,-1.265647 -0.95111,-0.910619 -1.40366,-1.56001 -1.32458,-2.717113 0.18947,-2.744776 3.29301,-3.337109 4.0454,-3.337109 l 20.06313,-0.002 0.009,-7.487345 h -22.754 c -3.4236,0 -6.21799,1.030218 -8.3097,3.068503 -2.09531,2.038286 -3.1587,4.727837 -3.1587,7.991379 -0.002,2.943422 1.10007,5.758054 3.24149,7.674967 2.14503,1.916912 4.67451,2.882686 7.51861,2.882686 h 9.89728 c 1.99788,0 3.50999,0.39553 4.50714,1.16452 0.9934,0.770804 1.48273,1.594988 1.48092,3.129239 0,1.383413 -1.82861,3.463994 -4.80331,3.712353 H 94.60062 v 8.370331 l 23.79954,0.006 c 3.01519,-0.006 5.53185,-1.114808 7.47262,-3.298421 1.9555,-2.207566 2.94522,-6.275018 2.94522,-9.468603 0,-3.120019 -0.98421,-5.662438 -2.92688,-7.566422 -1.92423,-1.891155 -4.623,-2.856928 -8.01713,-2.856928"
     id="path488"
     style="fill:#ffffff;stroke-width:1.00226" />
  <path
     d="m 47.9758,30.49965 c -1.61883,0 -2.97133,-0.175117 -4.0295,-0.517891 -1.0674,-0.353959 -2.00633,-1.104656 -2.79432,-2.224334 -0.58123,-0.765656 -0.98735,-1.54808 -1.20899,-2.33425 -0.2217,-0.782423 -0.33905,-1.719502 -0.33905,-2.781329 l -0.0391,-22.57115 -8.79859,0.04476 v 24.328007 c 0,1.249994 0.0894,2.388244 0.26641,3.379329 0.18071,0.983625 0.50299,2.01008 0.95194,3.055157 1.19418,2.751492 3.2005,4.722496 5.95575,5.85892 2.14791,0.881157 5.06342,1.330174 8.66441,1.333828 l 12.3477,-0.04841 -0.0391,-7.52057 z"
     id="path486"
     style="fill:#ffffff;stroke-width:1.01494" />
  <path
     d="M 70.6856,23.240856 75.27927,12.002485 79.8025,23.240856 Z M 78.93459,1.161191 C 77.79035,0.436066 76.5589,0.070696 75.24411,0.070696 c -1.28337,0 -2.50361,0.365341 -3.6423,1.090495 -1.16283,0.723275 -1.96952,1.689444 -2.45358,2.891281 L 55.22227,38.070696 h 9.38585 l 3.41426,-8.35103 h 14.47256 l 3.40496,8.35103 h 9.31906 L 81.38191,4.052472 C 80.91086,2.850736 80.08925,1.884516 78.93389,1.161191"
     id="path484"
     style="fill:#ffffff;stroke-width:1.01038" />
  <path
     d="M 13.33366,7.502027 C 14.51895,7.15995 16.67304,7.15995 19.39852,7.15995 l 11.46805,-0.03878 -0.0388,-7.050474 -10.67323,0.004 c -6.5919,0 -11.42372,0.928224 -14.35218,2.760633 C 3.33386,4.355269 1.6198,6.683232 0.71003,9.769249 0.23299,11.507389 0.00186,13.03841 0,14.456604 L 0.0443,38.070676 H 8.16723 L 8.12653,22.364564 v -0.510342 l 22.73967,-0.04251 -0.0425,-6.262701 -22.84343,0.0407 c 0,-1.815808 0.32174,-3.402235 0.98554,-4.853773 0.87832,-1.908186 2.21151,-2.609022 4.36752,-3.234002"
     id="path482"
     style="fill:#ffffff;stroke-width:1.00739" />
  <path
     d="m 262.05037,30.71131 c -2.25387,0 -4.02776,-1.175817 -5.27367,-3.49426 -1.08541,-1.969582 -1.62997,-4.415341 -1.62997,-7.270908 0,-3.389067 0.43194,-6.150503 1.27738,-8.216025 1.07244,-2.669117 2.82792,-4.02223 5.21837,-4.02223 l 14.9149,-0.04617 -0.048,-7.623491 H 262.1999 c -2.33503,0 -4.66273,0.48177 -6.90916,1.425016 -2.89248,1.216444 -5.1519,4.090514 -6.71539,7.437042 -1.42874,3.040204 -2.15603,6.569562 -2.15231,10.496053 0,4.062758 0.8085,8.365566 2.40524,11.435338 1.77388,3.387155 4.20677,5.578284 7.23038,6.51787 1.53573,0.454096 3.13985,0.686674 4.77163,0.686674 l 15.83007,0.002 -0.048,-7.326317 z"
     id="path474"
     style="fill:#ffffff;stroke-width:1.00566" />
  <path
     d="m 222.41871,23.299912 4.59606,-11.239537 4.51997,11.239537 z m 8.24802,-22.078924 c -1.13698,-0.730767 -2.37037,-1.092427 -3.68724,-1.092427 -1.27976,0 -2.50384,0.363519 -3.64821,1.092427 -1.15548,0.719631 -1.96235,1.6878 -2.45011,2.887842 l -13.92942,34.019731 h 9.38864 l 3.41461,-8.346338 h 14.47609 l 3.40713,8.346338 h 9.31822 L 233.11795,4.10883 c -0.47667,-1.200042 -1.28907,-2.16818 -2.45192,-2.887842"
     id="path472"
     style="fill:#ffffff;stroke-width:1.01048" />
  <g
     id="g650"
     transform="translate(-2,-0.026)">
    <path
       d="m 303.75147,0.422033 -14.08604,18.674859 13.58833,19.307732 h 11.1746 L 299.01925,19.160385 314.94962,0.404624 Z"
       id="path470"
       style="fill:#ffffff;stroke-width:1.02407" />
    <path
       d="m 281.21492,38.341302 h 0.47131 v 0.04317 l 7.97997,-0.04317 V 0.384476 h -8.45126 z"
       id="path385"
       style="fill:#ffffff;stroke-width:1.02296" />
  </g>
  <path
     d="m 88.185452,29.719 v 0.465717 h -0.02447 L 88.185452,38.07 h 21.517038 v -8.35098 z"
     id="path385-6"
     style="fill:#ffffff;stroke-width:0.765626" />
  <path
     d="m 116.48642,0.070696 v 0.41714332 h -0.022 l 0.022,7.06285668 h 19.27282 V 0.07071398 Z"
     id="path385-6-7"
     style="fill:#ffffff;stroke-width:0.685772" />
  <path
     d="m 150.59622,15.484 v 0.463543 h -0.0246 l 0.0246,7.848512 h 21.41639 V 15.48402 Z"
     id="path385-6-7-5"
     style="fill:#ffffff;stroke-width:0.762049" />
  <path
     d="m 204.57058,23.299912 v 0.361503 h -0.0515 l 0.0515,6.120818 h 44.83339 v -6.482305 z"
     id="path385-6-7-5-3"
     style="fill:#ffffff;stroke-width:0.973691" />
  <path
     d="m 271.53308,0 v 0.4254751 h -0.0185 l 0.0185,7.2039669 H 287.6662 V 1.883e-5 Z"
     id="path385-6-7-5-3-5"
     style="fill:#ffffff;stroke-width:0.633666" />
</svg>
