<?xml version="1.0" encoding="UTF-8" standalone="no"?>
<!-- Created with Inkscape (http://www.inkscape.org/) -->

<svg
   width="235.82448mm"
   height="39.368492mm"
   viewBox="0 0 235.82447 39.368491"
   version="1.1"
   id="svg5"
   xml:space="preserve"
   xmlns="http://www.w3.org/2000/svg"
   xmlns:svg="http://www.w3.org/2000/svg"><defs
     id="defs2" /><g
     id="layer1"
     transform="translate(-52.719278,47.843844)"><path
       id="path761"
       style="fill:#ffffff;stroke-width:0.177487"
       d="m 190.65635,-46.340934 c -0.54933,0.04579 -0.87954,0.586142 -0.99943,1.074354 -0.027,0.147669 -0.13798,0.253934 -0.29345,0.236252 -1.79735,0.220046 -3.60481,0.348771 -5.4105,0.479562 -1.01101,0.05631 -2.02384,0.165682 -3.03711,0.116176 -0.15049,-0.0091 -0.3904,-0.02929 -0.57465,-0.04702 -0.49491,-0.04464 -1.0064,-0.128037 -1.51774,-0.202573 -1.69439,-0.177128 -3.4032,-0.102754 -5.10039,-0.0076 -1.30609,0.06978 -2.60401,0.236154 -3.90645,0.348374 -0.67061,0.05949 -1.34808,0.02505 -2.00437,-0.129405 -0.71372,-0.130077 -1.43813,-0.182975 -2.1621,-0.204782 -0.51217,-0.02471 -1.03508,-0.232178 -1.3306,-0.669497 -0.28263,-0.394239 -0.59111,-0.860695 -1.09195,-0.979395 -0.43489,-0.07759 -0.83142,0.272368 -0.92665,0.681601 -0.20356,0.755603 -0.18059,1.54872 -0.21097,2.325008 -0.0156,1.698207 -0.048,3.376888 -0.14068,5.068898 -0.0437,1.001744 -0.15968,2.044494 -0.16907,3.076411 0.0153,0.421992 -0.027,0.912945 0.27062,1.252016 0.25799,0.300575 0.74666,0.232468 0.98857,-0.05426 0.31076,-0.32205 0.39762,-0.784264 0.54762,-1.191805 0.26017,-0.769874 0.38386,-1.58792 0.73357,-2.325565 0.31335,-0.536985 0.90304,-0.826596 1.46854,-1.026936 1.09298,-0.385749 2.23683,-0.654409 3.39598,-0.722082 0.60188,-0.02397 1.22192,-0.01503 1.80005,-0.204078 0.38393,0.861335 0.16216,1.885325 0.63563,2.717662 0.12156,0.204727 0.28398,0.381312 0.45681,0.543637 -0.40068,-0.03825 -0.80134,-0.07665 -1.20199,-0.115237 0.10716,4.889079 0.15908,9.780664 0.4056,14.665269 0.0402,0.877404 0.12754,1.759294 0.0564,2.637034 -0.0603,0.17812 -0.15498,0.350795 -0.17861,0.543792 -0.29124,1.380342 -0.26483,2.802263 -0.49853,4.190368 -0.0518,0.221501 -0.09,0.527709 -0.36231,0.577871 -0.52512,0.177652 -1.11562,0.29142 -1.52112,0.696386 -0.26718,0.267674 -0.18407,0.736568 0.11989,0.940512 0.39334,0.339156 0.95099,0.29519 1.43643,0.32372 1.17374,0.0017 2.35544,-0.07462 3.50508,-0.320974 0.45051,-0.09733 0.86961,-0.384513 1.3485,-0.296608 0.58618,0.08566 1.16991,0.192336 1.76286,0.22429 2.03279,0.155908 4.07273,0.213587 6.11121,0.217413 0.37593,-0.01739 0.85425,0.01632 1.08761,-0.341511 0.18617,-0.288655 0.0358,-0.672359 -0.24156,-0.842862 -0.62378,-0.376737 -1.36467,-0.47217 -2.06673,-0.616598 0.26534,-0.536363 0.18262,-1.158933 0.18983,-1.73745 -0.0583,-1.545174 -0.0901,-3.10025 -0.35933,-4.626501 -0.11995,-0.63735 -0.52945,-1.243756 -0.38913,-1.91203 0.11476,-0.385347 0.31861,-0.74404 0.3576,-1.151351 0.16932,-1.319011 0.14838,-2.652789 0.1906,-3.979701 0.0715,-3.892071 0.0781,-7.794826 0.22852,-11.675557 0.007,-0.169769 0.0142,-0.339513 0.0243,-0.509129 1.1951,0.08096 2.36032,0.411808 3.55741,0.467156 0.40253,0.02143 0.7972,-0.1324 1.08675,-0.410311 0.28096,0.0018 0.49581,0.243938 0.691,0.422638 0.60339,0.623882 1.07552,1.38743 1.27252,2.238917 0.24875,0.925296 0.30346,1.903278 0.66629,2.796508 0.1502,0.351915 0.63808,0.515401 0.94242,0.260081 0.33659,-0.298368 0.3223,-0.792163 0.37924,-1.203691 0.21443,-2.753238 0.14462,-5.523645 0.43586,-8.271848 0.0392,-0.248751 0.0522,-0.538335 0.13332,-0.758092 0.91989,0.235953 1.83085,0.526992 2.6952,0.922628 0.006,0.07608 -0.1737,0.197594 -0.21744,0.30784 -0.2654,0.370377 -0.32834,0.872787 -0.12301,1.285047 0.12002,0.31949 0.4029,0.616051 0.30278,0.981551 -0.10492,0.677741 -0.42431,1.379398 -0.18068,2.062801 0.0861,0.224824 0.26173,0.443539 0.17203,0.698288 -0.11823,0.454483 -0.21311,0.915204 -0.24236,1.385326 -0.11184,1.404496 -0.17092,2.816681 -0.11063,4.225097 0.0215,0.328502 0.0425,0.754912 0.3896,0.906103 0.20262,0.09482 0.43476,0.07088 0.64816,0.03074 -0.40784,0.607301 -0.70075,1.294995 -0.79456,2.02383 -0.18472,1.344361 -0.15212,2.706203 -0.16594,4.059933 -0.004,2.800067 0.0597,5.600174 0.0259,8.400145 -0.0263,0.726866 -0.004,1.470552 -0.19632,2.177659 -0.0373,0.250123 -0.30953,0.272907 -0.51104,0.300061 -0.42881,0.07776 -0.88815,0.08949 -1.27938,0.297042 -0.29788,0.164365 -0.38356,0.599268 -0.15339,0.854959 0.27879,0.293246 0.72007,0.312312 1.0965,0.380381 0.99168,0.08892 2.00033,0.02672 2.97349,-0.184018 0.25762,-0.04861 0.48435,-0.181591 0.71933,-0.283186 0.40817,0.0049 0.79386,0.178623 1.19951,0.219504 1.64989,0.246451 3.31588,0.382251 4.98241,0.445481 1.04023,0.03082 2.07699,-0.09043 3.11528,-0.135152 0.2444,-0.01452 0.4888,-0.02904 0.7332,-0.04356 -1.10142,-0.559104 -2.2175,-1.090268 -3.30936,-1.667597 -0.33543,-0.161822 -0.53986,-0.498496 -0.59257,-0.859523 -0.16772,-0.973026 -0.11802,-1.966595 -0.12129,-2.949728 0.0252,-1.667206 0.0539,-3.334465 0.10666,-5.001065 0.0268,-0.610634 0.0413,-1.272704 0.13281,-1.897041 0.55032,0.485468 1.07399,1.018413 1.47008,1.639194 0.28863,0.532636 0.78359,0.908765 1.28634,1.22523 0.12659,0.0811 0.21051,0.192993 0.24443,0.337447 0.32507,0.584891 0.79376,1.075418 1.23439,1.574247 0.58609,0.643708 1.18707,1.289193 1.63406,2.040176 0.19023,0.43453 0.47443,0.844396 0.87715,1.104265 0.4768,0.464756 0.90121,1.01428 1.29469,1.518428 0.81221,1.050914 1.61589,2.148935 2.66937,2.979999 0.54291,0.438602 1.20806,0.689076 1.88868,0.815911 1.2692,0.255969 2.55731,0.407565 3.84373,0.546172 0.35627,0.04423 0.80129,-0.05128 0.93963,-0.423749 0.12733,-0.277114 0.0258,-0.585224 0.0329,-0.875914 0.49782,-0.199519 1.05009,-0.189047 1.57791,-0.230991 2.55175,-0.09609 5.10601,-0.03491 7.65884,-0.03473 2.20393,0.0032 4.40912,0.02223 6.6119,-0.05828 0.24984,-0.01223 0.5293,-0.02592 0.69872,-0.236101 0.18498,-0.0906 0.18079,-0.237019 0.10048,-0.405905 -0.0288,-0.142687 -0.0715,-0.276429 -0.20915,-0.348604 -0.46269,-0.359027 -1.01127,-0.586211 -1.49542,-0.910048 -0.12188,-0.1895 -0.0493,-0.44309 -0.0455,-0.656254 0.11097,-0.982035 0.29478,-1.954533 0.46306,-2.928022 0.0229,-0.116827 0.0668,-0.328575 0.0977,-0.481753 0.0833,-0.389433 0.1899,-0.852229 0.29251,-1.268672 0.39534,-1.550498 0.81784,-3.100441 1.41072,-4.588724 0.0691,-0.126527 0.10249,-0.301858 0.21134,-0.390256 0.90603,-0.137731 1.82791,-0.104711 2.74186,-0.11948 1.09506,-0.01259 2.19736,0.0027 3.28344,-0.155273 0.302,-0.04721 0.59994,-0.265049 0.90854,-0.113631 0.39013,0.162449 0.4306,0.629989 0.52604,0.986412 0.0492,0.221564 0.093,0.45085 0.12439,0.644697 0.11113,0.85232 0.26406,1.702342 0.54691,2.516481 0.31647,0.950499 0.76579,1.847265 1.02941,2.817095 0.21179,0.639583 0.29128,1.308936 0.41146,1.968603 0.075,0.448408 0.20704,0.882957 0.34364,1.315059 0.0253,0.169505 0.0922,0.39501 -0.0202,0.534334 -0.79547,0.293124 -1.67607,0.29283 -2.44687,0.657323 -0.34508,0.146579 -0.55346,0.601924 -0.32712,0.929661 0.25062,0.376203 0.75291,0.421605 1.16705,0.418544 3.58984,0.05817 7.18045,0.03315 10.7706,0.02612 4.386,-0.02613 8.77237,-0.03309 13.15779,-0.114539 1.66722,-0.04736 3.34216,-0.05834 4.99679,-0.289298 0.84849,-0.112897 1.65951,-0.399131 2.44157,-0.737761 1.85388,-0.76962 3.73115,-1.482651 5.57265,-2.281431 0.73907,-0.321331 1.44807,-0.737174 2.00359,-1.329571 1.04238,-1.049157 1.90767,-2.357471 2.14765,-3.839765 0.0875,-0.873924 0.38367,-1.733593 0.74221,-2.541236 0.5394,-1.280985 0.88288,-2.643976 0.98695,-4.031019 0.25368,-3.065868 0.0788,-6.210028 -0.90043,-9.144831 -0.30129,-0.877327 -0.62484,-1.807112 -1.32824,-2.448848 -0.2703,-0.23962 -0.60018,-0.403919 -0.94827,-0.496094 0.31298,-0.180811 0.54121,-0.557644 0.40984,-0.92012 -0.24132,-0.578509 -0.75353,-0.981226 -1.20353,-1.395125 -0.82259,-0.700119 -1.68902,-1.377725 -2.69748,-1.788985 -1.29059,-0.57441 -2.61731,-1.07787 -3.9828,-1.443159 -1.34533,-0.274664 -2.72193,-0.343117 -4.08869,-0.437642 -3.48766,-0.199213 -6.98256,-0.21081 -10.47475,-0.175019 -1.35879,0.003 -2.745,-0.01048 -4.08606,-0.04526 -0.41156,-0.01259 -0.78703,-0.02754 -1.18441,-0.04858 -0.82561,-0.036 -1.65949,-0.10636 -2.48203,0.0021 -0.53118,0.08362 -0.89207,0.7185 -0.65164,1.211297 0.27067,0.569182 0.86214,0.881613 1.39102,1.17266 0.50197,0.276526 1.07579,0.456819 1.49254,0.863907 0.19735,0.275375 0.28403,0.617931 0.50694,0.879911 0.10938,0.153022 0.24609,0.293259 0.39688,0.399598 -0.15534,0.88895 -0.31629,1.779309 -0.38172,2.680978 -0.16092,2.076077 -0.0947,4.16121 -0.0477,6.240523 0.0425,0.726525 0.0263,1.475383 0.26041,2.172912 0.0961,0.260389 0.27699,0.498919 0.53176,0.619601 -0.5715,0.527751 -1.06186,1.201735 -1.14975,1.995244 -0.10784,0.930153 0.0131,1.873792 0.20317,2.785724 0.10377,0.547309 0.32012,1.061005 0.55539,1.56283 -0.26101,0.630785 -0.52443,1.269405 -0.60857,1.952633 -0.21256,1.543606 -0.22746,3.104322 -0.33351,4.656783 -0.0427,0.64535 -0.0804,1.292371 -0.1788,1.932183 -0.63701,-1.055796 -1.11085,-2.200597 -1.57192,-3.341407 -0.32303,-0.82722 -0.62653,-1.666944 -0.7965,-2.540561 -0.11316,-0.474498 -0.33401,-0.910513 -0.54872,-1.344464 -0.40362,-1.00639 -0.58182,-2.081916 -0.88778,-3.118591 -0.4409,-1.54128 -0.88477,-3.089896 -1.5298,-4.56057 -0.35774,-0.794303 -0.64867,-1.615985 -0.91297,-2.445287 -0.16073,-0.465621 -0.44378,-0.964099 -0.95755,-1.092441 0.40778,-0.419978 0.44757,-1.054544 0.31472,-1.596919 -0.12843,-0.607277 -0.38296,-1.207878 -0.53869,-1.780135 -0.47284,-1.503958 -0.74869,-3.069897 -1.35215,-4.531505 -0.16161,-0.419804 -0.50729,-0.748189 -0.59562,-1.200007 -0.0664,-0.288433 -0.11474,-0.619514 0.0104,-0.896425 0.32005,-0.368562 0.84694,-0.45952 1.31078,-0.497207 0.56795,0.0029 1.23378,-0.07861 1.59525,-0.570511 0.27075,-0.360251 0.14243,-0.900078 -0.21669,-1.150911 -0.35357,-0.279558 -0.83918,-0.244501 -1.26445,-0.286313 -2.06632,-0.0709 -4.13455,-0.01679 -6.20147,4.31e-4 -2.06455,0.03526 -4.13101,0.03559 -6.19316,0.148476 -0.45101,0.05252 -0.96666,0.0233 -1.3352,0.331272 -0.27083,0.252439 -0.23783,0.714642 0.0484,0.941943 0.47108,0.390274 1.06323,0.602237 1.63991,0.784566 0.10826,0.05694 0.38089,0.0136 0.24769,0.196853 -0.20771,0.513027 -0.41168,1.028994 -0.52623,1.572548 -0.22358,0.915371 -0.33969,1.855616 -0.63366,2.753757 -0.33418,1.165294 -0.88581,2.250255 -1.29509,3.388651 -0.7644,2.004915 -1.38241,4.079415 -1.63434,6.21601 -0.0851,0.501255 -0.2014,1.017733 -0.51573,1.429887 -0.31021,0.533691 -0.45233,1.139188 -0.58379,1.735752 -0.0432,0.159663 -0.0998,0.34159 -0.14071,0.461311 -0.0701,0.213876 -0.12593,0.368983 -0.20516,0.587264 -0.36206,0.958035 -0.80862,1.882354 -1.13962,2.852719 -0.58056,1.619475 -1.07994,3.274208 -1.37708,4.970907 -0.19212,0.83666 -0.42008,1.6876 -0.87463,2.424073 -0.2056,0.359386 -0.67534,0.33351 -1.03384,0.354229 -0.15479,0.003 -0.30964,0.0025 -0.46445,0.0041 -0.13527,-1.016759 -0.0941,-2.045266 -0.11411,-3.068227 -0.0447,-6.120913 0.16722,-12.243721 -0.0374,-18.363099 -0.061,-1.199455 -0.0871,-2.409304 -0.3207,-3.59082 -0.068,-0.299955 -0.15887,-0.612023 -0.38299,-0.835189 0.36007,-0.62575 0.65766,-1.320622 0.64694,-2.055672 0.0209,-0.262784 -0.0161,-0.578823 0.16799,-0.790149 0.37401,-0.202054 0.82024,-0.171201 1.22625,-0.267779 0.39403,-0.07441 0.86684,-0.122852 1.08768,-0.509868 0.34316,-0.54518 0.1615,-1.428136 -0.48665,-1.649595 -0.4739,-0.101161 -0.96794,-0.05081 -1.45034,-0.07003 -3.12571,0.01431 -6.25113,0.09333 -9.37434,0.215318 -0.63267,0.03934 -1.27219,0.03287 -1.89806,0.13997 -0.43142,0.125897 -0.68146,0.681368 -0.42838,1.070962 0.29208,0.468834 0.85888,0.648875 1.3544,0.821433 0.24574,0.07641 0.49375,0.145211 0.74055,0.21807 0.0735,1.035809 0.17184,2.07002 0.22272,3.107303 0.0122,0.318948 0.0257,0.705102 0.0384,1.049883 0.10232,3.833209 0.11694,7.717557 0.11642,11.570949 -0.005,2.979356 -0.0203,5.959022 -0.096,8.937542 -0.0223,1.067666 -0.0962,2.169282 -0.19445,3.246361 -0.0384,0.414877 -0.0674,0.832808 -0.15591,1.240703 -0.47396,-0.325088 -0.76812,-0.841944 -1.07924,-1.31231 -0.60301,-0.982763 -1.10704,-2.046663 -1.91287,-2.887072 -0.19025,-0.187952 -0.49488,-0.334201 -0.49295,-0.638048 -0.22782,-0.803323 -0.6475,-1.536539 -1.06104,-2.256607 -0.2713,-0.469935 -0.58755,-0.912752 -0.94984,-1.316059 -0.49542,-0.654283 -0.64222,-1.478362 -0.98584,-2.208377 -0.46988,-1.109403 -1.1076,-2.133705 -1.65623,-3.203421 0.56542,-0.478274 1.23974,-0.846191 1.81158,-1.330259 0.37584,-0.293431 0.71835,-0.629711 0.98106,-1.029499 0.50073,-0.664403 1.11479,-1.258546 1.44762,-2.03491 0.4789,-1.065544 0.67501,-2.230388 0.85039,-3.377467 0.19403,-1.363983 0.12739,-2.779872 -0.33228,-4.086572 -0.40463,-1.154134 -0.95542,-2.278028 -1.78439,-3.189327 -0.44706,-0.482613 -0.93454,-0.991997 -1.57975,-1.191803 -0.59373,-0.07011 -1.1518,-0.307792 -1.7048,-0.525031 -0.98602,-0.425532 -2.03104,-0.719547 -3.10331,-0.810511 -1.78085,-0.152778 -3.57085,-0.111916 -5.35631,-0.111226 -0.88069,0.02197 -1.77321,-0.01234 -2.64073,0.164296 -0.30935,0.04697 -0.56192,0.256093 -0.86326,0.319225 -0.55396,-0.01928 -1.07994,-0.233474 -1.62936,-0.29714 -1.20547,-0.194046 -2.42633,-0.248989 -3.64371,-0.315227 -0.29095,-0.03827 -0.60624,-0.02502 -0.87539,-0.147278 -0.17229,-0.229053 -0.45404,-0.382818 -0.74414,-0.355534 z m 12.00133,2.981214 c 1.27822,0.126084 2.41918,0.957702 3.04995,2.059522 0.27618,0.471429 0.49292,0.974558 0.74052,1.461193 -0.0251,1.883754 -0.0136,3.768333 -0.078,5.651336 -0.008,0.125359 -0.0132,0.272854 -0.0257,0.418827 -0.0345,0.263319 -0.0124,0.571387 -0.21894,0.770581 -0.20107,0.278328 -0.28697,0.617172 -0.31529,0.953301 -0.24423,0.658646 -0.71472,1.210887 -1.21864,1.689386 -0.49928,0.441725 -1.13246,0.79969 -1.81969,0.766591 -0.13044,-0.03622 -0.40419,0.08559 -0.4014,-0.113324 -0.11085,-1.114285 -0.13986,-2.213414 -0.20023,-3.331469 -0.0968,-2.119456 -0.14919,-4.244594 -0.39717,-6.353294 -0.0289,-0.422294 -0.30136,-0.846503 -0.0996,-1.264129 0.30501,-0.703247 0.44325,-1.462797 0.52893,-2.22018 0.0438,-0.195191 0.0981,-0.51032 0.3638,-0.488341 0.0305,0 0.061,0 0.0915,0 z m 66.51583,0.553971 c 1.32014,0.08963 2.66777,0.174758 3.92237,0.628708 0.48302,0.166323 0.90019,0.465757 1.27783,0.803246 1.34774,1.130639 2.54596,2.426931 3.90417,3.545004 -0.36066,0.42263 -0.24397,1.011537 -0.14867,1.508429 0.23542,1.162392 0.52094,2.286582 0.6954,3.460777 0.0149,0.126862 0.05,0.345964 0.0657,0.510283 0.0379,0.315899 0.0642,0.703101 0.0751,0.974474 0.0393,1.061503 -0.0326,2.07242 -0.10771,3.129947 -0.18593,2.291296 -0.38307,4.590078 -0.94404,6.842146 -0.23109,0.871635 -0.50718,1.746379 -0.97007,2.525241 -0.6137,0.848627 -1.48113,1.471684 -2.34971,2.037001 -0.4245,0.271261 -0.86503,0.516781 -1.31416,0.744741 -0.18785,0.09463 -0.44603,0.217196 -0.66611,0.312737 -0.70665,0.290235 -1.4273,0.59427 -2.19319,0.676402 -0.69892,0.03958 -1.38996,-0.130926 -2.06335,-0.298198 -0.2971,-0.07391 -0.62346,-0.233265 -0.68323,-0.566513 -0.16965,-0.596805 -0.10631,-1.225661 -0.14237,-1.838282 -0.12798,-6.495884 -0.1487,-12.993246 -0.20339,-19.490013 -0.003,-1.737542 -0.0405,-3.475858 0.004,-5.212956 0.005,-0.133387 0.0212,-0.266665 0.059,-0.394975 0.59409,0.03393 1.18822,0.06787 1.78231,0.101801 z m -27.98071,2.447912 c 0.38286,2.297787 0.80413,4.601263 1.55626,6.811518 0.28941,0.960504 0.54162,1.937869 0.62707,2.940193 0.0261,0.21445 0.0565,0.428323 0.0884,0.641971 -1.73753,0.01059 -3.47786,-0.06009 -5.20537,-0.250631 0.18547,-0.624467 0.4303,-1.202177 0.6165,-1.835031 0.16645,-0.601374 0.35452,-1.295982 0.0295,-1.87792 -0.16329,-0.12822 0.0119,-0.176927 0.11021,-0.266668 0.56014,-0.517957 0.76121,-1.289519 0.97122,-1.99643 0.25844,-0.979326 0.4869,-1.974336 0.56561,-2.985984 0.009,-0.311981 -0.0202,-0.67755 0.25,-0.898348 0.1211,-0.120335 0.24516,-0.23826 0.37879,-0.34468 0.004,0.02067 0.008,0.04134 0.0119,0.06201 z" /><path
       id="path757"
       style="fill:#ffffff;stroke-width:0.177487"
       d="m 142.42466,-44.808211 c -1.1654,0.05062 -2.34282,0.115417 -3.4773,0.404628 -0.82935,0.281911 -1.51722,0.856022 -2.17558,1.415417 -1.16643,1.052047 -2.23741,2.266429 -2.87495,3.716846 -0.60764,1.421931 -0.55465,3.005113 -0.48758,4.518252 0.0366,0.88595 0.10874,1.799286 0.5165,2.603746 0.48108,1.05034 1.23135,1.951228 2.01821,2.786335 0.5962,0.615545 1.26183,1.192557 2.07118,1.505339 1.31941,0.588851 2.80608,0.634241 4.22386,0.511204 1.3011,-0.138628 2.62734,-0.420629 3.75562,-1.112051 1.29794,-0.825596 2.34522,-2.006092 3.14695,-3.309806 0.5643,-0.913399 0.95402,-1.935665 1.09803,-3.001692 0.25871,-1.746726 0.24634,-3.565496 -0.27215,-5.265193 -0.33956,-1.120163 -1.11008,-2.042437 -1.96141,-2.818643 -0.60172,-0.581485 -1.27562,-1.1172 -2.07986,-1.384601 -0.89824,-0.316368 -1.82884,-0.60528 -2.7921,-0.5827 -0.23657,-0.0027 -0.47294,0.0079 -0.70942,0.01292 z m -0.99012,2.449981 c 0.78265,0.0054 1.60956,0.148807 2.25335,0.620422 0.38412,0.346696 0.5924,0.848431 0.74285,1.333981 0.31558,1.199245 0.31143,2.45142 0.34266,3.682757 0.005,1.35605 0.0279,2.713455 -0.0292,4.068614 -0.01,0.496305 -0.14785,0.979786 -0.38956,1.412534 -0.20817,0.397293 -0.42139,0.829021 -0.7988,1.091797 -0.59079,0.206767 -1.23597,0.230259 -1.85552,0.17861 -0.78042,-0.09208 -1.6118,-0.361976 -2.11374,-1.001297 -0.40626,-0.641062 -0.53597,-1.408478 -0.68047,-2.141514 -0.12909,-0.737571 -0.21452,-1.482272 -0.2771,-2.228246 -0.0132,-0.188572 -0.0305,-0.453599 -0.0398,-0.671275 -0.007,-0.178477 -0.0134,-0.4421 -0.015,-0.65319 0.007,-1.445173 0.12947,-2.889374 0.68612,-4.25324 0.23995,-0.548252 0.59147,-1.147901 1.21522,-1.303393 0.31008,-0.09475 0.63566,-0.131125 0.95895,-0.13656 z" /><path
       id="path755"
       style="fill:#ffffff;stroke-width:0.177487"
       d="m 164.46311,-26.422252 c -1.48009,0.10213 -2.9718,0.185717 -4.46316,0.189281 -0.54747,0.0052 -1.09494,0.01033 -1.64241,0.01587 -0.0212,3.824819 -0.082,7.649609 -0.061,11.474537 0.0213,0.906301 -0.003,1.817685 0.10417,2.719067 0.0314,0.229278 0.15879,0.471292 0.39915,0.526651 0.58627,0.13259 1.19648,0.109939 1.7946,0.139546 1.1956,0.03953 2.39975,-0.03913 3.58814,0.123894 0.11538,0.03771 0.29634,0.02892 0.36268,0.138377 0.008,0.788186 0.13008,1.5690348 0.19895,2.3533471 0.35419,-0.7134199 0.77884,-1.3946131 1.06092,-2.1414741 0.201,-0.870381 0.22854,-1.770099 0.27037,-2.659348 0.0427,-1.028639 0.0806,-2.057366 0.0629,-3.087068 -3.2e-4,-0.198438 -6.4e-4,-0.396875 -9.6e-4,-0.595313 -0.49784,0.826077 -1.00271,1.648119 -1.46427,2.495084 -0.20753,0.371015 -0.52032,0.723096 -0.96288,0.789006 -0.52876,0.09964 -1.07191,0.121449 -1.60878,0.107432 -0.0965,-0.655751 -0.12713,-1.308235 -0.16432,-1.955663 -0.0284,-0.698066 -0.0641,-1.356383 -0.0476,-2.05546 0.0105,-0.201367 0.003,-0.474059 0.24288,-0.543121 0.40546,-0.111678 0.80181,0.14196 1.12915,0.354383 0.43062,0.262916 0.74275,0.740383 1.25767,0.847323 0.39799,0.07534 0.74497,-0.262245 0.82092,-0.633651 0.13228,-0.541671 0.19287,-1.101471 0.22282,-1.657691 0.0188,-0.426575 -0.0757,-0.964517 -0.51808,-1.146403 -0.40477,-0.174495 -0.82128,0.08836 -1.11311,0.356053 -0.45287,0.211767 -0.97261,0.18778 -1.46125,0.228814 -0.204,0.0102 -0.40801,0.0204 -0.61201,0.0306 0.0834,-1.231402 0.10841,-2.468425 0.25645,-3.694398 0.0355,-0.184568 0.0484,-0.388572 0.14869,-0.549786 0.58549,-0.08587 1.17301,0.104577 1.71657,0.306324 0.45266,0.183489 0.98724,0.433708 1.46412,0.189254 0.43592,-0.228968 0.50683,-0.773221 0.50423,-1.216432 0.0119,-0.439166 0.003,-0.976257 -0.40172,-1.249993 -0.31184,-0.221183 -0.71943,-0.205956 -1.08385,-0.199046 z" /><path
       id="path753"
       style="fill:#ffffff;stroke-width:0.177487"
       d="m 144.69223,-25.338598 c 0.0108,4.14065 -0.0319,8.281922 0.0519,12.422024 0.0245,0.433244 -0.006,0.877091 0.0863,1.301961 0.15571,0.438563 0.65138,0.58696 1.0737,0.603227 0.83376,0.04739 1.66994,0.01366 2.50471,0.02385 0.008,-1.873589 -0.0194,-3.747558 0.0227,-5.620845 0.006,-0.202033 0.0121,-0.438322 0.0231,-0.638125 0.0217,-0.142653 -0.0538,-0.404855 0.17497,-0.305282 1.12625,0.137862 2.24446,0.332185 3.36503,0.50881 -0.0684,2.018472 -0.13625,4.036968 -0.20463,6.055442 1.31568,0 2.63136,0 3.94704,0 -0.0629,-3.680828 -0.16891,-7.361108 -0.18948,-11.042528 0.0106,-0.876197 -0.0196,-1.756823 0.0773,-2.628987 0.14492,-0.405128 0.30498,-0.805458 0.45579,-1.208712 -1.45779,0 -2.91559,0 -4.37338,0 0.063,1.332775 0.15116,2.700496 0.19327,4.011641 0.007,0.857282 0.0575,1.723668 -0.0909,2.572451 -0.83631,-0.04459 -1.65438,-0.07232 -2.47179,-0.134413 -0.25955,-0.01934 -0.51996,-0.04371 -0.77762,-0.07436 -0.10319,-1.982128 -0.049,-3.968101 -0.0631,-5.951987 -0.0386,-0.128984 0.0857,-0.420875 -0.0794,-0.423333 -1.24186,0 -2.48371,0 -3.72556,0 0,0.176389 0,0.352777 0,0.529166 z" /><path
       id="path751"
       style="fill:#ffffff;stroke-width:0.177487"
       d="m 143.13832,-25.926158 c -3.42366,0.08788 -6.84897,0.133054 -10.27081,0.275992 -0.22794,0.0189 -0.48511,0.0091 -0.68857,0.104042 -0.33072,0.398077 -0.33452,0.942293 -0.39032,1.43174 -0.0254,0.399767 -0.0486,0.903028 0.3318,1.151443 0.40256,0.259371 0.90267,0.101074 1.34064,0.04372 0.52436,-0.07666 1.05103,-0.245687 1.58473,-0.186439 0.4628,0.09774 0.63143,0.620805 0.67877,1.034357 0.075,0.559776 -0.1242,1.103794 -0.13255,1.661604 -0.17061,2.945548 -0.0985,5.897846 -0.11472,8.846693 0,0.191823 0,0.383646 0,0.575469 0.93882,-0.02176 1.88867,0.06341 2.81802,-0.104389 0.55001,-0.08781 1.10439,-0.426222 1.26545,-0.986499 0.13157,-0.694922 0.13058,-1.408107 0.18006,-2.112316 0.10987,-2.188025 0.13567,-4.378765 0.20234,-6.568292 0.0325,-0.732788 0.0396,-1.513046 0.13614,-2.258608 -0.031,-0.19118 0.17693,-0.158123 0.30363,-0.179485 0.61782,-0.04163 1.24947,0.05821 1.80557,0.336931 0.32556,0.129799 0.73973,0.247544 1.03457,-0.01189 0.25551,-0.339892 0.24763,-0.790871 0.31795,-1.193234 0.0734,-0.624102 0.13147,-1.24991 0.19778,-1.874795 -0.20016,0.0047 -0.40032,0.0093 -0.60048,0.01395 z" /><path
       id="path759"
       style="fill:#ffffff;stroke-width:0.177487"
       d="m 159.35231,-46.655127 c -0.34846,0.402053 -0.69692,0.804103 -1.04541,1.20613 -2.50456,0.01475 -5.00974,-0.004 -7.51375,0.05581 -0.61823,0.04095 -1.23645,0.08199 -1.85467,0.122992 0.56346,0.456107 1.12685,0.91231 1.69033,1.368391 0,4.522033 0,9.044064 0,13.566097 -0.60003,0.516369 -1.20027,1.032492 -1.8004,1.548744 1.59376,0.06762 3.18766,0.185647 4.78378,0.127982 0.94098,-0.03685 1.89006,-0.04314 2.81971,-0.205778 0.34066,-0.03615 0.64204,-0.355081 0.56655,-0.70717 -0.0898,-0.433649 -0.54555,-0.642805 -0.92053,-0.789546 -0.10492,-0.05786 -0.26619,-0.04622 -0.34539,-0.117395 -0.19808,-0.881515 -0.21641,-1.79097 -0.30591,-2.687434 -0.0584,-0.732774 -0.1421,-1.463889 -0.22703,-2.193385 0.0259,-0.453599 0.15679,-0.939427 0.48083,-1.271434 0.36146,-0.163002 0.78032,-0.05084 1.14356,0.0569 0.35478,0.132164 0.75399,0.291811 0.95272,0.633169 0.0391,0.339463 0.19451,0.741394 0.57028,0.810331 0.3345,0.07786 0.64288,-0.187282 0.76814,-0.483735 0.34355,-0.810929 0.44116,-1.70534 0.45785,-2.579171 -0.0138,-0.439338 -0.009,-0.977321 -0.39119,-1.272273 -0.31954,-0.24856 -0.79001,-0.07827 -0.98444,0.247531 -0.16537,0.234257 -0.26213,0.506717 -0.37413,0.768426 -0.69697,-0.01723 -1.39673,0.02942 -2.09186,-0.02739 -0.19521,0.01389 -0.17457,-0.219397 -0.20097,-0.351107 -0.0688,-0.958313 -0.0187,-1.921012 -0.0331,-2.881151 0,-0.477869 0,-0.955738 0,-1.433608 0.8231,0.125881 1.66594,0.181467 2.46294,0.435229 0.39245,0.110104 0.48781,0.551384 0.74121,0.819785 0.19894,0.276757 0.55795,0.540737 0.90619,0.371245 0.41338,-0.188645 0.48394,-0.69637 0.55022,-1.096825 0.18136,-1.38208 0.10418,-2.780461 0.12417,-4.170349 3.4e-4,-0.314777 6.8e-4,-0.629555 10e-4,-0.944335 -0.31022,0.357775 -0.62046,0.715547 -0.93069,1.073319 z" /><path
       id="path749"
       style="fill:#ffffff;stroke-width:0.177487"
       d="m 106.64132,-47.829731 c -0.40858,0.09306 -0.59791,0.521393 -0.78416,0.854739 -0.1812,0.320892 -0.2557,0.718841 -0.53772,0.971505 -0.33882,0.142293 -0.71917,0.02073 -1.06791,-0.02349 -1.25409,-0.252045 -2.49483,-0.594329 -3.77122,-0.717995 -1.489749,-0.08356 -2.972003,0.28666 -4.345325,0.840706 -1.153811,0.492209 -2.306381,1.133454 -3.071812,2.155557 -0.797396,1.094862 -1.337673,2.356599 -1.75431,3.639164 -0.263686,0.879433 -0.512585,1.79632 -0.428339,2.722589 0.116216,0.486098 -0.111236,0.95091 -0.25528,1.402498 -0.355741,1.33222 -0.03825,2.739493 0.462311,3.990949 0.569947,1.392309 1.388232,2.677673 2.351315,3.830097 0.540285,0.605285 1.170157,1.124162 1.847049,1.569101 0.333891,0.245819 0.64711,0.5295 0.862502,0.886746 0.795686,0.912939 1.897885,1.4629 2.842299,2.198182 0.595601,0.410795 1.10845,0.997956 1.83597,1.17267 0.42702,0.289018 0.64844,0.789768 0.99084,1.166818 0.2227,0.295722 0.50967,0.528072 0.79232,0.761844 0.45679,0.447987 0.46003,1.136293 0.49835,1.732613 0.006,0.77547 0.0525,1.569572 -0.148,2.326283 -0.20211,0.714052 -0.86919,1.13193 -1.43928,1.53593 -0.38884,0.278654 -0.81551,0.544444 -1.30837,0.563724 -0.994018,0.06955 -2.014304,0.137962 -2.990696,-0.105725 -0.150096,-0.04699 -0.330846,-0.08614 -0.386654,-0.252243 -0.325081,-0.437594 -0.847913,-0.644387 -1.293461,-0.928624 -0.307729,-0.279664 -0.355814,-0.725389 -0.463725,-1.105937 -0.40237,-1.809446 -0.585475,-3.668231 -1.125971,-5.446043 -0.244838,-0.870458 -1.468636,-1.245711 -2.151679,-0.647581 -0.35165,0.302469 -0.3244,0.80948 -0.39429,1.22936 -0.195151,2.094434 -0.230995,4.20011 -0.244946,6.302481 -0.0026,0.783809 0.01116,1.568807 -0.04289,2.351278 -0.631986,-0.173813 -1.256228,-0.37792 -1.89756,-0.51625 -0.0065,-5.493245 0.01488,-10.986979 -0.09319,-16.479491 -0.03513,-2.279766 -0.11694,-4.577424 -0.202911,-6.843633 -0.03353,-1.120449 -0.07393,-2.24151 -0.05219,-3.362584 0.0037,-0.134469 0.0081,-0.28444 0.01696,-0.427773 0.03802,-0.413914 0.02623,-0.867172 0.248571,-1.23222 0.180869,-0.160306 0.436917,-0.151974 0.645255,-0.214265 0.528167,-0.131119 1.11474,-0.187817 1.550559,-0.542811 0.375177,-0.33596 0.425691,-0.922039 0.271823,-1.377654 -0.194887,-0.54478 -0.795475,-0.776912 -1.327875,-0.833363 -1.09184,-0.114999 -2.189467,0.03228 -3.275931,0.14061 -1.508281,0.164505 -3.033024,0.282546 -4.547245,0.123367 -1.218031,-0.08207 -2.435815,-0.207494 -3.657555,-0.203546 -0.442405,-0.0016 -0.952797,0.0921 -1.198724,0.503465 -0.298442,0.390437 -0.242247,0.981241 0.122285,1.310121 0.572442,0.52719 1.382868,0.609701 2.112116,0.761942 0.08169,1.078566 0.165711,2.157388 0.171463,3.239696 0.07616,5.057079 0.05965,10.115073 0.0342,15.172499 -0.01684,2.533891 -0.03735,5.067924 -0.09818,7.601204 -0.01676,0.525341 -0.03755,1.104519 -0.06359,1.65014 -0.01842,0.418542 -0.03685,0.837083 -0.05527,1.255625 -0.473307,-0.253817 -0.771715,-0.731028 -1.064045,-1.165087 -0.457039,-0.73175 -0.819259,-1.519632 -1.309008,-2.231972 -0.328737,-0.481762 -0.690914,-0.941054 -0.973412,-1.45346 -0.676164,-1.115068 -1.180709,-2.338755 -1.99171,-3.368616 -0.271549,-0.258895 -0.432313,-0.603623 -0.529322,-0.960536 -0.484635,-1.284025 -1.175073,-2.476955 -1.69282,-3.746394 -0.08729,-0.270743 -0.242851,-0.561485 -0.177194,-0.850355 0.229981,-0.20638 0.516953,-0.346506 0.747241,-0.557588 0.92375,-0.782794 1.793822,-1.637427 2.547242,-2.586686 0.466711,-0.605184 0.675703,-1.356786 0.919604,-2.069142 0.410856,-1.314852 0.715497,-2.659581 1.071896,-3.989639 -0.50459,-1.47003 -0.951725,-2.97407 -1.695683,-4.346027 -0.530558,-0.89802 -1.207108,-1.730248 -2.054423,-2.346719 -0.293722,-0.22905 -0.652368,-0.329883 -1.006481,-0.420058 -0.94611,-0.288856 -1.847498,-0.721577 -2.82471,-0.906111 -1.831909,-0.37982 -3.713046,-0.394009 -5.576324,-0.418271 -1.218872,0.0049 -2.445332,-0.02784 -3.656007,0.13617 -0.449839,0.05944 -0.872627,0.294796 -1.337201,0.227608 -1.058439,-0.106723 -2.096037,-0.388954 -3.164203,-0.408562 -0.962969,-0.03036 -1.993063,0.06791 -2.811661,0.620435 -0.33257,0.236212 -0.626755,0.644914 -0.489,1.070253 0.150662,0.497639 0.699093,0.669742 1.13764,0.829844 0.580011,0.222494 1.206259,0.328189 1.756899,0.622747 0.112723,0.0795 -0.121761,0.200949 -0.159165,0.294556 -0.285393,0.343185 -0.274749,0.825309 -0.126958,1.22474 0.123354,0.53091 0.103984,1.084278 0.137742,1.6261 0.09067,2.598163 -0.03973,5.202378 0.150448,7.797088 0.03029,0.373743 0.134863,0.771922 0.396914,1.048539 0.147315,0.07189 0.300683,0.142859 0.148789,0.307451 -0.170818,0.378698 -0.371713,0.75021 -0.52396,1.133364 -0.06877,4.067881 -0.115972,8.136178 -0.19825,12.203802 -0.0064,0.318897 -0.02212,0.68716 -0.03278,0.993741 -0.04163,0.60384 -0.03407,1.224775 -0.219107,1.806609 -0.04279,0.144357 -0.239778,0.05561 -0.347369,0.08125 -0.529479,9.8e-5 -1.080381,-0.01899 -1.585177,0.161618 -0.427267,0.155398 -0.700881,0.681485 -0.485394,1.103818 0.212794,0.467167 0.765183,0.59807 1.231387,0.63245 1.091306,0.08821 2.196571,0.04015 3.27583,-0.144624 0.497549,-0.08846 0.987444,-0.375859 1.50314,-0.220099 0.863328,0.20779 1.756148,0.245509 2.637341,0.32825 1.280757,0.08934 2.564585,0.189426 3.849277,0.161083 0.388874,-0.02424 0.775898,-0.122504 1.138367,-0.263032 0.335595,-0.132154 0.508402,-0.558729 0.326596,-0.877467 -0.270621,-0.515898 -0.860189,-0.732896 -1.381873,-0.904547 -0.25822,-0.09518 -0.642216,-0.121081 -0.706874,-0.449519 -0.17244,-0.717508 -0.125511,-1.464813 -0.143674,-2.197137 0.01609,-2.367005 0.03279,-4.741114 0.143637,-7.095519 -0.0081,-0.181129 0.0123,-0.316161 0.156837,-0.118333 0.303855,0.279803 0.543356,0.619033 0.725302,0.987875 1.009777,1.449655 2.323309,2.648916 3.436421,4.014565 0.318231,0.390017 0.645994,0.780077 0.862804,1.237467 0.387731,0.655222 0.959043,1.166487 1.496803,1.693797 0.632537,0.648753 1.179087,1.37202 1.734043,2.085953 0.866076,1.083234 1.980181,2.004836 3.30505,2.459022 1.21611,0.4257649 2.517249,0.548177 3.79861,0.553937 0.576858,-0.011554 1.260811,-0.1030209 1.598869,-0.633553 0.103714,-0.152521 0.149934,-0.335886 0.191204,-0.510564 0.420245,-0.266951 0.941482,-0.292467 1.423664,-0.351678 0.291754,-0.02642 0.557321,-0.03844 0.832528,-0.04623 0.966983,-0.02036 1.93385,0.02697 2.898015,0.09767 0.231326,0.01899 0.53874,0.0448 0.799404,0.06723 1.002311,0.09735 2.003219,0.208712 3.005532,0.305872 -0.03097,0.592487 -0.175659,1.2012745 -0.02016,1.786972 0.180422,0.4575572 0.736378,0.7100861 1.197102,0.5284894 0.646671,-0.2444221 1.059318,-0.8495136 1.411507,-1.4128512 0.257543,-0.4067522 0.426524,-0.8606812 0.670261,-1.2746782 0.375428,0.247978 0.852676,0.233932 1.283685,0.293579 1.752205,0.132014 3.514732,0.135779 5.268375,0.02765 1.69981,-0.100555 3.37367,-0.641085 4.79045,-1.590024 0.98335,-0.658791 1.87735,-1.453078 2.65713,-2.342875 0.6012,-0.686747 0.92767,-1.563113 1.09783,-2.449038 0.25348,-1.345573 0.4845,-2.713644 0.39605,-4.087935 -0.10268,-1.433158 -0.21642,-2.876944 -0.5735,-4.273216 -0.19015,-0.695254 -0.39939,-1.389084 -0.67954,-2.053622 -0.56828,-1.131398 -1.50566,-2.023041 -2.46497,-2.825665 -0.97258,-0.800288 -2.05185,-1.456984 -3.16187,-2.046737 -1.08948,-0.593183 -2.12953,-1.28229 -3.054863,-2.111365 -0.734761,-0.665049 -1.51026,-1.295667 -2.153682,-2.052963 -0.364612,-0.413422 -0.477856,-0.973516 -0.485359,-1.509826 -0.0165,-0.749451 -0.03538,-1.502659 0.03151,-2.250077 0.07229,-0.559459 0.552225,-0.937321 0.965221,-1.266167 0.465561,-0.335481 0.966902,-0.66073 1.533515,-0.788646 0.657678,-0.09869 1.328088,-0.0716 1.990908,-0.05255 0.65874,0.05345 1.38751,0.118731 1.9048,0.575156 0.29194,0.295876 0.41302,0.709652 0.6435,1.049692 0.24796,0.441389 0.59611,0.851218 0.64704,1.374825 0.18498,1.194734 0.0986,2.420351 0.34967,3.606123 0.0741,0.373346 0.33574,0.725384 0.72815,0.792575 0.57859,0.112861 1.20258,0.04794 1.73974,-0.19727 0.25782,-0.112768 0.42674,-0.364416 0.43477,-0.645727 0.11091,-1.279226 0.0961,-2.56586 0.1073,-3.848978 -0.003,-1.044083 -0.003,-2.089018 -0.0623,-3.131696 0.50056,0.08893 1.00715,0.201536 1.46813,0.42013 0.14739,0.122094 0.0795,0.356928 0.11481,0.524655 0.0958,2.190562 0.1101,4.419306 0.14076,6.629024 0.0517,5.26228 0.0801,10.525255 0.022,15.78759 -0.009,0.718174 -0.023,1.480285 -0.0496,2.170377 -0.0132,0.296698 -0.0343,0.578816 -0.0558,0.872815 -0.0756,0.821828 -0.10327,1.659814 -0.33693,2.45618 -0.0465,0.160039 -0.14812,0.334743 -0.34313,0.312127 -0.52002,0.06755 -1.11982,0.06165 -1.52497,0.443899 -0.31946,0.329136 -0.34202,0.872262 -0.15297,1.273307 0.26195,0.436198 0.81809,0.451205 1.26752,0.506511 1.62392,0.08917 3.25171,0.08853 4.87763,0.120004 3.48302,0.05884 6.9676,0.03858 10.44949,0.154183 0.42945,0.02082 0.86088,0.03374 1.28644,0.09883 0.0176,0.432565 -0.19164,0.88909 0.0209,1.3094551 0.2167,0.4182797 0.69749,0.5816017 1.09992,0.7669053 0.47115,0.2016284 1.07692,0.235884 1.47743,-0.1328076 0.50047,-0.4647247 0.60416,-1.1832088 0.70953,-1.8246358 0.16229,-1.267129 0.20423,-2.545881 0.32921,-3.816871 0.12835,-1.583192 0.32481,-3.19078 0.43539,-4.787368 0.023,-0.6463 0.14276,-1.31862 -0.0653,-1.946394 -0.13375,-0.400685 -0.56354,-0.58715 -0.95814,-0.604322 -0.53821,-0.06891 -1.17247,-0.05568 -1.56375,0.378291 -0.49711,0.552286 -0.52611,1.338858 -0.8392,1.986502 -0.32299,0.720461 -0.74987,1.453198 -1.44077,1.874452 -0.45038,0.234976 -0.99989,0.361336 -1.46089,0.459713 -0.63505,0.127008 -1.30864,0.21512 -1.92584,0.274413 -0.76777,0.07524 -1.53755,0.133506 -2.3018,0.240802 -0.0109,-2.185347 0.0548,-4.386551 -0.28784,-6.552573 -0.10504,-0.545647 -0.21112,-1.12251 -0.55759,-1.574064 0.54029,-0.565142 0.66546,-1.391483 0.85095,-2.099609 0.0625,-0.211537 0.0961,-0.450657 0.20118,-0.638207 0.78505,-0.07385 1.56925,0.06609 2.34883,0.143762 0.56153,0.06851 1.12318,0.143163 1.66163,0.236833 0.15597,0.01521 0.31578,0.03254 0.30146,0.227114 0.21802,0.905113 0.31735,1.864399 0.77821,2.689246 0.32187,0.455332 0.95178,0.602654 1.4795,0.508497 0.43062,-0.06878 0.81178,-0.387673 0.90966,-0.820174 0.2749,-0.97427 0.35512,-1.990037 0.47721,-2.991532 0.19728,-1.863707 0.33802,-3.732829 0.50293,-5.599605 -0.6791,0.123764 -1.37785,0.162825 -2.03944,0.367964 -0.51827,0.152905 -0.90402,0.598556 -1.04542,1.111901 -0.10042,0.273158 -0.11994,0.650142 -0.43151,0.794049 -0.56903,0.236228 -1.20073,0.241673 -1.80615,0.298394 -1.14762,0.07537 -2.34594,0.115599 -3.51466,0.17326 0.10699,-2.875023 0.18001,-5.751555 0.32164,-8.625131 0.0287,-0.428926 0.0439,-0.861229 0.12433,-1.284343 0.6704,-0.08734 1.34834,0.03148 2.01193,0.127249 0.99757,0.179438 2.00442,0.391504 2.93051,0.814819 0.48447,0.229576 0.9704,0.595114 1.07739,1.153175 0.11161,0.518454 0.35268,1.090441 0.88827,1.287497 0.43372,0.149231 0.93136,0.167939 1.36478,0.0078 0.53031,-0.225481 0.71207,-0.830678 0.80481,-1.35042 0.19831,-1.182548 0.26436,-2.382388 0.39525,-3.573423 0.0841,-0.986949 0.23822,-1.969831 0.25728,-2.961145 0.0116,-0.46758 -0.10572,-1.028534 -0.56851,-1.25089 -0.45015,-0.204893 -0.97649,-0.10124 -1.42782,0.04651 -0.47241,0.169032 -0.8304,0.531998 -1.14567,0.907439 -0.31798,0.275219 -0.77222,0.255592 -1.16427,0.330729 -1.38117,0.12591 -2.77062,0.11843 -4.15633,0.143661 -2.32326,0.01957 -4.64702,0.009 -6.9696,-0.05323 -1.05112,-0.02872 -2.14639,-0.08352 -3.20933,-0.197482 -0.53192,-0.07167 -1.09503,-0.08868 -1.58345,-0.331615 -0.27933,-0.187159 -0.24932,-0.57499 -0.39911,-0.847487 -0.23607,-0.535255 -0.58128,-1.094174 -1.14364,-1.326095 -0.1288,-0.04156 -0.27715,-0.07882 -0.41083,-0.04341 z m -42.240833,5.936072 c 0.908243,0.0404 1.670998,0.616956 2.340137,1.179164 0.442854,0.387638 0.862711,0.80052 1.294267,1.200536 -0.04474,2.193367 -0.0319,4.365551 -0.227277,6.547334 -0.146801,1.151091 -0.406244,2.311432 -0.955598,3.3425 -0.270537,0.495096 -0.656516,0.972476 -1.217496,1.141534 -0.40839,0.144968 -0.85874,0.291952 -1.292426,0.182417 -0.141132,-0.644001 -0.131204,-1.310611 -0.181274,-1.965926 -0.03899,-0.788172 -0.06313,-1.570714 -0.07946,-2.344893 -0.03196,-1.463434 -0.0056,-2.929779 -0.140698,-4.389102 -0.03513,-0.709271 -0.233571,-1.406966 -0.200324,-2.118944 0.04988,-0.248902 0.199176,-0.468366 0.238803,-0.723048 0.169958,-0.67295 0.227687,-1.366425 0.295262,-2.055188 0.04203,0.0012 0.08406,0.0024 0.126089,0.0036 z" /></g></svg>
