<?xml version="1.0" encoding="utf-8"?>
<svg version="1.1" viewBox="0 0 3840 854.2" xmlns="http://www.w3.org/2000/svg">
  <path class="st2" d="M 180.9 586.4 C 180.9 677.7 235 689 259.5 689 C 305.4 689 323.6 654.4 323.6 618.3 C 323.6 576.9 301.3 564.1 184.9 513.2 C 131.9 490.9 0.2 435.6 0.2 288 C 0.2 129.8 104 46.3 242.4 46.3 C 355.5 46.3 504.9 107.6 507.9 296.6 L 332.3 296.6 C 332.3 269.9 326.4 213.6 267.1 213.6 C 233.4 213.6 200.7 238 200.7 275.2 C 200.7 311.3 212.5 320.9 348.2 384.6 C 489.1 450.4 531.8 534.2 531.8 609.7 C 531.8 735 461.6 854.1 261.5 854.1 C 110.9 854.2 -4.9 740.4 0.2 586.4 L 180.9 586.4 Z" style="fill: rgb(255, 255, 255);"/>
  <polygon class="st2" points="1324.4 854.2 1105.6 854.2 1074.3 47.2 1304.3 334.2" style="fill: rgb(255, 255, 255);"/>
  <polygon class="st2" points="784.5 854.2 565.6 854.2 534.3 47.2 753.2 47.2" style="fill: rgb(255, 255, 255);"/>
  <polygon class="st2" points="2305.5 854.2 2079.7 854.2 1619 195.8 1740.8 47.2" style="fill: rgb(255, 255, 255);"/>
  <polygon class="st2" points="1797.2 813.5 1599.8 854.2 1149.3 210.3 1074.3 47.2 1261 47.2" style="fill: rgb(255, 255, 255);"/>
  <polygon class="st2" points="1324.4 854.2 1088.8 854.2 563.5 103.4 760.2 47.2 1300 817.8" style="fill: rgb(255, 255, 255);"/>
  <rect x="776.4" y="419.2" transform="matrix(0, -1, 1, 0, 202.312302, 1518.413086)" class="st2" width="168" height="477.8" style="fill: rgb(255, 255, 255);"/>
  <polygon class="st2" points="1798.8 854.2 1599.8 854.2 1577.9 801.8 1548.6 47.2 1740.8 47.2 1772.4 172.5" style="fill: rgb(255, 255, 255);"/>
  <path class="st2" d="M 2440.6 706.6 C 2421.7 672.9 2410.4 614.6 2463.4 527.8 C 2517.4 439.5 2573.2 421 2610.6 421 C 2629.6 421 2643.3 425.8 2649.6 428.6 L 2916.9 47.1 L 2134.8 47.1 L 1961.9 47.1 L 1785.8 47.1 L 2236.6 690.3 L 2238.3 694.2 L 2351.4 854.1 L 2355.4 848.4 L 2447.4 717.1 C 2445 713.8 2442.7 710.3 2440.6 706.6 Z" style="fill: rgb(255, 255, 255);"/>
  <path class="st2" d="M 3665.3 191.7 C 3681.4 205.4 3844.5 74.4 3839.9 13.1 C 3834.7 -56.3 3640.5 170.6 3665.3 191.7 Z" style="fill: rgb(255, 255, 255);"/>
  <path class="st2" d="M 3808.5 387.6 C 3791.1 369.8 3734.8 456 3676.9 446.4 C 3646.4 441.3 3649.4 411.8 3652.1 399.2 C 3652.8 395.9 3655.5 393.3 3658.9 392.6 C 3718.6 380.2 3824.1 263.5 3788.3 221.9 C 3754.8 182.9 3660.5 243.8 3627.7 286.2 C 3588.5 336.8 3551.8 406.8 3522.1 442.8 C 3463.4 513.9 3470.4 446.1 3480.4 424.9 C 3501.5 380.3 3518.9 294.3 3491.1 276 C 3466.9 260.1 3429.8 306.6 3417.3 324.8 C 3385.9 370.4 3362.2 360.8 3376.7 322.1 C 3395.6 272 3418.6 200.4 3389.8 190.5 C 3350.3 176.9 3304.5 318.2 3291.7 365.8 C 3279.6 411 3215.2 576 3174.8 551.4 C 3148.5 535.3 3176 462.5 3188.1 436.2 C 3215.6 376.7 3222.3 350.1 3202.1 341.9 C 3157.9 323.9 3098.6 470 3081.5 499.1 C 3051.8 549.7 2997.1 611.9 2994.4 551.4 C 2991.7 490.9 3087.4 415 3050.4 386.3 C 3013.5 357.6 2951.3 485.4 2951.3 485.4 C 2913 572.5 2894.9 555.1 2894.9 555.1 C 2889.5 463.3 2852.6 408.7 2808.1 408.7 C 2763 408.7 2724.7 458.8 2707.4 515 C 2699.5 552.4 2666.8 623.4 2599.2 663.8 C 2561.8 686.1 2486.6 694.6 2516.7 610.3 C 2516.7 610.3 2542.7 545.2 2586.9 562.9 C 2621.1 576.6 2674.4 470.9 2641.6 451.3 C 2641.6 451.3 2563.6 409.3 2483.5 540.4 C 2398.6 679.2 2489 743.2 2536.3 742.7 C 2592.5 742.1 2670.5 648.4 2681.8 632.5 C 2689.7 621.5 2700.8 609.4 2706 623.5 C 2727.7 682.9 2767 695.5 2795.6 694.6 C 2839.1 693.3 2857.1 649.2 2876.9 625.6 C 2895.1 604 2948 545.4 2949.1 583.7 C 2950.8 641.6 3031 672.8 3059.1 611.5 C 3085 555 3109.2 563.4 3113.3 588.1 C 3122.3 642 3155.8 631.8 3155.8 631.8 C 3206 631.8 3261.9 527.3 3281.7 484 C 3298.6 447 3309 465.5 3306.8 496.5 C 3302.6 554.4 3283 610.5 3273.7 651.3 C 3262.8 698.8 3280.9 769.2 3313.7 769.2 C 3337.3 769.2 3345.1 640.4 3342.1 604 C 3342.1 563.7 3389.2 572.6 3422.5 569.8 C 3476.7 565.2 3512.4 518.2 3560.2 451.8 C 3562.9 448.1 3568.7 448.9 3570.1 453.3 C 3590.4 515.7 3629.7 519.6 3656.8 515.2 C 3732.4 502.9 3819.7 399 3808.5 387.6 Z M 3724.7 267.6 C 3739.7 286.1 3685.5 356.7 3660.8 342.1 C 3641.7 330.8 3711.1 250.9 3724.7 267.6 Z M 2813.3 634.3 C 2780.8 660.6 2756.8 634.6 2756.9 607.2 C 2757 583.4 2751.3 549.3 2776 518.7 C 2796.5 493.3 2818.1 484.9 2816.7 512.6 C 2815.9 529.2 2812.5 544.2 2826.6 572.1 C 2844.1 606.5 2836.7 615.3 2813.3 634.3 Z M 3427.4 451.2 C 3413 480.2 3401.4 496.6 3382.2 491.8 C 3369.1 488.5 3369.7 461.3 3382.6 431.6 C 3398.3 395.5 3420.4 369.2 3432.8 374.6 C 3445.2 380 3447.2 411.5 3427.4 451.2 Z" style="fill: rgb(255, 255, 255);"/>
</svg>