<?xml version="1.0" encoding="UTF-8" standalone="no"?>
<!-- Created with Inkscape (http://www.inkscape.org/) -->

<svg
   version="1.1"
   id="svg1"
   width="264.81128"
   height="40"
   viewBox="0 0 264.81128 40.000001"
   xmlns="http://www.w3.org/2000/svg"
   xmlns:svg="http://www.w3.org/2000/svg">
  <defs
     id="defs1" />
  <g
     id="g1"
     transform="translate(-0.2128012,-411.24172)">
    <path
       style="fill:#ffffff;stroke-width:0.332095"
       d="m 0.28790499,450.40326 c 0.11977752,-0.47723 0.96901141,-2.53206 1.88718631,-4.5663 2.4574193,-5.44445 3.6636821,-10.96981 4.7748144,-21.87133 0.6785573,-6.65745 0.6945719,-6.44603 -0.5064707,-6.68624 -1.5881531,-0.31763 -2.6482647,-1.6025 -2.6482647,-3.20975 0,-1.45995 0.4660345,-2.65002 1.037759,-2.65002 0.1926108,0 0.6234416,0.33625 0.9574015,0.74722 0.5372421,0.66111 0.8877309,0.74187 3.0420823,0.7009 1.3391859,-0.0255 3.6850019,-0.28712 5.2129249,-0.58146 7.499153,-1.44464 17.537524,-1.38443 23.501756,0.14096 2.936013,0.75091 4.256979,1.44143 5.214245,2.72572 0.645707,0.86628 0.652319,0.96582 0.136085,2.04838 -1.05152,2.20506 -7.207588,4.50493 -16.131104,6.02646 -5.070288,0.86453 -7.030615,1.00364 -7.030615,0.49892 0,-0.50293 0.394439,-0.64322 5.214153,-1.85451 4.975096,-1.25037 6.983076,-2.29712 7.56148,-3.9418 0.28616,-0.8137 0.213866,-1.03299 -0.559972,-1.69862 -0.488704,-0.42037 -1.651197,-0.92786 -2.583319,-1.12776 -1.807394,-0.38762 -8.554424,-0.49603 -10.213986,-0.16412 l -0.996761,0.19936 -1.056479,5.36323 c -3.319786,16.85293 -6.331764,22.92124 -14.6682317,29.55251 -1.8424879,1.46561 -2.44987661,1.56424 -2.14468431,0.34825 z M 156.38126,450.3577 c 0.1247,-0.5023 1.02303,-2.70657 1.99627,-4.8984 2.42718,-5.46619 3.5035,-10.51081 4.65678,-21.82576 0.65426,-6.41916 0.67618,-6.11762 -0.46128,-6.34511 -0.52777,-0.10556 -1.37461,-0.54891 -1.88187,-0.98523 -0.75995,-0.65369 -0.92228,-1.0625 -0.92228,-2.32261 0,-1.57152 0.50755,-2.56097 1.31368,-2.56097 0.25162,0 0.45749,0.21817 0.45749,0.48481 0,0.27485 0.55446,0.65094 1.28029,0.8684 1.3393,0.40126 2.30189,0.31455 9.67882,-0.87188 6.99257,-1.12463 18.24307,-0.63509 22.86269,0.99481 3.76995,1.33012 4.92736,3.62787 2.73737,5.43435 -1.0309,0.85035 -4.55495,2.36944 -7.37923,3.18091 -5.33883,1.53393 -14.89988,2.98514 -14.89988,2.26155 0,-0.55396 0.3179,-0.66983 5.21415,-1.90036 5.01111,-1.25941 6.9553,-2.28283 7.50964,-3.95307 0.69731,-2.101 -2.20038,-3.17857 -8.54744,-3.17857 -5.89025,0 -5.64051,-0.12911 -6.32627,3.27041 -1.58769,7.8707 -2.6537,12.46063 -3.55967,15.32688 -2.01424,6.37259 -5.49376,11.58914 -10.57111,15.84841 -2.7668,2.321 -3.51219,2.59748 -3.15815,1.17143 z m 105.09496,-6.6163 c -3.19309,-1.59744 -6.44392,-4.81133 -7.93951,-7.84929 l -1.09395,-2.22216 h -2.95149 c -2.88773,0 -2.95871,0.019 -3.2863,0.88066 -0.83011,2.18333 -2.51395,5.17249 -3.38251,6.00462 -0.8258,0.79118 -1.30942,0.93859 -3.67307,1.11961 -1.49713,0.11466 -2.79033,0.14776 -2.87379,0.0736 -0.0834,-0.0742 1.59777,-1.83958 3.73606,-3.92308 2.1383,-2.08349 3.88782,-3.94551 3.88782,-4.13781 0,-0.1923 -0.38344,-0.34964 -0.85207,-0.34964 -0.46864,0 -1.16133,-0.1655 -1.53929,-0.3678 -1.01381,-0.54256 -0.16345,-0.94927 1.99785,-0.9555 l 1.7651,-0.005 1.10561,-2.40769 c 1.30332,-2.83823 2.17211,-5.33026 2.17211,-6.23046 0,-0.40902 -0.45518,-0.88005 -1.24535,-1.28872 l -1.24536,-0.64408 0.99629,-0.39553 c 0.753,-0.29895 1.34807,-0.3042 2.43691,-0.0215 2.76078,0.71678 3.78259,1.97345 5.56418,6.84308 0.66697,1.82306 1.33542,3.44818 1.48543,3.61139 0.15002,0.16319 1.65066,0.31264 3.33478,0.33209 2.14616,0.0248 3.10417,0.16094 3.20291,0.45521 0.20824,0.62061 -1.96667,1.40667 -3.89209,1.40667 -1.11718,0 -1.67011,0.13761 -1.66803,0.41511 0.006,0.84971 1.9844,3.81546 4.19309,6.28692 1.2538,1.40297 2.54961,3.00948 2.87958,3.57002 0.584,0.99209 0.58299,1.01917 -0.0384,1.01917 -0.3511,0 -1.73552,-0.5489 -3.07651,-1.21977 z m -9.6884,-12.14704 c -0.0842,-0.22832 -0.48593,-1.42386 -0.89285,-2.65676 -0.40692,-1.2329 -0.7858,-2.24163 -0.84196,-2.24163 -0.10821,0 -2.50049,4.95767 -2.50049,5.18193 0,0.0724 0.98735,0.13158 2.19413,0.13158 1.61552,0 2.15381,-0.10948 2.04117,-0.41512 z M 35.450309,443.30451 c -2.301944,-0.81867 -5.198944,-2.8327 -7.343151,-5.10505 -1.985844,-2.10452 -3.039921,-4.1369 -3.050649,-5.88197 -0.0071,-1.15509 0.05189,-1.21048 2.234345,-2.09776 4.707479,-1.91384 5.999553,-3.48903 3.429561,-4.18106 -1.290315,-0.34745 -4.569738,-0.15029 -5.331534,0.32052 -0.217393,0.13436 -0.819649,2.28306 -1.338347,4.7749 -1.028748,4.9421 -1.545172,6.7687 -2.116471,7.486 -0.399051,0.50103 -5.512804,3.90733 -6.34584,4.22699 -0.673783,0.25856 -0.671824,0.25086 0.683195,-2.68189 1.047858,-2.26795 3.452966,-10.47656 3.461194,-11.81302 0.0017,-0.27633 -0.333153,-0.64994 -0.74412,-0.83024 -0.549213,-0.24095 -0.774524,-0.65782 -0.850283,-1.57318 -0.108619,-1.3124 0.178466,-1.51499 1.222723,-0.86285 0.474424,0.29629 1.79238,0.2127 5.846517,-0.37083 8.619649,-1.24064 12.793451,-0.71145 12.793451,1.62206 0,1.38221 -1.745002,2.75763 -5.129909,4.0434 -1.562197,0.5934 -2.840357,1.20599 -2.840357,1.36131 0,0.4814 2.691314,5.67085 3.712782,7.15904 0.532985,0.77653 1.708959,2.15175 2.613275,3.05606 0.904316,0.90432 1.644209,1.72605 1.644209,1.82607 0,0.30347 -0.744731,0.16375 -2.550591,-0.4785 z m 175.002981,0.0405 c -4.94411,-1.70825 -9.83667,-6.67287 -10.56559,-10.72117 l -0.21823,-1.21211 3.53193,-1.70361 c 1.94256,-0.93699 3.62069,-1.9349 3.72917,-2.2176 0.37089,-0.96654 -0.76455,-1.61464 -2.80573,-1.6015 -1.04677,0.007 -2.43392,0.11753 -3.08256,0.2462 l -1.17933,0.23394 -0.76921,4.0655 c -0.42306,2.23601 -1.05778,5.00349 -1.41048,6.14995 l -0.64128,2.08446 -3.30768,2.20228 c -1.81922,1.21124 -3.40322,2.10672 -3.51999,1.98996 -0.11676,-0.11677 0.34559,-1.43277 1.02745,-2.92444 1.0213,-2.23424 3.49335,-10.52284 3.50464,-11.75079 0.002,-0.18501 -0.33315,-0.48389 -0.74412,-0.66419 -0.54922,-0.24095 -0.77452,-0.65782 -0.85029,-1.57318 -0.11422,-1.38008 -0.0947,-1.39686 1.02955,-0.88463 0.59938,0.27309 1.9969,0.19243 5.75395,-0.33211 6.33429,-0.88435 9.77784,-0.89544 11.66779,-0.0375 1.14402,0.51928 1.4114,0.80731 1.4114,1.52034 0,1.43014 -1.79853,2.90076 -5.06443,4.14108 -1.68279,0.63909 -2.90583,1.29319 -2.90583,1.5541 0,0.57775 1.77115,4.09533 3.14728,6.25061 0.58569,0.9173 1.92656,2.59853 2.97971,3.73606 1.05315,1.13752 1.71192,2.06335 1.46393,2.05738 -0.24799,-0.006 -1.22991,-0.27999 -2.18205,-0.60898 z M 46.967452,442.47909 c 0,-0.0866 0.430829,-1.24474 0.957398,-2.57373 1.021549,-2.57822 1.870977,-6.2029 2.177826,-9.29319 0.164646,-1.65815 0.09753,-1.97992 -0.53608,-2.57023 -0.398361,-0.37112 -0.660443,-0.71919 -0.582411,-0.77348 0.07804,-0.0543 1.113257,-0.41238 2.300494,-0.79575 1.187238,-0.38336 2.719024,-0.94029 3.403969,-1.23762 l 1.245355,-0.54061 2.62e-4,2.41214 c 3.32e-4,3.26669 1.146118,5.68264 3.960578,8.35129 1.25458,1.18957 2.180316,1.83446 2.366343,1.64844 0.476681,-0.47669 1.54054,-5.0054 1.806082,-7.68828 0.202153,-2.04241 0.150777,-2.524 -0.325382,-3.05016 -0.542374,-0.5993 -0.493022,-0.66122 1.209872,-1.51767 0.976425,-0.49107 2.510857,-1.42909 3.409851,-2.08447 1.303453,-0.95023 1.591296,-1.05967 1.421068,-0.54025 -0.117408,0.35825 -0.660038,1.9261 -1.205845,3.48411 -0.655236,1.87038 -1.282483,4.85959 -1.846305,8.79876 -0.490926,3.42988 -1.040818,6.15291 -1.293575,6.40566 -0.364799,0.3648 -0.888469,0.26656 -3.075998,-0.57704 -3.231954,-1.24637 -5.440213,-2.6013 -7.494177,-4.59824 -1.414616,-1.37534 -1.590215,-1.4603 -1.823335,-0.88211 -0.141884,0.3519 -0.251116,1.63964 -0.242744,2.86167 0.01381,2.0155 -0.05234,2.2388 -0.712171,2.40442 -0.400067,0.10041 -1.506825,0.70708 -2.459464,1.34815 -1.539956,1.03631 -2.661611,1.46119 -2.661611,1.00819 z m 43.504376,-1.03967 c -3.561435,-0.95383 -5.500086,-2.95559 -5.867592,-6.05862 -0.146676,-1.23845 -0.352704,-1.69683 -0.817301,-1.81832 -0.884158,-0.23121 -0.768433,-0.8392 0.206301,-1.08384 0.598766,-0.15028 0.933583,-0.56182 1.211347,-1.48892 0.512621,-1.71097 1.13034,-2.1888 5.526723,-4.27515 l 3.746474,-1.77793 1.987307,0.60171 c 1.629527,0.49337 2.207544,0.53411 3.210623,0.22625 0.67283,-0.20649 1.27555,-0.32321 1.33939,-0.25936 0.30623,0.30622 -0.42137,1.96989 -1.248995,2.85587 -1.126923,1.20638 -2.745557,1.31148 -4.93029,0.32013 -0.79622,-0.36129 -1.749956,-0.6569 -2.119417,-0.6569 -0.943734,0 -2.715073,1.16133 -3.148548,2.06425 -0.966999,2.01422 -1.14764,1.92089 3.717604,1.92089 2.44929,0 4.535477,0.13304 4.635973,0.29564 0.100491,0.16261 -0.324237,0.53622 -0.943852,0.83024 -0.816278,0.38735 -2.100166,0.53459 -4.661441,0.53459 h -3.534877 l 0.225482,1.24535 c 0.515956,2.84972 1.901756,4.23547 5.617448,5.61726 1.369242,0.5092 2.48953,1.04145 2.48953,1.18278 0,0.43643 -4.713208,0.24062 -6.641889,-0.27592 z m 24.162892,0.0786 c -1.80909,-0.67223 -2.853,-1.43496 -3.6072,-2.63561 -1.26848,-2.01933 -0.34944,-6.23899 1.87974,-8.63067 l 0.86451,-0.92751 -0.85691,-0.67404 c -1.54162,-1.21263 -0.92633,-3.77858 0.65727,-2.74097 0.6569,0.43042 1.31579,0.44471 4.83867,0.10494 6.46497,-0.62353 8.9378,-0.0723 11.19179,2.49487 1.27716,1.4546 1.52611,2.36706 1.28451,4.70799 -0.34576,3.35002 -2.89044,6.40043 -6.51529,7.81009 -2.35397,0.91543 -7.84906,1.19248 -9.73709,0.49091 z m 7.18133,-1.33463 c 2.09314,-0.87457 3.25013,-3.4367 3.29358,-7.29353 0.041,-3.63056 -1.25655,-5.52968 -3.7778,-5.52968 -2.72911,0 -5.12226,3.18934 -5.50502,7.33651 -0.23982,2.59858 0.23298,4.32259 1.44745,5.27788 1.00431,0.79 2.93805,0.87891 4.54179,0.20882 z m 10.27857,1.37383 c 2.16853,-4.94491 3.09535,-8.88353 2.09041,-8.88353 -0.78553,0 -0.66305,-0.50779 0.26998,-1.11913 0.60539,-0.39666 0.83683,-0.8817 0.91325,-1.91391 0.11344,-1.53212 0.22569,-1.62989 3.03876,-2.64633 1.06705,-0.38556 2.89918,-1.35763 4.07139,-2.16015 1.17219,-0.80252 2.33766,-1.45913 2.58992,-1.45913 0.25226,0 1.1101,0.2956 1.90631,0.6569 2.03502,0.9234 3.19618,0.87394 3.66553,-0.15616 0.29263,-0.64228 0.477,-0.74474 0.82312,-0.45748 1.15402,0.95776 -0.0687,3.89672 -2.00548,4.82029 -1.49752,0.71412 -3.33359,0.36158 -4.57328,-0.87812 l -0.94714,-0.94713 -1.86496,1.12302 c -1.02573,0.61766 -1.99335,1.16694 -2.15027,1.22062 -0.15692,0.0537 -0.3821,0.5833 -0.5004,1.17693 l -0.21507,1.07931 h 3.69455 c 2.36122,0 3.69455,0.12596 3.69455,0.34903 0,0.66756 -2.47873,1.37848 -5.08512,1.45846 l -2.62253,0.0805 -1.27856,2.72011 c -0.70321,1.49604 -1.72085,3.25665 -2.26142,3.91245 -1.41296,1.71419 -3.7573,3.17219 -3.25354,2.02348 z m 48.57771,0.0452 c -3.59516,-0.84382 -6.1806,-3.4293 -6.1806,-6.18067 0,-1.23535 -0.11889,-1.48138 -0.85022,-1.75943 -0.92353,-0.35113 -0.81202,-0.88658 0.26784,-1.28606 0.39383,-0.14568 0.90158,-0.86672 1.21137,-1.72022 0.51583,-1.42114 0.66967,-1.53805 4.68452,-3.55996 2.37257,-1.19484 4.43576,-2.03089 4.81537,-1.9513 0.36531,0.0766 1.37678,0.3392 2.24773,0.58361 1.25299,0.35162 1.80299,0.36154 2.63485,0.0476 0.57823,-0.21825 1.11649,-0.33166 1.19612,-0.25201 0.34417,0.34416 -0.37756,1.99781 -1.25479,2.87504 -1.17813,1.17813 -2.67565,1.25347 -5.00424,0.25174 -1.08022,-0.46471 -1.93274,-0.62647 -2.52202,-0.47857 -1.1678,0.2931 -3.10931,2.25372 -3.10931,3.13992 0,0.67403 0.15024,0.6974 4.48328,0.6974 4.69264,0 5.4838,0.28003 3.33161,1.17928 -0.74598,0.31168 -2.32526,0.48119 -4.48327,0.48119 h -3.33162 v 1.02911 c 0,2.58943 2.06783,4.699 5.83469,5.95254 1.17457,0.39087 2.13558,0.84793 2.13558,1.01569 0,0.38518 -4.38807,0.3386 -6.10689,-0.0648 z M 76.334887,441.03656 c -4.033303,-1.39436 -6.120822,-4.63162 -6.120822,-9.492 0,-3.0061 0.320583,-3.44196 3.41595,-4.64424 2.428208,-0.94315 4.458976,-2.11198 5.181019,-2.98199 0.597949,-0.72049 1.643953,-0.6856 3.405191,0.11359 1.741356,0.79016 2.719302,0.84193 3.274185,0.17334 0.613352,-0.73905 1.328554,-0.60482 1.327136,0.24907 -0.0013,0.83889 -1.128866,2.84518 -1.950337,3.47056 -0.821602,0.62546 -3.381423,0.51876 -4.524263,-0.18859 -0.920579,-0.5698 -1.097224,-0.5785 -2.324661,-0.11457 -0.730608,0.27614 -1.739345,0.88125 -2.241638,1.34471 -0.787864,0.72694 -0.91326,1.09874 -0.91326,2.70787 0,3.47165 2.712883,7.2054 6.326463,8.70713 0.897296,0.37291 1.550688,0.80868 1.45198,0.96839 -0.311721,0.50438 -4.55092,0.29381 -6.306943,-0.31327 z m 137.816023,-0.0261 c -0.74496,-0.33835 -1.69018,-1.04195 -2.10047,-1.56356 l -0.74599,-0.94837 0.7024,-0.56877 c 0.86363,-0.69933 5.99161,-2.70767 6.25108,-2.4482 0.10334,0.10333 -0.2058,0.5988 -0.68696,1.10104 -1.3257,1.38373 -0.1955,2.40653 2.64494,2.39357 3.40535,-0.0156 5.53728,-1.90298 4.29353,-3.80117 -0.57749,-0.88138 -1.70726,-1.2696 -5.351,-1.83874 -4.41304,-0.68931 -5.99564,-2.2604 -4.30313,-4.27183 0.8128,-0.96596 4.4798,-3.59907 7.12593,-5.11682 l 1.49442,-0.85717 1.9674,0.68623 c 2.03077,0.70832 1.9961,0.71064 4.75752,-0.31807 0.63497,-0.23654 0.50465,1.09577 -0.25234,2.57957 -1.21653,2.38462 -4.39983,3.13812 -6.0952,1.44274 -0.48154,-0.48154 -0.87552,-1.00458 -0.87552,-1.16233 0,-0.52745 -0.69819,-0.29531 -2.1818,0.72544 -0.80918,0.55672 -1.47123,1.21203 -1.47123,1.45623 0,0.79285 1.54645,1.48588 4.53959,2.03437 4.12196,0.75534 5.73486,1.37778 6.10708,2.35678 0.70339,1.85004 -1.58321,4.53451 -5.57451,6.5445 -4.41578,2.22376 -7.70378,2.72906 -10.24574,1.57455 z M 38.841007,439.06649 c 0.797584,-1.99636 1.978017,-8.51981 1.6405,-9.06592 -0.10733,-0.17367 -0.410489,-0.31575 -0.673687,-0.31575 -0.906183,0 -0.467379,-0.50315 2.02741,-2.32466 4.267792,-3.11605 5.738261,-3.74549 4.843276,-2.07319 -0.503644,0.94106 -2.033391,7.8895 -2.263174,10.27981 -0.215904,2.24592 -0.152339,2.17372 -4.000147,4.54391 -2.206755,1.35933 -2.465789,1.18751 -1.574178,-1.0442 z m 192.179643,1.66047 c 0.9455,-1.8368 1.44724,-3.50452 1.97085,-6.55087 0.66726,-3.882 0.63135,-4.49127 -0.26466,-4.49127 -0.47757,0 -0.44459,-0.12972 0.21023,-0.82674 1.0023,-1.06692 6.67228,-4.90246 6.90425,-4.67049 0.0974,0.0974 -0.0557,0.73888 -0.34,1.42568 -0.6468,1.56241 -1.92994,7.56383 -2.16025,10.10376 -0.18777,2.07076 -0.16228,2.04262 -3.979,4.39366 -1.32947,0.81894 -2.62068,1.15879 -2.34142,0.61627 z M 22.243633,419.60804 c -0.466101,-0.6111 -0.847455,-1.19888 -0.847455,-1.30619 0,-0.10731 0.456357,-0.52007 1.014128,-0.91723 0.988084,-0.70358 1.031517,-0.70639 1.691232,-0.10936 1.296085,1.17295 1.314315,1.58887 0.111703,2.54845 l -1.122152,0.89539 z m 156.044387,-0.0525 c -0.7434,-0.97465 -0.81802,-1.24722 -0.45965,-1.67903 0.86469,-1.04188 1.65279,-1.2391 2.36735,-0.59242 1.28568,1.16352 1.30246,1.58166 0.10192,2.53959 l -1.12215,0.89539 z"
       id="path1" />
  </g>
</svg>
