<?xml version="1.0" encoding="UTF-8" standalone="no"?>
<svg
   height="20"
   viewBox="0 0 459.5251 106"
   width="86.70285"
   version="1.1"
   id="svg1978"
   xmlns="http://www.w3.org/2000/svg"
   xmlns:svg="http://www.w3.org/2000/svg">
  <defs
     id="defs1982" />
  <g
     transform="matrix(0.12566958,0,0,0.12566958,-0.77941761,-0.695213)"
     id="g1976"
     style="fill:#ffffff">
    <g
       fill="#2d3492"
       stroke-width="0.46889"
       transform="matrix(2.1775968,0,0,2.0887214,11.684058,437.1702)"
       id="g1970"
       style="fill:#ffffff">
      <path
         d="m 215.7,100.6 16.4,-36.6 7.2,36.6 z M 447.8,4.9 403.3,108.4 383.6,4.9 H 345.3 L 290.8,157.4 265.3,4.9 h -47.8 l -72.4,164.4 10.8,-68.7 H 84 L 78.3,136 h 30.2 L 105,154.9 C 87.8,162 58.6,159.3 46.1,136.9 38.2,122.7 30.8,91.1 64.1,62 91.3,38.3 138.3,34 165.4,46.4 c 0,0 3.4,-19.9 6,-38.3 -52.1,-18 -92.6,-3 -119.7,13.8 -37.1,22.7 -54.9,57.6 -50,105 5.5,54.9 76.6,89.6 136.9,54.6 0.7,-0.3 1,-0.6 1.6,-0.7 l -5.8,12.8 h 40.5 l 25.5,-56.5 h 44.8 l 9.8,56.5 h 66 L 354.6,88.1 382.2,193.6 H 408 l 44.3,-116.8 17.5,117.5 h 38.7 L 494.4,4.9 Z"
         fill="#2d3492"
         stroke-width="0.46889"
         id="path1958"
         style="fill:#ffffff" />
      <path
         d="m 508.5,194.4 h 108.1 l 6.5,-40.4 h -67.6 l 5.3,-33.7 h 58.9 l 6.4,-40.5 h -59.4 l 5.1,-33.5 h 67.7 L 645.9,5.8 H 538.6 Z"
         id="path1960"
         style="fill:#ffffff" />
      <path
         d="M 1043.8,65.1 1019.6,3.6 h -44.4 l 45.8,99.5 -14.2,89.1 h 38.9 l 11.8,-78.8 69.9,-109.8 H 1082 Z"
         id="path1962"
         style="fill:#ffffff" />
      <g
         fill="#2d3492"
         stroke-width="0.46889"
         id="g1968"
         style="fill:#ffffff">
        <path
           d="m 952.4,117.5 c -10.4,31.2 -35.6,49.4 -56.1,40.1 -20.4,-9.1 -28.7,-42 -18.2,-73.4 10.5,-31.5 35.6,-49.3 56,-40.2 20.5,9.2 28.8,42.1 18.3,73.5 M 937.3,6.6 c -43,-9.9 -87.7,24.3 -99.8,76.4 -11.9,52.2 13.1,102.5 56,112.5 43,9.8 87.6,-24.4 99.8,-76.5 11.9,-52.2 -13.2,-102.5 -56,-112.4 z"
           id="path1964"
           style="fill:#ffffff" />
        <path
           d="m 761.3,82 c -21.3,0 -26.8,0 -26.8,0 l 5.9,-35 h 25.2 c 27.4,0 21.8,35 -4.3,35 m -4.7,76.2 c -21.4,0 -34.2,0 -34.2,0 l 6,-37.6 h 32.4 c 30.9,0 30,37.6 -4.2,37.6 z M 779.3,7.1 c -20.9,-0.3 -72.6,0 -72.6,0 h 0.4 l -30,187.3 h 87.3 c 36,0 88.5,-52.9 40.6,-96.1 49,-50.9 0.4,-90.6 -25.7,-91.2 z"
           id="path1966"
           style="fill:#ffffff" />
      </g>
    </g>
    <path
       d="m 1004.832,498.63224 c -9.0231,-4.71639 -23.49999,-18.41881 -23.49999,-22.24282 0,-2.40433 7.03978,-15.5369 13.71122,-25.57799 21.99347,-33.10206 68.76327,-89.2796 148.50377,-178.37529 10.8433,-12.11539 19.5822,-22.16085 19.4198,-22.32324 -0.1624,-0.16238 -8.8091,4.50217 -19.215,10.36567 -52.7924,29.74746 -102.391,54.93651 -149.91979,76.13796 -34.98598,15.60641 -42.51625,18.52944 -53.43464,20.74179 -15.79638,3.20075 -26.58376,0.0557 -37.65458,-10.97804 -7.0679,-7.04424 -12.0942,-15.27493 -12.99455,-21.27887 -1.01198,-6.74839 2.05624,-17.98936 8.15904,-29.89208 2.99259,-5.83666 6.38649,-11.93982 7.54199,-13.56258 1.15551,-1.62276 1.90692,-3.14448 1.6698,-3.3816 -0.23712,-0.23712 -2.61832,0.95595 -5.29156,2.65127 -26.48191,16.79433 -80.86915,46.95432 -119.4955,66.26523 -47.97707,23.98573 -84.20398,38.82791 -101.90765,41.75161 -13.47805,2.22585 -25.69212,-1.54609 -33.64328,-10.3897 -4.8255,-5.36711 -11.92948,-17.29495 -15.46699,-25.96963 -2.1462,-5.26288 -2.24504,-6.24674 -1.19488,-11.89368 4.56992,-24.5735 43.00515,-69.67743 107.7128,-126.4015 23.81242,-20.87447 78.07337,-64.98892 100.66312,-81.83967 l 3.66312,-2.73249 13.00705,18.17631 13.00705,18.17631 -20.17017,15.55135 c -72.15986,55.6358 -114.79585,92.222 -154.37836,132.47304 -19.14156,19.46484 -19.20493,19.54397 -18.26827,22.80991 1.04738,3.652 2.45075,4.87991 5.60319,4.90261 3.18003,0.0229 25.81059,-7.9584 43.37327,-15.2968 93.36174,-39.01028 199.6827,-103.71472 294.85919,-179.44436 7.8975,-6.28387 14.6886,-11.04685 15.0913,-10.58438 0.4027,0.46247 6.031,8.40255 12.5074,17.64463 l 11.7752,16.80378 -28.3915,28.69622 c -47.44606,47.95518 -82.0093,88.9328 -92.68712,109.88837 -6.08412,11.94029 6.39388,10.61707 35.84104,-3.80072 26.70548,-13.0754 57.21318,-31.05107 141.00448,-83.08213 105.8955,-65.75689 136.4361,-82.8093 148.3104,-82.8093 4.1557,0 9.2889,5.10896 21.0523,20.95273 l 8.5032,11.45274 -3.683,4.22612 c -2.0256,2.32437 -13.3579,14.5015 -25.1829,27.0603 -24.0964,25.59166 -69.0747,74.80656 -70.2943,76.91549 -0.4369,0.75542 6.3131,-3.27246 15,-8.95085 77.3703,-50.57496 158.8572,-86.41362 236.9537,-104.21441 20.5787,-4.69056 30.3175,-2.9871 41.3575,7.23399 8.7112,8.06504 12.2813,15.8227 12.8063,27.82767 0.9296,21.2539 -7.4759,34.47008 -42.4042,66.67327 -115.8564,106.81739 -213.9003,136.71623 -279.4483,85.2188 l -5.8492,-4.59542 -15.1245,12.23489 c -42.8828,34.68986 -89.7705,79.58769 -124.7592,119.46468 -17.356,19.78074 -17.0711,19.50403 -20.0281,19.4558 -1.4903,-0.0243 -4.5097,-0.98505 -6.7097,-2.13499 z m 267.6478,-163.86252 c 46.304,-9.38051 110.0439,-49.95222 164.6226,-104.78562 9.4988,-9.54305 17.9259,-18.61856 18.7271,-20.16779 l 1.4566,-2.8168 -6.2271,1.43515 c -63.1798,14.56108 -136.5964,46.18625 -201.9089,86.97495 -18.0404,11.26648 -41.8181,27.41507 -41.8181,28.40064 0,1.40641 10.3781,6.90573 18.1692,9.62778 13.6199,4.75848 28.0448,5.16738 46.9786,1.33169 z M 27.53573,422.68324 c -7.90155,-3.91118 -12.482219,-12.71152 -14.12031,-27.12781 -1.070112,-9.41769 -0.143734,-19.17278 2.423172,-25.51684 2.209004,-5.45951 8.304259,-10.678 14.301944,-12.24469 7.129515,-1.86235 28.230965,-2.4474 37.662489,-1.04422 9.514398,1.41551 12.93211,3.58833 14.956841,9.50889 l 1.349855,3.94714 5.361146,-0.24331 c 20.213543,-0.91739 95.336353,-7.28042 138.361143,-11.71944 149.33003,-15.40689 271.76556,-35.70715 331.5,-54.96392 13.51293,-4.35621 18.29271,-6.61973 20.43392,-9.67673 3.87203,-5.5281 0.64074,-10.25412 -10.76482,-15.74437 -19.36331,-9.32084 -117.82365,-39.54184 -197.12585,-60.50497 -13.82517,-3.65462 -27.58565,-7.91398 -31.00418,-9.59692 -17.79726,-8.76156 -29.97858,-26.23947 -35.11481,-50.38316 -2.36577,-11.1207 -3.50041,-28.70339 -2.13861,-33.14053 1.31101,-4.27167 9.98099,-14.13593 16.13855,-18.36161 17.957,-12.323167 58.05844,-29.975517 99.02948,-43.59203 30.9112,-10.273178 39.39692,-12.489441 103.04632,-26.913189 52.62074,-11.924516 101.20896,-17.260563 147.98668,-16.25217 35.07536,0.756125 53.98916,3.489589 78.42129,11.333621 9.95812,3.197095 12.00491,4.247309 16.10498,8.263512 11.97945,11.734384 20.06612,34.276299 20.12564,56.100939 0.0549,20.123317 -5.02297,31.174277 -19.87202,43.247727 -15.26809,12.41415 -36.5766,24.51907 -58.36381,33.15526 -9.38989,3.72204 -12.77778,4.59701 -17.79966,4.59701 -7.60172,0 -11.78075,-1.98425 -13.66209,-6.48693 -1.56969,-3.75681 -3.42542,-18.13032 -3.42304,-26.51307 0.003,-10.2622 7.1444,-20.66278 15.71545,-22.8874 2.07162,-0.53768 6.91658,-1.74466 10.76658,-2.68216 19.68868,-4.79432 52.37195,-18.554137 55.84342,-23.51035 2.89127,-4.127867 2.14301,-8.247898 -2.21259,-12.182927 -13.1572,-11.886737 -72.0405,-21.417861 -110.13083,-17.826287 -91.43838,8.621814 -190.87455,33.561414 -265.5,66.590084 -37.33138,16.52259 -47.35765,23.5789 -41.96696,29.53555 2.00776,2.21855 1.12241,1.95043 49.46696,14.98068 99.61327,26.84864 160.04124,44.95196 178.88347,53.59081 17.63366,8.08474 33.6037,21.79766 39.12412,33.59453 5.56723,11.89689 8.95208,34.72281 7.10873,47.93805 -2.02255,14.50002 -7.45517,25.15112 -16.04148,31.45064 -5.74045,4.2116 -21.58172,11.23101 -36.85415,16.3304 -69.96346,23.36047 -223.67046,43.70318 -484.13514,64.074 -21.127949,1.65241 -38.677949,3.00403 -39,3.00359 -0.322051,-4.3e-4 -2.518874,-0.95776 -4.88183,-2.1274 z M 1516.6456,398.72957 c -16.9892,-1.87176 -29.2592,-7.55712 -38.3979,-17.79176 -15.4077,-17.25554 -16.893,-40.39361 -4.3064,-67.08316 17.2426,-36.56232 60.8989,-79.63701 119.8907,-118.29348 75.2274,-49.29537 139.6217,-71.08074 173,-58.52796 5.7249,2.153 14.6252,9.1703 18.9819,14.96593 6.3161,8.40238 8.7417,15.40968 9.281,26.81229 0.7182,15.18667 0.2685,16.08396 -14.0236,27.98349 -53.2167,44.30791 -108.5122,76.39721 -153.3964,89.01947 -20.2476,5.69402 -28.8543,7.10155 -47.0967,7.70216 -19.0218,0.62628 -28.5336,-0.3986 -39.0373,-4.20621 l -6.2911,-2.28053 -6.9999,7.94363 c -15.9713,18.12477 -23.3802,31.12353 -23.383,41.02517 0,4.67666 0.4397,6.15984 2.4818,8.34731 20.8435,22.32759 104.5813,3.17175 193.3353,-44.22735 72.3958,-38.66304 143.3959,-89.06838 226.4392,-160.7568 5.0648,-4.37231 9.2088,-8.39452 9.2088,-8.93824 0,-0.54372 -3.1609,-5.13909 -7.0242,-10.21194 -19.2531,-25.28078 -22.2307,-51.311059 -7.3627,-64.365273 17.5049,-15.369513 48.82,-6.182068 60.6189,17.784759 3.1632,6.425474 3.268,7.039734 3.268,19.159334 0,13.2518 -1.5456,20.06056 -7.0521,31.06636 l -2.2742,4.54534 7.5211,9.95466 c 13.276,17.5718 22.4295,28.5777 32.8761,39.52898 11.3713,11.9207 16.5672,20.16562 18.8726,29.94724 3.4705,14.72477 1.9683,21.85139 -10.9566,51.97844 -12.7211,29.65236 -20.4869,48.61262 -20.4869,50.01933 0,0.72131 1.0094,0.92035 2.75,0.5423 3.3292,-0.72307 23.5698,-3.44614 59.75,-8.03844 122.616,-15.56351 246.8044,-19.64989 333.5,-10.97371 37.474,3.75025 71.7887,10.56674 92.0887,18.29307 6.2485,2.37825 9.9145,10.87175 9.9085,22.95667 0,4.89428 -1.8376,23.31429 -2.3815,23.90299 -0.1605,0.17376 -12.1457,0.85976 -65.2619,3.73541 l -9.1462,0.49516 0.1462,-9.41148 c 0.08,-5.17632 -0.3038,-9.84697 -0.8538,-10.37922 -1.2295,-1.18978 -65.9884,-7.70272 -92,-9.25262 -24.8017,-1.47781 -100.9209,-0.58479 -129.5,1.51928 -61.4956,4.52747 -126.8702,12.10633 -195.2148,22.63124 -14.1432,2.17801 -27.1537,3.96002 -28.9122,3.96002 -7.2366,0 -15.8768,-8.22838 -24.9579,-23.76845 -3.3935,-5.80724 -3.9151,-7.51257 -3.9151,-12.80052 0,-8.88755 2.5612,-15.64507 17.9771,-47.43103 7.6022,-15.675 16.4549,-34.575 19.6726,-42 5.5212,-12.74062 5.8503,-13.95001 5.8503,-21.5 0,-9.61008 -0.3279,-10.26711 -11.2988,-22.6404 -4.5643,-5.14778 -12.8893,-15.30441 -18.5,-22.57029 -5.6106,-7.26588 -10.4967,-13.11588 -10.8578,-13 -0.3612,0.11588 -8.4612,6.98197 -18,15.25798 -150.6426,130.69915 -277.8564,206.23985 -366.8434,217.8348 -14.6933,1.91454 -41.122,2.69996 -51.6864,1.53605 z m 76.1289,-128.41356 c 20.05,-1.91407 52.6885,-14.62875 84.5575,-32.94024 23.3295,-13.40483 58.3785,-37.27616 78.5,-53.46512 4.4,-3.54007 8.1735,-6.57157 8.3855,-6.73665 0.8649,-0.6735 -3.2072,-5.5927 -6.1898,-7.47741 -2.7358,-1.72873 -4.2751,-1.93736 -10.6957,-1.44965 -42.7999,3.25109 -124.1327,45.06925 -174.825,89.88823 -12.7513,11.27396 -12.7546,11.30486 -1.3538,12.63384 6.5347,0.76174 9.5611,0.69834 21.6213,-0.453 z"
       fill="#2d3492"
       id="path1972"
       style="fill:#ffffff" />
    <path
       d="m 993.42902,494.51973 c -8.98102,-4.80832 -23.39038,-18.77781 -23.39038,-22.67636 0,-2.45119 7.00694,-15.83973 13.64726,-26.07653 21.8909,-33.74726 68.4425,-91.01976 147.811,-181.85202 10.7927,-12.35153 19.4909,-22.59279 19.3292,-22.75835 -0.1617,-0.16554 -8.768,4.58993 -19.1254,10.56771 -52.5461,30.32727 -101.9133,56.00729 -149.22037,77.62198 -34.82276,15.91059 -42.31791,18.8906 -53.18536,21.14607 -15.72269,3.26313 -26.45975,0.0568 -37.47893,-11.19202 -7.03493,-7.18154 -12.03778,-15.57265 -12.93392,-21.69362 -1.00726,-6.87992 2.04664,-18.33999 8.12098,-30.47471 2.97862,-5.95042 6.35669,-12.17254 7.5068,-13.82693 1.15012,-1.65438 1.89802,-3.20576 1.66201,-3.44751 -0.23601,-0.24174 -2.6061,0.97459 -5.26688,2.70295 -26.35837,17.12167 -80.49189,47.86951 -118.93805,67.55681 -47.75326,24.45324 -83.81117,39.58471 -101.43225,42.5654 -13.41518,2.26923 -25.57227,-1.57623 -33.48634,-10.59221 -4.80299,-5.47172 -11.87382,-17.63205 -15.39484,-26.47581 -2.13618,-5.36546 -2.23456,-6.36849 -1.1893,-12.1255 4.5486,-25.05246 42.80453,-71.03552 107.21032,-128.8652 23.70134,-21.28134 77.70916,-66.25563 100.19353,-83.43482 l 3.64603,-2.78575 12.94637,18.53059 12.94638,18.53059 -20.07608,15.85446 c -71.82323,56.7202 -114.26033,94.01951 -153.65819,135.05508 -19.05226,19.84424 -19.11533,19.92491 -18.18305,23.2545 1.0425,3.72319 2.43932,4.97503 5.57705,4.99817 3.1652,0.0233 25.69019,-8.11352 43.17094,-15.59495 92.92621,-39.77063 198.75118,-105.73623 293.48365,-182.94193 7.8606,-6.40635 14.6201,-11.26216 15.0209,-10.79068 0.4008,0.47149 6.0029,8.56633 12.4491,17.98854 l 11.7203,17.13131 -28.2591,29.25554 c -47.22473,48.88988 -81.62674,90.6662 -92.25475,112.03021 -6.05573,12.17302 6.36406,10.82401 35.67385,-3.8748 26.58087,-13.33025 56.9462,-31.65629 140.3467,-84.70149 105.4015,-67.03856 135.7996,-84.42334 147.6185,-84.42334 4.1363,0 9.2456,5.20854 20.9541,21.36112 l 8.4635,11.67597 -3.6658,4.30849 c -2.0161,2.36967 -13.2956,14.78415 -25.0654,27.58773 -23.984,26.09047 -68.7524,76.26463 -69.9664,78.41466 -0.4348,0.77014 6.2836,-3.33624 14.93,-9.12531 77.0095,-51.56072 158.1162,-88.09792 235.8483,-106.24566 20.4828,-4.78199 30.1761,-3.04533 41.1647,7.37498 8.6705,8.22224 12.2239,16.13111 12.7464,28.37007 0.9253,21.66816 -7.441,35.14194 -42.2063,67.9728 -115.3159,108.89938 -212.9025,139.38098 -278.1447,86.87981 l -5.8219,-4.68499 -15.054,12.47336 c -42.6827,35.366 -89.3517,81.13894 -124.1772,121.79318 -17.275,20.16629 -16.9914,19.88418 -19.9346,19.83501 -1.48336,-0.0248 -4.48865,-1.00425 -6.67838,-2.1766 z M 1259.8282,327.46335 c 46.0881,-9.56335 109.5306,-50.92584 163.8546,-106.82801 9.4546,-9.72905 17.8424,-18.98145 18.6398,-20.56088 l 1.4498,-2.8717 -6.198,1.46312 c -62.8851,14.84489 -135.9592,47.08647 -200.967,88.67019 -17.9563,11.48607 -41.623,27.94942 -41.623,28.9542 0,1.43382 10.3297,7.04033 18.0844,9.81543 13.5563,4.85123 27.914,5.2681 46.7594,1.35765 z M 20.691809,417.0904 C 12.82712,413.10299 8.2678199,404.13112 6.6373702,389.43384 5.5722505,379.83259 6.4943075,369.88736 9.0492387,363.41965 11.247938,357.85373 17.314758,352.53352 23.284464,350.9363 c 7.096256,-1.89865 28.099268,-2.49511 37.486795,-1.06458 9.470012,1.4431 12.871781,3.65827 14.887067,9.69423 l 1.343558,4.02408 5.336136,-0.24806 c 20.11924,-0.93527 94.89161,-7.42232 137.71569,-11.94786 148.63341,-15.70719 270.49778,-36.40312 329.95356,-56.03523 13.44989,-4.44112 18.20738,-6.74875 20.3386,-9.86534 3.85396,-5.63585 0.63774,-10.45398 -10.71461,-16.05124 -19.27298,-9.50252 -117.274,-40.31256 -196.20626,-61.68428 -13.76067,-3.72585 -27.45696,-8.06823 -30.85954,-9.78398 -17.71424,-8.93233 -29.83873,-26.7509 -34.951,-51.36518 -2.35474,-11.33745 -3.48409,-29.26285 -2.12863,-33.78648 1.30489,-4.35492 9.93442,-14.41145 16.06326,-18.719493 C 329.42232,81.539523 369.33669,63.543109 410.1166,49.661195 440.88359,39.187782 449.32973,36.928321 512.6822,22.223438 565.05748,10.0665 613.41903,4.626447 659.97853,5.6544957 c 34.91174,0.7708617 53.7373,3.557604 78.05546,11.5545253 9.91167,3.25941 11.9489,4.330094 16.02985,8.424577 11.92356,11.9631 19.97251,34.944382 20.03176,57.194408 0.0546,20.515544 -4.99955,31.781904 -19.77932,44.090674 -15.19687,12.65612 -36.40597,24.99698 -58.09155,33.8015 -9.34608,3.79458 -12.71817,4.68661 -17.71662,4.68661 -7.56626,0 -11.7258,-2.02293 -13.59836,-6.61337 -1.56237,-3.83003 -3.40944,-18.4837 -3.40708,-27.02984 0.003,-10.46222 7.11108,-21.06552 15.64214,-23.3335 2.06196,-0.54816 6.88432,-1.77866 10.71636,-2.73444 19.59684,-4.88776 52.12764,-18.91578 55.58292,-23.968595 2.87778,-4.208324 2.133,-8.408659 -2.20228,-12.420386 C 728.146,57.188237 669.53738,47.47134 631.62474,51.132918 540.61292,59.922781 441.64062,85.348481 367.3633,119.02092 c -37.15724,16.84463 -47.13674,24.03848 -41.77119,30.11123 1.9984,2.26179 1.11718,1.98845 49.2362,15.27267 99.14858,27.37195 159.29465,45.82812 178.04898,54.63536 17.5514,8.24232 33.44694,22.22252 38.9416,34.24932 5.54127,12.12877 8.91033,35.3996 7.07557,48.87242 -2.01311,14.78264 -7.42039,25.64134 -15.96664,32.06364 -5.71367,4.29369 -21.48104,11.44992 -36.68223,16.6487 -69.63708,23.81579 -222.62704,44.555 -481.876659,65.32287 -21.029387,1.68462 -38.497516,3.06258 -38.818066,3.06214 -0.320548,-4.4e-4 -2.507123,-0.97643 -4.859056,-2.16887 z M 1502.855,392.66985 c -16.91,-1.90825 -29.1227,-7.70442 -38.2188,-18.13854 -15.3357,-17.59187 -16.8142,-41.18093 -4.2863,-68.39069 17.1622,-37.27496 60.6148,-81.18922 119.3315,-120.59915 74.8764,-50.25619 138.9703,-72.46618 172.1929,-59.66873 5.6982,2.19496 14.557,9.34904 18.8933,15.25763 6.2867,8.56615 8.701,15.71003 9.2377,27.33489 0.7149,15.48268 0.2673,16.39745 -13.9582,28.52892 -52.9684,45.17152 -108.0059,77.88628 -152.6808,90.75456 -20.1531,5.805 -28.7196,7.23996 -46.8769,7.85228 -18.9331,0.63849 -28.4006,-0.40637 -38.8552,-4.28819 l -6.2617,-2.32498 -6.9674,8.09846 c -15.8967,18.47804 -23.271,31.73016 -23.2738,41.82479 0,4.76782 0.4376,6.2799 2.4702,8.51001 20.7462,22.76278 104.0934,3.23357 192.4334,-45.08939 72.0581,-39.41662 142.7269,-90.80442 225.3828,-163.89013 5.0412,-4.45753 9.1658,-8.55813 9.1658,-9.11245 0,-0.55432 -3.146,-5.23926 -6.9914,-10.41098 -19.1633,-25.773544 -22.127,-52.311177 -7.3283,-65.619832 17.4232,-15.669081 48.5923,-6.302563 60.3361,18.131404 3.1484,6.550714 3.2528,7.176946 3.2528,19.532766 0,13.510092 -1.5385,20.451572 -7.0193,31.671892 l -2.2635,4.63393 7.4859,10.14869 c 13.2141,17.91429 22.3249,29.13471 32.7228,40.29944 11.3182,12.15305 16.4899,20.55867 18.7846,30.53094 3.4543,15.01178 1.9591,22.2773 -10.9056,52.99156 -12.6617,30.23032 -20.3912,49.56013 -20.3912,50.99426 0,0.73537 1.0047,0.93829 2.7372,0.55287 3.3136,-0.73716 23.4598,-3.51331 59.4711,-8.19512 122.0441,-15.86686 245.6531,-20.03288 331.9443,-11.18759 37.2992,3.82334 71.4538,10.77269 91.6592,18.64962 6.2193,2.4246 9.8682,11.08365 9.8622,23.40412 0,4.98967 -1.829,23.76871 -2.3704,24.36888 -0.1598,0.17715 -12.089,0.87652 -64.9574,3.80822 l -9.1036,0.50481 0.1456,-9.59492 c 0.08,-5.27721 -0.3025,-10.0389 -0.8499,-10.58152 -1.2237,-1.21297 -65.6805,-7.85286 -91.5708,-9.43296 -24.686,-1.50662 -100.4501,-0.59619 -128.8959,1.54889 -61.2087,4.61571 -126.2784,12.34229 -194.3041,23.07235 -14.0772,2.22046 -27.027,4.0372 -28.7773,4.0372 -7.2028,0 -15.8027,-8.38876 -24.8415,-24.23172 -3.3777,-5.92043 -3.8968,-7.659 -3.8968,-13.05002 0,-9.06078 2.5492,-15.95001 17.8932,-48.35551 7.5668,-15.98052 16.3781,-35.24891 19.5808,-42.81863 5.4955,-12.98895 5.823,-14.22191 5.823,-21.91906 0,-9.79739 -0.3263,-10.46722 -11.2461,-23.08168 -4.543,-5.24812 -12.8292,-15.60271 -18.4136,-23.01021 -5.5845,-7.4075 -10.4478,-13.37153 -10.8072,-13.25339 -0.3595,0.11814 -8.4218,7.11806 -17.916,15.55538 -149.9399,133.24662 -276.5603,210.25969 -365.1322,222.08064 -14.6247,1.95185 -40.9301,2.75258 -51.4452,1.56599 z m 75.7737,-130.91648 c 19.9565,-1.95138 52.4427,-14.91388 84.1631,-33.58229 23.2207,-13.6661 58.1062,-38.00271 78.1338,-54.50721 4.3795,-3.60907 8.1354,-6.69966 8.3464,-6.86795 0.8608,-0.68663 -3.1923,-5.70171 -6.1609,-7.62316 -2.7231,-1.76242 -4.2552,-1.97512 -10.6458,-1.4779 -42.6003,3.31445 -123.5537,45.9477 -174.0095,91.64025 -12.6918,11.4937 -12.6951,11.5252 -1.3475,12.88009 6.5042,0.77658 9.5165,0.71195 21.5204,-0.46183 z"
       fill="#fd0000"
       stroke-width="0.999996"
       id="path1974"
       style="fill:#ffffff" />
  </g>
  <g
     id="g857"
     transform="matrix(0.03006644,0,0,0.03006644,220.95017,67.270912)">
    <path
       d="M 3273.6288,604.89188 4350.0647,-470.81328 h 132.1939 v 736.00879 l 736.5088,-736.00879 h 132.1938 V 604.89188 H 5162.1128 V -149.98894 L 4406.7192,604.89188 H 4274.5253 V -149.98894 L 3519.1317,604.89188 Z M 7919.2995,-470.81328 h -113.309 l -302.1575,301.95232 v 113.232126 h 226.6181 V 604.89188 h 188.8484 z m -1548.5569,0 h -698.7391 c -118.0302,0 -207.7332,146.25815 -207.7332,264.20828 v 113.232125 c 0,117.950127 89.703,264.208285 207.7332,264.208285 h 396.5817 c 94.4242,0 113.309,66.05207 113.309,113.23212 0,47.18005 -18.8848,113.23213 -113.309,113.23213 h -604.3149 v 207.59222 h 698.7391 c 118.0302,0 207.7332,-146.25816 207.7332,-264.20829 V 227.45147 c 0,-117.95013 -89.703,-264.208284 -207.7332,-264.208284 h -396.5817 c -94.4242,0 -113.309,-66.052076 -113.309,-113.232126 0,-47.18005 18.8848,-113.23212 113.309,-113.23212 h 604.3149 z m 302.1575,731.29079 c 0,117.95012 70.8181,155.69417 141.6363,155.69417 h 245.5029 c 70.8181,0 141.6363,-37.74405 141.6363,-155.69417 v -731.29079 h 207.7332 v 811.49687 c 0,141.54016 -61.3757,264.20829 -226.618,264.20829 h -491.0059 c -165.2423,0 -226.6181,-122.66813 -226.6181,-264.20829 v -811.49687 h 207.7333 z M 7928.742,699.25198 V 831.35612 H 3235.8591 V 699.25198 Z M 6479.3305,1194.6425 c 0,47.1801 -37.7697,89.6421 -84.9818,89.6421 h -89.703 c -47.2121,0 -84.9818,-42.462 -84.9818,-89.6421 v -184.0022 c 0,-47.18003 37.7697,-89.64208 84.9818,-89.64208 h 89.703 c 47.2121,0 84.9818,42.46205 84.9818,89.64208 0,0 -0.8027,37.1779 0,47.1801 h -103.8667 c 0,-47.1801 0,-61.3341 -21.2454,-61.3341 -21.2455,0 -21.2455,14.154 -21.2455,61.3341 v 84.9241 c 0,47.18 0,61.334 21.3871,61.334 21.1038,0 21.1038,-14.154 21.1038,-61.334 h 103.8667 z M 3391.659,920.99822 l 44.7571,184.00218 44.9459,-184.00218 h 141.6363 v 358.56838 h -103.8666 v -217.0282 l -61.3757,217.0282 h -42.4909 l -61.3757,-217.0282 v 217.0282 H 3250.0227 V 920.99822 Z m 476.8423,0 v 80.20608 h -99.1454 v 56.6161 h 84.9817 v 80.2061 h -84.9817 v 61.334 h 99.1454 v 80.2061 H 3656.0468 V 920.99822 Z m 28.3272,358.56838 V 920.99822 h 136.9151 c 122.7515,0 122.7515,84.92408 122.7515,84.92408 v 188.7202 c 0,0 0,84.9241 -94.4242,84.9241 z m 406.0241,-358.56838 v 358.56838 h -113.309 V 920.99822 Z m 94.4242,0 h 155.7999 l 70.8182,358.56838 h -113.3091 l -9.4424,-66.0521 h -51.9333 l -9.4424,66.0521 h -113.3091 z m 467.3998,217.02828 v 61.334 h 99.1454 v 80.2061 H 4751.3676 V 920.99822 h 212.4544 v 80.20608 h -99.1454 v 56.6161 h 84.9818 v 80.2061 z m 236.0605,-217.02828 61.3757,179.28418 V 920.99822 h 103.8667 v 358.56838 h -103.8667 l -70.8181,-193.4382 v 193.4382 H 4987.4281 V 920.99822 Z M 5412.337,1279.5666 H 5299.0279 V 920.99822 h 113.3091 v 136.82218 h 47.2121 V 920.99822 h 113.309 v 358.56838 h -113.309 v -141.5401 h -47.2121 z m 254.9453,-358.56838 h 155.7999 l 70.8182,358.56838 h -113.309 l -9.4425,-66.0521 h -51.9333 l -9.4424,66.0521 h -113.309 z m 349.3696,165.13018 v 193.4382 H 5912.7852 V 920.99822 h 113.3091 L 6087.47,1100.2824 V 920.99822 h 103.8666 V 1279.5666 H 6087.47 Z m 604.3149,51.8981 v 61.334 h 99.1454 v 80.2061 H 6507.6577 V 920.99822 h 212.4545 v 80.20608 h -99.1454 v 56.6161 h 84.9817 v 80.2061 z m 259.6665,-217.02828 49.7144,184.00218 49.431,-184.00218 h 136.9151 v 358.56838 h -103.8666 v -217.0282 l -61.3757,217.0282 h -42.4909 l -61.3758,-212.3102 v 212.3102 H 6743.7182 V 920.99822 Z m 481.5634,0 v 80.20608 h -99.1454 v 56.6161 h 84.9818 v 80.2061 h -84.9818 v 61.334 h 99.1454 v 80.2061 H 7149.7423 V 920.99822 Z m 136.9151,0 61.3758,179.28418 V 920.99822 h 103.8666 v 358.56838 h -103.8666 l -70.8182,-193.4382 v 193.4382 H 7385.8028 V 920.99822 Z m 424.9089,0 v 80.20608 h -61.3757 v 278.3623 h -113.309 v -278.3623 h -61.3758 V 920.99822 Z M 4052.6285,1057.8204 c 0.1888,-47.2744 -9.4425,-56.6161 -47.2121,-56.6161 v 198.1562 c 37.7696,0 47.2121,-9.436 47.2121,-56.616 z m 406.024,75.4881 h 33.0485 l -16.6659,-136.8222 z m 1270.0055,0 h 33.0485 l -16.477,-136.8222 z"
       fill="#fff"
       stroke="#ffffff"
       id="path4"
       style="fill:#ffffff;fill-opacity:1;stroke-width:7.66464" />
    <path
       d="M 3235.8591,765.30405 V 699.25198 H 7928.742 V 831.35612 H 3235.8591 Z"
       fill="#e4000f"
       stroke="#ff0000"
       stroke-width="12.3654"
       id="path6"
       style="fill:#ffffff;fill-opacity:1;stroke:#ffffff;stroke-opacity:1" />
  </g>
</svg>
