<?xml version="1.0" encoding="utf-8"?>
<svg width="32.645733mm" height="8.4753036mm" viewBox="0 0 32.645732 8.4753039" version="1.1" id="svg5" xmlns="http://www.w3.org/2000/svg">
  <path d="m 1.685296,1.94991 q 0,-0.79238 0.675239,-1.30914 Q 3.042664,0.12401 4.151985,0.15846 5.157953,0.12396 6.253493,0.2687 L 5.860752,1.66741 Q 5.41289,1.60541 4.682529,1.61231 3.959059,1.61931 3.890157,1.84657 3.821257,2.07395 4.069302,2.15663 4.317349,2.23243 4.930576,2.28066 5.571364,2.32886 6.033007,2.74919 6.50154,3.1626 6.50154,3.94119 6.53599,4.75423 5.888313,5.29856 5.247525,5.84288 4.372471,5.81532 3.490526,5.89802 1.960904,5.73262 L 2.408766,4.33391 Q 4.151985,4.40971 4.296679,4.16855 4.448263,3.92739 4.165765,3.81715 3.910828,3.72755 3.421624,3.72755 2.932421,3.72055 2.332974,3.3417 1.671516,2.8456 1.685296,1.94988 Z" style="font-size: 7.05556px; font-family: NiseSegaSonic; stroke-width: 0.265; fill: rgb(255, 255, 255);" id="path400"/>
  <path d="m 6.499795,2.89388 q 0,-1.21956 0.847494,-2.05327 Q 8.194782,0 9.531479,0 q 1.350477,0 2.197971,0.77171 0.847493,0.7717 0.888835,2.12217 0,1.22646 -0.909506,2.08773 -0.909505,0.86128 -2.1773,0.86128 -1.274685,0 -2.15663,-0.86128 Q 6.499795,4.12034 6.499795,2.89388 Z M 8.897582,2.08084 Q 8.449719,2.3909 8.277464,2.83876 8.10521,3.28662 8.380817,3.69315 8.670205,4.08589 9.145628,4.07211 9.627942,4.05831 10.068914,3.73449 10.516776,3.43821 10.689031,2.99035 10.861286,2.53559 10.592571,2.12907 10.303183,1.72944 9.82087,1.75011 9.345447,1.77081 8.897585,2.08084 Z" style="font-size: 7.05556px; font-family: NiseSegaSonic; stroke-width: 0.265; fill: rgb(255, 255, 255);" id="path402"/>
  <path d="M 12.714719,5.84289 V 0.33074 h 2.645834 l 1.322916,2.64583 V 0.33074 h 1.763893 V 5.84289 H 16.022011 L 14.478608,3.19706 v 2.64583 z" style="font-size: 7.05556px; font-family: NiseSegaSonic; stroke-width: 0.265; fill: rgb(255, 255, 255);" id="path404"/>
  <path d="M 18.543792,5.84289 V 0.33074 h 2.20486 v 5.51215 z" style="font-size: 7.05556px; font-family: NiseSegaSonic; stroke-width: 0.265; fill: rgb(255, 255, 255);" id="path406"/>
  <path d="m 20.845972,2.9214 q -0.0276,-1.17822 0.80616,-2.01882 0.83371,-0.8475 2.08773,-0.87506 1.10243,-0.0482 1.84657,0.0827 l -0.60634,2.06016 q -0.0965,-0.14469 -0.33073,-0.28938 -0.23427,-0.1447 -0.65457,-0.0482 -0.4203,0.0896 -0.83371,0.43409 -0.39274,0.31694 -0.50988,0.70969 -0.11713,0.39274 0.17226,0.70968 0.19982,0.31695 0.64768,0.33762 0.44786,0.0138 0.86816,-0.2756 0.4203,-0.31006 0.6339,-0.54433 l 0.88883,2.3909 q -0.90261,0.24804 -2.12217,0.24804 -1.28158,-0.0827 -2.08773,-0.88194 -0.80616,-0.79926 -0.80616,-2.0395 z" style="font-size: 7.05556px; font-family: NiseSegaSonic; stroke-width: 0.265; fill: rgb(255, 255, 255);" id="path408"/>
  <g aria-label="3" id="text605" style="font-size:7.05556px;font-family:NiseSegaSonic;-inkscape-font-specification:'NiseSegaSonic, Normal';fill:#e6e6e6;stroke-width:0.264999">
    <path d="M 27.51562,1.9568235 26.785259,0.57189417 q 0.909506,-0.26871762 1.74322,-0.26871762 0.833713,0 1.557184,0.37896075 0.730361,0.3720706 0.757921,1.0748705 0.02756,0.6545686 -0.599447,1.0886509 -0.08957,0.075792 -0.220486,0.1309137 0.186035,0.075792 0.330729,0.1791451 0.606338,0.4340823 0.606338,1.1093214 0,0.6270078 -0.544326,1.0197489 -0.544325,0.3927412 -1.515843,0.5305451 -0.840604,0.082682 -2.005047,-0.082682 L 27.51562,4.2374781 q 0.71658,0.2962784 1.005968,0.2273765 0.296279,-0.068902 0.372071,-0.2687176 0.07579,-0.2067059 -0.151584,-0.3720706 -0.227377,-0.1722549 -1.254016,-0.034451 v -1.41249 Q 28.321773,2.5011489 28.5836,2.4115764 28.852318,2.3151136 28.831647,2.0395058 28.817867,1.763898 28.418236,1.729447 28.025494,1.694996 27.51562,1.9568235 Z" style="stroke-width: 0.265; fill: rgb(255, 255, 255);" id="path527"/>
  </g>
  <g id="g752" transform="translate(-81.269709,-152.30311)">
    <path d="m 82.6018,160.4291 c 0.06491,0.16369 0.115711,0.28787 0.121356,0.30761 v 0.008 h 0.316088 0.270934 v -0.008 c -0.0085,-0.0198 -0.06209,-0.14393 -0.428978,-0.98213 l -0.547511,-1.25025 h -0.07338 l -0.553155,1.25025 c -0.372534,0.8382 -0.428978,0.96238 -0.437445,0.98213 v 0.008 h 0.276578 0.259644 v -0.008 c 0.0085,-0.0198 0.05927,-0.14393 0.127,-0.30761 z m -0.510822,-0.41769 v -0.006 c 0.115711,-0.28506 0.160867,-0.41487 0.180623,-0.48825 h 0.0028 c 0.01976,0.0734 0.06209,0.20322 0.174977,0.48825 v 0.006 z" style="font-size: 2.82222px; font-family: &quot;Penumbra Sans Std&quot;; stroke-width: 0.265; fill: rgb(255, 255, 255);" id="path625"/>
    <path d="m 85.315634,159.47436 v -0.92569 -0.006 h -0.225777 -0.259645 v 0.006 0.86924 c 0,0.0875 0,0.17216 0.0028,0.31609 h -0.0056 c -0.143933,-0.14675 -0.270933,-0.26529 -0.397933,-0.38382 -0.189089,-0.1778 -0.471311,-0.42051 -0.951088,-0.82691 h -0.06773 v 1.23331 0.98213 0.006 h 0.228599 0.256822 v -0.006 -0.91157 c 0,-0.0706 0,-0.14394 -0.0056,-0.25965 h 0.0056 c 0.174978,0.1778 0.2794,0.27376 0.426156,0.4064 0.189088,0.17216 0.465666,0.41205 0.925688,0.79869 h 0.06773 z" style="font-size: 2.82222px; font-family: &quot;Penumbra Sans Std&quot;; stroke-width: 0.265; fill: rgb(255, 255, 255);" id="path627"/>
    <path d="m 85.414661,159.64106 c 0,0.69991 0.544689,1.13735 1.219199,1.13735 0.293511,0 0.485422,-0.0395 0.612422,-0.0903 v -0.26529 -0.26528 -0.45156 -0.008 h -0.259644 -0.259642 v 0.008 0.44873 0.1524 c -0.04233,0.006 -0.08749,0.006 -0.115713,0.006 -0.378178,0 -0.635,-0.26811 -0.635,-0.67733 0,-0.42052 0.324555,-0.66887 0.781755,-0.66887 0.121358,0 0.217311,0.0113 0.293511,0.0254 0.06209,0.0141 0.115711,0.0254 0.149578,0.0367 h 0.0085 c 0.0056,-0.22014 0.01129,-0.32738 0.01693,-0.46849 -0.0762,-0.0169 -0.149578,-0.0282 -0.222955,-0.0367 -0.08467,-0.008 -0.174976,-0.0141 -0.285043,-0.0141 -0.798688,0 -1.303866,0.48822 -1.303866,1.12889 z" style="font-size: 2.82222px; font-family: &quot;Penumbra Sans Std&quot;; stroke-width: 0.265; fill: rgb(255, 255, 255);" id="path629"/>
    <path d="m 87.346662,159.79027 v 0.98214 0.006 h 0.651932 0.536222 v -0.44027 h -0.0056 -0.214489 -0.445911 v -0.0564 -0.39794 h 0.333022 0.234245 0.0056 v -0.22578 -0.21167 h -0.0056 -0.239889 -0.327378 v -0.4318 h 0.30198 0.341487 0.0056 v -0.43744 h -0.555977 -0.615245 v 0.006 0.92569 z" style="font-size: 2.82222px; font-family: &quot;Penumbra Sans Std&quot;; stroke-width: 0.265; fill: rgb(255, 255, 255);" id="path631"/>
    <path d="m 88.634666,159.79064 v 0.97367 0.0141 h 0.637822 0.536222 v -0.44026 h -0.01129 -0.08467 -0.124177 -0.420511 c -0.01129,0 -0.01129,-0.003 -0.01129,-0.0141 v -0.5334 -0.28222 -0.92005 -0.0113 h -0.251178 -0.270933 v 0.0113 0.92005 z" style="font-size: 2.82222px; font-family: &quot;Penumbra Sans Std&quot;; stroke-width: 0.265; fill: rgb(255, 255, 255);" id="path633"/>
    <path d="m 91.392505,159.49591 v -0.92287 -0.008 h -0.262467 -0.262466 v 0.0113 0.92005 0.28222 0.97931 0.008 h 0.273755 0.251178 v -0.006 -0.98213 z" style="font-size: 2.82222px; font-family: &quot;Penumbra Sans Std&quot;; stroke-width: 0.265; fill: rgb(255, 255, 255);" id="path635"/>
    <path d="m 92.672926,160.14786 c 0,-0.24836 -0.112889,-0.40922 -0.287867,-0.57291 -0.118533,-0.11007 -0.214488,-0.18627 -0.262466,-0.23989 -0.04798,-0.0536 -0.07902,-0.0988 -0.07902,-0.17216 0,-0.12135 0.107244,-0.19191 0.256822,-0.19191 0.05362,0 0.09595,0.006 0.135466,0.0141 0.03669,0.008 0.08185,0.0226 0.110067,0.0339 h 0.0056 c 0.0056,-0.24271 0.0085,-0.29069 0.01411,-0.46284 -0.07902,-0.0254 -0.211667,-0.0395 -0.313267,-0.0395 -0.536222,0 -0.756355,0.31892 -0.756355,0.64912 0,0.24271 0.127,0.41486 0.248355,0.53622 0.05927,0.0593 0.132645,0.127 0.220134,0.19755 0.09031,0.0734 0.143933,0.14394 0.143933,0.22014 0,0.127 -0.09878,0.18908 -0.234244,0.18908 -0.09878,0 -0.180622,-0.0141 -0.248356,-0.0367 -0.03951,-0.0141 -0.0762,-0.0282 -0.112889,-0.048 h -0.0056 c -0.0085,0.24553 -0.01129,0.30198 -0.01411,0.46566 0.107244,0.0508 0.287866,0.0762 0.440266,0.0762 0.428978,0 0.739422,-0.24835 0.739422,-0.61524 z" style="font-size: 2.82222px; font-family: &quot;Penumbra Sans Std&quot;; stroke-width: 0.265; fill: rgb(255, 255, 255);" id="path637"/>
    <path d="m 92.773462,159.77815 v 0.97367 0.0141 h 0.637822 0.536221 v -0.44027 h -0.01129 -0.08467 -0.124178 -0.42051 c -0.01129,0 -0.01129,-0.003 -0.01129,-0.0141 v -0.5334 -0.28222 -0.92005 -0.0113 h -0.251178 -0.270933 v 0.0113 0.92005 z" style="font-size: 2.82222px; font-family: &quot;Penumbra Sans Std&quot;; stroke-width: 0.265; fill: rgb(255, 255, 255);" id="path639"/>
    <path d="m 95.380124,160.45031 c 0.06491,0.16369 0.115711,0.28786 0.121355,0.30762 v 0.008 h 0.316089 0.270933 v -0.008 c -0.0085,-0.0198 -0.06209,-0.14393 -0.428977,-0.98213 l -0.547511,-1.25025 h -0.07338 l -0.553155,1.25025 c -0.372533,0.8382 -0.428977,0.96237 -0.437444,0.98213 v 0.008 h 0.276577 0.259645 v -0.008 c 0.0085,-0.0198 0.05927,-0.14393 0.127,-0.30762 z m -0.510822,-0.41769 v -0.006 c 0.115711,-0.28506 0.160866,-0.41487 0.180622,-0.48825 h 0.0028 c 0.01976,0.0734 0.06209,0.2032 0.174978,0.48825 v 0.006 z" style="font-size: 2.82222px; font-family: &quot;Penumbra Sans Std&quot;; stroke-width: 0.265; fill: rgb(255, 255, 255);" id="path641"/>
    <path d="m 98.093545,159.46787 v -0.92569 -0.006 h -0.225778 -0.259644 v 0.006 0.86923 c 0,0.0875 0,0.17216 0.0028,0.31609 h -0.0056 c -0.143933,-0.14675 -0.270933,-0.26528 -0.397933,-0.38381 -0.189088,-0.1778 -0.47131,-0.42051 -0.951088,-0.82691 h -0.06773 v 1.23331 0.98213 0.006 h 0.2286 0.256822 v -0.006 -0.91157 c 0,-0.0706 0,-0.14394 -0.0056,-0.25965 h 0.0056 c 0.174977,0.17779 0.2794,0.27376 0.426155,0.40639 0.189089,0.17216 0.465666,0.41205 0.925688,0.79869 h 0.06773 z" style="font-size: 2.82222px; font-family: &quot;Penumbra Sans Std&quot;; stroke-width: 0.265; fill: rgb(255, 255, 255);" id="path643"/>
    <path d="m 100.01207,159.61177 c 0,-0.32174 -0.107239,-0.68016 -0.448729,-0.89183 -0.18344,-0.11288 -0.428978,-0.18062 -0.764812,-0.18062 -0.10442,0 -0.21167,0.003 -0.347137,0.008 -0.12982,0.006 -0.20037,0.0141 -0.25682,0.0197 v 0.0226 0.89747 0.28222 0.97367 0.003 c 0.0593,0.006 0.14394,0.0113 0.2032,0.0141 0.0903,0.003 0.225777,0.006 0.366887,0.006 0.293507,0 0.553152,-0.0621 0.747882,-0.19191 0.31891,-0.20884 0.499529,-0.53904 0.499529,-0.95955 z m -0.541859,0.0169 c 0,0.26247 -0.11006,0.44309 -0.262468,0.55315 -0.104417,0.0734 -0.228594,0.11007 -0.355594,0.11007 -0.0423,0 -0.0875,-0.003 -0.12982,-0.008 -0.003,0 -0.006,0 -0.006,-0.006 v -1.25871 c 0.0367,-0.003 0.0903,-0.008 0.14394,-0.008 0.169327,0 0.301964,0.0452 0.400742,0.12136 0.14112,0.11289 0.20885,0.29351 0.20885,0.49389 z" style="font-size: 2.82222px; font-family: &quot;Penumbra Sans Std&quot;; stroke-width: 0.265; fill: rgb(255, 255, 255);" id="path645"/>
    <path d="m 101.07093,159.74156 v 0.98213 0.006 h 0.24836 0.24553 v -0.006 -0.70273 -0.13829 h 0.0508 c 0.18062,0.29069 0.36689,0.59267 0.52493,0.84667 h 0.0875 0.20885 0.29069 v -0.006 c -0.0141,-0.0226 -0.1016,-0.14957 -0.16087,-0.23706 -0.41769,-0.61525 -0.45438,-0.67451 -0.47413,-0.70274 v -0.008 c 0.0367,-0.0141 0.096,-0.0564 0.14675,-0.1016 0.0875,-0.0706 0.2032,-0.24554 0.2032,-0.48825 0,-0.4064 -0.25964,-0.56726 -0.44873,-0.61806 -0.127,-0.0339 -0.26811,-0.0508 -0.44873,-0.0508 -0.0762,0 -0.21167,0.003 -0.27376,0.006 -0.0734,0.003 -0.1524,0.008 -0.20038,0.0141 v 0.006 0.91722 z m 0.86643,-0.51364 c 0,0.12135 -0.0621,0.2032 -0.11289,0.23706 -0.048,0.0339 -0.11289,0.0565 -0.18627,0.0565 -0.0254,0 -0.0536,0 -0.0734,-0.003 v -0.56163 c 0.0254,-0.003 0.0508,-0.006 0.0988,-0.006 0.16933,0 0.27376,0.1016 0.27376,0.27375 z" style="font-size: 2.82222px; font-family: &quot;Penumbra Sans Std&quot;; stroke-width: 0.265; fill: rgb(255, 255, 255);" id="path647"/>
    <path d="m 102.8281,159.74156 v 0.98213 0.006 h 0.65193 0.53622 v -0.44027 h -0.006 -0.21449 -0.44591 v -0.0564 -0.39794 h 0.33302 0.23425 0.006 v -0.22577 -0.21167 h -0.006 -0.23989 -0.32738 v -0.4318 h 0.30198 0.34149 0.006 v -0.43744 h -0.55598 -0.61524 v 0.006 0.92569 z" style="font-size: 2.82222px; font-family: &quot;Penumbra Sans Std&quot;; stroke-width: 0.265; fill: rgb(255, 255, 255);" id="path649"/>
    <path d="m 105.88317,159.45934 c 0.37253,-0.77893 0.42898,-0.90593 0.43744,-0.92569 v -0.006 h -0.254 -0.30197 v 0.006 c -0.008,0.0198 -0.0677,0.1524 -0.29352,0.65476 -0.11288,0.24835 -0.16086,0.37817 -0.22577,0.56162 h -0.008 c -0.0649,-0.18345 -0.11571,-0.31327 -0.23142,-0.56445 -0.23142,-0.508 -0.28787,-0.63217 -0.29351,-0.65193 v -0.006 h -0.3048 -0.29069 v 0.006 c 0.0113,0.0198 0.0705,0.14676 0.44309,0.92569 l 0.62935,1.31233 h 0.0677 z" style="font-size: 2.82222px; font-family: &quot;Penumbra Sans Std&quot;; stroke-width: 0.265; fill: rgb(255, 255, 255);" id="path651"/>
    <path d="m 106.94587,159.45934 v -0.92287 -0.008 h -0.26247 -0.26247 v 0.0113 0.92005 0.28222 0.97931 0.008 h 0.27376 0.25118 v -0.006 -0.98213 z" style="font-size: 2.82222px; font-family: &quot;Penumbra Sans Std&quot;; stroke-width: 0.265; fill: rgb(255, 255, 255);" id="path653"/>
    <path d="m 108.2266,160.14514 c 0,-0.24836 -0.11289,-0.40922 -0.28787,-0.57291 -0.11853,-0.11007 -0.21449,-0.18627 -0.26247,-0.23989 -0.048,-0.0536 -0.079,-0.0988 -0.079,-0.17216 0,-0.12135 0.10724,-0.19191 0.25682,-0.19191 0.0536,0 0.096,0.006 0.13547,0.0141 0.0367,0.008 0.0818,0.0226 0.11007,0.0339 h 0.006 c 0.006,-0.24271 0.008,-0.29069 0.0141,-0.46284 -0.079,-0.0254 -0.21167,-0.0395 -0.31327,-0.0395 -0.53622,0 -0.75635,0.31892 -0.75635,0.64912 0,0.24271 0.127,0.41486 0.24835,0.53622 0.0593,0.0593 0.13265,0.127 0.22014,0.19755 0.0903,0.0734 0.14393,0.14394 0.14393,0.22014 0,0.127 -0.0988,0.18908 -0.23424,0.18908 -0.0988,0 -0.18063,-0.0141 -0.24836,-0.0367 -0.0395,-0.0141 -0.0762,-0.0282 -0.11289,-0.048 h -0.006 c -0.008,0.24553 -0.0113,0.30198 -0.0141,0.46566 0.10724,0.0508 0.28786,0.0762 0.44026,0.0762 0.42898,0 0.73943,-0.24835 0.73943,-0.61524 z" style="font-size: 2.82222px; font-family: &quot;Penumbra Sans Std&quot;; stroke-width: 0.265; fill: rgb(255, 255, 255);" id="path655"/>
    <path d="m 108.85186,159.45934 v -0.92287 -0.008 h -0.26246 -0.26247 v 0.0113 0.92005 0.28222 0.97931 0.008 h 0.27375 0.25118 v -0.006 -0.98213 z" style="font-size: 2.82222px; font-family: &quot;Penumbra Sans Std&quot;; stroke-width: 0.265; fill: rgb(255, 255, 255);" id="path657"/>
    <path d="m 109.61918,159.74156 v 0.98213 0.006 h 0.26246 0.25965 v -0.006 -0.98213 -0.77329 h 0.38664 0.16934 0.0113 v -0.44026 h -0.69426 -0.29916 -0.66322 v 0.44026 h 0.0141 0.17498 0.37818 z" style="font-size: 2.82222px; font-family: &quot;Penumbra Sans Std&quot;; stroke-width: 0.265; fill: rgb(255, 255, 255);" id="path659"/>
    <path d="m 110.80893,159.74156 v 0.98213 0.006 h 0.65193 0.53623 v -0.44027 h -0.006 -0.21449 -0.44591 v -0.0564 -0.39794 h 0.33302 0.23425 0.006 v -0.22577 -0.21167 h -0.006 -0.23989 -0.32738 v -0.4318 h 0.30198 0.34149 0.006 v -0.43744 h -0.55597 -0.61525 v 0.006 0.92569 z" style="font-size: 2.82222px; font-family: &quot;Penumbra Sans Std&quot;; stroke-width: 0.265; fill: rgb(255, 255, 255);" id="path661"/>
    <path d="m 113.91544,159.58352 c 0,-0.32174 -0.10725,-0.68016 -0.44874,-0.89183 -0.18344,-0.11288 -0.42897,-0.18062 -0.76482,-0.18062 -0.10442,0 -0.21166,0.003 -0.34713,0.008 -0.12982,0.006 -0.20038,0.0141 -0.25682,0.0197 v 0.0226 0.89747 0.28222 0.97367 0.003 c 0.0593,0.006 0.14393,0.0113 0.2032,0.0141 0.0903,0.003 0.22577,0.006 0.36689,0.006 0.29351,0 0.55315,-0.0621 0.74788,-0.19191 0.31891,-0.20884 0.49954,-0.53904 0.49954,-0.95955 z m -0.54187,0.0169 c 0,0.26247 -0.11007,0.44309 -0.26247,0.55315 -0.10442,0.0734 -0.2286,0.11007 -0.3556,0.11007 -0.0423,0 -0.0875,-0.003 -0.12982,-0.008 -0.003,0 -0.006,0 -0.006,-0.006 v -1.25871 c 0.0367,-0.003 0.0903,-0.008 0.14393,-0.008 0.16933,0 0.30198,0.0452 0.40076,0.12136 0.14111,0.11289 0.20884,0.29351 0.20884,0.49389 z" style="font-size: 2.82222px; font-family: &quot;Penumbra Sans Std&quot;; stroke-width: 0.265; fill: rgb(255, 255, 255);" id="path663"/>
  </g>
</svg>