<?xml version="1.0" encoding="utf-8"?>
<svg height="159.327" viewBox="0 0 1675.757 223.058" width="1196.97" xmlns="http://www.w3.org/2000/svg">
  <g fill="#010180" stroke="#0268d0" stroke-width="7">
    <path d="M930.633 66.413h114.738q20.08 0 34.627 15.571 14.547 15.367 14.547 36.88 0 21.719-14.547 37.086-12.293 13.113-28.685 14.957l43.232 59.418h-59.008l-42.822-59.009h-3.073v59.009h-59.009zm59.009 39.339v26.226h32.782q5.327 0 9.22-3.688 3.893-3.893 3.893-9.425 0-5.328-3.893-9.22-3.893-3.893-9.22-3.893z" transform="matrix(.96314 0 0 1.03828 -39.237 -44.65)" style="fill: rgb(255, 255, 255); stroke: rgb(255, 255, 255);"/>
    <path d="M1053.221 239.845V69.16h143.377v44.378h-75.102v17.069h75.102v47.792h-75.102v17.069h75.102v44.378z" transform="matrix(1.00295 0 0 .99706 -39.237 -44.65)" style="fill: rgb(255, 255, 255); stroke: rgb(255, 255, 255);"/>
    <path d="M1176.197 119V70.37h159.783V119h-48.63v125.046h-62.523V119z" transform="matrix(1.02051 0 0 .9799 -39.237 -44.65)" style="fill: rgb(255, 255, 255); stroke: rgb(255, 255, 255);"/>
    <path d="M1416.543 66.413h114.739q20.079 0 34.626 15.571 14.547 15.367 14.547 36.88 0 21.719-14.547 37.086-12.293 13.113-28.684 14.957l43.231 59.418h-59.008l-42.822-59.009h-3.073v59.009h-59.008zm59.009 39.339v26.226h32.782q5.327 0 9.22-3.688 3.893-3.893 3.893-9.425 0-5.328-3.893-9.22-3.893-3.893-9.22-3.893z" transform="matrix(.96314 0 0 1.03828 -39.237 -44.65)" style="fill: rgb(255, 255, 255); stroke: rgb(255, 255, 255);"/>
    <path d="M1557.582 148.748q0-38.138 26.503-64.209 26.502-26.287 68.303-26.287 42.23 0 68.733 24.132 26.502 24.133 27.795 66.364 0 38.353-28.441 65.286-28.442 26.933-68.087 26.933-39.862 0-67.441-26.933-27.364-26.933-27.364-65.286zm74.983-25.425q-14.006 9.696-19.392 23.701-5.387 14.005 3.232 26.718 9.05 12.281 23.916 11.85 15.083-.43 28.873-10.557 14.005-9.265 19.392-23.27 5.386-14.221-3.017-26.934-9.05-12.497-24.132-11.85-14.867.646-28.872 10.342z" transform="matrix(.97865 0 0 1.02182 -39.237 -44.65)" style="fill: rgb(255, 255, 255); stroke: rgb(255, 255, 255);"/>
  </g>
  <g>
    <path d="M 22.903 75.445 C 22.903 59.752 30.291 46.789 45.067 36.555 C 59.993 26.321 79.594 21.545 103.869 22.228 C 125.882 21.545 148.875 22.637 172.848 25.502 L 159.957 67.052 C 150.156 65.824 137.265 65.279 121.284 65.415 C 105.452 65.551 96.782 67.871 95.275 72.374 C 93.767 76.877 95.727 79.947 101.155 81.584 C 106.583 83.085 116.006 84.313 129.425 85.268 C 143.447 86.224 155.509 90.863 165.611 99.186 C 175.863 107.374 180.989 119.177 180.989 134.596 C 181.743 150.697 175.034 164.138 160.862 174.918 C 146.839 185.697 130.254 190.814 111.106 190.269 C 91.807 191.906 65.421 191.087 31.949 187.813 L 46.65 146.263 C 84.796 147.764 105.452 146.126 108.618 141.35 C 111.935 136.575 110.503 133.095 104.321 130.911 C 98.743 129.137 90.601 128.251 79.895 128.251 C 69.191 128.114 57.28 124.294 44.162 116.789 C 29.688 106.964 22.602 93.183 22.903 75.445 L 22.903 75.445 Z" stroke-width="7" style="fill: rgb(255, 255, 255); stroke: rgb(255, 255, 255);"/>
    <path d="M 190.45 109.704 C 190.45 85.115 198.96 64.417 215.98 47.607 C 232.999 30.66 254.93 22.186 281.773 22.186 C 308.894 22.186 330.964 29.965 347.983 45.524 C 365.002 61.083 373.927 82.476 374.758 109.704 C 374.758 134.432 365.625 155.477 347.36 172.842 C 329.096 190.207 307.233 198.889 281.773 198.889 C 256.175 198.889 234.521 190.207 216.809 172.842 C 199.237 155.477 190.45 134.432 190.45 109.704 L 190.45 109.704 Z M 262.679 85.115 C 253.685 91.366 247.458 99.007 243.999 108.037 C 240.539 117.067 241.577 125.68 247.113 133.876 C 252.924 141.794 260.603 145.614 270.15 145.336 C 279.836 145.059 289.107 141.655 297.963 135.126 C 306.957 129.152 313.183 121.651 316.643 112.622 C 320.102 103.453 319.133 94.77 313.737 86.574 C 307.926 78.517 300.177 74.697 290.491 75.114 C 280.943 75.53 271.673 78.864 262.679 85.115 L 262.679 85.115 Z" stroke-width="7" style="fill: rgb(255, 255, 255); stroke: rgb(255, 255, 255);"/>
    <path d="M 382.451 195.556 L 382.451 23.039 L 463.46 23.039 L 503.964 105.846 L 503.964 23.04 L 557.97 23.04 L 557.97 195.556 L 483.711 195.556 L 436.457 112.749 L 436.457 195.556 L 382.451 195.556 Z" stroke-width="7" style="fill: rgb(255, 255, 255); stroke: rgb(255, 255, 255);"/>
    <path d="M 570.211 195.555 L 570.211 23.04 L 646.688 23.04 L 646.688 195.555 L 570.211 195.555 Z" stroke-width="7" style="fill: rgb(255, 255, 255); stroke: rgb(255, 255, 255);"/>
    <path d="M 654.806 110.253 C 654.241 86.419 662.507 65.998 679.604 48.993 C 696.701 31.849 718.108 22.998 743.825 22.441 C 766.432 21.465 785.367 22.302 800.628 24.949 L 781.976 87.464 C 779.998 84.537 776.606 81.61 771.802 78.683 C 766.998 75.756 760.286 75.268 751.667 77.22 C 743.048 79.031 734.499 83.422 726.021 90.391 C 717.967 96.803 712.739 103.981 710.336 111.926 C 707.935 119.872 709.701 127.05 715.635 133.462 C 719.733 139.873 726.374 143.288 735.559 143.706 C 744.743 143.985 753.645 141.197 762.264 135.344 C 770.883 129.071 777.383 123.565 781.763 118.827 L 809.105 191.376 C 790.595 196.394 768.835 198.903 743.825 198.903 C 717.543 197.23 696.136 188.309 679.603 172.141 C 663.071 155.972 654.805 135.343 654.805 110.254 L 654.806 110.253 Z" stroke-width="7" style="fill: rgb(255, 255, 255); stroke: rgb(255, 255, 255);"/>
  </g>
</svg>