<?xml version="1.0" encoding="utf-8"?>
<svg width="24.177017mm" height="11.40356mm" viewBox="0 0 24.177017 11.40356" version="1.1" id="svg5" xmlns="http://www.w3.org/2000/svg">
  <g id="layer1" transform="translate(-84.526823,-148.65418)">
    <g id="g480">
      <path d="m 84.527104,150.60409 q 0,-0.79238 0.675239,-1.30914 0.682129,-0.51676 1.79145,-0.48231 1.005968,-0.0345 2.101508,0.11024 l -0.392741,1.39871 q -0.447862,-0.062 -1.178223,-0.0551 -0.72347,0.007 -0.792372,0.23426 -0.0689,0.22738 0.179145,0.31006 0.248047,0.0758 0.861274,0.12403 0.640788,0.0482 1.102431,0.46853 0.468533,0.41341 0.468533,1.192 0.03445,0.81304 -0.613227,1.35737 -0.640788,0.54432 -1.515842,0.51676 -0.881945,0.0827 -2.411567,-0.0827 l 0.447862,-1.39871 q 1.743219,0.0758 1.887913,-0.16536 0.151584,-0.24116 -0.130914,-0.3514 -0.254937,-0.0896 -0.744141,-0.0896 -0.489203,-0.007 -1.08865,-0.38585 -0.661458,-0.4961 -0.647678,-1.39182 z" style="font-size: 7.05556px; font-family: NiseSegaSonic; stroke-width: 0.265; fill: rgb(255, 255, 255);" id="path400"/>
      <path d="m 89.341603,151.54806 q 0,-1.21956 0.847494,-2.05327 0.847493,-0.84061 2.18419,-0.84061 1.350477,0 2.197971,0.77171 0.847493,0.7717 0.888835,2.12217 0,1.22646 -0.909506,2.08773 -0.909505,0.86128 -2.1773,0.86128 -1.274685,0 -2.15663,-0.86128 -0.875054,-0.86127 -0.875054,-2.08773 z m 2.397787,-0.81304 q -0.447863,0.31006 -0.620118,0.75792 -0.172254,0.44786 0.103353,0.85439 0.289388,0.39274 0.764811,0.37896 0.482314,-0.0138 0.923286,-0.33762 0.447862,-0.29628 0.620117,-0.74414 0.172255,-0.45476 -0.09646,-0.86128 -0.289388,-0.39963 -0.771701,-0.37896 -0.475423,0.0207 -0.923285,0.33073 z" style="font-size: 7.05556px; font-family: NiseSegaSonic; stroke-width: 0.265; fill: rgb(255, 255, 255);" id="path402"/>
      <path d="m 95.556527,154.49707 v -5.51215 h 2.645834 l 1.322916,2.64583 v -2.64583 h 1.763893 v 5.51215 h -2.425351 l -1.543403,-2.64583 v 2.64583 z" style="font-size: 7.05556px; font-family: NiseSegaSonic; stroke-width: 0.265; fill: rgb(255, 255, 255);" id="path404"/>
      <path d="m 101.3856,154.49707 v -5.51215 h 2.20486 v 5.51215 z" style="font-size: 7.05556px; font-family: NiseSegaSonic; stroke-width: 0.265; fill: rgb(255, 255, 255);" id="path406"/>
      <path d="m 103.68778,151.57558 q -0.0276,-1.17822 0.80616,-2.01882 0.83371,-0.8475 2.08773,-0.87506 1.10243,-0.0482 1.84657,0.0827 l -0.60634,2.06016 q -0.0965,-0.14469 -0.33073,-0.28938 -0.23427,-0.1447 -0.65457,-0.0482 -0.4203,0.0896 -0.83371,0.43409 -0.39274,0.31694 -0.50988,0.70969 -0.11713,0.39274 0.17226,0.70968 0.19982,0.31695 0.64768,0.33762 0.44786,0.0138 0.86816,-0.2756 0.4203,-0.31006 0.6339,-0.54433 l 0.88883,2.3909 q -0.90261,0.24804 -2.12217,0.24804 -1.28158,-0.0827 -2.08773,-0.88194 -0.80616,-0.79926 -0.80616,-2.0395 z" style="font-size: 7.05556px; font-family: NiseSegaSonic; stroke-width: 0.265; fill: rgb(255, 255, 255);" id="path408"/>
    </g>
    <g id="g473">
      <path d="m 86.582336,157.76539 c -0.28575,1.8796 -0.33655,2.16535 -0.34925,2.2098 v 0.0127 h 0.53975 0.60325 v -0.0127 c 0.0063,-0.0445 0.0508,-0.38735 0.1524,-1.2319 0.03175,-0.24765 0.0762,-0.635 0.09525,-1.02235 h 0.0063 c 0.1524,0.33655 0.2794,0.5715 0.4191,0.8128 0.1651,0.2794 0.47625,0.7747 0.89535,1.39065 h 0.1524 c 0.40005,-0.5969 0.70485,-1.08585 0.8636,-1.3589 0.14605,-0.24765 0.26035,-0.45085 0.43815,-0.8382 h 0.0063 c 0.01905,0.37465 0.0635,0.76835 0.09525,1.00965 0.1143,0.8509 0.1651,1.20015 0.17145,1.23825 v 0.0127 h 0.61595 0.5842 v -0.0127 c -0.0063,-0.0381 -0.05715,-0.3302 -0.3302,-2.2098 l -0.4064,-2.7686 h -0.1524 c -1.4986,2.2987 -1.7272,2.6924 -1.92405,3.0734 h -0.0127 c -0.19685,-0.3937 -0.42545,-0.79375 -1.8923,-3.0734 h -0.14605 z" style="font-size: 6.35px; font-family: &quot;Penumbra Sans Std&quot;; stroke-width: 0.265; fill: rgb(255, 255, 255);" id="path428"/>
      <path d="m 94.98806,159.32749 c 0.14605,0.3683 0.26035,0.64769 0.27305,0.69215 v 0.019 h 0.7112 0.6096 v -0.019 c -0.01905,-0.0445 -0.1397,-0.32385 -0.9652,-2.2098 l -1.2319,-2.81305 h -0.1651 l -1.2446,2.81305 c -0.8382,1.88595 -0.9652,2.16534 -0.98425,2.2098 v 0.019 h 0.6223 0.5842 v -0.019 c 0.01905,-0.0445 0.13335,-0.32385 0.28575,-0.69215 z m -1.14935,-0.9398 v -0.0127 c 0.26035,-0.64135 0.36195,-0.93345 0.4064,-1.09855 h 0.0063 c 0.04445,0.1651 0.1397,0.4572 0.3937,1.09855 v 0.0127 z" style="font-size: 6.35px; font-family: &quot;Penumbra Sans Std&quot;; stroke-width: 0.265; fill: rgb(255, 255, 255);" id="path430"/>
      <path d="m 100.98728,157.13673 v -2.0828 -0.0127 h -0.508 -0.584196 v 0.0127 1.95581 c 0,0.19685 0,0.38734 0.0063,0.71119 h -0.0127 c -0.32385,-0.33019 -0.6096,-0.5969 -0.89535,-0.86359 -0.42545,-0.40005 -1.06045,-0.94615 -2.13995,-1.86055 h -0.1524 v 2.77495 2.2098 0.0127 h 0.51435 0.57785 v -0.0127 -2.05106 c 0,-0.15874 0,-0.32384 -0.0127,-0.5842 h 0.0127 c 0.3937,0.40005 0.62865,0.61595 0.95885,0.9144 0.42545,0.38735 1.04775,0.9271 2.082796,1.79706 h 0.1524 z" style="font-size: 6.35px; font-family: &quot;Penumbra Sans Std&quot;; stroke-width: 0.265; fill: rgb(255, 255, 255);" id="path432"/>
      <path d="m 102.28746,157.09224 v -2.07645 -0.019 h -0.59056 -0.59054 v 0.0254 2.0701 0.63499 2.20345 0.019 h 0.61594 0.56516 v -0.0127 -2.2098 z" style="font-size: 6.35px; font-family: &quot;Penumbra Sans Std&quot;; stroke-width: 0.265; fill: rgb(255, 255, 255);" id="path434"/>
      <path d="m 105.40373,159.32749 c 0.14605,0.3683 0.26035,0.64769 0.27305,0.69215 v 0.019 h 0.7112 0.6096 v -0.019 c -0.019,-0.0445 -0.1397,-0.32385 -0.9652,-2.2098 l -1.2319,-2.81305 h -0.1651 l -1.2446,2.81305 c -0.8382,1.88595 -0.9652,2.16534 -0.98425,2.2098 v 0.019 h 0.6223 0.5842 v -0.019 c 0.0191,-0.0445 0.13335,-0.32385 0.28575,-0.69215 z m -1.14935,-0.9398 v -0.0127 c 0.26035,-0.64135 0.36195,-0.93345 0.4064,-1.09855 h 0.006 c 0.0444,0.1651 0.1397,0.4572 0.3937,1.09855 v 0.0127 z" style="font-size: 6.35px; font-family: &quot;Penumbra Sans Std&quot;; stroke-width: 0.265; fill: rgb(255, 255, 255);" id="path436"/>
    </g>
  </g>
</svg>