<?xml version="1.0" encoding="UTF-8" standalone="no"?>
<!-- Created with Inkscape (http://www.inkscape.org/) -->

<svg
   width="26.741941mm"
   height="9.6648102mm"
   viewBox="0 0 26.741941 9.6648099"
   version="1.1"
   id="svg5"
   xmlns="http://www.w3.org/2000/svg"
   xmlns:svg="http://www.w3.org/2000/svg">
  <defs
     id="defs2" />
  <g
     id="layer1"
     transform="translate(-91.629028,-136.24574)">
    <g
       aria-label="SEGA"
       id="text790"
       style="font-size:4.23333px;font-family:'SEGA LOGO FONT';-inkscape-font-specification:'SEGA LOGO FONT, Normal';fill:#ffffff;stroke-width:0.264999"
       transform="translate(-2.8773987e-5)">
      <path
         d="m 99.945404,137.52847 q -0.03387,0 -0.05503,0.0212 -0.01693,0.0212 -0.01693,0.0508 0,0.0254 0.0127,0.0508 0.0127,0.0212 0.0381,0.0254 0.0127,0.004 0.09736,0.0254 0.0889,0.0169 0.19897,0.0423 0.11007,0.0254 0.22013,0.0593 0.1143,0.0296 0.17357,0.0593 0.127,0.072 0.24977,0.17357 0.12276,0.1016 0.22013,0.24553 0.0974,0.1397 0.15663,0.3302 0.0593,0.18627 0.0593,0.42757 0,0.28786 -0.10583,0.53763 -0.1016,0.24553 -0.2794,0.42757 -0.1778,0.18203 -0.42334,0.28786 -0.2413,0.10584 -0.520684,0.10584 H 98.53574 v -0.56304 h 1.435098 q 0.177792,0 0.321732,-0.0593 0.14816,-0.0593 0.254,-0.1651 0.10583,-0.10584 0.16086,-0.24977 0.0593,-0.14817 0.0593,-0.32173 0,-0.22014 -0.0804,-0.35984 -0.0804,-0.1397 -0.19897,-0.22013 -0.11853,-0.0847 -0.25823,-0.12277 -0.13547,-0.0423 -0.249765,-0.0677 -0.127,-0.0254 -0.249766,-0.0677 -0.118534,-0.0466 -0.211667,-0.12277 -0.09313,-0.0762 -0.1524,-0.1905 -0.05503,-0.1143 -0.05503,-0.28363 0,-0.16087 0.04657,-0.2794 0.04657,-0.12277 0.126999,-0.2032 0.08467,-0.0804 0.194734,-0.11853 0.1143,-0.0423 0.245533,-0.0423 h 1.401232 v 0.56304 z m -0.02117,-0.71967 q -0.173567,0 -0.3175,0.0593 -0.1397,0.0593 -0.2413,0.1651 -0.09737,0.10583 -0.1524,0.254 -0.05503,0.14393 -0.05503,0.3175 0,0.18203 0.0635,0.3175 0.0635,0.13547 0.160867,0.23283 0.101599,0.0974 0.224366,0.15663 0.122767,0.055 0.2413,0.0762 0.1143,0.0212 0.249763,0.0593 0.13547,0.0339 0.24977,0.10583 0.1143,0.0677 0.1905,0.18627 0.0762,0.11853 0.0762,0.30057 0,0.16086 -0.0508,0.28363 -0.0508,0.11853 -0.1397,0.19897 -0.0889,0.0804 -0.20743,0.12276 -0.1143,0.0381 -0.245537,0.0381 h -1.435098 v -0.56303 h 1.384298 q 0.03387,0 0.0508,-0.0212 0.02117,-0.0254 0.02117,-0.0508 0,-0.0593 -0.0508,-0.0804 -0.0127,-0.004 -0.1016,-0.0212 -0.0889,-0.0169 -0.2032,-0.0423 -0.110066,-0.0254 -0.220133,-0.055 -0.110066,-0.0339 -0.169333,-0.0677 -0.122767,-0.0677 -0.2413,-0.16933 -0.118533,-0.1016 -0.211666,-0.2413 -0.0889,-0.14393 -0.143934,-0.3302 -0.05503,-0.1905 -0.05503,-0.43603 0,-0.28363 0.1016,-0.5334 0.105833,-0.24977 0.283633,-0.4318 0.1778,-0.18203 0.4191,-0.28787 0.245533,-0.10583 0.524933,-0.10583 h 1.401237 v 0.56303 z"
         style="stroke-width:0.265"
         id="path1647" />
      <path
         d="m 101.4821,137.52424 q 0,-0.2667 0.0974,-0.49954 0.0974,-0.23706 0.25823,-0.4064 0.1651,-0.17356 0.37677,-0.27093 0.2159,-0.1016 0.4445,-0.1016 h 1.60443 v 0.56303 h -1.5367 q -0.16087,0 -0.28787,0.0635 -0.127,0.0635 -0.2159,0.1651 -0.0847,0.1016 -0.13123,0.23284 -0.0466,0.127 -0.0466,0.254 v 1.59596 q 0,0.127 0.0466,0.25823 0.0466,0.127 0.13123,0.2286 0.0889,0.1016 0.2159,0.1651 0.127,0.0635 0.28787,0.0635 h 1.5367 v 0.56304 H 102.659 q -0.2286,0 -0.4445,-0.0974 -0.21167,-0.1016 -0.37677,-0.27093 -0.16087,-0.17357 -0.25823,-0.4064 -0.0974,-0.23707 -0.0974,-0.50377 z m 0.71543,0.72813 v -0.64347 q 0,-0.11006 0.0339,-0.22436 0.0381,-0.11854 0.11007,-0.21167 0.072,-0.0931 0.18203,-0.1524 0.11007,-0.0593 0.25823,-0.0593 h 1.48167 v 0.56304 h -1.46897 q -0.0254,0 -0.055,0.0296 -0.0254,0.0296 -0.0254,0.0804 v 0.0593 h 1.22766 v 0.5588 z m 0,0.1397 h 1.74413 v 0.56303 H 102.714 v 0.055 q 0,0.0508 0.0254,0.0804 0.0296,0.0296 0.055,0.0296 h 1.46897 v 0.56303 h -1.48167 q -0.14816,0 -0.25823,-0.0593 -0.11007,-0.0593 -0.18203,-0.1524 -0.072,-0.0931 -0.11007,-0.20744 -0.0339,-0.11853 -0.0339,-0.2286 z"
         style="stroke-width:0.265"
         id="path1649" />
      <path
         d="m 107.5273,140.39867 h -1.905 q -0.2286,0 -0.4445,-0.0974 -0.21167,-0.1016 -0.37677,-0.27093 -0.16086,-0.17357 -0.25823,-0.4064 -0.0974,-0.23707 -0.0974,-0.50377 v -1.59596 q 0,-0.2667 0.0974,-0.49954 0.0974,-0.23706 0.25823,-0.4064 0.1651,-0.17356 0.37677,-0.27093 0.2159,-0.1016 0.4445,-0.1016 h 1.905 v 0.56303 h -1.83727 q -0.16086,0 -0.28786,0.0635 -0.127,0.0635 -0.2159,0.1651 -0.0847,0.1016 -0.13124,0.23284 -0.0466,0.127 -0.0466,0.254 v 1.59596 q 0,0.127 0.0466,0.25823 0.0466,0.127 0.13124,0.2286 0.0889,0.1016 0.2159,0.1651 0.127,0.0635 0.28786,0.0635 h 1.36313 v -1.58326 h -1.26153 v -0.5588 h 1.73567 z m -1.76953,-1.27847 h 0.46566 q 0.0296,0 0.0423,-0.0254 0.0169,-0.0254 0.0169,-0.055 0,-0.0339 -0.0169,-0.0593 -0.0127,-0.0254 -0.0423,-0.0254 h -0.4318 v -0.56303 h 1.11337 v 1.29116 h -1.15993 q -0.14817,0 -0.25824,-0.0593 -0.11006,-0.0593 -0.18203,-0.1524 -0.072,-0.0931 -0.11007,-0.20744 -0.0339,-0.11853 -0.0339,-0.2286 v -1.42663 q 0,-0.11006 0.0339,-0.22436 0.0381,-0.11854 0.11007,-0.21167 0.072,-0.0931 0.18203,-0.1524 0.11007,-0.0593 0.25824,-0.0593 h 1.78223 v 0.56304 h -1.76953 q -0.0254,0 -0.055,0.0296 -0.0254,0.0296 -0.0254,0.0804 V 139.01 q 0,0.0508 0.0254,0.0804 0.0296,0.0296 0.055,0.0296 z"
         style="stroke-width:0.265"
         id="path1651" />
      <path
         d="m 109.00049,139.90337 h 1.75684 l -1.07527,-2.9845 q -0.0127,-0.0423 -0.0762,-0.0762 -0.0635,-0.0339 -0.12277,-0.0339 -0.0677,0 -0.127,0.0339 -0.055,0.0339 -0.0677,0.0762 l -1.22343,3.4798 h -0.56303 l 1.30809,-3.69147 q 0.0296,-0.0889 0.0847,-0.16933 0.055,-0.0847 0.13547,-0.14817 0.0847,-0.0677 0.19473,-0.10583 0.1143,-0.0381 0.25823,-0.0381 0.14394,0 0.254,0.0381 0.11007,0.0381 0.1905,0.10583 0.0847,0.0635 0.1397,0.14817 0.055,0.0804 0.0889,0.16933 l 1.3081,3.69147 h -2.4638 z m 0,-0.1524 v -0.16087 l -0.27093,0.80857 h -0.51223 l 1.16416,-3.37397 q 0.008,-0.0254 0.0381,-0.0423 0.0339,-0.0212 0.0635,-0.0212 0.0296,0 0.0635,0.0212 0.0339,0.0169 0.0423,0.0423 l 0.9652,2.72627 z m 0.4826,-1.57057 -0.33866,1.0668 h 0.69003 z"
         style="stroke-width:0.265"
         id="path1653" />
    </g>
    <g
       aria-label="SYSTEM SP"
       id="text794"
       style="font-size:4.23333px;font-family:'SEGA LOGO FONT';-inkscape-font-specification:'SEGA LOGO FONT, Normal';fill:#ffffff;stroke-width:0.264999">
      <path
         d="m 93.038727,143.04028 q -0.03387,0 -0.05503,0.0212 -0.01693,0.0212 -0.01693,0.0508 0,0.0254 0.0127,0.0508 0.0127,0.0212 0.0381,0.0254 0.0127,0.004 0.09737,0.0254 0.0889,0.0169 0.198967,0.0423 0.110066,0.0254 0.220133,0.0593 0.1143,0.0296 0.173566,0.0593 0.127,0.072 0.249767,0.17357 0.122766,0.1016 0.220133,0.24553 0.09737,0.1397 0.156633,0.3302 0.05927,0.18627 0.05927,0.42757 0,0.28786 -0.105834,0.53763 -0.101599,0.24553 -0.279399,0.42757 -0.1778,0.18203 -0.423333,0.28786 -0.2413,0.10584 -0.5207,0.10584 h -1.435099 v -0.56304 h 1.435099 q 0.1778,0 0.321733,-0.0593 0.148167,-0.0593 0.254,-0.1651 0.105833,-0.10584 0.160866,-0.24977 0.05927,-0.14817 0.05927,-0.32173 0,-0.22014 -0.08043,-0.35984 -0.08043,-0.1397 -0.198967,-0.22013 -0.118533,-0.0847 -0.258233,-0.12276 -0.135466,-0.0423 -0.249766,-0.0677 -0.127,-0.0254 -0.249767,-0.0677 -0.118533,-0.0466 -0.211666,-0.12277 -0.09313,-0.0762 -0.1524,-0.1905 -0.05503,-0.1143 -0.05503,-0.28363 0,-0.16087 0.04657,-0.2794 0.04657,-0.12277 0.127,-0.2032 0.08467,-0.0804 0.194733,-0.11853 0.1143,-0.0423 0.245533,-0.0423 h 1.401233 v 0.56304 z m -0.02117,-0.71967 q -0.173566,0 -0.317499,0.0593 -0.1397,0.0593 -0.2413,0.1651 -0.09737,0.10583 -0.1524,0.254 -0.05503,0.14393 -0.05503,0.3175 0,0.18203 0.0635,0.3175 0.0635,0.13547 0.160866,0.23283 0.1016,0.0974 0.224367,0.15664 0.122766,0.055 0.2413,0.0762 0.114299,0.0212 0.249766,0.0593 0.135467,0.0339 0.249766,0.10583 0.1143,0.0677 0.1905,0.18627 0.0762,0.11853 0.0762,0.30057 0,0.16086 -0.0508,0.28363 -0.0508,0.11853 -0.1397,0.19897 -0.0889,0.0804 -0.207433,0.12276 -0.1143,0.0381 -0.245533,0.0381 h -1.435099 v -0.56303 h 1.384299 q 0.03387,0 0.0508,-0.0212 0.02117,-0.0254 0.02117,-0.0508 0,-0.0593 -0.0508,-0.0804 -0.0127,-0.004 -0.1016,-0.0212 -0.0889,-0.0169 -0.2032,-0.0423 -0.110067,-0.0254 -0.220133,-0.055 -0.110067,-0.0339 -0.169333,-0.0677 -0.122767,-0.0677 -0.2413,-0.16933 -0.118533,-0.1016 -0.211667,-0.2413 -0.0889,-0.14393 -0.143933,-0.3302 -0.05503,-0.1905 -0.05503,-0.43603 0,-0.28363 0.1016,-0.5334 0.105833,-0.24977 0.283633,-0.4318 0.1778,-0.18203 0.4191,-0.28787 0.245533,-0.10583 0.524932,-0.10583 h 1.401233 v 0.56303 z"
         style="stroke-width:0.265"
         id="path1630" />
      <path
         d="m 96.103654,143.89965 h 0.249767 q 0.160866,0 0.270933,-0.0423 0.110066,-0.0466 0.1778,-0.127 0.07197,-0.0804 0.1016,-0.1905 0.03387,-0.11006 0.03387,-0.23706 v -1.54517 h 0.5334 v 1.42663 q 0,0.56727 -0.194733,0.86783 -0.1905,0.30057 -0.6096,0.381 v 1.47744 h -0.563033 z m -0.715432,2.01083 v -1.47744 q -0.4191,-0.0804 -0.618067,-0.381 -0.194733,-0.30056 -0.194733,-0.86783 v -1.42663 h 0.5334 v 1.54517 q 0,0.127 0.02963,0.23706 0.03387,0.11007 0.1016,0.1905 0.07197,0.0804 0.182033,0.127 0.110067,0.0423 0.270933,0.0423 h 0.258233 v 2.01083 z m 0.770466,-2.72627 q 0.04657,0 0.0635,-0.0296 0.01693,-0.0296 0.01693,-0.0804 v -1.31657 h 0.546099 v 1.4605 q 0,0.14817 -0.02117,0.24977 -0.02117,0.0974 -0.0762,0.16086 -0.0508,0.0635 -0.148167,0.0931 -0.09313,0.0254 -0.241299,0.0254 h -0.550333 q -0.148167,0 -0.245533,-0.0254 -0.09313,-0.0296 -0.148167,-0.0931 -0.0508,-0.0635 -0.07197,-0.16086 -0.02117,-0.1016 -0.02117,-0.24977 v -1.4605 h 0.546099 v 1.31657 q 0,0.0508 0.0127,0.0804 0.01693,0.0296 0.06773,0.0296 z"
         style="stroke-width:0.265"
         id="path1632" />
      <path
         d="m 99.079689,143.04028 q -0.03387,0 -0.05503,0.0212 -0.01693,0.0212 -0.01693,0.0508 0,0.0254 0.0127,0.0508 0.0127,0.0212 0.0381,0.0254 0.0127,0.004 0.09737,0.0254 0.0889,0.0169 0.198966,0.0423 0.110067,0.0254 0.220133,0.0593 0.1143,0.0296 0.173567,0.0593 0.127,0.072 0.249766,0.17357 0.122769,0.1016 0.220129,0.24553 0.0974,0.1397 0.15664,0.3302 0.0593,0.18627 0.0593,0.42757 0,0.28786 -0.10583,0.53763 -0.1016,0.24553 -0.2794,0.42757 -0.177798,0.18203 -0.423332,0.28786 -0.241299,0.10584 -0.520699,0.10584 H 97.66999 v -0.56304 h 1.435099 q 0.1778,0 0.321733,-0.0593 0.148166,-0.0593 0.254,-0.1651 0.105833,-0.10584 0.160866,-0.24977 0.05927,-0.14817 0.05927,-0.32173 0,-0.22014 -0.08043,-0.35984 -0.08043,-0.1397 -0.198967,-0.22013 -0.118533,-0.0847 -0.258233,-0.12276 -0.135467,-0.0423 -0.249766,-0.0677 -0.127,-0.0254 -0.249767,-0.0677 -0.118533,-0.0466 -0.211666,-0.12277 -0.09313,-0.0762 -0.1524,-0.1905 -0.05503,-0.1143 -0.05503,-0.28363 0,-0.16087 0.04657,-0.2794 0.04657,-0.12277 0.127,-0.2032 0.08467,-0.0804 0.194733,-0.11853 0.1143,-0.0423 0.245533,-0.0423 h 1.401225 v 0.56304 z m -0.02117,-0.71967 q -0.173566,0 -0.3175,0.0593 -0.139699,0.0593 -0.241299,0.1651 -0.09737,0.10583 -0.1524,0.254 -0.05503,0.14393 -0.05503,0.3175 0,0.18203 0.0635,0.3175 0.0635,0.13547 0.160867,0.23283 0.1016,0.0974 0.224366,0.15664 0.122767,0.055 0.2413,0.0762 0.1143,0.0212 0.249767,0.0593 0.135466,0.0339 0.249766,0.10583 0.1143,0.0677 0.1905,0.18627 0.0762,0.11853 0.0762,0.30057 0,0.16086 -0.0508,0.28363 -0.0508,0.11853 -0.1397,0.19897 -0.0889,0.0804 -0.207433,0.12276 -0.1143,0.0381 -0.245533,0.0381 h -1.4351 v -0.56303 h 1.384299 q 0.03387,0 0.0508,-0.0212 0.02117,-0.0254 0.02117,-0.0508 0,-0.0593 -0.0508,-0.0804 -0.0127,-0.004 -0.1016,-0.0212 -0.0889,-0.0169 -0.2032,-0.0423 -0.110067,-0.0254 -0.220133,-0.055 -0.110067,-0.0339 -0.169334,-0.0677 -0.122766,-0.0677 -0.241299,-0.16933 -0.118534,-0.1016 -0.211667,-0.2413 -0.0889,-0.14393 -0.143933,-0.3302 -0.05503,-0.1905 -0.05503,-0.43603 0,-0.28363 0.1016,-0.5334 0.105833,-0.24977 0.283633,-0.4318 0.1778,-0.18203 0.419099,-0.28787 0.245533,-0.10583 0.524933,-0.10583 h 1.401232 v 0.56303 z"
         style="stroke-width:0.265"
         id="path1634" />
      <path
         d="m 103.51198,141.75758 v 0.56303 h -2.8956 v -0.56303 z m -1.51976,0.71543 v 3.43747 h -0.56304 v -2.87443 h -0.8128 v -0.56304 z m 0.1524,0 h 1.36736 v 0.56304 h -0.80433 v 2.87443 h -0.56303 z"
         style="stroke-width:0.265"
         id="path1636" />
      <path
         d="m 103.68132,143.03605 q 0,-0.2667 0.0974,-0.49954 0.0974,-0.23706 0.25824,-0.4064 0.1651,-0.17356 0.37676,-0.27093 0.2159,-0.1016 0.4445,-0.1016 h 1.60444 v 0.56303 h -1.5367 q -0.16087,0 -0.28787,0.0635 -0.127,0.0635 -0.2159,0.1651 -0.0847,0.1016 -0.13123,0.23284 -0.0466,0.127 -0.0466,0.254 v 1.59596 q 0,0.127 0.0466,0.25823 0.0466,0.127 0.13123,0.2286 0.0889,0.1016 0.2159,0.1651 0.127,0.0635 0.28787,0.0635 h 1.5367 v 0.56304 h -1.60444 q -0.2286,0 -0.4445,-0.0974 -0.21166,-0.1016 -0.37676,-0.27093 -0.16087,-0.17357 -0.25824,-0.4064 -0.0974,-0.23707 -0.0974,-0.50377 z m 0.71543,0.72813 v -0.64347 q 0,-0.11006 0.0339,-0.22436 0.0381,-0.11854 0.11006,-0.21167 0.072,-0.0931 0.18204,-0.1524 0.11006,-0.0593 0.25823,-0.0593 h 1.48167 v 0.56304 h -1.46897 q -0.0254,0 -0.055,0.0296 -0.0254,0.0296 -0.0254,0.0804 v 0.0593 h 1.22766 v 0.5588 z m 0,0.1397 h 1.74413 v 0.56303 h -1.22766 v 0.055 q 0,0.0508 0.0254,0.0804 0.0296,0.0296 0.055,0.0296 h 1.46897 v 0.56303 h -1.48167 q -0.14817,0 -0.25823,-0.0593 -0.11007,-0.0593 -0.18204,-0.1524 -0.072,-0.0931 -0.11006,-0.20744 -0.0339,-0.11853 -0.0339,-0.2286 z"
         style="stroke-width:0.265"
         id="path1638" />
      <path
         d="m 109.04495,144.05204 -0.60536,-1.62136 q -0.0169,-0.0423 -0.072,-0.0762 -0.055,-0.0339 -0.12277,-0.0339 -0.0593,0 -0.12276,0.0339 -0.0635,0.0339 -0.0762,0.0762 l -1.2192,3.4798 h -0.56304 l 1.3081,-3.69147 q 0.0339,-0.0889 0.0889,-0.16933 0.055,-0.0847 0.13547,-0.14817 0.0847,-0.0677 0.19473,-0.10583 0.11007,-0.0381 0.254,-0.0381 0.14394,0 0.24977,0.0381 0.10583,0.0381 0.18626,0.10583 0.0804,0.0635 0.13547,0.14817 0.0593,0.0804 0.1016,0.16933 l 0.127,0.254 0.127,-0.254 q 0.0466,-0.0889 0.1016,-0.16933 0.0593,-0.0847 0.13547,-0.14817 0.0804,-0.0677 0.18626,-0.10583 0.10584,-0.0381 0.24977,-0.0381 0.1397,0 0.24977,0.0381 0.1143,0.0381 0.19473,0.10583 0.0847,0.0635 0.1397,0.14817 0.0593,0.0804 0.0889,0.16933 l 1.3081,3.69147 h -0.56303 l -1.2192,-3.4798 q -0.0127,-0.0423 -0.0762,-0.0762 -0.0635,-0.0339 -0.12277,-0.0339 -0.0677,0 -0.12277,0.0339 -0.055,0.0339 -0.072,0.0762 z m 0,1.85844 -0.8001,-2.1336 -0.70273,2.1336 h -0.56303 l 1.15993,-3.37397 q 0.008,-0.0254 0.0423,-0.0423 0.0339,-0.0212 0.0635,-0.0212 0.0296,0 0.0593,0.0212 0.0339,0.0169 0.0423,0.0423 l 0.6985,1.92617 0.6985,-1.92617 q 0.008,-0.0254 0.0381,-0.0423 0.0339,-0.0212 0.0635,-0.0212 0.0296,0 0.0635,0.0212 0.0339,0.0169 0.0423,0.0423 l 1.15994,3.37397 h -0.54187 l -0.7239,-2.1336 z"
         style="stroke-width:0.265"
         id="path1640" />
      <path
         d="m 113.83708,143.04028 q -0.0339,0 -0.055,0.0212 -0.0169,0.0212 -0.0169,0.0508 0,0.0254 0.0127,0.0508 0.0127,0.0212 0.0381,0.0254 0.0127,0.004 0.0974,0.0254 0.0889,0.0169 0.19896,0.0423 0.11007,0.0254 0.22014,0.0593 0.1143,0.0296 0.17356,0.0593 0.127,0.072 0.24977,0.17357 0.12277,0.1016 0.22013,0.24553 0.0974,0.1397 0.15664,0.3302 0.0593,0.18627 0.0593,0.42757 0,0.28786 -0.10583,0.53763 -0.1016,0.24553 -0.2794,0.42757 -0.1778,0.18203 -0.42333,0.28786 -0.2413,0.10584 -0.5207,0.10584 h -1.4351 v -0.56304 h 1.4351 q 0.1778,0 0.32173,-0.0593 0.14817,-0.0593 0.254,-0.1651 0.10583,-0.10584 0.16087,-0.24977 0.0593,-0.14817 0.0593,-0.32173 0,-0.22014 -0.0804,-0.35984 -0.0804,-0.1397 -0.19897,-0.22013 -0.11853,-0.0847 -0.25823,-0.12276 -0.13547,-0.0423 -0.24977,-0.0677 -0.127,-0.0254 -0.24976,-0.0677 -0.11854,-0.0466 -0.21167,-0.12277 -0.0931,-0.0762 -0.1524,-0.1905 -0.055,-0.1143 -0.055,-0.28363 0,-0.16087 0.0466,-0.2794 0.0466,-0.12277 0.127,-0.2032 0.0847,-0.0804 0.19474,-0.11853 0.1143,-0.0423 0.24553,-0.0423 h 1.40123 v 0.56304 z m -0.0212,-0.71967 q -0.17357,0 -0.3175,0.0593 -0.1397,0.0593 -0.2413,0.1651 -0.0974,0.10583 -0.1524,0.254 -0.055,0.14393 -0.055,0.3175 0,0.18203 0.0635,0.3175 0.0635,0.13547 0.16086,0.23283 0.1016,0.0974 0.22437,0.15664 0.12277,0.055 0.2413,0.0762 0.1143,0.0212 0.24977,0.0593 0.13546,0.0339 0.24976,0.10583 0.1143,0.0677 0.1905,0.18627 0.0762,0.11853 0.0762,0.30057 0,0.16086 -0.0508,0.28363 -0.0508,0.11853 -0.1397,0.19897 -0.0889,0.0804 -0.20743,0.12276 -0.1143,0.0381 -0.24553,0.0381 h -1.4351 v -0.56303 h 1.3843 q 0.0339,0 0.0508,-0.0212 0.0212,-0.0254 0.0212,-0.0508 0,-0.0593 -0.0508,-0.0804 -0.0127,-0.004 -0.1016,-0.0212 -0.0889,-0.0169 -0.2032,-0.0423 -0.11006,-0.0254 -0.22013,-0.055 -0.11007,-0.0339 -0.16933,-0.0677 -0.12277,-0.0677 -0.2413,-0.16933 -0.11854,-0.1016 -0.21167,-0.2413 -0.0889,-0.14393 -0.14393,-0.3302 -0.055,-0.1905 -0.055,-0.43603 0,-0.28363 0.1016,-0.5334 0.10584,-0.24977 0.28364,-0.4318 0.1778,-0.18203 0.4191,-0.28787 0.24553,-0.10583 0.52493,-0.10583 h 1.40123 v 0.56303 z"
         style="stroke-width:0.265"
         id="path1642" />
      <path
         d="m 116.0892,143.92928 h 0.9398 q 0.1778,0 0.3175,-0.0593 0.14394,-0.0593 0.24554,-0.1651 0.1016,-0.10583 0.15663,-0.254 0.055,-0.14816 0.055,-0.32173 0,-0.17357 -0.055,-0.32173 -0.055,-0.14817 -0.15663,-0.254 -0.1016,-0.10584 -0.24554,-0.1651 -0.1397,-0.0593 -0.3175,-0.0593 h -1.65523 v -0.5715 h 1.65523 q 0.2794,0 0.52494,0.10583 0.24553,0.10584 0.42756,0.2921 0.18204,0.18627 0.28364,0.43604 0.10583,0.24976 0.10583,0.53763 0,0.28787 -0.10583,0.53763 -0.10584,0.24977 -0.28787,0.43603 -0.1778,0.18627 -0.42333,0.2921 -0.24554,0.10584 -0.52494,0.10584 h -0.37676 v 1.4097 h -0.56304 z m -0.71543,-0.71967 h 1.65523 q 0.0254,0 0.0381,-0.0254 0.0127,-0.0296 0.0127,-0.055 0,-0.0254 -0.0127,-0.0508 -0.0127,-0.0296 -0.0381,-0.0296 h -1.65523 v -0.56727 h 1.65523 q 0.2667,0 0.44027,0.16087 0.1778,0.16086 0.1778,0.48683 0,0.32597 -0.1778,0.48683 -0.17357,0.16087 -0.44027,0.16087 h -1.0922 v 2.1336 h -0.56303 z"
         style="stroke-width:0.265"
         id="path1644" />
    </g>
  </g>
</svg>
