<?xml version="1.0" encoding="utf-8"?>
<svg width="370.90326" height="49.999996" version="1.1" viewBox="0 0 98.133614 13.229003" id="svg261" xmlns="http://www.w3.org/2000/svg">
  <g id="g1011" transform="scale(0.05738243)">
    <path d="M 111.11916,16.573292 C 80.219054,17.87832 48.854347,35.978223 32.265981,62.099057 l 14.871962,8.591198 C 51.412051,64.101851 57.891308,57.407198 62.433935,53.319509 l 12.539319,14.224809 19.50828,-11.263359 -6.05011,-17.97057 c 5.81144,-1.890266 14.848786,-4.154915 22.691886,-4.562139 z m 8.23787,0 -0.005,17.174668 c 7.84282,0.407243 16.88104,2.671873 22.69189,4.562139 l -6.05011,17.97057 19.50828,11.26336 12.53932,-14.22481 c 4.54272,4.087689 11.02188,10.782342 15.29599,17.370746 l 14.87196,-8.591198 c -16.58819,-26.120833 -47.9529,-44.220833 -78.853,-45.525764 z m -4.4613,46.64138 c -3.02307,0.0361 -5.44825,2.508539 -5.4242,5.52997 0.0194,1.926874 1.04925,3.702102 2.71234,4.676985 l -10.7099,18.200449 H 80.726444 l -9.7e-4,-0.0863 c -0.0476,-3.021337 -2.53066,-5.435597 -5.55393,-5.399767 -3.023359,0.0358 -5.448734,2.50786 -5.424683,5.529487 0.02409,3.02153 2.488158,5.455213 5.511523,5.443133 0.94016,-0.009 1.86245,-0.25796 2.67844,-0.72475 l 10.4182,18.373351 -10.37956,17.96574 c -0.85141,-0.49469 -1.81986,-0.75145 -2.80469,-0.74322 -3.023169,0.0358 -5.448544,2.50806 -5.424686,5.52949 0.02385,3.02162 2.487965,5.45521 5.511526,5.44313 3.00607,-0.0123 5.44323,-2.43841 5.46709,-5.44265 l 21.117466,0.16922 10.38053,17.96863 c -1.71099,0.98397 -2.7618,2.8099 -2.75175,4.78275 0.0239,3.02163 2.48796,5.45521 5.51152,5.44314 3.02346,-0.012 5.46825,-2.46488 5.46815,-5.4866 l -9.6e-4,-0.0863 c -0.0337,-1.91162 -1.06037,-3.66801 -2.71032,-4.63555 l 10.70894,-18.19949 h 20.75043 c -8.4e-4,0.0145 -0.002,0.029 -0.003,0.0435 0.0239,3.02153 2.48767,5.45501 5.51104,5.44313 3.02346,-0.012 5.46825,-2.46536 5.46815,-5.48708 l -4.9e-4,-0.0864 c -0.0478,-3.02124 -2.53134,-5.43502 -5.55451,-5.39919 -0.92537,0.0157 -1.83134,0.26509 -2.63449,0.72475 l -10.41916,-18.37335 10.37956,-17.967671 c 0.83823,0.48767 1.79087,0.74502 2.76073,0.74522 3.02327,-0.012 5.46796,-2.465073 5.46816,-5.486603 l -5e-4,-0.0863 c -0.0476,-3.021337 -2.53114,-5.435507 -5.5545,-5.399767 -2.98705,0.0384 -5.39494,2.45677 -5.4187,5.442167 l -21.1223,-0.1692 -10.37473,-17.958012 c 1.69853,-0.979519 2.74499,-2.790002 2.74576,-4.749813 l -5e-4,-0.08735 c -0.0478,-3.021046 -2.53105,-5.434733 -5.55393,-5.399188 z m -87.633209,6.530256 c -14.32043,27.413211 -14.32719,63.625762 0,91.051532 l 14.875827,-8.58376 c -3.568711,-6.99563 -6.126124,-15.95474 -7.394834,-21.93269 l 18.58778,-3.74654 v -22.52672 l -18.58778,-3.74605 c 1.26871,-5.977954 3.826123,-14.936671 7.394834,-21.932688 z m 176.015959,0 -14.87583,8.583761 c 3.56871,6.99562 6.12613,15.954727 7.39484,21.932691 l -18.58778,3.74605 v 22.52672 l 18.58778,3.74653 c -1.26871,5.97796 -3.82613,14.93668 -7.39484,21.93269 l 14.87583,8.58376 c 14.32719,-27.42576 14.32043,-63.638321 0,-91.051525 z m -156.147395,90.105912 -14.870996,8.5912 c 16.580639,26.10828 47.937625,44.21987 78.853181,45.52576 l 0.004,-17.17466 c -7.84272,-0.40725 -16.880066,-2.67188 -22.691886,-4.56214 l 6.04963,-17.97057 -19.50829,-11.26336 -12.538347,14.22481 C 57.885512,173.13419 51.405386,166.43953 47.131278,159.85113 Z m 136.201565,0 c -4.27411,6.5884 -10.75434,13.28306 -15.29696,17.37075 l -12.53835,-14.22481 -19.50828,11.26336 6.04962,17.97153 c -5.81143,1.89027 -14.84878,4.15443 -22.69189,4.56166 l 0.004,17.17467 c 30.91556,-1.30561 62.27254,-19.41749 78.85317,-45.52577 z" fill="url(#linearGradient19)" stop-color="#000000" style="font-variation-settings:normal;fill:#ffffff;stroke-width:0.9659;-inkscape-stroke:none;paint-order:markers stroke fill" id="path257"/>
  </g>
  <g aria-label="THE FORCE ENGINE" id="text856" style="font-size:14.1109px;font-family:Bahnschrift;-inkscape-font-specification:'Bahnschrift, @wght=600,wdth=75.0';font-variation-settings:'wdth' 75, 'wght' 600;fill:#ffffff;stroke-width:0.264995">
    <path d="M 17.36111,11.623595 V 2.432218 h 1.502039 v 9.191377 z M 15.645478,3.0454359 V 1.6054075 h 4.933303 v 1.4400284 z" style="stroke-width:0.264997" id="path859"/>
    <path d="M 24.657713,11.623595 V 1.6054075 h 1.502039 V 11.623595 Z m -3.18322,0 V 1.6054075 h 1.508929 V 11.623595 Z m 0.84059,-4.2236236 V 5.9806133 h 3.210781 v 1.4193581 z" style="stroke-width:0.264997" id="path861"/>
    <path d="M 27.468869,11.623595 V 1.6054075 h 1.50204 V 11.623595 Z m 0.71657,0 v -1.453808 h 3.651746 v 1.453808 z m 0,-4.251184 V 5.9254926 h 3.307242 V 7.372411 Z m 0,-4.313195 V 1.6054075 h 3.651746 V 3.059216 Z" style="stroke-width:0.264997" id="path863"/>
    <path d="M 35.640514,11.623595 V 1.6054075 h 1.502039 V 11.623595 Z M 36.363973,7.4550921 V 6.0219538 h 3.307242 v 1.4331383 z m 0,-4.4096562 V 1.6054075 h 3.651746 v 1.4400284 z" style="stroke-width:0.264997" id="path865"/>
    <path d="m 43.364303,11.726947 q -0.799251,0 -1.364238,-0.289384 Q 41.435078,11.148179 41.138804,10.603862 40.84253,10.059545 40.84253,9.2878555 V 3.9411473 q 0,-0.7785799 0.296274,-1.3228969 0.296274,-0.5443169 0.861261,-0.8268105 0.564987,-0.2893837 1.364238,-0.2893837 0.79925,0 1.364237,0.2893837 0.564987,0.2824936 0.861261,0.8268105 0.296274,0.544317 0.296274,1.3228969 v 5.3467082 q 0,0.7716895 -0.296274,1.3160065 -0.296274,0.544317 -0.861261,0.833701 -0.564987,0.289384 -1.364237,0.289384 z m 0,-1.488259 q 0.482306,0 0.744129,-0.2687138 0.261823,-0.2756036 0.261823,-0.7647998 V 4.0169382 q 0,-0.4823061 -0.261823,-0.7510195 -0.261823,-0.2756035 -0.744129,-0.2756035 -0.482307,0 -0.74413,0.2756035 -0.261823,0.2687134 -0.261823,0.7510195 v 5.1882362 q 0,0.4891962 0.261823,0.7647998 0.261823,0.2687138 0.74413,0.2687138 z" style="stroke-width:0.264997" id="path867"/>
    <path d="M 47.739508,7.3861912 V 5.9461628 h 1.825873 q 0.440966,0 0.675229,-0.2342629 0.241153,-0.234263 0.241153,-0.6545584 V 3.996268 q 0,-0.4547458 -0.241153,-0.702789 Q 50.006347,3.0385458 49.565381,3.0385458 H 47.739508 V 1.5985174 h 1.715632 q 0.81303,0 1.384908,0.2687134 0.571877,0.2618234 0.868151,0.7716899 0.303164,0.5098665 0.303164,1.2333257 v 1.1713149 q 0,0.7441295 -0.303164,1.2677762 Q 51.411925,6.8349842 50.840048,7.1105877 50.26817,7.3861912 49.45514,7.3861912 Z M 47.057389,11.623595 V 1.5985174 h 1.488259 V 11.623595 Z m 3.610406,0 -1.364237,-4.5474577 1.391798,-0.3169441 1.5985,4.8644018 z" style="stroke-width:0.264997" id="path869"/>
    <path d="m 55.518416,11.726947 q -0.744129,0 -1.274666,-0.303164 Q 53.713213,11.120619 53.43072,10.548742 53.155116,9.9768642 53.155116,9.170724 V 4.0651689 q 0,-0.8199205 0.275604,-1.3849077 0.282493,-0.5718773 0.81303,-0.8750412 0.530537,-0.3031638 1.274666,-0.3031638 0.75102,0 1.281557,0.3031638 0.530536,0.3031639 0.80614,0.8750412 0.275604,0.5718773 0.275604,1.3849077 v 0.6132178 h -1.52271 V 4.0651689 q 0,-0.3376143 -0.09646,-0.5718773 -0.09646,-0.234263 -0.282494,-0.3582846 -0.186032,-0.1309117 -0.461636,-0.1309117 -0.392735,0 -0.620108,0.2756035 -0.220482,0.2756036 -0.220482,0.7854701 V 9.170724 q 0,0.5029764 0.220482,0.7785799 0.227373,0.2756031 0.620108,0.2756031 0.406516,0 0.620108,-0.2756031 0.220483,-0.2824936 0.220483,-0.78547 V 8.5506161 h 1.52271 v 0.6132178 q 0,0.8130303 -0.275604,1.3849081 -0.275604,0.571877 -0.80614,0.875041 -0.530537,0.303164 -1.281557,0.303164 z" style="stroke-width:0.264997" id="path871"/>
    <path d="M 58.915229,11.623595 V 1.6054075 h 1.502039 V 11.623595 Z m 0.716569,0 v -1.453808 h 3.651747 v 1.453808 z m 0,-4.251184 V 5.9254926 H 62.93904 V 7.372411 Z m 0,-4.313195 V 1.6054075 h 3.651747 V 3.059216 Z" style="stroke-width:0.264997" id="path873"/>
    <path d="M 67.086875,11.623595 V 1.6054075 h 1.502039 V 11.623595 Z m 0.716569,0 v -1.453808 h 3.651747 v 1.453808 z m 0,-4.251184 V 5.9254926 h 3.307242 V 7.372411 Z m 0,-4.313195 V 1.6054075 h 3.651747 V 3.059216 Z" style="stroke-width:0.264997" id="path875"/>
    <path d="M 72.419803,11.616705 V 1.6054075 h 1.240216 l 2.549332,7.1863616 -0.199812,0.2204828 V 1.6054075 h 1.398687 V 11.616705 H 76.15423 L 73.625568,4.7472876 73.818491,4.5199147 v 7.0967903 z" style="stroke-width:0.264997" id="path877"/>
    <path d="m 81.163323,6.2217664 h 2.473541 v 2.9627377 q 0,0.7992502 -0.289383,1.3711279 -0.282494,0.564987 -0.826811,0.868151 -0.544317,0.303164 -1.322897,0.303164 -0.78547,0 -1.343567,-0.282494 -0.551207,-0.289384 -0.847481,-0.833701 -0.289383,-0.544317 -0.289383,-1.3160065 V 4.078949 q 0,-0.8199204 0.282493,-1.3917977 0.289384,-0.5787674 0.833701,-0.8819313 0.551207,-0.3031638 1.322897,-0.3031638 0.764799,0 1.295336,0.2962738 0.537427,0.2893836 0.819921,0.8543709 0.289383,0.5580971 0.282493,1.3504572 v 0.6338881 h -1.57094 V 4.0031581 q 0,-0.4754161 -0.220483,-0.7372394 -0.213592,-0.2618234 -0.606327,-0.2618234 -0.434076,0 -0.682119,0.2893837 -0.241153,0.2824936 -0.241153,0.78547 v 5.2157965 q 0,0.4340756 0.254933,0.6821187 0.254933,0.2480428 0.709679,0.2480428 0.447856,0 0.695899,-0.268713 0.254933,-0.2756035 0.254933,-0.7579097 V 7.6617947 h -0.985282 z" style="stroke-width:0.264997" id="path879"/>
    <path d="M 86.234429,1.6054075 V 11.623595 H 84.73239 V 1.6054075 Z" style="stroke-width:0.264997" id="path881"/>
    <path d="M 87.467757,11.616705 V 1.6054075 h 1.240216 l 2.549333,7.1863616 -0.199813,0.2204828 V 1.6054075 h 1.398688 V 11.616705 H 91.202185 L 88.673523,4.7472876 88.866445,4.5199147 v 7.0967903 z" style="stroke-width:0.264997" id="path883"/>
    <path d="M 93.765296,11.623595 V 1.6054075 h 1.502039 V 11.623595 Z m 0.716569,0 v -1.453808 h 3.651747 v 1.453808 z m 0,-4.251184 V 5.9254926 h 3.307242 V 7.372411 Z m 0,-4.313195 V 1.6054075 h 3.651747 V 3.059216 Z" style="stroke-width:0.264997" id="path885"/>
  </g>
</svg>