<?xml version="1.0" encoding="UTF-8" standalone="no"?>
<!-- Created with Inkscape (http://www.inkscape.org/) -->

<svg
   width="60.001667mm"
   height="24.201445mm"
   viewBox="0 0 60.001667 24.201445"
   version="1.1"
   id="svg1"
   xmlns="http://www.w3.org/2000/svg"
   xmlns:svg="http://www.w3.org/2000/svg">
  <defs
     id="defs1" />
  <g
     id="layer1"
     transform="translate(-37.954549,-50.506042)">
    <g
       id="g13"
       transform="matrix(1.1911818,0,0,1.1911818,-8.4641167,-9.6558345)">
      <path
         style="font-weight:900;font-size:16.9333px;font-family:Arial;-inkscape-font-specification:'Arial, Heavy';fill:#f9f9f9;stroke-width:0.225"
         d="m 78.136698,50.712749 h 7.011444 q 1.752861,0 2.687169,0.868162 0.942576,0.868163 0.942576,2.149736 0,1.074868 -0.669725,1.843811 -0.446483,0.51263 -1.306377,0.810285 1.306377,0.314192 1.918226,1.083136 0.620116,0.760676 0.620116,1.918225 0,0.942577 -0.438215,1.694984 -0.438216,0.752407 -1.198892,1.190623 -0.471288,0.272851 -1.422133,0.396874 -1.265035,0.165364 -1.678447,0.165364 h -6.465743 z m 3.778574,4.754223 h 1.628838 q 0.87643,0 1.215427,-0.297656 0.347265,-0.305924 0.347265,-0.876431 0,-0.529165 -0.347265,-0.826821 -0.338997,-0.297656 -1.190623,-0.297656 h -1.653642 z m 0,4.76249 h 1.909957 q 0.967381,0 1.364255,-0.338997 0.396874,-0.347265 0.396874,-0.926039 0,-0.537434 -0.396874,-0.859895 Q 84.800878,57.7738 83.81696,57.7738 h -1.901689 z"
         id="path4" />
      <path
         style="font-weight:900;font-size:16.9333px;font-family:Arial;-inkscape-font-specification:'Arial, Heavy';fill:#f9f9f9;stroke-width:0.225"
         d="m 63.972718,50.712749 h 4.927855 l 1.901689,7.375246 1.893421,-7.375246 h 4.911318 v 12.1212 h -3.059239 v -9.243862 l -2.372977,9.243862 h -2.769851 l -2.364709,-9.243862 v 9.243862 h -3.067507 z"
         id="path3" />
      <path
         style="font-weight:900;font-size:16.9333px;font-family:Arial;-inkscape-font-specification:'Arial, Heavy';fill:#f9f9f9;stroke-width:0.225"
         d="m 50.883608,56.781614 q 0,-2.968288 1.653643,-4.621931 1.653642,-1.653642 4.605394,-1.653642 3.026166,0 4.663272,1.628838 1.637106,1.620569 1.637106,4.547517 0,2.124931 -0.719334,3.489186 -0.711066,1.355987 -2.067053,2.116662 -1.347719,0.752408 -3.365163,0.752408 -2.050517,0 -3.398235,-0.653189 -1.339451,-0.653189 -2.17454,-2.067053 -0.83509,-1.413865 -0.83509,-3.538796 z m 3.745501,0.01654 q 0,1.835543 0.677993,2.63756 0.686262,0.802016 1.860348,0.802016 1.207159,0 1.868616,-0.78548 0.661457,-0.78548 0.661457,-2.81946 0,-1.711521 -0.69453,-2.497001 -0.686262,-0.793748 -1.868616,-0.793748 -1.132745,0 -1.819007,0.802016 -0.686261,0.802017 -0.686261,2.654097 z"
         id="path2" />
      <path
         style="font-weight:900;font-size:16.9333px;font-family:Arial;-inkscape-font-specification:'Arial, Heavy';fill:#f9f9f9;stroke-width:0.225"
         d="m 38.968582,50.712746 h 11.38533 v 2.993093 h -3.819915 v 9.128107 h -3.7455 v -9.128107 h -3.819915 z"
         id="text1" />
    </g>
    <g
       id="g14"
       transform="matrix(1.1710916,0,0,0.70062313,-6.4940207,18.85844)">
      <path
         style="font-size:16.9333px;font-family:Cambria;-inkscape-font-specification:'Cambria, Normal';fill:#f9f9f9;stroke-width:0.225"
         d="m 82.193999,74.810336 v 2.811193 q 0,0.595311 0.04134,0.868162 0.04961,0.264583 0.14056,0.405142 0.09095,0.132292 0.248046,0.223242 0.157096,0.08268 0.537434,0.190169 v 0.405143 h -3.489186 v -0.405143 q 0.51263,-0.132291 0.686262,-0.289387 0.173633,-0.165365 0.223242,-0.46302 0.05788,-0.297656 0.05788,-0.909504 v -7.152004 q 0,-0.570507 -0.04134,-0.826821 -0.04134,-0.264583 -0.140559,-0.405143 -0.09095,-0.148827 -0.248047,-0.23151 -0.157096,-0.09095 -0.537434,-0.198437 v -0.405142 h 4.092766 q 1.934762,0 2.893874,0.702798 0.959113,0.702798 0.959113,2.182808 0,1.132745 -0.628384,1.926494 -0.620116,0.793748 -1.868616,1.240232 v 0.06615 q 0.504361,0.206706 0.859894,0.595312 0.363801,0.380338 0.802017,1.190622 L 87.527,77.687679 q 0.32246,0.595312 0.55397,0.909504 0.23151,0.314192 0.471288,0.479556 0.239778,0.165364 0.636652,0.23151 v 0.405143 H 86.898612 Q 86.58442,79.275171 86.303301,78.77081 86.022182,78.266449 85.749331,77.745552 L 85.021728,76.36476 Q 84.691,75.736376 84.476026,75.43872 84.269321,75.141065 84.08742,75.02531 q -0.173632,-0.124023 -0.380338,-0.165364 -0.198437,-0.04961 -0.603579,-0.04961 z m 0,-5.622384 v 4.911318 h 0.934308 q 0.719335,0 1.165818,-0.09922 0.446484,-0.107486 0.826822,-0.396874 0.380338,-0.289387 0.603579,-0.802016 0.23151,-0.520898 0.23151,-1.273305 0,-0.78548 -0.272851,-1.306378 -0.264583,-0.520897 -0.810285,-0.793748 -0.545702,-0.272851 -1.471742,-0.272851 -0.744139,0 -1.207159,0.03307 z"
         id="path13" />
      <path
         style="font-size:16.9333px;font-family:Cambria;-inkscape-font-specification:'Cambria, Normal';fill:#f9f9f9;stroke-width:0.225"
         d="m 79.324398,68.427276 v 2.497 h -0.810285 q -0.124023,-0.405142 -0.256315,-0.711066 -0.132291,-0.305924 -0.272851,-0.512629 -0.14056,-0.206706 -0.314192,-0.330729 -0.165364,-0.124023 -0.396874,-0.165364 -0.23151,-0.04961 -0.55397,-0.04961 h -2.612756 v 4.332543 h 1.769398 q 0.363801,0 0.570506,-0.09922 0.206706,-0.107487 0.338997,-0.355533 0.14056,-0.248047 0.264583,-0.777212 h 0.777212 v 3.174993 H 77.050639 Q 76.934884,74.934356 76.794324,74.68631 76.653765,74.429995 76.455328,74.322509 76.265159,74.215022 75.876553,74.215022 h -1.769398 v 4.770759 h 2.571414 q 0.405143,0 0.653189,-0.06615 0.256315,-0.07441 0.438216,-0.239778 0.1819,-0.173633 0.32246,-0.446484 0.140559,-0.272851 0.23151,-0.562238 0.09922,-0.297656 0.264583,-0.859894 h 0.818553 l -0.157096,2.902143 h -7.656365 v -0.405143 q 0.512629,-0.132291 0.686261,-0.289387 0.173633,-0.165365 0.223242,-0.46302 0.05788,-0.297656 0.05788,-0.909504 v -7.152004 q 0,-0.570507 -0.04134,-0.826821 -0.04134,-0.264583 -0.140559,-0.405143 -0.09095,-0.148827 -0.248047,-0.23151 -0.157096,-0.09095 -0.537433,-0.198437 v -0.405142 z"
         id="path12" />
      <path
         style="font-size:16.9333px;font-family:Cambria;-inkscape-font-specification:'Cambria, Normal';fill:#f9f9f9;stroke-width:0.225"
         d="m 62.101181,79.713387 v -0.405143 q 0.380338,-0.09922 0.545702,-0.190169 0.165364,-0.09095 0.256315,-0.23151 0.09095,-0.140559 0.132291,-0.405142 0.04134,-0.264583 0.04134,-0.83509 v -7.152004 q 0,-0.578775 -0.04134,-0.835089 -0.04134,-0.264583 -0.140559,-0.405143 -0.09095,-0.140559 -0.248047,-0.223242 -0.157096,-0.09095 -0.545702,-0.198437 v -0.405142 h 3.621477 q 1.562693,0 2.554878,0.347265 1.000454,0.338997 1.686716,1.008722 0.686261,0.669725 1.025258,1.670179 0.338997,0.992185 0.338997,2.372977 0,1.397328 -0.322461,2.463927 -0.314192,1.058332 -0.926039,1.777666 -0.529166,0.628384 -1.29811,1.033527 -0.636652,0.330728 -1.471742,0.471288 -0.835089,0.14056 -2.215881,0.14056 z m 2.521805,-0.768944 q 0.330729,0.03307 0.975649,0.03307 0.69453,0 1.240232,-0.115755 0.545702,-0.115755 0.992186,-0.363802 0.446483,-0.248046 0.802016,-0.686261 0.355533,-0.446484 0.578775,-1.016991 0.223242,-0.578775 0.322461,-1.281573 0.107486,-0.702798 0.107486,-1.537887 0,-1.678447 -0.487824,-2.753315 -0.479557,-1.083136 -1.364255,-1.579229 -0.876431,-0.496093 -2.100126,-0.496093 -0.562239,0 -1.0666,0.03307 z"
         id="path11" />
      <path
         style="font-size:16.9333px;font-family:Cambria;-inkscape-font-specification:'Cambria, Normal';fill:#f9f9f9;stroke-width:0.225"
         d="m 60.868686,77.646333 q 0,0.553971 0.03307,0.810285 0.04134,0.256315 0.124023,0.405143 0.09095,0.148827 0.256315,0.248046 0.173632,0.09922 0.55397,0.198437 v 0.405143 h -3.489186 v -0.405143 q 0.512629,-0.132291 0.686262,-0.289387 0.173632,-0.165365 0.223242,-0.46302 0.05788,-0.297656 0.05788,-0.909504 v -7.152004 q 0,-0.570507 -0.04134,-0.826821 -0.04134,-0.264583 -0.14056,-0.405143 -0.09095,-0.148827 -0.248046,-0.23151 -0.157096,-0.09095 -0.537434,-0.198437 v -0.405142 h 3.489186 v 0.405142 q -0.363801,0.09095 -0.529166,0.181901 -0.157096,0.09095 -0.256314,0.23151 -0.09095,0.132291 -0.14056,0.405142 -0.04134,0.272851 -0.04134,0.843358 z"
         id="path10" />
      <path
         style="font-size:16.9333px;font-family:Cambria;-inkscape-font-specification:'Cambria, Normal';fill:#f9f9f9;stroke-width:0.225"
         d="m 54.27012,79.713387 v -0.405143 q 0.413411,-0.08268 0.611848,-0.181901 0.206705,-0.09922 0.305924,-0.272851 0.09922,-0.1819 0.09922,-0.479556 0,-0.281119 -0.06614,-0.603579 -0.06615,-0.330729 -0.190169,-0.735871 l -0.305924,-1.0666 h -3.852987 l -0.28112,0.810285 q -0.214973,0.611848 -0.281119,0.92604 -0.06614,0.314192 -0.06614,0.570506 0,0.496093 0.248046,0.727603 0.256315,0.23151 0.777212,0.305924 v 0.405143 h -3.530539 v -0.405143 q 0.46302,-0.07441 0.802017,-0.537434 0.347265,-0.46302 0.669725,-1.322914 l 3.447845,-9.152911 h 1.306377 l 2.811193,9.219057 q 0.198437,0.644921 0.347265,0.983917 0.157096,0.338997 0.372069,0.529166 0.214974,0.190169 0.587043,0.281119 v 0.405143 z m -3.174994,-4.464835 h 3.456113 l -1.57096,-5.332998 z"
         id="path9" />
      <path
         style="font-size:16.9333px;font-family:Cambria;-inkscape-font-specification:'Cambria, Normal';fill:#f9f9f9;stroke-width:0.225"
         d="m 40.478208,74.810336 v 2.811193 q 0,0.595311 0.04134,0.868162 0.04961,0.264583 0.14056,0.405142 0.09095,0.132292 0.248046,0.223242 0.157096,0.08268 0.537434,0.190169 v 0.405143 h -3.489186 v -0.405143 q 0.51263,-0.132291 0.686262,-0.289387 0.173633,-0.165365 0.223242,-0.46302 0.05788,-0.297656 0.05788,-0.909504 v -7.152004 q 0,-0.570507 -0.04134,-0.826821 -0.04134,-0.264583 -0.140559,-0.405143 -0.09095,-0.148827 -0.248047,-0.23151 -0.157096,-0.09095 -0.537434,-0.198437 v -0.405142 h 4.092766 q 1.934762,0 2.893874,0.702798 0.959113,0.702798 0.959113,2.182808 0,1.132745 -0.628384,1.926494 -0.620116,0.793748 -1.868616,1.240232 v 0.06615 q 0.504361,0.206706 0.859894,0.595312 0.363801,0.380338 0.802017,1.190622 l 0.744139,1.355987 q 0.32246,0.595312 0.55397,0.909504 0.23151,0.314192 0.471288,0.479556 0.239778,0.165364 0.636652,0.23151 v 0.405143 H 45.182821 Q 44.868629,79.275171 44.58751,78.77081 44.306391,78.266449 44.03354,77.745552 L 43.305937,76.36476 q -0.330728,-0.628384 -0.545702,-0.92604 -0.206705,-0.297655 -0.388606,-0.41341 -0.173632,-0.124023 -0.380338,-0.165364 -0.198437,-0.04961 -0.603579,-0.04961 z m 0,-5.622384 v 4.911318 h 0.934308 q 0.719335,0 1.165818,-0.09922 0.446484,-0.107486 0.826822,-0.396874 0.380338,-0.289387 0.603579,-0.802016 0.23151,-0.520898 0.23151,-1.273305 0,-0.78548 -0.272851,-1.306378 -0.264583,-0.520897 -0.810285,-0.793748 -0.545702,-0.272851 -1.471742,-0.272851 -0.744139,0 -1.207159,0.03307 z"
         id="text2" />
    </g>
  </g>
</svg>
