<?xml version="1.0" encoding="UTF-8" standalone="no"?>
<!-- Created with Inkscape (http://www.inkscape.org/) -->

<svg
   width="20.000849mm"
   height="9.4151516mm"
   viewBox="0 0 20.000849 9.4151516"
   version="1.1"
   id="svg5"
   xmlns="http://www.w3.org/2000/svg"
   xmlns:svg="http://www.w3.org/2000/svg">
  <defs
     id="defs2" />
  <g
     id="layer1"
     transform="translate(-60.360676,-97.026713)">
    <g
       id="g1781"
       transform="matrix(1.0038121,0,0,1.0038121,-0.96604083,-0.3698686)">
      <path
         style="font-size:7.05556px;font-family:C059;-inkscape-font-specification:'C059, Normal';fill:#ffffff;stroke-width:0.05"
         d="m 65.425932,97.132528 h -4.226277 l -0.105834,1.961444 h 0.303389 c 0.04939,-0.352778 0.105834,-0.620889 0.1905,-0.846666 0.183445,-0.522112 0.522111,-0.783167 1.001889,-0.783167 0.232833,0 0.331611,0.07761 0.331611,0.254 v 3.640671 c 0,0.35983 0,0.37394 -0.04233,0.43744 -0.05644,0.0706 -0.1905,0.0988 -0.592667,0.0988 h -0.183444 v 0.33161 h 2.420055 v -0.33161 H 64.33938 c -0.395111,0 -0.529167,-0.0282 -0.585611,-0.0988 -0.04233,-0.0635 -0.04233,-0.0776 -0.04233,-0.43744 v -3.640671 c 0,-0.176389 0.09878,-0.254 0.331612,-0.254 0.430388,0 0.776111,0.239889 0.9525,0.663222 0.105833,0.261056 0.176388,0.564445 0.232833,0.966611 h 0.303389 z"
         id="path1775" />
      <path
         style="font-size:7.05556px;font-family:C059;-inkscape-font-specification:'C059, Normal';fill:#ffffff;stroke-width:0.05"
         d="m 68.107049,97.026706 c -0.627944,0 -1.164166,0.197555 -1.594555,0.592666 -0.543278,0.500945 -0.860778,1.262945 -0.860778,2.067278 0,0.79022 0.324556,1.55928 0.860778,2.05317 0.423333,0.38805 0.959556,0.59266 1.566333,0.59266 1.382889,0 2.427111,-1.143 2.427111,-2.652886 0,-1.495777 -1.044222,-2.652888 -2.398889,-2.652888 z m -0.0071,0.331611 c 0.472722,0 0.867833,0.218722 1.121833,0.606777 0.261056,0.416278 0.352778,0.846667 0.352778,1.7145 0,0.860776 -0.09172,1.291166 -0.352778,1.714496 -0.254,0.39511 -0.642055,0.60678 -1.143,0.60678 -0.500944,0 -0.889,-0.20461 -1.143,-0.60678 -0.268111,-0.42333 -0.352777,-0.85372 -0.352777,-1.728607 0,-0.853722 0.09172,-1.277055 0.352777,-1.700389 0.261056,-0.409222 0.635,-0.606777 1.164167,-0.606777 z"
         id="path1773" />
      <path
         style="font-size:7.05556px;font-family:C059;-inkscape-font-specification:'C059, Normal';fill:#ffffff;stroke-width:0.05"
         d="m 71.966435,97.132538 h -1.820334 v 0.331611 h 0.134056 c 0.402167,0.0071 0.536222,0.02822 0.585611,0.09878 0.04939,0.0635 0.04939,0.07055 0.04939,0.437444 v 2.702277 c 0,0.95955 -0.134056,1.15711 -0.818444,1.19239 v 0.33161 h 2.010833 v -0.33161 c -0.677333,-0.0353 -0.811389,-0.23284 -0.811389,-1.19239 v -3.118555 l 1.679222,4.642555 h 0.282222 l 1.573389,-4.642555 v 3.774725 c 0,0.35983 0,0.37394 -0.04233,0.4445 -0.05644,0.0705 -0.1905,0.0917 -0.592667,0.0917 h -0.127 v 0.33161 h 2.314222 v -0.33161 h -0.127 c -0.402166,0 -0.536222,-0.0212 -0.592666,-0.0917 -0.04233,-0.0706 -0.04233,-0.0776 -0.04233,-0.4445 v -3.358447 c 0,-0.359833 0,-0.373944 0.04233,-0.437444 0.05644,-0.07056 0.1905,-0.09172 0.592666,-0.09878 h 0.127 v -0.331611 h -1.770944 l -1.291167,3.760612 z"
         id="path1771" />
      <path
         style="font-size:7.05556px;font-family:C059;-inkscape-font-specification:'C059, Normal';fill:#ffffff;stroke-width:0.05"
         d="m 76.503159,97.132528 v 0.331611 h 0.127 c 0.402167,0.0071 0.536222,0.02822 0.592667,0.09878 0.04233,0.0635 0.04233,0.07761 0.04233,0.437444 v 3.358447 c 0,0.35983 0,0.37394 -0.04233,0.43744 -0.05644,0.0706 -0.1905,0.0988 -0.592667,0.0988 h -0.127 v 0.33161 h 2.561167 c 1.220611,0 1.954389,-0.51506 1.954389,-1.38289 0,-0.70556 -0.4445,-1.10772 -1.411112,-1.277054 0.338667,-0.07055 0.493889,-0.134055 0.677334,-0.268111 0.289278,-0.218722 0.465666,-0.564444 0.465666,-0.917222 0,-0.458611 -0.282222,-0.903111 -0.691444,-1.0795 -0.254,-0.112889 -0.606778,-0.169333 -1.023056,-0.169333 z m 1.552222,2.293055 v -1.608666 c 0,-0.275167 0.09172,-0.345723 0.465667,-0.352778 h 0.282222 c 0.324556,0 0.592667,0.05644 0.740833,0.148167 0.254,0.155222 0.388056,0.451555 0.388056,0.846666 0,0.6985 -0.338667,0.966611 -1.248833,0.966611 z m 0,0.331611 h 0.620889 c 1.0795,0 1.474611,0.289276 1.474611,1.065386 0,0.45156 -0.155222,0.77611 -0.430389,0.91017 -0.218722,0.11289 -0.515055,0.16228 -0.959555,0.16228 h -0.296333 c -0.352778,0 -0.423334,-0.0706 -0.409223,-0.4445 z"
         id="path1764" />
    </g>
    <g
       id="g1831"
       transform="matrix(0.19869155,0,0,0.19869155,52.752343,80.790797)">
      <path
         style="font-size:22.5778px;font-family:C059;-inkscape-font-specification:'C059, Normal';fill:#ffffff;stroke-width:0.05"
         d="m 43.267606,120.85905 h 1.309512 c 2.280358,0.0903 3.18347,1.016 3.431826,3.49956 l 0.112889,1.15146 c 0.270933,2.55129 1.106312,3.58987 2.889958,3.58987 1.85138,0 2.731914,-1.24178 2.799648,-3.95111 h -0.948268 c -0.09031,1.55787 -0.361245,2.2352 -0.970845,2.2352 -0.51929,0 -0.745068,-0.38382 -1.128891,-1.94169 l -0.361244,-1.4224 c -0.496712,-2.07716 -1.377246,-3.02543 -3.138315,-3.47698 3.251204,-0.45156 4.809072,-1.76107 4.809072,-4.04143 0,-2.57387 -2.167469,-4.04143 -5.960539,-4.04143 h -7.81192 v 1.06116 h 0.406401 c 1.286935,0.0226 1.715913,0.0903 1.896535,0.31609 0.135467,0.2032 0.135467,0.24836 0.135467,1.39982 v 10.76961 c 0,1.12889 0,1.17405 -0.135467,1.39983 -0.180622,0.22578 -0.6096,0.29351 -1.896535,0.29351 h -0.406401 v 1.06116 h 7.405519 v -1.06116 h -0.4064 c -1.286935,0 -1.715913,-0.0677 -1.896536,-0.29351 -0.135466,-0.22578 -0.135466,-0.27094 -0.135466,-1.39983 z m 0,-1.06116 v -4.96712 c -0.04516,-1.24178 0.06773,-1.33209 1.557868,-1.30951 h 1.219201 c 2.235202,0 3.251203,0.94827 3.251203,3.00285 0,1.15147 -0.293511,2.032 -0.880534,2.50613 -0.564445,0.47414 -1.580446,0.76765 -2.66418,0.76765 z"
         id="path1816" />
      <path
         style="font-size:22.5778px;font-family:C059;-inkscape-font-specification:'C059, Normal';fill:#ffffff;stroke-width:0.05"
         d="m 62.50503,112.14401 h -0.948268 l -5.192894,13.16286 c -0.609601,1.76107 -1.196623,2.30294 -2.483558,2.39325 H 53.79 v 1.06116 h 5.983117 v -1.06116 H 59.32156 c -1.219201,0 -1.828802,-0.42898 -1.828802,-1.28694 0,-0.29351 0.06773,-0.56444 0.2032,-0.94826 l 0.745068,-1.98685 h 5.983117 l 1.219201,3.02543 c 0.135467,0.36124 0.180622,0.49671 0.180622,0.6096 0,0.36124 -0.564445,0.58702 -1.399823,0.58702 h -0.948268 v 1.06116 h 6.999118 v -1.06116 h -0.316089 c -1.174045,-0.0226 -1.377246,-0.15804 -1.896535,-1.44498 z m -1.106312,3.70276 2.551291,6.4121 h -5.057427 z"
         id="path1814" />
      <path
         style="font-size:22.5778px;font-family:C059;-inkscape-font-specification:'C059, Normal';fill:#ffffff;stroke-width:0.05"
         d="m 70.853,113.52126 h 0.451556 c 1.286934,0.0226 1.715912,0.0903 1.896535,0.31609 0.135467,0.2032 0.135467,0.27093 0.135467,1.39982 v 10.74704 c 0,1.12889 0,1.19662 -0.135467,1.39982 -0.180623,0.22578 -0.609601,0.31609 -1.896535,0.31609 H 70.853 v 1.06116 h 7.473252 v -1.06116 h -0.451556 c -1.264357,0 -1.693335,-0.0677 -1.873958,-0.31609 -0.135467,-0.2032 -0.135467,-0.24836 -0.135467,-1.39982 v -10.74704 c 0,-1.15146 0,-1.19662 0.135467,-1.39982 0.180623,-0.22578 0.587023,-0.29351 1.873958,-0.31609 h 0.451556 V 112.4601 H 70.853 Z"
         id="path1812" />
      <path
         style="font-size:22.5778px;font-family:C059;-inkscape-font-specification:'C059, Normal';fill:#ffffff;stroke-width:0.05"
         d="m 78.705,128.76128 h 7.586141 c 2.009424,0 3.544715,-0.31609 4.741338,-0.99343 2.280358,-1.28693 3.544715,-3.8608 3.544715,-7.24747 0,-3.11574 -1.12889,-5.55414 -3.206048,-6.90881 -1.241779,-0.79022 -2.912536,-1.15147 -5.486405,-1.15147 H 78.705 v 1.06116 h 0.428978 c 1.264357,0.0226 1.693335,0.0903 1.873958,0.31609 0.135466,0.2032 0.135466,0.24836 0.135466,1.39982 v 10.74704 c 0,1.15146 0,1.19662 -0.135466,1.39982 -0.180623,0.22578 -0.609601,0.29351 -1.873958,0.31609 H 78.705 Z m 6.254051,-1.06116 c -1.151468,0 -1.286935,-0.13547 -1.286935,-1.24178 v -11.67272 c 0,-1.10631 0.158045,-1.26436 1.286935,-1.26436 h 1.174045 c 3.860804,0 5.463828,2.09974 5.463828,7.08943 0,5.05743 -1.444979,7.08943 -5.102583,7.08943 z"
         id="path1810" />
      <path
         style="font-size:22.5778px;font-family:C059;-inkscape-font-specification:'C059, Normal';fill:#ffffff;stroke-width:0.05"
         d="M 106.22424,112.4601 H 92.655 v 1.06116 h 0.4064 c 1.286935,0.0226 1.715916,0.0903 1.896536,0.31609 0.13547,0.2032 0.13547,0.24836 0.13547,1.39982 v 10.74704 c 0,1.15146 0,1.19662 -0.13547,1.39982 -0.18062,0.22578 -0.609601,0.31609 -1.896536,0.31609 H 92.655 v 1.06116 h 13.86275 l 0.45156,-6.02828 h -0.99342 c -0.85796,4.01885 -1.78365,4.87681 -5.23805,4.96712 H 99.2477 c -1.35467,-0.0452 -1.69333,-0.27093 -1.6256,-1.08373 v -5.75734 h 0.45156 c 2.32551,-0.0903 3.16089,0.74506 3.2512,3.2512 h 1.06116 v -7.40552 h -1.06116 c -0.13547,2.21263 -1.016,3.09316 -3.16089,3.09316 H 97.6221 v -5.14774 c -0.0226,-0.94827 0.2032,-1.10631 1.4224,-1.12889 h 1.17405 c 3.70276,-0.0226 4.62845,0.79022 5.35094,4.69618 h 0.97084 z"
         id="path1808" />
      <path
         style="font-size:22.5778px;font-family:C059;-inkscape-font-specification:'C059, Normal';fill:#ffffff;stroke-width:0.05"
         d="m 112.04011,120.85905 h 1.30952 c 2.28035,0.0903 3.18347,1.016 3.43182,3.49956 l 0.11289,1.15146 c 0.27094,2.55129 1.10631,3.58987 2.88996,3.58987 1.85138,0 2.73191,-1.24178 2.79965,-3.95111 h -0.94827 c -0.0903,1.55787 -0.36125,2.2352 -0.97085,2.2352 -0.51929,0 -0.74506,-0.38382 -1.12889,-1.94169 l -0.36124,-1.4224 c -0.49671,-2.07716 -1.37725,-3.02543 -3.13831,-3.47698 3.2512,-0.45156 4.80907,-1.76107 4.80907,-4.04143 0,-2.57387 -2.16747,-4.04143 -5.96054,-4.04143 H 107.073 v 1.06116 h 0.4064 c 1.28693,0.0226 1.71591,0.0903 1.89653,0.31609 0.13547,0.2032 0.13547,0.24836 0.13547,1.39982 v 10.76961 c 0,1.12889 0,1.17405 -0.13547,1.39983 -0.18062,0.22578 -0.6096,0.29351 -1.89653,0.29351 h -0.4064 v 1.06116 h 7.40552 v -1.06116 h -0.4064 c -1.28694,0 -1.71592,-0.0677 -1.89654,-0.29351 -0.13547,-0.22578 -0.13547,-0.27094 -0.13547,-1.39983 z m 0,-1.06116 v -4.96712 c -0.0451,-1.24178 0.0677,-1.33209 1.55787,-1.30951 h 1.2192 c 2.23521,0 3.25121,0.94827 3.25121,3.00285 0,1.15147 -0.29351,2.032 -0.88054,2.50613 -0.56444,0.47414 -1.58044,0.76765 -2.66418,0.76765 z"
         id="path1806" />
      <g
         id="g1820"
         transform="translate(-13.758336)">
        <path
           style="font-size:22.5778px;font-family:C059;-inkscape-font-specification:'C059, Normal';fill:#ffffff;stroke-width:0.05"
           d="m 137.401,113.52126 h 0.45155 c 1.28694,0.0226 1.71592,0.0903 1.89654,0.31609 0.13547,0.2032 0.13547,0.27093 0.13547,1.39982 v 10.74704 c 0,1.12889 0,1.19662 -0.13547,1.39982 -0.18062,0.22578 -0.6096,0.31609 -1.89654,0.31609 H 137.401 v 1.06116 h 7.47325 v -1.06116 h -0.45156 c -1.26435,0 -1.69333,-0.0677 -1.87395,-0.31609 -0.13547,-0.2032 -0.13547,-0.24836 -0.13547,-1.39982 v -10.74704 c 0,-1.15146 0,-1.19662 0.13547,-1.39982 0.18062,-0.22578 0.58702,-0.29351 1.87395,-0.31609 h 0.45156 V 112.4601 H 137.401 Z"
           id="path1804" />
        <path
           style="font-size:22.5778px;font-family:C059;-inkscape-font-specification:'C059, Normal';fill:#ffffff;stroke-width:0.05"
           d="m 145.23176,113.52126 h 0.45156 c 1.28694,0.0226 1.71591,0.0903 1.89654,0.31609 0.13546,0.2032 0.13546,0.27093 0.13546,1.39982 v 10.74704 c 0,1.12889 0,1.19662 -0.13546,1.39982 -0.18063,0.22578 -0.6096,0.31609 -1.89654,0.31609 h -0.45156 v 1.06116 h 7.47326 v -1.06116 h -0.45156 c -1.26436,0 -1.69333,-0.0677 -1.87396,-0.31609 -0.13546,-0.2032 -0.13546,-0.24836 -0.13546,-1.39982 v -10.74704 c 0,-1.15146 0,-1.19662 0.13546,-1.39982 0.18063,-0.22578 0.58703,-0.29351 1.87396,-0.31609 h 0.45156 v -1.06116 h -7.47326 z"
           id="path1797" />
      </g>
    </g>
  </g>
</svg>
