<?xml version="1.0" encoding="utf-8"?>
<svg height="152.116" viewBox="0 0 475.716 258.596" width="279.833" xmlns="http://www.w3.org/2000/svg">
  <path d="M100.407 46.522h9.867q3.2 0 5.866-1.2 2.8-1.2 4.934-3.333 2.133-2.133 3.333-4.8 1.2-2.8 1.2-6t-1.2-6q-1.2-2.8-3.333-4.8-2.134-2.133-4.934-3.333-2.666-1.2-5.866-1.2h-54q-3.2 0-6 1.2t-4.934 3.333q-2 2-3.2 4.8-1.2 2.8-1.2 6t1.2 6q1.2 2.667 3.2 4.8 2.134 2.133 4.934 3.333 2.8 1.2 6 1.2h10.133V98.79q0 3.6 1.333 6.667 1.334 3.066 3.6 5.466 2.267 2.267 5.334 3.6 3.2 1.334 6.666 1.334 3.6 0 6.667-1.334 3.067-1.333 5.333-3.6 2.4-2.4 3.734-5.466 1.333-3.067 1.333-6.667zM173.163 14.122q-10.666 0-20.133 4.134-9.466 4-16.533 11.066-6.933 6.934-11.067 16.4-4 9.467-4 20.134 0 10.666 4 20.133 4.134 9.467 11.067 16.533 7.067 6.934 16.533 11.067 9.467 4 20.133 4 10.667 0 20.134-4 9.466-4.133 16.4-11.067 7.066-7.066 11.066-16.533 4.134-9.467 4.134-20.133 0-10.667-4.134-20.134-4-9.466-11.066-16.4-6.934-7.066-16.4-11.066-9.467-4.134-20.134-4.134zm.934 32.4q4 0 7.466 1.6 3.6 1.467 6.134 4.134 2.666 2.533 4.133 6.133 1.6 3.467 1.6 7.467 0 4-1.6 7.6-1.467 3.466-4.133 6.133-2.534 2.533-6.134 4.133-3.466 1.467-7.466 1.467t-7.6-1.467q-3.467-1.6-6.133-4.133-2.534-2.667-4.134-6.133-1.466-3.6-1.466-7.6 0-4 1.466-7.467 1.6-3.6 4.134-6.133 2.666-2.667 6.133-4.134 3.6-1.6 7.6-1.6zM307.653 87.189l2.8 15.2q.533 3.067 2 5.6 1.6 2.4 3.867 4.133 2.266 1.734 4.933 2.8 2.8.934 5.733.934 4.4 0 7.6-1.6 3.2-1.6 5.334-4 2.133-2.4 3.2-5.334 1.066-3.066 1.066-5.866 0-.667-.133-1.467 0-.8-.133-1.467l-12.4-66.666q-1.2-6.267-5.734-9.867-4.533-3.733-10.933-3.733-5.2 0-9.2 2.4-3.867 2.266-6.133 7.066l-15.867 33.2-15.866-33.2q-4.534-9.466-15.334-9.466-6.4 0-11.066 3.733-4.534 3.6-5.6 9.867L223.52 96.122l-.267 1.6v1.467q0 3.333 1.334 6.4 1.333 2.933 3.6 5.333 2.4 2.267 5.466 3.6 3.067 1.334 6.667 1.334 2.933 0 5.6-.934 2.8-1.066 5.067-2.8 2.266-1.733 3.733-4.133 1.6-2.533 2.133-5.6l2.8-15.2 9.2 19.333q4.4 9.334 14.8 9.334t14.8-9.334zM419.076 41.856q2.934-4.267 2.934-9.467 0-3.333-1.334-6.4-1.333-3.067-3.6-5.2-2.133-2.267-5.2-3.6-3.066-1.333-6.4-1.333-3.866 0-7.466 1.733-3.467 1.733-5.867 5.2l-12 17.067-11.867-17.067q-2.4-3.467-6-5.2t-7.466-1.733q-3.467 0-6.534 1.333-2.933 1.333-5.2 3.6-2.133 2.133-3.466 5.2-1.334 3.067-1.334 6.4 0 2.4.667 4.8.8 2.4 2.267 4.533l22 31.467v25.6q0 3.6 1.333 6.667 1.333 3.066 3.6 5.466 2.267 2.267 5.333 3.6 3.2 1.334 6.667 1.334 3.467 0 6.533-1.334 3.2-1.333 5.467-3.6 2.4-2.4 3.733-5.466 1.334-3.067 1.334-6.667v-25.6zM70.72 160.607h9.477q3.073 0 5.634-1.24 2.689-1.242 4.738-3.447 2.048-2.206 3.2-4.963 1.153-2.895 1.153-6.204 0-3.309-1.152-6.204-1.153-2.895-3.201-4.963-2.05-2.205-4.738-3.446-2.561-1.24-5.634-1.24h-51.86q-3.074 0-5.763 1.24t-4.738 3.446q-1.92 2.068-3.073 4.963-1.152 2.895-1.152 6.204 0 3.309 1.152 6.204 1.153 2.757 3.073 4.963 2.05 2.205 4.738 3.446 2.69 1.24 5.762 1.24h9.732v54.042q0 3.722 1.28 6.893 1.281 3.17 3.458 5.652 2.177 2.344 5.122 3.722 3.073 1.379 6.403 1.379 3.457 0 6.402-1.379 2.945-1.378 5.122-3.722 2.305-2.482 3.585-5.652 1.28-3.171 1.28-6.893zM143.325 198.794q-3.33 0-5.762-2.482-2.433-2.619-2.433-6.203v-43.702q0-3.584-1.28-6.755-1.281-3.17-3.586-5.514-2.177-2.482-5.122-3.86-2.945-1.379-6.403-1.379-3.329 0-6.402 1.379-2.945 1.378-5.122 3.86-2.177 2.343-3.457 5.514-1.28 3.171-1.28 6.755v43.702q0 9.098 3.2 17.094 3.202 7.996 8.708 14.062 5.634 5.928 13.06 9.374 7.428 3.447 15.879 3.447t15.75-3.447q7.427-3.446 12.933-9.374 5.634-6.066 8.836-14.062 3.2-7.996 3.2-17.094v-43.702q0-3.584-1.28-6.755-1.28-3.17-3.585-5.514-2.177-2.482-5.122-3.86-2.945-1.379-6.275-1.379-3.329 0-6.402 1.379-2.945 1.378-5.25 3.86-2.177 2.343-3.457 5.514-1.28 3.171-1.28 6.755v43.702q0 3.584-2.434 6.203-2.305 2.482-5.634 2.482zM248.71 160.607h9.476q3.073 0 5.634-1.24 2.689-1.242 4.738-3.447 2.048-2.206 3.2-4.963 1.153-2.895 1.153-6.204 0-3.309-1.152-6.204-1.153-2.895-3.201-4.963-2.05-2.205-4.738-3.446-2.561-1.24-5.634-1.24h-51.86q-3.074 0-5.763 1.24t-4.738 3.446q-1.92 2.068-3.073 4.963-1.152 2.895-1.152 6.204 0 3.309 1.152 6.204 1.153 2.757 3.073 4.963 2.05 2.205 4.738 3.446 2.69 1.24 5.762 1.24h9.732v54.042q0 3.722 1.28 6.893 1.281 3.17 3.458 5.652 2.177 2.344 5.122 3.722 3.073 1.379 6.403 1.379 3.457 0 6.402-1.379 2.945-1.378 5.122-3.722 2.305-2.482 3.585-5.652 1.28-3.171 1.28-6.893zM320.418 127.107q-10.244 0-19.336 4.274-9.091 4.135-15.878 11.442-6.659 7.169-10.628 16.957-3.842 9.788-3.842 20.816 0 11.03 3.842 20.817 3.97 9.788 10.628 17.095 6.787 7.168 15.878 11.442 9.092 4.136 19.336 4.136 10.244 0 19.335-4.136 9.092-4.274 15.75-11.442 6.787-7.307 10.628-17.095 3.97-9.788 3.97-20.817 0-11.028-3.97-20.816-3.841-9.788-10.628-16.957-6.658-7.307-15.75-11.442-9.091-4.274-19.335-4.274zm.896 33.5q3.842 0 7.17 1.654 3.458 1.517 5.891 4.274 2.561 2.62 3.97 6.341 1.536 3.585 1.536 7.72 0 4.136-1.536 7.858-1.409 3.585-3.97 6.342-2.433 2.62-5.89 4.274-3.33 1.516-7.17 1.516-3.842 0-7.3-1.516-3.329-1.655-5.89-4.274-2.433-2.757-3.97-6.342-1.408-3.722-1.408-7.858 0-4.135 1.408-7.72 1.537-3.722 3.97-6.341 2.561-2.757 5.89-4.274 3.458-1.654 7.3-1.654zM415.559 160.607q1.92 0 3.329 1.516 1.409 1.517 1.409 3.585 0 2.205-1.409 3.722-1.409 1.516-3.33 1.516h-4.353v-10.34zm27.018 31.707q2.049-1.93 3.842-4.825 1.92-2.895 3.329-6.203 1.537-3.447 2.305-7.307.896-3.998.896-7.996 0-7.72-2.689-14.475t-7.427-11.718q-4.61-5.1-10.884-7.996-6.274-2.895-13.445-2.895h-23.69q-3.329 0-6.402 1.379-2.945 1.378-5.122 3.86-2.177 2.343-3.457 5.514-1.28 3.171-1.28 6.755v68.24q0 3.723 1.28 6.894 1.28 3.17 3.457 5.652 2.177 2.344 5.122 3.722 3.073 1.379 6.403 1.379 3.457 0 6.402-1.379 2.945-1.378 5.122-3.722 2.305-2.482 3.585-5.652 1.281-3.171 1.281-6.893v-9.926l11.396 19.714q2.177 3.998 5.89 5.928 3.714 1.93 7.94 1.93 3.33 0 6.274-1.379 2.945-1.378 5.122-3.722 2.305-2.344 3.586-5.514 1.28-3.31 1.28-6.893 0-4.826-2.433-9.1z" style="fill: rgb(255, 255, 255);"/>
</svg>