<?xml version="1.0" encoding="utf-8"?>
<svg version="1.1" viewBox="0.00 0.00 500.00 176.00" xmlns="http://www.w3.org/2000/svg">
  <path d=" M 341.52 12.31 C 344.01 13.39 346.50 13.85 348.37 15.90 C 351.17 18.99 353.05 21.64 354.29 25.85 C 355.33 29.38 356.43 36.19 359.44 38.40 Q 363.76 41.59 364.75 44.47 Q 367.67 53.04 370.29 61.78 Q 369.73 62.21 369.73 62.83 Q 369.74 63.49 370.37 63.31 Q 373.44 62.46 374.23 58.98 Q 375.53 53.32 379.20 43.84 Q 379.44 43.21 379.51 42.52 Q 379.55 42.08 380.00 42.02 Q 380.32 41.98 380.45 41.88 Q 384.58 38.71 388.69 38.57 C 397.50 38.27 409.79 39.34 420.82 38.59 C 425.69 38.25 430.68 39.14 435.44 37.63 Q 435.91 37.49 435.36 35.97 C 440.34 37.22 442.85 38.77 445.62 43.09 C 447.94 46.70 448.93 55.20 447.21 59.30 C 443.48 68.21 437.93 77.68 434.23 84.96 Q 431.14 91.05 427.87 97.05 Q 427.63 97.51 427.90 97.95 Q 428.65 99.20 430.52 99.67 Q 429.84 101.01 430.42 101.93 A 0.98 0.96 74.6 0 0 431.23 102.40 Q 442.36 102.65 453.46 102.18 Q 461.65 101.83 465.09 100.00 C 468.75 98.05 473.10 92.77 472.63 87.95 Q 472.33 84.98 470.78 87.19 C 470.95 79.26 469.78 76.30 465.14 69.72 A 1.21 1.19 34.1 0 1 464.95 68.76 Q 465.20 67.68 466.48 67.00 Q 466.40 67.62 466.48 67.69 A 1.90 1.82 -43.6 0 0 468.78 67.70 L 478.93 59.99 C 486.33 62.75 492.29 72.84 492.62 80.54 Q 493.16 93.11 487.37 103.97 C 483.38 111.43 476.60 116.79 469.31 121.01 C 464.43 123.84 453.40 121.71 447.99 121.74 Q 416.62 121.95 385.25 122.03 C 381.45 122.04 375.12 124.13 371.76 120.54 A 1.11 1.11 0.0 0 1 371.46 119.71 Q 372.13 109.21 371.71 105.76 Q 371.50 104.04 369.92 103.94 C 367.88 103.81 366.29 105.85 363.89 105.99 C 359.68 106.23 351.42 107.66 348.84 103.69 A 0.83 0.81 -16.1 0 0 348.15 103.32 L 345.29 103.32 A 0.61 0.60 -68.1 0 0 344.85 103.51 Q 341.26 107.30 336.51 107.17 Q 320.05 106.70 303.60 106.58 C 300.30 106.56 296.74 107.07 293.25 107.16 Q 264.27 107.83 239.45 107.07 Q 230.36 106.79 227.58 98.84 L 228.58 98.44 Q 229.07 98.25 229.00 97.73 Q 228.65 94.93 231.53 94.15 Q 232.08 94.00 232.51 94.37 L 233.32 95.08 Q 233.65 95.37 234.05 95.19 Q 234.81 94.85 236.14 95.55 C 240.92 99.95 251.53 99.47 257.91 98.88 Q 262.29 99.67 267.07 98.89 L 270.75 99.18 Q 271.19 99.22 271.24 98.78 Q 271.29 98.39 271.69 98.45 Q 278.56 99.60 285.33 98.63 A 2.38 2.36 7.8 0 0 287.15 97.26 L 290.42 90.04 L 298.02 73.55 L 302.83 63.22 L 303.53 61.23 L 306.60 54.48 L 309.28 49.29 L 310.65 46.44 A 1.36 1.36 0.0 0 0 309.80 44.55 C 303.50 42.76 299.38 43.28 292.95 43.69 Q 289.63 44.06 286.22 44.92 C 282.88 45.76 281.72 52.76 280.96 56.50 L 274.74 76.50 Q 273.69 77.15 274.06 79.01 L 272.79 82.75 Q 266.33 92.05 255.85 86.49 L 255.47 83.02 C 257.83 73.41 263.88 73.48 270.30 67.80 Q 275.26 59.90 271.85 52.20 Q 268.73 46.01 262.34 44.45 L 254.84 43.68 L 246.40 43.87 L 224.28 44.01 L 220.94 44.13 Q 219.26 43.26 221.98 42.72 Q 222.79 42.56 222.06 42.17 L 221.41 41.82 Q 220.80 41.49 221.24 40.96 L 221.66 40.44 Q 222.06 39.95 221.55 39.59 Q 220.61 38.92 219.44 38.99 A 0.09 0.09 0.0 0 1 219.39 38.83 Q 219.51 38.75 219.61 38.66 Q 219.77 38.53 219.98 38.51 L 230.77 37.77 L 269.65 37.60 Q 274.06 40.38 277.00 45.65 Q 276.64 47.05 278.21 46.55 Q 278.76 46.38 279.25 45.84 C 281.08 43.83 284.35 41.17 285.57 38.90 Q 286.79 36.63 284.94 36.66 C 281.90 32.04 278.59 24.27 282.76 19.47 Q 283.18 20.23 283.75 20.27 Q 284.21 20.30 284.41 19.88 C 289.32 9.64 300.27 8.93 310.51 9.51 Q 323.53 10.25 336.23 13.31 Q 337.16 13.53 337.85 14.18 Q 338.23 14.54 338.75 14.58 Q 341.36 14.79 341.52 12.31 Z M 295.23 15.37 L 292.21 17.45 Q 288.87 20.49 288.46 24.75 Q 287.70 31.65 293.61 35.49 L 296.97 37.00 Q 299.64 37.93 302.26 37.24 Q 302.97 37.33 303.74 36.94 Q 305.37 37.77 306.81 36.45 C 313.95 34.85 315.35 25.92 313.17 20.16 Q 312.97 19.63 313.51 19.45 C 316.57 18.50 320.21 20.21 322.52 20.72 L 329.21 23.40 C 336.62 30.24 333.49 39.70 329.47 47.32 L 326.18 52.19 L 323.45 55.65 L 318.89 61.79 L 315.01 66.75 L 299.88 86.02 Q 298.76 86.84 298.27 88.81 L 293.93 93.60 Q 292.24 94.96 292.05 97.05 A 0.76 0.76 0.0 0 0 292.52 97.82 Q 297.27 99.70 303.01 98.42 Q 310.66 99.01 318.92 97.97 L 322.48 98.80 L 340.78 98.39 A 1.21 1.19 -67.4 0 0 341.59 98.05 Q 345.18 94.44 343.86 89.24 Q 343.54 87.00 341.97 84.71 L 340.07 81.60 Q 338.93 78.75 337.02 77.23 Q 336.28 76.65 336.48 77.57 L 337.60 82.71 L 336.80 86.45 Q 333.02 92.93 325.07 87.79 Q 325.10 87.02 324.43 86.10 L 327.37 79.61 L 330.94 74.97 L 342.45 60.14 L 345.19 70.44 Q 345.02 70.46 345.31 71.63 L 346.91 79.05 L 347.37 80.39 L 348.63 86.76 L 350.48 92.95 Q 350.66 93.66 351.49 94.31 Q 351.74 94.67 351.87 94.72 L 354.39 96.50 C 361.95 99.72 373.74 95.74 381.02 92.62 Q 387.53 87.90 390.09 80.98 Q 393.02 74.01 397.00 62.75 Q 398.16 59.46 401.14 55.93 L 405.44 53.17 Q 406.53 53.55 407.76 53.29 Q 410.26 53.23 414.55 55.29 Q 415.27 55.88 415.98 57.19 C 417.14 59.33 416.37 63.45 415.83 65.76 L 408.50 82.18 L 404.21 91.67 C 400.99 99.07 398.13 106.47 389.20 107.51 Q 387.81 107.03 385.66 107.31 L 381.16 107.28 A 1.22 1.21 -1.3 0 0 379.93 108.56 L 380.26 114.93 Q 380.30 115.60 380.96 115.60 L 385.59 115.64 L 388.39 115.65 L 403.53 115.54 Q 406.14 116.05 408.01 115.46 L 421.62 115.67 L 423.56 115.79 L 435.44 115.66 L 448.09 115.83 L 452.26 115.71 L 456.87 115.63 Q 464.52 116.67 470.12 113.99 Q 478.77 108.13 484.55 96.55 Q 493.40 78.79 478.11 67.06 A 1.09 1.09 0.0 0 0 476.53 68.51 L 478.06 70.95 A 2.39 2.23 -68.0 0 1 478.37 71.76 C 479.11 75.75 480.55 79.89 480.15 83.77 Q 478.45 100.01 462.85 105.81 Q 461.65 105.56 461.20 105.96 L 456.06 106.29 Q 454.29 106.36 454.52 106.06 L 437.34 105.93 L 425.44 106.00 L 419.49 106.35 Q 418.63 105.80 417.06 106.05 Q 415.93 105.91 415.88 104.98 L 421.50 94.53 L 435.96 67.27 Q 439.66 61.25 439.90 54.40 C 442.16 39.88 427.45 41.06 418.36 41.89 Q 416.46 41.48 414.57 41.99 L 408.66 41.95 L 403.04 42.18 L 399.72 42.69 Q 399.67 42.70 399.61 42.70 Q 393.44 42.09 387.77 42.88 Q 386.58 42.72 385.98 43.29 Q 381.15 46.47 381.14 53.69 L 373.62 79.68 Q 372.54 84.14 369.31 83.52 Q 367.96 82.78 366.81 81.23 L 363.55 67.33 L 362.05 62.34 L 361.42 61.46 Q 361.76 59.75 361.01 58.25 L 359.65 53.38 L 359.24 51.25 L 358.50 49.87 C 358.34 43.77 350.64 46.03 350.39 38.67 Q 350.20 33.34 348.57 29.47 Q 347.18 22.97 341.74 19.31 L 324.76 14.71 C 320.20 14.22 316.12 13.57 311.30 13.82 C 305.57 14.12 300.74 13.04 295.23 15.37 Z M 320.87 29.14 Q 320.14 33.90 317.01 37.47 Q 316.62 37.92 316.88 38.45 Q 319.12 43.08 317.00 47.92 C 315.91 50.41 311.82 56.11 315.06 58.07 A 1.44 1.44 0.0 0 0 317.08 57.49 C 318.84 54.03 320.53 52.26 323.78 49.16 Q 327.96 45.18 327.40 39.45 C 326.91 34.56 326.84 30.72 322.70 28.27 A 1.22 1.22 0.0 0 0 320.87 29.14 Z M 386.31 101.82 Q 385.98 102.54 386.29 103.51 Q 386.42 103.92 386.86 103.92 C 393.88 103.93 396.45 96.89 399.04 91.61 Q 404.71 80.09 410.17 67.11 A 1.05 1.04 -79.6 0 0 409.18 65.66 L 407.63 65.71 Q 408.45 64.31 408.29 63.50 Q 407.91 61.59 405.91 63.02 A 2.01 2.00 -8.2 0 0 405.18 63.99 C 403.91 67.69 401.38 71.00 400.00 74.48 Q 396.20 84.08 391.44 93.25 C 389.34 97.28 385.73 97.54 382.71 100.13 A 0.80 0.80 0.0 0 0 383.36 101.53 Q 384.83 101.30 386.31 101.82 Z M 262.89 83.35 Q 262.78 86.49 266.27 85.19 Q 267.85 84.61 268.99 83.32 Q 271.66 80.28 269.75 78.07 Q 269.62 75.44 268.37 74.90 A 0.67 0.66 -54.1 0 0 267.66 75.02 L 262.17 80.17 Q 261.72 80.58 261.70 81.20 Q 261.65 82.88 262.89 83.35 Z" style="fill: rgb(255, 255, 255);"/>
  <path d=" M 132.06 39.50 Q 131.57 39.41 131.26 39.92 A 0.71 0.70 -76.4 0 0 131.91 40.99 C 137.42 40.56 143.52 38.27 149.04 36.15 L 155.36 40.59 Q 154.36 40.57 154.45 41.26 A 1.11 1.11 0.0 0 0 156.19 42.02 C 159.71 39.52 162.43 37.52 166.98 37.52 Q 192.94 37.51 218.90 37.59 C 221.97 37.60 226.69 37.16 230.77 37.77 L 219.98 38.51 Q 219.77 38.53 219.61 38.66 Q 219.51 38.75 219.39 38.83 A 0.09 0.09 0.0 0 0 219.44 38.99 Q 220.61 38.92 221.55 39.59 Q 222.06 39.95 221.66 40.44 L 221.24 40.96 Q 220.80 41.49 221.41 41.82 L 222.06 42.17 Q 222.79 42.56 221.98 42.72 Q 219.26 43.26 220.94 44.13 Q 218.53 44.07 218.06 45.81 Q 215.94 53.69 212.80 60.44 L 206.04 75.31 L 198.01 89.36 Q 194.65 93.46 193.90 97.71 Q 193.20 100.62 196.86 99.74 L 201.49 99.49 L 205.95 99.51 L 207.66 99.26 Q 212.22 100.03 216.40 99.01 C 220.26 98.06 217.87 94.43 217.04 92.45 Q 216.84 91.97 217.06 91.49 L 221.88 81.01 L 223.53 76.94 L 224.13 75.62 L 225.25 73.13 L 227.01 69.81 L 230.74 62.01 C 232.20 55.96 237.92 57.30 242.74 57.01 Q 244.07 57.16 246.75 57.23 Q 249.69 57.30 251.16 60.00 A 0.73 0.71 -38.1 0 1 251.05 60.85 L 244.96 67.32 L 237.08 73.50 Q 232.71 77.70 231.87 82.85 C 231.62 84.45 232.61 85.74 232.53 87.62 Q 232.35 91.99 236.14 95.55 Q 234.81 94.85 234.05 95.19 Q 233.65 95.37 233.32 95.08 L 232.51 94.37 Q 232.08 94.00 231.53 94.15 Q 228.65 94.93 229.00 97.73 Q 229.07 98.25 228.58 98.44 L 227.58 98.84 L 226.12 93.31 A 0.65 0.65 0.0 0 0 225.36 92.84 L 224.04 93.09 A 0.70 0.70 0.0 0 0 223.47 93.79 Q 223.52 96.97 224.33 99.99 C 227.16 110.59 216.07 107.79 209.93 107.34 Q 203.43 106.85 193.29 107.57 C 189.36 107.84 186.80 106.78 186.11 102.85 C 185.23 97.84 193.81 88.17 192.13 85.15 A 0.49 0.49 0.0 0 0 191.30 85.12 L 183.25 97.49 Q 182.99 97.89 182.59 98.12 Q 179.08 100.10 177.59 103.86 A 2.14 2.13 -8.4 0 1 176.94 104.73 Q 173.15 107.75 170.78 111.92 C 169.54 114.11 166.79 116.12 166.54 118.64 Q 165.41 130.00 165.90 133.56 Q 167.54 145.46 169.21 157.35 C 169.78 161.39 170.90 167.92 165.32 169.20 A 1.09 1.08 -32.8 0 1 164.43 169.01 C 157.61 163.88 152.03 155.97 146.46 149.51 C 143.02 145.51 140.33 141.25 137.34 136.91 C 133.17 130.84 130.92 125.51 131.77 118.67 Q 132.46 118.96 132.98 119.01 Q 133.48 119.05 133.73 118.62 L 140.40 107.69 Q 140.67 107.24 140.21 106.99 Q 139.79 106.76 139.20 106.75 C 139.32 106.05 139.35 105.52 138.91 104.90 Q 133.59 97.27 132.13 88.23 A 0.78 0.78 0.0 0 0 130.86 87.75 C 130.69 87.88 130.41 88.17 130.34 88.41 Q 128.38 94.84 125.73 101.02 C 124.90 102.97 124.97 105.76 123.14 107.79 Q 122.79 108.18 122.26 108.21 Q 118.37 108.47 111.82 107.89 C 107.31 107.49 99.50 107.66 93.27 108.16 C 90.53 108.38 87.86 107.93 85.25 108.11 C 77.59 108.66 68.61 108.59 62.32 103.11 Q 54.96 96.70 57.00 86.18 Q 57.61 86.59 58.51 86.50 Q 59.01 86.45 59.13 85.96 Q 60.66 79.97 63.55 74.49 Q 63.70 74.20 63.99 74.02 C 64.27 73.85 64.44 73.74 64.61 73.44 Q 70.15 63.45 76.46 53.93 Q 77.08 52.99 77.28 52.37 Q 77.86 50.49 75.98 50.73 C 76.79 48.60 76.19 47.17 73.75 47.34 Q 64.24 48.02 52.76 50.24 Q 48.18 51.12 44.46 52.77 C 40.80 54.40 38.31 58.34 35.37 61.20 A 1.62 1.62 0.0 0 0 34.93 62.01 L 31.05 80.46 A 0.78 0.77 -3.3 0 1 30.53 81.04 C 27.54 82.01 24.56 82.30 21.92 80.12 C 15.64 74.95 9.78 66.54 9.74 58.10 C 9.73 55.68 9.14 53.29 9.52 50.97 Q 10.24 46.57 11.74 42.14 C 14.43 42.69 14.83 40.37 16.03 38.77 Q 22.62 29.94 32.91 27.26 C 39.04 25.66 47.52 26.71 54.58 26.38 C 77.00 25.31 99.55 26.00 121.99 26.00 Q 126.12 26.00 127.10 23.75 Q 127.60 23.32 128.21 23.45 A 1.98 1.97 -85.5 0 1 129.78 25.30 Q 130.02 31.24 130.28 37.25 Q 130.35 38.86 132.06 39.50 Z M 109.24 29.64 L 99.53 29.77 L 94.65 29.68 L 87.64 29.81 Q 80.66 28.98 74.79 30.42 Q 72.44 29.49 69.54 29.76 L 62.69 29.90 L 60.70 30.25 L 48.27 30.22 C 35.28 29.06 22.90 33.26 18.33 46.36 L 17.06 54.98 Q 17.57 55.47 17.15 55.54 Q 17.55 65.66 24.40 73.00 A 0.54 0.54 0.0 0 0 25.30 72.46 C 23.59 67.56 25.50 62.34 28.33 56.75 L 30.28 53.79 L 36.04 48.24 L 44.27 44.53 L 53.30 42.06 L 63.80 40.55 L 67.55 40.25 L 78.48 39.64 L 81.64 39.71 Q 81.70 39.97 82.21 40.07 L 85.07 40.66 Q 86.79 40.62 86.54 42.87 L 83.92 48.51 L 82.59 50.89 L 79.62 56.74 L 71.29 72.61 L 68.11 77.96 Q 65.34 81.15 64.70 86.33 Q 65.93 97.91 78.09 100.44 L 86.65 100.49 L 92.57 100.09 L 99.28 100.34 L 109.63 100.11 L 116.90 100.13 Q 117.50 100.14 117.69 99.57 L 121.81 87.56 L 123.04 83.47 Q 123.41 82.81 123.42 82.09 L 124.12 80.43 L 124.87 77.96 L 126.19 73.96 L 128.48 67.83 C 129.83 64.69 129.89 61.09 132.53 58.81 A 1.73 1.73 0.0 0 1 135.37 59.81 L 137.39 71.31 L 138.21 76.74 L 142.79 97.01 L 147.74 105.26 Q 146.58 109.22 143.41 112.31 C 139.83 116.42 137.92 119.68 139.08 124.85 C 141.64 133.27 149.29 141.67 155.41 148.45 L 159.82 153.85 Q 160.56 154.77 160.45 153.59 L 159.43 143.23 L 158.40 127.49 L 157.40 120.51 Q 162.01 112.65 167.83 105.57 L 169.64 102.70 L 174.25 96.28 L 177.90 91.66 L 188.73 76.61 L 197.29 65.04 L 199.03 63.03 Q 202.80 57.34 211.27 47.26 Q 212.72 45.53 210.60 44.41 Q 210.21 44.21 209.76 44.21 L 191.47 44.48 L 178.77 44.80 L 177.59 44.67 Q 172.03 44.73 166.17 44.79 C 152.48 44.94 152.43 65.74 165.26 66.94 A 1.38 1.37 80.0 0 0 166.63 64.98 C 163.27 57.94 166.72 53.08 174.16 52.69 L 175.80 53.62 C 181.52 58.87 177.36 65.71 174.10 70.64 Q 172.83 72.17 169.06 78.06 Q 167.00 81.29 160.26 88.98 Q 159.07 90.08 157.71 89.69 Q 157.20 89.54 157.12 89.01 C 155.21 76.30 153.82 63.51 151.57 50.85 C 150.73 46.07 149.10 44.13 144.18 44.11 Q 133.74 44.31 124.22 48.51 L 112.74 53.77 Q 113.18 54.00 111.88 54.45 Q 109.91 55.97 109.15 59.04 L 107.19 64.97 L 106.70 67.27 L 104.75 71.25 L 101.45 80.20 L 97.87 86.68 L 92.69 89.99 Q 84.41 89.19 86.92 82.51 L 88.73 78.55 L 91.01 74.21 L 96.03 65.03 L 96.71 62.74 L 97.38 60.85 C 99.29 59.79 99.10 57.33 100.42 55.63 L 101.27 53.80 L 104.47 48.28 L 109.15 39.24 A 1.09 1.07 -75.6 0 1 110.12 38.66 L 124.14 38.95 Q 124.49 38.96 124.47 38.62 L 123.97 29.76 Q 123.94 29.23 123.41 29.24 L 109.24 29.64 Z M 160.96 80.16 Q 167.90 78.71 164.66 73.93 Q 164.46 72.47 163.49 72.29 A 2.10 0.08 9.1 0 1 162.44 72.08 Q 161.55 71.86 160.70 72.08 Q 160.18 72.21 160.08 72.74 L 159.47 76.16 Q 159.38 76.67 159.59 77.15 L 160.96 80.16 Z" style="fill: rgb(255, 255, 255);"/>
</svg>