<?xml version="1.0" encoding="utf-8"?>
<svg version="1.1" viewBox="0 0 3840 1178.6" xmlns="http://www.w3.org/2000/svg">
  <path class="st5" d="M 1412.1 1170.3 L 1206.2 1170.3 L 987.8 619.9 L 1135.4 619.9 L 1296.3 1031.7 L 1322.1 1031.7 L 1481 619.9 L 1628 619.9 L 1412.1 1170.3 Z" style="fill: rgb(255, 255, 255);"/>
  <path class="st5" d="M 1687.6 1170.3 L 1687.6 619.9 L 1828.6 619.9 L 1828.6 1170.3 L 1687.6 1170.3 Z" style="fill: rgb(255, 255, 255);"/>
  <path class="st5" d="M 2202.7 1178.5 C 2144.4 1178.5 2084.2 1179.3 2027.3 1164.5 C 1981.6 1152.1 1952.5 1123.2 1943.2 1064.6 C 1934.6 1011 1936.6 953.2 1936.6 898.7 C 1936.6 865.7 1936.6 832.7 1937.9 800.5 C 1939.2 750.2 1939.9 695.7 1971 659.4 C 1981.6 647 1994.2 638.8 2008.1 633 C 2066.4 609.1 2191.5 611.5 2253.1 611.5 C 2303.4 611.5 2355.1 609.8 2404.7 621.4 C 2424.6 626.3 2442.4 634.6 2458.3 650.3 C 2493.4 684.1 2493.4 749.3 2493.4 798.8 C 2493.4 804.6 2492.7 811.2 2492.7 817 L 2358.3 817 C 2357.6 802.1 2357.6 774.9 2348.4 765 C 2342.4 758.4 2331.8 755.9 2323.9 755.1 C 2288.1 749.3 2250.4 749.3 2214.7 749.3 C 2195.5 749.3 2177 749.3 2157.8 750.1 C 2137.9 750.9 2109.5 750.9 2092.9 766.6 C 2069.7 788.9 2071.7 865.6 2071.7 897.8 C 2071.7 927.5 2069.1 1002.6 2091.6 1023.2 C 2100.2 1030.6 2109.5 1034.8 2120.1 1036.4 C 2148.6 1041.4 2179.7 1040.5 2208.8 1040.5 L 2277 1040.5 C 2301.5 1040.5 2349.2 1045.5 2360.4 1010 C 2365 995.1 2365.7 973.7 2365.7 958 L 2500.1 958 C 2500.8 971.2 2501.4 985.2 2501.4 998.4 C 2501.4 1045.4 2500.7 1101.5 2470.3 1135.4 C 2429.3 1181.6 2312.1 1178.3 2259.8 1178.3 L 2202.7 1178.3 Z" style="fill: rgb(255, 255, 255);"/>
  <path class="st5" d="M 2668.8 1170.3 C 2668.8 1148.8 2667.5 1126.6 2667.5 1105.1 C 2667.5 1060.5 2666.8 1016 2672.8 972.2 C 2684.7 880.6 2748.3 869.1 2811.8 862.4 L 2978.6 845.9 C 2999.8 843.4 3023 843.4 3043.5 834.3 C 3062.7 826 3062.7 812 3062.7 788.9 C 3062.7 773.2 3062.7 755.9 3051.4 746 C 3034.8 730.3 2963.3 734.4 2944.1 734.4 C 2903.7 734.4 2860 731.9 2819.6 740.2 C 2789.1 746 2792.5 773.2 2792.5 806.2 L 2792.5 824.4 L 2662.1 824.4 L 2662.1 802.1 C 2662.1 756.7 2662.8 694 2689.9 658.5 C 2720.4 618.9 2787.9 617.2 2828.3 614.8 C 2856.8 613.1 2885.2 613.1 2913.7 613.1 L 2926.3 613.1 L 3035.5 613.9 C 3077.9 613.9 3132.2 614.7 3163.9 655.2 C 3188.4 686.6 3188.4 749.3 3188.4 789.7 C 3188.4 831 3187.7 874.7 3169.2 911 C 3144.7 959.7 3075.2 966.3 3034.1 969.6 C 3002.3 972.1 2971.2 974.6 2939.4 977 C 2914.2 978.7 2889.1 981.1 2863.9 983.6 C 2852.6 984.4 2824.2 986.9 2813.6 991.9 C 2792.4 1001.8 2792.4 1020 2792.4 1043.9 L 3195.6 1043.9 L 3195.6 1170.2 L 2668.8 1170.2 Z" style="fill: rgb(255, 255, 255);"/>
  <path class="st5" d="M 3741.4 1167 C 3688.4 1177.7 3616.9 1176.9 3563.3 1176.9 C 3530.2 1176.9 3497.8 1176.1 3464.7 1175.2 C 3391.9 1173.6 3307.1 1170.3 3291.2 1060.5 C 3283.9 1009.3 3285.9 947.4 3285.9 895.5 C 3285.9 862.5 3285.9 830.3 3286.6 797.3 C 3287.3 751.1 3289.9 698.3 3317.1 662.8 C 3335 639.7 3360.1 628.1 3385.3 623.2 C 3438.3 612.5 3509.1 613.3 3563.4 613.3 C 3595.8 613.3 3628.9 615 3661.4 615.8 C 3774.6 619.1 3840.2 634 3840.2 797.3 L 3840.2 993.7 C 3840 1085.3 3821.5 1150.5 3741.4 1167 Z M 3677.1 766.8 C 3661.9 758.5 3639.4 757.7 3622.8 757.7 C 3596.3 757.7 3569.8 756.9 3542.7 756.9 C 3515.6 756.9 3485.8 756.1 3459.3 763.5 C 3451.4 766 3443.4 769.3 3437.5 777.5 C 3419.6 800.6 3420.9 865.8 3420.9 895.5 C 3420.9 922.7 3419.6 987.1 3434.8 1009.4 C 3441.4 1019.3 3449.4 1023.4 3459.3 1026.7 C 3487.8 1035 3534.8 1035 3564.6 1034.1 L 3622.9 1032.4 C 3639.5 1031.6 3662 1031.6 3677.2 1022.5 C 3710.3 1004.3 3705.7 931.7 3705.7 895.4 C 3705.6 859.2 3710.2 785.7 3677.1 766.8 Z" style="fill: rgb(255, 255, 255);"/>
  <polygon id="polygon7_7_" class="st7" points="0 611.5 0 611.5 869.6 611.5 869.6 669.9 0 669.9" style="fill: rgb(255, 255, 255);"/>
  <polygon class="st7" points="0 738.7 0 738.7 869.6 738.7 869.6 797.1 0 797.1" style="fill: rgb(255, 255, 255);"/>
  <polygon class="st7" points="0 865.9 0 865.9 869.6 865.9 869.6 924.2 0 924.2" style="fill: rgb(255, 255, 255);"/>
  <polygon class="st7" points="0 993.1 0 993.1 869.6 993.1 869.6 1051.4 0 1051.4" style="fill: rgb(255, 255, 255);"/>
  <polygon id="polygon15_7_" class="st7" points="0 1120.2 0 1120.2 869.6 1120.2 869.6 1178.6 0 1178.6" style="fill: rgb(255, 255, 255);"/>
  <path id="path4595_10_" class="st5" d="M 3384.2 158.1 L 3312.9 158.1 L 3312.9 362.7 L 3387.3 362.7 L 3387.3 255.8 C 3387.3 227.9 3404.4 213.9 3435.4 213.9 C 3466.4 213.9 3474.2 223.2 3475.7 249.5 L 3545.5 249.5 C 3545.5 179.8 3536.2 153.4 3461.8 153.4 C 3416.8 153.4 3401.3 162.7 3384.3 196.8 L 3384.2 158.1 L 3384.2 158.1 Z M 3726.8 322.4 C 3655.5 322.4 3644.7 316.2 3644.7 280.5 L 3840 280.5 C 3836.9 181.3 3836.9 158.1 3705.1 158.1 C 3593.5 158.1 3568.6 178.2 3568.6 266.6 C 3568.6 348.8 3601.2 368.9 3691.1 370.5 C 3791.9 370.5 3839.9 365.8 3839.9 299.2 L 3767 299.2 C 3764 314.7 3757.8 322.4 3726.8 322.4 Z M 3643.1 237.2 C 3646.2 215.5 3652.4 207.7 3702 207.7 C 3756.3 207.7 3764 210.8 3767.1 237.2 L 3643.1 237.2 Z M 871.3 244.9 L 945.7 244.9 C 939.5 175.1 919.3 158.1 815.5 158.1 C 697.7 158.1 671.3 176.7 671.3 263.5 C 671.3 350.3 696.1 370.5 806.2 370.5 C 922.5 370.5 945.7 355 945.7 282.1 L 871.3 282.1 C 871.3 302.3 863.6 311.6 806.2 311.6 C 756.6 311.6 745.7 299.2 745.7 258.9 C 745.7 220.1 756.5 220.1 815.5 220.1 C 858.9 220.1 866.6 224.8 871.3 244.9 Z M 2599.8 257.3 C 2599.8 173.6 2575 156.6 2455.6 156.6 C 2326.9 156.6 2311.5 178.3 2311.5 265.1 C 2311.5 351.9 2333.2 370.5 2455.6 370.5 C 2585.8 370.5 2599.8 348.8 2599.8 257.3 Z M 2387.4 262 C 2387.4 220.1 2396.7 215.5 2451 215.5 C 2511.5 215.5 2522.3 217 2522.3 262 C 2522.3 303.9 2514.5 311.6 2457.2 311.6 C 2395.1 311.6 2387.4 305.4 2387.4 262 L 2387.4 262 Z M 3267.9 257.3 C 3267.9 173.6 3244.6 156.6 3125.3 156.6 C 2998.2 156.6 2982.7 176.7 2982.7 263.6 C 2982.7 352 3004.4 370.6 3125.3 370.6 C 3255.5 370.5 3267.9 348.8 3267.9 257.3 Z M 3057.1 262 C 3057.1 220.1 3066.4 215.5 3120.6 215.5 C 3181.1 215.5 3191.9 217 3191.9 262 C 3191.9 303.9 3184.2 311.6 3126.8 311.6 C 3064.9 311.6 3057.1 305.4 3057.1 262 Z M 1275.9 257.3 C 1275.9 173.6 1252.6 156.6 1133.3 156.6 C 1004.6 156.6 989.1 176.7 989.1 263.6 C 989.1 352 1010.8 370.6 1133.3 370.6 C 1263.5 370.5 1275.9 348.8 1275.9 257.3 Z M 1066.6 262 C 1066.6 220.1 1075.9 215.5 1128.6 215.5 C 1189.1 215.5 1199.9 217 1199.9 262 C 1199.9 303.9 1192.1 311.6 1134.8 311.6 C 1074.3 311.6 1066.6 305.4 1066.6 262 Z M 2858.7 71.3 L 2858.7 190.7 C 2841.7 167.4 2826.2 155.1 2764.2 155.1 C 2665 155.1 2646.4 181.5 2646.4 262.1 C 2646.4 344.3 2672.8 367.5 2768.9 367.5 C 2829.4 367.5 2848 352 2861.9 325.7 L 2861.9 362.9 L 2936.3 362.9 L 2936.3 71.3 L 2858.7 71.3 L 2858.7 71.3 Z M 2804.4 213.9 C 2846.2 213.9 2860.2 220.1 2860.2 252.6 C 2860.2 302.2 2857.1 306.9 2798.2 306.9 C 2739.3 306.9 2723.8 305.3 2723.8 263.5 C 2723.8 215.5 2742.4 213.9 2804.4 213.9 Z M 1393.7 158.1 L 1324 158.1 L 1324 362.7 L 1398.4 362.7 L 1398.4 257.3 C 1398.4 226.3 1413.9 215.5 1455.8 215.5 C 1494.6 215.5 1505.4 229.4 1505.4 268.2 L 1505.4 362.7 L 1581.4 362.7 L 1581.4 254.2 C 1581.4 224.7 1604.6 215.5 1640.3 215.5 C 1674.4 215.5 1689.9 224.8 1689.9 254.2 L 1689.9 362.7 L 1764.3 362.7 L 1764.3 241.8 C 1764.3 181.4 1727.1 153.4 1658.9 153.4 C 1600 153.4 1578.3 175.1 1570.5 198.4 C 1555 172 1533.3 153.4 1474.4 153.4 C 1418.6 153.4 1403.1 172 1393.8 206.1 L 1393.7 158.1 L 1393.7 158.1 Z M 1894.4 158.1 L 1824.6 158.1 L 1824.6 362.7 L 1899 362.7 L 1899 257.3 C 1899 226.3 1917.6 215.5 1954.8 215.5 C 1993.6 215.5 2004.4 227.9 2004.4 268.2 L 2004.4 362.7 L 2080.4 362.7 L 2080.4 254.2 C 2080.4 224.7 2102.1 215.5 2137.8 215.5 C 2171.9 215.5 2188.9 226.3 2188.9 254.2 L 2188.9 362.7 L 2263.3 362.7 L 2263.3 241.8 C 2263.3 181.4 2226.1 153.4 2157.9 153.4 C 2099 153.4 2078.8 173.5 2069.5 198.4 C 2054 172 2032.3 153.4 1973.4 153.4 C 1919.2 153.4 1905.2 172 1894.4 206.1 L 1894.4 158.1 L 1894.4 158.1 Z" style="fill: rgb(255, 255, 255);"/>
  <path class="st5" d="M 334.6 388.9 C 314.2 400.3 290.8 406.9 265.8 406.9 C 188.1 406.9 124.8 343.7 124.8 265.9 C 124.8 188.1 188 124.9 265.8 124.9 C 290.8 124.9 314.2 131.4 334.6 142.9 L 334.6 9 C 312.7 3.1 289.6 0 265.8 0 C 119 0 0 119 0 265.9 C 0 412.8 119 531.8 265.9 531.8 C 289.7 531.8 312.7 528.6 334.7 522.8 L 334.7 388.9 Z" style="fill: rgb(255, 255, 255);"/>
  <rect x="334.6" y="149.8" class="st5" width="111.5" height="106.4" style="fill: rgb(255, 255, 255);"/>
  <polygon class="st5" points="566.4 149.8 460 256.2 411 256.2 411 149.8" style="fill: rgb(255, 255, 255);"/>
  <rect x="334.6" y="275.6" class="st5" width="111.5" height="106.4" style="fill: rgb(255, 255, 255);"/>
  <polygon class="st5" points="566.4 381.9 460 275.6 411 275.6 411 381.9" style="fill: rgb(255, 255, 255);"/>
</svg>