<?xml version="1.0" encoding="utf-8"?>
<svg viewBox="112.7459 22.7491 421.7988 89.4602" xmlns="http://www.w3.org/2000/svg">
  <path opacity="1.000000" stroke="none" d=" M148.135971,109.495575 C141.584473,110.303627 135.236786,110.767456 128.453110,111.263138 C123.147018,81.616493 117.977097,52.730671 112.745941,23.502760 C118.949776,23.502760 124.550377,23.502760 130.620148,23.502760 C134.235428,44.985222 137.831436,66.353111 141.632935,88.942039 C143.055527,86.595642 143.911438,85.299271 144.654388,83.941109 C155.032730,64.968742 165.448074,46.016151 175.702454,26.976908 C177.140442,24.307018 178.674423,22.978832 181.842133,23.188490 C186.086380,23.469400 190.363235,23.258036 195.602356,23.258036 C179.541809,52.445877 163.940796,80.798615 148.135971,109.495575 z" style="fill: rgb(255, 255, 255);" transform="matrix(1, 0, 0, 1, 0, 1.7763568394002505e-15)"/>
  <path opacity="1.000000" stroke="none" d=" M490.166260,49.591064 C486.829254,49.028381 483.899139,48.559742 481.021240,48.099457 C481.570007,31.681553 496.306335,20.661858 513.685425,23.307579 C530.073364,25.802410 538.870117,40.607372 532.418518,55.985641 C530.162842,61.362381 526.317566,66.294472 522.370728,70.685974 C516.816650,76.865799 510.459076,82.319504 504.515167,88.155121 C502.558319,90.076347 500.818970,92.219131 498.330536,94.981796 C508.782593,94.981796 518.188904,94.981796 528.413513,94.981796 C527.327026,100.426254 526.344666,105.349129 525.314087,110.513794 C507.618866,110.513794 490.230896,110.513794 472.433655,110.513794 C473.527435,101.139816 477.887024,93.603462 484.007294,87.120621 C490.865326,79.856316 498.174835,73.020020 505.208466,65.918808 C508.133789,62.965393 511.078247,59.979488 513.587952,56.683907 C515.260559,54.487648 516.540588,51.829483 517.360107,49.181175 C518.965271,43.994061 516.548157,38.802567 512.163574,37.080460 C507.420807,35.217678 502.244751,37.367031 499.713348,42.495560 C498.546783,44.858959 497.824677,47.441761 496.711395,50.434891 C494.754028,50.195801 492.663605,49.940453 490.166260,49.591064 z" style="fill: rgb(255, 255, 255);" transform="matrix(1, 0, 0, 1, 0, 1.7763568394002505e-15)"/>
  <path opacity="1.000000" stroke="none" d=" M448.401306,37.065441 C440.487518,36.705891 438.604553,38.252243 434.290924,48.496006 C431.811249,48.038109 429.231537,47.578972 426.659210,47.081738 C424.234833,46.613110 421.818207,46.104355 419.401154,45.613861 C423.546051,27.716785 440.837158,18.351574 457.607574,24.774754 C465.662933,27.860008 470.012756,34.016644 471.174713,42.426579 C472.379395,51.145531 469.278076,58.106186 462.121429,63.219288 C460.664917,64.259865 459.071747,65.109230 457.232971,66.235832 C466.665527,72.466423 469.389099,81.038193 465.997192,91.100342 C461.993408,102.977776 453.466827,110.262863 440.917389,111.888000 C423.799530,114.104767 411.543549,104.713120 409.786865,87.985634 C414.954010,87.314049 420.143280,86.639595 425.263397,85.974129 C429.188843,96.931206 432.074677,99.324562 439.436523,97.964424 C445.876495,96.774612 450.281982,90.780762 449.991302,83.604080 C449.703247,76.491714 446.285797,73.661003 436.039276,72.306480 C436.942688,67.942062 437.841034,63.602032 438.776489,59.082680 C446.017120,58.552853 452.751770,57.330105 454.213043,48.647232 C455.062714,43.598461 454.142181,39.319336 448.401306,37.065441 z" style="fill: rgb(255, 255, 255);" transform="matrix(1, 0, 0, 1, 0, 1.7763568394002505e-15)"/>
  <path opacity="1.000000" stroke="none" d=" M323.110474,62.111656 C336.985596,62.437653 344.887146,68.636528 346.187103,79.856987 C347.875031,94.426300 339.604950,107.806664 326.965515,110.955971 C313.118927,114.406059 300.948517,108.489799 298.042175,96.895805 C294.263123,81.820381 302.778625,66.361252 316.752930,63.024109 C318.684937,62.562729 320.691406,62.413315 323.110474,62.111656 M333.790344,80.911194 C333.208984,76.359825 331.085876,72.968689 326.343842,72.064606 C321.465851,71.134613 316.939484,72.699181 314.706451,76.990616 C312.470154,81.288338 310.999084,86.211922 310.310089,91.021271 C309.657074,95.579498 311.878967,99.549263 316.576019,101.276253 C321.434235,103.062508 326.081665,101.645126 328.369171,97.421555 C330.971100,92.617485 332.069397,86.999031 333.790344,80.911194 z" style="fill: rgb(255, 255, 255);" transform="matrix(1, 0, 0, 1, 0, 1.7763568394002505e-15)"/>
  <path opacity="1.000000" stroke="none" d=" M366.722321,98.830643 C366.531433,99.559906 366.411072,99.873657 366.346863,100.198524 C364.077301,111.673508 364.078033,111.673653 351.483002,110.404335 C354.712036,94.814964 357.927673,79.290367 361.201416,63.485294 C365.075409,63.485294 368.817291,63.485294 372.815979,63.485294 C372.815979,64.893600 372.815979,66.311150 372.815979,67.910973 C373.363312,67.831543 373.814850,67.845268 374.205109,67.697350 C379.087372,65.846848 383.840424,62.919964 388.863892,62.346096 C396.857788,61.432892 402.503906,67.468887 401.330841,75.373398 C399.674622,86.533554 397.172150,97.571129 394.858459,108.624908 C394.674988,109.501518 393.189117,110.646629 392.233704,110.722305 C388.950592,110.982315 385.634186,110.822182 381.722961,110.822182 C383.672607,101.289894 385.522491,92.240639 387.375854,83.192101 C387.542572,82.378212 387.989624,81.526665 387.864716,80.765060 C387.390930,77.875847 387.682220,73.998573 385.935699,72.373932 C382.991852,69.635574 379.024384,71.640495 376.570648,74.125443 C373.980957,76.748047 371.590820,79.986237 370.332733,83.404259 C368.570435,88.192062 367.935944,93.394974 366.722321,98.830643 z" style="fill: rgb(255, 255, 255);" transform="matrix(1, 0, 0, 1, 0, 1.7763568394002505e-15)"/>
  <path opacity="1.000000" stroke="none" d=" M259.295135,90.416382 C259.018005,95.367790 259.371033,99.687752 264.534058,101.464294 C268.315643,102.765511 272.279907,100.349625 275.632690,95.631935 C276.502106,94.408592 278.595184,93.491791 280.153137,93.450546 C282.597809,93.385826 285.069214,94.164413 287.519653,94.636078 C287.976898,94.724083 288.388702,95.048073 288.815918,95.260414 C284.047791,108.102272 272.532745,114.381149 259.935730,111.065201 C255.004562,109.767159 250.981018,107.030640 248.963959,102.355324 C244.257523,91.446312 245.930374,80.913773 253.074600,71.804581 C259.817780,63.206745 269.265717,60.457035 279.957001,62.971996 C287.164337,64.667412 291.345306,69.825760 292.272583,77.959908 C288.544891,78.413033 284.807312,78.867363 280.781525,79.356712 C279.463043,75.062546 277.667877,71.372269 272.401520,71.736130 C267.070648,72.104454 263.885681,75.359810 262.072723,79.930672 C260.798065,83.144455 260.224854,86.636452 259.295135,90.416382 z" style="fill: rgb(255, 255, 255);" transform="matrix(1, 0, 0, 1, 0, 1.7763568394002505e-15)"/>
  <path opacity="1.000000" stroke="none" d=" M230.307907,69.275154 C237.942398,61.801735 241.002899,60.813290 248.599030,63.718288 C247.873154,65.349174 247.173004,66.968208 246.434174,68.569389 C245.672134,70.220894 244.872437,71.855019 244.128433,73.414520 C234.404434,73.504066 229.706970,76.750877 226.979507,86.054459 C224.973404,92.897377 223.668671,99.945518 222.033829,106.898071 C221.736160,108.164047 221.353821,109.410118 221.001984,110.696777 C216.914917,110.696777 213.120773,110.696777 208.475342,110.696777 C211.742432,94.895760 214.950226,79.381516 218.227432,63.531540 C222.047028,63.531540 225.779755,63.531540 230.018112,63.531540 C229.795181,64.905815 229.570526,66.290710 229.210983,68.345978 C229.126694,69.483604 229.177292,69.950844 229.227905,70.418091 C229.587906,70.037117 229.947906,69.656136 230.307907,69.275154 z" style="fill: rgb(255, 255, 255);" transform="matrix(1, 0, 0, 1, 0, 1.7763568394002505e-15)"/>
  <path opacity="1.000000" stroke="none" d=" M200.935822,90.045883 C199.449936,97.109810 198.028854,103.753960 196.568253,110.582939 C192.398865,110.582939 188.457886,110.582939 183.845001,110.582939 C185.581879,102.170403 187.268982,93.955727 188.975998,85.745193 C190.262955,79.555099 191.784424,73.403954 192.787994,67.168922 C193.286758,64.070229 194.356979,62.773952 197.578110,63.108959 C200.198227,63.381454 202.869247,63.164330 206.418930,63.164330 C204.554016,72.272171 202.777328,80.949142 200.935822,90.045883 z" style="fill: rgb(255, 255, 255);" transform="matrix(1, 0, 0, 1, 0, 1.7763568394002505e-15)"/>
  <path opacity="1.000000" stroke="none" d=" M198.348419,56.913071 C197.070648,56.147976 195.460358,55.289379 195.539444,54.634945 C195.912704,51.546314 196.748474,48.513573 197.451233,45.315674 C201.650558,45.315674 205.595917,45.315674 210.147339,45.315674 C209.364792,49.189018 208.626862,52.841526 207.804153,56.913643 C204.725342,56.913643 201.759796,56.913643 198.348419,56.913071 z" style="fill: rgb(255, 255, 255);" transform="matrix(1, 0, 0, 1, 0, 1.7763568394002505e-15)"/>
  <path opacity="1.000000" stroke="none" d=" M230.069763,69.077682 C229.947906,69.656136 229.587906,70.037117 229.227905,70.418091 C229.177292,69.950844 229.126694,69.483604 229.208679,68.759644 C229.504730,68.628693 229.668182,68.754456 230.069763,69.077682 z" style="fill: rgb(255, 255, 255);" transform="matrix(1, 0, 0, 1, 0, 1.7763568394002505e-15)"/>
</svg>