<?xml version="1.0" encoding="utf-8"?>
<svg viewBox="2.0953 2.839 974.7547 616.6437" width="974.7547" height="616.6437" xmlns="http://www.w3.org/2000/svg">
  <path id="path92" style="fill-opacity: 1; fill: rgb(255, 255, 255);" d="M 753.975 42.449 C 749.326 42.444 744.639 42.609 739.92 42.949 C 659.98 48.709 592.579 104.209 591.949 188.359 C 591.916 192.592 592.293 196.899 593.08 201.279 C 593.147 201.632 593.364 201.813 593.73 201.82 C 643.204 201.88 692.68 201.868 742.16 201.789 C 758.153 201.762 769.976 201.679 777.629 201.539 C 778.429 201.519 778.459 201.36 777.719 201.06 C 776.679 200.64 775.39 200.313 773.85 200.08 C 764.243 198.646 755.433 197.813 747.42 197.58 C 728.51 197.02 707.249 184.16 716.279 161.97 C 724.869 140.87 754.539 138.56 772.769 145.4 C 790.729 152.14 800.809 168.879 804.039 187.269 C 804.109 187.661 804.514 187.893 804.879 187.749 C 839.632 174.096 874.623 161.069 909.85 148.669 C 910.004 148.613 910.081 148.441 910.02 148.288 C 884.679 81.051 823.707 42.527 753.975 42.449 Z M 595.67 214.55 C 595.252 214.55 594.943 214.945 595.039 215.359 L 597.969 227.31 C 598.055 227.663 598.279 227.839 598.639 227.839 L 845.279 227.839 C 845.919 227.839 845.996 227.628 845.51 227.208 C 844.44 226.278 842.44 225.49 841.43 224.91 C 835.6 221.55 825.2 214.82 818.6 214.81 C 744.213 214.663 669.903 214.577 595.67 214.55 L 595.67 214.55 Z"/>
  <path id="path94" style="fill-opacity: 1; fill: rgb(255, 255, 255);" d="M 63.57 48.839 C 63.001 48.841 62.587 49.379 62.73 49.929 L 102.629 201.249 C 102.729 201.632 103.074 201.899 103.469 201.9 L 217.949 201.699 C 218.517 201.702 218.936 201.17 218.799 200.619 L 181.779 49.499 C 181.683 49.113 181.337 48.841 180.939 48.839 L 63.57 48.839 Z M 107.25 214.589 C 106.767 214.585 106.413 215.043 106.539 215.509 L 109.65 227.3 C 109.736 227.616 110.022 227.837 110.35 227.839 L 224.42 227.839 C 224.892 227.839 225.239 227.398 225.129 226.939 L 222.32 215.15 C 222.242 214.821 221.948 214.589 221.609 214.589 L 107.25 214.589 Z"/>
  <path d="M 314.6 48.839 L 412.8 48.839 C 413.17 48.841 413.441 49.19 413.35 49.549 L 375.54 200.909 C 375.475 201.165 375.243 201.343 374.98 201.339 L 277.66 201.339 C 277.285 201.344 277.008 200.992 277.1 200.629 L 314.04 49.269 C 314.104 49.014 314.336 48.836 314.6 48.839 L 314.6 48.839 Z" id="path96" style="fill: rgb(255, 255, 255);"/>
  <path id="rect98" style="fill-opacity: 1; fill: rgb(255, 255, 255);" d="M 441.049 48.839 C 440.384 48.839 439.85 49.374 439.85 50.038 L 439.85 200.64 C 439.85 201.305 440.384 201.839 441.049 201.839 L 551.65 201.839 C 552.315 201.839 552.85 201.305 552.85 200.64 L 552.85 50.038 C 552.85 49.374 552.315 48.839 551.65 48.839 L 441.049 48.839 Z M 440.639 214.589 C 440.201 214.589 439.85 214.941 439.85 215.378 L 439.85 227.06 C 439.85 227.498 440.201 227.849 440.639 227.849 L 552.061 227.849 C 552.498 227.849 552.85 227.498 552.85 227.06 L 552.85 215.378 C 552.85 214.941 552.498 214.589 552.061 214.589 L 440.639 214.589 Z"/>
  <path d="M 368.18 227.839 L 271.35 227.839 C 270.91 227.839 270.586 227.427 270.69 226.999 L 273.63 215.109 C 273.703 214.804 273.976 214.59 274.29 214.589 L 371.24 214.589 C 371.685 214.588 372.011 215.008 371.9 215.439 L 368.84 227.329 C 368.762 227.63 368.49 227.84 368.18 227.839 L 368.18 227.839 Z" id="path102" style="fill: rgb(255, 255, 255);"/>
  <path d="M 228.56 241.299 L 231.55 253.489 C 231.653 253.922 231.325 254.338 230.88 254.339 L 117.37 254.339 C 117.056 254.341 116.781 254.132 116.7 253.829 L 113.52 241.869 C 113.401 241.429 113.734 240.997 114.19 240.999 L 227.89 240.769 C 228.209 240.77 228.486 240.989 228.56 241.299 L 228.56 241.299 Z" id="path108" style="fill-opacity: 1; fill: rgb(255, 255, 255);"/>
  <path d="M 361.78 254.339 L 264.72 254.339 C 264.366 254.343 264.105 254.012 264.19 253.669 L 267.2 241.249 C 267.259 241.01 267.473 240.841 267.72 240.839 L 364.75 240.839 C 365.099 240.842 365.354 241.17 365.27 241.509 L 362.31 253.929 C 362.249 254.172 362.03 254.342 361.78 254.339 Z" id="path110" style="fill: rgb(255, 255, 255);"/>
  <path d="M 440.8 240.839 H 551.86 A 0.96 0.96 0 0 1 552.82 241.799 V 253.379 A 0.96 0.96 0 0 1 551.86 254.339 H 440.8 A 0.96 0.96 0 0 1 439.84 253.379 V 241.799 A 0.96 0.96 0 0 1 440.8 240.839 Z" id="rect112" style="fill: rgb(255, 255, 255);"/>
  <path d="M 864.79 241.069 C 869.67 244.459 874.48 249.429 878.56 253.749 C 878.744 253.945 878.648 254.268 878.385 254.33 C 878.357 254.337 878.328 254.34 878.3 254.339 L 609.97 254.339 C 609.663 254.339 609.443 254.203 609.31 253.929 L 603.41 241.849 C 603.179 241.383 603.52 240.837 604.04 240.839 L 864.05 240.839 C 864.323 240.839 864.57 240.916 864.79 241.069 Z" id="path114" style="fill: rgb(255, 255, 255);"/>
  <path d="M 121.16 267.589 L 234.49 267.589 C 234.79 267.59 235.05 267.797 235.12 268.089 L 238.02 280.039 C 238.117 280.451 237.802 280.844 237.38 280.839 L 124.3 280.839 C 124.005 280.84 123.747 280.643 123.67 280.359 L 120.53 268.409 C 120.417 267.995 120.73 267.588 121.16 267.589 Z" id="path116" style="fill: rgb(255, 255, 255);"/>
  <path d="M 355.18 280.839 L 258.1 280.839 C 257.821 280.84 257.615 280.58 257.68 280.309 L 260.69 267.919 C 260.736 267.725 260.91 267.588 261.11 267.589 L 358.28 267.589 C 358.558 267.588 358.764 267.848 358.7 268.119 L 355.6 280.509 C 355.553 280.703 355.379 280.84 355.18 280.839 Z" id="path118" style="fill: rgb(255, 255, 255);"/>
  <path d="M 440.51 267.599 H 552.19 A 0.66 0.66 0 0 1 552.85 268.259 V 280.179 A 0.66 0.66 0 0 1 552.19 280.839 H 440.51 A 0.66 0.66 0 0 1 439.85 280.179 V 268.259 A 0.66 0.66 0 0 1 440.51 267.599 Z" id="rect120" style="fill: rgb(255, 255, 255);"/>
  <path d="M 629.31 280.439 C 625.63 276.909 621.72 272.449 618.86 268.189 C 618.691 267.949 618.853 267.617 619.152 267.591 C 619.161 267.59 619.17 267.589 619.18 267.589 L 890.22 267.589 C 890.586 267.589 890.873 267.746 891.08 268.059 L 898.85 279.959 C 899.088 280.327 898.839 280.816 898.401 280.839 C 898.39 280.839 898.38 280.839 898.37 280.839 L 630.3 280.839 C 629.92 280.839 629.59 280.706 629.31 280.439 Z" id="path122" style="fill: rgb(255, 255, 255);"/>
  <path d="M 128.27 293.839 L 240.76 293.839 C 241.129 293.838 241.452 294.09 241.54 294.449 L 244.44 306.349 C 244.563 306.854 244.18 307.341 243.66 307.339 L 131.48 307.339 C 131.119 307.338 130.804 307.097 130.71 306.749 L 127.49 294.849 C 127.35 294.337 127.739 293.834 128.27 293.839 L 128.27 293.839 Z" id="path124" style="fill: rgb(255, 255, 255);"/>
  <path d="M 348.48 307.339 L 251.78 307.339 C 251.432 307.343 251.174 307.017 251.26 306.679 L 254.31 294.239 C 254.37 294.002 254.585 293.836 254.83 293.839 L 351.58 293.839 C 351.928 293.835 352.185 294.162 352.1 294.499 L 348.99 306.939 C 348.93 307.173 348.721 307.338 348.48 307.339 Z" id="path126" style="fill: rgb(255, 255, 255);"/>
  <path d="M 440.25 294.079 H 552.45 A 0.39 0.39 0 0 1 552.84 294.469 V 307.449 A 0.39 0.39 0 0 1 552.45 307.839 H 440.25 A 0.39 0.39 0 0 1 439.86 307.449 V 294.469 A 0.39 0.39 0 0 1 440.25 294.079 Z" id="rect128" style="fill: rgb(255, 255, 255);"/>
  <path d="M 645.58 294.549 C 645.34 294.389 645.356 294.263 645.63 294.169 C 645.736 294.129 645.853 294.063 645.98 293.969 C 646.093 293.883 646.22 293.839 646.36 293.839 L 905.6 293.839 C 905.895 293.838 906.158 294.022 906.26 294.299 L 910.88 306.749 C 911.026 307.136 910.89 307.329 910.47 307.329 C 830.13 307.349 749.796 307.349 669.47 307.329 C 663.61 307.329 651.37 298.479 645.58 294.549 Z" id="path130" style="fill: rgb(255, 255, 255);"/>
  <path d="M 795.4 375.879 C 799.47 348.419 724.87 326.349 707.27 321.239 C 705.763 320.806 705.793 320.589 707.36 320.589 L 913.62 320.589 C 914.013 320.589 914.246 320.786 914.32 321.179 C 917.95 340.339 917.37 359.259 914.26 378.289 C 885.85 552.109 595.86 548.349 585.6 367.439 C 585.575 367.083 585.812 366.762 586.16 366.679 L 691.08 340.499 C 691.51 340.393 691.922 340.726 691.91 341.169 C 691.16 386.569 738.42 404.219 775.82 393.019 C 783.59 390.689 794.07 384.869 795.4 375.879 L 795.4 375.879 Z" id="path132" style="fill: rgb(255, 255, 255);"/>
  <path d="M 135.03 320.589 L 344.89 320.589 C 345.244 320.592 345.503 320.925 345.42 321.269 L 301.02 498.919 C 300.96 499.164 300.742 499.337 300.49 499.339 L 182.06 499.339 C 181.81 499.338 181.593 499.17 181.53 498.929 L 134.5 321.279 C 134.408 320.931 134.67 320.59 135.03 320.589 Z" id="path134" style="fill: rgb(255, 255, 255);"/>
  <path d="M 440.63 320.589 H 552.07 A 0.78 0.78 0 0 1 552.85 321.369 V 498.549 A 0.78 0.78 0 0 1 552.07 499.329 H 440.63 A 0.78 0.78 0 0 1 439.85 498.549 V 321.369 A 0.78 0.78 0 0 1 440.63 320.589 Z" id="rect136" style="fill: rgb(255, 255, 255);"/>
  <path d="M 976.64 3.089 C 976.63 3.939 976.35 4.629 976.35 5.439 C 976.35 187.133 976.35 368.826 976.35 550.519 C 976.35 550.679 976.43 550.773 976.59 550.799 C 976.656 550.806 976.74 550.819 976.84 550.839 C 976.5 551.809 975.99 552.269 974.9 552.269 C 926.546 551.983 888.78 551.939 861.6 552.139 C 851.24 552.219 844.656 552.216 841.85 552.129 L 762.1 552.299 L 730.35 552.299 C 672.603 551.953 614.853 551.953 557.1 552.299 L 533.85 552.299 L 411.1 552.129 L 401.35 552.289 C 372.93 551.956 344.513 551.959 316.1 552.299 C 316.02 552.299 315.936 552.299 315.85 552.299 L 169.85 552.129 L 72.85 552.299 L 16.35 552.129 L 11.1 552.299 L 3.33 552.309 C 3.01 552.309 2.85 552.153 2.85 551.839 L 2.85 3.289 C 2.85 3.041 3.051 2.839 3.3 2.839 C 327.706 2.839 652.11 2.839 976.51 2.839 C 976.53 2.839 976.54 2.846 976.54 2.859 C 976.573 2.953 976.606 3.029 976.64 3.089 Z M 9.39 10.589 C 9.176 10.796 9.07 11.049 9.07 11.349 C 9.063 189.216 9.083 367.116 9.13 545.049 C 9.13 545.396 9.3 545.569 9.64 545.569 L 968.1 545.549 L 968.6 545.549 C 968.88 545.696 969.126 545.763 969.34 545.749 C 969.706 545.729 969.86 545.536 969.8 545.169 C 969.37 542.539 969.85 539.539 969.85 537.499 C 969.85 362.173 969.85 186.849 969.85 11.529 C 969.85 11.323 969.786 11.143 969.66 10.989 C 969.566 10.869 969.533 10.736 969.56 10.589 L 969.59 9.579 C 969.603 9.253 969.446 9.089 969.12 9.089 L 10.08 9.089 C 9.72 9.089 9.476 9.259 9.35 9.599 C 9.243 9.873 9.256 10.203 9.39 10.589 L 9.39 10.589 Z" id="path158" style="fill:#ffffff" fill="#ffffff"/>
  <path d="M 198.66 575.029 C 211.21 590.809 205.51 619.989 180.94 619.459 C 156.52 618.929 150.28 585.979 167.62 572.359 C 176.23 565.589 191.42 565.909 198.66 575.029 L 198.66 575.029 Z M 175.52 578.269 C 166.58 582.809 166.47 599.019 171.96 605.989 C 176.43 611.649 186.06 612.259 190.92 606.179 C 199.65 595.269 193.07 569.369 175.52 578.269 L 175.52 578.269 Z" id="path160" style="fill:#ffffff" fill="#ffffff"/>
  <path d="M 358.28 567.719 C 391.27 565.879 391.55 622.049 357.09 619.289 C 327.82 616.939 328.47 569.379 358.28 567.719 Z M 362.18 610.159 C 377.78 607.239 376.2 573.829 357.02 577.079 C 340.83 579.829 342.01 613.939 362.18 610.159 Z" id="path162" style="fill:#ffffff" fill="#ffffff"/>
  <path d="M 606.37 616.559 C 586.29 605.959 592.03 568.429 617.53 567.679 C 640.4 567.009 648.67 595.979 635.67 611.479 C 628.46 620.079 616.02 621.649 606.37 616.559 Z M 615.4 610.179 C 636.73 614.729 636.71 571.139 614.46 577.269 C 601.07 580.949 601.53 607.229 615.4 610.179 Z" id="path164" style="fill:#ffffff" fill="#ffffff"/>
  <path d="M 724.62 585.069 C 731.18 590.259 741.15 587.899 748.46 592.599 C 756.66 597.879 754.93 610.749 747.2 615.979 C 739.85 620.959 725.48 620.599 718.79 615.099 C 715.476 612.379 713.533 608.559 712.96 603.639 C 712.912 603.215 713.242 602.843 713.67 602.839 L 722.03 602.839 C 722.632 602.84 723.153 603.26 723.28 603.849 C 725.93 616.079 747.97 611.439 743.28 602.159 C 740.25 596.159 724.41 597.399 718.45 592.959 C 713.02 588.929 712.47 581.409 715.53 575.759 C 720.21 567.129 732.92 566.379 741.26 568.949 C 746.84 570.659 752.55 576.539 751.76 582.709 C 751.674 583.351 751.127 583.83 750.48 583.829 L 742.84 583.839 C 742.406 583.839 742.15 583.626 742.07 583.199 C 741.67 580.939 741.05 578.919 738.86 577.779 C 733.79 575.159 721.83 575.419 724.12 584.289 C 724.2 584.603 724.366 584.863 724.62 585.069 L 724.62 585.069 Z" id="path166" style="fill:#ffffff" fill="#ffffff"/>
  <path d="M 808.58 581.859 C 808.02 592.769 836.56 583.929 838.17 601.449 C 839.6 617.029 823.81 621.299 811.69 618.759 C 803.74 617.099 798.9 612.359 797.54 604.399 C 797.36 603.359 797.8 602.839 798.86 602.839 L 807.09 602.839 C 807.415 602.839 807.684 603.094 807.7 603.419 C 808.23 612.679 826.61 613.669 827.79 605.989 C 830.11 590.909 795.27 603.989 798.68 580.409 C 801.29 562.379 837.26 563.309 836.35 583.259 C 836.336 583.639 836.136 583.829 835.75 583.829 L 827.62 583.839 C 827.22 583.839 826.97 583.649 826.87 583.269 C 825.87 579.423 823.456 577.136 819.63 576.409 C 815.54 575.629 808.86 576.519 808.58 581.859 L 808.58 581.859 Z" id="path168" style="fill:#ffffff" fill="#ffffff"/>
  <path d="M 230.66 568.799 H 240.04 A 0.81 0.81 0 0 1 240.85 569.609 V 617.029 A 0.81 0.81 0 0 1 240.04 617.839 H 230.66 A 0.81 0.81 0 0 1 229.85 617.029 V 569.609 A 0.81 0.81 0 0 1 230.66 568.799 Z" id="rect170" style="fill:#ffffff" fill="#ffffff"/>
  <path d="M 423.32 594.669 C 426.293 595.909 427.893 597.793 428.12 600.319 C 428.553 605.079 428.963 609.829 429.35 614.569 C 429.376 614.916 429.483 615.236 429.67 615.529 L 430.56 616.949 C 430.966 617.583 430.793 617.889 430.04 617.869 L 419.48 617.529 C 419.006 617.516 418.75 617.269 418.71 616.789 C 418.356 612.209 418.03 607.649 417.73 603.109 C 417.55 600.309 416.203 598.866 413.69 598.779 C 409.583 598.639 405.486 598.706 401.4 598.979 C 401.033 599.006 400.85 599.203 400.85 599.569 L 400.85 616.809 C 400.85 617.378 400.388 617.839 399.82 617.839 L 391.6 617.839 C 391.185 617.839 390.85 617.503 390.85 617.089 L 390.85 569.619 C 390.85 569.106 391.106 568.849 391.62 568.849 C 397.94 568.829 404.403 568.829 411.01 568.849 C 418.59 568.869 426.7 567.779 429.44 577.099 C 431.526 584.199 429.463 589.836 423.25 594.009 C 422.863 594.269 422.886 594.489 423.32 594.669 L 423.32 594.669 Z M 406.8 589.909 C 411.32 589.899 417.5 591.549 419.51 585.779 C 420.456 583.033 419.91 580.533 417.87 578.279 C 417.603 577.986 417.273 577.839 416.88 577.839 L 401.6 577.839 C 401.1 577.839 400.85 578.089 400.85 578.589 L 400.85 589.099 C 400.85 589.486 401.043 589.693 401.43 589.719 C 403.25 589.853 405.04 589.916 406.8 589.909 Z" id="path172" style="fill:#ffffff" fill="#ffffff"/>
  <path d="M 448.85 585.339 L 448.85 617.059 C 448.85 617.485 448.5 617.829 448.07 617.829 L 438.38 617.839 C 438.087 617.839 437.85 617.602 437.85 617.309 L 437.85 569.979 C 437.85 569.365 438.345 568.865 438.96 568.859 L 452.64 568.749 C 453.2 568.749 453.54 569.023 453.66 569.569 L 461.75 605.459 C 461.883 606.046 462.12 606.093 462.46 605.599 C 462.786 605.133 462.92 604.616 462.86 604.049 C 462.826 603.696 462.846 603.349 462.92 603.009 L 470.42 569.419 C 470.493 569.093 470.696 568.926 471.03 568.919 L 485.39 568.809 C 485.642 568.804 485.85 569.007 485.85 569.259 L 485.85 617.089 C 485.85 617.589 485.6 617.839 485.1 617.839 L 476.6 617.839 C 476.185 617.839 475.85 617.503 475.85 617.089 L 475.85 583.419 C 475.88 583.142 475.6 582.936 475.344 583.048 C 475.226 583.1 475.144 583.211 475.13 583.339 L 467.42 617.269 C 467.32 617.723 467.036 617.946 466.57 617.939 L 457.39 617.859 C 457.139 617.861 456.906 617.628 456.83 617.299 L 449.43 585.269 C 449.043 583.603 448.85 583.626 448.85 585.339 Z" id="path174" style="fill:#ffffff" fill="#ffffff"/>
  <path d="M 557.85 578.759 L 557.85 616.969 C 557.85 617.444 557.465 617.829 556.99 617.829 L 548.71 617.839 C 548.235 617.839 547.85 617.454 547.85 616.979 L 547.85 578.719 C 547.85 578.244 547.465 577.859 546.99 577.859 L 533.94 577.799 C 533.48 577.8 533.101 577.439 533.08 576.979 L 532.77 569.799 C 532.747 569.313 533.133 568.904 533.62 568.899 L 572.12 568.679 C 572.611 568.679 573.002 569.089 572.98 569.579 L 572.62 576.859 C 572.594 577.307 572.228 577.66 571.78 577.669 L 558.69 577.909 C 558.226 577.92 557.855 578.296 557.85 578.759 Z" id="path176" style="fill:#ffffff" fill="#ffffff"/>
  <path d="M 23.6 603.559 L 33.5 569.139 C 33.553 568.959 33.721 568.836 33.91 568.839 L 43.54 568.839 C 43.831 568.836 44.037 569.124 43.94 569.399 L 27.36 617.599 C 27.303 617.772 27.142 617.89 26.96 617.889 L 18.86 617.749 C 18.68 617.751 18.519 617.638 18.46 617.469 L 2.12 569.399 C 2.022 569.124 2.228 568.836 2.52 568.839 L 12.17 568.839 C 12.354 568.84 12.517 568.962 12.57 569.139 L 22.79 603.559 C 22.875 603.871 23.266 603.973 23.493 603.743 C 23.544 603.692 23.581 603.629 23.6 603.559 Z" id="path178" style="fill:#ffffff" fill="#ffffff"/>
  <path d="M 49.67 568.839 H 59.03 A 0.82 0.82 0 0 1 59.85 569.659 V 617.019 A 0.82 0.82 0 0 1 59.03 617.839 H 49.67 A 0.82 0.82 0 0 1 48.85 617.019 V 569.659 A 0.82 0.82 0 0 1 49.67 568.839 Z" id="rect180" style="fill:#ffffff" fill="#ffffff"/>
  <path d="M 68.77 569.789 C 68.764 569.194 69.245 568.709 69.84 568.709 L 90.48 568.679 C 100.988 568.66 109.525 578.608 109.55 590.899 L 109.55 595.559 C 109.574 607.855 101.071 617.84 90.56 617.859 L 69.92 617.889 C 69.333 617.889 68.855 617.416 68.85 616.829 L 68.77 569.789 Z M 78.74 578.869 L 78.8 607.749 C 78.8 608.368 79.301 608.869 79.92 608.869 L 89.14 608.849 C 94.664 608.841 99.133 603.364 99.12 596.619 L 99.1 589.919 C 99.087 583.177 94.601 577.72 89.08 577.729 L 79.86 577.749 C 79.241 577.749 78.74 578.251 78.74 578.869 L 78.74 578.869 Z" id="path182" style="fill:#ffffff" fill="#ffffff"/>
  <path d="M 127.85 597.699 L 127.85 607.979 C 127.85 608.454 128.235 608.839 128.71 608.839 L 152.99 608.839 C 153.465 608.839 153.85 609.224 153.85 609.699 L 153.85 616.979 C 153.85 617.454 153.465 617.839 152.99 617.839 L 117.71 617.839 C 117.235 617.839 116.85 617.454 116.85 616.979 L 116.85 569.699 C 116.85 569.224 117.235 568.839 117.71 568.839 L 152.05 568.839 C 152.533 568.845 152.916 569.247 152.9 569.729 L 152.62 576.889 C 152.604 577.349 152.229 577.714 151.77 577.719 L 128.7 577.889 C 128.229 577.895 127.85 578.278 127.85 578.749 L 127.86 586.979 C 127.86 587.454 128.245 587.839 128.72 587.839 L 149.98 587.839 C 150.455 587.839 150.84 588.224 150.84 588.699 L 150.86 595.979 C 150.86 596.454 150.475 596.839 150 596.839 L 128.71 596.839 C 128.235 596.839 127.85 597.224 127.85 597.699 L 127.85 597.699 Z" id="path184" style="fill:#ffffff" fill="#ffffff"/>
  <path d="M 278.85 600.529 L 278.85 570.089 C 278.85 569.256 279.266 568.839 280.1 568.839 L 288.22 568.839 C 288.64 568.839 288.85 569.049 288.85 569.469 L 288.85 617.199 C 288.85 617.646 288.626 617.866 288.18 617.859 L 279.5 617.779 C 279.113 617.773 278.823 617.603 278.63 617.269 L 260.45 585.969 C 260.33 585.754 260.023 585.748 259.895 585.959 C 259.865 586.01 259.849 586.069 259.85 586.129 L 259.85 617.089 C 259.85 617.503 259.514 617.839 259.1 617.839 L 249.38 617.839 C 249.087 617.839 248.85 617.602 248.85 617.309 L 248.85 569.249 C 248.85 569.028 249.029 568.849 249.25 568.849 L 259.12 568.839 C 259.596 568.838 260.034 569.086 260.27 569.489 L 278.38 600.659 C 278.693 601.206 278.85 601.163 278.85 600.529 Z" id="path186" style="fill:#ffffff" fill="#ffffff"/>
  <path d="M 308.85 597.699 L 308.85 616.769 C 308.85 617.233 308.483 617.613 308.02 617.629 L 298.74 617.899 C 298.253 617.916 297.849 617.526 297.85 617.039 L 297.85 569.699 C 297.85 569.224 298.235 568.839 298.71 568.839 L 332.07 568.839 C 332.561 568.839 332.952 569.249 332.93 569.739 L 332.56 576.939 C 332.533 577.391 332.162 577.745 331.71 577.749 L 309.71 577.879 C 309.235 577.879 308.85 578.264 308.85 578.739 L 308.85 586.979 C 308.85 587.454 309.235 587.839 309.71 587.839 L 329 587.839 C 329.478 587.839 329.865 588.23 329.86 588.709 L 329.81 595.989 C 329.804 596.46 329.421 596.839 328.95 596.839 L 309.71 596.839 C 309.235 596.839 308.85 597.224 308.85 597.699 Z" id="path188" style="fill:#ffffff" fill="#ffffff"/>
  <path d="M 504.85 608.279 L 501.92 617.399 C 501.837 617.661 501.594 617.839 501.32 617.839 L 491.78 617.839 C 491.346 617.837 491.045 617.408 491.19 616.999 L 508.23 569.259 C 508.318 569.009 508.554 568.841 508.82 568.839 L 519.44 568.839 C 519.709 568.837 519.95 569.005 520.04 569.259 L 536.46 616.999 C 536.595 617.404 536.297 617.824 535.87 617.829 L 526.51 617.839 C 526.241 617.836 526.005 617.664 525.92 617.409 L 522.87 608.269 C 522.784 608.015 522.548 607.842 522.28 607.839 L 505.45 607.839 C 505.175 607.84 504.932 608.018 504.85 608.279 Z M 508.26 598.159 C 508.151 598.488 508.394 598.826 508.74 598.829 L 519.16 598.849 C 519.505 598.846 519.748 598.508 519.64 598.179 L 514.46 582.539 C 514.338 582.166 513.858 582.064 513.596 582.356 C 513.548 582.409 513.512 582.471 513.49 582.539 L 508.26 598.159 Z" id="path190" style="fill:#ffffff" fill="#ffffff"/>
  <path d="M 577.65 568.839 H 587.05 A 0.8 0.8 0 0 1 587.85 569.639 V 617.039 A 0.8 0.8 0 0 1 587.05 617.839 H 577.65 A 0.8 0.8 0 0 1 576.85 617.039 V 569.639 A 0.8 0.8 0 0 1 577.65 568.839 Z" id="rect192" style="fill:#ffffff" fill="#ffffff"/>
  <path d="M 677.85 599.469 L 677.85 569.269 C 677.85 569.032 678.042 568.839 678.28 568.839 L 688.42 568.839 C 688.657 568.839 688.85 569.032 688.85 569.269 L 688.85 617.399 C 688.85 617.637 688.657 617.829 688.42 617.829 L 678.45 617.839 C 678.298 617.839 678.157 617.76 678.08 617.629 L 659.57 585.779 C 659.401 585.494 658.987 585.499 658.825 585.787 C 658.788 585.852 658.769 585.925 658.77 585.999 L 658.89 617.409 C 658.89 617.647 658.697 617.839 658.46 617.839 L 649.28 617.839 C 649.042 617.839 648.85 617.647 648.85 617.409 L 648.85 569.279 C 648.85 569.042 649.042 568.849 649.28 568.849 L 658.87 568.839 C 659.021 568.839 659.162 568.919 659.24 569.049 L 677.05 599.689 C 677.218 599.974 677.632 599.97 677.794 599.681 C 677.831 599.616 677.85 599.543 677.85 599.469 L 677.85 599.469 Z" id="path194" style="fill:#ffffff" fill="#ffffff"/>
  <path d="M 776.24 589.179 L 784.56 569.639 C 784.767 569.161 785.238 568.85 785.76 568.849 L 795.58 568.839 C 796.366 568.839 796.573 569.186 796.2 569.879 C 790.933 579.686 786.136 589.069 781.81 598.029 C 779.75 602.299 780.86 612.269 780.84 617.249 C 780.84 617.57 780.575 617.829 780.25 617.829 L 771.58 617.839 C 771.133 617.839 770.903 617.619 770.89 617.179 C 770.73 612.259 772.17 602.189 770.05 598.159 C 764.97 588.513 759.82 578.899 754.6 569.319 C 754.487 569.107 754.639 568.851 754.88 568.849 C 757.973 568.843 761.053 568.836 764.12 568.829 C 766.04 568.829 766.32 569.629 767.06 571.139 C 769.946 577.066 772.72 583.083 775.38 589.189 C 775.529 589.519 775.98 589.562 776.19 589.268 C 776.21 589.24 776.226 589.21 776.24 589.179 L 776.24 589.179 Z" id="path196" style="fill:#ffffff" fill="#ffffff"/>
  <path d="M 865.85 578.589 L 865.85 617.079 C 865.85 617.493 865.514 617.829 865.1 617.829 L 856.6 617.839 C 856.185 617.839 855.85 617.503 855.85 617.089 L 855.85 578.589 C 855.85 578.175 855.514 577.839 855.1 577.839 L 841.61 577.839 C 841.195 577.839 840.86 577.503 840.86 577.089 L 840.85 569.589 C 840.85 569.175 841.185 568.839 841.6 568.839 L 879.1 568.839 C 879.514 568.839 879.85 569.175 879.85 569.589 L 879.85 577.089 C 879.85 577.503 879.514 577.839 879.1 577.839 L 866.6 577.839 C 866.185 577.839 865.85 578.175 865.85 578.589 Z" id="path198" style="fill:#ffffff" fill="#ffffff"/>
  <path d="M 895.85 578.549 L 895.85 587.129 C 895.85 587.521 896.167 587.839 896.56 587.839 L 918.14 587.839 C 918.532 587.839 918.85 588.157 918.85 588.549 L 918.85 596.129 C 918.85 596.521 918.532 596.839 918.14 596.839 L 896.56 596.839 C 896.167 596.839 895.85 597.157 895.85 597.549 L 895.85 608.129 C 895.85 608.521 896.167 608.839 896.56 608.839 L 921.13 608.839 C 921.522 608.839 921.84 609.157 921.84 609.549 L 921.85 617.129 C 921.85 617.521 921.532 617.839 921.14 617.839 L 886.31 617.839 C 885.917 617.839 885.6 617.521 885.6 617.129 L 885.6 569.549 C 885.6 569.157 885.917 568.839 886.31 568.839 L 920.14 568.839 C 920.532 568.839 920.85 569.157 920.85 569.549 L 920.85 577.129 C 920.85 577.521 920.532 577.839 920.14 577.839 L 896.56 577.839 C 896.167 577.839 895.85 578.157 895.85 578.549 L 895.85 578.549 Z" id="path200" style="fill:#ffffff" fill="#ffffff"/>
  <path d="M 953.49 605.859 L 961.41 570.039 C 961.568 569.338 962.191 568.84 962.91 568.839 L 976.22 568.839 C 976.64 568.839 976.85 569.049 976.85 569.469 L 976.85 617.059 C 976.85 617.49 976.5 617.839 976.07 617.839 L 967.5 617.829 C 967.066 617.829 966.85 617.613 966.85 617.179 L 966.85 583.659 C 966.846 583.382 966.544 583.212 966.306 583.354 C 966.222 583.403 966.162 583.485 966.14 583.579 L 958.7 617.129 C 958.606 617.54 958.241 617.83 957.82 617.829 L 948.63 617.839 C 948.308 617.838 948.03 617.614 947.96 617.299 L 940.4 584.279 C 940.033 582.693 939.85 582.713 939.85 584.339 L 939.85 616.219 C 939.85 617.299 939.306 617.839 938.22 617.839 L 929.47 617.839 C 929.056 617.839 928.85 617.629 928.85 617.209 L 928.85 569.589 C 928.85 569.089 929.1 568.839 929.6 568.839 L 944.13 568.839 C 944.412 568.841 944.653 569.032 944.71 569.299 L 953.05 605.859 C 953.196 606.513 953.343 606.513 953.49 605.859 L 953.49 605.859 Z" id="path202" style="fill:#ffffff" fill="#ffffff"/>
</svg>