<?xml version="1.0" encoding="utf-8"?>
<svg viewBox="0 0 331 70" fill="none" version="1.1" id="svg60" xmlns="http://www.w3.org/2000/svg">
  <path id="rect885" style="fill-opacity: 1; fill-rule: evenodd; stroke-width: 16.0135; stroke-linecap: square; paint-order: markers stroke; stop-color: rgb(0, 0, 0); fill: rgb(255, 255, 255);" d="M 26.987 0 C 26.966 0.133 26.948 0.266 26.934 0.4 C 26.934 4.849 30.541 8.456 34.991 8.456 C 39.441 8.456 43.048 4.849 43.048 0.4 C 43.045 0.266 43.038 0.133 43.028 0 L 70 0 L 70 70 L 0 70 L 0 0 L 26.987 0 Z M 56.567 32.745 C 53.28 32.745 50.616 35.409 50.616 38.696 C 50.616 41.983 53.28 44.648 56.567 44.648 C 59.854 44.648 62.518 41.983 62.518 38.696 C 62.518 35.409 59.854 32.745 56.567 32.745 Z M 15.789 33.637 L 15.789 41.846 L 7.58 41.846 L 7.58 48.357 L 15.789 48.357 L 15.789 56.567 L 22.3 56.567 L 22.3 48.357 L 30.51 48.357 L 30.51 41.846 L 22.3 41.846 L 22.3 33.637 L 15.789 33.637 Z M 45.893 45.533 C 42.606 45.533 39.942 48.198 39.942 51.485 C 39.942 54.772 42.606 57.436 45.893 57.436 C 49.18 57.436 51.845 54.772 51.845 51.485 C 51.845 48.198 49.18 45.533 45.893 45.533 Z"/>
  <path d="M 96.695 57.283 L 104.896 57.283 L 113.936 23.633 L 123.693 57.283 L 131.715 57.283 L 143.807 12.717 L 136.025 12.717 L 127.884 46.302 L 118.605 12.973 L 110.104 12.973 L 101.125 47.009 L 93.223 12.717 L 84.424 12.717 L 96.695 57.283 Z" id="path828" style="fill-opacity: 1; fill: rgb(255, 255, 255);"/>
  <path d="M 144.046 57.283 L 152.247 57.283 L 155.66 46.11 L 171.583 46.11 L 174.935 57.283 L 183.496 57.283 L 169.129 12.717 L 159.191 12.717 L 144.046 57.283 Z M 157.874 38.725 L 163.621 19.845 L 169.368 38.725 L 157.874 38.725 Z" id="path830" style="fill-opacity: 1; fill: rgb(255, 255, 255);"/>
  <path d="M 199.718 57.926 C 209.835 57.926 215.941 52.531 215.941 44.183 C 215.941 28.065 194.091 33.651 194.091 24.661 C 194.091 21.257 196.964 19.331 202.172 19.331 C 205.585 19.331 209.356 20.037 212.349 21.257 L 214.564 14.707 C 211.032 13.038 206.722 12.074 202.592 12.074 C 192.714 12.074 186.07 17.533 186.07 25.945 C 186.07 41.165 207.859 36.156 207.859 45.211 C 207.859 48.486 205.166 50.476 200.077 50.476 C 196.306 50.476 191.697 49.577 187.566 47.715 L 185.351 54.394 C 189.781 56.577 194.929 57.926 199.718 57.926 L 199.718 57.926 Z" id="path832" style="fill-opacity: 1; fill: rgb(255, 255, 255);"/>
  <path d="M 222.645 57.283 L 230.128 57.283 L 230.128 27.358 L 241.083 50.412 L 247.009 50.412 L 258.144 26.523 L 258.144 57.283 L 265.626 57.283 L 265.626 12.717 L 258.144 12.717 L 244.435 41.614 L 230.248 12.717 L 222.645 12.717 L 222.645 57.283 Z" id="path834" style="fill-opacity: 1; fill: rgb(255, 255, 255);"/>
  <path d="M 273.947 44.119 L 291.607 44.119 L 291.607 37.44 L 273.947 37.44 L 273.947 44.119 Z" id="path836" style="fill-opacity: 1; fill: rgb(255, 255, 255);"/>
  <path d="M 316.15 57.733 L 323.633 57.733 L 323.633 48.036 L 330.996 48.036 L 330.996 41.165 L 323.633 41.165 L 323.633 12.717 L 316.33 12.717 L 296.276 43.734 L 296.276 48.036 L 316.15 48.036 L 316.15 57.733 Z M 304.477 41.101 L 316.15 22.285 L 316.15 41.101 L 304.477 41.101 Z" id="path838" style="fill-opacity: 1; fill: rgb(255, 255, 255);"/>
</svg>