<?xml version="1.0" encoding="UTF-8" standalone="no"?>
<svg
   viewBox="0 0 479.02499 123.89949"
   version="1.1"
   id="svg4"
   width="479.02499"
   height="123.89949"
   xmlns="http://www.w3.org/2000/svg"
   xmlns:svg="http://www.w3.org/2000/svg">
  <defs
     id="defs8" />
  <path
     d="m 217.562,22.397 -17.55,62.132 h -8.533 L 178.696,39.122 c -0.547,-1.935 -0.882,-4.044 -0.996,-6.326 h -0.172 c -0.169,2.112 -0.546,4.202 -1.126,6.24 l -12.867,45.493 h -8.45 L 136.887,22.397 h 8.014 l 13.216,47.66 c 0.556,2.04 0.905,4.13 1.04,6.24 h 0.218 c 0.144,-1.532 0.588,-3.61 1.341,-6.24 l 13.736,-47.66 h 6.975 l 13.17,48.008 c 0.462,1.645 0.807,3.582 1.04,5.805 h 0.172 c 0.115,-1.5 0.505,-3.493 1.172,-5.978 L 209.675,22.4 h 7.887 z m 9.786,6.498 c -1.272,0 -2.355,-0.434 -3.25,-1.301 -0.895,-0.867 -1.341,-1.962 -1.341,-3.293 0,-1.326 0.449,-2.434 1.341,-3.317 0.898,-0.88 1.978,-1.32 3.25,-1.32 1.3,0 2.404,0.443 3.316,1.32 0.908,0.883 1.364,1.988 1.364,3.317 0,1.272 -0.456,2.355 -1.364,3.25 -0.912,0.897 -2.015,1.344 -3.316,1.344 z m 3.466,55.634 h -7.106 V 40.16 h 7.106 z m 47.754,0 h -7.106 V 59.227 c 0,-9.416 -3.438,-14.124 -10.31,-14.124 -3.553,0 -6.494,1.336 -8.819,4.008 -2.327,2.672 -3.488,6.044 -3.488,10.116 v 25.302 h -7.107 V 40.16 h 7.107 v 7.365 h 0.172 c 3.35,-5.603 8.202,-8.404 14.558,-8.404 4.852,0 8.564,1.567 11.135,4.7 2.573,3.134 3.856,7.662 3.856,13.582 v 27.125 h 0.003 z m 50.549,0 h -7.107 v -7.54 h -0.172 c -3.293,5.72 -8.38,8.58 -15.252,8.58 -5.575,0 -10.03,-1.986 -13.366,-5.959 -3.334,-3.97 -5.005,-9.38 -5.005,-16.226 0,-7.337 1.848,-13.216 5.547,-17.632 3.697,-4.422 8.62,-6.63 14.776,-6.63 6.092,0 10.526,2.398 13.3,7.192 h 0.172 v -27.47 h 7.107 z m -7.104,-20.06 v -6.543 c 0,-3.58 -1.187,-6.612 -3.552,-9.1 -2.37,-2.481 -5.372,-3.726 -9.013,-3.726 -4.333,0 -7.743,1.59 -10.225,4.766 -2.484,3.18 -3.727,7.568 -3.727,13.171 0,5.114 1.192,9.15 3.575,12.109 2.38,2.96 5.58,4.441 9.596,4.441 3.958,0 7.17,-1.427 9.642,-4.29 2.467,-2.857 3.704,-6.47 3.704,-10.827 z m 38.166,21.099 c -6.559,0 -11.792,-2.071 -15.706,-6.216 -3.915,-4.146 -5.87,-9.642 -5.87,-16.487 0,-7.452 2.037,-13.273 6.11,-17.46 4.07,-4.19 9.574,-6.286 16.508,-6.286 6.612,0 11.779,2.036 15.488,6.11 3.712,4.07 5.567,9.72 5.567,16.941 0,7.078 -2,12.745 -6,17.007 -4.001,4.261 -9.366,6.391 -16.097,6.391 z m 0.52,-40.468 c -4.566,0 -8.177,1.552 -10.831,4.657 -2.66,3.109 -3.986,7.388 -3.986,12.847 0,5.258 1.342,9.4 4.032,12.435 2.684,3.03 6.282,4.548 10.787,4.548 4.594,0 8.123,-1.488 10.595,-4.464 2.47,-2.974 3.704,-7.206 3.704,-12.694 0,-5.548 -1.235,-9.82 -3.704,-12.826 -2.472,-3 -6.003,-4.503 -10.597,-4.503 z m 85.611,-4.939 -13.3,44.368 h -7.368 l -9.14,-31.76 c -0.347,-1.214 -0.58,-2.583 -0.692,-4.114 h -0.172 c -0.086,1.039 -0.39,2.38 -0.91,4.03 l -9.92,31.846 H 397.7 L 384.268,40.164 h 7.451 l 9.183,33.359 c 0.287,1.012 0.49,2.34 0.606,3.985 h 0.347 c 0.087,-1.27 0.348,-2.626 0.781,-4.071 l 10.225,-33.276 h 6.498 l 9.185,33.448 c 0.287,1.07 0.505,2.399 0.652,3.986 h 0.347 c 0.056,-1.126 0.302,-2.454 0.735,-3.986 l 9.013,-33.448 z m 3.293,42.763 v -7.626 c 3.87,2.862 8.13,4.29 12.78,4.29 6.24,0 9.358,-2.08 9.358,-6.24 0,-1.184 -0.266,-2.188 -0.798,-3.012 -0.533,-0.824 -1.258,-1.551 -2.166,-2.188 -0.91,-0.634 -1.98,-1.207 -3.204,-1.711 -1.317,-0.539 -2.638,-1.067 -3.965,-1.582 -1.965,-0.781 -3.692,-1.567 -5.177,-2.363 -1.488,-0.794 -2.728,-1.689 -3.727,-2.687 -0.977,-0.967 -1.744,-2.126 -2.254,-3.403 -0.505,-1.27 -0.758,-2.756 -0.758,-4.462 0,-2.079 0.477,-3.922 1.427,-5.524 0.956,-1.605 2.226,-2.946 3.813,-4.031 1.59,-1.083 3.403,-1.9 5.441,-2.45 2.055,-0.55 4.173,-0.825 6.3,-0.82 3.841,0 7.279,0.666 10.314,1.992 v 7.192 c -3.268,-2.137 -7.023,-3.207 -11.267,-3.207 -1.329,0 -2.525,0.152 -3.595,0.457 -1.07,0.301 -1.985,0.73 -2.75,1.277 -0.766,0.55 -1.357,1.207 -1.776,1.97 -0.422,0.778 -0.638,1.651 -0.628,2.536 0,1.156 0.208,2.122 0.628,2.905 0.419,0.778 1.032,1.47 1.841,2.079 0.811,0.603 1.793,1.154 2.946,1.643 1.159,0.492 2.472,1.027 3.948,1.605 1.96,0.753 3.724,1.526 5.283,2.317 1.56,0.794 2.888,1.691 3.985,2.687 1.071,0.963 1.934,2.135 2.536,3.443 0.59,1.303 0.887,2.847 0.887,4.637 0,2.196 -0.48,4.102 -1.45,5.72 -0.969,1.62 -2.295,2.998 -3.877,4.028 -1.62,1.07 -3.48,1.864 -5.59,2.384 -2.104,0.52 -4.315,0.78 -6.627,0.78 -4.571,0.008 -8.529,-0.874 -11.878,-2.636 z M 105.79,0 46.907,8.592 v 42.669 h 58.881 z M 0,15.432 V 51.261 H 42.757 V 9.195 Z m 0,76.261 42.757,6.308 V 55.408 H 0 Z M 105.79,107.3 V 55.408 H 46.907 v 43.207 z"
     style="fill:#ffffff"
     id="path2" />
  <g
     aria-label="Installers"
     id="text168"
     style="font-size:42.6667px;font-family:'Segoe UI Variable Static Text';-inkscape-font-specification:'Segoe UI Variable Static Text, Normal';fill:#ffffff">
    <path
       d="m 322.46239,123.39949 h -3.50001 V 93.524468 h 3.50001 z"
       id="path274" />
    <path
       d="m 347.56657,123.39949 h -3.41667 v -12.16668 q 0,-3.39583 -1.25,-5.08333 -1.22916,-1.70834 -3.70833,-1.70834 -2.5625,0 -4.25001,1.9375 -1.66666,1.91667 -1.66666,4.85417 v 12.16668 h -3.41667 v -21.33335 h 3.41667 v 3.54167 h 0.0833 q 1.20833,-2.02083 2.95833,-3.02084 1.75001,-1.02083 4.04167,-1.02083 3.50001,0 5.35418,2.27084 1.85416,2.25 1.85416,6.52083 z"
       id="path276" />
    <path
       d="m 352.00408,121.79532 1.625,-2.625 q 1.39583,0.91667 2.72917,1.39583 1.33333,0.45834 2.875,0.45834 2.1875,0 3.3125,-0.8125 1.14584,-0.8125 1.14584,-2.4375 0,-1.3125 -1.02084,-2.20834 -1,-0.91667 -3.14583,-1.45833 -4.00001,-1.02084 -5.47918,-2.56251 -1.47916,-1.5625 -1.47916,-3.83333 0,-2.625 1.97917,-4.375 1.97916,-1.77084 5.52083,-1.77084 1.70834,0 3.25,0.4375 1.54167,0.4375 3.14584,1.5 l -1.52083,2.58334 q -1.45834,-0.91667 -2.62501,-1.27084 -1.14583,-0.375 -2.33333,-0.375 -2.0625,0 -3.14584,0.77084 -1.08333,0.75 -1.08333,2.1875 0,1.4375 1.10417,2.16667 1.125,0.72916 3.60417,1.375 3.25,0.875 4.85417,2.45833 1.625,1.5625 1.625,4.10417 0,2.95834 -2.10417,4.68751 -2.08334,1.70833 -5.72917,1.70833 -1.95834,0 -3.77084,-0.54167 -1.79167,-0.54166 -3.33333,-1.5625 z"
       id="path278" />
    <path
       d="m 382.27493,123.14949 q -0.875,0.35417 -1.72917,0.52083 -0.83333,0.1875 -1.89583,0.1875 -2.54167,0 -4,-1.47916 -1.43751,-1.5 -1.43751,-4.41667 v -12.97918 h -3.66666 v -2.91667 h 3.66666 v -5.208336 l 3.41667,-1.104168 v 6.312504 h 5.37501 v 2.91667 h -5.37501 v 12.58334 q 0,1.83334 0.64584,2.64584 0.66667,0.8125 1.97917,0.8125 0.625,0 1.20833,-0.14583 0.58333,-0.14584 0.97917,-0.33334 z"
       id="path280" />
    <path
       d="m 401.67078,123.39949 h -3.41667 v -3.33334 h -0.0833 q -1.10417,1.91667 -2.72917,2.87501 -1.60417,0.95833 -3.75,0.95833 -3,0 -4.85417,-1.75 -1.85417,-1.75 -1.85417,-4.64584 0,-2.72917 1.875,-4.52083 1.875,-1.79167 5.31251,-2.29167 l 6.08333,-0.8125 v -0.47917 q 0,-2.6875 -1.25,-3.8125 -1.25,-1.14584 -3.33333,-1.14584 -1.66667,0 -3.20834,0.625 -1.54167,0.625 -2.89583,1.91667 l -2.00001,-2.0625 q 1.79167,-1.72917 3.81251,-2.54167 2.02083,-0.8125 4.5,-0.8125 3.875,0 5.83334,2 1.95833,1.97917 1.95833,5.95834 z m -3.41667,-8.66667 v -2.125 l -5.14583,0.70833 q -2.35417,0.33333 -3.54167,1.1875 -1.1875,0.85417 -1.1875,2.6875 0,1.91667 1.10416,2.9375 1.125,1.00001 2.72917,1.00001 2.77084,0 4.39584,-1.81251 1.64583,-1.8125 1.64583,-4.58333 z"
       id="path282" />
    <path
       d="M 408.27495,123.39949 V 91.816133 h 3.41667 v 31.583357 z"
       id="path284" />
    <path
       d="M 418.60829,123.39949 V 91.816133 h 3.41667 v 31.583357 z"
       id="path286" />
    <path
       d="m 446.08748,113.50365 h -15.08334 q 0.0833,3.60417 1.89583,5.5625 1.83334,1.93751 5.12501,1.93751 1.4375,0 2.875,-0.41667 1.45833,-0.4375 2.875,-1.375 l 1.58333,2.4375 q -1.8125,1.16667 -3.625,1.70833 -1.8125,0.54167 -3.97917,0.54167 -4.83334,0 -7.54167,-2.875 -2.70834,-2.875 -2.72917,-8.02084 -0.0208,-5.14584 2.70834,-8.29167 2.75,-3.14584 7.125,-3.14584 4.16667,0 6.45834,2.72917 2.3125,2.70833 2.3125,7.52084 z m -3.5,-2.79167 q -0.0208,-2.95833 -1.4375,-4.60417 -1.41667,-1.66667 -3.89584,-1.66667 -2.4375,0 -4.14584,1.70834 -1.6875,1.6875 -2.0625,4.5625 z"
       id="path288" />
    <path
       d="m 461.77498,104.98281 q -0.39583,-0.125 -0.70833,-0.16667 -0.3125,-0.0625 -0.79167,-0.0625 -2.60417,0 -4.10417,2.22917 -1.5,2.20834 -1.5,5.54167 v 10.87501 h -3.41667 v -21.33335 h 3.41667 v 4.22917 h 0.0833 q 0.72916,-2.25 2.22916,-3.41667 1.5,-1.1875 3.45834,-1.1875 0.64583,0 1.08333,0.0625 0.45834,0.0625 0.8125,0.1875 z"
       id="path290" />
    <path
       d="m 464.08748,121.79532 1.62501,-2.625 q 1.39583,0.91667 2.72916,1.39583 1.33334,0.45834 2.87501,0.45834 2.1875,0 3.3125,-0.8125 1.14583,-0.8125 1.14583,-2.4375 0,-1.3125 -1.02083,-2.20834 -1,-0.91667 -3.14584,-1.45833 -4,-1.02084 -5.47917,-2.56251 -1.47916,-1.5625 -1.47916,-3.83333 0,-2.625 1.97916,-4.375 1.97917,-1.77084 5.52084,-1.77084 1.70834,0 3.25,0.4375 1.54167,0.4375 3.14584,1.5 l -1.52084,2.58334 q -1.45833,-0.91667 -2.625,-1.27084 -1.14583,-0.375 -2.33333,-0.375 -2.0625,0 -3.14584,0.77084 -1.08333,0.75 -1.08333,2.1875 0,1.4375 1.10417,2.16667 1.125,0.72916 3.60416,1.375 3.25001,0.875 4.85417,2.45833 1.62501,1.5625 1.62501,4.10417 0,2.95834 -2.10417,4.68751 -2.08334,1.70833 -5.72917,1.70833 -1.95834,0 -3.77084,-0.54167 -1.79167,-0.54166 -3.33334,-1.5625 z"
       id="path292" />
  </g>
</svg>
