<?xml version="1.0" encoding="utf-8"?>
<svg viewBox="0 0 479 107.3" xmlns="http://www.w3.org/2000/svg">
  <path d="M 217.562 22.397 L 200.012 84.529 L 191.479 84.529 L 178.696 39.122 C 178.149 37.187 177.814 35.078 177.7 32.796 L 177.528 32.796 C 177.359 34.908 176.982 36.998 176.402 39.036 L 163.535 84.529 L 155.085 84.529 L 136.887 22.397 L 144.901 22.397 L 158.117 70.057 C 158.673 72.097 159.022 74.187 159.157 76.297 L 159.375 76.297 C 159.519 74.765 159.963 72.687 160.716 70.057 L 174.452 22.397 L 181.427 22.397 L 194.597 70.405 C 195.059 72.05 195.404 73.987 195.637 76.21 L 195.809 76.21 C 195.924 74.71 196.314 72.717 196.981 70.232 L 209.675 22.4 L 217.562 22.4 L 217.562 22.397 Z M 227.348 28.895 C 226.076 28.895 224.993 28.461 224.098 27.594 C 223.203 26.727 222.757 25.632 222.757 24.301 C 222.757 22.975 223.206 21.867 224.098 20.984 C 224.996 20.104 226.076 19.664 227.348 19.664 C 228.648 19.664 229.752 20.107 230.664 20.984 C 231.572 21.867 232.028 22.972 232.028 24.301 C 232.028 25.573 231.572 26.656 230.664 27.551 C 229.752 28.448 228.649 28.895 227.348 28.895 Z M 230.814 84.529 L 223.708 84.529 L 223.708 40.16 L 230.814 40.16 L 230.814 84.529 Z M 278.568 84.529 L 271.462 84.529 L 271.462 59.227 C 271.462 49.811 268.024 45.103 261.152 45.103 C 257.599 45.103 254.658 46.439 252.333 49.111 C 250.006 51.783 248.845 55.155 248.845 59.227 L 248.845 84.529 L 241.738 84.529 L 241.738 40.16 L 248.845 40.16 L 248.845 47.525 L 249.017 47.525 C 252.367 41.922 257.219 39.121 263.575 39.121 C 268.427 39.121 272.139 40.688 274.71 43.821 C 277.283 46.955 278.566 51.483 278.566 57.403 L 278.566 84.528 L 278.569 84.528 L 278.568 84.529 Z M 329.117 84.529 L 322.01 84.529 L 322.01 76.989 L 321.838 76.989 C 318.545 82.709 313.458 85.569 306.586 85.569 C 301.011 85.569 296.556 83.583 293.22 79.61 C 289.886 75.64 288.215 70.23 288.215 63.384 C 288.215 56.047 290.063 50.168 293.762 45.752 C 297.459 41.33 302.382 39.122 308.538 39.122 C 314.63 39.122 319.064 41.52 321.838 46.314 L 322.01 46.314 L 322.01 18.844 L 329.117 18.844 L 329.117 84.529 Z M 322.013 64.469 L 322.013 57.926 C 322.013 54.346 320.826 51.314 318.461 48.826 C 316.091 46.345 313.089 45.1 309.448 45.1 C 305.115 45.1 301.705 46.69 299.223 49.866 C 296.739 53.046 295.496 57.434 295.496 63.037 C 295.496 68.151 296.688 72.187 299.071 75.146 C 301.451 78.106 304.651 79.587 308.667 79.587 C 312.625 79.587 315.837 78.16 318.309 75.297 C 320.776 72.44 322.013 68.827 322.013 64.47 L 322.013 64.469 Z M 360.179 85.568 C 353.62 85.568 348.387 83.497 344.473 79.352 C 340.558 75.206 338.603 69.71 338.603 62.865 C 338.603 55.413 340.64 49.592 344.713 45.405 C 348.783 41.215 354.287 39.119 361.221 39.119 C 367.833 39.119 373 41.155 376.709 45.229 C 380.421 49.299 382.276 54.949 382.276 62.17 C 382.276 69.248 380.276 74.915 376.276 79.177 C 372.275 83.438 366.91 85.568 360.179 85.568 Z M 360.699 45.1 C 356.133 45.1 352.522 46.652 349.868 49.757 C 347.208 52.866 345.882 57.145 345.882 62.604 C 345.882 67.862 347.224 72.004 349.914 75.039 C 352.598 78.069 356.196 79.587 360.701 79.587 C 365.295 79.587 368.824 78.099 371.296 75.123 C 373.766 72.149 375 67.917 375 62.429 C 375 56.881 373.765 52.609 371.296 49.603 C 368.824 46.603 365.293 45.1 360.699 45.1 Z M 446.31 40.161 L 433.01 84.529 L 425.642 84.529 L 416.502 52.769 C 416.155 51.555 415.922 50.186 415.81 48.655 L 415.638 48.655 C 415.552 49.694 415.248 51.035 414.728 52.685 L 404.808 84.531 L 397.7 84.531 L 384.268 40.164 L 391.719 40.164 L 400.902 73.523 C 401.189 74.535 401.392 75.863 401.508 77.508 L 401.855 77.508 C 401.942 76.238 402.203 74.882 402.636 73.437 L 412.861 40.161 L 419.359 40.161 L 428.544 73.609 C 428.831 74.679 429.049 76.008 429.196 77.595 L 429.543 77.595 C 429.599 76.469 429.845 75.141 430.278 73.609 L 439.291 40.161 L 446.31 40.161 Z M 449.603 82.924 L 449.603 75.298 C 453.473 78.16 457.733 79.588 462.383 79.588 C 468.623 79.588 471.741 77.508 471.741 73.348 C 471.741 72.164 471.475 71.16 470.943 70.336 C 470.41 69.512 469.685 68.785 468.777 68.148 C 467.867 67.514 466.797 66.941 465.573 66.437 C 464.256 65.898 462.935 65.37 461.608 64.855 C 459.643 64.074 457.916 63.288 456.431 62.492 C 454.943 61.698 453.703 60.803 452.704 59.805 C 451.727 58.838 450.96 57.679 450.45 56.402 C 449.945 55.132 449.692 53.646 449.692 51.94 C 449.692 49.861 450.169 48.018 451.119 46.416 C 452.075 44.811 453.345 43.47 454.932 42.385 C 456.522 41.302 458.335 40.485 460.373 39.935 C 462.428 39.385 464.546 39.11 466.673 39.115 C 470.514 39.115 473.952 39.781 476.987 41.107 L 476.987 48.299 C 473.719 46.162 469.964 45.092 465.72 45.092 C 464.391 45.092 463.195 45.244 462.125 45.549 C 461.055 45.85 460.14 46.279 459.375 46.826 C 458.609 47.376 458.018 48.033 457.599 48.796 C 457.177 49.574 456.961 50.447 456.971 51.332 C 456.971 52.488 457.179 53.454 457.599 54.237 C 458.018 55.015 458.631 55.707 459.44 56.316 C 460.251 56.919 461.233 57.47 462.386 57.959 C 463.545 58.451 464.858 58.986 466.334 59.564 C 468.294 60.317 470.058 61.09 471.617 61.881 C 473.177 62.675 474.505 63.572 475.602 64.568 C 476.673 65.531 477.536 66.703 478.138 68.011 C 478.728 69.314 479.025 70.858 479.025 72.648 C 479.025 74.844 478.545 76.75 477.575 78.368 C 476.606 79.988 475.28 81.366 473.698 82.396 C 472.078 83.466 470.218 84.26 468.108 84.78 C 466.004 85.3 463.793 85.56 461.481 85.56 C 456.91 85.568 452.952 84.686 449.603 82.924 Z M 105.79 0 L 46.907 8.592 L 46.907 51.261 L 105.788 51.261 L 105.79 0 Z M 0 15.432 L 0 51.261 L 42.757 51.261 L 42.757 9.195 L 0 15.432 Z M 0 91.693 L 42.757 98.001 L 42.757 55.408 L 0 55.408 L 0 91.693 Z M 105.79 107.3 L 105.79 55.408 L 46.907 55.408 L 46.907 98.615 L 105.79 107.3 Z" style="fill: rgb(255, 255, 255);"/>
</svg>