<?xml version="1.0" encoding="utf-8"?>
<svg width="88.079407" height="100" viewBox="0 0 6.7911337 7.71024" version="1.1" id="svg70" xmlns="http://www.w3.org/2000/svg">
  <path d="M 3.396 0 C 4.331 0 5.18 0.381 5.795 0.996 C 6.41 1.612 6.791 2.46 6.791 3.395 L 6.791 3.396 C 6.791 4.331 6.41 5.18 5.795 5.795 C 5.18 6.41 4.331 6.791 3.396 6.791 L 3.395 6.791 C 2.46 6.791 1.611 6.41 0.996 5.795 C 0.381 5.18 0 4.331 0 3.396 L 0 3.395 C 0 2.46 0.381 1.612 0.996 0.996 C 1.612 0.381 2.46 0 3.395 0 L 3.396 0 Z M 3.396 0.859 L 3.395 0.859 C 2.697 0.859 2.063 1.144 1.603 1.603 C 1.144 2.063 0.859 2.697 0.859 3.395 L 0.859 3.396 C 0.859 4.094 1.144 4.728 1.603 5.188 C 2.063 5.647 2.697 5.932 3.395 5.932 L 3.396 5.932 C 4.094 5.932 4.728 5.647 5.188 5.188 C 5.647 4.728 5.932 4.094 5.932 3.396 L 5.932 3.395 C 5.932 2.697 5.647 2.063 5.188 1.603 C 4.728 1.144 4.094 0.859 3.396 0.859 L 3.396 0.859 Z" id="path6" style="fill: rgb(255, 255, 255);"/>
  <path d="M 2.503 1.272 L 3.724 1.272 C 3.755 1.272 3.799 1.305 3.808 1.334 L 4.67 3.98 L 5.033 3.872 C 5.074 3.86 5.128 3.889 5.142 3.929 L 5.387 4.661 C 5.402 4.704 5.372 4.761 5.328 4.774 L 4.108 5.135 C 4.067 5.147 4.013 5.118 3.999 5.078 L 3.522 3.654 L 2.765 5.015 C 2.753 5.035 2.71 5.061 2.687 5.061 L 1.716 5.061 C 1.65 5.061 1.607 4.987 1.639 4.929 L 3.08 2.338 L 3.023 2.168 L 2.503 2.168 C 2.459 2.168 2.414 2.123 2.414 2.079 L 2.414 1.361 C 2.414 1.317 2.459 1.272 2.503 1.272 Z" id="path34" style="fill: rgb(255, 255, 255);"/>
  <path fill-rule="evenodd" clip-rule="evenodd" d="M 0.977 6.919 L 1.25 6.919 L 1.448 7.504 L 1.548 7.476 L 1.602 7.633 L 1.33 7.71 L 1.209 7.364 L 1.018 7.694 L 0.801 7.694 L 1.127 7.13 L 1.107 7.073 L 0.977 7.073 L 0.977 6.919 Z" id="path4" style="fill: rgb(255, 255, 255);"/>
  <path d="M 4.272 6.953 L 4.424 6.953 L 4.424 7.524 L 4.769 7.524 L 4.769 7.676 L 4.272 7.676 L 4.272 6.953 Z" id="path931" style="fill: rgb(255, 255, 255);"/>
  <path d="M 1.932 6.953 L 2.084 6.953 L 2.084 7.524 L 2.412 7.524 L 2.412 7.676 L 1.932 7.676 L 1.932 6.953 L 1.932 6.953 Z" id="path929" style="fill: rgb(255, 255, 255);"/>
  <path d="M 0 6.953 L 0.152 6.953 L 0.152 7.229 L 0.32 7.229 L 0.32 6.953 L 0.472 6.953 L 0.472 7.676 L 0.32 7.676 L 0.32 7.369 L 0.152 7.369 L 0.152 7.676 L 0 7.676 L 0 6.953 Z" id="path927" style="fill: rgb(255, 255, 255);"/>
  <path d="M 6.342 6.953 L 6.791 6.953 L 6.791 7.093 L 6.494 7.093 L 6.494 7.229 L 6.763 7.229 L 6.763 7.369 L 6.494 7.369 L 6.494 7.524 L 6.791 7.524 L 6.791 7.676 L 6.342 7.676 L 6.342 6.953 Z" id="path925" style="fill: rgb(255, 255, 255);"/>
  <path d="M 5.579 6.953 L 6.013 6.953 L 6.013 7.093 L 5.732 7.093 L 5.732 7.229 L 5.949 7.229 L 5.949 7.369 L 5.732 7.369 L 5.732 7.676 L 5.579 7.676 L 5.579 6.953 Z" id="path923" style="fill: rgb(255, 255, 255);"/>
  <path d="M 2.741 6.953 L 3.175 6.953 L 3.175 7.093 L 2.893 7.093 L 2.893 7.229 L 3.111 7.229 L 3.111 7.369 L 2.893 7.369 L 2.893 7.676 L 2.741 7.676 L 2.741 6.953 Z" id="path921" style="fill: rgb(255, 255, 255);"/>
  <path d="M 3.504 7.213 L 3.943 7.213 L 3.943 7.416 L 3.504 7.416 L 3.504 7.213 Z" id="path919" style="fill: rgb(255, 255, 255);"/>
  <path d="M 5.098 6.953 L 5.25 6.953 L 5.25 7.676 L 5.098 7.676 L 5.098 6.953 Z" id="path68" style="fill: rgb(255, 255, 255);"/>
</svg>