<?xml version="1.0" encoding="UTF-8" standalone="no"?>
<!-- Created with Inkscape (http://www.inkscape.org/) -->

<svg
   width="40.388199mm"
   height="4.158916mm"
   viewBox="0 0 40.388199 4.158916"
   version="1.1"
   id="svg5"
   xmlns="http://www.w3.org/2000/svg"
   xmlns:svg="http://www.w3.org/2000/svg">
  <defs
     id="defs2" />
  <g
     id="layer1"
     transform="translate(-53.39677,-159.44925)">
    <g
       aria-label="RICK DANGEROUS"
       id="text1516"
       style="font-size:4.23333px;font-family:'Miver - Personal Use';-inkscape-font-specification:'Miver - Personal Use, Normal';fill:#ffffff;stroke-width:3.43165">
      <path
         d="m 56.37333,163.60609 h -1.221629 q 0.04961,0 0.113688,-0.0455 0.06408,-0.0455 0.07028,-0.0992 l -0.952913,-1.77767 -0.0021,1.79421 q 0.01447,0.0227 0.05374,0.0496 0.03927,0.0289 0.08682,0.0496 0.04754,0.0227 0.08268,0.0289 H 53.39677 q 0.05374,-0.0103 0.126091,-0.0537 0.07235,-0.0413 0.09922,-0.0785 v -3.84679 q -0.02687,-0.0537 -0.09922,-0.0971 -0.07235,-0.0455 -0.126091,-0.0558 h 2.45773 q 0.148828,0 0.254247,0.10542 0.10542,0.10335 0.10542,0.25011 v 1.45728 q 0,0.14676 -0.10542,0.25218 -0.105419,0.10335 -0.254247,0.10335 l -0.721403,0.002 0.981852,1.82108 q 0.03514,0.0517 0.119889,0.0951 0.08682,0.0455 0.138492,0.0455 z m -1.988507,-2.7037 0.99012,-0.002 q 0.04341,0 0.07235,-0.0331 0.03101,-0.0331 0.03101,-0.0765 v -0.44856 q 0,-0.0455 -0.03101,-0.0765 -0.02894,-0.0331 -0.07235,-0.0331 h -0.992187 z"
         id="path1676" />
      <path
         d="m 57.774794,163.60609 h -1.209227 q 0.05374,-0.0103 0.12609,-0.0537 0.07441,-0.0413 0.09922,-0.0785 v -3.84679 q -0.02481,-0.0537 -0.09922,-0.0971 -0.07235,-0.0455 -0.12609,-0.0558 h 1.209227 q -0.05788,0.0103 -0.130224,0.0537 -0.07235,0.0434 -0.09302,0.0909 v 3.8592 q 0.0124,0.0227 0.05168,0.0496 0.03927,0.0289 0.08682,0.0496 0.04754,0.0227 0.08475,0.0289 z"
         id="path1678" />
      <path
         d="m 60.614928,163.60609 h -2.257224 q -0.198438,0 -0.341065,-0.13435 -0.140559,-0.13436 -0.140559,-0.32867 v -3.19773 q 0,-0.1943 0.140559,-0.3328 0.14056,-0.14056 0.33693,-0.14056 h 2.261359 v 0.99219 q -0.0062,-0.0351 -0.02894,-0.0868 -0.02067,-0.0517 -0.04961,-0.093 -0.02687,-0.0434 -0.05168,-0.0537 l -1.624706,-0.002 q -0.09508,0 -0.165364,0.0703 -0.06821,0.0682 -0.06821,0.16329 v 2.16628 q 0,0.0971 0.06615,0.17156 0.06821,0.0724 0.165364,0.0724 h 1.626773 q 0.02274,-0.0124 0.04961,-0.0558 0.02894,-0.0434 0.05168,-0.093 0.02274,-0.0517 0.02894,-0.0868 z"
         id="path1680" />
      <path
         d="m 63.825066,163.59163 h -1.240234 q 0.05374,-0.0103 0.115755,-0.0558 0.06201,-0.0455 0.07235,-0.0971 l -0.930175,-1.53789 -0.0021,1.5627 q 0.0124,0.0227 0.05168,0.0496 0.04134,0.0269 0.08888,0.0496 0.04754,0.0227 0.08268,0.0289 h -1.20716 q 0.05374,-0.0103 0.12609,-0.0538 0.07235,-0.0413 0.09922,-0.0786 v -3.84679 q -0.02687,-0.0537 -0.09922,-0.0992 -0.07235,-0.0455 -0.12609,-0.0558 h 1.20716 q -0.05581,0.0124 -0.128157,0.0558 -0.07235,0.0434 -0.09509,0.091 l 0.0021,1.54202 0.897102,-1.54202 q -0.0062,-0.0558 -0.07235,-0.10129 -0.06615,-0.0455 -0.117823,-0.0455 h 1.254703 q -0.05168,0 -0.14056,0.0455 -0.08682,0.0455 -0.121956,0.0971 l -1.043863,1.90789 1.066601,1.94097 q 0.03101,0.0455 0.115755,0.0889 0.08475,0.0434 0.144694,0.0538 z"
         id="path1682" />
      <path
         d="m 67.680124,163.60609 h -2.587953 q 0.02687,-0.006 0.07235,-0.0289 0.04548,-0.0227 0.08475,-0.0517 0.04134,-0.0269 0.05581,-0.0517 v -3.84679 q -0.0248,-0.0537 -0.09922,-0.0971 -0.07235,-0.0455 -0.126091,-0.0558 h 2.670636 q 0.19637,0 0.33693,0.13849 0.14056,0.1385 0.14056,0.33487 v 3.19566 q 0,0.1571 -0.07441,0.25839 -0.07441,0.10335 -0.198438,0.15296 -0.124023,0.0517 -0.274918,0.0517 z m -0.421679,-0.74207 q 0.09715,0 0.165364,-0.0682 0.07028,-0.0703 0.07028,-0.16537 v -2.16627 q 0,-0.0971 -0.07028,-0.16536 -0.06821,-0.0682 -0.165364,-0.0682 h -1.194758 v 2.63343 z"
         id="path1684" />
      <path
         d="m 70.228804,161.62792 -0.252181,-0.94878 -0.241846,0.94465 z m 1.463475,1.97817 h -1.22163 q 0.04961,0 0.124023,-0.0455 0.07441,-0.0455 0.09508,-0.0992 l -0.279052,-1.08934 -0.866097,-0.002 -0.285253,1.0914 q 0.02067,0.0537 0.09508,0.0992 0.07441,0.0455 0.126091,0.0455 H 68.2589 q 0.04961,0 0.124023,-0.0455 0.07648,-0.0434 0.09715,-0.0951 l 1.107941,-3.83853 q -0.02274,-0.0537 -0.09508,-0.0971 -0.07028,-0.0455 -0.126091,-0.0558 h 1.209228 q -0.05581,0.0103 -0.128157,0.0537 -0.07235,0.0434 -0.09095,0.0889 l 1.112076,3.84886 q 0.02067,0.0517 0.09508,0.0951 0.07648,0.0455 0.128157,0.0455 z"
         id="path1686" />
      <path
         d="m 75.057445,163.60609 h -1.209227 q 0.05374,-0.0103 0.12609,-0.0537 0.07441,-0.0413 0.09922,-0.0806 l 0.0021,-0.66146 -1.254703,-1.84382 -0.0021,2.50941 q 0.0124,0.0227 0.05168,0.0496 0.04134,0.0289 0.08888,0.0517 0.04754,0.0227 0.08268,0.0289 h -1.20716 q 0.05374,-0.0103 0.12609,-0.0537 0.07235,-0.0413 0.09922,-0.0806 v -3.84473 q -0.02687,-0.0537 -0.09922,-0.0992 -0.07235,-0.0455 -0.12609,-0.0558 h 1.20716 q -0.05581,0.0103 -0.128157,0.0558 -0.07235,0.0434 -0.09508,0.0909 l 1.258837,1.85622 -0.0041,-1.84795 q -0.02481,-0.0537 -0.09922,-0.0992 -0.07235,-0.0455 -0.12609,-0.0558 h 1.209227 q -0.05788,0.0103 -0.130224,0.0558 -0.07235,0.0434 -0.09302,0.0889 v 3.85919 q 0.0124,0.0227 0.05168,0.0496 0.03927,0.0289 0.08682,0.0517 0.04754,0.0227 0.08475,0.0289 z"
         id="path1688" />
      <path
         d="m 78.09395,163.60816 h -2.430857 q -0.198437,0 -0.341064,-0.13436 -0.14056,-0.13436 -0.14056,-0.33073 v -3.19566 q 0,-0.19431 0.14056,-0.3328 0.14056,-0.14056 0.33693,-0.14056 h 2.261359 v 0.99219 q -0.0062,-0.0351 -0.02894,-0.0868 -0.02067,-0.0517 -0.04961,-0.0951 -0.02687,-0.0434 -0.04961,-0.0517 l -1.624706,-0.002 q -0.09715,0 -0.167431,0.0682 -0.06821,0.0682 -0.06821,0.16536 v 2.16627 q 0,0.0972 0.06821,0.17157 0.06821,0.0724 0.163297,0.0724 h 0.946712 v -0.76688 h -0.248047 q -0.05374,0.0248 -0.09922,0.0951 -0.04547,0.0703 -0.05788,0.12196 v -1.19682 q 0.0124,0.0558 0.05581,0.12815 0.04548,0.0703 0.09302,0.093 h 1.014924 l 0.0021,2.12907 q 0.0124,0.0227 0.05168,0.0496 0.09508,0.0661 0.171565,0.0806 z"
         id="path1690" />
      <path
         d="m 78.769877,163.60609 q -0.297656,0 -0.514697,-0.002 0.05581,-0.0207 0.128158,-0.0641 0.07235,-0.0434 0.09922,-0.0806 v -3.84679 q -0.02687,-0.0537 -0.09922,-0.0992 -0.07235,-0.0455 -0.126091,-0.0599 0.460954,-0.004 2.817397,-0.004 v 0.97565 q -0.0124,-0.0538 -0.05581,-0.12609 -0.04134,-0.0724 -0.08062,-0.0972 l -1.692918,-0.004 q -0.0021,0 -0.0021,0.29352 0,0.34933 0.0041,0.6966 h 1.068668 q 0.02067,-0.0124 0.04754,-0.0517 0.02894,-0.0413 0.05168,-0.0868 0.02274,-0.0476 0.03101,-0.0827 v 1.19683 q -0.0124,-0.0537 -0.05581,-0.12609 -0.04134,-0.0724 -0.08062,-0.0971 h -1.062467 q -0.0041,0.27492 -0.0041,0.54983 l 0.0021,0.36794 h 1.692918 q 0.04134,-0.0227 0.08888,-0.0909 0.04754,-0.0703 0.04754,-0.12402 v 0.94878 z"
         id="path1692" />
      <path
         d="m 84.24344,163.60609 h -1.22163 q 0.04961,0 0.113688,-0.0455 0.06408,-0.0455 0.07028,-0.0992 l -0.952912,-1.77767 -0.0021,1.79421 q 0.01447,0.0227 0.05374,0.0496 0.03927,0.0289 0.08682,0.0496 0.04754,0.0227 0.08268,0.0289 h -1.20716 q 0.05374,-0.0103 0.12609,-0.0537 0.07235,-0.0413 0.09922,-0.0785 v -3.84679 q -0.02687,-0.0537 -0.09922,-0.0971 -0.07235,-0.0455 -0.12609,-0.0558 h 2.457729 q 0.148828,0 0.254248,0.10542 0.10542,0.10335 0.10542,0.25011 v 1.45728 q 0,0.14676 -0.10542,0.25218 -0.10542,0.10335 -0.254248,0.10335 l -0.721402,0.002 0.981851,1.82108 q 0.03514,0.0517 0.119889,0.0951 0.08682,0.0455 0.138493,0.0455 z m -1.988507,-2.7037 0.990119,-0.002 q 0.04341,0 0.07235,-0.0331 0.03101,-0.0331 0.03101,-0.0765 v -0.44856 q 0,-0.0455 -0.03101,-0.0765 -0.02894,-0.0331 -0.07235,-0.0331 h -0.992186 z"
         id="path1694" />
      <path
         d="m 86.759046,163.60609 h -1.887221 q -0.198438,0 -0.338997,-0.13435 -0.138493,-0.1323 -0.138493,-0.32867 v -3.19566 q 0,-0.19637 0.138493,-0.33487 0.140559,-0.13849 0.338997,-0.13849 h 1.957501 q 0.198438,0 0.338997,0.13849 0.14056,0.1385 0.14056,0.33487 v 3.19566 q 0,0.1571 -0.07648,0.25839 -0.07441,0.10335 -0.198437,0.15296 -0.121957,0.0517 -0.274919,0.0517 z m -0.419612,-0.74207 q 0.09508,0 0.163297,-0.0682 0.07028,-0.0703 0.07028,-0.16537 v -2.16627 q 0,-0.0971 -0.07028,-0.16536 -0.06821,-0.0682 -0.163297,-0.0682 h -0.961181 q -0.09715,0 -0.165364,0.0682 -0.06821,0.0682 -0.06821,0.16536 v 2.16627 q 0,0.0951 0.06821,0.16537 0.06821,0.0682 0.165364,0.0682 z"
         id="path1696" />
      <path
         d="m 90.163489,163.60609 h -1.957501 q -0.198438,0 -0.338997,-0.14055 -0.14056,-0.1385 -0.14056,-0.3328 v -3.51813 q -0.02481,-0.0517 -0.09095,-0.0971 -0.06408,-0.0455 -0.117822,-0.0558 h 1.209228 q -0.05581,0.0103 -0.128158,0.0558 -0.07235,0.0434 -0.09508,0.0909 v 3.01583 q 0,0.0951 0.06615,0.16123 0.06821,0.0661 0.163297,0.0661 h 0.934309 q 0.09508,0 0.16123,-0.0661 0.06615,-0.0661 0.06615,-0.16123 v -3.00963 q -0.02481,-0.0517 -0.09715,-0.0971 -0.07235,-0.0455 -0.128158,-0.0558 h 1.209228 q -0.05581,0.0103 -0.124024,0.0558 -0.06615,0.0434 -0.08888,0.0909 0.0021,0.8723 0.02481,3.53053 -0.0062,0.2005 -0.169499,0.3328 -0.16123,0.13435 -0.357601,0.13435 z"
         id="path1698" />
      <path
         d="m 93.299213,163.60609 h -2.259292 v -0.96944 q 0.0062,0.0351 0.02894,0.0868 0.02274,0.0496 0.05168,0.093 0.02894,0.0434 0.05168,0.0558 h 1.624706 q 0.09715,0 0.163297,-0.0724 0.06821,-0.0744 0.06821,-0.17156 v -0.65526 q 0,-0.0868 -0.06615,-0.15089 -0.06408,-0.0661 -0.163297,-0.0703 h -1.279507 q -0.198438,0 -0.338997,-0.1385 -0.14056,-0.14056 -0.14056,-0.33486 0,-1.34359 0.0021,-1.36012 0.01033,-0.19431 0.16123,-0.32866 0.134359,-0.11783 0.31626,-0.11783 h 2.261358 v 0.99219 q -0.0062,-0.0351 -0.02894,-0.0868 -0.02274,-0.0517 -0.05168,-0.093 -0.02687,-0.0434 -0.04961,-0.0537 l -1.624706,-0.002 q -0.09715,0 -0.165364,0.0703 -0.06821,0.0682 -0.06821,0.16329 v 0.29353 q 0,0.10128 0.06615,0.16949 0.06821,0.0661 0.167431,0.0682 h 1.283642 q 0.200504,0.006 0.33693,0.14469 0.138493,0.13643 0.138493,0.33073 v 1.67431 q 0,0.19431 -0.144694,0.32867 -0.144694,0.13435 -0.341064,0.13435 z"
         id="path1700" />
    </g>
  </g>
</svg>
