<?xml version="1.0" encoding="UTF-8" standalone="no"?><!-- Generator: Gravit.io --><svg xmlns="http://www.w3.org/2000/svg" xmlns:xlink="http://www.w3.org/1999/xlink" style="isolation:isolate" viewBox="0 0 54 54" width="54pt" height="54pt"><defs><clipPath id="_clipPath_zEYtJ0DgNYzuuZSiWAtN8c2dOai7qpD3"><rect width="54" height="54"/></clipPath></defs><g clip-path="url(#_clipPath_zEYtJ0DgNYzuuZSiWAtN8c2dOai7qpD3)"><rect width="54" height="54" style="fill:rgb(255,0,0)" fill-opacity="0"/><g><path d=" M 24.916 8.024 C 17.332 8.522 10.195 11.983 3.088 18.612 C 2.704 18.972 1.852 19.812 1.194 20.479 L 0 21.697 L 2.227 23.889 L 4.459 26.081 L 5.597 24.924 C 6.226 24.292 7.01 23.516 7.348 23.204 C 15.232 15.904 22.963 13.145 30.948 14.786 C 36.676 15.961 42.746 19.526 48.723 25.223 C 49.035 25.522 49.39 25.856 49.512 25.973 L 49.731 26.176 L 51.621 24.153 C 52.663 23.035 53.625 22.009 53.76 21.861 L 54 21.597 L 53.27 20.904 C 44.994 13.006 37.132 8.864 28.945 8.089 C 28.126 8.011 25.705 7.972 24.916 8.024 Z " fill="rgb(255,255,255)"/><path d=" M 25.085 19.361 C 23.031 19.53 21.487 19.855 19.601 20.518 C 15.721 21.87 11.954 24.413 8.175 28.217 C 7.647 28.745 7.221 29.192 7.221 29.209 C 7.221 29.231 8.061 30.071 9.086 31.076 C 10.115 32.086 11.11 33.065 11.3 33.255 L 11.646 33.598 L 12.443 32.8 C 13.709 31.527 14.628 30.704 15.805 29.794 C 18.513 27.693 21.196 26.397 23.883 25.899 C 24.857 25.721 25.325 25.678 26.456 25.678 C 27.582 25.682 28.008 25.717 29.029 25.899 C 32.977 26.605 37.123 29.01 41.422 33.082 C 41.78 33.416 42.08 33.689 42.088 33.684 C 42.147 33.645 46.323 29.157 46.323 29.127 C 46.323 29.057 44.661 27.515 43.75 26.735 C 39.671 23.252 35.656 21.016 31.602 19.981 C 30.417 19.678 29.286 19.487 27.995 19.374 C 27.54 19.335 25.503 19.327 25.085 19.361 Z " fill="rgb(255,255,255)"/><path d=" M 25.465 30.448 C 22.634 30.678 19.825 31.904 17.26 34.031 C 16.421 34.728 14.962 36.136 14.987 36.223 C 14.995 36.245 15.995 37.241 17.21 38.433 L 19.412 40.599 L 19.846 40.161 C 22.267 37.718 24.617 36.587 26.865 36.791 C 28.24 36.916 29.535 37.414 31.011 38.385 C 31.771 38.883 32.855 39.767 33.513 40.425 L 33.8 40.711 L 34.04 40.451 C 34.175 40.308 35.128 39.286 36.157 38.181 C 37.191 37.077 38.039 36.154 38.043 36.123 C 38.047 36.097 37.836 35.876 37.579 35.634 C 34.369 32.636 31.273 30.99 27.991 30.53 C 27.51 30.461 25.924 30.413 25.465 30.448 Z " fill="rgb(255,255,255)"/><path d=" M 25.802 40.824 C 24.541 41.01 23.419 41.846 22.896 42.99 C 22.664 43.493 22.601 43.8 22.601 44.394 C 22.601 44.987 22.664 45.295 22.896 45.798 C 23.545 47.21 25.022 48.081 26.625 47.994 C 28.118 47.916 29.375 47.097 29.961 45.819 C 30.189 45.33 30.265 44.966 30.265 44.394 C 30.265 43.805 30.185 43.441 29.936 42.921 C 29.231 41.431 27.531 40.568 25.802 40.824 Z " fill="rgb(255,255,255)"/></g></g></svg>